<?xml version="1.0" encoding="us-ascii" standalone="no"?><svg xmlns="http://www.w3.org/2000/svg" xmlns:xlink="http://www.w3.org/1999/xlink" contentStyleType="text/css" height="1043px" preserveAspectRatio="none" style="width:1848px;height:1042px;background:#FFFFFF;" version="1.1" viewBox="0 0 1848 1042" width="1848.7px" zoomAndPan="magnify"><defs/><g><rect fill="#FFFFFF" height="881.1031" style="stroke:#181818;stroke-width:0.6999999999999998;" width="7" x="42.7" y="78.5695"/><rect fill="#FFFFFF" height="21.9037" style="stroke:#181818;stroke-width:0.6999999999999998;" width="7" x="282.1" y="94.8732"/><rect fill="#FFFFFF" height="197.1334" style="stroke:#181818;stroke-width:0.6999999999999998;" width="7" x="282.1" y="138.6807"/><rect fill="#FFFFFF" height="21.9037" style="stroke:#181818;stroke-width:0.6999999999999998;" width="7" x="282.1" y="357.7178"/><rect fill="#FFFFFF" height="558.1475" style="stroke:#181818;stroke-width:0.6999999999999998;" width="7" x="282.1" y="401.5252"/><rect fill="#FFFFFF" height="153.326" style="stroke:#181818;stroke-width:0.6999999999999998;" width="7" x="785.4" y="160.5844"/><rect fill="#FFFFFF" height="514.34" style="stroke:#181818;stroke-width:0.6999999999999998;" width="7" x="785.4" y="423.4289"/><rect fill="#FFFFFF" height="161.026" style="stroke:#181818;stroke-width:0.6999999999999998;" width="7" x="788.9" y="450.9326"/><rect fill="#FFFFFF" height="21.9037" style="stroke:#181818;stroke-width:0.6999999999999998;" width="7" x="922.6" y="182.4881"/><rect fill="#FFFFFF" height="21.9037" style="stroke:#181818;stroke-width:0.6999999999999998;" width="7" x="922.6" y="476.3363"/><rect fill="#FFFFFF" height="21.9037" style="stroke:#181818;stroke-width:0.6999999999999998;" width="7" x="922.6" y="638.7623"/><rect fill="#FFFFFF" height="21.9037" style="stroke:#181818;stroke-width:0.6999999999999998;" width="7" x="997.5" y="226.2955"/><rect fill="#FFFFFF" height="21.9037" style="stroke:#181818;stroke-width:0.6999999999999998;" width="7" x="997.5" y="520.1437"/><rect fill="#FFFFFF" height="21.9037" style="stroke:#181818;stroke-width:0.6999999999999998;" width="7" x="997.5" y="682.5697"/><rect fill="#FFFFFF" height="21.9037" style="stroke:#181818;stroke-width:0.6999999999999998;" width="7" x="1079.75" y="270.1029"/><rect fill="#FFFFFF" height="189.4881" style="stroke:#181818;stroke-width:0.6999999999999998;" width="7" x="1264.9" y="726.3771"/><rect fill="#FFFFFF" height="91.6111" style="stroke:#181818;stroke-width:0.6999999999999998;" width="7" x="1268.4" y="797.4504"/><rect fill="#FFFFFF" height="29.6037" style="stroke:#181818;stroke-width:0.6999999999999998;" width="7" x="1271.9" y="828.4541"/><rect fill="#FFFFFF" height="21.9037" style="stroke:#181818;stroke-width:0.6999999999999998;" width="7" x="1805.65" y="563.9512"/><line style="stroke:#181818;stroke-width:0.3499999999999999;stroke-dasharray:5.0,5.0;" x1="46.2" x2="46.2" y1="71.5695" y2="972.2727"/><line style="stroke:#181818;stroke-width:0.3499999999999999;stroke-dasharray:5.0,5.0;" x1="285.25" x2="285.25" y1="71.5695" y2="972.2727"/><line style="stroke:#181818;stroke-width:0.3499999999999999;stroke-dasharray:5.0,5.0;" x1="788.9" x2="788.9" y1="71.5695" y2="972.2727"/><line style="stroke:#181818;stroke-width:0.3499999999999999;stroke-dasharray:5.0,5.0;" x1="925.75" x2="925.75" y1="71.5695" y2="972.2727"/><line style="stroke:#181818;stroke-width:0.3499999999999999;stroke-dasharray:5.0,5.0;" x1="1000.65" x2="1000.65" y1="71.5695" y2="972.2727"/><line style="stroke:#181818;stroke-width:0.3499999999999999;stroke-dasharray:5.0,5.0;" x1="1083.25" x2="1083.25" y1="71.5695" y2="972.2727"/><line style="stroke:#181818;stroke-width:0.3499999999999999;stroke-dasharray:5.0,5.0;" x1="1268.05" x2="1268.05" y1="71.5695" y2="972.2727"/><line style="stroke:#181818;stroke-width:0.3499999999999999;stroke-dasharray:5.0,5.0;" x1="1733.2" x2="1733.2" y1="760.7619" y2="972.2727"/><line style="stroke:#181818;stroke-width:0.3499999999999999;stroke-dasharray:5.0,5.0;" x1="1808.8" x2="1808.8" y1="71.5695" y2="972.2727"/><text fill="#000000" font-family="sans-serif" font-size="9.8" lengthAdjust="spacing" textLength="81.2" x="3.5" y="56.0752">Human Resources</text><text fill="#000000" font-family="sans-serif" font-size="9.8" lengthAdjust="spacing" textLength="39.2" x="25.9" y="69.11">Manager</text><ellipse cx="46.2" cy="9.45" fill="#E3E3E3" rx="5.6" ry="5.6" style="stroke:#181818;stroke-width:0.3499999999999999;"/><path d="M46.2,15.05 L46.2,33.95 M37.1,20.65 L55.3,20.65 M46.2,33.95 L37.1,44.45 M46.2,33.95 L55.3,44.45 " fill="none" style="stroke:#181818;stroke-width:0.3499999999999999;"/><text fill="#000000" font-family="sans-serif" font-size="9.8" lengthAdjust="spacing" textLength="81.2" x="3.5" y="982.1479">Human Resources</text><text fill="#000000" font-family="sans-serif" font-size="9.8" lengthAdjust="spacing" textLength="39.2" x="25.9" y="995.1826">Manager</text><ellipse cx="46.2" cy="1003.5922" fill="#E3E3E3" rx="5.6" ry="5.6" style="stroke:#181818;stroke-width:0.3499999999999999;"/><path d="M46.2,1009.1922 L46.2,1028.0922 M37.1,1014.7922 L55.3,1014.7922 M46.2,1028.0922 L37.1,1038.5922 M46.2,1028.0922 L55.3,1038.5922 " fill="none" style="stroke:#181818;stroke-width:0.3499999999999999;"/><rect fill="#E3E3E3" height="22.8348" rx="1.75" ry="1.75" style="stroke:#181818;stroke-width:0.3499999999999999;" width="112.7" x="229.25" y="48.0348"/><text fill="#000000" font-family="sans-serif" font-size="9.8" lengthAdjust="spacing" textLength="102.9" x="234.15" y="63.51">:RegisterCollaboratorUI</text><rect fill="#E3E3E3" height="22.8348" rx="1.75" ry="1.75" style="stroke:#181818;stroke-width:0.3499999999999999;" width="112.7" x="229.25" y="971.5727"/><text fill="#000000" font-family="sans-serif" font-size="9.8" lengthAdjust="spacing" textLength="102.9" x="234.15" y="987.0479">:RegisterCollaboratorUI</text><rect fill="#E3E3E3" height="22.8348" rx="1.75" ry="1.75" style="stroke:#181818;stroke-width:0.3499999999999999;" width="149.8" x="714" y="48.0348"/><text fill="#000000" font-family="sans-serif" font-size="9.8" lengthAdjust="spacing" textLength="140" x="718.9" y="63.51">:RegisterCollaboratorControlller</text><rect fill="#E3E3E3" height="22.8348" rx="1.75" ry="1.75" style="stroke:#181818;stroke-width:0.3499999999999999;" width="149.8" x="714" y="971.5727"/><text fill="#000000" font-family="sans-serif" font-size="9.8" lengthAdjust="spacing" textLength="140" x="718.9" y="987.0479">:RegisterCollaboratorControlller</text><rect fill="#E3E3E3" height="22.8348" rx="1.75" ry="1.75" style="stroke:#181818;stroke-width:0.3499999999999999;" width="67.9" x="892.15" y="48.0348"/><text fill="#000000" font-family="sans-serif" font-size="9.8" lengthAdjust="spacing" textLength="58.1" x="897.05" y="63.51">:Repositories</text><rect fill="#E3E3E3" height="22.8348" rx="1.75" ry="1.75" style="stroke:#181818;stroke-width:0.3499999999999999;" width="67.9" x="892.15" y="971.5727"/><text fill="#000000" font-family="sans-serif" font-size="9.8" lengthAdjust="spacing" textLength="58.1" x="897.05" y="987.0479">:Repositories</text><rect fill="#E3E3E3" height="35.8695" rx="1.75" ry="1.75" style="stroke:#181818;stroke-width:0.3499999999999999;" width="67.9" x="967.05" y="35"/><text fill="#000000" font-family="sans-serif" font-size="9.8" lengthAdjust="spacing" textLength="51.8" x="975.1" y="50.4752">repositories</text><text fill="#000000" font-family="sans-serif" font-size="9.8" lengthAdjust="spacing" textLength="58.1" x="971.95" y="63.51">:Repositories</text><rect fill="#E3E3E3" height="35.8695" rx="1.75" ry="1.75" style="stroke:#181818;stroke-width:0.3499999999999999;" width="67.9" x="967.05" y="971.5727"/><text fill="#000000" font-family="sans-serif" font-size="9.8" lengthAdjust="spacing" textLength="51.8" x="975.1" y="987.0479">repositories</text><text fill="#000000" font-family="sans-serif" font-size="9.8" lengthAdjust="spacing" textLength="58.1" x="971.95" y="1000.0826">:Repositories</text><rect fill="#E3E3E3" height="35.8695" rx="1.75" ry="1.75" style="stroke:#181818;stroke-width:0.3499999999999999;" width="82.6" x="1041.95" y="35"/><text fill="#000000" font-family="sans-serif" font-size="9.8" lengthAdjust="spacing" textLength="72.8" x="1046.85" y="50.4752">SkillsRepository:</text><text fill="#000000" font-family="sans-serif" font-size="9.8" lengthAdjust="spacing" textLength="70" x="1048.25" y="63.51">SkillsRepository</text><rect fill="#E3E3E3" height="35.8695" rx="1.75" ry="1.75" style="stroke:#181818;stroke-width:0.3499999999999999;" width="82.6" x="1041.95" y="971.5727"/><text fill="#000000" font-family="sans-serif" font-size="9.8" lengthAdjust="spacing" textLength="72.8" x="1046.85" y="987.0479">SkillsRepository:</text><text fill="#000000" font-family="sans-serif" font-size="9.8" lengthAdjust="spacing" textLength="70" x="1048.25" y="1000.0826">SkillsRepository</text><rect fill="#E3E3E3" height="35.8695" rx="1.75" ry="1.75" style="stroke:#181818;stroke-width:0.3499999999999999;" width="112.7" x="1212.05" y="35"/><text fill="#000000" font-family="sans-serif" font-size="9.8" lengthAdjust="spacing" textLength="102.9" x="1216.95" y="50.4752">collaboratorRepository:</text><text fill="#000000" font-family="sans-serif" font-size="9.8" lengthAdjust="spacing" textLength="100.1" x="1218.35" y="63.51">collaboratorRepository</text><rect fill="#E3E3E3" height="35.8695" rx="1.75" ry="1.75" style="stroke:#181818;stroke-width:0.3499999999999999;" width="112.7" x="1212.05" y="971.5727"/><text fill="#000000" font-family="sans-serif" font-size="9.8" lengthAdjust="spacing" textLength="102.9" x="1216.95" y="987.0479">collaboratorRepository:</text><text fill="#000000" font-family="sans-serif" font-size="9.8" lengthAdjust="spacing" textLength="100.1" x="1218.35" y="1000.0826">collaboratorRepository</text><rect fill="#E3E3E3" height="35.8695" rx="1.75" ry="1.75" style="stroke:#181818;stroke-width:0.3499999999999999;" width="67.2" x="1699.6" y="971.5727"/><text fill="#000000" font-family="sans-serif" font-size="9.8" lengthAdjust="spacing" textLength="52.5" x="1706.95" y="987.0479">collaborator</text><text fill="#000000" font-family="sans-serif" font-size="9.8" lengthAdjust="spacing" textLength="57.4" x="1704.5" y="1000.0826">:Collaborator</text><rect fill="#E3E3E3" height="22.8348" rx="1.75" ry="1.75" style="stroke:#181818;stroke-width:0.3499999999999999;" width="70.7" x="1773.8" y="48.0348"/><text fill="#000000" font-family="sans-serif" font-size="9.8" lengthAdjust="spacing" textLength="60.9" x="1778.7" y="63.51">jobRepository</text><rect fill="#E3E3E3" height="22.8348" rx="1.75" ry="1.75" style="stroke:#181818;stroke-width:0.3499999999999999;" width="70.7" x="1773.8" y="971.5727"/><text fill="#000000" font-family="sans-serif" font-size="9.8" lengthAdjust="spacing" textLength="60.9" x="1778.7" y="987.0479">jobRepository</text><rect fill="#FFFFFF" height="881.1031" style="stroke:#181818;stroke-width:0.6999999999999998;" width="7" x="42.7" y="78.5695"/><rect fill="#FFFFFF" height="21.9037" style="stroke:#181818;stroke-width:0.6999999999999998;" width="7" x="282.1" y="94.8732"/><rect fill="#FFFFFF" height="197.1334" style="stroke:#181818;stroke-width:0.6999999999999998;" width="7" x="282.1" y="138.6807"/><rect fill="#FFFFFF" height="21.9037" style="stroke:#181818;stroke-width:0.6999999999999998;" width="7" x="282.1" y="357.7178"/><rect fill="#FFFFFF" height="558.1475" style="stroke:#181818;stroke-width:0.6999999999999998;" width="7" x="282.1" y="401.5252"/><rect fill="#FFFFFF" height="153.326" style="stroke:#181818;stroke-width:0.6999999999999998;" width="7" x="785.4" y="160.5844"/><rect fill="#FFFFFF" height="514.34" style="stroke:#181818;stroke-width:0.6999999999999998;" width="7" x="785.4" y="423.4289"/><rect fill="#FFFFFF" height="161.026" style="stroke:#181818;stroke-width:0.6999999999999998;" width="7" x="788.9" y="450.9326"/><rect fill="#FFFFFF" height="21.9037" style="stroke:#181818;stroke-width:0.6999999999999998;" width="7" x="922.6" y="182.4881"/><rect fill="#FFFFFF" height="21.9037" style="stroke:#181818;stroke-width:0.6999999999999998;" width="7" x="922.6" y="476.3363"/><rect fill="#FFFFFF" height="21.9037" style="stroke:#181818;stroke-width:0.6999999999999998;" width="7" x="922.6" y="638.7623"/><rect fill="#FFFFFF" height="21.9037" style="stroke:#181818;stroke-width:0.6999999999999998;" width="7" x="997.5" y="226.2955"/><rect fill="#FFFFFF" height="21.9037" style="stroke:#181818;stroke-width:0.6999999999999998;" width="7" x="997.5" y="520.1437"/><rect fill="#FFFFFF" height="21.9037" style="stroke:#181818;stroke-width:0.6999999999999998;" width="7" x="997.5" y="682.5697"/><rect fill="#FFFFFF" height="21.9037" style="stroke:#181818;stroke-width:0.6999999999999998;" width="7" x="1079.75" y="270.1029"/><rect fill="#FFFFFF" height="189.4881" style="stroke:#181818;stroke-width:0.6999999999999998;" width="7" x="1264.9" y="726.3771"/><rect fill="#FFFFFF" height="91.6111" style="stroke:#181818;stroke-width:0.6999999999999998;" width="7" x="1268.4" y="797.4504"/><rect fill="#FFFFFF" height="29.6037" style="stroke:#181818;stroke-width:0.6999999999999998;" width="7" x="1271.9" y="828.4541"/><rect fill="#FFFFFF" height="21.9037" style="stroke:#181818;stroke-width:0.6999999999999998;" width="7" x="1805.65" y="563.9512"/><polygon fill="#181818" points="273.7,92.0732,280.7,94.8732,273.7,97.6732,276.5,94.8732" style="stroke:#181818;stroke-width:0.6999999999999998;"/><line style="stroke:#181818;stroke-width:0.6999999999999998;" x1="49.7" x2="277.9" y1="94.8732" y2="94.8732"/><text fill="#000000" font-family="sans-serif" font-size="9.1" font-weight="bold" lengthAdjust="spacing" textLength="4.9" x="54.6" y="91.1894">1</text><text fill="#000000" font-family="sans-serif" font-size="9.1" lengthAdjust="spacing" textLength="151.2" x="62.3" y="91.1894">asks to assign skills to a collaborator</text><polygon fill="#181818" points="57.4,113.977,50.4,116.777,57.4,119.577,54.6,116.777" style="stroke:#181818;stroke-width:0.6999999999999998;"/><line style="stroke:#181818;stroke-width:0.6999999999999998;stroke-dasharray:2.0,2.0;" x1="53.2" x2="284.9" y1="116.777" y2="116.777"/><text fill="#000000" font-family="sans-serif" font-size="9.1" font-weight="bold" lengthAdjust="spacing" textLength="4.9" x="61.6" y="113.0931">2</text><text fill="#000000" font-family="sans-serif" font-size="9.1" lengthAdjust="spacing" textLength="207.9" x="69.3" y="113.0931">displays list of collaborators and asks to select one</text><polygon fill="#181818" points="273.7,135.8807,280.7,138.6807,273.7,141.4807,276.5,138.6807" style="stroke:#181818;stroke-width:0.6999999999999998;"/><line style="stroke:#181818;stroke-width:0.6999999999999998;" x1="49.7" x2="277.9" y1="138.6807" y2="138.6807"/><text fill="#000000" font-family="sans-serif" font-size="9.1" font-weight="bold" lengthAdjust="spacing" textLength="4.9" x="54.6" y="134.9968">3</text><text fill="#000000" font-family="sans-serif" font-size="9.1" lengthAdjust="spacing" textLength="94.5" x="62.3" y="134.9968">selects the collaborator</text><polygon fill="#181818" points="777,157.7844,784,160.5844,777,163.3844,779.8,160.5844" style="stroke:#181818;stroke-width:0.6999999999999998;"/><line style="stroke:#181818;stroke-width:0.6999999999999998;" x1="289.1" x2="781.2" y1="160.5844" y2="160.5844"/><text fill="#000000" font-family="sans-serif" font-size="9.1" font-weight="bold" lengthAdjust="spacing" textLength="4.9" x="294" y="156.9005">4</text><text fill="#000000" font-family="sans-serif" font-size="9.1" lengthAdjust="spacing" textLength="55.3" x="301.7" y="156.9005">getSkillsList()</text><polygon fill="#181818" points="914.2,179.6881,921.2,182.4881,914.2,185.2881,917,182.4881" style="stroke:#181818;stroke-width:0.6999999999999998;"/><line style="stroke:#181818;stroke-width:0.6999999999999998;" x1="792.4" x2="918.4" y1="182.4881" y2="182.4881"/><text fill="#000000" font-family="sans-serif" font-size="9.1" font-weight="bold" lengthAdjust="spacing" textLength="4.9" x="797.3" y="178.8042">5</text><text fill="#000000" font-family="sans-serif" font-size="9.1" lengthAdjust="spacing" textLength="52.5" x="805" y="178.8042">getInstance()</text><polygon fill="#181818" points="800.1,201.5918,793.1,204.3918,800.1,207.1918,797.3,204.3918" style="stroke:#181818;stroke-width:0.6999999999999998;"/><line style="stroke:#181818;stroke-width:0.6999999999999998;stroke-dasharray:2.0,2.0;" x1="795.9" x2="925.4" y1="204.3918" y2="204.3918"/><text fill="#000000" font-family="sans-serif" font-size="9.1" font-weight="bold" lengthAdjust="spacing" textLength="4.9" x="804.3" y="200.7079">6</text><text fill="#000000" font-family="sans-serif" font-size="9.1" lengthAdjust="spacing" textLength="46.9" x="812" y="200.7079">repositories</text><polygon fill="#181818" points="989.1,223.4955,996.1,226.2955,989.1,229.0955,991.9,226.2955" style="stroke:#181818;stroke-width:0.6999999999999998;"/><line style="stroke:#181818;stroke-width:0.6999999999999998;" x1="792.4" x2="993.3" y1="226.2955" y2="226.2955"/><text fill="#000000" font-family="sans-serif" font-size="9.1" font-weight="bold" lengthAdjust="spacing" textLength="4.9" x="797.3" y="222.6116">7</text><text fill="#000000" font-family="sans-serif" font-size="9.1" lengthAdjust="spacing" textLength="84" x="805" y="222.6116">getSkillsRepository()</text><polygon fill="#181818" points="800.1,245.3992,793.1,248.1992,800.1,250.9992,797.3,248.1992" style="stroke:#181818;stroke-width:0.6999999999999998;"/><line style="stroke:#181818;stroke-width:0.6999999999999998;stroke-dasharray:2.0,2.0;" x1="795.9" x2="1000.3" y1="248.1992" y2="248.1992"/><text fill="#000000" font-family="sans-serif" font-size="9.1" font-weight="bold" lengthAdjust="spacing" textLength="4.9" x="804.3" y="244.5153">8</text><text fill="#000000" font-family="sans-serif" font-size="9.1" lengthAdjust="spacing" textLength="65.8" x="812" y="244.5153">SkillsRepository</text><polygon fill="#181818" points="1071.35,267.3029,1078.35,270.1029,1071.35,272.9029,1074.15,270.1029" style="stroke:#181818;stroke-width:0.6999999999999998;"/><line style="stroke:#181818;stroke-width:0.6999999999999998;" x1="792.4" x2="1075.55" y1="270.1029" y2="270.1029"/><text fill="#000000" font-family="sans-serif" font-size="9.1" font-weight="bold" lengthAdjust="spacing" textLength="4.9" x="797.3" y="266.419">9</text><text fill="#000000" font-family="sans-serif" font-size="9.1" lengthAdjust="spacing" textLength="55.3" x="805" y="266.419">getSkillsList()</text><polygon fill="#181818" points="800.1,289.2066,793.1,292.0066,800.1,294.8066,797.3,292.0066" style="stroke:#181818;stroke-width:0.6999999999999998;"/><line style="stroke:#181818;stroke-width:0.6999999999999998;stroke-dasharray:2.0,2.0;" x1="795.9" x2="1082.55" y1="292.0066" y2="292.0066"/><text fill="#000000" font-family="sans-serif" font-size="9.1" font-weight="bold" lengthAdjust="spacing" textLength="9.8" x="804.3" y="288.3228">10</text><text fill="#000000" font-family="sans-serif" font-size="9.1" lengthAdjust="spacing" textLength="37.1" x="816.9" y="288.3228">SkillsList</text><polygon fill="#181818" points="296.8,311.1104,289.8,313.9104,296.8,316.7104,294,313.9104" style="stroke:#181818;stroke-width:0.6999999999999998;"/><line style="stroke:#181818;stroke-width:0.6999999999999998;stroke-dasharray:2.0,2.0;" x1="292.6" x2="788.2" y1="313.9104" y2="313.9104"/><text fill="#000000" font-family="sans-serif" font-size="9.1" font-weight="bold" lengthAdjust="spacing" textLength="9.8" x="301" y="310.2265">11</text><text fill="#000000" font-family="sans-serif" font-size="9.1" lengthAdjust="spacing" textLength="37.1" x="313.6" y="310.2265">SkillsList</text><polygon fill="#181818" points="57.4,333.0141,50.4,335.8141,57.4,338.6141,54.6,335.8141" style="stroke:#181818;stroke-width:0.6999999999999998;"/><line style="stroke:#181818;stroke-width:0.6999999999999998;stroke-dasharray:2.0,2.0;" x1="53.2" x2="284.9" y1="335.8141" y2="335.8141"/><text fill="#000000" font-family="sans-serif" font-size="9.1" font-weight="bold" lengthAdjust="spacing" textLength="9.8" x="61.6" y="332.1302">12</text><text fill="#000000" font-family="sans-serif" font-size="9.1" lengthAdjust="spacing" textLength="81.9" x="74.2" y="332.1302">displays list of skills</text><polygon fill="#181818" points="273.7,354.9178,280.7,357.7178,273.7,360.5178,276.5,357.7178" style="stroke:#181818;stroke-width:0.6999999999999998;"/><line style="stroke:#181818;stroke-width:0.6999999999999998;" x1="49.7" x2="277.9" y1="357.7178" y2="357.7178"/><text fill="#000000" font-family="sans-serif" font-size="9.1" font-weight="bold" lengthAdjust="spacing" textLength="9.8" x="54.6" y="354.0339">13</text><text fill="#000000" font-family="sans-serif" font-size="9.1" lengthAdjust="spacing" textLength="175.7" x="67.2" y="354.0339">selects skills and assign to the collaborator</text><polygon fill="#181818" points="57.4,376.8215,50.4,379.6215,57.4,382.4215,54.6,379.6215" style="stroke:#181818;stroke-width:0.6999999999999998;"/><line style="stroke:#181818;stroke-width:0.6999999999999998;stroke-dasharray:2.0,2.0;" x1="53.2" x2="284.9" y1="379.6215" y2="379.6215"/><text fill="#000000" font-family="sans-serif" font-size="9.1" font-weight="bold" lengthAdjust="spacing" textLength="9.8" x="61.6" y="375.9376">14</text><text fill="#000000" font-family="sans-serif" font-size="9.1" lengthAdjust="spacing" textLength="165.2" x="74.2" y="375.9376">shows all data and requests confirmation</text><polygon fill="#181818" points="273.7,398.7252,280.7,401.5252,273.7,404.3252,276.5,401.5252" style="stroke:#181818;stroke-width:0.6999999999999998;"/><line style="stroke:#181818;stroke-width:0.6999999999999998;" x1="49.7" x2="277.9" y1="401.5252" y2="401.5252"/><text fill="#000000" font-family="sans-serif" font-size="9.1" font-weight="bold" lengthAdjust="spacing" textLength="9.8" x="54.6" y="397.8413">15</text><text fill="#000000" font-family="sans-serif" font-size="9.1" lengthAdjust="spacing" textLength="54.6" x="67.2" y="397.8413">confirms data</text><polygon fill="#181818" points="777,420.6289,784,423.4289,777,426.2289,779.8,423.4289" style="stroke:#181818;stroke-width:0.6999999999999998;"/><line style="stroke:#181818;stroke-width:0.6999999999999998;" x1="289.1" x2="781.2" y1="423.4289" y2="423.4289"/><text fill="#000000" font-family="sans-serif" font-size="9.1" font-weight="bold" lengthAdjust="spacing" textLength="9.8" x="294" y="419.745">16</text><text fill="#000000" font-family="sans-serif" font-size="9.1" lengthAdjust="spacing" textLength="470.4" x="306.6" y="419.745">registerCollaborator(name, birthday, admissionDate, address, phoneNumber, email, idDocType, idNumber, jobName)</text><line style="stroke:#181818;stroke-width:0.6999999999999998;" x1="792.4" x2="825.3" y1="441.8326" y2="441.8326"/><line style="stroke:#181818;stroke-width:0.6999999999999998;" x1="825.3" x2="825.3" y1="441.8326" y2="450.9326"/><line style="stroke:#181818;stroke-width:0.6999999999999998;" x1="796.6" x2="825.3" y1="450.9326" y2="450.9326"/><polygon fill="#181818" points="803.6,448.1326,796.6,450.9326,803.6,453.7326,800.8,450.9326" style="stroke:#181818;stroke-width:0.6999999999999998;"/><text fill="#000000" font-family="sans-serif" font-size="9.1" font-weight="bold" lengthAdjust="spacing" textLength="9.8" x="800.8" y="438.1487">17</text><text fill="#000000" font-family="sans-serif" font-size="9.1" lengthAdjust="spacing" textLength="107.8" x="813.4" y="438.1487">getJobsByName(jobName)</text><polygon fill="#181818" points="914.2,473.5363,921.2,476.3363,914.2,479.1363,917,476.3363" style="stroke:#181818;stroke-width:0.6999999999999998;"/><line style="stroke:#181818;stroke-width:0.6999999999999998;" x1="795.9" x2="918.4" y1="476.3363" y2="476.3363"/><text fill="#000000" font-family="sans-serif" font-size="9.1" font-weight="bold" lengthAdjust="spacing" textLength="9.8" x="800.8" y="472.6524">18</text><text fill="#000000" font-family="sans-serif" font-size="9.1" lengthAdjust="spacing" textLength="52.5" x="813.4" y="472.6524">getInstance()</text><polygon fill="#181818" points="803.6,495.44,796.6,498.24,803.6,501.04,800.8,498.24" style="stroke:#181818;stroke-width:0.6999999999999998;"/><line style="stroke:#181818;stroke-width:0.6999999999999998;stroke-dasharray:2.0,2.0;" x1="799.4" x2="925.4" y1="498.24" y2="498.24"/><text fill="#000000" font-family="sans-serif" font-size="9.1" font-weight="bold" lengthAdjust="spacing" textLength="9.8" x="807.8" y="494.5562">19</text><text fill="#000000" font-family="sans-serif" font-size="9.1" lengthAdjust="spacing" textLength="46.9" x="820.4" y="494.5562">repositories</text><polygon fill="#181818" points="989.1,517.3437,996.1,520.1437,989.1,522.9437,991.9,520.1437" style="stroke:#181818;stroke-width:0.6999999999999998;"/><line style="stroke:#181818;stroke-width:0.6999999999999998;" x1="795.9" x2="993.3" y1="520.1437" y2="520.1437"/><text fill="#000000" font-family="sans-serif" font-size="9.1" font-weight="bold" lengthAdjust="spacing" textLength="9.8" x="800.8" y="516.4599">20</text><text fill="#000000" font-family="sans-serif" font-size="9.1" lengthAdjust="spacing" textLength="75.6" x="813.4" y="516.4599">getJobRepository()</text><polygon fill="#181818" points="803.6,539.2475,796.6,542.0475,803.6,544.8475,800.8,542.0475" style="stroke:#181818;stroke-width:0.6999999999999998;"/><line style="stroke:#181818;stroke-width:0.6999999999999998;stroke-dasharray:2.0,2.0;" x1="799.4" x2="1000.3" y1="542.0475" y2="542.0475"/><text fill="#000000" font-family="sans-serif" font-size="9.1" font-weight="bold" lengthAdjust="spacing" textLength="9.8" x="807.8" y="538.3636">21</text><text fill="#000000" font-family="sans-serif" font-size="9.1" lengthAdjust="spacing" textLength="55.3" x="820.4" y="538.3636">jobRepository</text><polygon fill="#181818" points="1797.25,561.1512,1804.25,563.9512,1797.25,566.7512,1800.05,563.9512" style="stroke:#181818;stroke-width:0.6999999999999998;"/><line style="stroke:#181818;stroke-width:0.6999999999999998;" x1="795.9" x2="1801.45" y1="563.9512" y2="563.9512"/><text fill="#000000" font-family="sans-serif" font-size="9.1" font-weight="bold" lengthAdjust="spacing" textLength="9.8" x="800.8" y="560.2673">22</text><text fill="#000000" font-family="sans-serif" font-size="9.1" lengthAdjust="spacing" textLength="107.8" x="813.4" y="560.2673">getJobsByName(jobName)</text><polygon fill="#181818" points="803.6,583.0549,796.6,585.8549,803.6,588.6549,800.8,585.8549" style="stroke:#181818;stroke-width:0.6999999999999998;"/><line style="stroke:#181818;stroke-width:0.6999999999999998;stroke-dasharray:2.0,2.0;" x1="799.4" x2="1808.45" y1="585.8549" y2="585.8549"/><text fill="#000000" font-family="sans-serif" font-size="9.1" font-weight="bold" lengthAdjust="spacing" textLength="9.8" x="807.8" y="582.171">23</text><text fill="#000000" font-family="sans-serif" font-size="9.1" lengthAdjust="spacing" textLength="11.9" x="820.4" y="582.171">job</text><line style="stroke:#181818;stroke-width:0.6999999999999998;stroke-dasharray:2.0,2.0;" x1="795.9" x2="825.3" y1="611.2586" y2="611.2586"/><line style="stroke:#181818;stroke-width:0.6999999999999998;stroke-dasharray:2.0,2.0;" x1="825.3" x2="825.3" y1="611.2586" y2="620.3586"/><line style="stroke:#181818;stroke-width:0.6999999999999998;stroke-dasharray:2.0,2.0;" x1="792.4" x2="825.3" y1="620.3586" y2="620.3586"/><polygon fill="#181818" points="799.4,617.5586,792.4,620.3586,799.4,623.1586,796.6,620.3586" style="stroke:#181818;stroke-width:0.6999999999999998;"/><text fill="#000000" font-family="sans-serif" font-size="9.1" font-weight="bold" lengthAdjust="spacing" textLength="9.8" x="800.8" y="607.5747">24</text><text fill="#000000" font-family="sans-serif" font-size="9.1" lengthAdjust="spacing" textLength="11.9" x="813.4" y="607.5747">job</text><polygon fill="#181818" points="914.2,635.9623,921.2,638.7623,914.2,641.5623,917,638.7623" style="stroke:#181818;stroke-width:0.6999999999999998;"/><line style="stroke:#181818;stroke-width:0.6999999999999998;" x1="792.4" x2="918.4" y1="638.7623" y2="638.7623"/><text fill="#000000" font-family="sans-serif" font-size="9.1" font-weight="bold" lengthAdjust="spacing" textLength="9.8" x="797.3" y="635.0784">25</text><text fill="#000000" font-family="sans-serif" font-size="9.1" lengthAdjust="spacing" textLength="52.5" x="809.9" y="635.0784">getInstance()</text><polygon fill="#181818" points="800.1,657.866,793.1,660.666,800.1,663.466,797.3,660.666" style="stroke:#181818;stroke-width:0.6999999999999998;"/><line style="stroke:#181818;stroke-width:0.6999999999999998;stroke-dasharray:2.0,2.0;" x1="795.9" x2="925.4" y1="660.666" y2="660.666"/><text fill="#000000" font-family="sans-serif" font-size="9.1" font-weight="bold" lengthAdjust="spacing" textLength="9.8" x="804.3" y="656.9821">26</text><text fill="#000000" font-family="sans-serif" font-size="9.1" lengthAdjust="spacing" textLength="46.9" x="816.9" y="656.9821">repositories</text><polygon fill="#181818" points="989.1,679.7697,996.1,682.5697,989.1,685.3697,991.9,682.5697" style="stroke:#181818;stroke-width:0.6999999999999998;"/><line style="stroke:#181818;stroke-width:0.6999999999999998;" x1="792.4" x2="993.3" y1="682.5697" y2="682.5697"/><text fill="#000000" font-family="sans-serif" font-size="9.1" font-weight="bold" lengthAdjust="spacing" textLength="9.8" x="797.3" y="678.8858">27</text><text fill="#000000" font-family="sans-serif" font-size="9.1" lengthAdjust="spacing" textLength="109.9" x="809.9" y="678.8858">getCollaboratorRepository()</text><polygon fill="#181818" points="800.1,701.6734,793.1,704.4734,800.1,707.2734,797.3,704.4734" style="stroke:#181818;stroke-width:0.6999999999999998;"/><line style="stroke:#181818;stroke-width:0.6999999999999998;stroke-dasharray:2.0,2.0;" x1="795.9" x2="1000.3" y1="704.4734" y2="704.4734"/><text fill="#000000" font-family="sans-serif" font-size="9.1" font-weight="bold" lengthAdjust="spacing" textLength="9.8" x="804.3" y="700.7896">28</text><text fill="#000000" font-family="sans-serif" font-size="9.1" lengthAdjust="spacing" textLength="90.3" x="816.9" y="700.7896">collaboratorRepository</text><polygon fill="#181818" points="1256.5,723.5771,1263.5,726.3771,1256.5,729.1771,1259.3,726.3771" style="stroke:#181818;stroke-width:0.6999999999999998;"/><line style="stroke:#181818;stroke-width:0.6999999999999998;" x1="792.4" x2="1260.7" y1="726.3771" y2="726.3771"/><text fill="#000000" font-family="sans-serif" font-size="9.1" font-weight="bold" lengthAdjust="spacing" textLength="9.8" x="797.3" y="722.6933">29</text><text fill="#000000" font-family="sans-serif" font-size="9.1" lengthAdjust="spacing" textLength="446.6" x="809.9" y="722.6933">registerCollaborator(name, birthday, admissionDate, address, phoneNumber, email, idDocType, idNumber, job)</text><polygon fill="#181818" points="1691.2,745.4809,1698.2,748.2809,1691.2,751.0809,1694,748.2809" style="stroke:#181818;stroke-width:0.6999999999999998;"/><line style="stroke:#181818;stroke-width:0.6999999999999998;" x1="1271.9" x2="1695.4" y1="748.2809" y2="748.2809"/><text fill="#000000" font-family="sans-serif" font-size="9.1" font-weight="bold" lengthAdjust="spacing" textLength="9.8" x="1276.8" y="744.597">30</text><text fill="#000000" font-family="sans-serif" font-size="9.1" lengthAdjust="spacing" textLength="398.3" x="1289.4" y="744.597">register(name, birthday, admissionDate, address, phoneNumber, email, idDocType, idNumber, job)</text><rect fill="#E3E3E3" height="35.8695" rx="1.75" ry="1.75" style="stroke:#181818;stroke-width:0.3499999999999999;" width="67.2" x="1699.6" y="731.9771"/><text fill="#000000" font-family="sans-serif" font-size="9.8" lengthAdjust="spacing" textLength="52.5" x="1706.95" y="747.4523">collaborator</text><text fill="#000000" font-family="sans-serif" font-size="9.8" lengthAdjust="spacing" textLength="57.4" x="1704.5" y="760.4871">:Collaborator</text><line style="stroke:#181818;stroke-width:0.6999999999999998;" x1="1271.9" x2="1304.8" y1="788.3504" y2="788.3504"/><line style="stroke:#181818;stroke-width:0.6999999999999998;" x1="1304.8" x2="1304.8" y1="788.3504" y2="797.4504"/><line style="stroke:#181818;stroke-width:0.6999999999999998;" x1="1276.1" x2="1304.8" y1="797.4504" y2="797.4504"/><polygon fill="#181818" points="1283.1,794.6504,1276.1,797.4504,1283.1,800.2504,1280.3,797.4504" style="stroke:#181818;stroke-width:0.6999999999999998;"/><text fill="#000000" font-family="sans-serif" font-size="9.1" font-weight="bold" lengthAdjust="spacing" textLength="9.8" x="1280.3" y="784.6665">31</text><text fill="#000000" font-family="sans-serif" font-size="9.1" lengthAdjust="spacing" textLength="116.2" x="1292.9" y="784.6665">addCollaborator (colaborator)</text><line style="stroke:#181818;stroke-width:0.6999999999999998;" x1="1275.4" x2="1308.3" y1="819.3541" y2="819.3541"/><line style="stroke:#181818;stroke-width:0.6999999999999998;" x1="1308.3" x2="1308.3" y1="819.3541" y2="828.4541"/><line style="stroke:#181818;stroke-width:0.6999999999999998;" x1="1279.6" x2="1308.3" y1="828.4541" y2="828.4541"/><polygon fill="#181818" points="1286.6,825.6541,1279.6,828.4541,1286.6,831.2541,1283.8,828.4541" style="stroke:#181818;stroke-width:0.6999999999999998;"/><text fill="#000000" font-family="sans-serif" font-size="9.1" font-weight="bold" lengthAdjust="spacing" textLength="9.8" x="1283.8" y="815.6702">32</text><text fill="#000000" font-family="sans-serif" font-size="9.1" lengthAdjust="spacing" textLength="131.6" x="1296.4" y="815.6702">validateCollaborator (colaborator)</text><line style="stroke:#181818;stroke-width:0.6999999999999998;stroke-dasharray:2.0,2.0;" x1="1278.9" x2="1308.3" y1="857.3578" y2="857.3578"/><line style="stroke:#181818;stroke-width:0.6999999999999998;stroke-dasharray:2.0,2.0;" x1="1308.3" x2="1308.3" y1="857.3578" y2="866.4578"/><line style="stroke:#181818;stroke-width:0.6999999999999998;stroke-dasharray:2.0,2.0;" x1="1275.4" x2="1308.3" y1="866.4578" y2="866.4578"/><polygon fill="#181818" points="1282.4,863.6578,1275.4,866.4578,1282.4,869.2578,1279.6,866.4578" style="stroke:#181818;stroke-width:0.6999999999999998;"/><text fill="#000000" font-family="sans-serif" font-size="9.1" font-weight="bold" lengthAdjust="spacing" textLength="9.8" x="1283.8" y="853.6739">33</text><text fill="#000000" font-family="sans-serif" font-size="9.1" lengthAdjust="spacing" textLength="2.8" x="1296.4" y="853.6739">&#160;</text><line style="stroke:#181818;stroke-width:0.6999999999999998;stroke-dasharray:2.0,2.0;" x1="1275.4" x2="1304.8" y1="888.3615" y2="888.3615"/><line style="stroke:#181818;stroke-width:0.6999999999999998;stroke-dasharray:2.0,2.0;" x1="1304.8" x2="1304.8" y1="888.3615" y2="897.4615"/><line style="stroke:#181818;stroke-width:0.6999999999999998;stroke-dasharray:2.0,2.0;" x1="1271.9" x2="1304.8" y1="897.4615" y2="897.4615"/><polygon fill="#181818" points="1278.9,894.6615,1271.9,897.4615,1278.9,900.2615,1276.1,897.4615" style="stroke:#181818;stroke-width:0.6999999999999998;"/><text fill="#000000" font-family="sans-serif" font-size="9.1" font-weight="bold" lengthAdjust="spacing" textLength="9.8" x="1280.3" y="884.6776">34</text><text fill="#000000" font-family="sans-serif" font-size="9.1" lengthAdjust="spacing" textLength="2.8" x="1292.9" y="884.6776">&#160;</text><polygon fill="#181818" points="800.1,913.0652,793.1,915.8652,800.1,918.6652,797.3,915.8652" style="stroke:#181818;stroke-width:0.6999999999999998;"/><line style="stroke:#181818;stroke-width:0.6999999999999998;stroke-dasharray:2.0,2.0;" x1="795.9" x2="1267.7" y1="915.8652" y2="915.8652"/><text fill="#000000" font-family="sans-serif" font-size="9.1" font-weight="bold" lengthAdjust="spacing" textLength="9.8" x="804.3" y="912.1813">35</text><text fill="#000000" font-family="sans-serif" font-size="9.1" lengthAdjust="spacing" textLength="46.9" x="816.9" y="912.1813">collaborator</text><polygon fill="#181818" points="296.8,934.9689,289.8,937.7689,296.8,940.5689,294,937.7689" style="stroke:#181818;stroke-width:0.6999999999999998;"/><line style="stroke:#181818;stroke-width:0.6999999999999998;stroke-dasharray:2.0,2.0;" x1="292.6" x2="788.2" y1="937.7689" y2="937.7689"/><text fill="#000000" font-family="sans-serif" font-size="9.1" font-weight="bold" lengthAdjust="spacing" textLength="9.8" x="301" y="934.0851">36</text><text fill="#000000" font-family="sans-serif" font-size="9.1" lengthAdjust="spacing" textLength="46.9" x="313.6" y="934.0851">collaborator</text><polygon fill="#181818" points="53.9,956.8727,46.9,959.6727,53.9,962.4727,51.1,959.6727" style="stroke:#181818;stroke-width:0.6999999999999998;"/><line style="stroke:#181818;stroke-width:0.6999999999999998;stroke-dasharray:2.0,2.0;" x1="49.7" x2="284.9" y1="959.6727" y2="959.6727"/><text fill="#000000" font-family="sans-serif" font-size="9.1" font-weight="bold" lengthAdjust="spacing" textLength="9.8" x="58.1" y="955.9888">37</text><text fill="#000000" font-family="sans-serif" font-size="9.1" lengthAdjust="spacing" textLength="110.6" x="70.7" y="955.9888">displays operation success</text><!--SRC=[tLTDKzim4BtxL-nm8J3X3-J031-TAPq0dHXkN1HvauZ8aYl9qFpxhkt4aM8xCHGwRNr99Eq-lLtjFijsALJ634iXrKhpXT4fWZCvHhPUoHXViZd6RYKH37B7r5pw1dR14lqgr1ncJ5gC8fOxhV9qYYQAZXSYGPXfxQRwPyIuqmQElkOfKp11gtF3qJufk6MAzZ17m2nSNDz6XEm45nbJ3ev64vmBwz1SQIdPL1j6A8ytfV7ZJG_RAwsSeR5Sxt3rC1att39j1TaAjANDvCltqCHu5a-grI4EFUAbaDBMXglHazgTAZrt9qCKxWKIOBKlb8ZjIzsu58-Vhof9z-FnnUNzvEBXVX8L9oTUcCFoT29OFpI0itCw11YHozA2q_HhnLo1BOCg9m8wM-SQaiumEWRl8RmpWYtGHrHoFtAqpaB278E1mHaQL1o7aA3bHcHEQ3K446gcJSeaK3a5AmxvGWbEAy5qaXEVyX_Nrfr4Fe5ZRh1WLXPAr4aj4JQJR6L1Kic1dWM1Mc0ggRDYKLBhW5POmoKOP60tdvK7EIymJ60ZTnjUvoLVSfsZgsfgJBm69ysCD-CgFGc1ghW2k56MEftZ8CnC3L7qHx1IU9wjEHIdjcsFmCoBkW7XaOZzCBObl8TDtA0JUtmQFTRDAMudrUZcpZG7p1eR1sQxgpLZs50kiBl8xiUkY6_AwJ1QM1Jx2xtgxkWDPRpMWwedIeMWhkXNsmqwTg5V2KhAIXCAp5ebk5OpGJfGj7OVVclxIbxsxx-jxUOhPg1OIf8q5SOj4hOQ0ajIGN5gTKrGnJ0nQEqGiWLfm5tvTXm2fap88OZaMlE7LOR5tytQivxU4UQsh89pEz3EkyLR4QU2_QQdzd9L00yQ6xmJcrfcds8SLeutAaWV9MbJb4tydMhIGrKwrENPH-r1DjxFDe1xtx65Z5fj0vCmc4CXz42lrQStw7zMQLUjTx0FAxcEAzvlrrx7TVFFYTw117N4tUfKFEtsfIPw5zpJKzY6-4bXlODYrs4G0_ySO426cy59vpwVaCCkWYzC2dgXuj_0ifDc9vBNCFySYJq4ci8HVT36tbNpm0QxUj_-RUNTE7M6rNSQs9npQhksIvqtBBvFVm40]--></g></svg>