<?xml version="1.0" encoding="us-ascii" standalone="no"?><svg xmlns="http://www.w3.org/2000/svg" xmlns:xlink="http://www.w3.org/1999/xlink" contentStyleType="text/css" height="333.6px" preserveAspectRatio="none" style="width:673px;height:333px;background:#FFFFFF;" version="1.1" viewBox="0 0 673 333" width="673.6px" zoomAndPan="magnify"><defs/><g><rect fill="#FFFFFF" height="201.8625" style="stroke:#181818;stroke-width:0.8000000000000002;" width="8" x="229.6" y="72.4266"/><rect fill="#FFFFFF" height="25.0328" style="stroke:#181818;stroke-width:0.8000000000000002;" width="8" x="336.4" y="118.4922"/><rect fill="#FFFFFF" height="25.0328" style="stroke:#181818;stroke-width:0.8000000000000002;" width="8" x="476" y="168.5578"/><rect fill="#FFFFFF" height="25.0328" style="stroke:#181818;stroke-width:0.8000000000000002;" width="8" x="590" y="218.6234"/><rect fill="none" height="165.6297" style="stroke:#000000;stroke-width:1.2000000000000002;" width="503.6" x="165.6" y="84.4266"/><line style="stroke:#181818;stroke-width:0.4000000000000001;stroke-dasharray:5.0,5.0;" x1="233.6" x2="233.6" y1="45.7938" y2="288.6891"/><line style="stroke:#181818;stroke-width:0.4000000000000001;stroke-dasharray:5.0,5.0;" x1="340" x2="340" y1="45.7938" y2="288.6891"/><line style="stroke:#181818;stroke-width:0.4000000000000001;stroke-dasharray:5.0,5.0;" x1="479.6" x2="479.6" y1="45.7938" y2="288.6891"/><line style="stroke:#181818;stroke-width:0.4000000000000001;stroke-dasharray:5.0,5.0;" x1="594" x2="594" y1="45.7938" y2="288.6891"/><rect fill="#E3E3E3" height="26.0969" rx="2" ry="2" style="stroke:#181818;stroke-width:0.4000000000000001;" width="120" x="173.6" y="18.8969"/><text fill="#000000" font-family="sans-serif" font-size="11.2" lengthAdjust="spacing" textLength="108.8" x="179.2" y="36.5828">:AssignSkillControlller</text><rect fill="#E3E3E3" height="26.0969" rx="2" ry="2" style="stroke:#181818;stroke-width:0.4000000000000001;" width="120" x="173.6" y="287.8891"/><text fill="#000000" font-family="sans-serif" font-size="11.2" lengthAdjust="spacing" textLength="108.8" x="179.2" y="305.575">:AssignSkillControlller</text><rect fill="#E3E3E3" height="26.0969" rx="2" ry="2" style="stroke:#181818;stroke-width:0.4000000000000001;" width="77.6" x="301.6" y="18.8969"/><text fill="#000000" font-family="sans-serif" font-size="11.2" lengthAdjust="spacing" textLength="66.4" x="307.2" y="36.5828">:Repositories</text><rect fill="#E3E3E3" height="26.0969" rx="2" ry="2" style="stroke:#181818;stroke-width:0.4000000000000001;" width="77.6" x="301.6" y="287.8891"/><text fill="#000000" font-family="sans-serif" font-size="11.2" lengthAdjust="spacing" textLength="66.4" x="307.2" y="305.575">:Repositories</text><rect fill="#E3E3E3" height="40.9938" rx="2" ry="2" style="stroke:#181818;stroke-width:0.4000000000000001;" width="77.6" x="441.2" y="4"/><text fill="#000000" font-family="sans-serif" font-size="11.2" lengthAdjust="spacing" textLength="59.2" x="450.4" y="21.6859">repositories</text><text fill="#000000" font-family="sans-serif" font-size="11.2" lengthAdjust="spacing" textLength="66.4" x="446.8" y="36.5828">:Repositories</text><rect fill="#E3E3E3" height="40.9938" rx="2" ry="2" style="stroke:#181818;stroke-width:0.4000000000000001;" width="77.6" x="441.2" y="287.8891"/><text fill="#000000" font-family="sans-serif" font-size="11.2" lengthAdjust="spacing" textLength="59.2" x="450.4" y="305.575">repositories</text><text fill="#000000" font-family="sans-serif" font-size="11.2" lengthAdjust="spacing" textLength="66.4" x="446.8" y="320.4719">:Repositories</text><rect fill="#E3E3E3" height="40.9938" rx="2" ry="2" style="stroke:#181818;stroke-width:0.4000000000000001;" width="134.4" x="526.8" y="4"/><text fill="#000000" font-family="sans-serif" font-size="11.2" lengthAdjust="spacing" textLength="123.2" x="532.4" y="21.6859">collaboratorsRepository:</text><text fill="#000000" font-family="sans-serif" font-size="11.2" lengthAdjust="spacing" textLength="122.4" x="532.8" y="36.5828">CollaboratorsRepository</text><rect fill="#E3E3E3" height="40.9938" rx="2" ry="2" style="stroke:#181818;stroke-width:0.4000000000000001;" width="134.4" x="526.8" y="287.8891"/><text fill="#000000" font-family="sans-serif" font-size="11.2" lengthAdjust="spacing" textLength="123.2" x="532.4" y="305.575">collaboratorsRepository:</text><text fill="#000000" font-family="sans-serif" font-size="11.2" lengthAdjust="spacing" textLength="122.4" x="532.8" y="320.4719">CollaboratorsRepository</text><rect fill="#FFFFFF" height="201.8625" style="stroke:#181818;stroke-width:0.8000000000000002;" width="8" x="229.6" y="72.4266"/><rect fill="#FFFFFF" height="25.0328" style="stroke:#181818;stroke-width:0.8000000000000002;" width="8" x="336.4" y="118.4922"/><rect fill="#FFFFFF" height="25.0328" style="stroke:#181818;stroke-width:0.8000000000000002;" width="8" x="476" y="168.5578"/><rect fill="#FFFFFF" height="25.0328" style="stroke:#181818;stroke-width:0.8000000000000002;" width="8" x="590" y="218.6234"/><polygon fill="#181818" points="220,69.2266,228,72.4266,220,75.6266,223.2,72.4266" style="stroke:#181818;stroke-width:0.8000000000000002;"/><line style="stroke:#181818;stroke-width:0.8000000000000002;" x1="0" x2="224.8" y1="72.4266" y2="72.4266"/><text fill="#000000" font-family="sans-serif" font-size="10.4" font-weight="bold" lengthAdjust="spacing" textLength="11.2" x="5.6" y="68.2164">13</text><text fill="#000000" font-family="sans-serif" font-size="10.4" lengthAdjust="spacing" textLength="200" x="20" y="68.2164">getCollaboratorByName (collaboratorName)</text><path d="M165.6,84.4266 L321.6,84.4266 L321.6,91.8594 L313.6,99.8594 L165.6,99.8594 L165.6,84.4266 " fill="#EEEEEE" style="stroke:#000000;stroke-width:1.2000000000000002;"/><rect fill="none" height="165.6297" style="stroke:#000000;stroke-width:1.2000000000000002;" width="503.6" x="165.6" y="84.4266"/><text fill="#000000" font-family="sans-serif" font-size="10.4" font-weight="bold" lengthAdjust="spacing" textLength="120" x="177.6" y="96.4492">Get Collaborator Object</text><polygon fill="#181818" points="326.8,115.2922,334.8,118.4922,326.8,121.6922,330,118.4922" style="stroke:#181818;stroke-width:0.8000000000000002;"/><line style="stroke:#181818;stroke-width:0.8000000000000002;" x1="237.6" x2="331.6" y1="118.4922" y2="118.4922"/><text fill="#000000" font-family="sans-serif" font-size="10.4" font-weight="bold" lengthAdjust="spacing" textLength="20" x="243.2" y="114.282">13.1</text><text fill="#000000" font-family="sans-serif" font-size="10.4" lengthAdjust="spacing" textLength="60" x="266.4" y="114.282">getInstance()</text><polygon fill="#181818" points="246.4,140.325,238.4,143.525,246.4,146.725,243.2,143.525" style="stroke:#181818;stroke-width:0.8000000000000002;"/><line style="stroke:#181818;stroke-width:0.8000000000000002;stroke-dasharray:2.0,2.0;" x1="241.6" x2="339.6" y1="143.525" y2="143.525"/><text fill="#000000" font-family="sans-serif" font-size="10.4" font-weight="bold" lengthAdjust="spacing" textLength="20" x="251.2" y="139.3148">13.2</text><text fill="#000000" font-family="sans-serif" font-size="10.4" lengthAdjust="spacing" textLength="53.6" x="274.4" y="139.3148">repositories</text><polygon fill="#181818" points="466.4,165.3578,474.4,168.5578,466.4,171.7578,469.6,168.5578" style="stroke:#181818;stroke-width:0.8000000000000002;"/><line style="stroke:#181818;stroke-width:0.8000000000000002;" x1="237.6" x2="471.2" y1="168.5578" y2="168.5578"/><text fill="#000000" font-family="sans-serif" font-size="10.4" font-weight="bold" lengthAdjust="spacing" textLength="20" x="243.2" y="164.3477">13.3</text><text fill="#000000" font-family="sans-serif" font-size="10.4" lengthAdjust="spacing" textLength="200" x="266.4" y="164.3477">getCollaboratorByName (collaboratorName)</text><polygon fill="#181818" points="246.4,190.3906,238.4,193.5906,246.4,196.7906,243.2,193.5906" style="stroke:#181818;stroke-width:0.8000000000000002;"/><line style="stroke:#181818;stroke-width:0.8000000000000002;stroke-dasharray:2.0,2.0;" x1="241.6" x2="479.2" y1="193.5906" y2="193.5906"/><text fill="#000000" font-family="sans-serif" font-size="10.4" font-weight="bold" lengthAdjust="spacing" textLength="20" x="251.2" y="189.3805">13.4</text><text fill="#000000" font-family="sans-serif" font-size="10.4" lengthAdjust="spacing" textLength="108.8" x="274.4" y="189.3805">collaboratorsRepository</text><polygon fill="#181818" points="580.4,215.4234,588.4,218.6234,580.4,221.8234,583.6,218.6234" style="stroke:#181818;stroke-width:0.8000000000000002;"/><line style="stroke:#181818;stroke-width:0.8000000000000002;" x1="237.6" x2="585.2" y1="218.6234" y2="218.6234"/><text fill="#000000" font-family="sans-serif" font-size="10.4" font-weight="bold" lengthAdjust="spacing" textLength="20" x="243.2" y="214.4133">13.5</text><text fill="#000000" font-family="sans-serif" font-size="10.4" lengthAdjust="spacing" textLength="92.8" x="266.4" y="214.4133">getCollaboratorList()</text><polygon fill="#181818" points="246.4,240.4563,238.4,243.6563,246.4,246.8563,243.2,243.6563" style="stroke:#181818;stroke-width:0.8000000000000002;"/><line style="stroke:#181818;stroke-width:0.8000000000000002;stroke-dasharray:2.0,2.0;" x1="241.6" x2="593.2" y1="243.6563" y2="243.6563"/><text fill="#000000" font-family="sans-serif" font-size="10.4" font-weight="bold" lengthAdjust="spacing" textLength="20" x="251.2" y="239.4461">13.6</text><text fill="#000000" font-family="sans-serif" font-size="10.4" lengthAdjust="spacing" textLength="53.6" x="274.4" y="239.4461">collaborator</text><polygon fill="#181818" points="8.8,271.0891,0.8,274.2891,8.8,277.4891,5.6,274.2891" style="stroke:#181818;stroke-width:0.8000000000000002;"/><line style="stroke:#181818;stroke-width:0.8000000000000002;stroke-dasharray:2.0,2.0;" x1="4" x2="232.8" y1="274.2891" y2="274.2891"/><text fill="#000000" font-family="sans-serif" font-size="10.4" font-weight="bold" lengthAdjust="spacing" textLength="11.2" x="13.6" y="270.0789">14</text><text fill="#000000" font-family="sans-serif" font-size="10.4" lengthAdjust="spacing" textLength="53.6" x="28" y="270.0789">collaborator</text><!--SRC=[bL9DImCn4BtdLmnUR0yh53qj8cWH4OfArsClizdfDZQRB4bMxRytJNL9QYEOIo3pvdrCncw5wj5W1vrMcc-CxWYS6OZPiT8Zts9BbTj90aFSeMfb3B0RRFI7K2siKLfY30UdrT3LP1WxtuY6OAsrg_KdOxx32IvwL0xEobjhHQkghP1ohfKpMaf9vWpGmlnrkJX2BwdNLZXj1Dc0MTw_f10J8LRgP4ELTd0lYRKsw55snE_AbPgVhWIUJ5US76QNZ45n4u902IsvcF5kzuH-r9EOQVyoJIakPWov4-_ew30HyASrUkZXWHp4ZF1Sl_dFOG7oSuAuD-637pmyAkl_ZzDack16aVr8ayg-i_YEKK8yu0JMK9uYCb7zPn8vWzKlXrLaCVStURVLQRkvrJWEi13MvSQPNPGOdG6DcI0DbKlofnQf9jpnTbs5b-kYEAWSoqJKOVM-0000]--></g></svg>