<?xml version="1.0" encoding="us-ascii" standalone="no"?><svg xmlns="http://www.w3.org/2000/svg" xmlns:xlink="http://www.w3.org/1999/xlink" contentStyleType="text/css" height="852px" preserveAspectRatio="none" style="width:1066px;height:852px;background:#FFFFFF;" version="1.1" viewBox="0 0 1066 852" width="1066.8px" zoomAndPan="magnify"><defs/><g><rect fill="#FFFFFF" height="713.2605" style="stroke:#181818;stroke-width:0.6;" width="6" x="36.6" y="67.3453"/><rect fill="#FFFFFF" height="168.9715" style="stroke:#181818;stroke-width:0.6;" width="6" x="246" y="81.3199"/><rect fill="#FFFFFF" height="168.9715" style="stroke:#181818;stroke-width:0.6;" width="6" x="246" y="269.066"/><rect fill="#FFFFFF" height="18.7746" style="stroke:#181818;stroke-width:0.6;" width="6" x="246" y="456.8121"/><rect fill="#FFFFFF" height="286.2445" style="stroke:#181818;stroke-width:0.6;" width="6" x="246" y="494.3613"/><rect fill="#FFFFFF" height="131.4223" style="stroke:#181818;stroke-width:0.6;" width="6" x="464.4" y="100.0945"/><rect fill="#FFFFFF" height="131.4223" style="stroke:#181818;stroke-width:0.6;" width="6" x="464.4" y="287.8406"/><rect fill="#FFFFFF" height="248.6953" style="stroke:#181818;stroke-width:0.6;" width="6" x="464.4" y="513.1359"/><rect fill="#FFFFFF" height="138.0223" style="stroke:#181818;stroke-width:0.6;" width="6" x="467.4" y="536.7105"/><rect fill="#FFFFFF" height="18.7746" style="stroke:#181818;stroke-width:0.6;" width="6" x="639.6" y="118.8691"/><rect fill="#FFFFFF" height="18.7746" style="stroke:#181818;stroke-width:0.6;" width="6" x="639.6" y="306.6152"/><rect fill="#FFFFFF" height="18.7746" style="stroke:#181818;stroke-width:0.6;" width="6" x="639.6" y="558.4852"/><rect fill="#FFFFFF" height="18.7746" style="stroke:#181818;stroke-width:0.6;" width="6" x="703.8" y="156.4184"/><rect fill="#FFFFFF" height="18.7746" style="stroke:#181818;stroke-width:0.6;" width="6" x="703.8" y="344.1645"/><rect fill="#FFFFFF" height="18.7746" style="stroke:#181818;stroke-width:0.6;" width="6" x="703.8" y="596.0344"/><rect fill="#FFFFFF" height="18.7746" style="stroke:#181818;stroke-width:0.6;" width="6" x="773.7" y="381.7137"/><rect fill="#FFFFFF" height="18.7746" style="stroke:#181818;stroke-width:0.6;" width="6" x="867" y="193.9676"/><rect fill="#FFFFFF" height="18.7746" style="stroke:#181818;stroke-width:0.6;" width="6" x="867" y="633.5836"/><rect fill="#FFFFFF" height="45.3492" style="stroke:#181818;stroke-width:0.6;" width="6" x="954.3" y="697.7074"/><line style="stroke:#181818;stroke-width:0.3;stroke-dasharray:5.0,5.0;" x1="39.6" x2="39.6" y1="61.3453" y2="791.4059"/><line style="stroke:#181818;stroke-width:0.3;stroke-dasharray:5.0,5.0;" x1="248.7" x2="248.7" y1="61.3453" y2="791.4059"/><line style="stroke:#181818;stroke-width:0.3;stroke-dasharray:5.0,5.0;" x1="467.4" x2="467.4" y1="61.3453" y2="791.4059"/><line style="stroke:#181818;stroke-width:0.3;stroke-dasharray:5.0,5.0;" x1="642.3" x2="642.3" y1="61.3453" y2="791.4059"/><line style="stroke:#181818;stroke-width:0.3;stroke-dasharray:5.0,5.0;" x1="706.5" x2="706.5" y1="61.3453" y2="791.4059"/><line style="stroke:#181818;stroke-width:0.3;stroke-dasharray:5.0,5.0;" x1="776.7" x2="776.7" y1="61.3453" y2="791.4059"/><line style="stroke:#181818;stroke-width:0.3;stroke-dasharray:5.0,5.0;" x1="869.7" x2="869.7" y1="61.3453" y2="791.4059"/><line style="stroke:#181818;stroke-width:0.3;stroke-dasharray:5.0,5.0;" x1="957.3" x2="957.3" y1="61.3453" y2="791.4059"/><text fill="#000000" font-family="sans-serif" font-size="8.4" lengthAdjust="spacing" textLength="69.6" x="3" y="48.0645">Human Resources</text><text fill="#000000" font-family="sans-serif" font-size="8.4" lengthAdjust="spacing" textLength="33.6" x="22.2" y="59.2371">Manager</text><ellipse cx="39.6" cy="8.1" fill="#E3E3E3" rx="4.8" ry="4.8" style="stroke:#181818;stroke-width:0.3;"/><path d="M39.6,12.9 L39.6,29.1 M31.8,17.7 L47.4,17.7 M39.6,29.1 L31.8,38.1 M39.6,29.1 L47.4,38.1 " fill="none" style="stroke:#181818;stroke-width:0.3;"/><text fill="#000000" font-family="sans-serif" font-size="8.4" lengthAdjust="spacing" textLength="69.6" x="3" y="799.8703">Human Resources</text><text fill="#000000" font-family="sans-serif" font-size="8.4" lengthAdjust="spacing" textLength="33.6" x="22.2" y="811.043">Manager</text><ellipse cx="39.6" cy="818.2512" fill="#E3E3E3" rx="4.8" ry="4.8" style="stroke:#181818;stroke-width:0.3;"/><path d="M39.6,823.0512 L39.6,839.2512 M31.8,827.8512 L47.4,827.8512 M39.6,839.2512 L31.8,848.2512 M39.6,839.2512 L47.4,848.2512 " fill="none" style="stroke:#181818;stroke-width:0.3;"/><rect fill="#E3E3E3" height="19.5727" rx="1.5" ry="1.5" style="stroke:#181818;stroke-width:0.3;" width="58.2" x="219.9" y="41.1727"/><text fill="#000000" font-family="sans-serif" font-size="8.4" lengthAdjust="spacing" textLength="49.8" x="224.1" y="54.4371">:AssignSkillUI</text><rect fill="#E3E3E3" height="19.5727" rx="1.5" ry="1.5" style="stroke:#181818;stroke-width:0.3;" width="58.2" x="219.9" y="790.8059"/><text fill="#000000" font-family="sans-serif" font-size="8.4" lengthAdjust="spacing" textLength="49.8" x="224.1" y="804.0703">:AssignSkillUI</text><rect fill="#E3E3E3" height="19.5727" rx="1.5" ry="1.5" style="stroke:#181818;stroke-width:0.3;" width="90" x="422.4" y="41.1727"/><text fill="#000000" font-family="sans-serif" font-size="8.4" lengthAdjust="spacing" textLength="81.6" x="426.6" y="54.4371">:AssignSkillControlller</text><rect fill="#E3E3E3" height="19.5727" rx="1.5" ry="1.5" style="stroke:#181818;stroke-width:0.3;" width="90" x="422.4" y="790.8059"/><text fill="#000000" font-family="sans-serif" font-size="8.4" lengthAdjust="spacing" textLength="81.6" x="426.6" y="804.0703">:AssignSkillControlller</text><rect fill="#E3E3E3" height="19.5727" rx="1.5" ry="1.5" style="stroke:#181818;stroke-width:0.3;" width="58.2" x="613.5" y="41.1727"/><text fill="#000000" font-family="sans-serif" font-size="8.4" lengthAdjust="spacing" textLength="49.8" x="617.7" y="54.4371">:Repositories</text><rect fill="#E3E3E3" height="19.5727" rx="1.5" ry="1.5" style="stroke:#181818;stroke-width:0.3;" width="58.2" x="613.5" y="790.8059"/><text fill="#000000" font-family="sans-serif" font-size="8.4" lengthAdjust="spacing" textLength="49.8" x="617.7" y="804.0703">:Repositories</text><rect fill="#E3E3E3" height="30.7453" rx="1.5" ry="1.5" style="stroke:#181818;stroke-width:0.3;" width="58.2" x="677.7" y="30"/><text fill="#000000" font-family="sans-serif" font-size="8.4" lengthAdjust="spacing" textLength="44.4" x="684.6" y="43.2645">repositories</text><text fill="#000000" font-family="sans-serif" font-size="8.4" lengthAdjust="spacing" textLength="49.8" x="681.9" y="54.4371">:Repositories</text><rect fill="#E3E3E3" height="30.7453" rx="1.5" ry="1.5" style="stroke:#181818;stroke-width:0.3;" width="58.2" x="677.7" y="790.8059"/><text fill="#000000" font-family="sans-serif" font-size="8.4" lengthAdjust="spacing" textLength="44.4" x="684.6" y="804.0703">repositories</text><text fill="#000000" font-family="sans-serif" font-size="8.4" lengthAdjust="spacing" textLength="49.8" x="681.9" y="815.243">:Repositories</text><rect fill="#E3E3E3" height="30.7453" rx="1.5" ry="1.5" style="stroke:#181818;stroke-width:0.3;" width="69.6" x="741.9" y="30"/><text fill="#000000" font-family="sans-serif" font-size="8.4" lengthAdjust="spacing" textLength="61.2" x="746.1" y="43.2645">skillsRepository:</text><text fill="#000000" font-family="sans-serif" font-size="8.4" lengthAdjust="spacing" textLength="60" x="746.7" y="54.4371">SkillsRepository</text><rect fill="#E3E3E3" height="30.7453" rx="1.5" ry="1.5" style="stroke:#181818;stroke-width:0.3;" width="69.6" x="741.9" y="790.8059"/><text fill="#000000" font-family="sans-serif" font-size="8.4" lengthAdjust="spacing" textLength="61.2" x="746.1" y="804.0703">skillsRepository:</text><text fill="#000000" font-family="sans-serif" font-size="8.4" lengthAdjust="spacing" textLength="60" x="746.7" y="815.243">SkillsRepository</text><rect fill="#E3E3E3" height="30.7453" rx="1.5" ry="1.5" style="stroke:#181818;stroke-width:0.3;" width="105" x="817.5" y="30"/><text fill="#000000" font-family="sans-serif" font-size="8.4" lengthAdjust="spacing" textLength="92.4" x="823.8" y="43.2645">collaboratorsRepository:</text><text fill="#000000" font-family="sans-serif" font-size="8.4" lengthAdjust="spacing" textLength="96.6" x="821.7" y="54.4371">&#171;CollaboratorsRepository</text><rect fill="#E3E3E3" height="30.7453" rx="1.5" ry="1.5" style="stroke:#181818;stroke-width:0.3;" width="105" x="817.5" y="790.8059"/><text fill="#000000" font-family="sans-serif" font-size="8.4" lengthAdjust="spacing" textLength="92.4" x="823.8" y="804.0703">collaboratorsRepository:</text><text fill="#000000" font-family="sans-serif" font-size="8.4" lengthAdjust="spacing" textLength="96.6" x="821.7" y="815.243">&#171;CollaboratorsRepository</text><rect fill="#E3E3E3" height="30.7453" rx="1.5" ry="1.5" style="stroke:#181818;stroke-width:0.3;" width="57.6" x="928.5" y="30"/><text fill="#000000" font-family="sans-serif" font-size="8.4" lengthAdjust="spacing" textLength="45" x="934.8" y="43.2645">collaborator</text><text fill="#000000" font-family="sans-serif" font-size="8.4" lengthAdjust="spacing" textLength="49.2" x="932.7" y="54.4371">:Collaborator</text><rect fill="#E3E3E3" height="30.7453" rx="1.5" ry="1.5" style="stroke:#181818;stroke-width:0.3;" width="57.6" x="928.5" y="790.8059"/><text fill="#000000" font-family="sans-serif" font-size="8.4" lengthAdjust="spacing" textLength="45" x="934.8" y="804.0703">collaborator</text><text fill="#000000" font-family="sans-serif" font-size="8.4" lengthAdjust="spacing" textLength="49.2" x="932.7" y="815.243">:Collaborator</text><rect fill="#FFFFFF" height="713.2605" style="stroke:#181818;stroke-width:0.6;" width="6" x="36.6" y="67.3453"/><rect fill="#FFFFFF" height="168.9715" style="stroke:#181818;stroke-width:0.6;" width="6" x="246" y="81.3199"/><rect fill="#FFFFFF" height="168.9715" style="stroke:#181818;stroke-width:0.6;" width="6" x="246" y="269.066"/><rect fill="#FFFFFF" height="18.7746" style="stroke:#181818;stroke-width:0.6;" width="6" x="246" y="456.8121"/><rect fill="#FFFFFF" height="286.2445" style="stroke:#181818;stroke-width:0.6;" width="6" x="246" y="494.3613"/><rect fill="#FFFFFF" height="131.4223" style="stroke:#181818;stroke-width:0.6;" width="6" x="464.4" y="100.0945"/><rect fill="#FFFFFF" height="131.4223" style="stroke:#181818;stroke-width:0.6;" width="6" x="464.4" y="287.8406"/><rect fill="#FFFFFF" height="248.6953" style="stroke:#181818;stroke-width:0.6;" width="6" x="464.4" y="513.1359"/><rect fill="#FFFFFF" height="138.0223" style="stroke:#181818;stroke-width:0.6;" width="6" x="467.4" y="536.7105"/><rect fill="#FFFFFF" height="18.7746" style="stroke:#181818;stroke-width:0.6;" width="6" x="639.6" y="118.8691"/><rect fill="#FFFFFF" height="18.7746" style="stroke:#181818;stroke-width:0.6;" width="6" x="639.6" y="306.6152"/><rect fill="#FFFFFF" height="18.7746" style="stroke:#181818;stroke-width:0.6;" width="6" x="639.6" y="558.4852"/><rect fill="#FFFFFF" height="18.7746" style="stroke:#181818;stroke-width:0.6;" width="6" x="703.8" y="156.4184"/><rect fill="#FFFFFF" height="18.7746" style="stroke:#181818;stroke-width:0.6;" width="6" x="703.8" y="344.1645"/><rect fill="#FFFFFF" height="18.7746" style="stroke:#181818;stroke-width:0.6;" width="6" x="703.8" y="596.0344"/><rect fill="#FFFFFF" height="18.7746" style="stroke:#181818;stroke-width:0.6;" width="6" x="773.7" y="381.7137"/><rect fill="#FFFFFF" height="18.7746" style="stroke:#181818;stroke-width:0.6;" width="6" x="867" y="193.9676"/><rect fill="#FFFFFF" height="18.7746" style="stroke:#181818;stroke-width:0.6;" width="6" x="867" y="633.5836"/><rect fill="#FFFFFF" height="45.3492" style="stroke:#181818;stroke-width:0.6;" width="6" x="954.3" y="697.7074"/><polygon fill="#181818" points="238.8,78.9199,244.8,81.3199,238.8,83.7199,241.2,81.3199" style="stroke:#181818;stroke-width:0.6;"/><line style="stroke:#181818;stroke-width:0.6;" x1="42.6" x2="242.4" y1="81.3199" y2="81.3199"/><text fill="#000000" font-family="sans-serif" font-size="7.8" font-weight="bold" lengthAdjust="spacing" textLength="4.2" x="46.8" y="78.1623">1</text><text fill="#000000" font-family="sans-serif" font-size="7.8" lengthAdjust="spacing" textLength="129.6" x="53.4" y="78.1623">asks to assign skills to a collaborator</text><polygon fill="#181818" points="457.2,97.6945,463.2,100.0945,457.2,102.4945,459.6,100.0945" style="stroke:#181818;stroke-width:0.6;"/><line style="stroke:#181818;stroke-width:0.6;" x1="252" x2="460.8" y1="100.0945" y2="100.0945"/><text fill="#000000" font-family="sans-serif" font-size="7.8" font-weight="bold" lengthAdjust="spacing" textLength="4.2" x="256.2" y="96.9369">2</text><text fill="#000000" font-family="sans-serif" font-size="7.8" lengthAdjust="spacing" textLength="73.8" x="262.8" y="96.9369">getCollaboratorsList()</text><polygon fill="#181818" points="632.4,116.4691,638.4,118.8691,632.4,121.2691,634.8,118.8691" style="stroke:#181818;stroke-width:0.6;"/><line style="stroke:#181818;stroke-width:0.6;" x1="470.4" x2="636" y1="118.8691" y2="118.8691"/><text fill="#000000" font-family="sans-serif" font-size="7.8" font-weight="bold" lengthAdjust="spacing" textLength="4.2" x="474.6" y="115.7115">3</text><text fill="#000000" font-family="sans-serif" font-size="7.8" lengthAdjust="spacing" textLength="45" x="481.2" y="115.7115">getInstance()</text><polygon fill="#181818" points="477,135.2438,471,137.6437,477,140.0438,474.6,137.6437" style="stroke:#181818;stroke-width:0.6;"/><line style="stroke:#181818;stroke-width:0.6;stroke-dasharray:2.0,2.0;" x1="473.4" x2="642" y1="137.6437" y2="137.6437"/><text fill="#000000" font-family="sans-serif" font-size="7.8" font-weight="bold" lengthAdjust="spacing" textLength="4.2" x="480.6" y="134.4861">4</text><text fill="#000000" font-family="sans-serif" font-size="7.8" lengthAdjust="spacing" textLength="40.2" x="487.2" y="134.4861">repositories</text><polygon fill="#181818" points="696.6,154.0184,702.6,156.4184,696.6,158.8184,699,156.4184" style="stroke:#181818;stroke-width:0.6;"/><line style="stroke:#181818;stroke-width:0.6;" x1="470.4" x2="700.2" y1="156.4184" y2="156.4184"/><text fill="#000000" font-family="sans-serif" font-size="7.8" font-weight="bold" lengthAdjust="spacing" textLength="4.2" x="474.6" y="153.2607">5</text><text fill="#000000" font-family="sans-serif" font-size="7.8" lengthAdjust="spacing" textLength="98.4" x="481.2" y="153.2607">getCollaboratorsRepository()</text><polygon fill="#181818" points="477,172.793,471,175.193,477,177.593,474.6,175.193" style="stroke:#181818;stroke-width:0.6;"/><line style="stroke:#181818;stroke-width:0.6;stroke-dasharray:2.0,2.0;" x1="473.4" x2="706.2" y1="175.193" y2="175.193"/><text fill="#000000" font-family="sans-serif" font-size="7.8" font-weight="bold" lengthAdjust="spacing" textLength="4.2" x="480.6" y="172.0354">6</text><text fill="#000000" font-family="sans-serif" font-size="7.8" lengthAdjust="spacing" textLength="82.8" x="487.2" y="172.0354">CollaboratorsRepository</text><polygon fill="#181818" points="859.8,191.5676,865.8,193.9676,859.8,196.3676,862.2,193.9676" style="stroke:#181818;stroke-width:0.6;"/><line style="stroke:#181818;stroke-width:0.6;" x1="470.4" x2="863.4" y1="193.9676" y2="193.9676"/><text fill="#000000" font-family="sans-serif" font-size="7.8" font-weight="bold" lengthAdjust="spacing" textLength="4.2" x="474.6" y="190.81">7</text><text fill="#000000" font-family="sans-serif" font-size="7.8" lengthAdjust="spacing" textLength="73.8" x="481.2" y="190.81">getCollaboratorsList()</text><polygon fill="#181818" points="477,210.3422,471,212.7422,477,215.1422,474.6,212.7422" style="stroke:#181818;stroke-width:0.6;"/><line style="stroke:#181818;stroke-width:0.6;stroke-dasharray:2.0,2.0;" x1="473.4" x2="869.4" y1="212.7422" y2="212.7422"/><text fill="#000000" font-family="sans-serif" font-size="7.8" font-weight="bold" lengthAdjust="spacing" textLength="4.2" x="480.6" y="209.5846">8</text><text fill="#000000" font-family="sans-serif" font-size="7.8" lengthAdjust="spacing" textLength="58.2" x="487.2" y="209.5846">CollaboratorsList</text><polygon fill="#181818" points="258.6,229.1168,252.6,231.5168,258.6,233.9168,256.2,231.5168" style="stroke:#181818;stroke-width:0.6;"/><line style="stroke:#181818;stroke-width:0.6;stroke-dasharray:2.0,2.0;" x1="255" x2="466.8" y1="231.5168" y2="231.5168"/><text fill="#000000" font-family="sans-serif" font-size="7.8" font-weight="bold" lengthAdjust="spacing" textLength="4.2" x="262.2" y="228.3592">9</text><text fill="#000000" font-family="sans-serif" font-size="7.8" lengthAdjust="spacing" textLength="58.2" x="268.8" y="228.3592">CollaboratorsList</text><polygon fill="#181818" points="49.2,247.8914,43.2,250.2914,49.2,252.6914,46.8,250.2914" style="stroke:#181818;stroke-width:0.6;"/><line style="stroke:#181818;stroke-width:0.6;stroke-dasharray:2.0,2.0;" x1="45.6" x2="248.4" y1="250.2914" y2="250.2914"/><text fill="#000000" font-family="sans-serif" font-size="7.8" font-weight="bold" lengthAdjust="spacing" textLength="8.4" x="52.8" y="247.1338">10</text><text fill="#000000" font-family="sans-serif" font-size="7.8" lengthAdjust="spacing" textLength="178.2" x="63.6" y="247.1338">displays list of collaborators and asks to select one</text><polygon fill="#181818" points="238.8,266.666,244.8,269.066,238.8,271.466,241.2,269.066" style="stroke:#181818;stroke-width:0.6;"/><line style="stroke:#181818;stroke-width:0.6;" x1="42.6" x2="242.4" y1="269.066" y2="269.066"/><text fill="#000000" font-family="sans-serif" font-size="7.8" font-weight="bold" lengthAdjust="spacing" textLength="8.4" x="46.8" y="265.9084">11</text><text fill="#000000" font-family="sans-serif" font-size="7.8" lengthAdjust="spacing" textLength="81" x="57.6" y="265.9084">selects the collaborator</text><polygon fill="#181818" points="457.2,285.4406,463.2,287.8406,457.2,290.2406,459.6,287.8406" style="stroke:#181818;stroke-width:0.6;"/><line style="stroke:#181818;stroke-width:0.6;" x1="252" x2="460.8" y1="287.8406" y2="287.8406"/><text fill="#000000" font-family="sans-serif" font-size="7.8" font-weight="bold" lengthAdjust="spacing" textLength="8.4" x="256.2" y="284.683">12</text><text fill="#000000" font-family="sans-serif" font-size="7.8" lengthAdjust="spacing" textLength="47.4" x="267" y="284.683">getSkillsList()</text><polygon fill="#181818" points="632.4,304.2152,638.4,306.6152,632.4,309.0152,634.8,306.6152" style="stroke:#181818;stroke-width:0.6;"/><line style="stroke:#181818;stroke-width:0.6;" x1="470.4" x2="636" y1="306.6152" y2="306.6152"/><text fill="#000000" font-family="sans-serif" font-size="7.8" font-weight="bold" lengthAdjust="spacing" textLength="8.4" x="474.6" y="303.4576">13</text><text fill="#000000" font-family="sans-serif" font-size="7.8" lengthAdjust="spacing" textLength="45" x="485.4" y="303.4576">getInstance()</text><polygon fill="#181818" points="477,322.9898,471,325.3898,477,327.7898,474.6,325.3898" style="stroke:#181818;stroke-width:0.6;"/><line style="stroke:#181818;stroke-width:0.6;stroke-dasharray:2.0,2.0;" x1="473.4" x2="642" y1="325.3898" y2="325.3898"/><text fill="#000000" font-family="sans-serif" font-size="7.8" font-weight="bold" lengthAdjust="spacing" textLength="8.4" x="480.6" y="322.2322">14</text><text fill="#000000" font-family="sans-serif" font-size="7.8" lengthAdjust="spacing" textLength="40.2" x="491.4" y="322.2322">repositories</text><polygon fill="#181818" points="696.6,341.7645,702.6,344.1645,696.6,346.5645,699,344.1645" style="stroke:#181818;stroke-width:0.6;"/><line style="stroke:#181818;stroke-width:0.6;" x1="470.4" x2="700.2" y1="344.1645" y2="344.1645"/><text fill="#000000" font-family="sans-serif" font-size="7.8" font-weight="bold" lengthAdjust="spacing" textLength="8.4" x="474.6" y="341.0068">15</text><text fill="#000000" font-family="sans-serif" font-size="7.8" lengthAdjust="spacing" textLength="72" x="485.4" y="341.0068">getSkillsRepository()</text><polygon fill="#181818" points="477,360.5391,471,362.9391,477,365.3391,474.6,362.9391" style="stroke:#181818;stroke-width:0.6;"/><line style="stroke:#181818;stroke-width:0.6;stroke-dasharray:2.0,2.0;" x1="473.4" x2="706.2" y1="362.9391" y2="362.9391"/><text fill="#000000" font-family="sans-serif" font-size="7.8" font-weight="bold" lengthAdjust="spacing" textLength="8.4" x="480.6" y="359.7814">16</text><text fill="#000000" font-family="sans-serif" font-size="7.8" lengthAdjust="spacing" textLength="56.4" x="491.4" y="359.7814">SkillsRepository</text><polygon fill="#181818" points="766.5,379.3137,772.5,381.7137,766.5,384.1137,768.9,381.7137" style="stroke:#181818;stroke-width:0.6;"/><line style="stroke:#181818;stroke-width:0.6;" x1="470.4" x2="770.1" y1="381.7137" y2="381.7137"/><text fill="#000000" font-family="sans-serif" font-size="7.8" font-weight="bold" lengthAdjust="spacing" textLength="8.4" x="474.6" y="378.5561">17</text><text fill="#000000" font-family="sans-serif" font-size="7.8" lengthAdjust="spacing" textLength="47.4" x="485.4" y="378.5561">getSkillsList()</text><polygon fill="#181818" points="477,398.0883,471,400.4883,477,402.8883,474.6,400.4883" style="stroke:#181818;stroke-width:0.6;"/><line style="stroke:#181818;stroke-width:0.6;stroke-dasharray:2.0,2.0;" x1="473.4" x2="776.1" y1="400.4883" y2="400.4883"/><text fill="#000000" font-family="sans-serif" font-size="7.8" font-weight="bold" lengthAdjust="spacing" textLength="8.4" x="480.6" y="397.3307">18</text><text fill="#000000" font-family="sans-serif" font-size="7.8" lengthAdjust="spacing" textLength="31.8" x="491.4" y="397.3307">SkillsList</text><polygon fill="#181818" points="258.6,416.8629,252.6,419.2629,258.6,421.6629,256.2,419.2629" style="stroke:#181818;stroke-width:0.6;"/><line style="stroke:#181818;stroke-width:0.6;stroke-dasharray:2.0,2.0;" x1="255" x2="466.8" y1="419.2629" y2="419.2629"/><text fill="#000000" font-family="sans-serif" font-size="7.8" font-weight="bold" lengthAdjust="spacing" textLength="8.4" x="262.2" y="416.1053">19</text><text fill="#000000" font-family="sans-serif" font-size="7.8" lengthAdjust="spacing" textLength="31.8" x="273" y="416.1053">SkillsList</text><polygon fill="#181818" points="49.2,435.6375,43.2,438.0375,49.2,440.4375,46.8,438.0375" style="stroke:#181818;stroke-width:0.6;"/><line style="stroke:#181818;stroke-width:0.6;stroke-dasharray:2.0,2.0;" x1="45.6" x2="248.4" y1="438.0375" y2="438.0375"/><text fill="#000000" font-family="sans-serif" font-size="7.8" font-weight="bold" lengthAdjust="spacing" textLength="8.4" x="52.8" y="434.8799">20</text><text fill="#000000" font-family="sans-serif" font-size="7.8" lengthAdjust="spacing" textLength="70.2" x="63.6" y="434.8799">displays list of skills</text><polygon fill="#181818" points="238.8,454.4121,244.8,456.8121,238.8,459.2121,241.2,456.8121" style="stroke:#181818;stroke-width:0.6;"/><line style="stroke:#181818;stroke-width:0.6;" x1="42.6" x2="242.4" y1="456.8121" y2="456.8121"/><text fill="#000000" font-family="sans-serif" font-size="7.8" font-weight="bold" lengthAdjust="spacing" textLength="8.4" x="46.8" y="453.6545">21</text><text fill="#000000" font-family="sans-serif" font-size="7.8" lengthAdjust="spacing" textLength="150.6" x="57.6" y="453.6545">selects skills and assign to the collaborator</text><polygon fill="#181818" points="49.2,473.1867,43.2,475.5867,49.2,477.9867,46.8,475.5867" style="stroke:#181818;stroke-width:0.6;"/><line style="stroke:#181818;stroke-width:0.6;stroke-dasharray:2.0,2.0;" x1="45.6" x2="248.4" y1="475.5867" y2="475.5867"/><text fill="#000000" font-family="sans-serif" font-size="7.8" font-weight="bold" lengthAdjust="spacing" textLength="8.4" x="52.8" y="472.4291">22</text><text fill="#000000" font-family="sans-serif" font-size="7.8" lengthAdjust="spacing" textLength="141.6" x="63.6" y="472.4291">shows all data and requests confirmation</text><polygon fill="#181818" points="238.8,491.9613,244.8,494.3613,238.8,496.7613,241.2,494.3613" style="stroke:#181818;stroke-width:0.6;"/><line style="stroke:#181818;stroke-width:0.6;" x1="42.6" x2="242.4" y1="494.3613" y2="494.3613"/><text fill="#000000" font-family="sans-serif" font-size="7.8" font-weight="bold" lengthAdjust="spacing" textLength="8.4" x="46.8" y="491.2037">23</text><text fill="#000000" font-family="sans-serif" font-size="7.8" lengthAdjust="spacing" textLength="46.8" x="57.6" y="491.2037">confirms data</text><polygon fill="#181818" points="457.2,510.7359,463.2,513.1359,457.2,515.5359,459.6,513.1359" style="stroke:#181818;stroke-width:0.6;"/><line style="stroke:#181818;stroke-width:0.6;" x1="252" x2="460.8" y1="513.1359" y2="513.1359"/><text fill="#000000" font-family="sans-serif" font-size="7.8" font-weight="bold" lengthAdjust="spacing" textLength="8.4" x="256.2" y="509.9783">24</text><text fill="#000000" font-family="sans-serif" font-size="7.8" lengthAdjust="spacing" textLength="190.2" x="267" y="509.9783">assignSkillToCollaborator (collaborator, skillsToAssign)</text><line style="stroke:#181818;stroke-width:0.6;" x1="470.4" x2="498.6" y1="528.9105" y2="528.9105"/><line style="stroke:#181818;stroke-width:0.6;" x1="498.6" x2="498.6" y1="528.9105" y2="536.7105"/><line style="stroke:#181818;stroke-width:0.6;" x1="474" x2="498.6" y1="536.7105" y2="536.7105"/><polygon fill="#181818" points="480,534.3105,474,536.7105,480,539.1105,477.6,536.7105" style="stroke:#181818;stroke-width:0.6;"/><text fill="#000000" font-family="sans-serif" font-size="7.8" font-weight="bold" lengthAdjust="spacing" textLength="8.4" x="477.6" y="525.7529">25</text><text fill="#000000" font-family="sans-serif" font-size="7.8" lengthAdjust="spacing" textLength="150" x="488.4" y="525.7529">getCollaboratorByName (collaboratorName)</text><polygon fill="#181818" points="632.4,556.0852,638.4,558.4852,632.4,560.8852,634.8,558.4852" style="stroke:#181818;stroke-width:0.6;"/><line style="stroke:#181818;stroke-width:0.6;" x1="473.4" x2="636" y1="558.4852" y2="558.4852"/><text fill="#000000" font-family="sans-serif" font-size="7.8" font-weight="bold" lengthAdjust="spacing" textLength="8.4" x="477.6" y="555.3275">26</text><text fill="#000000" font-family="sans-serif" font-size="7.8" lengthAdjust="spacing" textLength="45" x="488.4" y="555.3275">getInstance()</text><polygon fill="#181818" points="480,574.8598,474,577.2598,480,579.6598,477.6,577.2598" style="stroke:#181818;stroke-width:0.6;"/><line style="stroke:#181818;stroke-width:0.6;stroke-dasharray:2.0,2.0;" x1="476.4" x2="642" y1="577.2598" y2="577.2598"/><text fill="#000000" font-family="sans-serif" font-size="7.8" font-weight="bold" lengthAdjust="spacing" textLength="8.4" x="483.6" y="574.1021">27</text><text fill="#000000" font-family="sans-serif" font-size="7.8" lengthAdjust="spacing" textLength="40.2" x="494.4" y="574.1021">repositories</text><polygon fill="#181818" points="696.6,593.6344,702.6,596.0344,696.6,598.4344,699,596.0344" style="stroke:#181818;stroke-width:0.6;"/><line style="stroke:#181818;stroke-width:0.6;" x1="473.4" x2="700.2" y1="596.0344" y2="596.0344"/><text fill="#000000" font-family="sans-serif" font-size="7.8" font-weight="bold" lengthAdjust="spacing" textLength="8.4" x="477.6" y="592.8768">28</text><text fill="#000000" font-family="sans-serif" font-size="7.8" lengthAdjust="spacing" textLength="94.2" x="488.4" y="592.8768">getCollaboratorRepository()</text><polygon fill="#181818" points="480,612.409,474,614.809,480,617.209,477.6,614.809" style="stroke:#181818;stroke-width:0.6;"/><line style="stroke:#181818;stroke-width:0.6;stroke-dasharray:2.0,2.0;" x1="476.4" x2="706.2" y1="614.809" y2="614.809"/><text fill="#000000" font-family="sans-serif" font-size="7.8" font-weight="bold" lengthAdjust="spacing" textLength="8.4" x="483.6" y="611.6514">29</text><text fill="#000000" font-family="sans-serif" font-size="7.8" lengthAdjust="spacing" textLength="81.6" x="494.4" y="611.6514">collaboratorsRepository</text><polygon fill="#181818" points="859.8,631.1836,865.8,633.5836,859.8,635.9836,862.2,633.5836" style="stroke:#181818;stroke-width:0.6;"/><line style="stroke:#181818;stroke-width:0.6;" x1="473.4" x2="863.4" y1="633.5836" y2="633.5836"/><text fill="#000000" font-family="sans-serif" font-size="7.8" font-weight="bold" lengthAdjust="spacing" textLength="8.4" x="477.6" y="630.426">30</text><text fill="#000000" font-family="sans-serif" font-size="7.8" lengthAdjust="spacing" textLength="150" x="488.4" y="630.426">getCollaboratorByName (collaboratorName)</text><polygon fill="#181818" points="480,649.9582,474,652.3582,480,654.7582,477.6,652.3582" style="stroke:#181818;stroke-width:0.6;"/><line style="stroke:#181818;stroke-width:0.6;stroke-dasharray:2.0,2.0;" x1="476.4" x2="869.4" y1="652.3582" y2="652.3582"/><text fill="#000000" font-family="sans-serif" font-size="7.8" font-weight="bold" lengthAdjust="spacing" textLength="8.4" x="483.6" y="649.2006">31</text><text fill="#000000" font-family="sans-serif" font-size="7.8" lengthAdjust="spacing" textLength="40.2" x="494.4" y="649.2006">collaborator</text><line style="stroke:#181818;stroke-width:0.6;stroke-dasharray:2.0,2.0;" x1="473.4" x2="498.6" y1="674.1328" y2="674.1328"/><line style="stroke:#181818;stroke-width:0.6;stroke-dasharray:2.0,2.0;" x1="498.6" x2="498.6" y1="674.1328" y2="681.9328"/><line style="stroke:#181818;stroke-width:0.6;stroke-dasharray:2.0,2.0;" x1="470.4" x2="498.6" y1="681.9328" y2="681.9328"/><polygon fill="#181818" points="476.4,679.5328,470.4,681.9328,476.4,684.3328,474,681.9328" style="stroke:#181818;stroke-width:0.6;"/><text fill="#000000" font-family="sans-serif" font-size="7.8" font-weight="bold" lengthAdjust="spacing" textLength="8.4" x="477.6" y="670.9752">32</text><text fill="#000000" font-family="sans-serif" font-size="7.8" lengthAdjust="spacing" textLength="40.2" x="488.4" y="670.9752">collaborator</text><polygon fill="#181818" points="947.1,695.3074,953.1,697.7074,947.1,700.1074,949.5,697.7074" style="stroke:#181818;stroke-width:0.6;"/><line style="stroke:#181818;stroke-width:0.6;" x1="470.4" x2="950.7" y1="697.7074" y2="697.7074"/><text fill="#000000" font-family="sans-serif" font-size="7.8" font-weight="bold" lengthAdjust="spacing" textLength="8.4" x="474.6" y="694.5498">33</text><text fill="#000000" font-family="sans-serif" font-size="7.8" lengthAdjust="spacing" textLength="190.2" x="485.4" y="694.5498">assignSkillToCollaborator (collaborator, skillsToAssign)</text><line style="stroke:#181818;stroke-width:0.6;" x1="960.3" x2="985.5" y1="716.482" y2="716.482"/><line style="stroke:#181818;stroke-width:0.6;" x1="985.5" x2="985.5" y1="716.482" y2="724.282"/><line style="stroke:#181818;stroke-width:0.6;" x1="960.9" x2="985.5" y1="724.282" y2="724.282"/><polygon fill="#181818" points="966.9,721.882,960.9,724.282,966.9,726.682,964.5,724.282" style="stroke:#181818;stroke-width:0.6;"/><text fill="#000000" font-family="sans-serif" font-size="7.8" font-weight="bold" lengthAdjust="spacing" textLength="8.4" x="964.5" y="713.3244">34</text><text fill="#000000" font-family="sans-serif" font-size="7.8" lengthAdjust="spacing" textLength="87.6" x="975.3" y="713.3244">assignSkillToCollaborator</text><polygon fill="#181818" points="477,740.6566,471,743.0566,477,745.4566,474.6,743.0566" style="stroke:#181818;stroke-width:0.6;"/><line style="stroke:#181818;stroke-width:0.6;stroke-dasharray:2.0,2.0;" x1="473.4" x2="956.7" y1="743.0566" y2="743.0566"/><text fill="#000000" font-family="sans-serif" font-size="7.8" font-weight="bold" lengthAdjust="spacing" textLength="8.4" x="480.6" y="739.899">35</text><text fill="#000000" font-family="sans-serif" font-size="7.8" lengthAdjust="spacing" textLength="7.2" x="491.4" y="739.899">...</text><polygon fill="#181818" points="258.6,759.4313,252.6,761.8313,258.6,764.2312,256.2,761.8313" style="stroke:#181818;stroke-width:0.6;"/><line style="stroke:#181818;stroke-width:0.6;stroke-dasharray:2.0,2.0;" x1="255" x2="466.8" y1="761.8313" y2="761.8313"/><text fill="#000000" font-family="sans-serif" font-size="7.8" font-weight="bold" lengthAdjust="spacing" textLength="8.4" x="262.2" y="758.6736">36</text><text fill="#000000" font-family="sans-serif" font-size="7.8" lengthAdjust="spacing" textLength="7.2" x="273" y="758.6736">...</text><polygon fill="#181818" points="46.2,778.2059,40.2,780.6059,46.2,783.0059,43.8,780.6059" style="stroke:#181818;stroke-width:0.6;"/><line style="stroke:#181818;stroke-width:0.6;stroke-dasharray:2.0,2.0;" x1="42.6" x2="248.4" y1="780.6059" y2="780.6059"/><text fill="#000000" font-family="sans-serif" font-size="7.8" font-weight="bold" lengthAdjust="spacing" textLength="8.4" x="49.8" y="777.4482">37</text><text fill="#000000" font-family="sans-serif" font-size="7.8" lengthAdjust="spacing" textLength="94.8" x="60.6" y="777.4482">displays operation success</text><!--SRC=[rLV1Rjim3BthAuXUrW9hFi270Mane07IPR3JMo-geoH252cJv7Nvflt5lcoIx3gIBJbETbekGMJoyL4a7nsre_o09Tx3Nd1HRgNO4z2o8aYrJmwutE4DAVIH4P2ar9Xlc6-WjdWbtYdVm1epHH32bHQyshyHYT2dBLqHM0kXtyGlX4ij9DmyLNlC8ITALB8awfN3C-OcXhm1hE0fVqO6MTEI7Z3NS9DDbQ8RNkmeOoypP_CoIviy2gwbO8mrU8_BVDwnpib1A6guKAASJVxrUsWYFOjN7dKeGWzbOwlMy9YzrdIy8-VPFGnHIaCSlmc9pQCGxC_ln_WpXvhmIuERf7oy-gOMy_dqOP5FbuiSsMBHdrWJLn04pSVyWFilfW2G6PUT0YtCjxryg6_07GHyJiujfAbVUsYW3A2jae7S41saEQTAtzxr0LnHssFxSG06o5IcnfbnPNgr99vx065h7ZondlSDbGpy3WZCLYGDuP4e8jcS2ZD0gkYnAZnQ2Rm1XaMSOghJpfKWe9jgky0wOTGc1PsiRC1KFgC2rYb-TEbex7vFsTOqCBRdCrXHTM3ug80P313ha0jWlce7GX5cX1849oWIvwFv_L6gFOppDimHHSUcEpArflptizALngk7fAUn5qz75o5zpG6pNk30hFlKdu0JTehiC7ROy-VHmgOORlHQsD45RToiWdect78mKp6kjtjqr5Qy6oZ6O8KrTfYI_AY8qdRjyJMLUwofu6FuDVRAGQ4HAobh-BiBNGfVI-3MJ-Ppa_DIrAyYTs5vpWnaj_tgq1qbVZX-m-RzB0XhJ-wYK1T4CsCmf0BdrU12LHYZ3Z6LwDr8KYf6I4P2EieH-tMKaboxRw-iygZ5E7OZP_qv7SZzej2jJbqUPyJOU2-m_p2vm-FaloJ7BECCFQykKnYWUcs4qsAPJ2PdB_PiIYXPnfTPF4ItRl7NAc_PY0EHJiT1LQNvLnZTDzvF-w_aBm00]--></g></svg>