<?xml version="1.0" encoding="us-ascii" standalone="no"?><svg xmlns="http://www.w3.org/2000/svg" xmlns:xlink="http://www.w3.org/1999/xlink" contentStyleType="text/css" height="529.9px" preserveAspectRatio="none" style="width:368px;height:529px;background:#FFFFFF;" version="1.1" viewBox="0 0 368 529" width="368.2px" zoomAndPan="magnify"><defs/><g><!--class AssignSkillUI--><g id="elem_AssignSkillUI"><rect codeLine="11" fill="#F1F1F1" height="33.6" id="AssignSkillUI" rx="1.75" ry="1.75" style="stroke:#181818;stroke-width:0.3499999999999999;" width="77.7" x="112" y="4.9"/><ellipse cx="122.5" cy="16.1" fill="#ADD1B2" rx="7.7" ry="7.7" style="stroke:#181818;stroke-width:0.6999999999999998;"/><path d="M124.4359,13.2125 Q124.5453,13.0594 124.6766,12.9828 Q124.8078,12.9062 124.9609,12.9062 Q125.2234,12.9062 125.3875,13.0922 Q125.5516,13.2672 125.5516,13.6937 L125.5516,14.7109 Q125.5516,15.1375 125.3875,15.3234 Q125.2234,15.5094 124.9609,15.5094 Q124.7203,15.5094 124.5781,15.3672 Q124.4359,15.2359 124.3594,14.875 Q124.3266,14.6234 124.1953,14.4922 Q123.9656,14.2297 123.5391,14.0766 Q123.1125,13.9234 122.675,13.9234 Q122.1391,13.9234 121.6906,14.1531 Q121.2531,14.3828 120.9031,14.9078 Q120.5641,15.4328 120.5641,16.1547 L120.5641,16.9203 Q120.5641,17.7844 121.1875,18.3641 Q121.8109,18.9328 122.9266,18.9328 Q123.5828,18.9328 124.0422,18.7578 Q124.3156,18.6484 124.6109,18.3422 Q124.7969,18.1562 124.8953,18.1016 Q125.0047,18.0469 125.1469,18.0469 Q125.3766,18.0469 125.5516,18.2328 Q125.7375,18.4078 125.7375,18.6484 Q125.7375,18.8891 125.4969,19.1734 Q125.1469,19.5781 124.5891,19.8078 Q123.8344,20.125 122.9266,20.125 Q121.8656,20.125 121.0234,19.6875 Q120.3344,19.3375 119.8531,18.5937 Q119.3719,17.8391 119.3719,16.9422 L119.3719,16.1328 Q119.3719,15.2031 119.7984,14.4047 Q120.2359,13.5953 121.0016,13.1687 Q121.7672,12.7312 122.6312,12.7312 Q123.1453,12.7312 123.5937,12.8516 Q124.0531,12.9609 124.4359,13.2125 Z " fill="#000000"/><text fill="#000000" font-family="sans-serif" font-size="9.8" lengthAdjust="spacing" textLength="55.3" x="132.3" y="20.1578">AssignSkillUI</text><line style="stroke:#181818;stroke-width:0.3499999999999999;" x1="112.7" x2="189" y1="27.3" y2="27.3"/><line style="stroke:#181818;stroke-width:0.3499999999999999;" x1="112.7" x2="189" y1="32.9" y2="32.9"/></g><!--class AssignSkillController--><g id="elem_AssignSkillController"><rect codeLine="14" fill="#F1F1F1" height="98.7738" id="AssignSkillController" rx="1.75" ry="1.75" style="stroke:#181818;stroke-width:0.3499999999999999;" width="280.7" x="10.5" y="81.2"/><ellipse cx="102.725" cy="92.4" fill="#ADD1B2" rx="7.7" ry="7.7" style="stroke:#181818;stroke-width:0.6999999999999998;"/><path d="M104.6609,89.5125 Q104.7703,89.3594 104.9016,89.2828 Q105.0328,89.2062 105.1859,89.2062 Q105.4484,89.2062 105.6125,89.3922 Q105.7766,89.5672 105.7766,89.9937 L105.7766,91.0109 Q105.7766,91.4375 105.6125,91.6234 Q105.4484,91.8094 105.1859,91.8094 Q104.9453,91.8094 104.8031,91.6672 Q104.6609,91.5359 104.5844,91.175 Q104.5516,90.9234 104.4203,90.7922 Q104.1906,90.5297 103.7641,90.3766 Q103.3375,90.2234 102.9,90.2234 Q102.3641,90.2234 101.9156,90.4531 Q101.4781,90.6828 101.1281,91.2078 Q100.7891,91.7328 100.7891,92.4547 L100.7891,93.2203 Q100.7891,94.0844 101.4125,94.6641 Q102.0359,95.2328 103.1516,95.2328 Q103.8078,95.2328 104.2672,95.0578 Q104.5406,94.9484 104.8359,94.6422 Q105.0219,94.4562 105.1203,94.4016 Q105.2297,94.3469 105.3719,94.3469 Q105.6016,94.3469 105.7766,94.5328 Q105.9625,94.7078 105.9625,94.9484 Q105.9625,95.1891 105.7219,95.4734 Q105.3719,95.8781 104.8141,96.1078 Q104.0594,96.425 103.1516,96.425 Q102.0906,96.425 101.2484,95.9875 Q100.5594,95.6375 100.0781,94.8937 Q99.5969,94.1391 99.5969,93.2422 L99.5969,92.4328 Q99.5969,91.5031 100.0234,90.7047 Q100.4609,89.8953 101.2266,89.4687 Q101.9922,89.0312 102.8562,89.0312 Q103.3703,89.0312 103.8187,89.1516 Q104.2781,89.2609 104.6609,89.5125 Z " fill="#000000"/><text fill="#000000" font-family="sans-serif" font-size="9.8" lengthAdjust="spacing" textLength="90.3" x="117.075" y="96.4578">AssignSkillController</text><line style="stroke:#181818;stroke-width:0.3499999999999999;" x1="11.2" x2="290.5" y1="103.6" y2="103.6"/><line style="stroke:#181818;stroke-width:0.3499999999999999;" x1="11.2" x2="290.5" y1="109.2" y2="109.2"/><text fill="#000000" font-family="sans-serif" font-size="9.8" lengthAdjust="spacing" textLength="272.3" x="14.7" y="122.5752">+AssignSkillController(collaboratorRepository, skillRepository)</text><text fill="#000000" font-family="sans-serif" font-size="9.8" lengthAdjust="spacing" textLength="119.7" x="14.7" y="135.61">-getSkillByName(skillName)</text><text fill="#000000" font-family="sans-serif" font-size="9.8" lengthAdjust="spacing" textLength="193.2" x="14.7" y="148.6447">-getCollaboratorByName(collaboratorName)</text><text fill="#000000" font-family="sans-serif" font-size="9.8" lengthAdjust="spacing" textLength="59.5" x="14.7" y="161.6795">+getSkillList()</text><text fill="#000000" font-family="sans-serif" font-size="9.8" lengthAdjust="spacing" textLength="101.5" x="14.7" y="174.7143">+getCollaboratorsList()</text></g><!--class Repositories--><g id="elem_Repositories"><rect codeLine="22" fill="#F1F1F1" height="85.7391" id="Repositories" rx="1.75" ry="1.75" style="stroke:#181818;stroke-width:0.3499999999999999;" width="137.2" x="82.25" y="235.2"/><ellipse cx="120.225" cy="246.4" fill="#ADD1B2" rx="7.7" ry="7.7" style="stroke:#181818;stroke-width:0.6999999999999998;"/><path d="M122.1609,243.5125 Q122.2703,243.3594 122.4016,243.2828 Q122.5328,243.2062 122.6859,243.2062 Q122.9484,243.2062 123.1125,243.3922 Q123.2766,243.5672 123.2766,243.9937 L123.2766,245.0109 Q123.2766,245.4375 123.1125,245.6234 Q122.9484,245.8094 122.6859,245.8094 Q122.4453,245.8094 122.3031,245.6672 Q122.1609,245.5359 122.0844,245.175 Q122.0516,244.9234 121.9203,244.7922 Q121.6906,244.5297 121.2641,244.3766 Q120.8375,244.2234 120.4,244.2234 Q119.8641,244.2234 119.4156,244.4531 Q118.9781,244.6828 118.6281,245.2078 Q118.2891,245.7328 118.2891,246.4547 L118.2891,247.2203 Q118.2891,248.0844 118.9125,248.6641 Q119.5359,249.2328 120.6516,249.2328 Q121.3078,249.2328 121.7672,249.0578 Q122.0406,248.9484 122.3359,248.6422 Q122.5219,248.4562 122.6203,248.4016 Q122.7297,248.3469 122.8719,248.3469 Q123.1016,248.3469 123.2766,248.5328 Q123.4625,248.7078 123.4625,248.9484 Q123.4625,249.1891 123.2219,249.4734 Q122.8719,249.8781 122.3141,250.1078 Q121.5594,250.425 120.6516,250.425 Q119.5906,250.425 118.7484,249.9875 Q118.0594,249.6375 117.5781,248.8937 Q117.0969,248.1391 117.0969,247.2422 L117.0969,246.4328 Q117.0969,245.5031 117.5234,244.7047 Q117.9609,243.8953 118.7266,243.4687 Q119.4922,243.0312 120.3562,243.0312 Q120.8703,243.0312 121.3187,243.1516 Q121.7781,243.2609 122.1609,243.5125 Z " fill="#000000"/><text fill="#000000" font-family="sans-serif" font-size="9.8" lengthAdjust="spacing" textLength="55.3" x="134.575" y="250.4578">Repositories</text><line style="stroke:#181818;stroke-width:0.3499999999999999;" x1="82.95" x2="218.75" y1="257.6" y2="257.6"/><line style="stroke:#181818;stroke-width:0.3499999999999999;" x1="82.95" x2="218.75" y1="263.2" y2="263.2"/><text fill="#000000" font-family="sans-serif" font-size="9.8" lengthAdjust="spacing" textLength="65.8" x="86.45" y="276.5752">-Repositories()</text><text fill="#000000" font-family="sans-serif" font-size="9.8" lengthAdjust="spacing" textLength="124.6" x="86.45" y="289.61">+getInstance(): Repositories</text><text fill="#000000" font-family="sans-serif" font-size="9.8" lengthAdjust="spacing" textLength="128.8" x="86.45" y="302.6447">+getCollaboratorRepository()</text><text fill="#000000" font-family="sans-serif" font-size="9.8" lengthAdjust="spacing" textLength="91.7" x="86.45" y="315.6795">+getSkillRepository()</text></g><!--class CollaboratorRepository--><g id="elem_CollaboratorRepository"><rect codeLine="29" fill="#F1F1F1" height="46.6348" id="CollaboratorRepository" rx="1.75" ry="1.75" style="stroke:#181818;stroke-width:0.3499999999999999;" width="203.7" x="4.9" y="375.9"/><ellipse cx="52.675" cy="387.1" fill="#ADD1B2" rx="7.7" ry="7.7" style="stroke:#181818;stroke-width:0.6999999999999998;"/><path d="M54.6109,384.2125 Q54.7203,384.0594 54.8516,383.9828 Q54.9828,383.9062 55.1359,383.9062 Q55.3984,383.9062 55.5625,384.0922 Q55.7266,384.2672 55.7266,384.6937 L55.7266,385.7109 Q55.7266,386.1375 55.5625,386.3234 Q55.3984,386.5094 55.1359,386.5094 Q54.8953,386.5094 54.7531,386.3672 Q54.6109,386.2359 54.5344,385.875 Q54.5016,385.6234 54.3703,385.4922 Q54.1406,385.2297 53.7141,385.0766 Q53.2875,384.9234 52.85,384.9234 Q52.3141,384.9234 51.8656,385.1531 Q51.4281,385.3828 51.0781,385.9078 Q50.7391,386.4328 50.7391,387.1547 L50.7391,387.9203 Q50.7391,388.7844 51.3625,389.3641 Q51.9859,389.9328 53.1016,389.9328 Q53.7578,389.9328 54.2172,389.7578 Q54.4906,389.6484 54.7859,389.3422 Q54.9719,389.1562 55.0703,389.1016 Q55.1797,389.0469 55.3219,389.0469 Q55.5516,389.0469 55.7266,389.2328 Q55.9125,389.4078 55.9125,389.6484 Q55.9125,389.8891 55.6719,390.1734 Q55.3219,390.5781 54.7641,390.8078 Q54.0094,391.125 53.1016,391.125 Q52.0406,391.125 51.1984,390.6875 Q50.5094,390.3375 50.0281,389.5937 Q49.5469,388.8391 49.5469,387.9422 L49.5469,387.1328 Q49.5469,386.2031 49.9734,385.4047 Q50.4109,384.5953 51.1766,384.1687 Q51.9422,383.7312 52.8062,383.7312 Q53.3203,383.7312 53.7687,383.8516 Q54.2281,383.9609 54.6109,384.2125 Z " fill="#000000"/><text fill="#000000" font-family="sans-serif" font-size="9.8" lengthAdjust="spacing" textLength="102.2" x="67.025" y="391.1578">CollaboratorRepository</text><line style="stroke:#181818;stroke-width:0.3499999999999999;" x1="5.6" x2="207.9" y1="398.3" y2="398.3"/><line style="stroke:#181818;stroke-width:0.3499999999999999;" x1="5.6" x2="207.9" y1="403.9" y2="403.9"/><text fill="#000000" font-family="sans-serif" font-size="9.8" lengthAdjust="spacing" textLength="195.3" x="9.1" y="417.2752">+getCollaboratorByName(collaboratorName)</text></g><!--class SkillRepository--><g id="elem_SkillRepository"><rect codeLine="33" fill="#F1F1F1" height="46.6348" id="SkillRepository" rx="1.75" ry="1.75" style="stroke:#181818;stroke-width:0.3499999999999999;" width="130.2" x="233.45" y="375.9"/><ellipse cx="263.165" cy="387.1" fill="#ADD1B2" rx="7.7" ry="7.7" style="stroke:#181818;stroke-width:0.6999999999999998;"/><path d="M265.1009,384.2125 Q265.2103,384.0594 265.3416,383.9828 Q265.4728,383.9062 265.6259,383.9062 Q265.8884,383.9062 266.0525,384.0922 Q266.2166,384.2672 266.2166,384.6937 L266.2166,385.7109 Q266.2166,386.1375 266.0525,386.3234 Q265.8884,386.5094 265.6259,386.5094 Q265.3853,386.5094 265.2431,386.3672 Q265.1009,386.2359 265.0244,385.875 Q264.9916,385.6234 264.8603,385.4922 Q264.6306,385.2297 264.2041,385.0766 Q263.7775,384.9234 263.34,384.9234 Q262.8041,384.9234 262.3556,385.1531 Q261.9181,385.3828 261.5681,385.9078 Q261.2291,386.4328 261.2291,387.1547 L261.2291,387.9203 Q261.2291,388.7844 261.8525,389.3641 Q262.4759,389.9328 263.5916,389.9328 Q264.2478,389.9328 264.7072,389.7578 Q264.9806,389.6484 265.2759,389.3422 Q265.4619,389.1562 265.5603,389.1016 Q265.6697,389.0469 265.8119,389.0469 Q266.0416,389.0469 266.2166,389.2328 Q266.4025,389.4078 266.4025,389.6484 Q266.4025,389.8891 266.1619,390.1734 Q265.8119,390.5781 265.2541,390.8078 Q264.4994,391.125 263.5916,391.125 Q262.5306,391.125 261.6884,390.6875 Q260.9994,390.3375 260.5181,389.5937 Q260.0369,388.8391 260.0369,387.9422 L260.0369,387.1328 Q260.0369,386.2031 260.4634,385.4047 Q260.9009,384.5953 261.6666,384.1687 Q262.4322,383.7312 263.2962,383.7312 Q263.8103,383.7312 264.2587,383.8516 Q264.7181,383.9609 265.1009,384.2125 Z " fill="#000000"/><text fill="#000000" font-family="sans-serif" font-size="9.8" lengthAdjust="spacing" textLength="65.1" x="277.235" y="391.1578">SkillRepository</text><line style="stroke:#181818;stroke-width:0.3499999999999999;" x1="234.15" x2="362.95" y1="398.3" y2="398.3"/><line style="stroke:#181818;stroke-width:0.3499999999999999;" x1="234.15" x2="362.95" y1="403.9" y2="403.9"/><text fill="#000000" font-family="sans-serif" font-size="9.8" lengthAdjust="spacing" textLength="121.8" x="237.65" y="417.2752">+getSkillByName(skillName)</text></g><!--class Collaborator--><g id="elem_Collaborator"><rect codeLine="37" fill="#F1F1F1" height="59.6695" id="Collaborator" rx="1.75" ry="1.75" style="stroke:#181818;stroke-width:0.3499999999999999;" width="104.3" x="149.8" y="465.5"/><ellipse cx="172.585" cy="476.7" fill="#ADD1B2" rx="7.7" ry="7.7" style="stroke:#181818;stroke-width:0.6999999999999998;"/><path d="M174.5209,473.8125 Q174.6303,473.6594 174.7616,473.5828 Q174.8928,473.5062 175.0459,473.5062 Q175.3084,473.5062 175.4725,473.6922 Q175.6366,473.8672 175.6366,474.2937 L175.6366,475.3109 Q175.6366,475.7375 175.4725,475.9234 Q175.3084,476.1094 175.0459,476.1094 Q174.8053,476.1094 174.6631,475.9672 Q174.5209,475.8359 174.4444,475.475 Q174.4116,475.2234 174.2803,475.0922 Q174.0506,474.8297 173.6241,474.6766 Q173.1975,474.5234 172.76,474.5234 Q172.2241,474.5234 171.7756,474.7531 Q171.3381,474.9828 170.9881,475.5078 Q170.6491,476.0328 170.6491,476.7547 L170.6491,477.5203 Q170.6491,478.3844 171.2725,478.9641 Q171.8959,479.5328 173.0116,479.5328 Q173.6678,479.5328 174.1272,479.3578 Q174.4006,479.2484 174.6959,478.9422 Q174.8819,478.7562 174.9803,478.7016 Q175.0897,478.6469 175.2319,478.6469 Q175.4616,478.6469 175.6366,478.8328 Q175.8225,479.0078 175.8225,479.2484 Q175.8225,479.4891 175.5819,479.7734 Q175.2319,480.1781 174.6741,480.4078 Q173.9194,480.725 173.0116,480.725 Q171.9506,480.725 171.1084,480.2875 Q170.4194,479.9375 169.9381,479.1937 Q169.4569,478.4391 169.4569,477.5422 L169.4569,476.7328 Q169.4569,475.8031 169.8834,475.0047 Q170.3209,474.1953 171.0866,473.7687 Q171.8522,473.3312 172.7162,473.3312 Q173.2303,473.3312 173.6787,473.4516 Q174.1381,473.5609 174.5209,473.8125 Z " fill="#000000"/><text fill="#000000" font-family="sans-serif" font-size="9.8" lengthAdjust="spacing" textLength="54.6" x="185.115" y="480.7578">Collaborator</text><line style="stroke:#181818;stroke-width:0.3499999999999999;" x1="150.5" x2="253.4" y1="487.9" y2="487.9"/><text fill="#000000" font-family="sans-serif" font-size="9.8" lengthAdjust="spacing" textLength="95.9" x="154" y="501.2752">-List&lt;Skill&gt; skillAssign</text><line style="stroke:#181818;stroke-width:0.3499999999999999;" x1="150.5" x2="253.4" y1="506.5348" y2="506.5348"/><text fill="#000000" font-family="sans-serif" font-size="9.8" lengthAdjust="spacing" textLength="74.9" x="154" y="519.91">+assignSkill(skill)</text></g><!--link AssignSkillUI to AssignSkillController--><g id="link_AssignSkillUI_AssignSkillController"><path codeLine="44" d="M150.85,38.717 C150.85,50.05 150.85,61.586 150.85,76.797 " fill="none" id="AssignSkillUI-to-AssignSkillController" style="stroke:#181818;stroke-width:0.6999999999999998;stroke-dasharray:7.0,7.0;"/><polygon fill="#181818" points="150.85,80.997,153.65,74.697,150.85,77.497,148.05,74.697,150.85,80.997" style="stroke:#181818;stroke-width:0.6999999999999998;"/></g><!--link AssignSkillController to Repositories--><g id="link_AssignSkillController_Repositories"><path codeLine="45" d="M150.85,180.054 C150.85,197.869 150.85,213.654 150.85,230.839 " fill="none" id="AssignSkillController-to-Repositories" style="stroke:#181818;stroke-width:0.6999999999999998;stroke-dasharray:7.0,7.0;"/><polygon fill="#181818" points="150.85,235.039,153.65,228.739,150.85,231.539,148.05,228.739,150.85,235.039" style="stroke:#181818;stroke-width:0.6999999999999998;"/><text fill="#000000" font-family="sans-serif" font-size="9.1" lengthAdjust="spacing" textLength="46.9" x="151.55" y="211.4198">repositories</text></g><!--link AssignSkillController to CollaboratorRepository--><g id="link_AssignSkillController_CollaboratorRepository"><path codeLine="46" d="M112.63,180.18 C91.567,207.144 69.65,235.2 69.65,235.2 C69.65,235.2 69.65,320.6 69.65,320.6 C69.65,320.6 83.1623,349.035 94.1173,372.072 " fill="none" id="AssignSkillController-to-CollaboratorRepository" style="stroke:#181818;stroke-width:0.6999999999999998;stroke-dasharray:7.0,7.0;"/><polygon fill="#181818" points="95.921,375.865,95.7441,368.9731,94.4179,372.7042,90.6868,371.378,95.921,375.865" style="stroke:#181818;stroke-width:0.6999999999999998;"/></g><!--link AssignSkillController to SkillRepository--><g id="link_AssignSkillController_SkillRepository"><path codeLine="47" d="M214.9,180.026 C250.369,207.039 287.35,235.2 287.35,235.2 C287.35,235.2 293.5939,326.3358 296.6809,371.3878 " fill="none" id="AssignSkillController-to-SkillRepository" style="stroke:#181818;stroke-width:0.6999999999999998;stroke-dasharray:7.0,7.0;"/><polygon fill="#181818" points="296.968,375.578,299.3308,369.1013,296.7287,372.0862,293.7439,369.4841,296.968,375.578" style="stroke:#181818;stroke-width:0.6999999999999998;"/><text fill="#000000" font-family="sans-serif" font-size="9.1" lengthAdjust="spacing" textLength="60.9" x="293.65" y="281.7698">SkillRepository</text></g><!--link Repositories to Repositories--><g id="link_Repositories_Repositories"><path codeLine="48" d="M219.464,265.237 C233.709,266.567 243.95,270.788 243.95,277.9 C243.95,285.012 237.8908,288.8426 223.6458,290.1726 " fill="none" id="Repositories-to-Repositories" style="stroke:#181818;stroke-width:0.6999999999999998;"/><polygon fill="#181818" points="219.464,290.563,225.997,292.7652,222.9488,290.2376,225.4764,287.1895,219.464,290.563" style="stroke:#181818;stroke-width:0.6999999999999998;"/><text fill="#000000" font-family="sans-serif" font-size="9.1" lengthAdjust="spacing" textLength="34.3" x="248.15" y="281.7698">instance</text></g><!--link Repositories to CollaboratorRepository--><g id="link_Repositories_CollaboratorRepository"><path codeLine="49" d="M135.303,320.922 C128.506,339.423 122.2543,356.4386 116.5633,371.9296 " fill="none" id="Repositories-to-CollaboratorRepository" style="stroke:#181818;stroke-width:0.6999999999999998;"/><polygon fill="#181818" points="115.115,375.872,119.9157,370.924,116.3219,372.5867,114.6592,368.9929,115.115,375.872" style="stroke:#181818;stroke-width:0.6999999999999998;"/><text fill="#000000" font-family="sans-serif" font-size="9.1" lengthAdjust="spacing" textLength="91.7" x="128.45" y="352.1198">CollaboratorRepository</text></g><!--link Repositories to SkillRepository--><g id="link_Repositories_SkillRepository"><path codeLine="50" d="M202.713,320.754 C225.491,339.269 248.0752,357.6276 267.1852,373.1536 " fill="none" id="Repositories-to-SkillRepository" style="stroke:#181818;stroke-width:0.6999999999999998;"/><polygon fill="#181818" points="270.445,375.802,267.321,369.6562,267.7285,373.595,263.7898,374.0026,270.445,375.802" style="stroke:#181818;stroke-width:0.6999999999999998;"/></g><!--link CollaboratorRepository to Collaborator--><g id="link_CollaboratorRepository_Collaborator"><path codeLine="51" d="M129.794,422.926 C142.674,435.708 155.8706,448.8068 169.6396,462.4778 " fill="none" id="CollaboratorRepository-to-Collaborator" style="stroke:#181818;stroke-width:0.6999999999999998;"/><polygon fill="#181818" points="172.62,465.437,170.1222,459.0112,170.1363,462.971,166.1765,462.9851,172.62,465.437" style="stroke:#181818;stroke-width:0.6999999999999998;"/></g><!--link SkillRepository to Collaborator--><g id="link_SkillRepository_Collaborator"><path codeLine="52" d="M275.163,422.926 C262.101,435.708 248.6887,448.8294 234.7097,462.5004 " fill="none" id="SkillRepository-to-Collaborator" style="stroke:#181818;stroke-width:0.6999999999999998;"/><polygon fill="#181818" points="231.707,465.437,238.1688,463.034,234.2093,462.9898,234.2534,459.0303,231.707,465.437" style="stroke:#181818;stroke-width:0.6999999999999998;"/></g><!--SRC=[VLF1ReCm3BtdAtmhLKUrCvegTJrLcdOOsWUarAKH8K69gubL-_T1O4rAmxWGxFUUdnspi9LG3JUyXbehNPoDhX78N93vJCEBYfUOKoiH31R4LIb3W3tpe_uIgeGJbpRCIA6GsWQXqRBjFzWYajI6D0jOXUJMRecCE5m8zuLMkVX6U6Pi8V54G1gCACy4Hz7R4LenvZYmjLQKAg-4b9_xA_k9n7TQaT5Iehaow9vLD9SKtOiVjE6apGSssehkq3w1xN4-i7GQQOda15xRTrvZua3zoQTtWTw82ajuyEfFwqrOIdmi5B1ZxjRVpP10wzfAmyYWqelibUrkhy1acTrnMAI8RzBpy_lkGmjnAboZ3SnEu2OtgHJep0mwQWH6NjeFxCKnDyCL3hS-Y7A_0OEYKsFiRfjWlTx4zuX5emuVpZZh_frWulEa-2J_8KncbKq3BBG1QJhr9SQjUCJ5hMHp5X_uKoCpIp8jnQQt_m3u1G00]--></g></svg>