<?xml version="1.0" encoding="us-ascii" standalone="no"?><svg xmlns="http://www.w3.org/2000/svg" xmlns:xlink="http://www.w3.org/1999/xlink" contentStyleType="text/css" height="601.2px" preserveAspectRatio="none" style="width:1062px;height:601px;background:#FFFFFF;" version="1.1" viewBox="0 0 1062 601" width="1062.6px" zoomAndPan="magnify"><defs/><g><rect fill="#FFFFFF" height="462.1711" style="stroke:#181818;stroke-width:0.6;" width="6" x="36.6" y="67.3453"/><rect fill="#FFFFFF" height="85.275" style="stroke:#181818;stroke-width:0.6;" width="6" x="241.8" y="81.3199"/><rect fill="#FFFFFF" height="85.275" style="stroke:#181818;stroke-width:0.6;" width="6" x="241.8" y="185.3695"/><rect fill="#FFFFFF" height="18.7746" style="stroke:#181818;stroke-width:0.6;" width="6" x="241.8" y="289.4191"/><rect fill="#FFFFFF" height="202.548" style="stroke:#181818;stroke-width:0.6;" width="6" x="241.8" y="326.9684"/><rect fill="#FFFFFF" height="47.7258" style="stroke:#181818;stroke-width:0.6;" width="6" x="460.2" y="100.0945"/><rect fill="#FFFFFF" height="47.7258" style="stroke:#181818;stroke-width:0.6;" width="6" x="460.2" y="204.1441"/><rect fill="#FFFFFF" height="164.9988" style="stroke:#181818;stroke-width:0.6;" width="6" x="460.2" y="345.743"/><rect fill="#FFFFFF" height="54.3258" style="stroke:#181818;stroke-width:0.6;" width="6" x="463.2" y="369.3176"/><rect fill="#FFFFFF" height="45.3492" style="stroke:#181818;stroke-width:0.6;" width="6" x="950.1" y="446.618"/><line style="stroke:#181818;stroke-width:0.3;stroke-dasharray:5.0,5.0;" x1="39.6" x2="39.6" y1="61.3453" y2="540.3164"/><line style="stroke:#181818;stroke-width:0.3;stroke-dasharray:5.0,5.0;" x1="244.5" x2="244.5" y1="61.3453" y2="540.3164"/><line style="stroke:#181818;stroke-width:0.3;stroke-dasharray:5.0,5.0;" x1="463.2" x2="463.2" y1="61.3453" y2="540.3164"/><line style="stroke:#181818;stroke-width:0.3;stroke-dasharray:5.0,5.0;" x1="638.1" x2="638.1" y1="61.3453" y2="540.3164"/><line style="stroke:#181818;stroke-width:0.3;stroke-dasharray:5.0,5.0;" x1="702.3" x2="702.3" y1="61.3453" y2="540.3164"/><line style="stroke:#181818;stroke-width:0.3;stroke-dasharray:5.0,5.0;" x1="772.5" x2="772.5" y1="61.3453" y2="540.3164"/><line style="stroke:#181818;stroke-width:0.3;stroke-dasharray:5.0,5.0;" x1="865.5" x2="865.5" y1="61.3453" y2="540.3164"/><line style="stroke:#181818;stroke-width:0.3;stroke-dasharray:5.0,5.0;" x1="953.1" x2="953.1" y1="61.3453" y2="540.3164"/><text fill="#000000" font-family="sans-serif" font-size="8.4" lengthAdjust="spacing" textLength="69.6" x="3" y="48.0645">Human Resources</text><text fill="#000000" font-family="sans-serif" font-size="8.4" lengthAdjust="spacing" textLength="33.6" x="22.2" y="59.2371">Manager</text><ellipse cx="39.6" cy="8.1" fill="#E3E3E3" rx="4.8" ry="4.8" style="stroke:#181818;stroke-width:0.3;"/><path d="M39.6,12.9 L39.6,29.1 M31.8,17.7 L47.4,17.7 M39.6,29.1 L31.8,38.1 M39.6,29.1 L47.4,38.1 " fill="none" style="stroke:#181818;stroke-width:0.3;"/><text fill="#000000" font-family="sans-serif" font-size="8.4" lengthAdjust="spacing" textLength="69.6" x="3" y="548.7809">Human Resources</text><text fill="#000000" font-family="sans-serif" font-size="8.4" lengthAdjust="spacing" textLength="33.6" x="22.2" y="559.9535">Manager</text><ellipse cx="39.6" cy="567.1617" fill="#E3E3E3" rx="4.8" ry="4.8" style="stroke:#181818;stroke-width:0.3;"/><path d="M39.6,571.9617 L39.6,588.1617 M31.8,576.7617 L47.4,576.7617 M39.6,588.1617 L31.8,597.1617 M39.6,588.1617 L47.4,597.1617 " fill="none" style="stroke:#181818;stroke-width:0.3;"/><rect fill="#E3E3E3" height="19.5727" rx="1.5" ry="1.5" style="stroke:#181818;stroke-width:0.3;" width="58.2" x="215.7" y="41.1727"/><text fill="#000000" font-family="sans-serif" font-size="8.4" lengthAdjust="spacing" textLength="49.8" x="219.9" y="54.4371">:AssignSkillUI</text><rect fill="#E3E3E3" height="19.5727" rx="1.5" ry="1.5" style="stroke:#181818;stroke-width:0.3;" width="58.2" x="215.7" y="539.7164"/><text fill="#000000" font-family="sans-serif" font-size="8.4" lengthAdjust="spacing" textLength="49.8" x="219.9" y="552.9809">:AssignSkillUI</text><rect fill="#E3E3E3" height="19.5727" rx="1.5" ry="1.5" style="stroke:#181818;stroke-width:0.3;" width="90" x="418.2" y="41.1727"/><text fill="#000000" font-family="sans-serif" font-size="8.4" lengthAdjust="spacing" textLength="81.6" x="422.4" y="54.4371">:AssignSkillControlller</text><rect fill="#E3E3E3" height="19.5727" rx="1.5" ry="1.5" style="stroke:#181818;stroke-width:0.3;" width="90" x="418.2" y="539.7164"/><text fill="#000000" font-family="sans-serif" font-size="8.4" lengthAdjust="spacing" textLength="81.6" x="422.4" y="552.9809">:AssignSkillControlller</text><rect fill="#E3E3E3" height="19.5727" rx="1.5" ry="1.5" style="stroke:#181818;stroke-width:0.3;" width="58.2" x="609.3" y="41.1727"/><text fill="#000000" font-family="sans-serif" font-size="8.4" lengthAdjust="spacing" textLength="49.8" x="613.5" y="54.4371">:Repositories</text><rect fill="#E3E3E3" height="19.5727" rx="1.5" ry="1.5" style="stroke:#181818;stroke-width:0.3;" width="58.2" x="609.3" y="539.7164"/><text fill="#000000" font-family="sans-serif" font-size="8.4" lengthAdjust="spacing" textLength="49.8" x="613.5" y="552.9809">:Repositories</text><rect fill="#E3E3E3" height="30.7453" rx="1.5" ry="1.5" style="stroke:#181818;stroke-width:0.3;" width="58.2" x="673.5" y="30"/><text fill="#000000" font-family="sans-serif" font-size="8.4" lengthAdjust="spacing" textLength="44.4" x="680.4" y="43.2645">repositories</text><text fill="#000000" font-family="sans-serif" font-size="8.4" lengthAdjust="spacing" textLength="49.8" x="677.7" y="54.4371">:Repositories</text><rect fill="#E3E3E3" height="30.7453" rx="1.5" ry="1.5" style="stroke:#181818;stroke-width:0.3;" width="58.2" x="673.5" y="539.7164"/><text fill="#000000" font-family="sans-serif" font-size="8.4" lengthAdjust="spacing" textLength="44.4" x="680.4" y="552.9809">repositories</text><text fill="#000000" font-family="sans-serif" font-size="8.4" lengthAdjust="spacing" textLength="49.8" x="677.7" y="564.1535">:Repositories</text><rect fill="#E3E3E3" height="30.7453" rx="1.5" ry="1.5" style="stroke:#181818;stroke-width:0.3;" width="69.6" x="737.7" y="30"/><text fill="#000000" font-family="sans-serif" font-size="8.4" lengthAdjust="spacing" textLength="61.2" x="741.9" y="43.2645">skillsRepository:</text><text fill="#000000" font-family="sans-serif" font-size="8.4" lengthAdjust="spacing" textLength="60" x="742.5" y="54.4371">SkillsRepository</text><rect fill="#E3E3E3" height="30.7453" rx="1.5" ry="1.5" style="stroke:#181818;stroke-width:0.3;" width="69.6" x="737.7" y="539.7164"/><text fill="#000000" font-family="sans-serif" font-size="8.4" lengthAdjust="spacing" textLength="61.2" x="741.9" y="552.9809">skillsRepository:</text><text fill="#000000" font-family="sans-serif" font-size="8.4" lengthAdjust="spacing" textLength="60" x="742.5" y="564.1535">SkillsRepository</text><rect fill="#E3E3E3" height="30.7453" rx="1.5" ry="1.5" style="stroke:#181818;stroke-width:0.3;" width="105" x="813.3" y="30"/><text fill="#000000" font-family="sans-serif" font-size="8.4" lengthAdjust="spacing" textLength="92.4" x="819.6" y="43.2645">collaboratorsRepository:</text><text fill="#000000" font-family="sans-serif" font-size="8.4" lengthAdjust="spacing" textLength="96.6" x="817.5" y="54.4371">&#171;CollaboratorsRepository</text><rect fill="#E3E3E3" height="30.7453" rx="1.5" ry="1.5" style="stroke:#181818;stroke-width:0.3;" width="105" x="813.3" y="539.7164"/><text fill="#000000" font-family="sans-serif" font-size="8.4" lengthAdjust="spacing" textLength="92.4" x="819.6" y="552.9809">collaboratorsRepository:</text><text fill="#000000" font-family="sans-serif" font-size="8.4" lengthAdjust="spacing" textLength="96.6" x="817.5" y="564.1535">&#171;CollaboratorsRepository</text><rect fill="#E3E3E3" height="30.7453" rx="1.5" ry="1.5" style="stroke:#181818;stroke-width:0.3;" width="57.6" x="924.3" y="30"/><text fill="#000000" font-family="sans-serif" font-size="8.4" lengthAdjust="spacing" textLength="45" x="930.6" y="43.2645">collaborator</text><text fill="#000000" font-family="sans-serif" font-size="8.4" lengthAdjust="spacing" textLength="49.2" x="928.5" y="54.4371">:Collaborator</text><rect fill="#E3E3E3" height="30.7453" rx="1.5" ry="1.5" style="stroke:#181818;stroke-width:0.3;" width="57.6" x="924.3" y="539.7164"/><text fill="#000000" font-family="sans-serif" font-size="8.4" lengthAdjust="spacing" textLength="45" x="930.6" y="552.9809">collaborator</text><text fill="#000000" font-family="sans-serif" font-size="8.4" lengthAdjust="spacing" textLength="49.2" x="928.5" y="564.1535">:Collaborator</text><rect fill="#FFFFFF" height="462.1711" style="stroke:#181818;stroke-width:0.6;" width="6" x="36.6" y="67.3453"/><rect fill="#FFFFFF" height="85.275" style="stroke:#181818;stroke-width:0.6;" width="6" x="241.8" y="81.3199"/><rect fill="#FFFFFF" height="85.275" style="stroke:#181818;stroke-width:0.6;" width="6" x="241.8" y="185.3695"/><rect fill="#FFFFFF" height="18.7746" style="stroke:#181818;stroke-width:0.6;" width="6" x="241.8" y="289.4191"/><rect fill="#FFFFFF" height="202.548" style="stroke:#181818;stroke-width:0.6;" width="6" x="241.8" y="326.9684"/><rect fill="#FFFFFF" height="47.7258" style="stroke:#181818;stroke-width:0.6;" width="6" x="460.2" y="100.0945"/><rect fill="#FFFFFF" height="47.7258" style="stroke:#181818;stroke-width:0.6;" width="6" x="460.2" y="204.1441"/><rect fill="#FFFFFF" height="164.9988" style="stroke:#181818;stroke-width:0.6;" width="6" x="460.2" y="345.743"/><rect fill="#FFFFFF" height="54.3258" style="stroke:#181818;stroke-width:0.6;" width="6" x="463.2" y="369.3176"/><rect fill="#FFFFFF" height="45.3492" style="stroke:#181818;stroke-width:0.6;" width="6" x="950.1" y="446.618"/><polygon fill="#181818" points="234.6,78.9199,240.6,81.3199,234.6,83.7199,237,81.3199" style="stroke:#181818;stroke-width:0.6;"/><line style="stroke:#181818;stroke-width:0.6;" x1="42.6" x2="238.2" y1="81.3199" y2="81.3199"/><text fill="#000000" font-family="sans-serif" font-size="7.8" font-weight="bold" lengthAdjust="spacing" textLength="4.2" x="46.8" y="78.1623">1</text><text fill="#000000" font-family="sans-serif" font-size="7.8" lengthAdjust="spacing" textLength="129.6" x="53.4" y="78.1623">asks to assign skills to a collaborator</text><polygon fill="#181818" points="453,97.6945,459,100.0945,453,102.4945,455.4,100.0945" style="stroke:#181818;stroke-width:0.6;"/><line style="stroke:#181818;stroke-width:0.6;" x1="247.8" x2="456.6" y1="100.0945" y2="100.0945"/><text fill="#000000" font-family="sans-serif" font-size="7.8" font-weight="bold" lengthAdjust="spacing" textLength="4.2" x="252" y="96.9369">2</text><text fill="#000000" font-family="sans-serif" font-size="7.8" lengthAdjust="spacing" textLength="73.8" x="258.6" y="96.9369">getCollaboratorsList()</text><rect fill="none" height="25.9512" style="stroke:#000000;stroke-width:0.8999999999999999;" width="93.6" x="416.4" y="104.8945"/><path d="M416.4,104.8945 L453.6,104.8945 L453.6,110.2945 L447.6,116.2945 L416.4,116.2945 L416.4,104.8945 " fill="#EEEEEE" style="stroke:#000000;stroke-width:1.2;"/><text fill="#000000" font-family="sans-serif" font-size="7.8" font-weight="bold" lengthAdjust="spacing" textLength="10.2" x="424.2" y="114.5115">ref</text><text fill="#000000" font-family="sans-serif" font-size="7.2" lengthAdjust="spacing" textLength="67.8" x="429.3" y="126.4641">Get Collaborator List</text><polygon fill="#181818" points="254.4,145.4203,248.4,147.8203,254.4,150.2203,252,147.8203" style="stroke:#181818;stroke-width:0.6;"/><line style="stroke:#181818;stroke-width:0.6;stroke-dasharray:2.0,2.0;" x1="250.8" x2="462.6" y1="147.8203" y2="147.8203"/><text fill="#000000" font-family="sans-serif" font-size="7.8" font-weight="bold" lengthAdjust="spacing" textLength="4.2" x="258" y="144.6627">3</text><text fill="#000000" font-family="sans-serif" font-size="7.8" lengthAdjust="spacing" textLength="58.2" x="264.6" y="144.6627">CollaboratorsList</text><polygon fill="#181818" points="49.2,164.1949,43.2,166.5949,49.2,168.9949,46.8,166.5949" style="stroke:#181818;stroke-width:0.6;"/><line style="stroke:#181818;stroke-width:0.6;stroke-dasharray:2.0,2.0;" x1="45.6" x2="244.2" y1="166.5949" y2="166.5949"/><text fill="#000000" font-family="sans-serif" font-size="7.8" font-weight="bold" lengthAdjust="spacing" textLength="4.2" x="52.8" y="163.4373">4</text><text fill="#000000" font-family="sans-serif" font-size="7.8" lengthAdjust="spacing" textLength="178.2" x="59.4" y="163.4373">displays list of collaborators and asks to select one</text><polygon fill="#181818" points="234.6,182.9695,240.6,185.3695,234.6,187.7695,237,185.3695" style="stroke:#181818;stroke-width:0.6;"/><line style="stroke:#181818;stroke-width:0.6;" x1="42.6" x2="238.2" y1="185.3695" y2="185.3695"/><text fill="#000000" font-family="sans-serif" font-size="7.8" font-weight="bold" lengthAdjust="spacing" textLength="4.2" x="46.8" y="182.2119">5</text><text fill="#000000" font-family="sans-serif" font-size="7.8" lengthAdjust="spacing" textLength="81" x="53.4" y="182.2119">selects the collaborator</text><polygon fill="#181818" points="453,201.7441,459,204.1441,453,206.5441,455.4,204.1441" style="stroke:#181818;stroke-width:0.6;"/><line style="stroke:#181818;stroke-width:0.6;" x1="247.8" x2="456.6" y1="204.1441" y2="204.1441"/><text fill="#000000" font-family="sans-serif" font-size="7.8" font-weight="bold" lengthAdjust="spacing" textLength="4.2" x="252" y="200.9865">6</text><text fill="#000000" font-family="sans-serif" font-size="7.8" lengthAdjust="spacing" textLength="47.4" x="258.6" y="200.9865">getSkillsList()</text><rect fill="none" height="25.9512" style="stroke:#000000;stroke-width:0.8999999999999999;" width="93.6" x="416.4" y="208.9441"/><path d="M416.4,208.9441 L453.6,208.9441 L453.6,214.3441 L447.6,220.3441 L416.4,220.3441 L416.4,208.9441 " fill="#EEEEEE" style="stroke:#000000;stroke-width:1.2;"/><text fill="#000000" font-family="sans-serif" font-size="7.8" font-weight="bold" lengthAdjust="spacing" textLength="10.2" x="424.2" y="218.5611">ref</text><text fill="#000000" font-family="sans-serif" font-size="7.2" lengthAdjust="spacing" textLength="45" x="440.7" y="230.5137">Get Skills List</text><polygon fill="#181818" points="254.4,249.4699,248.4,251.8699,254.4,254.2699,252,251.8699" style="stroke:#181818;stroke-width:0.6;"/><line style="stroke:#181818;stroke-width:0.6;stroke-dasharray:2.0,2.0;" x1="250.8" x2="462.6" y1="251.8699" y2="251.8699"/><text fill="#000000" font-family="sans-serif" font-size="7.8" font-weight="bold" lengthAdjust="spacing" textLength="4.2" x="258" y="248.7123">7</text><text fill="#000000" font-family="sans-serif" font-size="7.8" lengthAdjust="spacing" textLength="31.8" x="264.6" y="248.7123">SkillsList</text><polygon fill="#181818" points="49.2,268.2445,43.2,270.6445,49.2,273.0445,46.8,270.6445" style="stroke:#181818;stroke-width:0.6;"/><line style="stroke:#181818;stroke-width:0.6;stroke-dasharray:2.0,2.0;" x1="45.6" x2="244.2" y1="270.6445" y2="270.6445"/><text fill="#000000" font-family="sans-serif" font-size="7.8" font-weight="bold" lengthAdjust="spacing" textLength="4.2" x="52.8" y="267.4869">8</text><text fill="#000000" font-family="sans-serif" font-size="7.8" lengthAdjust="spacing" textLength="70.2" x="59.4" y="267.4869">displays list of skills</text><polygon fill="#181818" points="234.6,287.0191,240.6,289.4191,234.6,291.8191,237,289.4191" style="stroke:#181818;stroke-width:0.6;"/><line style="stroke:#181818;stroke-width:0.6;" x1="42.6" x2="238.2" y1="289.4191" y2="289.4191"/><text fill="#000000" font-family="sans-serif" font-size="7.8" font-weight="bold" lengthAdjust="spacing" textLength="4.2" x="46.8" y="286.2615">9</text><text fill="#000000" font-family="sans-serif" font-size="7.8" lengthAdjust="spacing" textLength="150.6" x="53.4" y="286.2615">selects skills and assign to the collaborator</text><polygon fill="#181818" points="49.2,305.7938,43.2,308.1937,49.2,310.5938,46.8,308.1937" style="stroke:#181818;stroke-width:0.6;"/><line style="stroke:#181818;stroke-width:0.6;stroke-dasharray:2.0,2.0;" x1="45.6" x2="244.2" y1="308.1937" y2="308.1937"/><text fill="#000000" font-family="sans-serif" font-size="7.8" font-weight="bold" lengthAdjust="spacing" textLength="8.4" x="52.8" y="305.0361">10</text><text fill="#000000" font-family="sans-serif" font-size="7.8" lengthAdjust="spacing" textLength="141.6" x="63.6" y="305.0361">shows all data and requests confirmation</text><polygon fill="#181818" points="234.6,324.5684,240.6,326.9684,234.6,329.3684,237,326.9684" style="stroke:#181818;stroke-width:0.6;"/><line style="stroke:#181818;stroke-width:0.6;" x1="42.6" x2="238.2" y1="326.9684" y2="326.9684"/><text fill="#000000" font-family="sans-serif" font-size="7.8" font-weight="bold" lengthAdjust="spacing" textLength="8.4" x="46.8" y="323.8107">11</text><text fill="#000000" font-family="sans-serif" font-size="7.8" lengthAdjust="spacing" textLength="46.8" x="57.6" y="323.8107">confirms data</text><polygon fill="#181818" points="453,343.343,459,345.743,453,348.143,455.4,345.743" style="stroke:#181818;stroke-width:0.6;"/><line style="stroke:#181818;stroke-width:0.6;" x1="247.8" x2="456.6" y1="345.743" y2="345.743"/><text fill="#000000" font-family="sans-serif" font-size="7.8" font-weight="bold" lengthAdjust="spacing" textLength="8.4" x="252" y="342.5854">12</text><text fill="#000000" font-family="sans-serif" font-size="7.8" lengthAdjust="spacing" textLength="190.2" x="262.8" y="342.5854">assignSkillToCollaborator (collaborator, skillsToAssign)</text><line style="stroke:#181818;stroke-width:0.6;" x1="466.2" x2="494.4" y1="361.5176" y2="361.5176"/><line style="stroke:#181818;stroke-width:0.6;" x1="494.4" x2="494.4" y1="361.5176" y2="369.3176"/><line style="stroke:#181818;stroke-width:0.6;" x1="469.8" x2="494.4" y1="369.3176" y2="369.3176"/><polygon fill="#181818" points="475.8,366.9176,469.8,369.3176,475.8,371.7176,473.4,369.3176" style="stroke:#181818;stroke-width:0.6;"/><text fill="#000000" font-family="sans-serif" font-size="7.8" font-weight="bold" lengthAdjust="spacing" textLength="8.4" x="473.4" y="358.36">13</text><text fill="#000000" font-family="sans-serif" font-size="7.8" lengthAdjust="spacing" textLength="150" x="484.2" y="358.36">getCollaboratorByName (collaboratorName)</text><rect fill="none" height="25.9512" style="stroke:#000000;stroke-width:0.8999999999999999;" width="93.6" x="416.4" y="377.1176"/><path d="M416.4,377.1176 L453.6,377.1176 L453.6,382.5176 L447.6,388.5176 L416.4,388.5176 L416.4,377.1176 " fill="#EEEEEE" style="stroke:#000000;stroke-width:1.2;"/><text fill="#000000" font-family="sans-serif" font-size="7.8" font-weight="bold" lengthAdjust="spacing" textLength="10.2" x="424.2" y="386.7346">ref</text><text fill="#000000" font-family="sans-serif" font-size="7.2" lengthAdjust="spacing" textLength="76.8" x="424.8" y="398.6871">Get Collaborator Object</text><line style="stroke:#181818;stroke-width:0.6;stroke-dasharray:2.0,2.0;" x1="469.2" x2="494.4" y1="423.0434" y2="423.0434"/><line style="stroke:#181818;stroke-width:0.6;stroke-dasharray:2.0,2.0;" x1="494.4" x2="494.4" y1="423.0434" y2="430.8434"/><line style="stroke:#181818;stroke-width:0.6;stroke-dasharray:2.0,2.0;" x1="466.2" x2="494.4" y1="430.8434" y2="430.8434"/><polygon fill="#181818" points="472.2,428.4434,466.2,430.8434,472.2,433.2434,469.8,430.8434" style="stroke:#181818;stroke-width:0.6;"/><text fill="#000000" font-family="sans-serif" font-size="7.8" font-weight="bold" lengthAdjust="spacing" textLength="8.4" x="473.4" y="419.8857">14</text><text fill="#000000" font-family="sans-serif" font-size="7.8" lengthAdjust="spacing" textLength="40.2" x="484.2" y="419.8857">collaborator</text><polygon fill="#181818" points="942.9,444.218,948.9,446.618,942.9,449.018,945.3,446.618" style="stroke:#181818;stroke-width:0.6;"/><line style="stroke:#181818;stroke-width:0.6;" x1="466.2" x2="946.5" y1="446.618" y2="446.618"/><text fill="#000000" font-family="sans-serif" font-size="7.8" font-weight="bold" lengthAdjust="spacing" textLength="8.4" x="470.4" y="443.4604">15</text><text fill="#000000" font-family="sans-serif" font-size="7.8" lengthAdjust="spacing" textLength="190.2" x="481.2" y="443.4604">assignSkillToCollaborator (collaborator, skillsToAssign)</text><line style="stroke:#181818;stroke-width:0.6;" x1="956.1" x2="981.3" y1="465.3926" y2="465.3926"/><line style="stroke:#181818;stroke-width:0.6;" x1="981.3" x2="981.3" y1="465.3926" y2="473.1926"/><line style="stroke:#181818;stroke-width:0.6;" x1="956.7" x2="981.3" y1="473.1926" y2="473.1926"/><polygon fill="#181818" points="962.7,470.7926,956.7,473.1926,962.7,475.5926,960.3,473.1926" style="stroke:#181818;stroke-width:0.6;"/><text fill="#000000" font-family="sans-serif" font-size="7.8" font-weight="bold" lengthAdjust="spacing" textLength="8.4" x="960.3" y="462.235">16</text><text fill="#000000" font-family="sans-serif" font-size="7.8" lengthAdjust="spacing" textLength="87.6" x="971.1" y="462.235">assignSkillToCollaborator</text><polygon fill="#181818" points="472.8,489.5672,466.8,491.9672,472.8,494.3672,470.4,491.9672" style="stroke:#181818;stroke-width:0.6;"/><line style="stroke:#181818;stroke-width:0.6;stroke-dasharray:2.0,2.0;" x1="469.2" x2="952.5" y1="491.9672" y2="491.9672"/><text fill="#000000" font-family="sans-serif" font-size="7.8" font-weight="bold" lengthAdjust="spacing" textLength="8.4" x="476.4" y="488.8096">17</text><text fill="#000000" font-family="sans-serif" font-size="7.8" lengthAdjust="spacing" textLength="40.2" x="487.2" y="488.8096">collaborator</text><polygon fill="#181818" points="254.4,508.3418,248.4,510.7418,254.4,513.1418,252,510.7418" style="stroke:#181818;stroke-width:0.6;"/><line style="stroke:#181818;stroke-width:0.6;stroke-dasharray:2.0,2.0;" x1="250.8" x2="462.6" y1="510.7418" y2="510.7418"/><text fill="#000000" font-family="sans-serif" font-size="7.8" font-weight="bold" lengthAdjust="spacing" textLength="8.4" x="258" y="507.5842">18</text><text fill="#000000" font-family="sans-serif" font-size="7.8" lengthAdjust="spacing" textLength="40.2" x="268.8" y="507.5842">collaborator</text><polygon fill="#181818" points="46.2,527.1164,40.2,529.5164,46.2,531.9164,43.8,529.5164" style="stroke:#181818;stroke-width:0.6;"/><line style="stroke:#181818;stroke-width:0.6;stroke-dasharray:2.0,2.0;" x1="42.6" x2="244.2" y1="529.5164" y2="529.5164"/><text fill="#000000" font-family="sans-serif" font-size="7.8" font-weight="bold" lengthAdjust="spacing" textLength="8.4" x="49.8" y="526.3588">19</text><text fill="#000000" font-family="sans-serif" font-size="7.8" lengthAdjust="spacing" textLength="94.8" x="60.6" y="526.3588">displays operation success</text><!--SRC=[hLR1Zjem4BtxAqPxwI9rVu139HPLNIIsL05kN4moW8jZfxQpMxwfVz4lwyG942SXcsth2uepy_pclV44UnGguuQda6gbuuFHAO8pEJ9xUPFn-CZtk7GdYM0mTbpjPJt07dYYNuNQmuvBYupnt6cLfriqZ7quY0HXfxNRwf-CnquRk7lAKwuWGgjp4wFTA7ZcYiumTy0jF4NFZ92TY4N6bOExySHQiLVBev1oFVCnwzdjaAbMpcWfPOKtNKNpHdI4cRQ2k0YqFYRw_2qCCRM8ZUfCM8OPjZZRNW9Fuqr9fxRbCvkR8KfCnFbM6qwlGh3VlwRTxppgZRpRu5HK7QzKQZ6VJnuNqMIrY5XXbdZX3hqX3Af53_3mYGo0CQKSBJXDluNuK2hWDm8-r-GB9FbtsIGe0YnS8iWzkg3CkR3kVjG6yAPUjejbS0Vw1Ktv2Xhh2pge0qC174IXIWgC4DIpUZZNss8Mn2ROmwueac0AzSQG29j9Vh8W2GFqBdGFE34vIsjHqfK3hP1rd7EMiMvAcK791mnTw3IWANxPdVzJzHBnh_I-aXacTB_8PNkoTqXODNJfXsznScIOhYqwzg1V2KfAIBZZ7jFWZnojAowlsWcJSYUq6iAlYhSUYWsuMEEAlnTqfOEBS5ylvcDLyqgN0tN4MfxsD4FeuldenfL-F7tbz9K9ZYrsHfrG0qxhRy6R0s2n_KucTyPtjcQhHSlgMgtGNBrZeQLORGB_WsdzIWPJlfDDBQB92dfe3K6xJfjtAHTmPZSzMS_Um6swqJsZQzD3PsZynGIRn_HdfNE0r1wBZ-KV]--></g></svg>