<?xml version="1.0" encoding="us-ascii" standalone="no"?><svg xmlns="http://www.w3.org/2000/svg" xmlns:xlink="http://www.w3.org/1999/xlink" contentStyleType="text/css" height="399.5px" preserveAspectRatio="none" style="width:851px;height:399px;background:#FFFFFF;" version="1.1" viewBox="0 0 851 399" width="851.5px" zoomAndPan="magnify"><defs/><g><rect fill="#FFFFFF" height="283.7842" style="stroke:#181818;stroke-width:0.5;" width="5" x="37.75" y="56.1211"/><rect fill="#FFFFFF" height="276.6387" style="stroke:#181818;stroke-width:0.5;" width="5" x="205.25" y="67.7666"/><rect fill="#FFFFFF" height="235.8477" style="stroke:#181818;stroke-width:0.5;" width="5" x="328.25" y="88.4121"/><rect fill="#FFFFFF" height="15.6455" style="stroke:#181818;stroke-width:0.5;" width="5" x="422.25" y="105.2227"/><rect fill="#FFFFFF" height="15.6455" style="stroke:#181818;stroke-width:0.5;" width="5" x="422.25" y="136.5137"/><rect fill="#FFFFFF" height="15.6455" style="stroke:#181818;stroke-width:0.5;" width="5" x="422.25" y="199.0957"/><rect fill="#FFFFFF" height="15.6455" style="stroke:#181818;stroke-width:0.5;" width="5" x="487.25" y="167.8047"/><rect fill="#FFFFFF" height="15.6455" style="stroke:#181818;stroke-width:0.5;" width="5" x="561" y="230.3867"/><rect fill="#FFFFFF" height="15.6455" style="stroke:#181818;stroke-width:0.5;" width="5" x="665.25" y="261.6777"/><rect fill="#FFFFFF" height="15.6455" style="stroke:#181818;stroke-width:0.5;" width="5" x="791.25" y="292.9688"/><line style="stroke:#181818;stroke-width:0.25;stroke-dasharray:5.0,5.0;" x1="40" x2="40" y1="51.1211" y2="348.9053"/><line style="stroke:#181818;stroke-width:0.25;stroke-dasharray:5.0,5.0;" x1="207.5" x2="207.5" y1="51.1211" y2="348.9053"/><line style="stroke:#181818;stroke-width:0.25;stroke-dasharray:5.0,5.0;" x1="330.5" x2="330.5" y1="87.6719" y2="348.9053"/><line style="stroke:#181818;stroke-width:0.25;stroke-dasharray:5.0,5.0;" x1="424.5" x2="424.5" y1="51.1211" y2="348.9053"/><line style="stroke:#181818;stroke-width:0.25;stroke-dasharray:5.0,5.0;" x1="489.5" x2="489.5" y1="51.1211" y2="348.9053"/><line style="stroke:#181818;stroke-width:0.25;stroke-dasharray:5.0,5.0;" x1="563.5" x2="563.5" y1="51.1211" y2="348.9053"/><line style="stroke:#181818;stroke-width:0.25;stroke-dasharray:5.0,5.0;" x1="667.5" x2="667.5" y1="51.1211" y2="348.9053"/><line style="stroke:#181818;stroke-width:0.25;stroke-dasharray:5.0,5.0;" x1="793.5" x2="793.5" y1="51.1211" y2="348.9053"/><text fill="#000000" font-family="sans-serif" font-size="7" lengthAdjust="spacing" textLength="72.5" x="2.5" y="40.0537">Vehicle and Equipment</text><text fill="#000000" font-family="sans-serif" font-size="7" lengthAdjust="spacing" textLength="46" x="16.75" y="49.3643">Fleet Manager</text><ellipse cx="40.25" cy="6.75" fill="#E3E3E3" rx="4" ry="4" style="stroke:#181818;stroke-width:0.25;"/><path d="M40.25,10.75 L40.25,24.25 M33.75,14.75 L46.75,14.75 M40.25,24.25 L33.75,31.75 M40.25,24.25 L46.75,31.75 " fill="none" style="stroke:#181818;stroke-width:0.25;"/><text fill="#000000" font-family="sans-serif" font-size="7" lengthAdjust="spacing" textLength="72.5" x="2.5" y="355.959">Vehicle and Equipment</text><text fill="#000000" font-family="sans-serif" font-size="7" lengthAdjust="spacing" textLength="46" x="16.75" y="365.2695">Fleet Manager</text><ellipse cx="40.25" cy="371.2764" fill="#E3E3E3" rx="4" ry="4" style="stroke:#181818;stroke-width:0.25;"/><path d="M40.25,375.2764 L40.25,388.7764 M33.75,379.2764 L46.75,379.2764 M40.25,388.7764 L33.75,396.2764 M40.25,388.7764 L46.75,396.2764 " fill="none" style="stroke:#181818;stroke-width:0.25;"/><rect fill="#E3E3E3" height="16.3105" rx="1.25" ry="1.25" style="stroke:#181818;stroke-width:0.25;" width="106.5" x="154.5" y="34.3105"/><text fill="#000000" font-family="sans-serif" font-size="7" lengthAdjust="spacing" textLength="97.5" x="158" y="45.3643">:VehicleNeedingMaintenanceUI</text><rect fill="#E3E3E3" height="16.3105" rx="1.25" ry="1.25" style="stroke:#181818;stroke-width:0.25;" width="106.5" x="154.5" y="348.4053"/><text fill="#000000" font-family="sans-serif" font-size="7" lengthAdjust="spacing" textLength="97.5" x="158" y="359.459">:VehicleNeedingMaintenanceUI</text><rect fill="#E3E3E3" height="16.3105" rx="1.25" ry="1.25" style="stroke:#181818;stroke-width:0.25;" width="129.5" x="266" y="348.4053"/><text fill="#000000" font-family="sans-serif" font-size="7" lengthAdjust="spacing" textLength="122.5" x="269.5" y="359.459">:VehicleNeedingMaintenanceController</text><rect fill="#E3E3E3" height="16.3105" rx="1.25" ry="1.25" style="stroke:#181818;stroke-width:0.25;" width="48.5" x="400.5" y="34.3105"/><text fill="#000000" font-family="sans-serif" font-size="7" lengthAdjust="spacing" textLength="41.5" x="404" y="45.3643">:Repositories</text><rect fill="#E3E3E3" height="16.3105" rx="1.25" ry="1.25" style="stroke:#181818;stroke-width:0.25;" width="48.5" x="400.5" y="348.4053"/><text fill="#000000" font-family="sans-serif" font-size="7" lengthAdjust="spacing" textLength="41.5" x="404" y="359.459">:Repositories</text><rect fill="#E3E3E3" height="16.3105" rx="1.25" ry="1.25" style="stroke:#181818;stroke-width:0.25;" width="71.5" x="454" y="34.3105"/><text fill="#000000" font-family="sans-serif" font-size="7" lengthAdjust="spacing" textLength="64.5" x="457.5" y="45.3643">:CheckUpRepository</text><rect fill="#E3E3E3" height="16.3105" rx="1.25" ry="1.25" style="stroke:#181818;stroke-width:0.25;" width="71.5" x="454" y="348.4053"/><text fill="#000000" font-family="sans-serif" font-size="7" lengthAdjust="spacing" textLength="64.5" x="457.5" y="359.459">:CheckUpRepository</text><rect fill="#E3E3E3" height="16.3105" rx="1.25" ry="1.25" style="stroke:#181818;stroke-width:0.25;" width="66" x="530.5" y="34.3105"/><text fill="#000000" font-family="sans-serif" font-size="7" lengthAdjust="spacing" textLength="59" x="534" y="45.3643">:VehicleRepository</text><rect fill="#E3E3E3" height="16.3105" rx="1.25" ry="1.25" style="stroke:#181818;stroke-width:0.25;" width="66" x="530.5" y="348.4053"/><text fill="#000000" font-family="sans-serif" font-size="7" lengthAdjust="spacing" textLength="59" x="534" y="359.459">:VehicleRepository</text><rect fill="#E3E3E3" height="16.3105" rx="1.25" ry="1.25" style="stroke:#181818;stroke-width:0.25;" width="132.5" x="601.5" y="34.3105"/><text fill="#000000" font-family="sans-serif" font-size="7" lengthAdjust="spacing" textLength="125.5" x="605" y="45.3643">:VehicleNeedingMaintenanceRepository</text><rect fill="#E3E3E3" height="16.3105" rx="1.25" ry="1.25" style="stroke:#181818;stroke-width:0.25;" width="132.5" x="601.5" y="348.4053"/><text fill="#000000" font-family="sans-serif" font-size="7" lengthAdjust="spacing" textLength="125.5" x="605" y="359.459">:VehicleNeedingMaintenanceRepository</text><rect fill="#E3E3E3" height="16.3105" rx="1.25" ry="1.25" style="stroke:#181818;stroke-width:0.25;" width="109.5" x="739" y="34.3105"/><text fill="#000000" font-family="sans-serif" font-size="7" lengthAdjust="spacing" textLength="102.5" x="742.5" y="45.3643">:VehicleNeedingMaintenanceList</text><rect fill="#E3E3E3" height="16.3105" rx="1.25" ry="1.25" style="stroke:#181818;stroke-width:0.25;" width="109.5" x="739" y="348.4053"/><text fill="#000000" font-family="sans-serif" font-size="7" lengthAdjust="spacing" textLength="102.5" x="742.5" y="359.459">:VehicleNeedingMaintenanceList</text><rect fill="#FFFFFF" height="283.7842" style="stroke:#181818;stroke-width:0.5;" width="5" x="37.75" y="56.1211"/><rect fill="#FFFFFF" height="276.6387" style="stroke:#181818;stroke-width:0.5;" width="5" x="205.25" y="67.7666"/><rect fill="#FFFFFF" height="235.8477" style="stroke:#181818;stroke-width:0.5;" width="5" x="328.25" y="88.4121"/><rect fill="#FFFFFF" height="15.6455" style="stroke:#181818;stroke-width:0.5;" width="5" x="422.25" y="105.2227"/><rect fill="#FFFFFF" height="15.6455" style="stroke:#181818;stroke-width:0.5;" width="5" x="422.25" y="136.5137"/><rect fill="#FFFFFF" height="15.6455" style="stroke:#181818;stroke-width:0.5;" width="5" x="422.25" y="199.0957"/><rect fill="#FFFFFF" height="15.6455" style="stroke:#181818;stroke-width:0.5;" width="5" x="487.25" y="167.8047"/><rect fill="#FFFFFF" height="15.6455" style="stroke:#181818;stroke-width:0.5;" width="5" x="561" y="230.3867"/><rect fill="#FFFFFF" height="15.6455" style="stroke:#181818;stroke-width:0.5;" width="5" x="665.25" y="261.6777"/><rect fill="#FFFFFF" height="15.6455" style="stroke:#181818;stroke-width:0.5;" width="5" x="791.25" y="292.9688"/><polygon fill="#181818" points="199.25,65.7666,204.25,67.7666,199.25,69.7666,201.25,67.7666" style="stroke:#181818;stroke-width:0.5;"/><line style="stroke:#181818;stroke-width:0.5;" x1="42.75" x2="202.25" y1="67.7666" y2="67.7666"/><text fill="#000000" font-family="sans-serif" font-size="6.5" font-weight="bold" lengthAdjust="spacing" textLength="3.5" x="46.25" y="65.1353">1</text><text fill="#000000" font-family="sans-serif" font-size="6.5" lengthAdjust="spacing" textLength="106.5" x="51.75" y="65.1353">ask to list vehicles needing check-up</text><polygon fill="#181818" points="260,81.4121,265,83.4121,260,85.4121,262,83.4121" style="stroke:#181818;stroke-width:0.5;"/><line style="stroke:#181818;stroke-width:0.5;" x1="210.25" x2="263" y1="83.4121" y2="83.4121"/><text fill="#000000" font-family="sans-serif" font-size="6.5" font-weight="bold" lengthAdjust="spacing" textLength="3.5" x="213.75" y="80.7808">2</text><text fill="#000000" font-family="sans-serif" font-size="6.5" lengthAdjust="spacing" textLength="18" x="219.25" y="80.7808">create</text><rect fill="#E3E3E3" height="16.3105" rx="1.25" ry="1.25" style="stroke:#181818;stroke-width:0.25;" width="129.5" x="266" y="71.7666"/><text fill="#000000" font-family="sans-serif" font-size="7" lengthAdjust="spacing" textLength="122.5" x="269.5" y="82.8203">:VehicleNeedingMaintenanceController</text><polygon fill="#181818" points="416.25,103.2227,421.25,105.2227,416.25,107.2227,418.25,105.2227" style="stroke:#181818;stroke-width:0.5;"/><line style="stroke:#181818;stroke-width:0.5;" x1="333.25" x2="419.25" y1="105.2227" y2="105.2227"/><text fill="#000000" font-family="sans-serif" font-size="6.5" font-weight="bold" lengthAdjust="spacing" textLength="3.5" x="336.75" y="102.5913">3</text><text fill="#000000" font-family="sans-serif" font-size="6.5" lengthAdjust="spacing" textLength="37.5" x="342.25" y="102.5913">getInstance()</text><polygon fill="#181818" points="338.75,118.8682,333.75,120.8682,338.75,122.8682,336.75,120.8682" style="stroke:#181818;stroke-width:0.5;"/><line style="stroke:#181818;stroke-width:0.5;stroke-dasharray:2.0,2.0;" x1="335.75" x2="424.25" y1="120.8682" y2="120.8682"/><text fill="#000000" font-family="sans-serif" font-size="6.5" font-weight="bold" lengthAdjust="spacing" textLength="3.5" x="341.75" y="118.2368">4</text><text fill="#000000" font-family="sans-serif" font-size="6.5" lengthAdjust="spacing" textLength="33.5" x="347.25" y="118.2368">repositories</text><polygon fill="#181818" points="416.25,134.5137,421.25,136.5137,416.25,138.5137,418.25,136.5137" style="stroke:#181818;stroke-width:0.5;"/><line style="stroke:#181818;stroke-width:0.5;" x1="333.25" x2="419.25" y1="136.5137" y2="136.5137"/><text fill="#000000" font-family="sans-serif" font-size="6.5" font-weight="bold" lengthAdjust="spacing" textLength="3.5" x="336.75" y="133.8823">5</text><text fill="#000000" font-family="sans-serif" font-size="6.5" lengthAdjust="spacing" textLength="70.5" x="342.25" y="133.8823">getCheckUpRepository()</text><polygon fill="#181818" points="338.75,150.1592,333.75,152.1592,338.75,154.1592,336.75,152.1592" style="stroke:#181818;stroke-width:0.5;"/><line style="stroke:#181818;stroke-width:0.5;stroke-dasharray:2.0,2.0;" x1="335.75" x2="424.25" y1="152.1592" y2="152.1592"/><text fill="#000000" font-family="sans-serif" font-size="6.5" font-weight="bold" lengthAdjust="spacing" textLength="3.5" x="341.75" y="149.5278">6</text><text fill="#000000" font-family="sans-serif" font-size="6.5" lengthAdjust="spacing" textLength="57.5" x="347.25" y="149.5278">CheckUpRepository</text><polygon fill="#181818" points="481.25,165.8047,486.25,167.8047,481.25,169.8047,483.25,167.8047" style="stroke:#181818;stroke-width:0.5;"/><line style="stroke:#181818;stroke-width:0.5;" x1="333.25" x2="484.25" y1="167.8047" y2="167.8047"/><text fill="#000000" font-family="sans-serif" font-size="6.5" font-weight="bold" lengthAdjust="spacing" textLength="3.5" x="336.75" y="165.1733">7</text><text fill="#000000" font-family="sans-serif" font-size="6.5" lengthAdjust="spacing" textLength="53.5" x="342.25" y="165.1733">getCheckUpsList()</text><polygon fill="#181818" points="338.75,181.4502,333.75,183.4502,338.75,185.4502,336.75,183.4502" style="stroke:#181818;stroke-width:0.5;"/><line style="stroke:#181818;stroke-width:0.5;stroke-dasharray:2.0,2.0;" x1="335.75" x2="489.25" y1="183.4502" y2="183.4502"/><text fill="#000000" font-family="sans-serif" font-size="6.5" font-weight="bold" lengthAdjust="spacing" textLength="3.5" x="341.75" y="180.8188">8</text><text fill="#000000" font-family="sans-serif" font-size="6.5" lengthAdjust="spacing" textLength="37" x="347.25" y="180.8188">CheckUpList</text><polygon fill="#181818" points="416.25,197.0957,421.25,199.0957,416.25,201.0957,418.25,199.0957" style="stroke:#181818;stroke-width:0.5;"/><line style="stroke:#181818;stroke-width:0.5;" x1="333.25" x2="419.25" y1="199.0957" y2="199.0957"/><text fill="#000000" font-family="sans-serif" font-size="6.5" font-weight="bold" lengthAdjust="spacing" textLength="3.5" x="336.75" y="196.4644">9</text><text fill="#000000" font-family="sans-serif" font-size="6.5" lengthAdjust="spacing" textLength="65.5" x="342.25" y="196.4644">getVehicleRepository()</text><polygon fill="#181818" points="338.75,212.7412,333.75,214.7412,338.75,216.7412,336.75,214.7412" style="stroke:#181818;stroke-width:0.5;"/><line style="stroke:#181818;stroke-width:0.5;stroke-dasharray:2.0,2.0;" x1="335.75" x2="424.25" y1="214.7412" y2="214.7412"/><text fill="#000000" font-family="sans-serif" font-size="6.5" font-weight="bold" lengthAdjust="spacing" textLength="7" x="341.75" y="212.1099">10</text><text fill="#000000" font-family="sans-serif" font-size="6.5" lengthAdjust="spacing" textLength="52.5" x="350.75" y="212.1099">VehicleRepository</text><polygon fill="#181818" points="555,228.3867,560,230.3867,555,232.3867,557,230.3867" style="stroke:#181818;stroke-width:0.5;"/><line style="stroke:#181818;stroke-width:0.5;" x1="333.25" x2="558" y1="230.3867" y2="230.3867"/><text fill="#000000" font-family="sans-serif" font-size="6.5" font-weight="bold" lengthAdjust="spacing" textLength="7" x="336.75" y="227.7554">11</text><text fill="#000000" font-family="sans-serif" font-size="6.5" lengthAdjust="spacing" textLength="48.5" x="345.75" y="227.7554">getVehiclesList()</text><polygon fill="#181818" points="338.75,244.0322,333.75,246.0322,338.75,248.0322,336.75,246.0322" style="stroke:#181818;stroke-width:0.5;"/><line style="stroke:#181818;stroke-width:0.5;stroke-dasharray:2.0,2.0;" x1="335.75" x2="563" y1="246.0322" y2="246.0322"/><text fill="#000000" font-family="sans-serif" font-size="6.5" font-weight="bold" lengthAdjust="spacing" textLength="7" x="341.75" y="243.4009">12</text><text fill="#000000" font-family="sans-serif" font-size="6.5" lengthAdjust="spacing" textLength="35.5" x="350.75" y="243.4009">VehiclesList</text><polygon fill="#181818" points="659.25,259.6777,664.25,261.6777,659.25,263.6777,661.25,261.6777" style="stroke:#181818;stroke-width:0.5;"/><line style="stroke:#181818;stroke-width:0.5;" x1="333.25" x2="662.25" y1="261.6777" y2="261.6777"/><text fill="#000000" font-family="sans-serif" font-size="6.5" font-weight="bold" lengthAdjust="spacing" textLength="7" x="336.75" y="259.0464">13</text><text fill="#000000" font-family="sans-serif" font-size="6.5" lengthAdjust="spacing" textLength="125.5" x="345.75" y="259.0464">getVehiclesNeedingMaintenanceRepository</text><polygon fill="#181818" points="338.75,275.3232,333.75,277.3232,338.75,279.3232,336.75,277.3232" style="stroke:#181818;stroke-width:0.5;"/><line style="stroke:#181818;stroke-width:0.5;stroke-dasharray:2.0,2.0;" x1="335.75" x2="667.25" y1="277.3232" y2="277.3232"/><text fill="#000000" font-family="sans-serif" font-size="6.5" font-weight="bold" lengthAdjust="spacing" textLength="7" x="341.75" y="274.6919">14</text><text fill="#000000" font-family="sans-serif" font-size="6.5" lengthAdjust="spacing" textLength="114.5" x="350.75" y="274.6919">vehiclesNeedingMaintenanceRepository</text><polygon fill="#181818" points="785.25,290.9688,790.25,292.9688,785.25,294.9688,787.25,292.9688" style="stroke:#181818;stroke-width:0.5;"/><line style="stroke:#181818;stroke-width:0.5;" x1="333.25" x2="788.25" y1="292.9688" y2="292.9688"/><text fill="#000000" font-family="sans-serif" font-size="6.5" font-weight="bold" lengthAdjust="spacing" textLength="7" x="336.75" y="290.3374">15</text><text fill="#000000" font-family="sans-serif" font-size="6.5" lengthAdjust="spacing" textLength="105" x="345.75" y="290.3374">getVehiclesNeedingMaintenanceList</text><polygon fill="#181818" points="338.75,306.6143,333.75,308.6143,338.75,310.6143,336.75,308.6143" style="stroke:#181818;stroke-width:0.5;"/><line style="stroke:#181818;stroke-width:0.5;stroke-dasharray:2.0,2.0;" x1="335.75" x2="793.25" y1="308.6143" y2="308.6143"/><text fill="#000000" font-family="sans-serif" font-size="6.5" font-weight="bold" lengthAdjust="spacing" textLength="7" x="341.75" y="305.9829">16</text><text fill="#000000" font-family="sans-serif" font-size="6.5" lengthAdjust="spacing" textLength="94" x="350.75" y="305.9829">vehiclesNeedingMaintenanceList</text><polygon fill="#181818" points="215.75,322.2598,210.75,324.2598,215.75,326.2598,213.75,324.2598" style="stroke:#181818;stroke-width:0.5;"/><line style="stroke:#181818;stroke-width:0.5;" x1="212.75" x2="330.25" y1="324.2598" y2="324.2598"/><text fill="#000000" font-family="sans-serif" font-size="6.5" font-weight="bold" lengthAdjust="spacing" textLength="7" x="218.75" y="321.6284">17</text><text fill="#000000" font-family="sans-serif" font-size="6.5" lengthAdjust="spacing" textLength="94" x="227.75" y="321.6284">vehiclesNeedingMaintenanceList</text><polygon fill="#181818" points="45.75,337.9053,40.75,339.9053,45.75,341.9053,43.75,339.9053" style="stroke:#181818;stroke-width:0.5;"/><line style="stroke:#181818;stroke-width:0.5;" x1="42.75" x2="204.75" y1="339.9053" y2="339.9053"/><text fill="#000000" font-family="sans-serif" font-size="6.5" font-weight="bold" lengthAdjust="spacing" textLength="7" x="48.75" y="337.2739">18</text><text fill="#000000" font-family="sans-serif" font-size="6.5" lengthAdjust="spacing" textLength="141.5" x="57.75" y="337.2739">displays the list of vehicles needing the check-up</text><!--SRC=[jLR1Rk8m4BtdAqQSkfNu0GwzeAs4L7g0XLClNcTAB18xQpjK_FsE4pOXiTaOXVe4zhmtysR6yPYZa2NJh812ISKphGe4gojCJ7jICdva1zpQSuwWaLic3_crWSbOghw4FC0domqc2QkiabNn6pNzvbPfcEqn4vpmJARmyqyboWAb_P3mcYDQM3D97lGCc87zwpeXNYkuA9cqC5jSiE-8AJbPCo4jIYOvxbPGGtQhMCHIIQjLdbzyBNzjtWRG3PRA28fPeAbjsetpLZZX96q0MMR8ZxkoCsouXxlX60Ue_IPMoW3OFuabUHF63k5khwwRE36BTJqIk2pw0_CNIZWi27K4go0dSpWr3Wp8nWLmftvUbHsq9QHgjPjk4HbHkb8yFnCjrqXMVPCMMnUiT-IMstKSWL8HuG7jIXhhf3tzyB0jTQZEdhLR8I_pYu85NP2kVtnyYlVv6rNcTHb9_7QDVcid4tLUQ_NOUqgDQy-0oAv5HeFp7NZIcZjmMzIuapkjfwVlZgRnFZsXffdQGlSqb1VG2ELZyhFVzD9ngxDkPO8-rIEcvC3JM7iPmSLt1yKmXUfV9lgFHoyf_tjuebCrU9ocXDodkihlAIRWH-NzWO92HN0zCbA5wMqK4ZETTK0MLQ27NWblaedBVZtIZ8IOH0KGdb6QASVDJmj8XIbpTZPWCspc9_NfZr3ki1kZhYyzJMH_0G00]--></g></svg>