<?xml version="1.0" encoding="us-ascii" standalone="no"?><svg xmlns="http://www.w3.org/2000/svg" xmlns:xlink="http://www.w3.org/1999/xlink" contentStyleType="text/css" height="479.4px" preserveAspectRatio="none" style="width:1021px;height:479px;background:#FFFFFF;" version="1.1" viewBox="0 0 1021 479" width="1021.8px" zoomAndPan="magnify"><defs/><g><rect fill="#FFFFFF" height="340.541" style="stroke:#181818;stroke-width:0.6;" width="6" x="45.3" y="67.3453"/><rect fill="#FFFFFF" height="331.9664" style="stroke:#181818;stroke-width:0.6;" width="6" x="246.3" y="81.3199"/><rect fill="#FFFFFF" height="283.0172" style="stroke:#181818;stroke-width:0.6;" width="6" x="393.9" y="106.0945"/><rect fill="#FFFFFF" height="18.7746" style="stroke:#181818;stroke-width:0.6;" width="6" x="506.7" y="126.2672"/><rect fill="#FFFFFF" height="18.7746" style="stroke:#181818;stroke-width:0.6;" width="6" x="506.7" y="163.8164"/><rect fill="#FFFFFF" height="18.7746" style="stroke:#181818;stroke-width:0.6;" width="6" x="506.7" y="238.9148"/><rect fill="#FFFFFF" height="18.7746" style="stroke:#181818;stroke-width:0.6;" width="6" x="584.7" y="201.3656"/><rect fill="#FFFFFF" height="18.7746" style="stroke:#181818;stroke-width:0.6;" width="6" x="673.2" y="276.4641"/><rect fill="#FFFFFF" height="18.7746" style="stroke:#181818;stroke-width:0.6;" width="6" x="798.3" y="314.0133"/><rect fill="#FFFFFF" height="18.7746" style="stroke:#181818;stroke-width:0.6;" width="6" x="949.5" y="351.5625"/><line style="stroke:#181818;stroke-width:0.3;stroke-dasharray:5.0,5.0;" x1="48" x2="48" y1="61.3453" y2="418.6863"/><line style="stroke:#181818;stroke-width:0.3;stroke-dasharray:5.0,5.0;" x1="249" x2="249" y1="61.3453" y2="418.6863"/><line style="stroke:#181818;stroke-width:0.3;stroke-dasharray:5.0,5.0;" x1="396.6" x2="396.6" y1="105.2063" y2="418.6863"/><line style="stroke:#181818;stroke-width:0.3;stroke-dasharray:5.0,5.0;" x1="509.4" x2="509.4" y1="61.3453" y2="418.6863"/><line style="stroke:#181818;stroke-width:0.3;stroke-dasharray:5.0,5.0;" x1="587.4" x2="587.4" y1="61.3453" y2="418.6863"/><line style="stroke:#181818;stroke-width:0.3;stroke-dasharray:5.0,5.0;" x1="676.2" x2="676.2" y1="61.3453" y2="418.6863"/><line style="stroke:#181818;stroke-width:0.3;stroke-dasharray:5.0,5.0;" x1="801" x2="801" y1="61.3453" y2="418.6863"/><line style="stroke:#181818;stroke-width:0.3;stroke-dasharray:5.0,5.0;" x1="952.2" x2="952.2" y1="61.3453" y2="418.6863"/><text fill="#000000" font-family="sans-serif" font-size="8.4" lengthAdjust="spacing" textLength="87" x="3" y="48.0645">Vehicle and Equipment</text><text fill="#000000" font-family="sans-serif" font-size="8.4" lengthAdjust="spacing" textLength="55.2" x="20.1" y="59.2371">Fleet Manager</text><ellipse cx="48.3" cy="8.1" fill="#E3E3E3" rx="4.8" ry="4.8" style="stroke:#181818;stroke-width:0.3;"/><path d="M48.3,12.9 L48.3,29.1 M40.5,17.7 L56.1,17.7 M48.3,29.1 L40.5,38.1 M48.3,29.1 L56.1,38.1 " fill="none" style="stroke:#181818;stroke-width:0.3;"/><text fill="#000000" font-family="sans-serif" font-size="8.4" lengthAdjust="spacing" textLength="87" x="3" y="427.1508">Vehicle and Equipment</text><text fill="#000000" font-family="sans-serif" font-size="8.4" lengthAdjust="spacing" textLength="55.2" x="20.1" y="438.3234">Fleet Manager</text><ellipse cx="48.3" cy="445.5316" fill="#E3E3E3" rx="4.8" ry="4.8" style="stroke:#181818;stroke-width:0.3;"/><path d="M48.3,450.3316 L48.3,466.5316 M40.5,455.1316 L56.1,455.1316 M48.3,466.5316 L40.5,475.5316 M48.3,466.5316 L56.1,475.5316 " fill="none" style="stroke:#181818;stroke-width:0.3;"/><rect fill="#E3E3E3" height="19.5727" rx="1.5" ry="1.5" style="stroke:#181818;stroke-width:0.3;" width="127.8" x="185.4" y="41.1727"/><text fill="#000000" font-family="sans-serif" font-size="8.4" lengthAdjust="spacing" textLength="117" x="189.6" y="54.4371">:VehicleNeedingMaintenanceUI</text><rect fill="#E3E3E3" height="19.5727" rx="1.5" ry="1.5" style="stroke:#181818;stroke-width:0.3;" width="127.8" x="185.4" y="418.0863"/><text fill="#000000" font-family="sans-serif" font-size="8.4" lengthAdjust="spacing" textLength="117" x="189.6" y="431.3508">:VehicleNeedingMaintenanceUI</text><rect fill="#E3E3E3" height="19.5727" rx="1.5" ry="1.5" style="stroke:#181818;stroke-width:0.3;" width="155.4" x="319.2" y="418.0863"/><text fill="#000000" font-family="sans-serif" font-size="8.4" lengthAdjust="spacing" textLength="147" x="323.4" y="431.3508">:VehicleNeedingMaintenanceController</text><rect fill="#E3E3E3" height="19.5727" rx="1.5" ry="1.5" style="stroke:#181818;stroke-width:0.3;" width="58.2" x="480.6" y="41.1727"/><text fill="#000000" font-family="sans-serif" font-size="8.4" lengthAdjust="spacing" textLength="49.8" x="484.8" y="54.4371">:Repositories</text><rect fill="#E3E3E3" height="19.5727" rx="1.5" ry="1.5" style="stroke:#181818;stroke-width:0.3;" width="58.2" x="480.6" y="418.0863"/><text fill="#000000" font-family="sans-serif" font-size="8.4" lengthAdjust="spacing" textLength="49.8" x="484.8" y="431.3508">:Repositories</text><rect fill="#E3E3E3" height="19.5727" rx="1.5" ry="1.5" style="stroke:#181818;stroke-width:0.3;" width="85.8" x="544.8" y="41.1727"/><text fill="#000000" font-family="sans-serif" font-size="8.4" lengthAdjust="spacing" textLength="77.4" x="549" y="54.4371">:CheckUpRepository</text><rect fill="#E3E3E3" height="19.5727" rx="1.5" ry="1.5" style="stroke:#181818;stroke-width:0.3;" width="85.8" x="544.8" y="418.0863"/><text fill="#000000" font-family="sans-serif" font-size="8.4" lengthAdjust="spacing" textLength="77.4" x="549" y="431.3508">:CheckUpRepository</text><rect fill="#E3E3E3" height="19.5727" rx="1.5" ry="1.5" style="stroke:#181818;stroke-width:0.3;" width="79.2" x="636.6" y="41.1727"/><text fill="#000000" font-family="sans-serif" font-size="8.4" lengthAdjust="spacing" textLength="70.8" x="640.8" y="54.4371">:VehicleRepository</text><rect fill="#E3E3E3" height="19.5727" rx="1.5" ry="1.5" style="stroke:#181818;stroke-width:0.3;" width="79.2" x="636.6" y="418.0863"/><text fill="#000000" font-family="sans-serif" font-size="8.4" lengthAdjust="spacing" textLength="70.8" x="640.8" y="431.3508">:VehicleRepository</text><rect fill="#E3E3E3" height="19.5727" rx="1.5" ry="1.5" style="stroke:#181818;stroke-width:0.3;" width="159" x="721.8" y="41.1727"/><text fill="#000000" font-family="sans-serif" font-size="8.4" lengthAdjust="spacing" textLength="150.6" x="726" y="54.4371">:VehicleNeedingMaintenanceRepository</text><rect fill="#E3E3E3" height="19.5727" rx="1.5" ry="1.5" style="stroke:#181818;stroke-width:0.3;" width="159" x="721.8" y="418.0863"/><text fill="#000000" font-family="sans-serif" font-size="8.4" lengthAdjust="spacing" textLength="150.6" x="726" y="431.3508">:VehicleNeedingMaintenanceRepository</text><rect fill="#E3E3E3" height="19.5727" rx="1.5" ry="1.5" style="stroke:#181818;stroke-width:0.3;" width="131.4" x="886.8" y="41.1727"/><text fill="#000000" font-family="sans-serif" font-size="8.4" lengthAdjust="spacing" textLength="123" x="891" y="54.4371">:VehicleNeedingMaintenanceList</text><rect fill="#E3E3E3" height="19.5727" rx="1.5" ry="1.5" style="stroke:#181818;stroke-width:0.3;" width="131.4" x="886.8" y="418.0863"/><text fill="#000000" font-family="sans-serif" font-size="8.4" lengthAdjust="spacing" textLength="123" x="891" y="431.3508">:VehicleNeedingMaintenanceList</text><rect fill="#FFFFFF" height="340.541" style="stroke:#181818;stroke-width:0.6;" width="6" x="45.3" y="67.3453"/><rect fill="#FFFFFF" height="331.9664" style="stroke:#181818;stroke-width:0.6;" width="6" x="246.3" y="81.3199"/><rect fill="#FFFFFF" height="283.0172" style="stroke:#181818;stroke-width:0.6;" width="6" x="393.9" y="106.0945"/><rect fill="#FFFFFF" height="18.7746" style="stroke:#181818;stroke-width:0.6;" width="6" x="506.7" y="126.2672"/><rect fill="#FFFFFF" height="18.7746" style="stroke:#181818;stroke-width:0.6;" width="6" x="506.7" y="163.8164"/><rect fill="#FFFFFF" height="18.7746" style="stroke:#181818;stroke-width:0.6;" width="6" x="506.7" y="238.9148"/><rect fill="#FFFFFF" height="18.7746" style="stroke:#181818;stroke-width:0.6;" width="6" x="584.7" y="201.3656"/><rect fill="#FFFFFF" height="18.7746" style="stroke:#181818;stroke-width:0.6;" width="6" x="673.2" y="276.4641"/><rect fill="#FFFFFF" height="18.7746" style="stroke:#181818;stroke-width:0.6;" width="6" x="798.3" y="314.0133"/><rect fill="#FFFFFF" height="18.7746" style="stroke:#181818;stroke-width:0.6;" width="6" x="949.5" y="351.5625"/><polygon fill="#181818" points="239.1,78.9199,245.1,81.3199,239.1,83.7199,241.5,81.3199" style="stroke:#181818;stroke-width:0.6;"/><line style="stroke:#181818;stroke-width:0.6;" x1="51.3" x2="242.7" y1="81.3199" y2="81.3199"/><text fill="#000000" font-family="sans-serif" font-size="7.8" font-weight="bold" lengthAdjust="spacing" textLength="4.2" x="55.5" y="78.1623">1</text><text fill="#000000" font-family="sans-serif" font-size="7.8" lengthAdjust="spacing" textLength="127.8" x="62.1" y="78.1623">ask to list vehicles needing check-up</text><polygon fill="#181818" points="312,97.6945,318,100.0945,312,102.4945,314.4,100.0945" style="stroke:#181818;stroke-width:0.6;"/><line style="stroke:#181818;stroke-width:0.6;" x1="252.3" x2="315.6" y1="100.0945" y2="100.0945"/><text fill="#000000" font-family="sans-serif" font-size="7.8" font-weight="bold" lengthAdjust="spacing" textLength="4.2" x="256.5" y="96.9369">2</text><text fill="#000000" font-family="sans-serif" font-size="7.8" lengthAdjust="spacing" textLength="21.6" x="263.1" y="96.9369">create</text><rect fill="#E3E3E3" height="19.5727" rx="1.5" ry="1.5" style="stroke:#181818;stroke-width:0.3;" width="155.4" x="319.2" y="86.1199"/><text fill="#000000" font-family="sans-serif" font-size="8.4" lengthAdjust="spacing" textLength="147" x="323.4" y="99.3844">:VehicleNeedingMaintenanceController</text><polygon fill="#181818" points="499.5,123.8672,505.5,126.2672,499.5,128.6672,501.9,126.2672" style="stroke:#181818;stroke-width:0.6;"/><line style="stroke:#181818;stroke-width:0.6;" x1="399.9" x2="503.1" y1="126.2672" y2="126.2672"/><text fill="#000000" font-family="sans-serif" font-size="7.8" font-weight="bold" lengthAdjust="spacing" textLength="4.2" x="404.1" y="123.1096">3</text><text fill="#000000" font-family="sans-serif" font-size="7.8" lengthAdjust="spacing" textLength="45" x="410.7" y="123.1096">getInstance()</text><polygon fill="#181818" points="406.5,142.6418,400.5,145.0418,406.5,147.4418,404.1,145.0418" style="stroke:#181818;stroke-width:0.6;"/><line style="stroke:#181818;stroke-width:0.6;stroke-dasharray:2.0,2.0;" x1="402.9" x2="509.1" y1="145.0418" y2="145.0418"/><text fill="#000000" font-family="sans-serif" font-size="7.8" font-weight="bold" lengthAdjust="spacing" textLength="4.2" x="410.1" y="141.8842">4</text><text fill="#000000" font-family="sans-serif" font-size="7.8" lengthAdjust="spacing" textLength="40.2" x="416.7" y="141.8842">repositories</text><polygon fill="#181818" points="499.5,161.4164,505.5,163.8164,499.5,166.2164,501.9,163.8164" style="stroke:#181818;stroke-width:0.6;"/><line style="stroke:#181818;stroke-width:0.6;" x1="399.9" x2="503.1" y1="163.8164" y2="163.8164"/><text fill="#000000" font-family="sans-serif" font-size="7.8" font-weight="bold" lengthAdjust="spacing" textLength="4.2" x="404.1" y="160.6588">5</text><text fill="#000000" font-family="sans-serif" font-size="7.8" lengthAdjust="spacing" textLength="84.6" x="410.7" y="160.6588">getCheckUpRepository()</text><polygon fill="#181818" points="406.5,180.191,400.5,182.591,406.5,184.991,404.1,182.591" style="stroke:#181818;stroke-width:0.6;"/><line style="stroke:#181818;stroke-width:0.6;stroke-dasharray:2.0,2.0;" x1="402.9" x2="509.1" y1="182.591" y2="182.591"/><text fill="#000000" font-family="sans-serif" font-size="7.8" font-weight="bold" lengthAdjust="spacing" textLength="4.2" x="410.1" y="179.4334">6</text><text fill="#000000" font-family="sans-serif" font-size="7.8" lengthAdjust="spacing" textLength="69" x="416.7" y="179.4334">CheckUpRepository</text><polygon fill="#181818" points="577.5,198.9656,583.5,201.3656,577.5,203.7656,579.9,201.3656" style="stroke:#181818;stroke-width:0.6;"/><line style="stroke:#181818;stroke-width:0.6;" x1="399.9" x2="581.1" y1="201.3656" y2="201.3656"/><text fill="#000000" font-family="sans-serif" font-size="7.8" font-weight="bold" lengthAdjust="spacing" textLength="4.2" x="404.1" y="198.208">7</text><text fill="#000000" font-family="sans-serif" font-size="7.8" lengthAdjust="spacing" textLength="64.2" x="410.7" y="198.208">getCheckUpsList()</text><polygon fill="#181818" points="406.5,217.7402,400.5,220.1402,406.5,222.5402,404.1,220.1402" style="stroke:#181818;stroke-width:0.6;"/><line style="stroke:#181818;stroke-width:0.6;stroke-dasharray:2.0,2.0;" x1="402.9" x2="587.1" y1="220.1402" y2="220.1402"/><text fill="#000000" font-family="sans-serif" font-size="7.8" font-weight="bold" lengthAdjust="spacing" textLength="4.2" x="410.1" y="216.9826">8</text><text fill="#000000" font-family="sans-serif" font-size="7.8" lengthAdjust="spacing" textLength="44.4" x="416.7" y="216.9826">CheckUpList</text><polygon fill="#181818" points="499.5,236.5148,505.5,238.9148,499.5,241.3148,501.9,238.9148" style="stroke:#181818;stroke-width:0.6;"/><line style="stroke:#181818;stroke-width:0.6;" x1="399.9" x2="503.1" y1="238.9148" y2="238.9148"/><text fill="#000000" font-family="sans-serif" font-size="7.8" font-weight="bold" lengthAdjust="spacing" textLength="4.2" x="404.1" y="235.7572">9</text><text fill="#000000" font-family="sans-serif" font-size="7.8" lengthAdjust="spacing" textLength="78.6" x="410.7" y="235.7572">getVehicleRepository()</text><polygon fill="#181818" points="406.5,255.2895,400.5,257.6895,406.5,260.0895,404.1,257.6895" style="stroke:#181818;stroke-width:0.6;"/><line style="stroke:#181818;stroke-width:0.6;stroke-dasharray:2.0,2.0;" x1="402.9" x2="509.1" y1="257.6895" y2="257.6895"/><text fill="#000000" font-family="sans-serif" font-size="7.8" font-weight="bold" lengthAdjust="spacing" textLength="8.4" x="410.1" y="254.5318">10</text><text fill="#000000" font-family="sans-serif" font-size="7.8" lengthAdjust="spacing" textLength="63" x="420.9" y="254.5318">VehicleRepository</text><polygon fill="#181818" points="666,274.0641,672,276.4641,666,278.8641,668.4,276.4641" style="stroke:#181818;stroke-width:0.6;"/><line style="stroke:#181818;stroke-width:0.6;" x1="399.9" x2="669.6" y1="276.4641" y2="276.4641"/><text fill="#000000" font-family="sans-serif" font-size="7.8" font-weight="bold" lengthAdjust="spacing" textLength="8.4" x="404.1" y="273.3064">11</text><text fill="#000000" font-family="sans-serif" font-size="7.8" lengthAdjust="spacing" textLength="58.2" x="414.9" y="273.3064">getVehiclesList()</text><polygon fill="#181818" points="406.5,292.8387,400.5,295.2387,406.5,297.6387,404.1,295.2387" style="stroke:#181818;stroke-width:0.6;"/><line style="stroke:#181818;stroke-width:0.6;stroke-dasharray:2.0,2.0;" x1="402.9" x2="675.6" y1="295.2387" y2="295.2387"/><text fill="#000000" font-family="sans-serif" font-size="7.8" font-weight="bold" lengthAdjust="spacing" textLength="8.4" x="410.1" y="292.0811">12</text><text fill="#000000" font-family="sans-serif" font-size="7.8" lengthAdjust="spacing" textLength="42.6" x="420.9" y="292.0811">VehiclesList</text><polygon fill="#181818" points="791.1,311.6133,797.1,314.0133,791.1,316.4133,793.5,314.0133" style="stroke:#181818;stroke-width:0.6;"/><line style="stroke:#181818;stroke-width:0.6;" x1="399.9" x2="794.7" y1="314.0133" y2="314.0133"/><text fill="#000000" font-family="sans-serif" font-size="7.8" font-weight="bold" lengthAdjust="spacing" textLength="8.4" x="404.1" y="310.8557">13</text><text fill="#000000" font-family="sans-serif" font-size="7.8" lengthAdjust="spacing" textLength="150.6" x="414.9" y="310.8557">getVehiclesNeedingMaintenanceRepository</text><polygon fill="#181818" points="406.5,330.3879,400.5,332.7879,406.5,335.1879,404.1,332.7879" style="stroke:#181818;stroke-width:0.6;"/><line style="stroke:#181818;stroke-width:0.6;stroke-dasharray:2.0,2.0;" x1="402.9" x2="800.7" y1="332.7879" y2="332.7879"/><text fill="#000000" font-family="sans-serif" font-size="7.8" font-weight="bold" lengthAdjust="spacing" textLength="8.4" x="410.1" y="329.6303">14</text><text fill="#000000" font-family="sans-serif" font-size="7.8" lengthAdjust="spacing" textLength="137.4" x="420.9" y="329.6303">vehiclesNeedingMaintenanceRepository</text><polygon fill="#181818" points="942.3,349.1625,948.3,351.5625,942.3,353.9625,944.7,351.5625" style="stroke:#181818;stroke-width:0.6;"/><line style="stroke:#181818;stroke-width:0.6;" x1="399.9" x2="945.9" y1="351.5625" y2="351.5625"/><text fill="#000000" font-family="sans-serif" font-size="7.8" font-weight="bold" lengthAdjust="spacing" textLength="8.4" x="404.1" y="348.4049">15</text><text fill="#000000" font-family="sans-serif" font-size="7.8" lengthAdjust="spacing" textLength="126" x="414.9" y="348.4049">getVehiclesNeedingMaintenanceList</text><polygon fill="#181818" points="406.5,367.9371,400.5,370.3371,406.5,372.7371,404.1,370.3371" style="stroke:#181818;stroke-width:0.6;"/><line style="stroke:#181818;stroke-width:0.6;stroke-dasharray:2.0,2.0;" x1="402.9" x2="951.9" y1="370.3371" y2="370.3371"/><text fill="#000000" font-family="sans-serif" font-size="7.8" font-weight="bold" lengthAdjust="spacing" textLength="8.4" x="410.1" y="367.1795">16</text><text fill="#000000" font-family="sans-serif" font-size="7.8" lengthAdjust="spacing" textLength="112.8" x="420.9" y="367.1795">vehiclesNeedingMaintenanceList</text><polygon fill="#181818" points="258.9,386.7117,252.9,389.1117,258.9,391.5117,256.5,389.1117" style="stroke:#181818;stroke-width:0.6;"/><line style="stroke:#181818;stroke-width:0.6;" x1="255.3" x2="396.3" y1="389.1117" y2="389.1117"/><text fill="#000000" font-family="sans-serif" font-size="7.8" font-weight="bold" lengthAdjust="spacing" textLength="8.4" x="262.5" y="385.9541">17</text><text fill="#000000" font-family="sans-serif" font-size="7.8" lengthAdjust="spacing" textLength="112.8" x="273.3" y="385.9541">vehiclesNeedingMaintenanceList</text><polygon fill="#181818" points="54.9,405.4863,48.9,407.8863,54.9,410.2863,52.5,407.8863" style="stroke:#181818;stroke-width:0.6;"/><line style="stroke:#181818;stroke-width:0.6;" x1="51.3" x2="245.7" y1="407.8863" y2="407.8863"/><text fill="#000000" font-family="sans-serif" font-size="7.8" font-weight="bold" lengthAdjust="spacing" textLength="8.4" x="58.5" y="404.7287">18</text><text fill="#000000" font-family="sans-serif" font-size="7.8" lengthAdjust="spacing" textLength="169.8" x="69.3" y="404.7287">displays the list of vehicles needing the check-up</text><!--SRC=[jLPDR-8m4BtdLumuTIln1pZqWXO9gVG0XTDUlCwKM2HsQZki-FSxJcY-R9gaj3w1FMzctioBn-OaPCuqoo1JKl54gmp1wW8ZKv_aZ9_O4NVsaY9ev9R9OzesC0cBrJyXZ_36KeDHn0ghP97zHKs_kLKQPWTC12Syap7yVYz4dg6qVoIiKaGB6oOfWfu1Ct1ORIBoQmKNEPCMPeihzWKnfY0R9gH5oIJ7_HfAo7uz5h5KqcgLfjTOozVjSm-wnLmPGJaBDALDlN7P2KUSgFKWomJvQPytXfNl_cuunnxgi1rBfGVidenryYoCxSFTNjatSMOMotv4S5tq1-PFL71O4Ee4La5Avd2k0XYGLGZWZlsyo1jexP2wLM-wHSx8fMl5uoEvvHh9gcjIOyk6TOxSShlEHw1LvF28TYsDTTGUVddOsdMepvwrMw4eyok31NqWZNvyV8pJuWqoyrH657-Seo_jw4wURQwUzmvJu-GP8Db8P30vFu17hVe6RfCQ3ZBH-lxoJH2DT_M4H7ElXAO8oajemENtrEUmxPJZbh9kLOAkwW5J2k1nD45ftUOt6EM3JNS0T8XzDZn6q-qDcCzXNUDM5SxVa5AhEfEI2fNATMEWLcCQ5afe3AvdFgfG4mKq4VbHetB4Vps9zkqNdDdLr7VlYGN4mkGfknYm2LRl2VNcFodSOVEiQ7yYz4Bv3m00]--></g></svg>