<?xml version="1.0" encoding="us-ascii" standalone="no"?><svg xmlns="http://www.w3.org/2000/svg" xmlns:xlink="http://www.w3.org/1999/xlink" contentStyleType="text/css" height="236px" preserveAspectRatio="none" style="width:848px;height:236px;background:#FFFFFF;" version="1.1" viewBox="0 0 848 236" width="848px" zoomAndPan="magnify"><defs/><g><rect fill="#FFFFFF" height="120.1641" style="stroke:#181818;stroke-width:0.5;" width="5" x="37.75" y="56.1211"/><rect fill="#FFFFFF" height="113.0186" style="stroke:#181818;stroke-width:0.5;" width="5" x="201.75" y="67.7666"/><rect fill="#FFFFFF" height="72.2275" style="stroke:#181818;stroke-width:0.5;" width="5" x="324.75" y="88.4121"/><rect fill="#FFFFFF" height="15.6455" style="stroke:#181818;stroke-width:0.5;" width="5" x="787.75" y="129.3486"/><line style="stroke:#181818;stroke-width:0.25;stroke-dasharray:5.0,5.0;" x1="40" x2="40" y1="51.1211" y2="185.2852"/><line style="stroke:#181818;stroke-width:0.25;stroke-dasharray:5.0,5.0;" x1="204" x2="204" y1="51.1211" y2="185.2852"/><line style="stroke:#181818;stroke-width:0.25;stroke-dasharray:5.0,5.0;" x1="327" x2="327" y1="87.6719" y2="185.2852"/><line style="stroke:#181818;stroke-width:0.25;stroke-dasharray:5.0,5.0;" x1="421" x2="421" y1="51.1211" y2="185.2852"/><line style="stroke:#181818;stroke-width:0.25;stroke-dasharray:5.0,5.0;" x1="486" x2="486" y1="51.1211" y2="185.2852"/><line style="stroke:#181818;stroke-width:0.25;stroke-dasharray:5.0,5.0;" x1="560" x2="560" y1="51.1211" y2="185.2852"/><line style="stroke:#181818;stroke-width:0.25;stroke-dasharray:5.0,5.0;" x1="664" x2="664" y1="51.1211" y2="185.2852"/><line style="stroke:#181818;stroke-width:0.25;stroke-dasharray:5.0,5.0;" x1="790" x2="790" y1="51.1211" y2="185.2852"/><text fill="#000000" font-family="sans-serif" font-size="7" lengthAdjust="spacing" textLength="72.5" x="2.5" y="40.0537">Vehicle and Equipment</text><text fill="#000000" font-family="sans-serif" font-size="7" lengthAdjust="spacing" textLength="46" x="16.75" y="49.3643">Fleet Manager</text><ellipse cx="40.25" cy="6.75" fill="#E3E3E3" rx="4" ry="4" style="stroke:#181818;stroke-width:0.25;"/><path d="M40.25,10.75 L40.25,24.25 M33.75,14.75 L46.75,14.75 M40.25,24.25 L33.75,31.75 M40.25,24.25 L46.75,31.75 " fill="none" style="stroke:#181818;stroke-width:0.25;"/><text fill="#000000" font-family="sans-serif" font-size="7" lengthAdjust="spacing" textLength="72.5" x="2.5" y="192.3389">Vehicle and Equipment</text><text fill="#000000" font-family="sans-serif" font-size="7" lengthAdjust="spacing" textLength="46" x="16.75" y="201.6494">Fleet Manager</text><ellipse cx="40.25" cy="207.6563" fill="#E3E3E3" rx="4" ry="4" style="stroke:#181818;stroke-width:0.25;"/><path d="M40.25,211.6563 L40.25,225.1563 M33.75,215.6563 L46.75,215.6563 M40.25,225.1563 L33.75,232.6563 M40.25,225.1563 L46.75,232.6563 " fill="none" style="stroke:#181818;stroke-width:0.25;"/><rect fill="#E3E3E3" height="16.3105" rx="1.25" ry="1.25" style="stroke:#181818;stroke-width:0.25;" width="106.5" x="151" y="34.3105"/><text fill="#000000" font-family="sans-serif" font-size="7" lengthAdjust="spacing" textLength="97.5" x="154.5" y="45.3643">:VehicleNeedingMaintenanceUI</text><rect fill="#E3E3E3" height="16.3105" rx="1.25" ry="1.25" style="stroke:#181818;stroke-width:0.25;" width="106.5" x="151" y="184.7852"/><text fill="#000000" font-family="sans-serif" font-size="7" lengthAdjust="spacing" textLength="97.5" x="154.5" y="195.8389">:VehicleNeedingMaintenanceUI</text><rect fill="#E3E3E3" height="16.3105" rx="1.25" ry="1.25" style="stroke:#181818;stroke-width:0.25;" width="129.5" x="262.5" y="184.7852"/><text fill="#000000" font-family="sans-serif" font-size="7" lengthAdjust="spacing" textLength="122.5" x="266" y="195.8389">:VehicleNeedingMaintenanceController</text><rect fill="#E3E3E3" height="16.3105" rx="1.25" ry="1.25" style="stroke:#181818;stroke-width:0.25;" width="48.5" x="397" y="34.3105"/><text fill="#000000" font-family="sans-serif" font-size="7" lengthAdjust="spacing" textLength="41.5" x="400.5" y="45.3643">:Repositories</text><rect fill="#E3E3E3" height="16.3105" rx="1.25" ry="1.25" style="stroke:#181818;stroke-width:0.25;" width="48.5" x="397" y="184.7852"/><text fill="#000000" font-family="sans-serif" font-size="7" lengthAdjust="spacing" textLength="41.5" x="400.5" y="195.8389">:Repositories</text><rect fill="#E3E3E3" height="16.3105" rx="1.25" ry="1.25" style="stroke:#181818;stroke-width:0.25;" width="71.5" x="450.5" y="34.3105"/><text fill="#000000" font-family="sans-serif" font-size="7" lengthAdjust="spacing" textLength="64.5" x="454" y="45.3643">:CheckUpRepository</text><rect fill="#E3E3E3" height="16.3105" rx="1.25" ry="1.25" style="stroke:#181818;stroke-width:0.25;" width="71.5" x="450.5" y="184.7852"/><text fill="#000000" font-family="sans-serif" font-size="7" lengthAdjust="spacing" textLength="64.5" x="454" y="195.8389">:CheckUpRepository</text><rect fill="#E3E3E3" height="16.3105" rx="1.25" ry="1.25" style="stroke:#181818;stroke-width:0.25;" width="66" x="527" y="34.3105"/><text fill="#000000" font-family="sans-serif" font-size="7" lengthAdjust="spacing" textLength="59" x="530.5" y="45.3643">:VehicleRepository</text><rect fill="#E3E3E3" height="16.3105" rx="1.25" ry="1.25" style="stroke:#181818;stroke-width:0.25;" width="66" x="527" y="184.7852"/><text fill="#000000" font-family="sans-serif" font-size="7" lengthAdjust="spacing" textLength="59" x="530.5" y="195.8389">:VehicleRepository</text><rect fill="#E3E3E3" height="16.3105" rx="1.25" ry="1.25" style="stroke:#181818;stroke-width:0.25;" width="132.5" x="598" y="34.3105"/><text fill="#000000" font-family="sans-serif" font-size="7" lengthAdjust="spacing" textLength="125.5" x="601.5" y="45.3643">:VehicleNeedingMaintenanceRepository</text><rect fill="#E3E3E3" height="16.3105" rx="1.25" ry="1.25" style="stroke:#181818;stroke-width:0.25;" width="132.5" x="598" y="184.7852"/><text fill="#000000" font-family="sans-serif" font-size="7" lengthAdjust="spacing" textLength="125.5" x="601.5" y="195.8389">:VehicleNeedingMaintenanceRepository</text><rect fill="#E3E3E3" height="16.3105" rx="1.25" ry="1.25" style="stroke:#181818;stroke-width:0.25;" width="109.5" x="735.5" y="34.3105"/><text fill="#000000" font-family="sans-serif" font-size="7" lengthAdjust="spacing" textLength="102.5" x="739" y="45.3643">:VehicleNeedingMaintenanceList</text><rect fill="#E3E3E3" height="16.3105" rx="1.25" ry="1.25" style="stroke:#181818;stroke-width:0.25;" width="109.5" x="735.5" y="184.7852"/><text fill="#000000" font-family="sans-serif" font-size="7" lengthAdjust="spacing" textLength="102.5" x="739" y="195.8389">:VehicleNeedingMaintenanceList</text><rect fill="#FFFFFF" height="120.1641" style="stroke:#181818;stroke-width:0.5;" width="5" x="37.75" y="56.1211"/><rect fill="#FFFFFF" height="113.0186" style="stroke:#181818;stroke-width:0.5;" width="5" x="201.75" y="67.7666"/><rect fill="#FFFFFF" height="72.2275" style="stroke:#181818;stroke-width:0.5;" width="5" x="324.75" y="88.4121"/><rect fill="#FFFFFF" height="15.6455" style="stroke:#181818;stroke-width:0.5;" width="5" x="787.75" y="129.3486"/><polygon fill="#181818" points="195.75,65.7666,200.75,67.7666,195.75,69.7666,197.75,67.7666" style="stroke:#181818;stroke-width:0.5;"/><line style="stroke:#181818;stroke-width:0.5;" x1="42.75" x2="198.75" y1="67.7666" y2="67.7666"/><text fill="#000000" font-family="sans-serif" font-size="6.5" font-weight="bold" lengthAdjust="spacing" textLength="3.5" x="46.25" y="65.1353">1</text><text fill="#000000" font-family="sans-serif" font-size="6.5" lengthAdjust="spacing" textLength="106.5" x="51.75" y="65.1353">ask to list vehicles needing check-up</text><polygon fill="#181818" points="256.5,81.4121,261.5,83.4121,256.5,85.4121,258.5,83.4121" style="stroke:#181818;stroke-width:0.5;"/><line style="stroke:#181818;stroke-width:0.5;" x1="206.75" x2="259.5" y1="83.4121" y2="83.4121"/><text fill="#000000" font-family="sans-serif" font-size="6.5" font-weight="bold" lengthAdjust="spacing" textLength="3.5" x="210.25" y="80.7808">2</text><text fill="#000000" font-family="sans-serif" font-size="6.5" lengthAdjust="spacing" textLength="18" x="215.75" y="80.7808">create</text><rect fill="#E3E3E3" height="16.3105" rx="1.25" ry="1.25" style="stroke:#181818;stroke-width:0.25;" width="129.5" x="262.5" y="71.7666"/><text fill="#000000" font-family="sans-serif" font-size="7" lengthAdjust="spacing" textLength="122.5" x="266" y="82.8203">:VehicleNeedingMaintenanceController</text><rect fill="none" height="21.626" style="stroke:#000000;stroke-width:0.75;" width="132.5" x="261" y="93.5771"/><path d="M261,93.5771 L292,93.5771 L292,98.0771 L287,103.0771 L261,103.0771 L261,93.5771 " fill="#EEEEEE" style="stroke:#000000;stroke-width:1.0;"/><text fill="#000000" font-family="sans-serif" font-size="6.5" font-weight="bold" lengthAdjust="spacing" textLength="8.5" x="267.5" y="101.5913">ref</text><text fill="#000000" font-family="sans-serif" font-size="6" lengthAdjust="spacing" textLength="81.5" x="286.5" y="111.5518">Get CheckUp and Vehicle List</text><polygon fill="#181818" points="781.75,127.3486,786.75,129.3486,781.75,131.3486,783.75,129.3486" style="stroke:#181818;stroke-width:0.5;"/><line style="stroke:#181818;stroke-width:0.5;" x1="329.75" x2="784.75" y1="129.3486" y2="129.3486"/><text fill="#000000" font-family="sans-serif" font-size="6.5" font-weight="bold" lengthAdjust="spacing" textLength="3.5" x="333.25" y="126.7173">3</text><text fill="#000000" font-family="sans-serif" font-size="6.5" lengthAdjust="spacing" textLength="184.5" x="338.75" y="126.7173">getVehiclesNeedingMaintenanceList (vehiclesList, checkUpList)</text><polygon fill="#181818" points="335.25,142.9941,330.25,144.9941,335.25,146.9941,333.25,144.9941" style="stroke:#181818;stroke-width:0.5;"/><line style="stroke:#181818;stroke-width:0.5;stroke-dasharray:2.0,2.0;" x1="332.25" x2="789.75" y1="144.9941" y2="144.9941"/><text fill="#000000" font-family="sans-serif" font-size="6.5" font-weight="bold" lengthAdjust="spacing" textLength="3.5" x="338.25" y="142.3628">4</text><text fill="#000000" font-family="sans-serif" font-size="6.5" lengthAdjust="spacing" textLength="94" x="343.75" y="142.3628">vehiclesNeedingMaintenanceList</text><polygon fill="#181818" points="212.25,158.6396,207.25,160.6396,212.25,162.6396,210.25,160.6396" style="stroke:#181818;stroke-width:0.5;"/><line style="stroke:#181818;stroke-width:0.5;" x1="209.25" x2="326.75" y1="160.6396" y2="160.6396"/><text fill="#000000" font-family="sans-serif" font-size="6.5" font-weight="bold" lengthAdjust="spacing" textLength="3.5" x="215.25" y="158.0083">5</text><text fill="#000000" font-family="sans-serif" font-size="6.5" lengthAdjust="spacing" textLength="94" x="220.75" y="158.0083">vehiclesNeedingMaintenanceList</text><polygon fill="#181818" points="45.75,174.2852,40.75,176.2852,45.75,178.2852,43.75,176.2852" style="stroke:#181818;stroke-width:0.5;"/><line style="stroke:#181818;stroke-width:0.5;" x1="42.75" x2="201.25" y1="176.2852" y2="176.2852"/><text fill="#000000" font-family="sans-serif" font-size="6.5" font-weight="bold" lengthAdjust="spacing" textLength="3.5" x="48.75" y="173.6538">6</text><text fill="#000000" font-family="sans-serif" font-size="6.5" lengthAdjust="spacing" textLength="141.5" x="54.25" y="173.6538">displays the list of vehicles needing the check-up</text><!--SRC=[dLFBRi8m4BpdArQSMbH-88TUKAcGe0TeEFNYEajYaTYkxL3nzrqx8O21Wl0fzkxCFcPYDq9gPbWDjPAAbqRL2CuqcDW-eXdVi0ANRbSX6EIEoQ8wJh0bozMla0MiMMKnILZZb6pgRpJqpPqoC5XXAJZXcSpXxQSHkaRflYHCAaG7SoQfWXa0ix2Qp1FYTO8BpQI3GTfXFn1pAZ9dGZgKJ7BCfX0WsVHUn5X9PrHLTRN6dujP15sWLbPGpm9joEaVTalX1wVH8iYuHBx9z26nvOvVB_SOeLQBUqU9WAUHUqbcmheOxj-2RcBB70Oz4kWENM3qIWk7b50RS0egIeTjMy22R4i0zzEF6ds0zeIaLl_e3v4HfPTYE2HQRf2oJbDwR13i91IEmJMeBPes3bVEEpcjKoNuSE_9CF1PDb86yKRLakGgVNjy1twUQA4f5EYwWlQo3l2qtwA_lRGhpBI_FD-gsY_eJCV_SN4Beqw9j5VqSg-tU7DyjAFz_eB57c_Yg87BdcbTv_sSGYwihjZEWYknzRDQdrlQ1m-sFYhW_v0_]--></g></svg>