<?xml version="1.0" encoding="us-ascii" standalone="no"?><svg xmlns="http://www.w3.org/2000/svg" xmlns:xlink="http://www.w3.org/1999/xlink" contentStyleType="text/css" height="260px" preserveAspectRatio="none" style="width:848px;height:260px;background:#FFFFFF;" version="1.1" viewBox="0 0 848 260" width="848px" zoomAndPan="magnify"><defs/><g><rect fill="#FFFFFF" height="144.29" style="stroke:#181818;stroke-width:0.5;" width="5" x="37.75" y="56.1211"/><rect fill="#FFFFFF" height="137.1445" style="stroke:#181818;stroke-width:0.5;" width="5" x="201.75" y="67.7666"/><rect fill="#FFFFFF" height="96.3535" style="stroke:#181818;stroke-width:0.5;" width="5" x="324.75" y="88.4121"/><rect fill="#FFFFFF" height="15.6455" style="stroke:#181818;stroke-width:0.5;" width="5" x="787.75" y="153.4746"/><line style="stroke:#181818;stroke-width:0.25;stroke-dasharray:5.0,5.0;" x1="40" x2="40" y1="51.1211" y2="209.4111"/><line style="stroke:#181818;stroke-width:0.25;stroke-dasharray:5.0,5.0;" x1="204" x2="204" y1="51.1211" y2="209.4111"/><line style="stroke:#181818;stroke-width:0.25;stroke-dasharray:5.0,5.0;" x1="327" x2="327" y1="87.6719" y2="209.4111"/><line style="stroke:#181818;stroke-width:0.25;stroke-dasharray:5.0,5.0;" x1="421" x2="421" y1="51.1211" y2="209.4111"/><line style="stroke:#181818;stroke-width:0.25;stroke-dasharray:5.0,5.0;" x1="486" x2="486" y1="51.1211" y2="209.4111"/><line style="stroke:#181818;stroke-width:0.25;stroke-dasharray:5.0,5.0;" x1="560" x2="560" y1="51.1211" y2="209.4111"/><line style="stroke:#181818;stroke-width:0.25;stroke-dasharray:5.0,5.0;" x1="664" x2="664" y1="51.1211" y2="209.4111"/><line style="stroke:#181818;stroke-width:0.25;stroke-dasharray:5.0,5.0;" x1="790" x2="790" y1="51.1211" y2="209.4111"/><text fill="#000000" font-family="sans-serif" font-size="7" lengthAdjust="spacing" textLength="72.5" x="2.5" y="40.0537">Vehicle and Equipment</text><text fill="#000000" font-family="sans-serif" font-size="7" lengthAdjust="spacing" textLength="46" x="16.75" y="49.3643">Fleet Manager</text><ellipse cx="40.25" cy="6.75" fill="#E3E3E3" rx="4" ry="4" style="stroke:#181818;stroke-width:0.25;"/><path d="M40.25,10.75 L40.25,24.25 M33.75,14.75 L46.75,14.75 M40.25,24.25 L33.75,31.75 M40.25,24.25 L46.75,31.75 " fill="none" style="stroke:#181818;stroke-width:0.25;"/><text fill="#000000" font-family="sans-serif" font-size="7" lengthAdjust="spacing" textLength="72.5" x="2.5" y="216.4648">Vehicle and Equipment</text><text fill="#000000" font-family="sans-serif" font-size="7" lengthAdjust="spacing" textLength="46" x="16.75" y="225.7754">Fleet Manager</text><ellipse cx="40.25" cy="231.7822" fill="#E3E3E3" rx="4" ry="4" style="stroke:#181818;stroke-width:0.25;"/><path d="M40.25,235.7822 L40.25,249.2822 M33.75,239.7822 L46.75,239.7822 M40.25,249.2822 L33.75,256.7822 M40.25,249.2822 L46.75,256.7822 " fill="none" style="stroke:#181818;stroke-width:0.25;"/><rect fill="#E3E3E3" height="16.3105" rx="1.25" ry="1.25" style="stroke:#181818;stroke-width:0.25;" width="106.5" x="151" y="34.3105"/><text fill="#000000" font-family="sans-serif" font-size="7" lengthAdjust="spacing" textLength="97.5" x="154.5" y="45.3643">:VehicleNeedingMaintenanceUI</text><rect fill="#E3E3E3" height="16.3105" rx="1.25" ry="1.25" style="stroke:#181818;stroke-width:0.25;" width="106.5" x="151" y="208.9111"/><text fill="#000000" font-family="sans-serif" font-size="7" lengthAdjust="spacing" textLength="97.5" x="154.5" y="219.9648">:VehicleNeedingMaintenanceUI</text><rect fill="#E3E3E3" height="16.3105" rx="1.25" ry="1.25" style="stroke:#181818;stroke-width:0.25;" width="129.5" x="262.5" y="208.9111"/><text fill="#000000" font-family="sans-serif" font-size="7" lengthAdjust="spacing" textLength="122.5" x="266" y="219.9648">:VehicleNeedingMaintenanceController</text><rect fill="#E3E3E3" height="16.3105" rx="1.25" ry="1.25" style="stroke:#181818;stroke-width:0.25;" width="48.5" x="397" y="34.3105"/><text fill="#000000" font-family="sans-serif" font-size="7" lengthAdjust="spacing" textLength="41.5" x="400.5" y="45.3643">:Repositories</text><rect fill="#E3E3E3" height="16.3105" rx="1.25" ry="1.25" style="stroke:#181818;stroke-width:0.25;" width="48.5" x="397" y="208.9111"/><text fill="#000000" font-family="sans-serif" font-size="7" lengthAdjust="spacing" textLength="41.5" x="400.5" y="219.9648">:Repositories</text><rect fill="#E3E3E3" height="16.3105" rx="1.25" ry="1.25" style="stroke:#181818;stroke-width:0.25;" width="71.5" x="450.5" y="34.3105"/><text fill="#000000" font-family="sans-serif" font-size="7" lengthAdjust="spacing" textLength="64.5" x="454" y="45.3643">:CheckUpRepository</text><rect fill="#E3E3E3" height="16.3105" rx="1.25" ry="1.25" style="stroke:#181818;stroke-width:0.25;" width="71.5" x="450.5" y="208.9111"/><text fill="#000000" font-family="sans-serif" font-size="7" lengthAdjust="spacing" textLength="64.5" x="454" y="219.9648">:CheckUpRepository</text><rect fill="#E3E3E3" height="16.3105" rx="1.25" ry="1.25" style="stroke:#181818;stroke-width:0.25;" width="66" x="527" y="34.3105"/><text fill="#000000" font-family="sans-serif" font-size="7" lengthAdjust="spacing" textLength="59" x="530.5" y="45.3643">:VehicleRepository</text><rect fill="#E3E3E3" height="16.3105" rx="1.25" ry="1.25" style="stroke:#181818;stroke-width:0.25;" width="66" x="527" y="208.9111"/><text fill="#000000" font-family="sans-serif" font-size="7" lengthAdjust="spacing" textLength="59" x="530.5" y="219.9648">:VehicleRepository</text><rect fill="#E3E3E3" height="16.3105" rx="1.25" ry="1.25" style="stroke:#181818;stroke-width:0.25;" width="132.5" x="598" y="34.3105"/><text fill="#000000" font-family="sans-serif" font-size="7" lengthAdjust="spacing" textLength="125.5" x="601.5" y="45.3643">:VehicleNeedingMaintenanceRepository</text><rect fill="#E3E3E3" height="16.3105" rx="1.25" ry="1.25" style="stroke:#181818;stroke-width:0.25;" width="132.5" x="598" y="208.9111"/><text fill="#000000" font-family="sans-serif" font-size="7" lengthAdjust="spacing" textLength="125.5" x="601.5" y="219.9648">:VehicleNeedingMaintenanceRepository</text><rect fill="#E3E3E3" height="16.3105" rx="1.25" ry="1.25" style="stroke:#181818;stroke-width:0.25;" width="109.5" x="735.5" y="34.3105"/><text fill="#000000" font-family="sans-serif" font-size="7" lengthAdjust="spacing" textLength="102.5" x="739" y="45.3643">:VehicleNeedingMaintenanceList</text><rect fill="#E3E3E3" height="16.3105" rx="1.25" ry="1.25" style="stroke:#181818;stroke-width:0.25;" width="109.5" x="735.5" y="208.9111"/><text fill="#000000" font-family="sans-serif" font-size="7" lengthAdjust="spacing" textLength="102.5" x="739" y="219.9648">:VehicleNeedingMaintenanceList</text><rect fill="#FFFFFF" height="144.29" style="stroke:#181818;stroke-width:0.5;" width="5" x="37.75" y="56.1211"/><rect fill="#FFFFFF" height="137.1445" style="stroke:#181818;stroke-width:0.5;" width="5" x="201.75" y="67.7666"/><rect fill="#FFFFFF" height="96.3535" style="stroke:#181818;stroke-width:0.5;" width="5" x="324.75" y="88.4121"/><rect fill="#FFFFFF" height="15.6455" style="stroke:#181818;stroke-width:0.5;" width="5" x="787.75" y="153.4746"/><polygon fill="#181818" points="195.75,65.7666,200.75,67.7666,195.75,69.7666,197.75,67.7666" style="stroke:#181818;stroke-width:0.5;"/><line style="stroke:#181818;stroke-width:0.5;" x1="42.75" x2="198.75" y1="67.7666" y2="67.7666"/><text fill="#000000" font-family="sans-serif" font-size="6.5" font-weight="bold" lengthAdjust="spacing" textLength="3.5" x="46.25" y="65.1353">1</text><text fill="#000000" font-family="sans-serif" font-size="6.5" lengthAdjust="spacing" textLength="106.5" x="51.75" y="65.1353">ask to list vehicles needing check-up</text><polygon fill="#181818" points="256.5,81.4121,261.5,83.4121,256.5,85.4121,258.5,83.4121" style="stroke:#181818;stroke-width:0.5;"/><line style="stroke:#181818;stroke-width:0.5;" x1="206.75" x2="259.5" y1="83.4121" y2="83.4121"/><text fill="#000000" font-family="sans-serif" font-size="6.5" font-weight="bold" lengthAdjust="spacing" textLength="3.5" x="210.25" y="80.7808">2</text><text fill="#000000" font-family="sans-serif" font-size="6.5" lengthAdjust="spacing" textLength="18" x="215.75" y="80.7808">create</text><rect fill="#E3E3E3" height="16.3105" rx="1.25" ry="1.25" style="stroke:#181818;stroke-width:0.25;" width="129.5" x="262.5" y="71.7666"/><text fill="#000000" font-family="sans-serif" font-size="7" lengthAdjust="spacing" textLength="122.5" x="266" y="82.8203">:VehicleNeedingMaintenanceController</text><rect fill="none" height="21.626" style="stroke:#000000;stroke-width:0.75;" width="132.5" x="261" y="93.5771"/><path d="M261,93.5771 L292,93.5771 L292,98.0771 L287,103.0771 L261,103.0771 L261,93.5771 " fill="#EEEEEE" style="stroke:#000000;stroke-width:1.0;"/><text fill="#000000" font-family="sans-serif" font-size="6.5" font-weight="bold" lengthAdjust="spacing" textLength="8.5" x="267.5" y="101.5913">ref</text><text fill="#000000" font-family="sans-serif" font-size="6" lengthAdjust="spacing" textLength="48" x="303.25" y="111.5518">Get CheckUp List</text><rect fill="none" height="21.626" style="stroke:#000000;stroke-width:0.75;" width="132.5" x="261" y="117.7031"/><path d="M261,117.7031 L292,117.7031 L292,122.2031 L287,127.2031 L261,127.2031 L261,117.7031 " fill="#EEEEEE" style="stroke:#000000;stroke-width:1.0;"/><text fill="#000000" font-family="sans-serif" font-size="6.5" font-weight="bold" lengthAdjust="spacing" textLength="8.5" x="267.5" y="125.7173">ref</text><text fill="#000000" font-family="sans-serif" font-size="6" lengthAdjust="spacing" textLength="42.5" x="306" y="135.6777">Get Vehicle List</text><polygon fill="#181818" points="781.75,151.4746,786.75,153.4746,781.75,155.4746,783.75,153.4746" style="stroke:#181818;stroke-width:0.5;"/><line style="stroke:#181818;stroke-width:0.5;" x1="329.75" x2="784.75" y1="153.4746" y2="153.4746"/><text fill="#000000" font-family="sans-serif" font-size="6.5" font-weight="bold" lengthAdjust="spacing" textLength="3.5" x="333.25" y="150.8433">3</text><text fill="#000000" font-family="sans-serif" font-size="6.5" lengthAdjust="spacing" textLength="184.5" x="338.75" y="150.8433">getVehiclesNeedingMaintenanceList (vehiclesList, checkUpList)</text><polygon fill="#181818" points="335.25,167.1201,330.25,169.1201,335.25,171.1201,333.25,169.1201" style="stroke:#181818;stroke-width:0.5;"/><line style="stroke:#181818;stroke-width:0.5;stroke-dasharray:2.0,2.0;" x1="332.25" x2="789.75" y1="169.1201" y2="169.1201"/><text fill="#000000" font-family="sans-serif" font-size="6.5" font-weight="bold" lengthAdjust="spacing" textLength="3.5" x="338.25" y="166.4888">4</text><text fill="#000000" font-family="sans-serif" font-size="6.5" lengthAdjust="spacing" textLength="94" x="343.75" y="166.4888">vehiclesNeedingMaintenanceList</text><polygon fill="#181818" points="212.25,182.7656,207.25,184.7656,212.25,186.7656,210.25,184.7656" style="stroke:#181818;stroke-width:0.5;"/><line style="stroke:#181818;stroke-width:0.5;" x1="209.25" x2="326.75" y1="184.7656" y2="184.7656"/><text fill="#000000" font-family="sans-serif" font-size="6.5" font-weight="bold" lengthAdjust="spacing" textLength="3.5" x="215.25" y="182.1343">5</text><text fill="#000000" font-family="sans-serif" font-size="6.5" lengthAdjust="spacing" textLength="94" x="220.75" y="182.1343">vehiclesNeedingMaintenanceList</text><polygon fill="#181818" points="45.75,198.4111,40.75,200.4111,45.75,202.4111,43.75,200.4111" style="stroke:#181818;stroke-width:0.5;"/><line style="stroke:#181818;stroke-width:0.5;" x1="42.75" x2="201.25" y1="200.4111" y2="200.4111"/><text fill="#000000" font-family="sans-serif" font-size="6.5" font-weight="bold" lengthAdjust="spacing" textLength="3.5" x="48.75" y="197.7798">6</text><text fill="#000000" font-family="sans-serif" font-size="6.5" lengthAdjust="spacing" textLength="141.5" x="54.25" y="197.7798">displays the list of vehicles needing the check-up</text><!--SRC=[dLF1Ri8m3BttAonE6ne_qCCkQ4n8i0Eid7R9KaCZsYHBKYR-VavQIYaTLEJKndxlsNcstGkfcM4554egdXbL83XJOcIRY6PyptQuTiSSmI1tJExoTeBDMAf-XTp1bkKMeuYLJico-4P3tzmf0wCDPe8JdiaKtdvAeGkKxal2B4Tqi6II5Cm8c8NDR1aHhnDSQ2OTZE8Q-u6OaiYI2UbGCiancKE09FEXYAcIpgWyhxMcdwj51xf2hQoWcWNQaDDS7DV2DqwjTI3J3Fa-qUV4YhjxsrzZ1xLP3Msb0xoC32LP2EkwS7yNV1C7vZ3u4K5zw0Sch_JW41Dg3qv1Jkbmg0Gio4e2kEz-Kkepj24ajvfBVuYCABqLup7HSeEKTPdIO8DX5w5m36v17T1KSVZdlDEarQv0QF8g0sawYQj7OQ34IUOqxlqoRQMRL13K_FDq_8bXXwuMiVssmjF95F_tKZcIQF_pV4-rUU-hiRYDwvOmgOsDcm7fh_KURugFLdHwlp2nZnVHAg1_1AiXzkiHGogipjdHWikmMW-rlTuG7pnlIKl0BzmV]--></g></svg>