<?xml version="1.0" encoding="us-ascii" standalone="no"?><svg xmlns="http://www.w3.org/2000/svg" xmlns:xlink="http://www.w3.org/1999/xlink" contentStyleType="text/css" height="380px" preserveAspectRatio="none" style="width:320px;height:380px;background:#FFFFFF;" version="1.1" viewBox="0 0 320 380" width="320px" zoomAndPan="magnify"><defs/><g><rect fill="#FFFFFF" height="215.4063" style="stroke:#181818;stroke-width:1.0;" width="10" x="113" y="90.5332"/><rect fill="none" height="170.1152" style="stroke:#000000;stroke-width:1.5;" width="260.5" x="53.5" y="105.5332"/><line style="stroke:#181818;stroke-width:0.5;stroke-dasharray:5.0,5.0;" x1="117.5" x2="117.5" y1="57.2422" y2="323.9395"/><line style="stroke:#181818;stroke-width:0.5;stroke-dasharray:5.0,5.0;" x1="283" x2="283" y1="165.9453" y2="323.9395"/><rect fill="#E3E3E3" height="51.2422" rx="2.5" ry="2.5" style="stroke:#181818;stroke-width:0.5;" width="109" x="63.5" y="5"/><text fill="#000000" font-family="sans-serif" font-size="14" lengthAdjust="spacing" textLength="95" x="70.5" y="27.1074">skillRepository:</text><text fill="#000000" font-family="sans-serif" font-size="14" lengthAdjust="spacing" textLength="93" x="71.5" y="45.7285">SkillRepository</text><rect fill="#E3E3E3" height="51.2422" rx="2.5" ry="2.5" style="stroke:#181818;stroke-width:0.5;" width="109" x="63.5" y="322.9395"/><text fill="#000000" font-family="sans-serif" font-size="14" lengthAdjust="spacing" textLength="95" x="70.5" y="345.0469">skillRepository:</text><text fill="#000000" font-family="sans-serif" font-size="14" lengthAdjust="spacing" textLength="93" x="71.5" y="363.668">SkillRepository</text><rect fill="#E3E3E3" height="51.2422" rx="2.5" ry="2.5" style="stroke:#181818;stroke-width:0.5;" width="41" x="263" y="322.9395"/><text fill="#000000" font-family="sans-serif" font-size="14" lengthAdjust="spacing" textLength="27" x="270" y="345.0469">skill:</text><text fill="#000000" font-family="sans-serif" font-size="14" lengthAdjust="spacing" textLength="25" x="271" y="363.668">Skill</text><rect fill="#FFFFFF" height="215.4063" style="stroke:#181818;stroke-width:1.0;" width="10" x="113" y="90.5332"/><polygon fill="#181818" points="101,86.5332,111,90.5332,101,94.5332,105,90.5332" style="stroke:#181818;stroke-width:1.0;"/><line style="stroke:#181818;stroke-width:1.0;" x1="0" x2="107" y1="90.5332" y2="90.5332"/><text fill="#000000" font-family="sans-serif" font-size="13" font-weight="bold" lengthAdjust="spacing" textLength="14" x="7" y="85.2705">12</text><text fill="#000000" font-family="sans-serif" font-size="13" lengthAdjust="spacing" textLength="76" x="25" y="85.2705">registerSkill()</text><path d="M53.5,105.5332 L178.5,105.5332 L178.5,114.8242 L168.5,124.8242 L53.5,124.8242 L53.5,105.5332 " fill="#EEEEEE" style="stroke:#000000;stroke-width:1.5;"/><rect fill="none" height="170.1152" style="stroke:#000000;stroke-width:1.5;" width="260.5" x="53.5" y="105.5332"/><text fill="#000000" font-family="sans-serif" font-size="13" font-weight="bold" lengthAdjust="spacing" textLength="80" x="68.5" y="120.5615">register Skill</text><polygon fill="#181818" points="251,144.1152,261,148.1152,251,152.1152,255,148.1152" style="stroke:#181818;stroke-width:1.0;"/><line style="stroke:#181818;stroke-width:1.0;" x1="123" x2="257" y1="148.1152" y2="148.1152"/><text fill="#000000" font-family="sans-serif" font-size="13" font-weight="bold" lengthAdjust="spacing" textLength="25" x="130" y="142.8525">12.1</text><text fill="#000000" font-family="sans-serif" font-size="13" lengthAdjust="spacing" textLength="87" x="159" y="142.8525">register (name)</text><rect fill="#E3E3E3" height="51.2422" rx="2.5" ry="2.5" style="stroke:#181818;stroke-width:0.5;" width="41" x="263" y="124.8242"/><text fill="#000000" font-family="sans-serif" font-size="14" lengthAdjust="spacing" textLength="27" x="270" y="146.9316">skill:</text><text fill="#000000" font-family="sans-serif" font-size="14" lengthAdjust="spacing" textLength="25" x="271" y="165.5527">Skill</text><line style="stroke:#181818;stroke-width:1.0;" x1="123" x2="165" y1="210.3574" y2="210.3574"/><line style="stroke:#181818;stroke-width:1.0;" x1="165" x2="165" y1="210.3574" y2="223.3574"/><line style="stroke:#181818;stroke-width:1.0;" x1="124" x2="165" y1="223.3574" y2="223.3574"/><polygon fill="#181818" points="134,219.3574,124,223.3574,134,227.3574,130,223.3574" style="stroke:#181818;stroke-width:1.0;"/><text fill="#000000" font-family="sans-serif" font-size="13" font-weight="bold" lengthAdjust="spacing" textLength="25" x="130" y="205.0947">12.2</text><text fill="#000000" font-family="sans-serif" font-size="13" lengthAdjust="spacing" textLength="81" x="159" y="205.0947">addSkill (skill)</text><line style="stroke:#181818;stroke-width:1.0;" x1="123" x2="165" y1="254.6484" y2="254.6484"/><line style="stroke:#181818;stroke-width:1.0;" x1="165" x2="165" y1="254.6484" y2="267.6484"/><line style="stroke:#181818;stroke-width:1.0;" x1="124" x2="165" y1="267.6484" y2="267.6484"/><polygon fill="#181818" points="134,263.6484,124,267.6484,134,271.6484,130,267.6484" style="stroke:#181818;stroke-width:1.0;"/><text fill="#000000" font-family="sans-serif" font-size="13" font-weight="bold" lengthAdjust="spacing" textLength="25" x="130" y="249.3857">12.3</text><text fill="#000000" font-family="sans-serif" font-size="13" lengthAdjust="spacing" textLength="103" x="159" y="249.3857">validateSkill (skill)</text><polygon fill="#181818" points="11,301.9395,1,305.9395,11,309.9395,7,305.9395" style="stroke:#181818;stroke-width:1.0;"/><line style="stroke:#181818;stroke-width:1.0;stroke-dasharray:2.0,2.0;" x1="5" x2="117" y1="305.9395" y2="305.9395"/><text fill="#000000" font-family="sans-serif" font-size="13" font-weight="bold" lengthAdjust="spacing" textLength="14" x="17" y="300.6768">13</text><text fill="#000000" font-family="sans-serif" font-size="13" lengthAdjust="spacing" textLength="23" x="35" y="300.6768">skill</text><!--SRC=[ZP2zRiCm38HtFWMH9Ku01qYx1KMt34Kp5CtQXR4OMuWi6fASDczVMKRyWnP5jGWwykCTvI_QDkIenbgi59MJcZ6ubi4FbOQA2vLy33V3wBW8P4ipRV0LAVdKjiGp6Sy0r0QnRNrY1x2ij68yYuIJV0548kX2DsG3Bk88Ozwv4Q-3kDlkmnxdoWB9Ow_jttvXxqJVz_foE4pDSVi0WFdpC05tCN-fVM2Nf6mrxzviWOgWhnHuTCLuIYTjCx1z3LBbVWQBpguBibvFt32pLFFg3sHCI4gb5sPfnVz1Lp9QnTXpiWFOgdHF5trCobEUZoFYZ0I1ufzV0F0D]--></g></svg>