<?xml version="1.0" encoding="us-ascii" standalone="no"?><svg xmlns="http://www.w3.org/2000/svg" xmlns:xlink="http://www.w3.org/1999/xlink" contentStyleType="text/css" height="698px" preserveAspectRatio="none" style="width:447px;height:698px;background:#FFFFFF;" version="1.1" viewBox="0 0 447 698" width="447px" zoomAndPan="magnify"><defs/><g><!--class Skill--><g id="elem_Skill"><rect codeLine="9" fill="#F1F1F1" height="103.8633" id="Skill" rx="2.5" ry="2.5" style="stroke:#181818;stroke-width:0.5;" width="127" x="58.5" y="588"/><ellipse cx="105.25" cy="604" fill="#ADD1B2" rx="11" ry="11" style="stroke:#181818;stroke-width:1.0;"/><path d="M108.0156,599.875 Q108.1719,599.6563 108.3594,599.5469 Q108.5469,599.4375 108.7656,599.4375 Q109.1406,599.4375 109.375,599.7031 Q109.6094,599.9531 109.6094,600.5625 L109.6094,602.0156 Q109.6094,602.625 109.375,602.8906 Q109.1406,603.1563 108.7656,603.1563 Q108.4219,603.1563 108.2188,602.9531 Q108.0156,602.7656 107.9063,602.25 Q107.8594,601.8906 107.6719,601.7031 Q107.3438,601.3281 106.7344,601.1094 Q106.125,600.8906 105.5,600.8906 Q104.7344,600.8906 104.0938,601.2188 Q103.4688,601.5469 102.9688,602.2969 Q102.4844,603.0469 102.4844,604.0781 L102.4844,605.1719 Q102.4844,606.4063 103.375,607.2344 Q104.2656,608.0469 105.8594,608.0469 Q106.7969,608.0469 107.4531,607.7969 Q107.8438,607.6406 108.2656,607.2031 Q108.5313,606.9375 108.6719,606.8594 Q108.8281,606.7813 109.0313,606.7813 Q109.3594,606.7813 109.6094,607.0469 Q109.875,607.2969 109.875,607.6406 Q109.875,607.9844 109.5313,608.3906 Q109.0313,608.9688 108.2344,609.2969 Q107.1563,609.75 105.8594,609.75 Q104.3438,609.75 103.1406,609.125 Q102.1563,608.625 101.4688,607.5625 Q100.7813,606.4844 100.7813,605.2031 L100.7813,604.0469 Q100.7813,602.7188 101.3906,601.5781 Q102.0156,600.4219 103.1094,599.8125 Q104.2031,599.1875 105.4375,599.1875 Q106.1719,599.1875 106.8125,599.3594 Q107.4688,599.5156 108.0156,599.875 Z " fill="#000000"/><text fill="#000000" font-family="sans-serif" font-size="14" lengthAdjust="spacing" textLength="25" x="125.75" y="609.7969">Skill</text><line style="stroke:#181818;stroke-width:0.5;" x1="59.5" x2="184.5" y1="620" y2="620"/><text fill="#000000" font-family="sans-serif" font-size="14" lengthAdjust="spacing" textLength="81" x="64.5" y="639.1074">-String name</text><line style="stroke:#181818;stroke-width:0.5;" x1="59.5" x2="184.5" y1="646.6211" y2="646.6211"/><text fill="#000000" font-family="sans-serif" font-size="14" lengthAdjust="spacing" textLength="78" x="64.5" y="665.7285">+Skill(name)</text><text fill="#000000" font-family="sans-serif" font-size="14" lengthAdjust="spacing" textLength="115" x="64.5" y="684.3496">+validateSkill(skill)</text></g><!--class HRM--><g id="elem_HRM"><rect codeLine="16" fill="#F1F1F1" height="66.6211" id="HRM" rx="2.5" ry="2.5" style="stroke:#181818;stroke-width:0.5;" width="62" x="7" y="442.5"/><ellipse cx="22" cy="458.5" fill="#ADD1B2" rx="11" ry="11" style="stroke:#181818;stroke-width:1.0;"/><path d="M24.7656,454.375 Q24.9219,454.1563 25.1094,454.0469 Q25.2969,453.9375 25.5156,453.9375 Q25.8906,453.9375 26.125,454.2031 Q26.3594,454.4531 26.3594,455.0625 L26.3594,456.5156 Q26.3594,457.125 26.125,457.3906 Q25.8906,457.6563 25.5156,457.6563 Q25.1719,457.6563 24.9688,457.4531 Q24.7656,457.2656 24.6563,456.75 Q24.6094,456.3906 24.4219,456.2031 Q24.0938,455.8281 23.4844,455.6094 Q22.875,455.3906 22.25,455.3906 Q21.4844,455.3906 20.8438,455.7188 Q20.2188,456.0469 19.7188,456.7969 Q19.2344,457.5469 19.2344,458.5781 L19.2344,459.6719 Q19.2344,460.9063 20.125,461.7344 Q21.0156,462.5469 22.6094,462.5469 Q23.5469,462.5469 24.2031,462.2969 Q24.5938,462.1406 25.0156,461.7031 Q25.2813,461.4375 25.4219,461.3594 Q25.5781,461.2813 25.7813,461.2813 Q26.1094,461.2813 26.3594,461.5469 Q26.625,461.7969 26.625,462.1406 Q26.625,462.4844 26.2813,462.8906 Q25.7813,463.4688 24.9844,463.7969 Q23.9063,464.25 22.6094,464.25 Q21.0938,464.25 19.8906,463.625 Q18.9063,463.125 18.2188,462.0625 Q17.5313,460.9844 17.5313,459.7031 L17.5313,458.5469 Q17.5313,457.2188 18.1406,456.0781 Q18.7656,454.9219 19.8594,454.3125 Q20.9531,453.6875 22.1875,453.6875 Q22.9219,453.6875 23.5625,453.8594 Q24.2188,454.0156 24.7656,454.375 Z " fill="#000000"/><text fill="#000000" font-family="sans-serif" font-size="14" lengthAdjust="spacing" textLength="30" x="36" y="464.2969">HRM</text><line style="stroke:#181818;stroke-width:0.5;" x1="8" x2="68" y1="474.5" y2="474.5"/><text fill="#000000" font-family="sans-serif" font-size="14" lengthAdjust="spacing" textLength="40" x="13" y="493.6074">-name</text><line style="stroke:#181818;stroke-width:0.5;" x1="8" x2="68" y1="501.1211" y2="501.1211"/></g><!--class SkillRepository--><g id="elem_SkillRepository"><rect codeLine="20" fill="#F1F1F1" height="103.8633" id="SkillRepository" rx="2.5" ry="2.5" style="stroke:#181818;stroke-width:0.5;" width="138" x="175" y="424"/><ellipse cx="195.85" cy="440" fill="#ADD1B2" rx="11" ry="11" style="stroke:#181818;stroke-width:1.0;"/><path d="M198.6156,435.875 Q198.7719,435.6563 198.9594,435.5469 Q199.1469,435.4375 199.3656,435.4375 Q199.7406,435.4375 199.975,435.7031 Q200.2094,435.9531 200.2094,436.5625 L200.2094,438.0156 Q200.2094,438.625 199.975,438.8906 Q199.7406,439.1563 199.3656,439.1563 Q199.0219,439.1563 198.8188,438.9531 Q198.6156,438.7656 198.5063,438.25 Q198.4594,437.8906 198.2719,437.7031 Q197.9438,437.3281 197.3344,437.1094 Q196.725,436.8906 196.1,436.8906 Q195.3344,436.8906 194.6938,437.2188 Q194.0688,437.5469 193.5688,438.2969 Q193.0844,439.0469 193.0844,440.0781 L193.0844,441.1719 Q193.0844,442.4063 193.975,443.2344 Q194.8656,444.0469 196.4594,444.0469 Q197.3969,444.0469 198.0531,443.7969 Q198.4438,443.6406 198.8656,443.2031 Q199.1313,442.9375 199.2719,442.8594 Q199.4281,442.7813 199.6313,442.7813 Q199.9594,442.7813 200.2094,443.0469 Q200.475,443.2969 200.475,443.6406 Q200.475,443.9844 200.1313,444.3906 Q199.6313,444.9688 198.8344,445.2969 Q197.7563,445.75 196.4594,445.75 Q194.9438,445.75 193.7406,445.125 Q192.7563,444.625 192.0688,443.5625 Q191.3813,442.4844 191.3813,441.2031 L191.3813,440.0469 Q191.3813,438.7188 191.9906,437.5781 Q192.6156,436.4219 193.7094,435.8125 Q194.8031,435.1875 196.0375,435.1875 Q196.7719,435.1875 197.4125,435.3594 Q198.0688,435.5156 198.6156,435.875 Z " fill="#000000"/><text fill="#000000" font-family="sans-serif" font-size="14" lengthAdjust="spacing" textLength="93" x="211.15" y="445.7969">SkillRepository</text><line style="stroke:#181818;stroke-width:0.5;" x1="176" x2="312" y1="456" y2="456"/><line style="stroke:#181818;stroke-width:0.5;" x1="176" x2="312" y1="464" y2="464"/><text fill="#000000" font-family="sans-serif" font-size="14" lengthAdjust="spacing" textLength="87" x="181" y="483.1074">-addSkill(skill)</text><text fill="#000000" font-family="sans-serif" font-size="14" lengthAdjust="spacing" textLength="106" x="181" y="501.7285">-isSkillInList(skill)</text><text fill="#000000" font-family="sans-serif" font-size="14" lengthAdjust="spacing" textLength="126" x="181" y="520.3496">+registerSkill(name)</text></g><!--class Repositories--><g id="elem_Repositories"><rect codeLine="26" fill="#F1F1F1" height="103.8633" id="Repositories" rx="2.5" ry="2.5" style="stroke:#181818;stroke-width:0.5;" width="194" x="246" y="260"/><ellipse cx="299.25" cy="276" fill="#ADD1B2" rx="11" ry="11" style="stroke:#181818;stroke-width:1.0;"/><path d="M302.0156,271.875 Q302.1719,271.6563 302.3594,271.5469 Q302.5469,271.4375 302.7656,271.4375 Q303.1406,271.4375 303.375,271.7031 Q303.6094,271.9531 303.6094,272.5625 L303.6094,274.0156 Q303.6094,274.625 303.375,274.8906 Q303.1406,275.1563 302.7656,275.1563 Q302.4219,275.1563 302.2188,274.9531 Q302.0156,274.7656 301.9063,274.25 Q301.8594,273.8906 301.6719,273.7031 Q301.3438,273.3281 300.7344,273.1094 Q300.125,272.8906 299.5,272.8906 Q298.7344,272.8906 298.0938,273.2188 Q297.4688,273.5469 296.9688,274.2969 Q296.4844,275.0469 296.4844,276.0781 L296.4844,277.1719 Q296.4844,278.4063 297.375,279.2344 Q298.2656,280.0469 299.8594,280.0469 Q300.7969,280.0469 301.4531,279.7969 Q301.8438,279.6406 302.2656,279.2031 Q302.5313,278.9375 302.6719,278.8594 Q302.8281,278.7813 303.0313,278.7813 Q303.3594,278.7813 303.6094,279.0469 Q303.875,279.2969 303.875,279.6406 Q303.875,279.9844 303.5313,280.3906 Q303.0313,280.9688 302.2344,281.2969 Q301.1563,281.75 299.8594,281.75 Q298.3438,281.75 297.1406,281.125 Q296.1563,280.625 295.4688,279.5625 Q294.7813,278.4844 294.7813,277.2031 L294.7813,276.0469 Q294.7813,274.7188 295.3906,273.5781 Q296.0156,272.4219 297.1094,271.8125 Q298.2031,271.1875 299.4375,271.1875 Q300.1719,271.1875 300.8125,271.3594 Q301.4688,271.5156 302.0156,271.875 Z " fill="#000000"/><text fill="#000000" font-family="sans-serif" font-size="14" lengthAdjust="spacing" textLength="79" x="319.75" y="281.7969">Repositories</text><line style="stroke:#181818;stroke-width:0.5;" x1="247" x2="439" y1="292" y2="292"/><line style="stroke:#181818;stroke-width:0.5;" x1="247" x2="439" y1="300" y2="300"/><text fill="#000000" font-family="sans-serif" font-size="14" lengthAdjust="spacing" textLength="94" x="252" y="319.1074">-Repositories()</text><text fill="#000000" font-family="sans-serif" font-size="14" lengthAdjust="spacing" textLength="182" x="252" y="337.7285">+getInstance() : Repositories</text><text fill="#000000" font-family="sans-serif" font-size="14" lengthAdjust="spacing" textLength="131" x="252" y="356.3496">+getSkillRepository()</text></g><!--class RegisterSkillController--><g id="elem_RegisterSkillController"><rect codeLine="32" fill="#F1F1F1" height="85.2422" id="RegisterSkillController" rx="2.5" ry="2.5" style="stroke:#181818;stroke-width:0.5;" width="172" x="107" y="115"/><ellipse cx="122" cy="131" fill="#ADD1B2" rx="11" ry="11" style="stroke:#181818;stroke-width:1.0;"/><path d="M124.7656,126.875 Q124.9219,126.6563 125.1094,126.5469 Q125.2969,126.4375 125.5156,126.4375 Q125.8906,126.4375 126.125,126.7031 Q126.3594,126.9531 126.3594,127.5625 L126.3594,129.0156 Q126.3594,129.625 126.125,129.8906 Q125.8906,130.1563 125.5156,130.1563 Q125.1719,130.1563 124.9688,129.9531 Q124.7656,129.7656 124.6563,129.25 Q124.6094,128.8906 124.4219,128.7031 Q124.0938,128.3281 123.4844,128.1094 Q122.875,127.8906 122.25,127.8906 Q121.4844,127.8906 120.8438,128.2188 Q120.2188,128.5469 119.7188,129.2969 Q119.2344,130.0469 119.2344,131.0781 L119.2344,132.1719 Q119.2344,133.4063 120.125,134.2344 Q121.0156,135.0469 122.6094,135.0469 Q123.5469,135.0469 124.2031,134.7969 Q124.5938,134.6406 125.0156,134.2031 Q125.2813,133.9375 125.4219,133.8594 Q125.5781,133.7813 125.7813,133.7813 Q126.1094,133.7813 126.3594,134.0469 Q126.625,134.2969 126.625,134.6406 Q126.625,134.9844 126.2813,135.3906 Q125.7813,135.9688 124.9844,136.2969 Q123.9063,136.75 122.6094,136.75 Q121.0938,136.75 119.8906,136.125 Q118.9063,135.625 118.2188,134.5625 Q117.5313,133.4844 117.5313,132.2031 L117.5313,131.0469 Q117.5313,129.7188 118.1406,128.5781 Q118.7656,127.4219 119.8594,126.8125 Q120.9531,126.1875 122.1875,126.1875 Q122.9219,126.1875 123.5625,126.3594 Q124.2188,126.5156 124.7656,126.875 Z " fill="#000000"/><text fill="#000000" font-family="sans-serif" font-size="14" lengthAdjust="spacing" textLength="140" x="136" y="136.7969">RegisterSkillController</text><line style="stroke:#181818;stroke-width:0.5;" x1="108" x2="278" y1="147" y2="147"/><line style="stroke:#181818;stroke-width:0.5;" x1="108" x2="278" y1="155" y2="155"/><text fill="#000000" font-family="sans-serif" font-size="14" lengthAdjust="spacing" textLength="158" x="113" y="174.1074">+RegisterSkillController()</text><text fill="#000000" font-family="sans-serif" font-size="14" lengthAdjust="spacing" textLength="126" x="113" y="192.7285">+registerSkill(name)</text></g><!--class RegisterSkillUI--><g id="elem_RegisterSkillUI"><rect codeLine="37" fill="#F1F1F1" height="48" id="RegisterSkillUI" rx="2.5" ry="2.5" style="stroke:#181818;stroke-width:0.5;" width="122" x="132" y="7"/><ellipse cx="147" cy="23" fill="#ADD1B2" rx="11" ry="11" style="stroke:#181818;stroke-width:1.0;"/><path d="M149.7656,18.875 Q149.9219,18.6563 150.1094,18.5469 Q150.2969,18.4375 150.5156,18.4375 Q150.8906,18.4375 151.125,18.7031 Q151.3594,18.9531 151.3594,19.5625 L151.3594,21.0156 Q151.3594,21.625 151.125,21.8906 Q150.8906,22.1563 150.5156,22.1563 Q150.1719,22.1563 149.9688,21.9531 Q149.7656,21.7656 149.6563,21.25 Q149.6094,20.8906 149.4219,20.7031 Q149.0938,20.3281 148.4844,20.1094 Q147.875,19.8906 147.25,19.8906 Q146.4844,19.8906 145.8438,20.2188 Q145.2188,20.5469 144.7188,21.2969 Q144.2344,22.0469 144.2344,23.0781 L144.2344,24.1719 Q144.2344,25.4063 145.125,26.2344 Q146.0156,27.0469 147.6094,27.0469 Q148.5469,27.0469 149.2031,26.7969 Q149.5938,26.6406 150.0156,26.2031 Q150.2813,25.9375 150.4219,25.8594 Q150.5781,25.7813 150.7813,25.7813 Q151.1094,25.7813 151.3594,26.0469 Q151.625,26.2969 151.625,26.6406 Q151.625,26.9844 151.2813,27.3906 Q150.7813,27.9688 149.9844,28.2969 Q148.9063,28.75 147.6094,28.75 Q146.0938,28.75 144.8906,28.125 Q143.9063,27.625 143.2188,26.5625 Q142.5313,25.4844 142.5313,24.2031 L142.5313,23.0469 Q142.5313,21.7188 143.1406,20.5781 Q143.7656,19.4219 144.8594,18.8125 Q145.9531,18.1875 147.1875,18.1875 Q147.9219,18.1875 148.5625,18.3594 Q149.2188,18.5156 149.7656,18.875 Z " fill="#000000"/><text fill="#000000" font-family="sans-serif" font-size="14" lengthAdjust="spacing" textLength="90" x="161" y="28.7969">RegisterSkillUI</text><line style="stroke:#181818;stroke-width:0.5;" x1="133" x2="253" y1="39" y2="39"/><line style="stroke:#181818;stroke-width:0.5;" x1="133" x2="253" y1="47" y2="47"/></g><!--link RegisterSkillUI to RegisterSkillController--><g id="link_RegisterSkillUI_RegisterSkillController"><path codeLine="40" d="M193,55.13 C193,71.86 193,88.94 193,108.86 " fill="none" id="RegisterSkillUI-to-RegisterSkillController" style="stroke:#181818;stroke-width:1.0;stroke-dasharray:7.0,7.0;"/><polygon fill="#181818" points="193,114.86,197,105.86,193,109.86,189,105.86,193,114.86" style="stroke:#181818;stroke-width:1.0;"/></g><!--link RegisterSkillController to Repositories--><g id="link_RegisterSkillController_Repositories"><path codeLine="41" d="M233.99,200.17 C252.12,218.6 269.4028,236.1722 288.4928,255.5822 " fill="none" id="RegisterSkillController-to-Repositories" style="stroke:#181818;stroke-width:1.0;stroke-dasharray:7.0,7.0;"/><polygon fill="#181818" points="292.7,259.86,289.241,250.6385,289.194,256.2952,283.5373,256.2482,292.7,259.86" style="stroke:#181818;stroke-width:1.0;"/></g><!--link RegisterSkillController to SkillRepository--><g id="link_RegisterSkillController_SkillRepository"><path codeLine="42" d="M199.72,200.2 C209,257.78 224.766,355.6163 234.786,417.8363 " fill="none" id="RegisterSkillController-to-SkillRepository" style="stroke:#181818;stroke-width:1.0;stroke-dasharray:7.0,7.0;"/><polygon fill="#181818" points="235.74,423.76,238.2582,414.2385,234.945,418.8236,230.3599,415.5105,235.74,423.76" style="stroke:#181818;stroke-width:1.0;"/></g><!--link RegisterSkillController to Skill--><g id="link_RegisterSkillController_Skill"><path codeLine="43" d="M186.82,200.3 C173.83,288.21 144.6073,486.0345 130.4673,581.7045 " fill="none" id="RegisterSkillController-to-Skill" style="stroke:#181818;stroke-width:1.0;stroke-dasharray:7.0,7.0;"/><polygon fill="#181818" points="129.59,587.64,134.8629,579.3216,130.3211,582.6937,126.9489,578.1519,129.59,587.64" style="stroke:#181818;stroke-width:1.0;"/></g><!--link Repositories to SkillRepository--><g id="link_Repositories_SkillRepository"><path codeLine="44" d="M311.68,364.26 C300.06,383.26 290.0285,399.6802 278.4185,418.6802 " fill="none" id="Repositories-to-SkillRepository" style="stroke:#181818;stroke-width:1.0;"/><polygon fill="#181818" points="275.29,423.8,283.3959,418.2059,277.8971,419.5335,276.5695,414.0346,275.29,423.8" style="stroke:#181818;stroke-width:1.0;"/></g><!--link HRM to Skill--><g id="link_HRM_Skill"><path codeLine="45" d="M55,509.78 C66.6,532.16 79.4377,556.9237 92.6677,582.4337 " fill="none" id="HRM-to-Skill" style="stroke:#181818;stroke-width:1.0;"/><polygon fill="#181818" points="95.43,587.76,94.8374,577.929,93.1281,583.3214,87.7356,581.6121,95.43,587.76" style="stroke:#181818;stroke-width:1.0;"/></g><!--link SkillRepository to Skill--><g id="link_SkillRepository_Skill"><path codeLine="46" d="M205.4,528.26 C191.09,547.26 178.4797,564.0073 164.1697,583.0073 " fill="none" id="SkillRepository-to-Skill" style="stroke:#181818;stroke-width:1.0;"/><polygon fill="#181818" points="160.56,587.8,169.1697,583.0174,163.5681,583.8061,162.7794,578.2045,160.56,587.8" style="stroke:#181818;stroke-width:1.0;"/></g><!--SRC=[ZL91JiCm4BplA_P6ggWLPmv8Y0kHogKH3p39DbtLjIDx0GNKl-CqhUi41V31acV6Cxjh-psRLZbrm5PLUzLGAPqcT5I9Ceqcy57WTwgs7smQt2hjKqQp8UbQmjRghZz0GbPQUVyWulZrJQYeh2dva_0Mu4RJLb0iEcvsWZNtgMmDmEaEbdlM6hy0mrfY6Hn2jb67ODz3-I38UcHnHjwLvbe93OplzmKSBuPFc-TeT_8vZg8sr5hFObqNLQgkHrO3olu45cRDNb8g3uDh0aOkBIscn00c7oDICBlOD2I5yU49AieMU3SINIMJghDHL5B7epNYhDRapgdv79_ziu-4V2c2QQ2cu6frFvS2SzKDTv9MVnDEklzR2wFvBvS_BVeF4d6OVeeh0_0D]--></g></svg>