<?xml version="1.0" encoding="us-ascii" standalone="no"?><svg xmlns="http://www.w3.org/2000/svg" xmlns:xlink="http://www.w3.org/1999/xlink" contentStyleType="text/css" height="698px" preserveAspectRatio="none" style="width:618px;height:698px;background:#FFFFFF;" version="1.1" viewBox="0 0 618 698" width="618px" zoomAndPan="magnify"><defs/><g><!--class Skill--><g id="elem_Skill"><rect codeLine="9" fill="#F1F1F1" height="103.8633" id="Skill" rx="2.5" ry="2.5" style="stroke:#181818;stroke-width:0.5;" width="127" x="230" y="588"/><ellipse cx="276.75" cy="604" fill="#ADD1B2" rx="11" ry="11" style="stroke:#181818;stroke-width:1.0;"/><path d="M279.5156,599.875 Q279.6719,599.6563 279.8594,599.5469 Q280.0469,599.4375 280.2656,599.4375 Q280.6406,599.4375 280.875,599.7031 Q281.1094,599.9531 281.1094,600.5625 L281.1094,602.0156 Q281.1094,602.625 280.875,602.8906 Q280.6406,603.1563 280.2656,603.1563 Q279.9219,603.1563 279.7188,602.9531 Q279.5156,602.7656 279.4063,602.25 Q279.3594,601.8906 279.1719,601.7031 Q278.8438,601.3281 278.2344,601.1094 Q277.625,600.8906 277,600.8906 Q276.2344,600.8906 275.5938,601.2188 Q274.9688,601.5469 274.4688,602.2969 Q273.9844,603.0469 273.9844,604.0781 L273.9844,605.1719 Q273.9844,606.4063 274.875,607.2344 Q275.7656,608.0469 277.3594,608.0469 Q278.2969,608.0469 278.9531,607.7969 Q279.3438,607.6406 279.7656,607.2031 Q280.0313,606.9375 280.1719,606.8594 Q280.3281,606.7813 280.5313,606.7813 Q280.8594,606.7813 281.1094,607.0469 Q281.375,607.2969 281.375,607.6406 Q281.375,607.9844 281.0313,608.3906 Q280.5313,608.9688 279.7344,609.2969 Q278.6563,609.75 277.3594,609.75 Q275.8438,609.75 274.6406,609.125 Q273.6563,608.625 272.9688,607.5625 Q272.2813,606.4844 272.2813,605.2031 L272.2813,604.0469 Q272.2813,602.7188 272.8906,601.5781 Q273.5156,600.4219 274.6094,599.8125 Q275.7031,599.1875 276.9375,599.1875 Q277.6719,599.1875 278.3125,599.3594 Q278.9688,599.5156 279.5156,599.875 Z " fill="#000000"/><text fill="#000000" font-family="sans-serif" font-size="14" lengthAdjust="spacing" textLength="25" x="297.25" y="609.7969">Skill</text><line style="stroke:#181818;stroke-width:0.5;" x1="231" x2="356" y1="620" y2="620"/><text fill="#000000" font-family="sans-serif" font-size="14" lengthAdjust="spacing" textLength="81" x="236" y="639.1074">-String name</text><line style="stroke:#181818;stroke-width:0.5;" x1="231" x2="356" y1="646.6211" y2="646.6211"/><text fill="#000000" font-family="sans-serif" font-size="14" lengthAdjust="spacing" textLength="78" x="236" y="665.7285">+Skill(name)</text><text fill="#000000" font-family="sans-serif" font-size="14" lengthAdjust="spacing" textLength="115" x="236" y="684.3496">+validateSkill(skill)</text></g><!--class HumanResourcesManager--><g id="elem_HumanResourcesManager"><rect codeLine="16" fill="#F1F1F1" height="85.2422" id="HumanResourcesManager" rx="2.5" ry="2.5" style="stroke:#181818;stroke-width:0.5;" width="233" x="7" y="433.5"/><ellipse cx="36.85" cy="449.5" fill="#ADD1B2" rx="11" ry="11" style="stroke:#181818;stroke-width:1.0;"/><path d="M39.6156,445.375 Q39.7719,445.1563 39.9594,445.0469 Q40.1469,444.9375 40.3656,444.9375 Q40.7406,444.9375 40.975,445.2031 Q41.2094,445.4531 41.2094,446.0625 L41.2094,447.5156 Q41.2094,448.125 40.975,448.3906 Q40.7406,448.6563 40.3656,448.6563 Q40.0219,448.6563 39.8188,448.4531 Q39.6156,448.2656 39.5063,447.75 Q39.4594,447.3906 39.2719,447.2031 Q38.9438,446.8281 38.3344,446.6094 Q37.725,446.3906 37.1,446.3906 Q36.3344,446.3906 35.6938,446.7188 Q35.0688,447.0469 34.5688,447.7969 Q34.0844,448.5469 34.0844,449.5781 L34.0844,450.6719 Q34.0844,451.9063 34.975,452.7344 Q35.8656,453.5469 37.4594,453.5469 Q38.3969,453.5469 39.0531,453.2969 Q39.4438,453.1406 39.8656,452.7031 Q40.1313,452.4375 40.2719,452.3594 Q40.4281,452.2813 40.6313,452.2813 Q40.9594,452.2813 41.2094,452.5469 Q41.475,452.7969 41.475,453.1406 Q41.475,453.4844 41.1313,453.8906 Q40.6313,454.4688 39.8344,454.7969 Q38.7563,455.25 37.4594,455.25 Q35.9438,455.25 34.7406,454.625 Q33.7563,454.125 33.0688,453.0625 Q32.3813,451.9844 32.3813,450.7031 L32.3813,449.5469 Q32.3813,448.2188 32.9906,447.0781 Q33.6156,445.9219 34.7094,445.3125 Q35.8031,444.6875 37.0375,444.6875 Q37.7719,444.6875 38.4125,444.8594 Q39.0688,445.0156 39.6156,445.375 Z " fill="#000000"/><text fill="#000000" font-family="sans-serif" font-size="14" lengthAdjust="spacing" textLength="168" x="54.15" y="455.2969">HumanResourcesManager</text><line style="stroke:#181818;stroke-width:0.5;" x1="8" x2="239" y1="465.5" y2="465.5"/><text fill="#000000" font-family="sans-serif" font-size="14" lengthAdjust="spacing" textLength="40" x="13" y="484.6074">-name</text><line style="stroke:#181818;stroke-width:0.5;" x1="8" x2="239" y1="492.1211" y2="492.1211"/><text fill="#000000" font-family="sans-serif" font-size="14" lengthAdjust="spacing" textLength="221" x="13" y="511.2285">+HumanResourcesManager(name)</text></g><!--class SkillRepository--><g id="elem_SkillRepository"><rect codeLine="21" fill="#F1F1F1" height="103.8633" id="SkillRepository" rx="2.5" ry="2.5" style="stroke:#181818;stroke-width:0.5;" width="138" x="346.5" y="424"/><ellipse cx="367.35" cy="440" fill="#ADD1B2" rx="11" ry="11" style="stroke:#181818;stroke-width:1.0;"/><path d="M370.1156,435.875 Q370.2719,435.6563 370.4594,435.5469 Q370.6469,435.4375 370.8656,435.4375 Q371.2406,435.4375 371.475,435.7031 Q371.7094,435.9531 371.7094,436.5625 L371.7094,438.0156 Q371.7094,438.625 371.475,438.8906 Q371.2406,439.1563 370.8656,439.1563 Q370.5219,439.1563 370.3188,438.9531 Q370.1156,438.7656 370.0063,438.25 Q369.9594,437.8906 369.7719,437.7031 Q369.4438,437.3281 368.8344,437.1094 Q368.225,436.8906 367.6,436.8906 Q366.8344,436.8906 366.1938,437.2188 Q365.5688,437.5469 365.0688,438.2969 Q364.5844,439.0469 364.5844,440.0781 L364.5844,441.1719 Q364.5844,442.4063 365.475,443.2344 Q366.3656,444.0469 367.9594,444.0469 Q368.8969,444.0469 369.5531,443.7969 Q369.9438,443.6406 370.3656,443.2031 Q370.6313,442.9375 370.7719,442.8594 Q370.9281,442.7813 371.1313,442.7813 Q371.4594,442.7813 371.7094,443.0469 Q371.975,443.2969 371.975,443.6406 Q371.975,443.9844 371.6313,444.3906 Q371.1313,444.9688 370.3344,445.2969 Q369.2563,445.75 367.9594,445.75 Q366.4438,445.75 365.2406,445.125 Q364.2563,444.625 363.5688,443.5625 Q362.8813,442.4844 362.8813,441.2031 L362.8813,440.0469 Q362.8813,438.7188 363.4906,437.5781 Q364.1156,436.4219 365.2094,435.8125 Q366.3031,435.1875 367.5375,435.1875 Q368.2719,435.1875 368.9125,435.3594 Q369.5688,435.5156 370.1156,435.875 Z " fill="#000000"/><text fill="#000000" font-family="sans-serif" font-size="14" lengthAdjust="spacing" textLength="93" x="382.65" y="445.7969">SkillRepository</text><line style="stroke:#181818;stroke-width:0.5;" x1="347.5" x2="483.5" y1="456" y2="456"/><line style="stroke:#181818;stroke-width:0.5;" x1="347.5" x2="483.5" y1="464" y2="464"/><text fill="#000000" font-family="sans-serif" font-size="14" lengthAdjust="spacing" textLength="87" x="352.5" y="483.1074">-addSkill(skill)</text><text fill="#000000" font-family="sans-serif" font-size="14" lengthAdjust="spacing" textLength="106" x="352.5" y="501.7285">-isSkillInList(skill)</text><text fill="#000000" font-family="sans-serif" font-size="14" lengthAdjust="spacing" textLength="126" x="352.5" y="520.3496">+registerSkill(name)</text></g><!--class Repositories--><g id="elem_Repositories"><rect codeLine="27" fill="#F1F1F1" height="103.8633" id="Repositories" rx="2.5" ry="2.5" style="stroke:#181818;stroke-width:0.5;" width="194" x="417.5" y="260"/><ellipse cx="470.75" cy="276" fill="#ADD1B2" rx="11" ry="11" style="stroke:#181818;stroke-width:1.0;"/><path d="M473.5156,271.875 Q473.6719,271.6563 473.8594,271.5469 Q474.0469,271.4375 474.2656,271.4375 Q474.6406,271.4375 474.875,271.7031 Q475.1094,271.9531 475.1094,272.5625 L475.1094,274.0156 Q475.1094,274.625 474.875,274.8906 Q474.6406,275.1563 474.2656,275.1563 Q473.9219,275.1563 473.7188,274.9531 Q473.5156,274.7656 473.4063,274.25 Q473.3594,273.8906 473.1719,273.7031 Q472.8438,273.3281 472.2344,273.1094 Q471.625,272.8906 471,272.8906 Q470.2344,272.8906 469.5938,273.2188 Q468.9688,273.5469 468.4688,274.2969 Q467.9844,275.0469 467.9844,276.0781 L467.9844,277.1719 Q467.9844,278.4063 468.875,279.2344 Q469.7656,280.0469 471.3594,280.0469 Q472.2969,280.0469 472.9531,279.7969 Q473.3438,279.6406 473.7656,279.2031 Q474.0313,278.9375 474.1719,278.8594 Q474.3281,278.7813 474.5313,278.7813 Q474.8594,278.7813 475.1094,279.0469 Q475.375,279.2969 475.375,279.6406 Q475.375,279.9844 475.0313,280.3906 Q474.5313,280.9688 473.7344,281.2969 Q472.6563,281.75 471.3594,281.75 Q469.8438,281.75 468.6406,281.125 Q467.6563,280.625 466.9688,279.5625 Q466.2813,278.4844 466.2813,277.2031 L466.2813,276.0469 Q466.2813,274.7188 466.8906,273.5781 Q467.5156,272.4219 468.6094,271.8125 Q469.7031,271.1875 470.9375,271.1875 Q471.6719,271.1875 472.3125,271.3594 Q472.9688,271.5156 473.5156,271.875 Z " fill="#000000"/><text fill="#000000" font-family="sans-serif" font-size="14" lengthAdjust="spacing" textLength="79" x="491.25" y="281.7969">Repositories</text><line style="stroke:#181818;stroke-width:0.5;" x1="418.5" x2="610.5" y1="292" y2="292"/><line style="stroke:#181818;stroke-width:0.5;" x1="418.5" x2="610.5" y1="300" y2="300"/><text fill="#000000" font-family="sans-serif" font-size="14" lengthAdjust="spacing" textLength="94" x="423.5" y="319.1074">-Repositories()</text><text fill="#000000" font-family="sans-serif" font-size="14" lengthAdjust="spacing" textLength="182" x="423.5" y="337.7285">+getInstance() : Repositories</text><text fill="#000000" font-family="sans-serif" font-size="14" lengthAdjust="spacing" textLength="131" x="423.5" y="356.3496">+getSkillRepository()</text></g><!--class RegisterSkillController--><g id="elem_RegisterSkillController"><rect codeLine="33" fill="#F1F1F1" height="85.2422" id="RegisterSkillController" rx="2.5" ry="2.5" style="stroke:#181818;stroke-width:0.5;" width="172" x="278.5" y="115"/><ellipse cx="293.5" cy="131" fill="#ADD1B2" rx="11" ry="11" style="stroke:#181818;stroke-width:1.0;"/><path d="M296.2656,126.875 Q296.4219,126.6563 296.6094,126.5469 Q296.7969,126.4375 297.0156,126.4375 Q297.3906,126.4375 297.625,126.7031 Q297.8594,126.9531 297.8594,127.5625 L297.8594,129.0156 Q297.8594,129.625 297.625,129.8906 Q297.3906,130.1563 297.0156,130.1563 Q296.6719,130.1563 296.4688,129.9531 Q296.2656,129.7656 296.1563,129.25 Q296.1094,128.8906 295.9219,128.7031 Q295.5938,128.3281 294.9844,128.1094 Q294.375,127.8906 293.75,127.8906 Q292.9844,127.8906 292.3438,128.2188 Q291.7188,128.5469 291.2188,129.2969 Q290.7344,130.0469 290.7344,131.0781 L290.7344,132.1719 Q290.7344,133.4063 291.625,134.2344 Q292.5156,135.0469 294.1094,135.0469 Q295.0469,135.0469 295.7031,134.7969 Q296.0938,134.6406 296.5156,134.2031 Q296.7813,133.9375 296.9219,133.8594 Q297.0781,133.7813 297.2813,133.7813 Q297.6094,133.7813 297.8594,134.0469 Q298.125,134.2969 298.125,134.6406 Q298.125,134.9844 297.7813,135.3906 Q297.2813,135.9688 296.4844,136.2969 Q295.4063,136.75 294.1094,136.75 Q292.5938,136.75 291.3906,136.125 Q290.4063,135.625 289.7188,134.5625 Q289.0313,133.4844 289.0313,132.2031 L289.0313,131.0469 Q289.0313,129.7188 289.6406,128.5781 Q290.2656,127.4219 291.3594,126.8125 Q292.4531,126.1875 293.6875,126.1875 Q294.4219,126.1875 295.0625,126.3594 Q295.7188,126.5156 296.2656,126.875 Z " fill="#000000"/><text fill="#000000" font-family="sans-serif" font-size="14" lengthAdjust="spacing" textLength="140" x="307.5" y="136.7969">RegisterSkillController</text><line style="stroke:#181818;stroke-width:0.5;" x1="279.5" x2="449.5" y1="147" y2="147"/><line style="stroke:#181818;stroke-width:0.5;" x1="279.5" x2="449.5" y1="155" y2="155"/><text fill="#000000" font-family="sans-serif" font-size="14" lengthAdjust="spacing" textLength="158" x="284.5" y="174.1074">+RegisterSkillController()</text><text fill="#000000" font-family="sans-serif" font-size="14" lengthAdjust="spacing" textLength="126" x="284.5" y="192.7285">+registerSkill(name)</text></g><!--class RegisterSkillUI--><g id="elem_RegisterSkillUI"><rect codeLine="38" fill="#F1F1F1" height="48" id="RegisterSkillUI" rx="2.5" ry="2.5" style="stroke:#181818;stroke-width:0.5;" width="122" x="303.5" y="7"/><ellipse cx="318.5" cy="23" fill="#ADD1B2" rx="11" ry="11" style="stroke:#181818;stroke-width:1.0;"/><path d="M321.2656,18.875 Q321.4219,18.6563 321.6094,18.5469 Q321.7969,18.4375 322.0156,18.4375 Q322.3906,18.4375 322.625,18.7031 Q322.8594,18.9531 322.8594,19.5625 L322.8594,21.0156 Q322.8594,21.625 322.625,21.8906 Q322.3906,22.1563 322.0156,22.1563 Q321.6719,22.1563 321.4688,21.9531 Q321.2656,21.7656 321.1563,21.25 Q321.1094,20.8906 320.9219,20.7031 Q320.5938,20.3281 319.9844,20.1094 Q319.375,19.8906 318.75,19.8906 Q317.9844,19.8906 317.3438,20.2188 Q316.7188,20.5469 316.2188,21.2969 Q315.7344,22.0469 315.7344,23.0781 L315.7344,24.1719 Q315.7344,25.4063 316.625,26.2344 Q317.5156,27.0469 319.1094,27.0469 Q320.0469,27.0469 320.7031,26.7969 Q321.0938,26.6406 321.5156,26.2031 Q321.7813,25.9375 321.9219,25.8594 Q322.0781,25.7813 322.2813,25.7813 Q322.6094,25.7813 322.8594,26.0469 Q323.125,26.2969 323.125,26.6406 Q323.125,26.9844 322.7813,27.3906 Q322.2813,27.9688 321.4844,28.2969 Q320.4063,28.75 319.1094,28.75 Q317.5938,28.75 316.3906,28.125 Q315.4063,27.625 314.7188,26.5625 Q314.0313,25.4844 314.0313,24.2031 L314.0313,23.0469 Q314.0313,21.7188 314.6406,20.5781 Q315.2656,19.4219 316.3594,18.8125 Q317.4531,18.1875 318.6875,18.1875 Q319.4219,18.1875 320.0625,18.3594 Q320.7188,18.5156 321.2656,18.875 Z " fill="#000000"/><text fill="#000000" font-family="sans-serif" font-size="14" lengthAdjust="spacing" textLength="90" x="332.5" y="28.7969">RegisterSkillUI</text><line style="stroke:#181818;stroke-width:0.5;" x1="304.5" x2="424.5" y1="39" y2="39"/><line style="stroke:#181818;stroke-width:0.5;" x1="304.5" x2="424.5" y1="47" y2="47"/></g><!--link RegisterSkillUI to RegisterSkillController--><g id="link_RegisterSkillUI_RegisterSkillController"><path codeLine="41" d="M364.5,55.13 C364.5,71.86 364.5,88.94 364.5,108.86 " fill="none" id="RegisterSkillUI-to-RegisterSkillController" style="stroke:#181818;stroke-width:1.0;stroke-dasharray:7.0,7.0;"/><polygon fill="#181818" points="364.5,114.86,368.5,105.86,364.5,109.86,360.5,105.86,364.5,114.86" style="stroke:#181818;stroke-width:1.0;"/></g><!--link RegisterSkillController to Repositories--><g id="link_RegisterSkillController_Repositories"><path codeLine="42" d="M405.49,200.17 C423.62,218.6 440.9028,236.1722 459.9928,255.5822 " fill="none" id="RegisterSkillController-to-Repositories" style="stroke:#181818;stroke-width:1.0;stroke-dasharray:7.0,7.0;"/><polygon fill="#181818" points="464.2,259.86,460.741,250.6385,460.694,256.2952,455.0373,256.2482,464.2,259.86" style="stroke:#181818;stroke-width:1.0;"/></g><!--link RegisterSkillController to SkillRepository--><g id="link_RegisterSkillController_SkillRepository"><path codeLine="43" d="M371.22,200.2 C380.5,257.78 396.266,355.6163 406.286,417.8363 " fill="none" id="RegisterSkillController-to-SkillRepository" style="stroke:#181818;stroke-width:1.0;stroke-dasharray:7.0,7.0;"/><polygon fill="#181818" points="407.24,423.76,409.7582,414.2385,406.445,418.8236,401.8599,415.5105,407.24,423.76" style="stroke:#181818;stroke-width:1.0;"/></g><!--link RegisterSkillController to Skill--><g id="link_RegisterSkillController_Skill"><path codeLine="44" d="M358.32,200.3 C345.33,288.21 316.1073,486.0345 301.9673,581.7045 " fill="none" id="RegisterSkillController-to-Skill" style="stroke:#181818;stroke-width:1.0;stroke-dasharray:7.0,7.0;"/><polygon fill="#181818" points="301.09,587.64,306.3629,579.3216,301.8211,582.6937,298.4489,578.1519,301.09,587.64" style="stroke:#181818;stroke-width:1.0;"/></g><!--link Repositories to SkillRepository--><g id="link_Repositories_SkillRepository"><path codeLine="45" d="M483.18,364.26 C471.56,383.26 461.5285,399.6802 449.9185,418.6802 " fill="none" id="Repositories-to-SkillRepository" style="stroke:#181818;stroke-width:1.0;"/><polygon fill="#181818" points="446.79,423.8,454.8959,418.2059,449.3971,419.5335,448.0695,414.0346,446.79,423.8" style="stroke:#181818;stroke-width:1.0;"/></g><!--link HumanResourcesManager to Skill--><g id="link_HumanResourcesManager_Skill"><path codeLine="46" d="M167.28,518.72 C189.41,539.81 212.1255,561.4617 235.5055,583.7317 " fill="none" id="HumanResourcesManager-to-Skill" style="stroke:#181818;stroke-width:1.0;"/><polygon fill="#181818" points="239.85,587.87,236.0921,578.7663,236.2296,584.4215,230.5744,584.559,239.85,587.87" style="stroke:#181818;stroke-width:1.0;"/></g><!--link SkillRepository to Skill--><g id="link_SkillRepository_Skill"><path codeLine="47" d="M376.9,528.26 C362.59,547.26 349.9797,564.0073 335.6697,583.0073 " fill="none" id="SkillRepository-to-Skill" style="stroke:#181818;stroke-width:1.0;"/><polygon fill="#181818" points="332.06,587.8,340.6697,583.0174,335.0681,583.8061,334.2794,578.2045,332.06,587.8" style="stroke:#181818;stroke-width:1.0;"/></g><!--SRC=[ZL91JiCm4Bpx5RwHgch5cGCIua8ak3JY0KkoJLTrxCYx1GNKl-CqhUk45iWXKcR6CpiRyvPi2nuQtKAvXHeBwGngZwM0hGqgZWBUGEK-oDPw3OPJnf15wLhKhJDT_w4IiZJ0_23YwMqdc9VE5lI9-bQf6uDhqUAqfteZkg8-bPnLwd165rioHdyf7Pw5Be93oBRG1FiUcW-2h4TcH-GT35KWE33SlsTgVp9ysZLWLyXkvqla5x2Xhuy11-V1vgBm6BGVZRV2rZ69yrtqWQeQnGyeyG7CxJEnfDGyBBiE6FgqJao90OGS8r8mEzdKABdbyDjAp6RwRYGwIoPJPwEeP8v7PyKxO-A2vjVux9yz4l8r3wQ1ceBBvVsr57Ljkk5CKlKtuQJztrerslzYyTFYygMAIZMz9cT6gMy0]--></g></svg>