<?xml version="1.0" encoding="us-ascii" standalone="no"?><svg xmlns="http://www.w3.org/2000/svg" xmlns:xlink="http://www.w3.org/1999/xlink" contentStyleType="text/css" height="428px" preserveAspectRatio="none" style="width:568px;height:428px;background:#FFFFFF;" version="1.1" viewBox="0 0 568 428" width="568px" zoomAndPan="magnify"><defs/><g><rect fill="#FFFFFF" height="312.2598" style="stroke:#181818;stroke-width:0.5;" width="5" x="30.5" y="56.1211"/><rect fill="#FFFFFF" height="37.4561" style="stroke:#181818;stroke-width:0.5;" width="5" x="220.5" y="67.7666"/><rect fill="#FFFFFF" height="15.6455" style="stroke:#181818;stroke-width:0.5;" width="5" x="220.5" y="120.8682"/><rect fill="#FFFFFF" height="216.2217" style="stroke:#181818;stroke-width:0.5;" width="5" x="220.5" y="152.1592"/><rect fill="#FFFFFF" height="184.9307" style="stroke:#181818;stroke-width:0.5;" width="5" x="297.5" y="167.8047"/><rect fill="#FFFFFF" height="15.6455" style="stroke:#181818;stroke-width:0.5;" width="5" x="363.75" y="183.4502"/><rect fill="#FFFFFF" height="15.6455" style="stroke:#181818;stroke-width:0.5;" width="5" x="417.25" y="214.7412"/><rect fill="#FFFFFF" height="91.0576" style="stroke:#181818;stroke-width:0.5;" width="5" x="474.25" y="246.0322"/><line style="stroke:#181818;stroke-width:0.25;stroke-dasharray:5.0,5.0;" x1="33" x2="33" y1="51.1211" y2="377.3809"/><line style="stroke:#181818;stroke-width:0.25;stroke-dasharray:5.0,5.0;" x1="223" x2="223" y1="51.1211" y2="377.3809"/><line style="stroke:#181818;stroke-width:0.25;stroke-dasharray:5.0,5.0;" x1="300" x2="300" y1="87.6719" y2="377.3809"/><line style="stroke:#181818;stroke-width:0.25;stroke-dasharray:5.0,5.0;" x1="366" x2="366" y1="51.1211" y2="377.3809"/><line style="stroke:#181818;stroke-width:0.25;stroke-dasharray:5.0,5.0;" x1="419.5" x2="419.5" y1="51.1211" y2="377.3809"/><line style="stroke:#181818;stroke-width:0.25;stroke-dasharray:5.0,5.0;" x1="476.5" x2="476.5" y1="51.1211" y2="377.3809"/><line style="stroke:#181818;stroke-width:0.25;stroke-dasharray:5.0,5.0;" x1="554.25" x2="554.25" y1="270.5928" y2="377.3809"/><text fill="#000000" font-family="sans-serif" font-size="7" lengthAdjust="spacing" textLength="58" x="2.5" y="40.0537">Human Resources</text><text fill="#000000" font-family="sans-serif" font-size="7" lengthAdjust="spacing" textLength="28" x="17.5" y="49.3643">Manager</text><ellipse cx="33" cy="6.75" fill="#E3E3E3" rx="4" ry="4" style="stroke:#181818;stroke-width:0.25;"/><path d="M33,10.75 L33,24.25 M26.5,14.75 L39.5,14.75 M33,24.25 L26.5,31.75 M33,24.25 L39.5,31.75 " fill="none" style="stroke:#181818;stroke-width:0.25;"/><text fill="#000000" font-family="sans-serif" font-size="7" lengthAdjust="spacing" textLength="58" x="2.5" y="384.4346">Human Resources</text><text fill="#000000" font-family="sans-serif" font-size="7" lengthAdjust="spacing" textLength="28" x="17.5" y="393.7451">Manager</text><ellipse cx="33" cy="399.752" fill="#E3E3E3" rx="4" ry="4" style="stroke:#181818;stroke-width:0.25;"/><path d="M33,403.752 L33,417.252 M26.5,407.752 L39.5,407.752 M33,417.252 L26.5,424.752 M33,417.252 L39.5,424.752 " fill="none" style="stroke:#181818;stroke-width:0.25;"/><rect fill="#E3E3E3" height="16.3105" rx="1.25" ry="1.25" style="stroke:#181818;stroke-width:0.25;" width="49" x="198.5" y="34.3105"/><text fill="#000000" font-family="sans-serif" font-size="7" lengthAdjust="spacing" textLength="42" x="202" y="45.3643">:CreateSkillUI</text><rect fill="#E3E3E3" height="16.3105" rx="1.25" ry="1.25" style="stroke:#181818;stroke-width:0.25;" width="49" x="198.5" y="376.8809"/><text fill="#000000" font-family="sans-serif" font-size="7" lengthAdjust="spacing" textLength="42" x="202" y="387.9346">:CreateSkillUI</text><rect fill="#E3E3E3" height="16.3105" rx="1.25" ry="1.25" style="stroke:#181818;stroke-width:0.25;" width="74" x="263" y="376.8809"/><text fill="#000000" font-family="sans-serif" font-size="7" lengthAdjust="spacing" textLength="67" x="266.5" y="387.9346">:CreateSkillController</text><rect fill="#E3E3E3" height="16.3105" rx="1.25" ry="1.25" style="stroke:#181818;stroke-width:0.25;" width="48.5" x="342" y="34.3105"/><text fill="#000000" font-family="sans-serif" font-size="7" lengthAdjust="spacing" textLength="41.5" x="345.5" y="45.3643">:Repositories</text><rect fill="#E3E3E3" height="16.3105" rx="1.25" ry="1.25" style="stroke:#181818;stroke-width:0.25;" width="48.5" x="342" y="376.8809"/><text fill="#000000" font-family="sans-serif" font-size="7" lengthAdjust="spacing" textLength="41.5" x="345.5" y="387.9346">:Repositories</text><rect fill="#E3E3E3" height="25.6211" rx="1.25" ry="1.25" style="stroke:#181818;stroke-width:0.25;" width="48.5" x="395.5" y="25"/><text fill="#000000" font-family="sans-serif" font-size="7" lengthAdjust="spacing" textLength="37" x="401.25" y="36.0537">repositories</text><text fill="#000000" font-family="sans-serif" font-size="7" lengthAdjust="spacing" textLength="41.5" x="399" y="45.3643">:Repositories</text><rect fill="#E3E3E3" height="25.6211" rx="1.25" ry="1.25" style="stroke:#181818;stroke-width:0.25;" width="48.5" x="395.5" y="376.8809"/><text fill="#000000" font-family="sans-serif" font-size="7" lengthAdjust="spacing" textLength="37" x="401.25" y="387.9346">repositories</text><text fill="#000000" font-family="sans-serif" font-size="7" lengthAdjust="spacing" textLength="41.5" x="399" y="397.2451">:Repositories</text><rect fill="#E3E3E3" height="25.6211" rx="1.25" ry="1.25" style="stroke:#181818;stroke-width:0.25;" width="55.5" x="449" y="25"/><text fill="#000000" font-family="sans-serif" font-size="7" lengthAdjust="spacing" textLength="48.5" x="452.5" y="36.0537">SkillRepository:</text><text fill="#000000" font-family="sans-serif" font-size="7" lengthAdjust="spacing" textLength="46.5" x="453.5" y="45.3643">SkillRepository</text><rect fill="#E3E3E3" height="25.6211" rx="1.25" ry="1.25" style="stroke:#181818;stroke-width:0.25;" width="55.5" x="449" y="376.8809"/><text fill="#000000" font-family="sans-serif" font-size="7" lengthAdjust="spacing" textLength="48.5" x="452.5" y="387.9346">SkillRepository:</text><text fill="#000000" font-family="sans-serif" font-size="7" lengthAdjust="spacing" textLength="46.5" x="453.5" y="397.2451">SkillRepository</text><rect fill="#E3E3E3" height="25.6211" rx="1.25" ry="1.25" style="stroke:#181818;stroke-width:0.25;" width="21.5" x="543.75" y="376.8809"/><text fill="#000000" font-family="sans-serif" font-size="7" lengthAdjust="spacing" textLength="14.5" x="547.25" y="387.9346">Skill:</text><text fill="#000000" font-family="sans-serif" font-size="7" lengthAdjust="spacing" textLength="13.5" x="547.75" y="397.2451">SKill</text><rect fill="#FFFFFF" height="312.2598" style="stroke:#181818;stroke-width:0.5;" width="5" x="30.5" y="56.1211"/><rect fill="#FFFFFF" height="37.4561" style="stroke:#181818;stroke-width:0.5;" width="5" x="220.5" y="67.7666"/><rect fill="#FFFFFF" height="15.6455" style="stroke:#181818;stroke-width:0.5;" width="5" x="220.5" y="120.8682"/><rect fill="#FFFFFF" height="216.2217" style="stroke:#181818;stroke-width:0.5;" width="5" x="220.5" y="152.1592"/><rect fill="#FFFFFF" height="184.9307" style="stroke:#181818;stroke-width:0.5;" width="5" x="297.5" y="167.8047"/><rect fill="#FFFFFF" height="15.6455" style="stroke:#181818;stroke-width:0.5;" width="5" x="363.75" y="183.4502"/><rect fill="#FFFFFF" height="15.6455" style="stroke:#181818;stroke-width:0.5;" width="5" x="417.25" y="214.7412"/><rect fill="#FFFFFF" height="91.0576" style="stroke:#181818;stroke-width:0.5;" width="5" x="474.25" y="246.0322"/><polygon fill="#181818" points="214.5,65.7666,219.5,67.7666,214.5,69.7666,216.5,67.7666" style="stroke:#181818;stroke-width:0.5;"/><line style="stroke:#181818;stroke-width:0.5;" x1="35.5" x2="217.5" y1="67.7666" y2="67.7666"/><text fill="#000000" font-family="sans-serif" font-size="6.5" font-weight="bold" lengthAdjust="spacing" textLength="3.5" x="39" y="65.1353">1</text><text fill="#000000" font-family="sans-serif" font-size="6.5" lengthAdjust="spacing" textLength="60.5" x="44.5" y="65.1353">asks to create a skill</text><polygon fill="#181818" points="257,81.4121,262,83.4121,257,85.4121,259,83.4121" style="stroke:#181818;stroke-width:0.5;"/><line style="stroke:#181818;stroke-width:0.5;" x1="225.5" x2="260" y1="83.4121" y2="83.4121"/><text fill="#000000" font-family="sans-serif" font-size="6.5" font-weight="bold" lengthAdjust="spacing" textLength="3.5" x="229" y="80.7808">2</text><text fill="#000000" font-family="sans-serif" font-size="6.5" lengthAdjust="spacing" textLength="18" x="234.5" y="80.7808">create</text><rect fill="#E3E3E3" height="16.3105" rx="1.25" ry="1.25" style="stroke:#181818;stroke-width:0.25;" width="74" x="263" y="71.7666"/><text fill="#000000" font-family="sans-serif" font-size="7" lengthAdjust="spacing" textLength="67" x="266.5" y="82.8203">:CreateSkillController</text><polygon fill="#181818" points="41,103.2227,36,105.2227,41,107.2227,39,105.2227" style="stroke:#181818;stroke-width:0.5;"/><line style="stroke:#181818;stroke-width:0.5;stroke-dasharray:2.0,2.0;" x1="38" x2="222.5" y1="105.2227" y2="105.2227"/><text fill="#000000" font-family="sans-serif" font-size="6.5" font-weight="bold" lengthAdjust="spacing" textLength="3.5" x="44" y="102.5913">3</text><text fill="#000000" font-family="sans-serif" font-size="6.5" lengthAdjust="spacing" textLength="39.5" x="49.5" y="102.5913">requests data</text><polygon fill="#181818" points="214.5,118.8682,219.5,120.8682,214.5,122.8682,216.5,120.8682" style="stroke:#181818;stroke-width:0.5;"/><line style="stroke:#181818;stroke-width:0.5;" x1="35.5" x2="217.5" y1="120.8682" y2="120.8682"/><text fill="#000000" font-family="sans-serif" font-size="6.5" font-weight="bold" lengthAdjust="spacing" textLength="3.5" x="39" y="118.2368">4</text><text fill="#000000" font-family="sans-serif" font-size="6.5" lengthAdjust="spacing" textLength="61" x="44.5" y="118.2368">types requested data</text><polygon fill="#181818" points="41,134.5137,36,136.5137,41,138.5137,39,136.5137" style="stroke:#181818;stroke-width:0.5;"/><line style="stroke:#181818;stroke-width:0.5;stroke-dasharray:2.0,2.0;" x1="38" x2="222.5" y1="136.5137" y2="136.5137"/><text fill="#000000" font-family="sans-serif" font-size="6.5" font-weight="bold" lengthAdjust="spacing" textLength="3.5" x="44" y="133.8823">5</text><text fill="#000000" font-family="sans-serif" font-size="6.5" lengthAdjust="spacing" textLength="167.5" x="49.5" y="133.8823">Shows all data and requests confirmation for the operation</text><polygon fill="#181818" points="214.5,150.1592,219.5,152.1592,214.5,154.1592,216.5,152.1592" style="stroke:#181818;stroke-width:0.5;"/><line style="stroke:#181818;stroke-width:0.5;" x1="35.5" x2="217.5" y1="152.1592" y2="152.1592"/><text fill="#000000" font-family="sans-serif" font-size="6.5" font-weight="bold" lengthAdjust="spacing" textLength="3.5" x="39" y="149.5278">6</text><text fill="#000000" font-family="sans-serif" font-size="6.5" lengthAdjust="spacing" textLength="40" x="44.5" y="149.5278">Confirms data</text><polygon fill="#181818" points="291.5,165.8047,296.5,167.8047,291.5,169.8047,293.5,167.8047" style="stroke:#181818;stroke-width:0.5;"/><line style="stroke:#181818;stroke-width:0.5;" x1="225.5" x2="294.5" y1="167.8047" y2="167.8047"/><text fill="#000000" font-family="sans-serif" font-size="6.5" font-weight="bold" lengthAdjust="spacing" textLength="3.5" x="229" y="165.1733">7</text><text fill="#000000" font-family="sans-serif" font-size="6.5" lengthAdjust="spacing" textLength="57" x="234.5" y="165.1733">register skill (name)</text><polygon fill="#181818" points="357.75,181.4502,362.75,183.4502,357.75,185.4502,359.75,183.4502" style="stroke:#181818;stroke-width:0.5;"/><line style="stroke:#181818;stroke-width:0.5;" x1="302.5" x2="360.75" y1="183.4502" y2="183.4502"/><text fill="#000000" font-family="sans-serif" font-size="6.5" font-weight="bold" lengthAdjust="spacing" textLength="3.5" x="306" y="180.8188">8</text><text fill="#000000" font-family="sans-serif" font-size="6.5" lengthAdjust="spacing" textLength="37.5" x="311.5" y="180.8188">getInstance()</text><polygon fill="#181818" points="308,197.0957,303,199.0957,308,201.0957,306,199.0957" style="stroke:#181818;stroke-width:0.5;"/><line style="stroke:#181818;stroke-width:0.5;stroke-dasharray:2.0,2.0;" x1="305" x2="365.75" y1="199.0957" y2="199.0957"/><text fill="#000000" font-family="sans-serif" font-size="6.5" font-weight="bold" lengthAdjust="spacing" textLength="3.5" x="311" y="196.4644">9</text><text fill="#000000" font-family="sans-serif" font-size="6.5" lengthAdjust="spacing" textLength="28.5" x="316.5" y="196.4644">repository</text><polygon fill="#181818" points="411.25,212.7412,416.25,214.7412,411.25,216.7412,413.25,214.7412" style="stroke:#181818;stroke-width:0.5;"/><line style="stroke:#181818;stroke-width:0.5;" x1="302.5" x2="414.25" y1="214.7412" y2="214.7412"/><text fill="#000000" font-family="sans-serif" font-size="6.5" font-weight="bold" lengthAdjust="spacing" textLength="7" x="306" y="212.1099">10</text><text fill="#000000" font-family="sans-serif" font-size="6.5" lengthAdjust="spacing" textLength="52.5" x="315" y="212.1099">getSkillRepository</text><polygon fill="#181818" points="308,228.3867,303,230.3867,308,232.3867,306,230.3867" style="stroke:#181818;stroke-width:0.5;"/><line style="stroke:#181818;stroke-width:0.5;stroke-dasharray:2.0,2.0;" x1="305" x2="419.25" y1="230.3867" y2="230.3867"/><text fill="#000000" font-family="sans-serif" font-size="6.5" font-weight="bold" lengthAdjust="spacing" textLength="7" x="311" y="227.7554">11</text><text fill="#000000" font-family="sans-serif" font-size="6.5" lengthAdjust="spacing" textLength="45.5" x="320" y="227.7554">Skill Repository</text><polygon fill="#181818" points="468.25,244.0322,473.25,246.0322,468.25,248.0322,470.25,246.0322" style="stroke:#181818;stroke-width:0.5;"/><line style="stroke:#181818;stroke-width:0.5;" x1="302.5" x2="471.25" y1="246.0322" y2="246.0322"/><text fill="#000000" font-family="sans-serif" font-size="6.5" font-weight="bold" lengthAdjust="spacing" textLength="7" x="306" y="243.4009">12</text><text fill="#000000" font-family="sans-serif" font-size="6.5" lengthAdjust="spacing" textLength="57" x="315" y="243.4009">register skill (name)</text><polygon fill="#181818" points="537.75,259.6777,542.75,261.6777,537.75,263.6777,539.75,261.6777" style="stroke:#181818;stroke-width:0.5;"/><line style="stroke:#181818;stroke-width:0.5;" x1="479.25" x2="540.75" y1="261.6777" y2="261.6777"/><text fill="#000000" font-family="sans-serif" font-size="6.5" font-weight="bold" lengthAdjust="spacing" textLength="7" x="482.75" y="259.0464">13</text><text fill="#000000" font-family="sans-serif" font-size="6.5" lengthAdjust="spacing" textLength="43.5" x="491.75" y="259.0464">register (name)</text><rect fill="#E3E3E3" height="25.6211" rx="1.25" ry="1.25" style="stroke:#181818;stroke-width:0.25;" width="21.5" x="543.75" y="250.0322"/><text fill="#000000" font-family="sans-serif" font-size="7" lengthAdjust="spacing" textLength="14.5" x="547.25" y="261.0859">Skill:</text><text fill="#000000" font-family="sans-serif" font-size="7" lengthAdjust="spacing" textLength="13.5" x="547.75" y="270.3965">SKill</text><line style="stroke:#181818;stroke-width:0.5;" x1="479.25" x2="500.25" y1="292.7988" y2="292.7988"/><line style="stroke:#181818;stroke-width:0.5;" x1="500.25" x2="500.25" y1="292.7988" y2="299.2988"/><line style="stroke:#181818;stroke-width:0.5;" x1="479.75" x2="500.25" y1="299.2988" y2="299.2988"/><polygon fill="#181818" points="484.75,297.2988,479.75,299.2988,484.75,301.2988,482.75,299.2988" style="stroke:#181818;stroke-width:0.5;"/><text fill="#000000" font-family="sans-serif" font-size="6.5" font-weight="bold" lengthAdjust="spacing" textLength="7" x="482.75" y="290.1675">14</text><text fill="#000000" font-family="sans-serif" font-size="6.5" lengthAdjust="spacing" textLength="40.5" x="491.75" y="290.1675">addSkill (skill)</text><line style="stroke:#181818;stroke-width:0.5;" x1="479.25" x2="500.25" y1="314.9443" y2="314.9443"/><line style="stroke:#181818;stroke-width:0.5;" x1="500.25" x2="500.25" y1="314.9443" y2="321.4443"/><line style="stroke:#181818;stroke-width:0.5;" x1="479.75" x2="500.25" y1="321.4443" y2="321.4443"/><polygon fill="#181818" points="484.75,319.4443,479.75,321.4443,484.75,323.4443,482.75,321.4443" style="stroke:#181818;stroke-width:0.5;"/><text fill="#000000" font-family="sans-serif" font-size="6.5" font-weight="bold" lengthAdjust="spacing" textLength="7" x="482.75" y="312.313">15</text><text fill="#000000" font-family="sans-serif" font-size="6.5" lengthAdjust="spacing" textLength="51.5" x="491.75" y="312.313">validateSkill (skill)</text><polygon fill="#181818" points="308,335.0898,303,337.0898,308,339.0898,306,337.0898" style="stroke:#181818;stroke-width:0.5;"/><line style="stroke:#181818;stroke-width:0.5;stroke-dasharray:2.0,2.0;" x1="305" x2="476.25" y1="337.0898" y2="337.0898"/><text fill="#000000" font-family="sans-serif" font-size="6.5" font-weight="bold" lengthAdjust="spacing" textLength="7" x="311" y="334.4585">16</text><text fill="#000000" font-family="sans-serif" font-size="6.5" lengthAdjust="spacing" textLength="11.5" x="320" y="334.4585">skill</text><polygon fill="#181818" points="231,350.7354,226,352.7354,231,354.7354,229,352.7354" style="stroke:#181818;stroke-width:0.5;"/><line style="stroke:#181818;stroke-width:0.5;stroke-dasharray:2.0,2.0;" x1="228" x2="299.5" y1="352.7354" y2="352.7354"/><text fill="#000000" font-family="sans-serif" font-size="6.5" font-weight="bold" lengthAdjust="spacing" textLength="7" x="234" y="350.104">17</text><text fill="#000000" font-family="sans-serif" font-size="6.5" lengthAdjust="spacing" textLength="11.5" x="243" y="350.104">skill</text><polygon fill="#181818" points="38.5,366.3809,33.5,368.3809,38.5,370.3809,36.5,368.3809" style="stroke:#181818;stroke-width:0.5;"/><line style="stroke:#181818;stroke-width:0.5;stroke-dasharray:2.0,2.0;" x1="35.5" x2="222.5" y1="368.3809" y2="368.3809"/><text fill="#000000" font-family="sans-serif" font-size="6.5" font-weight="bold" lengthAdjust="spacing" textLength="7" x="41.5" y="365.7495">18</text><text fill="#000000" font-family="sans-serif" font-size="6.5" lengthAdjust="spacing" textLength="80" x="50.5" y="365.7495">Displays operation success</text><!--SRC=[ZLHDRzim3BtxLn2vB2tGF-33Bjc01as1mLvlkR0sumYH9K-Ks-NVZv8RVyHk5ryIa-yzFTAa-AHCWmvhgAsnnT7Pci2xbXBkCmqM9wmezsTDuAZmQ2ez1l0HI_kkJ0K7r4n9WgstfgrVoIN9jwCg2GxM-bVxDy72MmUhnxP60ncnRLr1l3VFQEG8jm9aUCoU4n7sgb0D6W-hTEC8FUKdfVNBDc9Ujfz3DjPuPxN-aDlypdPNu8mQoqgSAEA8oNx-caBS2B4tYuHyoeX7zxXpkZTNaSZhOjUdnMXWFCblXtlQxdP9Q9TwaxfYJnAGH_x0mtUf7rB1dHYyXIBM3WWST2Ai9qgZOY0yGX9gwCVzlT0xMfSEASa5zLI-yP-Ms3EKw36cIve9ZetuSqDyeL4vy6QiuPmqFzft1jGwmW5DEHnSM7DGhaQlh97PSU2F1BOX5oCtMDfq0lo5bMb7OjcL4lkkQoEi3TPqrqDxVfodFXoUo1ST-QuYKv7V6fObAMXzDy7r4c409fd0V1WxkGpD13KgUQOmyf1t9gx6xrCd-SnAFlOIPI2xnL6-REaoy_zjySHPlocJTAyLTCEEn4dkPJy49vGPRR23PTcLjuv-RYU-eLRbvRvPPW_CePV3VYuqS5vmry3Baat98-8maECj_g6uqNZcOMs0sq8kMrvQdz5hl6h-0G00]--></g></svg>