<?xml version="1.0" encoding="us-ascii" standalone="no"?><svg xmlns="http://www.w3.org/2000/svg" xmlns:xlink="http://www.w3.org/1999/xlink" contentStyleType="text/css" height="675.2px" preserveAspectRatio="none" style="width:432px;height:675px;background:#FFFFFF;" version="1.1" viewBox="0 0 432 675" width="432px" zoomAndPan="magnify"><defs/><g><!--class GenerateTeam--><g id="elem_GenerateTeam"><rect codeLine="9" fill="#F1F1F1" height="83.0906" id="GenerateTeam" rx="2" ry="2" style="stroke:#181818;stroke-width:0.4000000000000001;" width="211.2" x="140.8" y="470.4"/><ellipse cx="204.6" cy="483.2" fill="#ADD1B2" rx="8.8" ry="8.8" style="stroke:#181818;stroke-width:0.8000000000000002;"/><path d="M206.8125,479.9 Q206.9375,479.725 207.0875,479.6375 Q207.2375,479.55 207.4125,479.55 Q207.7125,479.55 207.9,479.7625 Q208.0875,479.9625 208.0875,480.45 L208.0875,481.6125 Q208.0875,482.1 207.9,482.3125 Q207.7125,482.525 207.4125,482.525 Q207.1375,482.525 206.975,482.3625 Q206.8125,482.2125 206.725,481.8 Q206.6875,481.5125 206.5375,481.3625 Q206.275,481.0625 205.7875,480.8875 Q205.3,480.7125 204.8,480.7125 Q204.1875,480.7125 203.675,480.975 Q203.175,481.2375 202.775,481.8375 Q202.3875,482.4375 202.3875,483.2625 L202.3875,484.1375 Q202.3875,485.125 203.1,485.7875 Q203.8125,486.4375 205.0875,486.4375 Q205.8375,486.4375 206.3625,486.2375 Q206.675,486.1125 207.0125,485.7625 Q207.225,485.55 207.3375,485.4875 Q207.4625,485.425 207.625,485.425 Q207.8875,485.425 208.0875,485.6375 Q208.3,485.8375 208.3,486.1125 Q208.3,486.3875 208.025,486.7125 Q207.625,487.175 206.9875,487.4375 Q206.125,487.8 205.0875,487.8 Q203.875,487.8 202.9125,487.3 Q202.125,486.9 201.575,486.05 Q201.025,485.1875 201.025,484.1625 L201.025,483.2375 Q201.025,482.175 201.5125,481.2625 Q202.0125,480.3375 202.8875,479.85 Q203.7625,479.35 204.75,479.35 Q205.3375,479.35 205.85,479.4875 Q206.375,479.6125 206.8125,479.9 Z " fill="#000000"/><text fill="#000000" font-family="sans-serif" font-size="11.2" lengthAdjust="spacing" textLength="76.8" x="221" y="487.8375">GenerateTeam</text><line style="stroke:#181818;stroke-width:0.4000000000000001;" x1="141.6" x2="351.2" y1="496" y2="496"/><text fill="#000000" font-family="sans-serif" font-size="11.2" lengthAdjust="spacing" textLength="57.6" x="145.6" y="511.2859">-int minSize</text><text fill="#000000" font-family="sans-serif" font-size="11.2" lengthAdjust="spacing" textLength="60" x="145.6" y="526.1828">-int maxSize</text><line style="stroke:#181818;stroke-width:0.4000000000000001;" x1="141.6" x2="351.2" y1="532.1938" y2="532.1938"/><text fill="#000000" font-family="sans-serif" font-size="11.2" lengthAdjust="spacing" textLength="201.6" x="145.6" y="547.4797">+GenerateTeam(minSize, maxSize, skill)</text></g><!--class Skill--><g id="elem_Skill"><rect codeLine="17" fill="#F1F1F1" height="68.1938" id="Skill" rx="2" ry="2" style="stroke:#181818;stroke-width:0.4000000000000001;" width="75.2" x="208.8" y="601.6"/><ellipse cx="234.12" cy="614.4" fill="#ADD1B2" rx="8.8" ry="8.8" style="stroke:#181818;stroke-width:0.8000000000000002;"/><path d="M236.3325,611.1 Q236.4575,610.925 236.6075,610.8375 Q236.7575,610.75 236.9325,610.75 Q237.2325,610.75 237.42,610.9625 Q237.6075,611.1625 237.6075,611.65 L237.6075,612.8125 Q237.6075,613.3 237.42,613.5125 Q237.2325,613.725 236.9325,613.725 Q236.6575,613.725 236.495,613.5625 Q236.3325,613.4125 236.245,613 Q236.2075,612.7125 236.0575,612.5625 Q235.795,612.2625 235.3075,612.0875 Q234.82,611.9125 234.32,611.9125 Q233.7075,611.9125 233.195,612.175 Q232.695,612.4375 232.295,613.0375 Q231.9075,613.6375 231.9075,614.4625 L231.9075,615.3375 Q231.9075,616.325 232.62,616.9875 Q233.3325,617.6375 234.6075,617.6375 Q235.3575,617.6375 235.8825,617.4375 Q236.195,617.3125 236.5325,616.9625 Q236.745,616.75 236.8575,616.6875 Q236.9825,616.625 237.145,616.625 Q237.4075,616.625 237.6075,616.8375 Q237.82,617.0375 237.82,617.3125 Q237.82,617.5875 237.545,617.9125 Q237.145,618.375 236.5075,618.6375 Q235.645,619 234.6075,619 Q233.395,619 232.4325,618.5 Q231.645,618.1 231.095,617.25 Q230.545,616.3875 230.545,615.3625 L230.545,614.4375 Q230.545,613.375 231.0325,612.4625 Q231.5325,611.5375 232.4075,611.05 Q233.2825,610.55 234.27,610.55 Q234.8575,610.55 235.37,610.6875 Q235.895,610.8125 236.3325,611.1 Z " fill="#000000"/><text fill="#000000" font-family="sans-serif" font-size="11.2" lengthAdjust="spacing" textLength="20" x="248.28" y="619.0375">Skill</text><line style="stroke:#181818;stroke-width:0.4000000000000001;" x1="209.6" x2="283.2" y1="627.2" y2="627.2"/><text fill="#000000" font-family="sans-serif" font-size="11.2" lengthAdjust="spacing" textLength="64.8" x="213.6" y="642.4859">-String name</text><line style="stroke:#181818;stroke-width:0.4000000000000001;" x1="209.6" x2="283.2" y1="648.4969" y2="648.4969"/><text fill="#000000" font-family="sans-serif" font-size="11.2" lengthAdjust="spacing" textLength="65.6" x="213.6" y="663.7828">+Skill (name)</text></g><!--class SkillsRepository--><g id="elem_SkillsRepository"><rect codeLine="23" fill="#F1F1F1" height="53.2969" id="SkillsRepository" rx="2" ry="2" style="stroke:#181818;stroke-width:0.4000000000000001;" width="105.6" x="5.6" y="368.8"/><ellipse cx="17.6" cy="381.6" fill="#ADD1B2" rx="8.8" ry="8.8" style="stroke:#181818;stroke-width:0.8000000000000002;"/><path d="M19.8125,378.3 Q19.9375,378.125 20.0875,378.0375 Q20.2375,377.95 20.4125,377.95 Q20.7125,377.95 20.9,378.1625 Q21.0875,378.3625 21.0875,378.85 L21.0875,380.0125 Q21.0875,380.5 20.9,380.7125 Q20.7125,380.925 20.4125,380.925 Q20.1375,380.925 19.975,380.7625 Q19.8125,380.6125 19.725,380.2 Q19.6875,379.9125 19.5375,379.7625 Q19.275,379.4625 18.7875,379.2875 Q18.3,379.1125 17.8,379.1125 Q17.1875,379.1125 16.675,379.375 Q16.175,379.6375 15.775,380.2375 Q15.3875,380.8375 15.3875,381.6625 L15.3875,382.5375 Q15.3875,383.525 16.1,384.1875 Q16.8125,384.8375 18.0875,384.8375 Q18.8375,384.8375 19.3625,384.6375 Q19.675,384.5125 20.0125,384.1625 Q20.225,383.95 20.3375,383.8875 Q20.4625,383.825 20.625,383.825 Q20.8875,383.825 21.0875,384.0375 Q21.3,384.2375 21.3,384.5125 Q21.3,384.7875 21.025,385.1125 Q20.625,385.575 19.9875,385.8375 Q19.125,386.2 18.0875,386.2 Q16.875,386.2 15.9125,385.7 Q15.125,385.3 14.575,384.45 Q14.025,383.5875 14.025,382.5625 L14.025,381.6375 Q14.025,380.575 14.5125,379.6625 Q15.0125,378.7375 15.8875,378.25 Q16.7625,377.75 17.75,377.75 Q18.3375,377.75 18.85,377.8875 Q19.375,378.0125 19.8125,378.3 Z " fill="#000000"/><text fill="#000000" font-family="sans-serif" font-size="11.2" lengthAdjust="spacing" textLength="80" x="28.8" y="386.2375">SkillsRepository</text><line style="stroke:#181818;stroke-width:0.4000000000000001;" x1="6.4" x2="110.4" y1="394.4" y2="394.4"/><line style="stroke:#181818;stroke-width:0.4000000000000001;" x1="6.4" x2="110.4" y1="400.8" y2="400.8"/><text fill="#000000" font-family="sans-serif" font-size="11.2" lengthAdjust="spacing" textLength="73.6" x="10.4" y="416.0859">+getSkillsList()</text></g><!--class GenerateTeamRepository--><g id="elem_GenerateTeamRepository"><rect codeLine="27" fill="#F1F1F1" height="53.2969" id="GenerateTeamRepository" rx="2" ry="2" style="stroke:#181818;stroke-width:0.4000000000000001;" width="208.8" x="139.6" y="368.8"/><ellipse cx="175" cy="381.6" fill="#ADD1B2" rx="8.8" ry="8.8" style="stroke:#181818;stroke-width:0.8000000000000002;"/><path d="M177.2125,378.3 Q177.3375,378.125 177.4875,378.0375 Q177.6375,377.95 177.8125,377.95 Q178.1125,377.95 178.3,378.1625 Q178.4875,378.3625 178.4875,378.85 L178.4875,380.0125 Q178.4875,380.5 178.3,380.7125 Q178.1125,380.925 177.8125,380.925 Q177.5375,380.925 177.375,380.7625 Q177.2125,380.6125 177.125,380.2 Q177.0875,379.9125 176.9375,379.7625 Q176.675,379.4625 176.1875,379.2875 Q175.7,379.1125 175.2,379.1125 Q174.5875,379.1125 174.075,379.375 Q173.575,379.6375 173.175,380.2375 Q172.7875,380.8375 172.7875,381.6625 L172.7875,382.5375 Q172.7875,383.525 173.5,384.1875 Q174.2125,384.8375 175.4875,384.8375 Q176.2375,384.8375 176.7625,384.6375 Q177.075,384.5125 177.4125,384.1625 Q177.625,383.95 177.7375,383.8875 Q177.8625,383.825 178.025,383.825 Q178.2875,383.825 178.4875,384.0375 Q178.7,384.2375 178.7,384.5125 Q178.7,384.7875 178.425,385.1125 Q178.025,385.575 177.3875,385.8375 Q176.525,386.2 175.4875,386.2 Q174.275,386.2 173.3125,385.7 Q172.525,385.3 171.975,384.45 Q171.425,383.5875 171.425,382.5625 L171.425,381.6375 Q171.425,380.575 171.9125,379.6625 Q172.4125,378.7375 173.2875,378.25 Q174.1625,377.75 175.15,377.75 Q175.7375,377.75 176.25,377.8875 Q176.775,378.0125 177.2125,378.3 Z " fill="#000000"/><text fill="#000000" font-family="sans-serif" font-size="11.2" lengthAdjust="spacing" textLength="131.2" x="191.4" y="386.2375">GenerateTeamRepository</text><line style="stroke:#181818;stroke-width:0.4000000000000001;" x1="140.4" x2="347.6" y1="394.4" y2="394.4"/><line style="stroke:#181818;stroke-width:0.4000000000000001;" x1="140.4" x2="347.6" y1="400.8" y2="400.8"/><text fill="#000000" font-family="sans-serif" font-size="11.2" lengthAdjust="spacing" textLength="199.2" x="144.4" y="416.0859">+generateTeam(minSize, maxSize, skill)</text></g><!--class Repositories--><g id="elem_Repositories"><rect codeLine="31" fill="#F1F1F1" height="97.9875" id="Repositories" rx="2" ry="2" style="stroke:#181818;stroke-width:0.4000000000000001;" width="171.2" x="65.6" y="223.2"/><ellipse cx="116.2" cy="236" fill="#ADD1B2" rx="8.8" ry="8.8" style="stroke:#181818;stroke-width:0.8000000000000002;"/><path d="M118.4125,232.7 Q118.5375,232.525 118.6875,232.4375 Q118.8375,232.35 119.0125,232.35 Q119.3125,232.35 119.5,232.5625 Q119.6875,232.7625 119.6875,233.25 L119.6875,234.4125 Q119.6875,234.9 119.5,235.1125 Q119.3125,235.325 119.0125,235.325 Q118.7375,235.325 118.575,235.1625 Q118.4125,235.0125 118.325,234.6 Q118.2875,234.3125 118.1375,234.1625 Q117.875,233.8625 117.3875,233.6875 Q116.9,233.5125 116.4,233.5125 Q115.7875,233.5125 115.275,233.775 Q114.775,234.0375 114.375,234.6375 Q113.9875,235.2375 113.9875,236.0625 L113.9875,236.9375 Q113.9875,237.925 114.7,238.5875 Q115.4125,239.2375 116.6875,239.2375 Q117.4375,239.2375 117.9625,239.0375 Q118.275,238.9125 118.6125,238.5625 Q118.825,238.35 118.9375,238.2875 Q119.0625,238.225 119.225,238.225 Q119.4875,238.225 119.6875,238.4375 Q119.9,238.6375 119.9,238.9125 Q119.9,239.1875 119.625,239.5125 Q119.225,239.975 118.5875,240.2375 Q117.725,240.6 116.6875,240.6 Q115.475,240.6 114.5125,240.1 Q113.725,239.7 113.175,238.85 Q112.625,237.9875 112.625,236.9625 L112.625,236.0375 Q112.625,234.975 113.1125,234.0625 Q113.6125,233.1375 114.4875,232.65 Q115.3625,232.15 116.35,232.15 Q116.9375,232.15 117.45,232.2875 Q117.975,232.4125 118.4125,232.7 Z " fill="#000000"/><text fill="#000000" font-family="sans-serif" font-size="11.2" lengthAdjust="spacing" textLength="63.2" x="132.6" y="240.6375">Repositories</text><line style="stroke:#181818;stroke-width:0.4000000000000001;" x1="66.4" x2="236" y1="248.8" y2="248.8"/><line style="stroke:#181818;stroke-width:0.4000000000000001;" x1="66.4" x2="236" y1="255.2" y2="255.2"/><text fill="#000000" font-family="sans-serif" font-size="11.2" lengthAdjust="spacing" textLength="75.2" x="70.4" y="270.4859">-Repositories()</text><text fill="#000000" font-family="sans-serif" font-size="11.2" lengthAdjust="spacing" textLength="145.6" x="70.4" y="285.3828">+getInstance() : Repositories</text><text fill="#000000" font-family="sans-serif" font-size="11.2" lengthAdjust="spacing" textLength="104.8" x="70.4" y="300.2797">+getSkillRepository()</text><text fill="#000000" font-family="sans-serif" font-size="11.2" lengthAdjust="spacing" textLength="161.6" x="70.4" y="315.1766">+getGenerateTeamRepository()</text></g><!--class HRM--><g id="elem_HRM"><rect codeLine="39" fill="#F1F1F1" height="53.2969" id="HRM" rx="2" ry="2" style="stroke:#181818;stroke-width:0.4000000000000001;" width="49.6" x="376.8" y="368.8"/><ellipse cx="388.8" cy="381.6" fill="#ADD1B2" rx="8.8" ry="8.8" style="stroke:#181818;stroke-width:0.8000000000000002;"/><path d="M391.0125,378.3 Q391.1375,378.125 391.2875,378.0375 Q391.4375,377.95 391.6125,377.95 Q391.9125,377.95 392.1,378.1625 Q392.2875,378.3625 392.2875,378.85 L392.2875,380.0125 Q392.2875,380.5 392.1,380.7125 Q391.9125,380.925 391.6125,380.925 Q391.3375,380.925 391.175,380.7625 Q391.0125,380.6125 390.925,380.2 Q390.8875,379.9125 390.7375,379.7625 Q390.475,379.4625 389.9875,379.2875 Q389.5,379.1125 389,379.1125 Q388.3875,379.1125 387.875,379.375 Q387.375,379.6375 386.975,380.2375 Q386.5875,380.8375 386.5875,381.6625 L386.5875,382.5375 Q386.5875,383.525 387.3,384.1875 Q388.0125,384.8375 389.2875,384.8375 Q390.0375,384.8375 390.5625,384.6375 Q390.875,384.5125 391.2125,384.1625 Q391.425,383.95 391.5375,383.8875 Q391.6625,383.825 391.825,383.825 Q392.0875,383.825 392.2875,384.0375 Q392.5,384.2375 392.5,384.5125 Q392.5,384.7875 392.225,385.1125 Q391.825,385.575 391.1875,385.8375 Q390.325,386.2 389.2875,386.2 Q388.075,386.2 387.1125,385.7 Q386.325,385.3 385.775,384.45 Q385.225,383.5875 385.225,382.5625 L385.225,381.6375 Q385.225,380.575 385.7125,379.6625 Q386.2125,378.7375 387.0875,378.25 Q387.9625,377.75 388.95,377.75 Q389.5375,377.75 390.05,377.8875 Q390.575,378.0125 391.0125,378.3 Z " fill="#000000"/><text fill="#000000" font-family="sans-serif" font-size="11.2" lengthAdjust="spacing" textLength="24" x="400" y="386.2375">HRM</text><line style="stroke:#181818;stroke-width:0.4000000000000001;" x1="377.6" x2="425.6" y1="394.4" y2="394.4"/><text fill="#000000" font-family="sans-serif" font-size="11.2" lengthAdjust="spacing" textLength="32" x="381.6" y="409.6859">-name</text><line style="stroke:#181818;stroke-width:0.4000000000000001;" x1="377.6" x2="425.6" y1="415.6969" y2="415.6969"/></g><!--class GenerateTeamController--><g id="elem_GenerateTeamController"><rect codeLine="43" fill="#F1F1F1" height="83.0906" id="GenerateTeamController" rx="2" ry="2" style="stroke:#181818;stroke-width:0.4000000000000001;" width="208.8" x="46.8" y="92"/><ellipse cx="84.6" cy="104.8" fill="#ADD1B2" rx="8.8" ry="8.8" style="stroke:#181818;stroke-width:0.8000000000000002;"/><path d="M86.8125,101.5 Q86.9375,101.325 87.0875,101.2375 Q87.2375,101.15 87.4125,101.15 Q87.7125,101.15 87.9,101.3625 Q88.0875,101.5625 88.0875,102.05 L88.0875,103.2125 Q88.0875,103.7 87.9,103.9125 Q87.7125,104.125 87.4125,104.125 Q87.1375,104.125 86.975,103.9625 Q86.8125,103.8125 86.725,103.4 Q86.6875,103.1125 86.5375,102.9625 Q86.275,102.6625 85.7875,102.4875 Q85.3,102.3125 84.8,102.3125 Q84.1875,102.3125 83.675,102.575 Q83.175,102.8375 82.775,103.4375 Q82.3875,104.0375 82.3875,104.8625 L82.3875,105.7375 Q82.3875,106.725 83.1,107.3875 Q83.8125,108.0375 85.0875,108.0375 Q85.8375,108.0375 86.3625,107.8375 Q86.675,107.7125 87.0125,107.3625 Q87.225,107.15 87.3375,107.0875 Q87.4625,107.025 87.625,107.025 Q87.8875,107.025 88.0875,107.2375 Q88.3,107.4375 88.3,107.7125 Q88.3,107.9875 88.025,108.3125 Q87.625,108.775 86.9875,109.0375 Q86.125,109.4 85.0875,109.4 Q83.875,109.4 82.9125,108.9 Q82.125,108.5 81.575,107.65 Q81.025,106.7875 81.025,105.7625 L81.025,104.8375 Q81.025,103.775 81.5125,102.8625 Q82.0125,101.9375 82.8875,101.45 Q83.7625,100.95 84.75,100.95 Q85.3375,100.95 85.85,101.0875 Q86.375,101.2125 86.8125,101.5 Z " fill="#000000"/><text fill="#000000" font-family="sans-serif" font-size="11.2" lengthAdjust="spacing" textLength="126.4" x="101" y="109.4375">GenerateTeamController</text><line style="stroke:#181818;stroke-width:0.4000000000000001;" x1="47.6" x2="254.8" y1="117.6" y2="117.6"/><line style="stroke:#181818;stroke-width:0.4000000000000001;" x1="47.6" x2="254.8" y1="124" y2="124"/><text fill="#000000" font-family="sans-serif" font-size="11.2" lengthAdjust="spacing" textLength="140.8" x="51.6" y="139.2859">+GenerateTeamController()</text><text fill="#000000" font-family="sans-serif" font-size="11.2" lengthAdjust="spacing" textLength="73.6" x="51.6" y="154.1828">+getSkillsList()</text><text fill="#000000" font-family="sans-serif" font-size="11.2" lengthAdjust="spacing" textLength="199.2" x="51.6" y="169.0797">+generateTeam(minSize, maxSize, skill)</text></g><!--class GenerateTeamUI--><g id="elem_GenerateTeamUI"><rect codeLine="49" fill="#F1F1F1" height="38.4" id="GenerateTeamUI" rx="2" ry="2" style="stroke:#181818;stroke-width:0.4000000000000001;" width="112" x="95.2" y="5.6"/><ellipse cx="107.2" cy="18.4" fill="#ADD1B2" rx="8.8" ry="8.8" style="stroke:#181818;stroke-width:0.8000000000000002;"/><path d="M109.4125,15.1 Q109.5375,14.925 109.6875,14.8375 Q109.8375,14.75 110.0125,14.75 Q110.3125,14.75 110.5,14.9625 Q110.6875,15.1625 110.6875,15.65 L110.6875,16.8125 Q110.6875,17.3 110.5,17.5125 Q110.3125,17.725 110.0125,17.725 Q109.7375,17.725 109.575,17.5625 Q109.4125,17.4125 109.325,17 Q109.2875,16.7125 109.1375,16.5625 Q108.875,16.2625 108.3875,16.0875 Q107.9,15.9125 107.4,15.9125 Q106.7875,15.9125 106.275,16.175 Q105.775,16.4375 105.375,17.0375 Q104.9875,17.6375 104.9875,18.4625 L104.9875,19.3375 Q104.9875,20.325 105.7,20.9875 Q106.4125,21.6375 107.6875,21.6375 Q108.4375,21.6375 108.9625,21.4375 Q109.275,21.3125 109.6125,20.9625 Q109.825,20.75 109.9375,20.6875 Q110.0625,20.625 110.225,20.625 Q110.4875,20.625 110.6875,20.8375 Q110.9,21.0375 110.9,21.3125 Q110.9,21.5875 110.625,21.9125 Q110.225,22.375 109.5875,22.6375 Q108.725,23 107.6875,23 Q106.475,23 105.5125,22.5 Q104.725,22.1 104.175,21.25 Q103.625,20.3875 103.625,19.3625 L103.625,18.4375 Q103.625,17.375 104.1125,16.4625 Q104.6125,15.5375 105.4875,15.05 Q106.3625,14.55 107.35,14.55 Q107.9375,14.55 108.45,14.6875 Q108.975,14.8125 109.4125,15.1 Z " fill="#000000"/><text fill="#000000" font-family="sans-serif" font-size="11.2" lengthAdjust="spacing" textLength="86.4" x="118.4" y="23.0375">GenerateTeamUI</text><line style="stroke:#181818;stroke-width:0.4000000000000001;" x1="96" x2="206.4" y1="31.2" y2="31.2"/><line style="stroke:#181818;stroke-width:0.4000000000000001;" x1="96" x2="206.4" y1="37.6" y2="37.6"/></g><!--link GenerateTeamUI to GenerateTeamController--><g id="link_GenerateTeamUI_GenerateTeamController"><path codeLine="52" d="M151.2,44.032 C151.2,57.2 151.2,70.64 151.2,87.168 " fill="none" id="GenerateTeamUI-to-GenerateTeamController" style="stroke:#181818;stroke-width:0.8000000000000002;stroke-dasharray:7.0,7.0;"/><polygon fill="#181818" points="151.2,91.968,154.4,84.768,151.2,87.968,148,84.768,151.2,91.968" style="stroke:#181818;stroke-width:0.8000000000000002;"/></g><!--link GenerateTeamController to Repositories--><g id="link_GenerateTeamController_Repositories"><path codeLine="53" d="M151.2,175.448 C151.2,190.4 151.2,202.64 151.2,218.16 " fill="none" id="GenerateTeamController-to-Repositories" style="stroke:#181818;stroke-width:0.8000000000000002;stroke-dasharray:7.0,7.0;"/><polygon fill="#181818" points="151.2,222.96,154.4,215.76,151.2,218.96,148,215.76,151.2,222.96" style="stroke:#181818;stroke-width:0.8000000000000002;"/></g><!--link GenerateTeamController to GenerateTeamRepository--><g id="link_GenerateTeamController_GenerateTeamRepository"><path codeLine="54" d="M197.392,175.424 C223.6,198.688 251.2,223.2 251.2,223.2 C251.2,223.2 251.2,320.8 251.2,320.8 C251.2,320.8 249.0726,342.6305 247.0006,363.9345 " fill="none" id="GenerateTeamController-to-GenerateTeamRepository" style="stroke:#181818;stroke-width:0.8000000000000002;stroke-dasharray:7.0,7.0;"/><polygon fill="#181818" points="246.536,368.712,250.4179,361.8556,246.9232,364.7308,244.048,361.236,246.536,368.712" style="stroke:#181818;stroke-width:0.8000000000000002;"/></g><!--link GenerateTeamController to SkillsRepository--><g id="link_GenerateTeamController_SkillsRepository"><path codeLine="55" d="M105.008,175.424 C78.8,198.688 51.2,223.2 51.2,223.2 C51.2,223.2 51.2,320.8 51.2,320.8 C51.2,320.8 53.3274,342.6305 55.3994,363.9345 " fill="none" id="GenerateTeamController-to-SkillsRepository" style="stroke:#181818;stroke-width:0.8000000000000002;stroke-dasharray:7.0,7.0;"/><polygon fill="#181818" points="55.864,368.712,58.352,361.236,55.4768,364.7308,51.9821,361.8556,55.864,368.712" style="stroke:#181818;stroke-width:0.8000000000000002;"/></g><!--link Repositories to GenerateTeamRepository--><g id="link_Repositories_GenerateTeamRepository"><path codeLine="56" d="M187.88,321.016 C200.24,337.272 210.6627,350.9631 221.2227,364.8511 " fill="none" id="Repositories-to-GenerateTeamRepository" style="stroke:#181818;stroke-width:0.8000000000000002;"/><polygon fill="#181818" points="224.128,368.672,222.3173,361.0038,221.7069,365.4879,217.2228,364.8775,224.128,368.672" style="stroke:#181818;stroke-width:0.8000000000000002;"/></g><!--link Repositories to SkillsRepository--><g id="link_Repositories_SkillsRepository"><path codeLine="57" d="M114.52,321.016 C102.16,337.272 91.7373,350.9631 81.1773,364.8511 " fill="none" id="Repositories-to-SkillsRepository" style="stroke:#181818;stroke-width:0.8000000000000002;"/><polygon fill="#181818" points="78.272,368.672,85.1772,364.8775,80.6931,365.4879,80.0827,361.0038,78.272,368.672" style="stroke:#181818;stroke-width:0.8000000000000002;"/></g><!--link HRM to GenerateTeam--><g id="link_HRM_GenerateTeam"><path codeLine="58" d="M376.664,414.848 C356.528,429.736 331.2907,448.4012 305.7067,467.3292 " fill="none" id="HRM-to-GenerateTeam" style="stroke:#181818;stroke-width:0.8000000000000002;"/><polygon fill="#181818" points="301.848,470.184,309.5393,468.4742,305.0636,467.805,305.7329,463.3292,301.848,470.184" style="stroke:#181818;stroke-width:0.8000000000000002;"/></g><!--link HRM to Skill--><g id="link_HRM_Skill"><path codeLine="59" d="M395.712,422.712 C385.688,467.464 366.4,553.6 366.4,553.6 C366.4,553.6 323.2077,582.8304 288.0157,606.6384 " fill="none" id="HRM-to-Skill" style="stroke:#181818;stroke-width:0.8000000000000002;"/><polygon fill="#181818" points="284.04,609.328,291.7966,607.944,287.3531,607.0867,288.2104,602.6431,284.04,609.328" style="stroke:#181818;stroke-width:0.8000000000000002;"/></g><!--link GenerateTeamRepository to GenerateTeam--><g id="link_GenerateTeamRepository_GenerateTeam"><path codeLine="60" d="M244.544,422.448 C244.84,436.608 245.1174,449.633 245.4454,465.593 " fill="none" id="GenerateTeamRepository-to-GenerateTeam" style="stroke:#181818;stroke-width:0.8000000000000002;"/><polygon fill="#181818" points="245.544,470.392,248.5954,463.1278,245.4618,466.3928,242.1967,463.2593,245.544,470.392" style="stroke:#181818;stroke-width:0.8000000000000002;"/></g><!--link SkillsRepository to Skill--><g id="link_SkillsRepository_Skill"><path codeLine="61" d="M69.784,422.712 C89.136,467.464 126.4,553.6 126.4,553.6 C126.4,553.6 169.5923,582.8304 204.7843,606.6384 " fill="none" id="SkillsRepository-to-Skill" style="stroke:#181818;stroke-width:0.8000000000000002;"/><polygon fill="#181818" points="208.76,609.328,204.5896,602.6431,205.4469,607.0867,201.0034,607.944,208.76,609.328" style="stroke:#181818;stroke-width:0.8000000000000002;"/></g><!--link GenerateTeam to Skill--><g id="link_GenerateTeam_Skill"><path codeLine="62" d="M246.4,553.76 C246.4,569.272 246.4,581.92 246.4,596.64 " fill="none" id="GenerateTeam-to-Skill" style="stroke:#181818;stroke-width:0.8000000000000002;"/><polygon fill="#181818" points="246.4,601.44,249.6,594.24,246.4,597.44,243.2,594.24,246.4,601.44" style="stroke:#181818;stroke-width:0.8000000000000002;"/></g><!--SRC=[dLF9JiCm4BtFLyoDL5t4cGCIuW2LuDB01vXqcbfrxCWU107nxpXfwZfRXSZDR-OjCtRSGUfIM55WARA3o2dbIX5QobZeN16uqE3sOci-fCvn9vIBAqfgugeaB8sgwWD4nKm9v-wOhNnxPrfdHgVoY_0Qu4hHZf4DMfdl6RUoTfL60pGSV21DLZ2za9Vv1lJV4gLcB6IZ4IFYiq4QQDvX9cttujIqG1zEgHd0pyafhO5WaVgiVaej2chrZlMaHWOqjw7IECd6Lgt277FYO-r9EavcPqOSR9Jtbzn1BIX8SY5z37hh46YjdR_IZ98PtdIQUfdFiMBsUF3ZQ6sQnyrp2D7iRdJgUwFP6gN8Xgd7ox5xPvd_MbNiyRhsrhxImrQhsuaeC350pUXiyaBV-08lCVgl2phNlLnEQWxw1ahrLVK50jXqmyHB7R06_y2uH0G3_080]--></g></svg>