<?xml version="1.0" encoding="us-ascii" standalone="no"?><svg xmlns="http://www.w3.org/2000/svg" xmlns:xlink="http://www.w3.org/1999/xlink" contentStyleType="text/css" height="558.4px" preserveAspectRatio="none" style="width:431px;height:558px;background:#FFFFFF;" version="1.1" viewBox="0 0 431 558" width="431.2px" zoomAndPan="magnify"><defs/><g><!--class GenerateTeam--><g id="elem_GenerateTeam"><rect codeLine="9" fill="#F1F1F1" height="83.0906" id="GenerateTeam" rx="2" ry="2" style="stroke:#181818;stroke-width:0.4000000000000001;" width="211.2" x="192.8" y="470.4"/><ellipse cx="256.6" cy="483.2" fill="#ADD1B2" rx="8.8" ry="8.8" style="stroke:#181818;stroke-width:0.8000000000000002;"/><path d="M258.8125,479.9 Q258.9375,479.725 259.0875,479.6375 Q259.2375,479.55 259.4125,479.55 Q259.7125,479.55 259.9,479.7625 Q260.0875,479.9625 260.0875,480.45 L260.0875,481.6125 Q260.0875,482.1 259.9,482.3125 Q259.7125,482.525 259.4125,482.525 Q259.1375,482.525 258.975,482.3625 Q258.8125,482.2125 258.725,481.8 Q258.6875,481.5125 258.5375,481.3625 Q258.275,481.0625 257.7875,480.8875 Q257.3,480.7125 256.8,480.7125 Q256.1875,480.7125 255.675,480.975 Q255.175,481.2375 254.775,481.8375 Q254.3875,482.4375 254.3875,483.2625 L254.3875,484.1375 Q254.3875,485.125 255.1,485.7875 Q255.8125,486.4375 257.0875,486.4375 Q257.8375,486.4375 258.3625,486.2375 Q258.675,486.1125 259.0125,485.7625 Q259.225,485.55 259.3375,485.4875 Q259.4625,485.425 259.625,485.425 Q259.8875,485.425 260.0875,485.6375 Q260.3,485.8375 260.3,486.1125 Q260.3,486.3875 260.025,486.7125 Q259.625,487.175 258.9875,487.4375 Q258.125,487.8 257.0875,487.8 Q255.875,487.8 254.9125,487.3 Q254.125,486.9 253.575,486.05 Q253.025,485.1875 253.025,484.1625 L253.025,483.2375 Q253.025,482.175 253.5125,481.2625 Q254.0125,480.3375 254.8875,479.85 Q255.7625,479.35 256.75,479.35 Q257.3375,479.35 257.85,479.4875 Q258.375,479.6125 258.8125,479.9 Z " fill="#000000"/><text fill="#000000" font-family="sans-serif" font-size="11.2" lengthAdjust="spacing" textLength="76.8" x="273" y="487.8375">GenerateTeam</text><line style="stroke:#181818;stroke-width:0.4000000000000001;" x1="193.6" x2="403.2" y1="496" y2="496"/><text fill="#000000" font-family="sans-serif" font-size="11.2" lengthAdjust="spacing" textLength="57.6" x="197.6" y="511.2859">-int minSize</text><text fill="#000000" font-family="sans-serif" font-size="11.2" lengthAdjust="spacing" textLength="60" x="197.6" y="526.1828">-int maxSize</text><line style="stroke:#181818;stroke-width:0.4000000000000001;" x1="193.6" x2="403.2" y1="532.1938" y2="532.1938"/><text fill="#000000" font-family="sans-serif" font-size="11.2" lengthAdjust="spacing" textLength="201.6" x="197.6" y="547.4797">+GenerateTeam(minSize, maxSize, skill)</text></g><!--class Skill--><g id="elem_Skill"><rect codeLine="17" fill="#F1F1F1" height="68.1938" id="Skill" rx="2" ry="2" style="stroke:#181818;stroke-width:0.4000000000000001;" width="75.2" x="66.4" y="478"/><ellipse cx="91.72" cy="490.8" fill="#ADD1B2" rx="8.8" ry="8.8" style="stroke:#181818;stroke-width:0.8000000000000002;"/><path d="M93.9325,487.5 Q94.0575,487.325 94.2075,487.2375 Q94.3575,487.15 94.5325,487.15 Q94.8325,487.15 95.02,487.3625 Q95.2075,487.5625 95.2075,488.05 L95.2075,489.2125 Q95.2075,489.7 95.02,489.9125 Q94.8325,490.125 94.5325,490.125 Q94.2575,490.125 94.095,489.9625 Q93.9325,489.8125 93.845,489.4 Q93.8075,489.1125 93.6575,488.9625 Q93.395,488.6625 92.9075,488.4875 Q92.42,488.3125 91.92,488.3125 Q91.3075,488.3125 90.795,488.575 Q90.295,488.8375 89.895,489.4375 Q89.5075,490.0375 89.5075,490.8625 L89.5075,491.7375 Q89.5075,492.725 90.22,493.3875 Q90.9325,494.0375 92.2075,494.0375 Q92.9575,494.0375 93.4825,493.8375 Q93.795,493.7125 94.1325,493.3625 Q94.345,493.15 94.4575,493.0875 Q94.5825,493.025 94.745,493.025 Q95.0075,493.025 95.2075,493.2375 Q95.42,493.4375 95.42,493.7125 Q95.42,493.9875 95.145,494.3125 Q94.745,494.775 94.1075,495.0375 Q93.245,495.4 92.2075,495.4 Q90.995,495.4 90.0325,494.9 Q89.245,494.5 88.695,493.65 Q88.145,492.7875 88.145,491.7625 L88.145,490.8375 Q88.145,489.775 88.6325,488.8625 Q89.1325,487.9375 90.0075,487.45 Q90.8825,486.95 91.87,486.95 Q92.4575,486.95 92.97,487.0875 Q93.495,487.2125 93.9325,487.5 Z " fill="#000000"/><text fill="#000000" font-family="sans-serif" font-size="11.2" lengthAdjust="spacing" textLength="20" x="105.88" y="495.4375">Skill</text><line style="stroke:#181818;stroke-width:0.4000000000000001;" x1="67.2" x2="140.8" y1="503.6" y2="503.6"/><text fill="#000000" font-family="sans-serif" font-size="11.2" lengthAdjust="spacing" textLength="64.8" x="71.2" y="518.8859">-String name</text><line style="stroke:#181818;stroke-width:0.4000000000000001;" x1="67.2" x2="140.8" y1="524.8969" y2="524.8969"/><text fill="#000000" font-family="sans-serif" font-size="11.2" lengthAdjust="spacing" textLength="65.6" x="71.2" y="540.1828">+Skill (name)</text></g><!--class SkillsRepository--><g id="elem_SkillsRepository"><rect codeLine="23" fill="#F1F1F1" height="53.2969" id="SkillsRepository" rx="2" ry="2" style="stroke:#181818;stroke-width:0.4000000000000001;" width="105.6" x="5.6" y="368.8"/><ellipse cx="17.6" cy="381.6" fill="#ADD1B2" rx="8.8" ry="8.8" style="stroke:#181818;stroke-width:0.8000000000000002;"/><path d="M19.8125,378.3 Q19.9375,378.125 20.0875,378.0375 Q20.2375,377.95 20.4125,377.95 Q20.7125,377.95 20.9,378.1625 Q21.0875,378.3625 21.0875,378.85 L21.0875,380.0125 Q21.0875,380.5 20.9,380.7125 Q20.7125,380.925 20.4125,380.925 Q20.1375,380.925 19.975,380.7625 Q19.8125,380.6125 19.725,380.2 Q19.6875,379.9125 19.5375,379.7625 Q19.275,379.4625 18.7875,379.2875 Q18.3,379.1125 17.8,379.1125 Q17.1875,379.1125 16.675,379.375 Q16.175,379.6375 15.775,380.2375 Q15.3875,380.8375 15.3875,381.6625 L15.3875,382.5375 Q15.3875,383.525 16.1,384.1875 Q16.8125,384.8375 18.0875,384.8375 Q18.8375,384.8375 19.3625,384.6375 Q19.675,384.5125 20.0125,384.1625 Q20.225,383.95 20.3375,383.8875 Q20.4625,383.825 20.625,383.825 Q20.8875,383.825 21.0875,384.0375 Q21.3,384.2375 21.3,384.5125 Q21.3,384.7875 21.025,385.1125 Q20.625,385.575 19.9875,385.8375 Q19.125,386.2 18.0875,386.2 Q16.875,386.2 15.9125,385.7 Q15.125,385.3 14.575,384.45 Q14.025,383.5875 14.025,382.5625 L14.025,381.6375 Q14.025,380.575 14.5125,379.6625 Q15.0125,378.7375 15.8875,378.25 Q16.7625,377.75 17.75,377.75 Q18.3375,377.75 18.85,377.8875 Q19.375,378.0125 19.8125,378.3 Z " fill="#000000"/><text fill="#000000" font-family="sans-serif" font-size="11.2" lengthAdjust="spacing" textLength="80" x="28.8" y="386.2375">SkillsRepository</text><line style="stroke:#181818;stroke-width:0.4000000000000001;" x1="6.4" x2="110.4" y1="394.4" y2="394.4"/><line style="stroke:#181818;stroke-width:0.4000000000000001;" x1="6.4" x2="110.4" y1="400.8" y2="400.8"/><text fill="#000000" font-family="sans-serif" font-size="11.2" lengthAdjust="spacing" textLength="73.6" x="10.4" y="416.0859">+getSkillsList()</text></g><!--class GenerateTeamRepository--><g id="elem_GenerateTeamRepository"><rect codeLine="27" fill="#F1F1F1" height="53.2969" id="GenerateTeamRepository" rx="2" ry="2" style="stroke:#181818;stroke-width:0.4000000000000001;" width="208.8" x="217.2" y="368.8"/><ellipse cx="252.6" cy="381.6" fill="#ADD1B2" rx="8.8" ry="8.8" style="stroke:#181818;stroke-width:0.8000000000000002;"/><path d="M254.8125,378.3 Q254.9375,378.125 255.0875,378.0375 Q255.2375,377.95 255.4125,377.95 Q255.7125,377.95 255.9,378.1625 Q256.0875,378.3625 256.0875,378.85 L256.0875,380.0125 Q256.0875,380.5 255.9,380.7125 Q255.7125,380.925 255.4125,380.925 Q255.1375,380.925 254.975,380.7625 Q254.8125,380.6125 254.725,380.2 Q254.6875,379.9125 254.5375,379.7625 Q254.275,379.4625 253.7875,379.2875 Q253.3,379.1125 252.8,379.1125 Q252.1875,379.1125 251.675,379.375 Q251.175,379.6375 250.775,380.2375 Q250.3875,380.8375 250.3875,381.6625 L250.3875,382.5375 Q250.3875,383.525 251.1,384.1875 Q251.8125,384.8375 253.0875,384.8375 Q253.8375,384.8375 254.3625,384.6375 Q254.675,384.5125 255.0125,384.1625 Q255.225,383.95 255.3375,383.8875 Q255.4625,383.825 255.625,383.825 Q255.8875,383.825 256.0875,384.0375 Q256.3,384.2375 256.3,384.5125 Q256.3,384.7875 256.025,385.1125 Q255.625,385.575 254.9875,385.8375 Q254.125,386.2 253.0875,386.2 Q251.875,386.2 250.9125,385.7 Q250.125,385.3 249.575,384.45 Q249.025,383.5875 249.025,382.5625 L249.025,381.6375 Q249.025,380.575 249.5125,379.6625 Q250.0125,378.7375 250.8875,378.25 Q251.7625,377.75 252.75,377.75 Q253.3375,377.75 253.85,377.8875 Q254.375,378.0125 254.8125,378.3 Z " fill="#000000"/><text fill="#000000" font-family="sans-serif" font-size="11.2" lengthAdjust="spacing" textLength="131.2" x="269" y="386.2375">GenerateTeamRepository</text><line style="stroke:#181818;stroke-width:0.4000000000000001;" x1="218" x2="425.2" y1="394.4" y2="394.4"/><line style="stroke:#181818;stroke-width:0.4000000000000001;" x1="218" x2="425.2" y1="400.8" y2="400.8"/><text fill="#000000" font-family="sans-serif" font-size="11.2" lengthAdjust="spacing" textLength="199.2" x="222" y="416.0859">+generateTeam(minSize, maxSize, skill)</text></g><!--class Repositories--><g id="elem_Repositories"><rect codeLine="31" fill="#F1F1F1" height="97.9875" id="Repositories" rx="2" ry="2" style="stroke:#181818;stroke-width:0.4000000000000001;" width="171.2" x="105.6" y="223.2"/><ellipse cx="156.2" cy="236" fill="#ADD1B2" rx="8.8" ry="8.8" style="stroke:#181818;stroke-width:0.8000000000000002;"/><path d="M158.4125,232.7 Q158.5375,232.525 158.6875,232.4375 Q158.8375,232.35 159.0125,232.35 Q159.3125,232.35 159.5,232.5625 Q159.6875,232.7625 159.6875,233.25 L159.6875,234.4125 Q159.6875,234.9 159.5,235.1125 Q159.3125,235.325 159.0125,235.325 Q158.7375,235.325 158.575,235.1625 Q158.4125,235.0125 158.325,234.6 Q158.2875,234.3125 158.1375,234.1625 Q157.875,233.8625 157.3875,233.6875 Q156.9,233.5125 156.4,233.5125 Q155.7875,233.5125 155.275,233.775 Q154.775,234.0375 154.375,234.6375 Q153.9875,235.2375 153.9875,236.0625 L153.9875,236.9375 Q153.9875,237.925 154.7,238.5875 Q155.4125,239.2375 156.6875,239.2375 Q157.4375,239.2375 157.9625,239.0375 Q158.275,238.9125 158.6125,238.5625 Q158.825,238.35 158.9375,238.2875 Q159.0625,238.225 159.225,238.225 Q159.4875,238.225 159.6875,238.4375 Q159.9,238.6375 159.9,238.9125 Q159.9,239.1875 159.625,239.5125 Q159.225,239.975 158.5875,240.2375 Q157.725,240.6 156.6875,240.6 Q155.475,240.6 154.5125,240.1 Q153.725,239.7 153.175,238.85 Q152.625,237.9875 152.625,236.9625 L152.625,236.0375 Q152.625,234.975 153.1125,234.0625 Q153.6125,233.1375 154.4875,232.65 Q155.3625,232.15 156.35,232.15 Q156.9375,232.15 157.45,232.2875 Q157.975,232.4125 158.4125,232.7 Z " fill="#000000"/><text fill="#000000" font-family="sans-serif" font-size="11.2" lengthAdjust="spacing" textLength="63.2" x="172.6" y="240.6375">Repositories</text><line style="stroke:#181818;stroke-width:0.4000000000000001;" x1="106.4" x2="276" y1="248.8" y2="248.8"/><line style="stroke:#181818;stroke-width:0.4000000000000001;" x1="106.4" x2="276" y1="255.2" y2="255.2"/><text fill="#000000" font-family="sans-serif" font-size="11.2" lengthAdjust="spacing" textLength="75.2" x="110.4" y="270.4859">-Repositories()</text><text fill="#000000" font-family="sans-serif" font-size="11.2" lengthAdjust="spacing" textLength="145.6" x="110.4" y="285.3828">+getInstance() : Repositories</text><text fill="#000000" font-family="sans-serif" font-size="11.2" lengthAdjust="spacing" textLength="104.8" x="110.4" y="300.2797">+getSkillRepository()</text><text fill="#000000" font-family="sans-serif" font-size="11.2" lengthAdjust="spacing" textLength="161.6" x="110.4" y="315.1766">+getGenerateTeamRepository()</text></g><!--class HRM--><g id="elem_HRM"><rect codeLine="38" fill="#F1F1F1" height="53.2969" id="HRM" rx="2" ry="2" style="stroke:#181818;stroke-width:0.4000000000000001;" width="49.6" x="139.2" y="368.8"/><ellipse cx="151.2" cy="381.6" fill="#ADD1B2" rx="8.8" ry="8.8" style="stroke:#181818;stroke-width:0.8000000000000002;"/><path d="M153.4125,378.3 Q153.5375,378.125 153.6875,378.0375 Q153.8375,377.95 154.0125,377.95 Q154.3125,377.95 154.5,378.1625 Q154.6875,378.3625 154.6875,378.85 L154.6875,380.0125 Q154.6875,380.5 154.5,380.7125 Q154.3125,380.925 154.0125,380.925 Q153.7375,380.925 153.575,380.7625 Q153.4125,380.6125 153.325,380.2 Q153.2875,379.9125 153.1375,379.7625 Q152.875,379.4625 152.3875,379.2875 Q151.9,379.1125 151.4,379.1125 Q150.7875,379.1125 150.275,379.375 Q149.775,379.6375 149.375,380.2375 Q148.9875,380.8375 148.9875,381.6625 L148.9875,382.5375 Q148.9875,383.525 149.7,384.1875 Q150.4125,384.8375 151.6875,384.8375 Q152.4375,384.8375 152.9625,384.6375 Q153.275,384.5125 153.6125,384.1625 Q153.825,383.95 153.9375,383.8875 Q154.0625,383.825 154.225,383.825 Q154.4875,383.825 154.6875,384.0375 Q154.9,384.2375 154.9,384.5125 Q154.9,384.7875 154.625,385.1125 Q154.225,385.575 153.5875,385.8375 Q152.725,386.2 151.6875,386.2 Q150.475,386.2 149.5125,385.7 Q148.725,385.3 148.175,384.45 Q147.625,383.5875 147.625,382.5625 L147.625,381.6375 Q147.625,380.575 148.1125,379.6625 Q148.6125,378.7375 149.4875,378.25 Q150.3625,377.75 151.35,377.75 Q151.9375,377.75 152.45,377.8875 Q152.975,378.0125 153.4125,378.3 Z " fill="#000000"/><text fill="#000000" font-family="sans-serif" font-size="11.2" lengthAdjust="spacing" textLength="24" x="162.4" y="386.2375">HRM</text><line style="stroke:#181818;stroke-width:0.4000000000000001;" x1="140" x2="188" y1="394.4" y2="394.4"/><text fill="#000000" font-family="sans-serif" font-size="11.2" lengthAdjust="spacing" textLength="32" x="144" y="409.6859">-name</text><line style="stroke:#181818;stroke-width:0.4000000000000001;" x1="140" x2="188" y1="415.6969" y2="415.6969"/></g><!--class GenerateTeamController--><g id="elem_GenerateTeamController"><rect codeLine="42" fill="#F1F1F1" height="83.0906" id="GenerateTeamController" rx="2" ry="2" style="stroke:#181818;stroke-width:0.4000000000000001;" width="184" x="99.2" y="92"/><ellipse cx="125.6" cy="104.8" fill="#ADD1B2" rx="8.8" ry="8.8" style="stroke:#181818;stroke-width:0.8000000000000002;"/><path d="M127.8125,101.5 Q127.9375,101.325 128.0875,101.2375 Q128.2375,101.15 128.4125,101.15 Q128.7125,101.15 128.9,101.3625 Q129.0875,101.5625 129.0875,102.05 L129.0875,103.2125 Q129.0875,103.7 128.9,103.9125 Q128.7125,104.125 128.4125,104.125 Q128.1375,104.125 127.975,103.9625 Q127.8125,103.8125 127.725,103.4 Q127.6875,103.1125 127.5375,102.9625 Q127.275,102.6625 126.7875,102.4875 Q126.3,102.3125 125.8,102.3125 Q125.1875,102.3125 124.675,102.575 Q124.175,102.8375 123.775,103.4375 Q123.3875,104.0375 123.3875,104.8625 L123.3875,105.7375 Q123.3875,106.725 124.1,107.3875 Q124.8125,108.0375 126.0875,108.0375 Q126.8375,108.0375 127.3625,107.8375 Q127.675,107.7125 128.0125,107.3625 Q128.225,107.15 128.3375,107.0875 Q128.4625,107.025 128.625,107.025 Q128.8875,107.025 129.0875,107.2375 Q129.3,107.4375 129.3,107.7125 Q129.3,107.9875 129.025,108.3125 Q128.625,108.775 127.9875,109.0375 Q127.125,109.4 126.0875,109.4 Q124.875,109.4 123.9125,108.9 Q123.125,108.5 122.575,107.65 Q122.025,106.7875 122.025,105.7625 L122.025,104.8375 Q122.025,103.775 122.5125,102.8625 Q123.0125,101.9375 123.8875,101.45 Q124.7625,100.95 125.75,100.95 Q126.3375,100.95 126.85,101.0875 Q127.375,101.2125 127.8125,101.5 Z " fill="#000000"/><text fill="#000000" font-family="sans-serif" font-size="11.2" lengthAdjust="spacing" textLength="126.4" x="140" y="109.4375">GenerateTeamController</text><line style="stroke:#181818;stroke-width:0.4000000000000001;" x1="100" x2="282.4" y1="117.6" y2="117.6"/><line style="stroke:#181818;stroke-width:0.4000000000000001;" x1="100" x2="282.4" y1="124" y2="124"/><text fill="#000000" font-family="sans-serif" font-size="11.2" lengthAdjust="spacing" textLength="140.8" x="104" y="139.2859">+GenerateTeamController()</text><text fill="#000000" font-family="sans-serif" font-size="11.2" lengthAdjust="spacing" textLength="73.6" x="104" y="154.1828">+getSkillsList()</text><text fill="#000000" font-family="sans-serif" font-size="11.2" lengthAdjust="spacing" textLength="174.4" x="104" y="169.0797">+generateTeam(minSize, maxSize)</text></g><!--class GenerateTeamUI--><g id="elem_GenerateTeamUI"><rect codeLine="48" fill="#F1F1F1" height="38.4" id="GenerateTeamUI" rx="2" ry="2" style="stroke:#181818;stroke-width:0.4000000000000001;" width="112" x="135.2" y="5.6"/><ellipse cx="147.2" cy="18.4" fill="#ADD1B2" rx="8.8" ry="8.8" style="stroke:#181818;stroke-width:0.8000000000000002;"/><path d="M149.4125,15.1 Q149.5375,14.925 149.6875,14.8375 Q149.8375,14.75 150.0125,14.75 Q150.3125,14.75 150.5,14.9625 Q150.6875,15.1625 150.6875,15.65 L150.6875,16.8125 Q150.6875,17.3 150.5,17.5125 Q150.3125,17.725 150.0125,17.725 Q149.7375,17.725 149.575,17.5625 Q149.4125,17.4125 149.325,17 Q149.2875,16.7125 149.1375,16.5625 Q148.875,16.2625 148.3875,16.0875 Q147.9,15.9125 147.4,15.9125 Q146.7875,15.9125 146.275,16.175 Q145.775,16.4375 145.375,17.0375 Q144.9875,17.6375 144.9875,18.4625 L144.9875,19.3375 Q144.9875,20.325 145.7,20.9875 Q146.4125,21.6375 147.6875,21.6375 Q148.4375,21.6375 148.9625,21.4375 Q149.275,21.3125 149.6125,20.9625 Q149.825,20.75 149.9375,20.6875 Q150.0625,20.625 150.225,20.625 Q150.4875,20.625 150.6875,20.8375 Q150.9,21.0375 150.9,21.3125 Q150.9,21.5875 150.625,21.9125 Q150.225,22.375 149.5875,22.6375 Q148.725,23 147.6875,23 Q146.475,23 145.5125,22.5 Q144.725,22.1 144.175,21.25 Q143.625,20.3875 143.625,19.3625 L143.625,18.4375 Q143.625,17.375 144.1125,16.4625 Q144.6125,15.5375 145.4875,15.05 Q146.3625,14.55 147.35,14.55 Q147.9375,14.55 148.45,14.6875 Q148.975,14.8125 149.4125,15.1 Z " fill="#000000"/><text fill="#000000" font-family="sans-serif" font-size="11.2" lengthAdjust="spacing" textLength="86.4" x="158.4" y="23.0375">GenerateTeamUI</text><line style="stroke:#181818;stroke-width:0.4000000000000001;" x1="136" x2="246.4" y1="31.2" y2="31.2"/><line style="stroke:#181818;stroke-width:0.4000000000000001;" x1="136" x2="246.4" y1="37.6" y2="37.6"/></g><!--link GenerateTeamUI to GenerateTeamController--><g id="link_GenerateTeamUI_GenerateTeamController"><path codeLine="51" d="M191.2,44.032 C191.2,57.2 191.2,70.64 191.2,87.168 " fill="none" id="GenerateTeamUI-to-GenerateTeamController" style="stroke:#181818;stroke-width:0.8000000000000002;stroke-dasharray:7.0,7.0;"/><polygon fill="#181818" points="191.2,91.968,194.4,84.768,191.2,87.968,188,84.768,191.2,91.968" style="stroke:#181818;stroke-width:0.8000000000000002;"/></g><!--link GenerateTeamController to Repositories--><g id="link_GenerateTeamController_Repositories"><path codeLine="52" d="M191.2,175.448 C191.2,190.4 191.2,202.64 191.2,218.16 " fill="none" id="GenerateTeamController-to-Repositories" style="stroke:#181818;stroke-width:0.8000000000000002;stroke-dasharray:7.0,7.0;"/><polygon fill="#181818" points="191.2,222.96,194.4,215.76,191.2,218.96,188,215.76,191.2,222.96" style="stroke:#181818;stroke-width:0.8000000000000002;"/></g><!--link GenerateTeamController to GenerateTeamRepository--><g id="link_GenerateTeamController_GenerateTeamRepository"><path codeLine="53" d="M237.024,175.424 C263.016,198.688 290.4,223.2 290.4,223.2 C290.4,223.2 307.2773,316.0134 316.0053,364.0134 " fill="none" id="GenerateTeamController-to-GenerateTeamRepository" style="stroke:#181818;stroke-width:0.8000000000000002;stroke-dasharray:7.0,7.0;"/><polygon fill="#181818" points="316.864,368.736,318.7243,361.0797,316.1484,364.8005,312.4275,362.2246,316.864,368.736" style="stroke:#181818;stroke-width:0.8000000000000002;"/></g><!--link GenerateTeamController to SkillsRepository--><g id="link_GenerateTeamController_SkillsRepository"><path codeLine="54" d="M145.008,175.424 C118.8,198.688 91.2,223.2 91.2,223.2 C91.2,223.2 73.4613,316.0214 64.2853,364.0214 " fill="none" id="GenerateTeamController-to-SkillsRepository" style="stroke:#181818;stroke-width:0.8000000000000002;stroke-dasharray:7.0,7.0;"/><polygon fill="#181818" points="63.384,368.736,67.879,362.2649,64.1351,364.8071,61.5928,361.0632,63.384,368.736" style="stroke:#181818;stroke-width:0.8000000000000002;"/></g><!--link Repositories to GenerateTeamRepository--><g id="link_Repositories_GenerateTeamRepository"><path codeLine="55" d="M242.736,321.016 C260.104,337.272 275.3273,351.5042 290.1673,365.3922 " fill="none" id="Repositories-to-GenerateTeamRepository" style="stroke:#181818;stroke-width:0.8000000000000002;"/><polygon fill="#181818" points="293.672,368.672,290.6016,361.4158,290.7514,365.9388,286.2284,366.0887,293.672,368.672" style="stroke:#181818;stroke-width:0.8000000000000002;"/></g><!--link Repositories to SkillsRepository--><g id="link_Repositories_SkillsRepository"><path codeLine="56" d="M138.712,321.016 C121.024,337.272 105.4862,351.536 90.3742,365.424 " fill="none" id="Repositories-to-SkillsRepository" style="stroke:#181818;stroke-width:0.8000000000000002;"/><polygon fill="#181818" points="86.84,368.672,94.3066,366.1562,89.7852,365.9654,89.976,361.4439,86.84,368.672" style="stroke:#181818;stroke-width:0.8000000000000002;"/></g><!--link HRM to GenerateTeam--><g id="link_HRM_GenerateTeam"><path codeLine="57" d="M188.968,417.72 C206.2,432.44 226.0147,449.3699 246.7907,467.1219 " fill="none" id="HRM-to-GenerateTeam" style="stroke:#181818;stroke-width:0.8000000000000002;"/><polygon fill="#181818" points="250.44,470.24,247.0448,463.13,247.3989,467.6416,242.8873,467.9957,250.44,470.24" style="stroke:#181818;stroke-width:0.8000000000000002;"/></g><!--link HRM to Skill--><g id="link_HRM_Skill"><path codeLine="58" d="M150.384,422.448 C141.808,438.856 132.8787,455.9376 123.6627,473.5776 " fill="none" id="HRM-to-Skill" style="stroke:#181818;stroke-width:0.8000000000000002;"/><polygon fill="#181818" points="121.44,477.832,127.6103,472.9322,123.2922,474.2867,121.9378,469.9687,121.44,477.832" style="stroke:#181818;stroke-width:0.8000000000000002;"/></g><!--link GenerateTeamRepository to GenerateTeam--><g id="link_GenerateTeamRepository_GenerateTeam"><path codeLine="59" d="M316.336,422.448 C313.472,436.608 310.8224,449.727 307.5984,465.687 " fill="none" id="GenerateTeamRepository-to-GenerateTeam" style="stroke:#181818;stroke-width:0.8000000000000002;"/><polygon fill="#181818" points="306.648,470.392,311.2103,463.9682,307.44,466.4712,304.937,462.7009,306.648,470.392" style="stroke:#181818;stroke-width:0.8000000000000002;"/></g><!--link SkillsRepository to Skill--><g id="link_SkillsRepository_Skill"><path codeLine="60" d="M68.744,422.448 C75.264,438.856 81.9638,455.7311 88.9718,473.3711 " fill="none" id="SkillsRepository-to-Skill" style="stroke:#181818;stroke-width:0.8000000000000002;"/><polygon fill="#181818" points="90.744,477.832,91.0596,469.9592,89.2672,474.1146,85.1118,472.3222,90.744,477.832" style="stroke:#181818;stroke-width:0.8000000000000002;"/></g><!--SRC=[ZLBBJiCm4BplL-oDL7s8CmSan04gmQM13p3fDhNgsf6z20BYtt7Ir75ULNFBxCpixAxTGUf2M774GcG7aLFAfIAqbB7GkI9mWU3sOck-fCvn9vIBAqfguh8WB8mggn-8YfaIpZqmM_dnoRJEZ4xb3-4jm8sY7ICRj3BVCsvbrLKQ3L1hy8aqMS7qHjxc5z1_IvIQyIXhZnWHtpLIG_EECcdOYpDfWJwSKZE0ltEdj092YzHdzLDgSQJ6xrHFAcGWSnigZ9DiRDaup34dFjLUfEDarYhYOAEwQt87j-0WoONqCUXRXq1hxVn9CqfcUDSXzJAtiMBrUF1ujEVDQyXGhsvqw4UZsHgbo8QXnyjnyyukhzZKnCBVrxwdh_ImrUf-8WDC9AyKdGrUu8qlxfAY_wgWS-RbSj9pm1iuLJVg6mImPiF42nse1c-_jG3u1m00]--></g></svg>