<?xml version="1.0" encoding="us-ascii" standalone="no"?><svg xmlns="http://www.w3.org/2000/svg" xmlns:xlink="http://www.w3.org/1999/xlink" contentStyleType="text/css" height="362.4px" preserveAspectRatio="none" style="width:567px;height:362px;background:#FFFFFF;" version="1.1" viewBox="0 0 567 362" width="567.6px" zoomAndPan="magnify"><defs/><g><text fill="#000000" font-family="sans-serif" font-size="5.6" font-weight="bold" lengthAdjust="spacing" textLength="40" x="261.126" y="10.043">Domain Model</text><!--class MediumSizedPark--><g id="elem_MediumSizedPark"><rect codeLine="11" fill="#F1F1F1" height="14.6484" id="MediumSizedPark" rx="1" ry="1" style="stroke:#181818;stroke-width:0.20000000000000004;" width="47.2" x="425.852" y="18.6484"/><text fill="#000000" font-family="sans-serif" font-size="5.6" lengthAdjust="spacing" textLength="44.8" x="427.052" y="26.6914">MediumSizedPark</text><line style="stroke:#181818;stroke-width:0.20000000000000004;" x1="426.252" x2="472.652" y1="30.0969" y2="30.0969"/></g><!--class LargeSizedPark--><g id="elem_LargeSizedPark"><rect codeLine="13" fill="#F1F1F1" height="14.6484" id="LargeSizedPark" rx="1" ry="1" style="stroke:#181818;stroke-width:0.20000000000000004;" width="42.4" x="487.052" y="18.6484"/><text fill="#000000" font-family="sans-serif" font-size="5.6" lengthAdjust="spacing" textLength="40" x="488.252" y="26.6914">LargeSizedPark</text><line style="stroke:#181818;stroke-width:0.20000000000000004;" x1="487.452" x2="529.052" y1="30.0969" y2="30.0969"/></g><!--class Garden--><g id="elem_Garden"><rect codeLine="15" fill="#F1F1F1" height="14.6484" id="Garden" rx="1" ry="1" style="stroke:#181818;stroke-width:0.20000000000000004;" width="21.6" x="543.452" y="18.6484"/><text fill="#000000" font-family="sans-serif" font-size="5.6" lengthAdjust="spacing" textLength="19.2" x="544.652" y="26.6914">Garden</text><line style="stroke:#181818;stroke-width:0.20000000000000004;" x1="543.852" x2="564.652" y1="30.0969" y2="30.0969"/></g><!--class GreenSpace--><g id="elem_GreenSpace"><rect codeLine="17" fill="#F1F1F1" height="14.6484" id="GreenSpace" rx="1" ry="1" style="stroke:#181818;stroke-width:0.20000000000000004;" width="34.4" x="477.852" y="68.6484"/><text fill="#000000" font-family="sans-serif" font-size="5.6" lengthAdjust="spacing" textLength="32" x="479.052" y="76.6914">GreenSpace</text><line style="stroke:#181818;stroke-width:0.20000000000000004;" x1="478.252" x2="511.852" y1="80.0969" y2="80.0969"/></g><!--class Organization--><g id="elem_Organization"><rect codeLine="20" fill="#F1F1F1" height="14.6484" id="Organization" rx="1" ry="1" style="stroke:#181818;stroke-width:0.20000000000000004;" width="34.4" x="265.452" y="18.6484"/><text fill="#000000" font-family="sans-serif" font-size="5.6" lengthAdjust="spacing" textLength="32" x="266.652" y="26.6914">Organization</text><line style="stroke:#181818;stroke-width:0.20000000000000004;" x1="265.852" x2="299.452" y1="30.0969" y2="30.0969"/></g><!--class FleetManager--><g id="elem_FleetManager"><rect codeLine="23" fill="#F1F1F1" height="22.0969" id="FleetManager" rx="1" ry="1" style="stroke:#181818;stroke-width:0.20000000000000004;" width="37.6" x="123.852" y="65.0484"/><text fill="#000000" font-family="sans-serif" font-size="5.6" lengthAdjust="spacing" textLength="35.2" x="125.052" y="73.0914">FleetManager</text><line style="stroke:#181818;stroke-width:0.20000000000000004;" x1="124.252" x2="161.052" y1="76.4969" y2="76.4969"/><text fill="#000000" font-family="sans-serif" font-size="5.6" lengthAdjust="spacing" textLength="14" x="126.252" y="84.1398">name</text></g><!--class HumanResourcesManager--><g id="elem_HumanResourcesManager"><rect codeLine="26" fill="#F1F1F1" height="22.0969" id="HumanResourcesManager" rx="1" ry="1" style="stroke:#181818;stroke-width:0.20000000000000004;" width="69.6" x="296.652" y="65.0484"/><text fill="#000000" font-family="sans-serif" font-size="5.6" lengthAdjust="spacing" textLength="67.2" x="297.852" y="73.0914">HumanResourcesManager</text><line style="stroke:#181818;stroke-width:0.20000000000000004;" x1="297.052" x2="365.852" y1="76.4969" y2="76.4969"/><text fill="#000000" font-family="sans-serif" font-size="5.6" lengthAdjust="spacing" textLength="14" x="299.052" y="84.1398">name</text></g><!--class GreenSpaceManager--><g id="elem_GreenSpaceManager"><rect codeLine="29" fill="#F1F1F1" height="22.0969" id="GreenSpaceManager" rx="1" ry="1" style="stroke:#181818;stroke-width:0.20000000000000004;" width="56.8" x="380.252" y="65.0484"/><text fill="#000000" font-family="sans-serif" font-size="5.6" lengthAdjust="spacing" textLength="54.4" x="381.452" y="73.0914">GreenSpaceManager</text><line style="stroke:#181818;stroke-width:0.20000000000000004;" x1="380.652" x2="436.652" y1="76.4969" y2="76.4969"/><text fill="#000000" font-family="sans-serif" font-size="5.6" lengthAdjust="spacing" textLength="14" x="382.652" y="84.1398">name</text></g><!--class GreenSpaceUser--><g id="elem_GreenSpaceUser"><rect codeLine="32" fill="#F1F1F1" height="22.0969" id="GreenSpaceUser" rx="1" ry="1" style="stroke:#181818;stroke-width:0.20000000000000004;" width="46" x="63.652" y="65.0484"/><text fill="#000000" font-family="sans-serif" font-size="5.6" lengthAdjust="spacing" textLength="43.6" x="64.852" y="73.0914">GreenSpaceUser</text><line style="stroke:#181818;stroke-width:0.20000000000000004;" x1="64.052" x2="109.252" y1="76.4969" y2="76.4969"/><text fill="#000000" font-family="sans-serif" font-size="5.6" lengthAdjust="spacing" textLength="14" x="66.052" y="84.1398">name</text></g><!--class Equipment--><g id="elem_Equipment"><rect codeLine="36" fill="#F1F1F1" height="14.6484" id="Equipment" rx="1" ry="1" style="stroke:#181818;stroke-width:0.20000000000000004;" width="29.2" x="53.652" y="152.0484"/><text fill="#000000" font-family="sans-serif" font-size="5.6" lengthAdjust="spacing" textLength="26.8" x="54.852" y="160.0914">Equipment</text><line style="stroke:#181818;stroke-width:0.20000000000000004;" x1="54.052" x2="82.452" y1="163.4969" y2="163.4969"/></g><!--class Machine--><g id="elem_Machine"><rect codeLine="38" fill="#F1F1F1" height="14.6484" id="Machine" rx="1" ry="1" style="stroke:#181818;stroke-width:0.20000000000000004;" width="23.6" x="96.852" y="152.0484"/><text fill="#000000" font-family="sans-serif" font-size="5.6" lengthAdjust="spacing" textLength="21.2" x="98.052" y="160.0914">Machine</text><line style="stroke:#181818;stroke-width:0.20000000000000004;" x1="97.252" x2="120.052" y1="163.4969" y2="163.4969"/></g><!--class Vehicle--><g id="elem_Vehicle"><rect codeLine="40" fill="#F1F1F1" height="81.6844" id="Vehicle" rx="1" ry="1" style="stroke:#181818;stroke-width:0.20000000000000004;" width="87.2" x="134.652" y="118.6484"/><text fill="#000000" font-family="sans-serif" font-size="5.6" lengthAdjust="spacing" textLength="18.4" x="169.052" y="126.6914">Vehicle</text><line style="stroke:#181818;stroke-width:0.20000000000000004;" x1="135.052" x2="221.452" y1="130.0969" y2="130.0969"/><text fill="#000000" font-family="sans-serif" font-size="5.6" lengthAdjust="spacing" textLength="14.8" x="137.052" y="137.7398">brand</text><text fill="#000000" font-family="sans-serif" font-size="5.6" lengthAdjust="spacing" textLength="15.2" x="137.052" y="145.1883">model</text><text fill="#000000" font-family="sans-serif" font-size="5.6" lengthAdjust="spacing" textLength="10" x="137.052" y="152.6367">tare</text><text fill="#000000" font-family="sans-serif" font-size="5.6" lengthAdjust="spacing" textLength="31.6" x="137.052" y="160.0852">grossWeight</text><text fill="#000000" font-family="sans-serif" font-size="5.6" lengthAdjust="spacing" textLength="26" x="137.052" y="167.5336">currentKm</text><text fill="#000000" font-family="sans-serif" font-size="5.6" lengthAdjust="spacing" textLength="31.2" x="137.052" y="174.982">registerDate</text><text fill="#000000" font-family="sans-serif" font-size="5.6" lengthAdjust="spacing" textLength="38.8" x="137.052" y="182.4305">acquisitionDate</text><text fill="#000000" font-family="sans-serif" font-size="5.6" lengthAdjust="spacing" textLength="82.4" x="137.052" y="189.8789">maintenanceCheckUpFrequency</text><text fill="#000000" font-family="sans-serif" font-size="5.6" lengthAdjust="spacing" textLength="32" x="137.052" y="197.3273">plateNumber</text></g><!--class CheckUp--><g id="elem_CheckUp"><rect codeLine="51" fill="#F1F1F1" height="36.9938" id="CheckUp" rx="1" ry="1" style="stroke:#181818;stroke-width:0.20000000000000004;" width="25.2" x="60.452" y="250.6484"/><text fill="#000000" font-family="sans-serif" font-size="5.6" lengthAdjust="spacing" textLength="22.8" x="61.652" y="258.6914">CheckUp</text><line style="stroke:#181818;stroke-width:0.20000000000000004;" x1="60.852" x2="85.252" y1="262.0969" y2="262.0969"/><text fill="#000000" font-family="sans-serif" font-size="5.6" lengthAdjust="spacing" textLength="17.6" x="62.852" y="269.7398">vehicle</text><text fill="#000000" font-family="sans-serif" font-size="5.6" lengthAdjust="spacing" textLength="11.2" x="62.852" y="277.1883">date</text><text fill="#000000" font-family="sans-serif" font-size="5.6" lengthAdjust="spacing" textLength="10" x="62.852" y="284.6367">kms</text></g><!--class VehicleType--><g id="elem_VehicleType"><rect codeLine="56" fill="#F1F1F1" height="36.9938" id="VehicleType" rx="1" ry="1" style="stroke:#181818;stroke-width:0.20000000000000004;" width="44" x="156.252" y="250.6484"/><text fill="#000000" font-family="sans-serif" font-size="5.6" lengthAdjust="spacing" textLength="31.2" x="162.652" y="258.6914">VehicleType</text><line style="stroke:#181818;stroke-width:0.20000000000000004;" x1="156.652" x2="199.852" y1="262.0969" y2="262.0969"/><text fill="#000000" font-family="sans-serif" font-size="5.6" lengthAdjust="spacing" textLength="35.6" x="158.652" y="269.7398">typeTransport</text><text fill="#000000" font-family="sans-serif" font-size="5.6" lengthAdjust="spacing" textLength="39.2" x="158.652" y="277.1883">packageWeight</text><text fill="#000000" font-family="sans-serif" font-size="5.6" lengthAdjust="spacing" textLength="22.8" x="158.652" y="284.6367">transport</text></g><!--class Job--><g id="elem_Job"><rect codeLine="62" fill="#F1F1F1" height="29.5453" id="Job" rx="1" ry="1" style="stroke:#181818;stroke-width:0.20000000000000004;" width="32.4" x="388.052" y="144.6484"/><text fill="#000000" font-family="sans-serif" font-size="5.6" lengthAdjust="spacing" textLength="8.8" x="399.852" y="152.6914">Job</text><line style="stroke:#181818;stroke-width:0.20000000000000004;" x1="388.452" x2="420.052" y1="156.0969" y2="156.0969"/><text fill="#000000" font-family="sans-serif" font-size="5.6" lengthAdjust="spacing" textLength="14" x="390.452" y="163.7398">name</text><text fill="#000000" font-family="sans-serif" font-size="5.6" lengthAdjust="spacing" textLength="27.6" x="390.452" y="171.1883">description</text></g><!--class Collaborator--><g id="elem_Collaborator"><rect codeLine="66" fill="#F1F1F1" height="74.2359" id="Collaborator" rx="1" ry="1" style="stroke:#181818;stroke-width:0.20000000000000004;" width="42" x="347.252" y="231.8484"/><text fill="#000000" font-family="sans-serif" font-size="5.6" lengthAdjust="spacing" textLength="31.2" x="352.652" y="239.8914">Collaborator</text><line style="stroke:#181818;stroke-width:0.20000000000000004;" x1="347.652" x2="388.852" y1="243.2969" y2="243.2969"/><text fill="#000000" font-family="sans-serif" font-size="5.6" lengthAdjust="spacing" textLength="14" x="349.652" y="250.9398">name</text><text fill="#000000" font-family="sans-serif" font-size="5.6" lengthAdjust="spacing" textLength="20.4" x="349.652" y="258.3883">birthday</text><text fill="#000000" font-family="sans-serif" font-size="5.6" lengthAdjust="spacing" textLength="37.2" x="349.652" y="265.8367">admissionDate</text><text fill="#000000" font-family="sans-serif" font-size="5.6" lengthAdjust="spacing" textLength="20.4" x="349.652" y="273.2852">address</text><text fill="#000000" font-family="sans-serif" font-size="5.6" lengthAdjust="spacing" textLength="35.6" x="349.652" y="280.7336">phoneNumber</text><text fill="#000000" font-family="sans-serif" font-size="5.6" lengthAdjust="spacing" textLength="13.2" x="349.652" y="288.182">email</text><text fill="#000000" font-family="sans-serif" font-size="5.6" lengthAdjust="spacing" textLength="28" x="349.652" y="295.6305">IDDocType</text><text fill="#000000" font-family="sans-serif" font-size="5.6" lengthAdjust="spacing" textLength="24.8" x="349.652" y="303.0789">IDNumber</text></g><!--class Skill--><g id="elem_Skill"><rect codeLine="76" fill="#F1F1F1" height="22.0969" id="Skill" rx="1" ry="1" style="stroke:#181818;stroke-width:0.20000000000000004;" width="18.8" x="407.652" y="337.8484"/><text fill="#000000" font-family="sans-serif" font-size="5.6" lengthAdjust="spacing" textLength="10" x="412.052" y="345.8914">Skill</text><line style="stroke:#181818;stroke-width:0.20000000000000004;" x1="408.052" x2="426.052" y1="349.2969" y2="349.2969"/><text fill="#000000" font-family="sans-serif" font-size="5.6" lengthAdjust="spacing" textLength="14" x="410.052" y="356.9398">name</text></g><!--class GenerateTeam--><g id="elem_GenerateTeam"><rect codeLine="79" fill="#F1F1F1" height="36.9938" id="GenerateTeam" rx="1" ry="1" style="stroke:#181818;stroke-width:0.20000000000000004;" width="40.8" x="333.052" y="141.0484"/><text fill="#000000" font-family="sans-serif" font-size="5.6" lengthAdjust="spacing" textLength="38.4" x="334.252" y="149.0914">GenerateTeam</text><line style="stroke:#181818;stroke-width:0.20000000000000004;" x1="333.452" x2="373.452" y1="152.4969" y2="152.4969"/><text fill="#000000" font-family="sans-serif" font-size="5.6" lengthAdjust="spacing" textLength="19.2" x="335.452" y="160.1398">minSize</text><text fill="#000000" font-family="sans-serif" font-size="5.6" lengthAdjust="spacing" textLength="20.4" x="335.452" y="167.5883">maxSize</text><text fill="#000000" font-family="sans-serif" font-size="5.6" lengthAdjust="spacing" textLength="31.6" x="335.452" y="175.0367">skillsNeeded</text></g><!--class Task--><g id="elem_Task"><rect codeLine="85" fill="#F1F1F1" height="14.6484" id="Task" rx="1" ry="1" style="stroke:#181818;stroke-width:0.20000000000000004;" width="14.8" x="258.852" y="68.6484"/><text fill="#000000" font-family="sans-serif" font-size="5.6" lengthAdjust="spacing" textLength="12.4" x="260.052" y="76.6914">Task</text><line style="stroke:#181818;stroke-width:0.20000000000000004;" x1="259.252" x2="273.252" y1="80.0969" y2="80.0969"/></g><!--link Organization to GreenSpace--><g id="link_Organization_GreenSpace"><path codeLine="88" d="M299.876,30.3004 C316.86,34.1084 343.56,40.1204 366.652,45.4484 C406.48,54.6364 453.192,65.6924 477.824,71.5484 " fill="none" id="Organization-GreenSpace" style="stroke:#181818;stroke-width:0.4000000000000001;"/><polygon fill="#000000" points="402.2003,49.7583,398.9412,47.7961,398.4103,50.0865,402.2003,49.7583" style="stroke:#000000;stroke-width:0.4000000000000001;"/><text fill="#000000" font-family="sans-serif" font-size="5.2" lengthAdjust="spacing" textLength="21.2" x="403.852" y="51.4598">manages</text><text fill="#000000" font-family="sans-serif" font-size="5.2" lengthAdjust="spacing" textLength="2.8" x="303.077" y="29.2812">1</text><text fill="#000000" font-family="sans-serif" font-size="5.2" lengthAdjust="spacing" textLength="8" x="466.7061" y="69.2191">1..*</text></g><!--link MediumSizedPark to GreenSpace--><g id="link_MediumSizedPark_GreenSpace"><path codeLine="89" d="M455.984,33.4964 C464.652,42.8524 479.868,59.2644 488.528,68.6124 " fill="none" id="MediumSizedPark-GreenSpace" style="stroke:#181818;stroke-width:0.4000000000000001;"/><polygon fill="#000000" points="476.8115,50.7736,475.2144,47.3208,473.4899,48.919,476.8115,50.7736" style="stroke:#000000;stroke-width:0.4000000000000001;"/><text fill="#000000" font-family="sans-serif" font-size="5.2" lengthAdjust="spacing" textLength="8.4" x="479.052" y="51.4598">is a</text><text fill="#000000" font-family="sans-serif" font-size="5.2" lengthAdjust="spacing" textLength="2.8" x="454.5632" y="42.0592">1</text><text fill="#000000" font-family="sans-serif" font-size="5.2" lengthAdjust="spacing" textLength="2.8" x="483.3013" y="64.1463">1</text></g><!--link Garden to GreenSpace--><g id="link_Garden_GreenSpace"><path codeLine="90" d="M545.768,33.4964 C534.516,42.8524 514.764,59.2644 503.516,68.6124 " fill="none" id="Garden-GreenSpace" style="stroke:#181818;stroke-width:0.4000000000000001;"/><polygon fill="#000000" points="530.3139,50.585,533.8478,49.1765,532.345,47.3683,530.3139,50.585" style="stroke:#000000;stroke-width:0.4000000000000001;"/><text fill="#000000" font-family="sans-serif" font-size="5.2" lengthAdjust="spacing" textLength="8.4" x="535.452" y="51.4598">is a</text><text fill="#000000" font-family="sans-serif" font-size="5.2" lengthAdjust="spacing" textLength="2.8" x="540.3117" y="42.0592">1</text><text fill="#000000" font-family="sans-serif" font-size="5.2" lengthAdjust="spacing" textLength="2.8" x="502.8794" y="64.1463">1</text></g><!--link LargeSizedPark to GreenSpace--><g id="link_LargeSizedPark_GreenSpace"><path codeLine="91" d="M506.36,33.4964 C503.852,42.8524 499.448,59.2644 496.94,68.6124 " fill="none" id="LargeSizedPark-GreenSpace" style="stroke:#181818;stroke-width:0.4000000000000001;"/><polygon fill="#000000" points="504.1338,51.2383,506.2066,48.0484,503.9358,47.4393,504.1338,51.2383" style="stroke:#000000;stroke-width:0.4000000000000001;"/><text fill="#000000" font-family="sans-serif" font-size="5.2" lengthAdjust="spacing" textLength="8.4" x="508.252" y="51.4598">is a</text><text fill="#000000" font-family="sans-serif" font-size="5.2" lengthAdjust="spacing" textLength="2.8" x="502.6753" y="42.0592">1</text><text fill="#000000" font-family="sans-serif" font-size="5.2" lengthAdjust="spacing" textLength="2.8" x="494.2895" y="64.1463">1</text></g><!--link Organization to FleetManager--><g id="link_Organization_FleetManager"><path codeLine="92" d="M265.344,32.5324 C238.932,41.8124 188.772,59.4404 161.48,69.0324 " fill="none" id="Organization-FleetManager" style="stroke:#181818;stroke-width:0.4000000000000001;"/><polygon fill="#000000" points="225.1651,49.9697,228.9683,49.8793,228.1888,47.6611,225.1651,49.9697" style="stroke:#000000;stroke-width:0.4000000000000001;"/><text fill="#000000" font-family="sans-serif" font-size="5.2" lengthAdjust="spacing" textLength="8.4" x="230.652" y="51.4598">has</text><text fill="#000000" font-family="sans-serif" font-size="5.2" lengthAdjust="spacing" textLength="2.8" x="259.4455" y="31.8767">1</text><text fill="#000000" font-family="sans-serif" font-size="5.2" lengthAdjust="spacing" textLength="8" x="164.6902" y="66.3804">1..*</text></g><!--link Organization to HumanResourcesManager--><g id="link_Organization_HumanResourcesManager"><path codeLine="93" d="M289.644,33.4964 C297.812,41.7364 311.416,55.4484 320.88,64.9884 " fill="none" id="Organization-HumanResourcesManager" style="stroke:#181818;stroke-width:0.4000000000000001;"/><polygon fill="#000000" points="311.6604,50.7266,309.9472,47.33,308.2779,48.9857,311.6604,50.7266" style="stroke:#000000;stroke-width:0.4000000000000001;"/><text fill="#000000" font-family="sans-serif" font-size="5.2" lengthAdjust="spacing" textLength="8.4" x="313.852" y="51.4598">has</text><text fill="#000000" font-family="sans-serif" font-size="5.2" lengthAdjust="spacing" textLength="2.8" x="288.3469" y="42.0592">1</text><text fill="#000000" font-family="sans-serif" font-size="5.2" lengthAdjust="spacing" textLength="8" x="309.5102" y="60.4581">1..*</text></g><!--link Organization to GreenSpaceManager--><g id="link_Organization_GreenSpaceManager"><path codeLine="94" d="M299.908,33.1844 C320.936,41.3964 356.716,55.3684 381.46,65.0324 " fill="none" id="Organization-GreenSpaceManager" style="stroke:#181818;stroke-width:0.4000000000000001;"/><polygon fill="#000000" points="352.915,50.0342,349.9725,47.623,349.1172,49.8131,352.915,50.0342" style="stroke:#000000;stroke-width:0.4000000000000001;"/><text fill="#000000" font-family="sans-serif" font-size="5.2" lengthAdjust="spacing" textLength="8.4" x="354.652" y="51.4598">has</text><text fill="#000000" font-family="sans-serif" font-size="5.2" lengthAdjust="spacing" textLength="2.8" x="301.9639" y="42.0634">1</text><text fill="#000000" font-family="sans-serif" font-size="5.2" lengthAdjust="spacing" textLength="2.8" x="374.2819" y="61.6378">1</text></g><!--link Organization to GreenSpaceUser--><g id="link_Organization_GreenSpaceUser"><path codeLine="95" d="M265.352,29.6324 C234.928,35.4124 170.016,48.5844 116.652,65.0484 C114.38,65.7484 112.028,66.5124 109.684,67.3004 " fill="none" id="Organization-GreenSpaceUser" style="stroke:#181818;stroke-width:0.4000000000000001;"/><polygon fill="#000000" points="189.1081,49.777,192.9011,50.0687,192.3482,47.7835,189.1081,49.777" style="stroke:#000000;stroke-width:0.4000000000000001;"/><text fill="#000000" font-family="sans-serif" font-size="5.2" lengthAdjust="spacing" textLength="8.4" x="194.652" y="51.4598">has</text><text fill="#000000" font-family="sans-serif" font-size="5.2" lengthAdjust="spacing" textLength="2.8" x="259.4548" y="36.4227">1</text><text fill="#000000" font-family="sans-serif" font-size="5.2" lengthAdjust="spacing" textLength="8" x="112.8096" y="64.7083">1..*</text></g><!--link Collaborator to Job--><g id="link_Collaborator_Job"><path codeLine="96" d="M362.764,231.7124 C363.068,225.0124 364.288,218.2564 367.052,212.2484 C370.476,204.8044 375.824,206.5604 381.052,200.2484 C387.604,192.3364 393.364,182.3324 397.508,174.2604 " fill="none" id="Collaborator-Job" style="stroke:#181818;stroke-width:0.4000000000000001;"/><polygon fill="#000000" points="370.087,214.3953,367.2088,216.8829,369.2206,218.0995,370.087,214.3953" style="stroke:#000000;stroke-width:0.4000000000000001;"/><text fill="#000000" font-family="sans-serif" font-size="5.2" lengthAdjust="spacing" textLength="8.4" x="372.652" y="218.2598">has</text><text fill="#000000" font-family="sans-serif" font-size="5.2" lengthAdjust="spacing" textLength="8" x="354.0079" y="227.2888">0..*</text><text fill="#000000" font-family="sans-serif" font-size="5.2" lengthAdjust="spacing" textLength="2.8" x="393.3083" y="183.0167">1</text></g><!--link Job to Collaborator--><g id="link_Job_Collaborator"><path codeLine="101" d="M399.472,174.2964 C394.64,188.8924 386.984,212.0404 380.46,231.7524 " fill="none" id="Job-Collaborator" style="stroke:#181818;stroke-width:0.4000000000000001;"/><polygon fill="#000000" points="387.6237,218.0054,389.8764,214.9398,387.6442,214.2012,387.6237,218.0054" style="stroke:#000000;stroke-width:0.4000000000000001;"/><text fill="#000000" font-family="sans-serif" font-size="5.2" lengthAdjust="spacing" textLength="26.8" x="391.852" y="218.2598">assigned to</text><text fill="#000000" font-family="sans-serif" font-size="5.2" lengthAdjust="spacing" textLength="2.8" x="395.6098" y="183.0588">1</text><text fill="#000000" font-family="sans-serif" font-size="5.2" lengthAdjust="spacing" textLength="8" x="373.1141" y="227.332">0..*</text></g><!--link Collaborator to Skill--><g id="link_Collaborator_Skill"><path codeLine="97" d="M389.288,299.1444 C393.456,305.3684 397.704,311.9524 401.452,318.2484 C405.224,324.5844 409.032,331.9364 411.94,337.7964 " fill="none" id="Collaborator-Skill" style="stroke:#181818;stroke-width:0.4000000000000001;"/><polygon fill="#000000" points="408.4632,323.8322,407.6481,320.1163,405.6197,321.3051,408.4632,323.8322" style="stroke:#000000;stroke-width:0.4000000000000001;"/><text fill="#000000" font-family="sans-serif" font-size="5.2" lengthAdjust="spacing" textLength="8.4" x="411.052" y="324.2598">has</text><text fill="#000000" font-family="sans-serif" font-size="5.2" lengthAdjust="spacing" textLength="8" x="392.4957" y="301.3942">0..*</text><text fill="#000000" font-family="sans-serif" font-size="5.2" lengthAdjust="spacing" textLength="8" x="401.8329" y="333.268">1..*</text></g><!--link Skill to Collaborator--><g id="link_Skill_Collaborator"><path codeLine="102" d="M407.636,347.3964 C395.488,345.4764 374.816,340.1724 365.452,325.8484 C361.668,320.0644 360.184,313.1884 360.012,306.2604 " fill="none" id="Skill-Collaborator" style="stroke:#181818;stroke-width:0.4000000000000001;"/><polygon fill="#000000" points="365.9385,320.7993,367.908,324.054,369.4449,322.2747,365.9385,320.7993" style="stroke:#000000;stroke-width:0.4000000000000001;"/><text fill="#000000" font-family="sans-serif" font-size="5.2" lengthAdjust="spacing" textLength="26.8" x="371.052" y="324.2598">assigned to</text><text fill="#000000" font-family="sans-serif" font-size="5.2" lengthAdjust="spacing" textLength="8" x="396.5336" y="345.088">1..*</text><text fill="#000000" font-family="sans-serif" font-size="5.2" lengthAdjust="spacing" textLength="8" x="351.1131" y="314.8645">0..*</text></g><!--link HumanResourcesManager to Job--><g id="link_HumanResourcesManager_Job"><path codeLine="98" d="M345.804,87.0724 C350.612,90.7564 355.944,94.9844 360.652,99.0484 C370.168,107.2644 373.308,108.7404 381.052,118.6484 C387.328,126.6764 393.044,136.5924 397.232,144.5884 " fill="none" id="HumanResourcesManager-Job" style="stroke:#181818;stroke-width:0.4000000000000001;"/><polygon fill="#000000" points="372.7851,104.3976,371.2498,100.9169,369.4972,102.484,372.7851,104.3976" style="stroke:#000000;stroke-width:0.4000000000000001;"/><text fill="#000000" font-family="sans-serif" font-size="5.2" lengthAdjust="spacing" textLength="16.8" x="375.052" y="105.0598">selects</text><text fill="#000000" font-family="sans-serif" font-size="5.2" lengthAdjust="spacing" textLength="2.8" x="345.9992" y="96.0216">1</text><text fill="#000000" font-family="sans-serif" font-size="5.2" lengthAdjust="spacing" textLength="2.8" x="392.9322" y="140.1624">1</text></g><!--link HumanResourcesManager to Job--><g id="link_HumanResourcesManager_Job"><path codeLine="100" d="M366.312,85.2884 C379.052,89.2124 391.352,94.0684 395.452,99.0484 C405.888,111.7324 406.872,131.2364 406.048,144.5404 " fill="none" id="HumanResourcesManager-Job-1" style="stroke:#181818;stroke-width:0.4000000000000001;"/><polygon fill="#000000" points="402.966,104.5677,401.9271,100.9081,399.9744,102.2176,402.966,104.5677" style="stroke:#000000;stroke-width:0.4000000000000001;"/><text fill="#000000" font-family="sans-serif" font-size="5.2" lengthAdjust="spacing" textLength="17.2" x="405.452" y="105.0598">register</text><text fill="#000000" font-family="sans-serif" font-size="5.2" lengthAdjust="spacing" textLength="2.8" x="369.4281" y="84.6025">1</text><text fill="#000000" font-family="sans-serif" font-size="5.2" lengthAdjust="spacing" textLength="8" x="397.6554" y="140.1059">1..*</text></g><!--link HumanResourcesManager to Skill--><g id="link_HumanResourcesManager_Skill"><path codeLine="99" d="M366.272,85.3044 C368.7,85.9004 371.112,86.4884 373.452,87.0484 C396.852,92.6604 410.668,80.7084 426.252,99.0484 C458.884,137.4644 430.448,275.9884 423.052,325.8484 C422.468,329.7844 421.452,334.0164 420.42,337.7444 " fill="none" id="HumanResourcesManager-Skill" style="stroke:#181818;stroke-width:0.4000000000000001;"/><polygon fill="#000000" points="441.4715,218.0622,441.8621,214.278,439.5632,214.7711,441.4715,218.0622" style="stroke:#000000;stroke-width:0.4000000000000001;"/><text fill="#000000" font-family="sans-serif" font-size="5.2" lengthAdjust="spacing" textLength="16.8" x="444.652" y="218.2598">selects</text><text fill="#000000" font-family="sans-serif" font-size="5.2" lengthAdjust="spacing" textLength="2.8" x="369.4978" y="92.0438">1</text><text fill="#000000" font-family="sans-serif" font-size="5.2" lengthAdjust="spacing" textLength="8" x="412.2818" y="333.3852">1..*</text></g><!--link HumanResourcesManager to Skill--><g id="link_HumanResourcesManager_Skill"><path codeLine="104" d="M366.36,85.4444 C368.756,86.0044 371.136,86.5444 373.452,87.0484 C402.24,93.3244 414.888,81.6324 438.652,99.0484 C446.604,104.8764 445.868,109.3164 449.052,118.6484 C463.744,161.7484 471.008,174.7044 465.052,219.8484 C459.852,259.2684 454.544,268.5684 441.852,306.2484 C438.848,315.1644 438.472,317.6524 433.852,325.8484 C431.544,329.9364 428.608,334.1364 425.836,337.7884 " fill="none" id="HumanResourcesManager-Skill-1" style="stroke:#181818;stroke-width:0.4000000000000001;"/><polygon fill="#000000" points="468.3108,218.0533,468.625,214.2621,466.3366,214.8014,468.3108,218.0533" style="stroke:#000000;stroke-width:0.4000000000000001;"/><text fill="#000000" font-family="sans-serif" font-size="5.2" lengthAdjust="spacing" textLength="17.2" x="471.452" y="218.2598">register</text><text fill="#000000" font-family="sans-serif" font-size="5.2" lengthAdjust="spacing" textLength="2.8" x="369.5286" y="93.3368">1</text><text fill="#000000" font-family="sans-serif" font-size="5.2" lengthAdjust="spacing" textLength="8" x="428.7923" y="333.2581">1..*</text></g><!--link HumanResourcesManager to Collaborator--><g id="link_HumanResourcesManager_Collaborator"><path codeLine="103" d="M321.608,87.1364 C314.932,95.1484 306.684,106.7404 303.052,118.6484 C292.464,153.3364 289.576,166.5804 303.052,200.2484 C311.892,222.3324 331.632,241.3444 347.092,253.6764 " fill="none" id="HumanResourcesManager-Collaborator" style="stroke:#181818;stroke-width:0.4000000000000001;"/><polygon fill="#000000" points="305.3545,161.4836,305.9693,157.7294,303.6452,158.085,305.3545,161.4836" style="stroke:#000000;stroke-width:0.4000000000000001;"/><text fill="#000000" font-family="sans-serif" font-size="5.2" lengthAdjust="spacing" textLength="17.2" x="308.652" y="161.6598">register</text><text fill="#000000" font-family="sans-serif" font-size="5.2" lengthAdjust="spacing" textLength="2.8" x="316.3484" y="95.9192">1</text><text fill="#000000" font-family="sans-serif" font-size="5.2" lengthAdjust="spacing" textLength="8" x="336.0256" y="250.217">1..*</text></g><!--link HumanResourcesManager to GenerateTeam--><g id="link_HumanResourcesManager_GenerateTeam"><path codeLine="105" d="M329.748,87.1804 C329.144,92.9964 328.904,100.2844 330.252,106.6484 C332.784,118.6204 338.236,131.1844 343.22,141.0084 " fill="none" id="HumanResourcesManager-GenerateTeam" style="stroke:#181818;stroke-width:0.4000000000000001;"/><polygon fill="#000000" points="332.7376,104.8468,332.9996,101.0516,330.7188,101.6224,332.7376,104.8468" style="stroke:#000000;stroke-width:0.4000000000000001;"/><text fill="#000000" font-family="sans-serif" font-size="5.2" lengthAdjust="spacing" textLength="22.8" x="335.852" y="105.0598">generates</text><text fill="#000000" font-family="sans-serif" font-size="5.2" lengthAdjust="spacing" textLength="2.8" x="326.269" y="95.9728">1</text><text fill="#000000" font-family="sans-serif" font-size="5.2" lengthAdjust="spacing" textLength="8" x="342.3047" y="136.6063">1..*</text></g><!--link FleetManager to Vehicle--><g id="link_FleetManager_Vehicle"><path codeLine="106" d="M147.232,87.0764 C150.724,95.1804 155.772,106.8964 160.788,118.5284 " fill="none" id="FleetManager-Vehicle" style="stroke:#181818;stroke-width:0.4000000000000001;"/><polygon fill="#000000" points="158.2436,104.7433,157.8911,100.9554,155.732,101.886,158.2436,104.7433" style="stroke:#000000;stroke-width:0.4000000000000001;"/><text fill="#000000" font-family="sans-serif" font-size="5.2" lengthAdjust="spacing" textLength="17.2" x="161.052" y="105.0598">register</text><text fill="#000000" font-family="sans-serif" font-size="5.2" lengthAdjust="spacing" textLength="2.8" x="145.1674" y="96.0265">1</text><text fill="#000000" font-family="sans-serif" font-size="5.2" lengthAdjust="spacing" textLength="8" x="151.2117" y="114.0862">1..*</text></g><!--link FleetManager to Equipment--><g id="link_FleetManager_Equipment"><path codeLine="107" d="M123.784,84.1364 C108.472,90.4044 89.316,98.3364 88.652,99.0484 C74.46,114.2484 70.104,139.7084 68.796,151.9924 " fill="none" id="FleetManager-Equipment" style="stroke:#181818;stroke-width:0.4000000000000001;"/><polygon fill="#000000" points="89.3928,104.4605,92.584,102.3897,90.7574,100.9094,89.3928,104.4605" style="stroke:#000000;stroke-width:0.4000000000000001;"/><text fill="#000000" font-family="sans-serif" font-size="5.2" lengthAdjust="spacing" textLength="21.2" x="94.252" y="105.0598">manages</text><text fill="#000000" font-family="sans-serif" font-size="5.2" lengthAdjust="spacing" textLength="2.8" x="117.8805" y="83.6671">1</text><text fill="#000000" font-family="sans-serif" font-size="5.2" lengthAdjust="spacing" textLength="8" x="59.7376" y="147.5201">1..*</text></g><!--link FleetManager to Machine--><g id="link_FleetManager_Machine"><path codeLine="108" d="M131.02,87.0764 C127.756,90.6004 124.492,94.7324 122.252,99.0484 C113.1,116.6844 110.068,140.3644 109.092,152.0004 " fill="none" id="FleetManager-Machine" style="stroke:#181818;stroke-width:0.4000000000000001;"/><polygon fill="#000000" points="123.612,104.8015,125.8835,101.7499,123.656,100.9975,123.612,104.8015" style="stroke:#000000;stroke-width:0.4000000000000001;"/><text fill="#000000" font-family="sans-serif" font-size="5.2" lengthAdjust="spacing" textLength="21.2" x="127.852" y="105.0598">manages</text><text fill="#000000" font-family="sans-serif" font-size="5.2" lengthAdjust="spacing" textLength="2.8" x="125.2064" y="96.0265">1</text><text fill="#000000" font-family="sans-serif" font-size="5.2" lengthAdjust="spacing" textLength="8" x="100.0018" y="147.5306">1..*</text></g><!--link FleetManager to CheckUp--><g id="link_FleetManager_CheckUp"><path codeLine="109" d="M123.824,84.3004 C121.42,85.2524 118.984,86.1884 116.652,87.0484 C75.608,102.1604 48.84,83.0324 23.452,118.6484 C2.4,148.1804 12.26,165.7524 23.452,200.2484 C30.692,222.5724 48.256,243.7084 60.412,256.4244 " fill="none" id="FleetManager-CheckUp" style="stroke:#181818;stroke-width:0.4000000000000001;"/><polygon fill="#000000" points="24.7606,161.3833,27.1144,158.3948,24.9083,157.582,24.7606,161.3833" style="stroke:#000000;stroke-width:0.4000000000000001;"/><text fill="#000000" font-family="sans-serif" font-size="5.2" lengthAdjust="spacing" textLength="17.2" x="29.052" y="161.6598">register</text><text fill="#000000" font-family="sans-serif" font-size="5.2" lengthAdjust="spacing" textLength="2.8" x="117.8002" y="91.7704">1</text><text fill="#000000" font-family="sans-serif" font-size="5.2" lengthAdjust="spacing" textLength="8" x="49.24" y="252.1738">1..*</text></g><!--link Vehicle to CheckUp--><g id="link_Vehicle_CheckUp"><path codeLine="110" d="M139.08,200.3604 C120.208,219.8764 98.868,241.9444 85.688,255.5804 " fill="none" id="Vehicle-CheckUp" style="stroke:#181818;stroke-width:0.4000000000000001;"/><polygon fill="#000000" points="126.4618,217.5445,129.8218,215.7606,128.1316,214.1263,126.4618,217.5445" style="stroke:#000000;stroke-width:0.4000000000000001;"/><text fill="#000000" font-family="sans-serif" font-size="5.2" lengthAdjust="spacing" textLength="11.2" x="131.452" y="218.2598">need</text><text fill="#000000" font-family="sans-serif" font-size="5.2" lengthAdjust="spacing" textLength="8" x="128.0445" y="209.0886">0..*</text><text fill="#000000" font-family="sans-serif" font-size="5.2" lengthAdjust="spacing" textLength="2.8" x="88.9338" y="250.4821">1</text></g><!--link Vehicle to VehicleType--><g id="link_Vehicle_VehicleType"><path codeLine="111" d="M178.252,200.3604 C178.252,217.6404 178.252,236.9244 178.252,250.5804 " fill="none" id="Vehicle-VehicleType" style="stroke:#181818;stroke-width:0.4000000000000001;"/><polygon fill="#000000" points="180.252,218.1066,181.4276,214.4886,179.0764,214.4886,180.252,218.1066" style="stroke:#000000;stroke-width:0.4000000000000001;"/><text fill="#000000" font-family="sans-serif" font-size="5.2" lengthAdjust="spacing" textLength="29.6" x="183.852" y="218.2598">cataloged as</text><text fill="#000000" font-family="sans-serif" font-size="5.2" lengthAdjust="spacing" textLength="8" x="169.9708" y="209.0886">0..*</text><text fill="#000000" font-family="sans-serif" font-size="5.2" lengthAdjust="spacing" textLength="2.8" x="175.2464" y="246.1742">1</text></g><!--link GenerateTeam to Collaborator--><g id="link_GenerateTeam_Collaborator"><path codeLine="112" d="M343.028,177.8724 C337.448,189.8044 332.496,205.7924 336.652,219.8484 C338.94,227.5924 342.884,235.2604 347.224,242.1484 " fill="none" id="GenerateTeam-Collaborator" style="stroke:#181818;stroke-width:0.4000000000000001;"/><polygon fill="#000000" points="338.7823,218.1024,339.7197,214.4155,337.3735,214.5686,338.7823,218.1024" style="stroke:#000000;stroke-width:0.4000000000000001;"/><text fill="#000000" font-family="sans-serif" font-size="5.2" lengthAdjust="spacing" textLength="8.4" x="342.252" y="218.2598">has</text><text fill="#000000" font-family="sans-serif" font-size="5.2" lengthAdjust="spacing" textLength="2.8" x="338.4175" y="186.8196">1</text><text fill="#000000" font-family="sans-serif" font-size="5.2" lengthAdjust="spacing" textLength="8" x="336.0173" y="237.0955">2..*</text></g><!--link Task to Skill--><g id="link_Task_Skill"><path codeLine="113" d="M266.408,83.5484 C267.084,104.8524 270.588,169.8444 288.652,219.8484 C307.832,272.9484 311.836,294.2924 358.652,325.8484 C374.292,336.3924 395.556,343.0244 407.636,346.2044 " fill="none" id="Task-Skill" style="stroke:#181818;stroke-width:0.4000000000000001;"/><polygon fill="#000000" points="291.5991,217.8681,290.9211,214.1248,288.8504,215.2383,291.5991,217.8681" style="stroke:#000000;stroke-width:0.4000000000000001;"/><text fill="#000000" font-family="sans-serif" font-size="5.2" lengthAdjust="spacing" textLength="11.2" x="294.252" y="218.2598">need</text><text fill="#000000" font-family="sans-serif" font-size="5.2" lengthAdjust="spacing" textLength="2.8" x="263.2737" y="92.1251">1</text><text fill="#000000" font-family="sans-serif" font-size="5.2" lengthAdjust="spacing" textLength="8" x="396.5336" y="351.9928">1..*</text></g><!--link Organization to Task--><g id="link_Organization_Task"><path codeLine="114" d="M280.3,33.4964 C277.184,42.8524 271.712,59.2644 268.596,68.6124 " fill="none" id="Organization-Task" style="stroke:#181818;stroke-width:0.4000000000000001;"/><polygon fill="#000000" points="277.2196,51.204,279.4789,48.1433,277.2484,47.3999,277.2196,51.204" style="stroke:#000000;stroke-width:0.4000000000000001;"/><text fill="#000000" font-family="sans-serif" font-size="5.2" lengthAdjust="spacing" textLength="8.4" x="281.452" y="51.4598">has</text><text fill="#000000" font-family="sans-serif" font-size="5.2" lengthAdjust="spacing" textLength="2.8" x="276.4917" y="42.0592">1</text><text fill="#000000" font-family="sans-serif" font-size="5.2" lengthAdjust="spacing" textLength="8" x="260.0889" y="64.1463">0..*</text></g><!--link Task to GenerateTeam--><g id="link_Task_GenerateTeam"><path codeLine="115" d="M271.056,83.5164 C275.928,90.2364 284.02,100.2364 293.052,106.6484 C304.492,114.7724 311.096,110.1404 322.252,118.6484 C330.212,124.7204 337.224,133.3044 342.576,141.0004 " fill="none" id="Task-GenerateTeam" style="stroke:#181818;stroke-width:0.4000000000000001;"/><polygon fill="#000000" points="296.6109,104.1596,294.5273,100.9767,293.0544,102.8093,296.6109,104.1596" style="stroke:#000000;stroke-width:0.4000000000000001;"/><text fill="#000000" font-family="sans-serif" font-size="5.2" lengthAdjust="spacing" textLength="26.8" x="298.652" y="105.0598">assigned to</text><text fill="#000000" font-family="sans-serif" font-size="5.2" lengthAdjust="spacing" textLength="8" x="273.4221" y="92.0845">1..*</text><text fill="#000000" font-family="sans-serif" font-size="5.2" lengthAdjust="spacing" textLength="2.8" x="337.973" y="136.5972">1</text></g><!--SRC=[bLLHSzCm37xFh_3raRlj1ezzu8wZ30PqSBHZpwej4bzZExCSOEFuxpYsapgvq7PzgIn_aZx9aa9xgHkme9Wosl3A6eNCsHOB6cuQu7ieSUCUQsGMkGDTrZc0AX3cbzGb-m4rOP5TyHg8tZXdvQvrUCEDtiWdP5T59GKoBYttdeAiq5L6K54uwNoSbL4WDLiRWNLH13TiZKAsgdCWleBTip_5ttJp6QmdE7Fn7gn0dIiiejxub30ea_QBBK7B9t3Iw5n_NIEwDMYVllLwvdyQ50xUFhGAz3SaqrgET0Hu27iMw8wcY0Hvzz3AHg5sMKfhu9NKc6c-OoLzOPE7dGKjWgH2DJl9WSKWbDOGtQCiAnVElBNMk_-amibYAScXNO6BSE2U0CckJeEkUoY76ZJ7jnNo_LrpRV6XHSqVmtrJU-HjgtPe1uO9c1Z-Z7o3B7gtUqNJXBQFJP-Ky-BM9qQDiP5vQjCi5pVS3_NxQ7PvNKD096vbqwLqe6Vg6dR6WZDsYjz9woe1CJSGIXBbrG0XB195IfNHVURT6NsfOlrlLYl3ktJIQLAUpLxMzMoBe4RF2hVeXolUAnbcAZt5xq6cpWVT8WeKXm9iWU9y5AEUNxnSi8iB_tTv-MAH3ydI- -mQbjZhOZf_Wz74GX833q-pTm8r6TqJw2EaHxEwP1NGSVpyx1utNCmCyXcX9eFTMuowR74Le2bCrwSdOK6AhT9ZvvFA-4V7XBNVuyHEMunYFDCinkftI6VLQNfCJ6IKt9Bv5fMbHi6SyV0ODtaxq-OSOXC70yFdLUEPPgFHNR8o7RjN6xNksAfVvQDmH_273qG-kKSC-g_7SVXGkRItHtHwZkCMFa2rtq7_XUMhVSauEAXDwV6XdKSrwtc_cdl3sFvXkys_LY8nEwMHK32UUCgPJXvmt7R_0000]--></g></svg>