<?xml version="1.0" encoding="us-ascii" standalone="no"?><svg xmlns="http://www.w3.org/2000/svg" xmlns:xlink="http://www.w3.org/1999/xlink" contentStyleType="text/css" height="673px" preserveAspectRatio="none" style="width:1010px;height:673px;background:#FFFFFF;" version="1.1" viewBox="0 0 1010 673" width="1010.5px" zoomAndPan="magnify"><defs/><g><rect fill="#FFFFFF" height="557.2969" style="stroke:#181818;stroke-width:0.5;" width="5" x="24.25" y="56.1211"/><rect fill="#FFFFFF" height="37.4561" style="stroke:#181818;stroke-width:0.5;" width="5" x="164.75" y="67.7666"/><rect fill="#FFFFFF" height="15.6455" style="stroke:#181818;stroke-width:0.5;" width="5" x="164.75" y="120.8682"/><rect fill="#FFFFFF" height="461.2588" style="stroke:#181818;stroke-width:0.5;" width="5" x="164.75" y="152.1592"/><rect fill="#FFFFFF" height="429.9678" style="stroke:#181818;stroke-width:0.5;" width="5" x="326.25" y="167.8047"/><rect fill="#FFFFFF" height="177.6006" style="stroke:#181818;stroke-width:0.5;" width="5" x="328.75" y="187.4502"/><rect fill="#FFFFFF" height="15.6455" style="stroke:#181818;stroke-width:0.5;" width="5" x="410.25" y="205.5957"/><rect fill="#FFFFFF" height="15.6455" style="stroke:#181818;stroke-width:0.5;" width="5" x="410.25" y="384.1963"/><rect fill="#FFFFFF" height="15.6455" style="stroke:#181818;stroke-width:0.5;" width="5" x="463.75" y="236.8867"/><rect fill="#FFFFFF" height="15.6455" style="stroke:#181818;stroke-width:0.5;" width="5" x="463.75" y="415.4873"/><rect fill="#FFFFFF" height="15.6455" style="stroke:#181818;stroke-width:0.5;" width="5" x="536.75" y="268.1777"/><rect fill="#FFFFFF" height="15.6455" style="stroke:#181818;stroke-width:0.5;" width="5" x="624.25" y="299.4688"/><rect fill="#FFFFFF" height="15.6455" style="stroke:#181818;stroke-width:0.5;" width="5" x="691.25" y="330.7598"/><rect fill="#FFFFFF" height="135.3486" style="stroke:#181818;stroke-width:0.5;" width="5" x="760.25" y="446.7783"/><rect fill="#FFFFFF" height="65.4365" style="stroke:#181818;stroke-width:0.5;" width="5" x="762.75" y="497.5449"/><rect fill="#FFFFFF" height="21.1455" style="stroke:#181818;stroke-width:0.5;" width="5" x="765.25" y="519.6904"/><line style="stroke:#181818;stroke-width:0.25;stroke-dasharray:5.0,5.0;" x1="26.5" x2="26.5" y1="51.1211" y2="622.418"/><line style="stroke:#181818;stroke-width:0.25;stroke-dasharray:5.0,5.0;" x1="167" x2="167" y1="51.1211" y2="622.418"/><line style="stroke:#181818;stroke-width:0.25;stroke-dasharray:5.0,5.0;" x1="328.5" x2="328.5" y1="87.6719" y2="622.418"/><line style="stroke:#181818;stroke-width:0.25;stroke-dasharray:5.0,5.0;" x1="412.5" x2="412.5" y1="51.1211" y2="622.418"/><line style="stroke:#181818;stroke-width:0.25;stroke-dasharray:5.0,5.0;" x1="466" x2="466" y1="51.1211" y2="622.418"/><line style="stroke:#181818;stroke-width:0.25;stroke-dasharray:5.0,5.0;" x1="539" x2="539" y1="51.1211" y2="622.418"/><line style="stroke:#181818;stroke-width:0.25;stroke-dasharray:5.0,5.0;" x1="626.5" x2="626.5" y1="51.1211" y2="622.418"/><line style="stroke:#181818;stroke-width:0.25;stroke-dasharray:5.0,5.0;" x1="693.5" x2="693.5" y1="51.1211" y2="622.418"/><line style="stroke:#181818;stroke-width:0.25;stroke-dasharray:5.0,5.0;" x1="762.5" x2="762.5" y1="51.1211" y2="622.418"/><line style="stroke:#181818;stroke-width:0.25;stroke-dasharray:5.0,5.0;" x1="983.25" x2="983.25" y1="471.3389" y2="622.418"/><text fill="#000000" font-family="sans-serif" font-size="7" lengthAdjust="spacing" textLength="45.5" x="2.5" y="40.0537">Green Spaces</text><text fill="#000000" font-family="sans-serif" font-size="7" lengthAdjust="spacing" textLength="28" x="11.25" y="49.3643">Manager</text><ellipse cx="26.75" cy="6.75" fill="#E3E3E3" rx="4" ry="4" style="stroke:#181818;stroke-width:0.25;"/><path d="M26.75,10.75 L26.75,24.25 M20.25,14.75 L33.25,14.75 M26.75,24.25 L20.25,31.75 M26.75,24.25 L33.25,31.75 " fill="none" style="stroke:#181818;stroke-width:0.25;"/><text fill="#000000" font-family="sans-serif" font-size="7" lengthAdjust="spacing" textLength="45.5" x="2.5" y="629.4717">Green Spaces</text><text fill="#000000" font-family="sans-serif" font-size="7" lengthAdjust="spacing" textLength="28" x="11.25" y="638.7822">Manager</text><ellipse cx="26.75" cy="644.7891" fill="#E3E3E3" rx="4" ry="4" style="stroke:#181818;stroke-width:0.25;"/><path d="M26.75,648.7891 L26.75,662.2891 M20.25,652.7891 L33.25,652.7891 M26.75,662.2891 L20.25,669.7891 M26.75,662.2891 L33.25,669.7891 " fill="none" style="stroke:#181818;stroke-width:0.25;"/><rect fill="#E3E3E3" height="16.3105" rx="1.25" ry="1.25" style="stroke:#181818;stroke-width:0.25;" width="81.5" x="126.5" y="34.3105"/><text fill="#000000" font-family="sans-serif" font-size="7" lengthAdjust="spacing" textLength="74.5" x="130" y="45.3643">:RegisterGreenSpaceUI</text><rect fill="#E3E3E3" height="16.3105" rx="1.25" ry="1.25" style="stroke:#181818;stroke-width:0.25;" width="81.5" x="126.5" y="621.918"/><text fill="#000000" font-family="sans-serif" font-size="7" lengthAdjust="spacing" textLength="74.5" x="130" y="632.9717">:RegisterGreenSpaceUI</text><rect fill="#E3E3E3" height="16.3105" rx="1.25" ry="1.25" style="stroke:#181818;stroke-width:0.25;" width="106.5" x="275.5" y="621.918"/><text fill="#000000" font-family="sans-serif" font-size="7" lengthAdjust="spacing" textLength="99.5" x="279" y="632.9717">:RegisterGreenSpaceController</text><rect fill="#E3E3E3" height="16.3105" rx="1.25" ry="1.25" style="stroke:#181818;stroke-width:0.25;" width="48.5" x="388.5" y="34.3105"/><text fill="#000000" font-family="sans-serif" font-size="7" lengthAdjust="spacing" textLength="41.5" x="392" y="45.3643">:Repositories</text><rect fill="#E3E3E3" height="16.3105" rx="1.25" ry="1.25" style="stroke:#181818;stroke-width:0.25;" width="48.5" x="388.5" y="621.918"/><text fill="#000000" font-family="sans-serif" font-size="7" lengthAdjust="spacing" textLength="41.5" x="392" y="632.9717">:Repositories</text><rect fill="#E3E3E3" height="25.6211" rx="1.25" ry="1.25" style="stroke:#181818;stroke-width:0.25;" width="48.5" x="442" y="25"/><text fill="#000000" font-family="sans-serif" font-size="7" lengthAdjust="spacing" textLength="37" x="447.75" y="36.0537">repositories</text><text fill="#000000" font-family="sans-serif" font-size="7" lengthAdjust="spacing" textLength="41.5" x="445.5" y="45.3643">:Repositories</text><rect fill="#E3E3E3" height="25.6211" rx="1.25" ry="1.25" style="stroke:#181818;stroke-width:0.25;" width="48.5" x="442" y="621.918"/><text fill="#000000" font-family="sans-serif" font-size="7" lengthAdjust="spacing" textLength="37" x="447.75" y="632.9717">repositories</text><text fill="#000000" font-family="sans-serif" font-size="7" lengthAdjust="spacing" textLength="41.5" x="445.5" y="642.2822">:Repositories</text><rect fill="#E3E3E3" height="25.6211" rx="1.25" ry="1.25" style="stroke:#181818;stroke-width:0.25;" width="87.5" x="495.5" y="25"/><text fill="#000000" font-family="sans-serif" font-size="7" lengthAdjust="spacing" textLength="80.5" x="499" y="36.0537">authenticationRepository:</text><text fill="#000000" font-family="sans-serif" font-size="7" lengthAdjust="spacing" textLength="79" x="499.75" y="45.3643">AuthenticationRepository</text><rect fill="#E3E3E3" height="25.6211" rx="1.25" ry="1.25" style="stroke:#181818;stroke-width:0.25;" width="87.5" x="495.5" y="621.918"/><text fill="#000000" font-family="sans-serif" font-size="7" lengthAdjust="spacing" textLength="80.5" x="499" y="632.9717">authenticationRepository:</text><text fill="#000000" font-family="sans-serif" font-size="7" lengthAdjust="spacing" textLength="79" x="499.75" y="642.2822">AuthenticationRepository</text><rect fill="#E3E3E3" height="25.6211" rx="1.25" ry="1.25" style="stroke:#181818;stroke-width:0.25;" width="77.5" x="588" y="25"/><text fill="#000000" font-family="sans-serif" font-size="7" lengthAdjust="spacing" textLength="70.5" x="591.5" y="36.0537">authenticationFacade:</text><text fill="#000000" font-family="sans-serif" font-size="7" lengthAdjust="spacing" textLength="38.5" x="607.5" y="45.3643">AuthFacade</text><rect fill="#E3E3E3" height="25.6211" rx="1.25" ry="1.25" style="stroke:#181818;stroke-width:0.25;" width="77.5" x="588" y="621.918"/><text fill="#000000" font-family="sans-serif" font-size="7" lengthAdjust="spacing" textLength="70.5" x="591.5" y="632.9717">authenticationFacade:</text><text fill="#000000" font-family="sans-serif" font-size="7" lengthAdjust="spacing" textLength="38.5" x="607.5" y="642.2822">AuthFacade</text><rect fill="#E3E3E3" height="25.6211" rx="1.25" ry="1.25" style="stroke:#181818;stroke-width:0.25;" width="46.5" x="670.5" y="25"/><text fill="#000000" font-family="sans-serif" font-size="7" lengthAdjust="spacing" textLength="16" x="685.75" y="36.0537">user:</text><text fill="#000000" font-family="sans-serif" font-size="7" lengthAdjust="spacing" textLength="39.5" x="674" y="45.3643">UserSession</text><rect fill="#E3E3E3" height="25.6211" rx="1.25" ry="1.25" style="stroke:#181818;stroke-width:0.25;" width="46.5" x="670.5" y="621.918"/><text fill="#000000" font-family="sans-serif" font-size="7" lengthAdjust="spacing" textLength="16" x="685.75" y="632.9717">user:</text><text fill="#000000" font-family="sans-serif" font-size="7" lengthAdjust="spacing" textLength="39.5" x="674" y="642.2822">UserSession</text><rect fill="#E3E3E3" height="25.6211" rx="1.25" ry="1.25" style="stroke:#181818;stroke-width:0.25;" width="81.5" x="722" y="25"/><text fill="#000000" font-family="sans-serif" font-size="7" lengthAdjust="spacing" textLength="74.5" x="725.5" y="36.0537">greenSpaceRepository:</text><text fill="#000000" font-family="sans-serif" font-size="7" lengthAdjust="spacing" textLength="74" x="725.75" y="45.3643">GreenSpaceRepository</text><rect fill="#E3E3E3" height="25.6211" rx="1.25" ry="1.25" style="stroke:#181818;stroke-width:0.25;" width="81.5" x="722" y="621.918"/><text fill="#000000" font-family="sans-serif" font-size="7" lengthAdjust="spacing" textLength="74.5" x="725.5" y="632.9717">greenSpaceRepository:</text><text fill="#000000" font-family="sans-serif" font-size="7" lengthAdjust="spacing" textLength="74" x="725.75" y="642.2822">GreenSpaceRepository</text><rect fill="#E3E3E3" height="25.6211" rx="1.25" ry="1.25" style="stroke:#181818;stroke-width:0.25;" width="49" x="958.75" y="621.918"/><text fill="#000000" font-family="sans-serif" font-size="7" lengthAdjust="spacing" textLength="38.5" x="964" y="632.9717">greenSpace</text><text fill="#000000" font-family="sans-serif" font-size="7" lengthAdjust="spacing" textLength="42" x="962.25" y="642.2822">:GreenSpace</text><rect fill="#FFFFFF" height="557.2969" style="stroke:#181818;stroke-width:0.5;" width="5" x="24.25" y="56.1211"/><rect fill="#FFFFFF" height="37.4561" style="stroke:#181818;stroke-width:0.5;" width="5" x="164.75" y="67.7666"/><rect fill="#FFFFFF" height="15.6455" style="stroke:#181818;stroke-width:0.5;" width="5" x="164.75" y="120.8682"/><rect fill="#FFFFFF" height="461.2588" style="stroke:#181818;stroke-width:0.5;" width="5" x="164.75" y="152.1592"/><rect fill="#FFFFFF" height="429.9678" style="stroke:#181818;stroke-width:0.5;" width="5" x="326.25" y="167.8047"/><rect fill="#FFFFFF" height="177.6006" style="stroke:#181818;stroke-width:0.5;" width="5" x="328.75" y="187.4502"/><rect fill="#FFFFFF" height="15.6455" style="stroke:#181818;stroke-width:0.5;" width="5" x="410.25" y="205.5957"/><rect fill="#FFFFFF" height="15.6455" style="stroke:#181818;stroke-width:0.5;" width="5" x="410.25" y="384.1963"/><rect fill="#FFFFFF" height="15.6455" style="stroke:#181818;stroke-width:0.5;" width="5" x="463.75" y="236.8867"/><rect fill="#FFFFFF" height="15.6455" style="stroke:#181818;stroke-width:0.5;" width="5" x="463.75" y="415.4873"/><rect fill="#FFFFFF" height="15.6455" style="stroke:#181818;stroke-width:0.5;" width="5" x="536.75" y="268.1777"/><rect fill="#FFFFFF" height="15.6455" style="stroke:#181818;stroke-width:0.5;" width="5" x="624.25" y="299.4688"/><rect fill="#FFFFFF" height="15.6455" style="stroke:#181818;stroke-width:0.5;" width="5" x="691.25" y="330.7598"/><rect fill="#FFFFFF" height="135.3486" style="stroke:#181818;stroke-width:0.5;" width="5" x="760.25" y="446.7783"/><rect fill="#FFFFFF" height="65.4365" style="stroke:#181818;stroke-width:0.5;" width="5" x="762.75" y="497.5449"/><rect fill="#FFFFFF" height="21.1455" style="stroke:#181818;stroke-width:0.5;" width="5" x="765.25" y="519.6904"/><polygon fill="#181818" points="158.75,65.7666,163.75,67.7666,158.75,69.7666,160.75,67.7666" style="stroke:#181818;stroke-width:0.5;"/><line style="stroke:#181818;stroke-width:0.5;" x1="29.25" x2="161.75" y1="67.7666" y2="67.7666"/><text fill="#000000" font-family="sans-serif" font-size="6.5" font-weight="bold" lengthAdjust="spacing" textLength="3.5" x="32.75" y="65.1353">1</text><text fill="#000000" font-family="sans-serif" font-size="6.5" lengthAdjust="spacing" textLength="101.5" x="38.25" y="65.1353">asks to register a new green space</text><polygon fill="#181818" points="269.5,81.4121,274.5,83.4121,269.5,85.4121,271.5,83.4121" style="stroke:#181818;stroke-width:0.5;"/><line style="stroke:#181818;stroke-width:0.5;" x1="169.75" x2="272.5" y1="83.4121" y2="83.4121"/><text fill="#000000" font-family="sans-serif" font-size="6.5" font-weight="bold" lengthAdjust="spacing" textLength="3.5" x="173.25" y="80.7808">2</text><text fill="#000000" font-family="sans-serif" font-size="6.5" lengthAdjust="spacing" textLength="18" x="178.75" y="80.7808">create</text><rect fill="#E3E3E3" height="16.3105" rx="1.25" ry="1.25" style="stroke:#181818;stroke-width:0.25;" width="106.5" x="275.5" y="71.7666"/><text fill="#000000" font-family="sans-serif" font-size="7" lengthAdjust="spacing" textLength="99.5" x="279" y="82.8203">:RegisterGreenSpaceController</text><polygon fill="#181818" points="34.75,103.2227,29.75,105.2227,34.75,107.2227,32.75,105.2227" style="stroke:#181818;stroke-width:0.5;"/><line style="stroke:#181818;stroke-width:0.5;stroke-dasharray:2.0,2.0;" x1="31.75" x2="166.75" y1="105.2227" y2="105.2227"/><text fill="#000000" font-family="sans-serif" font-size="6.5" font-weight="bold" lengthAdjust="spacing" textLength="3.5" x="37.75" y="102.5913">3</text><text fill="#000000" font-family="sans-serif" font-size="6.5" lengthAdjust="spacing" textLength="39.5" x="43.25" y="102.5913">requests data</text><polygon fill="#181818" points="158.75,118.8682,163.75,120.8682,158.75,122.8682,160.75,120.8682" style="stroke:#181818;stroke-width:0.5;"/><line style="stroke:#181818;stroke-width:0.5;" x1="29.25" x2="161.75" y1="120.8682" y2="120.8682"/><text fill="#000000" font-family="sans-serif" font-size="6.5" font-weight="bold" lengthAdjust="spacing" textLength="3.5" x="32.75" y="118.2368">4</text><text fill="#000000" font-family="sans-serif" font-size="6.5" lengthAdjust="spacing" textLength="84" x="38.25" y="118.2368">types/selects requested data</text><polygon fill="#181818" points="34.75,134.5137,29.75,136.5137,34.75,138.5137,32.75,136.5137" style="stroke:#181818;stroke-width:0.5;"/><line style="stroke:#181818;stroke-width:0.5;stroke-dasharray:2.0,2.0;" x1="31.75" x2="166.75" y1="136.5137" y2="136.5137"/><text fill="#000000" font-family="sans-serif" font-size="6.5" font-weight="bold" lengthAdjust="spacing" textLength="3.5" x="37.75" y="133.8823">5</text><text fill="#000000" font-family="sans-serif" font-size="6.5" lengthAdjust="spacing" textLength="118" x="43.25" y="133.8823">shows all data and requests confirmation</text><polygon fill="#181818" points="158.75,150.1592,163.75,152.1592,158.75,154.1592,160.75,152.1592" style="stroke:#181818;stroke-width:0.5;"/><line style="stroke:#181818;stroke-width:0.5;" x1="29.25" x2="161.75" y1="152.1592" y2="152.1592"/><text fill="#000000" font-family="sans-serif" font-size="6.5" font-weight="bold" lengthAdjust="spacing" textLength="3.5" x="32.75" y="149.5278">6</text><text fill="#000000" font-family="sans-serif" font-size="6.5" lengthAdjust="spacing" textLength="39" x="38.25" y="149.5278">confirms data</text><polygon fill="#181818" points="320.25,165.8047,325.25,167.8047,320.25,169.8047,322.25,167.8047" style="stroke:#181818;stroke-width:0.5;"/><line style="stroke:#181818;stroke-width:0.5;" x1="169.75" x2="323.25" y1="167.8047" y2="167.8047"/><text fill="#000000" font-family="sans-serif" font-size="6.5" font-weight="bold" lengthAdjust="spacing" textLength="3.5" x="173.25" y="165.1733">7</text><text fill="#000000" font-family="sans-serif" font-size="6.5" lengthAdjust="spacing" textLength="141.5" x="178.75" y="165.1733">+registerGreenSpace(name, address, type, area)</text><line style="stroke:#181818;stroke-width:0.5;" x1="331.25" x2="354.75" y1="180.9502" y2="180.9502"/><line style="stroke:#181818;stroke-width:0.5;" x1="354.75" x2="354.75" y1="180.9502" y2="187.4502"/><line style="stroke:#181818;stroke-width:0.5;" x1="334.25" x2="354.75" y1="187.4502" y2="187.4502"/><polygon fill="#181818" points="339.25,185.4502,334.25,187.4502,339.25,189.4502,337.25,187.4502" style="stroke:#181818;stroke-width:0.5;"/><text fill="#000000" font-family="sans-serif" font-size="6.5" font-weight="bold" lengthAdjust="spacing" textLength="3.5" x="337.25" y="178.3188">8</text><text fill="#000000" font-family="sans-serif" font-size="6.5" lengthAdjust="spacing" textLength="66.5" x="342.75" y="178.3188">getGSMFromSession()</text><polygon fill="#181818" points="404.25,203.5957,409.25,205.5957,404.25,207.5957,406.25,205.5957" style="stroke:#181818;stroke-width:0.5;"/><line style="stroke:#181818;stroke-width:0.5;" x1="333.75" x2="407.25" y1="205.5957" y2="205.5957"/><text fill="#000000" font-family="sans-serif" font-size="6.5" font-weight="bold" lengthAdjust="spacing" textLength="3.5" x="337.25" y="202.9644">9</text><text fill="#000000" font-family="sans-serif" font-size="6.5" lengthAdjust="spacing" textLength="37.5" x="342.75" y="202.9644">getInstance()</text><polygon fill="#181818" points="339.25,219.2412,334.25,221.2412,339.25,223.2412,337.25,221.2412" style="stroke:#181818;stroke-width:0.5;"/><line style="stroke:#181818;stroke-width:0.5;stroke-dasharray:2.0,2.0;" x1="336.25" x2="412.25" y1="221.2412" y2="221.2412"/><text fill="#000000" font-family="sans-serif" font-size="6.5" font-weight="bold" lengthAdjust="spacing" textLength="7" x="342.25" y="218.6099">10</text><text fill="#000000" font-family="sans-serif" font-size="6.5" lengthAdjust="spacing" textLength="33.5" x="351.25" y="218.6099">repositories</text><polygon fill="#181818" points="457.75,234.8867,462.75,236.8867,457.75,238.8867,459.75,236.8867" style="stroke:#181818;stroke-width:0.5;"/><line style="stroke:#181818;stroke-width:0.5;" x1="333.75" x2="460.75" y1="236.8867" y2="236.8867"/><text fill="#000000" font-family="sans-serif" font-size="6.5" font-weight="bold" lengthAdjust="spacing" textLength="7" x="337.25" y="234.2554">11</text><text fill="#000000" font-family="sans-serif" font-size="6.5" lengthAdjust="spacing" textLength="85.5" x="346.25" y="234.2554">getAuthenticationRepository()</text><polygon fill="#181818" points="339.25,250.5322,334.25,252.5322,339.25,254.5322,337.25,252.5322" style="stroke:#181818;stroke-width:0.5;"/><line style="stroke:#181818;stroke-width:0.5;stroke-dasharray:2.0,2.0;" x1="336.25" x2="465.75" y1="252.5322" y2="252.5322"/><text fill="#000000" font-family="sans-serif" font-size="6.5" font-weight="bold" lengthAdjust="spacing" textLength="7" x="342.25" y="249.9009">12</text><text fill="#000000" font-family="sans-serif" font-size="6.5" lengthAdjust="spacing" textLength="71.5" x="351.25" y="249.9009">authenticationRepository</text><polygon fill="#181818" points="530.75,266.1777,535.75,268.1777,530.75,270.1777,532.75,268.1777" style="stroke:#181818;stroke-width:0.5;"/><line style="stroke:#181818;stroke-width:0.5;" x1="333.75" x2="533.75" y1="268.1777" y2="268.1777"/><text fill="#000000" font-family="sans-serif" font-size="6.5" font-weight="bold" lengthAdjust="spacing" textLength="7" x="337.25" y="265.5464">13</text><text fill="#000000" font-family="sans-serif" font-size="6.5" lengthAdjust="spacing" textLength="71" x="346.25" y="265.5464">getCurrentUserSession()</text><polygon fill="#181818" points="339.25,281.8232,334.25,283.8232,339.25,285.8232,337.25,283.8232" style="stroke:#181818;stroke-width:0.5;"/><line style="stroke:#181818;stroke-width:0.5;stroke-dasharray:2.0,2.0;" x1="336.25" x2="538.75" y1="283.8232" y2="283.8232"/><text fill="#000000" font-family="sans-serif" font-size="6.5" font-weight="bold" lengthAdjust="spacing" textLength="7" x="342.25" y="281.1919">14</text><text fill="#000000" font-family="sans-serif" font-size="6.5" lengthAdjust="spacing" textLength="62" x="351.25" y="281.1919">authenticationFacade</text><polygon fill="#181818" points="618.25,297.4688,623.25,299.4688,618.25,301.4688,620.25,299.4688" style="stroke:#181818;stroke-width:0.5;"/><line style="stroke:#181818;stroke-width:0.5;" x1="333.75" x2="621.25" y1="299.4688" y2="299.4688"/><text fill="#000000" font-family="sans-serif" font-size="6.5" font-weight="bold" lengthAdjust="spacing" textLength="7" x="337.25" y="296.8374">15</text><text fill="#000000" font-family="sans-serif" font-size="6.5" lengthAdjust="spacing" textLength="71" x="346.25" y="296.8374">getCurrentUserSession()</text><polygon fill="#181818" points="339.25,313.1143,334.25,315.1143,339.25,317.1143,337.25,315.1143" style="stroke:#181818;stroke-width:0.5;"/><line style="stroke:#181818;stroke-width:0.5;stroke-dasharray:2.0,2.0;" x1="336.25" x2="626.25" y1="315.1143" y2="315.1143"/><text fill="#000000" font-family="sans-serif" font-size="6.5" font-weight="bold" lengthAdjust="spacing" textLength="7" x="342.25" y="312.4829">16</text><text fill="#000000" font-family="sans-serif" font-size="6.5" lengthAdjust="spacing" textLength="36" x="351.25" y="312.4829">userSession</text><polygon fill="#181818" points="685.25,328.7598,690.25,330.7598,685.25,332.7598,687.25,330.7598" style="stroke:#181818;stroke-width:0.5;"/><line style="stroke:#181818;stroke-width:0.5;" x1="333.75" x2="688.25" y1="330.7598" y2="330.7598"/><text fill="#000000" font-family="sans-serif" font-size="6.5" font-weight="bold" lengthAdjust="spacing" textLength="7" x="337.25" y="328.1284">17</text><text fill="#000000" font-family="sans-serif" font-size="6.5" lengthAdjust="spacing" textLength="31.5" x="346.25" y="328.1284">getUserId()</text><polygon fill="#181818" points="339.25,344.4053,334.25,346.4053,339.25,348.4053,337.25,346.4053" style="stroke:#181818;stroke-width:0.5;"/><line style="stroke:#181818;stroke-width:0.5;stroke-dasharray:2.0,2.0;" x1="336.25" x2="693.25" y1="346.4053" y2="346.4053"/><text fill="#000000" font-family="sans-serif" font-size="6.5" font-weight="bold" lengthAdjust="spacing" textLength="7" x="342.25" y="343.7739">18</text><text fill="#000000" font-family="sans-serif" font-size="6.5" lengthAdjust="spacing" textLength="15.5" x="351.25" y="343.7739">email</text><line style="stroke:#181818;stroke-width:0.5;stroke-dasharray:2.0,2.0;" x1="333.75" x2="354.75" y1="364.5508" y2="364.5508"/><line style="stroke:#181818;stroke-width:0.5;stroke-dasharray:2.0,2.0;" x1="354.75" x2="354.75" y1="364.5508" y2="371.0508"/><line style="stroke:#181818;stroke-width:0.5;stroke-dasharray:2.0,2.0;" x1="331.25" x2="354.75" y1="371.0508" y2="371.0508"/><polygon fill="#181818" points="336.25,369.0508,331.25,371.0508,336.25,373.0508,334.25,371.0508" style="stroke:#181818;stroke-width:0.5;"/><text fill="#000000" font-family="sans-serif" font-size="6.5" font-weight="bold" lengthAdjust="spacing" textLength="7" x="337.25" y="361.9194">19</text><text fill="#000000" font-family="sans-serif" font-size="6.5" lengthAdjust="spacing" textLength="15.5" x="346.25" y="361.9194">email</text><polygon fill="#181818" points="404.25,382.1963,409.25,384.1963,404.25,386.1963,406.25,384.1963" style="stroke:#181818;stroke-width:0.5;"/><line style="stroke:#181818;stroke-width:0.5;" x1="331.25" x2="407.25" y1="384.1963" y2="384.1963"/><text fill="#000000" font-family="sans-serif" font-size="6.5" font-weight="bold" lengthAdjust="spacing" textLength="7" x="334.75" y="381.5649">20</text><text fill="#000000" font-family="sans-serif" font-size="6.5" lengthAdjust="spacing" textLength="37.5" x="343.75" y="381.5649">getInstance()</text><polygon fill="#181818" points="336.75,397.8418,331.75,399.8418,336.75,401.8418,334.75,399.8418" style="stroke:#181818;stroke-width:0.5;"/><line style="stroke:#181818;stroke-width:0.5;stroke-dasharray:2.0,2.0;" x1="333.75" x2="412.25" y1="399.8418" y2="399.8418"/><text fill="#000000" font-family="sans-serif" font-size="6.5" font-weight="bold" lengthAdjust="spacing" textLength="7" x="339.75" y="397.2104">21</text><text fill="#000000" font-family="sans-serif" font-size="6.5" lengthAdjust="spacing" textLength="33.5" x="348.75" y="397.2104">repositories</text><polygon fill="#181818" points="457.75,413.4873,462.75,415.4873,457.75,417.4873,459.75,415.4873" style="stroke:#181818;stroke-width:0.5;"/><line style="stroke:#181818;stroke-width:0.5;" x1="331.25" x2="460.75" y1="415.4873" y2="415.4873"/><text fill="#000000" font-family="sans-serif" font-size="6.5" font-weight="bold" lengthAdjust="spacing" textLength="7" x="334.75" y="412.856">22</text><text fill="#000000" font-family="sans-serif" font-size="6.5" lengthAdjust="spacing" textLength="80" x="343.75" y="412.856">getGreenSpaceRepository()</text><polygon fill="#181818" points="336.75,429.1328,331.75,431.1328,336.75,433.1328,334.75,431.1328" style="stroke:#181818;stroke-width:0.5;"/><line style="stroke:#181818;stroke-width:0.5;stroke-dasharray:2.0,2.0;" x1="333.75" x2="465.75" y1="431.1328" y2="431.1328"/><text fill="#000000" font-family="sans-serif" font-size="6.5" font-weight="bold" lengthAdjust="spacing" textLength="7" x="339.75" y="428.5015">23</text><text fill="#000000" font-family="sans-serif" font-size="6.5" lengthAdjust="spacing" textLength="65.5" x="348.75" y="428.5015">greenSpaceRepository</text><polygon fill="#181818" points="754.25,444.7783,759.25,446.7783,754.25,448.7783,756.25,446.7783" style="stroke:#181818;stroke-width:0.5;"/><line style="stroke:#181818;stroke-width:0.5;" x1="331.25" x2="757.25" y1="446.7783" y2="446.7783"/><text fill="#000000" font-family="sans-serif" font-size="6.5" font-weight="bold" lengthAdjust="spacing" textLength="7" x="334.75" y="444.147">24</text><text fill="#000000" font-family="sans-serif" font-size="6.5" lengthAdjust="spacing" textLength="208.5" x="343.75" y="444.147">+registerGreenSpace(name ,address, type, area, greenSpacesManager)</text><polygon fill="#181818" points="952.75,460.4238,957.75,462.4238,952.75,464.4238,954.75,462.4238" style="stroke:#181818;stroke-width:0.5;"/><line style="stroke:#181818;stroke-width:0.5;" x1="765.25" x2="955.75" y1="462.4238" y2="462.4238"/><text fill="#000000" font-family="sans-serif" font-size="6.5" font-weight="bold" lengthAdjust="spacing" textLength="7" x="768.75" y="459.7925">25</text><text fill="#000000" font-family="sans-serif" font-size="6.5" lengthAdjust="spacing" textLength="172.5" x="777.75" y="459.7925">+register(name ,address, type, area, greenSpacesManager)</text><rect fill="#E3E3E3" height="25.6211" rx="1.25" ry="1.25" style="stroke:#181818;stroke-width:0.25;" width="49" x="958.75" y="450.7783"/><text fill="#000000" font-family="sans-serif" font-size="7" lengthAdjust="spacing" textLength="38.5" x="964" y="461.832">greenSpace</text><text fill="#000000" font-family="sans-serif" font-size="7" lengthAdjust="spacing" textLength="42" x="962.25" y="471.1426">:GreenSpace</text><line style="stroke:#181818;stroke-width:0.5;" x1="765.25" x2="788.75" y1="491.0449" y2="491.0449"/><line style="stroke:#181818;stroke-width:0.5;" x1="788.75" x2="788.75" y1="491.0449" y2="497.5449"/><line style="stroke:#181818;stroke-width:0.5;" x1="768.25" x2="788.75" y1="497.5449" y2="497.5449"/><polygon fill="#181818" points="773.25,495.5449,768.25,497.5449,773.25,499.5449,771.25,497.5449" style="stroke:#181818;stroke-width:0.5;"/><text fill="#000000" font-family="sans-serif" font-size="6.5" font-weight="bold" lengthAdjust="spacing" textLength="7" x="771.25" y="488.4136">26</text><text fill="#000000" font-family="sans-serif" font-size="6.5" lengthAdjust="spacing" textLength="87" x="780.25" y="488.4136">addGreenSpace (greenSpace)</text><line style="stroke:#181818;stroke-width:0.5;" x1="767.75" x2="791.25" y1="513.1904" y2="513.1904"/><line style="stroke:#181818;stroke-width:0.5;" x1="791.25" x2="791.25" y1="513.1904" y2="519.6904"/><line style="stroke:#181818;stroke-width:0.5;" x1="770.75" x2="791.25" y1="519.6904" y2="519.6904"/><polygon fill="#181818" points="775.75,517.6904,770.75,519.6904,775.75,521.6904,773.75,519.6904" style="stroke:#181818;stroke-width:0.5;"/><text fill="#000000" font-family="sans-serif" font-size="6.5" font-weight="bold" lengthAdjust="spacing" textLength="7" x="773.75" y="510.5591">27</text><text fill="#000000" font-family="sans-serif" font-size="6.5" lengthAdjust="spacing" textLength="98" x="782.75" y="510.5591">validateGreenSpace (greenSpace)</text><line style="stroke:#181818;stroke-width:0.5;stroke-dasharray:2.0,2.0;" x1="770.25" x2="791.25" y1="540.3359" y2="540.3359"/><line style="stroke:#181818;stroke-width:0.5;stroke-dasharray:2.0,2.0;" x1="791.25" x2="791.25" y1="540.3359" y2="546.8359"/><line style="stroke:#181818;stroke-width:0.5;stroke-dasharray:2.0,2.0;" x1="767.75" x2="791.25" y1="546.8359" y2="546.8359"/><polygon fill="#181818" points="772.75,544.8359,767.75,546.8359,772.75,548.8359,770.75,546.8359" style="stroke:#181818;stroke-width:0.5;"/><text fill="#000000" font-family="sans-serif" font-size="6.5" font-weight="bold" lengthAdjust="spacing" textLength="7" x="773.75" y="537.7046">28</text><text fill="#000000" font-family="sans-serif" font-size="6.5" lengthAdjust="spacing" textLength="2" x="782.75" y="537.7046">&#160;</text><line style="stroke:#181818;stroke-width:0.5;stroke-dasharray:2.0,2.0;" x1="767.75" x2="788.75" y1="562.4814" y2="562.4814"/><line style="stroke:#181818;stroke-width:0.5;stroke-dasharray:2.0,2.0;" x1="788.75" x2="788.75" y1="562.4814" y2="568.9814"/><line style="stroke:#181818;stroke-width:0.5;stroke-dasharray:2.0,2.0;" x1="765.25" x2="788.75" y1="568.9814" y2="568.9814"/><polygon fill="#181818" points="770.25,566.9814,765.25,568.9814,770.25,570.9814,768.25,568.9814" style="stroke:#181818;stroke-width:0.5;"/><text fill="#000000" font-family="sans-serif" font-size="6.5" font-weight="bold" lengthAdjust="spacing" textLength="7" x="771.25" y="559.8501">29</text><text fill="#000000" font-family="sans-serif" font-size="6.5" lengthAdjust="spacing" textLength="2" x="780.25" y="559.8501">&#160;</text><polygon fill="#181818" points="336.75,580.127,331.75,582.127,336.75,584.127,334.75,582.127" style="stroke:#181818;stroke-width:0.5;"/><line style="stroke:#181818;stroke-width:0.5;stroke-dasharray:2.0,2.0;" x1="333.75" x2="762.25" y1="582.127" y2="582.127"/><text fill="#000000" font-family="sans-serif" font-size="6.5" font-weight="bold" lengthAdjust="spacing" textLength="7" x="339.75" y="579.4956">30</text><text fill="#000000" font-family="sans-serif" font-size="6.5" lengthAdjust="spacing" textLength="34.5" x="348.75" y="579.4956">greenSpace</text><polygon fill="#181818" points="175.25,595.7725,170.25,597.7725,175.25,599.7725,173.25,597.7725" style="stroke:#181818;stroke-width:0.5;"/><line style="stroke:#181818;stroke-width:0.5;stroke-dasharray:2.0,2.0;" x1="172.25" x2="328.25" y1="597.7725" y2="597.7725"/><text fill="#000000" font-family="sans-serif" font-size="6.5" font-weight="bold" lengthAdjust="spacing" textLength="7" x="178.25" y="595.1411">31</text><text fill="#000000" font-family="sans-serif" font-size="6.5" lengthAdjust="spacing" textLength="34.5" x="187.25" y="595.1411">greenSpace</text><polygon fill="#181818" points="32.25,611.418,27.25,613.418,32.25,615.418,30.25,613.418" style="stroke:#181818;stroke-width:0.5;"/><line style="stroke:#181818;stroke-width:0.5;stroke-dasharray:2.0,2.0;" x1="29.25" x2="166.75" y1="613.418" y2="613.418"/><text fill="#000000" font-family="sans-serif" font-size="6.5" font-weight="bold" lengthAdjust="spacing" textLength="7" x="35.25" y="610.7866">32</text><text fill="#000000" font-family="sans-serif" font-size="6.5" lengthAdjust="spacing" textLength="79" x="44.25" y="610.7866">displays operation success</text><!--SRC=[rLPDRzim3BtxLmYzhEqox9x3W298Ym3hKCJBhHVLPXAXjkI9Shly-r6oQqkrbAN5C6o-928V7vy-I0aVXMouvZMhbLJ5NgiQcD4jP3Xu6buyyXtavb01qr0OBdUL3y0zBzMpa3ksvHL2bl7MADdM3w2pxCDUbC2sIfa7zJFZXL6QdTre0CboOWQybxTS4hy-OnpPJNwR4QiHXMYuDEnileQTG0FQnRYGpSf1DwlV8XTA6gsggYTVV5z_dSGq2WM94e0EirxUXH3j8UvbD20F8sZwUv0qvaOeEGGSvlVoAk5oJ67SCSvhNl0IUhvkC31qmp2wHT24tj1F3eZ4uE3M709tmz85icyYPiSGmwSOQV56dcwprylbj_pkQh7CxCaGJzo0Em4Peu_-i4zVQ9lPdC2Fo8oYuzTjCUDCmdENdg4bT2432PqDPx0V4H2DtVlBIw8gD12YSriN-MocEN7_Q04Dif8RxjmbJ0XzKURG07v6gAWcy2KSoZ5-4XtamxrwfYshAXV0k2n72OMIMw7hxY2S8AN7uv7SuLBCsKSzAPTpoMkOCLwMcax9p4sGXhHW5mF5mEkAQJ3Rprf6_XqOKdXD7QK_SkSN0Ve48YejnxEII4s7z2KORCq67ZAuXUwK-1KSmBn5dL1u6d8d8bMwHqJb4rMv9olL9ev8pECQGoQdTj5gJIQlubCwNtMT41JuajhxbfFGVIo1FuE-gRrTVPz-ehopUwhRaU-Os1ZVYr3NIQr4gsrLfcIvpXguhCMJ0ZKNLKh4DBfBVrhqVr9FiJlbtRKKlOVUN4VHso_PADaiqYXd7Wds3vl4fAAQ0wZzOYYhTRmxtQqsY7ohj9CJnXU7yepBmiv7qCM4-0zDFAxZYLU2xZxugs8IQYRHtk7xvz8bKxqkhEnTAOR6jLb5oQ9zAtWcbGARYX-GgGPqTmzXMz0HnjZ3o1lQX-Gl]--></g></svg>