<?xml version="1.0" encoding="us-ascii" standalone="no"?><svg xmlns="http://www.w3.org/2000/svg" xmlns:xlink="http://www.w3.org/1999/xlink" contentStyleType="text/css" height="553.8px" preserveAspectRatio="none" style="width:522px;height:553px;background:#FFFFFF;" version="1.1" viewBox="0 0 522 553" width="522px" zoomAndPan="magnify"><defs/><g><!--class RegisterGreenSpaceUI--><g id="elem_RegisterGreenSpaceUI"><rect codeLine="10" fill="#F1F1F1" height="28.8" id="RegisterGreenSpaceUI" rx="1.5" ry="1.5" style="stroke:#181818;stroke-width:0.3;" width="106.2" x="255" y="4.2"/><ellipse cx="264" cy="13.8" fill="#ADD1B2" rx="6.6" ry="6.6" style="stroke:#181818;stroke-width:0.6;"/><path d="M265.6594,11.325 Q265.7531,11.1938 265.8656,11.1281 Q265.9781,11.0625 266.1094,11.0625 Q266.3344,11.0625 266.475,11.2219 Q266.6156,11.3719 266.6156,11.7375 L266.6156,12.6094 Q266.6156,12.975 266.475,13.1344 Q266.3344,13.2938 266.1094,13.2938 Q265.9031,13.2938 265.7813,13.1719 Q265.6594,13.0594 265.5938,12.75 Q265.5656,12.5344 265.4531,12.4219 Q265.2562,12.1969 264.8906,12.0656 Q264.525,11.9344 264.15,11.9344 Q263.6906,11.9344 263.3063,12.1313 Q262.9313,12.3281 262.6312,12.7781 Q262.3406,13.2281 262.3406,13.8469 L262.3406,14.5031 Q262.3406,15.2437 262.875,15.7406 Q263.4094,16.2281 264.3656,16.2281 Q264.9281,16.2281 265.3219,16.0781 Q265.5563,15.9844 265.8094,15.7219 Q265.9688,15.5625 266.0531,15.5156 Q266.1469,15.4688 266.2688,15.4688 Q266.4656,15.4688 266.6156,15.6281 Q266.775,15.7781 266.775,15.9844 Q266.775,16.1906 266.5687,16.4344 Q266.2688,16.7813 265.7906,16.9781 Q265.1438,17.25 264.3656,17.25 Q263.4563,17.25 262.7344,16.875 Q262.1438,16.575 261.7313,15.9375 Q261.3187,15.2906 261.3187,14.5219 L261.3187,13.8281 Q261.3187,13.0313 261.6844,12.3469 Q262.0594,11.6531 262.7156,11.2875 Q263.3719,10.9125 264.1125,10.9125 Q264.5531,10.9125 264.9375,11.0156 Q265.3313,11.1094 265.6594,11.325 Z " fill="#000000"/><text fill="#000000" font-family="sans-serif" font-size="8.4" lengthAdjust="spacing" textLength="87" x="272.4" y="17.2781">RegisterGreenSpaceUI</text><line style="stroke:#181818;stroke-width:0.3;" x1="255.6" x2="360.6" y1="23.4" y2="23.4"/><line style="stroke:#181818;stroke-width:0.3;" x1="255.6" x2="360.6" y1="28.2" y2="28.2"/></g><!--class RegisterGreenSpaceController--><g id="elem_RegisterGreenSpaceController"><rect codeLine="13" fill="#F1F1F1" height="62.318" id="RegisterGreenSpaceController" rx="1.5" ry="1.5" style="stroke:#181818;stroke-width:0.3;" width="321" x="147.6" y="69.6"/><ellipse cx="247.05" cy="79.2" fill="#ADD1B2" rx="6.6" ry="6.6" style="stroke:#181818;stroke-width:0.6;"/><path d="M248.7094,76.725 Q248.8031,76.5938 248.9156,76.5281 Q249.0281,76.4625 249.1594,76.4625 Q249.3844,76.4625 249.525,76.6219 Q249.6656,76.7719 249.6656,77.1375 L249.6656,78.0094 Q249.6656,78.375 249.525,78.5344 Q249.3844,78.6938 249.1594,78.6938 Q248.9531,78.6938 248.8312,78.5719 Q248.7094,78.4594 248.6437,78.15 Q248.6156,77.9344 248.5031,77.8219 Q248.3062,77.5969 247.9406,77.4656 Q247.575,77.3344 247.2,77.3344 Q246.7406,77.3344 246.3563,77.5313 Q245.9813,77.7281 245.6812,78.1781 Q245.3906,78.6281 245.3906,79.2469 L245.3906,79.9031 Q245.3906,80.6438 245.925,81.1406 Q246.4594,81.6281 247.4156,81.6281 Q247.9781,81.6281 248.3719,81.4781 Q248.6063,81.3844 248.8594,81.1219 Q249.0187,80.9625 249.1031,80.9156 Q249.1969,80.8687 249.3188,80.8687 Q249.5156,80.8687 249.6656,81.0281 Q249.825,81.1781 249.825,81.3844 Q249.825,81.5906 249.6187,81.8344 Q249.3188,82.1812 248.8406,82.3781 Q248.1938,82.65 247.4156,82.65 Q246.5063,82.65 245.7844,82.275 Q245.1938,81.975 244.7813,81.3375 Q244.3687,80.6906 244.3687,79.9219 L244.3687,79.2281 Q244.3687,78.4312 244.7344,77.7469 Q245.1094,77.0531 245.7656,76.6875 Q246.4219,76.3125 247.1625,76.3125 Q247.6031,76.3125 247.9875,76.4156 Q248.3813,76.5094 248.7094,76.725 Z " fill="#000000"/><text fill="#000000" font-family="sans-serif" font-size="8.4" lengthAdjust="spacing" textLength="117" x="259.35" y="82.6781">RegisterGreenSpaceController</text><line style="stroke:#181818;stroke-width:0.3;" x1="148.2" x2="468" y1="88.8" y2="88.8"/><line style="stroke:#181818;stroke-width:0.3;" x1="148.2" x2="468" y1="93.6" y2="93.6"/><text fill="#000000" font-family="sans-serif" font-size="8.4" lengthAdjust="spacing" textLength="313.8" x="151.2" y="105.0645">+RegisterGreenSpaceController(greenSpaceRepository, authenticationRepository)</text><text fill="#000000" font-family="sans-serif" font-size="8.4" lengthAdjust="spacing" textLength="187.2" x="151.2" y="116.2371">+registerGreenSpace(name, address, type, area)</text><text fill="#000000" font-family="sans-serif" font-size="8.4" lengthAdjust="spacing" textLength="89.4" x="151.2" y="127.4098">-getGSMFromSession()</text></g><!--class GreenSpaceRepository--><g id="elem_GreenSpaceRepository"><rect codeLine="19" fill="#F1F1F1" height="39.9727" id="GreenSpaceRepository" rx="1.5" ry="1.5" style="stroke:#181818;stroke-width:0.3;" width="130.2" x="129.6" y="267"/><ellipse cx="148.59" cy="276.6" fill="#ADD1B2" rx="6.6" ry="6.6" style="stroke:#181818;stroke-width:0.6;"/><path d="M150.2494,274.125 Q150.3431,273.9938 150.4556,273.9281 Q150.5681,273.8625 150.6994,273.8625 Q150.9244,273.8625 151.065,274.0219 Q151.2056,274.1719 151.2056,274.5375 L151.2056,275.4094 Q151.2056,275.775 151.065,275.9344 Q150.9244,276.0938 150.6994,276.0938 Q150.4931,276.0938 150.3713,275.9719 Q150.2494,275.8594 150.1838,275.55 Q150.1556,275.3344 150.0431,275.2219 Q149.8463,274.9969 149.4806,274.8656 Q149.115,274.7344 148.74,274.7344 Q148.2806,274.7344 147.8963,274.9313 Q147.5213,275.1281 147.2213,275.5781 Q146.9306,276.0281 146.9306,276.6469 L146.9306,277.3031 Q146.9306,278.0438 147.465,278.5406 Q147.9994,279.0281 148.9556,279.0281 Q149.5181,279.0281 149.9119,278.8781 Q150.1463,278.7844 150.3994,278.5219 Q150.5588,278.3625 150.6431,278.3156 Q150.7369,278.2688 150.8588,278.2688 Q151.0556,278.2688 151.2056,278.4281 Q151.365,278.5781 151.365,278.7844 Q151.365,278.9906 151.1588,279.2344 Q150.8588,279.5813 150.3806,279.7781 Q149.7338,280.05 148.9556,280.05 Q148.0463,280.05 147.3244,279.675 Q146.7338,279.375 146.3213,278.7375 Q145.9088,278.0906 145.9088,277.3219 L145.9088,276.6281 Q145.9088,275.8313 146.2744,275.1469 Q146.6494,274.4531 147.3056,274.0875 Q147.9619,273.7125 148.7025,273.7125 Q149.1431,273.7125 149.5275,273.8156 Q149.9213,273.9094 150.2494,274.125 Z " fill="#000000"/><text fill="#000000" font-family="sans-serif" font-size="8.4" lengthAdjust="spacing" textLength="88.8" x="159.21" y="280.0781">GreenSpaceRepository</text><line style="stroke:#181818;stroke-width:0.3;" x1="130.2" x2="259.2" y1="286.2" y2="286.2"/><line style="stroke:#181818;stroke-width:0.3;" x1="130.2" x2="259.2" y1="291" y2="291"/><text fill="#000000" font-family="sans-serif" font-size="8.4" lengthAdjust="spacing" textLength="123" x="133.2" y="302.4645">+getGreenSpaceByName(name)</text></g><!--class GreenSpace--><g id="elem_GreenSpace"><rect codeLine="23" fill="#F1F1F1" height="95.8359" id="GreenSpace" rx="1.5" ry="1.5" style="stroke:#181818;stroke-width:0.3;" width="254.4" x="67.5" y="343.8"/><ellipse cx="168.15" cy="353.4" fill="#ADD1B2" rx="6.6" ry="6.6" style="stroke:#181818;stroke-width:0.6;"/><path d="M169.8094,350.925 Q169.9031,350.7938 170.0156,350.7281 Q170.1281,350.6625 170.2594,350.6625 Q170.4844,350.6625 170.625,350.8219 Q170.7656,350.9719 170.7656,351.3375 L170.7656,352.2094 Q170.7656,352.575 170.625,352.7344 Q170.4844,352.8938 170.2594,352.8938 Q170.0531,352.8938 169.9313,352.7719 Q169.8094,352.6594 169.7438,352.35 Q169.7156,352.1344 169.6031,352.0219 Q169.4063,351.7969 169.0406,351.6656 Q168.675,351.5344 168.3,351.5344 Q167.8406,351.5344 167.4562,351.7313 Q167.0812,351.9281 166.7813,352.3781 Q166.4906,352.8281 166.4906,353.4469 L166.4906,354.1031 Q166.4906,354.8438 167.025,355.3406 Q167.5594,355.8281 168.5156,355.8281 Q169.0781,355.8281 169.4719,355.6781 Q169.7062,355.5844 169.9594,355.3219 Q170.1188,355.1625 170.2031,355.1156 Q170.2969,355.0687 170.4188,355.0687 Q170.6156,355.0687 170.7656,355.2281 Q170.925,355.3781 170.925,355.5844 Q170.925,355.7906 170.7188,356.0344 Q170.4188,356.3812 169.9406,356.5781 Q169.2938,356.85 168.5156,356.85 Q167.6063,356.85 166.8844,356.475 Q166.2938,356.175 165.8813,355.5375 Q165.4688,354.8906 165.4688,354.1219 L165.4688,353.4281 Q165.4688,352.6312 165.8344,351.9469 Q166.2094,351.2531 166.8656,350.8875 Q167.5219,350.5125 168.2625,350.5125 Q168.7031,350.5125 169.0875,350.6156 Q169.4813,350.7094 169.8094,350.925 Z " fill="#000000"/><text fill="#000000" font-family="sans-serif" font-size="8.4" lengthAdjust="spacing" textLength="48" x="180.45" y="356.8781">GreenSpace</text><line style="stroke:#181818;stroke-width:0.3;" x1="68.1" x2="321.3" y1="363" y2="363"/><text fill="#000000" font-family="sans-serif" font-size="8.4" lengthAdjust="spacing" textLength="48.6" x="71.1" y="374.4645">-String name</text><text fill="#000000" font-family="sans-serif" font-size="8.4" lengthAdjust="spacing" textLength="67.2" x="71.1" y="385.6371">-Address address</text><text fill="#000000" font-family="sans-serif" font-size="8.4" lengthAdjust="spacing" textLength="88.8" x="71.1" y="396.8098">-GreenSpaceType type</text><text fill="#000000" font-family="sans-serif" font-size="8.4" lengthAdjust="spacing" textLength="48.6" x="71.1" y="407.9824">-double area</text><text fill="#000000" font-family="sans-serif" font-size="8.4" lengthAdjust="spacing" textLength="175.2" x="71.1" y="419.1551">-GreenSpacesManager greenSpacesManager</text><line style="stroke:#181818;stroke-width:0.3;" x1="68.1" x2="321.3" y1="423.6633" y2="423.6633"/><text fill="#000000" font-family="sans-serif" font-size="8.4" lengthAdjust="spacing" textLength="247.2" x="71.1" y="435.1277">+GreenSpace(name, address, type, area, greenSpacesManager)</text></g><!--class GreenSpaceManager--><g id="elem_GreenSpaceManager"><rect codeLine="32" fill="#F1F1F1" height="51.1453" id="GreenSpaceManager" rx="1.5" ry="1.5" style="stroke:#181818;stroke-width:0.3;" width="119.4" x="4.2" y="487.5"/><ellipse cx="21.57" cy="497.1" fill="#ADD1B2" rx="6.6" ry="6.6" style="stroke:#181818;stroke-width:0.6;"/><path d="M23.2294,494.625 Q23.3231,494.4938 23.4356,494.4281 Q23.5481,494.3625 23.6794,494.3625 Q23.9044,494.3625 24.045,494.5219 Q24.1856,494.6719 24.1856,495.0375 L24.1856,495.9094 Q24.1856,496.275 24.045,496.4344 Q23.9044,496.5938 23.6794,496.5938 Q23.4731,496.5938 23.3513,496.4719 Q23.2294,496.3594 23.1638,496.05 Q23.1356,495.8344 23.0231,495.7219 Q22.8263,495.4969 22.4606,495.3656 Q22.095,495.2344 21.72,495.2344 Q21.2606,495.2344 20.8763,495.4313 Q20.5013,495.6281 20.2013,496.0781 Q19.9106,496.5281 19.9106,497.1469 L19.9106,497.8031 Q19.9106,498.5438 20.445,499.0406 Q20.9794,499.5281 21.9356,499.5281 Q22.4981,499.5281 22.8919,499.3781 Q23.1263,499.2844 23.3794,499.0219 Q23.5388,498.8625 23.6231,498.8156 Q23.7169,498.7687 23.8388,498.7687 Q24.0356,498.7687 24.1856,498.9281 Q24.345,499.0781 24.345,499.2844 Q24.345,499.4906 24.1388,499.7344 Q23.8388,500.0812 23.3606,500.2781 Q22.7138,500.55 21.9356,500.55 Q21.0263,500.55 20.3044,500.175 Q19.7138,499.875 19.3013,499.2375 Q18.8888,498.5906 18.8888,497.8219 L18.8888,497.1281 Q18.8888,496.3312 19.2544,495.6469 Q19.6294,494.9531 20.2856,494.5875 Q20.9419,494.2125 21.6825,494.2125 Q22.1231,494.2125 22.5075,494.3156 Q22.9013,494.4094 23.2294,494.625 Z " fill="#000000"/><text fill="#000000" font-family="sans-serif" font-size="8.4" lengthAdjust="spacing" textLength="81.6" x="31.83" y="500.5781">GreenSpaceManager</text><line style="stroke:#181818;stroke-width:0.3;" x1="4.8" x2="123" y1="506.7" y2="506.7"/><text fill="#000000" font-family="sans-serif" font-size="8.4" lengthAdjust="spacing" textLength="47.4" x="7.8" y="518.1645">-String email</text><line style="stroke:#181818;stroke-width:0.3;" x1="4.8" x2="123" y1="522.6727" y2="522.6727"/><text fill="#000000" font-family="sans-serif" font-size="8.4" lengthAdjust="spacing" textLength="112.2" x="7.8" y="534.1371">+GreenSpaceManager(email)</text></g><!--class Address--><g id="elem_Address"><rect codeLine="37" fill="#F1F1F1" height="73.4906" id="Address" rx="1.5" ry="1.5" style="stroke:#181818;stroke-width:0.3;" width="100.2" x="144.6" y="476.4"/><ellipse cx="176.55" cy="486" fill="#ADD1B2" rx="6.6" ry="6.6" style="stroke:#181818;stroke-width:0.6;"/><path d="M178.2094,483.525 Q178.3031,483.3937 178.4156,483.3281 Q178.5281,483.2625 178.6594,483.2625 Q178.8844,483.2625 179.025,483.4219 Q179.1656,483.5719 179.1656,483.9375 L179.1656,484.8094 Q179.1656,485.175 179.025,485.3344 Q178.8844,485.4938 178.6594,485.4938 Q178.4531,485.4938 178.3312,485.3719 Q178.2094,485.2594 178.1437,484.95 Q178.1156,484.7344 178.0031,484.6219 Q177.8063,484.3969 177.4406,484.2656 Q177.075,484.1344 176.7,484.1344 Q176.2406,484.1344 175.8563,484.3312 Q175.4813,484.5281 175.1813,484.9781 Q174.8906,485.4281 174.8906,486.0469 L174.8906,486.7031 Q174.8906,487.4437 175.425,487.9406 Q175.9594,488.4281 176.9156,488.4281 Q177.4781,488.4281 177.8719,488.2781 Q178.1063,488.1844 178.3594,487.9219 Q178.5187,487.7625 178.6031,487.7156 Q178.6969,487.6688 178.8188,487.6688 Q179.0156,487.6688 179.1656,487.8281 Q179.325,487.9781 179.325,488.1844 Q179.325,488.3906 179.1188,488.6344 Q178.8188,488.9813 178.3406,489.1781 Q177.6938,489.45 176.9156,489.45 Q176.0063,489.45 175.2844,489.075 Q174.6938,488.775 174.2813,488.1375 Q173.8688,487.4906 173.8688,486.7219 L173.8688,486.0281 Q173.8688,485.2313 174.2344,484.5469 Q174.6094,483.8531 175.2656,483.4875 Q175.9219,483.1125 176.6625,483.1125 Q177.1031,483.1125 177.4875,483.2156 Q177.8813,483.3094 178.2094,483.525 Z " fill="#000000"/><text fill="#000000" font-family="sans-serif" font-size="8.4" lengthAdjust="spacing" textLength="31.2" x="188.85" y="489.4781">Address</text><line style="stroke:#181818;stroke-width:0.3;" x1="145.2" x2="244.2" y1="495.6" y2="495.6"/><text fill="#000000" font-family="sans-serif" font-size="8.4" lengthAdjust="spacing" textLength="49.2" x="148.2" y="507.0645">-String street</text><text fill="#000000" font-family="sans-serif" font-size="8.4" lengthAdjust="spacing" textLength="56.4" x="148.2" y="518.2371">-String zipcode</text><text fill="#000000" font-family="sans-serif" font-size="8.4" lengthAdjust="spacing" textLength="40.2" x="148.2" y="529.4098">-String city</text><line style="stroke:#181818;stroke-width:0.3;" x1="145.2" x2="244.2" y1="533.918" y2="533.918"/><text fill="#000000" font-family="sans-serif" font-size="8.4" lengthAdjust="spacing" textLength="93" x="148.2" y="545.3824">+Address(addressArray)</text></g><!--class GreenSpaceType--><g id="elem_GreenSpaceType"><rect codeLine="44" fill="#F1F1F1" height="62.318" id="GreenSpaceType" rx="1.5" ry="1.5" style="stroke:#181818;stroke-width:0.3;" width="94.2" x="265.8" y="481.8"/><ellipse cx="278.31" cy="491.4" fill="#EB937F" rx="6.6" ry="6.6" style="stroke:#181818;stroke-width:0.6;"/><path d="M277.6256,491.8781 L277.6256,493.3781 L280.2225,493.3781 L280.2225,492.825 Q280.2225,492.4594 280.3631,492.3 Q280.5131,492.1406 280.7381,492.1406 Q280.9631,492.1406 281.1038,492.3 Q281.2444,492.4594 281.2444,492.825 L281.2444,494.4 L276.4444,494.4 Q276.0694,494.4 275.91,494.2594 Q275.76,494.1188 275.76,493.8844 Q275.76,493.6594 275.9194,493.5187 Q276.0788,493.3781 276.4444,493.3781 L276.6038,493.3781 L276.6038,489.3844 L276.4444,489.3844 Q276.0694,489.3844 275.91,489.2438 Q275.76,489.1031 275.76,488.8688 Q275.76,488.6437 275.91,488.5031 Q276.0694,488.3625 276.4444,488.3625 L281.0194,488.3625 L281.0194,489.9188 Q281.0194,490.2844 280.8788,490.4437 Q280.7475,490.5938 280.5131,490.5938 Q280.2881,490.5938 280.1475,490.4437 Q280.0069,490.2844 280.0069,489.9188 L280.0069,489.3844 L277.6256,489.3844 L277.6256,490.8563 L278.5163,490.8563 Q278.5163,490.4625 278.5913,490.35 Q278.7506,490.1063 279.0319,490.1063 Q279.2569,490.1063 279.3975,490.2656 Q279.5381,490.4156 279.5381,490.7813 L279.5381,491.9625 Q279.5381,492.2906 279.4631,492.4031 Q279.3038,492.6375 279.0319,492.6375 Q278.7506,492.6375 278.5913,492.3937 Q278.5163,492.2813 278.5163,491.8781 L277.6256,491.8781 Z " fill="#000000"/><text fill="#000000" font-family="sans-serif" font-size="8.4" lengthAdjust="spacing" textLength="67.2" x="287.49" y="494.8781">GreenSpaceType</text><line style="stroke:#181818;stroke-width:0.3;" x1="266.4" x2="359.4" y1="501" y2="501"/><text fill="#000000" font-family="sans-serif" font-size="8.4" lengthAdjust="spacing" textLength="34.8" x="269.4" y="512.4645">GARDEN</text><text fill="#000000" font-family="sans-serif" font-size="8.4" lengthAdjust="spacing" textLength="87" x="269.4" y="523.6371">MEDIUM_SIZED_PARK</text><text fill="#000000" font-family="sans-serif" font-size="8.4" lengthAdjust="spacing" textLength="83.4" x="269.4" y="534.8098">LARGE_SIZED_PARK</text><line style="stroke:#181818;stroke-width:0.3;" x1="266.4" x2="359.4" y1="539.318" y2="539.318"/></g><!--class Repositories--><g id="elem_Repositories"><rect codeLine="50" fill="#F1F1F1" height="51.1453" id="Repositories" rx="1.5" ry="1.5" style="stroke:#181818;stroke-width:0.3;" width="127.2" x="244.5" y="179.4"/><ellipse cx="281.85" cy="189" fill="#ADD1B2" rx="6.6" ry="6.6" style="stroke:#181818;stroke-width:0.6;"/><path d="M283.5094,186.525 Q283.6031,186.3937 283.7156,186.3281 Q283.8281,186.2625 283.9594,186.2625 Q284.1844,186.2625 284.325,186.4219 Q284.4656,186.5719 284.4656,186.9375 L284.4656,187.8094 Q284.4656,188.175 284.325,188.3344 Q284.1844,188.4938 283.9594,188.4938 Q283.7531,188.4938 283.6312,188.3719 Q283.5094,188.2594 283.4437,187.95 Q283.4156,187.7344 283.3031,187.6219 Q283.1063,187.3969 282.7406,187.2656 Q282.375,187.1344 282,187.1344 Q281.5406,187.1344 281.1563,187.3312 Q280.7813,187.5281 280.4813,187.9781 Q280.1906,188.4281 280.1906,189.0469 L280.1906,189.7031 Q280.1906,190.4438 280.725,190.9406 Q281.2594,191.4281 282.2156,191.4281 Q282.7781,191.4281 283.1719,191.2781 Q283.4063,191.1844 283.6594,190.9219 Q283.8187,190.7625 283.9031,190.7156 Q283.9969,190.6688 284.1188,190.6688 Q284.3156,190.6688 284.4656,190.8281 Q284.625,190.9781 284.625,191.1844 Q284.625,191.3906 284.4188,191.6344 Q284.1188,191.9813 283.6406,192.1781 Q282.9938,192.45 282.2156,192.45 Q281.3063,192.45 280.5844,192.075 Q279.9938,191.775 279.5813,191.1375 Q279.1688,190.4906 279.1688,189.7219 L279.1688,189.0281 Q279.1688,188.2313 279.5344,187.5469 Q279.9094,186.8531 280.5656,186.4875 Q281.2219,186.1125 281.9625,186.1125 Q282.4031,186.1125 282.7875,186.2156 Q283.1813,186.3094 283.5094,186.525 Z " fill="#000000"/><text fill="#000000" font-family="sans-serif" font-size="8.4" lengthAdjust="spacing" textLength="47.4" x="294.15" y="192.4781">Repositories</text><line style="stroke:#181818;stroke-width:0.3;" x1="245.1" x2="371.1" y1="198.6" y2="198.6"/><line style="stroke:#181818;stroke-width:0.3;" x1="245.1" x2="371.1" y1="203.4" y2="203.4"/><text fill="#000000" font-family="sans-serif" font-size="8.4" lengthAdjust="spacing" textLength="114" x="248.1" y="214.8645">+getGreenSpaceRepository();</text><text fill="#000000" font-family="sans-serif" font-size="8.4" lengthAdjust="spacing" textLength="120" x="248.1" y="226.0371">+getAuthenticationRepository();</text></g><!--class AuthenticationRepository--><g id="elem_AuthenticationRepository"><rect codeLine="55" fill="#F1F1F1" height="39.9727" id="AuthenticationRepository" rx="1.5" ry="1.5" style="stroke:#181818;stroke-width:0.3;" width="114" x="375.9" y="267"/><ellipse cx="384.9" cy="276.6" fill="#ADD1B2" rx="6.6" ry="6.6" style="stroke:#181818;stroke-width:0.6;"/><path d="M386.5594,274.125 Q386.6531,273.9938 386.7656,273.9281 Q386.8781,273.8625 387.0094,273.8625 Q387.2344,273.8625 387.375,274.0219 Q387.5156,274.1719 387.5156,274.5375 L387.5156,275.4094 Q387.5156,275.775 387.375,275.9344 Q387.2344,276.0938 387.0094,276.0938 Q386.8031,276.0938 386.6813,275.9719 Q386.5594,275.8594 386.4938,275.55 Q386.4656,275.3344 386.3531,275.2219 Q386.1563,274.9969 385.7906,274.8656 Q385.425,274.7344 385.05,274.7344 Q384.5906,274.7344 384.2063,274.9313 Q383.8313,275.1281 383.5313,275.5781 Q383.2406,276.0281 383.2406,276.6469 L383.2406,277.3031 Q383.2406,278.0438 383.775,278.5406 Q384.3094,279.0281 385.2656,279.0281 Q385.8281,279.0281 386.2219,278.8781 Q386.4563,278.7844 386.7094,278.5219 Q386.8688,278.3625 386.9531,278.3156 Q387.0469,278.2688 387.1688,278.2688 Q387.3656,278.2688 387.5156,278.4281 Q387.675,278.5781 387.675,278.7844 Q387.675,278.9906 387.4688,279.2344 Q387.1688,279.5813 386.6906,279.7781 Q386.0438,280.05 385.2656,280.05 Q384.3563,280.05 383.6344,279.675 Q383.0438,279.375 382.6312,278.7375 Q382.2188,278.0906 382.2188,277.3219 L382.2188,276.6281 Q382.2188,275.8313 382.5844,275.1469 Q382.9594,274.4531 383.6156,274.0875 Q384.2719,273.7125 385.0125,273.7125 Q385.4531,273.7125 385.8375,273.8156 Q386.2313,273.9094 386.5594,274.125 Z " fill="#000000"/><text fill="#000000" font-family="sans-serif" font-size="8.4" lengthAdjust="spacing" textLength="94.8" x="393.3" y="280.0781">AuthenticationRepository</text><line style="stroke:#181818;stroke-width:0.3;" x1="376.5" x2="489.3" y1="286.2" y2="286.2"/><line style="stroke:#181818;stroke-width:0.3;" x1="376.5" x2="489.3" y1="291" y2="291"/><text fill="#000000" font-family="sans-serif" font-size="8.4" lengthAdjust="spacing" textLength="99" x="379.5" y="302.4645">+getCurrentUserSession()</text></g><!--class UserSession--><g id="elem_UserSession"><rect codeLine="59" fill="#F1F1F1" height="39.9727" id="UserSession" rx="1.5" ry="1.5" style="stroke:#181818;stroke-width:0.3;" width="66.6" x="399.6" y="371.7"/><ellipse cx="408.6" cy="381.3" fill="#ADD1B2" rx="6.6" ry="6.6" style="stroke:#181818;stroke-width:0.6;"/><path d="M410.2594,378.825 Q410.3531,378.6937 410.4656,378.6281 Q410.5781,378.5625 410.7094,378.5625 Q410.9344,378.5625 411.075,378.7219 Q411.2156,378.8719 411.2156,379.2375 L411.2156,380.1094 Q411.2156,380.475 411.075,380.6344 Q410.9344,380.7938 410.7094,380.7938 Q410.5031,380.7938 410.3812,380.6719 Q410.2594,380.5594 410.1937,380.25 Q410.1656,380.0344 410.0531,379.9219 Q409.8563,379.6969 409.4906,379.5656 Q409.125,379.4344 408.75,379.4344 Q408.2906,379.4344 407.9063,379.6312 Q407.5313,379.8281 407.2313,380.2781 Q406.9406,380.7281 406.9406,381.3469 L406.9406,382.0031 Q406.9406,382.7438 407.475,383.2406 Q408.0094,383.7281 408.9656,383.7281 Q409.5281,383.7281 409.9219,383.5781 Q410.1563,383.4844 410.4094,383.2219 Q410.5687,383.0625 410.6531,383.0156 Q410.7469,382.9688 410.8688,382.9688 Q411.0656,382.9688 411.2156,383.1281 Q411.375,383.2781 411.375,383.4844 Q411.375,383.6906 411.1688,383.9344 Q410.8688,384.2813 410.3906,384.4781 Q409.7438,384.75 408.9656,384.75 Q408.0563,384.75 407.3344,384.375 Q406.7438,384.075 406.3313,383.4375 Q405.9188,382.7906 405.9188,382.0219 L405.9188,381.3281 Q405.9188,380.5313 406.2844,379.8469 Q406.6594,379.1531 407.3156,378.7875 Q407.9719,378.4125 408.7125,378.4125 Q409.1531,378.4125 409.5375,378.5156 Q409.9313,378.6094 410.2594,378.825 Z " fill="#000000"/><text fill="#000000" font-family="sans-serif" font-size="8.4" lengthAdjust="spacing" textLength="47.4" x="417" y="384.7781">UserSession</text><line style="stroke:#181818;stroke-width:0.3;" x1="400.2" x2="465.6" y1="390.9" y2="390.9"/><line style="stroke:#181818;stroke-width:0.3;" x1="400.2" x2="465.6" y1="395.7" y2="395.7"/><text fill="#000000" font-family="sans-serif" font-size="8.4" lengthAdjust="spacing" textLength="46.8" x="403.2" y="407.1645">+getUserId()</text></g><!--link RegisterGreenSpaceUI to RegisterGreenSpaceController--><g id="link_RegisterGreenSpaceUI_RegisterGreenSpaceController"><path codeLine="64" d="M308.1,33.126 C308.1,43.122 308.1,53.382 308.1,65.916 " fill="none" id="RegisterGreenSpaceUI-to-RegisterGreenSpaceController" style="stroke:#181818;stroke-width:0.6;stroke-dasharray:7.0,7.0;"/><polygon fill="#181818" points="308.1,69.516,310.5,64.116,308.1,66.516,305.7,64.116,308.1,69.516" style="stroke:#181818;stroke-width:0.6;"/></g><!--link RegisterGreenSpaceController to Repositories--><g id="link_RegisterGreenSpaceController_Repositories"><path codeLine="65" d="M308.1,132.276 C308.1,147.312 308.1,161.556 308.1,175.716 " fill="none" id="RegisterGreenSpaceController-to-Repositories" style="stroke:#181818;stroke-width:0.6;stroke-dasharray:7.0,7.0;"/><polygon fill="#181818" points="308.1,179.316,310.5,173.916,308.1,176.316,305.7,173.916,308.1,179.316" style="stroke:#181818;stroke-width:0.6;"/><text fill="#000000" font-family="sans-serif" font-size="7.8" lengthAdjust="spacing" textLength="40.2" x="308.7" y="159.017">repositories</text></g><!--link RegisterGreenSpaceController to GreenSpaceRepository--><g id="link_RegisterGreenSpaceController_GreenSpaceRepository"><path codeLine="66" d="M247.596,132.006 C204.396,153.858 153.9,179.4 153.9,179.4 C153.9,179.4 153.9,230.4 153.9,230.4 C153.9,230.4 166.5484,247.7927 178.3144,263.9687 " fill="none" id="RegisterGreenSpaceController-to-GreenSpaceRepository" style="stroke:#181818;stroke-width:0.6;stroke-dasharray:7.0,7.0;"/><polygon fill="#181818" points="180.432,266.88,179.1965,261.1013,178.6673,264.4539,175.3147,263.9248,180.432,266.88" style="stroke:#181818;stroke-width:0.6;"/><text fill="#000000" font-family="sans-serif" font-size="7.8" lengthAdjust="spacing" textLength="78.6" x="154.5" y="208.217">greenSpaceRepository</text></g><!--link RegisterGreenSpaceController to AuthenticationRepository--><g id="link_RegisterGreenSpaceController_AuthenticationRepository"><path codeLine="67" d="M355.89,132.006 C390.012,153.858 429.9,179.4 429.9,179.4 C429.9,179.4 431.3834,232.3394 432.2474,263.2574 " fill="none" id="RegisterGreenSpaceController-to-AuthenticationRepository" style="stroke:#181818;stroke-width:0.6;stroke-dasharray:7.0,7.0;"/><polygon fill="#181818" points="432.348,266.856,434.5962,261.3911,432.2642,263.8572,429.7981,261.5251,432.348,266.856" style="stroke:#181818;stroke-width:0.6;"/><text fill="#000000" font-family="sans-serif" font-size="7.8" lengthAdjust="spacing" textLength="85.8" x="431.7" y="208.217">authenticationRepository</text></g><!--link AuthenticationRepository to UserSession--><g id="link_AuthenticationRepository_UserSession"><path codeLine="68" d="M432.9,307.41 C432.9,325.83 432.9,349.572 432.9,367.962 " fill="none" id="AuthenticationRepository-to-UserSession" style="stroke:#181818;stroke-width:0.6;stroke-dasharray:7.0,7.0;"/><polygon fill="#181818" points="432.9,371.562,435.3,366.162,432.9,368.562,430.5,366.162,432.9,371.562" style="stroke:#181818;stroke-width:0.6;"/></g><!--link Repositories to Repositories--><g id="link_Repositories_Repositories"><path codeLine="69" d="M371.742,197.172 C384.006,198.084 392.7,200.658 392.7,204.9 C392.7,209.142 387.5961,211.449 375.3321,212.361 " fill="none" id="Repositories-to-Repositories" style="stroke:#181818;stroke-width:0.6;"/><polygon fill="#181818" points="371.742,212.628,377.3051,214.6209,374.7337,212.4055,376.9491,209.8341,371.742,212.628" style="stroke:#181818;stroke-width:0.6;"/><text fill="#000000" font-family="sans-serif" font-size="7.8" lengthAdjust="spacing" textLength="29.4" x="396.3" y="208.217">instance</text></g><!--link Repositories to GreenSpaceRepository--><g id="link_Repositories_GreenSpaceRepository"><path codeLine="70" d="M273.15,230.466 C256.752,242.178 240.4218,253.8441 225.0858,264.7941 " fill="none" id="Repositories-to-GreenSpaceRepository" style="stroke:#181818;stroke-width:0.6;"/><polygon fill="#181818" points="222.156,266.886,227.9454,265.7013,224.5975,265.1427,225.1561,261.7949,222.156,266.886" style="stroke:#181818;stroke-width:0.6;"/><text fill="#000000" font-family="sans-serif" font-size="7.8" lengthAdjust="spacing" textLength="4.2" x="222.7895" y="260.3158">1</text></g><!--link Repositories to AuthenticationRepository--><g id="link_Repositories_AuthenticationRepository"><path codeLine="71" d="M346.56,230.466 C364.608,242.178 382.7859,253.9766 399.6639,264.9266 " fill="none" id="Repositories-to-AuthenticationRepository" style="stroke:#181818;stroke-width:0.6;"/><polygon fill="#181818" points="402.684,266.886,399.4601,261.9336,400.1673,265.2532,396.8476,265.9604,402.684,266.886" style="stroke:#181818;stroke-width:0.6;"/><text fill="#000000" font-family="sans-serif" font-size="7.8" lengthAdjust="spacing" textLength="4.2" x="392.3238" y="260.3158">1</text></g><!--link GreenSpaceRepository to GreenSpace--><g id="link_GreenSpaceRepository_GreenSpace"><path codeLine="72" d="M194.7,307.41 C194.7,317.736 194.7,327.258 194.7,340.044 " fill="none" id="GreenSpaceRepository-to-GreenSpace" style="stroke:#181818;stroke-width:0.6;"/><polygon fill="#181818" points="194.7,343.644,197.1,338.244,194.7,340.644,192.3,338.244,194.7,343.644" style="stroke:#181818;stroke-width:0.6;"/><text fill="#000000" font-family="sans-serif" font-size="7.8" lengthAdjust="spacing" textLength="3" x="191.5617" y="336.9671">*</text></g><!--link GreenSpace to GreenSpaceManager--><g id="link_GreenSpace_GreenSpaceManager"><path codeLine="73" d="M143.004,439.83 C125.298,456.072 108.8345,471.176 93.8345,484.94 " fill="none" id="GreenSpace-to-GreenSpaceManager" style="stroke:#181818;stroke-width:0.6;"/><polygon fill="#181818" points="91.182,487.374,96.7834,485.4914,93.3924,485.3457,93.5381,481.9547,91.182,487.374" style="stroke:#181818;stroke-width:0.6;"/><text fill="#000000" font-family="sans-serif" font-size="7.8" lengthAdjust="spacing" textLength="4.2" x="90.9954" y="480.6964">1</text></g><!--link GreenSpace to Address--><g id="link_GreenSpace_Address"><path codeLine="74" d="M194.7,439.83 C194.7,451.944 194.7,461.184 194.7,472.638 " fill="none" id="GreenSpace-to-Address" style="stroke:#181818;stroke-width:0.6;"/><polygon fill="#181818" points="194.7,476.238,197.1,470.838,194.7,473.238,192.3,470.838,194.7,476.238" style="stroke:#181818;stroke-width:0.6;"/><text fill="#000000" font-family="sans-serif" font-size="7.8" lengthAdjust="spacing" textLength="4.2" x="190.2572" y="469.608">1</text></g><!--link GreenSpace to GreenSpaceType--><g id="link_GreenSpace_GreenSpaceType"><path codeLine="75" d="M241.416,439.83 C255.288,453.912 267.5878,466.4011 280.1218,479.1271 " fill="none" id="GreenSpace-to-GreenSpaceType" style="stroke:#181818;stroke-width:0.6;"/><polygon fill="#181818" points="282.648,481.692,280.5687,476.1606,280.5429,479.5546,277.1489,479.5288,282.648,481.692" style="stroke:#181818;stroke-width:0.6;"/><text fill="#000000" font-family="sans-serif" font-size="7.8" lengthAdjust="spacing" textLength="4.2" x="274.1007" y="475.0339">1</text></g><!--SRC=[ZLHDZvim4BtxLrXxMT8cg_QQIfNe9aMepQg2vjBBoWkpn5fZ8zkeOgl-zzgO19EOR7EAPzwRZyVCtAeNoXiYIOrhmKLnaA86h6KBQFGqf7WX5UIwOu0b59hmYla0TI2b-4rvXPy9Kxw7KGwwQm0tWdNsWJndmOXIiTQIFhKQqaBmdBu2_e3GBODdZRN0abO7ZKjgirB14UevE8EAAWqoaG0yD_N1FiL_qDzv_xtWMWh6G1eSDh_trp1HTJ9cq0X5jP3T4fDM7u1hMX1RpEXPk8Zo8cB4IGs6LvOIb5fYAuLvIY2Eigf09_dkgr4zDm0JD5gCNII18exLM-B9_QLxC7dwP47wG5hbHchpaIpE6M9NsB50PnnvF-sNipKxHodQ9pC1jlnpfDeHRaP4ukh2vEhz7qsM0NQmdy4txGfgGjbviW4PzKulrj3uD8BIXgSdfbVQ5AA4YQsWkdDvXYZHq4ii9Udw9C3R6azrTAcIEDji7_g_k-qctUyUy_JNTlFu8yw-zTRlSPPiVQCtqyCCK52X8HXd95fyEldZcP6rc56D6P0tRFUjb0QoLo03a-gPFOwrfgN3eU3AtjrzlhghwEeYE_QeojeSf_7rDZUatHg7Ll_jM7CIhcUF1ffLtSRp54L-ZtYrEc-QScKkSW6Nk9kFDy4cmyYvUb3m3lMiTtvy3nV8Vhm60T2mHjVvTeVGFm00]--></g></svg>