<?xml version="1.0" encoding="us-ascii" standalone="no"?><svg xmlns="http://www.w3.org/2000/svg" xmlns:xlink="http://www.w3.org/1999/xlink" contentStyleType="text/css" height="595.8px" preserveAspectRatio="none" style="width:604px;height:595px;background:#FFFFFF;" version="1.1" viewBox="0 0 604 595" width="604.2px" zoomAndPan="magnify"><defs/><g><!--class RegisterCollaboratorUI--><g id="elem_RegisterCollaboratorUI"><rect codeLine="11" fill="#F1F1F1" height="28.8" id="RegisterCollaboratorUI" rx="1.5" ry="1.5" style="stroke:#181818;stroke-width:0.3;" width="105" x="159.3" y="4.2"/><ellipse cx="168.3" cy="13.8" fill="#ADD1B2" rx="6.6" ry="6.6" style="stroke:#181818;stroke-width:0.6;"/><path d="M169.9594,11.325 Q170.0531,11.1938 170.1656,11.1281 Q170.2781,11.0625 170.4094,11.0625 Q170.6344,11.0625 170.775,11.2219 Q170.9156,11.3719 170.9156,11.7375 L170.9156,12.6094 Q170.9156,12.975 170.775,13.1344 Q170.6344,13.2938 170.4094,13.2938 Q170.2031,13.2938 170.0812,13.1719 Q169.9594,13.0594 169.8937,12.75 Q169.8656,12.5344 169.7531,12.4219 Q169.5563,12.1969 169.1906,12.0656 Q168.825,11.9344 168.45,11.9344 Q167.9906,11.9344 167.6063,12.1313 Q167.2313,12.3281 166.9313,12.7781 Q166.6406,13.2281 166.6406,13.8469 L166.6406,14.5031 Q166.6406,15.2437 167.175,15.7406 Q167.7094,16.2281 168.6656,16.2281 Q169.2281,16.2281 169.6219,16.0781 Q169.8563,15.9844 170.1094,15.7219 Q170.2687,15.5625 170.3531,15.5156 Q170.4469,15.4688 170.5688,15.4688 Q170.7656,15.4688 170.9156,15.6281 Q171.075,15.7781 171.075,15.9844 Q171.075,16.1906 170.8688,16.4344 Q170.5688,16.7813 170.0906,16.9781 Q169.4438,17.25 168.6656,17.25 Q167.7563,17.25 167.0344,16.875 Q166.4438,16.575 166.0313,15.9375 Q165.6188,15.2906 165.6188,14.5219 L165.6188,13.8281 Q165.6188,13.0313 165.9844,12.3469 Q166.3594,11.6531 167.0156,11.2875 Q167.6719,10.9125 168.4125,10.9125 Q168.8531,10.9125 169.2375,11.0156 Q169.6313,11.1094 169.9594,11.325 Z " fill="#000000"/><text fill="#000000" font-family="sans-serif" font-size="8.4" lengthAdjust="spacing" textLength="85.8" x="176.7" y="17.2781">RegisterCollaboratorUI</text><line style="stroke:#181818;stroke-width:0.3;" x1="159.9" x2="263.7" y1="23.4" y2="23.4"/><line style="stroke:#181818;stroke-width:0.3;" x1="159.9" x2="263.7" y1="28.2" y2="28.2"/></g><!--class RegisterCollaboratorController--><g id="elem_RegisterCollaboratorController"><rect codeLine="14" fill="#F1F1F1" height="62.318" id="RegisterCollaboratorController" rx="1.5" ry="1.5" style="stroke:#181818;stroke-width:0.3;" width="415.2" x="4.2" y="69"/><ellipse cx="151.35" cy="78.6" fill="#ADD1B2" rx="6.6" ry="6.6" style="stroke:#181818;stroke-width:0.6;"/><path d="M153.0094,76.125 Q153.1031,75.9937 153.2156,75.9281 Q153.3281,75.8625 153.4594,75.8625 Q153.6844,75.8625 153.825,76.0219 Q153.9656,76.1719 153.9656,76.5375 L153.9656,77.4094 Q153.9656,77.775 153.825,77.9344 Q153.6844,78.0938 153.4594,78.0938 Q153.2531,78.0938 153.1313,77.9719 Q153.0094,77.8594 152.9438,77.55 Q152.9156,77.3344 152.8031,77.2219 Q152.6063,76.9969 152.2406,76.8656 Q151.875,76.7344 151.5,76.7344 Q151.0406,76.7344 150.6563,76.9312 Q150.2813,77.1281 149.9813,77.5781 Q149.6906,78.0281 149.6906,78.6469 L149.6906,79.3031 Q149.6906,80.0438 150.225,80.5406 Q150.7594,81.0281 151.7156,81.0281 Q152.2781,81.0281 152.6719,80.8781 Q152.9063,80.7844 153.1594,80.5219 Q153.3188,80.3625 153.4031,80.3156 Q153.4969,80.2688 153.6188,80.2688 Q153.8156,80.2688 153.9656,80.4281 Q154.125,80.5781 154.125,80.7844 Q154.125,80.9906 153.9188,81.2344 Q153.6188,81.5813 153.1406,81.7781 Q152.4938,82.05 151.7156,82.05 Q150.8063,82.05 150.0844,81.675 Q149.4938,81.375 149.0812,80.7375 Q148.6688,80.0906 148.6688,79.3219 L148.6688,78.6281 Q148.6688,77.8313 149.0344,77.1469 Q149.4094,76.4531 150.0656,76.0875 Q150.7219,75.7125 151.4625,75.7125 Q151.9031,75.7125 152.2875,75.8156 Q152.6813,75.9094 153.0094,76.125 Z " fill="#000000"/><text fill="#000000" font-family="sans-serif" font-size="8.4" lengthAdjust="spacing" textLength="115.8" x="163.65" y="82.0781">RegisterCollaboratorController</text><line style="stroke:#181818;stroke-width:0.3;" x1="4.8" x2="418.8" y1="88.2" y2="88.2"/><line style="stroke:#181818;stroke-width:0.3;" x1="4.8" x2="418.8" y1="93" y2="93"/><text fill="#000000" font-family="sans-serif" font-size="8.4" lengthAdjust="spacing" textLength="126.6" x="7.8" y="104.4645">+RegisterCollaboratorController()</text><text fill="#000000" font-family="sans-serif" font-size="8.4" lengthAdjust="spacing" textLength="53.4" x="7.8" y="115.6371">+getJobsList()</text><text fill="#000000" font-family="sans-serif" font-size="8.4" lengthAdjust="spacing" textLength="408" x="7.8" y="126.8098">+registerCollaborator(name, birthday, admissionDate, address, phoneNumber, email, idDocType, idNumber)</text></g><!--class CollaboratorRepository--><g id="elem_CollaboratorRepository"><rect codeLine="20" fill="#F1F1F1" height="62.318" id="CollaboratorRepository" rx="1.5" ry="1.5" style="stroke:#181818;stroke-width:0.3;" width="431.4" x="110.1" y="276.6"/><ellipse cx="279.45" cy="286.2" fill="#ADD1B2" rx="6.6" ry="6.6" style="stroke:#181818;stroke-width:0.6;"/><path d="M281.1094,283.725 Q281.2031,283.5938 281.3156,283.5281 Q281.4281,283.4625 281.5594,283.4625 Q281.7844,283.4625 281.925,283.6219 Q282.0656,283.7719 282.0656,284.1375 L282.0656,285.0094 Q282.0656,285.375 281.925,285.5344 Q281.7844,285.6937 281.5594,285.6937 Q281.3531,285.6937 281.2313,285.5719 Q281.1094,285.4594 281.0438,285.15 Q281.0156,284.9344 280.9031,284.8219 Q280.7063,284.5969 280.3406,284.4656 Q279.975,284.3344 279.6,284.3344 Q279.1406,284.3344 278.7562,284.5313 Q278.3812,284.7281 278.0813,285.1781 Q277.7906,285.6281 277.7906,286.2469 L277.7906,286.9031 Q277.7906,287.6438 278.325,288.1406 Q278.8594,288.6281 279.8156,288.6281 Q280.3781,288.6281 280.7719,288.4781 Q281.0062,288.3844 281.2594,288.1219 Q281.4188,287.9625 281.5031,287.9156 Q281.5969,287.8688 281.7188,287.8688 Q281.9156,287.8688 282.0656,288.0281 Q282.225,288.1781 282.225,288.3844 Q282.225,288.5906 282.0188,288.8344 Q281.7188,289.1813 281.2406,289.3781 Q280.5938,289.65 279.8156,289.65 Q278.9063,289.65 278.1844,289.275 Q277.5938,288.975 277.1813,288.3375 Q276.7688,287.6906 276.7688,286.9219 L276.7688,286.2281 Q276.7688,285.4313 277.1344,284.7469 Q277.5094,284.0531 278.1656,283.6875 Q278.8219,283.3125 279.5625,283.3125 Q280.0031,283.3125 280.3875,283.4156 Q280.7813,283.5094 281.1094,283.725 Z " fill="#000000"/><text fill="#000000" font-family="sans-serif" font-size="8.4" lengthAdjust="spacing" textLength="87.6" x="291.75" y="289.6781">CollaboratorRepository</text><line style="stroke:#181818;stroke-width:0.3;" x1="110.7" x2="540.9" y1="295.8" y2="295.8"/><line style="stroke:#181818;stroke-width:0.3;" x1="110.7" x2="540.9" y1="300.6" y2="300.6"/><text fill="#000000" font-family="sans-serif" font-size="8.4" lengthAdjust="spacing" textLength="115.2" x="113.7" y="312.0645">-addCollaborator(collaborator)</text><text fill="#000000" font-family="sans-serif" font-size="8.4" lengthAdjust="spacing" textLength="130.2" x="113.7" y="323.2371">-validateCollaborator(collaborator)</text><text fill="#000000" font-family="sans-serif" font-size="8.4" lengthAdjust="spacing" textLength="424.2" x="113.7" y="334.4098">+registerCollaborator(name, birthday, admissionDate, address, phoneNumber, email, idDocType, idNumber, job)</text></g><!--class Collaborator--><g id="elem_Collaborator"><rect codeLine="26" fill="#F1F1F1" height="129.3539" id="Collaborator" rx="1.5" ry="1.5" style="stroke:#181818;stroke-width:0.3;" width="402.6" x="129.9" y="375"/><ellipse cx="305.25" cy="384.6" fill="#ADD1B2" rx="6.6" ry="6.6" style="stroke:#181818;stroke-width:0.6;"/><path d="M306.9094,382.125 Q307.0031,381.9938 307.1156,381.9281 Q307.2281,381.8625 307.3594,381.8625 Q307.5844,381.8625 307.725,382.0219 Q307.8656,382.1719 307.8656,382.5375 L307.8656,383.4094 Q307.8656,383.775 307.725,383.9344 Q307.5844,384.0938 307.3594,384.0938 Q307.1531,384.0938 307.0313,383.9719 Q306.9094,383.8594 306.8438,383.55 Q306.8156,383.3344 306.7031,383.2219 Q306.5062,382.9969 306.1406,382.8656 Q305.775,382.7344 305.4,382.7344 Q304.9406,382.7344 304.5563,382.9313 Q304.1813,383.1281 303.8812,383.5781 Q303.5906,384.0281 303.5906,384.6469 L303.5906,385.3031 Q303.5906,386.0438 304.125,386.5406 Q304.6594,387.0281 305.6156,387.0281 Q306.1781,387.0281 306.5719,386.8781 Q306.8063,386.7844 307.0594,386.5219 Q307.2188,386.3625 307.3031,386.3156 Q307.3969,386.2688 307.5188,386.2688 Q307.7156,386.2688 307.8656,386.4281 Q308.025,386.5781 308.025,386.7844 Q308.025,386.9906 307.8187,387.2344 Q307.5188,387.5813 307.0406,387.7781 Q306.3938,388.05 305.6156,388.05 Q304.7063,388.05 303.9844,387.675 Q303.3938,387.375 302.9813,386.7375 Q302.5687,386.0906 302.5687,385.3219 L302.5687,384.6281 Q302.5687,383.8313 302.9344,383.1469 Q303.3094,382.4531 303.9656,382.0875 Q304.6219,381.7125 305.3625,381.7125 Q305.8031,381.7125 306.1875,381.8156 Q306.5813,381.9094 306.9094,382.125 Z " fill="#000000"/><text fill="#000000" font-family="sans-serif" font-size="8.4" lengthAdjust="spacing" textLength="46.8" x="317.55" y="388.0781">Collaborator</text><line style="stroke:#181818;stroke-width:0.3;" x1="130.5" x2="531.9" y1="394.2" y2="394.2"/><text fill="#000000" font-family="sans-serif" font-size="8.4" lengthAdjust="spacing" textLength="48.6" x="133.5" y="405.6645">-String name</text><text fill="#000000" font-family="sans-serif" font-size="8.4" lengthAdjust="spacing" textLength="58.2" x="133.5" y="416.8371">-String birthday</text><text fill="#000000" font-family="sans-serif" font-size="8.4" lengthAdjust="spacing" textLength="83.4" x="133.5" y="428.0098">-String admissionDate</text><text fill="#000000" font-family="sans-serif" font-size="8.4" lengthAdjust="spacing" textLength="58.2" x="133.5" y="439.1824">-String address</text><text fill="#000000" font-family="sans-serif" font-size="8.4" lengthAdjust="spacing" textLength="67.8" x="133.5" y="450.3551">-int phoneNumber</text><text fill="#000000" font-family="sans-serif" font-size="8.4" lengthAdjust="spacing" textLength="47.4" x="133.5" y="461.5277">-String email</text><text fill="#000000" font-family="sans-serif" font-size="8.4" lengthAdjust="spacing" textLength="68.4" x="133.5" y="472.7004">-String idDocType</text><text fill="#000000" font-family="sans-serif" font-size="8.4" lengthAdjust="spacing" textLength="50.4" x="133.5" y="483.873">-int idNumber</text><line style="stroke:#181818;stroke-width:0.3;" x1="130.5" x2="531.9" y1="488.3812" y2="488.3812"/><text fill="#000000" font-family="sans-serif" font-size="8.4" lengthAdjust="spacing" textLength="395.4" x="133.5" y="499.8457">+Collaborator(name, birthday, admissionDate, address, phoneNumber, email, idDocType, idNumber, job)</text></g><!--class JobRepository--><g id="elem_JobRepository"><rect codeLine="39" fill="#F1F1F1" height="39.9727" id="JobRepository" rx="1.5" ry="1.5" style="stroke:#181818;stroke-width:0.3;" width="73.2" x="15.6" y="287.7"/><ellipse cx="24.6" cy="297.3" fill="#ADD1B2" rx="6.6" ry="6.6" style="stroke:#181818;stroke-width:0.6;"/><path d="M26.2594,294.825 Q26.3531,294.6937 26.4656,294.6281 Q26.5781,294.5625 26.7094,294.5625 Q26.9344,294.5625 27.075,294.7219 Q27.2156,294.8719 27.2156,295.2375 L27.2156,296.1094 Q27.2156,296.475 27.075,296.6344 Q26.9344,296.7938 26.7094,296.7938 Q26.5031,296.7938 26.3812,296.6719 Q26.2594,296.5594 26.1937,296.25 Q26.1656,296.0344 26.0531,295.9219 Q25.8563,295.6969 25.4906,295.5656 Q25.125,295.4344 24.75,295.4344 Q24.2906,295.4344 23.9063,295.6312 Q23.5313,295.8281 23.2313,296.2781 Q22.9406,296.7281 22.9406,297.3469 L22.9406,298.0031 Q22.9406,298.7438 23.475,299.2406 Q24.0094,299.7281 24.9656,299.7281 Q25.5281,299.7281 25.9219,299.5781 Q26.1563,299.4844 26.4094,299.2219 Q26.5687,299.0625 26.6531,299.0156 Q26.7469,298.9688 26.8688,298.9688 Q27.0656,298.9688 27.2156,299.1281 Q27.375,299.2781 27.375,299.4844 Q27.375,299.6906 27.1688,299.9344 Q26.8688,300.2813 26.3906,300.4781 Q25.7438,300.75 24.9656,300.75 Q24.0563,300.75 23.3344,300.375 Q22.7438,300.075 22.3313,299.4375 Q21.9188,298.7906 21.9188,298.0219 L21.9188,297.3281 Q21.9188,296.5313 22.2844,295.8469 Q22.6594,295.1531 23.3156,294.7875 Q23.9719,294.4125 24.7125,294.4125 Q25.1531,294.4125 25.5375,294.5156 Q25.9313,294.6094 26.2594,294.825 Z " fill="#000000"/><text fill="#000000" font-family="sans-serif" font-size="8.4" lengthAdjust="spacing" textLength="54" x="33" y="300.7781">JobRepository</text><line style="stroke:#181818;stroke-width:0.3;" x1="16.2" x2="88.2" y1="306.9" y2="306.9"/><line style="stroke:#181818;stroke-width:0.3;" x1="16.2" x2="88.2" y1="311.7" y2="311.7"/><text fill="#000000" font-family="sans-serif" font-size="8.4" lengthAdjust="spacing" textLength="53.4" x="19.2" y="323.1645">+getJobsList()</text></g><!--class Job--><g id="elem_Job"><rect codeLine="43" fill="#F1F1F1" height="51.1453" id="Job" rx="1.5" ry="1.5" style="stroke:#181818;stroke-width:0.3;" width="55.8" x="303.3" y="540.6"/><ellipse cx="322.83" cy="550.2" fill="#ADD1B2" rx="6.6" ry="6.6" style="stroke:#181818;stroke-width:0.6;"/><path d="M324.4894,547.725 Q324.5831,547.5938 324.6956,547.5281 Q324.8081,547.4625 324.9394,547.4625 Q325.1644,547.4625 325.305,547.6219 Q325.4456,547.7719 325.4456,548.1375 L325.4456,549.0094 Q325.4456,549.375 325.305,549.5344 Q325.1644,549.6938 324.9394,549.6938 Q324.7331,549.6938 324.6113,549.5719 Q324.4894,549.4594 324.4238,549.15 Q324.3956,548.9344 324.2831,548.8219 Q324.0862,548.5969 323.7206,548.4656 Q323.355,548.3344 322.98,548.3344 Q322.5206,548.3344 322.1362,548.5313 Q321.7612,548.7281 321.4612,549.1781 Q321.1706,549.6281 321.1706,550.2469 L321.1706,550.9031 Q321.1706,551.6438 321.705,552.1406 Q322.2394,552.6281 323.1956,552.6281 Q323.7581,552.6281 324.1519,552.4781 Q324.3862,552.3844 324.6394,552.1219 Q324.7988,551.9625 324.8831,551.9156 Q324.9769,551.8688 325.0987,551.8688 Q325.2956,551.8688 325.4456,552.0281 Q325.605,552.1781 325.605,552.3844 Q325.605,552.5906 325.3987,552.8344 Q325.0987,553.1813 324.6206,553.3781 Q323.9737,553.65 323.1956,553.65 Q322.2862,553.65 321.5644,553.275 Q320.9737,552.975 320.5613,552.3375 Q320.1487,551.6906 320.1487,550.9219 L320.1487,550.2281 Q320.1487,549.4313 320.5144,548.7469 Q320.8894,548.0531 321.5456,547.6875 Q322.2019,547.3125 322.9425,547.3125 Q323.3831,547.3125 323.7675,547.4156 Q324.1612,547.5094 324.4894,547.725 Z " fill="#000000"/><text fill="#000000" font-family="sans-serif" font-size="8.4" lengthAdjust="spacing" textLength="13.2" x="333.57" y="553.6781">Job</text><line style="stroke:#181818;stroke-width:0.3;" x1="303.9" x2="358.5" y1="559.8" y2="559.8"/><text fill="#000000" font-family="sans-serif" font-size="8.4" lengthAdjust="spacing" textLength="48.6" x="306.9" y="571.2645">-String name</text><line style="stroke:#181818;stroke-width:0.3;" x1="303.9" x2="358.5" y1="575.7727" y2="575.7727"/><text fill="#000000" font-family="sans-serif" font-size="8.4" lengthAdjust="spacing" textLength="45" x="306.9" y="587.2371">+Job(name)</text></g><!--class HRM--><g id="elem_HRM"><rect codeLine="48" fill="#F1F1F1" height="39.9727" id="HRM" rx="1.5" ry="1.5" style="stroke:#181818;stroke-width:0.3;" width="37.2" x="562.8" y="287.7"/><ellipse cx="571.8" cy="297.3" fill="#ADD1B2" rx="6.6" ry="6.6" style="stroke:#181818;stroke-width:0.6;"/><path d="M573.4594,294.825 Q573.5531,294.6937 573.6656,294.6281 Q573.7781,294.5625 573.9094,294.5625 Q574.1344,294.5625 574.275,294.7219 Q574.4156,294.8719 574.4156,295.2375 L574.4156,296.1094 Q574.4156,296.475 574.275,296.6344 Q574.1344,296.7938 573.9094,296.7938 Q573.7031,296.7938 573.5813,296.6719 Q573.4594,296.5594 573.3938,296.25 Q573.3656,296.0344 573.2531,295.9219 Q573.0563,295.6969 572.6906,295.5656 Q572.325,295.4344 571.95,295.4344 Q571.4906,295.4344 571.1062,295.6312 Q570.7312,295.8281 570.4313,296.2781 Q570.1406,296.7281 570.1406,297.3469 L570.1406,298.0031 Q570.1406,298.7438 570.675,299.2406 Q571.2094,299.7281 572.1656,299.7281 Q572.7281,299.7281 573.1219,299.5781 Q573.3562,299.4844 573.6094,299.2219 Q573.7688,299.0625 573.8531,299.0156 Q573.9469,298.9688 574.0688,298.9688 Q574.2656,298.9688 574.4156,299.1281 Q574.575,299.2781 574.575,299.4844 Q574.575,299.6906 574.3688,299.9344 Q574.0688,300.2813 573.5906,300.4781 Q572.9438,300.75 572.1656,300.75 Q571.2563,300.75 570.5344,300.375 Q569.9438,300.075 569.5313,299.4375 Q569.1188,298.7906 569.1188,298.0219 L569.1188,297.3281 Q569.1188,296.5313 569.4844,295.8469 Q569.8594,295.1531 570.5156,294.7875 Q571.1719,294.4125 571.9125,294.4125 Q572.3531,294.4125 572.7375,294.5156 Q573.1313,294.6094 573.4594,294.825 Z " fill="#000000"/><text fill="#000000" font-family="sans-serif" font-size="8.4" lengthAdjust="spacing" textLength="18" x="580.2" y="300.7781">HRM</text><line style="stroke:#181818;stroke-width:0.3;" x1="563.4" x2="599.4" y1="306.9" y2="306.9"/><text fill="#000000" font-family="sans-serif" font-size="8.4" lengthAdjust="spacing" textLength="24" x="566.4" y="318.3645">-name</text><line style="stroke:#181818;stroke-width:0.3;" x1="563.4" x2="599.4" y1="322.8727" y2="322.8727"/></g><!--class Repositories--><g id="elem_Repositories"><rect codeLine="52" fill="#F1F1F1" height="73.4906" id="Repositories" rx="1.5" ry="1.5" style="stroke:#181818;stroke-width:0.3;" width="117.6" x="153" y="167.4"/><ellipse cx="185.55" cy="177" fill="#ADD1B2" rx="6.6" ry="6.6" style="stroke:#181818;stroke-width:0.6;"/><path d="M187.2094,174.525 Q187.3031,174.3937 187.4156,174.3281 Q187.5281,174.2625 187.6594,174.2625 Q187.8844,174.2625 188.025,174.4219 Q188.1656,174.5719 188.1656,174.9375 L188.1656,175.8094 Q188.1656,176.175 188.025,176.3344 Q187.8844,176.4938 187.6594,176.4938 Q187.4531,176.4938 187.3312,176.3719 Q187.2094,176.2594 187.1437,175.95 Q187.1156,175.7344 187.0031,175.6219 Q186.8063,175.3969 186.4406,175.2656 Q186.075,175.1344 185.7,175.1344 Q185.2406,175.1344 184.8563,175.3312 Q184.4813,175.5281 184.1813,175.9781 Q183.8906,176.4281 183.8906,177.0469 L183.8906,177.7031 Q183.8906,178.4438 184.425,178.9406 Q184.9594,179.4281 185.9156,179.4281 Q186.4781,179.4281 186.8719,179.2781 Q187.1063,179.1844 187.3594,178.9219 Q187.5187,178.7625 187.6031,178.7156 Q187.6969,178.6688 187.8188,178.6688 Q188.0156,178.6688 188.1656,178.8281 Q188.325,178.9781 188.325,179.1844 Q188.325,179.3906 188.1188,179.6344 Q187.8188,179.9813 187.3406,180.1781 Q186.6938,180.45 185.9156,180.45 Q185.0063,180.45 184.2844,180.075 Q183.6938,179.775 183.2813,179.1375 Q182.8688,178.4906 182.8688,177.7219 L182.8688,177.0281 Q182.8688,176.2313 183.2344,175.5469 Q183.6094,174.8531 184.2656,174.4875 Q184.9219,174.1125 185.6625,174.1125 Q186.1031,174.1125 186.4875,174.2156 Q186.8813,174.3094 187.2094,174.525 Z " fill="#000000"/><text fill="#000000" font-family="sans-serif" font-size="8.4" lengthAdjust="spacing" textLength="47.4" x="197.85" y="180.4781">Repositories</text><line style="stroke:#181818;stroke-width:0.3;" x1="153.6" x2="270" y1="186.6" y2="186.6"/><line style="stroke:#181818;stroke-width:0.3;" x1="153.6" x2="270" y1="191.4" y2="191.4"/><text fill="#000000" font-family="sans-serif" font-size="8.4" lengthAdjust="spacing" textLength="56.4" x="156.6" y="202.8645">-Repositories()</text><text fill="#000000" font-family="sans-serif" font-size="8.4" lengthAdjust="spacing" textLength="109.2" x="156.6" y="214.0371">+getInstance() : Repositories</text><text fill="#000000" font-family="sans-serif" font-size="8.4" lengthAdjust="spacing" textLength="76.8" x="156.6" y="225.2098">+getJobRepository()</text><text fill="#000000" font-family="sans-serif" font-size="8.4" lengthAdjust="spacing" textLength="110.4" x="156.6" y="236.3824">+getCollaboratorRepository()</text></g><!--link RegisterCollaboratorUI to RegisterCollaboratorController--><g id="link_RegisterCollaboratorUI_RegisterCollaboratorController"><path codeLine="59" d="M211.8,33.024 C211.8,42.9 211.8,52.98 211.8,65.376 " fill="none" id="RegisterCollaboratorUI-to-RegisterCollaboratorController" style="stroke:#181818;stroke-width:0.6;stroke-dasharray:7.0,7.0;"/><polygon fill="#181818" points="211.8,68.976,214.2,63.576,211.8,65.976,209.4,63.576,211.8,68.976" style="stroke:#181818;stroke-width:0.6;"/></g><!--link RegisterCollaboratorController to Repositories--><g id="link_RegisterCollaboratorController_Repositories"><path codeLine="60" d="M211.8,131.586 C211.8,142.8 211.8,151.98 211.8,163.62 " fill="none" id="RegisterCollaboratorController-to-Repositories" style="stroke:#181818;stroke-width:0.6;stroke-dasharray:7.0,7.0;"/><polygon fill="#181818" points="211.8,167.22,214.2,161.82,211.8,164.22,209.4,161.82,211.8,167.22" style="stroke:#181818;stroke-width:0.6;"/></g><!--link RegisterCollaboratorController to CollaboratorRepository--><g id="link_RegisterCollaboratorController_CollaboratorRepository"><path codeLine="61" d="M243.672,131.568 C261.756,149.016 280.8,167.4 280.8,167.4 C280.8,167.4 301.5729,231.9412 314.8209,273.0952 " fill="none" id="RegisterCollaboratorController-to-CollaboratorRepository" style="stroke:#181818;stroke-width:0.6;stroke-dasharray:7.0,7.0;"/><polygon fill="#181818" points="315.924,276.522,316.5538,270.6463,315.0047,273.6663,311.9847,272.1172,315.924,276.522" style="stroke:#181818;stroke-width:0.6;"/></g><!--link RegisterCollaboratorController to JobRepository--><g id="link_RegisterCollaboratorController_JobRepository"><path codeLine="62" d="M179.646,131.568 C161.412,149.016 142.2,167.4 142.2,167.4 C142.2,167.4 91.6607,245.901 66.8507,284.439 " fill="none" id="RegisterCollaboratorController-to-JobRepository" style="stroke:#181818;stroke-width:0.6;stroke-dasharray:7.0,7.0;"/><polygon fill="#181818" points="64.902,287.466,69.843,284.2247,66.5259,284.9435,65.8071,281.6264,64.902,287.466" style="stroke:#181818;stroke-width:0.6;"/></g><!--link CollaboratorRepository to Collaborator--><g id="link_CollaboratorRepository_Collaborator"><path codeLine="63" d="M327.066,339.066 C327.51,349.866 327.8838,358.8451 328.3998,371.3671 " fill="none" id="CollaboratorRepository-to-Collaborator" style="stroke:#181818;stroke-width:0.6;"/><polygon fill="#181818" points="328.548,374.964,330.7236,369.4698,328.4245,371.9665,325.9277,369.6674,328.548,374.964" style="stroke:#181818;stroke-width:0.6;"/></g><!--link JobRepository to Job--><g id="link_JobRepository_Job"><path codeLine="64" d="M58.89,327.93 C75.888,377.556 119.4,504.6 119.4,504.6 C119.4,504.6 242.3182,539.941 299.8342,556.483 " fill="none" id="JobRepository-to-Job" style="stroke:#181818;stroke-width:0.6;"/><polygon fill="#181818" points="303.294,557.478,298.7677,553.6789,300.4109,556.6488,297.441,558.2919,303.294,557.478" style="stroke:#181818;stroke-width:0.6;"/></g><!--link HRM to Collaborator--><g id="link_HRM_Collaborator"><path codeLine="65" d="M562.782,327.78 C556.944,333.852 552,339 552,339 C552,339 519.0981,353.9281 476.0301,373.4761 " fill="none" id="HRM-to-Collaborator" style="stroke:#181818;stroke-width:0.6;"/><polygon fill="#181818" points="472.752,374.964,478.6611,374.9176,475.4838,373.7241,476.6773,370.5467,472.752,374.964" style="stroke:#181818;stroke-width:0.6;"/></g><!--link HRM to Job--><g id="link_HRM_Job"><path codeLine="66" d="M577.578,327.93 C567.864,377.556 543,504.6 543,504.6 C543,504.6 420.0818,539.941 362.5658,556.483 " fill="none" id="HRM-to-Job" style="stroke:#181818;stroke-width:0.6;"/><polygon fill="#181818" points="359.106,557.478,364.959,558.2919,361.9891,556.6488,363.6323,553.6789,359.106,557.478" style="stroke:#181818;stroke-width:0.6;"/></g><!--link Collaborator to Job--><g id="link_Collaborator_Job"><path codeLine="67" d="M331.2,504.78 C331.2,517.476 331.2,526.464 331.2,536.862 " fill="none" id="Collaborator-to-Job" style="stroke:#181818;stroke-width:0.6;"/><polygon fill="#181818" points="331.2,540.462,333.6,535.062,331.2,537.462,328.8,535.062,331.2,540.462" style="stroke:#181818;stroke-width:0.6;"/></g><!--link Repositories to CollaboratorRepository--><g id="link_Repositories_CollaboratorRepository"><path codeLine="68" d="M251.832,240.63 C264.858,252.348 276.5042,262.8337 289.0502,274.1257 " fill="none" id="Repositories-to-CollaboratorRepository" style="stroke:#181818;stroke-width:0.6;"/><polygon fill="#181818" points="291.726,276.534,289.3179,271.1376,289.4962,274.527,286.1067,274.7053,291.726,276.534" style="stroke:#181818;stroke-width:0.6;"/></g><!--link Repositories to JobRepository--><g id="link_Repositories_JobRepository"><path codeLine="69" d="M155.538,240.708 C127.542,258.672 99.6,276.6 99.6,276.6 C99.6,276.6 94.8008,279.6999 85.5128,285.6939 " fill="none" id="Repositories-to-JobRepository" style="stroke:#181818;stroke-width:0.6;"/><polygon fill="#181818" points="82.488,287.646,88.3266,286.7345,85.0087,286.0193,85.7238,282.7014,82.488,287.646" style="stroke:#181818;stroke-width:0.6;"/></g><!--SRC=[lPJ1KkCm38RlVWhTsWufisSEExC31ye0XtRt0Pn490B7ojZgCbc6Tr-d8SGkBUL4Jh7qAVv_sShCFv5jjTCDD6ovg1qt2EAsgAPCguidNU56EeFWi11jAnC3ljObFvEju44R7sSCMPIkHMZPTFr2pGuasGchgAemsljV8exohU2gOBkXVmW_b9ePV10G1aTLBL1IBuVOAhMhWJLMv0NT9HkZStPQsFrPmOjw_OouP2ikhD454i9pzZarNmnKXNB3kRyDw1Xo1mhdLZUOGKvEwb9t6UYo8U-3x2ijs2zBXzvdqDPiyNxRvEWom4QJoO3AAov-XoxrhqDkCRc9jrbZovx2I_VcOXa-dEWeeiMWT_bN6og3YXFSj_ZAu97p8-P6IvjmAS8zwtTE0gE899ZesSlif0qniX9BJC2TsYJoBdmg7WqChVg65aqz2lVlmxdltSkOFTR6iv3RQOtmw_NTY0zWD4DlEnBwToGEZjC0GSdA-l33A72-W8i4cf34H5nx-7eFdewC-ldvpnCphaxy0eOlH3g_m1yM-fNAnBiwCi_BPRg5Ie-zJuU8wa_i0pe6Uo2Pg36OdEP-UM9cZqkb_mS0]--></g></svg>