<?xml version="1.0" encoding="us-ascii" standalone="no"?><svg xmlns="http://www.w3.org/2000/svg" xmlns:xlink="http://www.w3.org/1999/xlink" contentStyleType="text/css" height="818.3px" preserveAspectRatio="none" style="width:1724px;height:818px;background:#FFFFFF;" version="1.1" viewBox="0 0 1724 818" width="1724.8px" zoomAndPan="magnify"><defs/><g><rect fill="#FFFFFF" height="656.2008" style="stroke:#181818;stroke-width:0.6999999999999998;" width="7" x="42.7" y="78.5695"/><rect fill="#FFFFFF" height="52.4385" style="stroke:#181818;stroke-width:0.6999999999999998;" width="7" x="259.7" y="94.8732"/><rect fill="#FFFFFF" height="197.1334" style="stroke:#181818;stroke-width:0.6999999999999998;" width="7" x="259.7" y="169.2154"/><rect fill="#FFFFFF" height="21.9037" style="stroke:#181818;stroke-width:0.6999999999999998;" width="7" x="259.7" y="388.2525"/><rect fill="#FFFFFF" height="302.7104" style="stroke:#181818;stroke-width:0.6999999999999998;" width="7" x="259.7" y="432.06"/><rect fill="#FFFFFF" height="153.326" style="stroke:#181818;stroke-width:0.6999999999999998;" width="7" x="739.2" y="191.1191"/><rect fill="#FFFFFF" height="258.9029" style="stroke:#181818;stroke-width:0.6999999999999998;" width="7" x="739.2" y="453.9637"/><rect fill="#FFFFFF" height="21.9037" style="stroke:#181818;stroke-width:0.6999999999999998;" width="7" x="855.05" y="213.0229"/><rect fill="#FFFFFF" height="21.9037" style="stroke:#181818;stroke-width:0.6999999999999998;" width="7" x="855.05" y="475.8674"/><rect fill="#FFFFFF" height="21.9037" style="stroke:#181818;stroke-width:0.6999999999999998;" width="7" x="929.95" y="256.8303"/><rect fill="#FFFFFF" height="21.9037" style="stroke:#181818;stroke-width:0.6999999999999998;" width="7" x="929.95" y="519.6748"/><rect fill="#FFFFFF" height="21.9037" style="stroke:#181818;stroke-width:0.6999999999999998;" width="7" x="1007.65" y="300.6377"/><rect fill="#FFFFFF" height="127.4807" style="stroke:#181818;stroke-width:0.6999999999999998;" width="7" x="1218.7" y="563.4822"/><line style="stroke:#181818;stroke-width:0.3499999999999999;stroke-dasharray:5.0,5.0;" x1="46.2" x2="46.2" y1="71.5695" y2="747.3703"/><line style="stroke:#181818;stroke-width:0.3499999999999999;stroke-dasharray:5.0,5.0;" x1="262.85" x2="262.85" y1="71.5695" y2="747.3703"/><line style="stroke:#181818;stroke-width:0.3499999999999999;stroke-dasharray:5.0,5.0;" x1="742.7" x2="742.7" y1="122.7406" y2="747.3703"/><line style="stroke:#181818;stroke-width:0.3499999999999999;stroke-dasharray:5.0,5.0;" x1="858.2" x2="858.2" y1="71.5695" y2="747.3703"/><line style="stroke:#181818;stroke-width:0.3499999999999999;stroke-dasharray:5.0,5.0;" x1="933.1" x2="933.1" y1="71.5695" y2="747.3703"/><line style="stroke:#181818;stroke-width:0.3499999999999999;stroke-dasharray:5.0,5.0;" x1="1010.8" x2="1010.8" y1="71.5695" y2="747.3703"/><line style="stroke:#181818;stroke-width:0.3499999999999999;stroke-dasharray:5.0,5.0;" x1="1221.85" x2="1221.85" y1="71.5695" y2="747.3703"/><line style="stroke:#181818;stroke-width:0.3499999999999999;stroke-dasharray:5.0,5.0;" x1="1687" x2="1687" y1="597.867" y2="747.3703"/><text fill="#000000" font-family="sans-serif" font-size="9.8" lengthAdjust="spacing" textLength="81.2" x="3.5" y="56.0752">Human Resources</text><text fill="#000000" font-family="sans-serif" font-size="9.8" lengthAdjust="spacing" textLength="39.2" x="24.5" y="69.11">Manager</text><ellipse cx="46.2" cy="9.45" fill="#E3E3E3" rx="5.6" ry="5.6" style="stroke:#181818;stroke-width:0.3499999999999999;"/><path d="M46.2,15.05 L46.2,33.95 M37.1,20.65 L55.3,20.65 M46.2,33.95 L37.1,44.45 M46.2,33.95 L55.3,44.45 " fill="none" style="stroke:#181818;stroke-width:0.3499999999999999;"/><text fill="#000000" font-family="sans-serif" font-size="9.8" lengthAdjust="spacing" textLength="81.2" x="3.5" y="757.2455">Human Resources</text><text fill="#000000" font-family="sans-serif" font-size="9.8" lengthAdjust="spacing" textLength="39.2" x="24.5" y="770.2803">Manager</text><ellipse cx="46.2" cy="778.6898" fill="#E3E3E3" rx="5.6" ry="5.6" style="stroke:#181818;stroke-width:0.3499999999999999;"/><path d="M46.2,784.2898 L46.2,803.1898 M37.1,789.8898 L55.3,789.8898 M46.2,803.1898 L37.1,813.6898 M46.2,803.1898 L55.3,813.6898 " fill="none" style="stroke:#181818;stroke-width:0.3499999999999999;"/><rect fill="#E3E3E3" height="22.8348" rx="1.75" ry="1.75" style="stroke:#181818;stroke-width:0.3499999999999999;" width="112.7" x="206.85" y="48.0348"/><text fill="#000000" font-family="sans-serif" font-size="9.8" lengthAdjust="spacing" textLength="102.9" x="211.75" y="63.51">:RegisterCollaboratorUI</text><rect fill="#E3E3E3" height="22.8348" rx="1.75" ry="1.75" style="stroke:#181818;stroke-width:0.3499999999999999;" width="112.7" x="206.85" y="746.6703"/><text fill="#000000" font-family="sans-serif" font-size="9.8" lengthAdjust="spacing" textLength="102.9" x="211.75" y="762.1455">:RegisterCollaboratorUI</text><rect fill="#E3E3E3" height="22.8348" rx="1.75" ry="1.75" style="stroke:#181818;stroke-width:0.3499999999999999;" width="149.8" x="667.8" y="746.6703"/><text fill="#000000" font-family="sans-serif" font-size="9.8" lengthAdjust="spacing" textLength="140" x="672.7" y="762.1455">:RegisterCollaboratorControlller</text><rect fill="#E3E3E3" height="22.8348" rx="1.75" ry="1.75" style="stroke:#181818;stroke-width:0.3499999999999999;" width="67.9" x="824.6" y="48.0348"/><text fill="#000000" font-family="sans-serif" font-size="9.8" lengthAdjust="spacing" textLength="58.1" x="829.5" y="63.51">:Repositories</text><rect fill="#E3E3E3" height="22.8348" rx="1.75" ry="1.75" style="stroke:#181818;stroke-width:0.3499999999999999;" width="67.9" x="824.6" y="746.6703"/><text fill="#000000" font-family="sans-serif" font-size="9.8" lengthAdjust="spacing" textLength="58.1" x="829.5" y="762.1455">:Repositories</text><rect fill="#E3E3E3" height="35.8695" rx="1.75" ry="1.75" style="stroke:#181818;stroke-width:0.3499999999999999;" width="67.9" x="899.5" y="35"/><text fill="#000000" font-family="sans-serif" font-size="9.8" lengthAdjust="spacing" textLength="51.8" x="907.55" y="50.4752">repositories</text><text fill="#000000" font-family="sans-serif" font-size="9.8" lengthAdjust="spacing" textLength="58.1" x="904.4" y="63.51">:Repositories</text><rect fill="#E3E3E3" height="35.8695" rx="1.75" ry="1.75" style="stroke:#181818;stroke-width:0.3499999999999999;" width="67.9" x="899.5" y="746.6703"/><text fill="#000000" font-family="sans-serif" font-size="9.8" lengthAdjust="spacing" textLength="51.8" x="907.55" y="762.1455">repositories</text><text fill="#000000" font-family="sans-serif" font-size="9.8" lengthAdjust="spacing" textLength="58.1" x="904.4" y="775.1803">:Repositories</text><rect fill="#E3E3E3" height="35.8695" rx="1.75" ry="1.75" style="stroke:#181818;stroke-width:0.3499999999999999;" width="73.5" x="974.4" y="35"/><text fill="#000000" font-family="sans-serif" font-size="9.8" lengthAdjust="spacing" textLength="63.7" x="979.3" y="50.4752">jobRepository:</text><text fill="#000000" font-family="sans-serif" font-size="9.8" lengthAdjust="spacing" textLength="60.9" x="980.7" y="63.51">jobRepository</text><rect fill="#E3E3E3" height="35.8695" rx="1.75" ry="1.75" style="stroke:#181818;stroke-width:0.3499999999999999;" width="73.5" x="974.4" y="746.6703"/><text fill="#000000" font-family="sans-serif" font-size="9.8" lengthAdjust="spacing" textLength="63.7" x="979.3" y="762.1455">jobRepository:</text><text fill="#000000" font-family="sans-serif" font-size="9.8" lengthAdjust="spacing" textLength="60.9" x="980.7" y="775.1803">jobRepository</text><rect fill="#E3E3E3" height="35.8695" rx="1.75" ry="1.75" style="stroke:#181818;stroke-width:0.3499999999999999;" width="112.7" x="1165.85" y="35"/><text fill="#000000" font-family="sans-serif" font-size="9.8" lengthAdjust="spacing" textLength="102.9" x="1170.75" y="50.4752">collaboratorRepository:</text><text fill="#000000" font-family="sans-serif" font-size="9.8" lengthAdjust="spacing" textLength="100.1" x="1172.15" y="63.51">collaboratorRepository</text><rect fill="#E3E3E3" height="35.8695" rx="1.75" ry="1.75" style="stroke:#181818;stroke-width:0.3499999999999999;" width="112.7" x="1165.85" y="746.6703"/><text fill="#000000" font-family="sans-serif" font-size="9.8" lengthAdjust="spacing" textLength="102.9" x="1170.75" y="762.1455">collaboratorRepository:</text><text fill="#000000" font-family="sans-serif" font-size="9.8" lengthAdjust="spacing" textLength="100.1" x="1172.15" y="775.1803">collaboratorRepository</text><rect fill="#E3E3E3" height="35.8695" rx="1.75" ry="1.75" style="stroke:#181818;stroke-width:0.3499999999999999;" width="67.2" x="1653.4" y="746.6703"/><text fill="#000000" font-family="sans-serif" font-size="9.8" lengthAdjust="spacing" textLength="52.5" x="1660.75" y="762.1455">collaborator</text><text fill="#000000" font-family="sans-serif" font-size="9.8" lengthAdjust="spacing" textLength="57.4" x="1658.3" y="775.1803">:Collaborator</text><rect fill="#FFFFFF" height="656.2008" style="stroke:#181818;stroke-width:0.6999999999999998;" width="7" x="42.7" y="78.5695"/><rect fill="#FFFFFF" height="52.4385" style="stroke:#181818;stroke-width:0.6999999999999998;" width="7" x="259.7" y="94.8732"/><rect fill="#FFFFFF" height="197.1334" style="stroke:#181818;stroke-width:0.6999999999999998;" width="7" x="259.7" y="169.2154"/><rect fill="#FFFFFF" height="21.9037" style="stroke:#181818;stroke-width:0.6999999999999998;" width="7" x="259.7" y="388.2525"/><rect fill="#FFFFFF" height="302.7104" style="stroke:#181818;stroke-width:0.6999999999999998;" width="7" x="259.7" y="432.06"/><rect fill="#FFFFFF" height="153.326" style="stroke:#181818;stroke-width:0.6999999999999998;" width="7" x="739.2" y="191.1191"/><rect fill="#FFFFFF" height="258.9029" style="stroke:#181818;stroke-width:0.6999999999999998;" width="7" x="739.2" y="453.9637"/><rect fill="#FFFFFF" height="21.9037" style="stroke:#181818;stroke-width:0.6999999999999998;" width="7" x="855.05" y="213.0229"/><rect fill="#FFFFFF" height="21.9037" style="stroke:#181818;stroke-width:0.6999999999999998;" width="7" x="855.05" y="475.8674"/><rect fill="#FFFFFF" height="21.9037" style="stroke:#181818;stroke-width:0.6999999999999998;" width="7" x="929.95" y="256.8303"/><rect fill="#FFFFFF" height="21.9037" style="stroke:#181818;stroke-width:0.6999999999999998;" width="7" x="929.95" y="519.6748"/><rect fill="#FFFFFF" height="21.9037" style="stroke:#181818;stroke-width:0.6999999999999998;" width="7" x="1007.65" y="300.6377"/><rect fill="#FFFFFF" height="127.4807" style="stroke:#181818;stroke-width:0.6999999999999998;" width="7" x="1218.7" y="563.4822"/><polygon fill="#181818" points="251.3,92.0732,258.3,94.8732,251.3,97.6732,254.1,94.8732" style="stroke:#181818;stroke-width:0.6999999999999998;"/><line style="stroke:#181818;stroke-width:0.6999999999999998;" x1="49.7" x2="255.5" y1="94.8732" y2="94.8732"/><text fill="#000000" font-family="sans-serif" font-size="9.1" font-weight="bold" lengthAdjust="spacing" textLength="4.9" x="54.6" y="91.1894">1</text><text fill="#000000" font-family="sans-serif" font-size="9.1" lengthAdjust="spacing" textLength="139.3" x="62.3" y="91.1894">asks to register a new collaborator</text><polygon fill="#181818" points="659.4,113.977,666.4,116.777,659.4,119.577,662.2,116.777" style="stroke:#181818;stroke-width:0.6999999999999998;"/><line style="stroke:#181818;stroke-width:0.6999999999999998;" x1="266.7" x2="663.6" y1="116.777" y2="116.777"/><text fill="#000000" font-family="sans-serif" font-size="9.1" font-weight="bold" lengthAdjust="spacing" textLength="4.9" x="271.6" y="113.0931">2</text><text fill="#000000" font-family="sans-serif" font-size="9.1" lengthAdjust="spacing" textLength="25.2" x="279.3" y="113.0931">create</text><rect fill="#E3E3E3" height="22.8348" rx="1.75" ry="1.75" style="stroke:#181818;stroke-width:0.3499999999999999;" width="149.8" x="667.8" y="100.4732"/><text fill="#000000" font-family="sans-serif" font-size="9.8" lengthAdjust="spacing" textLength="140" x="672.7" y="115.9484">:RegisterCollaboratorControlller</text><polygon fill="#181818" points="57.4,144.5117,50.4,147.3117,57.4,150.1117,54.6,147.3117" style="stroke:#181818;stroke-width:0.6999999999999998;"/><line style="stroke:#181818;stroke-width:0.6999999999999998;stroke-dasharray:2.0,2.0;" x1="53.2" x2="262.5" y1="147.3117" y2="147.3117"/><text fill="#000000" font-family="sans-serif" font-size="9.1" font-weight="bold" lengthAdjust="spacing" textLength="4.9" x="61.6" y="143.6278">3</text><text fill="#000000" font-family="sans-serif" font-size="9.1" lengthAdjust="spacing" textLength="55.3" x="69.3" y="143.6278">requests data</text><polygon fill="#181818" points="251.3,166.4154,258.3,169.2154,251.3,172.0154,254.1,169.2154" style="stroke:#181818;stroke-width:0.6999999999999998;"/><line style="stroke:#181818;stroke-width:0.6999999999999998;" x1="49.7" x2="255.5" y1="169.2154" y2="169.2154"/><text fill="#000000" font-family="sans-serif" font-size="9.1" font-weight="bold" lengthAdjust="spacing" textLength="4.9" x="54.6" y="165.5315">4</text><text fill="#000000" font-family="sans-serif" font-size="9.1" lengthAdjust="spacing" textLength="117.6" x="62.3" y="165.5315">types/selects requested data</text><polygon fill="#181818" points="730.8,188.3191,737.8,191.1191,730.8,193.9191,733.6,191.1191" style="stroke:#181818;stroke-width:0.6999999999999998;"/><line style="stroke:#181818;stroke-width:0.6999999999999998;" x1="266.7" x2="735" y1="191.1191" y2="191.1191"/><text fill="#000000" font-family="sans-serif" font-size="9.1" font-weight="bold" lengthAdjust="spacing" textLength="4.9" x="271.6" y="187.4353">5</text><text fill="#000000" font-family="sans-serif" font-size="9.1" lengthAdjust="spacing" textLength="37.1" x="279.3" y="187.4353">getJobs()</text><polygon fill="#181818" points="846.65,210.2229,853.65,213.0229,846.65,215.8229,849.45,213.0229" style="stroke:#181818;stroke-width:0.6999999999999998;"/><line style="stroke:#181818;stroke-width:0.6999999999999998;" x1="746.2" x2="850.85" y1="213.0229" y2="213.0229"/><text fill="#000000" font-family="sans-serif" font-size="9.1" font-weight="bold" lengthAdjust="spacing" textLength="4.9" x="751.1" y="209.339">6</text><text fill="#000000" font-family="sans-serif" font-size="9.1" lengthAdjust="spacing" textLength="52.5" x="758.8" y="209.339">getInstance()</text><polygon fill="#181818" points="753.9,232.1266,746.9,234.9266,753.9,237.7266,751.1,234.9266" style="stroke:#181818;stroke-width:0.6999999999999998;"/><line style="stroke:#181818;stroke-width:0.6999999999999998;stroke-dasharray:2.0,2.0;" x1="749.7" x2="857.85" y1="234.9266" y2="234.9266"/><text fill="#000000" font-family="sans-serif" font-size="9.1" font-weight="bold" lengthAdjust="spacing" textLength="4.9" x="758.1" y="231.2427">7</text><text fill="#000000" font-family="sans-serif" font-size="9.1" lengthAdjust="spacing" textLength="46.9" x="765.8" y="231.2427">repositories</text><polygon fill="#181818" points="921.55,254.0303,928.55,256.8303,921.55,259.6303,924.35,256.8303" style="stroke:#181818;stroke-width:0.6999999999999998;"/><line style="stroke:#181818;stroke-width:0.6999999999999998;" x1="746.2" x2="925.75" y1="256.8303" y2="256.8303"/><text fill="#000000" font-family="sans-serif" font-size="9.1" font-weight="bold" lengthAdjust="spacing" textLength="4.9" x="751.1" y="253.1464">8</text><text fill="#000000" font-family="sans-serif" font-size="9.1" lengthAdjust="spacing" textLength="75.6" x="758.8" y="253.1464">getJobRepository()</text><polygon fill="#181818" points="753.9,275.934,746.9,278.734,753.9,281.534,751.1,278.734" style="stroke:#181818;stroke-width:0.6999999999999998;"/><line style="stroke:#181818;stroke-width:0.6999999999999998;stroke-dasharray:2.0,2.0;" x1="749.7" x2="932.75" y1="278.734" y2="278.734"/><text fill="#000000" font-family="sans-serif" font-size="9.1" font-weight="bold" lengthAdjust="spacing" textLength="4.9" x="758.1" y="275.0501">9</text><text fill="#000000" font-family="sans-serif" font-size="9.1" lengthAdjust="spacing" textLength="57.4" x="765.8" y="275.0501">JobRepository</text><polygon fill="#181818" points="999.25,297.8377,1006.25,300.6377,999.25,303.4377,1002.05,300.6377" style="stroke:#181818;stroke-width:0.6999999999999998;"/><line style="stroke:#181818;stroke-width:0.6999999999999998;" x1="746.2" x2="1003.45" y1="300.6377" y2="300.6377"/><text fill="#000000" font-family="sans-serif" font-size="9.1" font-weight="bold" lengthAdjust="spacing" textLength="9.8" x="751.1" y="296.9538">10</text><text fill="#000000" font-family="sans-serif" font-size="9.1" lengthAdjust="spacing" textLength="51.8" x="763.7" y="296.9538">getJobsList()</text><polygon fill="#181818" points="753.9,319.7414,746.9,322.5414,753.9,325.3414,751.1,322.5414" style="stroke:#181818;stroke-width:0.6999999999999998;"/><line style="stroke:#181818;stroke-width:0.6999999999999998;stroke-dasharray:2.0,2.0;" x1="749.7" x2="1010.45" y1="322.5414" y2="322.5414"/><text fill="#000000" font-family="sans-serif" font-size="9.1" font-weight="bold" lengthAdjust="spacing" textLength="9.8" x="758.1" y="318.8575">11</text><text fill="#000000" font-family="sans-serif" font-size="9.1" lengthAdjust="spacing" textLength="33.6" x="770.7" y="318.8575">JobsList</text><polygon fill="#181818" points="274.4,341.6451,267.4,344.4451,274.4,347.2451,271.6,344.4451" style="stroke:#181818;stroke-width:0.6999999999999998;"/><line style="stroke:#181818;stroke-width:0.6999999999999998;stroke-dasharray:2.0,2.0;" x1="270.2" x2="742" y1="344.4451" y2="344.4451"/><text fill="#000000" font-family="sans-serif" font-size="9.1" font-weight="bold" lengthAdjust="spacing" textLength="9.8" x="278.6" y="340.7612">12</text><text fill="#000000" font-family="sans-serif" font-size="9.1" lengthAdjust="spacing" textLength="33.6" x="291.2" y="340.7612">JobsList</text><polygon fill="#181818" points="57.4,363.5488,50.4,366.3488,57.4,369.1488,54.6,366.3488" style="stroke:#181818;stroke-width:0.6999999999999998;"/><line style="stroke:#181818;stroke-width:0.6999999999999998;stroke-dasharray:2.0,2.0;" x1="53.2" x2="262.5" y1="366.3488" y2="366.3488"/><text fill="#000000" font-family="sans-serif" font-size="9.1" font-weight="bold" lengthAdjust="spacing" textLength="9.8" x="61.6" y="362.6649">13</text><text fill="#000000" font-family="sans-serif" font-size="9.1" lengthAdjust="spacing" textLength="180.6" x="74.2" y="362.6649">shows the list of jobs and asks to select one</text><polygon fill="#181818" points="251.3,385.4525,258.3,388.2525,251.3,391.0525,254.1,388.2525" style="stroke:#181818;stroke-width:0.6999999999999998;"/><line style="stroke:#181818;stroke-width:0.6999999999999998;" x1="49.7" x2="255.5" y1="388.2525" y2="388.2525"/><text fill="#000000" font-family="sans-serif" font-size="9.1" font-weight="bold" lengthAdjust="spacing" textLength="9.8" x="54.6" y="384.5687">14</text><text fill="#000000" font-family="sans-serif" font-size="9.1" lengthAdjust="spacing" textLength="59.5" x="67.2" y="384.5687">selects the job</text><polygon fill="#181818" points="57.4,407.3562,50.4,410.1562,57.4,412.9562,54.6,410.1562" style="stroke:#181818;stroke-width:0.6999999999999998;"/><line style="stroke:#181818;stroke-width:0.6999999999999998;stroke-dasharray:2.0,2.0;" x1="53.2" x2="262.5" y1="410.1562" y2="410.1562"/><text fill="#000000" font-family="sans-serif" font-size="9.1" font-weight="bold" lengthAdjust="spacing" textLength="9.8" x="61.6" y="406.4724">15</text><text fill="#000000" font-family="sans-serif" font-size="9.1" lengthAdjust="spacing" textLength="165.2" x="74.2" y="406.4724">shows all data and requests confirmation</text><polygon fill="#181818" points="251.3,429.26,258.3,432.06,251.3,434.86,254.1,432.06" style="stroke:#181818;stroke-width:0.6999999999999998;"/><line style="stroke:#181818;stroke-width:0.6999999999999998;" x1="49.7" x2="255.5" y1="432.06" y2="432.06"/><text fill="#000000" font-family="sans-serif" font-size="9.1" font-weight="bold" lengthAdjust="spacing" textLength="9.8" x="54.6" y="428.3761">16</text><text fill="#000000" font-family="sans-serif" font-size="9.1" lengthAdjust="spacing" textLength="54.6" x="67.2" y="428.3761">confirms data</text><polygon fill="#181818" points="730.8,451.1637,737.8,453.9637,730.8,456.7637,733.6,453.9637" style="stroke:#181818;stroke-width:0.6999999999999998;"/><line style="stroke:#181818;stroke-width:0.6999999999999998;" x1="266.7" x2="735" y1="453.9637" y2="453.9637"/><text fill="#000000" font-family="sans-serif" font-size="9.1" font-weight="bold" lengthAdjust="spacing" textLength="9.8" x="271.6" y="450.2798">17</text><text fill="#000000" font-family="sans-serif" font-size="9.1" lengthAdjust="spacing" textLength="446.6" x="284.2" y="450.2798">registerCollaborator(job, name, birthday, admissionDate, address, phoneNumber, email, idDocType, idNumber)</text><polygon fill="#181818" points="846.65,473.0674,853.65,475.8674,846.65,478.6674,849.45,475.8674" style="stroke:#181818;stroke-width:0.6999999999999998;"/><line style="stroke:#181818;stroke-width:0.6999999999999998;" x1="746.2" x2="850.85" y1="475.8674" y2="475.8674"/><text fill="#000000" font-family="sans-serif" font-size="9.1" font-weight="bold" lengthAdjust="spacing" textLength="9.8" x="751.1" y="472.1835">18</text><text fill="#000000" font-family="sans-serif" font-size="9.1" lengthAdjust="spacing" textLength="52.5" x="763.7" y="472.1835">getInstance()</text><polygon fill="#181818" points="753.9,494.9711,746.9,497.7711,753.9,500.5711,751.1,497.7711" style="stroke:#181818;stroke-width:0.6999999999999998;"/><line style="stroke:#181818;stroke-width:0.6999999999999998;stroke-dasharray:2.0,2.0;" x1="749.7" x2="857.85" y1="497.7711" y2="497.7711"/><text fill="#000000" font-family="sans-serif" font-size="9.1" font-weight="bold" lengthAdjust="spacing" textLength="9.8" x="758.1" y="494.0872">19</text><text fill="#000000" font-family="sans-serif" font-size="9.1" lengthAdjust="spacing" textLength="46.9" x="770.7" y="494.0872">repositories</text><polygon fill="#181818" points="921.55,516.8748,928.55,519.6748,921.55,522.4748,924.35,519.6748" style="stroke:#181818;stroke-width:0.6999999999999998;"/><line style="stroke:#181818;stroke-width:0.6999999999999998;" x1="746.2" x2="925.75" y1="519.6748" y2="519.6748"/><text fill="#000000" font-family="sans-serif" font-size="9.1" font-weight="bold" lengthAdjust="spacing" textLength="9.8" x="751.1" y="515.9909">20</text><text fill="#000000" font-family="sans-serif" font-size="9.1" lengthAdjust="spacing" textLength="109.9" x="763.7" y="515.9909">getCollaboratorRepository()</text><polygon fill="#181818" points="753.9,538.7785,746.9,541.5785,753.9,544.3785,751.1,541.5785" style="stroke:#181818;stroke-width:0.6999999999999998;"/><line style="stroke:#181818;stroke-width:0.6999999999999998;stroke-dasharray:2.0,2.0;" x1="749.7" x2="932.75" y1="541.5785" y2="541.5785"/><text fill="#000000" font-family="sans-serif" font-size="9.1" font-weight="bold" lengthAdjust="spacing" textLength="9.8" x="758.1" y="537.8946">21</text><text fill="#000000" font-family="sans-serif" font-size="9.1" lengthAdjust="spacing" textLength="90.3" x="770.7" y="537.8946">collaboratorRepository</text><polygon fill="#181818" points="1210.3,560.6822,1217.3,563.4822,1210.3,566.2822,1213.1,563.4822" style="stroke:#181818;stroke-width:0.6999999999999998;"/><line style="stroke:#181818;stroke-width:0.6999999999999998;" x1="746.2" x2="1214.5" y1="563.4822" y2="563.4822"/><text fill="#000000" font-family="sans-serif" font-size="9.1" font-weight="bold" lengthAdjust="spacing" textLength="9.8" x="751.1" y="559.7983">22</text><text fill="#000000" font-family="sans-serif" font-size="9.1" lengthAdjust="spacing" textLength="446.6" x="763.7" y="559.7983">registerCollaborator(job, name, birthday, admissionDate, address, phoneNumber, email, idDocType, idNumber)</text><polygon fill="#181818" points="1645,582.5859,1652,585.3859,1645,588.1859,1647.8,585.3859" style="stroke:#181818;stroke-width:0.6999999999999998;"/><line style="stroke:#181818;stroke-width:0.6999999999999998;" x1="1225.7" x2="1649.2" y1="585.3859" y2="585.3859"/><text fill="#000000" font-family="sans-serif" font-size="9.1" font-weight="bold" lengthAdjust="spacing" textLength="9.8" x="1230.6" y="581.7021">23</text><text fill="#000000" font-family="sans-serif" font-size="9.1" lengthAdjust="spacing" textLength="398.3" x="1243.2" y="581.7021">register(job, name, birthday, admissionDate, address, phoneNumber, email, idDocType, idNumber)</text><rect fill="#E3E3E3" height="35.8695" rx="1.75" ry="1.75" style="stroke:#181818;stroke-width:0.3499999999999999;" width="67.2" x="1653.4" y="569.0822"/><text fill="#000000" font-family="sans-serif" font-size="9.8" lengthAdjust="spacing" textLength="52.5" x="1660.75" y="584.5574">collaborator</text><text fill="#000000" font-family="sans-serif" font-size="9.8" lengthAdjust="spacing" textLength="57.4" x="1658.3" y="597.5922">:Collaborator</text><line style="stroke:#181818;stroke-width:0.6999999999999998;" x1="1225.7" x2="1255.1" y1="628.9555" y2="628.9555"/><line style="stroke:#181818;stroke-width:0.6999999999999998;" x1="1255.1" x2="1255.1" y1="628.9555" y2="638.0555"/><line style="stroke:#181818;stroke-width:0.6999999999999998;" x1="1226.4" x2="1255.1" y1="638.0555" y2="638.0555"/><polygon fill="#181818" points="1233.4,635.2555,1226.4,638.0555,1233.4,640.8555,1230.6,638.0555" style="stroke:#181818;stroke-width:0.6999999999999998;"/><text fill="#000000" font-family="sans-serif" font-size="9.1" font-weight="bold" lengthAdjust="spacing" textLength="9.8" x="1230.6" y="625.2716">24</text><text fill="#000000" font-family="sans-serif" font-size="9.1" lengthAdjust="spacing" textLength="116.2" x="1243.2" y="625.2716">addCollaborator (colaborator)</text><line style="stroke:#181818;stroke-width:0.6999999999999998;" x1="1225.7" x2="1255.1" y1="659.9592" y2="659.9592"/><line style="stroke:#181818;stroke-width:0.6999999999999998;" x1="1255.1" x2="1255.1" y1="659.9592" y2="669.0592"/><line style="stroke:#181818;stroke-width:0.6999999999999998;" x1="1226.4" x2="1255.1" y1="669.0592" y2="669.0592"/><polygon fill="#181818" points="1233.4,666.2592,1226.4,669.0592,1233.4,671.8592,1230.6,669.0592" style="stroke:#181818;stroke-width:0.6999999999999998;"/><text fill="#000000" font-family="sans-serif" font-size="9.1" font-weight="bold" lengthAdjust="spacing" textLength="9.8" x="1230.6" y="656.2753">25</text><text fill="#000000" font-family="sans-serif" font-size="9.1" lengthAdjust="spacing" textLength="131.6" x="1243.2" y="656.2753">validateCollaborator (colaborator)</text><polygon fill="#181818" points="753.9,688.1629,746.9,690.9629,753.9,693.7629,751.1,690.9629" style="stroke:#181818;stroke-width:0.6999999999999998;"/><line style="stroke:#181818;stroke-width:0.6999999999999998;stroke-dasharray:2.0,2.0;" x1="749.7" x2="1221.5" y1="690.9629" y2="690.9629"/><text fill="#000000" font-family="sans-serif" font-size="9.1" font-weight="bold" lengthAdjust="spacing" textLength="9.8" x="758.1" y="687.279">26</text><text fill="#000000" font-family="sans-serif" font-size="9.1" lengthAdjust="spacing" textLength="46.9" x="770.7" y="687.279">collaborator</text><polygon fill="#181818" points="274.4,710.0666,267.4,712.8666,274.4,715.6666,271.6,712.8666" style="stroke:#181818;stroke-width:0.6999999999999998;"/><line style="stroke:#181818;stroke-width:0.6999999999999998;stroke-dasharray:2.0,2.0;" x1="270.2" x2="742" y1="712.8666" y2="712.8666"/><text fill="#000000" font-family="sans-serif" font-size="9.1" font-weight="bold" lengthAdjust="spacing" textLength="9.8" x="278.6" y="709.1827">27</text><text fill="#000000" font-family="sans-serif" font-size="9.1" lengthAdjust="spacing" textLength="46.9" x="291.2" y="709.1827">collaborator</text><polygon fill="#181818" points="53.9,731.9703,46.9,734.7703,53.9,737.5703,51.1,734.7703" style="stroke:#181818;stroke-width:0.6999999999999998;"/><line style="stroke:#181818;stroke-width:0.6999999999999998;stroke-dasharray:2.0,2.0;" x1="49.7" x2="262.5" y1="734.7703" y2="734.7703"/><text fill="#000000" font-family="sans-serif" font-size="9.1" font-weight="bold" lengthAdjust="spacing" textLength="9.8" x="58.1" y="731.0864">28</text><text fill="#000000" font-family="sans-serif" font-size="9.1" lengthAdjust="spacing" textLength="110.6" x="70.7" y="731.0864">displays operation success</text><!--SRC=[pLR1Rjim3BtxAuXUrXKfTizXG9SEQ8Tq7PpsrWjZCubMM_94kLt-VfJSE5PZ9-cmOVF9Cid79-gHCZygNQ754agZJRQofYHmjgQ4Mqk5sICkQURM1O6bpA5U5bq7Nc5kdfLUmW8BfYJ1sXbTbtEoIV9kfNA2XJ5kRducc3bZuUIgBb53Icngcn4_w1lKaiAU039SfJU903kLgGgrWvDnIal5Zkp450NEZKK1kRyEplVNH_XEZ7PMriLBXibTEjq9gmmhyLN4mIVz_2rsiHsF1zqRC8iZlfjvwxKUF-Xe7MAYBt5mrk4VeVGR0bo_QHXNjj4jKrERs-dqujDjUd5tcoR-lDGJEWg7ae0yyWBd7wNkC1RtHmPdH1HDpG51qtD48yIqA79QuOD_145m_56SdGbMPaay6hCtYSsd6WluZvhOCUJeC9XpsW7iidBhYlW3Ko5IvKquvTlu0tG4OadkYvdpwVlMtCO4xRIV_HDY95O4q8HUQvOUoQWJ7a5uQKKM7td-ajrlUAkioAspxns83ebPku6j1lPGcUrmcNN8H2XxsCpwwSGjiAdhLDGon2XkYSWdChKS8P0Cc4Fyzc0sH3VIEGIqFVn8ehmopz88Au92Wi4iV4O6r7dR8eqSmMWwHi8RyNf8WUfNRGy5B8eWyv2wRPpCw8Mo9Jfbz37PN_pvw8uPjnEWEqvEXVa8D9OqWhcoRfNZUWIObufPc5mAdb_cbfX7KAsaDb_3fJ42Ab4L8r3vfSdkf9tzQsDxQqV-5mqPI4nwX_DlD-R0h7zpXmxSC__YHAC23EmlSlPFlrzGPkSc2rVCPaj_QHjle3PKT4dQhJUSYkDcyKSIF66XfAjfJvRNIUAqGobxTJcanaDdsndA0u07Pl8OSiLLWMi6Kv4Dam-upkHVa_icO6VfVtH-0G00]--></g></svg>