<?xml version="1.0" encoding="us-ascii" standalone="no"?><svg xmlns="http://www.w3.org/2000/svg" xmlns:xlink="http://www.w3.org/1999/xlink" contentStyleType="text/css" height="463.5px" preserveAspectRatio="none" style="width:914px;height:463px;background:#FFFFFF;" version="1.1" viewBox="0 0 914 463" width="914px" zoomAndPan="magnify"><defs/><g><rect fill="#FFFFFF" height="347.6816" style="stroke:#181818;stroke-width:0.5;" width="5" x="30.5" y="56.1211"/><rect fill="#FFFFFF" height="37.4561" style="stroke:#181818;stroke-width:0.5;" width="5" x="182" y="67.7666"/><rect fill="#FFFFFF" height="71.0625" style="stroke:#181818;stroke-width:0.5;" width="5" x="182" y="120.8682"/><rect fill="#FFFFFF" height="15.6455" style="stroke:#181818;stroke-width:0.5;" width="5" x="182" y="207.5762"/><rect fill="#FFFFFF" height="164.9355" style="stroke:#181818;stroke-width:0.5;" width="5" x="182" y="238.8672"/><rect fill="#FFFFFF" height="39.7715" style="stroke:#181818;stroke-width:0.5;" width="5" x="524.5" y="136.5137"/><rect fill="#FFFFFF" height="133.6445" style="stroke:#181818;stroke-width:0.5;" width="5" x="524.5" y="254.5127"/><rect fill="#FFFFFF" height="15.6455" style="stroke:#181818;stroke-width:0.5;" width="5" x="607.25" y="270.1582"/><rect fill="#FFFFFF" height="15.6455" style="stroke:#181818;stroke-width:0.5;" width="5" x="660.75" y="301.4492"/><rect fill="#FFFFFF" height="39.7715" style="stroke:#181818;stroke-width:0.5;" width="5" x="867" y="332.7402"/><line style="stroke:#181818;stroke-width:0.25;stroke-dasharray:5.0,5.0;" x1="33" x2="33" y1="51.1211" y2="412.8027"/><line style="stroke:#181818;stroke-width:0.25;stroke-dasharray:5.0,5.0;" x1="184.25" x2="184.25" y1="51.1211" y2="412.8027"/><line style="stroke:#181818;stroke-width:0.25;stroke-dasharray:5.0,5.0;" x1="527" x2="527" y1="87.6719" y2="412.8027"/><line style="stroke:#181818;stroke-width:0.25;stroke-dasharray:5.0,5.0;" x1="609.5" x2="609.5" y1="51.1211" y2="412.8027"/><line style="stroke:#181818;stroke-width:0.25;stroke-dasharray:5.0,5.0;" x1="663" x2="663" y1="51.1211" y2="412.8027"/><line style="stroke:#181818;stroke-width:0.25;stroke-dasharray:5.0,5.0;" x1="718.5" x2="718.5" y1="51.1211" y2="412.8027"/><line style="stroke:#181818;stroke-width:0.25;stroke-dasharray:5.0,5.0;" x1="869.25" x2="869.25" y1="51.1211" y2="412.8027"/><text fill="#000000" font-family="sans-serif" font-size="7" lengthAdjust="spacing" textLength="58" x="2.5" y="40.0537">Human Resources</text><text fill="#000000" font-family="sans-serif" font-size="7" lengthAdjust="spacing" textLength="28" x="17.5" y="49.3643">Manager</text><ellipse cx="33" cy="6.75" fill="#E3E3E3" rx="4" ry="4" style="stroke:#181818;stroke-width:0.25;"/><path d="M33,10.75 L33,24.25 M26.5,14.75 L39.5,14.75 M33,24.25 L26.5,31.75 M33,24.25 L39.5,31.75 " fill="none" style="stroke:#181818;stroke-width:0.25;"/><text fill="#000000" font-family="sans-serif" font-size="7" lengthAdjust="spacing" textLength="58" x="2.5" y="419.8564">Human Resources</text><text fill="#000000" font-family="sans-serif" font-size="7" lengthAdjust="spacing" textLength="28" x="17.5" y="429.167">Manager</text><ellipse cx="33" cy="435.1738" fill="#E3E3E3" rx="4" ry="4" style="stroke:#181818;stroke-width:0.25;"/><path d="M33,439.1738 L33,452.6738 M26.5,443.1738 L39.5,443.1738 M33,452.6738 L26.5,460.1738 M33,452.6738 L39.5,460.1738 " fill="none" style="stroke:#181818;stroke-width:0.25;"/><rect fill="#E3E3E3" height="16.3105" rx="1.25" ry="1.25" style="stroke:#181818;stroke-width:0.25;" width="80.5" x="144.25" y="34.3105"/><text fill="#000000" font-family="sans-serif" font-size="7" lengthAdjust="spacing" textLength="73.5" x="147.75" y="45.3643">:RegisterCollaboratorUI</text><rect fill="#E3E3E3" height="16.3105" rx="1.25" ry="1.25" style="stroke:#181818;stroke-width:0.25;" width="80.5" x="144.25" y="412.3027"/><text fill="#000000" font-family="sans-serif" font-size="7" lengthAdjust="spacing" textLength="73.5" x="147.75" y="423.3564">:RegisterCollaboratorUI</text><rect fill="#E3E3E3" height="16.3105" rx="1.25" ry="1.25" style="stroke:#181818;stroke-width:0.25;" width="107" x="473.5" y="412.3027"/><text fill="#000000" font-family="sans-serif" font-size="7" lengthAdjust="spacing" textLength="100" x="477" y="423.3564">:RegisterCollaboratorControlller</text><rect fill="#E3E3E3" height="16.3105" rx="1.25" ry="1.25" style="stroke:#181818;stroke-width:0.25;" width="48.5" x="585.5" y="34.3105"/><text fill="#000000" font-family="sans-serif" font-size="7" lengthAdjust="spacing" textLength="41.5" x="589" y="45.3643">:Repositories</text><rect fill="#E3E3E3" height="16.3105" rx="1.25" ry="1.25" style="stroke:#181818;stroke-width:0.25;" width="48.5" x="585.5" y="412.3027"/><text fill="#000000" font-family="sans-serif" font-size="7" lengthAdjust="spacing" textLength="41.5" x="589" y="423.3564">:Repositories</text><rect fill="#E3E3E3" height="25.6211" rx="1.25" ry="1.25" style="stroke:#181818;stroke-width:0.25;" width="48.5" x="639" y="25"/><text fill="#000000" font-family="sans-serif" font-size="7" lengthAdjust="spacing" textLength="37" x="644.75" y="36.0537">repositories</text><text fill="#000000" font-family="sans-serif" font-size="7" lengthAdjust="spacing" textLength="41.5" x="642.5" y="45.3643">:Repositories</text><rect fill="#E3E3E3" height="25.6211" rx="1.25" ry="1.25" style="stroke:#181818;stroke-width:0.25;" width="48.5" x="639" y="412.3027"/><text fill="#000000" font-family="sans-serif" font-size="7" lengthAdjust="spacing" textLength="37" x="644.75" y="423.3564">repositories</text><text fill="#000000" font-family="sans-serif" font-size="7" lengthAdjust="spacing" textLength="41.5" x="642.5" y="432.667">:Repositories</text><rect fill="#E3E3E3" height="25.6211" rx="1.25" ry="1.25" style="stroke:#181818;stroke-width:0.25;" width="52.5" x="692.5" y="25"/><text fill="#000000" font-family="sans-serif" font-size="7" lengthAdjust="spacing" textLength="45.5" x="696" y="36.0537">jobRepository:</text><text fill="#000000" font-family="sans-serif" font-size="7" lengthAdjust="spacing" textLength="43.5" x="697" y="45.3643">jobRepository</text><rect fill="#E3E3E3" height="25.6211" rx="1.25" ry="1.25" style="stroke:#181818;stroke-width:0.25;" width="52.5" x="692.5" y="412.3027"/><text fill="#000000" font-family="sans-serif" font-size="7" lengthAdjust="spacing" textLength="45.5" x="696" y="423.3564">jobRepository:</text><text fill="#000000" font-family="sans-serif" font-size="7" lengthAdjust="spacing" textLength="43.5" x="697" y="432.667">jobRepository</text><rect fill="#E3E3E3" height="25.6211" rx="1.25" ry="1.25" style="stroke:#181818;stroke-width:0.25;" width="80.5" x="829.25" y="25"/><text fill="#000000" font-family="sans-serif" font-size="7" lengthAdjust="spacing" textLength="73.5" x="832.75" y="36.0537">collaboratorRepository:</text><text fill="#000000" font-family="sans-serif" font-size="7" lengthAdjust="spacing" textLength="71.5" x="833.75" y="45.3643">collaboratorRepository</text><rect fill="#E3E3E3" height="25.6211" rx="1.25" ry="1.25" style="stroke:#181818;stroke-width:0.25;" width="80.5" x="829.25" y="412.3027"/><text fill="#000000" font-family="sans-serif" font-size="7" lengthAdjust="spacing" textLength="73.5" x="832.75" y="423.3564">collaboratorRepository:</text><text fill="#000000" font-family="sans-serif" font-size="7" lengthAdjust="spacing" textLength="71.5" x="833.75" y="432.667">collaboratorRepository</text><rect fill="#FFFFFF" height="347.6816" style="stroke:#181818;stroke-width:0.5;" width="5" x="30.5" y="56.1211"/><rect fill="#FFFFFF" height="37.4561" style="stroke:#181818;stroke-width:0.5;" width="5" x="182" y="67.7666"/><rect fill="#FFFFFF" height="71.0625" style="stroke:#181818;stroke-width:0.5;" width="5" x="182" y="120.8682"/><rect fill="#FFFFFF" height="15.6455" style="stroke:#181818;stroke-width:0.5;" width="5" x="182" y="207.5762"/><rect fill="#FFFFFF" height="164.9355" style="stroke:#181818;stroke-width:0.5;" width="5" x="182" y="238.8672"/><rect fill="#FFFFFF" height="39.7715" style="stroke:#181818;stroke-width:0.5;" width="5" x="524.5" y="136.5137"/><rect fill="#FFFFFF" height="133.6445" style="stroke:#181818;stroke-width:0.5;" width="5" x="524.5" y="254.5127"/><rect fill="#FFFFFF" height="15.6455" style="stroke:#181818;stroke-width:0.5;" width="5" x="607.25" y="270.1582"/><rect fill="#FFFFFF" height="15.6455" style="stroke:#181818;stroke-width:0.5;" width="5" x="660.75" y="301.4492"/><rect fill="#FFFFFF" height="39.7715" style="stroke:#181818;stroke-width:0.5;" width="5" x="867" y="332.7402"/><polygon fill="#181818" points="176,65.7666,181,67.7666,176,69.7666,178,67.7666" style="stroke:#181818;stroke-width:0.5;"/><line style="stroke:#181818;stroke-width:0.5;" x1="35.5" x2="179" y1="67.7666" y2="67.7666"/><text fill="#000000" font-family="sans-serif" font-size="6.5" font-weight="bold" lengthAdjust="spacing" textLength="3.5" x="39" y="65.1353">1</text><text fill="#000000" font-family="sans-serif" font-size="6.5" lengthAdjust="spacing" textLength="99.5" x="44.5" y="65.1353">asks to register a new collaborator</text><polygon fill="#181818" points="467.5,81.4121,472.5,83.4121,467.5,85.4121,469.5,83.4121" style="stroke:#181818;stroke-width:0.5;"/><line style="stroke:#181818;stroke-width:0.5;" x1="187" x2="470.5" y1="83.4121" y2="83.4121"/><text fill="#000000" font-family="sans-serif" font-size="6.5" font-weight="bold" lengthAdjust="spacing" textLength="3.5" x="190.5" y="80.7808">2</text><text fill="#000000" font-family="sans-serif" font-size="6.5" lengthAdjust="spacing" textLength="18" x="196" y="80.7808">create</text><rect fill="#E3E3E3" height="16.3105" rx="1.25" ry="1.25" style="stroke:#181818;stroke-width:0.25;" width="107" x="473.5" y="71.7666"/><text fill="#000000" font-family="sans-serif" font-size="7" lengthAdjust="spacing" textLength="100" x="477" y="82.8203">:RegisterCollaboratorControlller</text><polygon fill="#181818" points="41,103.2227,36,105.2227,41,107.2227,39,105.2227" style="stroke:#181818;stroke-width:0.5;"/><line style="stroke:#181818;stroke-width:0.5;stroke-dasharray:2.0,2.0;" x1="38" x2="184" y1="105.2227" y2="105.2227"/><text fill="#000000" font-family="sans-serif" font-size="6.5" font-weight="bold" lengthAdjust="spacing" textLength="3.5" x="44" y="102.5913">3</text><text fill="#000000" font-family="sans-serif" font-size="6.5" lengthAdjust="spacing" textLength="39.5" x="49.5" y="102.5913">requests data</text><polygon fill="#181818" points="176,118.8682,181,120.8682,176,122.8682,178,120.8682" style="stroke:#181818;stroke-width:0.5;"/><line style="stroke:#181818;stroke-width:0.5;" x1="35.5" x2="179" y1="120.8682" y2="120.8682"/><text fill="#000000" font-family="sans-serif" font-size="6.5" font-weight="bold" lengthAdjust="spacing" textLength="3.5" x="39" y="118.2368">4</text><text fill="#000000" font-family="sans-serif" font-size="6.5" lengthAdjust="spacing" textLength="84" x="44.5" y="118.2368">types/selects requested data</text><polygon fill="#181818" points="518.5,134.5137,523.5,136.5137,518.5,138.5137,520.5,136.5137" style="stroke:#181818;stroke-width:0.5;"/><line style="stroke:#181818;stroke-width:0.5;" x1="187" x2="521.5" y1="136.5137" y2="136.5137"/><text fill="#000000" font-family="sans-serif" font-size="6.5" font-weight="bold" lengthAdjust="spacing" textLength="3.5" x="190.5" y="133.8823">5</text><text fill="#000000" font-family="sans-serif" font-size="6.5" lengthAdjust="spacing" textLength="26.5" x="196" y="133.8823">getJobs()</text><rect fill="none" height="21.626" style="stroke:#000000;stroke-width:0.75;" width="110" x="472" y="140.5137"/><path d="M472,140.5137 L503,140.5137 L503,145.0137 L498,150.0137 L472,150.0137 L472,140.5137 " fill="#EEEEEE" style="stroke:#000000;stroke-width:1.0;"/><text fill="#000000" font-family="sans-serif" font-size="6.5" font-weight="bold" lengthAdjust="spacing" textLength="8.5" x="478.5" y="148.5278">ref</text><text fill="#000000" font-family="sans-serif" font-size="6" lengthAdjust="spacing" textLength="36" x="509" y="158.4883">Get Jobs List</text><polygon fill="#181818" points="192.5,174.2852,187.5,176.2852,192.5,178.2852,190.5,176.2852" style="stroke:#181818;stroke-width:0.5;"/><line style="stroke:#181818;stroke-width:0.5;stroke-dasharray:2.0,2.0;" x1="189.5" x2="526.5" y1="176.2852" y2="176.2852"/><text fill="#000000" font-family="sans-serif" font-size="6.5" font-weight="bold" lengthAdjust="spacing" textLength="3.5" x="195.5" y="173.6538">6</text><text fill="#000000" font-family="sans-serif" font-size="6.5" lengthAdjust="spacing" textLength="24" x="201" y="173.6538">JobsList</text><polygon fill="#181818" points="41,189.9307,36,191.9307,41,193.9307,39,191.9307" style="stroke:#181818;stroke-width:0.5;"/><line style="stroke:#181818;stroke-width:0.5;stroke-dasharray:2.0,2.0;" x1="38" x2="184" y1="191.9307" y2="191.9307"/><text fill="#000000" font-family="sans-serif" font-size="6.5" font-weight="bold" lengthAdjust="spacing" textLength="3.5" x="44" y="189.2993">7</text><text fill="#000000" font-family="sans-serif" font-size="6.5" lengthAdjust="spacing" textLength="129" x="49.5" y="189.2993">shows the list of jobs and asks to select one</text><polygon fill="#181818" points="176,205.5762,181,207.5762,176,209.5762,178,207.5762" style="stroke:#181818;stroke-width:0.5;"/><line style="stroke:#181818;stroke-width:0.5;" x1="35.5" x2="179" y1="207.5762" y2="207.5762"/><text fill="#000000" font-family="sans-serif" font-size="6.5" font-weight="bold" lengthAdjust="spacing" textLength="3.5" x="39" y="204.9448">8</text><text fill="#000000" font-family="sans-serif" font-size="6.5" lengthAdjust="spacing" textLength="42.5" x="44.5" y="204.9448">selects the job</text><polygon fill="#181818" points="41,221.2217,36,223.2217,41,225.2217,39,223.2217" style="stroke:#181818;stroke-width:0.5;"/><line style="stroke:#181818;stroke-width:0.5;stroke-dasharray:2.0,2.0;" x1="38" x2="184" y1="223.2217" y2="223.2217"/><text fill="#000000" font-family="sans-serif" font-size="6.5" font-weight="bold" lengthAdjust="spacing" textLength="3.5" x="44" y="220.5903">9</text><text fill="#000000" font-family="sans-serif" font-size="6.5" lengthAdjust="spacing" textLength="118" x="49.5" y="220.5903">shows all data and requests confirmation</text><polygon fill="#181818" points="176,236.8672,181,238.8672,176,240.8672,178,238.8672" style="stroke:#181818;stroke-width:0.5;"/><line style="stroke:#181818;stroke-width:0.5;" x1="35.5" x2="179" y1="238.8672" y2="238.8672"/><text fill="#000000" font-family="sans-serif" font-size="6.5" font-weight="bold" lengthAdjust="spacing" textLength="7" x="39" y="236.2358">10</text><text fill="#000000" font-family="sans-serif" font-size="6.5" lengthAdjust="spacing" textLength="39" x="48" y="236.2358">confirms data</text><polygon fill="#181818" points="518.5,252.5127,523.5,254.5127,518.5,256.5127,520.5,254.5127" style="stroke:#181818;stroke-width:0.5;"/><line style="stroke:#181818;stroke-width:0.5;" x1="187" x2="521.5" y1="254.5127" y2="254.5127"/><text fill="#000000" font-family="sans-serif" font-size="6.5" font-weight="bold" lengthAdjust="spacing" textLength="7" x="190.5" y="251.8813">11</text><text fill="#000000" font-family="sans-serif" font-size="6.5" lengthAdjust="spacing" textLength="319" x="199.5" y="251.8813">registerCollaborator(job, name, birthday, admissionDate, address, phoneNumber, email, idDocType, idNumber)</text><polygon fill="#181818" points="601.25,268.1582,606.25,270.1582,601.25,272.1582,603.25,270.1582" style="stroke:#181818;stroke-width:0.5;"/><line style="stroke:#181818;stroke-width:0.5;" x1="529.5" x2="604.25" y1="270.1582" y2="270.1582"/><text fill="#000000" font-family="sans-serif" font-size="6.5" font-weight="bold" lengthAdjust="spacing" textLength="7" x="533" y="267.5269">12</text><text fill="#000000" font-family="sans-serif" font-size="6.5" lengthAdjust="spacing" textLength="37.5" x="542" y="267.5269">getInstance()</text><polygon fill="#181818" points="535,283.8037,530,285.8037,535,287.8037,533,285.8037" style="stroke:#181818;stroke-width:0.5;"/><line style="stroke:#181818;stroke-width:0.5;stroke-dasharray:2.0,2.0;" x1="532" x2="609.25" y1="285.8037" y2="285.8037"/><text fill="#000000" font-family="sans-serif" font-size="6.5" font-weight="bold" lengthAdjust="spacing" textLength="7" x="538" y="283.1724">13</text><text fill="#000000" font-family="sans-serif" font-size="6.5" lengthAdjust="spacing" textLength="33.5" x="547" y="283.1724">repositories</text><polygon fill="#181818" points="654.75,299.4492,659.75,301.4492,654.75,303.4492,656.75,301.4492" style="stroke:#181818;stroke-width:0.5;"/><line style="stroke:#181818;stroke-width:0.5;" x1="529.5" x2="657.75" y1="301.4492" y2="301.4492"/><text fill="#000000" font-family="sans-serif" font-size="6.5" font-weight="bold" lengthAdjust="spacing" textLength="7" x="533" y="298.8179">14</text><text fill="#000000" font-family="sans-serif" font-size="6.5" lengthAdjust="spacing" textLength="78.5" x="542" y="298.8179">getCollaboratorRepository()</text><polygon fill="#181818" points="535,315.0947,530,317.0947,535,319.0947,533,317.0947" style="stroke:#181818;stroke-width:0.5;"/><line style="stroke:#181818;stroke-width:0.5;stroke-dasharray:2.0,2.0;" x1="532" x2="662.75" y1="317.0947" y2="317.0947"/><text fill="#000000" font-family="sans-serif" font-size="6.5" font-weight="bold" lengthAdjust="spacing" textLength="7" x="538" y="314.4634">15</text><text fill="#000000" font-family="sans-serif" font-size="6.5" lengthAdjust="spacing" textLength="64.5" x="547" y="314.4634">collaboratorRepository</text><polygon fill="#181818" points="861,330.7402,866,332.7402,861,334.7402,863,332.7402" style="stroke:#181818;stroke-width:0.5;"/><line style="stroke:#181818;stroke-width:0.5;" x1="529.5" x2="864" y1="332.7402" y2="332.7402"/><text fill="#000000" font-family="sans-serif" font-size="6.5" font-weight="bold" lengthAdjust="spacing" textLength="7" x="533" y="330.1089">16</text><text fill="#000000" font-family="sans-serif" font-size="6.5" lengthAdjust="spacing" textLength="319" x="542" y="330.1089">registerCollaborator(job, name, birthday, admissionDate, address, phoneNumber, email, idDocType, idNumber)</text><rect fill="none" height="21.626" style="stroke:#000000;stroke-width:0.75;" width="83.5" x="827.75" y="336.7402"/><path d="M827.75,336.7402 L858.75,336.7402 L858.75,341.2402 L853.75,346.2402 L827.75,346.2402 L827.75,336.7402 " fill="#EEEEEE" style="stroke:#000000;stroke-width:1.0;"/><text fill="#000000" font-family="sans-serif" font-size="6.5" font-weight="bold" lengthAdjust="spacing" textLength="8.5" x="834.25" y="344.7544">ref</text><text fill="#000000" font-family="sans-serif" font-size="6" lengthAdjust="spacing" textLength="59" x="840" y="354.7148">Register Collaborator</text><polygon fill="#181818" points="535,370.5117,530,372.5117,535,374.5117,533,372.5117" style="stroke:#181818;stroke-width:0.5;"/><line style="stroke:#181818;stroke-width:0.5;stroke-dasharray:2.0,2.0;" x1="532" x2="869" y1="372.5117" y2="372.5117"/><text fill="#000000" font-family="sans-serif" font-size="6.5" font-weight="bold" lengthAdjust="spacing" textLength="7" x="538" y="369.8804">17</text><text fill="#000000" font-family="sans-serif" font-size="6.5" lengthAdjust="spacing" textLength="33.5" x="547" y="369.8804">collaborator</text><polygon fill="#181818" points="192.5,386.1572,187.5,388.1572,192.5,390.1572,190.5,388.1572" style="stroke:#181818;stroke-width:0.5;"/><line style="stroke:#181818;stroke-width:0.5;stroke-dasharray:2.0,2.0;" x1="189.5" x2="526.5" y1="388.1572" y2="388.1572"/><text fill="#000000" font-family="sans-serif" font-size="6.5" font-weight="bold" lengthAdjust="spacing" textLength="7" x="195.5" y="385.5259">18</text><text fill="#000000" font-family="sans-serif" font-size="6.5" lengthAdjust="spacing" textLength="33.5" x="204.5" y="385.5259">collaborator</text><polygon fill="#181818" points="38.5,401.8027,33.5,403.8027,38.5,405.8027,36.5,403.8027" style="stroke:#181818;stroke-width:0.5;"/><line style="stroke:#181818;stroke-width:0.5;stroke-dasharray:2.0,2.0;" x1="35.5" x2="184" y1="403.8027" y2="403.8027"/><text fill="#000000" font-family="sans-serif" font-size="6.5" font-weight="bold" lengthAdjust="spacing" textLength="7" x="41.5" y="401.1714">19</text><text fill="#000000" font-family="sans-serif" font-size="6.5" lengthAdjust="spacing" textLength="79" x="50.5" y="401.1714">displays operation success</text><!--SRC=[nLMnSjim3Dtr5RWiJNFETVUGnUabwIMzdfriMM09jjX8X4fGIVtt1UbO5cqfyLPE8W4yW0_WaxmOsw336cgsd9UEQmBlMigaipIOl-2Q5dvJ4JZAFTfrrNUG4Wj-CtODAwo4iWnRpxQjb-Iox4jf2e8Lir_otmnppmxERjiQBSn9k7KvoRDzGAift1cWmEty8LDWRtBJeFLmDftJseWdD-EgmYKxL92dk-ZyT7U2xuojTxgltZFC7kVtHs4DYr5VGn9zvjz_fIwkv_5i1mCMQSHlNdPUc-cpJVOn9Zb9W_DU_GdAi2723PkomBfvHK-HsWnqwGTSNYbxCDN05m7FsjejSu1WwIq1Yp4TYd8U3y9I1CK9X5vSA5RkI3ssvc1IMqWrLV0_BOaNAD1ZD1Tq1DYlocyQacz2bGwSxCAfsCT_Kev2hCd_uAMSV-tCNKoSWEuuB4Shu5UzVJJ1mReX3m4BxfMYn4gs2B5xi9ZySdUD49J4zAwzBoAXIaf-quQK19K60g_2c0YW9jgrQaiBiALJgDoH620LQfYzWHAmgYBTCNNNm9pjohWQlM5xIlPtVpcvSzDk4ljl-5mhdu35cYQmDCwN1MucW4LjHBIIQyKBsyAHo0IQKhdv6ILe0bIZgIPWYclE7tMimkVMTj9aR1jw5HvudAaxAog1EVNcAa48of5Oz21okxlSNZWIjnwFHn2z6XQnYDdWK_-WfCLHJOjUKIFACLxUOhY-4TNw7nrD21XJniDttgd02OHqLEvqStQec1_gH5Z3MKRwCjQDp-xM4wGHm4yqQGg5aQR2ZG0tvEBB1sbp_NFBa0Bqjk67ymy0]--></g></svg>