<?xml version="1.0" encoding="us-ascii" standalone="no"?><svg xmlns="http://www.w3.org/2000/svg" xmlns:xlink="http://www.w3.org/1999/xlink" contentStyleType="text/css" height="494px" preserveAspectRatio="none" style="width:446px;height:494px;background:#FFFFFF;" version="1.1" viewBox="0 0 446 494" width="446px" zoomAndPan="magnify"><defs/><g><!--class RegisterCollaboratorUI--><g id="elem_RegisterCollaboratorUI"><rect codeLine="11" fill="#F1F1F1" height="48" id="RegisterCollaboratorUI" rx="2.5" ry="2.5" style="stroke:#181818;stroke-width:0.5;" width="175" x="62.5" y="7"/><ellipse cx="77.5" cy="23" fill="#ADD1B2" rx="11" ry="11" style="stroke:#181818;stroke-width:1.0;"/><path d="M80.2656,18.875 Q80.4219,18.6563 80.6094,18.5469 Q80.7969,18.4375 81.0156,18.4375 Q81.3906,18.4375 81.625,18.7031 Q81.8594,18.9531 81.8594,19.5625 L81.8594,21.0156 Q81.8594,21.625 81.625,21.8906 Q81.3906,22.1563 81.0156,22.1563 Q80.6719,22.1563 80.4688,21.9531 Q80.2656,21.7656 80.1563,21.25 Q80.1094,20.8906 79.9219,20.7031 Q79.5938,20.3281 78.9844,20.1094 Q78.375,19.8906 77.75,19.8906 Q76.9844,19.8906 76.3438,20.2188 Q75.7188,20.5469 75.2188,21.2969 Q74.7344,22.0469 74.7344,23.0781 L74.7344,24.1719 Q74.7344,25.4063 75.625,26.2344 Q76.5156,27.0469 78.1094,27.0469 Q79.0469,27.0469 79.7031,26.7969 Q80.0938,26.6406 80.5156,26.2031 Q80.7813,25.9375 80.9219,25.8594 Q81.0781,25.7813 81.2813,25.7813 Q81.6094,25.7813 81.8594,26.0469 Q82.125,26.2969 82.125,26.6406 Q82.125,26.9844 81.7813,27.3906 Q81.2813,27.9688 80.4844,28.2969 Q79.4063,28.75 78.1094,28.75 Q76.5938,28.75 75.3906,28.125 Q74.4063,27.625 73.7188,26.5625 Q73.0313,25.4844 73.0313,24.2031 L73.0313,23.0469 Q73.0313,21.7188 73.6406,20.5781 Q74.2656,19.4219 75.3594,18.8125 Q76.4531,18.1875 77.6875,18.1875 Q78.4219,18.1875 79.0625,18.3594 Q79.7188,18.5156 80.2656,18.875 Z " fill="#000000"/><text fill="#000000" font-family="sans-serif" font-size="14" lengthAdjust="spacing" textLength="143" x="91.5" y="28.7969">RegisterCollaboratorUI</text><line style="stroke:#181818;stroke-width:0.5;" x1="63.5" x2="236.5" y1="39" y2="39"/><line style="stroke:#181818;stroke-width:0.5;" x1="63.5" x2="236.5" y1="47" y2="47"/></g><!--class RegisterCollaboratorControlller--><g id="elem_RegisterCollaboratorControlller"><rect codeLine="15" fill="#F1F1F1" height="48" id="RegisterCollaboratorControlller" rx="2.5" ry="2.5" style="stroke:#181818;stroke-width:0.5;" width="228" x="36" y="115"/><ellipse cx="51" cy="131" fill="#ADD1B2" rx="11" ry="11" style="stroke:#181818;stroke-width:1.0;"/><path d="M53.7656,126.875 Q53.9219,126.6563 54.1094,126.5469 Q54.2969,126.4375 54.5156,126.4375 Q54.8906,126.4375 55.125,126.7031 Q55.3594,126.9531 55.3594,127.5625 L55.3594,129.0156 Q55.3594,129.625 55.125,129.8906 Q54.8906,130.1563 54.5156,130.1563 Q54.1719,130.1563 53.9688,129.9531 Q53.7656,129.7656 53.6563,129.25 Q53.6094,128.8906 53.4219,128.7031 Q53.0938,128.3281 52.4844,128.1094 Q51.875,127.8906 51.25,127.8906 Q50.4844,127.8906 49.8438,128.2188 Q49.2188,128.5469 48.7188,129.2969 Q48.2344,130.0469 48.2344,131.0781 L48.2344,132.1719 Q48.2344,133.4063 49.125,134.2344 Q50.0156,135.0469 51.6094,135.0469 Q52.5469,135.0469 53.2031,134.7969 Q53.5938,134.6406 54.0156,134.2031 Q54.2813,133.9375 54.4219,133.8594 Q54.5781,133.7813 54.7813,133.7813 Q55.1094,133.7813 55.3594,134.0469 Q55.625,134.2969 55.625,134.6406 Q55.625,134.9844 55.2813,135.3906 Q54.7813,135.9688 53.9844,136.2969 Q52.9063,136.75 51.6094,136.75 Q50.0938,136.75 48.8906,136.125 Q47.9063,135.625 47.2188,134.5625 Q46.5313,133.4844 46.5313,132.2031 L46.5313,131.0469 Q46.5313,129.7188 47.1406,128.5781 Q47.7656,127.4219 48.8594,126.8125 Q49.9531,126.1875 51.1875,126.1875 Q51.9219,126.1875 52.5625,126.3594 Q53.2188,126.5156 53.7656,126.875 Z " fill="#000000"/><text fill="#000000" font-family="sans-serif" font-size="14" lengthAdjust="spacing" textLength="196" x="65" y="136.7969">RegisterCollaboratorControlller</text><line style="stroke:#181818;stroke-width:0.5;" x1="37" x2="263" y1="147" y2="147"/><line style="stroke:#181818;stroke-width:0.5;" x1="37" x2="263" y1="155" y2="155"/></g><!--class CollaboratorRepository--><g id="elem_CollaboratorRepository"><rect codeLine="19" fill="#F1F1F1" height="48" id="CollaboratorRepository" rx="2.5" ry="2.5" style="stroke:#181818;stroke-width:0.5;" width="178" x="7" y="331"/><ellipse cx="22" cy="347" fill="#ADD1B2" rx="11" ry="11" style="stroke:#181818;stroke-width:1.0;"/><path d="M24.7656,342.875 Q24.9219,342.6563 25.1094,342.5469 Q25.2969,342.4375 25.5156,342.4375 Q25.8906,342.4375 26.125,342.7031 Q26.3594,342.9531 26.3594,343.5625 L26.3594,345.0156 Q26.3594,345.625 26.125,345.8906 Q25.8906,346.1563 25.5156,346.1563 Q25.1719,346.1563 24.9688,345.9531 Q24.7656,345.7656 24.6563,345.25 Q24.6094,344.8906 24.4219,344.7031 Q24.0938,344.3281 23.4844,344.1094 Q22.875,343.8906 22.25,343.8906 Q21.4844,343.8906 20.8438,344.2188 Q20.2188,344.5469 19.7188,345.2969 Q19.2344,346.0469 19.2344,347.0781 L19.2344,348.1719 Q19.2344,349.4063 20.125,350.2344 Q21.0156,351.0469 22.6094,351.0469 Q23.5469,351.0469 24.2031,350.7969 Q24.5938,350.6406 25.0156,350.2031 Q25.2813,349.9375 25.4219,349.8594 Q25.5781,349.7813 25.7813,349.7813 Q26.1094,349.7813 26.3594,350.0469 Q26.625,350.2969 26.625,350.6406 Q26.625,350.9844 26.2813,351.3906 Q25.7813,351.9688 24.9844,352.2969 Q23.9063,352.75 22.6094,352.75 Q21.0938,352.75 19.8906,352.125 Q18.9063,351.625 18.2188,350.5625 Q17.5313,349.4844 17.5313,348.2031 L17.5313,347.0469 Q17.5313,345.7188 18.1406,344.5781 Q18.7656,343.4219 19.8594,342.8125 Q20.9531,342.1875 22.1875,342.1875 Q22.9219,342.1875 23.5625,342.3594 Q24.2188,342.5156 24.7656,342.875 Z " fill="#000000"/><text fill="#000000" font-family="sans-serif" font-size="14" lengthAdjust="spacing" textLength="146" x="36" y="352.7969">CollaboratorRepository</text><line style="stroke:#181818;stroke-width:0.5;" x1="8" x2="184" y1="363" y2="363"/><line style="stroke:#181818;stroke-width:0.5;" x1="8" x2="184" y1="371" y2="371"/></g><!--class Collaborator--><g id="elem_Collaborator"><rect codeLine="23" fill="#F1F1F1" height="48" id="Collaborator" rx="2.5" ry="2.5" style="stroke:#181818;stroke-width:0.5;" width="110" x="197" y="439"/><ellipse cx="212" cy="455" fill="#ADD1B2" rx="11" ry="11" style="stroke:#181818;stroke-width:1.0;"/><path d="M214.7656,450.875 Q214.9219,450.6563 215.1094,450.5469 Q215.2969,450.4375 215.5156,450.4375 Q215.8906,450.4375 216.125,450.7031 Q216.3594,450.9531 216.3594,451.5625 L216.3594,453.0156 Q216.3594,453.625 216.125,453.8906 Q215.8906,454.1563 215.5156,454.1563 Q215.1719,454.1563 214.9688,453.9531 Q214.7656,453.7656 214.6563,453.25 Q214.6094,452.8906 214.4219,452.7031 Q214.0938,452.3281 213.4844,452.1094 Q212.875,451.8906 212.25,451.8906 Q211.4844,451.8906 210.8438,452.2188 Q210.2188,452.5469 209.7188,453.2969 Q209.2344,454.0469 209.2344,455.0781 L209.2344,456.1719 Q209.2344,457.4063 210.125,458.2344 Q211.0156,459.0469 212.6094,459.0469 Q213.5469,459.0469 214.2031,458.7969 Q214.5938,458.6406 215.0156,458.2031 Q215.2813,457.9375 215.4219,457.8594 Q215.5781,457.7813 215.7813,457.7813 Q216.1094,457.7813 216.3594,458.0469 Q216.625,458.2969 216.625,458.6406 Q216.625,458.9844 216.2813,459.3906 Q215.7813,459.9688 214.9844,460.2969 Q213.9063,460.75 212.6094,460.75 Q211.0938,460.75 209.8906,460.125 Q208.9063,459.625 208.2188,458.5625 Q207.5313,457.4844 207.5313,456.2031 L207.5313,455.0469 Q207.5313,453.7188 208.1406,452.5781 Q208.7656,451.4219 209.8594,450.8125 Q210.9531,450.1875 212.1875,450.1875 Q212.9219,450.1875 213.5625,450.3594 Q214.2188,450.5156 214.7656,450.875 Z " fill="#000000"/><text fill="#000000" font-family="sans-serif" font-size="14" lengthAdjust="spacing" textLength="78" x="226" y="460.7969">Collaborator</text><line style="stroke:#181818;stroke-width:0.5;" x1="198" x2="306" y1="471" y2="471"/><line style="stroke:#181818;stroke-width:0.5;" x1="198" x2="306" y1="479" y2="479"/></g><!--class JobRepository--><g id="elem_JobRepository"><rect codeLine="27" fill="#F1F1F1" height="48" id="JobRepository" rx="2.5" ry="2.5" style="stroke:#181818;stroke-width:0.5;" width="122" x="220" y="331"/><ellipse cx="235" cy="347" fill="#ADD1B2" rx="11" ry="11" style="stroke:#181818;stroke-width:1.0;"/><path d="M237.7656,342.875 Q237.9219,342.6563 238.1094,342.5469 Q238.2969,342.4375 238.5156,342.4375 Q238.8906,342.4375 239.125,342.7031 Q239.3594,342.9531 239.3594,343.5625 L239.3594,345.0156 Q239.3594,345.625 239.125,345.8906 Q238.8906,346.1563 238.5156,346.1563 Q238.1719,346.1563 237.9688,345.9531 Q237.7656,345.7656 237.6563,345.25 Q237.6094,344.8906 237.4219,344.7031 Q237.0938,344.3281 236.4844,344.1094 Q235.875,343.8906 235.25,343.8906 Q234.4844,343.8906 233.8438,344.2188 Q233.2188,344.5469 232.7188,345.2969 Q232.2344,346.0469 232.2344,347.0781 L232.2344,348.1719 Q232.2344,349.4063 233.125,350.2344 Q234.0156,351.0469 235.6094,351.0469 Q236.5469,351.0469 237.2031,350.7969 Q237.5938,350.6406 238.0156,350.2031 Q238.2813,349.9375 238.4219,349.8594 Q238.5781,349.7813 238.7813,349.7813 Q239.1094,349.7813 239.3594,350.0469 Q239.625,350.2969 239.625,350.6406 Q239.625,350.9844 239.2813,351.3906 Q238.7813,351.9688 237.9844,352.2969 Q236.9063,352.75 235.6094,352.75 Q234.0938,352.75 232.8906,352.125 Q231.9063,351.625 231.2188,350.5625 Q230.5313,349.4844 230.5313,348.2031 L230.5313,347.0469 Q230.5313,345.7188 231.1406,344.5781 Q231.7656,343.4219 232.8594,342.8125 Q233.9531,342.1875 235.1875,342.1875 Q235.9219,342.1875 236.5625,342.3594 Q237.2188,342.5156 237.7656,342.875 Z " fill="#000000"/><text fill="#000000" font-family="sans-serif" font-size="14" lengthAdjust="spacing" textLength="90" x="249" y="352.7969">JobRepository</text><line style="stroke:#181818;stroke-width:0.5;" x1="221" x2="341" y1="363" y2="363"/><line style="stroke:#181818;stroke-width:0.5;" x1="221" x2="341" y1="371" y2="371"/></g><!--class HRM--><g id="elem_HRM"><rect codeLine="31" fill="#F1F1F1" height="48" id="HRM" rx="2.5" ry="2.5" style="stroke:#181818;stroke-width:0.5;" width="62" x="377" y="331"/><ellipse cx="392" cy="347" fill="#ADD1B2" rx="11" ry="11" style="stroke:#181818;stroke-width:1.0;"/><path d="M394.7656,342.875 Q394.9219,342.6563 395.1094,342.5469 Q395.2969,342.4375 395.5156,342.4375 Q395.8906,342.4375 396.125,342.7031 Q396.3594,342.9531 396.3594,343.5625 L396.3594,345.0156 Q396.3594,345.625 396.125,345.8906 Q395.8906,346.1563 395.5156,346.1563 Q395.1719,346.1563 394.9688,345.9531 Q394.7656,345.7656 394.6563,345.25 Q394.6094,344.8906 394.4219,344.7031 Q394.0938,344.3281 393.4844,344.1094 Q392.875,343.8906 392.25,343.8906 Q391.4844,343.8906 390.8438,344.2188 Q390.2188,344.5469 389.7188,345.2969 Q389.2344,346.0469 389.2344,347.0781 L389.2344,348.1719 Q389.2344,349.4063 390.125,350.2344 Q391.0156,351.0469 392.6094,351.0469 Q393.5469,351.0469 394.2031,350.7969 Q394.5938,350.6406 395.0156,350.2031 Q395.2813,349.9375 395.4219,349.8594 Q395.5781,349.7813 395.7813,349.7813 Q396.1094,349.7813 396.3594,350.0469 Q396.625,350.2969 396.625,350.6406 Q396.625,350.9844 396.2813,351.3906 Q395.7813,351.9688 394.9844,352.2969 Q393.9063,352.75 392.6094,352.75 Q391.0938,352.75 389.8906,352.125 Q388.9063,351.625 388.2188,350.5625 Q387.5313,349.4844 387.5313,348.2031 L387.5313,347.0469 Q387.5313,345.7188 388.1406,344.5781 Q388.7656,343.4219 389.8594,342.8125 Q390.9531,342.1875 392.1875,342.1875 Q392.9219,342.1875 393.5625,342.3594 Q394.2188,342.5156 394.7656,342.875 Z " fill="#000000"/><text fill="#000000" font-family="sans-serif" font-size="14" lengthAdjust="spacing" textLength="30" x="406" y="352.7969">HRM</text><line style="stroke:#181818;stroke-width:0.5;" x1="378" x2="438" y1="363" y2="363"/><line style="stroke:#181818;stroke-width:0.5;" x1="378" x2="438" y1="371" y2="371"/></g><!--class Repositories--><g id="elem_Repositories"><rect codeLine="35" fill="#F1F1F1" height="48" id="Repositories" rx="2.5" ry="2.5" style="stroke:#181818;stroke-width:0.5;" width="111" x="149.5" y="223"/><ellipse cx="164.5" cy="239" fill="#ADD1B2" rx="11" ry="11" style="stroke:#181818;stroke-width:1.0;"/><path d="M167.2656,234.875 Q167.4219,234.6563 167.6094,234.5469 Q167.7969,234.4375 168.0156,234.4375 Q168.3906,234.4375 168.625,234.7031 Q168.8594,234.9531 168.8594,235.5625 L168.8594,237.0156 Q168.8594,237.625 168.625,237.8906 Q168.3906,238.1563 168.0156,238.1563 Q167.6719,238.1563 167.4688,237.9531 Q167.2656,237.7656 167.1563,237.25 Q167.1094,236.8906 166.9219,236.7031 Q166.5938,236.3281 165.9844,236.1094 Q165.375,235.8906 164.75,235.8906 Q163.9844,235.8906 163.3438,236.2188 Q162.7188,236.5469 162.2188,237.2969 Q161.7344,238.0469 161.7344,239.0781 L161.7344,240.1719 Q161.7344,241.4063 162.625,242.2344 Q163.5156,243.0469 165.1094,243.0469 Q166.0469,243.0469 166.7031,242.7969 Q167.0938,242.6406 167.5156,242.2031 Q167.7813,241.9375 167.9219,241.8594 Q168.0781,241.7813 168.2813,241.7813 Q168.6094,241.7813 168.8594,242.0469 Q169.125,242.2969 169.125,242.6406 Q169.125,242.9844 168.7813,243.3906 Q168.2813,243.9688 167.4844,244.2969 Q166.4063,244.75 165.1094,244.75 Q163.5938,244.75 162.3906,244.125 Q161.4063,243.625 160.7188,242.5625 Q160.0313,241.4844 160.0313,240.2031 L160.0313,239.0469 Q160.0313,237.7188 160.6406,236.5781 Q161.2656,235.4219 162.3594,234.8125 Q163.4531,234.1875 164.6875,234.1875 Q165.4219,234.1875 166.0625,234.3594 Q166.7188,234.5156 167.2656,234.875 Z " fill="#000000"/><text fill="#000000" font-family="sans-serif" font-size="14" lengthAdjust="spacing" textLength="79" x="178.5" y="244.7969">Repositories</text><line style="stroke:#181818;stroke-width:0.5;" x1="150.5" x2="259.5" y1="255" y2="255"/><line style="stroke:#181818;stroke-width:0.5;" x1="150.5" x2="259.5" y1="263" y2="263"/></g><!--link RegisterCollaboratorUI to RegisterCollaboratorControlller--><g id="link_RegisterCollaboratorUI_RegisterCollaboratorControlller"><path codeLine="39" d="M150,55 C150,72.66 150,90.94 150,108.68 " fill="none" id="RegisterCollaboratorUI-to-RegisterCollaboratorControlller" style="stroke:#181818;stroke-width:1.0;stroke-dasharray:7.0,7.0;"/><polygon fill="#181818" points="150,114.68,154,105.68,150,109.68,146,105.68,150,114.68" style="stroke:#181818;stroke-width:1.0;"/></g><!--link RegisterCollaboratorControlller to Repositories--><g id="link_RegisterCollaboratorControlller_Repositories"><path codeLine="40" d="M161.93,163 C171.1,180.66 180.9377,199.6137 190.1377,217.3537 " fill="none" id="RegisterCollaboratorControlller-to-Repositories" style="stroke:#181818;stroke-width:1.0;stroke-dasharray:7.0,7.0;"/><polygon fill="#181818" points="192.9,222.68,192.3075,212.849,190.5981,218.2414,185.2057,216.532,192.9,222.68" style="stroke:#181818;stroke-width:1.0;"/></g><!--link RegisterCollaboratorControlller to CollaboratorRepository--><g id="link_RegisterCollaboratorControlller_CollaboratorRepository"><path codeLine="41" d="M144.12,163.31 C133.73,204.47 113.7292,283.7627 103.3392,324.9027 " fill="none" id="RegisterCollaboratorControlller-to-CollaboratorRepository" style="stroke:#181818;stroke-width:1.0;stroke-dasharray:7.0,7.0;"/><polygon fill="#181818" points="101.87,330.72,107.952,322.9734,103.0943,325.8722,100.1955,321.0145,101.87,330.72" style="stroke:#181818;stroke-width:1.0;"/></g><!--link CollaboratorRepository to Collaborator--><g id="link_CollaboratorRepository_Collaborator"><path codeLine="42" d="M129.85,379 C155.93,396.72 186.8568,417.7385 212.9868,435.4885 " fill="none" id="CollaboratorRepository-to-Collaborator" style="stroke:#181818;stroke-width:1.0;"/><polygon fill="#181818" points="217.95,438.86,212.7529,430.494,213.814,436.0504,208.2576,437.1116,217.95,438.86" style="stroke:#181818;stroke-width:1.0;"/></g><!--link HRM to Collaborator--><g id="link_HRM_Collaborator"><path codeLine="43" d="M376.81,377.2 C350.58,395.02 318.1027,417.0878 291.0827,435.4478 " fill="none" id="HRM-to-Collaborator" style="stroke:#181818;stroke-width:1.0;"/><polygon fill="#181818" points="286.12,438.82,295.8122,437.0703,290.2556,436.0099,291.316,430.4533,286.12,438.82" style="stroke:#181818;stroke-width:1.0;"/></g><!--link Repositories to CollaboratorRepository--><g id="link_Repositories_CollaboratorRepository"><path codeLine="44" d="M181.35,271 C163.19,288.66 142.5212,308.7567 124.2812,326.4967 " fill="none" id="Repositories-to-CollaboratorRepository" style="stroke:#181818;stroke-width:1.0;"/><polygon fill="#181818" points="119.98,330.68,129.2206,327.2725,123.5643,327.1939,123.6429,321.5376,119.98,330.68" style="stroke:#181818;stroke-width:1.0;"/></g><!--link Repositories to JobRepository--><g id="link_Repositories_JobRepository"><path codeLine="45" d="M221.49,271 C234.15,288.66 248.0637,308.0639 260.7837,325.8039 " fill="none" id="Repositories-to-JobRepository" style="stroke:#181818;stroke-width:1.0;"/><polygon fill="#181818" points="264.28,330.68,262.2863,321.035,261.3664,326.6166,255.7849,325.6967,264.28,330.68" style="stroke:#181818;stroke-width:1.0;"/></g><!--SRC=[ZP31JiCm38RlVWhVUjh44o2XNHWIbquyG9fvgRKqhXnFg23UdHKcBTrMnYtE__ssVrTvpwbtwZhi98blLJf2qmF1MUcTtxj06niYeP8tbq8iWTowhRnp2hXpCPTAv4Gsz8Izn64ieBeXYff0uVBHvVnafjmSZDPUqeO_21y0gaWxGnDK3gtXbiTrM1B0ZmTh2foDT2KnkaRKcUZR6Zy1llv2Lf9CZtKadR0bKrClcO-FOHQP22_Ip5YUwzUBZKuOKpu9CpcMoyTx-yEzVByzpXF_PRXz29Yvps8nTS2O-Efp4ljIBOPSSPFBmZS0]--></g></svg>