<?xml version="1.0" encoding="us-ascii" standalone="no"?><svg xmlns="http://www.w3.org/2000/svg" xmlns:xlink="http://www.w3.org/1999/xlink" contentStyleType="text/css" height="291.9px" preserveAspectRatio="none" style="width:405px;height:291px;background:#FFFFFF;" version="1.1" viewBox="0 0 405 291" width="405.3px" zoomAndPan="magnify"><defs/><g><rect fill="#FFFFFF" height="176.6297" style="stroke:#181818;stroke-width:0.6999999999999998;" width="7" x="85.4" y="63.3732"/><rect fill="#FFFFFF" height="21.9037" style="stroke:#181818;stroke-width:0.6999999999999998;" width="7" x="201.25" y="103.6807"/><rect fill="#FFFFFF" height="21.9037" style="stroke:#181818;stroke-width:0.6999999999999998;" width="7" x="276.15" y="147.4881"/><rect fill="#FFFFFF" height="21.9037" style="stroke:#181818;stroke-width:0.6999999999999998;" width="7" x="353.85" y="191.2955"/><rect fill="none" height="144.926" style="stroke:#000000;stroke-width:1.0499999999999998;" width="394.1" x="7" y="73.8732"/><line style="stroke:#181818;stroke-width:0.3499999999999999;stroke-dasharray:5.0,5.0;" x1="88.9" x2="88.9" y1="40.0695" y2="252.6029"/><line style="stroke:#181818;stroke-width:0.3499999999999999;stroke-dasharray:5.0,5.0;" x1="204.4" x2="204.4" y1="40.0695" y2="252.6029"/><line style="stroke:#181818;stroke-width:0.3499999999999999;stroke-dasharray:5.0,5.0;" x1="279.3" x2="279.3" y1="40.0695" y2="252.6029"/><line style="stroke:#181818;stroke-width:0.3499999999999999;stroke-dasharray:5.0,5.0;" x1="357" x2="357" y1="40.0695" y2="252.6029"/><rect fill="#E3E3E3" height="22.8348" rx="1.75" ry="1.75" style="stroke:#181818;stroke-width:0.3499999999999999;" width="149.8" x="14" y="16.5348"/><text fill="#000000" font-family="sans-serif" font-size="9.8" lengthAdjust="spacing" textLength="140" x="18.9" y="32.01">:RegisterCollaboratorControlller</text><rect fill="#E3E3E3" height="22.8348" rx="1.75" ry="1.75" style="stroke:#181818;stroke-width:0.3499999999999999;" width="149.8" x="14" y="251.9029"/><text fill="#000000" font-family="sans-serif" font-size="9.8" lengthAdjust="spacing" textLength="140" x="18.9" y="267.3781">:RegisterCollaboratorControlller</text><rect fill="#E3E3E3" height="22.8348" rx="1.75" ry="1.75" style="stroke:#181818;stroke-width:0.3499999999999999;" width="67.9" x="170.8" y="16.5348"/><text fill="#000000" font-family="sans-serif" font-size="9.8" lengthAdjust="spacing" textLength="58.1" x="175.7" y="32.01">:Repositories</text><rect fill="#E3E3E3" height="22.8348" rx="1.75" ry="1.75" style="stroke:#181818;stroke-width:0.3499999999999999;" width="67.9" x="170.8" y="251.9029"/><text fill="#000000" font-family="sans-serif" font-size="9.8" lengthAdjust="spacing" textLength="58.1" x="175.7" y="267.3781">:Repositories</text><rect fill="#E3E3E3" height="35.8695" rx="1.75" ry="1.75" style="stroke:#181818;stroke-width:0.3499999999999999;" width="67.9" x="245.7" y="3.5"/><text fill="#000000" font-family="sans-serif" font-size="9.8" lengthAdjust="spacing" textLength="51.8" x="253.75" y="18.9752">repositories</text><text fill="#000000" font-family="sans-serif" font-size="9.8" lengthAdjust="spacing" textLength="58.1" x="250.6" y="32.01">:Repositories</text><rect fill="#E3E3E3" height="35.8695" rx="1.75" ry="1.75" style="stroke:#181818;stroke-width:0.3499999999999999;" width="67.9" x="245.7" y="251.9029"/><text fill="#000000" font-family="sans-serif" font-size="9.8" lengthAdjust="spacing" textLength="51.8" x="253.75" y="267.3781">repositories</text><text fill="#000000" font-family="sans-serif" font-size="9.8" lengthAdjust="spacing" textLength="58.1" x="250.6" y="280.4129">:Repositories</text><rect fill="#E3E3E3" height="35.8695" rx="1.75" ry="1.75" style="stroke:#181818;stroke-width:0.3499999999999999;" width="73.5" x="320.6" y="3.5"/><text fill="#000000" font-family="sans-serif" font-size="9.8" lengthAdjust="spacing" textLength="63.7" x="325.5" y="18.9752">jobRepository:</text><text fill="#000000" font-family="sans-serif" font-size="9.8" lengthAdjust="spacing" textLength="60.9" x="326.9" y="32.01">jobRepository</text><rect fill="#E3E3E3" height="35.8695" rx="1.75" ry="1.75" style="stroke:#181818;stroke-width:0.3499999999999999;" width="73.5" x="320.6" y="251.9029"/><text fill="#000000" font-family="sans-serif" font-size="9.8" lengthAdjust="spacing" textLength="63.7" x="325.5" y="267.3781">jobRepository:</text><text fill="#000000" font-family="sans-serif" font-size="9.8" lengthAdjust="spacing" textLength="60.9" x="326.9" y="280.4129">jobRepository</text><rect fill="#FFFFFF" height="176.6297" style="stroke:#181818;stroke-width:0.6999999999999998;" width="7" x="85.4" y="63.3732"/><rect fill="#FFFFFF" height="21.9037" style="stroke:#181818;stroke-width:0.6999999999999998;" width="7" x="201.25" y="103.6807"/><rect fill="#FFFFFF" height="21.9037" style="stroke:#181818;stroke-width:0.6999999999999998;" width="7" x="276.15" y="147.4881"/><rect fill="#FFFFFF" height="21.9037" style="stroke:#181818;stroke-width:0.6999999999999998;" width="7" x="353.85" y="191.2955"/><polygon fill="#181818" points="77,60.5732,84,63.3732,77,66.1732,79.8,63.3732" style="stroke:#181818;stroke-width:0.6999999999999998;"/><line style="stroke:#181818;stroke-width:0.6999999999999998;" x1="0" x2="81.2" y1="63.3732" y2="63.3732"/><text fill="#000000" font-family="sans-serif" font-size="9.1" font-weight="bold" lengthAdjust="spacing" textLength="4.9" x="4.9" y="59.6894">3</text><text fill="#000000" font-family="sans-serif" font-size="9.1" lengthAdjust="spacing" textLength="37.1" x="12.6" y="59.6894">getJobs()</text><path d="M7,73.8732 L95.2,73.8732 L95.2,80.377 L88.2,87.377 L7,87.377 L7,73.8732 " fill="#EEEEEE" style="stroke:#000000;stroke-width:1.0499999999999998;"/><rect fill="none" height="144.926" style="stroke:#000000;stroke-width:1.0499999999999998;" width="394.1" x="7" y="73.8732"/><text fill="#000000" font-family="sans-serif" font-size="9.1" font-weight="bold" lengthAdjust="spacing" textLength="56.7" x="17.5" y="84.3931">Get Jobs List</text><polygon fill="#181818" points="192.85,100.8807,199.85,103.6807,192.85,106.4807,195.65,103.6807" style="stroke:#181818;stroke-width:0.6999999999999998;"/><line style="stroke:#181818;stroke-width:0.6999999999999998;" x1="92.4" x2="197.05" y1="103.6807" y2="103.6807"/><text fill="#000000" font-family="sans-serif" font-size="9.1" font-weight="bold" lengthAdjust="spacing" textLength="12.6" x="97.3" y="99.9968">3.1</text><text fill="#000000" font-family="sans-serif" font-size="9.1" lengthAdjust="spacing" textLength="52.5" x="112.7" y="99.9968">getInstance()</text><polygon fill="#181818" points="100.1,122.7844,93.1,125.5844,100.1,128.3844,97.3,125.5844" style="stroke:#181818;stroke-width:0.6999999999999998;"/><line style="stroke:#181818;stroke-width:0.6999999999999998;stroke-dasharray:2.0,2.0;" x1="95.9" x2="204.05" y1="125.5844" y2="125.5844"/><text fill="#000000" font-family="sans-serif" font-size="9.1" font-weight="bold" lengthAdjust="spacing" textLength="12.6" x="104.3" y="121.9005">3.2</text><text fill="#000000" font-family="sans-serif" font-size="9.1" lengthAdjust="spacing" textLength="46.9" x="119.7" y="121.9005">repositories</text><polygon fill="#181818" points="267.75,144.6881,274.75,147.4881,267.75,150.2881,270.55,147.4881" style="stroke:#181818;stroke-width:0.6999999999999998;"/><line style="stroke:#181818;stroke-width:0.6999999999999998;" x1="92.4" x2="271.95" y1="147.4881" y2="147.4881"/><text fill="#000000" font-family="sans-serif" font-size="9.1" font-weight="bold" lengthAdjust="spacing" textLength="12.6" x="97.3" y="143.8042">3.3</text><text fill="#000000" font-family="sans-serif" font-size="9.1" lengthAdjust="spacing" textLength="75.6" x="112.7" y="143.8042">getJobRepository()</text><polygon fill="#181818" points="100.1,166.5918,93.1,169.3918,100.1,172.1918,97.3,169.3918" style="stroke:#181818;stroke-width:0.6999999999999998;"/><line style="stroke:#181818;stroke-width:0.6999999999999998;stroke-dasharray:2.0,2.0;" x1="95.9" x2="278.95" y1="169.3918" y2="169.3918"/><text fill="#000000" font-family="sans-serif" font-size="9.1" font-weight="bold" lengthAdjust="spacing" textLength="12.6" x="104.3" y="165.7079">3.4</text><text fill="#000000" font-family="sans-serif" font-size="9.1" lengthAdjust="spacing" textLength="57.4" x="119.7" y="165.7079">JobRepository</text><polygon fill="#181818" points="345.45,188.4955,352.45,191.2955,345.45,194.0955,348.25,191.2955" style="stroke:#181818;stroke-width:0.6999999999999998;"/><line style="stroke:#181818;stroke-width:0.6999999999999998;" x1="92.4" x2="349.65" y1="191.2955" y2="191.2955"/><text fill="#000000" font-family="sans-serif" font-size="9.1" font-weight="bold" lengthAdjust="spacing" textLength="12.6" x="97.3" y="187.6116">3.5</text><text fill="#000000" font-family="sans-serif" font-size="9.1" lengthAdjust="spacing" textLength="51.8" x="112.7" y="187.6116">getJobsList()</text><polygon fill="#181818" points="100.1,210.3992,93.1,213.1992,100.1,215.9992,97.3,213.1992" style="stroke:#181818;stroke-width:0.6999999999999998;"/><line style="stroke:#181818;stroke-width:0.6999999999999998;stroke-dasharray:2.0,2.0;" x1="95.9" x2="356.65" y1="213.1992" y2="213.1992"/><text fill="#000000" font-family="sans-serif" font-size="9.1" font-weight="bold" lengthAdjust="spacing" textLength="12.6" x="104.3" y="209.5153">3.6</text><text fill="#000000" font-family="sans-serif" font-size="9.1" lengthAdjust="spacing" textLength="33.6" x="119.7" y="209.5153">JobsList</text><polygon fill="#181818" points="7.7,237.2029,0.7,240.0029,7.7,242.8029,4.9,240.0029" style="stroke:#181818;stroke-width:0.6999999999999998;"/><line style="stroke:#181818;stroke-width:0.6999999999999998;stroke-dasharray:2.0,2.0;" x1="3.5" x2="88.2" y1="240.0029" y2="240.0029"/><text fill="#000000" font-family="sans-serif" font-size="9.1" font-weight="bold" lengthAdjust="spacing" textLength="4.9" x="11.9" y="236.319">4</text><text fill="#000000" font-family="sans-serif" font-size="9.1" lengthAdjust="spacing" textLength="33.6" x="19.6" y="236.319">JobsList</text><!--SRC=[VP8_JyCm4CLtVufJ5s084e8fGYmLGg0Eg67iSacEr3JnHVO5wBV7SMcmwPyiYNtlFVty7BVHfaUB7NHik5fRxWZ43gJSDEcnsc13XMnR0akLe6dQME3MMFENDWsyO-j8AHo4pT2LP9MwMEkQu9rPIlvMoZj4Lxf78p3BbzHe9sJdtBPOiaLX_st4-dLBTWReOFwsN1pOUdRQQpMve5a-lgOI6obMvgYXI1qVN4wgRRuooJfuaftua72h56GFWHHoQ4XUk7INLuda-aPX9VeJXNP70lyqbeSUdaXWTC32bw72OF-4I1_jUNV9pyRv_YlowR5kYXwRI2QZC_k5oo7k9P7LT3eYWYYcy_rLSGQbE60f8fWavGnDSHmdlR5zxME7fuZ-tM2iIKOJ8mJ8a7cAxqWccJgye-k_2nltMRQBZNEZhF1V_000]--></g></svg>