<?xml version="1.0" encoding="us-ascii" standalone="no"?><svg xmlns="http://www.w3.org/2000/svg" xmlns:xlink="http://www.w3.org/1999/xlink" contentStyleType="text/css" height="856px" preserveAspectRatio="none" style="width:803px;height:856px;background:#FFFFFF;" version="1.1" viewBox="0 0 803 856" width="803.2px" zoomAndPan="magnify"><defs/><g><!--class RegisterCollaboratorUI--><g id="elem_RegisterCollaboratorUI"><rect codeLine="11" fill="#F1F1F1" height="38.4" id="RegisterCollaboratorUI" rx="2" ry="2" style="stroke:#181818;stroke-width:0.4000000000000001;" width="140" x="425.6" y="20.4"/><ellipse cx="437.6" cy="33.2" fill="#ADD1B2" rx="8.8" ry="8.8" style="stroke:#181818;stroke-width:0.8000000000000002;"/><path d="M439.8125,29.9 Q439.9375,29.725 440.0875,29.6375 Q440.2375,29.55 440.4125,29.55 Q440.7125,29.55 440.9,29.7625 Q441.0875,29.9625 441.0875,30.45 L441.0875,31.6125 Q441.0875,32.1 440.9,32.3125 Q440.7125,32.525 440.4125,32.525 Q440.1375,32.525 439.975,32.3625 Q439.8125,32.2125 439.725,31.8 Q439.6875,31.5125 439.5375,31.3625 Q439.275,31.0625 438.7875,30.8875 Q438.3,30.7125 437.8,30.7125 Q437.1875,30.7125 436.675,30.975 Q436.175,31.2375 435.775,31.8375 Q435.3875,32.4375 435.3875,33.2625 L435.3875,34.1375 Q435.3875,35.125 436.1,35.7875 Q436.8125,36.4375 438.0875,36.4375 Q438.8375,36.4375 439.3625,36.2375 Q439.675,36.1125 440.0125,35.7625 Q440.225,35.55 440.3375,35.4875 Q440.4625,35.425 440.625,35.425 Q440.8875,35.425 441.0875,35.6375 Q441.3,35.8375 441.3,36.1125 Q441.3,36.3875 441.025,36.7125 Q440.625,37.175 439.9875,37.4375 Q439.125,37.8 438.0875,37.8 Q436.875,37.8 435.9125,37.3 Q435.125,36.9 434.575,36.05 Q434.025,35.1875 434.025,34.1625 L434.025,33.2375 Q434.025,32.175 434.5125,31.2625 Q435.0125,30.3375 435.8875,29.85 Q436.7625,29.35 437.75,29.35 Q438.3375,29.35 438.85,29.4875 Q439.375,29.6125 439.8125,29.9 Z " fill="#000000"/><text fill="#000000" font-family="sans-serif" font-size="11.2" lengthAdjust="spacing" textLength="114.4" x="448.8" y="37.8375">RegisterCollaboratorUI</text><line style="stroke:#181818;stroke-width:0.4000000000000001;" x1="426.4" x2="564.8" y1="46" y2="46"/><line style="stroke:#181818;stroke-width:0.4000000000000001;" x1="426.4" x2="564.8" y1="52.4" y2="52.4"/></g><!--class RegisterCollaboratorController--><g id="elem_RegisterCollaboratorController"><rect codeLine="14" fill="#F1F1F1" height="97.9875" id="RegisterCollaboratorController" rx="2" ry="2" style="stroke:#181818;stroke-width:0.4000000000000001;" width="604" x="193.6" y="122.4"/><ellipse cx="415" cy="135.2" fill="#ADD1B2" rx="8.8" ry="8.8" style="stroke:#181818;stroke-width:0.8000000000000002;"/><path d="M417.2125,131.9 Q417.3375,131.725 417.4875,131.6375 Q417.6375,131.55 417.8125,131.55 Q418.1125,131.55 418.3,131.7625 Q418.4875,131.9625 418.4875,132.45 L418.4875,133.6125 Q418.4875,134.1 418.3,134.3125 Q418.1125,134.525 417.8125,134.525 Q417.5375,134.525 417.375,134.3625 Q417.2125,134.2125 417.125,133.8 Q417.0875,133.5125 416.9375,133.3625 Q416.675,133.0625 416.1875,132.8875 Q415.7,132.7125 415.2,132.7125 Q414.5875,132.7125 414.075,132.975 Q413.575,133.2375 413.175,133.8375 Q412.7875,134.4375 412.7875,135.2625 L412.7875,136.1375 Q412.7875,137.125 413.5,137.7875 Q414.2125,138.4375 415.4875,138.4375 Q416.2375,138.4375 416.7625,138.2375 Q417.075,138.1125 417.4125,137.7625 Q417.625,137.55 417.7375,137.4875 Q417.8625,137.425 418.025,137.425 Q418.2875,137.425 418.4875,137.6375 Q418.7,137.8375 418.7,138.1125 Q418.7,138.3875 418.425,138.7125 Q418.025,139.175 417.3875,139.4375 Q416.525,139.8 415.4875,139.8 Q414.275,139.8 413.3125,139.3 Q412.525,138.9 411.975,138.05 Q411.425,137.1875 411.425,136.1625 L411.425,135.2375 Q411.425,134.175 411.9125,133.2625 Q412.4125,132.3375 413.2875,131.85 Q414.1625,131.35 415.15,131.35 Q415.7375,131.35 416.25,131.4875 Q416.775,131.6125 417.2125,131.9 Z " fill="#000000"/><text fill="#000000" font-family="sans-serif" font-size="11.2" lengthAdjust="spacing" textLength="154.4" x="431.4" y="139.8375">RegisterCollaboratorController</text><line style="stroke:#181818;stroke-width:0.4000000000000001;" x1="194.4" x2="796.8" y1="148" y2="148"/><line style="stroke:#181818;stroke-width:0.4000000000000001;" x1="194.4" x2="796.8" y1="154.4" y2="154.4"/><text fill="#000000" font-family="sans-serif" font-size="11.2" lengthAdjust="spacing" textLength="359.2" x="198.4" y="169.6859">+RegisterCollaboratorController(collaboratorRepository, jobRepository)</text><text fill="#000000" font-family="sans-serif" font-size="11.2" lengthAdjust="spacing" textLength="594.4" x="198.4" y="184.5828">+registerCollaborator(name, birthday, admissionDate, address, phoneNumber, email, idDocType, idNumber, jobName)</text><text fill="#000000" font-family="sans-serif" font-size="11.2" lengthAdjust="spacing" textLength="131.2" x="198.4" y="199.4797">-getJobByName(jobName)</text><text fill="#000000" font-family="sans-serif" font-size="11.2" lengthAdjust="spacing" textLength="71.2" x="198.4" y="214.3766">+getJobsList()</text></g><!--class CollaboratorRepository--><g id="elem_CollaboratorRepository"><rect codeLine="21" fill="#F1F1F1" height="83.0906" id="CollaboratorRepository" rx="2" ry="2" style="stroke:#181818;stroke-width:0.4000000000000001;" width="575.2" x="5.6" y="429.6"/><ellipse cx="231.4" cy="442.4" fill="#ADD1B2" rx="8.8" ry="8.8" style="stroke:#181818;stroke-width:0.8000000000000002;"/><path d="M233.6125,439.1 Q233.7375,438.925 233.8875,438.8375 Q234.0375,438.75 234.2125,438.75 Q234.5125,438.75 234.7,438.9625 Q234.8875,439.1625 234.8875,439.65 L234.8875,440.8125 Q234.8875,441.3 234.7,441.5125 Q234.5125,441.725 234.2125,441.725 Q233.9375,441.725 233.775,441.5625 Q233.6125,441.4125 233.525,441 Q233.4875,440.7125 233.3375,440.5625 Q233.075,440.2625 232.5875,440.0875 Q232.1,439.9125 231.6,439.9125 Q230.9875,439.9125 230.475,440.175 Q229.975,440.4375 229.575,441.0375 Q229.1875,441.6375 229.1875,442.4625 L229.1875,443.3375 Q229.1875,444.325 229.9,444.9875 Q230.6125,445.6375 231.8875,445.6375 Q232.6375,445.6375 233.1625,445.4375 Q233.475,445.3125 233.8125,444.9625 Q234.025,444.75 234.1375,444.6875 Q234.2625,444.625 234.425,444.625 Q234.6875,444.625 234.8875,444.8375 Q235.1,445.0375 235.1,445.3125 Q235.1,445.5875 234.825,445.9125 Q234.425,446.375 233.7875,446.6375 Q232.925,447 231.8875,447 Q230.675,447 229.7125,446.5 Q228.925,446.1 228.375,445.25 Q227.825,444.3875 227.825,443.3625 L227.825,442.4375 Q227.825,441.375 228.3125,440.4625 Q228.8125,439.5375 229.6875,439.05 Q230.5625,438.55 231.55,438.55 Q232.1375,438.55 232.65,438.6875 Q233.175,438.8125 233.6125,439.1 Z " fill="#000000"/><text fill="#000000" font-family="sans-serif" font-size="11.2" lengthAdjust="spacing" textLength="116.8" x="247.8" y="447.0375">CollaboratorRepository</text><line style="stroke:#181818;stroke-width:0.4000000000000001;" x1="6.4" x2="580" y1="455.2" y2="455.2"/><line style="stroke:#181818;stroke-width:0.4000000000000001;" x1="6.4" x2="580" y1="461.6" y2="461.6"/><text fill="#000000" font-family="sans-serif" font-size="11.2" lengthAdjust="spacing" textLength="153.6" x="10.4" y="476.8859">-addCollaborator(collaborator)</text><text fill="#000000" font-family="sans-serif" font-size="11.2" lengthAdjust="spacing" textLength="173.6" x="10.4" y="491.7828">-validateCollaborator(collaborator)</text><text fill="#000000" font-family="sans-serif" font-size="11.2" lengthAdjust="spacing" textLength="565.6" x="10.4" y="506.6797">+registerCollaborator(name, birthday, admissionDate, address, phoneNumber, email, idDocType, idNumber, job)</text></g><!--class Collaborator--><g id="elem_Collaborator"><rect codeLine="27" fill="#F1F1F1" height="157.575" id="Collaborator" rx="2" ry="2" style="stroke:#181818;stroke-width:0.4000000000000001;" width="536.8" x="84" y="561.6"/><ellipse cx="317.8" cy="574.4" fill="#ADD1B2" rx="8.8" ry="8.8" style="stroke:#181818;stroke-width:0.8000000000000002;"/><path d="M320.0125,571.1 Q320.1375,570.925 320.2875,570.8375 Q320.4375,570.75 320.6125,570.75 Q320.9125,570.75 321.1,570.9625 Q321.2875,571.1625 321.2875,571.65 L321.2875,572.8125 Q321.2875,573.3 321.1,573.5125 Q320.9125,573.725 320.6125,573.725 Q320.3375,573.725 320.175,573.5625 Q320.0125,573.4125 319.925,573 Q319.8875,572.7125 319.7375,572.5625 Q319.475,572.2625 318.9875,572.0875 Q318.5,571.9125 318,571.9125 Q317.3875,571.9125 316.875,572.175 Q316.375,572.4375 315.975,573.0375 Q315.5875,573.6375 315.5875,574.4625 L315.5875,575.3375 Q315.5875,576.325 316.3,576.9875 Q317.0125,577.6375 318.2875,577.6375 Q319.0375,577.6375 319.5625,577.4375 Q319.875,577.3125 320.2125,576.9625 Q320.425,576.75 320.5375,576.6875 Q320.6625,576.625 320.825,576.625 Q321.0875,576.625 321.2875,576.8375 Q321.5,577.0375 321.5,577.3125 Q321.5,577.5875 321.225,577.9125 Q320.825,578.375 320.1875,578.6375 Q319.325,579 318.2875,579 Q317.075,579 316.1125,578.5 Q315.325,578.1 314.775,577.25 Q314.225,576.3875 314.225,575.3625 L314.225,574.4375 Q314.225,573.375 314.7125,572.4625 Q315.2125,571.5375 316.0875,571.05 Q316.9625,570.55 317.95,570.55 Q318.5375,570.55 319.05,570.6875 Q319.575,570.8125 320.0125,571.1 Z " fill="#000000"/><text fill="#000000" font-family="sans-serif" font-size="11.2" lengthAdjust="spacing" textLength="62.4" x="334.2" y="579.0375">Collaborator</text><line style="stroke:#181818;stroke-width:0.4000000000000001;" x1="84.8" x2="620" y1="587.2" y2="587.2"/><text fill="#000000" font-family="sans-serif" font-size="11.2" lengthAdjust="spacing" textLength="64.8" x="88.8" y="602.4859">-String name</text><text fill="#000000" font-family="sans-serif" font-size="11.2" lengthAdjust="spacing" textLength="72" x="88.8" y="617.3828">-Date birthday</text><text fill="#000000" font-family="sans-serif" font-size="11.2" lengthAdjust="spacing" textLength="105.6" x="88.8" y="632.2797">-Date admissionDate</text><text fill="#000000" font-family="sans-serif" font-size="11.2" lengthAdjust="spacing" textLength="77.6" x="88.8" y="647.1766">-String address</text><text fill="#000000" font-family="sans-serif" font-size="11.2" lengthAdjust="spacing" textLength="90.4" x="88.8" y="662.0734">-int phoneNumber</text><text fill="#000000" font-family="sans-serif" font-size="11.2" lengthAdjust="spacing" textLength="63.2" x="88.8" y="676.9703">-String email</text><text fill="#000000" font-family="sans-serif" font-size="11.2" lengthAdjust="spacing" textLength="67.2" x="88.8" y="691.8672">-int idNumber</text><line style="stroke:#181818;stroke-width:0.4000000000000001;" x1="84.8" x2="620" y1="697.8781" y2="697.8781"/><text fill="#000000" font-family="sans-serif" font-size="11.2" lengthAdjust="spacing" textLength="527.2" x="88.8" y="713.1641">+Collaborator(name, birthday, admissionDate, address, phoneNumber, email, idDocType, idNumber, job)</text></g><!--class JobRepository--><g id="elem_JobRepository"><rect codeLine="38" fill="#F1F1F1" height="53.2969" id="JobRepository" rx="2" ry="2" style="stroke:#181818;stroke-width:0.4000000000000001;" width="148.8" x="609.2" y="444.4"/><ellipse cx="644.24" cy="457.2" fill="#ADD1B2" rx="8.8" ry="8.8" style="stroke:#181818;stroke-width:0.8000000000000002;"/><path d="M646.4525,453.9 Q646.5775,453.725 646.7275,453.6375 Q646.8775,453.55 647.0525,453.55 Q647.3525,453.55 647.54,453.7625 Q647.7275,453.9625 647.7275,454.45 L647.7275,455.6125 Q647.7275,456.1 647.54,456.3125 Q647.3525,456.525 647.0525,456.525 Q646.7775,456.525 646.615,456.3625 Q646.4525,456.2125 646.365,455.8 Q646.3275,455.5125 646.1775,455.3625 Q645.915,455.0625 645.4275,454.8875 Q644.94,454.7125 644.44,454.7125 Q643.8275,454.7125 643.315,454.975 Q642.815,455.2375 642.415,455.8375 Q642.0275,456.4375 642.0275,457.2625 L642.0275,458.1375 Q642.0275,459.125 642.74,459.7875 Q643.4525,460.4375 644.7275,460.4375 Q645.4775,460.4375 646.0025,460.2375 Q646.315,460.1125 646.6525,459.7625 Q646.865,459.55 646.9775,459.4875 Q647.1025,459.425 647.265,459.425 Q647.5275,459.425 647.7275,459.6375 Q647.94,459.8375 647.94,460.1125 Q647.94,460.3875 647.665,460.7125 Q647.265,461.175 646.6275,461.4375 Q645.765,461.8 644.7275,461.8 Q643.515,461.8 642.5525,461.3 Q641.765,460.9 641.215,460.05 Q640.665,459.1875 640.665,458.1625 L640.665,457.2375 Q640.665,456.175 641.1525,455.2625 Q641.6525,454.3375 642.5275,453.85 Q643.4025,453.35 644.39,453.35 Q644.9775,453.35 645.49,453.4875 Q646.015,453.6125 646.4525,453.9 Z " fill="#000000"/><text fill="#000000" font-family="sans-serif" font-size="11.2" lengthAdjust="spacing" textLength="72" x="660.56" y="461.8375">JobRepository</text><line style="stroke:#181818;stroke-width:0.4000000000000001;" x1="610" x2="757.2" y1="470" y2="470"/><line style="stroke:#181818;stroke-width:0.4000000000000001;" x1="610" x2="757.2" y1="476.4" y2="476.4"/><text fill="#000000" font-family="sans-serif" font-size="11.2" lengthAdjust="spacing" textLength="139.2" x="614" y="491.6859">+getJobsByName(jobName)</text></g><!--class Job--><g id="elem_Job"><rect codeLine="42" fill="#F1F1F1" height="68.1938" id="Job" rx="2" ry="2" style="stroke:#181818;stroke-width:0.4000000000000001;" width="74.4" x="556" y="775.6"/><ellipse cx="582.04" cy="788.4" fill="#ADD1B2" rx="8.8" ry="8.8" style="stroke:#181818;stroke-width:0.8000000000000002;"/><path d="M584.2525,785.1 Q584.3775,784.925 584.5275,784.8375 Q584.6775,784.75 584.8525,784.75 Q585.1525,784.75 585.34,784.9625 Q585.5275,785.1625 585.5275,785.65 L585.5275,786.8125 Q585.5275,787.3 585.34,787.5125 Q585.1525,787.725 584.8525,787.725 Q584.5775,787.725 584.415,787.5625 Q584.2525,787.4125 584.165,787 Q584.1275,786.7125 583.9775,786.5625 Q583.715,786.2625 583.2275,786.0875 Q582.74,785.9125 582.24,785.9125 Q581.6275,785.9125 581.115,786.175 Q580.615,786.4375 580.215,787.0375 Q579.8275,787.6375 579.8275,788.4625 L579.8275,789.3375 Q579.8275,790.325 580.54,790.9875 Q581.2525,791.6375 582.5275,791.6375 Q583.2775,791.6375 583.8025,791.4375 Q584.115,791.3125 584.4525,790.9625 Q584.665,790.75 584.7775,790.6875 Q584.9025,790.625 585.065,790.625 Q585.3275,790.625 585.5275,790.8375 Q585.74,791.0375 585.74,791.3125 Q585.74,791.5875 585.465,791.9125 Q585.065,792.375 584.4275,792.6375 Q583.565,793 582.5275,793 Q581.315,793 580.3525,792.5 Q579.565,792.1 579.015,791.25 Q578.465,790.3875 578.465,789.3625 L578.465,788.4375 Q578.465,787.375 578.9525,786.4625 Q579.4525,785.5375 580.3275,785.05 Q581.2025,784.55 582.19,784.55 Q582.7775,784.55 583.29,784.6875 Q583.815,784.8125 584.2525,785.1 Z " fill="#000000"/><text fill="#000000" font-family="sans-serif" font-size="11.2" lengthAdjust="spacing" textLength="17.6" x="596.36" y="793.0375">Job</text><line style="stroke:#181818;stroke-width:0.4000000000000001;" x1="556.8" x2="629.6" y1="801.2" y2="801.2"/><text fill="#000000" font-family="sans-serif" font-size="11.2" lengthAdjust="spacing" textLength="64.8" x="560.8" y="816.4859">-String name</text><line style="stroke:#181818;stroke-width:0.4000000000000001;" x1="556.8" x2="629.6" y1="822.4969" y2="822.4969"/><text fill="#000000" font-family="sans-serif" font-size="11.2" lengthAdjust="spacing" textLength="60" x="560.8" y="837.7828">+Job(name)</text></g><!--class HumanResourcesManager--><g id="elem_HumanResourcesManager"><rect codeLine="47" fill="#F1F1F1" height="68.1938" id="HumanResourcesManager" rx="2" ry="2" style="stroke:#181818;stroke-width:0.4000000000000001;" width="186.4" x="593.6" y="5.6"/><ellipse cx="617.48" cy="18.4" fill="#ADD1B2" rx="8.8" ry="8.8" style="stroke:#181818;stroke-width:0.8000000000000002;"/><path d="M619.6925,15.1 Q619.8175,14.925 619.9675,14.8375 Q620.1175,14.75 620.2925,14.75 Q620.5925,14.75 620.78,14.9625 Q620.9675,15.1625 620.9675,15.65 L620.9675,16.8125 Q620.9675,17.3 620.78,17.5125 Q620.5925,17.725 620.2925,17.725 Q620.0175,17.725 619.855,17.5625 Q619.6925,17.4125 619.605,17 Q619.5675,16.7125 619.4175,16.5625 Q619.155,16.2625 618.6675,16.0875 Q618.18,15.9125 617.68,15.9125 Q617.0675,15.9125 616.555,16.175 Q616.055,16.4375 615.655,17.0375 Q615.2675,17.6375 615.2675,18.4625 L615.2675,19.3375 Q615.2675,20.325 615.98,20.9875 Q616.6925,21.6375 617.9675,21.6375 Q618.7175,21.6375 619.2425,21.4375 Q619.555,21.3125 619.8925,20.9625 Q620.105,20.75 620.2175,20.6875 Q620.3425,20.625 620.505,20.625 Q620.7675,20.625 620.9675,20.8375 Q621.18,21.0375 621.18,21.3125 Q621.18,21.5875 620.905,21.9125 Q620.505,22.375 619.8675,22.6375 Q619.005,23 617.9675,23 Q616.755,23 615.7925,22.5 Q615.005,22.1 614.455,21.25 Q613.905,20.3875 613.905,19.3625 L613.905,18.4375 Q613.905,17.375 614.3925,16.4625 Q614.8925,15.5375 615.7675,15.05 Q616.6425,14.55 617.63,14.55 Q618.2175,14.55 618.73,14.6875 Q619.255,14.8125 619.6925,15.1 Z " fill="#000000"/><text fill="#000000" font-family="sans-serif" font-size="11.2" lengthAdjust="spacing" textLength="134.4" x="631.32" y="23.0375">HumanResourcesManager</text><line style="stroke:#181818;stroke-width:0.4000000000000001;" x1="594.4" x2="779.2" y1="31.2" y2="31.2"/><text fill="#000000" font-family="sans-serif" font-size="11.2" lengthAdjust="spacing" textLength="32" x="598.4" y="46.4859">-name</text><line style="stroke:#181818;stroke-width:0.4000000000000001;" x1="594.4" x2="779.2" y1="52.4969" y2="52.4969"/><text fill="#000000" font-family="sans-serif" font-size="11.2" lengthAdjust="spacing" textLength="176.8" x="598.4" y="67.7828">+HumanResourcesManager(name)</text></g><!--class Repositories--><g id="elem_Repositories"><rect codeLine="52" fill="#F1F1F1" height="97.9875" id="Repositories" rx="2" ry="2" style="stroke:#181818;stroke-width:0.4000000000000001;" width="156.8" x="417.2" y="283.2"/><ellipse cx="460.6" cy="296" fill="#ADD1B2" rx="8.8" ry="8.8" style="stroke:#181818;stroke-width:0.8000000000000002;"/><path d="M462.8125,292.7 Q462.9375,292.525 463.0875,292.4375 Q463.2375,292.35 463.4125,292.35 Q463.7125,292.35 463.9,292.5625 Q464.0875,292.7625 464.0875,293.25 L464.0875,294.4125 Q464.0875,294.9 463.9,295.1125 Q463.7125,295.325 463.4125,295.325 Q463.1375,295.325 462.975,295.1625 Q462.8125,295.0125 462.725,294.6 Q462.6875,294.3125 462.5375,294.1625 Q462.275,293.8625 461.7875,293.6875 Q461.3,293.5125 460.8,293.5125 Q460.1875,293.5125 459.675,293.775 Q459.175,294.0375 458.775,294.6375 Q458.3875,295.2375 458.3875,296.0625 L458.3875,296.9375 Q458.3875,297.925 459.1,298.5875 Q459.8125,299.2375 461.0875,299.2375 Q461.8375,299.2375 462.3625,299.0375 Q462.675,298.9125 463.0125,298.5625 Q463.225,298.35 463.3375,298.2875 Q463.4625,298.225 463.625,298.225 Q463.8875,298.225 464.0875,298.4375 Q464.3,298.6375 464.3,298.9125 Q464.3,299.1875 464.025,299.5125 Q463.625,299.975 462.9875,300.2375 Q462.125,300.6 461.0875,300.6 Q459.875,300.6 458.9125,300.1 Q458.125,299.7 457.575,298.85 Q457.025,297.9875 457.025,296.9625 L457.025,296.0375 Q457.025,294.975 457.5125,294.0625 Q458.0125,293.1375 458.8875,292.65 Q459.7625,292.15 460.75,292.15 Q461.3375,292.15 461.85,292.2875 Q462.375,292.4125 462.8125,292.7 Z " fill="#000000"/><text fill="#000000" font-family="sans-serif" font-size="11.2" lengthAdjust="spacing" textLength="63.2" x="477" y="300.6375">Repositories</text><line style="stroke:#181818;stroke-width:0.4000000000000001;" x1="418" x2="573.2" y1="308.8" y2="308.8"/><line style="stroke:#181818;stroke-width:0.4000000000000001;" x1="418" x2="573.2" y1="315.2" y2="315.2"/><text fill="#000000" font-family="sans-serif" font-size="11.2" lengthAdjust="spacing" textLength="75.2" x="422" y="330.4859">-Repositories()</text><text fill="#000000" font-family="sans-serif" font-size="11.2" lengthAdjust="spacing" textLength="145.6" x="422" y="345.3828">+getInstance() : Repositories</text><text fill="#000000" font-family="sans-serif" font-size="11.2" lengthAdjust="spacing" textLength="102.4" x="422" y="360.2797">+getJobRepository()</text><text fill="#000000" font-family="sans-serif" font-size="11.2" lengthAdjust="spacing" textLength="147.2" x="422" y="375.1766">+getCollaboratorRepository()</text></g><!--class IdDocType--><g id="elem_IdDocType"><rect codeLine="59" fill="#F1F1F1" height="83.0906" id="IdDocType" rx="2" ry="2" style="stroke:#181818;stroke-width:0.4000000000000001;" width="125.6" x="289.6" y="768"/><ellipse cx="322.12" cy="780.8" fill="#EB937F" rx="8.8" ry="8.8" style="stroke:#181818;stroke-width:0.8000000000000002;"/><path d="M321.2075,781.4375 L321.2075,783.4375 L324.67,783.4375 L324.67,782.7 Q324.67,782.2125 324.8575,782 Q325.0575,781.7875 325.3575,781.7875 Q325.6575,781.7875 325.845,782 Q326.0325,782.2125 326.0325,782.7 L326.0325,784.8 L319.6325,784.8 Q319.1325,784.8 318.92,784.6125 Q318.72,784.425 318.72,784.1125 Q318.72,783.8125 318.9325,783.625 Q319.145,783.4375 319.6325,783.4375 L319.845,783.4375 L319.845,778.1125 L319.6325,778.1125 Q319.1325,778.1125 318.92,777.925 Q318.72,777.7375 318.72,777.425 Q318.72,777.125 318.92,776.9375 Q319.1325,776.75 319.6325,776.75 L325.7325,776.75 L325.7325,778.825 Q325.7325,779.3125 325.545,779.525 Q325.37,779.725 325.0575,779.725 Q324.7575,779.725 324.57,779.525 Q324.3825,779.3125 324.3825,778.825 L324.3825,778.1125 L321.2075,778.1125 L321.2075,780.075 L322.395,780.075 Q322.395,779.55 322.495,779.4 Q322.7075,779.075 323.0825,779.075 Q323.3825,779.075 323.57,779.2875 Q323.7575,779.4875 323.7575,779.975 L323.7575,781.55 Q323.7575,781.9875 323.6575,782.1375 Q323.445,782.45 323.0825,782.45 Q322.7075,782.45 322.495,782.125 Q322.395,781.975 322.395,781.4375 L321.2075,781.4375 Z " fill="#000000"/><text fill="#000000" font-family="sans-serif" font-size="11.2" lengthAdjust="spacing" textLength="54.4" x="337.88" y="785.4375">IdDocType</text><line style="stroke:#181818;stroke-width:0.4000000000000001;" x1="290.4" x2="414.4" y1="793.6" y2="793.6"/><text fill="#000000" font-family="sans-serif" font-size="11.2" lengthAdjust="spacing" textLength="116" x="294.4" y="808.8859">+TAXPAYER_NUMBER</text><text fill="#000000" font-family="sans-serif" font-size="11.2" lengthAdjust="spacing" textLength="84.8" x="294.4" y="823.7828">+CITIZEN_CARD</text><text fill="#000000" font-family="sans-serif" font-size="11.2" lengthAdjust="spacing" textLength="66.4" x="294.4" y="838.6797">+PASSPORT</text><line style="stroke:#181818;stroke-width:0.4000000000000001;" x1="290.4" x2="414.4" y1="844.6906" y2="844.6906"/></g><!--link RegisterCollaboratorUI to RegisterCollaboratorController--><g id="link_RegisterCollaboratorUI_RegisterCollaboratorController"><path codeLine="65" d="M495.6,59.024 C495.6,75.528 495.6,95.544 495.6,117.56 " fill="none" id="RegisterCollaboratorUI-to-RegisterCollaboratorController" style="stroke:#181818;stroke-width:0.8000000000000002;stroke-dasharray:7.0,7.0;"/><polygon fill="#181818" points="495.6,122.36,498.8,115.16,495.6,118.36,492.4,115.16,495.6,122.36" style="stroke:#181818;stroke-width:0.8000000000000002;"/></g><!--link RegisterCollaboratorController to Repositories--><g id="link_RegisterCollaboratorController_Repositories"><path codeLine="66" d="M495.6,220.2 C495.6,240.144 495.6,258.432 495.6,278.368 " fill="none" id="RegisterCollaboratorController-to-Repositories" style="stroke:#181818;stroke-width:0.8000000000000002;stroke-dasharray:7.0,7.0;"/><polygon fill="#181818" points="495.6,283.168,498.8,275.968,495.6,279.168,492.4,275.968,495.6,283.168" style="stroke:#181818;stroke-width:0.8000000000000002;"/><text fill="#000000" font-family="sans-serif" font-size="10.4" lengthAdjust="spacing" textLength="53.6" x="496.4" y="256.0227">repositories</text></g><!--link RegisterCollaboratorController to CollaboratorRepository--><g id="link_RegisterCollaboratorController_CollaboratorRepository"><path codeLine="67" d="M409.736,220.128 C356.112,250.184 297.2,283.2 297.2,283.2 C297.2,283.2 295.3504,369.6651 294.1744,424.7531 " fill="none" id="RegisterCollaboratorController-to-CollaboratorRepository" style="stroke:#181818;stroke-width:0.8000000000000002;stroke-dasharray:7.0,7.0;"/><polygon fill="#181818" points="294.072,429.552,297.4249,422.4219,294.1574,425.5529,291.0264,422.2853,294.072,429.552" style="stroke:#181818;stroke-width:0.8000000000000002;"/><text fill="#000000" font-family="sans-serif" font-size="10.4" lengthAdjust="spacing" textLength="104.8" x="298" y="336.4227">CollaboratorRepository</text></g><!--link RegisterCollaboratorController to JobRepository--><g id="link_RegisterCollaboratorController_JobRepository"><path codeLine="68" d="M563.12,220.128 C605.28,250.184 651.6,283.2 651.6,283.2 C651.6,283.2 669.5512,388.2046 678.3432,439.6366 " fill="none" id="RegisterCollaboratorController-to-JobRepository" style="stroke:#181818;stroke-width:0.8000000000000002;stroke-dasharray:7.0,7.0;"/><polygon fill="#181818" points="679.152,444.368,681.093,436.7317,678.478,440.4252,674.7846,437.8101,679.152,444.368" style="stroke:#181818;stroke-width:0.8000000000000002;"/><text fill="#000000" font-family="sans-serif" font-size="10.4" lengthAdjust="spacing" textLength="65.6" x="668.4" y="336.4227">JobRepository</text></g><!--link Repositories to Repositories--><g id="link_Repositories_Repositories"><path codeLine="69" d="M574.016,318.976 C590.296,320.344 602,324.688 602,332 C602,339.312 595.0791,343.2541 578.7991,344.6221 " fill="none" id="Repositories-to-Repositories" style="stroke:#181818;stroke-width:0.8000000000000002;"/><polygon fill="#181818" points="574.016,345.024,581.4587,347.6099,578.002,344.6891,580.9228,341.2324,574.016,345.024" style="stroke:#181818;stroke-width:0.8000000000000002;"/><text fill="#000000" font-family="sans-serif" font-size="10.4" lengthAdjust="spacing" textLength="39.2" x="606.8" y="336.4227">instance</text></g><!--link Repositories to CollaboratorRepository--><g id="link_Repositories_CollaboratorRepository"><path codeLine="70" d="M424.808,380.928 C401.552,396.736 379.9052,411.4529 357.5052,426.6849 " fill="none" id="Repositories-to-CollaboratorRepository" style="stroke:#181818;stroke-width:0.8000000000000002;"/><polygon fill="#181818" points="353.536,429.384,361.2893,427.9815,356.8437,427.1348,357.6905,422.6892,353.536,429.384" style="stroke:#181818;stroke-width:0.8000000000000002;"/><text fill="#000000" font-family="sans-serif" font-size="10.4" lengthAdjust="spacing" textLength="5.6" x="355.6674" y="420.4969">1</text></g><!--link Repositories to JobRepository--><g id="link_Repositories_JobRepository"><path codeLine="71" d="M561.352,380.928 C590.472,402.24 619.7026,423.6371 644.1106,441.5011 " fill="none" id="Repositories-to-JobRepository" style="stroke:#181818;stroke-width:0.8000000000000002;"/><polygon fill="#181818" points="647.984,444.336,644.0638,437.5014,644.7562,441.9736,640.2839,442.6659,647.984,444.336" style="stroke:#181818;stroke-width:0.8000000000000002;"/><text fill="#000000" font-family="sans-serif" font-size="10.4" lengthAdjust="spacing" textLength="5.6" x="634.8209" y="435.3838">1</text></g><!--link CollaboratorRepository to Collaborator--><g id="link_CollaboratorRepository_Collaborator"><path codeLine="72" d="M307.68,513 C312.848,527.632 317.2651,540.1221 323.1691,556.8341 " fill="none" id="CollaboratorRepository-to-Collaborator" style="stroke:#181818;stroke-width:0.8000000000000002;"/><polygon fill="#181818" points="324.768,561.36,325.3869,553.5053,323.4356,557.5884,319.3524,555.6371,324.768,561.36" style="stroke:#181818;stroke-width:0.8000000000000002;"/><text fill="#000000" font-family="sans-serif" font-size="10.4" lengthAdjust="spacing" textLength="4" x="318.5919" y="552.6882">*</text></g><!--link JobRepository to Job--><g id="link_JobRepository_Job"><path codeLine="73" d="M678.424,498.224 C665.864,561.84 634.8,719.2 634.8,719.2 C634.8,719.2 622.5416,745.6065 610.7096,771.0865 " fill="none" id="JobRepository-to-Job" style="stroke:#181818;stroke-width:0.8000000000000002;"/><polygon fill="#181818" points="608.688,775.44,614.6228,770.2575,610.3727,771.8121,608.8181,767.562,608.688,775.44" style="stroke:#181818;stroke-width:0.8000000000000002;"/><text fill="#000000" font-family="sans-serif" font-size="10.4" lengthAdjust="spacing" textLength="4" x="606.8377" y="766.5378">*</text></g><!--link Collaborator to Job--><g id="link_Collaborator_Job"><path codeLine="74" d="M464.696,719.36 C497.552,742.232 527.2841,762.9222 551.9081,780.0582 " fill="none" id="Collaborator-to-Job" style="stroke:#181818;stroke-width:0.8000000000000002;"/><polygon fill="#181818" points="555.848,782.8,551.766,776.0607,552.5648,780.5152,548.1103,781.3139,555.848,782.8" style="stroke:#181818;stroke-width:0.8000000000000002;"/><text fill="#000000" font-family="sans-serif" font-size="10.4" lengthAdjust="spacing" textLength="5.6" x="544.0997" y="775.2806">1</text></g><!--link Collaborator to IdDocType--><g id="link_Collaborator_IdDocType"><path codeLine="75" d="M352.4,719.36 C352.4,736.168 352.4,748.488 352.4,763.184 " fill="none" id="Collaborator-to-IdDocType" style="stroke:#181818;stroke-width:0.8000000000000002;"/><polygon fill="#181818" points="352.4,767.984,355.6,760.784,352.4,763.984,349.2,760.784,352.4,767.984" style="stroke:#181818;stroke-width:0.8000000000000002;"/><text fill="#000000" font-family="sans-serif" font-size="10.4" lengthAdjust="spacing" textLength="5.6" x="346.4238" y="759.1237">1</text></g><!--SRC=[lLJ1Rjim3BthAuXUuYn9iLrp690c1UPYpG8d1RPT2jbc7QsoP4ZoXcpOlq-ExLZAxAQd-cIIZ-JZCysHVcQYe8hca4iXaxsIEO9H9P8kKj3acMQuDGUEe30nL6JS1UWzJUKl9Z9uebox4Su4caE1K4X-g0mowWbAPIHniX9EjLuOerXS6WmJARRiDy9xGaOSdmmO2OfbUmCfg-WmAGWvva246TC6rL9oJcEfg97g8OG_vEzBYAKKHbaRbKM2VIOleuB4SKTOICtios4AFsJScUEwbEef5GYQunHYfim-fJQHfZdJsWwoeWOhCrMezHIAlHIuBlCOrHGmfunFWQKhcUoiRjLh6xETrxPctNEMeRcJySsXSWLUQ5A7z6VBAHXtiYnx9shac5a-7drt_gRbJyfPQibVmBsT70F3jIDjxNRPXQqwruwgrOc2u_AuUBaDhTh7X77fUS0ZqmxMqgm5UKiXxjpzR7UzsOZpRN6JXaIRsDYHimF_LEPKHAXbgHBKzrJOqt5ItKdjnPqNEx5bg4yrN6VGh1NOAKAXxMbAC1Z3t0Dr44y0DxT__-i_14MPGzYgsye6kyNNpUBRRVIuVhY_kOqQxpBSXTzlru_BHRHgN9l5Thlv4ksgMWC7wlhwuuNBH2uShhf2D_FSNcf7WLTazqim7_2_fgAdzjmtYVTfPxDpzgpvcF_ZhZvS3NFgmVfj1mxT4VpEBqpytwM5MAzNnMtK7pZj3la7]--></g></svg>