<?xml version="1.0" encoding="us-ascii" standalone="no"?><svg xmlns="http://www.w3.org/2000/svg" xmlns:xlink="http://www.w3.org/1999/xlink" contentStyleType="text/css" height="628.5px" preserveAspectRatio="none" style="width:1128px;height:628px;background:#FFFFFF;" version="1.1" viewBox="0 0 1128 628" width="1128.5px" zoomAndPan="magnify"><defs/><g><rect fill="#FFFFFF" height="513.0059" style="stroke:#181818;stroke-width:0.5;" width="5" x="30.5" y="56.1211"/><rect fill="#FFFFFF" height="37.4561" style="stroke:#181818;stroke-width:0.5;" width="5" x="185.5" y="67.7666"/><rect fill="#FFFFFF" height="140.8096" style="stroke:#181818;stroke-width:0.5;" width="5" x="185.5" y="120.8682"/><rect fill="#FFFFFF" height="15.6455" style="stroke:#181818;stroke-width:0.5;" width="5" x="185.5" y="277.3232"/><rect fill="#FFFFFF" height="260.5127" style="stroke:#181818;stroke-width:0.5;" width="5" x="185.5" y="308.6143"/><rect fill="#FFFFFF" height="109.5186" style="stroke:#181818;stroke-width:0.5;" width="5" x="493.5" y="136.5137"/><rect fill="#FFFFFF" height="229.2217" style="stroke:#181818;stroke-width:0.5;" width="5" x="493.5" y="324.2598"/><rect fill="#FFFFFF" height="15.6455" style="stroke:#181818;stroke-width:0.5;" width="5" x="576.25" y="152.1592"/><rect fill="#FFFFFF" height="15.6455" style="stroke:#181818;stroke-width:0.5;" width="5" x="576.25" y="339.9053"/><rect fill="#FFFFFF" height="15.6455" style="stroke:#181818;stroke-width:0.5;" width="5" x="629.75" y="183.4502"/><rect fill="#FFFFFF" height="15.6455" style="stroke:#181818;stroke-width:0.5;" width="5" x="629.75" y="371.1963"/><rect fill="#FFFFFF" height="15.6455" style="stroke:#181818;stroke-width:0.5;" width="5" x="685.25" y="214.7412"/><rect fill="#FFFFFF" height="135.3486" style="stroke:#181818;stroke-width:0.5;" width="5" x="801.5" y="402.4873"/><rect fill="#FFFFFF" height="65.4365" style="stroke:#181818;stroke-width:0.5;" width="5" x="804" y="453.2539"/><rect fill="#FFFFFF" height="21.1455" style="stroke:#181818;stroke-width:0.5;" width="5" x="806.5" y="475.3994"/><line style="stroke:#181818;stroke-width:0.25;stroke-dasharray:5.0,5.0;" x1="33" x2="33" y1="51.1211" y2="578.127"/><line style="stroke:#181818;stroke-width:0.25;stroke-dasharray:5.0,5.0;" x1="187.75" x2="187.75" y1="51.1211" y2="578.127"/><line style="stroke:#181818;stroke-width:0.25;stroke-dasharray:5.0,5.0;" x1="496" x2="496" y1="87.6719" y2="578.127"/><line style="stroke:#181818;stroke-width:0.25;stroke-dasharray:5.0,5.0;" x1="578.5" x2="578.5" y1="51.1211" y2="578.127"/><line style="stroke:#181818;stroke-width:0.25;stroke-dasharray:5.0,5.0;" x1="632" x2="632" y1="51.1211" y2="578.127"/><line style="stroke:#181818;stroke-width:0.25;stroke-dasharray:5.0,5.0;" x1="687.5" x2="687.5" y1="51.1211" y2="578.127"/><line style="stroke:#181818;stroke-width:0.25;stroke-dasharray:5.0,5.0;" x1="803.75" x2="803.75" y1="51.1211" y2="578.127"/><line style="stroke:#181818;stroke-width:0.25;stroke-dasharray:5.0,5.0;" x1="1101.5" x2="1101.5" y1="427.0479" y2="578.127"/><text fill="#000000" font-family="sans-serif" font-size="7" lengthAdjust="spacing" textLength="58" x="2.5" y="40.0537">Human Resources</text><text fill="#000000" font-family="sans-serif" font-size="7" lengthAdjust="spacing" textLength="28" x="17.5" y="49.3643">Manager</text><ellipse cx="33" cy="6.75" fill="#E3E3E3" rx="4" ry="4" style="stroke:#181818;stroke-width:0.25;"/><path d="M33,10.75 L33,24.25 M26.5,14.75 L39.5,14.75 M33,24.25 L26.5,31.75 M33,24.25 L39.5,31.75 " fill="none" style="stroke:#181818;stroke-width:0.25;"/><text fill="#000000" font-family="sans-serif" font-size="7" lengthAdjust="spacing" textLength="58" x="2.5" y="585.1807">Human Resources</text><text fill="#000000" font-family="sans-serif" font-size="7" lengthAdjust="spacing" textLength="28" x="17.5" y="594.4912">Manager</text><ellipse cx="33" cy="600.498" fill="#E3E3E3" rx="4" ry="4" style="stroke:#181818;stroke-width:0.25;"/><path d="M33,604.498 L33,617.998 M26.5,608.498 L39.5,608.498 M33,617.998 L26.5,625.498 M33,617.998 L39.5,625.498 " fill="none" style="stroke:#181818;stroke-width:0.25;"/><rect fill="#E3E3E3" height="16.3105" rx="1.25" ry="1.25" style="stroke:#181818;stroke-width:0.25;" width="80.5" x="147.75" y="34.3105"/><text fill="#000000" font-family="sans-serif" font-size="7" lengthAdjust="spacing" textLength="73.5" x="151.25" y="45.3643">:RegisterCollaboratorUI</text><rect fill="#E3E3E3" height="16.3105" rx="1.25" ry="1.25" style="stroke:#181818;stroke-width:0.25;" width="80.5" x="147.75" y="577.627"/><text fill="#000000" font-family="sans-serif" font-size="7" lengthAdjust="spacing" textLength="73.5" x="151.25" y="588.6807">:RegisterCollaboratorUI</text><rect fill="#E3E3E3" height="16.3105" rx="1.25" ry="1.25" style="stroke:#181818;stroke-width:0.25;" width="107" x="442.5" y="577.627"/><text fill="#000000" font-family="sans-serif" font-size="7" lengthAdjust="spacing" textLength="100" x="446" y="588.6807">:RegisterCollaboratorControlller</text><rect fill="#E3E3E3" height="16.3105" rx="1.25" ry="1.25" style="stroke:#181818;stroke-width:0.25;" width="48.5" x="554.5" y="34.3105"/><text fill="#000000" font-family="sans-serif" font-size="7" lengthAdjust="spacing" textLength="41.5" x="558" y="45.3643">:Repositories</text><rect fill="#E3E3E3" height="16.3105" rx="1.25" ry="1.25" style="stroke:#181818;stroke-width:0.25;" width="48.5" x="554.5" y="577.627"/><text fill="#000000" font-family="sans-serif" font-size="7" lengthAdjust="spacing" textLength="41.5" x="558" y="588.6807">:Repositories</text><rect fill="#E3E3E3" height="25.6211" rx="1.25" ry="1.25" style="stroke:#181818;stroke-width:0.25;" width="48.5" x="608" y="25"/><text fill="#000000" font-family="sans-serif" font-size="7" lengthAdjust="spacing" textLength="37" x="613.75" y="36.0537">repositories</text><text fill="#000000" font-family="sans-serif" font-size="7" lengthAdjust="spacing" textLength="41.5" x="611.5" y="45.3643">:Repositories</text><rect fill="#E3E3E3" height="25.6211" rx="1.25" ry="1.25" style="stroke:#181818;stroke-width:0.25;" width="48.5" x="608" y="577.627"/><text fill="#000000" font-family="sans-serif" font-size="7" lengthAdjust="spacing" textLength="37" x="613.75" y="588.6807">repositories</text><text fill="#000000" font-family="sans-serif" font-size="7" lengthAdjust="spacing" textLength="41.5" x="611.5" y="597.9912">:Repositories</text><rect fill="#E3E3E3" height="25.6211" rx="1.25" ry="1.25" style="stroke:#181818;stroke-width:0.25;" width="52.5" x="661.5" y="25"/><text fill="#000000" font-family="sans-serif" font-size="7" lengthAdjust="spacing" textLength="45.5" x="665" y="36.0537">jobRepository:</text><text fill="#000000" font-family="sans-serif" font-size="7" lengthAdjust="spacing" textLength="43.5" x="666" y="45.3643">jobRepository</text><rect fill="#E3E3E3" height="25.6211" rx="1.25" ry="1.25" style="stroke:#181818;stroke-width:0.25;" width="52.5" x="661.5" y="577.627"/><text fill="#000000" font-family="sans-serif" font-size="7" lengthAdjust="spacing" textLength="45.5" x="665" y="588.6807">jobRepository:</text><text fill="#000000" font-family="sans-serif" font-size="7" lengthAdjust="spacing" textLength="43.5" x="666" y="597.9912">jobRepository</text><rect fill="#E3E3E3" height="25.6211" rx="1.25" ry="1.25" style="stroke:#181818;stroke-width:0.25;" width="80.5" x="763.75" y="25"/><text fill="#000000" font-family="sans-serif" font-size="7" lengthAdjust="spacing" textLength="73.5" x="767.25" y="36.0537">collaboratorRepository:</text><text fill="#000000" font-family="sans-serif" font-size="7" lengthAdjust="spacing" textLength="71.5" x="768.25" y="45.3643">collaboratorRepository</text><rect fill="#E3E3E3" height="25.6211" rx="1.25" ry="1.25" style="stroke:#181818;stroke-width:0.25;" width="80.5" x="763.75" y="577.627"/><text fill="#000000" font-family="sans-serif" font-size="7" lengthAdjust="spacing" textLength="73.5" x="767.25" y="588.6807">collaboratorRepository:</text><text fill="#000000" font-family="sans-serif" font-size="7" lengthAdjust="spacing" textLength="71.5" x="768.25" y="597.9912">collaboratorRepository</text><rect fill="#E3E3E3" height="25.6211" rx="1.25" ry="1.25" style="stroke:#181818;stroke-width:0.25;" width="48" x="1077.5" y="577.627"/><text fill="#000000" font-family="sans-serif" font-size="7" lengthAdjust="spacing" textLength="37.5" x="1082.75" y="588.6807">collaborator</text><text fill="#000000" font-family="sans-serif" font-size="7" lengthAdjust="spacing" textLength="41" x="1081" y="597.9912">:Collaborator</text><rect fill="#FFFFFF" height="513.0059" style="stroke:#181818;stroke-width:0.5;" width="5" x="30.5" y="56.1211"/><rect fill="#FFFFFF" height="37.4561" style="stroke:#181818;stroke-width:0.5;" width="5" x="185.5" y="67.7666"/><rect fill="#FFFFFF" height="140.8096" style="stroke:#181818;stroke-width:0.5;" width="5" x="185.5" y="120.8682"/><rect fill="#FFFFFF" height="15.6455" style="stroke:#181818;stroke-width:0.5;" width="5" x="185.5" y="277.3232"/><rect fill="#FFFFFF" height="260.5127" style="stroke:#181818;stroke-width:0.5;" width="5" x="185.5" y="308.6143"/><rect fill="#FFFFFF" height="109.5186" style="stroke:#181818;stroke-width:0.5;" width="5" x="493.5" y="136.5137"/><rect fill="#FFFFFF" height="229.2217" style="stroke:#181818;stroke-width:0.5;" width="5" x="493.5" y="324.2598"/><rect fill="#FFFFFF" height="15.6455" style="stroke:#181818;stroke-width:0.5;" width="5" x="576.25" y="152.1592"/><rect fill="#FFFFFF" height="15.6455" style="stroke:#181818;stroke-width:0.5;" width="5" x="576.25" y="339.9053"/><rect fill="#FFFFFF" height="15.6455" style="stroke:#181818;stroke-width:0.5;" width="5" x="629.75" y="183.4502"/><rect fill="#FFFFFF" height="15.6455" style="stroke:#181818;stroke-width:0.5;" width="5" x="629.75" y="371.1963"/><rect fill="#FFFFFF" height="15.6455" style="stroke:#181818;stroke-width:0.5;" width="5" x="685.25" y="214.7412"/><rect fill="#FFFFFF" height="135.3486" style="stroke:#181818;stroke-width:0.5;" width="5" x="801.5" y="402.4873"/><rect fill="#FFFFFF" height="65.4365" style="stroke:#181818;stroke-width:0.5;" width="5" x="804" y="453.2539"/><rect fill="#FFFFFF" height="21.1455" style="stroke:#181818;stroke-width:0.5;" width="5" x="806.5" y="475.3994"/><polygon fill="#181818" points="179.5,65.7666,184.5,67.7666,179.5,69.7666,181.5,67.7666" style="stroke:#181818;stroke-width:0.5;"/><line style="stroke:#181818;stroke-width:0.5;" x1="35.5" x2="182.5" y1="67.7666" y2="67.7666"/><text fill="#000000" font-family="sans-serif" font-size="6.5" font-weight="bold" lengthAdjust="spacing" textLength="3.5" x="39" y="65.1353">1</text><text fill="#000000" font-family="sans-serif" font-size="6.5" lengthAdjust="spacing" textLength="99.5" x="44.5" y="65.1353">asks to register a new collaborator</text><polygon fill="#181818" points="436.5,81.4121,441.5,83.4121,436.5,85.4121,438.5,83.4121" style="stroke:#181818;stroke-width:0.5;"/><line style="stroke:#181818;stroke-width:0.5;" x1="190.5" x2="439.5" y1="83.4121" y2="83.4121"/><text fill="#000000" font-family="sans-serif" font-size="6.5" font-weight="bold" lengthAdjust="spacing" textLength="3.5" x="194" y="80.7808">2</text><text fill="#000000" font-family="sans-serif" font-size="6.5" lengthAdjust="spacing" textLength="18" x="199.5" y="80.7808">create</text><rect fill="#E3E3E3" height="16.3105" rx="1.25" ry="1.25" style="stroke:#181818;stroke-width:0.25;" width="107" x="442.5" y="71.7666"/><text fill="#000000" font-family="sans-serif" font-size="7" lengthAdjust="spacing" textLength="100" x="446" y="82.8203">:RegisterCollaboratorControlller</text><polygon fill="#181818" points="41,103.2227,36,105.2227,41,107.2227,39,105.2227" style="stroke:#181818;stroke-width:0.5;"/><line style="stroke:#181818;stroke-width:0.5;stroke-dasharray:2.0,2.0;" x1="38" x2="187.5" y1="105.2227" y2="105.2227"/><text fill="#000000" font-family="sans-serif" font-size="6.5" font-weight="bold" lengthAdjust="spacing" textLength="3.5" x="44" y="102.5913">3</text><text fill="#000000" font-family="sans-serif" font-size="6.5" lengthAdjust="spacing" textLength="39.5" x="49.5" y="102.5913">requests data</text><polygon fill="#181818" points="179.5,118.8682,184.5,120.8682,179.5,122.8682,181.5,120.8682" style="stroke:#181818;stroke-width:0.5;"/><line style="stroke:#181818;stroke-width:0.5;" x1="35.5" x2="182.5" y1="120.8682" y2="120.8682"/><text fill="#000000" font-family="sans-serif" font-size="6.5" font-weight="bold" lengthAdjust="spacing" textLength="3.5" x="39" y="118.2368">4</text><text fill="#000000" font-family="sans-serif" font-size="6.5" lengthAdjust="spacing" textLength="84" x="44.5" y="118.2368">types/selects requested data</text><polygon fill="#181818" points="487.5,134.5137,492.5,136.5137,487.5,138.5137,489.5,136.5137" style="stroke:#181818;stroke-width:0.5;"/><line style="stroke:#181818;stroke-width:0.5;" x1="190.5" x2="490.5" y1="136.5137" y2="136.5137"/><text fill="#000000" font-family="sans-serif" font-size="6.5" font-weight="bold" lengthAdjust="spacing" textLength="3.5" x="194" y="133.8823">5</text><text fill="#000000" font-family="sans-serif" font-size="6.5" lengthAdjust="spacing" textLength="26.5" x="199.5" y="133.8823">getJobs()</text><polygon fill="#181818" points="570.25,150.1592,575.25,152.1592,570.25,154.1592,572.25,152.1592" style="stroke:#181818;stroke-width:0.5;"/><line style="stroke:#181818;stroke-width:0.5;" x1="498.5" x2="573.25" y1="152.1592" y2="152.1592"/><text fill="#000000" font-family="sans-serif" font-size="6.5" font-weight="bold" lengthAdjust="spacing" textLength="3.5" x="502" y="149.5278">6</text><text fill="#000000" font-family="sans-serif" font-size="6.5" lengthAdjust="spacing" textLength="37.5" x="507.5" y="149.5278">getInstance()</text><polygon fill="#181818" points="504,165.8047,499,167.8047,504,169.8047,502,167.8047" style="stroke:#181818;stroke-width:0.5;"/><line style="stroke:#181818;stroke-width:0.5;stroke-dasharray:2.0,2.0;" x1="501" x2="578.25" y1="167.8047" y2="167.8047"/><text fill="#000000" font-family="sans-serif" font-size="6.5" font-weight="bold" lengthAdjust="spacing" textLength="3.5" x="507" y="165.1733">7</text><text fill="#000000" font-family="sans-serif" font-size="6.5" lengthAdjust="spacing" textLength="33.5" x="512.5" y="165.1733">repositories</text><polygon fill="#181818" points="623.75,181.4502,628.75,183.4502,623.75,185.4502,625.75,183.4502" style="stroke:#181818;stroke-width:0.5;"/><line style="stroke:#181818;stroke-width:0.5;" x1="498.5" x2="626.75" y1="183.4502" y2="183.4502"/><text fill="#000000" font-family="sans-serif" font-size="6.5" font-weight="bold" lengthAdjust="spacing" textLength="3.5" x="502" y="180.8188">8</text><text fill="#000000" font-family="sans-serif" font-size="6.5" lengthAdjust="spacing" textLength="54" x="507.5" y="180.8188">getJobRepository()</text><polygon fill="#181818" points="504,197.0957,499,199.0957,504,201.0957,502,199.0957" style="stroke:#181818;stroke-width:0.5;"/><line style="stroke:#181818;stroke-width:0.5;stroke-dasharray:2.0,2.0;" x1="501" x2="631.75" y1="199.0957" y2="199.0957"/><text fill="#000000" font-family="sans-serif" font-size="6.5" font-weight="bold" lengthAdjust="spacing" textLength="3.5" x="507" y="196.4644">9</text><text fill="#000000" font-family="sans-serif" font-size="6.5" lengthAdjust="spacing" textLength="41" x="512.5" y="196.4644">JobRepository</text><polygon fill="#181818" points="679.25,212.7412,684.25,214.7412,679.25,216.7412,681.25,214.7412" style="stroke:#181818;stroke-width:0.5;"/><line style="stroke:#181818;stroke-width:0.5;" x1="498.5" x2="682.25" y1="214.7412" y2="214.7412"/><text fill="#000000" font-family="sans-serif" font-size="6.5" font-weight="bold" lengthAdjust="spacing" textLength="7" x="502" y="212.1099">10</text><text fill="#000000" font-family="sans-serif" font-size="6.5" lengthAdjust="spacing" textLength="37" x="511" y="212.1099">getJobsList()</text><polygon fill="#181818" points="504,228.3867,499,230.3867,504,232.3867,502,230.3867" style="stroke:#181818;stroke-width:0.5;"/><line style="stroke:#181818;stroke-width:0.5;stroke-dasharray:2.0,2.0;" x1="501" x2="687.25" y1="230.3867" y2="230.3867"/><text fill="#000000" font-family="sans-serif" font-size="6.5" font-weight="bold" lengthAdjust="spacing" textLength="7" x="507" y="227.7554">11</text><text fill="#000000" font-family="sans-serif" font-size="6.5" lengthAdjust="spacing" textLength="24" x="516" y="227.7554">JobsList</text><polygon fill="#181818" points="196,244.0322,191,246.0322,196,248.0322,194,246.0322" style="stroke:#181818;stroke-width:0.5;"/><line style="stroke:#181818;stroke-width:0.5;stroke-dasharray:2.0,2.0;" x1="193" x2="495.5" y1="246.0322" y2="246.0322"/><text fill="#000000" font-family="sans-serif" font-size="6.5" font-weight="bold" lengthAdjust="spacing" textLength="7" x="199" y="243.4009">12</text><text fill="#000000" font-family="sans-serif" font-size="6.5" lengthAdjust="spacing" textLength="24" x="208" y="243.4009">JobsList</text><polygon fill="#181818" points="41,259.6777,36,261.6777,41,263.6777,39,261.6777" style="stroke:#181818;stroke-width:0.5;"/><line style="stroke:#181818;stroke-width:0.5;stroke-dasharray:2.0,2.0;" x1="38" x2="187.5" y1="261.6777" y2="261.6777"/><text fill="#000000" font-family="sans-serif" font-size="6.5" font-weight="bold" lengthAdjust="spacing" textLength="7" x="44" y="259.0464">13</text><text fill="#000000" font-family="sans-serif" font-size="6.5" lengthAdjust="spacing" textLength="129" x="53" y="259.0464">shows the list of jobs and asks to select one</text><polygon fill="#181818" points="179.5,275.3232,184.5,277.3232,179.5,279.3232,181.5,277.3232" style="stroke:#181818;stroke-width:0.5;"/><line style="stroke:#181818;stroke-width:0.5;" x1="35.5" x2="182.5" y1="277.3232" y2="277.3232"/><text fill="#000000" font-family="sans-serif" font-size="6.5" font-weight="bold" lengthAdjust="spacing" textLength="7" x="39" y="274.6919">14</text><text fill="#000000" font-family="sans-serif" font-size="6.5" lengthAdjust="spacing" textLength="42.5" x="48" y="274.6919">selects the job</text><polygon fill="#181818" points="41,290.9688,36,292.9688,41,294.9688,39,292.9688" style="stroke:#181818;stroke-width:0.5;"/><line style="stroke:#181818;stroke-width:0.5;stroke-dasharray:2.0,2.0;" x1="38" x2="187.5" y1="292.9688" y2="292.9688"/><text fill="#000000" font-family="sans-serif" font-size="6.5" font-weight="bold" lengthAdjust="spacing" textLength="7" x="44" y="290.3374">15</text><text fill="#000000" font-family="sans-serif" font-size="6.5" lengthAdjust="spacing" textLength="118" x="53" y="290.3374">shows all data and requests confirmation</text><polygon fill="#181818" points="179.5,306.6143,184.5,308.6143,179.5,310.6143,181.5,308.6143" style="stroke:#181818;stroke-width:0.5;"/><line style="stroke:#181818;stroke-width:0.5;" x1="35.5" x2="182.5" y1="308.6143" y2="308.6143"/><text fill="#000000" font-family="sans-serif" font-size="6.5" font-weight="bold" lengthAdjust="spacing" textLength="7" x="39" y="305.9829">16</text><text fill="#000000" font-family="sans-serif" font-size="6.5" lengthAdjust="spacing" textLength="39" x="48" y="305.9829">confirms data</text><polygon fill="#181818" points="487.5,322.2598,492.5,324.2598,487.5,326.2598,489.5,324.2598" style="stroke:#181818;stroke-width:0.5;"/><line style="stroke:#181818;stroke-width:0.5;" x1="190.5" x2="490.5" y1="324.2598" y2="324.2598"/><text fill="#000000" font-family="sans-serif" font-size="6.5" font-weight="bold" lengthAdjust="spacing" textLength="7" x="194" y="321.6284">17</text><text fill="#000000" font-family="sans-serif" font-size="6.5" lengthAdjust="spacing" textLength="284.5" x="203" y="321.6284">registerCollaborator(job, name, birthday, admissionDate, address, phoneNumber, email, idNumber)</text><polygon fill="#181818" points="570.25,337.9053,575.25,339.9053,570.25,341.9053,572.25,339.9053" style="stroke:#181818;stroke-width:0.5;"/><line style="stroke:#181818;stroke-width:0.5;" x1="498.5" x2="573.25" y1="339.9053" y2="339.9053"/><text fill="#000000" font-family="sans-serif" font-size="6.5" font-weight="bold" lengthAdjust="spacing" textLength="7" x="502" y="337.2739">18</text><text fill="#000000" font-family="sans-serif" font-size="6.5" lengthAdjust="spacing" textLength="37.5" x="511" y="337.2739">getInstance()</text><polygon fill="#181818" points="504,353.5508,499,355.5508,504,357.5508,502,355.5508" style="stroke:#181818;stroke-width:0.5;"/><line style="stroke:#181818;stroke-width:0.5;stroke-dasharray:2.0,2.0;" x1="501" x2="578.25" y1="355.5508" y2="355.5508"/><text fill="#000000" font-family="sans-serif" font-size="6.5" font-weight="bold" lengthAdjust="spacing" textLength="7" x="507" y="352.9194">19</text><text fill="#000000" font-family="sans-serif" font-size="6.5" lengthAdjust="spacing" textLength="33.5" x="516" y="352.9194">repositories</text><polygon fill="#181818" points="623.75,369.1963,628.75,371.1963,623.75,373.1963,625.75,371.1963" style="stroke:#181818;stroke-width:0.5;"/><line style="stroke:#181818;stroke-width:0.5;" x1="498.5" x2="626.75" y1="371.1963" y2="371.1963"/><text fill="#000000" font-family="sans-serif" font-size="6.5" font-weight="bold" lengthAdjust="spacing" textLength="7" x="502" y="368.5649">20</text><text fill="#000000" font-family="sans-serif" font-size="6.5" lengthAdjust="spacing" textLength="78.5" x="511" y="368.5649">getCollaboratorRepository()</text><polygon fill="#181818" points="504,384.8418,499,386.8418,504,388.8418,502,386.8418" style="stroke:#181818;stroke-width:0.5;"/><line style="stroke:#181818;stroke-width:0.5;stroke-dasharray:2.0,2.0;" x1="501" x2="631.75" y1="386.8418" y2="386.8418"/><text fill="#000000" font-family="sans-serif" font-size="6.5" font-weight="bold" lengthAdjust="spacing" textLength="7" x="507" y="384.2104">21</text><text fill="#000000" font-family="sans-serif" font-size="6.5" lengthAdjust="spacing" textLength="64.5" x="516" y="384.2104">collaboratorRepository</text><polygon fill="#181818" points="795.5,400.4873,800.5,402.4873,795.5,404.4873,797.5,402.4873" style="stroke:#181818;stroke-width:0.5;"/><line style="stroke:#181818;stroke-width:0.5;" x1="498.5" x2="798.5" y1="402.4873" y2="402.4873"/><text fill="#000000" font-family="sans-serif" font-size="6.5" font-weight="bold" lengthAdjust="spacing" textLength="7" x="502" y="399.856">22</text><text fill="#000000" font-family="sans-serif" font-size="6.5" lengthAdjust="spacing" textLength="284.5" x="511" y="399.856">registerCollaborator(job, name, birthday, admissionDate, address, phoneNumber, email, idNumber)</text><polygon fill="#181818" points="1071.5,416.1328,1076.5,418.1328,1071.5,420.1328,1073.5,418.1328" style="stroke:#181818;stroke-width:0.5;"/><line style="stroke:#181818;stroke-width:0.5;" x1="806.5" x2="1074.5" y1="418.1328" y2="418.1328"/><text fill="#000000" font-family="sans-serif" font-size="6.5" font-weight="bold" lengthAdjust="spacing" textLength="7" x="810" y="415.5015">23</text><text fill="#000000" font-family="sans-serif" font-size="6.5" lengthAdjust="spacing" textLength="250" x="819" y="415.5015">register(job, name, birthday, admissionDate, address, phoneNumber, email, idNumber)</text><rect fill="#E3E3E3" height="25.6211" rx="1.25" ry="1.25" style="stroke:#181818;stroke-width:0.25;" width="48" x="1077.5" y="406.4873"/><text fill="#000000" font-family="sans-serif" font-size="7" lengthAdjust="spacing" textLength="37.5" x="1082.75" y="417.541">collaborator</text><text fill="#000000" font-family="sans-serif" font-size="7" lengthAdjust="spacing" textLength="41" x="1081" y="426.8516">:Collaborator</text><line style="stroke:#181818;stroke-width:0.5;" x1="806.5" x2="830" y1="446.7539" y2="446.7539"/><line style="stroke:#181818;stroke-width:0.5;" x1="830" x2="830" y1="446.7539" y2="453.2539"/><line style="stroke:#181818;stroke-width:0.5;" x1="809.5" x2="830" y1="453.2539" y2="453.2539"/><polygon fill="#181818" points="814.5,451.2539,809.5,453.2539,814.5,455.2539,812.5,453.2539" style="stroke:#181818;stroke-width:0.5;"/><text fill="#000000" font-family="sans-serif" font-size="6.5" font-weight="bold" lengthAdjust="spacing" textLength="7" x="812.5" y="444.1226">24</text><text fill="#000000" font-family="sans-serif" font-size="6.5" lengthAdjust="spacing" textLength="83" x="821.5" y="444.1226">addCollaborator (colaborator)</text><line style="stroke:#181818;stroke-width:0.5;" x1="809" x2="832.5" y1="468.8994" y2="468.8994"/><line style="stroke:#181818;stroke-width:0.5;" x1="832.5" x2="832.5" y1="468.8994" y2="475.3994"/><line style="stroke:#181818;stroke-width:0.5;" x1="812" x2="832.5" y1="475.3994" y2="475.3994"/><polygon fill="#181818" points="817,473.3994,812,475.3994,817,477.3994,815,475.3994" style="stroke:#181818;stroke-width:0.5;"/><text fill="#000000" font-family="sans-serif" font-size="6.5" font-weight="bold" lengthAdjust="spacing" textLength="7" x="815" y="466.2681">25</text><text fill="#000000" font-family="sans-serif" font-size="6.5" lengthAdjust="spacing" textLength="94" x="824" y="466.2681">validateCollaborator (colaborator)</text><line style="stroke:#181818;stroke-width:0.5;stroke-dasharray:2.0,2.0;" x1="811.5" x2="832.5" y1="496.0449" y2="496.0449"/><line style="stroke:#181818;stroke-width:0.5;stroke-dasharray:2.0,2.0;" x1="832.5" x2="832.5" y1="496.0449" y2="502.5449"/><line style="stroke:#181818;stroke-width:0.5;stroke-dasharray:2.0,2.0;" x1="809" x2="832.5" y1="502.5449" y2="502.5449"/><polygon fill="#181818" points="814,500.5449,809,502.5449,814,504.5449,812,502.5449" style="stroke:#181818;stroke-width:0.5;"/><text fill="#000000" font-family="sans-serif" font-size="6.5" font-weight="bold" lengthAdjust="spacing" textLength="7" x="815" y="493.4136">26</text><text fill="#000000" font-family="sans-serif" font-size="6.5" lengthAdjust="spacing" textLength="2" x="824" y="493.4136">&#160;</text><line style="stroke:#181818;stroke-width:0.5;stroke-dasharray:2.0,2.0;" x1="809" x2="830" y1="518.1904" y2="518.1904"/><line style="stroke:#181818;stroke-width:0.5;stroke-dasharray:2.0,2.0;" x1="830" x2="830" y1="518.1904" y2="524.6904"/><line style="stroke:#181818;stroke-width:0.5;stroke-dasharray:2.0,2.0;" x1="806.5" x2="830" y1="524.6904" y2="524.6904"/><polygon fill="#181818" points="811.5,522.6904,806.5,524.6904,811.5,526.6904,809.5,524.6904" style="stroke:#181818;stroke-width:0.5;"/><text fill="#000000" font-family="sans-serif" font-size="6.5" font-weight="bold" lengthAdjust="spacing" textLength="7" x="812.5" y="515.5591">27</text><text fill="#000000" font-family="sans-serif" font-size="6.5" lengthAdjust="spacing" textLength="2" x="821.5" y="515.5591">&#160;</text><polygon fill="#181818" points="504,535.8359,499,537.8359,504,539.8359,502,537.8359" style="stroke:#181818;stroke-width:0.5;"/><line style="stroke:#181818;stroke-width:0.5;stroke-dasharray:2.0,2.0;" x1="501" x2="803.5" y1="537.8359" y2="537.8359"/><text fill="#000000" font-family="sans-serif" font-size="6.5" font-weight="bold" lengthAdjust="spacing" textLength="7" x="507" y="535.2046">28</text><text fill="#000000" font-family="sans-serif" font-size="6.5" lengthAdjust="spacing" textLength="33.5" x="516" y="535.2046">collaborator</text><polygon fill="#181818" points="196,551.4814,191,553.4814,196,555.4814,194,553.4814" style="stroke:#181818;stroke-width:0.5;"/><line style="stroke:#181818;stroke-width:0.5;stroke-dasharray:2.0,2.0;" x1="193" x2="495.5" y1="553.4814" y2="553.4814"/><text fill="#000000" font-family="sans-serif" font-size="6.5" font-weight="bold" lengthAdjust="spacing" textLength="7" x="199" y="550.8501">29</text><text fill="#000000" font-family="sans-serif" font-size="6.5" lengthAdjust="spacing" textLength="33.5" x="208" y="550.8501">collaborator</text><polygon fill="#181818" points="38.5,567.127,33.5,569.127,38.5,571.127,36.5,569.127" style="stroke:#181818;stroke-width:0.5;"/><line style="stroke:#181818;stroke-width:0.5;stroke-dasharray:2.0,2.0;" x1="35.5" x2="187.5" y1="569.127" y2="569.127"/><text fill="#000000" font-family="sans-serif" font-size="6.5" font-weight="bold" lengthAdjust="spacing" textLength="7" x="41.5" y="566.4956">30</text><text fill="#000000" font-family="sans-serif" font-size="6.5" lengthAdjust="spacing" textLength="79" x="50.5" y="566.4956">displays operation success</text><!--SRC=[pLR1Rjim3BtxAuXUrXOfTizXG9SEQ8Tq7PpsrejYCx5MM_94kLt-VfJSE19ifsbHRFKf4id79-fH33r8LGiZAgYqqbbXT8LWJOC9TPPQP0zYZGkxAH4CPbQeTHawK25o_IJL6bQY94mIqLYjccg99aa-5J97M6bjb_fF8ZAh3HnTDfLGa2BfncH8z-fQA4vXZa0GNARN2GDRcSbQA0j7qnJNaYoQcIvBiTH6CCZTbNU-kph0TwQLDRmkdpFCRjDvBwpM9DbN8dcVzDlFsCK47lTgC60HH_pIoyvhCxrNqTh7H3jnS1RmZr263Hvks3IEoyS8ozJMvcO-F_zwavxVtgI9ko_vA2pwIqc0F_u1Pr-uxZ1bzmS2graKRSr1WCAdY8QFwL3ujlo6-nY1STnLd9uoLcQGFLgpCx7DfPeo-Ey6oHBamWflph476BAocnhfCs79KgLjEEQx-1VeCCGQxNUzfEEJpjp5UErqs-xpCHpB0cX3hnHnZsGOX4SGJbgHnKMUFMTt1zufAt8Bpjs324WikWFiDB27ogB7PH6GYL3si5aCqubRO5lNEQjbZ57S4f5FPEeuWYVfCSVuxS5iYMwbynBGxl8ZYLAXdxWH2eIIWq6lN4O2eVAkHLevWbPuY8ItudMG33MisW4AeYozp7tghd4ohLRILC9AhGx9_knF1tVCj7i1mkVac9bFG8aA9x2KnXQvs4n0v9KaOYONZEUMkK6Y2TG5r-Q77neJm4h8SW8oRpTUsuOVeWizYTdWY_pcRXnvu5_TbYF3vPzTOtJgaKD5pkuRzlCQ36QM7oRRSxmdzrVm6IilPmeh2yVik5sSzF3ViK1ZX1v5ARd9yN-m6gNLGmWa_M6JxadORztaZOc2OJK2-CAica8kgIx5Xa3NQFn406eo_WzEGvCXMBe_W7y1]--></g></svg>