<?xml version="1.0" encoding="us-ascii" standalone="no"?><svg xmlns="http://www.w3.org/2000/svg" xmlns:xlink="http://www.w3.org/1999/xlink" contentStyleType="text/css" height="535px" preserveAspectRatio="none" style="width:502px;height:535px;background:#FFFFFF;" version="1.1" viewBox="0 0 502 535" width="502px" zoomAndPan="magnify"><defs/><g><!--class RegisterCollaboratorUI--><g id="elem_RegisterCollaboratorUI"><rect codeLine="11" fill="#F1F1F1" height="24" id="RegisterCollaboratorUI" rx="1.25" ry="1.25" style="stroke:#181818;stroke-width:0.25;" width="87.5" x="266" y="12.75"/><ellipse cx="273.5" cy="20.75" fill="#ADD1B2" rx="5.5" ry="5.5" style="stroke:#181818;stroke-width:0.5;"/><path d="M274.8828,18.6875 Q274.9609,18.5781 275.0547,18.5234 Q275.1484,18.4688 275.2578,18.4688 Q275.4453,18.4688 275.5625,18.6016 Q275.6797,18.7266 275.6797,19.0313 L275.6797,19.7578 Q275.6797,20.0625 275.5625,20.1953 Q275.4453,20.3281 275.2578,20.3281 Q275.0859,20.3281 274.9844,20.2266 Q274.8828,20.1328 274.8281,19.875 Q274.8047,19.6953 274.7109,19.6016 Q274.5469,19.4141 274.2422,19.3047 Q273.9375,19.1953 273.625,19.1953 Q273.2422,19.1953 272.9219,19.3594 Q272.6094,19.5234 272.3594,19.8984 Q272.1172,20.2734 272.1172,20.7891 L272.1172,21.3359 Q272.1172,21.9531 272.5625,22.3672 Q273.0078,22.7734 273.8047,22.7734 Q274.2734,22.7734 274.6016,22.6484 Q274.7969,22.5703 275.0078,22.3516 Q275.1406,22.2188 275.2109,22.1797 Q275.2891,22.1406 275.3906,22.1406 Q275.5547,22.1406 275.6797,22.2734 Q275.8125,22.3984 275.8125,22.5703 Q275.8125,22.7422 275.6406,22.9453 Q275.3906,23.2344 274.9922,23.3984 Q274.4531,23.625 273.8047,23.625 Q273.0469,23.625 272.4453,23.3125 Q271.9531,23.0625 271.6094,22.5313 Q271.2656,21.9922 271.2656,21.3516 L271.2656,20.7734 Q271.2656,20.1094 271.5703,19.5391 Q271.8828,18.9609 272.4297,18.6563 Q272.9766,18.3438 273.5938,18.3438 Q273.9609,18.3438 274.2813,18.4297 Q274.6094,18.5078 274.8828,18.6875 Z " fill="#000000"/><text fill="#000000" font-family="sans-serif" font-size="7" lengthAdjust="spacing" textLength="71.5" x="280.5" y="23.6484">RegisterCollaboratorUI</text><line style="stroke:#181818;stroke-width:0.25;" x1="266.5" x2="353" y1="28.75" y2="28.75"/><line style="stroke:#181818;stroke-width:0.25;" x1="266.5" x2="353" y1="32.75" y2="32.75"/></g><!--class RegisterCollaboratorController--><g id="elem_RegisterCollaboratorController"><rect codeLine="14" fill="#F1F1F1" height="61.2422" id="RegisterCollaboratorController" rx="1.25" ry="1.25" style="stroke:#181818;stroke-width:0.25;" width="377.5" x="121" y="76.5"/><ellipse cx="259.375" cy="84.5" fill="#ADD1B2" rx="5.5" ry="5.5" style="stroke:#181818;stroke-width:0.5;"/><path d="M260.7578,82.4375 Q260.8359,82.3281 260.9297,82.2734 Q261.0234,82.2188 261.1328,82.2188 Q261.3203,82.2188 261.4375,82.3516 Q261.5547,82.4766 261.5547,82.7813 L261.5547,83.5078 Q261.5547,83.8125 261.4375,83.9453 Q261.3203,84.0781 261.1328,84.0781 Q260.9609,84.0781 260.8594,83.9766 Q260.7578,83.8828 260.7031,83.625 Q260.6797,83.4453 260.5859,83.3516 Q260.4219,83.1641 260.1172,83.0547 Q259.8125,82.9453 259.5,82.9453 Q259.1172,82.9453 258.7969,83.1094 Q258.4844,83.2734 258.2344,83.6484 Q257.9922,84.0234 257.9922,84.5391 L257.9922,85.0859 Q257.9922,85.7031 258.4375,86.1172 Q258.8828,86.5234 259.6797,86.5234 Q260.1484,86.5234 260.4766,86.3984 Q260.6719,86.3203 260.8828,86.1016 Q261.0156,85.9688 261.0859,85.9297 Q261.1641,85.8906 261.2656,85.8906 Q261.4297,85.8906 261.5547,86.0234 Q261.6875,86.1484 261.6875,86.3203 Q261.6875,86.4922 261.5156,86.6953 Q261.2656,86.9844 260.8672,87.1484 Q260.3281,87.375 259.6797,87.375 Q258.9219,87.375 258.3203,87.0625 Q257.8281,86.8125 257.4844,86.2813 Q257.1406,85.7422 257.1406,85.1016 L257.1406,84.5234 Q257.1406,83.8594 257.4453,83.2891 Q257.7578,82.7109 258.3047,82.4063 Q258.8516,82.0938 259.4688,82.0938 Q259.8359,82.0938 260.1563,82.1797 Q260.4844,82.2578 260.7578,82.4375 Z " fill="#000000"/><text fill="#000000" font-family="sans-serif" font-size="7" lengthAdjust="spacing" textLength="96.5" x="269.625" y="87.3984">RegisterCollaboratorController</text><line style="stroke:#181818;stroke-width:0.25;" x1="121.5" x2="498" y1="92.5" y2="92.5"/><line style="stroke:#181818;stroke-width:0.25;" x1="121.5" x2="498" y1="96.5" y2="96.5"/><text fill="#000000" font-family="sans-serif" font-size="7" lengthAdjust="spacing" textLength="224.5" x="124" y="106.0537">+RegisterCollaboratorController(collaboratorRepository, jobRepository)</text><text fill="#000000" font-family="sans-serif" font-size="7" lengthAdjust="spacing" textLength="371.5" x="124" y="115.3643">+registerCollaborator(name, birthday, admissionDate, address, phoneNumber, email, idDocType, idNumber, jobName)</text><text fill="#000000" font-family="sans-serif" font-size="7" lengthAdjust="spacing" textLength="82" x="124" y="124.6748">-getJobByName(jobName)</text><text fill="#000000" font-family="sans-serif" font-size="7" lengthAdjust="spacing" textLength="44.5" x="124" y="133.9854">+getJobsList()</text></g><!--class CollaboratorRepository--><g id="elem_CollaboratorRepository"><rect codeLine="21" fill="#F1F1F1" height="51.9316" id="CollaboratorRepository" rx="1.25" ry="1.25" style="stroke:#181818;stroke-width:0.25;" width="359.5" x="3.5" y="268.5"/><ellipse cx="144.625" cy="276.5" fill="#ADD1B2" rx="5.5" ry="5.5" style="stroke:#181818;stroke-width:0.5;"/><path d="M146.0078,274.4375 Q146.0859,274.3281 146.1797,274.2734 Q146.2734,274.2188 146.3828,274.2188 Q146.5703,274.2188 146.6875,274.3516 Q146.8047,274.4766 146.8047,274.7813 L146.8047,275.5078 Q146.8047,275.8125 146.6875,275.9453 Q146.5703,276.0781 146.3828,276.0781 Q146.2109,276.0781 146.1094,275.9766 Q146.0078,275.8828 145.9531,275.625 Q145.9297,275.4453 145.8359,275.3516 Q145.6719,275.1641 145.3672,275.0547 Q145.0625,274.9453 144.75,274.9453 Q144.3672,274.9453 144.0469,275.1094 Q143.7344,275.2734 143.4844,275.6484 Q143.2422,276.0234 143.2422,276.5391 L143.2422,277.0859 Q143.2422,277.7031 143.6875,278.1172 Q144.1328,278.5234 144.9297,278.5234 Q145.3984,278.5234 145.7266,278.3984 Q145.9219,278.3203 146.1328,278.1016 Q146.2656,277.9688 146.3359,277.9297 Q146.4141,277.8906 146.5156,277.8906 Q146.6797,277.8906 146.8047,278.0234 Q146.9375,278.1484 146.9375,278.3203 Q146.9375,278.4922 146.7656,278.6953 Q146.5156,278.9844 146.1172,279.1484 Q145.5781,279.375 144.9297,279.375 Q144.1719,279.375 143.5703,279.0625 Q143.0781,278.8125 142.7344,278.2813 Q142.3906,277.7422 142.3906,277.1016 L142.3906,276.5234 Q142.3906,275.8594 142.6953,275.2891 Q143.0078,274.7109 143.5547,274.4063 Q144.1016,274.0938 144.7188,274.0938 Q145.0859,274.0938 145.4063,274.1797 Q145.7344,274.2578 146.0078,274.4375 Z " fill="#000000"/><text fill="#000000" font-family="sans-serif" font-size="7" lengthAdjust="spacing" textLength="73" x="154.875" y="279.3984">CollaboratorRepository</text><line style="stroke:#181818;stroke-width:0.25;" x1="4" x2="362.5" y1="284.5" y2="284.5"/><line style="stroke:#181818;stroke-width:0.25;" x1="4" x2="362.5" y1="288.5" y2="288.5"/><text fill="#000000" font-family="sans-serif" font-size="7" lengthAdjust="spacing" textLength="96" x="6.5" y="298.0537">-addCollaborator(collaborator)</text><text fill="#000000" font-family="sans-serif" font-size="7" lengthAdjust="spacing" textLength="108.5" x="6.5" y="307.3643">-validateCollaborator(collaborator)</text><text fill="#000000" font-family="sans-serif" font-size="7" lengthAdjust="spacing" textLength="353.5" x="6.5" y="316.6748">+registerCollaborator(name, birthday, admissionDate, address, phoneNumber, email, idDocType, idNumber, job)</text></g><!--class Collaborator--><g id="elem_Collaborator"><rect codeLine="27" fill="#F1F1F1" height="98.4844" id="Collaborator" rx="1.25" ry="1.25" style="stroke:#181818;stroke-width:0.25;" width="335.5" x="52.5" y="351"/><ellipse cx="198.625" cy="359" fill="#ADD1B2" rx="5.5" ry="5.5" style="stroke:#181818;stroke-width:0.5;"/><path d="M200.0078,356.9375 Q200.0859,356.8281 200.1797,356.7734 Q200.2734,356.7188 200.3828,356.7188 Q200.5703,356.7188 200.6875,356.8516 Q200.8047,356.9766 200.8047,357.2813 L200.8047,358.0078 Q200.8047,358.3125 200.6875,358.4453 Q200.5703,358.5781 200.3828,358.5781 Q200.2109,358.5781 200.1094,358.4766 Q200.0078,358.3828 199.9531,358.125 Q199.9297,357.9453 199.8359,357.8516 Q199.6719,357.6641 199.3672,357.5547 Q199.0625,357.4453 198.75,357.4453 Q198.3672,357.4453 198.0469,357.6094 Q197.7344,357.7734 197.4844,358.1484 Q197.2422,358.5234 197.2422,359.0391 L197.2422,359.5859 Q197.2422,360.2031 197.6875,360.6172 Q198.1328,361.0234 198.9297,361.0234 Q199.3984,361.0234 199.7266,360.8984 Q199.9219,360.8203 200.1328,360.6016 Q200.2656,360.4688 200.3359,360.4297 Q200.4141,360.3906 200.5156,360.3906 Q200.6797,360.3906 200.8047,360.5234 Q200.9375,360.6484 200.9375,360.8203 Q200.9375,360.9922 200.7656,361.1953 Q200.5156,361.4844 200.1172,361.6484 Q199.5781,361.875 198.9297,361.875 Q198.1719,361.875 197.5703,361.5625 Q197.0781,361.3125 196.7344,360.7813 Q196.3906,360.2422 196.3906,359.6016 L196.3906,359.0234 Q196.3906,358.3594 196.6953,357.7891 Q197.0078,357.2109 197.5547,356.9063 Q198.1016,356.5938 198.7188,356.5938 Q199.0859,356.5938 199.4063,356.6797 Q199.7344,356.7578 200.0078,356.9375 Z " fill="#000000"/><text fill="#000000" font-family="sans-serif" font-size="7" lengthAdjust="spacing" textLength="39" x="208.875" y="361.8984">Collaborator</text><line style="stroke:#181818;stroke-width:0.25;" x1="53" x2="387.5" y1="367" y2="367"/><text fill="#000000" font-family="sans-serif" font-size="7" lengthAdjust="spacing" textLength="40.5" x="55.5" y="376.5537">-String name</text><text fill="#000000" font-family="sans-serif" font-size="7" lengthAdjust="spacing" textLength="48.5" x="55.5" y="385.8643">-String birthday</text><text fill="#000000" font-family="sans-serif" font-size="7" lengthAdjust="spacing" textLength="69.5" x="55.5" y="395.1748">-String admissionDate</text><text fill="#000000" font-family="sans-serif" font-size="7" lengthAdjust="spacing" textLength="48.5" x="55.5" y="404.4854">-String address</text><text fill="#000000" font-family="sans-serif" font-size="7" lengthAdjust="spacing" textLength="56.5" x="55.5" y="413.7959">-int phoneNumber</text><text fill="#000000" font-family="sans-serif" font-size="7" lengthAdjust="spacing" textLength="39.5" x="55.5" y="423.1064">-String email</text><text fill="#000000" font-family="sans-serif" font-size="7" lengthAdjust="spacing" textLength="42" x="55.5" y="432.417">-int idNumber</text><line style="stroke:#181818;stroke-width:0.25;" x1="53" x2="387.5" y1="436.1738" y2="436.1738"/><text fill="#000000" font-family="sans-serif" font-size="7" lengthAdjust="spacing" textLength="329.5" x="55.5" y="445.7275">+Collaborator(name, birthday, admissionDate, address, phoneNumber, email, idDocType, idNumber, job)</text></g><!--class JobRepository--><g id="elem_JobRepository"><rect codeLine="38" fill="#F1F1F1" height="33.3105" id="JobRepository" rx="1.25" ry="1.25" style="stroke:#181818;stroke-width:0.25;" width="93" x="380.75" y="277.75"/><ellipse cx="402.65" cy="285.75" fill="#ADD1B2" rx="5.5" ry="5.5" style="stroke:#181818;stroke-width:0.5;"/><path d="M404.0328,283.6875 Q404.1109,283.5781 404.2047,283.5234 Q404.2984,283.4688 404.4078,283.4688 Q404.5953,283.4688 404.7125,283.6016 Q404.8297,283.7266 404.8297,284.0313 L404.8297,284.7578 Q404.8297,285.0625 404.7125,285.1953 Q404.5953,285.3281 404.4078,285.3281 Q404.2359,285.3281 404.1344,285.2266 Q404.0328,285.1328 403.9781,284.875 Q403.9547,284.6953 403.8609,284.6016 Q403.6969,284.4141 403.3922,284.3047 Q403.0875,284.1953 402.775,284.1953 Q402.3922,284.1953 402.0719,284.3594 Q401.7594,284.5234 401.5094,284.8984 Q401.2672,285.2734 401.2672,285.7891 L401.2672,286.3359 Q401.2672,286.9531 401.7125,287.3672 Q402.1578,287.7734 402.9547,287.7734 Q403.4234,287.7734 403.7516,287.6484 Q403.9469,287.5703 404.1578,287.3516 Q404.2906,287.2188 404.3609,287.1797 Q404.4391,287.1406 404.5406,287.1406 Q404.7047,287.1406 404.8297,287.2734 Q404.9625,287.3984 404.9625,287.5703 Q404.9625,287.7422 404.7906,287.9453 Q404.5406,288.2344 404.1422,288.3984 Q403.6031,288.625 402.9547,288.625 Q402.1969,288.625 401.5953,288.3125 Q401.1031,288.0625 400.7594,287.5313 Q400.4156,286.9922 400.4156,286.3516 L400.4156,285.7734 Q400.4156,285.1094 400.7203,284.5391 Q401.0328,283.9609 401.5797,283.6563 Q402.1266,283.3438 402.7438,283.3438 Q403.1109,283.3438 403.4313,283.4297 Q403.7594,283.5078 404.0328,283.6875 Z " fill="#000000"/><text fill="#000000" font-family="sans-serif" font-size="7" lengthAdjust="spacing" textLength="45" x="412.85" y="288.6484">JobRepository</text><line style="stroke:#181818;stroke-width:0.25;" x1="381.25" x2="473.25" y1="293.75" y2="293.75"/><line style="stroke:#181818;stroke-width:0.25;" x1="381.25" x2="473.25" y1="297.75" y2="297.75"/><text fill="#000000" font-family="sans-serif" font-size="7" lengthAdjust="spacing" textLength="87" x="383.75" y="307.3037">+getJobsByName(jobName)</text></g><!--class Job--><g id="elem_Job"><rect codeLine="42" fill="#F1F1F1" height="42.6211" id="Job" rx="1.25" ry="1.25" style="stroke:#181818;stroke-width:0.25;" width="46.5" x="347.5" y="484.75"/><ellipse cx="363.775" cy="492.75" fill="#ADD1B2" rx="5.5" ry="5.5" style="stroke:#181818;stroke-width:0.5;"/><path d="M365.1578,490.6875 Q365.2359,490.5781 365.3297,490.5234 Q365.4234,490.4688 365.5328,490.4688 Q365.7203,490.4688 365.8375,490.6016 Q365.9547,490.7266 365.9547,491.0313 L365.9547,491.7578 Q365.9547,492.0625 365.8375,492.1953 Q365.7203,492.3281 365.5328,492.3281 Q365.3609,492.3281 365.2594,492.2266 Q365.1578,492.1328 365.1031,491.875 Q365.0797,491.6953 364.9859,491.6016 Q364.8219,491.4141 364.5172,491.3047 Q364.2125,491.1953 363.9,491.1953 Q363.5172,491.1953 363.1969,491.3594 Q362.8844,491.5234 362.6344,491.8984 Q362.3922,492.2734 362.3922,492.7891 L362.3922,493.3359 Q362.3922,493.9531 362.8375,494.3672 Q363.2828,494.7734 364.0797,494.7734 Q364.5484,494.7734 364.8766,494.6484 Q365.0719,494.5703 365.2828,494.3516 Q365.4156,494.2188 365.4859,494.1797 Q365.5641,494.1406 365.6656,494.1406 Q365.8297,494.1406 365.9547,494.2734 Q366.0875,494.3984 366.0875,494.5703 Q366.0875,494.7422 365.9156,494.9453 Q365.6656,495.2344 365.2672,495.3984 Q364.7281,495.625 364.0797,495.625 Q363.3219,495.625 362.7203,495.3125 Q362.2281,495.0625 361.8844,494.5313 Q361.5406,493.9922 361.5406,493.3516 L361.5406,492.7734 Q361.5406,492.1094 361.8453,491.5391 Q362.1578,490.9609 362.7047,490.6563 Q363.2516,490.3438 363.8688,490.3438 Q364.2359,490.3438 364.5563,490.4297 Q364.8844,490.5078 365.1578,490.6875 Z " fill="#000000"/><text fill="#000000" font-family="sans-serif" font-size="7" lengthAdjust="spacing" textLength="11" x="372.725" y="495.6484">Job</text><line style="stroke:#181818;stroke-width:0.25;" x1="348" x2="393.5" y1="500.75" y2="500.75"/><text fill="#000000" font-family="sans-serif" font-size="7" lengthAdjust="spacing" textLength="40.5" x="350.5" y="510.3037">-String name</text><line style="stroke:#181818;stroke-width:0.25;" x1="348" x2="393.5" y1="514.0605" y2="514.0605"/><text fill="#000000" font-family="sans-serif" font-size="7" lengthAdjust="spacing" textLength="37.5" x="350.5" y="523.6143">+Job(name)</text></g><!--class HRM--><g id="elem_HRM"><rect codeLine="47" fill="#F1F1F1" height="42.6211" id="HRM" rx="1.25" ry="1.25" style="stroke:#181818;stroke-width:0.25;" width="47.5" x="371" y="3.5"/><ellipse cx="385.925" cy="11.5" fill="#ADD1B2" rx="5.5" ry="5.5" style="stroke:#181818;stroke-width:0.5;"/><path d="M387.3078,9.4375 Q387.3859,9.3281 387.4797,9.2734 Q387.5734,9.2188 387.6828,9.2188 Q387.8703,9.2188 387.9875,9.3516 Q388.1047,9.4766 388.1047,9.7813 L388.1047,10.5078 Q388.1047,10.8125 387.9875,10.9453 Q387.8703,11.0781 387.6828,11.0781 Q387.5109,11.0781 387.4094,10.9766 Q387.3078,10.8828 387.2531,10.625 Q387.2297,10.4453 387.1359,10.3516 Q386.9719,10.1641 386.6672,10.0547 Q386.3625,9.9453 386.05,9.9453 Q385.6672,9.9453 385.3469,10.1094 Q385.0344,10.2734 384.7844,10.6484 Q384.5422,11.0234 384.5422,11.5391 L384.5422,12.0859 Q384.5422,12.7031 384.9875,13.1172 Q385.4328,13.5234 386.2297,13.5234 Q386.6984,13.5234 387.0266,13.3984 Q387.2219,13.3203 387.4328,13.1016 Q387.5656,12.9688 387.6359,12.9297 Q387.7141,12.8906 387.8156,12.8906 Q387.9797,12.8906 388.1047,13.0234 Q388.2375,13.1484 388.2375,13.3203 Q388.2375,13.4922 388.0656,13.6953 Q387.8156,13.9844 387.4172,14.1484 Q386.8781,14.375 386.2297,14.375 Q385.4719,14.375 384.8703,14.0625 Q384.3781,13.8125 384.0344,13.2813 Q383.6906,12.7422 383.6906,12.1016 L383.6906,11.5234 Q383.6906,10.8594 383.9953,10.2891 Q384.3078,9.7109 384.8547,9.4063 Q385.4016,9.0938 386.0188,9.0938 Q386.3859,9.0938 386.7063,9.1797 Q387.0344,9.2578 387.3078,9.4375 Z " fill="#000000"/><text fill="#000000" font-family="sans-serif" font-size="7" lengthAdjust="spacing" textLength="15" x="394.575" y="14.3984">HRM</text><line style="stroke:#181818;stroke-width:0.25;" x1="371.5" x2="418" y1="19.5" y2="19.5"/><text fill="#000000" font-family="sans-serif" font-size="7" lengthAdjust="spacing" textLength="20" x="374" y="29.0537">-name</text><line style="stroke:#181818;stroke-width:0.25;" x1="371.5" x2="418" y1="32.8105" y2="32.8105"/><text fill="#000000" font-family="sans-serif" font-size="7" lengthAdjust="spacing" textLength="41.5" x="374" y="42.3643">+HRM(name)</text></g><!--class Repositories--><g id="elem_Repositories"><rect codeLine="52" fill="#F1F1F1" height="61.2422" id="Repositories" rx="1.25" ry="1.25" style="stroke:#181818;stroke-width:0.25;" width="98" x="260.75" y="177"/><ellipse cx="287.875" cy="185" fill="#ADD1B2" rx="5.5" ry="5.5" style="stroke:#181818;stroke-width:0.5;"/><path d="M289.2578,182.9375 Q289.3359,182.8281 289.4297,182.7734 Q289.5234,182.7188 289.6328,182.7188 Q289.8203,182.7188 289.9375,182.8516 Q290.0547,182.9766 290.0547,183.2813 L290.0547,184.0078 Q290.0547,184.3125 289.9375,184.4453 Q289.8203,184.5781 289.6328,184.5781 Q289.4609,184.5781 289.3594,184.4766 Q289.2578,184.3828 289.2031,184.125 Q289.1797,183.9453 289.0859,183.8516 Q288.9219,183.6641 288.6172,183.5547 Q288.3125,183.4453 288,183.4453 Q287.6172,183.4453 287.2969,183.6094 Q286.9844,183.7734 286.7344,184.1484 Q286.4922,184.5234 286.4922,185.0391 L286.4922,185.5859 Q286.4922,186.2031 286.9375,186.6172 Q287.3828,187.0234 288.1797,187.0234 Q288.6484,187.0234 288.9766,186.8984 Q289.1719,186.8203 289.3828,186.6016 Q289.5156,186.4688 289.5859,186.4297 Q289.6641,186.3906 289.7656,186.3906 Q289.9297,186.3906 290.0547,186.5234 Q290.1875,186.6484 290.1875,186.8203 Q290.1875,186.9922 290.0156,187.1953 Q289.7656,187.4844 289.3672,187.6484 Q288.8281,187.875 288.1797,187.875 Q287.4219,187.875 286.8203,187.5625 Q286.3281,187.3125 285.9844,186.7813 Q285.6406,186.2422 285.6406,185.6016 L285.6406,185.0234 Q285.6406,184.3594 285.9453,183.7891 Q286.2578,183.2109 286.8047,182.9063 Q287.3516,182.5938 287.9688,182.5938 Q288.3359,182.5938 288.6563,182.6797 Q288.9844,182.7578 289.2578,182.9375 Z " fill="#000000"/><text fill="#000000" font-family="sans-serif" font-size="7" lengthAdjust="spacing" textLength="39.5" x="298.125" y="187.8984">Repositories</text><line style="stroke:#181818;stroke-width:0.25;" x1="261.25" x2="358.25" y1="193" y2="193"/><line style="stroke:#181818;stroke-width:0.25;" x1="261.25" x2="358.25" y1="197" y2="197"/><text fill="#000000" font-family="sans-serif" font-size="7" lengthAdjust="spacing" textLength="47" x="263.75" y="206.5537">-Repositories()</text><text fill="#000000" font-family="sans-serif" font-size="7" lengthAdjust="spacing" textLength="91" x="263.75" y="215.8643">+getInstance() : Repositories</text><text fill="#000000" font-family="sans-serif" font-size="7" lengthAdjust="spacing" textLength="64" x="263.75" y="225.1748">+getJobRepository()</text><text fill="#000000" font-family="sans-serif" font-size="7" lengthAdjust="spacing" textLength="92" x="263.75" y="234.4854">+getCollaboratorRepository()</text></g><!--class IdDocType--><g id="elem_IdDocType"><rect codeLine="59" fill="#F1F1F1" height="51.9316" id="IdDocType" rx="1.25" ry="1.25" style="stroke:#181818;stroke-width:0.25;" width="78.5" x="181" y="480"/><ellipse cx="201.325" cy="488" fill="#EB937F" rx="5.5" ry="5.5" style="stroke:#181818;stroke-width:0.5;"/><path d="M200.7547,488.3984 L200.7547,489.6484 L202.9188,489.6484 L202.9188,489.1875 Q202.9188,488.8828 203.0359,488.75 Q203.1609,488.6172 203.3484,488.6172 Q203.5359,488.6172 203.6531,488.75 Q203.7703,488.8828 203.7703,489.1875 L203.7703,490.5 L199.7703,490.5 Q199.4578,490.5 199.325,490.3828 Q199.2,490.2656 199.2,490.0703 Q199.2,489.8828 199.3328,489.7656 Q199.4656,489.6484 199.7703,489.6484 L199.9031,489.6484 L199.9031,486.3203 L199.7703,486.3203 Q199.4578,486.3203 199.325,486.2031 Q199.2,486.0859 199.2,485.8906 Q199.2,485.7031 199.325,485.5859 Q199.4578,485.4688 199.7703,485.4688 L203.5828,485.4688 L203.5828,486.7656 Q203.5828,487.0703 203.4656,487.2031 Q203.3563,487.3281 203.1609,487.3281 Q202.9734,487.3281 202.8563,487.2031 Q202.7391,487.0703 202.7391,486.7656 L202.7391,486.3203 L200.7547,486.3203 L200.7547,487.5469 L201.4969,487.5469 Q201.4969,487.2188 201.5594,487.125 Q201.6922,486.9219 201.9266,486.9219 Q202.1141,486.9219 202.2313,487.0547 Q202.3484,487.1797 202.3484,487.4844 L202.3484,488.4688 Q202.3484,488.7422 202.2859,488.8359 Q202.1531,489.0313 201.9266,489.0313 Q201.6922,489.0313 201.5594,488.8281 Q201.4969,488.7344 201.4969,488.3984 L200.7547,488.3984 Z " fill="#000000"/><text fill="#000000" font-family="sans-serif" font-size="7" lengthAdjust="spacing" textLength="34" x="211.175" y="490.8984">IdDocType</text><line style="stroke:#181818;stroke-width:0.25;" x1="181.5" x2="259" y1="496" y2="496"/><text fill="#000000" font-family="sans-serif" font-size="7" lengthAdjust="spacing" textLength="72.5" x="184" y="505.5537">+TAXPAYER_NUMBER</text><text fill="#000000" font-family="sans-serif" font-size="7" lengthAdjust="spacing" textLength="53" x="184" y="514.8643">+CITIZEN_CARD</text><text fill="#000000" font-family="sans-serif" font-size="7" lengthAdjust="spacing" textLength="41.5" x="184" y="524.1748">+PASSPORT</text><line style="stroke:#181818;stroke-width:0.25;" x1="181.5" x2="259" y1="527.9316" y2="527.9316"/></g><!--link RegisterCollaboratorUI to RegisterCollaboratorController--><g id="link_RegisterCollaboratorUI_RegisterCollaboratorController"><path codeLine="65" d="M309.75,36.89 C309.75,47.205 309.75,59.715 309.75,73.475 " fill="none" id="RegisterCollaboratorUI-to-RegisterCollaboratorController" style="stroke:#181818;stroke-width:0.5;stroke-dasharray:7.0,7.0;"/><polygon fill="#181818" points="309.75,76.475,311.75,71.975,309.75,73.975,307.75,71.975,309.75,76.475" style="stroke:#181818;stroke-width:0.5;"/></g><!--link RegisterCollaboratorController to Repositories--><g id="link_RegisterCollaboratorController_Repositories"><path codeLine="66" d="M309.75,137.625 C309.75,150.09 309.75,161.52 309.75,173.98 " fill="none" id="RegisterCollaboratorController-to-Repositories" style="stroke:#181818;stroke-width:0.5;stroke-dasharray:7.0,7.0;"/><polygon fill="#181818" points="309.75,176.98,311.75,172.48,309.75,174.48,307.75,172.48,309.75,176.98" style="stroke:#181818;stroke-width:0.5;"/><text fill="#000000" font-family="sans-serif" font-size="6.5" lengthAdjust="spacing" textLength="33.5" x="310.25" y="160.0142">repositories</text></g><!--link RegisterCollaboratorController to CollaboratorRepository--><g id="link_RegisterCollaboratorController_CollaboratorRepository"><path codeLine="67" d="M256.085,137.58 C222.57,156.365 185.75,177 185.75,177 C185.75,177 184.594,231.0407 183.859,265.4707 " fill="none" id="RegisterCollaboratorController-to-CollaboratorRepository" style="stroke:#181818;stroke-width:0.5;stroke-dasharray:7.0,7.0;"/><polygon fill="#181818" points="183.795,268.47,185.8906,264.0137,183.8484,265.9706,181.8915,263.9283,183.795,268.47" style="stroke:#181818;stroke-width:0.5;"/><text fill="#000000" font-family="sans-serif" font-size="6.5" lengthAdjust="spacing" textLength="65.5" x="186.25" y="210.2642">CollaboratorRepository</text></g><!--link RegisterCollaboratorController to JobRepository--><g id="link_RegisterCollaboratorController_JobRepository"><path codeLine="68" d="M351.95,137.58 C378.3,156.365 407.25,177 407.25,177 C407.25,177 418.4695,242.6279 423.9645,274.7729 " fill="none" id="RegisterCollaboratorController-to-JobRepository" style="stroke:#181818;stroke-width:0.5;stroke-dasharray:7.0,7.0;"/><polygon fill="#181818" points="424.47,277.73,425.6832,272.9573,424.0488,275.2657,421.7403,273.6313,424.47,277.73" style="stroke:#181818;stroke-width:0.5;"/><text fill="#000000" font-family="sans-serif" font-size="6.5" lengthAdjust="spacing" textLength="41" x="417.75" y="210.2642">JobRepository</text></g><!--link Repositories to Repositories--><g id="link_Repositories_Repositories"><path codeLine="69" d="M358.76,199.36 C368.935,200.215 376.25,202.93 376.25,207.5 C376.25,212.07 371.9245,214.5338 361.7495,215.3888 " fill="none" id="Repositories-to-Repositories" style="stroke:#181818;stroke-width:0.5;"/><polygon fill="#181818" points="358.76,215.64,363.4117,217.2562,361.2512,215.4307,363.0767,213.2702,358.76,215.64" style="stroke:#181818;stroke-width:0.5;"/><text fill="#000000" font-family="sans-serif" font-size="6.5" lengthAdjust="spacing" textLength="24.5" x="379.25" y="210.2642">instance</text></g><!--link Repositories to CollaboratorRepository--><g id="link_Repositories_CollaboratorRepository"><path codeLine="70" d="M265.505,238.08 C250.97,247.96 237.4408,257.1581 223.4408,266.6781 " fill="none" id="Repositories-to-CollaboratorRepository" style="stroke:#181818;stroke-width:0.5;"/><polygon fill="#181818" points="220.96,268.365,225.8058,267.4885,223.0273,266.9592,223.5565,264.1808,220.96,268.365" style="stroke:#181818;stroke-width:0.5;"/><text fill="#000000" font-family="sans-serif" font-size="6.5" lengthAdjust="spacing" textLength="3.5" x="222.2921" y="262.8105">1</text></g><!--link Repositories to JobRepository--><g id="link_Repositories_JobRepository"><path codeLine="71" d="M350.845,238.08 C369.045,251.4 387.3141,264.7732 402.5691,275.9382 " fill="none" id="Repositories-to-JobRepository" style="stroke:#181818;stroke-width:0.5;"/><polygon fill="#181818" points="404.99,277.71,402.5399,273.4384,402.9726,276.2335,400.1775,276.6662,404.99,277.71" style="stroke:#181818;stroke-width:0.5;"/><text fill="#000000" font-family="sans-serif" font-size="6.5" lengthAdjust="spacing" textLength="3.5" x="396.763" y="272.1149">1</text></g><!--link CollaboratorRepository to Collaborator--><g id="link_CollaboratorRepository_Collaborator"><path codeLine="72" d="M192.3,320.625 C195.53,329.77 198.2907,337.5763 201.9807,348.0213 " fill="none" id="CollaboratorRepository-to-Collaborator" style="stroke:#181818;stroke-width:0.5;"/><polygon fill="#181818" points="202.98,350.85,203.3668,345.9408,202.1472,348.4928,199.5953,347.2732,202.98,350.85" style="stroke:#181818;stroke-width:0.5;"/><text fill="#000000" font-family="sans-serif" font-size="6.5" lengthAdjust="spacing" textLength="2.5" x="199.1199" y="345.4302">*</text></g><!--link JobRepository to Job--><g id="link_JobRepository_Job"><path codeLine="73" d="M424.015,311.39 C416.165,351.15 396.75,449.5 396.75,449.5 C396.75,449.5 389.0885,466.0041 381.6935,481.9291 " fill="none" id="JobRepository-to-Job" style="stroke:#181818;stroke-width:0.5;"/><polygon fill="#181818" points="380.43,484.65,384.1392,481.4109,381.4829,482.3825,380.5113,479.7262,380.43,484.65" style="stroke:#181818;stroke-width:0.5;"/><text fill="#000000" font-family="sans-serif" font-size="6.5" lengthAdjust="spacing" textLength="2.5" x="379.2735" y="479.0861">*</text></g><!--link Collaborator to Job--><g id="link_Collaborator_Job"><path codeLine="74" d="M290.435,449.6 C310.97,463.895 329.5526,476.8264 344.9426,487.5364 " fill="none" id="Collaborator-to-Job" style="stroke:#181818;stroke-width:0.5;"/><polygon fill="#181818" points="347.405,489.25,344.8538,485.038,345.353,487.822,342.569,488.3212,347.405,489.25" style="stroke:#181818;stroke-width:0.5;"/><text fill="#000000" font-family="sans-serif" font-size="6.5" lengthAdjust="spacing" textLength="3.5" x="340.0623" y="484.5504">1</text></g><!--link Collaborator to IdDocType--><g id="link_Collaborator_IdDocType"><path codeLine="75" d="M220.25,449.6 C220.25,460.105 220.25,467.805 220.25,476.99 " fill="none" id="Collaborator-to-IdDocType" style="stroke:#181818;stroke-width:0.5;"/><polygon fill="#181818" points="220.25,479.99,222.25,475.49,220.25,477.49,218.25,475.49,220.25,479.99" style="stroke:#181818;stroke-width:0.5;"/><text fill="#000000" font-family="sans-serif" font-size="6.5" lengthAdjust="spacing" textLength="3.5" x="216.5148" y="474.4523">1</text></g><!--SRC=[lLJ1Rjim3BthAuXUuYn9iLrp690c0UfYpG8d1RPT2jbc7RMoP4ZAXcpOlq-ExLZAxAQd-cIIZ-JZCys1Vc6Ye8hca4iXavsIEO9HUoHjfA392yrmOmuSGM5YgCYu2z0xcifVJ6JmHBbs8vm9D8S2eP3yK1faq16KoaZYP2MSQZqpHh5uRp1CfDYmtmWV2HbmV39W92YMxGoahAJ3f23ac0CHPamRL7F9EOsbeaQgXn3-aB-l8UPI66LjL1O9zXczZWeInnrX8JMpBuSnFCkuDOTLATLHAX0qnp74J9bTIcqYJNEcjHraGGsMPgfGwp4KEobmjSzZL6F0d38-1fOkPBArkfMlJSnsNjcQLSz9XkPEnZU7qXLueL4Lqbyifs3OoZBldAYMOsBvUFJT-UkMFobdgIL_0VT-SlGCruoqiTjb5xRix3aQ4fxJutCMELAhV4mObw87FB9jOGtLIfJt5EFEtT5ct-kjEDyODwbFk96D7JaxyDlele4xGEiz1vwOCDId3DSPr6i3bc4ej3qz2GP3c7gW5k8Dv-PsxtVr1w3Ovn0soZMIm7RsRJtxlemULm_tDykezix3RVXZkNgSpw95xLhFDflrrsXRrkevGDVNdozS7dBXC5KLsfcdzX8x2hmXkrk2QO__BHKzjQU-IRnFEvcSisVrn_mVT_NfgfzJ1zPlstF8Zk0FVc7Y_meDn7gzAcwZxi1fTyW_]--></g></svg>