<?xml version="1.0" encoding="us-ascii" standalone="no"?><svg xmlns="http://www.w3.org/2000/svg" xmlns:xlink="http://www.w3.org/1999/xlink" contentStyleType="text/css" height="628.5px" preserveAspectRatio="none" style="width:1232px;height:628px;background:#FFFFFF;" version="1.1" viewBox="0 0 1232 628" width="1232px" zoomAndPan="magnify"><defs/><g><rect fill="#FFFFFF" height="513.0059" style="stroke:#181818;stroke-width:0.5;" width="5" x="30.5" y="56.1211"/><rect fill="#FFFFFF" height="37.4561" style="stroke:#181818;stroke-width:0.5;" width="5" x="185.5" y="67.7666"/><rect fill="#FFFFFF" height="140.8096" style="stroke:#181818;stroke-width:0.5;" width="5" x="185.5" y="120.8682"/><rect fill="#FFFFFF" height="15.6455" style="stroke:#181818;stroke-width:0.5;" width="5" x="185.5" y="277.3232"/><rect fill="#FFFFFF" height="260.5127" style="stroke:#181818;stroke-width:0.5;" width="5" x="185.5" y="308.6143"/><rect fill="#FFFFFF" height="109.5186" style="stroke:#181818;stroke-width:0.5;" width="5" x="528" y="136.5137"/><rect fill="#FFFFFF" height="229.2217" style="stroke:#181818;stroke-width:0.5;" width="5" x="528" y="324.2598"/><rect fill="#FFFFFF" height="15.6455" style="stroke:#181818;stroke-width:0.5;" width="5" x="610.75" y="152.1592"/><rect fill="#FFFFFF" height="15.6455" style="stroke:#181818;stroke-width:0.5;" width="5" x="610.75" y="339.9053"/><rect fill="#FFFFFF" height="15.6455" style="stroke:#181818;stroke-width:0.5;" width="5" x="664.25" y="183.4502"/><rect fill="#FFFFFF" height="15.6455" style="stroke:#181818;stroke-width:0.5;" width="5" x="664.25" y="371.1963"/><rect fill="#FFFFFF" height="15.6455" style="stroke:#181818;stroke-width:0.5;" width="5" x="719.75" y="214.7412"/><rect fill="#FFFFFF" height="135.3486" style="stroke:#181818;stroke-width:0.5;" width="5" x="870.5" y="402.4873"/><rect fill="#FFFFFF" height="65.4365" style="stroke:#181818;stroke-width:0.5;" width="5" x="873" y="453.2539"/><rect fill="#FFFFFF" height="21.1455" style="stroke:#181818;stroke-width:0.5;" width="5" x="875.5" y="475.3994"/><line style="stroke:#181818;stroke-width:0.25;stroke-dasharray:5.0,5.0;" x1="33" x2="33" y1="51.1211" y2="578.127"/><line style="stroke:#181818;stroke-width:0.25;stroke-dasharray:5.0,5.0;" x1="187.75" x2="187.75" y1="51.1211" y2="578.127"/><line style="stroke:#181818;stroke-width:0.25;stroke-dasharray:5.0,5.0;" x1="530.5" x2="530.5" y1="87.6719" y2="578.127"/><line style="stroke:#181818;stroke-width:0.25;stroke-dasharray:5.0,5.0;" x1="613" x2="613" y1="51.1211" y2="578.127"/><line style="stroke:#181818;stroke-width:0.25;stroke-dasharray:5.0,5.0;" x1="666.5" x2="666.5" y1="51.1211" y2="578.127"/><line style="stroke:#181818;stroke-width:0.25;stroke-dasharray:5.0,5.0;" x1="722" x2="722" y1="51.1211" y2="578.127"/><line style="stroke:#181818;stroke-width:0.25;stroke-dasharray:5.0,5.0;" x1="872.75" x2="872.75" y1="51.1211" y2="578.127"/><line style="stroke:#181818;stroke-width:0.25;stroke-dasharray:5.0,5.0;" x1="1205" x2="1205" y1="427.0479" y2="578.127"/><text fill="#000000" font-family="sans-serif" font-size="7" lengthAdjust="spacing" textLength="58" x="2.5" y="40.0537">Human Resources</text><text fill="#000000" font-family="sans-serif" font-size="7" lengthAdjust="spacing" textLength="28" x="17.5" y="49.3643">Manager</text><ellipse cx="33" cy="6.75" fill="#E3E3E3" rx="4" ry="4" style="stroke:#181818;stroke-width:0.25;"/><path d="M33,10.75 L33,24.25 M26.5,14.75 L39.5,14.75 M33,24.25 L26.5,31.75 M33,24.25 L39.5,31.75 " fill="none" style="stroke:#181818;stroke-width:0.25;"/><text fill="#000000" font-family="sans-serif" font-size="7" lengthAdjust="spacing" textLength="58" x="2.5" y="585.1807">Human Resources</text><text fill="#000000" font-family="sans-serif" font-size="7" lengthAdjust="spacing" textLength="28" x="17.5" y="594.4912">Manager</text><ellipse cx="33" cy="600.498" fill="#E3E3E3" rx="4" ry="4" style="stroke:#181818;stroke-width:0.25;"/><path d="M33,604.498 L33,617.998 M26.5,608.498 L39.5,608.498 M33,617.998 L26.5,625.498 M33,617.998 L39.5,625.498 " fill="none" style="stroke:#181818;stroke-width:0.25;"/><rect fill="#E3E3E3" height="16.3105" rx="1.25" ry="1.25" style="stroke:#181818;stroke-width:0.25;" width="80.5" x="147.75" y="34.3105"/><text fill="#000000" font-family="sans-serif" font-size="7" lengthAdjust="spacing" textLength="73.5" x="151.25" y="45.3643">:RegisterCollaboratorUI</text><rect fill="#E3E3E3" height="16.3105" rx="1.25" ry="1.25" style="stroke:#181818;stroke-width:0.25;" width="80.5" x="147.75" y="577.627"/><text fill="#000000" font-family="sans-serif" font-size="7" lengthAdjust="spacing" textLength="73.5" x="151.25" y="588.6807">:RegisterCollaboratorUI</text><rect fill="#E3E3E3" height="16.3105" rx="1.25" ry="1.25" style="stroke:#181818;stroke-width:0.25;" width="107" x="477" y="577.627"/><text fill="#000000" font-family="sans-serif" font-size="7" lengthAdjust="spacing" textLength="100" x="480.5" y="588.6807">:RegisterCollaboratorControlller</text><rect fill="#E3E3E3" height="16.3105" rx="1.25" ry="1.25" style="stroke:#181818;stroke-width:0.25;" width="48.5" x="589" y="34.3105"/><text fill="#000000" font-family="sans-serif" font-size="7" lengthAdjust="spacing" textLength="41.5" x="592.5" y="45.3643">:Repositories</text><rect fill="#E3E3E3" height="16.3105" rx="1.25" ry="1.25" style="stroke:#181818;stroke-width:0.25;" width="48.5" x="589" y="577.627"/><text fill="#000000" font-family="sans-serif" font-size="7" lengthAdjust="spacing" textLength="41.5" x="592.5" y="588.6807">:Repositories</text><rect fill="#E3E3E3" height="25.6211" rx="1.25" ry="1.25" style="stroke:#181818;stroke-width:0.25;" width="48.5" x="642.5" y="25"/><text fill="#000000" font-family="sans-serif" font-size="7" lengthAdjust="spacing" textLength="37" x="648.25" y="36.0537">repositories</text><text fill="#000000" font-family="sans-serif" font-size="7" lengthAdjust="spacing" textLength="41.5" x="646" y="45.3643">:Repositories</text><rect fill="#E3E3E3" height="25.6211" rx="1.25" ry="1.25" style="stroke:#181818;stroke-width:0.25;" width="48.5" x="642.5" y="577.627"/><text fill="#000000" font-family="sans-serif" font-size="7" lengthAdjust="spacing" textLength="37" x="648.25" y="588.6807">repositories</text><text fill="#000000" font-family="sans-serif" font-size="7" lengthAdjust="spacing" textLength="41.5" x="646" y="597.9912">:Repositories</text><rect fill="#E3E3E3" height="25.6211" rx="1.25" ry="1.25" style="stroke:#181818;stroke-width:0.25;" width="52.5" x="696" y="25"/><text fill="#000000" font-family="sans-serif" font-size="7" lengthAdjust="spacing" textLength="45.5" x="699.5" y="36.0537">jobRepository:</text><text fill="#000000" font-family="sans-serif" font-size="7" lengthAdjust="spacing" textLength="43.5" x="700.5" y="45.3643">jobRepository</text><rect fill="#E3E3E3" height="25.6211" rx="1.25" ry="1.25" style="stroke:#181818;stroke-width:0.25;" width="52.5" x="696" y="577.627"/><text fill="#000000" font-family="sans-serif" font-size="7" lengthAdjust="spacing" textLength="45.5" x="699.5" y="588.6807">jobRepository:</text><text fill="#000000" font-family="sans-serif" font-size="7" lengthAdjust="spacing" textLength="43.5" x="700.5" y="597.9912">jobRepository</text><rect fill="#E3E3E3" height="25.6211" rx="1.25" ry="1.25" style="stroke:#181818;stroke-width:0.25;" width="80.5" x="832.75" y="25"/><text fill="#000000" font-family="sans-serif" font-size="7" lengthAdjust="spacing" textLength="73.5" x="836.25" y="36.0537">collaboratorRepository:</text><text fill="#000000" font-family="sans-serif" font-size="7" lengthAdjust="spacing" textLength="71.5" x="837.25" y="45.3643">collaboratorRepository</text><rect fill="#E3E3E3" height="25.6211" rx="1.25" ry="1.25" style="stroke:#181818;stroke-width:0.25;" width="80.5" x="832.75" y="577.627"/><text fill="#000000" font-family="sans-serif" font-size="7" lengthAdjust="spacing" textLength="73.5" x="836.25" y="588.6807">collaboratorRepository:</text><text fill="#000000" font-family="sans-serif" font-size="7" lengthAdjust="spacing" textLength="71.5" x="837.25" y="597.9912">collaboratorRepository</text><rect fill="#E3E3E3" height="25.6211" rx="1.25" ry="1.25" style="stroke:#181818;stroke-width:0.25;" width="48" x="1181" y="577.627"/><text fill="#000000" font-family="sans-serif" font-size="7" lengthAdjust="spacing" textLength="37.5" x="1186.25" y="588.6807">collaborator</text><text fill="#000000" font-family="sans-serif" font-size="7" lengthAdjust="spacing" textLength="41" x="1184.5" y="597.9912">:Collaborator</text><rect fill="#FFFFFF" height="513.0059" style="stroke:#181818;stroke-width:0.5;" width="5" x="30.5" y="56.1211"/><rect fill="#FFFFFF" height="37.4561" style="stroke:#181818;stroke-width:0.5;" width="5" x="185.5" y="67.7666"/><rect fill="#FFFFFF" height="140.8096" style="stroke:#181818;stroke-width:0.5;" width="5" x="185.5" y="120.8682"/><rect fill="#FFFFFF" height="15.6455" style="stroke:#181818;stroke-width:0.5;" width="5" x="185.5" y="277.3232"/><rect fill="#FFFFFF" height="260.5127" style="stroke:#181818;stroke-width:0.5;" width="5" x="185.5" y="308.6143"/><rect fill="#FFFFFF" height="109.5186" style="stroke:#181818;stroke-width:0.5;" width="5" x="528" y="136.5137"/><rect fill="#FFFFFF" height="229.2217" style="stroke:#181818;stroke-width:0.5;" width="5" x="528" y="324.2598"/><rect fill="#FFFFFF" height="15.6455" style="stroke:#181818;stroke-width:0.5;" width="5" x="610.75" y="152.1592"/><rect fill="#FFFFFF" height="15.6455" style="stroke:#181818;stroke-width:0.5;" width="5" x="610.75" y="339.9053"/><rect fill="#FFFFFF" height="15.6455" style="stroke:#181818;stroke-width:0.5;" width="5" x="664.25" y="183.4502"/><rect fill="#FFFFFF" height="15.6455" style="stroke:#181818;stroke-width:0.5;" width="5" x="664.25" y="371.1963"/><rect fill="#FFFFFF" height="15.6455" style="stroke:#181818;stroke-width:0.5;" width="5" x="719.75" y="214.7412"/><rect fill="#FFFFFF" height="135.3486" style="stroke:#181818;stroke-width:0.5;" width="5" x="870.5" y="402.4873"/><rect fill="#FFFFFF" height="65.4365" style="stroke:#181818;stroke-width:0.5;" width="5" x="873" y="453.2539"/><rect fill="#FFFFFF" height="21.1455" style="stroke:#181818;stroke-width:0.5;" width="5" x="875.5" y="475.3994"/><polygon fill="#181818" points="179.5,65.7666,184.5,67.7666,179.5,69.7666,181.5,67.7666" style="stroke:#181818;stroke-width:0.5;"/><line style="stroke:#181818;stroke-width:0.5;" x1="35.5" x2="182.5" y1="67.7666" y2="67.7666"/><text fill="#000000" font-family="sans-serif" font-size="6.5" font-weight="bold" lengthAdjust="spacing" textLength="3.5" x="39" y="65.1353">1</text><text fill="#000000" font-family="sans-serif" font-size="6.5" lengthAdjust="spacing" textLength="99.5" x="44.5" y="65.1353">asks to register a new collaborator</text><polygon fill="#181818" points="471,81.4121,476,83.4121,471,85.4121,473,83.4121" style="stroke:#181818;stroke-width:0.5;"/><line style="stroke:#181818;stroke-width:0.5;" x1="190.5" x2="474" y1="83.4121" y2="83.4121"/><text fill="#000000" font-family="sans-serif" font-size="6.5" font-weight="bold" lengthAdjust="spacing" textLength="3.5" x="194" y="80.7808">2</text><text fill="#000000" font-family="sans-serif" font-size="6.5" lengthAdjust="spacing" textLength="18" x="199.5" y="80.7808">create</text><rect fill="#E3E3E3" height="16.3105" rx="1.25" ry="1.25" style="stroke:#181818;stroke-width:0.25;" width="107" x="477" y="71.7666"/><text fill="#000000" font-family="sans-serif" font-size="7" lengthAdjust="spacing" textLength="100" x="480.5" y="82.8203">:RegisterCollaboratorControlller</text><polygon fill="#181818" points="41,103.2227,36,105.2227,41,107.2227,39,105.2227" style="stroke:#181818;stroke-width:0.5;"/><line style="stroke:#181818;stroke-width:0.5;stroke-dasharray:2.0,2.0;" x1="38" x2="187.5" y1="105.2227" y2="105.2227"/><text fill="#000000" font-family="sans-serif" font-size="6.5" font-weight="bold" lengthAdjust="spacing" textLength="3.5" x="44" y="102.5913">3</text><text fill="#000000" font-family="sans-serif" font-size="6.5" lengthAdjust="spacing" textLength="39.5" x="49.5" y="102.5913">requests data</text><polygon fill="#181818" points="179.5,118.8682,184.5,120.8682,179.5,122.8682,181.5,120.8682" style="stroke:#181818;stroke-width:0.5;"/><line style="stroke:#181818;stroke-width:0.5;" x1="35.5" x2="182.5" y1="120.8682" y2="120.8682"/><text fill="#000000" font-family="sans-serif" font-size="6.5" font-weight="bold" lengthAdjust="spacing" textLength="3.5" x="39" y="118.2368">4</text><text fill="#000000" font-family="sans-serif" font-size="6.5" lengthAdjust="spacing" textLength="84" x="44.5" y="118.2368">types/selects requested data</text><polygon fill="#181818" points="522,134.5137,527,136.5137,522,138.5137,524,136.5137" style="stroke:#181818;stroke-width:0.5;"/><line style="stroke:#181818;stroke-width:0.5;" x1="190.5" x2="525" y1="136.5137" y2="136.5137"/><text fill="#000000" font-family="sans-serif" font-size="6.5" font-weight="bold" lengthAdjust="spacing" textLength="3.5" x="194" y="133.8823">5</text><text fill="#000000" font-family="sans-serif" font-size="6.5" lengthAdjust="spacing" textLength="26.5" x="199.5" y="133.8823">getJobs()</text><polygon fill="#181818" points="604.75,150.1592,609.75,152.1592,604.75,154.1592,606.75,152.1592" style="stroke:#181818;stroke-width:0.5;"/><line style="stroke:#181818;stroke-width:0.5;" x1="533" x2="607.75" y1="152.1592" y2="152.1592"/><text fill="#000000" font-family="sans-serif" font-size="6.5" font-weight="bold" lengthAdjust="spacing" textLength="3.5" x="536.5" y="149.5278">6</text><text fill="#000000" font-family="sans-serif" font-size="6.5" lengthAdjust="spacing" textLength="37.5" x="542" y="149.5278">getInstance()</text><polygon fill="#181818" points="538.5,165.8047,533.5,167.8047,538.5,169.8047,536.5,167.8047" style="stroke:#181818;stroke-width:0.5;"/><line style="stroke:#181818;stroke-width:0.5;stroke-dasharray:2.0,2.0;" x1="535.5" x2="612.75" y1="167.8047" y2="167.8047"/><text fill="#000000" font-family="sans-serif" font-size="6.5" font-weight="bold" lengthAdjust="spacing" textLength="3.5" x="541.5" y="165.1733">7</text><text fill="#000000" font-family="sans-serif" font-size="6.5" lengthAdjust="spacing" textLength="33.5" x="547" y="165.1733">repositories</text><polygon fill="#181818" points="658.25,181.4502,663.25,183.4502,658.25,185.4502,660.25,183.4502" style="stroke:#181818;stroke-width:0.5;"/><line style="stroke:#181818;stroke-width:0.5;" x1="533" x2="661.25" y1="183.4502" y2="183.4502"/><text fill="#000000" font-family="sans-serif" font-size="6.5" font-weight="bold" lengthAdjust="spacing" textLength="3.5" x="536.5" y="180.8188">8</text><text fill="#000000" font-family="sans-serif" font-size="6.5" lengthAdjust="spacing" textLength="54" x="542" y="180.8188">getJobRepository()</text><polygon fill="#181818" points="538.5,197.0957,533.5,199.0957,538.5,201.0957,536.5,199.0957" style="stroke:#181818;stroke-width:0.5;"/><line style="stroke:#181818;stroke-width:0.5;stroke-dasharray:2.0,2.0;" x1="535.5" x2="666.25" y1="199.0957" y2="199.0957"/><text fill="#000000" font-family="sans-serif" font-size="6.5" font-weight="bold" lengthAdjust="spacing" textLength="3.5" x="541.5" y="196.4644">9</text><text fill="#000000" font-family="sans-serif" font-size="6.5" lengthAdjust="spacing" textLength="41" x="547" y="196.4644">JobRepository</text><polygon fill="#181818" points="713.75,212.7412,718.75,214.7412,713.75,216.7412,715.75,214.7412" style="stroke:#181818;stroke-width:0.5;"/><line style="stroke:#181818;stroke-width:0.5;" x1="533" x2="716.75" y1="214.7412" y2="214.7412"/><text fill="#000000" font-family="sans-serif" font-size="6.5" font-weight="bold" lengthAdjust="spacing" textLength="7" x="536.5" y="212.1099">10</text><text fill="#000000" font-family="sans-serif" font-size="6.5" lengthAdjust="spacing" textLength="37" x="545.5" y="212.1099">getJobsList()</text><polygon fill="#181818" points="538.5,228.3867,533.5,230.3867,538.5,232.3867,536.5,230.3867" style="stroke:#181818;stroke-width:0.5;"/><line style="stroke:#181818;stroke-width:0.5;stroke-dasharray:2.0,2.0;" x1="535.5" x2="721.75" y1="230.3867" y2="230.3867"/><text fill="#000000" font-family="sans-serif" font-size="6.5" font-weight="bold" lengthAdjust="spacing" textLength="7" x="541.5" y="227.7554">11</text><text fill="#000000" font-family="sans-serif" font-size="6.5" lengthAdjust="spacing" textLength="24" x="550.5" y="227.7554">JobsList</text><polygon fill="#181818" points="196,244.0322,191,246.0322,196,248.0322,194,246.0322" style="stroke:#181818;stroke-width:0.5;"/><line style="stroke:#181818;stroke-width:0.5;stroke-dasharray:2.0,2.0;" x1="193" x2="530" y1="246.0322" y2="246.0322"/><text fill="#000000" font-family="sans-serif" font-size="6.5" font-weight="bold" lengthAdjust="spacing" textLength="7" x="199" y="243.4009">12</text><text fill="#000000" font-family="sans-serif" font-size="6.5" lengthAdjust="spacing" textLength="24" x="208" y="243.4009">JobsList</text><polygon fill="#181818" points="41,259.6777,36,261.6777,41,263.6777,39,261.6777" style="stroke:#181818;stroke-width:0.5;"/><line style="stroke:#181818;stroke-width:0.5;stroke-dasharray:2.0,2.0;" x1="38" x2="187.5" y1="261.6777" y2="261.6777"/><text fill="#000000" font-family="sans-serif" font-size="6.5" font-weight="bold" lengthAdjust="spacing" textLength="7" x="44" y="259.0464">13</text><text fill="#000000" font-family="sans-serif" font-size="6.5" lengthAdjust="spacing" textLength="129" x="53" y="259.0464">shows the list of jobs and asks to select one</text><polygon fill="#181818" points="179.5,275.3232,184.5,277.3232,179.5,279.3232,181.5,277.3232" style="stroke:#181818;stroke-width:0.5;"/><line style="stroke:#181818;stroke-width:0.5;" x1="35.5" x2="182.5" y1="277.3232" y2="277.3232"/><text fill="#000000" font-family="sans-serif" font-size="6.5" font-weight="bold" lengthAdjust="spacing" textLength="7" x="39" y="274.6919">14</text><text fill="#000000" font-family="sans-serif" font-size="6.5" lengthAdjust="spacing" textLength="42.5" x="48" y="274.6919">selects the job</text><polygon fill="#181818" points="41,290.9688,36,292.9688,41,294.9688,39,292.9688" style="stroke:#181818;stroke-width:0.5;"/><line style="stroke:#181818;stroke-width:0.5;stroke-dasharray:2.0,2.0;" x1="38" x2="187.5" y1="292.9688" y2="292.9688"/><text fill="#000000" font-family="sans-serif" font-size="6.5" font-weight="bold" lengthAdjust="spacing" textLength="7" x="44" y="290.3374">15</text><text fill="#000000" font-family="sans-serif" font-size="6.5" lengthAdjust="spacing" textLength="118" x="53" y="290.3374">shows all data and requests confirmation</text><polygon fill="#181818" points="179.5,306.6143,184.5,308.6143,179.5,310.6143,181.5,308.6143" style="stroke:#181818;stroke-width:0.5;"/><line style="stroke:#181818;stroke-width:0.5;" x1="35.5" x2="182.5" y1="308.6143" y2="308.6143"/><text fill="#000000" font-family="sans-serif" font-size="6.5" font-weight="bold" lengthAdjust="spacing" textLength="7" x="39" y="305.9829">16</text><text fill="#000000" font-family="sans-serif" font-size="6.5" lengthAdjust="spacing" textLength="39" x="48" y="305.9829">confirms data</text><polygon fill="#181818" points="522,322.2598,527,324.2598,522,326.2598,524,324.2598" style="stroke:#181818;stroke-width:0.5;"/><line style="stroke:#181818;stroke-width:0.5;" x1="190.5" x2="525" y1="324.2598" y2="324.2598"/><text fill="#000000" font-family="sans-serif" font-size="6.5" font-weight="bold" lengthAdjust="spacing" textLength="7" x="194" y="321.6284">17</text><text fill="#000000" font-family="sans-serif" font-size="6.5" lengthAdjust="spacing" textLength="319" x="203" y="321.6284">registerCollaborator(job, name, birthday, admissionDate, address, phoneNumber, email, idDocType, idNumber)</text><polygon fill="#181818" points="604.75,337.9053,609.75,339.9053,604.75,341.9053,606.75,339.9053" style="stroke:#181818;stroke-width:0.5;"/><line style="stroke:#181818;stroke-width:0.5;" x1="533" x2="607.75" y1="339.9053" y2="339.9053"/><text fill="#000000" font-family="sans-serif" font-size="6.5" font-weight="bold" lengthAdjust="spacing" textLength="7" x="536.5" y="337.2739">18</text><text fill="#000000" font-family="sans-serif" font-size="6.5" lengthAdjust="spacing" textLength="37.5" x="545.5" y="337.2739">getInstance()</text><polygon fill="#181818" points="538.5,353.5508,533.5,355.5508,538.5,357.5508,536.5,355.5508" style="stroke:#181818;stroke-width:0.5;"/><line style="stroke:#181818;stroke-width:0.5;stroke-dasharray:2.0,2.0;" x1="535.5" x2="612.75" y1="355.5508" y2="355.5508"/><text fill="#000000" font-family="sans-serif" font-size="6.5" font-weight="bold" lengthAdjust="spacing" textLength="7" x="541.5" y="352.9194">19</text><text fill="#000000" font-family="sans-serif" font-size="6.5" lengthAdjust="spacing" textLength="33.5" x="550.5" y="352.9194">repositories</text><polygon fill="#181818" points="658.25,369.1963,663.25,371.1963,658.25,373.1963,660.25,371.1963" style="stroke:#181818;stroke-width:0.5;"/><line style="stroke:#181818;stroke-width:0.5;" x1="533" x2="661.25" y1="371.1963" y2="371.1963"/><text fill="#000000" font-family="sans-serif" font-size="6.5" font-weight="bold" lengthAdjust="spacing" textLength="7" x="536.5" y="368.5649">20</text><text fill="#000000" font-family="sans-serif" font-size="6.5" lengthAdjust="spacing" textLength="78.5" x="545.5" y="368.5649">getCollaboratorRepository()</text><polygon fill="#181818" points="538.5,384.8418,533.5,386.8418,538.5,388.8418,536.5,386.8418" style="stroke:#181818;stroke-width:0.5;"/><line style="stroke:#181818;stroke-width:0.5;stroke-dasharray:2.0,2.0;" x1="535.5" x2="666.25" y1="386.8418" y2="386.8418"/><text fill="#000000" font-family="sans-serif" font-size="6.5" font-weight="bold" lengthAdjust="spacing" textLength="7" x="541.5" y="384.2104">21</text><text fill="#000000" font-family="sans-serif" font-size="6.5" lengthAdjust="spacing" textLength="64.5" x="550.5" y="384.2104">collaboratorRepository</text><polygon fill="#181818" points="864.5,400.4873,869.5,402.4873,864.5,404.4873,866.5,402.4873" style="stroke:#181818;stroke-width:0.5;"/><line style="stroke:#181818;stroke-width:0.5;" x1="533" x2="867.5" y1="402.4873" y2="402.4873"/><text fill="#000000" font-family="sans-serif" font-size="6.5" font-weight="bold" lengthAdjust="spacing" textLength="7" x="536.5" y="399.856">22</text><text fill="#000000" font-family="sans-serif" font-size="6.5" lengthAdjust="spacing" textLength="319" x="545.5" y="399.856">registerCollaborator(job, name, birthday, admissionDate, address, phoneNumber, email, idDocType, idNumber)</text><polygon fill="#181818" points="1175,416.1328,1180,418.1328,1175,420.1328,1177,418.1328" style="stroke:#181818;stroke-width:0.5;"/><line style="stroke:#181818;stroke-width:0.5;" x1="875.5" x2="1178" y1="418.1328" y2="418.1328"/><text fill="#000000" font-family="sans-serif" font-size="6.5" font-weight="bold" lengthAdjust="spacing" textLength="7" x="879" y="415.5015">23</text><text fill="#000000" font-family="sans-serif" font-size="6.5" lengthAdjust="spacing" textLength="284.5" x="888" y="415.5015">register(job, name, birthday, admissionDate, address, phoneNumber, email, idDocType, idNumber)</text><rect fill="#E3E3E3" height="25.6211" rx="1.25" ry="1.25" style="stroke:#181818;stroke-width:0.25;" width="48" x="1181" y="406.4873"/><text fill="#000000" font-family="sans-serif" font-size="7" lengthAdjust="spacing" textLength="37.5" x="1186.25" y="417.541">collaborator</text><text fill="#000000" font-family="sans-serif" font-size="7" lengthAdjust="spacing" textLength="41" x="1184.5" y="426.8516">:Collaborator</text><line style="stroke:#181818;stroke-width:0.5;" x1="875.5" x2="899" y1="446.7539" y2="446.7539"/><line style="stroke:#181818;stroke-width:0.5;" x1="899" x2="899" y1="446.7539" y2="453.2539"/><line style="stroke:#181818;stroke-width:0.5;" x1="878.5" x2="899" y1="453.2539" y2="453.2539"/><polygon fill="#181818" points="883.5,451.2539,878.5,453.2539,883.5,455.2539,881.5,453.2539" style="stroke:#181818;stroke-width:0.5;"/><text fill="#000000" font-family="sans-serif" font-size="6.5" font-weight="bold" lengthAdjust="spacing" textLength="7" x="881.5" y="444.1226">24</text><text fill="#000000" font-family="sans-serif" font-size="6.5" lengthAdjust="spacing" textLength="83" x="890.5" y="444.1226">addCollaborator (colaborator)</text><line style="stroke:#181818;stroke-width:0.5;" x1="878" x2="901.5" y1="468.8994" y2="468.8994"/><line style="stroke:#181818;stroke-width:0.5;" x1="901.5" x2="901.5" y1="468.8994" y2="475.3994"/><line style="stroke:#181818;stroke-width:0.5;" x1="881" x2="901.5" y1="475.3994" y2="475.3994"/><polygon fill="#181818" points="886,473.3994,881,475.3994,886,477.3994,884,475.3994" style="stroke:#181818;stroke-width:0.5;"/><text fill="#000000" font-family="sans-serif" font-size="6.5" font-weight="bold" lengthAdjust="spacing" textLength="7" x="884" y="466.2681">25</text><text fill="#000000" font-family="sans-serif" font-size="6.5" lengthAdjust="spacing" textLength="94" x="893" y="466.2681">validateCollaborator (colaborator)</text><line style="stroke:#181818;stroke-width:0.5;stroke-dasharray:2.0,2.0;" x1="880.5" x2="901.5" y1="496.0449" y2="496.0449"/><line style="stroke:#181818;stroke-width:0.5;stroke-dasharray:2.0,2.0;" x1="901.5" x2="901.5" y1="496.0449" y2="502.5449"/><line style="stroke:#181818;stroke-width:0.5;stroke-dasharray:2.0,2.0;" x1="878" x2="901.5" y1="502.5449" y2="502.5449"/><polygon fill="#181818" points="883,500.5449,878,502.5449,883,504.5449,881,502.5449" style="stroke:#181818;stroke-width:0.5;"/><text fill="#000000" font-family="sans-serif" font-size="6.5" font-weight="bold" lengthAdjust="spacing" textLength="7" x="884" y="493.4136">26</text><text fill="#000000" font-family="sans-serif" font-size="6.5" lengthAdjust="spacing" textLength="2" x="893" y="493.4136">&#160;</text><line style="stroke:#181818;stroke-width:0.5;stroke-dasharray:2.0,2.0;" x1="878" x2="899" y1="518.1904" y2="518.1904"/><line style="stroke:#181818;stroke-width:0.5;stroke-dasharray:2.0,2.0;" x1="899" x2="899" y1="518.1904" y2="524.6904"/><line style="stroke:#181818;stroke-width:0.5;stroke-dasharray:2.0,2.0;" x1="875.5" x2="899" y1="524.6904" y2="524.6904"/><polygon fill="#181818" points="880.5,522.6904,875.5,524.6904,880.5,526.6904,878.5,524.6904" style="stroke:#181818;stroke-width:0.5;"/><text fill="#000000" font-family="sans-serif" font-size="6.5" font-weight="bold" lengthAdjust="spacing" textLength="7" x="881.5" y="515.5591">27</text><text fill="#000000" font-family="sans-serif" font-size="6.5" lengthAdjust="spacing" textLength="2" x="890.5" y="515.5591">&#160;</text><polygon fill="#181818" points="538.5,535.8359,533.5,537.8359,538.5,539.8359,536.5,537.8359" style="stroke:#181818;stroke-width:0.5;"/><line style="stroke:#181818;stroke-width:0.5;stroke-dasharray:2.0,2.0;" x1="535.5" x2="872.5" y1="537.8359" y2="537.8359"/><text fill="#000000" font-family="sans-serif" font-size="6.5" font-weight="bold" lengthAdjust="spacing" textLength="7" x="541.5" y="535.2046">28</text><text fill="#000000" font-family="sans-serif" font-size="6.5" lengthAdjust="spacing" textLength="33.5" x="550.5" y="535.2046">collaborator</text><polygon fill="#181818" points="196,551.4814,191,553.4814,196,555.4814,194,553.4814" style="stroke:#181818;stroke-width:0.5;"/><line style="stroke:#181818;stroke-width:0.5;stroke-dasharray:2.0,2.0;" x1="193" x2="530" y1="553.4814" y2="553.4814"/><text fill="#000000" font-family="sans-serif" font-size="6.5" font-weight="bold" lengthAdjust="spacing" textLength="7" x="199" y="550.8501">29</text><text fill="#000000" font-family="sans-serif" font-size="6.5" lengthAdjust="spacing" textLength="33.5" x="208" y="550.8501">collaborator</text><polygon fill="#181818" points="38.5,567.127,33.5,569.127,38.5,571.127,36.5,569.127" style="stroke:#181818;stroke-width:0.5;"/><line style="stroke:#181818;stroke-width:0.5;stroke-dasharray:2.0,2.0;" x1="35.5" x2="187.5" y1="569.127" y2="569.127"/><text fill="#000000" font-family="sans-serif" font-size="6.5" font-weight="bold" lengthAdjust="spacing" textLength="7" x="41.5" y="566.4956">30</text><text fill="#000000" font-family="sans-serif" font-size="6.5" lengthAdjust="spacing" textLength="79" x="50.5" y="566.4956">displays operation success</text><!--SRC=[pLR1Rjim3BtxAuXUrXOfTizXG9SEQ8Tq7PpsrejYCx5MM_94kLt-VfJSE19ifscneVN9Cid79-fHD3r8LGiZAgYqqbbXT8LWJOC9TPPQP0zYZGkxAH4CPbQeTHawK25o_IJL6bQY94mIqLYjccg99aa-5J97M6bjb_fF8ZAh3HnTDfLGa2BfncH8z-fQA4vXZa0GNARN2GDRcSbQA0j7qnJNaYoQcIvBiTH6CCZTbNU-kph0TwQLDRmkdpFCRjDvBwpM9DbN8dcVzDlFsCK47lTgC60HH_pIoyvhCxrNqTh7H5_Yu2pW7w4C6ppSi6aSbxSHbgcjpSryVlxr9Zs_lKaJTrxoKLZqXv80F_m2Pr-uxZ1bzmS2graKRSr1WCAdY8QFwL3ujFm7zp02uxYZE3rbhCmWUxHcPsARIpLbyDyDaYN8XHNUd6CFC6HbDpNIPyAIfKhRSCntyI_GOOWrskzwISSddRcByThfFhl7nt0i2w0DlLB4FP9X41v1E6b55XTvzfpTRNYdhCWjs7SF8Y2nw3Qmqy0UAeiUbqL09aBPmsOnJ2TkWMrTvwoMCKPnIqG-aQdZ29wannpZjmUp9RgLpaj0kyEF94g5Vk96A11A3WQzSXa9XCgx5cdb25hX8HBUYjT1CjImQWSeYBBqClUfkyR9j5f9KmahjJea-xC_7Tmnq-u62A-JOsO-0IKgdC1I6blaOZC1aLUIY9bSC9vRvWQ99b0NN9iVVcXC02iXomd8_49djzpExhMrlROZFqH3UXApmSlvpOqvSjU_kaD7vinxd6XKW97zHSxk6VRpoWmccHynsotzfssyWjfOqJbfM6yuPiVjugI7_mzhDKReKPIIRm5y3rQZj7e8WT0_RD8z2ViDdRmnKJ3DHW1V66PJo2NLfTWGw1gD7nb0JSO_wJGqEeAb-qFy2m00]--></g></svg>