<?xml version="1.0" encoding="us-ascii" standalone="no"?><svg xmlns="http://www.w3.org/2000/svg" xmlns:xlink="http://www.w3.org/1999/xlink" contentStyleType="text/css" height="1016px" preserveAspectRatio="none" style="width:1062px;height:1016px;background:#FFFFFF;" version="1.1" viewBox="0 0 1062 1016" width="1062px" zoomAndPan="magnify"><defs/><g><!--class RegisterCollaboratorUI--><g id="elem_RegisterCollaboratorUI"><rect codeLine="11" fill="#F1F1F1" height="48" id="RegisterCollaboratorUI" rx="2.5" ry="2.5" style="stroke:#181818;stroke-width:0.5;" width="175" x="265.5" y="7"/><ellipse cx="280.5" cy="23" fill="#ADD1B2" rx="11" ry="11" style="stroke:#181818;stroke-width:1.0;"/><path d="M283.2656,18.875 Q283.4219,18.6563 283.6094,18.5469 Q283.7969,18.4375 284.0156,18.4375 Q284.3906,18.4375 284.625,18.7031 Q284.8594,18.9531 284.8594,19.5625 L284.8594,21.0156 Q284.8594,21.625 284.625,21.8906 Q284.3906,22.1563 284.0156,22.1563 Q283.6719,22.1563 283.4688,21.9531 Q283.2656,21.7656 283.1563,21.25 Q283.1094,20.8906 282.9219,20.7031 Q282.5938,20.3281 281.9844,20.1094 Q281.375,19.8906 280.75,19.8906 Q279.9844,19.8906 279.3438,20.2188 Q278.7188,20.5469 278.2188,21.2969 Q277.7344,22.0469 277.7344,23.0781 L277.7344,24.1719 Q277.7344,25.4063 278.625,26.2344 Q279.5156,27.0469 281.1094,27.0469 Q282.0469,27.0469 282.7031,26.7969 Q283.0938,26.6406 283.5156,26.2031 Q283.7813,25.9375 283.9219,25.8594 Q284.0781,25.7813 284.2813,25.7813 Q284.6094,25.7813 284.8594,26.0469 Q285.125,26.2969 285.125,26.6406 Q285.125,26.9844 284.7813,27.3906 Q284.2813,27.9688 283.4844,28.2969 Q282.4063,28.75 281.1094,28.75 Q279.5938,28.75 278.3906,28.125 Q277.4063,27.625 276.7188,26.5625 Q276.0313,25.4844 276.0313,24.2031 L276.0313,23.0469 Q276.0313,21.7188 276.6406,20.5781 Q277.2656,19.4219 278.3594,18.8125 Q279.4531,18.1875 280.6875,18.1875 Q281.4219,18.1875 282.0625,18.3594 Q282.7188,18.5156 283.2656,18.875 Z " fill="#000000"/><text fill="#000000" font-family="sans-serif" font-size="14" lengthAdjust="spacing" textLength="143" x="294.5" y="28.7969">RegisterCollaboratorUI</text><line style="stroke:#181818;stroke-width:0.5;" x1="266.5" x2="439.5" y1="39" y2="39"/><line style="stroke:#181818;stroke-width:0.5;" x1="266.5" x2="439.5" y1="47" y2="47"/></g><!--class RegisterCollaboratorController--><g id="elem_RegisterCollaboratorController"><rect codeLine="14" fill="#F1F1F1" height="103.8633" id="RegisterCollaboratorController" rx="2.5" ry="2.5" style="stroke:#181818;stroke-width:0.5;" width="692" x="7" y="116"/><ellipse cx="252.25" cy="132" fill="#ADD1B2" rx="11" ry="11" style="stroke:#181818;stroke-width:1.0;"/><path d="M255.0156,127.875 Q255.1719,127.6563 255.3594,127.5469 Q255.5469,127.4375 255.7656,127.4375 Q256.1406,127.4375 256.375,127.7031 Q256.6094,127.9531 256.6094,128.5625 L256.6094,130.0156 Q256.6094,130.625 256.375,130.8906 Q256.1406,131.1563 255.7656,131.1563 Q255.4219,131.1563 255.2188,130.9531 Q255.0156,130.7656 254.9063,130.25 Q254.8594,129.8906 254.6719,129.7031 Q254.3438,129.3281 253.7344,129.1094 Q253.125,128.8906 252.5,128.8906 Q251.7344,128.8906 251.0938,129.2188 Q250.4688,129.5469 249.9688,130.2969 Q249.4844,131.0469 249.4844,132.0781 L249.4844,133.1719 Q249.4844,134.4063 250.375,135.2344 Q251.2656,136.0469 252.8594,136.0469 Q253.7969,136.0469 254.4531,135.7969 Q254.8438,135.6406 255.2656,135.2031 Q255.5313,134.9375 255.6719,134.8594 Q255.8281,134.7813 256.0313,134.7813 Q256.3594,134.7813 256.6094,135.0469 Q256.875,135.2969 256.875,135.6406 Q256.875,135.9844 256.5313,136.3906 Q256.0313,136.9688 255.2344,137.2969 Q254.1563,137.75 252.8594,137.75 Q251.3438,137.75 250.1406,137.125 Q249.1563,136.625 248.4688,135.5625 Q247.7813,134.4844 247.7813,133.2031 L247.7813,132.0469 Q247.7813,130.7188 248.3906,129.5781 Q249.0156,128.4219 250.1094,127.8125 Q251.2031,127.1875 252.4375,127.1875 Q253.1719,127.1875 253.8125,127.3594 Q254.4688,127.5156 255.0156,127.875 Z " fill="#000000"/><text fill="#000000" font-family="sans-serif" font-size="14" lengthAdjust="spacing" textLength="193" x="272.75" y="137.7969">RegisterCollaboratorController</text><line style="stroke:#181818;stroke-width:0.5;" x1="8" x2="698" y1="148" y2="148"/><line style="stroke:#181818;stroke-width:0.5;" x1="8" x2="698" y1="156" y2="156"/><text fill="#000000" font-family="sans-serif" font-size="14" lengthAdjust="spacing" textLength="211" x="13" y="175.1074">+RegisterCollaboratorController()</text><text fill="#000000" font-family="sans-serif" font-size="14" lengthAdjust="spacing" textLength="89" x="13" y="193.7285">+getJobsList()</text><text fill="#000000" font-family="sans-serif" font-size="14" lengthAdjust="spacing" textLength="680" x="13" y="212.3496">+registerCollaborator(name, birthday, admissionDate, address, phoneNumber, email, idDocType, idNumber)</text></g><!--class CollaboratorRepository--><g id="elem_CollaboratorRepository"><rect codeLine="20" fill="#F1F1F1" height="103.8633" id="CollaboratorRepository" rx="2.5" ry="2.5" style="stroke:#181818;stroke-width:0.5;" width="719" x="238.5" y="482"/><ellipse cx="520.75" cy="498" fill="#ADD1B2" rx="11" ry="11" style="stroke:#181818;stroke-width:1.0;"/><path d="M523.5156,493.875 Q523.6719,493.6563 523.8594,493.5469 Q524.0469,493.4375 524.2656,493.4375 Q524.6406,493.4375 524.875,493.7031 Q525.1094,493.9531 525.1094,494.5625 L525.1094,496.0156 Q525.1094,496.625 524.875,496.8906 Q524.6406,497.1563 524.2656,497.1563 Q523.9219,497.1563 523.7188,496.9531 Q523.5156,496.7656 523.4063,496.25 Q523.3594,495.8906 523.1719,495.7031 Q522.8438,495.3281 522.2344,495.1094 Q521.625,494.8906 521,494.8906 Q520.2344,494.8906 519.5938,495.2188 Q518.9688,495.5469 518.4688,496.2969 Q517.9844,497.0469 517.9844,498.0781 L517.9844,499.1719 Q517.9844,500.4063 518.875,501.2344 Q519.7656,502.0469 521.3594,502.0469 Q522.2969,502.0469 522.9531,501.7969 Q523.3438,501.6406 523.7656,501.2031 Q524.0313,500.9375 524.1719,500.8594 Q524.3281,500.7813 524.5313,500.7813 Q524.8594,500.7813 525.1094,501.0469 Q525.375,501.2969 525.375,501.6406 Q525.375,501.9844 525.0313,502.3906 Q524.5313,502.9688 523.7344,503.2969 Q522.6563,503.75 521.3594,503.75 Q519.8438,503.75 518.6406,503.125 Q517.6563,502.625 516.9688,501.5625 Q516.2813,500.4844 516.2813,499.2031 L516.2813,498.0469 Q516.2813,496.7188 516.8906,495.5781 Q517.5156,494.4219 518.6094,493.8125 Q519.7031,493.1875 520.9375,493.1875 Q521.6719,493.1875 522.3125,493.3594 Q522.9688,493.5156 523.5156,493.875 Z " fill="#000000"/><text fill="#000000" font-family="sans-serif" font-size="14" lengthAdjust="spacing" textLength="146" x="541.25" y="503.7969">CollaboratorRepository</text><line style="stroke:#181818;stroke-width:0.5;" x1="239.5" x2="956.5" y1="514" y2="514"/><line style="stroke:#181818;stroke-width:0.5;" x1="239.5" x2="956.5" y1="522" y2="522"/><text fill="#000000" font-family="sans-serif" font-size="14" lengthAdjust="spacing" textLength="192" x="244.5" y="541.1074">-addCollaborator(collaborator)</text><text fill="#000000" font-family="sans-serif" font-size="14" lengthAdjust="spacing" textLength="217" x="244.5" y="559.7285">-validateCollaborator(collaborator)</text><text fill="#000000" font-family="sans-serif" font-size="14" lengthAdjust="spacing" textLength="707" x="244.5" y="578.3496">+registerCollaborator(name, birthday, admissionDate, address, phoneNumber, email, idDocType, idNumber, job)</text></g><!--class Collaborator--><g id="elem_Collaborator"><rect codeLine="26" fill="#F1F1F1" height="215.5898" id="Collaborator" rx="2.5" ry="2.5" style="stroke:#181818;stroke-width:0.5;" width="671" x="276.5" y="647"/><ellipse cx="568.75" cy="663" fill="#ADD1B2" rx="11" ry="11" style="stroke:#181818;stroke-width:1.0;"/><path d="M571.5156,658.875 Q571.6719,658.6563 571.8594,658.5469 Q572.0469,658.4375 572.2656,658.4375 Q572.6406,658.4375 572.875,658.7031 Q573.1094,658.9531 573.1094,659.5625 L573.1094,661.0156 Q573.1094,661.625 572.875,661.8906 Q572.6406,662.1563 572.2656,662.1563 Q571.9219,662.1563 571.7188,661.9531 Q571.5156,661.7656 571.4063,661.25 Q571.3594,660.8906 571.1719,660.7031 Q570.8438,660.3281 570.2344,660.1094 Q569.625,659.8906 569,659.8906 Q568.2344,659.8906 567.5938,660.2188 Q566.9688,660.5469 566.4688,661.2969 Q565.9844,662.0469 565.9844,663.0781 L565.9844,664.1719 Q565.9844,665.4063 566.875,666.2344 Q567.7656,667.0469 569.3594,667.0469 Q570.2969,667.0469 570.9531,666.7969 Q571.3438,666.6406 571.7656,666.2031 Q572.0313,665.9375 572.1719,665.8594 Q572.3281,665.7813 572.5313,665.7813 Q572.8594,665.7813 573.1094,666.0469 Q573.375,666.2969 573.375,666.6406 Q573.375,666.9844 573.0313,667.3906 Q572.5313,667.9688 571.7344,668.2969 Q570.6563,668.75 569.3594,668.75 Q567.8438,668.75 566.6406,668.125 Q565.6563,667.625 564.9688,666.5625 Q564.2813,665.4844 564.2813,664.2031 L564.2813,663.0469 Q564.2813,661.7188 564.8906,660.5781 Q565.5156,659.4219 566.6094,658.8125 Q567.7031,658.1875 568.9375,658.1875 Q569.6719,658.1875 570.3125,658.3594 Q570.9688,658.5156 571.5156,658.875 Z " fill="#000000"/><text fill="#000000" font-family="sans-serif" font-size="14" lengthAdjust="spacing" textLength="78" x="589.25" y="668.7969">Collaborator</text><line style="stroke:#181818;stroke-width:0.5;" x1="277.5" x2="946.5" y1="679" y2="679"/><text fill="#000000" font-family="sans-serif" font-size="14" lengthAdjust="spacing" textLength="81" x="282.5" y="698.1074">-String name</text><text fill="#000000" font-family="sans-serif" font-size="14" lengthAdjust="spacing" textLength="97" x="282.5" y="716.7285">-String birthday</text><text fill="#000000" font-family="sans-serif" font-size="14" lengthAdjust="spacing" textLength="139" x="282.5" y="735.3496">-String admissionDate</text><text fill="#000000" font-family="sans-serif" font-size="14" lengthAdjust="spacing" textLength="97" x="282.5" y="753.9707">-String address</text><text fill="#000000" font-family="sans-serif" font-size="14" lengthAdjust="spacing" textLength="113" x="282.5" y="772.5918">-int phoneNumber</text><text fill="#000000" font-family="sans-serif" font-size="14" lengthAdjust="spacing" textLength="79" x="282.5" y="791.2129">-String email</text><text fill="#000000" font-family="sans-serif" font-size="14" lengthAdjust="spacing" textLength="114" x="282.5" y="809.834">-String idDocType</text><text fill="#000000" font-family="sans-serif" font-size="14" lengthAdjust="spacing" textLength="84" x="282.5" y="828.4551">-int idNumber</text><line style="stroke:#181818;stroke-width:0.5;" x1="277.5" x2="946.5" y1="835.9688" y2="835.9688"/><text fill="#000000" font-family="sans-serif" font-size="14" lengthAdjust="spacing" textLength="659" x="282.5" y="855.0762">+Collaborator(name, birthday, admissionDate, address, phoneNumber, email, idDocType, idNumber, job)</text></g><!--class JobRepository--><g id="elem_JobRepository"><rect codeLine="39" fill="#F1F1F1" height="66.6211" id="JobRepository" rx="2.5" ry="2.5" style="stroke:#181818;stroke-width:0.5;" width="131" x="72.5" y="500.5"/><ellipse cx="91.55" cy="516.5" fill="#ADD1B2" rx="11" ry="11" style="stroke:#181818;stroke-width:1.0;"/><path d="M94.3156,512.375 Q94.4719,512.1563 94.6594,512.0469 Q94.8469,511.9375 95.0656,511.9375 Q95.4406,511.9375 95.675,512.2031 Q95.9094,512.4531 95.9094,513.0625 L95.9094,514.5156 Q95.9094,515.125 95.675,515.3906 Q95.4406,515.6563 95.0656,515.6563 Q94.7219,515.6563 94.5188,515.4531 Q94.3156,515.2656 94.2063,514.75 Q94.1594,514.3906 93.9719,514.2031 Q93.6438,513.8281 93.0344,513.6094 Q92.425,513.3906 91.8,513.3906 Q91.0344,513.3906 90.3938,513.7188 Q89.7688,514.0469 89.2688,514.7969 Q88.7844,515.5469 88.7844,516.5781 L88.7844,517.6719 Q88.7844,518.9063 89.675,519.7344 Q90.5656,520.5469 92.1594,520.5469 Q93.0969,520.5469 93.7531,520.2969 Q94.1438,520.1406 94.5656,519.7031 Q94.8313,519.4375 94.9719,519.3594 Q95.1281,519.2813 95.3313,519.2813 Q95.6594,519.2813 95.9094,519.5469 Q96.175,519.7969 96.175,520.1406 Q96.175,520.4844 95.8313,520.8906 Q95.3313,521.4688 94.5344,521.7969 Q93.4563,522.25 92.1594,522.25 Q90.6438,522.25 89.4406,521.625 Q88.4563,521.125 87.7688,520.0625 Q87.0813,518.9844 87.0813,517.7031 L87.0813,516.5469 Q87.0813,515.2188 87.6906,514.0781 Q88.3156,512.9219 89.4094,512.3125 Q90.5031,511.6875 91.7375,511.6875 Q92.4719,511.6875 93.1125,511.8594 Q93.7688,512.0156 94.3156,512.375 Z " fill="#000000"/><text fill="#000000" font-family="sans-serif" font-size="14" lengthAdjust="spacing" textLength="90" x="106.45" y="522.2969">JobRepository</text><line style="stroke:#181818;stroke-width:0.5;" x1="73.5" x2="202.5" y1="532.5" y2="532.5"/><line style="stroke:#181818;stroke-width:0.5;" x1="73.5" x2="202.5" y1="540.5" y2="540.5"/><text fill="#000000" font-family="sans-serif" font-size="14" lengthAdjust="spacing" textLength="119" x="78.5" y="559.6074">+getJobsByName()</text></g><!--class Job--><g id="elem_Job"><rect codeLine="43" fill="#F1F1F1" height="85.2422" id="Job" rx="2.5" ry="2.5" style="stroke:#181818;stroke-width:0.5;" width="93" x="565.5" y="924"/><ellipse cx="598.05" cy="940" fill="#ADD1B2" rx="11" ry="11" style="stroke:#181818;stroke-width:1.0;"/><path d="M600.8156,935.875 Q600.9719,935.6563 601.1594,935.5469 Q601.3469,935.4375 601.5656,935.4375 Q601.9406,935.4375 602.175,935.7031 Q602.4094,935.9531 602.4094,936.5625 L602.4094,938.0156 Q602.4094,938.625 602.175,938.8906 Q601.9406,939.1563 601.5656,939.1563 Q601.2219,939.1563 601.0188,938.9531 Q600.8156,938.7656 600.7063,938.25 Q600.6594,937.8906 600.4719,937.7031 Q600.1438,937.3281 599.5344,937.1094 Q598.925,936.8906 598.3,936.8906 Q597.5344,936.8906 596.8938,937.2188 Q596.2688,937.5469 595.7688,938.2969 Q595.2844,939.0469 595.2844,940.0781 L595.2844,941.1719 Q595.2844,942.4063 596.175,943.2344 Q597.0656,944.0469 598.6594,944.0469 Q599.5969,944.0469 600.2531,943.7969 Q600.6438,943.6406 601.0656,943.2031 Q601.3313,942.9375 601.4719,942.8594 Q601.6281,942.7813 601.8313,942.7813 Q602.1594,942.7813 602.4094,943.0469 Q602.675,943.2969 602.675,943.6406 Q602.675,943.9844 602.3313,944.3906 Q601.8313,944.9688 601.0344,945.2969 Q599.9563,945.75 598.6594,945.75 Q597.1438,945.75 595.9406,945.125 Q594.9563,944.625 594.2688,943.5625 Q593.5813,942.4844 593.5813,941.2031 L593.5813,940.0469 Q593.5813,938.7188 594.1906,937.5781 Q594.8156,936.4219 595.9094,935.8125 Q597.0031,935.1875 598.2375,935.1875 Q598.9719,935.1875 599.6125,935.3594 Q600.2688,935.5156 600.8156,935.875 Z " fill="#000000"/><text fill="#000000" font-family="sans-serif" font-size="14" lengthAdjust="spacing" textLength="22" x="615.95" y="945.7969">Job</text><line style="stroke:#181818;stroke-width:0.5;" x1="566.5" x2="657.5" y1="956" y2="956"/><text fill="#000000" font-family="sans-serif" font-size="14" lengthAdjust="spacing" textLength="81" x="571.5" y="975.1074">-String name</text><line style="stroke:#181818;stroke-width:0.5;" x1="566.5" x2="657.5" y1="982.6211" y2="982.6211"/><text fill="#000000" font-family="sans-serif" font-size="14" lengthAdjust="spacing" textLength="75" x="571.5" y="1001.7285">+Job(name)</text></g><!--class HRM--><g id="elem_HRM"><rect codeLine="48" fill="#F1F1F1" height="66.6211" id="HRM" rx="2.5" ry="2.5" style="stroke:#181818;stroke-width:0.5;" width="62" x="993" y="500.5"/><ellipse cx="1008" cy="516.5" fill="#ADD1B2" rx="11" ry="11" style="stroke:#181818;stroke-width:1.0;"/><path d="M1010.7656,512.375 Q1010.9219,512.1563 1011.1094,512.0469 Q1011.2969,511.9375 1011.5156,511.9375 Q1011.8906,511.9375 1012.125,512.2031 Q1012.3594,512.4531 1012.3594,513.0625 L1012.3594,514.5156 Q1012.3594,515.125 1012.125,515.3906 Q1011.8906,515.6563 1011.5156,515.6563 Q1011.1719,515.6563 1010.9688,515.4531 Q1010.7656,515.2656 1010.6563,514.75 Q1010.6094,514.3906 1010.4219,514.2031 Q1010.0938,513.8281 1009.4844,513.6094 Q1008.875,513.3906 1008.25,513.3906 Q1007.4844,513.3906 1006.8438,513.7188 Q1006.2188,514.0469 1005.7188,514.7969 Q1005.2344,515.5469 1005.2344,516.5781 L1005.2344,517.6719 Q1005.2344,518.9063 1006.125,519.7344 Q1007.0156,520.5469 1008.6094,520.5469 Q1009.5469,520.5469 1010.2031,520.2969 Q1010.5938,520.1406 1011.0156,519.7031 Q1011.2813,519.4375 1011.4219,519.3594 Q1011.5781,519.2813 1011.7813,519.2813 Q1012.1094,519.2813 1012.3594,519.5469 Q1012.625,519.7969 1012.625,520.1406 Q1012.625,520.4844 1012.2813,520.8906 Q1011.7813,521.4688 1010.9844,521.7969 Q1009.9063,522.25 1008.6094,522.25 Q1007.0938,522.25 1005.8906,521.625 Q1004.9063,521.125 1004.2188,520.0625 Q1003.5313,518.9844 1003.5313,517.7031 L1003.5313,516.5469 Q1003.5313,515.2188 1004.1406,514.0781 Q1004.7656,512.9219 1005.8594,512.3125 Q1006.9531,511.6875 1008.1875,511.6875 Q1008.9219,511.6875 1009.5625,511.8594 Q1010.2188,512.0156 1010.7656,512.375 Z " fill="#000000"/><text fill="#000000" font-family="sans-serif" font-size="14" lengthAdjust="spacing" textLength="30" x="1022" y="522.2969">HRM</text><line style="stroke:#181818;stroke-width:0.5;" x1="994" x2="1054" y1="532.5" y2="532.5"/><text fill="#000000" font-family="sans-serif" font-size="14" lengthAdjust="spacing" textLength="40" x="999" y="551.6074">-name</text><line style="stroke:#181818;stroke-width:0.5;" x1="994" x2="1054" y1="559.1211" y2="559.1211"/></g><!--class Repositories--><g id="elem_Repositories"><rect codeLine="52" fill="#F1F1F1" height="122.4844" id="Repositories" rx="2.5" ry="2.5" style="stroke:#181818;stroke-width:0.5;" width="196" x="255" y="299"/><ellipse cx="309.25" cy="315" fill="#ADD1B2" rx="11" ry="11" style="stroke:#181818;stroke-width:1.0;"/><path d="M312.0156,310.875 Q312.1719,310.6563 312.3594,310.5469 Q312.5469,310.4375 312.7656,310.4375 Q313.1406,310.4375 313.375,310.7031 Q313.6094,310.9531 313.6094,311.5625 L313.6094,313.0156 Q313.6094,313.625 313.375,313.8906 Q313.1406,314.1563 312.7656,314.1563 Q312.4219,314.1563 312.2188,313.9531 Q312.0156,313.7656 311.9063,313.25 Q311.8594,312.8906 311.6719,312.7031 Q311.3438,312.3281 310.7344,312.1094 Q310.125,311.8906 309.5,311.8906 Q308.7344,311.8906 308.0938,312.2188 Q307.4688,312.5469 306.9688,313.2969 Q306.4844,314.0469 306.4844,315.0781 L306.4844,316.1719 Q306.4844,317.4063 307.375,318.2344 Q308.2656,319.0469 309.8594,319.0469 Q310.7969,319.0469 311.4531,318.7969 Q311.8438,318.6406 312.2656,318.2031 Q312.5313,317.9375 312.6719,317.8594 Q312.8281,317.7813 313.0313,317.7813 Q313.3594,317.7813 313.6094,318.0469 Q313.875,318.2969 313.875,318.6406 Q313.875,318.9844 313.5313,319.3906 Q313.0313,319.9688 312.2344,320.2969 Q311.1563,320.75 309.8594,320.75 Q308.3438,320.75 307.1406,320.125 Q306.1563,319.625 305.4688,318.5625 Q304.7813,317.4844 304.7813,316.2031 L304.7813,315.0469 Q304.7813,313.7188 305.3906,312.5781 Q306.0156,311.4219 307.1094,310.8125 Q308.2031,310.1875 309.4375,310.1875 Q310.1719,310.1875 310.8125,310.3594 Q311.4688,310.5156 312.0156,310.875 Z " fill="#000000"/><text fill="#000000" font-family="sans-serif" font-size="14" lengthAdjust="spacing" textLength="79" x="329.75" y="320.7969">Repositories</text><line style="stroke:#181818;stroke-width:0.5;" x1="256" x2="450" y1="331" y2="331"/><line style="stroke:#181818;stroke-width:0.5;" x1="256" x2="450" y1="339" y2="339"/><text fill="#000000" font-family="sans-serif" font-size="14" lengthAdjust="spacing" textLength="94" x="261" y="358.1074">-Repositories()</text><text fill="#000000" font-family="sans-serif" font-size="14" lengthAdjust="spacing" textLength="182" x="261" y="376.7285">+getInstance() : Repositories</text><text fill="#000000" font-family="sans-serif" font-size="14" lengthAdjust="spacing" textLength="128" x="261" y="395.3496">+getJobRepository()</text><text fill="#000000" font-family="sans-serif" font-size="14" lengthAdjust="spacing" textLength="184" x="261" y="413.9707">+getCollaboratorRepository()</text></g><!--link RegisterCollaboratorUI to RegisterCollaboratorController--><g id="link_RegisterCollaboratorUI_RegisterCollaboratorController"><path codeLine="59" d="M353,55.21 C353,71.87 353,88.97 353,109.86 " fill="none" id="RegisterCollaboratorUI-to-RegisterCollaboratorController" style="stroke:#181818;stroke-width:1.0;stroke-dasharray:7.0,7.0;"/><polygon fill="#181818" points="353,115.86,357,106.86,353,110.86,349,106.86,353,115.86" style="stroke:#181818;stroke-width:1.0;"/></g><!--link RegisterCollaboratorController to Repositories--><g id="link_RegisterCollaboratorController_Repositories"><path codeLine="60" d="M353,220.17 C353,244.46 353,267.64 353,292.98 " fill="none" id="RegisterCollaboratorController-to-Repositories" style="stroke:#181818;stroke-width:1.0;stroke-dasharray:7.0,7.0;"/><polygon fill="#181818" points="353,298.98,357,289.98,353,293.98,349,289.98,353,298.98" style="stroke:#181818;stroke-width:1.0;"/><text fill="#000000" font-family="sans-serif" font-size="13" lengthAdjust="spacing" textLength="67" x="354" y="265.0283">repositories</text></g><!--link RegisterCollaboratorController to CollaboratorRepository--><g id="link_RegisterCollaboratorController_CollaboratorRepository"><path codeLine="61" d="M429.12,220.01 C483.47,256.43 547,299 547,299 C547,299 570.5821,407.2177 585.5921,476.0777 " fill="none" id="RegisterCollaboratorController-to-CollaboratorRepository" style="stroke:#181818;stroke-width:1.0;stroke-dasharray:7.0,7.0;"/><polygon fill="#181818" points="586.87,481.94,588.8614,472.2946,585.8051,477.0547,581.045,473.9984,586.87,481.94" style="stroke:#181818;stroke-width:1.0;"/><text fill="#000000" font-family="sans-serif" font-size="13" lengthAdjust="spacing" textLength="131" x="575" y="365.5283">CollaboratorRepository</text></g><!--link RegisterCollaboratorController to JobRepository--><g id="link_RegisterCollaboratorController_JobRepository"><path codeLine="62" d="M274.53,220.01 C218.5,256.43 153,299 153,299 C153,299 144.5937,430.1823 140.4737,494.4723 " fill="none" id="RegisterCollaboratorController-to-JobRepository" style="stroke:#181818;stroke-width:1.0;stroke-dasharray:7.0,7.0;"/><polygon fill="#181818" points="140.09,500.46,144.6574,491.7342,140.4098,495.4702,136.6738,491.2226,140.09,500.46" style="stroke:#181818;stroke-width:1.0;"/><text fill="#000000" font-family="sans-serif" font-size="13" lengthAdjust="spacing" textLength="82" x="154" y="365.5283">JobRepository</text></g><!--link Repositories to Repositories--><g id="link_Repositories_Repositories"><path codeLine="63" d="M451.02,343.72 C471.37,345.43 486,350.86 486,360 C486,369.14 477.3489,374.0676 456.9989,375.7776 " fill="none" id="Repositories-to-Repositories" style="stroke:#181818;stroke-width:1.0;"/><polygon fill="#181818" points="451.02,376.28,460.3233,379.5123,456.0024,375.8613,459.6535,371.5404,451.02,376.28" style="stroke:#181818;stroke-width:1.0;"/><text fill="#000000" font-family="sans-serif" font-size="13" lengthAdjust="spacing" textLength="49" x="492" y="365.5283">instance</text></g><!--link Repositories to CollaboratorRepository--><g id="link_Repositories_CollaboratorRepository"><path codeLine="64" d="M438.69,421.16 C466.84,440.92 492.9394,459.2424 520.0594,478.2824 " fill="none" id="Repositories-to-CollaboratorRepository" style="stroke:#181818;stroke-width:1.0;"/><polygon fill="#181818" points="524.97,481.73,519.9024,473.2849,520.8778,478.857,515.3057,479.8324,524.97,481.73" style="stroke:#181818;stroke-width:1.0;"/><text fill="#000000" font-family="sans-serif" font-size="13" lengthAdjust="spacing" textLength="7" x="507.6863" y="470.6211">1</text></g><!--link Repositories to JobRepository--><g id="link_Repositories_JobRepository"><path codeLine="65" d="M277.8,421.16 C244.5,447.8 211.325,474.3416 183.415,496.6716 " fill="none" id="Repositories-to-JobRepository" style="stroke:#181818;stroke-width:1.0;"/><polygon fill="#181818" points="178.73,500.42,188.2565,497.9208,182.6342,497.2964,183.2587,491.6741,178.73,500.42" style="stroke:#181818;stroke-width:1.0;"/><text fill="#000000" font-family="sans-serif" font-size="13" lengthAdjust="spacing" textLength="7" x="179.0597" y="489.2298">1</text></g><!--link CollaboratorRepository to Collaborator--><g id="link_CollaboratorRepository_Collaborator"><path codeLine="66" d="M601.26,586.07 C602.43,604.27 603.4076,619.5322 604.7576,640.6722 " fill="none" id="CollaboratorRepository-to-Collaborator" style="stroke:#181818;stroke-width:1.0;"/><polygon fill="#181818" points="605.14,646.66,608.5583,637.4234,604.8213,641.6702,600.5746,637.9332,605.14,646.66" style="stroke:#181818;stroke-width:1.0;"/><text fill="#000000" font-family="sans-serif" font-size="13" lengthAdjust="spacing" textLength="5" x="599.5111" y="635.8617">*</text></g><!--link JobRepository to Job--><g id="link_JobRepository_Job"><path codeLine="67" d="M150.04,567.65 C180.65,650.61 259,863 259,863 C259,863 463.8679,922.4872 559.7279,950.3172 " fill="none" id="JobRepository-to-Job" style="stroke:#181818;stroke-width:1.0;"/><polygon fill="#181818" points="565.49,951.99,557.9621,945.6393,560.6883,950.596,555.7316,953.3221,565.49,951.99" style="stroke:#181818;stroke-width:1.0;"/><text fill="#000000" font-family="sans-serif" font-size="13" lengthAdjust="spacing" textLength="5" x="552.3727" y="945.2113">*</text></g><!--link Collaborator to Job--><g id="link_Collaborator_Job"><path codeLine="68" d="M612,863.2 C612,884.75 612,900.15 612,917.77 " fill="none" id="Collaborator-to-Job" style="stroke:#181818;stroke-width:1.0;"/><polygon fill="#181818" points="612,923.77,616,914.77,612,918.77,608,914.77,612,923.77" style="stroke:#181818;stroke-width:1.0;"/><text fill="#000000" font-family="sans-serif" font-size="13" lengthAdjust="spacing" textLength="7" x="604.4422" y="912.6374">1</text></g><!--link HRM to Collaborator--><g id="link_HRM_Collaborator"><path codeLine="69" d="M992.97,567.3 C983.24,577.42 975,586 975,586 C975,586 920.245,611.3397 848.885,644.3697 " fill="none" id="HRM-to-Collaborator" style="stroke:#181818;stroke-width:1.0;"/><polygon fill="#181818" points="843.44,646.89,853.2877,646.7396,847.9775,644.7898,849.9273,639.4795,843.44,646.89" style="stroke:#181818;stroke-width:1.0;"/></g><!--link HRM to Job--><g id="link_HRM_Job"><path codeLine="70" d="M1018.13,567.65 C1003.2,650.61 965,863 965,863 C965,863 760.1321,922.4872 664.2721,950.3172 " fill="none" id="HRM-to-Job" style="stroke:#181818;stroke-width:1.0;"/><polygon fill="#181818" points="658.51,951.99,668.2684,953.3221,663.3117,950.596,666.0379,945.6393,658.51,951.99" style="stroke:#181818;stroke-width:1.0;"/></g><!--SRC=[lLInSjim3Dtv5RWijXivbwuUUfScGzrBCjZj1r0I8h6X21r9jwVq-k-592iY4odE54t2mmFm089Sk4TbQcbb1HKPoafB5OAt1nIZfvRPeonmxnkDO37pqXGw9BXIvlH7cG8Uf7QXHok3lgaHQj9DQuZ5X9Ei9n54PLewT-MzLUd1upOZirTF29T2B3G-UF04LXMbXrorSXGP8ReOs66Xd4TxJLhBbApqP7zkuQ_uznRZceotRADb9l1t_ZPhkUfP1VhlbBfRfWwGdGXS6bbX0gcolinbau3CA-KSoxwH7bipj-XS0dL91kyFLOes0QoaqWce_8Qo7pobzhVthSPkmZ8xhCaf_ccENQmvSQGZ2unUx_gtr2fd5ITu7z9N0hyedMbkQ6dFIy5xrbQEW45414PwNdWwQJscZ0ybHiHEROGy2n-3XmRwKNt0YCOPyVwzElTXBxyszrnzkOhOSuCyPr-dDg1_szqDz9uOtA9ZJONkcHA2mtq0rh8rZf-CZ9N09YADbAYDC7PwmVkUPYxxnSMN4xTSd7W4-WoZpWs_Ue7gTqHFozxCuE_964re4viYEexr-gLwTJo0rxoppsVpcYQuSTcPrwSZVueJYtXH1mgZKPQma6ZNhxMZF0FO4lu3]--></g></svg>