<?xml version="1.0" encoding="us-ascii" standalone="no"?><svg xmlns="http://www.w3.org/2000/svg" xmlns:xlink="http://www.w3.org/1999/xlink" contentStyleType="text/css" height="575.5px" preserveAspectRatio="none" style="width:1149px;height:575px;background:#FFFFFF;" version="1.1" viewBox="0 0 1149 575" width="1149px" zoomAndPan="magnify"><defs/><g><rect fill="#FFFFFF" height="459.9043" style="stroke:#181818;stroke-width:0.5;" width="5" x="30.5" y="56.1211"/><rect fill="#FFFFFF" height="15.6455" style="stroke:#181818;stroke-width:0.5;" width="5" x="185.5" y="67.7666"/><rect fill="#FFFFFF" height="140.8096" style="stroke:#181818;stroke-width:0.5;" width="5" x="185.5" y="99.0576"/><rect fill="#FFFFFF" height="15.6455" style="stroke:#181818;stroke-width:0.5;" width="5" x="185.5" y="255.5127"/><rect fill="#FFFFFF" height="229.2217" style="stroke:#181818;stroke-width:0.5;" width="5" x="185.5" y="286.8037"/><rect fill="#FFFFFF" height="109.5186" style="stroke:#181818;stroke-width:0.5;" width="5" x="493.5" y="114.7031"/><rect fill="#FFFFFF" height="197.9307" style="stroke:#181818;stroke-width:0.5;" width="5" x="493.5" y="302.4492"/><rect fill="#FFFFFF" height="15.6455" style="stroke:#181818;stroke-width:0.5;" width="5" x="576.25" y="130.3486"/><rect fill="#FFFFFF" height="15.6455" style="stroke:#181818;stroke-width:0.5;" width="5" x="576.25" y="318.0947"/><rect fill="#FFFFFF" height="15.6455" style="stroke:#181818;stroke-width:0.5;" width="5" x="629.75" y="161.6396"/><rect fill="#FFFFFF" height="15.6455" style="stroke:#181818;stroke-width:0.5;" width="5" x="770.75" y="192.9307"/><rect fill="#FFFFFF" height="135.3486" style="stroke:#181818;stroke-width:0.5;" width="5" x="825.75" y="349.3857"/><rect fill="#FFFFFF" height="65.4365" style="stroke:#181818;stroke-width:0.5;" width="5" x="828.25" y="400.1523"/><rect fill="#FFFFFF" height="21.1455" style="stroke:#181818;stroke-width:0.5;" width="5" x="830.75" y="422.2979"/><line style="stroke:#181818;stroke-width:0.25;stroke-dasharray:5.0,5.0;" x1="33" x2="33" y1="51.1211" y2="525.0254"/><line style="stroke:#181818;stroke-width:0.25;stroke-dasharray:5.0,5.0;" x1="187.75" x2="187.75" y1="51.1211" y2="525.0254"/><line style="stroke:#181818;stroke-width:0.25;stroke-dasharray:5.0,5.0;" x1="496" x2="496" y1="51.1211" y2="525.0254"/><line style="stroke:#181818;stroke-width:0.25;stroke-dasharray:5.0,5.0;" x1="578.5" x2="578.5" y1="51.1211" y2="525.0254"/><line style="stroke:#181818;stroke-width:0.25;stroke-dasharray:5.0,5.0;" x1="632" x2="632" y1="51.1211" y2="525.0254"/><line style="stroke:#181818;stroke-width:0.25;stroke-dasharray:5.0,5.0;" x1="701.5" x2="701.5" y1="51.1211" y2="525.0254"/><line style="stroke:#181818;stroke-width:0.25;stroke-dasharray:5.0,5.0;" x1="773" x2="773" y1="51.1211" y2="525.0254"/><line style="stroke:#181818;stroke-width:0.25;stroke-dasharray:5.0,5.0;" x1="828" x2="828" y1="51.1211" y2="525.0254"/><line style="stroke:#181818;stroke-width:0.25;stroke-dasharray:5.0,5.0;" x1="1122.25" x2="1122.25" y1="373.9463" y2="525.0254"/><text fill="#000000" font-family="sans-serif" font-size="7" lengthAdjust="spacing" textLength="58" x="2.5" y="40.0537">Human Resources</text><text fill="#000000" font-family="sans-serif" font-size="7" lengthAdjust="spacing" textLength="28" x="17.5" y="49.3643">Manager</text><ellipse cx="33" cy="6.75" fill="#E3E3E3" rx="4" ry="4" style="stroke:#181818;stroke-width:0.25;"/><path d="M33,10.75 L33,24.25 M26.5,14.75 L39.5,14.75 M33,24.25 L26.5,31.75 M33,24.25 L39.5,31.75 " fill="none" style="stroke:#181818;stroke-width:0.25;"/><text fill="#000000" font-family="sans-serif" font-size="7" lengthAdjust="spacing" textLength="58" x="2.5" y="532.0791">Human Resources</text><text fill="#000000" font-family="sans-serif" font-size="7" lengthAdjust="spacing" textLength="28" x="17.5" y="541.3896">Manager</text><ellipse cx="33" cy="547.3965" fill="#E3E3E3" rx="4" ry="4" style="stroke:#181818;stroke-width:0.25;"/><path d="M33,551.3965 L33,564.8965 M26.5,555.3965 L39.5,555.3965 M33,564.8965 L26.5,572.3965 M33,564.8965 L39.5,572.3965 " fill="none" style="stroke:#181818;stroke-width:0.25;"/><rect fill="#E3E3E3" height="16.3105" rx="1.25" ry="1.25" style="stroke:#181818;stroke-width:0.25;" width="80.5" x="147.75" y="34.3105"/><text fill="#000000" font-family="sans-serif" font-size="7" lengthAdjust="spacing" textLength="73.5" x="151.25" y="45.3643">:RegisterCollaboratorUI</text><rect fill="#E3E3E3" height="16.3105" rx="1.25" ry="1.25" style="stroke:#181818;stroke-width:0.25;" width="80.5" x="147.75" y="524.5254"/><text fill="#000000" font-family="sans-serif" font-size="7" lengthAdjust="spacing" textLength="73.5" x="151.25" y="535.5791">:RegisterCollaboratorUI</text><rect fill="#E3E3E3" height="16.3105" rx="1.25" ry="1.25" style="stroke:#181818;stroke-width:0.25;" width="107" x="442.5" y="34.3105"/><text fill="#000000" font-family="sans-serif" font-size="7" lengthAdjust="spacing" textLength="100" x="446" y="45.3643">:RegisterCollaboratorControlller</text><rect fill="#E3E3E3" height="16.3105" rx="1.25" ry="1.25" style="stroke:#181818;stroke-width:0.25;" width="107" x="442.5" y="524.5254"/><text fill="#000000" font-family="sans-serif" font-size="7" lengthAdjust="spacing" textLength="100" x="446" y="535.5791">:RegisterCollaboratorControlller</text><rect fill="#E3E3E3" height="16.3105" rx="1.25" ry="1.25" style="stroke:#181818;stroke-width:0.25;" width="48.5" x="554.5" y="34.3105"/><text fill="#000000" font-family="sans-serif" font-size="7" lengthAdjust="spacing" textLength="41.5" x="558" y="45.3643">:Repositories</text><rect fill="#E3E3E3" height="16.3105" rx="1.25" ry="1.25" style="stroke:#181818;stroke-width:0.25;" width="48.5" x="554.5" y="524.5254"/><text fill="#000000" font-family="sans-serif" font-size="7" lengthAdjust="spacing" textLength="41.5" x="558" y="535.5791">:Repositories</text><rect fill="#E3E3E3" height="25.6211" rx="1.25" ry="1.25" style="stroke:#181818;stroke-width:0.25;" width="48.5" x="608" y="25"/><text fill="#000000" font-family="sans-serif" font-size="7" lengthAdjust="spacing" textLength="37" x="613.75" y="36.0537">repositories</text><text fill="#000000" font-family="sans-serif" font-size="7" lengthAdjust="spacing" textLength="41.5" x="611.5" y="45.3643">:Repositories</text><rect fill="#E3E3E3" height="25.6211" rx="1.25" ry="1.25" style="stroke:#181818;stroke-width:0.25;" width="48.5" x="608" y="524.5254"/><text fill="#000000" font-family="sans-serif" font-size="7" lengthAdjust="spacing" textLength="37" x="613.75" y="535.5791">repositories</text><text fill="#000000" font-family="sans-serif" font-size="7" lengthAdjust="spacing" textLength="41.5" x="611.5" y="544.8896">:Repositories</text><rect fill="#E3E3E3" height="25.6211" rx="1.25" ry="1.25" style="stroke:#181818;stroke-width:0.25;" width="80.5" x="661.5" y="25"/><text fill="#000000" font-family="sans-serif" font-size="7" lengthAdjust="spacing" textLength="73.5" x="665" y="36.0537">collaboratorRepository:</text><text fill="#000000" font-family="sans-serif" font-size="7" lengthAdjust="spacing" textLength="71.5" x="666" y="45.3643">collaboratorRepository</text><rect fill="#E3E3E3" height="25.6211" rx="1.25" ry="1.25" style="stroke:#181818;stroke-width:0.25;" width="80.5" x="661.5" y="524.5254"/><text fill="#000000" font-family="sans-serif" font-size="7" lengthAdjust="spacing" textLength="73.5" x="665" y="535.5791">collaboratorRepository:</text><text fill="#000000" font-family="sans-serif" font-size="7" lengthAdjust="spacing" textLength="71.5" x="666" y="544.8896">collaboratorRepository</text><rect fill="#E3E3E3" height="25.6211" rx="1.25" ry="1.25" style="stroke:#181818;stroke-width:0.25;" width="52.5" x="747" y="25"/><text fill="#000000" font-family="sans-serif" font-size="7" lengthAdjust="spacing" textLength="45.5" x="750.5" y="36.0537">jobRepository:</text><text fill="#000000" font-family="sans-serif" font-size="7" lengthAdjust="spacing" textLength="43.5" x="751.5" y="45.3643">jobRepository</text><rect fill="#E3E3E3" height="25.6211" rx="1.25" ry="1.25" style="stroke:#181818;stroke-width:0.25;" width="52.5" x="747" y="524.5254"/><text fill="#000000" font-family="sans-serif" font-size="7" lengthAdjust="spacing" textLength="45.5" x="750.5" y="535.5791">jobRepository:</text><text fill="#000000" font-family="sans-serif" font-size="7" lengthAdjust="spacing" textLength="43.5" x="751.5" y="544.8896">jobRepository</text><rect fill="#E3E3E3" height="25.6211" rx="1.25" ry="1.25" style="stroke:#181818;stroke-width:0.25;" width="47.5" x="804.5" y="25"/><text fill="#000000" font-family="sans-serif" font-size="7" lengthAdjust="spacing" textLength="40.5" x="808" y="36.0537">organization:</text><text fill="#000000" font-family="sans-serif" font-size="7" lengthAdjust="spacing" textLength="40" x="808.25" y="45.3643">Organization</text><rect fill="#E3E3E3" height="25.6211" rx="1.25" ry="1.25" style="stroke:#181818;stroke-width:0.25;" width="47.5" x="804.5" y="524.5254"/><text fill="#000000" font-family="sans-serif" font-size="7" lengthAdjust="spacing" textLength="40.5" x="808" y="535.5791">organization:</text><text fill="#000000" font-family="sans-serif" font-size="7" lengthAdjust="spacing" textLength="40" x="808.25" y="544.8896">Organization</text><rect fill="#E3E3E3" height="25.6211" rx="1.25" ry="1.25" style="stroke:#181818;stroke-width:0.25;" width="48" x="1098.25" y="524.5254"/><text fill="#000000" font-family="sans-serif" font-size="7" lengthAdjust="spacing" textLength="37.5" x="1103.5" y="535.5791">collaborator</text><text fill="#000000" font-family="sans-serif" font-size="7" lengthAdjust="spacing" textLength="41" x="1101.75" y="544.8896">:Collaborator</text><rect fill="#FFFFFF" height="459.9043" style="stroke:#181818;stroke-width:0.5;" width="5" x="30.5" y="56.1211"/><rect fill="#FFFFFF" height="15.6455" style="stroke:#181818;stroke-width:0.5;" width="5" x="185.5" y="67.7666"/><rect fill="#FFFFFF" height="140.8096" style="stroke:#181818;stroke-width:0.5;" width="5" x="185.5" y="99.0576"/><rect fill="#FFFFFF" height="15.6455" style="stroke:#181818;stroke-width:0.5;" width="5" x="185.5" y="255.5127"/><rect fill="#FFFFFF" height="229.2217" style="stroke:#181818;stroke-width:0.5;" width="5" x="185.5" y="286.8037"/><rect fill="#FFFFFF" height="109.5186" style="stroke:#181818;stroke-width:0.5;" width="5" x="493.5" y="114.7031"/><rect fill="#FFFFFF" height="197.9307" style="stroke:#181818;stroke-width:0.5;" width="5" x="493.5" y="302.4492"/><rect fill="#FFFFFF" height="15.6455" style="stroke:#181818;stroke-width:0.5;" width="5" x="576.25" y="130.3486"/><rect fill="#FFFFFF" height="15.6455" style="stroke:#181818;stroke-width:0.5;" width="5" x="576.25" y="318.0947"/><rect fill="#FFFFFF" height="15.6455" style="stroke:#181818;stroke-width:0.5;" width="5" x="629.75" y="161.6396"/><rect fill="#FFFFFF" height="15.6455" style="stroke:#181818;stroke-width:0.5;" width="5" x="770.75" y="192.9307"/><rect fill="#FFFFFF" height="135.3486" style="stroke:#181818;stroke-width:0.5;" width="5" x="825.75" y="349.3857"/><rect fill="#FFFFFF" height="65.4365" style="stroke:#181818;stroke-width:0.5;" width="5" x="828.25" y="400.1523"/><rect fill="#FFFFFF" height="21.1455" style="stroke:#181818;stroke-width:0.5;" width="5" x="830.75" y="422.2979"/><polygon fill="#181818" points="179.5,65.7666,184.5,67.7666,179.5,69.7666,181.5,67.7666" style="stroke:#181818;stroke-width:0.5;"/><line style="stroke:#181818;stroke-width:0.5;" x1="35.5" x2="182.5" y1="67.7666" y2="67.7666"/><text fill="#000000" font-family="sans-serif" font-size="6.5" font-weight="bold" lengthAdjust="spacing" textLength="3.5" x="39" y="65.1353">1</text><text fill="#000000" font-family="sans-serif" font-size="6.5" lengthAdjust="spacing" textLength="99.5" x="44.5" y="65.1353">asks to register a new collaborator</text><polygon fill="#181818" points="41,81.4121,36,83.4121,41,85.4121,39,83.4121" style="stroke:#181818;stroke-width:0.5;"/><line style="stroke:#181818;stroke-width:0.5;stroke-dasharray:2.0,2.0;" x1="38" x2="187.5" y1="83.4121" y2="83.4121"/><text fill="#000000" font-family="sans-serif" font-size="6.5" font-weight="bold" lengthAdjust="spacing" textLength="3.5" x="44" y="80.7808">2</text><text fill="#000000" font-family="sans-serif" font-size="6.5" lengthAdjust="spacing" textLength="39.5" x="49.5" y="80.7808">requests data</text><polygon fill="#181818" points="179.5,97.0576,184.5,99.0576,179.5,101.0576,181.5,99.0576" style="stroke:#181818;stroke-width:0.5;"/><line style="stroke:#181818;stroke-width:0.5;" x1="35.5" x2="182.5" y1="99.0576" y2="99.0576"/><text fill="#000000" font-family="sans-serif" font-size="6.5" font-weight="bold" lengthAdjust="spacing" textLength="3.5" x="39" y="96.4263">3</text><text fill="#000000" font-family="sans-serif" font-size="6.5" lengthAdjust="spacing" textLength="84" x="44.5" y="96.4263">types/selects requested data</text><polygon fill="#181818" points="487.5,112.7031,492.5,114.7031,487.5,116.7031,489.5,114.7031" style="stroke:#181818;stroke-width:0.5;"/><line style="stroke:#181818;stroke-width:0.5;stroke-dasharray:2.0,2.0;" x1="190.5" x2="490.5" y1="114.7031" y2="114.7031"/><text fill="#000000" font-family="sans-serif" font-size="6.5" font-weight="bold" lengthAdjust="spacing" textLength="3.5" x="194" y="112.0718">4</text><text fill="#000000" font-family="sans-serif" font-size="6.5" lengthAdjust="spacing" textLength="26.5" x="199.5" y="112.0718">getJobs()</text><polygon fill="#181818" points="570.25,128.3486,575.25,130.3486,570.25,132.3486,572.25,130.3486" style="stroke:#181818;stroke-width:0.5;"/><line style="stroke:#181818;stroke-width:0.5;" x1="498.5" x2="573.25" y1="130.3486" y2="130.3486"/><text fill="#000000" font-family="sans-serif" font-size="6.5" font-weight="bold" lengthAdjust="spacing" textLength="3.5" x="502" y="127.7173">5</text><text fill="#000000" font-family="sans-serif" font-size="6.5" lengthAdjust="spacing" textLength="37.5" x="507.5" y="127.7173">getInstance()</text><polygon fill="#181818" points="504,143.9941,499,145.9941,504,147.9941,502,145.9941" style="stroke:#181818;stroke-width:0.5;"/><line style="stroke:#181818;stroke-width:0.5;stroke-dasharray:2.0,2.0;" x1="501" x2="578.25" y1="145.9941" y2="145.9941"/><text fill="#000000" font-family="sans-serif" font-size="6.5" font-weight="bold" lengthAdjust="spacing" textLength="3.5" x="507" y="143.3628">6</text><text fill="#000000" font-family="sans-serif" font-size="6.5" lengthAdjust="spacing" textLength="33.5" x="512.5" y="143.3628">repositories</text><polygon fill="#181818" points="623.75,159.6396,628.75,161.6396,623.75,163.6396,625.75,161.6396" style="stroke:#181818;stroke-width:0.5;"/><line style="stroke:#181818;stroke-width:0.5;" x1="498.5" x2="626.75" y1="161.6396" y2="161.6396"/><text fill="#000000" font-family="sans-serif" font-size="6.5" font-weight="bold" lengthAdjust="spacing" textLength="3.5" x="502" y="159.0083">7</text><text fill="#000000" font-family="sans-serif" font-size="6.5" lengthAdjust="spacing" textLength="54" x="507.5" y="159.0083">getJobRepository()</text><polygon fill="#181818" points="504,175.2852,499,177.2852,504,179.2852,502,177.2852" style="stroke:#181818;stroke-width:0.5;"/><line style="stroke:#181818;stroke-width:0.5;stroke-dasharray:2.0,2.0;" x1="501" x2="631.75" y1="177.2852" y2="177.2852"/><text fill="#000000" font-family="sans-serif" font-size="6.5" font-weight="bold" lengthAdjust="spacing" textLength="3.5" x="507" y="174.6538">8</text><text fill="#000000" font-family="sans-serif" font-size="6.5" lengthAdjust="spacing" textLength="41" x="512.5" y="174.6538">JobRepository</text><polygon fill="#181818" points="764.75,190.9307,769.75,192.9307,764.75,194.9307,766.75,192.9307" style="stroke:#181818;stroke-width:0.5;"/><line style="stroke:#181818;stroke-width:0.5;" x1="498.5" x2="767.75" y1="192.9307" y2="192.9307"/><text fill="#000000" font-family="sans-serif" font-size="6.5" font-weight="bold" lengthAdjust="spacing" textLength="3.5" x="502" y="190.2993">9</text><text fill="#000000" font-family="sans-serif" font-size="6.5" lengthAdjust="spacing" textLength="37" x="507.5" y="190.2993">getJobsList()</text><polygon fill="#181818" points="504,206.5762,499,208.5762,504,210.5762,502,208.5762" style="stroke:#181818;stroke-width:0.5;"/><line style="stroke:#181818;stroke-width:0.5;stroke-dasharray:2.0,2.0;" x1="501" x2="772.75" y1="208.5762" y2="208.5762"/><text fill="#000000" font-family="sans-serif" font-size="6.5" font-weight="bold" lengthAdjust="spacing" textLength="7" x="507" y="205.9448">10</text><text fill="#000000" font-family="sans-serif" font-size="6.5" lengthAdjust="spacing" textLength="24" x="516" y="205.9448">JobsList</text><polygon fill="#181818" points="196,222.2217,191,224.2217,196,226.2217,194,224.2217" style="stroke:#181818;stroke-width:0.5;"/><line style="stroke:#181818;stroke-width:0.5;stroke-dasharray:2.0,2.0;" x1="193" x2="495.5" y1="224.2217" y2="224.2217"/><text fill="#000000" font-family="sans-serif" font-size="6.5" font-weight="bold" lengthAdjust="spacing" textLength="7" x="199" y="221.5903">11</text><text fill="#000000" font-family="sans-serif" font-size="6.5" lengthAdjust="spacing" textLength="24" x="208" y="221.5903">JobsList</text><polygon fill="#181818" points="41,237.8672,36,239.8672,41,241.8672,39,239.8672" style="stroke:#181818;stroke-width:0.5;"/><line style="stroke:#181818;stroke-width:0.5;stroke-dasharray:2.0,2.0;" x1="38" x2="187.5" y1="239.8672" y2="239.8672"/><text fill="#000000" font-family="sans-serif" font-size="6.5" font-weight="bold" lengthAdjust="spacing" textLength="7" x="44" y="237.2358">12</text><text fill="#000000" font-family="sans-serif" font-size="6.5" lengthAdjust="spacing" textLength="129" x="53" y="237.2358">shows the list of jobs and asks to select one</text><polygon fill="#181818" points="179.5,253.5127,184.5,255.5127,179.5,257.5127,181.5,255.5127" style="stroke:#181818;stroke-width:0.5;"/><line style="stroke:#181818;stroke-width:0.5;" x1="35.5" x2="182.5" y1="255.5127" y2="255.5127"/><text fill="#000000" font-family="sans-serif" font-size="6.5" font-weight="bold" lengthAdjust="spacing" textLength="7" x="39" y="252.8813">13</text><text fill="#000000" font-family="sans-serif" font-size="6.5" lengthAdjust="spacing" textLength="42.5" x="48" y="252.8813">selects the job</text><polygon fill="#181818" points="41,269.1582,36,271.1582,41,273.1582,39,271.1582" style="stroke:#181818;stroke-width:0.5;"/><line style="stroke:#181818;stroke-width:0.5;stroke-dasharray:2.0,2.0;" x1="38" x2="187.5" y1="271.1582" y2="271.1582"/><text fill="#000000" font-family="sans-serif" font-size="6.5" font-weight="bold" lengthAdjust="spacing" textLength="7" x="44" y="268.5269">14</text><text fill="#000000" font-family="sans-serif" font-size="6.5" lengthAdjust="spacing" textLength="118" x="53" y="268.5269">shows all data and requests confirmation</text><polygon fill="#181818" points="179.5,284.8037,184.5,286.8037,179.5,288.8037,181.5,286.8037" style="stroke:#181818;stroke-width:0.5;"/><line style="stroke:#181818;stroke-width:0.5;" x1="35.5" x2="182.5" y1="286.8037" y2="286.8037"/><text fill="#000000" font-family="sans-serif" font-size="6.5" font-weight="bold" lengthAdjust="spacing" textLength="7" x="39" y="284.1724">15</text><text fill="#000000" font-family="sans-serif" font-size="6.5" lengthAdjust="spacing" textLength="39" x="48" y="284.1724">confirms data</text><polygon fill="#181818" points="487.5,300.4492,492.5,302.4492,487.5,304.4492,489.5,302.4492" style="stroke:#181818;stroke-width:0.5;"/><line style="stroke:#181818;stroke-width:0.5;" x1="190.5" x2="490.5" y1="302.4492" y2="302.4492"/><text fill="#000000" font-family="sans-serif" font-size="6.5" font-weight="bold" lengthAdjust="spacing" textLength="7" x="194" y="299.8179">16</text><text fill="#000000" font-family="sans-serif" font-size="6.5" lengthAdjust="spacing" textLength="284.5" x="203" y="299.8179">registerCollaborator(job, name, birthday, admissionDate, address, phoneNumber, email, idNumber)</text><polygon fill="#181818" points="570.25,316.0947,575.25,318.0947,570.25,320.0947,572.25,318.0947" style="stroke:#181818;stroke-width:0.5;"/><line style="stroke:#181818;stroke-width:0.5;" x1="498.5" x2="573.25" y1="318.0947" y2="318.0947"/><text fill="#000000" font-family="sans-serif" font-size="6.5" font-weight="bold" lengthAdjust="spacing" textLength="7" x="502" y="315.4634">17</text><text fill="#000000" font-family="sans-serif" font-size="6.5" lengthAdjust="spacing" textLength="37.5" x="511" y="315.4634">getInstance()</text><polygon fill="#181818" points="504,331.7402,499,333.7402,504,335.7402,502,333.7402" style="stroke:#181818;stroke-width:0.5;"/><line style="stroke:#181818;stroke-width:0.5;stroke-dasharray:2.0,2.0;" x1="501" x2="578.25" y1="333.7402" y2="333.7402"/><text fill="#000000" font-family="sans-serif" font-size="6.5" font-weight="bold" lengthAdjust="spacing" textLength="7" x="507" y="331.1089">18</text><text fill="#000000" font-family="sans-serif" font-size="6.5" lengthAdjust="spacing" textLength="33.5" x="516" y="331.1089">repositories</text><polygon fill="#181818" points="819.75,347.3857,824.75,349.3857,819.75,351.3857,821.75,349.3857" style="stroke:#181818;stroke-width:0.5;"/><line style="stroke:#181818;stroke-width:0.5;" x1="498.5" x2="822.75" y1="349.3857" y2="349.3857"/><text fill="#000000" font-family="sans-serif" font-size="6.5" font-weight="bold" lengthAdjust="spacing" textLength="7" x="502" y="346.7544">19</text><text fill="#000000" font-family="sans-serif" font-size="6.5" lengthAdjust="spacing" textLength="284.5" x="511" y="346.7544">registerCollaborator(job, name, birthday, admissionDate, address, phoneNumber, email, idNumber)</text><polygon fill="#181818" points="1092.25,363.0313,1097.25,365.0313,1092.25,367.0313,1094.25,365.0313" style="stroke:#181818;stroke-width:0.5;"/><line style="stroke:#181818;stroke-width:0.5;" x1="830.75" x2="1095.25" y1="365.0313" y2="365.0313"/><text fill="#000000" font-family="sans-serif" font-size="6.5" font-weight="bold" lengthAdjust="spacing" textLength="7" x="834.25" y="362.3999">20</text><text fill="#000000" font-family="sans-serif" font-size="6.5" lengthAdjust="spacing" textLength="246.5" x="843.25" y="362.3999">create(job, name, birthday, admissionDate, address, phoneNumber, email, idNumber)</text><rect fill="#E3E3E3" height="25.6211" rx="1.25" ry="1.25" style="stroke:#181818;stroke-width:0.25;" width="48" x="1098.25" y="353.3857"/><text fill="#000000" font-family="sans-serif" font-size="7" lengthAdjust="spacing" textLength="37.5" x="1103.5" y="364.4395">collaborator</text><text fill="#000000" font-family="sans-serif" font-size="7" lengthAdjust="spacing" textLength="41" x="1101.75" y="373.75">:Collaborator</text><line style="stroke:#181818;stroke-width:0.5;" x1="830.75" x2="854.25" y1="393.6523" y2="393.6523"/><line style="stroke:#181818;stroke-width:0.5;" x1="854.25" x2="854.25" y1="393.6523" y2="400.1523"/><line style="stroke:#181818;stroke-width:0.5;" x1="833.75" x2="854.25" y1="400.1523" y2="400.1523"/><polygon fill="#181818" points="838.75,398.1523,833.75,400.1523,838.75,402.1523,836.75,400.1523" style="stroke:#181818;stroke-width:0.5;"/><text fill="#000000" font-family="sans-serif" font-size="6.5" font-weight="bold" lengthAdjust="spacing" textLength="7" x="836.75" y="391.021">21</text><text fill="#000000" font-family="sans-serif" font-size="6.5" lengthAdjust="spacing" textLength="83" x="845.75" y="391.021">addCollaborator (colaborator)</text><line style="stroke:#181818;stroke-width:0.5;" x1="833.25" x2="856.75" y1="415.7979" y2="415.7979"/><line style="stroke:#181818;stroke-width:0.5;" x1="856.75" x2="856.75" y1="415.7979" y2="422.2979"/><line style="stroke:#181818;stroke-width:0.5;" x1="836.25" x2="856.75" y1="422.2979" y2="422.2979"/><polygon fill="#181818" points="841.25,420.2979,836.25,422.2979,841.25,424.2979,839.25,422.2979" style="stroke:#181818;stroke-width:0.5;"/><text fill="#000000" font-family="sans-serif" font-size="6.5" font-weight="bold" lengthAdjust="spacing" textLength="7" x="839.25" y="413.1665">22</text><text fill="#000000" font-family="sans-serif" font-size="6.5" lengthAdjust="spacing" textLength="94" x="848.25" y="413.1665">validateCollaborator (colaborator)</text><line style="stroke:#181818;stroke-width:0.5;" x1="835.75" x2="856.75" y1="442.9434" y2="442.9434"/><line style="stroke:#181818;stroke-width:0.5;" x1="856.75" x2="856.75" y1="442.9434" y2="449.4434"/><line style="stroke:#181818;stroke-width:0.5;" x1="833.25" x2="856.75" y1="449.4434" y2="449.4434"/><polygon fill="#181818" points="838.25,447.4434,833.25,449.4434,838.25,451.4434,836.25,449.4434" style="stroke:#181818;stroke-width:0.5;"/><text fill="#000000" font-family="sans-serif" font-size="6.5" font-weight="bold" lengthAdjust="spacing" textLength="7" x="839.25" y="440.312">23</text><text fill="#000000" font-family="sans-serif" font-size="6.5" lengthAdjust="spacing" textLength="2" x="848.25" y="440.312">&#160;</text><line style="stroke:#181818;stroke-width:0.5;" x1="833.25" x2="854.25" y1="465.0889" y2="465.0889"/><line style="stroke:#181818;stroke-width:0.5;" x1="854.25" x2="854.25" y1="465.0889" y2="471.5889"/><line style="stroke:#181818;stroke-width:0.5;" x1="830.75" x2="854.25" y1="471.5889" y2="471.5889"/><polygon fill="#181818" points="835.75,469.5889,830.75,471.5889,835.75,473.5889,833.75,471.5889" style="stroke:#181818;stroke-width:0.5;"/><text fill="#000000" font-family="sans-serif" font-size="6.5" font-weight="bold" lengthAdjust="spacing" textLength="7" x="836.75" y="462.4575">24</text><text fill="#000000" font-family="sans-serif" font-size="6.5" lengthAdjust="spacing" textLength="2" x="845.75" y="462.4575">&#160;</text><polygon fill="#181818" points="504,482.7344,499,484.7344,504,486.7344,502,484.7344" style="stroke:#181818;stroke-width:0.5;"/><line style="stroke:#181818;stroke-width:0.5;stroke-dasharray:2.0,2.0;" x1="501" x2="827.75" y1="484.7344" y2="484.7344"/><text fill="#000000" font-family="sans-serif" font-size="6.5" font-weight="bold" lengthAdjust="spacing" textLength="7" x="507" y="482.103">25</text><text fill="#000000" font-family="sans-serif" font-size="6.5" lengthAdjust="spacing" textLength="33.5" x="516" y="482.103">collaborator</text><polygon fill="#181818" points="196,498.3799,191,500.3799,196,502.3799,194,500.3799" style="stroke:#181818;stroke-width:0.5;"/><line style="stroke:#181818;stroke-width:0.5;stroke-dasharray:2.0,2.0;" x1="193" x2="495.5" y1="500.3799" y2="500.3799"/><text fill="#000000" font-family="sans-serif" font-size="6.5" font-weight="bold" lengthAdjust="spacing" textLength="7" x="199" y="497.7485">26</text><text fill="#000000" font-family="sans-serif" font-size="6.5" lengthAdjust="spacing" textLength="33.5" x="208" y="497.7485">collaborator</text><polygon fill="#181818" points="38.5,514.0254,33.5,516.0254,38.5,518.0254,36.5,516.0254" style="stroke:#181818;stroke-width:0.5;"/><line style="stroke:#181818;stroke-width:0.5;stroke-dasharray:2.0,2.0;" x1="35.5" x2="187.5" y1="516.0254" y2="516.0254"/><text fill="#000000" font-family="sans-serif" font-size="6.5" font-weight="bold" lengthAdjust="spacing" textLength="7" x="41.5" y="513.394">27</text><text fill="#000000" font-family="sans-serif" font-size="6.5" lengthAdjust="spacing" textLength="79" x="50.5" y="513.394">displays operation success</text><!--SRC=[nLR1SjCm4BtxAtPweUsampq7PafXfcLImZZjhPUDlOb5RSbevPRmzQnbuaWuQTt2W4-MTj_R9-cjRBvNkaQB5LH6cwomfY9mjg64-qYDsJskQU4s9O6bpA5Ubs425vYRHwNNiCAIAKcmSKOtrP9iahmfL4wmCiOjpVS4CsSi75qs5Mf8YKrZC-8xVOrQIjWZG8RBz3eHOgSoLQDsS3HDQQtOaRqmPObBOr58RgzyyktLYDmBevsLSVchmiLDEXl0QiDASXMnpqa_VebJR91nf_S25Z4Y2oJqwPlfdTuVy2pxGp7lLxECwAAnPubcOh2nQzJg1pfbj63dmT13m_ZXvSW6X1lSxUfyDZj_Fq_FR-PfqfwqUa17_ZWJa4TUuEoTd1XC9VsUmHcnKtTQWA3fCLgzn_GiSiv-Gj1dGj9oJGNzhI5s33awzE6S1eYmhDlKn6-PId4nR-6Kx_03T52pTOrmhCbzCai-FkdZFSZxgfzk7uyHh9YZWrvfblx9A8175AtjeaYBt5PlLxnpNPGMB7n04OXOz0lO-UC9AOk1baKW9c9vGirYlvpOnjjzdOaV3YcARHtbHA7mkBQSX_GzmTa9tNhdEQBTuKSUvS8yYjKBWbB0O5PjHGRKUTy4dH_1Q1hZuQrxMqgX6j4cdGGiI-zpNxhldCpebR9Lr-uZgl_Avn4ji_Fiy4O-5kKJq5ZH19RAkYB7pGGmhnIpAFaWVEqmjyGyWRgGlVdiFoWJe0fLEG6LTnClRSF_teNH1VpFDYTQNdJ7Hodj4qRzAGRt-kbfwm5Bml8tLJwh8TuqOGtt2uxbkx4Td0ouNhdikEG3baeiJtzSz_Ui5-aO90U6U_tgnh8Ef2U7A_IzClYaZvOUNBy7Q9wvVQUGAwvBtCXVJKssKyPD9d-SlE-k2uRjJyjF]--></g></svg>