<?xml version="1.0" encoding="us-ascii" standalone="no"?><svg xmlns="http://www.w3.org/2000/svg" xmlns:xlink="http://www.w3.org/1999/xlink" contentStyleType="text/css" height="377.1px" preserveAspectRatio="none" style="width:739px;height:377px;background:#FFFFFF;" version="1.1" viewBox="0 0 739 377" width="739.2px" zoomAndPan="magnify"><defs/><g><rect fill="#FFFFFF" height="307.8035" style="stroke:#181818;stroke-width:0.3;" width="3" x="18.3" y="33.6727"/><rect fill="#FFFFFF" height="22.4736" style="stroke:#181818;stroke-width:0.3;" width="3" x="111.3" y="40.66"/><rect fill="#FFFFFF" height="84.4857" style="stroke:#181818;stroke-width:0.3;" width="3" x="111.3" y="72.5209"/><rect fill="#FFFFFF" height="9.3873" style="stroke:#181818;stroke-width:0.3;" width="3" x="111.3" y="166.3939"/><rect fill="#FFFFFF" height="156.3076" style="stroke:#181818;stroke-width:0.3;" width="3" x="111.3" y="185.1686"/><rect fill="#FFFFFF" height="65.7111" style="stroke:#181818;stroke-width:0.3;" width="3" x="316.8" y="81.9082"/><rect fill="#FFFFFF" height="137.533" style="stroke:#181818;stroke-width:0.3;" width="3" x="316.8" y="194.5559"/><rect fill="#FFFFFF" height="9.3873" style="stroke:#181818;stroke-width:0.3;" width="3" x="366.45" y="91.2955"/><rect fill="#FFFFFF" height="9.3873" style="stroke:#181818;stroke-width:0.3;" width="3" x="366.45" y="203.9432"/><rect fill="#FFFFFF" height="9.3873" style="stroke:#181818;stroke-width:0.3;" width="3" x="398.55" y="110.0701"/><rect fill="#FFFFFF" height="9.3873" style="stroke:#181818;stroke-width:0.3;" width="3" x="398.55" y="222.7178"/><rect fill="#FFFFFF" height="9.3873" style="stroke:#181818;stroke-width:0.3;" width="3" x="431.85" y="128.8447"/><rect fill="#FFFFFF" height="81.2092" style="stroke:#181818;stroke-width:0.3;" width="3" x="522.3" y="241.4924"/><rect fill="#FFFFFF" height="39.2619" style="stroke:#181818;stroke-width:0.3;" width="3" x="523.8" y="271.9523"/><rect fill="#FFFFFF" height="12.6873" style="stroke:#181818;stroke-width:0.3;" width="3" x="525.3" y="285.2396"/><line style="stroke:#181818;stroke-width:0.15;stroke-dasharray:5.0,5.0;" x1="19.8" x2="19.8" y1="30.6727" y2="346.8762"/><line style="stroke:#181818;stroke-width:0.15;stroke-dasharray:5.0,5.0;" x1="112.65" x2="112.65" y1="30.6727" y2="346.8762"/><line style="stroke:#181818;stroke-width:0.15;stroke-dasharray:5.0,5.0;" x1="318.3" x2="318.3" y1="52.6031" y2="346.8762"/><line style="stroke:#181818;stroke-width:0.15;stroke-dasharray:5.0,5.0;" x1="367.8" x2="367.8" y1="30.6727" y2="346.8762"/><line style="stroke:#181818;stroke-width:0.15;stroke-dasharray:5.0,5.0;" x1="399.9" x2="399.9" y1="30.6727" y2="346.8762"/><line style="stroke:#181818;stroke-width:0.15;stroke-dasharray:5.0,5.0;" x1="433.2" x2="433.2" y1="30.6727" y2="346.8762"/><line style="stroke:#181818;stroke-width:0.15;stroke-dasharray:5.0,5.0;" x1="523.65" x2="523.65" y1="30.6727" y2="346.8762"/><line style="stroke:#181818;stroke-width:0.15;stroke-dasharray:5.0,5.0;" x1="723" x2="723" y1="256.2287" y2="346.8762"/><text fill="#000000" font-family="sans-serif" font-size="4.2" lengthAdjust="spacing" textLength="34.8" x="1.5" y="24.0322">Human Resources</text><text fill="#000000" font-family="sans-serif" font-size="4.2" lengthAdjust="spacing" textLength="16.8" x="10.5" y="29.6186">Manager</text><ellipse cx="19.8" cy="4.05" fill="#E3E3E3" rx="2.4" ry="2.4" style="stroke:#181818;stroke-width:0.15;"/><path d="M19.8,6.45 L19.8,14.55 M15.9,8.85 L23.7,8.85 M19.8,14.55 L15.9,19.05 M19.8,14.55 L23.7,19.05 " fill="none" style="stroke:#181818;stroke-width:0.15;"/><text fill="#000000" font-family="sans-serif" font-size="4.2" lengthAdjust="spacing" textLength="34.8" x="1.5" y="351.1084">Human Resources</text><text fill="#000000" font-family="sans-serif" font-size="4.2" lengthAdjust="spacing" textLength="16.8" x="10.5" y="356.6947">Manager</text><ellipse cx="19.8" cy="360.2988" fill="#E3E3E3" rx="2.4" ry="2.4" style="stroke:#181818;stroke-width:0.15;"/><path d="M19.8,362.6988 L19.8,370.7988 M15.9,365.0988 L23.7,365.0988 M19.8,370.7988 L15.9,375.2988 M19.8,370.7988 L23.7,375.2988 " fill="none" style="stroke:#181818;stroke-width:0.15;"/><rect fill="#E3E3E3" height="9.7863" rx="0.75" ry="0.75" style="stroke:#181818;stroke-width:0.15;" width="48.3" x="88.65" y="20.5863"/><text fill="#000000" font-family="sans-serif" font-size="4.2" lengthAdjust="spacing" textLength="44.1" x="90.75" y="27.2186">:RegisterCollaboratorUI</text><rect fill="#E3E3E3" height="9.7863" rx="0.75" ry="0.75" style="stroke:#181818;stroke-width:0.15;" width="48.3" x="88.65" y="346.5762"/><text fill="#000000" font-family="sans-serif" font-size="4.2" lengthAdjust="spacing" textLength="44.1" x="90.75" y="353.2084">:RegisterCollaboratorUI</text><rect fill="#E3E3E3" height="9.7863" rx="0.75" ry="0.75" style="stroke:#181818;stroke-width:0.15;" width="64.2" x="286.2" y="346.5762"/><text fill="#000000" font-family="sans-serif" font-size="4.2" lengthAdjust="spacing" textLength="60" x="288.3" y="353.2084">:RegisterCollaboratorControlller</text><rect fill="#E3E3E3" height="9.7863" rx="0.75" ry="0.75" style="stroke:#181818;stroke-width:0.15;" width="29.1" x="353.4" y="20.5863"/><text fill="#000000" font-family="sans-serif" font-size="4.2" lengthAdjust="spacing" textLength="24.9" x="355.5" y="27.2186">:Repositories</text><rect fill="#E3E3E3" height="9.7863" rx="0.75" ry="0.75" style="stroke:#181818;stroke-width:0.15;" width="29.1" x="353.4" y="346.5762"/><text fill="#000000" font-family="sans-serif" font-size="4.2" lengthAdjust="spacing" textLength="24.9" x="355.5" y="353.2084">:Repositories</text><rect fill="#E3E3E3" height="15.3727" rx="0.75" ry="0.75" style="stroke:#181818;stroke-width:0.15;" width="29.1" x="385.5" y="15"/><text fill="#000000" font-family="sans-serif" font-size="4.2" lengthAdjust="spacing" textLength="22.2" x="388.95" y="21.6322">repositories</text><text fill="#000000" font-family="sans-serif" font-size="4.2" lengthAdjust="spacing" textLength="24.9" x="387.6" y="27.2186">:Repositories</text><rect fill="#E3E3E3" height="15.3727" rx="0.75" ry="0.75" style="stroke:#181818;stroke-width:0.15;" width="29.1" x="385.5" y="346.5762"/><text fill="#000000" font-family="sans-serif" font-size="4.2" lengthAdjust="spacing" textLength="22.2" x="388.95" y="353.2084">repositories</text><text fill="#000000" font-family="sans-serif" font-size="4.2" lengthAdjust="spacing" textLength="24.9" x="387.6" y="358.7947">:Repositories</text><rect fill="#E3E3E3" height="15.3727" rx="0.75" ry="0.75" style="stroke:#181818;stroke-width:0.15;" width="31.5" x="417.6" y="15"/><text fill="#000000" font-family="sans-serif" font-size="4.2" lengthAdjust="spacing" textLength="27.3" x="419.7" y="21.6322">jobRepository:</text><text fill="#000000" font-family="sans-serif" font-size="4.2" lengthAdjust="spacing" textLength="26.1" x="420.3" y="27.2186">jobRepository</text><rect fill="#E3E3E3" height="15.3727" rx="0.75" ry="0.75" style="stroke:#181818;stroke-width:0.15;" width="31.5" x="417.6" y="346.5762"/><text fill="#000000" font-family="sans-serif" font-size="4.2" lengthAdjust="spacing" textLength="27.3" x="419.7" y="353.2084">jobRepository:</text><text fill="#000000" font-family="sans-serif" font-size="4.2" lengthAdjust="spacing" textLength="26.1" x="420.3" y="358.7947">jobRepository</text><rect fill="#E3E3E3" height="15.3727" rx="0.75" ry="0.75" style="stroke:#181818;stroke-width:0.15;" width="48.3" x="499.65" y="15"/><text fill="#000000" font-family="sans-serif" font-size="4.2" lengthAdjust="spacing" textLength="44.1" x="501.75" y="21.6322">collaboratorRepository:</text><text fill="#000000" font-family="sans-serif" font-size="4.2" lengthAdjust="spacing" textLength="42.9" x="502.35" y="27.2186">collaboratorRepository</text><rect fill="#E3E3E3" height="15.3727" rx="0.75" ry="0.75" style="stroke:#181818;stroke-width:0.15;" width="48.3" x="499.65" y="346.5762"/><text fill="#000000" font-family="sans-serif" font-size="4.2" lengthAdjust="spacing" textLength="44.1" x="501.75" y="353.2084">collaboratorRepository:</text><text fill="#000000" font-family="sans-serif" font-size="4.2" lengthAdjust="spacing" textLength="42.9" x="502.35" y="358.7947">collaboratorRepository</text><rect fill="#E3E3E3" height="15.3727" rx="0.75" ry="0.75" style="stroke:#181818;stroke-width:0.15;" width="28.8" x="708.6" y="346.5762"/><text fill="#000000" font-family="sans-serif" font-size="4.2" lengthAdjust="spacing" textLength="22.5" x="711.75" y="353.2084">collaborator</text><text fill="#000000" font-family="sans-serif" font-size="4.2" lengthAdjust="spacing" textLength="24.6" x="710.7" y="358.7947">:Collaborator</text><rect fill="#FFFFFF" height="307.8035" style="stroke:#181818;stroke-width:0.3;" width="3" x="18.3" y="33.6727"/><rect fill="#FFFFFF" height="22.4736" style="stroke:#181818;stroke-width:0.3;" width="3" x="111.3" y="40.66"/><rect fill="#FFFFFF" height="84.4857" style="stroke:#181818;stroke-width:0.3;" width="3" x="111.3" y="72.5209"/><rect fill="#FFFFFF" height="9.3873" style="stroke:#181818;stroke-width:0.3;" width="3" x="111.3" y="166.3939"/><rect fill="#FFFFFF" height="156.3076" style="stroke:#181818;stroke-width:0.3;" width="3" x="111.3" y="185.1686"/><rect fill="#FFFFFF" height="65.7111" style="stroke:#181818;stroke-width:0.3;" width="3" x="316.8" y="81.9082"/><rect fill="#FFFFFF" height="137.533" style="stroke:#181818;stroke-width:0.3;" width="3" x="316.8" y="194.5559"/><rect fill="#FFFFFF" height="9.3873" style="stroke:#181818;stroke-width:0.3;" width="3" x="366.45" y="91.2955"/><rect fill="#FFFFFF" height="9.3873" style="stroke:#181818;stroke-width:0.3;" width="3" x="366.45" y="203.9432"/><rect fill="#FFFFFF" height="9.3873" style="stroke:#181818;stroke-width:0.3;" width="3" x="398.55" y="110.0701"/><rect fill="#FFFFFF" height="9.3873" style="stroke:#181818;stroke-width:0.3;" width="3" x="398.55" y="222.7178"/><rect fill="#FFFFFF" height="9.3873" style="stroke:#181818;stroke-width:0.3;" width="3" x="431.85" y="128.8447"/><rect fill="#FFFFFF" height="81.2092" style="stroke:#181818;stroke-width:0.3;" width="3" x="522.3" y="241.4924"/><rect fill="#FFFFFF" height="39.2619" style="stroke:#181818;stroke-width:0.3;" width="3" x="523.8" y="271.9523"/><rect fill="#FFFFFF" height="12.6873" style="stroke:#181818;stroke-width:0.3;" width="3" x="525.3" y="285.2396"/><polygon fill="#181818" points="107.7,39.46,110.7,40.66,107.7,41.86,108.9,40.66" style="stroke:#181818;stroke-width:0.3;"/><line style="stroke:#181818;stroke-width:0.3;" x1="21.3" x2="109.5" y1="40.66" y2="40.66"/><text fill="#000000" font-family="sans-serif" font-size="3.9" font-weight="bold" lengthAdjust="spacing" textLength="2.1" x="23.4" y="39.0812">1</text><text fill="#000000" font-family="sans-serif" font-size="3.9" lengthAdjust="spacing" textLength="59.7" x="26.7" y="39.0812">asks to register a new collaborator</text><polygon fill="#181818" points="282.6,48.8473,285.6,50.0473,282.6,51.2473,283.8,50.0473" style="stroke:#181818;stroke-width:0.3;"/><line style="stroke:#181818;stroke-width:0.3;" x1="114.3" x2="284.4" y1="50.0473" y2="50.0473"/><text fill="#000000" font-family="sans-serif" font-size="3.9" font-weight="bold" lengthAdjust="spacing" textLength="2.1" x="116.4" y="48.4685">2</text><text fill="#000000" font-family="sans-serif" font-size="3.9" lengthAdjust="spacing" textLength="10.8" x="119.7" y="48.4685">create</text><rect fill="#E3E3E3" height="9.7863" rx="0.75" ry="0.75" style="stroke:#181818;stroke-width:0.15;" width="64.2" x="286.2" y="43.06"/><text fill="#000000" font-family="sans-serif" font-size="4.2" lengthAdjust="spacing" textLength="60" x="288.3" y="49.6922">:RegisterCollaboratorControlller</text><polygon fill="#181818" points="24.6,61.9336,21.6,63.1336,24.6,64.3336,23.4,63.1336" style="stroke:#181818;stroke-width:0.3;"/><line style="stroke:#181818;stroke-width:0.3;stroke-dasharray:2.0,2.0;" x1="22.8" x2="112.5" y1="63.1336" y2="63.1336"/><text fill="#000000" font-family="sans-serif" font-size="3.9" font-weight="bold" lengthAdjust="spacing" textLength="2.1" x="26.4" y="61.5548">3</text><text fill="#000000" font-family="sans-serif" font-size="3.9" lengthAdjust="spacing" textLength="23.7" x="29.7" y="61.5548">requests data</text><polygon fill="#181818" points="107.7,71.3209,110.7,72.5209,107.7,73.7209,108.9,72.5209" style="stroke:#181818;stroke-width:0.3;"/><line style="stroke:#181818;stroke-width:0.3;" x1="21.3" x2="109.5" y1="72.5209" y2="72.5209"/><text fill="#000000" font-family="sans-serif" font-size="3.9" font-weight="bold" lengthAdjust="spacing" textLength="2.1" x="23.4" y="70.9421">4</text><text fill="#000000" font-family="sans-serif" font-size="3.9" lengthAdjust="spacing" textLength="50.4" x="26.7" y="70.9421">types/selects requested data</text><polygon fill="#181818" points="313.2,80.7082,316.2,81.9082,313.2,83.1082,314.4,81.9082" style="stroke:#181818;stroke-width:0.3;"/><line style="stroke:#181818;stroke-width:0.3;" x1="114.3" x2="315" y1="81.9082" y2="81.9082"/><text fill="#000000" font-family="sans-serif" font-size="3.9" font-weight="bold" lengthAdjust="spacing" textLength="2.1" x="116.4" y="80.3294">5</text><text fill="#000000" font-family="sans-serif" font-size="3.9" lengthAdjust="spacing" textLength="15.9" x="119.7" y="80.3294">getJobs()</text><polygon fill="#181818" points="362.85,90.0955,365.85,91.2955,362.85,92.4955,364.05,91.2955" style="stroke:#181818;stroke-width:0.3;"/><line style="stroke:#181818;stroke-width:0.3;" x1="319.8" x2="364.65" y1="91.2955" y2="91.2955"/><text fill="#000000" font-family="sans-serif" font-size="3.9" font-weight="bold" lengthAdjust="spacing" textLength="2.1" x="321.9" y="89.7167">6</text><text fill="#000000" font-family="sans-serif" font-size="3.9" lengthAdjust="spacing" textLength="22.5" x="325.2" y="89.7167">getInstance()</text><polygon fill="#181818" points="323.1,99.4828,320.1,100.6828,323.1,101.8828,321.9,100.6828" style="stroke:#181818;stroke-width:0.3;"/><line style="stroke:#181818;stroke-width:0.3;stroke-dasharray:2.0,2.0;" x1="321.3" x2="367.65" y1="100.6828" y2="100.6828"/><text fill="#000000" font-family="sans-serif" font-size="3.9" font-weight="bold" lengthAdjust="spacing" textLength="2.1" x="324.9" y="99.104">7</text><text fill="#000000" font-family="sans-serif" font-size="3.9" lengthAdjust="spacing" textLength="20.1" x="328.2" y="99.104">repositories</text><polygon fill="#181818" points="394.95,108.8701,397.95,110.0701,394.95,111.2701,396.15,110.0701" style="stroke:#181818;stroke-width:0.3;"/><line style="stroke:#181818;stroke-width:0.3;" x1="319.8" x2="396.75" y1="110.0701" y2="110.0701"/><text fill="#000000" font-family="sans-serif" font-size="3.9" font-weight="bold" lengthAdjust="spacing" textLength="2.1" x="321.9" y="108.4913">8</text><text fill="#000000" font-family="sans-serif" font-size="3.9" lengthAdjust="spacing" textLength="32.4" x="325.2" y="108.4913">getJobRepository()</text><polygon fill="#181818" points="323.1,118.2574,320.1,119.4574,323.1,120.6574,321.9,119.4574" style="stroke:#181818;stroke-width:0.3;"/><line style="stroke:#181818;stroke-width:0.3;stroke-dasharray:2.0,2.0;" x1="321.3" x2="399.75" y1="119.4574" y2="119.4574"/><text fill="#000000" font-family="sans-serif" font-size="3.9" font-weight="bold" lengthAdjust="spacing" textLength="2.1" x="324.9" y="117.8786">9</text><text fill="#000000" font-family="sans-serif" font-size="3.9" lengthAdjust="spacing" textLength="24.6" x="328.2" y="117.8786">JobRepository</text><polygon fill="#181818" points="428.25,127.6447,431.25,128.8447,428.25,130.0447,429.45,128.8447" style="stroke:#181818;stroke-width:0.3;"/><line style="stroke:#181818;stroke-width:0.3;" x1="319.8" x2="430.05" y1="128.8447" y2="128.8447"/><text fill="#000000" font-family="sans-serif" font-size="3.9" font-weight="bold" lengthAdjust="spacing" textLength="4.2" x="321.9" y="127.2659">10</text><text fill="#000000" font-family="sans-serif" font-size="3.9" lengthAdjust="spacing" textLength="22.2" x="327.3" y="127.2659">getJobsList()</text><polygon fill="#181818" points="323.1,137.032,320.1,138.232,323.1,139.432,321.9,138.232" style="stroke:#181818;stroke-width:0.3;"/><line style="stroke:#181818;stroke-width:0.3;stroke-dasharray:2.0,2.0;" x1="321.3" x2="433.05" y1="138.232" y2="138.232"/><text fill="#000000" font-family="sans-serif" font-size="3.9" font-weight="bold" lengthAdjust="spacing" textLength="4.2" x="324.9" y="136.6532">11</text><text fill="#000000" font-family="sans-serif" font-size="3.9" lengthAdjust="spacing" textLength="14.4" x="330.3" y="136.6532">JobsList</text><polygon fill="#181818" points="117.6,146.4193,114.6,147.6193,117.6,148.8193,116.4,147.6193" style="stroke:#181818;stroke-width:0.3;"/><line style="stroke:#181818;stroke-width:0.3;stroke-dasharray:2.0,2.0;" x1="115.8" x2="318" y1="147.6193" y2="147.6193"/><text fill="#000000" font-family="sans-serif" font-size="3.9" font-weight="bold" lengthAdjust="spacing" textLength="4.2" x="119.4" y="146.0405">12</text><text fill="#000000" font-family="sans-serif" font-size="3.9" lengthAdjust="spacing" textLength="14.4" x="124.8" y="146.0405">JobsList</text><polygon fill="#181818" points="24.6,155.8066,21.6,157.0066,24.6,158.2066,23.4,157.0066" style="stroke:#181818;stroke-width:0.3;"/><line style="stroke:#181818;stroke-width:0.3;stroke-dasharray:2.0,2.0;" x1="22.8" x2="112.5" y1="157.0066" y2="157.0066"/><text fill="#000000" font-family="sans-serif" font-size="3.9" font-weight="bold" lengthAdjust="spacing" textLength="4.2" x="26.4" y="155.4278">13</text><text fill="#000000" font-family="sans-serif" font-size="3.9" lengthAdjust="spacing" textLength="77.4" x="31.8" y="155.4278">shows the list of jobs and asks to select one</text><polygon fill="#181818" points="107.7,165.1939,110.7,166.3939,107.7,167.5939,108.9,166.3939" style="stroke:#181818;stroke-width:0.3;"/><line style="stroke:#181818;stroke-width:0.3;" x1="21.3" x2="109.5" y1="166.3939" y2="166.3939"/><text fill="#000000" font-family="sans-serif" font-size="3.9" font-weight="bold" lengthAdjust="spacing" textLength="4.2" x="23.4" y="164.8151">14</text><text fill="#000000" font-family="sans-serif" font-size="3.9" lengthAdjust="spacing" textLength="25.5" x="28.8" y="164.8151">selects the job</text><polygon fill="#181818" points="24.6,174.5812,21.6,175.7813,24.6,176.9813,23.4,175.7813" style="stroke:#181818;stroke-width:0.3;"/><line style="stroke:#181818;stroke-width:0.3;stroke-dasharray:2.0,2.0;" x1="22.8" x2="112.5" y1="175.7813" y2="175.7813"/><text fill="#000000" font-family="sans-serif" font-size="3.9" font-weight="bold" lengthAdjust="spacing" textLength="4.2" x="26.4" y="174.2024">15</text><text fill="#000000" font-family="sans-serif" font-size="3.9" lengthAdjust="spacing" textLength="70.8" x="31.8" y="174.2024">shows all data and requests confirmation</text><polygon fill="#181818" points="107.7,183.9686,110.7,185.1686,107.7,186.3686,108.9,185.1686" style="stroke:#181818;stroke-width:0.3;"/><line style="stroke:#181818;stroke-width:0.3;" x1="21.3" x2="109.5" y1="185.1686" y2="185.1686"/><text fill="#000000" font-family="sans-serif" font-size="3.9" font-weight="bold" lengthAdjust="spacing" textLength="4.2" x="23.4" y="183.5897">16</text><text fill="#000000" font-family="sans-serif" font-size="3.9" lengthAdjust="spacing" textLength="23.4" x="28.8" y="183.5897">confirms data</text><polygon fill="#181818" points="313.2,193.3559,316.2,194.5559,313.2,195.7559,314.4,194.5559" style="stroke:#181818;stroke-width:0.3;"/><line style="stroke:#181818;stroke-width:0.3;" x1="114.3" x2="315" y1="194.5559" y2="194.5559"/><text fill="#000000" font-family="sans-serif" font-size="3.9" font-weight="bold" lengthAdjust="spacing" textLength="4.2" x="116.4" y="192.9771">17</text><text fill="#000000" font-family="sans-serif" font-size="3.9" lengthAdjust="spacing" textLength="191.4" x="121.8" y="192.9771">registerCollaborator(job, name, birthday, admissionDate, address, phoneNumber, email, idDocType, idNumber)</text><polygon fill="#181818" points="362.85,202.7432,365.85,203.9432,362.85,205.1432,364.05,203.9432" style="stroke:#181818;stroke-width:0.3;"/><line style="stroke:#181818;stroke-width:0.3;" x1="319.8" x2="364.65" y1="203.9432" y2="203.9432"/><text fill="#000000" font-family="sans-serif" font-size="3.9" font-weight="bold" lengthAdjust="spacing" textLength="4.2" x="321.9" y="202.3644">18</text><text fill="#000000" font-family="sans-serif" font-size="3.9" lengthAdjust="spacing" textLength="22.5" x="327.3" y="202.3644">getInstance()</text><polygon fill="#181818" points="323.1,212.1305,320.1,213.3305,323.1,214.5305,321.9,213.3305" style="stroke:#181818;stroke-width:0.3;"/><line style="stroke:#181818;stroke-width:0.3;stroke-dasharray:2.0,2.0;" x1="321.3" x2="367.65" y1="213.3305" y2="213.3305"/><text fill="#000000" font-family="sans-serif" font-size="3.9" font-weight="bold" lengthAdjust="spacing" textLength="4.2" x="324.9" y="211.7517">19</text><text fill="#000000" font-family="sans-serif" font-size="3.9" lengthAdjust="spacing" textLength="20.1" x="330.3" y="211.7517">repositories</text><polygon fill="#181818" points="394.95,221.5178,397.95,222.7178,394.95,223.9178,396.15,222.7178" style="stroke:#181818;stroke-width:0.3;"/><line style="stroke:#181818;stroke-width:0.3;" x1="319.8" x2="396.75" y1="222.7178" y2="222.7178"/><text fill="#000000" font-family="sans-serif" font-size="3.9" font-weight="bold" lengthAdjust="spacing" textLength="4.2" x="321.9" y="221.139">20</text><text fill="#000000" font-family="sans-serif" font-size="3.9" lengthAdjust="spacing" textLength="47.1" x="327.3" y="221.139">getCollaboratorRepository()</text><polygon fill="#181818" points="323.1,230.9051,320.1,232.1051,323.1,233.3051,321.9,232.1051" style="stroke:#181818;stroke-width:0.3;"/><line style="stroke:#181818;stroke-width:0.3;stroke-dasharray:2.0,2.0;" x1="321.3" x2="399.75" y1="232.1051" y2="232.1051"/><text fill="#000000" font-family="sans-serif" font-size="3.9" font-weight="bold" lengthAdjust="spacing" textLength="4.2" x="324.9" y="230.5263">21</text><text fill="#000000" font-family="sans-serif" font-size="3.9" lengthAdjust="spacing" textLength="38.7" x="330.3" y="230.5263">collaboratorRepository</text><polygon fill="#181818" points="518.7,240.2924,521.7,241.4924,518.7,242.6924,519.9,241.4924" style="stroke:#181818;stroke-width:0.3;"/><line style="stroke:#181818;stroke-width:0.3;" x1="319.8" x2="520.5" y1="241.4924" y2="241.4924"/><text fill="#000000" font-family="sans-serif" font-size="3.9" font-weight="bold" lengthAdjust="spacing" textLength="4.2" x="321.9" y="239.9136">22</text><text fill="#000000" font-family="sans-serif" font-size="3.9" lengthAdjust="spacing" textLength="191.4" x="327.3" y="239.9136">registerCollaborator(job, name, birthday, admissionDate, address, phoneNumber, email, idDocType, idNumber)</text><polygon fill="#181818" points="705,249.6797,708,250.8797,705,252.0797,706.2,250.8797" style="stroke:#181818;stroke-width:0.3;"/><line style="stroke:#181818;stroke-width:0.3;" x1="525.3" x2="706.8" y1="250.8797" y2="250.8797"/><text fill="#000000" font-family="sans-serif" font-size="3.9" font-weight="bold" lengthAdjust="spacing" textLength="4.2" x="527.4" y="249.3009">23</text><text fill="#000000" font-family="sans-serif" font-size="3.9" lengthAdjust="spacing" textLength="170.7" x="532.8" y="249.3009">register(job, name, birthday, admissionDate, address, phoneNumber, email, idDocType, idNumber)</text><rect fill="#E3E3E3" height="15.3727" rx="0.75" ry="0.75" style="stroke:#181818;stroke-width:0.15;" width="28.8" x="708.6" y="243.8924"/><text fill="#000000" font-family="sans-serif" font-size="4.2" lengthAdjust="spacing" textLength="22.5" x="711.75" y="250.5246">collaborator</text><text fill="#000000" font-family="sans-serif" font-size="4.2" lengthAdjust="spacing" textLength="24.6" x="710.7" y="256.1109">:Collaborator</text><line style="stroke:#181818;stroke-width:0.3;" x1="525.3" x2="539.4" y1="268.0523" y2="268.0523"/><line style="stroke:#181818;stroke-width:0.3;" x1="539.4" x2="539.4" y1="268.0523" y2="271.9523"/><line style="stroke:#181818;stroke-width:0.3;" x1="527.1" x2="539.4" y1="271.9523" y2="271.9523"/><polygon fill="#181818" points="530.1,270.7523,527.1,271.9523,530.1,273.1523,528.9,271.9523" style="stroke:#181818;stroke-width:0.3;"/><text fill="#000000" font-family="sans-serif" font-size="3.9" font-weight="bold" lengthAdjust="spacing" textLength="4.2" x="528.9" y="266.4735">24</text><text fill="#000000" font-family="sans-serif" font-size="3.9" lengthAdjust="spacing" textLength="49.8" x="534.3" y="266.4735">addCollaborator (colaborator)</text><line style="stroke:#181818;stroke-width:0.3;" x1="526.8" x2="540.9" y1="281.3396" y2="281.3396"/><line style="stroke:#181818;stroke-width:0.3;" x1="540.9" x2="540.9" y1="281.3396" y2="285.2396"/><line style="stroke:#181818;stroke-width:0.3;" x1="528.6" x2="540.9" y1="285.2396" y2="285.2396"/><polygon fill="#181818" points="531.6,284.0396,528.6,285.2396,531.6,286.4396,530.4,285.2396" style="stroke:#181818;stroke-width:0.3;"/><text fill="#000000" font-family="sans-serif" font-size="3.9" font-weight="bold" lengthAdjust="spacing" textLength="4.2" x="530.4" y="279.7608">25</text><text fill="#000000" font-family="sans-serif" font-size="3.9" lengthAdjust="spacing" textLength="56.4" x="535.8" y="279.7608">validateCollaborator (colaborator)</text><line style="stroke:#181818;stroke-width:0.3;stroke-dasharray:2.0,2.0;" x1="528.3" x2="540.9" y1="297.627" y2="297.627"/><line style="stroke:#181818;stroke-width:0.3;stroke-dasharray:2.0,2.0;" x1="540.9" x2="540.9" y1="297.627" y2="301.527"/><line style="stroke:#181818;stroke-width:0.3;stroke-dasharray:2.0,2.0;" x1="526.8" x2="540.9" y1="301.527" y2="301.527"/><polygon fill="#181818" points="529.8,300.327,526.8,301.527,529.8,302.727,528.6,301.527" style="stroke:#181818;stroke-width:0.3;"/><text fill="#000000" font-family="sans-serif" font-size="3.9" font-weight="bold" lengthAdjust="spacing" textLength="4.2" x="530.4" y="296.0481">26</text><text fill="#000000" font-family="sans-serif" font-size="3.9" lengthAdjust="spacing" textLength="1.2" x="535.8" y="296.0481">&#160;</text><line style="stroke:#181818;stroke-width:0.3;stroke-dasharray:2.0,2.0;" x1="526.8" x2="539.4" y1="310.9143" y2="310.9143"/><line style="stroke:#181818;stroke-width:0.3;stroke-dasharray:2.0,2.0;" x1="539.4" x2="539.4" y1="310.9143" y2="314.8143"/><line style="stroke:#181818;stroke-width:0.3;stroke-dasharray:2.0,2.0;" x1="525.3" x2="539.4" y1="314.8143" y2="314.8143"/><polygon fill="#181818" points="528.3,313.6143,525.3,314.8143,528.3,316.0143,527.1,314.8143" style="stroke:#181818;stroke-width:0.3;"/><text fill="#000000" font-family="sans-serif" font-size="3.9" font-weight="bold" lengthAdjust="spacing" textLength="4.2" x="528.9" y="309.3354">27</text><text fill="#000000" font-family="sans-serif" font-size="3.9" lengthAdjust="spacing" textLength="1.2" x="534.3" y="309.3354">&#160;</text><polygon fill="#181818" points="323.1,321.5016,320.1,322.7016,323.1,323.9016,321.9,322.7016" style="stroke:#181818;stroke-width:0.3;"/><line style="stroke:#181818;stroke-width:0.3;stroke-dasharray:2.0,2.0;" x1="321.3" x2="523.5" y1="322.7016" y2="322.7016"/><text fill="#000000" font-family="sans-serif" font-size="3.9" font-weight="bold" lengthAdjust="spacing" textLength="4.2" x="324.9" y="321.1228">28</text><text fill="#000000" font-family="sans-serif" font-size="3.9" lengthAdjust="spacing" textLength="20.1" x="330.3" y="321.1228">collaborator</text><polygon fill="#181818" points="117.6,330.8889,114.6,332.0889,117.6,333.2889,116.4,332.0889" style="stroke:#181818;stroke-width:0.3;"/><line style="stroke:#181818;stroke-width:0.3;stroke-dasharray:2.0,2.0;" x1="115.8" x2="318" y1="332.0889" y2="332.0889"/><text fill="#000000" font-family="sans-serif" font-size="3.9" font-weight="bold" lengthAdjust="spacing" textLength="4.2" x="119.4" y="330.5101">29</text><text fill="#000000" font-family="sans-serif" font-size="3.9" lengthAdjust="spacing" textLength="20.1" x="124.8" y="330.5101">collaborator</text><polygon fill="#181818" points="23.1,340.2762,20.1,341.4762,23.1,342.6762,21.9,341.4762" style="stroke:#181818;stroke-width:0.3;"/><line style="stroke:#181818;stroke-width:0.3;stroke-dasharray:2.0,2.0;" x1="21.3" x2="112.5" y1="341.4762" y2="341.4762"/><text fill="#000000" font-family="sans-serif" font-size="3.9" font-weight="bold" lengthAdjust="spacing" textLength="4.2" x="24.9" y="339.8974">30</text><text fill="#000000" font-family="sans-serif" font-size="3.9" lengthAdjust="spacing" textLength="47.4" x="30.3" y="339.8974">displays operation success</text><!--SRC=[pLR1Rjim3BtxAuXUrXOfTizXG9SEQ8Tq7PpsrejYCx5MM_94kLt-VfJSE19ifscneVN9Cid79-fHD3r8LGiZAgYqqbbXT8LWJOC9TPPQP0zYZGkxAH4CPbQeTHawK25o_IJL6bQY94mIqLYjccg99aa-5J97M6bjb_fF8ZAh3HnTDfLGa2BfncH8z-fQA4vXZa0GNARN2GDRcSbQA0j7qnJNaYoQcIvBiTH6CCZTbNU-kph0TwQLDRmkdpFCRjDvBwpM9DbN8dcVzDlFsCK47lTgC60HH_pIoyvhCxrNqTh7H5_Yu2pW7w4C6ppSi6aSbxSHbgcjpSryVlxr9Zs_lKaJTrxoKLZqXv80F_m2Pr-uxZ1bzmS2graKRSr1WCAdY8QFwL3ujFm7zp02uxYZE3rbhCmWUxHcPsARIpLbyDyDaYN8XHNUd6CFC6HbDpNIPyAIfKhRSCntyI_GOOWrskzwISSddRcByThfFhl7nt0i2w0DlLB4FP9X41v1E6b55XTvzfpTRNYdhCWjs7SF8Y2nw3Qmqy0UAeiUbqL09aBPmsOnJ2TkWMrTvwoMCKPnIqG-aQdZ29wannpZjmUp9RgLpaj0kyEF94g5Vk96A11A3WQzSXa9XCgx5cdb25hX8HBUYjT1CjImQWSeYBBqClUfkyR9j5f9KmahjJea-xC_7Tmnq-u62A-JOsO-0IKgdC1I6blaOZC1aLUIY9bSC9vRvWQ99b0NN9iVVcXC02iXomd8_49djzpExhMrlROZFqH3UXApmSlvpOqvSjU_kaD7vinxd6XKW97zHSxk6VRpoWmccHynsotzfssyWjfOqJbfM6yuPiVjugI7_mzhDKReKPIIRm5y3rQZj7e8WT0_RD8z2ViDdRmnKJ3DHW1V66PJo2NLfTWGw1gD7nb0JSO_wJGqEeAb-qFy2m00]--></g></svg>