<?xml version="1.0" encoding="us-ascii" standalone="no"?><svg xmlns="http://www.w3.org/2000/svg" xmlns:xlink="http://www.w3.org/1999/xlink" contentStyleType="text/css" height="280.8px" preserveAspectRatio="none" style="width:851px;height:280px;background:#FFFFFF;" version="1.1" viewBox="0 0 851 280" width="851.4px" zoomAndPan="magnify"><defs/><g><rect fill="#FFFFFF" height="182.393" style="stroke:#181818;stroke-width:0.6;" width="6" x="405" y="54.3199"/><rect fill="#FFFFFF" height="78.5238" style="stroke:#181818;stroke-width:0.6;" width="6" x="408" y="131.0145"/><rect fill="#FFFFFF" height="25.3746" style="stroke:#181818;stroke-width:0.6;" width="6" x="411" y="157.5891"/><rect fill="none" height="155.2184" style="stroke:#000000;stroke-width:0.8999999999999999;" width="494.1" x="353.7" y="63.3199"/><line style="stroke:#181818;stroke-width:0.3;stroke-dasharray:5.0,5.0;" x1="407.7" x2="407.7" y1="34.3453" y2="247.5129"/><line style="stroke:#181818;stroke-width:0.3;stroke-dasharray:5.0,5.0;" x1="813" x2="813" y1="99.5672" y2="247.5129"/><rect fill="#E3E3E3" height="30.7453" rx="1.5" ry="1.5" style="stroke:#181818;stroke-width:0.3;" width="96.6" x="359.7" y="3"/><text fill="#000000" font-family="sans-serif" font-size="8.4" lengthAdjust="spacing" textLength="88.2" x="363.9" y="16.2645">collaboratorRepository:</text><text fill="#000000" font-family="sans-serif" font-size="8.4" lengthAdjust="spacing" textLength="85.8" x="365.1" y="27.4371">collaboratorRepository</text><rect fill="#E3E3E3" height="30.7453" rx="1.5" ry="1.5" style="stroke:#181818;stroke-width:0.3;" width="96.6" x="359.7" y="246.9129"/><text fill="#000000" font-family="sans-serif" font-size="8.4" lengthAdjust="spacing" textLength="88.2" x="363.9" y="260.1773">collaboratorRepository:</text><text fill="#000000" font-family="sans-serif" font-size="8.4" lengthAdjust="spacing" textLength="85.8" x="365.1" y="271.35">collaboratorRepository</text><rect fill="#E3E3E3" height="30.7453" rx="1.5" ry="1.5" style="stroke:#181818;stroke-width:0.3;" width="57.6" x="784.2" y="246.9129"/><text fill="#000000" font-family="sans-serif" font-size="8.4" lengthAdjust="spacing" textLength="45" x="790.5" y="260.1773">collaborator</text><text fill="#000000" font-family="sans-serif" font-size="8.4" lengthAdjust="spacing" textLength="49.2" x="788.4" y="271.35">:Collaborator</text><rect fill="#FFFFFF" height="182.393" style="stroke:#181818;stroke-width:0.6;" width="6" x="405" y="54.3199"/><rect fill="#FFFFFF" height="78.5238" style="stroke:#181818;stroke-width:0.6;" width="6" x="408" y="131.0145"/><rect fill="#FFFFFF" height="25.3746" style="stroke:#181818;stroke-width:0.6;" width="6" x="411" y="157.5891"/><polygon fill="#181818" points="397.8,51.9199,403.8,54.3199,397.8,56.7199,400.2,54.3199" style="stroke:#181818;stroke-width:0.6;"/><line style="stroke:#181818;stroke-width:0.6;" x1="0" x2="401.4" y1="54.3199" y2="54.3199"/><text fill="#000000" font-family="sans-serif" font-size="7.8" font-weight="bold" lengthAdjust="spacing" textLength="8.4" x="4.2" y="51.1623">16</text><text fill="#000000" font-family="sans-serif" font-size="7.8" lengthAdjust="spacing" textLength="382.8" x="15" y="51.1623">registerCollaborator(job, name, birthday, admissionDate, address, phoneNumber, email, idDocType, idNumber)</text><path d="M353.7,63.3199 L461.7,63.3199 L461.7,68.8945 L455.7,74.8945 L353.7,74.8945 L353.7,63.3199 " fill="#EEEEEE" style="stroke:#000000;stroke-width:0.8999999999999999;"/><rect fill="none" height="155.2184" style="stroke:#000000;stroke-width:0.8999999999999999;" width="494.1" x="353.7" y="63.3199"/><text fill="#000000" font-family="sans-serif" font-size="7.8" font-weight="bold" lengthAdjust="spacing" textLength="81" x="362.7" y="72.3369">Register Collaborator</text><polygon fill="#181818" points="777,86.4691,783,88.8691,777,91.2691,779.4,88.8691" style="stroke:#181818;stroke-width:0.6;"/><line style="stroke:#181818;stroke-width:0.6;" x1="411" x2="780.6" y1="88.8691" y2="88.8691"/><text fill="#000000" font-family="sans-serif" font-size="7.8" font-weight="bold" lengthAdjust="spacing" textLength="15" x="415.2" y="85.7115">16.1</text><text fill="#000000" font-family="sans-serif" font-size="7.8" lengthAdjust="spacing" textLength="341.4" x="432.6" y="85.7115">register(job, name, birthday, admissionDate, address, phoneNumber, email, idDocType, idNumber)</text><rect fill="#E3E3E3" height="30.7453" rx="1.5" ry="1.5" style="stroke:#181818;stroke-width:0.3;" width="57.6" x="784.2" y="74.8945"/><text fill="#000000" font-family="sans-serif" font-size="8.4" lengthAdjust="spacing" textLength="45" x="790.5" y="88.159">collaborator</text><text fill="#000000" font-family="sans-serif" font-size="8.4" lengthAdjust="spacing" textLength="49.2" x="788.4" y="99.3316">:Collaborator</text><line style="stroke:#181818;stroke-width:0.6;" x1="411" x2="439.2" y1="123.2145" y2="123.2145"/><line style="stroke:#181818;stroke-width:0.6;" x1="439.2" x2="439.2" y1="123.2145" y2="131.0145"/><line style="stroke:#181818;stroke-width:0.6;" x1="414.6" x2="439.2" y1="131.0145" y2="131.0145"/><polygon fill="#181818" points="420.6,128.6145,414.6,131.0145,420.6,133.4145,418.2,131.0145" style="stroke:#181818;stroke-width:0.6;"/><text fill="#000000" font-family="sans-serif" font-size="7.8" font-weight="bold" lengthAdjust="spacing" textLength="15" x="418.2" y="120.0568">16.2</text><text fill="#000000" font-family="sans-serif" font-size="7.8" lengthAdjust="spacing" textLength="99.6" x="435.6" y="120.0568">addCollaborator (colaborator)</text><line style="stroke:#181818;stroke-width:0.6;" x1="414" x2="442.2" y1="149.7891" y2="149.7891"/><line style="stroke:#181818;stroke-width:0.6;" x1="442.2" x2="442.2" y1="149.7891" y2="157.5891"/><line style="stroke:#181818;stroke-width:0.6;" x1="417.6" x2="442.2" y1="157.5891" y2="157.5891"/><polygon fill="#181818" points="423.6,155.1891,417.6,157.5891,423.6,159.9891,421.2,157.5891" style="stroke:#181818;stroke-width:0.6;"/><text fill="#000000" font-family="sans-serif" font-size="7.8" font-weight="bold" lengthAdjust="spacing" textLength="15" x="421.2" y="146.6314">16.3</text><text fill="#000000" font-family="sans-serif" font-size="7.8" lengthAdjust="spacing" textLength="112.8" x="438.6" y="146.6314">validateCollaborator (colaborator)</text><line style="stroke:#181818;stroke-width:0.6;stroke-dasharray:2.0,2.0;" x1="417" x2="442.2" y1="182.3637" y2="182.3637"/><line style="stroke:#181818;stroke-width:0.6;stroke-dasharray:2.0,2.0;" x1="442.2" x2="442.2" y1="182.3637" y2="190.1637"/><line style="stroke:#181818;stroke-width:0.6;stroke-dasharray:2.0,2.0;" x1="414" x2="442.2" y1="190.1637" y2="190.1637"/><polygon fill="#181818" points="420,187.7637,414,190.1637,420,192.5637,417.6,190.1637" style="stroke:#181818;stroke-width:0.6;"/><text fill="#000000" font-family="sans-serif" font-size="7.8" font-weight="bold" lengthAdjust="spacing" textLength="15" x="421.2" y="179.2061">16.4</text><text fill="#000000" font-family="sans-serif" font-size="7.8" lengthAdjust="spacing" textLength="2.4" x="438.6" y="179.2061">&#160;</text><line style="stroke:#181818;stroke-width:0.6;stroke-dasharray:2.0,2.0;" x1="414" x2="439.2" y1="208.9383" y2="208.9383"/><line style="stroke:#181818;stroke-width:0.6;stroke-dasharray:2.0,2.0;" x1="439.2" x2="439.2" y1="208.9383" y2="216.7383"/><line style="stroke:#181818;stroke-width:0.6;stroke-dasharray:2.0,2.0;" x1="411" x2="439.2" y1="216.7383" y2="216.7383"/><polygon fill="#181818" points="417,214.3383,411,216.7383,417,219.1383,414.6,216.7383" style="stroke:#181818;stroke-width:0.6;"/><text fill="#000000" font-family="sans-serif" font-size="7.8" font-weight="bold" lengthAdjust="spacing" textLength="15" x="418.2" y="205.7807">16.5</text><text fill="#000000" font-family="sans-serif" font-size="7.8" lengthAdjust="spacing" textLength="2.4" x="435.6" y="205.7807">&#160;</text><polygon fill="#181818" points="6.6,234.3129,0.6,236.7129,6.6,239.1129,4.2,236.7129" style="stroke:#181818;stroke-width:0.6;"/><line style="stroke:#181818;stroke-width:0.6;stroke-dasharray:2.0,2.0;" x1="3" x2="407.4" y1="236.7129" y2="236.7129"/><text fill="#000000" font-family="sans-serif" font-size="7.8" font-weight="bold" lengthAdjust="spacing" textLength="8.4" x="10.2" y="233.5553">17</text><text fill="#000000" font-family="sans-serif" font-size="7.8" lengthAdjust="spacing" textLength="40.2" x="21" y="233.5553">collaborator</text><!--SRC=[pLDDQm8n4BtdLmoULDQ2bnQa5AmUfSBMevVPpRYRcar2ahNilszSsnAgeHvQsfmoyuRtCIHkBvH1YmqqMkcojheXyBObvZuHW-KUAthsdIImL7fKbOm7N8rSlmfLmGwb8yP2sujI65GU1gMM4WjjqMkRaz5EX4itswhBm03GmMKepRjLiqLKzXoBzMerVrpdyyqwPmnRhrNR56HXUiic3ma9c8M4bN2UR4muVD551WeRog0GrjSSkmoGDy8veTKIFHrBRicv34oj5JtrOXbGWq9c8FXIbvlEqF5wmaPVNDrCGwFquX3OKXk0S2ghMmFvkqs8VR9-83w9c641yNx6uoZuRuMztbhYoHn5uxGm38CVnUYC_xjT_e2X0qh1WyHVk4hQEcFWz7z5IV7JWpwLyOUuwpltaqdwhyO0kqBn3G00]--></g></svg>