<?xml version="1.0" encoding="us-ascii" standalone="no"?><svg xmlns="http://www.w3.org/2000/svg" xmlns:xlink="http://www.w3.org/1999/xlink" contentStyleType="text/css" height="406.4px" preserveAspectRatio="none" style="width:424px;height:406px;background:#FFFFFF;" version="1.1" viewBox="0 0 424 406" width="424px" zoomAndPan="magnify"><defs/><g><!--class RegisterCollaboratorUI--><g id="elem_RegisterCollaboratorUI"><rect codeLine="11" fill="#F1F1F1" height="19.2" id="RegisterCollaboratorUI" rx="1" ry="1" style="stroke:#181818;stroke-width:0.20000000000000004;" width="70" x="106.2" y="2.8"/><ellipse cx="112.2" cy="9.2" fill="#ADD1B2" rx="4.4" ry="4.4" style="stroke:#181818;stroke-width:0.4000000000000001;"/><path d="M113.3063,7.55 Q113.3688,7.4625 113.4438,7.4188 Q113.5188,7.375 113.6063,7.375 Q113.7563,7.375 113.85,7.4813 Q113.9438,7.5813 113.9438,7.825 L113.9438,8.4063 Q113.9438,8.65 113.85,8.7563 Q113.7563,8.8625 113.6063,8.8625 Q113.4688,8.8625 113.3875,8.7813 Q113.3063,8.7063 113.2625,8.5 Q113.2438,8.3563 113.1688,8.2813 Q113.0375,8.1313 112.7938,8.0438 Q112.55,7.9563 112.3,7.9563 Q111.9938,7.9563 111.7375,8.0875 Q111.4875,8.2188 111.2875,8.5188 Q111.0938,8.8188 111.0938,9.2313 L111.0938,9.6688 Q111.0938,10.1625 111.45,10.4938 Q111.8063,10.8188 112.4438,10.8188 Q112.8188,10.8188 113.0813,10.7188 Q113.2375,10.6563 113.4063,10.4813 Q113.5125,10.375 113.5688,10.3438 Q113.6313,10.3125 113.7125,10.3125 Q113.8438,10.3125 113.9438,10.4188 Q114.05,10.5188 114.05,10.6563 Q114.05,10.7938 113.9125,10.9563 Q113.7125,11.1875 113.3938,11.3188 Q112.9625,11.5 112.4438,11.5 Q111.8375,11.5 111.3563,11.25 Q110.9625,11.05 110.6875,10.625 Q110.4125,10.1938 110.4125,9.6813 L110.4125,9.2188 Q110.4125,8.6875 110.6563,8.2313 Q110.9063,7.7688 111.3438,7.525 Q111.7813,7.275 112.275,7.275 Q112.5688,7.275 112.825,7.3438 Q113.0875,7.4063 113.3063,7.55 Z " fill="#000000"/><text fill="#000000" font-family="sans-serif" font-size="5.6" lengthAdjust="spacing" textLength="57.2" x="117.8" y="11.5188">RegisterCollaboratorUI</text><line style="stroke:#181818;stroke-width:0.20000000000000004;" x1="106.6" x2="175.8" y1="15.6" y2="15.6"/><line style="stroke:#181818;stroke-width:0.20000000000000004;" x1="106.6" x2="175.8" y1="18.8" y2="18.8"/></g><!--class RegisterCollaboratorController--><g id="elem_RegisterCollaboratorController"><rect codeLine="14" fill="#F1F1F1" height="41.5453" id="RegisterCollaboratorController" rx="1" ry="1" style="stroke:#181818;stroke-width:0.20000000000000004;" width="276.8" x="2.8" y="46.4"/><ellipse cx="100.9" cy="52.8" fill="#ADD1B2" rx="4.4" ry="4.4" style="stroke:#181818;stroke-width:0.4000000000000001;"/><path d="M102.0063,51.15 Q102.0688,51.0625 102.1438,51.0188 Q102.2188,50.975 102.3063,50.975 Q102.4563,50.975 102.55,51.0813 Q102.6438,51.1813 102.6438,51.425 L102.6438,52.0063 Q102.6438,52.25 102.55,52.3563 Q102.4563,52.4625 102.3063,52.4625 Q102.1688,52.4625 102.0875,52.3813 Q102.0063,52.3063 101.9625,52.1 Q101.9438,51.9563 101.8688,51.8813 Q101.7375,51.7313 101.4938,51.6438 Q101.25,51.5563 101,51.5563 Q100.6938,51.5563 100.4375,51.6875 Q100.1875,51.8188 99.9875,52.1188 Q99.7938,52.4188 99.7938,52.8313 L99.7938,53.2688 Q99.7938,53.7625 100.15,54.0938 Q100.5063,54.4188 101.1438,54.4188 Q101.5188,54.4188 101.7813,54.3188 Q101.9375,54.2563 102.1063,54.0813 Q102.2125,53.975 102.2688,53.9438 Q102.3313,53.9125 102.4125,53.9125 Q102.5438,53.9125 102.6438,54.0188 Q102.75,54.1188 102.75,54.2563 Q102.75,54.3938 102.6125,54.5563 Q102.4125,54.7875 102.0938,54.9188 Q101.6625,55.1 101.1438,55.1 Q100.5375,55.1 100.0563,54.85 Q99.6625,54.65 99.3875,54.225 Q99.1125,53.7938 99.1125,53.2813 L99.1125,52.8188 Q99.1125,52.2875 99.3563,51.8313 Q99.6063,51.3688 100.0438,51.125 Q100.4813,50.875 100.975,50.875 Q101.2688,50.875 101.525,50.9438 Q101.7875,51.0063 102.0063,51.15 Z " fill="#000000"/><text fill="#000000" font-family="sans-serif" font-size="5.6" lengthAdjust="spacing" textLength="77.2" x="109.1" y="55.1188">RegisterCollaboratorController</text><line style="stroke:#181818;stroke-width:0.20000000000000004;" x1="3.2" x2="279.2" y1="59.2" y2="59.2"/><line style="stroke:#181818;stroke-width:0.20000000000000004;" x1="3.2" x2="279.2" y1="62.4" y2="62.4"/><text fill="#000000" font-family="sans-serif" font-size="5.6" lengthAdjust="spacing" textLength="84.4" x="5.2" y="70.043">+RegisterCollaboratorController()</text><text fill="#000000" font-family="sans-serif" font-size="5.6" lengthAdjust="spacing" textLength="35.6" x="5.2" y="77.4914">+getJobsList()</text><text fill="#000000" font-family="sans-serif" font-size="5.6" lengthAdjust="spacing" textLength="272" x="5.2" y="84.9398">+registerCollaborator(name, birthday, admissionDate, address, phoneNumber, email, idDocType, idNumber)</text></g><!--class CollaboratorRepository--><g id="elem_CollaboratorRepository"><rect codeLine="20" fill="#F1F1F1" height="41.5453" id="CollaboratorRepository" rx="1" ry="1" style="stroke:#181818;stroke-width:0.20000000000000004;" width="287.6" x="94.6" y="192.8"/><ellipse cx="207.5" cy="199.2" fill="#ADD1B2" rx="4.4" ry="4.4" style="stroke:#181818;stroke-width:0.4000000000000001;"/><path d="M208.6063,197.55 Q208.6688,197.4625 208.7438,197.4188 Q208.8188,197.375 208.9063,197.375 Q209.0563,197.375 209.15,197.4813 Q209.2438,197.5813 209.2438,197.825 L209.2438,198.4063 Q209.2438,198.65 209.15,198.7563 Q209.0563,198.8625 208.9063,198.8625 Q208.7688,198.8625 208.6875,198.7813 Q208.6063,198.7063 208.5625,198.5 Q208.5438,198.3563 208.4688,198.2813 Q208.3375,198.1313 208.0938,198.0438 Q207.85,197.9563 207.6,197.9563 Q207.2938,197.9563 207.0375,198.0875 Q206.7875,198.2188 206.5875,198.5188 Q206.3938,198.8188 206.3938,199.2313 L206.3938,199.6688 Q206.3938,200.1625 206.75,200.4938 Q207.1063,200.8188 207.7438,200.8188 Q208.1188,200.8188 208.3813,200.7188 Q208.5375,200.6563 208.7063,200.4813 Q208.8125,200.375 208.8688,200.3438 Q208.9313,200.3125 209.0125,200.3125 Q209.1438,200.3125 209.2438,200.4188 Q209.35,200.5188 209.35,200.6563 Q209.35,200.7938 209.2125,200.9563 Q209.0125,201.1875 208.6938,201.3188 Q208.2625,201.5 207.7438,201.5 Q207.1375,201.5 206.6563,201.25 Q206.2625,201.05 205.9875,200.625 Q205.7125,200.1938 205.7125,199.6813 L205.7125,199.2188 Q205.7125,198.6875 205.9563,198.2313 Q206.2063,197.7688 206.6438,197.525 Q207.0813,197.275 207.575,197.275 Q207.8688,197.275 208.125,197.3438 Q208.3875,197.4063 208.6063,197.55 Z " fill="#000000"/><text fill="#000000" font-family="sans-serif" font-size="5.6" lengthAdjust="spacing" textLength="58.4" x="215.7" y="201.5188">CollaboratorRepository</text><line style="stroke:#181818;stroke-width:0.20000000000000004;" x1="95" x2="381.8" y1="205.6" y2="205.6"/><line style="stroke:#181818;stroke-width:0.20000000000000004;" x1="95" x2="381.8" y1="208.8" y2="208.8"/><text fill="#000000" font-family="sans-serif" font-size="5.6" lengthAdjust="spacing" textLength="76.8" x="97" y="216.443">-addCollaborator(collaborator)</text><text fill="#000000" font-family="sans-serif" font-size="5.6" lengthAdjust="spacing" textLength="86.8" x="97" y="223.8914">-validateCollaborator(collaborator)</text><text fill="#000000" font-family="sans-serif" font-size="5.6" lengthAdjust="spacing" textLength="282.8" x="97" y="231.3398">+registerCollaborator(name, birthday, admissionDate, address, phoneNumber, email, idDocType, idNumber, job)</text></g><!--class Collaborator--><g id="elem_Collaborator"><rect codeLine="26" fill="#F1F1F1" height="86.2359" id="Collaborator" rx="1" ry="1" style="stroke:#181818;stroke-width:0.20000000000000004;" width="268.4" x="109.8" y="258.8"/><ellipse cx="226.7" cy="265.2" fill="#ADD1B2" rx="4.4" ry="4.4" style="stroke:#181818;stroke-width:0.4000000000000001;"/><path d="M227.8063,263.55 Q227.8688,263.4625 227.9438,263.4188 Q228.0188,263.375 228.1063,263.375 Q228.2563,263.375 228.35,263.4813 Q228.4438,263.5813 228.4438,263.825 L228.4438,264.4063 Q228.4438,264.65 228.35,264.7563 Q228.2563,264.8625 228.1063,264.8625 Q227.9688,264.8625 227.8875,264.7813 Q227.8063,264.7063 227.7625,264.5 Q227.7438,264.3563 227.6688,264.2813 Q227.5375,264.1313 227.2938,264.0438 Q227.05,263.9563 226.8,263.9563 Q226.4938,263.9563 226.2375,264.0875 Q225.9875,264.2188 225.7875,264.5188 Q225.5938,264.8188 225.5938,265.2313 L225.5938,265.6688 Q225.5938,266.1625 225.95,266.4938 Q226.3063,266.8188 226.9438,266.8188 Q227.3188,266.8188 227.5813,266.7188 Q227.7375,266.6563 227.9063,266.4813 Q228.0125,266.375 228.0688,266.3438 Q228.1313,266.3125 228.2125,266.3125 Q228.3438,266.3125 228.4438,266.4188 Q228.55,266.5188 228.55,266.6563 Q228.55,266.7938 228.4125,266.9563 Q228.2125,267.1875 227.8938,267.3188 Q227.4625,267.5 226.9438,267.5 Q226.3375,267.5 225.8563,267.25 Q225.4625,267.05 225.1875,266.625 Q224.9125,266.1938 224.9125,265.6813 L224.9125,265.2188 Q224.9125,264.6875 225.1563,264.2313 Q225.4063,263.7688 225.8438,263.525 Q226.2813,263.275 226.775,263.275 Q227.0688,263.275 227.325,263.3438 Q227.5875,263.4063 227.8063,263.55 Z " fill="#000000"/><text fill="#000000" font-family="sans-serif" font-size="5.6" lengthAdjust="spacing" textLength="31.2" x="234.9" y="267.5188">Collaborator</text><line style="stroke:#181818;stroke-width:0.20000000000000004;" x1="110.2" x2="377.8" y1="271.6" y2="271.6"/><text fill="#000000" font-family="sans-serif" font-size="5.6" lengthAdjust="spacing" textLength="32.4" x="112.2" y="279.243">-String name</text><text fill="#000000" font-family="sans-serif" font-size="5.6" lengthAdjust="spacing" textLength="38.8" x="112.2" y="286.6914">-String birthday</text><text fill="#000000" font-family="sans-serif" font-size="5.6" lengthAdjust="spacing" textLength="55.6" x="112.2" y="294.1398">-String admissionDate</text><text fill="#000000" font-family="sans-serif" font-size="5.6" lengthAdjust="spacing" textLength="38.8" x="112.2" y="301.5883">-String address</text><text fill="#000000" font-family="sans-serif" font-size="5.6" lengthAdjust="spacing" textLength="45.2" x="112.2" y="309.0367">-int phoneNumber</text><text fill="#000000" font-family="sans-serif" font-size="5.6" lengthAdjust="spacing" textLength="31.6" x="112.2" y="316.4852">-String email</text><text fill="#000000" font-family="sans-serif" font-size="5.6" lengthAdjust="spacing" textLength="45.6" x="112.2" y="323.9336">-String idDocType</text><text fill="#000000" font-family="sans-serif" font-size="5.6" lengthAdjust="spacing" textLength="33.6" x="112.2" y="331.382">-int idNumber</text><line style="stroke:#181818;stroke-width:0.20000000000000004;" x1="110.2" x2="377.8" y1="334.3875" y2="334.3875"/><text fill="#000000" font-family="sans-serif" font-size="5.6" lengthAdjust="spacing" textLength="263.6" x="112.2" y="342.0305">+Collaborator(name, birthday, admissionDate, address, phoneNumber, email, idDocType, idNumber, job)</text></g><!--class JobRepository--><g id="elem_JobRepository"><rect codeLine="39" fill="#F1F1F1" height="26.6484" id="JobRepository" rx="1" ry="1" style="stroke:#181818;stroke-width:0.20000000000000004;" width="48.8" x="31.6" y="200.2"/><ellipse cx="37.6" cy="206.6" fill="#ADD1B2" rx="4.4" ry="4.4" style="stroke:#181818;stroke-width:0.4000000000000001;"/><path d="M38.7063,204.95 Q38.7688,204.8625 38.8438,204.8188 Q38.9188,204.775 39.0063,204.775 Q39.1563,204.775 39.25,204.8813 Q39.3438,204.9813 39.3438,205.225 L39.3438,205.8063 Q39.3438,206.05 39.25,206.1563 Q39.1563,206.2625 39.0063,206.2625 Q38.8688,206.2625 38.7875,206.1813 Q38.7063,206.1063 38.6625,205.9 Q38.6438,205.7563 38.5688,205.6813 Q38.4375,205.5313 38.1938,205.4438 Q37.95,205.3563 37.7,205.3563 Q37.3938,205.3563 37.1375,205.4875 Q36.8875,205.6188 36.6875,205.9188 Q36.4938,206.2188 36.4938,206.6313 L36.4938,207.0688 Q36.4938,207.5625 36.85,207.8938 Q37.2063,208.2188 37.8438,208.2188 Q38.2188,208.2188 38.4813,208.1188 Q38.6375,208.0563 38.8063,207.8813 Q38.9125,207.775 38.9688,207.7438 Q39.0313,207.7125 39.1125,207.7125 Q39.2438,207.7125 39.3438,207.8188 Q39.45,207.9188 39.45,208.0563 Q39.45,208.1938 39.3125,208.3563 Q39.1125,208.5875 38.7938,208.7188 Q38.3625,208.9 37.8438,208.9 Q37.2375,208.9 36.7563,208.65 Q36.3625,208.45 36.0875,208.025 Q35.8125,207.5938 35.8125,207.0813 L35.8125,206.6188 Q35.8125,206.0875 36.0563,205.6313 Q36.3063,205.1688 36.7438,204.925 Q37.1813,204.675 37.675,204.675 Q37.9688,204.675 38.225,204.7438 Q38.4875,204.8063 38.7063,204.95 Z " fill="#000000"/><text fill="#000000" font-family="sans-serif" font-size="5.6" lengthAdjust="spacing" textLength="36" x="43.2" y="208.9188">JobRepository</text><line style="stroke:#181818;stroke-width:0.20000000000000004;" x1="32" x2="80" y1="213" y2="213"/><line style="stroke:#181818;stroke-width:0.20000000000000004;" x1="32" x2="80" y1="216.2" y2="216.2"/><text fill="#000000" font-family="sans-serif" font-size="5.6" lengthAdjust="spacing" textLength="35.6" x="34" y="223.843">+getJobsList()</text></g><!--class Job--><g id="elem_Job"><rect codeLine="43" fill="#F1F1F1" height="34.0969" id="Job" rx="1" ry="1" style="stroke:#181818;stroke-width:0.20000000000000004;" width="37.2" x="225.4" y="369.6"/><ellipse cx="238.42" cy="376" fill="#ADD1B2" rx="4.4" ry="4.4" style="stroke:#181818;stroke-width:0.4000000000000001;"/><path d="M239.5263,374.35 Q239.5888,374.2625 239.6638,374.2188 Q239.7388,374.175 239.8263,374.175 Q239.9763,374.175 240.07,374.2813 Q240.1638,374.3813 240.1638,374.625 L240.1638,375.2063 Q240.1638,375.45 240.07,375.5563 Q239.9763,375.6625 239.8263,375.6625 Q239.6888,375.6625 239.6075,375.5813 Q239.5263,375.5063 239.4825,375.3 Q239.4638,375.1563 239.3888,375.0813 Q239.2575,374.9313 239.0138,374.8438 Q238.77,374.7563 238.52,374.7563 Q238.2138,374.7563 237.9575,374.8875 Q237.7075,375.0188 237.5075,375.3188 Q237.3138,375.6188 237.3138,376.0313 L237.3138,376.4688 Q237.3138,376.9625 237.67,377.2938 Q238.0263,377.6188 238.6638,377.6188 Q239.0388,377.6188 239.3013,377.5188 Q239.4575,377.4563 239.6263,377.2813 Q239.7325,377.175 239.7888,377.1438 Q239.8513,377.1125 239.9325,377.1125 Q240.0638,377.1125 240.1638,377.2188 Q240.27,377.3188 240.27,377.4563 Q240.27,377.5938 240.1325,377.7563 Q239.9325,377.9875 239.6138,378.1188 Q239.1825,378.3 238.6638,378.3 Q238.0575,378.3 237.5763,378.05 Q237.1825,377.85 236.9075,377.425 Q236.6325,376.9938 236.6325,376.4813 L236.6325,376.0188 Q236.6325,375.4875 236.8763,375.0313 Q237.1263,374.5688 237.5638,374.325 Q238.0013,374.075 238.495,374.075 Q238.7888,374.075 239.045,374.1438 Q239.3075,374.2063 239.5263,374.35 Z " fill="#000000"/><text fill="#000000" font-family="sans-serif" font-size="5.6" lengthAdjust="spacing" textLength="8.8" x="245.58" y="378.3188">Job</text><line style="stroke:#181818;stroke-width:0.20000000000000004;" x1="225.8" x2="262.2" y1="382.4" y2="382.4"/><text fill="#000000" font-family="sans-serif" font-size="5.6" lengthAdjust="spacing" textLength="32.4" x="227.8" y="390.043">-String name</text><line style="stroke:#181818;stroke-width:0.20000000000000004;" x1="225.8" x2="262.2" y1="393.0484" y2="393.0484"/><text fill="#000000" font-family="sans-serif" font-size="5.6" lengthAdjust="spacing" textLength="30" x="227.8" y="400.6914">+Job(name)</text></g><!--class HRM--><g id="elem_HRM"><rect codeLine="48" fill="#F1F1F1" height="26.6484" id="HRM" rx="1" ry="1" style="stroke:#181818;stroke-width:0.20000000000000004;" width="24.8" x="396.4" y="200.2"/><ellipse cx="402.4" cy="206.6" fill="#ADD1B2" rx="4.4" ry="4.4" style="stroke:#181818;stroke-width:0.4000000000000001;"/><path d="M403.5063,204.95 Q403.5688,204.8625 403.6438,204.8188 Q403.7188,204.775 403.8063,204.775 Q403.9563,204.775 404.05,204.8813 Q404.1438,204.9813 404.1438,205.225 L404.1438,205.8063 Q404.1438,206.05 404.05,206.1563 Q403.9563,206.2625 403.8063,206.2625 Q403.6688,206.2625 403.5875,206.1813 Q403.5063,206.1063 403.4625,205.9 Q403.4438,205.7563 403.3688,205.6813 Q403.2375,205.5313 402.9938,205.4438 Q402.75,205.3563 402.5,205.3563 Q402.1938,205.3563 401.9375,205.4875 Q401.6875,205.6188 401.4875,205.9188 Q401.2938,206.2188 401.2938,206.6313 L401.2938,207.0688 Q401.2938,207.5625 401.65,207.8938 Q402.0063,208.2188 402.6438,208.2188 Q403.0188,208.2188 403.2813,208.1188 Q403.4375,208.0563 403.6063,207.8813 Q403.7125,207.775 403.7688,207.7438 Q403.8313,207.7125 403.9125,207.7125 Q404.0438,207.7125 404.1438,207.8188 Q404.25,207.9188 404.25,208.0563 Q404.25,208.1938 404.1125,208.3563 Q403.9125,208.5875 403.5938,208.7188 Q403.1625,208.9 402.6438,208.9 Q402.0375,208.9 401.5563,208.65 Q401.1625,208.45 400.8875,208.025 Q400.6125,207.5938 400.6125,207.0813 L400.6125,206.6188 Q400.6125,206.0875 400.8563,205.6313 Q401.1063,205.1688 401.5438,204.925 Q401.9813,204.675 402.475,204.675 Q402.7688,204.675 403.025,204.7438 Q403.2875,204.8063 403.5063,204.95 Z " fill="#000000"/><text fill="#000000" font-family="sans-serif" font-size="5.6" lengthAdjust="spacing" textLength="12" x="408" y="208.9188">HRM</text><line style="stroke:#181818;stroke-width:0.20000000000000004;" x1="396.8" x2="420.8" y1="213" y2="213"/><text fill="#000000" font-family="sans-serif" font-size="5.6" lengthAdjust="spacing" textLength="16" x="398.8" y="220.643">-name</text><line style="stroke:#181818;stroke-width:0.20000000000000004;" x1="396.8" x2="420.8" y1="223.6484" y2="223.6484"/></g><!--class Repositories--><g id="elem_Repositories"><rect codeLine="52" fill="#F1F1F1" height="48.9938" id="Repositories" rx="1" ry="1" style="stroke:#181818;stroke-width:0.20000000000000004;" width="78.4" x="102" y="119.6"/><ellipse cx="123.7" cy="126" fill="#ADD1B2" rx="4.4" ry="4.4" style="stroke:#181818;stroke-width:0.4000000000000001;"/><path d="M124.8063,124.35 Q124.8688,124.2625 124.9438,124.2188 Q125.0188,124.175 125.1063,124.175 Q125.2563,124.175 125.35,124.2813 Q125.4438,124.3813 125.4438,124.625 L125.4438,125.2063 Q125.4438,125.45 125.35,125.5563 Q125.2563,125.6625 125.1063,125.6625 Q124.9688,125.6625 124.8875,125.5813 Q124.8063,125.5063 124.7625,125.3 Q124.7438,125.1563 124.6688,125.0813 Q124.5375,124.9313 124.2938,124.8438 Q124.05,124.7563 123.8,124.7563 Q123.4938,124.7563 123.2375,124.8875 Q122.9875,125.0188 122.7875,125.3188 Q122.5938,125.6188 122.5938,126.0313 L122.5938,126.4688 Q122.5938,126.9625 122.95,127.2938 Q123.3063,127.6188 123.9438,127.6188 Q124.3188,127.6188 124.5813,127.5188 Q124.7375,127.4563 124.9063,127.2813 Q125.0125,127.175 125.0688,127.1438 Q125.1313,127.1125 125.2125,127.1125 Q125.3438,127.1125 125.4438,127.2188 Q125.55,127.3188 125.55,127.4563 Q125.55,127.5938 125.4125,127.7563 Q125.2125,127.9875 124.8938,128.1188 Q124.4625,128.3 123.9438,128.3 Q123.3375,128.3 122.8563,128.05 Q122.4625,127.85 122.1875,127.425 Q121.9125,126.9938 121.9125,126.4813 L121.9125,126.0188 Q121.9125,125.4875 122.1563,125.0313 Q122.4063,124.5688 122.8438,124.325 Q123.2813,124.075 123.775,124.075 Q124.0688,124.075 124.325,124.1438 Q124.5875,124.2063 124.8063,124.35 Z " fill="#000000"/><text fill="#000000" font-family="sans-serif" font-size="5.6" lengthAdjust="spacing" textLength="31.6" x="131.9" y="128.3188">Repositories</text><line style="stroke:#181818;stroke-width:0.20000000000000004;" x1="102.4" x2="180" y1="132.4" y2="132.4"/><line style="stroke:#181818;stroke-width:0.20000000000000004;" x1="102.4" x2="180" y1="135.6" y2="135.6"/><text fill="#000000" font-family="sans-serif" font-size="5.6" lengthAdjust="spacing" textLength="37.6" x="104.4" y="143.243">-Repositories()</text><text fill="#000000" font-family="sans-serif" font-size="5.6" lengthAdjust="spacing" textLength="72.8" x="104.4" y="150.6914">+getInstance() : Repositories</text><text fill="#000000" font-family="sans-serif" font-size="5.6" lengthAdjust="spacing" textLength="51.2" x="104.4" y="158.1398">+getJobRepository()</text><text fill="#000000" font-family="sans-serif" font-size="5.6" lengthAdjust="spacing" textLength="73.6" x="104.4" y="165.5883">+getCollaboratorRepository()</text></g><!--link RegisterCollaboratorUI to RegisterCollaboratorController--><g id="link_RegisterCollaboratorUI_RegisterCollaboratorController"><path codeLine="59" d="M141.2,22.084 C141.2,28.748 141.2,35.588 141.2,43.944 " fill="none" id="RegisterCollaboratorUI-to-RegisterCollaboratorController" style="stroke:#181818;stroke-width:0.4000000000000001;stroke-dasharray:7.0,7.0;"/><polygon fill="#181818" points="141.2,46.344,142.8,42.744,141.2,44.344,139.6,42.744,141.2,46.344" style="stroke:#181818;stroke-width:0.4000000000000001;"/></g><!--link RegisterCollaboratorController to Repositories--><g id="link_RegisterCollaboratorController_Repositories"><path codeLine="60" d="M141.2,88.068 C141.2,97.784 141.2,107.056 141.2,117.192 " fill="none" id="RegisterCollaboratorController-to-Repositories" style="stroke:#181818;stroke-width:0.4000000000000001;stroke-dasharray:7.0,7.0;"/><polygon fill="#181818" points="141.2,119.592,142.8,115.992,141.2,117.592,139.6,115.992,141.2,119.592" style="stroke:#181818;stroke-width:0.4000000000000001;"/><text fill="#000000" font-family="sans-serif" font-size="5.2" lengthAdjust="spacing" textLength="26.8" x="141.6" y="106.0113">repositories</text></g><!--link RegisterCollaboratorController to CollaboratorRepository--><g id="link_RegisterCollaboratorController_CollaboratorRepository"><path codeLine="61" d="M171.648,88.004 C193.388,102.572 218.8,119.6 218.8,119.6 C218.8,119.6 227.8641,162.883 233.6321,190.427 " fill="none" id="RegisterCollaboratorController-to-CollaboratorRepository" style="stroke:#181818;stroke-width:0.4000000000000001;stroke-dasharray:7.0,7.0;"/><polygon fill="#181818" points="234.124,192.776,234.9522,188.9245,233.7141,190.8185,231.8201,189.5804,234.124,192.776" style="stroke:#181818;stroke-width:0.4000000000000001;"/><text fill="#000000" font-family="sans-serif" font-size="5.2" lengthAdjust="spacing" textLength="52.4" x="229.6" y="146.2113">CollaboratorRepository</text></g><!--link RegisterCollaboratorController to JobRepository--><g id="link_RegisterCollaboratorController_JobRepository"><path codeLine="62" d="M109.812,88.004 C87.4,102.572 61.2,119.6 61.2,119.6 C61.2,119.6 58.2851,172.0717 56.8571,197.7877 " fill="none" id="RegisterCollaboratorController-to-JobRepository" style="stroke:#181818;stroke-width:0.4000000000000001;stroke-dasharray:7.0,7.0;"/><polygon fill="#181818" points="56.724,200.184,58.5211,196.6782,56.8349,198.1871,55.3261,196.5008,56.724,200.184" style="stroke:#181818;stroke-width:0.4000000000000001;"/><text fill="#000000" font-family="sans-serif" font-size="5.2" lengthAdjust="spacing" textLength="32.8" x="61.6" y="146.2113">JobRepository</text></g><!--link Repositories to Repositories--><g id="link_Repositories_Repositories"><path codeLine="63" d="M180.408,137.488 C188.548,138.172 194.4,140.344 194.4,144 C194.4,147.656 190.9396,149.627 182.7996,150.311 " fill="none" id="Repositories-to-Repositories" style="stroke:#181818;stroke-width:0.4000000000000001;"/><polygon fill="#181818" points="180.408,150.512,184.1293,151.8049,182.401,150.3445,183.8614,148.6162,180.408,150.512" style="stroke:#181818;stroke-width:0.4000000000000001;"/><text fill="#000000" font-family="sans-serif" font-size="5.2" lengthAdjust="spacing" textLength="19.6" x="196.8" y="146.2113">instance</text></g><!--link Repositories to CollaboratorRepository--><g id="link_Repositories_CollaboratorRepository"><path codeLine="64" d="M175.196,168.464 C186.364,176.368 196.7091,183.6894 207.4691,191.3054 " fill="none" id="Repositories-to-CollaboratorRepository" style="stroke:#181818;stroke-width:0.4000000000000001;"/><polygon fill="#181818" points="209.428,192.692,207.414,189.3062,207.7955,191.5365,205.5652,191.9181,209.428,192.692" style="stroke:#181818;stroke-width:0.4000000000000001;"/><text fill="#000000" font-family="sans-serif" font-size="5.2" lengthAdjust="spacing" textLength="2.8" x="202.5468" y="188.2484">1</text></g><!--link Repositories to JobRepository--><g id="link_Repositories_JobRepository"><path codeLine="65" d="M111.4,168.464 C98.204,179.12 85.0671,189.7281 74.0071,198.6601 " fill="none" id="Repositories-to-JobRepository" style="stroke:#181818;stroke-width:0.4000000000000001;"/><polygon fill="#181818" points="72.14,200.168,75.946,199.1509,73.696,198.9114,73.9355,196.6614,72.14,200.168" style="stroke:#181818;stroke-width:0.4000000000000001;"/><text fill="#000000" font-family="sans-serif" font-size="5.2" lengthAdjust="spacing" textLength="2.8" x="72.2419" y="195.6919">1</text></g><!--link CollaboratorRepository to Collaborator--><g id="link_CollaboratorRepository_Collaborator"><path codeLine="66" d="M239.704,234.428 C240.172,241.708 240.563,247.8129 241.103,256.2689 " fill="none" id="CollaboratorRepository-to-Collaborator" style="stroke:#181818;stroke-width:0.4000000000000001;"/><polygon fill="#181818" points="241.256,258.664,242.6233,254.9693,241.1285,256.6681,239.4298,255.1733,241.256,258.664" style="stroke:#181818;stroke-width:0.4000000000000001;"/><text fill="#000000" font-family="sans-serif" font-size="5.2" lengthAdjust="spacing" textLength="2" x="239.0045" y="254.3447">*</text></g><!--link JobRepository to Job--><g id="link_JobRepository_Job"><path codeLine="67" d="M60.66,227.06 C72.496,260.244 102.8,345.2 102.8,345.2 C102.8,345.2 184.7472,368.9949 223.0912,380.1269 " fill="none" id="JobRepository-to-Job" style="stroke:#181818;stroke-width:0.4000000000000001;"/><polygon fill="#181818" points="225.396,380.796,222.3848,378.2557,223.4753,380.2384,221.4927,381.3288,225.396,380.796" style="stroke:#181818;stroke-width:0.4000000000000001;"/><text fill="#000000" font-family="sans-serif" font-size="5.2" lengthAdjust="spacing" textLength="2" x="220.1491" y="378.0845">*</text></g><!--link Collaborator to Job--><g id="link_Collaborator_Job"><path codeLine="68" d="M244,345.28 C244,353.9 244,360.06 244,367.108 " fill="none" id="Collaborator-to-Job" style="stroke:#181818;stroke-width:0.4000000000000001;"/><polygon fill="#181818" points="244,369.508,245.6,365.908,244,367.508,242.4,365.908,244,369.508" style="stroke:#181818;stroke-width:0.4000000000000001;"/><text fill="#000000" font-family="sans-serif" font-size="5.2" lengthAdjust="spacing" textLength="2.8" x="240.9769" y="365.055">1</text></g><!--link HRM to Collaborator--><g id="link_HRM_Collaborator"><path codeLine="69" d="M396.388,226.92 C392.496,230.968 389.2,234.4 389.2,234.4 C389.2,234.4 367.298,244.5359 338.754,257.7479 " fill="none" id="HRM-to-Collaborator" style="stroke:#181818;stroke-width:0.4000000000000001;"/><polygon fill="#181818" points="336.576,258.756,340.5151,258.6958,338.391,257.9159,339.1709,255.7918,336.576,258.756" style="stroke:#181818;stroke-width:0.4000000000000001;"/></g><!--link HRM to Job--><g id="link_HRM_Job"><path codeLine="70" d="M406.452,227.06 C400.48,260.244 385.2,345.2 385.2,345.2 C385.2,345.2 303.2528,368.9949 264.9088,380.1269 " fill="none" id="HRM-to-Job" style="stroke:#181818;stroke-width:0.4000000000000001;"/><polygon fill="#181818" points="262.604,380.796,266.5073,381.3288,264.5247,380.2384,265.6152,378.2557,262.604,380.796" style="stroke:#181818;stroke-width:0.4000000000000001;"/></g><!--SRC=[lLJ1Rjim3BthAuXUagnEiLrp652qXsROTaYs3v1jrbOhYuR4RF2A_ljaEwwbr6vwga_cuoFvI55Qk4TbQcbb1HKPoafB5GBR0uhHKyliKHQuvqOZMCnOcaA715VAdFugKy2zr2xqQ6MGcngX9jsqXbXCECaoYI0gqzAvQsQhqWFZDYEpL_yGFWknq7ZFm0HM5IL3hbevYemGNGpii52EqTwGrZ8bAvdixoqyYUUt63Tas7eRhMU2_oxVPYrNFQj0_aQf- -wf0sGd0fT6LfX0gYoNkMmIa7cbdFEoRoLZQ-OMdKkWBidWpqELeaq0Awbq0Yg_fUoNdrBxs_jMOpTXcHtMv9J_QOvTh7tYI4SM6BtUzH-fLUvLdE5zI5y9F50wqzpGqjulXT-pjd84328YCD9pukcazPWo74gCY9tQ27aHFWOF3VIZ-e0HZJFo-_Vgt4_sCkJEZV7I-pgj0VrkzsEWzyJW3XqhAdGlb10SRWDu9LlZ_8EHuN85cuWqKg8cmjZfzUvxchdgLrTVpznnSUO9w3ECEZV-pGjKloDwMlPc1dzFncX2czWKqN6irwVgrV40NlCklbpCQvhWncLdtfwE_2bEBE8r7IWUZRA4XKIxVgqTvHd0bl0V]--></g></svg>