<?xml version="1.0" encoding="us-ascii" standalone="no"?><svg xmlns="http://www.w3.org/2000/svg" xmlns:xlink="http://www.w3.org/1999/xlink" contentStyleType="text/css" height="1070px" preserveAspectRatio="none" style="width:1004px;height:1070px;background:#FFFFFF;" version="1.1" viewBox="0 0 1004 1070" width="1004px" zoomAndPan="magnify"><defs/><g><!--class RegisterCollaboratorUI--><g id="elem_RegisterCollaboratorUI"><rect codeLine="11" fill="#F1F1F1" height="48" id="RegisterCollaboratorUI" rx="2.5" ry="2.5" style="stroke:#181818;stroke-width:0.5;" width="175" x="532" y="25.5"/><ellipse cx="547" cy="41.5" fill="#ADD1B2" rx="11" ry="11" style="stroke:#181818;stroke-width:1.0;"/><path d="M549.7656,37.375 Q549.9219,37.1563 550.1094,37.0469 Q550.2969,36.9375 550.5156,36.9375 Q550.8906,36.9375 551.125,37.2031 Q551.3594,37.4531 551.3594,38.0625 L551.3594,39.5156 Q551.3594,40.125 551.125,40.3906 Q550.8906,40.6563 550.5156,40.6563 Q550.1719,40.6563 549.9688,40.4531 Q549.7656,40.2656 549.6563,39.75 Q549.6094,39.3906 549.4219,39.2031 Q549.0938,38.8281 548.4844,38.6094 Q547.875,38.3906 547.25,38.3906 Q546.4844,38.3906 545.8438,38.7188 Q545.2188,39.0469 544.7188,39.7969 Q544.2344,40.5469 544.2344,41.5781 L544.2344,42.6719 Q544.2344,43.9063 545.125,44.7344 Q546.0156,45.5469 547.6094,45.5469 Q548.5469,45.5469 549.2031,45.2969 Q549.5938,45.1406 550.0156,44.7031 Q550.2813,44.4375 550.4219,44.3594 Q550.5781,44.2813 550.7813,44.2813 Q551.1094,44.2813 551.3594,44.5469 Q551.625,44.7969 551.625,45.1406 Q551.625,45.4844 551.2813,45.8906 Q550.7813,46.4688 549.9844,46.7969 Q548.9063,47.25 547.6094,47.25 Q546.0938,47.25 544.8906,46.625 Q543.9063,46.125 543.2188,45.0625 Q542.5313,43.9844 542.5313,42.7031 L542.5313,41.5469 Q542.5313,40.2188 543.1406,39.0781 Q543.7656,37.9219 544.8594,37.3125 Q545.9531,36.6875 547.1875,36.6875 Q547.9219,36.6875 548.5625,36.8594 Q549.2188,37.0156 549.7656,37.375 Z " fill="#000000"/><text fill="#000000" font-family="sans-serif" font-size="14" lengthAdjust="spacing" textLength="143" x="561" y="47.2969">RegisterCollaboratorUI</text><line style="stroke:#181818;stroke-width:0.5;" x1="533" x2="706" y1="57.5" y2="57.5"/><line style="stroke:#181818;stroke-width:0.5;" x1="533" x2="706" y1="65.5" y2="65.5"/></g><!--class RegisterCollaboratorController--><g id="elem_RegisterCollaboratorController"><rect codeLine="14" fill="#F1F1F1" height="122.4844" id="RegisterCollaboratorController" rx="2.5" ry="2.5" style="stroke:#181818;stroke-width:0.5;" width="755" x="242" y="153"/><ellipse cx="518.75" cy="169" fill="#ADD1B2" rx="11" ry="11" style="stroke:#181818;stroke-width:1.0;"/><path d="M521.5156,164.875 Q521.6719,164.6563 521.8594,164.5469 Q522.0469,164.4375 522.2656,164.4375 Q522.6406,164.4375 522.875,164.7031 Q523.1094,164.9531 523.1094,165.5625 L523.1094,167.0156 Q523.1094,167.625 522.875,167.8906 Q522.6406,168.1563 522.2656,168.1563 Q521.9219,168.1563 521.7188,167.9531 Q521.5156,167.7656 521.4063,167.25 Q521.3594,166.8906 521.1719,166.7031 Q520.8438,166.3281 520.2344,166.1094 Q519.625,165.8906 519,165.8906 Q518.2344,165.8906 517.5938,166.2188 Q516.9688,166.5469 516.4688,167.2969 Q515.9844,168.0469 515.9844,169.0781 L515.9844,170.1719 Q515.9844,171.4063 516.875,172.2344 Q517.7656,173.0469 519.3594,173.0469 Q520.2969,173.0469 520.9531,172.7969 Q521.3438,172.6406 521.7656,172.2031 Q522.0313,171.9375 522.1719,171.8594 Q522.3281,171.7813 522.5313,171.7813 Q522.8594,171.7813 523.1094,172.0469 Q523.375,172.2969 523.375,172.6406 Q523.375,172.9844 523.0313,173.3906 Q522.5313,173.9688 521.7344,174.2969 Q520.6563,174.75 519.3594,174.75 Q517.8438,174.75 516.6406,174.125 Q515.6563,173.625 514.9688,172.5625 Q514.2813,171.4844 514.2813,170.2031 L514.2813,169.0469 Q514.2813,167.7188 514.8906,166.5781 Q515.5156,165.4219 516.6094,164.8125 Q517.7031,164.1875 518.9375,164.1875 Q519.6719,164.1875 520.3125,164.3594 Q520.9688,164.5156 521.5156,164.875 Z " fill="#000000"/><text fill="#000000" font-family="sans-serif" font-size="14" lengthAdjust="spacing" textLength="193" x="539.25" y="174.7969">RegisterCollaboratorController</text><line style="stroke:#181818;stroke-width:0.5;" x1="243" x2="996" y1="185" y2="185"/><line style="stroke:#181818;stroke-width:0.5;" x1="243" x2="996" y1="193" y2="193"/><text fill="#000000" font-family="sans-serif" font-size="14" lengthAdjust="spacing" textLength="449" x="248" y="212.1074">+RegisterCollaboratorController(collaboratorRepository, jobRepository)</text><text fill="#000000" font-family="sans-serif" font-size="14" lengthAdjust="spacing" textLength="743" x="248" y="230.7285">+registerCollaborator(name, birthday, admissionDate, address, phoneNumber, email, idDocType, idNumber, jobName)</text><text fill="#000000" font-family="sans-serif" font-size="14" lengthAdjust="spacing" textLength="164" x="248" y="249.3496">-getJobByName(jobName)</text><text fill="#000000" font-family="sans-serif" font-size="14" lengthAdjust="spacing" textLength="89" x="248" y="267.9707">+getJobsList()</text></g><!--class CollaboratorRepository--><g id="elem_CollaboratorRepository"><rect codeLine="21" fill="#F1F1F1" height="103.8633" id="CollaboratorRepository" rx="2.5" ry="2.5" style="stroke:#181818;stroke-width:0.5;" width="719" x="7" y="537"/><ellipse cx="289.25" cy="553" fill="#ADD1B2" rx="11" ry="11" style="stroke:#181818;stroke-width:1.0;"/><path d="M292.0156,548.875 Q292.1719,548.6563 292.3594,548.5469 Q292.5469,548.4375 292.7656,548.4375 Q293.1406,548.4375 293.375,548.7031 Q293.6094,548.9531 293.6094,549.5625 L293.6094,551.0156 Q293.6094,551.625 293.375,551.8906 Q293.1406,552.1563 292.7656,552.1563 Q292.4219,552.1563 292.2188,551.9531 Q292.0156,551.7656 291.9063,551.25 Q291.8594,550.8906 291.6719,550.7031 Q291.3438,550.3281 290.7344,550.1094 Q290.125,549.8906 289.5,549.8906 Q288.7344,549.8906 288.0938,550.2188 Q287.4688,550.5469 286.9688,551.2969 Q286.4844,552.0469 286.4844,553.0781 L286.4844,554.1719 Q286.4844,555.4063 287.375,556.2344 Q288.2656,557.0469 289.8594,557.0469 Q290.7969,557.0469 291.4531,556.7969 Q291.8438,556.6406 292.2656,556.2031 Q292.5313,555.9375 292.6719,555.8594 Q292.8281,555.7813 293.0313,555.7813 Q293.3594,555.7813 293.6094,556.0469 Q293.875,556.2969 293.875,556.6406 Q293.875,556.9844 293.5313,557.3906 Q293.0313,557.9688 292.2344,558.2969 Q291.1563,558.75 289.8594,558.75 Q288.3438,558.75 287.1406,558.125 Q286.1563,557.625 285.4688,556.5625 Q284.7813,555.4844 284.7813,554.2031 L284.7813,553.0469 Q284.7813,551.7188 285.3906,550.5781 Q286.0156,549.4219 287.1094,548.8125 Q288.2031,548.1875 289.4375,548.1875 Q290.1719,548.1875 290.8125,548.3594 Q291.4688,548.5156 292.0156,548.875 Z " fill="#000000"/><text fill="#000000" font-family="sans-serif" font-size="14" lengthAdjust="spacing" textLength="146" x="309.75" y="558.7969">CollaboratorRepository</text><line style="stroke:#181818;stroke-width:0.5;" x1="8" x2="725" y1="569" y2="569"/><line style="stroke:#181818;stroke-width:0.5;" x1="8" x2="725" y1="577" y2="577"/><text fill="#000000" font-family="sans-serif" font-size="14" lengthAdjust="spacing" textLength="192" x="13" y="596.1074">-addCollaborator(collaborator)</text><text fill="#000000" font-family="sans-serif" font-size="14" lengthAdjust="spacing" textLength="217" x="13" y="614.7285">-validateCollaborator(collaborator)</text><text fill="#000000" font-family="sans-serif" font-size="14" lengthAdjust="spacing" textLength="707" x="13" y="633.3496">+registerCollaborator(name, birthday, admissionDate, address, phoneNumber, email, idDocType, idNumber, job)</text></g><!--class Collaborator--><g id="elem_Collaborator"><rect codeLine="27" fill="#F1F1F1" height="196.9688" id="Collaborator" rx="2.5" ry="2.5" style="stroke:#181818;stroke-width:0.5;" width="671" x="105" y="702"/><ellipse cx="397.25" cy="718" fill="#ADD1B2" rx="11" ry="11" style="stroke:#181818;stroke-width:1.0;"/><path d="M400.0156,713.875 Q400.1719,713.6563 400.3594,713.5469 Q400.5469,713.4375 400.7656,713.4375 Q401.1406,713.4375 401.375,713.7031 Q401.6094,713.9531 401.6094,714.5625 L401.6094,716.0156 Q401.6094,716.625 401.375,716.8906 Q401.1406,717.1563 400.7656,717.1563 Q400.4219,717.1563 400.2188,716.9531 Q400.0156,716.7656 399.9063,716.25 Q399.8594,715.8906 399.6719,715.7031 Q399.3438,715.3281 398.7344,715.1094 Q398.125,714.8906 397.5,714.8906 Q396.7344,714.8906 396.0938,715.2188 Q395.4688,715.5469 394.9688,716.2969 Q394.4844,717.0469 394.4844,718.0781 L394.4844,719.1719 Q394.4844,720.4063 395.375,721.2344 Q396.2656,722.0469 397.8594,722.0469 Q398.7969,722.0469 399.4531,721.7969 Q399.8438,721.6406 400.2656,721.2031 Q400.5313,720.9375 400.6719,720.8594 Q400.8281,720.7813 401.0313,720.7813 Q401.3594,720.7813 401.6094,721.0469 Q401.875,721.2969 401.875,721.6406 Q401.875,721.9844 401.5313,722.3906 Q401.0313,722.9688 400.2344,723.2969 Q399.1563,723.75 397.8594,723.75 Q396.3438,723.75 395.1406,723.125 Q394.1563,722.625 393.4688,721.5625 Q392.7813,720.4844 392.7813,719.2031 L392.7813,718.0469 Q392.7813,716.7188 393.3906,715.5781 Q394.0156,714.4219 395.1094,713.8125 Q396.2031,713.1875 397.4375,713.1875 Q398.1719,713.1875 398.8125,713.3594 Q399.4688,713.5156 400.0156,713.875 Z " fill="#000000"/><text fill="#000000" font-family="sans-serif" font-size="14" lengthAdjust="spacing" textLength="78" x="417.75" y="723.7969">Collaborator</text><line style="stroke:#181818;stroke-width:0.5;" x1="106" x2="775" y1="734" y2="734"/><text fill="#000000" font-family="sans-serif" font-size="14" lengthAdjust="spacing" textLength="81" x="111" y="753.1074">-String name</text><text fill="#000000" font-family="sans-serif" font-size="14" lengthAdjust="spacing" textLength="97" x="111" y="771.7285">-String birthday</text><text fill="#000000" font-family="sans-serif" font-size="14" lengthAdjust="spacing" textLength="139" x="111" y="790.3496">-String admissionDate</text><text fill="#000000" font-family="sans-serif" font-size="14" lengthAdjust="spacing" textLength="97" x="111" y="808.9707">-String address</text><text fill="#000000" font-family="sans-serif" font-size="14" lengthAdjust="spacing" textLength="113" x="111" y="827.5918">-int phoneNumber</text><text fill="#000000" font-family="sans-serif" font-size="14" lengthAdjust="spacing" textLength="79" x="111" y="846.2129">-String email</text><text fill="#000000" font-family="sans-serif" font-size="14" lengthAdjust="spacing" textLength="84" x="111" y="864.834">-int idNumber</text><line style="stroke:#181818;stroke-width:0.5;" x1="106" x2="775" y1="872.3477" y2="872.3477"/><text fill="#000000" font-family="sans-serif" font-size="14" lengthAdjust="spacing" textLength="659" x="111" y="891.4551">+Collaborator(name, birthday, admissionDate, address, phoneNumber, email, idDocType, idNumber, job)</text></g><!--class JobRepository--><g id="elem_JobRepository"><rect codeLine="38" fill="#F1F1F1" height="66.6211" id="JobRepository" rx="2.5" ry="2.5" style="stroke:#181818;stroke-width:0.5;" width="186" x="761.5" y="555.5"/><ellipse cx="805.3" cy="571.5" fill="#ADD1B2" rx="11" ry="11" style="stroke:#181818;stroke-width:1.0;"/><path d="M808.0656,567.375 Q808.2219,567.1563 808.4094,567.0469 Q808.5969,566.9375 808.8156,566.9375 Q809.1906,566.9375 809.425,567.2031 Q809.6594,567.4531 809.6594,568.0625 L809.6594,569.5156 Q809.6594,570.125 809.425,570.3906 Q809.1906,570.6563 808.8156,570.6563 Q808.4719,570.6563 808.2688,570.4531 Q808.0656,570.2656 807.9563,569.75 Q807.9094,569.3906 807.7219,569.2031 Q807.3938,568.8281 806.7844,568.6094 Q806.175,568.3906 805.55,568.3906 Q804.7844,568.3906 804.1438,568.7188 Q803.5188,569.0469 803.0188,569.7969 Q802.5344,570.5469 802.5344,571.5781 L802.5344,572.6719 Q802.5344,573.9063 803.425,574.7344 Q804.3156,575.5469 805.9094,575.5469 Q806.8469,575.5469 807.5031,575.2969 Q807.8938,575.1406 808.3156,574.7031 Q808.5813,574.4375 808.7219,574.3594 Q808.8781,574.2813 809.0813,574.2813 Q809.4094,574.2813 809.6594,574.5469 Q809.925,574.7969 809.925,575.1406 Q809.925,575.4844 809.5813,575.8906 Q809.0813,576.4688 808.2844,576.7969 Q807.2063,577.25 805.9094,577.25 Q804.3938,577.25 803.1906,576.625 Q802.2063,576.125 801.5188,575.0625 Q800.8313,573.9844 800.8313,572.7031 L800.8313,571.5469 Q800.8313,570.2188 801.4406,569.0781 Q802.0656,567.9219 803.1594,567.3125 Q804.2531,566.6875 805.4875,566.6875 Q806.2219,566.6875 806.8625,566.8594 Q807.5188,567.0156 808.0656,567.375 Z " fill="#000000"/><text fill="#000000" font-family="sans-serif" font-size="14" lengthAdjust="spacing" textLength="90" x="825.7" y="577.2969">JobRepository</text><line style="stroke:#181818;stroke-width:0.5;" x1="762.5" x2="946.5" y1="587.5" y2="587.5"/><line style="stroke:#181818;stroke-width:0.5;" x1="762.5" x2="946.5" y1="595.5" y2="595.5"/><text fill="#000000" font-family="sans-serif" font-size="14" lengthAdjust="spacing" textLength="174" x="767.5" y="614.6074">+getJobsByName(jobName)</text></g><!--class Job--><g id="elem_Job"><rect codeLine="42" fill="#F1F1F1" height="85.2422" id="Job" rx="2.5" ry="2.5" style="stroke:#181818;stroke-width:0.5;" width="93" x="695" y="969.5"/><ellipse cx="727.55" cy="985.5" fill="#ADD1B2" rx="11" ry="11" style="stroke:#181818;stroke-width:1.0;"/><path d="M730.3156,981.375 Q730.4719,981.1563 730.6594,981.0469 Q730.8469,980.9375 731.0656,980.9375 Q731.4406,980.9375 731.675,981.2031 Q731.9094,981.4531 731.9094,982.0625 L731.9094,983.5156 Q731.9094,984.125 731.675,984.3906 Q731.4406,984.6563 731.0656,984.6563 Q730.7219,984.6563 730.5188,984.4531 Q730.3156,984.2656 730.2063,983.75 Q730.1594,983.3906 729.9719,983.2031 Q729.6438,982.8281 729.0344,982.6094 Q728.425,982.3906 727.8,982.3906 Q727.0344,982.3906 726.3938,982.7188 Q725.7688,983.0469 725.2688,983.7969 Q724.7844,984.5469 724.7844,985.5781 L724.7844,986.6719 Q724.7844,987.9063 725.675,988.7344 Q726.5656,989.5469 728.1594,989.5469 Q729.0969,989.5469 729.7531,989.2969 Q730.1438,989.1406 730.5656,988.7031 Q730.8313,988.4375 730.9719,988.3594 Q731.1281,988.2813 731.3313,988.2813 Q731.6594,988.2813 731.9094,988.5469 Q732.175,988.7969 732.175,989.1406 Q732.175,989.4844 731.8313,989.8906 Q731.3313,990.4688 730.5344,990.7969 Q729.4563,991.25 728.1594,991.25 Q726.6438,991.25 725.4406,990.625 Q724.4563,990.125 723.7688,989.0625 Q723.0813,987.9844 723.0813,986.7031 L723.0813,985.5469 Q723.0813,984.2188 723.6906,983.0781 Q724.3156,981.9219 725.4094,981.3125 Q726.5031,980.6875 727.7375,980.6875 Q728.4719,980.6875 729.1125,980.8594 Q729.7688,981.0156 730.3156,981.375 Z " fill="#000000"/><text fill="#000000" font-family="sans-serif" font-size="14" lengthAdjust="spacing" textLength="22" x="745.45" y="991.2969">Job</text><line style="stroke:#181818;stroke-width:0.5;" x1="696" x2="787" y1="1001.5" y2="1001.5"/><text fill="#000000" font-family="sans-serif" font-size="14" lengthAdjust="spacing" textLength="81" x="701" y="1020.6074">-String name</text><line style="stroke:#181818;stroke-width:0.5;" x1="696" x2="787" y1="1028.1211" y2="1028.1211"/><text fill="#000000" font-family="sans-serif" font-size="14" lengthAdjust="spacing" textLength="75" x="701" y="1047.2285">+Job(name)</text></g><!--class HumanResourcesManager--><g id="elem_HumanResourcesManager"><rect codeLine="47" fill="#F1F1F1" height="85.2422" id="HumanResourcesManager" rx="2.5" ry="2.5" style="stroke:#181818;stroke-width:0.5;" width="233" x="742" y="7"/><ellipse cx="771.85" cy="23" fill="#ADD1B2" rx="11" ry="11" style="stroke:#181818;stroke-width:1.0;"/><path d="M774.6156,18.875 Q774.7719,18.6563 774.9594,18.5469 Q775.1469,18.4375 775.3656,18.4375 Q775.7406,18.4375 775.975,18.7031 Q776.2094,18.9531 776.2094,19.5625 L776.2094,21.0156 Q776.2094,21.625 775.975,21.8906 Q775.7406,22.1563 775.3656,22.1563 Q775.0219,22.1563 774.8188,21.9531 Q774.6156,21.7656 774.5063,21.25 Q774.4594,20.8906 774.2719,20.7031 Q773.9438,20.3281 773.3344,20.1094 Q772.725,19.8906 772.1,19.8906 Q771.3344,19.8906 770.6938,20.2188 Q770.0688,20.5469 769.5688,21.2969 Q769.0844,22.0469 769.0844,23.0781 L769.0844,24.1719 Q769.0844,25.4063 769.975,26.2344 Q770.8656,27.0469 772.4594,27.0469 Q773.3969,27.0469 774.0531,26.7969 Q774.4438,26.6406 774.8656,26.2031 Q775.1313,25.9375 775.2719,25.8594 Q775.4281,25.7813 775.6313,25.7813 Q775.9594,25.7813 776.2094,26.0469 Q776.475,26.2969 776.475,26.6406 Q776.475,26.9844 776.1313,27.3906 Q775.6313,27.9688 774.8344,28.2969 Q773.7563,28.75 772.4594,28.75 Q770.9438,28.75 769.7406,28.125 Q768.7563,27.625 768.0688,26.5625 Q767.3813,25.4844 767.3813,24.2031 L767.3813,23.0469 Q767.3813,21.7188 767.9906,20.5781 Q768.6156,19.4219 769.7094,18.8125 Q770.8031,18.1875 772.0375,18.1875 Q772.7719,18.1875 773.4125,18.3594 Q774.0688,18.5156 774.6156,18.875 Z " fill="#000000"/><text fill="#000000" font-family="sans-serif" font-size="14" lengthAdjust="spacing" textLength="168" x="789.15" y="28.7969">HumanResourcesManager</text><line style="stroke:#181818;stroke-width:0.5;" x1="743" x2="974" y1="39" y2="39"/><text fill="#000000" font-family="sans-serif" font-size="14" lengthAdjust="spacing" textLength="40" x="748" y="58.1074">-name</text><line style="stroke:#181818;stroke-width:0.5;" x1="743" x2="974" y1="65.6211" y2="65.6211"/><text fill="#000000" font-family="sans-serif" font-size="14" lengthAdjust="spacing" textLength="221" x="748" y="84.7285">+HumanResourcesManager(name)</text></g><!--class Repositories--><g id="elem_Repositories"><rect codeLine="52" fill="#F1F1F1" height="122.4844" id="Repositories" rx="2.5" ry="2.5" style="stroke:#181818;stroke-width:0.5;" width="196" x="521.5" y="354"/><ellipse cx="575.75" cy="370" fill="#ADD1B2" rx="11" ry="11" style="stroke:#181818;stroke-width:1.0;"/><path d="M578.5156,365.875 Q578.6719,365.6563 578.8594,365.5469 Q579.0469,365.4375 579.2656,365.4375 Q579.6406,365.4375 579.875,365.7031 Q580.1094,365.9531 580.1094,366.5625 L580.1094,368.0156 Q580.1094,368.625 579.875,368.8906 Q579.6406,369.1563 579.2656,369.1563 Q578.9219,369.1563 578.7188,368.9531 Q578.5156,368.7656 578.4063,368.25 Q578.3594,367.8906 578.1719,367.7031 Q577.8438,367.3281 577.2344,367.1094 Q576.625,366.8906 576,366.8906 Q575.2344,366.8906 574.5938,367.2188 Q573.9688,367.5469 573.4688,368.2969 Q572.9844,369.0469 572.9844,370.0781 L572.9844,371.1719 Q572.9844,372.4063 573.875,373.2344 Q574.7656,374.0469 576.3594,374.0469 Q577.2969,374.0469 577.9531,373.7969 Q578.3438,373.6406 578.7656,373.2031 Q579.0313,372.9375 579.1719,372.8594 Q579.3281,372.7813 579.5313,372.7813 Q579.8594,372.7813 580.1094,373.0469 Q580.375,373.2969 580.375,373.6406 Q580.375,373.9844 580.0313,374.3906 Q579.5313,374.9688 578.7344,375.2969 Q577.6563,375.75 576.3594,375.75 Q574.8438,375.75 573.6406,375.125 Q572.6563,374.625 571.9688,373.5625 Q571.2813,372.4844 571.2813,371.2031 L571.2813,370.0469 Q571.2813,368.7188 571.8906,367.5781 Q572.5156,366.4219 573.6094,365.8125 Q574.7031,365.1875 575.9375,365.1875 Q576.6719,365.1875 577.3125,365.3594 Q577.9688,365.5156 578.5156,365.875 Z " fill="#000000"/><text fill="#000000" font-family="sans-serif" font-size="14" lengthAdjust="spacing" textLength="79" x="596.25" y="375.7969">Repositories</text><line style="stroke:#181818;stroke-width:0.5;" x1="522.5" x2="716.5" y1="386" y2="386"/><line style="stroke:#181818;stroke-width:0.5;" x1="522.5" x2="716.5" y1="394" y2="394"/><text fill="#000000" font-family="sans-serif" font-size="14" lengthAdjust="spacing" textLength="94" x="527.5" y="413.1074">-Repositories()</text><text fill="#000000" font-family="sans-serif" font-size="14" lengthAdjust="spacing" textLength="182" x="527.5" y="431.7285">+getInstance() : Repositories</text><text fill="#000000" font-family="sans-serif" font-size="14" lengthAdjust="spacing" textLength="128" x="527.5" y="450.3496">+getJobRepository()</text><text fill="#000000" font-family="sans-serif" font-size="14" lengthAdjust="spacing" textLength="184" x="527.5" y="468.9707">+getCollaboratorRepository()</text></g><!--class IdDocType--><g id="elem_IdDocType"><rect codeLine="59" fill="#F1F1F1" height="103.8633" id="IdDocType" rx="2.5" ry="2.5" style="stroke:#181818;stroke-width:0.5;" width="157" x="362" y="960"/><ellipse cx="402.65" cy="976" fill="#EB937F" rx="11" ry="11" style="stroke:#181818;stroke-width:1.0;"/><path d="M401.5094,976.7969 L401.5094,979.2969 L405.8375,979.2969 L405.8375,978.375 Q405.8375,977.7656 406.0719,977.5 Q406.3219,977.2344 406.6969,977.2344 Q407.0719,977.2344 407.3063,977.5 Q407.5406,977.7656 407.5406,978.375 L407.5406,981 L399.5406,981 Q398.9156,981 398.65,980.7656 Q398.4,980.5313 398.4,980.1406 Q398.4,979.7656 398.6656,979.5313 Q398.9313,979.2969 399.5406,979.2969 L399.8063,979.2969 L399.8063,972.6406 L399.5406,972.6406 Q398.9156,972.6406 398.65,972.4063 Q398.4,972.1719 398.4,971.7813 Q398.4,971.4063 398.65,971.1719 Q398.9156,970.9375 399.5406,970.9375 L407.1656,970.9375 L407.1656,973.5313 Q407.1656,974.1406 406.9313,974.4063 Q406.7125,974.6563 406.3219,974.6563 Q405.9469,974.6563 405.7125,974.4063 Q405.4781,974.1406 405.4781,973.5313 L405.4781,972.6406 L401.5094,972.6406 L401.5094,975.0938 L402.9938,975.0938 Q402.9938,974.4375 403.1188,974.25 Q403.3844,973.8438 403.8531,973.8438 Q404.2281,973.8438 404.4625,974.1094 Q404.6969,974.3594 404.6969,974.9688 L404.6969,976.9375 Q404.6969,977.4844 404.5719,977.6719 Q404.3063,978.0625 403.8531,978.0625 Q403.3844,978.0625 403.1188,977.6563 Q402.9938,977.4688 402.9938,976.7969 L401.5094,976.7969 Z " fill="#000000"/><text fill="#000000" font-family="sans-serif" font-size="14" lengthAdjust="spacing" textLength="68" x="422.35" y="981.7969">IdDocType</text><line style="stroke:#181818;stroke-width:0.5;" x1="363" x2="518" y1="992" y2="992"/><text fill="#000000" font-family="sans-serif" font-size="14" lengthAdjust="spacing" textLength="145" x="368" y="1011.1074">+TAXPAYER_NUMBER</text><text fill="#000000" font-family="sans-serif" font-size="14" lengthAdjust="spacing" textLength="106" x="368" y="1029.7285">+CITIZEN_CARD</text><text fill="#000000" font-family="sans-serif" font-size="14" lengthAdjust="spacing" textLength="83" x="368" y="1048.3496">+PASSPORT</text><line style="stroke:#181818;stroke-width:0.5;" x1="363" x2="518" y1="1055.8633" y2="1055.8633"/></g><!--link RegisterCollaboratorUI to RegisterCollaboratorController--><g id="link_RegisterCollaboratorUI_RegisterCollaboratorController"><path codeLine="65" d="M619.5,73.78 C619.5,94.41 619.5,119.43 619.5,146.95 " fill="none" id="RegisterCollaboratorUI-to-RegisterCollaboratorController" style="stroke:#181818;stroke-width:1.0;stroke-dasharray:7.0,7.0;"/><polygon fill="#181818" points="619.5,152.95,623.5,143.95,619.5,147.95,615.5,143.95,619.5,152.95" style="stroke:#181818;stroke-width:1.0;"/></g><!--link RegisterCollaboratorController to Repositories--><g id="link_RegisterCollaboratorController_Repositories"><path codeLine="66" d="M619.5,275.25 C619.5,300.18 619.5,323.04 619.5,347.96 " fill="none" id="RegisterCollaboratorController-to-Repositories" style="stroke:#181818;stroke-width:1.0;stroke-dasharray:7.0,7.0;"/><polygon fill="#181818" points="619.5,353.96,623.5,344.96,619.5,348.96,615.5,344.96,619.5,353.96" style="stroke:#181818;stroke-width:1.0;"/><text fill="#000000" font-family="sans-serif" font-size="13" lengthAdjust="spacing" textLength="67" x="620.5" y="320.0283">repositories</text></g><!--link RegisterCollaboratorController to CollaboratorRepository--><g id="link_RegisterCollaboratorController_CollaboratorRepository"><path codeLine="67" d="M512.17,275.16 C445.14,312.73 371.5,354 371.5,354 C371.5,354 369.1881,462.0814 367.7181,530.9414 " fill="none" id="RegisterCollaboratorController-to-CollaboratorRepository" style="stroke:#181818;stroke-width:1.0;stroke-dasharray:7.0,7.0;"/><polygon fill="#181818" points="367.59,536.94,371.7812,528.0274,367.6967,531.9411,363.783,527.8567,367.59,536.94" style="stroke:#181818;stroke-width:1.0;"/><text fill="#000000" font-family="sans-serif" font-size="13" lengthAdjust="spacing" textLength="131" x="372.5" y="420.5283">CollaboratorRepository</text></g><!--link RegisterCollaboratorController to JobRepository--><g id="link_RegisterCollaboratorController_JobRepository"><path codeLine="68" d="M703.9,275.16 C756.6,312.73 814.5,354 814.5,354 C814.5,354 836.939,485.2558 847.929,549.5458 " fill="none" id="RegisterCollaboratorController-to-JobRepository" style="stroke:#181818;stroke-width:1.0;stroke-dasharray:7.0,7.0;"/><polygon fill="#181818" points="848.94,555.46,851.3663,545.9147,848.0975,550.5315,843.4807,547.2627,848.94,555.46" style="stroke:#181818;stroke-width:1.0;"/><text fill="#000000" font-family="sans-serif" font-size="13" lengthAdjust="spacing" textLength="82" x="835.5" y="420.5283">JobRepository</text></g><!--link Repositories to Repositories--><g id="link_Repositories_Repositories"><path codeLine="69" d="M717.52,398.72 C737.87,400.43 752.5,405.86 752.5,415 C752.5,424.14 743.8489,429.0676 723.4989,430.7776 " fill="none" id="Repositories-to-Repositories" style="stroke:#181818;stroke-width:1.0;"/><polygon fill="#181818" points="717.52,431.28,726.8233,434.5123,722.5024,430.8613,726.1535,426.5404,717.52,431.28" style="stroke:#181818;stroke-width:1.0;"/><text fill="#000000" font-family="sans-serif" font-size="13" lengthAdjust="spacing" textLength="49" x="758.5" y="420.5283">instance</text></g><!--link Repositories to CollaboratorRepository--><g id="link_Repositories_CollaboratorRepository"><path codeLine="70" d="M531.01,476.16 C501.94,495.92 474.8816,514.3161 446.8816,533.3561 " fill="none" id="Repositories-to-CollaboratorRepository" style="stroke:#181818;stroke-width:1.0;"/><polygon fill="#181818" points="441.92,536.73,451.6116,534.9769,446.0546,533.9184,447.1131,528.3615,441.92,536.73" style="stroke:#181818;stroke-width:1.0;"/><text fill="#000000" font-family="sans-serif" font-size="13" lengthAdjust="spacing" textLength="7" x="444.5843" y="525.6211">1</text></g><!--link Repositories to JobRepository--><g id="link_Repositories_JobRepository"><path codeLine="71" d="M701.69,476.16 C738.09,502.8 774.6282,529.5464 805.1382,551.8764 " fill="none" id="Repositories-to-JobRepository" style="stroke:#181818;stroke-width:1.0;"/><polygon fill="#181818" points="809.98,555.42,805.0798,546.8767,805.9452,552.467,800.3549,553.3324,809.98,555.42" style="stroke:#181818;stroke-width:1.0;"/><text fill="#000000" font-family="sans-serif" font-size="13" lengthAdjust="spacing" textLength="7" x="793.5261" y="544.2298">1</text></g><!--link CollaboratorRepository to Collaborator--><g id="link_CollaboratorRepository_Collaborator"><path codeLine="72" d="M384.6,641.25 C391.06,659.54 396.5814,675.1527 403.9614,696.0427 " fill="none" id="CollaboratorRepository-to-Collaborator" style="stroke:#181818;stroke-width:1.0;"/><polygon fill="#181818" points="405.96,701.7,406.7336,691.8816,404.2945,696.9855,399.1905,694.5464,405.96,701.7" style="stroke:#181818;stroke-width:1.0;"/><text fill="#000000" font-family="sans-serif" font-size="13" lengthAdjust="spacing" textLength="5" x="398.2399" y="690.8603">*</text></g><!--link JobRepository to Job--><g id="link_JobRepository_Job"><path codeLine="73" d="M848.03,622.78 C832.33,702.3 793.5,899 793.5,899 C793.5,899 778.177,932.0081 763.387,963.8581 " fill="none" id="JobRepository-to-Job" style="stroke:#181818;stroke-width:1.0;"/><polygon fill="#181818" points="760.86,969.3,768.2785,962.8218,762.9658,964.7651,761.0226,959.4525,760.86,969.3" style="stroke:#181818;stroke-width:1.0;"/><text fill="#000000" font-family="sans-serif" font-size="13" lengthAdjust="spacing" textLength="5" x="758.5471" y="958.1722">*</text></g><!--link Collaborator to Job--><g id="link_Collaborator_Job"><path codeLine="74" d="M580.87,899.2 C621.94,927.79 659.1052,953.6528 689.8852,975.0728 " fill="none" id="Collaborator-to-Job" style="stroke:#181818;stroke-width:1.0;"/><polygon fill="#181818" points="694.81,978.5,689.7076,970.0759,690.706,975.644,685.1379,976.6424,694.81,978.5" style="stroke:#181818;stroke-width:1.0;"/><text fill="#000000" font-family="sans-serif" font-size="13" lengthAdjust="spacing" textLength="7" x="680.1247" y="969.1008">1</text></g><!--link Collaborator to IdDocType--><g id="link_Collaborator_IdDocType"><path codeLine="75" d="M440.5,899.2 C440.5,920.21 440.5,935.61 440.5,953.98 " fill="none" id="Collaborator-to-IdDocType" style="stroke:#181818;stroke-width:1.0;"/><polygon fill="#181818" points="440.5,959.98,444.5,950.98,440.5,954.98,436.5,950.98,440.5,959.98" style="stroke:#181818;stroke-width:1.0;"/><text fill="#000000" font-family="sans-serif" font-size="13" lengthAdjust="spacing" textLength="7" x="433.0297" y="948.9047">1</text></g><!--SRC=[lLJ1Rjim3BthAuXUuYn9iLrp690c1UPYpG8d1RPT2jbc7QsoP4ZoXcpOlq-ExLZAxAQd-YIHZ-JZCyMHVcQYe8hca4iXaxsIEO9H9PBEKz3acMQuDGUEe30nL6JS1UWzJUKl9Z9uebox7iu4caE1K4X-g2varEEKoaZYH2MSQhqmHh6uD1WcKcpPRuJtX8muFXam4XJBzWPILj5XKX1oZ848CwODggNadCPIKIFLGmX_oD-N44ifZB9tL1O9zfkyZ0eInnnX8JMpXyCKViYukuxhLAedLI1eZbE8cJBxbDf0ckPCQzl8YXgihgb2hQTGxAN0TPd7gAQ0EMLy2YnToMHdTQkEhSzMNjkSTSrPXkPEnZU7oXHuhadjqfyjfs3SoRBixQYHOsRvUFJT_fkIFobdgIL_0VTsSWmqrxQqjTDb1xQgx1bQ4fxHutFcELAhRKmObw87FBBjO2tLMfIt5EFEdT5stfkfE9yODsX8k8dr7Jaxy4zbJaM4MfOgGNrFXLqV9-MTq5xSUR8JMuRwbCCr1ireWUqY5DgkfmI3CSmzK0Vn171Z-zz0_KfGb3c4hRgjRB1RVDqiljr6Z-k7-vlRgB4kmrtu_NRzk5n4gyQqMMotco_HhieriAIkhpzUs4xamlAgCtGzp-ssTXHuHNI_1FC1-sioUchF_IlnVkriTiwUDJ_pVzpLXwjXJZrOl-p0iZk2t_c9YVzSMeYrUbdSGlsEq-oGVm00]--></g></svg>