<?xml version="1.0" encoding="us-ascii" standalone="no"?><svg xmlns="http://www.w3.org/2000/svg" xmlns:xlink="http://www.w3.org/1999/xlink" contentStyleType="text/css" height="607px" preserveAspectRatio="none" style="width:1128px;height:607px;background:#FFFFFF;" version="1.1" viewBox="0 0 1128 607" width="1128.5px" zoomAndPan="magnify"><defs/><g><rect fill="#FFFFFF" height="491.1953" style="stroke:#181818;stroke-width:0.5;" width="5" x="30.5" y="56.1211"/><rect fill="#FFFFFF" height="15.6455" style="stroke:#181818;stroke-width:0.5;" width="5" x="185.5" y="67.7666"/><rect fill="#FFFFFF" height="140.8096" style="stroke:#181818;stroke-width:0.5;" width="5" x="185.5" y="99.0576"/><rect fill="#FFFFFF" height="15.6455" style="stroke:#181818;stroke-width:0.5;" width="5" x="185.5" y="255.5127"/><rect fill="#FFFFFF" height="260.5127" style="stroke:#181818;stroke-width:0.5;" width="5" x="185.5" y="286.8037"/><rect fill="#FFFFFF" height="109.5186" style="stroke:#181818;stroke-width:0.5;" width="5" x="493.5" y="114.7031"/><rect fill="#FFFFFF" height="229.2217" style="stroke:#181818;stroke-width:0.5;" width="5" x="493.5" y="302.4492"/><rect fill="#FFFFFF" height="15.6455" style="stroke:#181818;stroke-width:0.5;" width="5" x="576.25" y="130.3486"/><rect fill="#FFFFFF" height="15.6455" style="stroke:#181818;stroke-width:0.5;" width="5" x="576.25" y="318.0947"/><rect fill="#FFFFFF" height="15.6455" style="stroke:#181818;stroke-width:0.5;" width="5" x="629.75" y="161.6396"/><rect fill="#FFFFFF" height="15.6455" style="stroke:#181818;stroke-width:0.5;" width="5" x="629.75" y="349.3857"/><rect fill="#FFFFFF" height="15.6455" style="stroke:#181818;stroke-width:0.5;" width="5" x="685.25" y="192.9307"/><rect fill="#FFFFFF" height="135.3486" style="stroke:#181818;stroke-width:0.5;" width="5" x="801.5" y="380.6768"/><rect fill="#FFFFFF" height="65.4365" style="stroke:#181818;stroke-width:0.5;" width="5" x="804" y="431.4434"/><rect fill="#FFFFFF" height="21.1455" style="stroke:#181818;stroke-width:0.5;" width="5" x="806.5" y="453.5889"/><line style="stroke:#181818;stroke-width:0.25;stroke-dasharray:5.0,5.0;" x1="33" x2="33" y1="51.1211" y2="556.3164"/><line style="stroke:#181818;stroke-width:0.25;stroke-dasharray:5.0,5.0;" x1="187.75" x2="187.75" y1="51.1211" y2="556.3164"/><line style="stroke:#181818;stroke-width:0.25;stroke-dasharray:5.0,5.0;" x1="496" x2="496" y1="51.1211" y2="556.3164"/><line style="stroke:#181818;stroke-width:0.25;stroke-dasharray:5.0,5.0;" x1="578.5" x2="578.5" y1="51.1211" y2="556.3164"/><line style="stroke:#181818;stroke-width:0.25;stroke-dasharray:5.0,5.0;" x1="632" x2="632" y1="51.1211" y2="556.3164"/><line style="stroke:#181818;stroke-width:0.25;stroke-dasharray:5.0,5.0;" x1="687.5" x2="687.5" y1="51.1211" y2="556.3164"/><line style="stroke:#181818;stroke-width:0.25;stroke-dasharray:5.0,5.0;" x1="803.75" x2="803.75" y1="51.1211" y2="556.3164"/><line style="stroke:#181818;stroke-width:0.25;stroke-dasharray:5.0,5.0;" x1="1101.5" x2="1101.5" y1="405.2373" y2="556.3164"/><text fill="#000000" font-family="sans-serif" font-size="7" lengthAdjust="spacing" textLength="58" x="2.5" y="40.0537">Human Resources</text><text fill="#000000" font-family="sans-serif" font-size="7" lengthAdjust="spacing" textLength="28" x="17.5" y="49.3643">Manager</text><ellipse cx="33" cy="6.75" fill="#E3E3E3" rx="4" ry="4" style="stroke:#181818;stroke-width:0.25;"/><path d="M33,10.75 L33,24.25 M26.5,14.75 L39.5,14.75 M33,24.25 L26.5,31.75 M33,24.25 L39.5,31.75 " fill="none" style="stroke:#181818;stroke-width:0.25;"/><text fill="#000000" font-family="sans-serif" font-size="7" lengthAdjust="spacing" textLength="58" x="2.5" y="563.3701">Human Resources</text><text fill="#000000" font-family="sans-serif" font-size="7" lengthAdjust="spacing" textLength="28" x="17.5" y="572.6807">Manager</text><ellipse cx="33" cy="578.6875" fill="#E3E3E3" rx="4" ry="4" style="stroke:#181818;stroke-width:0.25;"/><path d="M33,582.6875 L33,596.1875 M26.5,586.6875 L39.5,586.6875 M33,596.1875 L26.5,603.6875 M33,596.1875 L39.5,603.6875 " fill="none" style="stroke:#181818;stroke-width:0.25;"/><rect fill="#E3E3E3" height="16.3105" rx="1.25" ry="1.25" style="stroke:#181818;stroke-width:0.25;" width="80.5" x="147.75" y="34.3105"/><text fill="#000000" font-family="sans-serif" font-size="7" lengthAdjust="spacing" textLength="73.5" x="151.25" y="45.3643">:RegisterCollaboratorUI</text><rect fill="#E3E3E3" height="16.3105" rx="1.25" ry="1.25" style="stroke:#181818;stroke-width:0.25;" width="80.5" x="147.75" y="555.8164"/><text fill="#000000" font-family="sans-serif" font-size="7" lengthAdjust="spacing" textLength="73.5" x="151.25" y="566.8701">:RegisterCollaboratorUI</text><rect fill="#E3E3E3" height="16.3105" rx="1.25" ry="1.25" style="stroke:#181818;stroke-width:0.25;" width="107" x="442.5" y="34.3105"/><text fill="#000000" font-family="sans-serif" font-size="7" lengthAdjust="spacing" textLength="100" x="446" y="45.3643">:RegisterCollaboratorControlller</text><rect fill="#E3E3E3" height="16.3105" rx="1.25" ry="1.25" style="stroke:#181818;stroke-width:0.25;" width="107" x="442.5" y="555.8164"/><text fill="#000000" font-family="sans-serif" font-size="7" lengthAdjust="spacing" textLength="100" x="446" y="566.8701">:RegisterCollaboratorControlller</text><rect fill="#E3E3E3" height="16.3105" rx="1.25" ry="1.25" style="stroke:#181818;stroke-width:0.25;" width="48.5" x="554.5" y="34.3105"/><text fill="#000000" font-family="sans-serif" font-size="7" lengthAdjust="spacing" textLength="41.5" x="558" y="45.3643">:Repositories</text><rect fill="#E3E3E3" height="16.3105" rx="1.25" ry="1.25" style="stroke:#181818;stroke-width:0.25;" width="48.5" x="554.5" y="555.8164"/><text fill="#000000" font-family="sans-serif" font-size="7" lengthAdjust="spacing" textLength="41.5" x="558" y="566.8701">:Repositories</text><rect fill="#E3E3E3" height="25.6211" rx="1.25" ry="1.25" style="stroke:#181818;stroke-width:0.25;" width="48.5" x="608" y="25"/><text fill="#000000" font-family="sans-serif" font-size="7" lengthAdjust="spacing" textLength="37" x="613.75" y="36.0537">repositories</text><text fill="#000000" font-family="sans-serif" font-size="7" lengthAdjust="spacing" textLength="41.5" x="611.5" y="45.3643">:Repositories</text><rect fill="#E3E3E3" height="25.6211" rx="1.25" ry="1.25" style="stroke:#181818;stroke-width:0.25;" width="48.5" x="608" y="555.8164"/><text fill="#000000" font-family="sans-serif" font-size="7" lengthAdjust="spacing" textLength="37" x="613.75" y="566.8701">repositories</text><text fill="#000000" font-family="sans-serif" font-size="7" lengthAdjust="spacing" textLength="41.5" x="611.5" y="576.1807">:Repositories</text><rect fill="#E3E3E3" height="25.6211" rx="1.25" ry="1.25" style="stroke:#181818;stroke-width:0.25;" width="52.5" x="661.5" y="25"/><text fill="#000000" font-family="sans-serif" font-size="7" lengthAdjust="spacing" textLength="45.5" x="665" y="36.0537">jobRepository:</text><text fill="#000000" font-family="sans-serif" font-size="7" lengthAdjust="spacing" textLength="43.5" x="666" y="45.3643">jobRepository</text><rect fill="#E3E3E3" height="25.6211" rx="1.25" ry="1.25" style="stroke:#181818;stroke-width:0.25;" width="52.5" x="661.5" y="555.8164"/><text fill="#000000" font-family="sans-serif" font-size="7" lengthAdjust="spacing" textLength="45.5" x="665" y="566.8701">jobRepository:</text><text fill="#000000" font-family="sans-serif" font-size="7" lengthAdjust="spacing" textLength="43.5" x="666" y="576.1807">jobRepository</text><rect fill="#E3E3E3" height="25.6211" rx="1.25" ry="1.25" style="stroke:#181818;stroke-width:0.25;" width="80.5" x="763.75" y="25"/><text fill="#000000" font-family="sans-serif" font-size="7" lengthAdjust="spacing" textLength="73.5" x="767.25" y="36.0537">collaboratorRepository:</text><text fill="#000000" font-family="sans-serif" font-size="7" lengthAdjust="spacing" textLength="71.5" x="768.25" y="45.3643">collaboratorRepository</text><rect fill="#E3E3E3" height="25.6211" rx="1.25" ry="1.25" style="stroke:#181818;stroke-width:0.25;" width="80.5" x="763.75" y="555.8164"/><text fill="#000000" font-family="sans-serif" font-size="7" lengthAdjust="spacing" textLength="73.5" x="767.25" y="566.8701">collaboratorRepository:</text><text fill="#000000" font-family="sans-serif" font-size="7" lengthAdjust="spacing" textLength="71.5" x="768.25" y="576.1807">collaboratorRepository</text><rect fill="#E3E3E3" height="25.6211" rx="1.25" ry="1.25" style="stroke:#181818;stroke-width:0.25;" width="48" x="1077.5" y="555.8164"/><text fill="#000000" font-family="sans-serif" font-size="7" lengthAdjust="spacing" textLength="37.5" x="1082.75" y="566.8701">collaborator</text><text fill="#000000" font-family="sans-serif" font-size="7" lengthAdjust="spacing" textLength="41" x="1081" y="576.1807">:Collaborator</text><rect fill="#FFFFFF" height="491.1953" style="stroke:#181818;stroke-width:0.5;" width="5" x="30.5" y="56.1211"/><rect fill="#FFFFFF" height="15.6455" style="stroke:#181818;stroke-width:0.5;" width="5" x="185.5" y="67.7666"/><rect fill="#FFFFFF" height="140.8096" style="stroke:#181818;stroke-width:0.5;" width="5" x="185.5" y="99.0576"/><rect fill="#FFFFFF" height="15.6455" style="stroke:#181818;stroke-width:0.5;" width="5" x="185.5" y="255.5127"/><rect fill="#FFFFFF" height="260.5127" style="stroke:#181818;stroke-width:0.5;" width="5" x="185.5" y="286.8037"/><rect fill="#FFFFFF" height="109.5186" style="stroke:#181818;stroke-width:0.5;" width="5" x="493.5" y="114.7031"/><rect fill="#FFFFFF" height="229.2217" style="stroke:#181818;stroke-width:0.5;" width="5" x="493.5" y="302.4492"/><rect fill="#FFFFFF" height="15.6455" style="stroke:#181818;stroke-width:0.5;" width="5" x="576.25" y="130.3486"/><rect fill="#FFFFFF" height="15.6455" style="stroke:#181818;stroke-width:0.5;" width="5" x="576.25" y="318.0947"/><rect fill="#FFFFFF" height="15.6455" style="stroke:#181818;stroke-width:0.5;" width="5" x="629.75" y="161.6396"/><rect fill="#FFFFFF" height="15.6455" style="stroke:#181818;stroke-width:0.5;" width="5" x="629.75" y="349.3857"/><rect fill="#FFFFFF" height="15.6455" style="stroke:#181818;stroke-width:0.5;" width="5" x="685.25" y="192.9307"/><rect fill="#FFFFFF" height="135.3486" style="stroke:#181818;stroke-width:0.5;" width="5" x="801.5" y="380.6768"/><rect fill="#FFFFFF" height="65.4365" style="stroke:#181818;stroke-width:0.5;" width="5" x="804" y="431.4434"/><rect fill="#FFFFFF" height="21.1455" style="stroke:#181818;stroke-width:0.5;" width="5" x="806.5" y="453.5889"/><polygon fill="#181818" points="179.5,65.7666,184.5,67.7666,179.5,69.7666,181.5,67.7666" style="stroke:#181818;stroke-width:0.5;"/><line style="stroke:#181818;stroke-width:0.5;" x1="35.5" x2="182.5" y1="67.7666" y2="67.7666"/><text fill="#000000" font-family="sans-serif" font-size="6.5" font-weight="bold" lengthAdjust="spacing" textLength="3.5" x="39" y="65.1353">1</text><text fill="#000000" font-family="sans-serif" font-size="6.5" lengthAdjust="spacing" textLength="99.5" x="44.5" y="65.1353">asks to register a new collaborator</text><polygon fill="#181818" points="41,81.4121,36,83.4121,41,85.4121,39,83.4121" style="stroke:#181818;stroke-width:0.5;"/><line style="stroke:#181818;stroke-width:0.5;stroke-dasharray:2.0,2.0;" x1="38" x2="187.5" y1="83.4121" y2="83.4121"/><text fill="#000000" font-family="sans-serif" font-size="6.5" font-weight="bold" lengthAdjust="spacing" textLength="3.5" x="44" y="80.7808">2</text><text fill="#000000" font-family="sans-serif" font-size="6.5" lengthAdjust="spacing" textLength="39.5" x="49.5" y="80.7808">requests data</text><polygon fill="#181818" points="179.5,97.0576,184.5,99.0576,179.5,101.0576,181.5,99.0576" style="stroke:#181818;stroke-width:0.5;"/><line style="stroke:#181818;stroke-width:0.5;" x1="35.5" x2="182.5" y1="99.0576" y2="99.0576"/><text fill="#000000" font-family="sans-serif" font-size="6.5" font-weight="bold" lengthAdjust="spacing" textLength="3.5" x="39" y="96.4263">3</text><text fill="#000000" font-family="sans-serif" font-size="6.5" lengthAdjust="spacing" textLength="84" x="44.5" y="96.4263">types/selects requested data</text><polygon fill="#181818" points="487.5,112.7031,492.5,114.7031,487.5,116.7031,489.5,114.7031" style="stroke:#181818;stroke-width:0.5;"/><line style="stroke:#181818;stroke-width:0.5;stroke-dasharray:2.0,2.0;" x1="190.5" x2="490.5" y1="114.7031" y2="114.7031"/><text fill="#000000" font-family="sans-serif" font-size="6.5" font-weight="bold" lengthAdjust="spacing" textLength="3.5" x="194" y="112.0718">4</text><text fill="#000000" font-family="sans-serif" font-size="6.5" lengthAdjust="spacing" textLength="26.5" x="199.5" y="112.0718">getJobs()</text><polygon fill="#181818" points="570.25,128.3486,575.25,130.3486,570.25,132.3486,572.25,130.3486" style="stroke:#181818;stroke-width:0.5;"/><line style="stroke:#181818;stroke-width:0.5;" x1="498.5" x2="573.25" y1="130.3486" y2="130.3486"/><text fill="#000000" font-family="sans-serif" font-size="6.5" font-weight="bold" lengthAdjust="spacing" textLength="3.5" x="502" y="127.7173">5</text><text fill="#000000" font-family="sans-serif" font-size="6.5" lengthAdjust="spacing" textLength="37.5" x="507.5" y="127.7173">getInstance()</text><polygon fill="#181818" points="504,143.9941,499,145.9941,504,147.9941,502,145.9941" style="stroke:#181818;stroke-width:0.5;"/><line style="stroke:#181818;stroke-width:0.5;stroke-dasharray:2.0,2.0;" x1="501" x2="578.25" y1="145.9941" y2="145.9941"/><text fill="#000000" font-family="sans-serif" font-size="6.5" font-weight="bold" lengthAdjust="spacing" textLength="3.5" x="507" y="143.3628">6</text><text fill="#000000" font-family="sans-serif" font-size="6.5" lengthAdjust="spacing" textLength="33.5" x="512.5" y="143.3628">repositories</text><polygon fill="#181818" points="623.75,159.6396,628.75,161.6396,623.75,163.6396,625.75,161.6396" style="stroke:#181818;stroke-width:0.5;"/><line style="stroke:#181818;stroke-width:0.5;" x1="498.5" x2="626.75" y1="161.6396" y2="161.6396"/><text fill="#000000" font-family="sans-serif" font-size="6.5" font-weight="bold" lengthAdjust="spacing" textLength="3.5" x="502" y="159.0083">7</text><text fill="#000000" font-family="sans-serif" font-size="6.5" lengthAdjust="spacing" textLength="54" x="507.5" y="159.0083">getJobRepository()</text><polygon fill="#181818" points="504,175.2852,499,177.2852,504,179.2852,502,177.2852" style="stroke:#181818;stroke-width:0.5;"/><line style="stroke:#181818;stroke-width:0.5;stroke-dasharray:2.0,2.0;" x1="501" x2="631.75" y1="177.2852" y2="177.2852"/><text fill="#000000" font-family="sans-serif" font-size="6.5" font-weight="bold" lengthAdjust="spacing" textLength="3.5" x="507" y="174.6538">8</text><text fill="#000000" font-family="sans-serif" font-size="6.5" lengthAdjust="spacing" textLength="41" x="512.5" y="174.6538">JobRepository</text><polygon fill="#181818" points="679.25,190.9307,684.25,192.9307,679.25,194.9307,681.25,192.9307" style="stroke:#181818;stroke-width:0.5;"/><line style="stroke:#181818;stroke-width:0.5;" x1="498.5" x2="682.25" y1="192.9307" y2="192.9307"/><text fill="#000000" font-family="sans-serif" font-size="6.5" font-weight="bold" lengthAdjust="spacing" textLength="3.5" x="502" y="190.2993">9</text><text fill="#000000" font-family="sans-serif" font-size="6.5" lengthAdjust="spacing" textLength="37" x="507.5" y="190.2993">getJobsList()</text><polygon fill="#181818" points="504,206.5762,499,208.5762,504,210.5762,502,208.5762" style="stroke:#181818;stroke-width:0.5;"/><line style="stroke:#181818;stroke-width:0.5;stroke-dasharray:2.0,2.0;" x1="501" x2="687.25" y1="208.5762" y2="208.5762"/><text fill="#000000" font-family="sans-serif" font-size="6.5" font-weight="bold" lengthAdjust="spacing" textLength="7" x="507" y="205.9448">10</text><text fill="#000000" font-family="sans-serif" font-size="6.5" lengthAdjust="spacing" textLength="24" x="516" y="205.9448">JobsList</text><polygon fill="#181818" points="196,222.2217,191,224.2217,196,226.2217,194,224.2217" style="stroke:#181818;stroke-width:0.5;"/><line style="stroke:#181818;stroke-width:0.5;stroke-dasharray:2.0,2.0;" x1="193" x2="495.5" y1="224.2217" y2="224.2217"/><text fill="#000000" font-family="sans-serif" font-size="6.5" font-weight="bold" lengthAdjust="spacing" textLength="7" x="199" y="221.5903">11</text><text fill="#000000" font-family="sans-serif" font-size="6.5" lengthAdjust="spacing" textLength="24" x="208" y="221.5903">JobsList</text><polygon fill="#181818" points="41,237.8672,36,239.8672,41,241.8672,39,239.8672" style="stroke:#181818;stroke-width:0.5;"/><line style="stroke:#181818;stroke-width:0.5;stroke-dasharray:2.0,2.0;" x1="38" x2="187.5" y1="239.8672" y2="239.8672"/><text fill="#000000" font-family="sans-serif" font-size="6.5" font-weight="bold" lengthAdjust="spacing" textLength="7" x="44" y="237.2358">12</text><text fill="#000000" font-family="sans-serif" font-size="6.5" lengthAdjust="spacing" textLength="129" x="53" y="237.2358">shows the list of jobs and asks to select one</text><polygon fill="#181818" points="179.5,253.5127,184.5,255.5127,179.5,257.5127,181.5,255.5127" style="stroke:#181818;stroke-width:0.5;"/><line style="stroke:#181818;stroke-width:0.5;" x1="35.5" x2="182.5" y1="255.5127" y2="255.5127"/><text fill="#000000" font-family="sans-serif" font-size="6.5" font-weight="bold" lengthAdjust="spacing" textLength="7" x="39" y="252.8813">13</text><text fill="#000000" font-family="sans-serif" font-size="6.5" lengthAdjust="spacing" textLength="42.5" x="48" y="252.8813">selects the job</text><polygon fill="#181818" points="41,269.1582,36,271.1582,41,273.1582,39,271.1582" style="stroke:#181818;stroke-width:0.5;"/><line style="stroke:#181818;stroke-width:0.5;stroke-dasharray:2.0,2.0;" x1="38" x2="187.5" y1="271.1582" y2="271.1582"/><text fill="#000000" font-family="sans-serif" font-size="6.5" font-weight="bold" lengthAdjust="spacing" textLength="7" x="44" y="268.5269">14</text><text fill="#000000" font-family="sans-serif" font-size="6.5" lengthAdjust="spacing" textLength="118" x="53" y="268.5269">shows all data and requests confirmation</text><polygon fill="#181818" points="179.5,284.8037,184.5,286.8037,179.5,288.8037,181.5,286.8037" style="stroke:#181818;stroke-width:0.5;"/><line style="stroke:#181818;stroke-width:0.5;" x1="35.5" x2="182.5" y1="286.8037" y2="286.8037"/><text fill="#000000" font-family="sans-serif" font-size="6.5" font-weight="bold" lengthAdjust="spacing" textLength="7" x="39" y="284.1724">15</text><text fill="#000000" font-family="sans-serif" font-size="6.5" lengthAdjust="spacing" textLength="39" x="48" y="284.1724">confirms data</text><polygon fill="#181818" points="487.5,300.4492,492.5,302.4492,487.5,304.4492,489.5,302.4492" style="stroke:#181818;stroke-width:0.5;"/><line style="stroke:#181818;stroke-width:0.5;" x1="190.5" x2="490.5" y1="302.4492" y2="302.4492"/><text fill="#000000" font-family="sans-serif" font-size="6.5" font-weight="bold" lengthAdjust="spacing" textLength="7" x="194" y="299.8179">16</text><text fill="#000000" font-family="sans-serif" font-size="6.5" lengthAdjust="spacing" textLength="284.5" x="203" y="299.8179">registerCollaborator(job, name, birthday, admissionDate, address, phoneNumber, email, idNumber)</text><polygon fill="#181818" points="570.25,316.0947,575.25,318.0947,570.25,320.0947,572.25,318.0947" style="stroke:#181818;stroke-width:0.5;"/><line style="stroke:#181818;stroke-width:0.5;" x1="498.5" x2="573.25" y1="318.0947" y2="318.0947"/><text fill="#000000" font-family="sans-serif" font-size="6.5" font-weight="bold" lengthAdjust="spacing" textLength="7" x="502" y="315.4634">17</text><text fill="#000000" font-family="sans-serif" font-size="6.5" lengthAdjust="spacing" textLength="37.5" x="511" y="315.4634">getInstance()</text><polygon fill="#181818" points="504,331.7402,499,333.7402,504,335.7402,502,333.7402" style="stroke:#181818;stroke-width:0.5;"/><line style="stroke:#181818;stroke-width:0.5;stroke-dasharray:2.0,2.0;" x1="501" x2="578.25" y1="333.7402" y2="333.7402"/><text fill="#000000" font-family="sans-serif" font-size="6.5" font-weight="bold" lengthAdjust="spacing" textLength="7" x="507" y="331.1089">18</text><text fill="#000000" font-family="sans-serif" font-size="6.5" lengthAdjust="spacing" textLength="33.5" x="516" y="331.1089">repositories</text><polygon fill="#181818" points="623.75,347.3857,628.75,349.3857,623.75,351.3857,625.75,349.3857" style="stroke:#181818;stroke-width:0.5;"/><line style="stroke:#181818;stroke-width:0.5;" x1="498.5" x2="626.75" y1="349.3857" y2="349.3857"/><text fill="#000000" font-family="sans-serif" font-size="6.5" font-weight="bold" lengthAdjust="spacing" textLength="7" x="502" y="346.7544">19</text><text fill="#000000" font-family="sans-serif" font-size="6.5" lengthAdjust="spacing" textLength="78.5" x="511" y="346.7544">getCollaboratorRepository()</text><polygon fill="#181818" points="504,363.0313,499,365.0313,504,367.0313,502,365.0313" style="stroke:#181818;stroke-width:0.5;"/><line style="stroke:#181818;stroke-width:0.5;stroke-dasharray:2.0,2.0;" x1="501" x2="631.75" y1="365.0313" y2="365.0313"/><text fill="#000000" font-family="sans-serif" font-size="6.5" font-weight="bold" lengthAdjust="spacing" textLength="7" x="507" y="362.3999">20</text><text fill="#000000" font-family="sans-serif" font-size="6.5" lengthAdjust="spacing" textLength="64.5" x="516" y="362.3999">collaboratorRepository</text><polygon fill="#181818" points="795.5,378.6768,800.5,380.6768,795.5,382.6768,797.5,380.6768" style="stroke:#181818;stroke-width:0.5;"/><line style="stroke:#181818;stroke-width:0.5;" x1="498.5" x2="798.5" y1="380.6768" y2="380.6768"/><text fill="#000000" font-family="sans-serif" font-size="6.5" font-weight="bold" lengthAdjust="spacing" textLength="7" x="502" y="378.0454">21</text><text fill="#000000" font-family="sans-serif" font-size="6.5" lengthAdjust="spacing" textLength="284.5" x="511" y="378.0454">registerCollaborator(job, name, birthday, admissionDate, address, phoneNumber, email, idNumber)</text><polygon fill="#181818" points="1071.5,394.3223,1076.5,396.3223,1071.5,398.3223,1073.5,396.3223" style="stroke:#181818;stroke-width:0.5;"/><line style="stroke:#181818;stroke-width:0.5;" x1="806.5" x2="1074.5" y1="396.3223" y2="396.3223"/><text fill="#000000" font-family="sans-serif" font-size="6.5" font-weight="bold" lengthAdjust="spacing" textLength="7" x="810" y="393.6909">22</text><text fill="#000000" font-family="sans-serif" font-size="6.5" lengthAdjust="spacing" textLength="250" x="819" y="393.6909">register(job, name, birthday, admissionDate, address, phoneNumber, email, idNumber)</text><rect fill="#E3E3E3" height="25.6211" rx="1.25" ry="1.25" style="stroke:#181818;stroke-width:0.25;" width="48" x="1077.5" y="384.6768"/><text fill="#000000" font-family="sans-serif" font-size="7" lengthAdjust="spacing" textLength="37.5" x="1082.75" y="395.7305">collaborator</text><text fill="#000000" font-family="sans-serif" font-size="7" lengthAdjust="spacing" textLength="41" x="1081" y="405.041">:Collaborator</text><line style="stroke:#181818;stroke-width:0.5;" x1="806.5" x2="830" y1="424.9434" y2="424.9434"/><line style="stroke:#181818;stroke-width:0.5;" x1="830" x2="830" y1="424.9434" y2="431.4434"/><line style="stroke:#181818;stroke-width:0.5;" x1="809.5" x2="830" y1="431.4434" y2="431.4434"/><polygon fill="#181818" points="814.5,429.4434,809.5,431.4434,814.5,433.4434,812.5,431.4434" style="stroke:#181818;stroke-width:0.5;"/><text fill="#000000" font-family="sans-serif" font-size="6.5" font-weight="bold" lengthAdjust="spacing" textLength="7" x="812.5" y="422.312">23</text><text fill="#000000" font-family="sans-serif" font-size="6.5" lengthAdjust="spacing" textLength="83" x="821.5" y="422.312">addCollaborator (colaborator)</text><line style="stroke:#181818;stroke-width:0.5;" x1="809" x2="832.5" y1="447.0889" y2="447.0889"/><line style="stroke:#181818;stroke-width:0.5;" x1="832.5" x2="832.5" y1="447.0889" y2="453.5889"/><line style="stroke:#181818;stroke-width:0.5;" x1="812" x2="832.5" y1="453.5889" y2="453.5889"/><polygon fill="#181818" points="817,451.5889,812,453.5889,817,455.5889,815,453.5889" style="stroke:#181818;stroke-width:0.5;"/><text fill="#000000" font-family="sans-serif" font-size="6.5" font-weight="bold" lengthAdjust="spacing" textLength="7" x="815" y="444.4575">24</text><text fill="#000000" font-family="sans-serif" font-size="6.5" lengthAdjust="spacing" textLength="94" x="824" y="444.4575">validateCollaborator (colaborator)</text><line style="stroke:#181818;stroke-width:0.5;" x1="811.5" x2="832.5" y1="474.2344" y2="474.2344"/><line style="stroke:#181818;stroke-width:0.5;" x1="832.5" x2="832.5" y1="474.2344" y2="480.7344"/><line style="stroke:#181818;stroke-width:0.5;" x1="809" x2="832.5" y1="480.7344" y2="480.7344"/><polygon fill="#181818" points="814,478.7344,809,480.7344,814,482.7344,812,480.7344" style="stroke:#181818;stroke-width:0.5;"/><text fill="#000000" font-family="sans-serif" font-size="6.5" font-weight="bold" lengthAdjust="spacing" textLength="7" x="815" y="471.603">25</text><text fill="#000000" font-family="sans-serif" font-size="6.5" lengthAdjust="spacing" textLength="2" x="824" y="471.603">&#160;</text><line style="stroke:#181818;stroke-width:0.5;" x1="809" x2="830" y1="496.3799" y2="496.3799"/><line style="stroke:#181818;stroke-width:0.5;" x1="830" x2="830" y1="496.3799" y2="502.8799"/><line style="stroke:#181818;stroke-width:0.5;" x1="806.5" x2="830" y1="502.8799" y2="502.8799"/><polygon fill="#181818" points="811.5,500.8799,806.5,502.8799,811.5,504.8799,809.5,502.8799" style="stroke:#181818;stroke-width:0.5;"/><text fill="#000000" font-family="sans-serif" font-size="6.5" font-weight="bold" lengthAdjust="spacing" textLength="7" x="812.5" y="493.7485">26</text><text fill="#000000" font-family="sans-serif" font-size="6.5" lengthAdjust="spacing" textLength="2" x="821.5" y="493.7485">&#160;</text><polygon fill="#181818" points="504,514.0254,499,516.0254,504,518.0254,502,516.0254" style="stroke:#181818;stroke-width:0.5;"/><line style="stroke:#181818;stroke-width:0.5;stroke-dasharray:2.0,2.0;" x1="501" x2="803.5" y1="516.0254" y2="516.0254"/><text fill="#000000" font-family="sans-serif" font-size="6.5" font-weight="bold" lengthAdjust="spacing" textLength="7" x="507" y="513.394">27</text><text fill="#000000" font-family="sans-serif" font-size="6.5" lengthAdjust="spacing" textLength="33.5" x="516" y="513.394">collaborator</text><polygon fill="#181818" points="196,529.6709,191,531.6709,196,533.6709,194,531.6709" style="stroke:#181818;stroke-width:0.5;"/><line style="stroke:#181818;stroke-width:0.5;stroke-dasharray:2.0,2.0;" x1="193" x2="495.5" y1="531.6709" y2="531.6709"/><text fill="#000000" font-family="sans-serif" font-size="6.5" font-weight="bold" lengthAdjust="spacing" textLength="7" x="199" y="529.0396">28</text><text fill="#000000" font-family="sans-serif" font-size="6.5" lengthAdjust="spacing" textLength="33.5" x="208" y="529.0396">collaborator</text><polygon fill="#181818" points="38.5,545.3164,33.5,547.3164,38.5,549.3164,36.5,547.3164" style="stroke:#181818;stroke-width:0.5;"/><line style="stroke:#181818;stroke-width:0.5;stroke-dasharray:2.0,2.0;" x1="35.5" x2="187.5" y1="547.3164" y2="547.3164"/><text fill="#000000" font-family="sans-serif" font-size="6.5" font-weight="bold" lengthAdjust="spacing" textLength="7" x="41.5" y="544.6851">29</text><text fill="#000000" font-family="sans-serif" font-size="6.5" lengthAdjust="spacing" textLength="79" x="50.5" y="544.6851">displays operation success</text><!--SRC=[pLR1Jjj04BtxAqPS2YYeznmgqRGILA5K2TouJEn9lCNUTNVMqFnznslYxCes18GgVCfwvxrvE_F66xvNkaAB9PH6cpItfYHmjgQ4kvqAqtlSqD9j2m9BgKEzAS80pZ4pZqflO8q5Kv9WxOokonNP9FcKgunWROnRcRy9fivOEBgeIzIm83QrJOdlz1LgIM6F01ak5bU943kLgWgrWwFfWZQA7TcPAGfS6Oj2SdlfWsyl3uYT6Usih8kd3BERnRm7gmmhYLN4FcRn_LSSOeE8Epq8MCQ8tsRLHMsdTpfQUqpq9WQdWVw8PNZ3qmrlZVFACS8ojRMvdi_Flrulpc-k5qdJB_M0ZdnJ4f17Vi3P5waxJ2Nydi4PCKLRSq3Gz1Z9y9YEHRhbNmZwJ4WQhgcW_zJ4ZY53XtuxenuYJEks5V5dfaAyo3iuPNjy3ntaR7el71joFyoAZq-w_GxatT6zRXwF4Qoqk8LUQfOfI2c0HnIDUQAT1hdBtfnuxvqeB3XuZo8GiUmEiE_oCrAMFItBG4p4yeoQvR2SsEIxkix53sEAOjD7CT5MsAuTvvY-PpXReJlll4IqRtxaKSxDerWz9oW436RTP6H0dNL3qFeHZAP3FBnpRqCfL0UCIIi1YyBxtAVk9YSrUgriYKuPVKZsftW-O6Jsdkr_Luz5-GGqbZI1bR8kpt0x0SnAnInAlWbViymiCK-WogKsF_srC04gKHKJK5dxuhLZ-26cq8kO3NvptpoD8v_mLu_boFNntzeOdNhaK55mymp7UGy6jzBfAUpFyPxQNw5dhBoIAQmi74lWRd7Iut_70eq9Ui12oP3JHrBL8mWS_L5pZkKR7DpaZOc2gsg4y8MRQWgPugh0BOEfoFhx0BXEvJys3zqBmRBvW_SF]--></g></svg>