<?xml version="1.0" encoding="us-ascii" standalone="no"?><svg xmlns="http://www.w3.org/2000/svg" xmlns:xlink="http://www.w3.org/1999/xlink" contentStyleType="text/css" height="488px" preserveAspectRatio="none" style="width:265px;height:488px;background:#FFFFFF;" version="1.1" viewBox="0 0 265 488" width="265px" zoomAndPan="magnify"><defs/><g><text fill="#000000" font-family="sans-serif" font-size="14" font-weight="bold" lengthAdjust="spacing" textLength="100" x="75.5" y="25.1074">Domain Model</text><!--class Organization--><g id="elem_Organization"><rect codeLine="14" fill="#F1F1F1" height="36.6211" id="Organization" rx="2.5" ry="2.5" style="stroke:#181818;stroke-width:0.5;" width="86" x="7" y="74.1211"/><text fill="#000000" font-family="sans-serif" font-size="14" lengthAdjust="spacing" textLength="80" x="10" y="94.2285">Organization</text><line style="stroke:#181818;stroke-width:0.5;" x1="8" x2="92" y1="102.7422" y2="102.7422"/></g><!--class Job--><g id="elem_Job"><rect codeLine="18" fill="#F1F1F1" height="73.8633" id="Job" rx="2.5" ry="2.5" style="stroke:#181818;stroke-width:0.5;" width="81" x="149.5" y="217.6211"/><text fill="#000000" font-family="sans-serif" font-size="14" lengthAdjust="spacing" textLength="22" x="179" y="237.7285">Job</text><line style="stroke:#181818;stroke-width:0.5;" x1="150.5" x2="229.5" y1="246.2422" y2="246.2422"/><text fill="#000000" font-family="sans-serif" font-size="14" lengthAdjust="spacing" textLength="35" x="155.5" y="265.3496">name</text><text fill="#000000" font-family="sans-serif" font-size="14" lengthAdjust="spacing" textLength="69" x="155.5" y="283.9707">description</text></g><!--class HRM--><g id="elem_HRM"><rect codeLine="24" fill="#F1F1F1" height="92.4844" id="HRM" rx="2.5" ry="2.5" style="stroke:#181818;stroke-width:0.5;" width="52" x="164" y="46.6211"/><text fill="#000000" font-family="sans-serif" font-size="14" lengthAdjust="spacing" textLength="30" x="175" y="66.7285">HRM</text><line style="stroke:#181818;stroke-width:0.5;" x1="165" x2="215" y1="75.2422" y2="75.2422"/><text fill="#000000" font-family="sans-serif" font-size="14" lengthAdjust="spacing" textLength="35" x="170" y="94.3496">name</text><text fill="#000000" font-family="sans-serif" font-size="14" lengthAdjust="spacing" textLength="33" x="170" y="112.9707">email</text><text fill="#000000" font-family="sans-serif" font-size="14" lengthAdjust="spacing" textLength="40" x="170" y="131.5918">phone</text></g><!--class Collaborator--><g id="elem_Collaborator"><rect codeLine="30" fill="#F1F1F1" height="111.1055" id="Collaborator" rx="2.5" ry="2.5" style="stroke:#181818;stroke-width:0.5;" width="84" x="148" y="370.6211"/><text fill="#000000" font-family="sans-serif" font-size="14" lengthAdjust="spacing" textLength="78" x="151" y="390.7285">Collaborator</text><line style="stroke:#181818;stroke-width:0.5;" x1="149" x2="231" y1="399.2422" y2="399.2422"/><text fill="#000000" font-family="sans-serif" font-size="14" lengthAdjust="spacing" textLength="35" x="154" y="418.3496">name</text><text fill="#000000" font-family="sans-serif" font-size="14" lengthAdjust="spacing" textLength="33" x="154" y="436.9707">email</text><text fill="#000000" font-family="sans-serif" font-size="14" lengthAdjust="spacing" textLength="40" x="154" y="455.5918">phone</text><text fill="#000000" font-family="sans-serif" font-size="14" lengthAdjust="spacing" textLength="30" x="154" y="474.2129">skills</text></g><!--link Organization to HRM--><g id="link_Organization_HRM"><path codeLine="37" d="M93.15,92.6211 C116.29,92.6211 144.04,92.6211 163.89,92.6211 " fill="none" id="Organization-HRM" style="stroke:#181818;stroke-width:1.0;"/><polygon fill="#000000" points="120.5,80.2666,111.4549,77.3277,111.4549,83.2055,120.5,80.2666" style="stroke:#000000;stroke-width:1.0;"/><text fill="#000000" font-family="sans-serif" font-size="13" lengthAdjust="spacing" textLength="21" x="124.5" y="85.6494">has</text><text fill="#000000" font-family="sans-serif" font-size="13" lengthAdjust="spacing" textLength="7" x="100.8764" y="88.2971">1</text><text fill="#000000" font-family="sans-serif" font-size="13" lengthAdjust="spacing" textLength="20" x="135.9909" y="108.4876">0..*</text></g><!--link HRM to Job--><g id="link_HRM_Job"><path codeLine="38" d="M163.9,122.3911 C153.72,135.5111 143.25,151.8311 138,168.6211 C132.63,185.7911 140.2,203.0411 151.09,217.4711 " fill="none" id="HRM-Job" style="stroke:#181818;stroke-width:1.0;"/><polygon fill="#000000" points="142.3324,183.2218,146.4527,174.6501,140.6275,173.8653,142.3324,183.2218" style="stroke:#000000;stroke-width:1.0;"/><text fill="#000000" font-family="sans-serif" font-size="13" lengthAdjust="spacing" textLength="43" x="152" y="183.6494">register</text><text fill="#000000" font-family="sans-serif" font-size="13" lengthAdjust="spacing" textLength="7" x="148.945" y="146.6785">1</text><text fill="#000000" font-family="sans-serif" font-size="13" lengthAdjust="spacing" textLength="5" x="138.7138" y="206.4061">*</text></g><!--link HRM to Job--><g id="link_HRM_Job"><path codeLine="39" d="M198.16,138.9911 C200.05,154.4111 201.2,171.7511 200,187.6211 C199.27,197.3311 197.94,207.7711 196.49,217.4211 " fill="none" id="HRM-Job-1" style="stroke:#181818;stroke-width:1.0;"/><polygon fill="#000000" points="205.8936,183.2655,209.0244,174.285,203.1479,174.1599,205.8936,183.2655" style="stroke:#000000;stroke-width:1.0;"/><text fill="#000000" font-family="sans-serif" font-size="13" lengthAdjust="spacing" textLength="42" x="215" y="183.6494">selects</text><text fill="#000000" font-family="sans-serif" font-size="13" lengthAdjust="spacing" textLength="7" x="191.8444" y="161.0642">1</text><text fill="#000000" font-family="sans-serif" font-size="13" lengthAdjust="spacing" textLength="5" x="192.2007" y="206.3472">*</text></g><!--link Collaborator to Job--><g id="link_Collaborator_Job"><path codeLine="40" d="M209.33,370.5211 C212.8,354.7911 214.59,337.5811 212,321.6211 C210.39,311.7211 207.52,301.3111 204.36,291.7511 " fill="none" id="Collaborator-Job" style="stroke:#181818;stroke-width:1.0;"/><polygon fill="#000000" points="218.6852,326.2765,216.3216,335.4887,222.1878,335.1186,218.6852,326.2765" style="stroke:#000000;stroke-width:1.0;"/><text fill="#000000" font-family="sans-serif" font-size="13" lengthAdjust="spacing" textLength="21" x="228" y="336.6494">has</text><text fill="#000000" font-family="sans-serif" font-size="13" lengthAdjust="spacing" textLength="5" x="206.4863" y="359.3485">*</text><text fill="#000000" font-family="sans-serif" font-size="13" lengthAdjust="spacing" textLength="5" x="201.3243" y="313.3723">*</text></g><!--link Job to Collaborator--><g id="link_Job_Collaborator"><path codeLine="41" d="M149.08,281.7411 C130.44,297.2211 114.09,318.1611 122,340.6211 C127.51,356.2511 137.26,371.1211 147.7,383.9011 " fill="none" id="Job-Collaborator" style="stroke:#181818;stroke-width:1.0;"/><polygon fill="#000000" points="126.9325,336.2661,129.9933,327.2616,124.116,327.1822,126.9325,336.2661" style="stroke:#000000;stroke-width:1.0;"/><text fill="#000000" font-family="sans-serif" font-size="13" lengthAdjust="spacing" textLength="67" x="136" y="336.6494">assigned to</text><text fill="#000000" font-family="sans-serif" font-size="13" lengthAdjust="spacing" textLength="5" x="136.6172" y="282.0065">*</text><text fill="#000000" font-family="sans-serif" font-size="13" lengthAdjust="spacing" textLength="5" x="135" y="372.2279">*</text></g><!--SRC=[XL71IaCn4BpdAvPt4GHBlRv3GVIWGX7i5soJRR8qB_j8jeWL_zta5Ukh8EOqOMOoivkovpHYnW46IM93be50yu5CEJCZsZrwskXx9CXa5PEFSq49wEIDauSTnaB6N4NQAQX0PXyK73SNIp8paurOofrgvkr1wSbAsl2HO6bCO4TWETiQCk61D8WhnYXhhV0W0tA2jJYAnaplm4lscFY8BGK-ZFdy9fvbM-zGJyA19k2esCpZgT1P-FYw_YsacXCdD0P9zAEzbnXnAnbLyd-cXkhKCPRcl-ZPtNPm0zroiRZkMduF0GkiJAioSPMiJ1kXhultN9HoVUuFHQ5OrrmcmKN39hbGdc8Qdb5pImzrJFQ9NFl5bVa2]--></g></svg>