<?xml version="1.0" encoding="us-ascii" standalone="no"?><svg xmlns="http://www.w3.org/2000/svg" xmlns:xlink="http://www.w3.org/1999/xlink" contentStyleType="text/css" height="265.5px" preserveAspectRatio="none" style="width:212px;height:265px;background:#FFFFFF;" version="1.1" viewBox="0 0 212 265" width="212.5px" zoomAndPan="magnify"><defs/><g><text fill="#000000" font-family="sans-serif" font-size="7" font-weight="bold" lengthAdjust="spacing" textLength="175.5" x="18.125" y="15.0537">System Sequence Diagram (SSD) - Alternative One</text><rect fill="#FFFFFF" height="134.3096" style="stroke:#181818;stroke-width:0.5;" width="5" x="24.25" y="75.9316"/><rect fill="#FFFFFF" height="24.291" style="stroke:#181818;stroke-width:0.5;" width="5" x="191.25" y="87.5771"/><rect fill="#FFFFFF" height="15.6455" style="stroke:#181818;stroke-width:0.5;" width="5" x="191.25" y="127.5137"/><rect fill="#FFFFFF" height="15.6455" style="stroke:#181818;stroke-width:0.5;" width="5" x="191.25" y="158.8047"/><rect fill="#FFFFFF" height="15.6455" style="stroke:#181818;stroke-width:0.5;" width="5" x="191.25" y="190.0957"/><line style="stroke:#181818;stroke-width:0.25;stroke-dasharray:5.0,5.0;" x1="26.5" x2="26.5" y1="70.9316" y2="214.7412"/><line style="stroke:#181818;stroke-width:0.25;stroke-dasharray:5.0,5.0;" x1="193.75" x2="193.75" y1="70.9316" y2="214.7412"/><text fill="#000000" font-family="sans-serif" font-size="7" lengthAdjust="spacing" textLength="45.5" x="2.5" y="59.8643">Green Spaces</text><text fill="#000000" font-family="sans-serif" font-size="7" lengthAdjust="spacing" textLength="28" x="11.25" y="69.1748">Manager</text><ellipse cx="26.75" cy="26.5605" fill="#E3E3E3" rx="4" ry="4" style="stroke:#181818;stroke-width:0.25;"/><path d="M26.75,30.5605 L26.75,44.0605 M20.25,34.5605 L33.25,34.5605 M26.75,44.0605 L20.25,51.5605 M26.75,44.0605 L33.25,51.5605 " fill="none" style="stroke:#181818;stroke-width:0.25;"/><text fill="#000000" font-family="sans-serif" font-size="7" lengthAdjust="spacing" textLength="45.5" x="2.5" y="221.7949">Green Spaces</text><text fill="#000000" font-family="sans-serif" font-size="7" lengthAdjust="spacing" textLength="28" x="11.25" y="231.1055">Manager</text><ellipse cx="26.75" cy="237.1123" fill="#E3E3E3" rx="4" ry="4" style="stroke:#181818;stroke-width:0.25;"/><path d="M26.75,241.1123 L26.75,254.6123 M20.25,245.1123 L33.25,245.1123 M26.75,254.6123 L20.25,262.1123 M26.75,254.6123 L33.25,262.1123 " fill="none" style="stroke:#181818;stroke-width:0.25;"/><rect fill="#E3E3E3" height="16.3105" rx="1.25" ry="1.25" style="stroke:#181818;stroke-width:0.25;" width="32" x="177.75" y="54.1211"/><text fill="#000000" font-family="sans-serif" font-size="7" lengthAdjust="spacing" textLength="25" x="181.25" y="65.1748">:System</text><rect fill="#E3E3E3" height="16.3105" rx="1.25" ry="1.25" style="stroke:#181818;stroke-width:0.25;" width="32" x="177.75" y="214.2412"/><text fill="#000000" font-family="sans-serif" font-size="7" lengthAdjust="spacing" textLength="25" x="181.25" y="225.2949">:System</text><rect fill="#FFFFFF" height="134.3096" style="stroke:#181818;stroke-width:0.5;" width="5" x="24.25" y="75.9316"/><rect fill="#FFFFFF" height="24.291" style="stroke:#181818;stroke-width:0.5;" width="5" x="191.25" y="87.5771"/><rect fill="#FFFFFF" height="15.6455" style="stroke:#181818;stroke-width:0.5;" width="5" x="191.25" y="127.5137"/><rect fill="#FFFFFF" height="15.6455" style="stroke:#181818;stroke-width:0.5;" width="5" x="191.25" y="158.8047"/><rect fill="#FFFFFF" height="15.6455" style="stroke:#181818;stroke-width:0.5;" width="5" x="191.25" y="190.0957"/><polygon fill="#181818" points="185.25,85.5771,190.25,87.5771,185.25,89.5771,187.25,87.5771" style="stroke:#181818;stroke-width:0.5;"/><line style="stroke:#181818;stroke-width:0.5;" x1="29.25" x2="188.25" y1="87.5771" y2="87.5771"/><text fill="#000000" font-family="sans-serif" font-size="6.5" font-weight="bold" lengthAdjust="spacing" textLength="3.5" x="32.75" y="84.9458">1</text><text fill="#000000" font-family="sans-serif" font-size="6.5" lengthAdjust="spacing" textLength="75" x="38.25" y="84.9458">asks to create a new task</text><polygon fill="#181818" points="34.75,109.8682,29.75,111.8682,34.75,113.8682,32.75,111.8682" style="stroke:#181818;stroke-width:0.5;"/><line style="stroke:#181818;stroke-width:0.5;stroke-dasharray:2.0,2.0;" x1="31.75" x2="193.25" y1="111.8682" y2="111.8682"/><text fill="#000000" font-family="sans-serif" font-size="6.5" font-weight="bold" lengthAdjust="spacing" textLength="3.5" x="37.75" y="104.9141">2</text><text fill="#000000" font-family="sans-serif" font-size="6.5" lengthAdjust="spacing" textLength="144.5" x="43.25" y="100.5913">requests data (i.e. reference, designation, informal</text><text fill="#000000" font-family="sans-serif" font-size="6.5" lengthAdjust="spacing" textLength="140.5" x="43.25" y="109.2368">description, technical description, duration, cost)</text><polygon fill="#181818" points="185.25,125.5137,190.25,127.5137,185.25,129.5137,187.25,127.5137" style="stroke:#181818;stroke-width:0.5;"/><line style="stroke:#181818;stroke-width:0.5;" x1="29.25" x2="188.25" y1="127.5137" y2="127.5137"/><text fill="#000000" font-family="sans-serif" font-size="6.5" font-weight="bold" lengthAdjust="spacing" textLength="3.5" x="32.75" y="124.8823">3</text><text fill="#000000" font-family="sans-serif" font-size="6.5" lengthAdjust="spacing" textLength="61" x="38.25" y="124.8823">types requested data</text><polygon fill="#181818" points="34.75,141.1592,29.75,143.1592,34.75,145.1592,32.75,143.1592" style="stroke:#181818;stroke-width:0.5;"/><line style="stroke:#181818;stroke-width:0.5;stroke-dasharray:2.0,2.0;" x1="31.75" x2="193.25" y1="143.1592" y2="143.1592"/><text fill="#000000" font-family="sans-serif" font-size="6.5" font-weight="bold" lengthAdjust="spacing" textLength="3.5" x="37.75" y="140.5278">4</text><text fill="#000000" font-family="sans-serif" font-size="6.5" lengthAdjust="spacing" textLength="138.5" x="43.25" y="140.5278">shows task category list and asks to select one</text><polygon fill="#181818" points="185.25,156.8047,190.25,158.8047,185.25,160.8047,187.25,158.8047" style="stroke:#181818;stroke-width:0.5;"/><line style="stroke:#181818;stroke-width:0.5;" x1="29.25" x2="188.25" y1="158.8047" y2="158.8047"/><text fill="#000000" font-family="sans-serif" font-size="6.5" font-weight="bold" lengthAdjust="spacing" textLength="3.5" x="32.75" y="156.1733">5</text><text fill="#000000" font-family="sans-serif" font-size="6.5" lengthAdjust="spacing" textLength="68" x="38.25" y="156.1733">selects a task category</text><polygon fill="#181818" points="34.75,172.4502,29.75,174.4502,34.75,176.4502,32.75,174.4502" style="stroke:#181818;stroke-width:0.5;"/><line style="stroke:#181818;stroke-width:0.5;stroke-dasharray:2.0,2.0;" x1="31.75" x2="193.25" y1="174.4502" y2="174.4502"/><text fill="#000000" font-family="sans-serif" font-size="6.5" font-weight="bold" lengthAdjust="spacing" textLength="3.5" x="37.75" y="171.8188">6</text><text fill="#000000" font-family="sans-serif" font-size="6.5" lengthAdjust="spacing" textLength="118" x="43.25" y="171.8188">shows all data and requests confirmation</text><polygon fill="#181818" points="185.25,188.0957,190.25,190.0957,185.25,192.0957,187.25,190.0957" style="stroke:#181818;stroke-width:0.5;"/><line style="stroke:#181818;stroke-width:0.5;" x1="29.25" x2="188.25" y1="190.0957" y2="190.0957"/><text fill="#000000" font-family="sans-serif" font-size="6.5" font-weight="bold" lengthAdjust="spacing" textLength="3.5" x="32.75" y="187.4644">7</text><text fill="#000000" font-family="sans-serif" font-size="6.5" lengthAdjust="spacing" textLength="39" x="38.25" y="187.4644">confirms data</text><polygon fill="#181818" points="34.75,203.7412,29.75,205.7412,34.75,207.7412,32.75,205.7412" style="stroke:#181818;stroke-width:0.5;"/><line style="stroke:#181818;stroke-width:0.5;stroke-dasharray:2.0,2.0;" x1="31.75" x2="193.25" y1="205.7412" y2="205.7412"/><text fill="#000000" font-family="sans-serif" font-size="6.5" font-weight="bold" lengthAdjust="spacing" textLength="3.5" x="37.75" y="203.1099">8</text><text fill="#000000" font-family="sans-serif" font-size="6.5" lengthAdjust="spacing" textLength="79" x="43.25" y="203.1099">displays operation success</text><!--SRC=[dPBFRi8m3CRlVGgB4qZ00t2OD0c94zgXLovUwhOHgTF5BgXlF_SFQ4pR0NAAdEzpVluIENjkCM43JUJewXGR0aqTPN8_QT6TiQ9S-q2Go2bo5NuAfCOYNZrNK68GoZBrQjAy5wK6SlhgY1t1tcCro9Tvlb_11jw3Kc9KVo7uOBDXfv6xvfEIxPt618j38cB83O7an4Ta0qaBG853VipiUlNEjyWAYzrqttWuRSSk_e9Aepe3MxQ1pTkDRMVYiu16S8a67GBJ5TIge_hklpM4USt-ZRKQEkui5vjILA10HLZwBMsjLb8QHbz3GUAhOTR8Q_1SnjHWEB6LNVBjL5PoDNk70HxAHPTcdukYgn6Xe3_9VW-dVKjoGwDYP7joBgdZLSP0m9cXYgc7u4K1kRY79nJiMq2qHto2RdA9PVxG_YL0365AVi2wluMBN7fBUeZl6RBP9wy4LdXf0_O2iQNfuK0wPzzN_Y7u1W00]--></g></svg>