<?xml version="1.0" encoding="us-ascii" standalone="no"?><svg xmlns="http://www.w3.org/2000/svg" xmlns:xlink="http://www.w3.org/1999/xlink" contentStyleType="text/css" height="576px" preserveAspectRatio="none" style="width:348px;height:576px;background:#FFFFFF;" version="1.1" viewBox="0 0 348 576" width="348px" zoomAndPan="magnify"><defs/><g><!--class AssignVehiclesUI--><g id="elem_AssignVehiclesUI"><rect codeLine="11" fill="#F1F1F1" height="28.8" id="AssignVehiclesUI" rx="1.5" ry="1.5" style="stroke:#181818;stroke-width:0.3;" width="83.4" x="95.4" y="4.2"/><ellipse cx="104.4" cy="13.8" fill="#ADD1B2" rx="6.6" ry="6.6" style="stroke:#181818;stroke-width:0.6;"/><path d="M106.0594,11.325 Q106.1531,11.1938 106.2656,11.1281 Q106.3781,11.0625 106.5094,11.0625 Q106.7344,11.0625 106.875,11.2219 Q107.0156,11.3719 107.0156,11.7375 L107.0156,12.6094 Q107.0156,12.975 106.875,13.1344 Q106.7344,13.2938 106.5094,13.2938 Q106.3031,13.2938 106.1812,13.1719 Q106.0594,13.0594 105.9937,12.75 Q105.9656,12.5344 105.8531,12.4219 Q105.6563,12.1969 105.2906,12.0656 Q104.925,11.9344 104.55,11.9344 Q104.0906,11.9344 103.7063,12.1313 Q103.3313,12.3281 103.0313,12.7781 Q102.7406,13.2281 102.7406,13.8469 L102.7406,14.5031 Q102.7406,15.2437 103.275,15.7406 Q103.8094,16.2281 104.7656,16.2281 Q105.3281,16.2281 105.7219,16.0781 Q105.9563,15.9844 106.2094,15.7219 Q106.3687,15.5625 106.4531,15.5156 Q106.5469,15.4688 106.6688,15.4688 Q106.8656,15.4688 107.0156,15.6281 Q107.175,15.7781 107.175,15.9844 Q107.175,16.1906 106.9688,16.4344 Q106.6688,16.7813 106.1906,16.9781 Q105.5438,17.25 104.7656,17.25 Q103.8563,17.25 103.1344,16.875 Q102.5438,16.575 102.1313,15.9375 Q101.7188,15.2906 101.7188,14.5219 L101.7188,13.8281 Q101.7188,13.0313 102.0844,12.3469 Q102.4594,11.6531 103.1156,11.2875 Q103.7719,10.9125 104.5125,10.9125 Q104.9531,10.9125 105.3375,11.0156 Q105.7313,11.1094 106.0594,11.325 Z " fill="#000000"/><text fill="#000000" font-family="sans-serif" font-size="8.4" lengthAdjust="spacing" textLength="64.2" x="112.8" y="17.2781">AssignVehiclesUI</text><line style="stroke:#181818;stroke-width:0.3;" x1="96" x2="178.2" y1="23.4" y2="23.4"/><line style="stroke:#181818;stroke-width:0.3;" x1="96" x2="178.2" y1="28.2" y2="28.2"/></g><!--class AssignVehiclesController--><g id="elem_AssignVehiclesController"><rect codeLine="14" fill="#F1F1F1" height="95.8359" id="AssignVehiclesController" rx="1.5" ry="1.5" style="stroke:#181818;stroke-width:0.3;" width="237" x="18.6" y="69.6"/><ellipse cx="87.45" cy="79.2" fill="#ADD1B2" rx="6.6" ry="6.6" style="stroke:#181818;stroke-width:0.6;"/><path d="M89.1094,76.725 Q89.2031,76.5938 89.3156,76.5281 Q89.4281,76.4625 89.5594,76.4625 Q89.7844,76.4625 89.925,76.6219 Q90.0656,76.7719 90.0656,77.1375 L90.0656,78.0094 Q90.0656,78.375 89.925,78.5344 Q89.7844,78.6938 89.5594,78.6938 Q89.3531,78.6938 89.2313,78.5719 Q89.1094,78.4594 89.0438,78.15 Q89.0156,77.9344 88.9031,77.8219 Q88.7063,77.5969 88.3406,77.4656 Q87.975,77.3344 87.6,77.3344 Q87.1406,77.3344 86.7563,77.5313 Q86.3813,77.7281 86.0813,78.1781 Q85.7906,78.6281 85.7906,79.2469 L85.7906,79.9031 Q85.7906,80.6438 86.325,81.1406 Q86.8594,81.6281 87.8156,81.6281 Q88.3781,81.6281 88.7719,81.4781 Q89.0063,81.3844 89.2594,81.1219 Q89.4188,80.9625 89.5031,80.9156 Q89.5969,80.8687 89.7188,80.8687 Q89.9156,80.8687 90.0656,81.0281 Q90.225,81.1781 90.225,81.3844 Q90.225,81.5906 90.0188,81.8344 Q89.7188,82.1812 89.2406,82.3781 Q88.5938,82.65 87.8156,82.65 Q86.9063,82.65 86.1844,82.275 Q85.5938,81.975 85.1812,81.3375 Q84.7688,80.6906 84.7688,79.9219 L84.7688,79.2281 Q84.7688,78.4312 85.1344,77.7469 Q85.5094,77.0531 86.1656,76.6875 Q86.8219,76.3125 87.5625,76.3125 Q88.0031,76.3125 88.3875,76.4156 Q88.7813,76.5094 89.1094,76.725 Z " fill="#000000"/><text fill="#000000" font-family="sans-serif" font-size="8.4" lengthAdjust="spacing" textLength="94.2" x="99.75" y="82.6781">AssignVehiclesController</text><line style="stroke:#181818;stroke-width:0.3;" x1="19.2" x2="255" y1="88.8" y2="88.8"/><line style="stroke:#181818;stroke-width:0.3;" x1="19.2" x2="255" y1="93.6" y2="93.6"/><text fill="#000000" font-family="sans-serif" font-size="8.4" lengthAdjust="spacing" textLength="205.8" x="22.2" y="105.0645">+AssignVehiclesController(agenda, vehicleRepository)</text><text fill="#000000" font-family="sans-serif" font-size="8.4" lengthAdjust="spacing" textLength="229.8" x="22.2" y="116.2371">+assignVehiclesToEntry(agendaIndex, vehiclesPlateNumber)</text><text fill="#000000" font-family="sans-serif" font-size="8.4" lengthAdjust="spacing" textLength="118.8" x="22.2" y="127.4098">-getEntryByIndex(agendaIndex)</text><text fill="#000000" font-family="sans-serif" font-size="8.4" lengthAdjust="spacing" textLength="186" x="22.2" y="138.5824">-getVehicleByPlateNumber(vehiclesPlateNumber)</text><text fill="#000000" font-family="sans-serif" font-size="8.4" lengthAdjust="spacing" textLength="62.4" x="22.2" y="149.7551">+getEntriesList()</text><text fill="#000000" font-family="sans-serif" font-size="8.4" lengthAdjust="spacing" textLength="67.8" x="22.2" y="160.9277">+getVehiclesList()</text></g><!--class Agenda--><g id="elem_Agenda"><rect codeLine="23" fill="#F1F1F1" height="39.9727" id="Agenda" rx="1.5" ry="1.5" style="stroke:#181818;stroke-width:0.3;" width="127.8" x="4.2" y="322.8"/><ellipse cx="50.85" cy="332.4" fill="#ADD1B2" rx="6.6" ry="6.6" style="stroke:#181818;stroke-width:0.6;"/><path d="M52.5094,329.925 Q52.6031,329.7938 52.7156,329.7281 Q52.8281,329.6625 52.9594,329.6625 Q53.1844,329.6625 53.325,329.8219 Q53.4656,329.9719 53.4656,330.3375 L53.4656,331.2094 Q53.4656,331.575 53.325,331.7344 Q53.1844,331.8938 52.9594,331.8938 Q52.7531,331.8938 52.6313,331.7719 Q52.5094,331.6594 52.4438,331.35 Q52.4156,331.1344 52.3031,331.0219 Q52.1062,330.7969 51.7406,330.6656 Q51.375,330.5344 51,330.5344 Q50.5406,330.5344 50.1563,330.7313 Q49.7813,330.9281 49.4812,331.3781 Q49.1906,331.8281 49.1906,332.4469 L49.1906,333.1031 Q49.1906,333.8438 49.725,334.3406 Q50.2594,334.8281 51.2156,334.8281 Q51.7781,334.8281 52.1719,334.6781 Q52.4063,334.5844 52.6594,334.3219 Q52.8188,334.1625 52.9031,334.1156 Q52.9969,334.0687 53.1188,334.0687 Q53.3156,334.0687 53.4656,334.2281 Q53.625,334.3781 53.625,334.5844 Q53.625,334.7906 53.4187,335.0344 Q53.1188,335.3812 52.6406,335.5781 Q51.9938,335.85 51.2156,335.85 Q50.3063,335.85 49.5844,335.475 Q48.9938,335.175 48.5813,334.5375 Q48.1687,333.8906 48.1687,333.1219 L48.1687,332.4281 Q48.1687,331.6312 48.5344,330.9469 Q48.9094,330.2531 49.5656,329.8875 Q50.2219,329.5125 50.9625,329.5125 Q51.4031,329.5125 51.7875,329.6156 Q52.1813,329.7094 52.5094,329.925 Z " fill="#000000"/><text fill="#000000" font-family="sans-serif" font-size="8.4" lengthAdjust="spacing" textLength="29.4" x="63.15" y="335.8781">Agenda</text><line style="stroke:#181818;stroke-width:0.3;" x1="4.8" x2="131.4" y1="342" y2="342"/><line style="stroke:#181818;stroke-width:0.3;" x1="4.8" x2="131.4" y1="346.8" y2="346.8"/><text fill="#000000" font-family="sans-serif" font-size="8.4" lengthAdjust="spacing" textLength="120.6" x="7.8" y="358.2645">+getEntryByIndex(agendaIndex)</text></g><!--class Entry--><g id="elem_Entry"><rect codeLine="27" fill="#F1F1F1" height="95.8359" id="Entry" rx="1.5" ry="1.5" style="stroke:#181818;stroke-width:0.3;" width="139.8" x="57" y="399.6"/><ellipse cx="114.45" cy="409.2" fill="#ADD1B2" rx="6.6" ry="6.6" style="stroke:#181818;stroke-width:0.6;"/><path d="M116.1094,406.725 Q116.2031,406.5938 116.3156,406.5281 Q116.4281,406.4625 116.5594,406.4625 Q116.7844,406.4625 116.925,406.6219 Q117.0656,406.7719 117.0656,407.1375 L117.0656,408.0094 Q117.0656,408.375 116.925,408.5344 Q116.7844,408.6937 116.5594,408.6937 Q116.3531,408.6937 116.2312,408.5719 Q116.1094,408.4594 116.0437,408.15 Q116.0156,407.9344 115.9031,407.8219 Q115.7063,407.5969 115.3406,407.4656 Q114.975,407.3344 114.6,407.3344 Q114.1406,407.3344 113.7563,407.5313 Q113.3813,407.7281 113.0813,408.1781 Q112.7906,408.6281 112.7906,409.2469 L112.7906,409.9031 Q112.7906,410.6438 113.325,411.1406 Q113.8594,411.6281 114.8156,411.6281 Q115.3781,411.6281 115.7719,411.4781 Q116.0063,411.3844 116.2594,411.1219 Q116.4187,410.9625 116.5031,410.9156 Q116.5969,410.8688 116.7188,410.8688 Q116.9156,410.8688 117.0656,411.0281 Q117.225,411.1781 117.225,411.3844 Q117.225,411.5906 117.0188,411.8344 Q116.7188,412.1813 116.2406,412.3781 Q115.5938,412.65 114.8156,412.65 Q113.9063,412.65 113.1844,412.275 Q112.5938,411.975 112.1812,411.3375 Q111.7688,410.6906 111.7688,409.9219 L111.7688,409.2281 Q111.7688,408.4313 112.1344,407.7469 Q112.5094,407.0531 113.1656,406.6875 Q113.8219,406.3125 114.5625,406.3125 Q115.0031,406.3125 115.3875,406.4156 Q115.7813,406.5094 116.1094,406.725 Z " fill="#000000"/><text fill="#000000" font-family="sans-serif" font-size="8.4" lengthAdjust="spacing" textLength="19.8" x="126.75" y="412.6781">Entry</text><line style="stroke:#181818;stroke-width:0.3;" x1="57.6" x2="196.2" y1="418.8" y2="418.8"/><text fill="#000000" font-family="sans-serif" font-size="8.4" lengthAdjust="spacing" textLength="69.6" x="60.6" y="430.2645">-Date startingDate</text><text fill="#000000" font-family="sans-serif" font-size="8.4" lengthAdjust="spacing" textLength="81.6" x="60.6" y="441.4371">-AgendaStatus status</text><text fill="#000000" font-family="sans-serif" font-size="8.4" lengthAdjust="spacing" textLength="39.6" x="60.6" y="452.6098">-Task task</text><text fill="#000000" font-family="sans-serif" font-size="8.4" lengthAdjust="spacing" textLength="121.2" x="60.6" y="463.7824">-List&lt;Vehicle&gt; vehiclesAssigned</text><line style="stroke:#181818;stroke-width:0.3;" x1="57.6" x2="196.2" y1="468.2906" y2="468.2906"/><text fill="#000000" font-family="sans-serif" font-size="8.4" lengthAdjust="spacing" textLength="97.2" x="60.6" y="479.7551">+Entry(startingDate, task)</text><text fill="#000000" font-family="sans-serif" font-size="8.4" lengthAdjust="spacing" textLength="132.6" x="60.6" y="490.9277">+assignVehicles(vehiclesAssigned)</text></g><!--class VehicleRepository--><g id="elem_VehicleRepository"><rect codeLine="36" fill="#F1F1F1" height="39.9727" id="VehicleRepository" rx="1.5" ry="1.5" style="stroke:#181818;stroke-width:0.3;" width="190.8" x="153.3" y="322.8"/><ellipse cx="211.95" cy="332.4" fill="#ADD1B2" rx="6.6" ry="6.6" style="stroke:#181818;stroke-width:0.6;"/><path d="M213.6094,329.925 Q213.7031,329.7938 213.8156,329.7281 Q213.9281,329.6625 214.0594,329.6625 Q214.2844,329.6625 214.425,329.8219 Q214.5656,329.9719 214.5656,330.3375 L214.5656,331.2094 Q214.5656,331.575 214.425,331.7344 Q214.2844,331.8938 214.0594,331.8938 Q213.8531,331.8938 213.7313,331.7719 Q213.6094,331.6594 213.5438,331.35 Q213.5156,331.1344 213.4031,331.0219 Q213.2062,330.7969 212.8406,330.6656 Q212.475,330.5344 212.1,330.5344 Q211.6406,330.5344 211.2563,330.7313 Q210.8813,330.9281 210.5812,331.3781 Q210.2906,331.8281 210.2906,332.4469 L210.2906,333.1031 Q210.2906,333.8438 210.825,334.3406 Q211.3594,334.8281 212.3156,334.8281 Q212.8781,334.8281 213.2719,334.6781 Q213.5063,334.5844 213.7594,334.3219 Q213.9188,334.1625 214.0031,334.1156 Q214.0969,334.0687 214.2188,334.0687 Q214.4156,334.0687 214.5656,334.2281 Q214.725,334.3781 214.725,334.5844 Q214.725,334.7906 214.5187,335.0344 Q214.2188,335.3812 213.7406,335.5781 Q213.0938,335.85 212.3156,335.85 Q211.4063,335.85 210.6844,335.475 Q210.0938,335.175 209.6813,334.5375 Q209.2687,333.8906 209.2687,333.1219 L209.2687,332.4281 Q209.2687,331.6312 209.6344,330.9469 Q210.0094,330.2531 210.6656,329.8875 Q211.3219,329.5125 212.0625,329.5125 Q212.5031,329.5125 212.8875,329.6156 Q213.2813,329.7094 213.6094,329.925 Z " fill="#000000"/><text fill="#000000" font-family="sans-serif" font-size="8.4" lengthAdjust="spacing" textLength="68.4" x="224.25" y="335.8781">VehicleRepository</text><line style="stroke:#181818;stroke-width:0.3;" x1="153.9" x2="343.5" y1="342" y2="342"/><line style="stroke:#181818;stroke-width:0.3;" x1="153.9" x2="343.5" y1="346.8" y2="346.8"/><text fill="#000000" font-family="sans-serif" font-size="8.4" lengthAdjust="spacing" textLength="183.6" x="156.9" y="358.2645">+getVehicleByPlateNumber(vehiclePlateNumber)</text></g><!--class Vehicle--><g id="elem_Vehicle"><rect codeLine="40" fill="#F1F1F1" height="39.9727" id="Vehicle" rx="1.5" ry="1.5" style="stroke:#181818;stroke-width:0.3;" width="82.8" x="146.1" y="532.2"/><ellipse cx="171.3" cy="541.8" fill="#ADD1B2" rx="6.6" ry="6.6" style="stroke:#181818;stroke-width:0.6;"/><path d="M172.9594,539.325 Q173.0531,539.1938 173.1656,539.1281 Q173.2781,539.0625 173.4094,539.0625 Q173.6344,539.0625 173.775,539.2219 Q173.9156,539.3719 173.9156,539.7375 L173.9156,540.6094 Q173.9156,540.975 173.775,541.1344 Q173.6344,541.2937 173.4094,541.2937 Q173.2031,541.2937 173.0812,541.1719 Q172.9594,541.0594 172.8937,540.75 Q172.8656,540.5344 172.7531,540.4219 Q172.5563,540.1969 172.1906,540.0656 Q171.825,539.9344 171.45,539.9344 Q170.9906,539.9344 170.6063,540.1313 Q170.2313,540.3281 169.9313,540.7781 Q169.6406,541.2281 169.6406,541.8469 L169.6406,542.5031 Q169.6406,543.2438 170.175,543.7406 Q170.7094,544.2281 171.6656,544.2281 Q172.2281,544.2281 172.6219,544.0781 Q172.8563,543.9844 173.1094,543.7219 Q173.2687,543.5625 173.3531,543.5156 Q173.4469,543.4688 173.5688,543.4688 Q173.7656,543.4688 173.9156,543.6281 Q174.075,543.7781 174.075,543.9844 Q174.075,544.1906 173.8688,544.4344 Q173.5688,544.7813 173.0906,544.9781 Q172.4438,545.25 171.6656,545.25 Q170.7563,545.25 170.0344,544.875 Q169.4438,544.575 169.0313,543.9375 Q168.6188,543.2906 168.6188,542.5219 L168.6188,541.8281 Q168.6188,541.0313 168.9844,540.3469 Q169.3594,539.6531 170.0156,539.2875 Q170.6719,538.9125 171.4125,538.9125 Q171.8531,538.9125 172.2375,539.0156 Q172.6313,539.1094 172.9594,539.325 Z " fill="#000000"/><text fill="#000000" font-family="sans-serif" font-size="8.4" lengthAdjust="spacing" textLength="27.6" x="183.3" y="545.2781">Vehicle</text><line style="stroke:#181818;stroke-width:0.3;" x1="146.7" x2="228.3" y1="551.4" y2="551.4"/><text fill="#000000" font-family="sans-serif" font-size="8.4" lengthAdjust="spacing" textLength="75.6" x="149.7" y="562.8645">-String plateNumber</text><line style="stroke:#181818;stroke-width:0.3;" x1="146.7" x2="228.3" y1="567.3727" y2="567.3727"/></g><!--class Repositories--><g id="elem_Repositories"><rect codeLine="44" fill="#F1F1F1" height="73.4906" id="Repositories" rx="1.5" ry="1.5" style="stroke:#181818;stroke-width:0.3;" width="116.4" x="78.9" y="213"/><ellipse cx="110.85" cy="222.6" fill="#ADD1B2" rx="6.6" ry="6.6" style="stroke:#181818;stroke-width:0.6;"/><path d="M112.5094,220.125 Q112.6031,219.9938 112.7156,219.9281 Q112.8281,219.8625 112.9594,219.8625 Q113.1844,219.8625 113.325,220.0219 Q113.4656,220.1719 113.4656,220.5375 L113.4656,221.4094 Q113.4656,221.775 113.325,221.9344 Q113.1844,222.0938 112.9594,222.0938 Q112.7531,222.0938 112.6313,221.9719 Q112.5094,221.8594 112.4438,221.55 Q112.4156,221.3344 112.3031,221.2219 Q112.1063,220.9969 111.7406,220.8656 Q111.375,220.7344 111,220.7344 Q110.5406,220.7344 110.1563,220.9313 Q109.7813,221.1281 109.4813,221.5781 Q109.1906,222.0281 109.1906,222.6469 L109.1906,223.3031 Q109.1906,224.0438 109.725,224.5406 Q110.2594,225.0281 111.2156,225.0281 Q111.7781,225.0281 112.1719,224.8781 Q112.4063,224.7844 112.6594,224.5219 Q112.8188,224.3625 112.9031,224.3156 Q112.9969,224.2687 113.1187,224.2687 Q113.3156,224.2687 113.4656,224.4281 Q113.625,224.5781 113.625,224.7844 Q113.625,224.9906 113.4188,225.2344 Q113.1187,225.5812 112.6406,225.7781 Q111.9937,226.05 111.2156,226.05 Q110.3062,226.05 109.5844,225.675 Q108.9937,225.375 108.5813,224.7375 Q108.1688,224.0906 108.1688,223.3219 L108.1688,222.6281 Q108.1688,221.8312 108.5344,221.1469 Q108.9094,220.4531 109.5656,220.0875 Q110.2219,219.7125 110.9625,219.7125 Q111.4031,219.7125 111.7875,219.8156 Q112.1812,219.9094 112.5094,220.125 Z " fill="#000000"/><text fill="#000000" font-family="sans-serif" font-size="8.4" lengthAdjust="spacing" textLength="47.4" x="123.15" y="226.0781">Repositories</text><line style="stroke:#181818;stroke-width:0.3;" x1="79.5" x2="194.7" y1="232.2" y2="232.2"/><line style="stroke:#181818;stroke-width:0.3;" x1="79.5" x2="194.7" y1="237" y2="237"/><text fill="#000000" font-family="sans-serif" font-size="8.4" lengthAdjust="spacing" textLength="56.4" x="82.5" y="248.4645">-Repositories()</text><text fill="#000000" font-family="sans-serif" font-size="8.4" lengthAdjust="spacing" textLength="109.2" x="82.5" y="259.6371">+getInstance() : Repositories</text><text fill="#000000" font-family="sans-serif" font-size="8.4" lengthAdjust="spacing" textLength="52.2" x="82.5" y="270.8098">+getAgenda()</text><text fill="#000000" font-family="sans-serif" font-size="8.4" lengthAdjust="spacing" textLength="91.2" x="82.5" y="281.9824">+getVehicleRepository()</text></g><!--link AssignVehiclesUI to AssignVehiclesController--><g id="link_AssignVehiclesUI_AssignVehiclesController"><path codeLine="51" d="M137.1,33.006 C137.1,42.642 137.1,52.518 137.1,65.862 " fill="none" id="AssignVehiclesUI-to-AssignVehiclesController" style="stroke:#181818;stroke-width:0.6;stroke-dasharray:7.0,7.0;"/><polygon fill="#181818" points="137.1,69.462,139.5,64.062,137.1,66.462,134.7,64.062,137.1,69.462" style="stroke:#181818;stroke-width:0.6;"/></g><!--link AssignVehiclesController to Repositories--><g id="link_AssignVehiclesController_Repositories"><path codeLine="52" d="M137.1,165.606 C137.1,181.182 137.1,194.628 137.1,209.232 " fill="none" id="AssignVehiclesController-to-Repositories" style="stroke:#181818;stroke-width:0.6;stroke-dasharray:7.0,7.0;"/><polygon fill="#181818" points="137.1,212.832,139.5,207.432,137.1,209.832,134.7,207.432,137.1,212.832" style="stroke:#181818;stroke-width:0.6;"/><text fill="#000000" font-family="sans-serif" font-size="7.8" lengthAdjust="spacing" textLength="40.2" x="137.7" y="192.617">repositories</text></g><!--link AssignVehiclesController to Agenda--><g id="link_AssignVehiclesController_Agenda"><path codeLine="53" d="M89.118,165.876 C65.364,189.486 41.7,213 41.7,213 C41.7,213 41.7,286.2 41.7,286.2 C41.7,286.2 49.7188,303.2468 57.3328,319.4228 " fill="none" id="AssignVehiclesController-to-Agenda" style="stroke:#181818;stroke-width:0.6;stroke-dasharray:7.0,7.0;"/><polygon fill="#181818" points="58.866,322.68,58.7377,316.7721,57.5884,319.9657,54.3948,318.8163,58.866,322.68" style="stroke:#181818;stroke-width:0.6;"/><text fill="#000000" font-family="sans-serif" font-size="7.8" lengthAdjust="spacing" textLength="25.2" x="42.3" y="252.917">agenda</text></g><!--link AssignVehiclesController to VehicleRepository--><g id="link_AssignVehiclesController_VehicleRepository"><path codeLine="54" d="M195.468,165.738 C224.514,189.39 253.5,213 253.5,213 C253.5,213 253.5,286.2 253.5,286.2 C253.5,286.2 252.066,302.917 250.686,319.093 " fill="none" id="AssignVehiclesController-to-VehicleRepository" style="stroke:#181818;stroke-width:0.6;stroke-dasharray:7.0,7.0;"/><polygon fill="#181818" points="250.38,322.68,253.2303,317.5036,250.635,319.6909,248.4477,317.0955,250.38,322.68" style="stroke:#181818;stroke-width:0.6;"/><text fill="#000000" font-family="sans-serif" font-size="7.8" lengthAdjust="spacing" textLength="60.6" x="254.1" y="252.917">vehicleRepository</text></g><!--link Repositories to Repositories--><g id="link_Repositories_Repositories"><path codeLine="55" d="M195.468,239.832 C207.588,240.858 216.3,244.116 216.3,249.6 C216.3,255.084 211.1752,258.0383 199.0552,259.0643 " fill="none" id="Repositories-to-Repositories" style="stroke:#181818;stroke-width:0.6;"/><polygon fill="#181818" points="195.468,259.368,201.0512,261.3039,198.4573,259.1149,200.6463,256.5211,195.468,259.368" style="stroke:#181818;stroke-width:0.6;"/><text fill="#000000" font-family="sans-serif" font-size="7.8" lengthAdjust="spacing" textLength="29.4" x="219.9" y="252.917">instance</text></g><!--link Repositories to Agenda--><g id="link_Repositories_Agenda"><path codeLine="56" d="M110.028,286.338 C100.74,298.734 92.8547,309.257 84.9287,319.835 " fill="none" id="Repositories-to-Agenda" style="stroke:#181818;stroke-width:0.6;"/><polygon fill="#181818" points="82.77,322.716,87.9287,319.8337,84.5689,320.3152,84.0874,316.9554,82.77,322.716" style="stroke:#181818;stroke-width:0.6;"/><text fill="#000000" font-family="sans-serif" font-size="7.8" lengthAdjust="spacing" textLength="4.2" x="81.0447" y="315.9948">1</text></g><!--link Repositories to VehicleRepository--><g id="link_Repositories_VehicleRepository"><path codeLine="57" d="M180.726,286.206 C195.828,298.668 209.4015,309.8645 222.2835,320.4965 " fill="none" id="Repositories-to-VehicleRepository" style="stroke:#181818;stroke-width:0.6;"/><polygon fill="#181818" points="225.06,322.788,222.423,317.4997,222.7463,320.8784,219.3676,321.2017,225.06,322.788" style="stroke:#181818;stroke-width:0.6;"/><text fill="#000000" font-family="sans-serif" font-size="7.8" lengthAdjust="spacing" textLength="4.2" x="215.7924" y="316.0809">1</text></g><!--link Agenda to Entry--><g id="link_Agenda_Entry"><path codeLine="58" d="M79.296,363.21 C85.164,373.536 90.8444,383.5275 98.1044,396.3135 " fill="none" id="Agenda-to-Entry" style="stroke:#181818;stroke-width:0.6;"/><polygon fill="#181818" points="99.882,399.444,99.3027,393.5631,98.4007,396.8352,95.1286,395.9332,99.882,399.444" style="stroke:#181818;stroke-width:0.6;"/><text fill="#000000" font-family="sans-serif" font-size="7.8" lengthAdjust="spacing" textLength="3" x="94.253" y="392.7671">*</text></g><!--link VehicleRepository to Vehicle--><g id="link_VehicleRepository_Vehicle"><path codeLine="59" d="M243.372,363.072 C232.188,404.154 207.3,495.6 207.3,495.6 C207.3,495.6 201.3347,512.5094 195.6227,528.6854 " fill="none" id="VehicleRepository-to-Vehicle" style="stroke:#181818;stroke-width:0.6;"/><polygon fill="#181818" points="194.424,532.08,198.4851,527.7873,195.4229,529.2512,193.959,526.189,194.424,532.08" style="stroke:#181818;stroke-width:0.6;"/><text fill="#000000" font-family="sans-serif" font-size="7.8" lengthAdjust="spacing" textLength="3" x="192.458" y="525.5087">*</text></g><!--link Entry to Vehicle--><g id="link_Entry_Vehicle"><path codeLine="60" d="M154.716,495.708 C162.246,508.572 168.1605,518.6777 174.2265,529.0337 " fill="none" id="Entry-to-Vehicle" style="stroke:#181818;stroke-width:0.6;"/><polygon fill="#181818" points="176.046,532.14,175.3876,526.2675,174.5297,529.5514,171.2458,528.6935,176.046,532.14" style="stroke:#181818;stroke-width:0.6;"/><text fill="#000000" font-family="sans-serif" font-size="7.8" lengthAdjust="spacing" textLength="3" x="170.4957" y="525.4235">*</text></g><!--SRC=[VLJBJiCm4BpxArQzD3oAu5eX90eSAY64A70toJQrwjgHlGK2ujznOgTnahOzjB9dPZsUzNPirq8LtF0DRBJIwShe3GAPBR8MANYwvZakg9G81bFYAfSnmQvufh-4oc79fOqHAHHIMI0KMfRLWettWDgGPf4gbTpQMo8ZFhQ4yrIhXVX1k6HiB759G1gCo5S4cQZi2AqOgpLmQwt8rJkkH2hHlitXb_tjn-wq8gEbHECuu3vdX_34tLrb_1m-FVI2XRQ2j2bFl91tXA_wmIdBe9gh3BztKliiEU7JTlE1neidELBDdvKrDPQrZ51xLaRwv63Dir1Je7qKbf9sj_4OjjjewaER88vQscbgIf1Cxfq5iCGDkLTGBVoshxiWJbjRmUx70w_She7SbrzMVgw3kPjTMBuXc7bNFjNuZFEwmjuc9FqQaV7tVXkZUnyBkfDplreJnCB5xkQWQBajTNUYQqp3xsmsdGBdPAxSLLMAoGbCEwIMujEDHOEh-IOFfkBYukRWEB23SrAfOYTJzsSG-JggyrwduD_ISUxW5jFXwB5Ec9D9tva8yGrvewjHSBCV6vpEmdJKXDEHV_Xi-8eQF23C3qX_zny0]--></g></svg>