<?xml version="1.0" encoding="us-ascii" standalone="no"?><svg xmlns="http://www.w3.org/2000/svg" xmlns:xlink="http://www.w3.org/1999/xlink" contentStyleType="text/css" height="391.6px" preserveAspectRatio="none" style="width:203px;height:391px;background:#FFFFFF;" version="1.1" viewBox="0 0 203 391" width="203.2px" zoomAndPan="magnify"><defs/><g><!--class AssignVehiclesUI--><g id="elem_AssignVehiclesUI"><rect codeLine="11" fill="#F1F1F1" height="19.2" id="AssignVehiclesUI" rx="1" ry="1" style="stroke:#181818;stroke-width:0.20000000000000004;" width="55.6" x="54" y="2.8"/><ellipse cx="60" cy="9.2" fill="#ADD1B2" rx="4.4" ry="4.4" style="stroke:#181818;stroke-width:0.4000000000000001;"/><path d="M61.1063,7.55 Q61.1688,7.4625 61.2438,7.4188 Q61.3188,7.375 61.4063,7.375 Q61.5563,7.375 61.65,7.4813 Q61.7438,7.5813 61.7438,7.825 L61.7438,8.4063 Q61.7438,8.65 61.65,8.7563 Q61.5563,8.8625 61.4063,8.8625 Q61.2688,8.8625 61.1875,8.7813 Q61.1063,8.7063 61.0625,8.5 Q61.0438,8.3563 60.9688,8.2813 Q60.8375,8.1313 60.5938,8.0438 Q60.35,7.9563 60.1,7.9563 Q59.7938,7.9563 59.5375,8.0875 Q59.2875,8.2188 59.0875,8.5188 Q58.8938,8.8188 58.8938,9.2313 L58.8938,9.6688 Q58.8938,10.1625 59.25,10.4938 Q59.6063,10.8188 60.2438,10.8188 Q60.6188,10.8188 60.8813,10.7188 Q61.0375,10.6563 61.2063,10.4813 Q61.3125,10.375 61.3688,10.3438 Q61.4313,10.3125 61.5125,10.3125 Q61.6438,10.3125 61.7438,10.4188 Q61.85,10.5188 61.85,10.6563 Q61.85,10.7938 61.7125,10.9563 Q61.5125,11.1875 61.1938,11.3188 Q60.7625,11.5 60.2438,11.5 Q59.6375,11.5 59.1563,11.25 Q58.7625,11.05 58.4875,10.625 Q58.2125,10.1938 58.2125,9.6813 L58.2125,9.2188 Q58.2125,8.6875 58.4563,8.2313 Q58.7063,7.7688 59.1438,7.525 Q59.5813,7.275 60.075,7.275 Q60.3688,7.275 60.625,7.3438 Q60.8875,7.4063 61.1063,7.55 Z " fill="#000000"/><text fill="#000000" font-family="sans-serif" font-size="5.6" lengthAdjust="spacing" textLength="42.8" x="65.6" y="11.5188">AssignVehiclesUI</text><line style="stroke:#181818;stroke-width:0.20000000000000004;" x1="54.4" x2="109.2" y1="15.6" y2="15.6"/><line style="stroke:#181818;stroke-width:0.20000000000000004;" x1="54.4" x2="109.2" y1="18.8" y2="18.8"/></g><!--class AssignVehiclesController--><g id="elem_AssignVehiclesController"><rect codeLine="14" fill="#F1F1F1" height="63.8906" id="AssignVehiclesController" rx="1" ry="1" style="stroke:#181818;stroke-width:0.20000000000000004;" width="158" x="2.8" y="46.4"/><ellipse cx="48.7" cy="52.8" fill="#ADD1B2" rx="4.4" ry="4.4" style="stroke:#181818;stroke-width:0.4000000000000001;"/><path d="M49.8063,51.15 Q49.8688,51.0625 49.9438,51.0188 Q50.0188,50.975 50.1063,50.975 Q50.2563,50.975 50.35,51.0813 Q50.4438,51.1813 50.4438,51.425 L50.4438,52.0063 Q50.4438,52.25 50.35,52.3563 Q50.2563,52.4625 50.1063,52.4625 Q49.9688,52.4625 49.8875,52.3813 Q49.8063,52.3063 49.7625,52.1 Q49.7438,51.9563 49.6688,51.8813 Q49.5375,51.7313 49.2938,51.6438 Q49.05,51.5563 48.8,51.5563 Q48.4938,51.5563 48.2375,51.6875 Q47.9875,51.8188 47.7875,52.1188 Q47.5938,52.4188 47.5938,52.8313 L47.5938,53.2688 Q47.5938,53.7625 47.95,54.0938 Q48.3063,54.4188 48.9438,54.4188 Q49.3188,54.4188 49.5813,54.3188 Q49.7375,54.2563 49.9063,54.0813 Q50.0125,53.975 50.0688,53.9438 Q50.1313,53.9125 50.2125,53.9125 Q50.3438,53.9125 50.4438,54.0188 Q50.55,54.1188 50.55,54.2563 Q50.55,54.3938 50.4125,54.5563 Q50.2125,54.7875 49.8938,54.9188 Q49.4625,55.1 48.9438,55.1 Q48.3375,55.1 47.8563,54.85 Q47.4625,54.65 47.1875,54.225 Q46.9125,53.7938 46.9125,53.2813 L46.9125,52.8188 Q46.9125,52.2875 47.1563,51.8313 Q47.4063,51.3688 47.8438,51.125 Q48.2813,50.875 48.775,50.875 Q49.0688,50.875 49.325,50.9438 Q49.5875,51.0063 49.8063,51.15 Z " fill="#000000"/><text fill="#000000" font-family="sans-serif" font-size="5.6" lengthAdjust="spacing" textLength="62.8" x="56.9" y="55.1188">AssignVehiclesController</text><line style="stroke:#181818;stroke-width:0.20000000000000004;" x1="3.2" x2="160.4" y1="59.2" y2="59.2"/><line style="stroke:#181818;stroke-width:0.20000000000000004;" x1="3.2" x2="160.4" y1="62.4" y2="62.4"/><text fill="#000000" font-family="sans-serif" font-size="5.6" lengthAdjust="spacing" textLength="137.2" x="5.2" y="70.043">+AssignVehiclesController(agenda, vehicleRepository)</text><text fill="#000000" font-family="sans-serif" font-size="5.6" lengthAdjust="spacing" textLength="153.2" x="5.2" y="77.4914">+assignVehiclesToEntry(agendaIndex, vehiclesPlateNumber)</text><text fill="#000000" font-family="sans-serif" font-size="5.6" lengthAdjust="spacing" textLength="60" x="5.2" y="84.9398">-getEntryByIndex(index)</text><text fill="#000000" font-family="sans-serif" font-size="5.6" lengthAdjust="spacing" textLength="121.2" x="5.2" y="92.3883">-getVehicleByPlateNumber(vehiclePlateNumber)</text><text fill="#000000" font-family="sans-serif" font-size="5.6" lengthAdjust="spacing" textLength="41.6" x="5.2" y="99.8367">+getEntriesList()</text><text fill="#000000" font-family="sans-serif" font-size="5.6" lengthAdjust="spacing" textLength="45.2" x="5.2" y="107.2852">+getVehiclesList()</text></g><!--class Agenda--><g id="elem_Agenda"><rect codeLine="23" fill="#F1F1F1" height="26.6484" id="Agenda" rx="1" ry="1" style="stroke:#181818;stroke-width:0.20000000000000004;" width="66" x="6.8" y="215.2"/><ellipse cx="28.3" cy="221.6" fill="#ADD1B2" rx="4.4" ry="4.4" style="stroke:#181818;stroke-width:0.4000000000000001;"/><path d="M29.4063,219.95 Q29.4688,219.8625 29.5438,219.8188 Q29.6188,219.775 29.7063,219.775 Q29.8563,219.775 29.95,219.8813 Q30.0438,219.9813 30.0438,220.225 L30.0438,220.8063 Q30.0438,221.05 29.95,221.1563 Q29.8563,221.2625 29.7063,221.2625 Q29.5688,221.2625 29.4875,221.1813 Q29.4063,221.1063 29.3625,220.9 Q29.3438,220.7563 29.2688,220.6813 Q29.1375,220.5313 28.8938,220.4438 Q28.65,220.3563 28.4,220.3563 Q28.0938,220.3563 27.8375,220.4875 Q27.5875,220.6188 27.3875,220.9188 Q27.1938,221.2188 27.1938,221.6313 L27.1938,222.0688 Q27.1938,222.5625 27.55,222.8938 Q27.9063,223.2188 28.5438,223.2188 Q28.9188,223.2188 29.1813,223.1188 Q29.3375,223.0563 29.5063,222.8813 Q29.6125,222.775 29.6688,222.7438 Q29.7313,222.7125 29.8125,222.7125 Q29.9438,222.7125 30.0438,222.8188 Q30.15,222.9188 30.15,223.0563 Q30.15,223.1938 30.0125,223.3563 Q29.8125,223.5875 29.4938,223.7188 Q29.0625,223.9 28.5438,223.9 Q27.9375,223.9 27.4563,223.65 Q27.0625,223.45 26.7875,223.025 Q26.5125,222.5938 26.5125,222.0813 L26.5125,221.6188 Q26.5125,221.0875 26.7563,220.6313 Q27.0063,220.1688 27.4438,219.925 Q27.8813,219.675 28.375,219.675 Q28.6688,219.675 28.925,219.7438 Q29.1875,219.8063 29.4063,219.95 Z " fill="#000000"/><text fill="#000000" font-family="sans-serif" font-size="5.6" lengthAdjust="spacing" textLength="19.6" x="36.5" y="223.9188">Agenda</text><line style="stroke:#181818;stroke-width:0.20000000000000004;" x1="7.2" x2="72.4" y1="228" y2="228"/><line style="stroke:#181818;stroke-width:0.20000000000000004;" x1="7.2" x2="72.4" y1="231.2" y2="231.2"/><text fill="#000000" font-family="sans-serif" font-size="5.6" lengthAdjust="spacing" textLength="61.2" x="9.2" y="238.843">+getEntryByIndex(index)</text></g><!--class Entry--><g id="elem_Entry"><rect codeLine="27" fill="#F1F1F1" height="63.8906" id="Entry" rx="1" ry="1" style="stroke:#181818;stroke-width:0.20000000000000004;" width="86.8" x="24" y="266.4"/><ellipse cx="59.1" cy="272.8" fill="#ADD1B2" rx="4.4" ry="4.4" style="stroke:#181818;stroke-width:0.4000000000000001;"/><path d="M60.2063,271.15 Q60.2688,271.0625 60.3438,271.0188 Q60.4188,270.975 60.5063,270.975 Q60.6563,270.975 60.75,271.0813 Q60.8438,271.1813 60.8438,271.425 L60.8438,272.0063 Q60.8438,272.25 60.75,272.3563 Q60.6563,272.4625 60.5063,272.4625 Q60.3688,272.4625 60.2875,272.3813 Q60.2063,272.3063 60.1625,272.1 Q60.1438,271.9563 60.0688,271.8813 Q59.9375,271.7313 59.6938,271.6438 Q59.45,271.5563 59.2,271.5563 Q58.8938,271.5563 58.6375,271.6875 Q58.3875,271.8188 58.1875,272.1188 Q57.9938,272.4188 57.9938,272.8313 L57.9938,273.2688 Q57.9938,273.7625 58.35,274.0938 Q58.7063,274.4188 59.3438,274.4188 Q59.7188,274.4188 59.9813,274.3188 Q60.1375,274.2563 60.3063,274.0813 Q60.4125,273.975 60.4688,273.9438 Q60.5313,273.9125 60.6125,273.9125 Q60.7438,273.9125 60.8438,274.0188 Q60.95,274.1188 60.95,274.2563 Q60.95,274.3938 60.8125,274.5563 Q60.6125,274.7875 60.2938,274.9188 Q59.8625,275.1 59.3438,275.1 Q58.7375,275.1 58.2563,274.85 Q57.8625,274.65 57.5875,274.225 Q57.3125,273.7938 57.3125,273.2813 L57.3125,272.8188 Q57.3125,272.2875 57.5563,271.8313 Q57.8063,271.3688 58.2438,271.125 Q58.6813,270.875 59.175,270.875 Q59.4688,270.875 59.725,270.9438 Q59.9875,271.0063 60.2063,271.15 Z " fill="#000000"/><text fill="#000000" font-family="sans-serif" font-size="5.6" lengthAdjust="spacing" textLength="13.2" x="67.3" y="275.1188">Entry</text><line style="stroke:#181818;stroke-width:0.20000000000000004;" x1="24.4" x2="110.4" y1="279.2" y2="279.2"/><text fill="#000000" font-family="sans-serif" font-size="5.6" lengthAdjust="spacing" textLength="46.4" x="26.4" y="286.843">-Date startingDate</text><text fill="#000000" font-family="sans-serif" font-size="5.6" lengthAdjust="spacing" textLength="54.4" x="26.4" y="294.2914">-AgendaStatus status</text><text fill="#000000" font-family="sans-serif" font-size="5.6" lengthAdjust="spacing" textLength="26.4" x="26.4" y="301.7398">-Task task</text><text fill="#000000" font-family="sans-serif" font-size="5.6" lengthAdjust="spacing" textLength="74.4" x="26.4" y="309.1883">-List&lt;Vehicle&gt; vehiclesAssign</text><line style="stroke:#181818;stroke-width:0.20000000000000004;" x1="24.4" x2="110.4" y1="312.1938" y2="312.1938"/><text fill="#000000" font-family="sans-serif" font-size="5.6" lengthAdjust="spacing" textLength="64.8" x="26.4" y="319.8367">+Entry(startingDate, task)</text><text fill="#000000" font-family="sans-serif" font-size="5.6" lengthAdjust="spacing" textLength="82" x="26.4" y="327.2852">+assignVehicles(vehiclesAssign)</text></g><!--class VehicleRepository--><g id="elem_VehicleRepository"><rect codeLine="36" fill="#F1F1F1" height="26.6484" id="VehicleRepository" rx="1" ry="1" style="stroke:#181818;stroke-width:0.20000000000000004;" width="109.2" x="86.8" y="215.2"/><ellipse cx="116.9" cy="221.6" fill="#ADD1B2" rx="4.4" ry="4.4" style="stroke:#181818;stroke-width:0.4000000000000001;"/><path d="M118.0063,219.95 Q118.0688,219.8625 118.1438,219.8188 Q118.2188,219.775 118.3063,219.775 Q118.4563,219.775 118.55,219.8813 Q118.6438,219.9813 118.6438,220.225 L118.6438,220.8063 Q118.6438,221.05 118.55,221.1563 Q118.4563,221.2625 118.3063,221.2625 Q118.1688,221.2625 118.0875,221.1813 Q118.0063,221.1063 117.9625,220.9 Q117.9438,220.7563 117.8688,220.6813 Q117.7375,220.5313 117.4938,220.4438 Q117.25,220.3563 117,220.3563 Q116.6938,220.3563 116.4375,220.4875 Q116.1875,220.6188 115.9875,220.9188 Q115.7938,221.2188 115.7938,221.6313 L115.7938,222.0688 Q115.7938,222.5625 116.15,222.8938 Q116.5063,223.2188 117.1438,223.2188 Q117.5188,223.2188 117.7813,223.1188 Q117.9375,223.0563 118.1063,222.8813 Q118.2125,222.775 118.2688,222.7438 Q118.3313,222.7125 118.4125,222.7125 Q118.5438,222.7125 118.6438,222.8188 Q118.75,222.9188 118.75,223.0563 Q118.75,223.1938 118.6125,223.3563 Q118.4125,223.5875 118.0938,223.7188 Q117.6625,223.9 117.1438,223.9 Q116.5375,223.9 116.0563,223.65 Q115.6625,223.45 115.3875,223.025 Q115.1125,222.5938 115.1125,222.0813 L115.1125,221.6188 Q115.1125,221.0875 115.3563,220.6313 Q115.6063,220.1688 116.0438,219.925 Q116.4813,219.675 116.975,219.675 Q117.2688,219.675 117.525,219.7438 Q117.7875,219.8063 118.0063,219.95 Z " fill="#000000"/><text fill="#000000" font-family="sans-serif" font-size="5.6" lengthAdjust="spacing" textLength="45.6" x="125.1" y="223.9188">VehicleRepository</text><line style="stroke:#181818;stroke-width:0.20000000000000004;" x1="87.2" x2="195.6" y1="228" y2="228"/><line style="stroke:#181818;stroke-width:0.20000000000000004;" x1="87.2" x2="195.6" y1="231.2" y2="231.2"/><text fill="#000000" font-family="sans-serif" font-size="5.6" lengthAdjust="spacing" textLength="104.4" x="89.2" y="238.843">+getVehicleByPlateNumber(plateNumber)</text></g><!--class Vehicle--><g id="elem_Vehicle"><rect codeLine="40" fill="#F1F1F1" height="34.0969" id="Vehicle" rx="1" ry="1" style="stroke:#181818;stroke-width:0.20000000000000004;" width="55.2" x="76.6" y="354.8"/><ellipse cx="93.4" cy="361.2" fill="#ADD1B2" rx="4.4" ry="4.4" style="stroke:#181818;stroke-width:0.4000000000000001;"/><path d="M94.5063,359.55 Q94.5688,359.4625 94.6438,359.4188 Q94.7188,359.375 94.8063,359.375 Q94.9563,359.375 95.05,359.4813 Q95.1438,359.5813 95.1438,359.825 L95.1438,360.4063 Q95.1438,360.65 95.05,360.7563 Q94.9563,360.8625 94.8063,360.8625 Q94.6688,360.8625 94.5875,360.7813 Q94.5063,360.7063 94.4625,360.5 Q94.4438,360.3563 94.3688,360.2813 Q94.2375,360.1313 93.9938,360.0438 Q93.75,359.9563 93.5,359.9563 Q93.1938,359.9563 92.9375,360.0875 Q92.6875,360.2188 92.4875,360.5188 Q92.2938,360.8188 92.2938,361.2313 L92.2938,361.6688 Q92.2938,362.1625 92.65,362.4938 Q93.0063,362.8188 93.6438,362.8188 Q94.0188,362.8188 94.2813,362.7188 Q94.4375,362.6563 94.6063,362.4813 Q94.7125,362.375 94.7688,362.3438 Q94.8313,362.3125 94.9125,362.3125 Q95.0438,362.3125 95.1438,362.4188 Q95.25,362.5188 95.25,362.6563 Q95.25,362.7938 95.1125,362.9563 Q94.9125,363.1875 94.5938,363.3188 Q94.1625,363.5 93.6438,363.5 Q93.0375,363.5 92.5563,363.25 Q92.1625,363.05 91.8875,362.625 Q91.6125,362.1938 91.6125,361.6813 L91.6125,361.2188 Q91.6125,360.6875 91.8563,360.2313 Q92.1063,359.7688 92.5438,359.525 Q92.9813,359.275 93.475,359.275 Q93.7688,359.275 94.025,359.3438 Q94.2875,359.4063 94.5063,359.55 Z " fill="#000000"/><text fill="#000000" font-family="sans-serif" font-size="5.6" lengthAdjust="spacing" textLength="18.4" x="101.4" y="363.5188">Vehicle</text><line style="stroke:#181818;stroke-width:0.20000000000000004;" x1="77" x2="131.4" y1="367.6" y2="367.6"/><text fill="#000000" font-family="sans-serif" font-size="5.6" lengthAdjust="spacing" textLength="50.4" x="79" y="375.243">-String plateNumber</text><line style="stroke:#181818;stroke-width:0.20000000000000004;" x1="77" x2="131.4" y1="378.2484" y2="378.2484"/><text fill="#000000" font-family="sans-serif" font-size="5.6" lengthAdjust="spacing" textLength="47.6" x="79" y="385.8914">+getPlateNumber()</text></g><!--class Repositories--><g id="elem_Repositories"><rect codeLine="45" fill="#F1F1F1" height="48.9938" id="Repositories" rx="1" ry="1" style="stroke:#181818;stroke-width:0.20000000000000004;" width="77.6" x="43" y="142"/><ellipse cx="64.3" cy="148.4" fill="#ADD1B2" rx="4.4" ry="4.4" style="stroke:#181818;stroke-width:0.4000000000000001;"/><path d="M65.4063,146.75 Q65.4688,146.6625 65.5438,146.6188 Q65.6188,146.575 65.7063,146.575 Q65.8563,146.575 65.95,146.6813 Q66.0438,146.7813 66.0438,147.025 L66.0438,147.6063 Q66.0438,147.85 65.95,147.9563 Q65.8563,148.0625 65.7063,148.0625 Q65.5688,148.0625 65.4875,147.9813 Q65.4063,147.9063 65.3625,147.7 Q65.3438,147.5563 65.2688,147.4813 Q65.1375,147.3313 64.8938,147.2438 Q64.65,147.1563 64.4,147.1563 Q64.0938,147.1563 63.8375,147.2875 Q63.5875,147.4188 63.3875,147.7188 Q63.1938,148.0188 63.1938,148.4313 L63.1938,148.8688 Q63.1938,149.3625 63.55,149.6938 Q63.9063,150.0188 64.5438,150.0188 Q64.9188,150.0188 65.1813,149.9188 Q65.3375,149.8563 65.5063,149.6813 Q65.6125,149.575 65.6688,149.5438 Q65.7313,149.5125 65.8125,149.5125 Q65.9438,149.5125 66.0438,149.6188 Q66.15,149.7188 66.15,149.8563 Q66.15,149.9938 66.0125,150.1563 Q65.8125,150.3875 65.4938,150.5188 Q65.0625,150.7 64.5438,150.7 Q63.9375,150.7 63.4563,150.45 Q63.0625,150.25 62.7875,149.825 Q62.5125,149.3938 62.5125,148.8813 L62.5125,148.4188 Q62.5125,147.8875 62.7563,147.4313 Q63.0063,146.9688 63.4438,146.725 Q63.8813,146.475 64.375,146.475 Q64.6688,146.475 64.925,146.5438 Q65.1875,146.6063 65.4063,146.75 Z " fill="#000000"/><text fill="#000000" font-family="sans-serif" font-size="5.6" lengthAdjust="spacing" textLength="31.6" x="72.5" y="150.7188">Repositories</text><line style="stroke:#181818;stroke-width:0.20000000000000004;" x1="43.4" x2="120.2" y1="154.8" y2="154.8"/><line style="stroke:#181818;stroke-width:0.20000000000000004;" x1="43.4" x2="120.2" y1="158" y2="158"/><text fill="#000000" font-family="sans-serif" font-size="5.6" lengthAdjust="spacing" textLength="37.6" x="45.4" y="165.643">-Repositories()</text><text fill="#000000" font-family="sans-serif" font-size="5.6" lengthAdjust="spacing" textLength="72.8" x="45.4" y="173.0914">+getInstance() : Repositories</text><text fill="#000000" font-family="sans-serif" font-size="5.6" lengthAdjust="spacing" textLength="34.8" x="45.4" y="180.5398">+getAgenda()</text><text fill="#000000" font-family="sans-serif" font-size="5.6" lengthAdjust="spacing" textLength="60.8" x="45.4" y="187.9883">+getVehicleRepository()</text></g><!--link AssignVehiclesUI to AssignVehiclesController--><g id="link_AssignVehiclesUI_AssignVehiclesController"><path codeLine="52" d="M81.8,22.004 C81.8,28.428 81.8,35.012 81.8,43.908 " fill="none" id="AssignVehiclesUI-to-AssignVehiclesController" style="stroke:#181818;stroke-width:0.4000000000000001;stroke-dasharray:7.0,7.0;"/><polygon fill="#181818" points="81.8,46.308,83.4,42.708,81.8,44.308,80.2,42.708,81.8,46.308" style="stroke:#181818;stroke-width:0.4000000000000001;"/></g><!--link AssignVehiclesController to Repositories--><g id="link_AssignVehiclesController_Repositories"><path codeLine="53" d="M81.8,110.404 C81.8,120.788 81.8,129.752 81.8,139.488 " fill="none" id="AssignVehiclesController-to-Repositories" style="stroke:#181818;stroke-width:0.4000000000000001;stroke-dasharray:7.0,7.0;"/><polygon fill="#181818" points="81.8,141.888,83.4,138.288,81.8,139.888,80.2,138.288,81.8,141.888" style="stroke:#181818;stroke-width:0.4000000000000001;"/><text fill="#000000" font-family="sans-serif" font-size="5.2" lengthAdjust="spacing" textLength="26.8" x="82.2" y="128.4113">repositories</text></g><!--link AssignVehiclesController to Agenda--><g id="link_AssignVehiclesController_Agenda"><path codeLine="54" d="M49.812,110.584 C33.976,126.324 18.2,142 18.2,142 C18.2,142 18.2,190.8 18.2,190.8 C18.2,190.8 24.8157,202.2577 31.0437,213.0417 " fill="none" id="AssignVehiclesController-to-Agenda" style="stroke:#181818;stroke-width:0.4000000000000001;stroke-dasharray:7.0,7.0;"/><polygon fill="#181818" points="32.244,215.12,31.8291,211.2024,31.2438,213.3881,29.0581,212.8027,32.244,215.12" style="stroke:#181818;stroke-width:0.4000000000000001;"/><text fill="#000000" font-family="sans-serif" font-size="5.2" lengthAdjust="spacing" textLength="16.8" x="18.6" y="168.6113">agenda</text></g><!--link AssignVehiclesController to VehicleRepository--><g id="link_AssignVehiclesController_VehicleRepository"><path codeLine="55" d="M120.712,110.492 C140.076,126.26 159.4,142 159.4,142 C159.4,142 159.4,190.8 159.4,190.8 C159.4,190.8 153.9291,202.1736 148.7371,212.9576 " fill="none" id="AssignVehiclesController-to-VehicleRepository" style="stroke:#181818;stroke-width:0.4000000000000001;stroke-dasharray:7.0,7.0;"/><polygon fill="#181818" points="147.696,215.12,150.6993,212.5704,148.5636,213.318,147.816,211.1823,147.696,215.12" style="stroke:#181818;stroke-width:0.4000000000000001;"/><text fill="#000000" font-family="sans-serif" font-size="5.2" lengthAdjust="spacing" textLength="40.4" x="159.8" y="168.6113">vehicleRepository</text></g><!--link Repositories to Repositories--><g id="link_Repositories_Repositories"><path codeLine="56" d="M120.712,159.888 C128.792,160.572 134.6,162.744 134.6,166.4 C134.6,170.056 131.1834,172.0256 123.1034,172.7096 " fill="none" id="Repositories-to-Repositories" style="stroke:#181818;stroke-width:0.4000000000000001;"/><polygon fill="#181818" points="120.712,172.912,124.4341,174.2026,122.7049,172.7433,124.1642,171.014,120.712,172.912" style="stroke:#181818;stroke-width:0.4000000000000001;"/><text fill="#000000" font-family="sans-serif" font-size="5.2" lengthAdjust="spacing" textLength="19.6" x="137" y="168.6113">instance</text></g><!--link Repositories to Agenda--><g id="link_Repositories_Agenda"><path codeLine="57" d="M65.32,190.892 C59.668,199.156 54.911,206.1111 50.087,213.1631 " fill="none" id="Repositories-to-Agenda" style="stroke:#181818;stroke-width:0.4000000000000001;"/><polygon fill="#181818" points="48.732,215.144,52.0851,213.076,49.8612,213.4933,49.444,211.2693,48.732,215.144" style="stroke:#181818;stroke-width:0.4000000000000001;"/><text fill="#000000" font-family="sans-serif" font-size="5.2" lengthAdjust="spacing" textLength="2.8" x="47.4149" y="210.6632">1</text></g><!--link Repositories to VehicleRepository--><g id="link_Repositories_VehicleRepository"><path codeLine="58" d="M105.184,190.892 C113.208,199.156 120.208,206.3702 127.056,213.4222 " fill="none" id="Repositories-to-VehicleRepository" style="stroke:#181818;stroke-width:0.4000000000000001;"/><polygon fill="#181818" points="128.728,215.144,127.3679,211.4467,127.3347,213.7092,125.0722,213.676,128.728,215.144" style="stroke:#181818;stroke-width:0.4000000000000001;"/><text fill="#000000" font-family="sans-serif" font-size="5.2" lengthAdjust="spacing" textLength="2.8" x="123.1576" y="210.6632">1</text></g><!--link Agenda to Entry--><g id="link_Agenda_Entry"><path codeLine="59" d="M45.056,242.14 C47.808,249.024 50.4161,255.5439 53.8281,264.0679 " fill="none" id="Agenda-to-Entry" style="stroke:#181818;stroke-width:0.4000000000000001;"/><polygon fill="#181818" points="54.72,266.296,54.8676,262.3592,53.9768,264.4392,51.8968,263.5484,54.72,266.296" style="stroke:#181818;stroke-width:0.4000000000000001;"/><text fill="#000000" font-family="sans-serif" font-size="5.2" lengthAdjust="spacing" textLength="2" x="51.4589" y="261.8447">*</text></g><!--link VehicleRepository to Vehicle--><g id="link_VehicleRepository_Vehicle"><path codeLine="60" d="M138.364,242.048 C131.988,269.436 117.8,330.4 117.8,330.4 C117.8,330.4 114.2513,341.094 110.4873,352.446 " fill="none" id="VehicleRepository-to-Vehicle" style="stroke:#181818;stroke-width:0.4000000000000001;"/><polygon fill="#181818" points="109.732,354.724,112.3837,351.8105,110.3614,352.8256,109.3463,350.8034,109.732,354.724" style="stroke:#181818;stroke-width:0.4000000000000001;"/><text fill="#000000" font-family="sans-serif" font-size="5.2" lengthAdjust="spacing" textLength="2" x="108.4543" y="350.2735">*</text></g><!--link Entry to Vehicle--><g id="link_Entry_Vehicle"><path codeLine="61" d="M83.432,330.432 C87.656,338.764 90.9628,345.2834 94.6148,352.4874 " fill="none" id="Entry-to-Vehicle" style="stroke:#181818;stroke-width:0.4000000000000001;"/><polygon fill="#181818" points="95.7,354.628,95.4993,350.6936,94.7957,352.8441,92.6451,352.1405,95.7,354.628" style="stroke:#181818;stroke-width:0.4000000000000001;"/><text fill="#000000" font-family="sans-serif" font-size="5.2" lengthAdjust="spacing" textLength="2" x="92.2453" y="350.2907">*</text></g><!--SRC=[VLJFJy8m5BxthtZXmbGmUYN6HDG3YJ56r7iPpz5GsgLzgDFulzkjtTQn8OUHzllHxxtkRMotGkNSy1tijDBfnkWT0faziXR9URhb6Iwfa0W6K-8gap71RlXQVmgLmJkNDaQaK4X5Zf1hMPGBDXu0jI7D8bKgkRKtH4QizeIBLAkb-4QuO6miyPs0D1YHRGZMeemZj6Aiqi2DjI9JRxWHgKJxke0VzZkCtMf5Hak9nd70_SwEuOchNQtv13uyz8ovjeAqAKwya7U4B_hUAOkWMgWrVZLI-oGvuUD-jqBZnTCCgUBFYugQYFBPOi5rNaJA9BZrpCw2cK3x82mbxMuTBcotFQb2rXquagLXLs0WJ-_SuM296t8NNoxyjdTS4gUzBM7tvu4NRhT0xk6NPPAh4EkwwO-_0v_6jp4-OLBf1xkUT1sYq6-7jnPLEzZTF6xheKrT_T9rsRtl4RSnZRqYWoQ0kvtQfRDPNnSuZuLoTQiKanEOTKWjnJSw5lKgzSVtPkBy_FheCB2ZKrAguYGpzoc8Slshyrbdu6VYVswlYbb_y5YdcTFfOJ8HsjVdZIv78SqmrZkTXH6f2ASZFmEi_rBLU42OdvN3tJy0]--></g></svg>