<?xml version="1.0" encoding="us-ascii" standalone="no"?><svg xmlns="http://www.w3.org/2000/svg" xmlns:xlink="http://www.w3.org/1999/xlink" contentStyleType="text/css" height="518.7px" preserveAspectRatio="none" style="width:488px;height:518px;background:#FFFFFF;" version="1.1" viewBox="0 0 488 518" width="488.7px" zoomAndPan="magnify"><defs/><g><rect fill="#FFFFFF" height="449.315" style="stroke:#181818;stroke-width:0.3;" width="3" x="14.55" y="33.6727"/><rect fill="#FFFFFF" height="97.5721" style="stroke:#181818;stroke-width:0.3;" width="3" x="143.85" y="40.66"/><rect fill="#FFFFFF" height="84.4857" style="stroke:#181818;stroke-width:0.3;" width="3" x="143.85" y="147.6193"/><rect fill="#FFFFFF" height="9.3873" style="stroke:#181818;stroke-width:0.3;" width="3" x="143.85" y="241.4924"/><rect fill="#FFFFFF" height="222.7207" style="stroke:#181818;stroke-width:0.3;" width="3" x="143.85" y="260.267"/><rect fill="#FFFFFF" height="65.7111" style="stroke:#181818;stroke-width:0.3;" width="3" x="260.85" y="63.1336"/><rect fill="#FFFFFF" height="65.7111" style="stroke:#181818;stroke-width:0.3;" width="3" x="260.85" y="157.0066"/><rect fill="#FFFFFF" height="203.9461" style="stroke:#181818;stroke-width:0.3;" width="3" x="260.85" y="269.6543"/><rect fill="#FFFFFF" height="69.0111" style="stroke:#181818;stroke-width:0.3;" width="3" x="262.35" y="289.3289"/><rect fill="#FFFFFF" height="69.0111" style="stroke:#181818;stroke-width:0.3;" width="3" x="262.35" y="374.3273"/><rect fill="#FFFFFF" height="9.3873" style="stroke:#181818;stroke-width:0.3;" width="3" x="355.65" y="72.5209"/><rect fill="#FFFFFF" height="9.3873" style="stroke:#181818;stroke-width:0.3;" width="3" x="355.65" y="166.3939"/><rect fill="#FFFFFF" height="9.3873" style="stroke:#181818;stroke-width:0.3;" width="3" x="355.65" y="300.2162"/><rect fill="#FFFFFF" height="9.3873" style="stroke:#181818;stroke-width:0.3;" width="3" x="355.65" y="385.2146"/><rect fill="#FFFFFF" height="9.3873" style="stroke:#181818;stroke-width:0.3;" width="3" x="387.75" y="91.2955"/><rect fill="#FFFFFF" height="9.3873" style="stroke:#181818;stroke-width:0.3;" width="3" x="387.75" y="185.1686"/><rect fill="#FFFFFF" height="9.3873" style="stroke:#181818;stroke-width:0.3;" width="3" x="387.75" y="318.9908"/><rect fill="#FFFFFF" height="9.3873" style="stroke:#181818;stroke-width:0.3;" width="3" x="387.75" y="403.9893"/><rect fill="#FFFFFF" height="9.3873" style="stroke:#181818;stroke-width:0.3;" width="3" x="415.2" y="110.0701"/><rect fill="#FFFFFF" height="9.3873" style="stroke:#181818;stroke-width:0.3;" width="3" x="415.2" y="422.7639"/><rect fill="#FFFFFF" height="9.3873" style="stroke:#181818;stroke-width:0.3;" width="3" x="447.6" y="203.9432"/><rect fill="#FFFFFF" height="9.3873" style="stroke:#181818;stroke-width:0.3;" width="3" x="447.6" y="337.7654"/><rect fill="#FFFFFF" height="9.3873" style="stroke:#181818;stroke-width:0.3;" width="3" x="477.75" y="454.8258"/><rect fill="none" height="88.6857" style="stroke:#000000;stroke-width:0.44999999999999996;" width="238.5" x="233.1" y="274.1543"/><line style="stroke:#181818;stroke-width:0.15;stroke-dasharray:5.0,5.0;" x1="15.9" x2="15.9" y1="30.6727" y2="488.3877"/><line style="stroke:#181818;stroke-width:0.15;stroke-dasharray:5.0,5.0;" x1="145.2" x2="145.2" y1="30.6727" y2="488.3877"/><line style="stroke:#181818;stroke-width:0.15;stroke-dasharray:5.0,5.0;" x1="262.2" x2="262.2" y1="52.6031" y2="488.3877"/><line style="stroke:#181818;stroke-width:0.15;stroke-dasharray:5.0,5.0;" x1="357" x2="357" y1="30.6727" y2="488.3877"/><line style="stroke:#181818;stroke-width:0.15;stroke-dasharray:5.0,5.0;" x1="389.1" x2="389.1" y1="30.6727" y2="488.3877"/><line style="stroke:#181818;stroke-width:0.15;stroke-dasharray:5.0,5.0;" x1="416.7" x2="416.7" y1="30.6727" y2="488.3877"/><line style="stroke:#181818;stroke-width:0.15;stroke-dasharray:5.0,5.0;" x1="449.1" x2="449.1" y1="30.6727" y2="488.3877"/><line style="stroke:#181818;stroke-width:0.15;stroke-dasharray:5.0,5.0;" x1="479.1" x2="479.1" y1="30.6727" y2="488.3877"/><text fill="#000000" font-family="sans-serif" font-size="4.2" lengthAdjust="spacing" textLength="27.3" x="1.5" y="24.0322">Green Spaces</text><text fill="#000000" font-family="sans-serif" font-size="4.2" lengthAdjust="spacing" textLength="16.8" x="6.75" y="29.6186">Manager</text><ellipse cx="16.05" cy="4.05" fill="#E3E3E3" rx="2.4" ry="2.4" style="stroke:#181818;stroke-width:0.15;"/><path d="M16.05,6.45 L16.05,14.55 M12.15,8.85 L19.95,8.85 M16.05,14.55 L12.15,19.05 M16.05,14.55 L19.95,19.05 " fill="none" style="stroke:#181818;stroke-width:0.15;"/><text fill="#000000" font-family="sans-serif" font-size="4.2" lengthAdjust="spacing" textLength="27.3" x="1.5" y="492.6199">Green Spaces</text><text fill="#000000" font-family="sans-serif" font-size="4.2" lengthAdjust="spacing" textLength="16.8" x="6.75" y="498.2062">Manager</text><ellipse cx="16.05" cy="501.8104" fill="#E3E3E3" rx="2.4" ry="2.4" style="stroke:#181818;stroke-width:0.15;"/><path d="M16.05,504.2104 L16.05,512.3104 M12.15,506.6104 L19.95,506.6104 M16.05,512.3104 L12.15,516.8104 M16.05,512.3104 L19.95,516.8104 " fill="none" style="stroke:#181818;stroke-width:0.15;"/><rect fill="#E3E3E3" height="9.7863" rx="0.75" ry="0.75" style="stroke:#181818;stroke-width:0.15;" width="37.5" x="126.6" y="20.5863"/><text fill="#000000" font-family="sans-serif" font-size="4.2" lengthAdjust="spacing" textLength="33.3" x="128.7" y="27.2186">:AssignVehiclesUI</text><rect fill="#E3E3E3" height="9.7863" rx="0.75" ry="0.75" style="stroke:#181818;stroke-width:0.15;" width="37.5" x="126.6" y="488.0877"/><text fill="#000000" font-family="sans-serif" font-size="4.2" lengthAdjust="spacing" textLength="33.3" x="128.7" y="494.7199">:AssignVehiclesUI</text><rect fill="#E3E3E3" height="9.7863" rx="0.75" ry="0.75" style="stroke:#181818;stroke-width:0.15;" width="52.5" x="236.1" y="488.0877"/><text fill="#000000" font-family="sans-serif" font-size="4.2" lengthAdjust="spacing" textLength="48.3" x="238.2" y="494.7199">:AssignVehiclesController</text><rect fill="#E3E3E3" height="9.7863" rx="0.75" ry="0.75" style="stroke:#181818;stroke-width:0.15;" width="29.1" x="342.6" y="20.5863"/><text fill="#000000" font-family="sans-serif" font-size="4.2" lengthAdjust="spacing" textLength="24.9" x="344.7" y="27.2186">:Repositories</text><rect fill="#E3E3E3" height="9.7863" rx="0.75" ry="0.75" style="stroke:#181818;stroke-width:0.15;" width="29.1" x="342.6" y="488.0877"/><text fill="#000000" font-family="sans-serif" font-size="4.2" lengthAdjust="spacing" textLength="24.9" x="344.7" y="494.7199">:Repositories</text><rect fill="#E3E3E3" height="15.3727" rx="0.75" ry="0.75" style="stroke:#181818;stroke-width:0.15;" width="29.1" x="374.7" y="15"/><text fill="#000000" font-family="sans-serif" font-size="4.2" lengthAdjust="spacing" textLength="22.2" x="378.15" y="21.6322">repositories</text><text fill="#000000" font-family="sans-serif" font-size="4.2" lengthAdjust="spacing" textLength="24.9" x="376.8" y="27.2186">:Repositories</text><rect fill="#E3E3E3" height="15.3727" rx="0.75" ry="0.75" style="stroke:#181818;stroke-width:0.15;" width="29.1" x="374.7" y="488.0877"/><text fill="#000000" font-family="sans-serif" font-size="4.2" lengthAdjust="spacing" textLength="22.2" x="378.15" y="494.7199">repositories</text><text fill="#000000" font-family="sans-serif" font-size="4.2" lengthAdjust="spacing" textLength="24.9" x="376.8" y="500.3063">:Repositories</text><rect fill="#E3E3E3" height="15.3727" rx="0.75" ry="0.75" style="stroke:#181818;stroke-width:0.15;" width="19.8" x="406.8" y="15"/><text fill="#000000" font-family="sans-serif" font-size="4.2" lengthAdjust="spacing" textLength="15.6" x="408.9" y="21.6322">agenda:</text><text fill="#000000" font-family="sans-serif" font-size="4.2" lengthAdjust="spacing" textLength="14.7" x="409.35" y="27.2186">Agenda</text><rect fill="#E3E3E3" height="15.3727" rx="0.75" ry="0.75" style="stroke:#181818;stroke-width:0.15;" width="19.8" x="406.8" y="488.0877"/><text fill="#000000" font-family="sans-serif" font-size="4.2" lengthAdjust="spacing" textLength="15.6" x="408.9" y="494.7199">agenda:</text><text fill="#000000" font-family="sans-serif" font-size="4.2" lengthAdjust="spacing" textLength="14.7" x="409.35" y="500.3063">Agenda</text><rect fill="#E3E3E3" height="15.3727" rx="0.75" ry="0.75" style="stroke:#181818;stroke-width:0.15;" width="39" x="429.6" y="15"/><text fill="#000000" font-family="sans-serif" font-size="4.2" lengthAdjust="spacing" textLength="34.8" x="431.7" y="21.6322">vehicleRepository:</text><text fill="#000000" font-family="sans-serif" font-size="4.2" lengthAdjust="spacing" textLength="34.2" x="432" y="27.2186">VehicleRepository</text><rect fill="#E3E3E3" height="15.3727" rx="0.75" ry="0.75" style="stroke:#181818;stroke-width:0.15;" width="39" x="429.6" y="488.0877"/><text fill="#000000" font-family="sans-serif" font-size="4.2" lengthAdjust="spacing" textLength="34.8" x="431.7" y="494.7199">vehicleRepository:</text><text fill="#000000" font-family="sans-serif" font-size="4.2" lengthAdjust="spacing" textLength="34.2" x="432" y="500.3063">VehicleRepository</text><rect fill="#E3E3E3" height="15.3727" rx="0.75" ry="0.75" style="stroke:#181818;stroke-width:0.15;" width="15.3" x="471.6" y="15"/><text fill="#000000" font-family="sans-serif" font-size="4.2" lengthAdjust="spacing" textLength="9.6" x="474.45" y="21.6322">entry</text><text fill="#000000" font-family="sans-serif" font-size="4.2" lengthAdjust="spacing" textLength="11.1" x="473.7" y="27.2186">:Entry</text><rect fill="#E3E3E3" height="15.3727" rx="0.75" ry="0.75" style="stroke:#181818;stroke-width:0.15;" width="15.3" x="471.6" y="488.0877"/><text fill="#000000" font-family="sans-serif" font-size="4.2" lengthAdjust="spacing" textLength="9.6" x="474.45" y="494.7199">entry</text><text fill="#000000" font-family="sans-serif" font-size="4.2" lengthAdjust="spacing" textLength="11.1" x="473.7" y="500.3063">:Entry</text><rect fill="#FFFFFF" height="449.315" style="stroke:#181818;stroke-width:0.3;" width="3" x="14.55" y="33.6727"/><rect fill="#FFFFFF" height="97.5721" style="stroke:#181818;stroke-width:0.3;" width="3" x="143.85" y="40.66"/><rect fill="#FFFFFF" height="84.4857" style="stroke:#181818;stroke-width:0.3;" width="3" x="143.85" y="147.6193"/><rect fill="#FFFFFF" height="9.3873" style="stroke:#181818;stroke-width:0.3;" width="3" x="143.85" y="241.4924"/><rect fill="#FFFFFF" height="222.7207" style="stroke:#181818;stroke-width:0.3;" width="3" x="143.85" y="260.267"/><rect fill="#FFFFFF" height="65.7111" style="stroke:#181818;stroke-width:0.3;" width="3" x="260.85" y="63.1336"/><rect fill="#FFFFFF" height="65.7111" style="stroke:#181818;stroke-width:0.3;" width="3" x="260.85" y="157.0066"/><rect fill="#FFFFFF" height="203.9461" style="stroke:#181818;stroke-width:0.3;" width="3" x="260.85" y="269.6543"/><rect fill="#FFFFFF" height="69.0111" style="stroke:#181818;stroke-width:0.3;" width="3" x="262.35" y="289.3289"/><rect fill="#FFFFFF" height="69.0111" style="stroke:#181818;stroke-width:0.3;" width="3" x="262.35" y="374.3273"/><rect fill="#FFFFFF" height="9.3873" style="stroke:#181818;stroke-width:0.3;" width="3" x="355.65" y="72.5209"/><rect fill="#FFFFFF" height="9.3873" style="stroke:#181818;stroke-width:0.3;" width="3" x="355.65" y="166.3939"/><rect fill="#FFFFFF" height="9.3873" style="stroke:#181818;stroke-width:0.3;" width="3" x="355.65" y="300.2162"/><rect fill="#FFFFFF" height="9.3873" style="stroke:#181818;stroke-width:0.3;" width="3" x="355.65" y="385.2146"/><rect fill="#FFFFFF" height="9.3873" style="stroke:#181818;stroke-width:0.3;" width="3" x="387.75" y="91.2955"/><rect fill="#FFFFFF" height="9.3873" style="stroke:#181818;stroke-width:0.3;" width="3" x="387.75" y="185.1686"/><rect fill="#FFFFFF" height="9.3873" style="stroke:#181818;stroke-width:0.3;" width="3" x="387.75" y="318.9908"/><rect fill="#FFFFFF" height="9.3873" style="stroke:#181818;stroke-width:0.3;" width="3" x="387.75" y="403.9893"/><rect fill="#FFFFFF" height="9.3873" style="stroke:#181818;stroke-width:0.3;" width="3" x="415.2" y="110.0701"/><rect fill="#FFFFFF" height="9.3873" style="stroke:#181818;stroke-width:0.3;" width="3" x="415.2" y="422.7639"/><rect fill="#FFFFFF" height="9.3873" style="stroke:#181818;stroke-width:0.3;" width="3" x="447.6" y="203.9432"/><rect fill="#FFFFFF" height="9.3873" style="stroke:#181818;stroke-width:0.3;" width="3" x="447.6" y="337.7654"/><rect fill="#FFFFFF" height="9.3873" style="stroke:#181818;stroke-width:0.3;" width="3" x="477.75" y="454.8258"/><polygon fill="#181818" points="140.25,39.46,143.25,40.66,140.25,41.86,141.45,40.66" style="stroke:#181818;stroke-width:0.3;"/><line style="stroke:#181818;stroke-width:0.3;" x1="17.55" x2="142.05" y1="40.66" y2="40.66"/><text fill="#000000" font-family="sans-serif" font-size="3.9" font-weight="bold" lengthAdjust="spacing" textLength="2.1" x="19.65" y="39.0812">1</text><text fill="#000000" font-family="sans-serif" font-size="3.9" lengthAdjust="spacing" textLength="106.8" x="22.95" y="39.0812">asks to assign one or more vehicles to an entry in the agenda</text><polygon fill="#181818" points="232.5,48.8473,235.5,50.0473,232.5,51.2473,233.7,50.0473" style="stroke:#181818;stroke-width:0.3;"/><line style="stroke:#181818;stroke-width:0.3;" x1="146.85" x2="234.3" y1="50.0473" y2="50.0473"/><text fill="#000000" font-family="sans-serif" font-size="3.9" font-weight="bold" lengthAdjust="spacing" textLength="2.1" x="148.95" y="48.4685">2</text><text fill="#000000" font-family="sans-serif" font-size="3.9" lengthAdjust="spacing" textLength="10.8" x="152.25" y="48.4685">create</text><rect fill="#E3E3E3" height="9.7863" rx="0.75" ry="0.75" style="stroke:#181818;stroke-width:0.15;" width="52.5" x="236.1" y="43.06"/><text fill="#000000" font-family="sans-serif" font-size="4.2" lengthAdjust="spacing" textLength="48.3" x="238.2" y="49.6922">:AssignVehiclesController</text><polygon fill="#181818" points="257.25,61.9336,260.25,63.1336,257.25,64.3336,258.45,63.1336" style="stroke:#181818;stroke-width:0.3;"/><line style="stroke:#181818;stroke-width:0.3;" x1="146.85" x2="259.05" y1="63.1336" y2="63.1336"/><text fill="#000000" font-family="sans-serif" font-size="3.9" font-weight="bold" lengthAdjust="spacing" textLength="2.1" x="148.95" y="61.5548">3</text><text fill="#000000" font-family="sans-serif" font-size="3.9" lengthAdjust="spacing" textLength="26.4" x="152.25" y="61.5548">getEntriesList()</text><polygon fill="#181818" points="352.05,71.3209,355.05,72.5209,352.05,73.7209,353.25,72.5209" style="stroke:#181818;stroke-width:0.3;"/><line style="stroke:#181818;stroke-width:0.3;" x1="263.85" x2="353.85" y1="72.5209" y2="72.5209"/><text fill="#000000" font-family="sans-serif" font-size="3.9" font-weight="bold" lengthAdjust="spacing" textLength="2.1" x="265.95" y="70.9421">4</text><text fill="#000000" font-family="sans-serif" font-size="3.9" lengthAdjust="spacing" textLength="22.5" x="269.25" y="70.9421">getInstance()</text><polygon fill="#181818" points="267.15,80.7082,264.15,81.9082,267.15,83.1082,265.95,81.9082" style="stroke:#181818;stroke-width:0.3;"/><line style="stroke:#181818;stroke-width:0.3;stroke-dasharray:2.0,2.0;" x1="265.35" x2="356.85" y1="81.9082" y2="81.9082"/><text fill="#000000" font-family="sans-serif" font-size="3.9" font-weight="bold" lengthAdjust="spacing" textLength="2.1" x="268.95" y="80.3294">5</text><text fill="#000000" font-family="sans-serif" font-size="3.9" lengthAdjust="spacing" textLength="20.1" x="272.25" y="80.3294">repositories</text><polygon fill="#181818" points="384.15,90.0955,387.15,91.2955,384.15,92.4955,385.35,91.2955" style="stroke:#181818;stroke-width:0.3;"/><line style="stroke:#181818;stroke-width:0.3;" x1="263.85" x2="385.95" y1="91.2955" y2="91.2955"/><text fill="#000000" font-family="sans-serif" font-size="3.9" font-weight="bold" lengthAdjust="spacing" textLength="2.1" x="265.95" y="89.7167">6</text><text fill="#000000" font-family="sans-serif" font-size="3.9" lengthAdjust="spacing" textLength="21" x="269.25" y="89.7167">getAgenda()</text><polygon fill="#181818" points="267.15,99.4828,264.15,100.6828,267.15,101.8828,265.95,100.6828" style="stroke:#181818;stroke-width:0.3;"/><line style="stroke:#181818;stroke-width:0.3;stroke-dasharray:2.0,2.0;" x1="265.35" x2="388.95" y1="100.6828" y2="100.6828"/><text fill="#000000" font-family="sans-serif" font-size="3.9" font-weight="bold" lengthAdjust="spacing" textLength="2.1" x="268.95" y="99.104">7</text><text fill="#000000" font-family="sans-serif" font-size="3.9" lengthAdjust="spacing" textLength="12.6" x="272.25" y="99.104">agenda</text><polygon fill="#181818" points="411.6,108.8701,414.6,110.0701,411.6,111.2701,412.8,110.0701" style="stroke:#181818;stroke-width:0.3;"/><line style="stroke:#181818;stroke-width:0.3;" x1="263.85" x2="413.4" y1="110.0701" y2="110.0701"/><text fill="#000000" font-family="sans-serif" font-size="3.9" font-weight="bold" lengthAdjust="spacing" textLength="2.1" x="265.95" y="108.4913">8</text><text fill="#000000" font-family="sans-serif" font-size="3.9" lengthAdjust="spacing" textLength="26.4" x="269.25" y="108.4913">getEntriesList()</text><polygon fill="#181818" points="267.15,118.2574,264.15,119.4574,267.15,120.6574,265.95,119.4574" style="stroke:#181818;stroke-width:0.3;"/><line style="stroke:#181818;stroke-width:0.3;stroke-dasharray:2.0,2.0;" x1="265.35" x2="416.4" y1="119.4574" y2="119.4574"/><text fill="#000000" font-family="sans-serif" font-size="3.9" font-weight="bold" lengthAdjust="spacing" textLength="2.1" x="268.95" y="117.8786">9</text><text fill="#000000" font-family="sans-serif" font-size="3.9" lengthAdjust="spacing" textLength="18" x="272.25" y="117.8786">entriesList</text><polygon fill="#181818" points="150.15,127.6447,147.15,128.8447,150.15,130.0447,148.95,128.8447" style="stroke:#181818;stroke-width:0.3;"/><line style="stroke:#181818;stroke-width:0.3;stroke-dasharray:2.0,2.0;" x1="148.35" x2="262.05" y1="128.8447" y2="128.8447"/><text fill="#000000" font-family="sans-serif" font-size="3.9" font-weight="bold" lengthAdjust="spacing" textLength="4.2" x="151.95" y="127.2659">10</text><text fill="#000000" font-family="sans-serif" font-size="3.9" lengthAdjust="spacing" textLength="18" x="157.35" y="127.2659">entriesList</text><polygon fill="#181818" points="20.85,137.032,17.85,138.232,20.85,139.432,19.65,138.232" style="stroke:#181818;stroke-width:0.3;"/><line style="stroke:#181818;stroke-width:0.3;stroke-dasharray:2.0,2.0;" x1="19.05" x2="145.05" y1="138.232" y2="138.232"/><text fill="#000000" font-family="sans-serif" font-size="3.9" font-weight="bold" lengthAdjust="spacing" textLength="4.2" x="22.65" y="136.6532">11</text><text fill="#000000" font-family="sans-serif" font-size="3.9" lengthAdjust="spacing" textLength="73.5" x="28.05" y="136.6532">shows agenda and asks to select an entry</text><polygon fill="#181818" points="140.25,146.4193,143.25,147.6193,140.25,148.8193,141.45,147.6193" style="stroke:#181818;stroke-width:0.3;"/><line style="stroke:#181818;stroke-width:0.3;" x1="17.55" x2="142.05" y1="147.6193" y2="147.6193"/><text fill="#000000" font-family="sans-serif" font-size="3.9" font-weight="bold" lengthAdjust="spacing" textLength="4.2" x="19.65" y="146.0405">12</text><text fill="#000000" font-family="sans-serif" font-size="3.9" lengthAdjust="spacing" textLength="52.5" x="25.05" y="146.0405">selects an entry in the agenda</text><polygon fill="#181818" points="257.25,155.8066,260.25,157.0066,257.25,158.2066,258.45,157.0066" style="stroke:#181818;stroke-width:0.3;"/><line style="stroke:#181818;stroke-width:0.3;" x1="146.85" x2="259.05" y1="157.0066" y2="157.0066"/><text fill="#000000" font-family="sans-serif" font-size="3.9" font-weight="bold" lengthAdjust="spacing" textLength="4.2" x="148.95" y="155.4278">13</text><text fill="#000000" font-family="sans-serif" font-size="3.9" lengthAdjust="spacing" textLength="29.1" x="154.35" y="155.4278">getVehiclesList()</text><polygon fill="#181818" points="352.05,165.1939,355.05,166.3939,352.05,167.5939,353.25,166.3939" style="stroke:#181818;stroke-width:0.3;"/><line style="stroke:#181818;stroke-width:0.3;" x1="263.85" x2="353.85" y1="166.3939" y2="166.3939"/><text fill="#000000" font-family="sans-serif" font-size="3.9" font-weight="bold" lengthAdjust="spacing" textLength="4.2" x="265.95" y="164.8151">14</text><text fill="#000000" font-family="sans-serif" font-size="3.9" lengthAdjust="spacing" textLength="22.5" x="271.35" y="164.8151">getInstance()</text><polygon fill="#181818" points="267.15,174.5812,264.15,175.7813,267.15,176.9813,265.95,175.7813" style="stroke:#181818;stroke-width:0.3;"/><line style="stroke:#181818;stroke-width:0.3;stroke-dasharray:2.0,2.0;" x1="265.35" x2="356.85" y1="175.7813" y2="175.7813"/><text fill="#000000" font-family="sans-serif" font-size="3.9" font-weight="bold" lengthAdjust="spacing" textLength="4.2" x="268.95" y="174.2024">15</text><text fill="#000000" font-family="sans-serif" font-size="3.9" lengthAdjust="spacing" textLength="20.1" x="274.35" y="174.2024">repositories</text><polygon fill="#181818" points="384.15,183.9686,387.15,185.1686,384.15,186.3686,385.35,185.1686" style="stroke:#181818;stroke-width:0.3;"/><line style="stroke:#181818;stroke-width:0.3;" x1="263.85" x2="385.95" y1="185.1686" y2="185.1686"/><text fill="#000000" font-family="sans-serif" font-size="3.9" font-weight="bold" lengthAdjust="spacing" textLength="4.2" x="265.95" y="183.5897">16</text><text fill="#000000" font-family="sans-serif" font-size="3.9" lengthAdjust="spacing" textLength="39.3" x="271.35" y="183.5897">getVehicleRepository()</text><polygon fill="#181818" points="267.15,193.3559,264.15,194.5559,267.15,195.7559,265.95,194.5559" style="stroke:#181818;stroke-width:0.3;"/><line style="stroke:#181818;stroke-width:0.3;stroke-dasharray:2.0,2.0;" x1="265.35" x2="388.95" y1="194.5559" y2="194.5559"/><text fill="#000000" font-family="sans-serif" font-size="3.9" font-weight="bold" lengthAdjust="spacing" textLength="4.2" x="268.95" y="192.9771">17</text><text fill="#000000" font-family="sans-serif" font-size="3.9" lengthAdjust="spacing" textLength="30.3" x="274.35" y="192.9771">vehicleRepository</text><polygon fill="#181818" points="444,202.7432,447,203.9432,444,205.1432,445.2,203.9432" style="stroke:#181818;stroke-width:0.3;"/><line style="stroke:#181818;stroke-width:0.3;" x1="263.85" x2="445.8" y1="203.9432" y2="203.9432"/><text fill="#000000" font-family="sans-serif" font-size="3.9" font-weight="bold" lengthAdjust="spacing" textLength="4.2" x="265.95" y="202.3644">18</text><text fill="#000000" font-family="sans-serif" font-size="3.9" lengthAdjust="spacing" textLength="29.1" x="271.35" y="202.3644">getVehiclesList()</text><polygon fill="#181818" points="267.15,212.1305,264.15,213.3305,267.15,214.5305,265.95,213.3305" style="stroke:#181818;stroke-width:0.3;"/><line style="stroke:#181818;stroke-width:0.3;stroke-dasharray:2.0,2.0;" x1="265.35" x2="448.8" y1="213.3305" y2="213.3305"/><text fill="#000000" font-family="sans-serif" font-size="3.9" font-weight="bold" lengthAdjust="spacing" textLength="4.2" x="268.95" y="211.7517">19</text><text fill="#000000" font-family="sans-serif" font-size="3.9" lengthAdjust="spacing" textLength="20.1" x="274.35" y="211.7517">vehiclesList</text><polygon fill="#181818" points="150.15,221.5178,147.15,222.7178,150.15,223.9178,148.95,222.7178" style="stroke:#181818;stroke-width:0.3;"/><line style="stroke:#181818;stroke-width:0.3;stroke-dasharray:2.0,2.0;" x1="148.35" x2="262.05" y1="222.7178" y2="222.7178"/><text fill="#000000" font-family="sans-serif" font-size="3.9" font-weight="bold" lengthAdjust="spacing" textLength="4.2" x="151.95" y="221.139">20</text><text fill="#000000" font-family="sans-serif" font-size="3.9" lengthAdjust="spacing" textLength="20.1" x="157.35" y="221.139">vehiclesList</text><polygon fill="#181818" points="20.85,230.9051,17.85,232.1051,20.85,233.3051,19.65,232.1051" style="stroke:#181818;stroke-width:0.3;"/><line style="stroke:#181818;stroke-width:0.3;stroke-dasharray:2.0,2.0;" x1="19.05" x2="145.05" y1="232.1051" y2="232.1051"/><text fill="#000000" font-family="sans-serif" font-size="3.9" font-weight="bold" lengthAdjust="spacing" textLength="4.2" x="22.65" y="230.5263">21</text><text fill="#000000" font-family="sans-serif" font-size="3.9" lengthAdjust="spacing" textLength="87.6" x="28.05" y="230.5263">shows vehicles list and asks to select one or more</text><polygon fill="#181818" points="140.25,240.2924,143.25,241.4924,140.25,242.6924,141.45,241.4924" style="stroke:#181818;stroke-width:0.3;"/><line style="stroke:#181818;stroke-width:0.3;" x1="17.55" x2="142.05" y1="241.4924" y2="241.4924"/><text fill="#000000" font-family="sans-serif" font-size="3.9" font-weight="bold" lengthAdjust="spacing" textLength="4.2" x="19.65" y="239.9136">22</text><text fill="#000000" font-family="sans-serif" font-size="3.9" lengthAdjust="spacing" textLength="115.2" x="25.05" y="239.9136">selects one or more vehicles and assign to the entry in the agenda</text><polygon fill="#181818" points="20.85,249.6797,17.85,250.8797,20.85,252.0797,19.65,250.8797" style="stroke:#181818;stroke-width:0.3;"/><line style="stroke:#181818;stroke-width:0.3;stroke-dasharray:2.0,2.0;" x1="19.05" x2="145.05" y1="250.8797" y2="250.8797"/><text fill="#000000" font-family="sans-serif" font-size="3.9" font-weight="bold" lengthAdjust="spacing" textLength="4.2" x="22.65" y="249.3009">23</text><text fill="#000000" font-family="sans-serif" font-size="3.9" lengthAdjust="spacing" textLength="70.8" x="28.05" y="249.3009">shows all data and requests confirmation</text><polygon fill="#181818" points="140.25,259.067,143.25,260.267,140.25,261.467,141.45,260.267" style="stroke:#181818;stroke-width:0.3;"/><line style="stroke:#181818;stroke-width:0.3;" x1="17.55" x2="142.05" y1="260.267" y2="260.267"/><text fill="#000000" font-family="sans-serif" font-size="3.9" font-weight="bold" lengthAdjust="spacing" textLength="4.2" x="19.65" y="258.6882">24</text><text fill="#000000" font-family="sans-serif" font-size="3.9" lengthAdjust="spacing" textLength="23.4" x="25.05" y="258.6882">confirms data</text><polygon fill="#181818" points="257.25,268.4543,260.25,269.6543,257.25,270.8543,258.45,269.6543" style="stroke:#181818;stroke-width:0.3;"/><line style="stroke:#181818;stroke-width:0.3;" x1="146.85" x2="259.05" y1="269.6543" y2="269.6543"/><text fill="#000000" font-family="sans-serif" font-size="3.9" font-weight="bold" lengthAdjust="spacing" textLength="4.2" x="148.95" y="268.0755">25</text><text fill="#000000" font-family="sans-serif" font-size="3.9" lengthAdjust="spacing" textLength="102.9" x="154.35" y="268.0755">assignVehiclesToEntry(agendaIndex, vehiclesPlateNumber)</text><path d="M233.1,274.1543 L255,274.1543 L255,276.9416 L252,279.9416 L233.1,279.9416 L233.1,274.1543 " fill="#EEEEEE" style="stroke:#000000;stroke-width:0.44999999999999996;"/><rect fill="none" height="88.6857" style="stroke:#000000;stroke-width:0.44999999999999996;" width="238.5" x="233.1" y="274.1543"/><text fill="#000000" font-family="sans-serif" font-size="3.9" font-weight="bold" lengthAdjust="spacing" textLength="8.4" x="237.6" y="278.6628">loop</text><text fill="#000000" font-family="sans-serif" font-size="3.3" font-weight="bold" lengthAdjust="spacing" textLength="52.2" x="259.5" y="278.3153">[For each vehicle plate number]</text><line style="stroke:#181818;stroke-width:0.3;" x1="263.85" x2="277.95" y1="285.4289" y2="285.4289"/><line style="stroke:#181818;stroke-width:0.3;" x1="277.95" x2="277.95" y1="285.4289" y2="289.3289"/><line style="stroke:#181818;stroke-width:0.3;" x1="265.65" x2="277.95" y1="289.3289" y2="289.3289"/><polygon fill="#181818" points="268.65,288.1289,265.65,289.3289,268.65,290.5289,267.45,289.3289" style="stroke:#181818;stroke-width:0.3;"/><text fill="#000000" font-family="sans-serif" font-size="3.9" font-weight="bold" lengthAdjust="spacing" textLength="4.2" x="267.45" y="283.8501">26</text><text fill="#000000" font-family="sans-serif" font-size="3.9" lengthAdjust="spacing" textLength="82.2" x="272.85" y="283.8501">getVehicleByPlateNumber(vehiclePlateNumber)</text><polygon fill="#181818" points="352.05,299.0162,355.05,300.2162,352.05,301.4162,353.25,300.2162" style="stroke:#181818;stroke-width:0.3;"/><line style="stroke:#181818;stroke-width:0.3;" x1="265.35" x2="353.85" y1="300.2162" y2="300.2162"/><text fill="#000000" font-family="sans-serif" font-size="3.9" font-weight="bold" lengthAdjust="spacing" textLength="4.2" x="267.45" y="298.6374">27</text><text fill="#000000" font-family="sans-serif" font-size="3.9" lengthAdjust="spacing" textLength="22.5" x="272.85" y="298.6374">getInstance()</text><polygon fill="#181818" points="268.65,308.4035,265.65,309.6035,268.65,310.8035,267.45,309.6035" style="stroke:#181818;stroke-width:0.3;"/><line style="stroke:#181818;stroke-width:0.3;stroke-dasharray:2.0,2.0;" x1="266.85" x2="356.85" y1="309.6035" y2="309.6035"/><text fill="#000000" font-family="sans-serif" font-size="3.9" font-weight="bold" lengthAdjust="spacing" textLength="4.2" x="270.45" y="308.0247">28</text><text fill="#000000" font-family="sans-serif" font-size="3.9" lengthAdjust="spacing" textLength="20.1" x="275.85" y="308.0247">repositories</text><polygon fill="#181818" points="384.15,317.7908,387.15,318.9908,384.15,320.1908,385.35,318.9908" style="stroke:#181818;stroke-width:0.3;"/><line style="stroke:#181818;stroke-width:0.3;" x1="265.35" x2="385.95" y1="318.9908" y2="318.9908"/><text fill="#000000" font-family="sans-serif" font-size="3.9" font-weight="bold" lengthAdjust="spacing" textLength="4.2" x="267.45" y="317.412">29</text><text fill="#000000" font-family="sans-serif" font-size="3.9" lengthAdjust="spacing" textLength="39.3" x="272.85" y="317.412">getVehicleRepository()</text><polygon fill="#181818" points="268.65,327.1781,265.65,328.3781,268.65,329.5781,267.45,328.3781" style="stroke:#181818;stroke-width:0.3;"/><line style="stroke:#181818;stroke-width:0.3;stroke-dasharray:2.0,2.0;" x1="266.85" x2="388.95" y1="328.3781" y2="328.3781"/><text fill="#000000" font-family="sans-serif" font-size="3.9" font-weight="bold" lengthAdjust="spacing" textLength="4.2" x="270.45" y="326.7993">30</text><text fill="#000000" font-family="sans-serif" font-size="3.9" lengthAdjust="spacing" textLength="30.3" x="275.85" y="326.7993">vehicleRepository</text><polygon fill="#181818" points="444,336.5654,447,337.7654,444,338.9654,445.2,337.7654" style="stroke:#181818;stroke-width:0.3;"/><line style="stroke:#181818;stroke-width:0.3;" x1="265.35" x2="445.8" y1="337.7654" y2="337.7654"/><text fill="#000000" font-family="sans-serif" font-size="3.9" font-weight="bold" lengthAdjust="spacing" textLength="4.2" x="267.45" y="336.1866">31</text><text fill="#000000" font-family="sans-serif" font-size="3.9" lengthAdjust="spacing" textLength="82.2" x="272.85" y="336.1866">getVehicleByPlateNumber(vehiclePlateNumber)</text><polygon fill="#181818" points="268.65,345.9527,265.65,347.1527,268.65,348.3527,267.45,347.1527" style="stroke:#181818;stroke-width:0.3;"/><line style="stroke:#181818;stroke-width:0.3;stroke-dasharray:2.0,2.0;" x1="266.85" x2="448.8" y1="347.1527" y2="347.1527"/><text fill="#000000" font-family="sans-serif" font-size="3.9" font-weight="bold" lengthAdjust="spacing" textLength="4.2" x="270.45" y="345.5739">32</text><text fill="#000000" font-family="sans-serif" font-size="3.9" lengthAdjust="spacing" textLength="11.7" x="275.85" y="345.5739">vehicle</text><line style="stroke:#181818;stroke-width:0.3;stroke-dasharray:2.0,2.0;" x1="265.35" x2="277.95" y1="358.04" y2="358.04"/><line style="stroke:#181818;stroke-width:0.3;stroke-dasharray:2.0,2.0;" x1="277.95" x2="277.95" y1="358.04" y2="361.94"/><line style="stroke:#181818;stroke-width:0.3;stroke-dasharray:2.0,2.0;" x1="263.85" x2="277.95" y1="361.94" y2="361.94"/><polygon fill="#181818" points="266.85,360.74,263.85,361.94,266.85,363.14,265.65,361.94" style="stroke:#181818;stroke-width:0.3;"/><text fill="#000000" font-family="sans-serif" font-size="3.9" font-weight="bold" lengthAdjust="spacing" textLength="4.2" x="267.45" y="356.4612">33</text><text fill="#000000" font-family="sans-serif" font-size="3.9" lengthAdjust="spacing" textLength="11.7" x="272.85" y="356.4612">vehicle</text><line style="stroke:#181818;stroke-width:0.3;" x1="263.85" x2="277.95" y1="370.4273" y2="370.4273"/><line style="stroke:#181818;stroke-width:0.3;" x1="277.95" x2="277.95" y1="370.4273" y2="374.3273"/><line style="stroke:#181818;stroke-width:0.3;" x1="265.65" x2="277.95" y1="374.3273" y2="374.3273"/><polygon fill="#181818" points="268.65,373.1273,265.65,374.3273,268.65,375.5273,267.45,374.3273" style="stroke:#181818;stroke-width:0.3;"/><text fill="#000000" font-family="sans-serif" font-size="3.9" font-weight="bold" lengthAdjust="spacing" textLength="4.2" x="267.45" y="368.8485">34</text><text fill="#000000" font-family="sans-serif" font-size="3.9" lengthAdjust="spacing" textLength="40.5" x="272.85" y="368.8485">getEntryByIndex(index)</text><polygon fill="#181818" points="352.05,384.0146,355.05,385.2146,352.05,386.4146,353.25,385.2146" style="stroke:#181818;stroke-width:0.3;"/><line style="stroke:#181818;stroke-width:0.3;" x1="265.35" x2="353.85" y1="385.2146" y2="385.2146"/><text fill="#000000" font-family="sans-serif" font-size="3.9" font-weight="bold" lengthAdjust="spacing" textLength="4.2" x="267.45" y="383.6358">35</text><text fill="#000000" font-family="sans-serif" font-size="3.9" lengthAdjust="spacing" textLength="22.5" x="272.85" y="383.6358">getInstance()</text><polygon fill="#181818" points="268.65,393.402,265.65,394.602,268.65,395.802,267.45,394.602" style="stroke:#181818;stroke-width:0.3;"/><line style="stroke:#181818;stroke-width:0.3;stroke-dasharray:2.0,2.0;" x1="266.85" x2="356.85" y1="394.602" y2="394.602"/><text fill="#000000" font-family="sans-serif" font-size="3.9" font-weight="bold" lengthAdjust="spacing" textLength="4.2" x="270.45" y="393.0231">36</text><text fill="#000000" font-family="sans-serif" font-size="3.9" lengthAdjust="spacing" textLength="20.1" x="275.85" y="393.0231">repositories</text><polygon fill="#181818" points="384.15,402.7893,387.15,403.9893,384.15,405.1893,385.35,403.9893" style="stroke:#181818;stroke-width:0.3;"/><line style="stroke:#181818;stroke-width:0.3;" x1="265.35" x2="385.95" y1="403.9893" y2="403.9893"/><text fill="#000000" font-family="sans-serif" font-size="3.9" font-weight="bold" lengthAdjust="spacing" textLength="4.2" x="267.45" y="402.4104">37</text><text fill="#000000" font-family="sans-serif" font-size="3.9" lengthAdjust="spacing" textLength="21" x="272.85" y="402.4104">getAgenda()</text><polygon fill="#181818" points="268.65,412.1766,265.65,413.3766,268.65,414.5766,267.45,413.3766" style="stroke:#181818;stroke-width:0.3;"/><line style="stroke:#181818;stroke-width:0.3;stroke-dasharray:2.0,2.0;" x1="266.85" x2="388.95" y1="413.3766" y2="413.3766"/><text fill="#000000" font-family="sans-serif" font-size="3.9" font-weight="bold" lengthAdjust="spacing" textLength="4.2" x="270.45" y="411.7978">38</text><text fill="#000000" font-family="sans-serif" font-size="3.9" lengthAdjust="spacing" textLength="12.6" x="275.85" y="411.7978">agenda</text><polygon fill="#181818" points="411.6,421.5639,414.6,422.7639,411.6,423.9639,412.8,422.7639" style="stroke:#181818;stroke-width:0.3;"/><line style="stroke:#181818;stroke-width:0.3;" x1="265.35" x2="413.4" y1="422.7639" y2="422.7639"/><text fill="#000000" font-family="sans-serif" font-size="3.9" font-weight="bold" lengthAdjust="spacing" textLength="4.2" x="267.45" y="421.1851">39</text><text fill="#000000" font-family="sans-serif" font-size="3.9" lengthAdjust="spacing" textLength="40.5" x="272.85" y="421.1851">getEntryByIndex(index)</text><polygon fill="#181818" points="268.65,430.9512,265.65,432.1512,268.65,433.3512,267.45,432.1512" style="stroke:#181818;stroke-width:0.3;"/><line style="stroke:#181818;stroke-width:0.3;stroke-dasharray:2.0,2.0;" x1="266.85" x2="416.4" y1="432.1512" y2="432.1512"/><text fill="#000000" font-family="sans-serif" font-size="3.9" font-weight="bold" lengthAdjust="spacing" textLength="4.2" x="270.45" y="430.5724">40</text><text fill="#000000" font-family="sans-serif" font-size="3.9" lengthAdjust="spacing" textLength="8.7" x="275.85" y="430.5724">entry</text><line style="stroke:#181818;stroke-width:0.3;stroke-dasharray:2.0,2.0;" x1="265.35" x2="277.95" y1="443.0385" y2="443.0385"/><line style="stroke:#181818;stroke-width:0.3;stroke-dasharray:2.0,2.0;" x1="277.95" x2="277.95" y1="443.0385" y2="446.9385"/><line style="stroke:#181818;stroke-width:0.3;stroke-dasharray:2.0,2.0;" x1="263.85" x2="277.95" y1="446.9385" y2="446.9385"/><polygon fill="#181818" points="266.85,445.7385,263.85,446.9385,266.85,448.1385,265.65,446.9385" style="stroke:#181818;stroke-width:0.3;"/><text fill="#000000" font-family="sans-serif" font-size="3.9" font-weight="bold" lengthAdjust="spacing" textLength="4.2" x="267.45" y="441.4597">41</text><text fill="#000000" font-family="sans-serif" font-size="3.9" lengthAdjust="spacing" textLength="8.7" x="272.85" y="441.4597">entry</text><polygon fill="#181818" points="474.15,453.6258,477.15,454.8258,474.15,456.0258,475.35,454.8258" style="stroke:#181818;stroke-width:0.3;"/><line style="stroke:#181818;stroke-width:0.3;" x1="263.85" x2="475.95" y1="454.8258" y2="454.8258"/><text fill="#000000" font-family="sans-serif" font-size="3.9" font-weight="bold" lengthAdjust="spacing" textLength="4.2" x="265.95" y="453.247">42</text><text fill="#000000" font-family="sans-serif" font-size="3.9" lengthAdjust="spacing" textLength="58.8" x="271.35" y="453.247">assignVehicles(vehiclesToAssign)</text><polygon fill="#181818" points="267.15,463.0131,264.15,464.2131,267.15,465.4131,265.95,464.2131" style="stroke:#181818;stroke-width:0.3;"/><line style="stroke:#181818;stroke-width:0.3;stroke-dasharray:2.0,2.0;" x1="265.35" x2="478.95" y1="464.2131" y2="464.2131"/><text fill="#000000" font-family="sans-serif" font-size="3.9" font-weight="bold" lengthAdjust="spacing" textLength="4.2" x="268.95" y="462.6343">43</text><text fill="#000000" font-family="sans-serif" font-size="3.9" lengthAdjust="spacing" textLength="8.7" x="274.35" y="462.6343">entry</text><polygon fill="#181818" points="150.15,472.4004,147.15,473.6004,150.15,474.8004,148.95,473.6004" style="stroke:#181818;stroke-width:0.3;"/><line style="stroke:#181818;stroke-width:0.3;stroke-dasharray:2.0,2.0;" x1="148.35" x2="262.05" y1="473.6004" y2="473.6004"/><text fill="#000000" font-family="sans-serif" font-size="3.9" font-weight="bold" lengthAdjust="spacing" textLength="4.2" x="151.95" y="472.0216">44</text><text fill="#000000" font-family="sans-serif" font-size="3.9" lengthAdjust="spacing" textLength="8.7" x="157.35" y="472.0216">entry</text><polygon fill="#181818" points="19.35,481.7877,16.35,482.9877,19.35,484.1877,18.15,482.9877" style="stroke:#181818;stroke-width:0.3;"/><line style="stroke:#181818;stroke-width:0.3;stroke-dasharray:2.0,2.0;" x1="17.55" x2="145.05" y1="482.9877" y2="482.9877"/><text fill="#000000" font-family="sans-serif" font-size="3.9" font-weight="bold" lengthAdjust="spacing" textLength="4.2" x="21.15" y="481.4089">45</text><text fill="#000000" font-family="sans-serif" font-size="3.9" lengthAdjust="spacing" textLength="47.4" x="26.55" y="481.4089">displays operation success</text><!--SRC=[rLTDJ-Cm4BtdLuouR1SjVo27bG01gWG8DGLf9Iuc6LgBrCxQRg7_ViTs4kmaBQ5xWHpwOS-yUHw_6JlwXOkAARQ2bHGoNogvGZ1gZObkPogMlx05PcPR8YZC3HEBCZJGIrR8LouMyCnAZKd2raQAzUe9LPByMF82uLbAyoJV4fORgU3eIY4Ao0WPzQEuOOBmrH4m3LVPJKAeXkUyOiB0KNggDL-81rpol4HzFtLczzEzLkTI62NBiWOzdy-kE_OphAJcH8QZTZQpYxlOH0KMZsBG8OizQ16YOEcZE7K_d9KVY-qsdcMBk2MNX-wOy-vPna18gzmIjmlxxHmkRkUpFubDCzymWowT2T13F-3aD-KDKh9xqM0aVTkSWHG8j2ahgR09wAS5k0301PWbDaknQ2q-xOCRi0zXKmIRw-DZYf8h98kXQPfSeB6aAPVNN9l9pzQgHNPxrWxRnxaI12NU8qo59Ytc6BX747PBendhULAJI27SuCYimDqG0OdCi_2RlOT3rYEH1Io2h0x7puO9r6BRdSc8HXqbddHZBHLQ3Ru3xIBK1V9q6cKD0GJExtjgnK1ELfKfzG_vsbGAgQve1Qgnf7RJ2Z7fm3NY2xNjNVH_YDVlQjD9lhqyUutbOANscz6dHTllV7jo7R7h1u_iUjEXh3S1_YxEU_1ZYG-2ZTLusrvByXwIUj2BFwFsmHRkuLsBfm2s24PNn51vbYKKpFW2LVXtZPe2vr8ySxLYXainXd1jhntKc6fCwoKq6fbBTzXDFFkfAF3jLxlakvA0Rjt5OrJ9bb9MS4c98zBB1WKgYmBD_ML8nfxOktBFja7aIOqpI6Py3_aIBUIRTP03z-7WtjAkw82k4dMMKM1zkL09E0r_e59NCMTRLomJRZ-_jo2_nerhL4P7tBlIu78pui8re9kz_hltrBqhTFjhKpNKQFqhrOw5rIyQuPmR6akhun-SiLt73yxM50gkgMLlwHIiKBcJ2FGwfpTBFNGY1N_joz4_]--></g></svg>