<?xml version="1.0" encoding="us-ascii" standalone="no"?><svg xmlns="http://www.w3.org/2000/svg" xmlns:xlink="http://www.w3.org/1999/xlink" contentStyleType="text/css" height="1012px" preserveAspectRatio="none" style="width:920px;height:1012px;background:#FFFFFF;" version="1.1" viewBox="0 0 920 1012" width="920.5px" zoomAndPan="magnify"><defs/><g><rect fill="#FFFFFF" height="896.207" style="stroke:#181818;stroke-width:0.5;" width="5" x="24.25" y="56.1211"/><rect fill="#FFFFFF" height="162.6201" style="stroke:#181818;stroke-width:0.5;" width="5" x="168.25" y="67.7666"/><rect fill="#FFFFFF" height="15.6455" style="stroke:#181818;stroke-width:0.5;" width="5" x="168.25" y="246.0322"/><rect fill="#FFFFFF" height="15.6455" style="stroke:#181818;stroke-width:0.5;" width="5" x="168.25" y="277.3232"/><rect fill="#FFFFFF" height="643.7139" style="stroke:#181818;stroke-width:0.5;" width="5" x="168.25" y="308.6143"/><rect fill="#FFFFFF" height="109.5186" style="stroke:#181818;stroke-width:0.5;" width="5" x="312.25" y="105.2227"/><rect fill="#FFFFFF" height="612.4229" style="stroke:#181818;stroke-width:0.5;" width="5" x="312.25" y="324.2598"/><rect fill="#FFFFFF" height="115.0186" style="stroke:#181818;stroke-width:0.5;" width="5" x="314.75" y="343.9053"/><rect fill="#FFFFFF" height="177.6006" style="stroke:#181818;stroke-width:0.5;" width="5" x="314.75" y="482.0693"/><rect fill="#FFFFFF" height="15.6455" style="stroke:#181818;stroke-width:0.5;" width="5" x="399.75" y="120.8682"/><rect fill="#FFFFFF" height="15.6455" style="stroke:#181818;stroke-width:0.5;" width="5" x="399.75" y="362.0508"/><rect fill="#FFFFFF" height="15.6455" style="stroke:#181818;stroke-width:0.5;" width="5" x="399.75" y="500.2148"/><rect fill="#FFFFFF" height="15.6455" style="stroke:#181818;stroke-width:0.5;" width="5" x="399.75" y="678.8154"/><rect fill="#FFFFFF" height="15.6455" style="stroke:#181818;stroke-width:0.5;" width="5" x="453.25" y="152.1592"/><rect fill="#FFFFFF" height="15.6455" style="stroke:#181818;stroke-width:0.5;" width="5" x="453.25" y="393.3418"/><rect fill="#FFFFFF" height="15.6455" style="stroke:#181818;stroke-width:0.5;" width="5" x="453.25" y="531.5059"/><rect fill="#FFFFFF" height="15.6455" style="stroke:#181818;stroke-width:0.5;" width="5" x="453.25" y="710.1064"/><rect fill="#FFFFFF" height="15.6455" style="stroke:#181818;stroke-width:0.5;" width="5" x="500.25" y="183.4502"/><rect fill="#FFFFFF" height="15.6455" style="stroke:#181818;stroke-width:0.5;" width="5" x="500.25" y="424.6328"/><rect fill="#FFFFFF" height="15.6455" style="stroke:#181818;stroke-width:0.5;" width="5" x="566.75" y="562.7969"/><rect fill="#FFFFFF" height="15.6455" style="stroke:#181818;stroke-width:0.5;" width="5" x="654.25" y="594.0879"/><rect fill="#FFFFFF" height="15.6455" style="stroke:#181818;stroke-width:0.5;" width="5" x="721.25" y="625.3789"/><rect fill="#FFFFFF" height="179.6396" style="stroke:#181818;stroke-width:0.5;" width="5" x="766" y="741.3975"/><rect fill="#FFFFFF" height="109.7275" style="stroke:#181818;stroke-width:0.5;" width="5" x="768.5" y="792.1641"/><rect fill="#FFFFFF" height="65.4365" style="stroke:#181818;stroke-width:0.5;" width="5" x="771" y="814.3096"/><rect fill="#FFFFFF" height="21.1455" style="stroke:#181818;stroke-width:0.5;" width="5" x="773.5" y="836.4551"/><line style="stroke:#181818;stroke-width:0.25;stroke-dasharray:5.0,5.0;" x1="26.5" x2="26.5" y1="51.1211" y2="961.3281"/><line style="stroke:#181818;stroke-width:0.25;stroke-dasharray:5.0,5.0;" x1="170.5" x2="170.5" y1="51.1211" y2="961.3281"/><line style="stroke:#181818;stroke-width:0.25;stroke-dasharray:5.0,5.0;" x1="314.75" x2="314.75" y1="87.6719" y2="961.3281"/><line style="stroke:#181818;stroke-width:0.25;stroke-dasharray:5.0,5.0;" x1="402" x2="402" y1="51.1211" y2="961.3281"/><line style="stroke:#181818;stroke-width:0.25;stroke-dasharray:5.0,5.0;" x1="455.5" x2="455.5" y1="51.1211" y2="961.3281"/><line style="stroke:#181818;stroke-width:0.25;stroke-dasharray:5.0,5.0;" x1="502.5" x2="502.5" y1="51.1211" y2="961.3281"/><line style="stroke:#181818;stroke-width:0.25;stroke-dasharray:5.0,5.0;" x1="569" x2="569" y1="51.1211" y2="961.3281"/><line style="stroke:#181818;stroke-width:0.25;stroke-dasharray:5.0,5.0;" x1="656.5" x2="656.5" y1="51.1211" y2="961.3281"/><line style="stroke:#181818;stroke-width:0.25;stroke-dasharray:5.0,5.0;" x1="723.5" x2="723.5" y1="51.1211" y2="961.3281"/><line style="stroke:#181818;stroke-width:0.25;stroke-dasharray:5.0,5.0;" x1="768.5" x2="768.5" y1="51.1211" y2="961.3281"/><line style="stroke:#181818;stroke-width:0.25;stroke-dasharray:5.0,5.0;" x1="904.75" x2="904.75" y1="765.958" y2="961.3281"/><text fill="#000000" font-family="sans-serif" font-size="7" lengthAdjust="spacing" textLength="45.5" x="2.5" y="40.0537">Green Spaces</text><text fill="#000000" font-family="sans-serif" font-size="7" lengthAdjust="spacing" textLength="28" x="11.25" y="49.3643">Manager</text><ellipse cx="26.75" cy="6.75" fill="#E3E3E3" rx="4" ry="4" style="stroke:#181818;stroke-width:0.25;"/><path d="M26.75,10.75 L26.75,24.25 M20.25,14.75 L33.25,14.75 M26.75,24.25 L20.25,31.75 M26.75,24.25 L33.25,31.75 " fill="none" style="stroke:#181818;stroke-width:0.25;"/><text fill="#000000" font-family="sans-serif" font-size="7" lengthAdjust="spacing" textLength="45.5" x="2.5" y="968.3818">Green Spaces</text><text fill="#000000" font-family="sans-serif" font-size="7" lengthAdjust="spacing" textLength="28" x="11.25" y="977.6924">Manager</text><ellipse cx="26.75" cy="983.6992" fill="#E3E3E3" rx="4" ry="4" style="stroke:#181818;stroke-width:0.25;"/><path d="M26.75,987.6992 L26.75,1001.1992 M20.25,991.6992 L33.25,991.6992 M26.75,1001.1992 L20.25,1008.6992 M26.75,1001.1992 L33.25,1008.6992 " fill="none" style="stroke:#181818;stroke-width:0.25;"/><rect fill="#E3E3E3" height="16.3105" rx="1.25" ry="1.25" style="stroke:#181818;stroke-width:0.25;" width="68.5" x="136.5" y="34.3105"/><text fill="#000000" font-family="sans-serif" font-size="7" lengthAdjust="spacing" textLength="61.5" x="140" y="45.3643">:AddEntryAgendaUI</text><rect fill="#E3E3E3" height="16.3105" rx="1.25" ry="1.25" style="stroke:#181818;stroke-width:0.25;" width="68.5" x="136.5" y="960.8281"/><text fill="#000000" font-family="sans-serif" font-size="7" lengthAdjust="spacing" textLength="61.5" x="140" y="971.8818">:AddEntryAgendaUI</text><rect fill="#E3E3E3" height="16.3105" rx="1.25" ry="1.25" style="stroke:#181818;stroke-width:0.25;" width="95" x="267.25" y="960.8281"/><text fill="#000000" font-family="sans-serif" font-size="7" lengthAdjust="spacing" textLength="88" x="270.75" y="971.8818">:AddEntryAgendaControlller</text><rect fill="#E3E3E3" height="16.3105" rx="1.25" ry="1.25" style="stroke:#181818;stroke-width:0.25;" width="48.5" x="378" y="34.3105"/><text fill="#000000" font-family="sans-serif" font-size="7" lengthAdjust="spacing" textLength="41.5" x="381.5" y="45.3643">:Repositories</text><rect fill="#E3E3E3" height="16.3105" rx="1.25" ry="1.25" style="stroke:#181818;stroke-width:0.25;" width="48.5" x="378" y="960.8281"/><text fill="#000000" font-family="sans-serif" font-size="7" lengthAdjust="spacing" textLength="41.5" x="381.5" y="971.8818">:Repositories</text><rect fill="#E3E3E3" height="25.6211" rx="1.25" ry="1.25" style="stroke:#181818;stroke-width:0.25;" width="48.5" x="431.5" y="25"/><text fill="#000000" font-family="sans-serif" font-size="7" lengthAdjust="spacing" textLength="37" x="437.25" y="36.0537">repositories</text><text fill="#000000" font-family="sans-serif" font-size="7" lengthAdjust="spacing" textLength="41.5" x="435" y="45.3643">:Repositories</text><rect fill="#E3E3E3" height="25.6211" rx="1.25" ry="1.25" style="stroke:#181818;stroke-width:0.25;" width="48.5" x="431.5" y="960.8281"/><text fill="#000000" font-family="sans-serif" font-size="7" lengthAdjust="spacing" textLength="37" x="437.25" y="971.8818">repositories</text><text fill="#000000" font-family="sans-serif" font-size="7" lengthAdjust="spacing" textLength="41.5" x="435" y="981.1924">:Repositories</text><rect fill="#E3E3E3" height="25.6211" rx="1.25" ry="1.25" style="stroke:#181818;stroke-width:0.25;" width="35.5" x="485" y="25"/><text fill="#000000" font-family="sans-serif" font-size="7" lengthAdjust="spacing" textLength="28" x="488.75" y="36.0537">toDoList:</text><text fill="#000000" font-family="sans-serif" font-size="7" lengthAdjust="spacing" textLength="28.5" x="488.5" y="45.3643">ToDoList</text><rect fill="#E3E3E3" height="25.6211" rx="1.25" ry="1.25" style="stroke:#181818;stroke-width:0.25;" width="35.5" x="485" y="960.8281"/><text fill="#000000" font-family="sans-serif" font-size="7" lengthAdjust="spacing" textLength="28" x="488.75" y="971.8818">toDoList:</text><text fill="#000000" font-family="sans-serif" font-size="7" lengthAdjust="spacing" textLength="28.5" x="488.5" y="981.1924">ToDoList</text><rect fill="#E3E3E3" height="25.6211" rx="1.25" ry="1.25" style="stroke:#181818;stroke-width:0.25;" width="87.5" x="525.5" y="25"/><text fill="#000000" font-family="sans-serif" font-size="7" lengthAdjust="spacing" textLength="80.5" x="529" y="36.0537">authenticationRepository:</text><text fill="#000000" font-family="sans-serif" font-size="7" lengthAdjust="spacing" textLength="79" x="529.75" y="45.3643">AuthenticationRepository</text><rect fill="#E3E3E3" height="25.6211" rx="1.25" ry="1.25" style="stroke:#181818;stroke-width:0.25;" width="87.5" x="525.5" y="960.8281"/><text fill="#000000" font-family="sans-serif" font-size="7" lengthAdjust="spacing" textLength="80.5" x="529" y="971.8818">authenticationRepository:</text><text fill="#000000" font-family="sans-serif" font-size="7" lengthAdjust="spacing" textLength="79" x="529.75" y="981.1924">AuthenticationRepository</text><rect fill="#E3E3E3" height="25.6211" rx="1.25" ry="1.25" style="stroke:#181818;stroke-width:0.25;" width="77.5" x="618" y="25"/><text fill="#000000" font-family="sans-serif" font-size="7" lengthAdjust="spacing" textLength="70.5" x="621.5" y="36.0537">authenticationFacade:</text><text fill="#000000" font-family="sans-serif" font-size="7" lengthAdjust="spacing" textLength="38.5" x="637.5" y="45.3643">AuthFacade</text><rect fill="#E3E3E3" height="25.6211" rx="1.25" ry="1.25" style="stroke:#181818;stroke-width:0.25;" width="77.5" x="618" y="960.8281"/><text fill="#000000" font-family="sans-serif" font-size="7" lengthAdjust="spacing" textLength="70.5" x="621.5" y="971.8818">authenticationFacade:</text><text fill="#000000" font-family="sans-serif" font-size="7" lengthAdjust="spacing" textLength="38.5" x="637.5" y="981.1924">AuthFacade</text><rect fill="#E3E3E3" height="25.6211" rx="1.25" ry="1.25" style="stroke:#181818;stroke-width:0.25;" width="46.5" x="700.5" y="25"/><text fill="#000000" font-family="sans-serif" font-size="7" lengthAdjust="spacing" textLength="16" x="715.75" y="36.0537">user:</text><text fill="#000000" font-family="sans-serif" font-size="7" lengthAdjust="spacing" textLength="39.5" x="704" y="45.3643">UserSession</text><rect fill="#E3E3E3" height="25.6211" rx="1.25" ry="1.25" style="stroke:#181818;stroke-width:0.25;" width="46.5" x="700.5" y="960.8281"/><text fill="#000000" font-family="sans-serif" font-size="7" lengthAdjust="spacing" textLength="16" x="715.75" y="971.8818">user:</text><text fill="#000000" font-family="sans-serif" font-size="7" lengthAdjust="spacing" textLength="39.5" x="704" y="981.1924">UserSession</text><rect fill="#E3E3E3" height="25.6211" rx="1.25" ry="1.25" style="stroke:#181818;stroke-width:0.25;" width="33" x="752" y="25"/><text fill="#000000" font-family="sans-serif" font-size="7" lengthAdjust="spacing" textLength="26" x="755.5" y="36.0537">agenda:</text><text fill="#000000" font-family="sans-serif" font-size="7" lengthAdjust="spacing" textLength="24.5" x="756.25" y="45.3643">Agenda</text><rect fill="#E3E3E3" height="25.6211" rx="1.25" ry="1.25" style="stroke:#181818;stroke-width:0.25;" width="33" x="752" y="960.8281"/><text fill="#000000" font-family="sans-serif" font-size="7" lengthAdjust="spacing" textLength="26" x="755.5" y="971.8818">agenda:</text><text fill="#000000" font-family="sans-serif" font-size="7" lengthAdjust="spacing" textLength="24.5" x="756.25" y="981.1924">Agenda</text><rect fill="#E3E3E3" height="25.6211" rx="1.25" ry="1.25" style="stroke:#181818;stroke-width:0.25;" width="25.5" x="892.25" y="960.8281"/><text fill="#000000" font-family="sans-serif" font-size="7" lengthAdjust="spacing" textLength="16" x="897" y="971.8818">entry</text><text fill="#000000" font-family="sans-serif" font-size="7" lengthAdjust="spacing" textLength="18.5" x="895.75" y="981.1924">:Entry</text><rect fill="#FFFFFF" height="896.207" style="stroke:#181818;stroke-width:0.5;" width="5" x="24.25" y="56.1211"/><rect fill="#FFFFFF" height="162.6201" style="stroke:#181818;stroke-width:0.5;" width="5" x="168.25" y="67.7666"/><rect fill="#FFFFFF" height="15.6455" style="stroke:#181818;stroke-width:0.5;" width="5" x="168.25" y="246.0322"/><rect fill="#FFFFFF" height="15.6455" style="stroke:#181818;stroke-width:0.5;" width="5" x="168.25" y="277.3232"/><rect fill="#FFFFFF" height="643.7139" style="stroke:#181818;stroke-width:0.5;" width="5" x="168.25" y="308.6143"/><rect fill="#FFFFFF" height="109.5186" style="stroke:#181818;stroke-width:0.5;" width="5" x="312.25" y="105.2227"/><rect fill="#FFFFFF" height="612.4229" style="stroke:#181818;stroke-width:0.5;" width="5" x="312.25" y="324.2598"/><rect fill="#FFFFFF" height="115.0186" style="stroke:#181818;stroke-width:0.5;" width="5" x="314.75" y="343.9053"/><rect fill="#FFFFFF" height="177.6006" style="stroke:#181818;stroke-width:0.5;" width="5" x="314.75" y="482.0693"/><rect fill="#FFFFFF" height="15.6455" style="stroke:#181818;stroke-width:0.5;" width="5" x="399.75" y="120.8682"/><rect fill="#FFFFFF" height="15.6455" style="stroke:#181818;stroke-width:0.5;" width="5" x="399.75" y="362.0508"/><rect fill="#FFFFFF" height="15.6455" style="stroke:#181818;stroke-width:0.5;" width="5" x="399.75" y="500.2148"/><rect fill="#FFFFFF" height="15.6455" style="stroke:#181818;stroke-width:0.5;" width="5" x="399.75" y="678.8154"/><rect fill="#FFFFFF" height="15.6455" style="stroke:#181818;stroke-width:0.5;" width="5" x="453.25" y="152.1592"/><rect fill="#FFFFFF" height="15.6455" style="stroke:#181818;stroke-width:0.5;" width="5" x="453.25" y="393.3418"/><rect fill="#FFFFFF" height="15.6455" style="stroke:#181818;stroke-width:0.5;" width="5" x="453.25" y="531.5059"/><rect fill="#FFFFFF" height="15.6455" style="stroke:#181818;stroke-width:0.5;" width="5" x="453.25" y="710.1064"/><rect fill="#FFFFFF" height="15.6455" style="stroke:#181818;stroke-width:0.5;" width="5" x="500.25" y="183.4502"/><rect fill="#FFFFFF" height="15.6455" style="stroke:#181818;stroke-width:0.5;" width="5" x="500.25" y="424.6328"/><rect fill="#FFFFFF" height="15.6455" style="stroke:#181818;stroke-width:0.5;" width="5" x="566.75" y="562.7969"/><rect fill="#FFFFFF" height="15.6455" style="stroke:#181818;stroke-width:0.5;" width="5" x="654.25" y="594.0879"/><rect fill="#FFFFFF" height="15.6455" style="stroke:#181818;stroke-width:0.5;" width="5" x="721.25" y="625.3789"/><rect fill="#FFFFFF" height="179.6396" style="stroke:#181818;stroke-width:0.5;" width="5" x="766" y="741.3975"/><rect fill="#FFFFFF" height="109.7275" style="stroke:#181818;stroke-width:0.5;" width="5" x="768.5" y="792.1641"/><rect fill="#FFFFFF" height="65.4365" style="stroke:#181818;stroke-width:0.5;" width="5" x="771" y="814.3096"/><rect fill="#FFFFFF" height="21.1455" style="stroke:#181818;stroke-width:0.5;" width="5" x="773.5" y="836.4551"/><polygon fill="#181818" points="162.25,65.7666,167.25,67.7666,162.25,69.7666,164.25,67.7666" style="stroke:#181818;stroke-width:0.5;"/><line style="stroke:#181818;stroke-width:0.5;" x1="29.25" x2="165.25" y1="67.7666" y2="67.7666"/><text fill="#000000" font-family="sans-serif" font-size="6.5" font-weight="bold" lengthAdjust="spacing" textLength="3.5" x="32.75" y="65.1353">1</text><text fill="#000000" font-family="sans-serif" font-size="6.5" lengthAdjust="spacing" textLength="111" x="38.25" y="65.1353">asks to add a new entry to the agenda</text><polygon fill="#181818" points="261.25,81.4121,266.25,83.4121,261.25,85.4121,263.25,83.4121" style="stroke:#181818;stroke-width:0.5;"/><line style="stroke:#181818;stroke-width:0.5;" x1="173.25" x2="264.25" y1="83.4121" y2="83.4121"/><text fill="#000000" font-family="sans-serif" font-size="6.5" font-weight="bold" lengthAdjust="spacing" textLength="3.5" x="176.75" y="80.7808">2</text><text fill="#000000" font-family="sans-serif" font-size="6.5" lengthAdjust="spacing" textLength="18" x="182.25" y="80.7808">create</text><rect fill="#E3E3E3" height="16.3105" rx="1.25" ry="1.25" style="stroke:#181818;stroke-width:0.25;" width="95" x="267.25" y="71.7666"/><text fill="#000000" font-family="sans-serif" font-size="7" lengthAdjust="spacing" textLength="88" x="270.75" y="82.8203">:AddEntryAgendaControlller</text><polygon fill="#181818" points="306.25,103.2227,311.25,105.2227,306.25,107.2227,308.25,105.2227" style="stroke:#181818;stroke-width:0.5;"/><line style="stroke:#181818;stroke-width:0.5;" x1="173.25" x2="309.25" y1="105.2227" y2="105.2227"/><text fill="#000000" font-family="sans-serif" font-size="6.5" font-weight="bold" lengthAdjust="spacing" textLength="3.5" x="176.75" y="102.5913">3</text><text fill="#000000" font-family="sans-serif" font-size="6.5" lengthAdjust="spacing" textLength="41" x="182.25" y="102.5913">getTasksList()</text><polygon fill="#181818" points="393.75,118.8682,398.75,120.8682,393.75,122.8682,395.75,120.8682" style="stroke:#181818;stroke-width:0.5;"/><line style="stroke:#181818;stroke-width:0.5;" x1="317.25" x2="396.75" y1="120.8682" y2="120.8682"/><text fill="#000000" font-family="sans-serif" font-size="6.5" font-weight="bold" lengthAdjust="spacing" textLength="3.5" x="320.75" y="118.2368">4</text><text fill="#000000" font-family="sans-serif" font-size="6.5" lengthAdjust="spacing" textLength="37.5" x="326.25" y="118.2368">getInstance()</text><polygon fill="#181818" points="322.75,134.5137,317.75,136.5137,322.75,138.5137,320.75,136.5137" style="stroke:#181818;stroke-width:0.5;"/><line style="stroke:#181818;stroke-width:0.5;stroke-dasharray:2.0,2.0;" x1="319.75" x2="401.75" y1="136.5137" y2="136.5137"/><text fill="#000000" font-family="sans-serif" font-size="6.5" font-weight="bold" lengthAdjust="spacing" textLength="3.5" x="325.75" y="133.8823">5</text><text fill="#000000" font-family="sans-serif" font-size="6.5" lengthAdjust="spacing" textLength="33.5" x="331.25" y="133.8823">repositories</text><polygon fill="#181818" points="447.25,150.1592,452.25,152.1592,447.25,154.1592,449.25,152.1592" style="stroke:#181818;stroke-width:0.5;"/><line style="stroke:#181818;stroke-width:0.5;" x1="317.25" x2="450.25" y1="152.1592" y2="152.1592"/><text fill="#000000" font-family="sans-serif" font-size="6.5" font-weight="bold" lengthAdjust="spacing" textLength="3.5" x="320.75" y="149.5278">6</text><text fill="#000000" font-family="sans-serif" font-size="6.5" lengthAdjust="spacing" textLength="38.5" x="326.25" y="149.5278">getToDoList()</text><polygon fill="#181818" points="322.75,165.8047,317.75,167.8047,322.75,169.8047,320.75,167.8047" style="stroke:#181818;stroke-width:0.5;"/><line style="stroke:#181818;stroke-width:0.5;stroke-dasharray:2.0,2.0;" x1="319.75" x2="455.25" y1="167.8047" y2="167.8047"/><text fill="#000000" font-family="sans-serif" font-size="6.5" font-weight="bold" lengthAdjust="spacing" textLength="3.5" x="325.75" y="165.1733">7</text><text fill="#000000" font-family="sans-serif" font-size="6.5" lengthAdjust="spacing" textLength="24" x="331.25" y="165.1733">toDoList</text><polygon fill="#181818" points="494.25,181.4502,499.25,183.4502,494.25,185.4502,496.25,183.4502" style="stroke:#181818;stroke-width:0.5;"/><line style="stroke:#181818;stroke-width:0.5;" x1="317.25" x2="497.25" y1="183.4502" y2="183.4502"/><text fill="#000000" font-family="sans-serif" font-size="6.5" font-weight="bold" lengthAdjust="spacing" textLength="3.5" x="320.75" y="180.8188">8</text><text fill="#000000" font-family="sans-serif" font-size="6.5" lengthAdjust="spacing" textLength="41" x="326.25" y="180.8188">getTasksList()</text><polygon fill="#181818" points="322.75,197.0957,317.75,199.0957,322.75,201.0957,320.75,199.0957" style="stroke:#181818;stroke-width:0.5;"/><line style="stroke:#181818;stroke-width:0.5;stroke-dasharray:2.0,2.0;" x1="319.75" x2="502.25" y1="199.0957" y2="199.0957"/><text fill="#000000" font-family="sans-serif" font-size="6.5" font-weight="bold" lengthAdjust="spacing" textLength="3.5" x="325.75" y="196.4644">9</text><text fill="#000000" font-family="sans-serif" font-size="6.5" lengthAdjust="spacing" textLength="26.5" x="331.25" y="196.4644">tasksList</text><polygon fill="#181818" points="178.75,212.7412,173.75,214.7412,178.75,216.7412,176.75,214.7412" style="stroke:#181818;stroke-width:0.5;"/><line style="stroke:#181818;stroke-width:0.5;stroke-dasharray:2.0,2.0;" x1="175.75" x2="314.25" y1="214.7412" y2="214.7412"/><text fill="#000000" font-family="sans-serif" font-size="6.5" font-weight="bold" lengthAdjust="spacing" textLength="7" x="181.75" y="212.1099">10</text><text fill="#000000" font-family="sans-serif" font-size="6.5" lengthAdjust="spacing" textLength="26.5" x="190.75" y="212.1099">tasksList</text><polygon fill="#181818" points="34.75,228.3867,29.75,230.3867,34.75,232.3867,32.75,230.3867" style="stroke:#181818;stroke-width:0.5;"/><line style="stroke:#181818;stroke-width:0.5;stroke-dasharray:2.0,2.0;" x1="31.75" x2="170.25" y1="230.3867" y2="230.3867"/><text fill="#000000" font-family="sans-serif" font-size="6.5" font-weight="bold" lengthAdjust="spacing" textLength="7" x="37.75" y="227.7554">11</text><text fill="#000000" font-family="sans-serif" font-size="6.5" lengthAdjust="spacing" textLength="113.5" x="46.75" y="227.7554">shows to-do list and asks to select one</text><polygon fill="#181818" points="162.25,244.0322,167.25,246.0322,162.25,248.0322,164.25,246.0322" style="stroke:#181818;stroke-width:0.5;"/><line style="stroke:#181818;stroke-width:0.5;" x1="29.25" x2="165.25" y1="246.0322" y2="246.0322"/><text fill="#000000" font-family="sans-serif" font-size="6.5" font-weight="bold" lengthAdjust="spacing" textLength="7" x="32.75" y="243.4009">12</text><text fill="#000000" font-family="sans-serif" font-size="6.5" lengthAdjust="spacing" textLength="41" x="41.75" y="243.4009">selects a task</text><polygon fill="#181818" points="34.75,259.6777,29.75,261.6777,34.75,263.6777,32.75,261.6777" style="stroke:#181818;stroke-width:0.5;"/><line style="stroke:#181818;stroke-width:0.5;stroke-dasharray:2.0,2.0;" x1="31.75" x2="170.25" y1="261.6777" y2="261.6777"/><text fill="#000000" font-family="sans-serif" font-size="6.5" font-weight="bold" lengthAdjust="spacing" textLength="7" x="37.75" y="259.0464">13</text><text fill="#000000" font-family="sans-serif" font-size="6.5" lengthAdjust="spacing" textLength="94.5" x="46.75" y="259.0464">requests data (i.e. Starting Date)</text><polygon fill="#181818" points="162.25,275.3232,167.25,277.3232,162.25,279.3232,164.25,277.3232" style="stroke:#181818;stroke-width:0.5;"/><line style="stroke:#181818;stroke-width:0.5;" x1="29.25" x2="165.25" y1="277.3232" y2="277.3232"/><text fill="#000000" font-family="sans-serif" font-size="6.5" font-weight="bold" lengthAdjust="spacing" textLength="7" x="32.75" y="274.6919">14</text><text fill="#000000" font-family="sans-serif" font-size="6.5" lengthAdjust="spacing" textLength="61" x="41.75" y="274.6919">types requested data</text><polygon fill="#181818" points="34.75,290.9688,29.75,292.9688,34.75,294.9688,32.75,292.9688" style="stroke:#181818;stroke-width:0.5;"/><line style="stroke:#181818;stroke-width:0.5;stroke-dasharray:2.0,2.0;" x1="31.75" x2="170.25" y1="292.9688" y2="292.9688"/><text fill="#000000" font-family="sans-serif" font-size="6.5" font-weight="bold" lengthAdjust="spacing" textLength="7" x="37.75" y="290.3374">15</text><text fill="#000000" font-family="sans-serif" font-size="6.5" lengthAdjust="spacing" textLength="118" x="46.75" y="290.3374">shows all data and requests confirmation</text><polygon fill="#181818" points="162.25,306.6143,167.25,308.6143,162.25,310.6143,164.25,308.6143" style="stroke:#181818;stroke-width:0.5;"/><line style="stroke:#181818;stroke-width:0.5;" x1="29.25" x2="165.25" y1="308.6143" y2="308.6143"/><text fill="#000000" font-family="sans-serif" font-size="6.5" font-weight="bold" lengthAdjust="spacing" textLength="7" x="32.75" y="305.9829">16</text><text fill="#000000" font-family="sans-serif" font-size="6.5" lengthAdjust="spacing" textLength="39" x="41.75" y="305.9829">confirms data</text><polygon fill="#181818" points="306.25,322.2598,311.25,324.2598,306.25,326.2598,308.25,324.2598" style="stroke:#181818;stroke-width:0.5;"/><line style="stroke:#181818;stroke-width:0.5;" x1="173.25" x2="309.25" y1="324.2598" y2="324.2598"/><text fill="#000000" font-family="sans-serif" font-size="6.5" font-weight="bold" lengthAdjust="spacing" textLength="7" x="176.75" y="321.6284">17</text><text fill="#000000" font-family="sans-serif" font-size="6.5" lengthAdjust="spacing" textLength="120.5" x="185.75" y="321.6284">addEntryAgenda(startingDate, indexTask)</text><line style="stroke:#181818;stroke-width:0.5;" x1="317.25" x2="340.75" y1="337.4053" y2="337.4053"/><line style="stroke:#181818;stroke-width:0.5;" x1="340.75" x2="340.75" y1="337.4053" y2="343.9053"/><line style="stroke:#181818;stroke-width:0.5;" x1="320.25" x2="340.75" y1="343.9053" y2="343.9053"/><polygon fill="#181818" points="325.25,341.9053,320.25,343.9053,325.25,345.9053,323.25,343.9053" style="stroke:#181818;stroke-width:0.5;"/><text fill="#000000" font-family="sans-serif" font-size="6.5" font-weight="bold" lengthAdjust="spacing" textLength="7" x="323.25" y="334.7739">18</text><text fill="#000000" font-family="sans-serif" font-size="6.5" lengthAdjust="spacing" textLength="66" x="332.25" y="334.7739">getTaskByIndex(index)</text><polygon fill="#181818" points="393.75,360.0508,398.75,362.0508,393.75,364.0508,395.75,362.0508" style="stroke:#181818;stroke-width:0.5;"/><line style="stroke:#181818;stroke-width:0.5;" x1="319.75" x2="396.75" y1="362.0508" y2="362.0508"/><text fill="#000000" font-family="sans-serif" font-size="6.5" font-weight="bold" lengthAdjust="spacing" textLength="7" x="323.25" y="359.4194">19</text><text fill="#000000" font-family="sans-serif" font-size="6.5" lengthAdjust="spacing" textLength="37.5" x="332.25" y="359.4194">getInstance()</text><polygon fill="#181818" points="325.25,375.6963,320.25,377.6963,325.25,379.6963,323.25,377.6963" style="stroke:#181818;stroke-width:0.5;"/><line style="stroke:#181818;stroke-width:0.5;stroke-dasharray:2.0,2.0;" x1="322.25" x2="401.75" y1="377.6963" y2="377.6963"/><text fill="#000000" font-family="sans-serif" font-size="6.5" font-weight="bold" lengthAdjust="spacing" textLength="7" x="328.25" y="375.0649">20</text><text fill="#000000" font-family="sans-serif" font-size="6.5" lengthAdjust="spacing" textLength="33.5" x="337.25" y="375.0649">repositories</text><polygon fill="#181818" points="447.25,391.3418,452.25,393.3418,447.25,395.3418,449.25,393.3418" style="stroke:#181818;stroke-width:0.5;"/><line style="stroke:#181818;stroke-width:0.5;" x1="319.75" x2="450.25" y1="393.3418" y2="393.3418"/><text fill="#000000" font-family="sans-serif" font-size="6.5" font-weight="bold" lengthAdjust="spacing" textLength="7" x="323.25" y="390.7104">21</text><text fill="#000000" font-family="sans-serif" font-size="6.5" lengthAdjust="spacing" textLength="38.5" x="332.25" y="390.7104">getToDoList()</text><polygon fill="#181818" points="325.25,406.9873,320.25,408.9873,325.25,410.9873,323.25,408.9873" style="stroke:#181818;stroke-width:0.5;"/><line style="stroke:#181818;stroke-width:0.5;stroke-dasharray:2.0,2.0;" x1="322.25" x2="455.25" y1="408.9873" y2="408.9873"/><text fill="#000000" font-family="sans-serif" font-size="6.5" font-weight="bold" lengthAdjust="spacing" textLength="7" x="328.25" y="406.356">22</text><text fill="#000000" font-family="sans-serif" font-size="6.5" lengthAdjust="spacing" textLength="24" x="337.25" y="406.356">toDoList</text><polygon fill="#181818" points="494.25,422.6328,499.25,424.6328,494.25,426.6328,496.25,424.6328" style="stroke:#181818;stroke-width:0.5;"/><line style="stroke:#181818;stroke-width:0.5;" x1="319.75" x2="497.25" y1="424.6328" y2="424.6328"/><text fill="#000000" font-family="sans-serif" font-size="6.5" font-weight="bold" lengthAdjust="spacing" textLength="7" x="323.25" y="422.0015">23</text><text fill="#000000" font-family="sans-serif" font-size="6.5" lengthAdjust="spacing" textLength="66" x="332.25" y="422.0015">getTaskByIndex(index)</text><polygon fill="#181818" points="325.25,438.2783,320.25,440.2783,325.25,442.2783,323.25,440.2783" style="stroke:#181818;stroke-width:0.5;"/><line style="stroke:#181818;stroke-width:0.5;stroke-dasharray:2.0,2.0;" x1="322.25" x2="502.25" y1="440.2783" y2="440.2783"/><text fill="#000000" font-family="sans-serif" font-size="6.5" font-weight="bold" lengthAdjust="spacing" textLength="7" x="328.25" y="437.647">24</text><text fill="#000000" font-family="sans-serif" font-size="6.5" lengthAdjust="spacing" textLength="12.5" x="337.25" y="437.647">task</text><line style="stroke:#181818;stroke-width:0.5;stroke-dasharray:2.0,2.0;" x1="319.75" x2="340.75" y1="458.4238" y2="458.4238"/><line style="stroke:#181818;stroke-width:0.5;stroke-dasharray:2.0,2.0;" x1="340.75" x2="340.75" y1="458.4238" y2="464.9238"/><line style="stroke:#181818;stroke-width:0.5;stroke-dasharray:2.0,2.0;" x1="317.25" x2="340.75" y1="464.9238" y2="464.9238"/><polygon fill="#181818" points="322.25,462.9238,317.25,464.9238,322.25,466.9238,320.25,464.9238" style="stroke:#181818;stroke-width:0.5;"/><text fill="#000000" font-family="sans-serif" font-size="6.5" font-weight="bold" lengthAdjust="spacing" textLength="7" x="323.25" y="455.7925">25</text><text fill="#000000" font-family="sans-serif" font-size="6.5" lengthAdjust="spacing" textLength="12.5" x="332.25" y="455.7925">task</text><line style="stroke:#181818;stroke-width:0.5;" x1="317.25" x2="340.75" y1="475.5693" y2="475.5693"/><line style="stroke:#181818;stroke-width:0.5;" x1="340.75" x2="340.75" y1="475.5693" y2="482.0693"/><line style="stroke:#181818;stroke-width:0.5;" x1="320.25" x2="340.75" y1="482.0693" y2="482.0693"/><polygon fill="#181818" points="325.25,480.0693,320.25,482.0693,325.25,484.0693,323.25,482.0693" style="stroke:#181818;stroke-width:0.5;"/><text fill="#000000" font-family="sans-serif" font-size="6.5" font-weight="bold" lengthAdjust="spacing" textLength="7" x="323.25" y="472.938">26</text><text fill="#000000" font-family="sans-serif" font-size="6.5" lengthAdjust="spacing" textLength="66.5" x="332.25" y="472.938">getGSMFromSession()</text><polygon fill="#181818" points="393.75,498.2148,398.75,500.2148,393.75,502.2148,395.75,500.2148" style="stroke:#181818;stroke-width:0.5;"/><line style="stroke:#181818;stroke-width:0.5;" x1="319.75" x2="396.75" y1="500.2148" y2="500.2148"/><text fill="#000000" font-family="sans-serif" font-size="6.5" font-weight="bold" lengthAdjust="spacing" textLength="7" x="323.25" y="497.5835">27</text><text fill="#000000" font-family="sans-serif" font-size="6.5" lengthAdjust="spacing" textLength="37.5" x="332.25" y="497.5835">getInstance()</text><polygon fill="#181818" points="325.25,513.8604,320.25,515.8604,325.25,517.8604,323.25,515.8604" style="stroke:#181818;stroke-width:0.5;"/><line style="stroke:#181818;stroke-width:0.5;stroke-dasharray:2.0,2.0;" x1="322.25" x2="401.75" y1="515.8604" y2="515.8604"/><text fill="#000000" font-family="sans-serif" font-size="6.5" font-weight="bold" lengthAdjust="spacing" textLength="7" x="328.25" y="513.229">28</text><text fill="#000000" font-family="sans-serif" font-size="6.5" lengthAdjust="spacing" textLength="33.5" x="337.25" y="513.229">repositories</text><polygon fill="#181818" points="447.25,529.5059,452.25,531.5059,447.25,533.5059,449.25,531.5059" style="stroke:#181818;stroke-width:0.5;"/><line style="stroke:#181818;stroke-width:0.5;" x1="319.75" x2="450.25" y1="531.5059" y2="531.5059"/><text fill="#000000" font-family="sans-serif" font-size="6.5" font-weight="bold" lengthAdjust="spacing" textLength="7" x="323.25" y="528.8745">29</text><text fill="#000000" font-family="sans-serif" font-size="6.5" lengthAdjust="spacing" textLength="85.5" x="332.25" y="528.8745">getAuthenticationRepository()</text><polygon fill="#181818" points="325.25,545.1514,320.25,547.1514,325.25,549.1514,323.25,547.1514" style="stroke:#181818;stroke-width:0.5;"/><line style="stroke:#181818;stroke-width:0.5;stroke-dasharray:2.0,2.0;" x1="322.25" x2="455.25" y1="547.1514" y2="547.1514"/><text fill="#000000" font-family="sans-serif" font-size="6.5" font-weight="bold" lengthAdjust="spacing" textLength="7" x="328.25" y="544.52">30</text><text fill="#000000" font-family="sans-serif" font-size="6.5" lengthAdjust="spacing" textLength="71.5" x="337.25" y="544.52">authenticationRepository</text><polygon fill="#181818" points="560.75,560.7969,565.75,562.7969,560.75,564.7969,562.75,562.7969" style="stroke:#181818;stroke-width:0.5;"/><line style="stroke:#181818;stroke-width:0.5;" x1="319.75" x2="563.75" y1="562.7969" y2="562.7969"/><text fill="#000000" font-family="sans-serif" font-size="6.5" font-weight="bold" lengthAdjust="spacing" textLength="7" x="323.25" y="560.1655">31</text><text fill="#000000" font-family="sans-serif" font-size="6.5" lengthAdjust="spacing" textLength="71" x="332.25" y="560.1655">getCurrentUserSession()</text><polygon fill="#181818" points="325.25,576.4424,320.25,578.4424,325.25,580.4424,323.25,578.4424" style="stroke:#181818;stroke-width:0.5;"/><line style="stroke:#181818;stroke-width:0.5;stroke-dasharray:2.0,2.0;" x1="322.25" x2="568.75" y1="578.4424" y2="578.4424"/><text fill="#000000" font-family="sans-serif" font-size="6.5" font-weight="bold" lengthAdjust="spacing" textLength="7" x="328.25" y="575.811">32</text><text fill="#000000" font-family="sans-serif" font-size="6.5" lengthAdjust="spacing" textLength="62" x="337.25" y="575.811">authenticationFacade</text><polygon fill="#181818" points="648.25,592.0879,653.25,594.0879,648.25,596.0879,650.25,594.0879" style="stroke:#181818;stroke-width:0.5;"/><line style="stroke:#181818;stroke-width:0.5;" x1="319.75" x2="651.25" y1="594.0879" y2="594.0879"/><text fill="#000000" font-family="sans-serif" font-size="6.5" font-weight="bold" lengthAdjust="spacing" textLength="7" x="323.25" y="591.4565">33</text><text fill="#000000" font-family="sans-serif" font-size="6.5" lengthAdjust="spacing" textLength="71" x="332.25" y="591.4565">getCurrentUserSession()</text><polygon fill="#181818" points="325.25,607.7334,320.25,609.7334,325.25,611.7334,323.25,609.7334" style="stroke:#181818;stroke-width:0.5;"/><line style="stroke:#181818;stroke-width:0.5;stroke-dasharray:2.0,2.0;" x1="322.25" x2="656.25" y1="609.7334" y2="609.7334"/><text fill="#000000" font-family="sans-serif" font-size="6.5" font-weight="bold" lengthAdjust="spacing" textLength="7" x="328.25" y="607.1021">34</text><text fill="#000000" font-family="sans-serif" font-size="6.5" lengthAdjust="spacing" textLength="36" x="337.25" y="607.1021">userSession</text><polygon fill="#181818" points="715.25,623.3789,720.25,625.3789,715.25,627.3789,717.25,625.3789" style="stroke:#181818;stroke-width:0.5;"/><line style="stroke:#181818;stroke-width:0.5;" x1="319.75" x2="718.25" y1="625.3789" y2="625.3789"/><text fill="#000000" font-family="sans-serif" font-size="6.5" font-weight="bold" lengthAdjust="spacing" textLength="7" x="323.25" y="622.7476">35</text><text fill="#000000" font-family="sans-serif" font-size="6.5" lengthAdjust="spacing" textLength="31.5" x="332.25" y="622.7476">getUserId()</text><polygon fill="#181818" points="325.25,639.0244,320.25,641.0244,325.25,643.0244,323.25,641.0244" style="stroke:#181818;stroke-width:0.5;"/><line style="stroke:#181818;stroke-width:0.5;stroke-dasharray:2.0,2.0;" x1="322.25" x2="723.25" y1="641.0244" y2="641.0244"/><text fill="#000000" font-family="sans-serif" font-size="6.5" font-weight="bold" lengthAdjust="spacing" textLength="7" x="328.25" y="638.3931">36</text><text fill="#000000" font-family="sans-serif" font-size="6.5" lengthAdjust="spacing" textLength="15.5" x="337.25" y="638.3931">email</text><line style="stroke:#181818;stroke-width:0.5;stroke-dasharray:2.0,2.0;" x1="319.75" x2="340.75" y1="659.1699" y2="659.1699"/><line style="stroke:#181818;stroke-width:0.5;stroke-dasharray:2.0,2.0;" x1="340.75" x2="340.75" y1="659.1699" y2="665.6699"/><line style="stroke:#181818;stroke-width:0.5;stroke-dasharray:2.0,2.0;" x1="317.25" x2="340.75" y1="665.6699" y2="665.6699"/><polygon fill="#181818" points="322.25,663.6699,317.25,665.6699,322.25,667.6699,320.25,665.6699" style="stroke:#181818;stroke-width:0.5;"/><text fill="#000000" font-family="sans-serif" font-size="6.5" font-weight="bold" lengthAdjust="spacing" textLength="7" x="323.25" y="656.5386">37</text><text fill="#000000" font-family="sans-serif" font-size="6.5" lengthAdjust="spacing" textLength="15.5" x="332.25" y="656.5386">email</text><polygon fill="#181818" points="393.75,676.8154,398.75,678.8154,393.75,680.8154,395.75,678.8154" style="stroke:#181818;stroke-width:0.5;"/><line style="stroke:#181818;stroke-width:0.5;" x1="317.25" x2="396.75" y1="678.8154" y2="678.8154"/><text fill="#000000" font-family="sans-serif" font-size="6.5" font-weight="bold" lengthAdjust="spacing" textLength="7" x="320.75" y="676.1841">38</text><text fill="#000000" font-family="sans-serif" font-size="6.5" lengthAdjust="spacing" textLength="37.5" x="329.75" y="676.1841">getInstance()</text><polygon fill="#181818" points="322.75,692.4609,317.75,694.4609,322.75,696.4609,320.75,694.4609" style="stroke:#181818;stroke-width:0.5;"/><line style="stroke:#181818;stroke-width:0.5;stroke-dasharray:2.0,2.0;" x1="319.75" x2="401.75" y1="694.4609" y2="694.4609"/><text fill="#000000" font-family="sans-serif" font-size="6.5" font-weight="bold" lengthAdjust="spacing" textLength="7" x="325.75" y="691.8296">39</text><text fill="#000000" font-family="sans-serif" font-size="6.5" lengthAdjust="spacing" textLength="33.5" x="334.75" y="691.8296">repositories</text><polygon fill="#181818" points="447.25,708.1064,452.25,710.1064,447.25,712.1064,449.25,710.1064" style="stroke:#181818;stroke-width:0.5;"/><line style="stroke:#181818;stroke-width:0.5;" x1="317.25" x2="450.25" y1="710.1064" y2="710.1064"/><text fill="#000000" font-family="sans-serif" font-size="6.5" font-weight="bold" lengthAdjust="spacing" textLength="7" x="320.75" y="707.4751">40</text><text fill="#000000" font-family="sans-serif" font-size="6.5" lengthAdjust="spacing" textLength="35" x="329.75" y="707.4751">getAgenda()</text><polygon fill="#181818" points="322.75,723.752,317.75,725.752,322.75,727.752,320.75,725.752" style="stroke:#181818;stroke-width:0.5;"/><line style="stroke:#181818;stroke-width:0.5;stroke-dasharray:2.0,2.0;" x1="319.75" x2="455.25" y1="725.752" y2="725.752"/><text fill="#000000" font-family="sans-serif" font-size="6.5" font-weight="bold" lengthAdjust="spacing" textLength="7" x="325.75" y="723.1206">41</text><text fill="#000000" font-family="sans-serif" font-size="6.5" lengthAdjust="spacing" textLength="21" x="334.75" y="723.1206">agenda</text><polygon fill="#181818" points="760,739.3975,765,741.3975,760,743.3975,762,741.3975" style="stroke:#181818;stroke-width:0.5;"/><line style="stroke:#181818;stroke-width:0.5;" x1="317.25" x2="763" y1="741.3975" y2="741.3975"/><text fill="#000000" font-family="sans-serif" font-size="6.5" font-weight="bold" lengthAdjust="spacing" textLength="7" x="320.75" y="738.7661">42</text><text fill="#000000" font-family="sans-serif" font-size="6.5" lengthAdjust="spacing" textLength="158.5" x="329.75" y="738.7661">addEntryAgenda(startingDate, task, gsmFromSession)</text><polygon fill="#181818" points="886.25,755.043,891.25,757.043,886.25,759.043,888.25,757.043" style="stroke:#181818;stroke-width:0.5;"/><line style="stroke:#181818;stroke-width:0.5;" x1="771" x2="889.25" y1="757.043" y2="757.043"/><text fill="#000000" font-family="sans-serif" font-size="6.5" font-weight="bold" lengthAdjust="spacing" textLength="7" x="774.5" y="754.4116">43</text><text fill="#000000" font-family="sans-serif" font-size="6.5" lengthAdjust="spacing" textLength="73.5" x="783.5" y="754.4116">create(startingDate, task)</text><rect fill="#E3E3E3" height="25.6211" rx="1.25" ry="1.25" style="stroke:#181818;stroke-width:0.25;" width="25.5" x="892.25" y="745.3975"/><text fill="#000000" font-family="sans-serif" font-size="7" lengthAdjust="spacing" textLength="16" x="897" y="756.4512">entry</text><text fill="#000000" font-family="sans-serif" font-size="7" lengthAdjust="spacing" textLength="18.5" x="895.75" y="765.7617">:Entry</text><line style="stroke:#181818;stroke-width:0.5;" x1="771" x2="794.5" y1="785.6641" y2="785.6641"/><line style="stroke:#181818;stroke-width:0.5;" x1="794.5" x2="794.5" y1="785.6641" y2="792.1641"/><line style="stroke:#181818;stroke-width:0.5;" x1="774" x2="794.5" y1="792.1641" y2="792.1641"/><polygon fill="#181818" points="779,790.1641,774,792.1641,779,794.1641,777,792.1641" style="stroke:#181818;stroke-width:0.5;"/><text fill="#000000" font-family="sans-serif" font-size="6.5" font-weight="bold" lengthAdjust="spacing" textLength="7" x="777" y="783.0327">44</text><text fill="#000000" font-family="sans-serif" font-size="6.5" lengthAdjust="spacing" textLength="101.5" x="786" y="783.0327">addEntry (gsmFromSession, entry)</text><line style="stroke:#181818;stroke-width:0.5;" x1="773.5" x2="797" y1="807.8096" y2="807.8096"/><line style="stroke:#181818;stroke-width:0.5;" x1="797" x2="797" y1="807.8096" y2="814.3096"/><line style="stroke:#181818;stroke-width:0.5;" x1="776.5" x2="797" y1="814.3096" y2="814.3096"/><polygon fill="#181818" points="781.5,812.3096,776.5,814.3096,781.5,816.3096,779.5,814.3096" style="stroke:#181818;stroke-width:0.5;"/><text fill="#000000" font-family="sans-serif" font-size="6.5" font-weight="bold" lengthAdjust="spacing" textLength="7" x="779.5" y="805.1782">45</text><text fill="#000000" font-family="sans-serif" font-size="6.5" lengthAdjust="spacing" textLength="57.5" x="788.5" y="805.1782">validateEntry (entry)</text><line style="stroke:#181818;stroke-width:0.5;" x1="776" x2="799.5" y1="829.9551" y2="829.9551"/><line style="stroke:#181818;stroke-width:0.5;" x1="799.5" x2="799.5" y1="829.9551" y2="836.4551"/><line style="stroke:#181818;stroke-width:0.5;" x1="779" x2="799.5" y1="836.4551" y2="836.4551"/><polygon fill="#181818" points="784,834.4551,779,836.4551,784,838.4551,782,836.4551" style="stroke:#181818;stroke-width:0.5;"/><text fill="#000000" font-family="sans-serif" font-size="6.5" font-weight="bold" lengthAdjust="spacing" textLength="7" x="782" y="827.3237">46</text><text fill="#000000" font-family="sans-serif" font-size="6.5" lengthAdjust="spacing" textLength="110.5" x="791" y="827.3237">validateUser (gsmFromSession, entry)</text><line style="stroke:#181818;stroke-width:0.5;stroke-dasharray:2.0,2.0;" x1="778.5" x2="799.5" y1="857.1006" y2="857.1006"/><line style="stroke:#181818;stroke-width:0.5;stroke-dasharray:2.0,2.0;" x1="799.5" x2="799.5" y1="857.1006" y2="863.6006"/><line style="stroke:#181818;stroke-width:0.5;stroke-dasharray:2.0,2.0;" x1="776" x2="799.5" y1="863.6006" y2="863.6006"/><polygon fill="#181818" points="781,861.6006,776,863.6006,781,865.6006,779,863.6006" style="stroke:#181818;stroke-width:0.5;"/><text fill="#000000" font-family="sans-serif" font-size="6.5" font-weight="bold" lengthAdjust="spacing" textLength="7" x="782" y="854.4692">47</text><text fill="#000000" font-family="sans-serif" font-size="6.5" lengthAdjust="spacing" textLength="2" x="791" y="854.4692">&#160;</text><line style="stroke:#181818;stroke-width:0.5;stroke-dasharray:2.0,2.0;" x1="776" x2="797" y1="879.2461" y2="879.2461"/><line style="stroke:#181818;stroke-width:0.5;stroke-dasharray:2.0,2.0;" x1="797" x2="797" y1="879.2461" y2="885.7461"/><line style="stroke:#181818;stroke-width:0.5;stroke-dasharray:2.0,2.0;" x1="773.5" x2="797" y1="885.7461" y2="885.7461"/><polygon fill="#181818" points="778.5,883.7461,773.5,885.7461,778.5,887.7461,776.5,885.7461" style="stroke:#181818;stroke-width:0.5;"/><text fill="#000000" font-family="sans-serif" font-size="6.5" font-weight="bold" lengthAdjust="spacing" textLength="7" x="779.5" y="876.6147">48</text><text fill="#000000" font-family="sans-serif" font-size="6.5" lengthAdjust="spacing" textLength="2" x="788.5" y="876.6147">&#160;</text><line style="stroke:#181818;stroke-width:0.5;stroke-dasharray:2.0,2.0;" x1="773.5" x2="794.5" y1="901.3916" y2="901.3916"/><line style="stroke:#181818;stroke-width:0.5;stroke-dasharray:2.0,2.0;" x1="794.5" x2="794.5" y1="901.3916" y2="907.8916"/><line style="stroke:#181818;stroke-width:0.5;stroke-dasharray:2.0,2.0;" x1="771" x2="794.5" y1="907.8916" y2="907.8916"/><polygon fill="#181818" points="776,905.8916,771,907.8916,776,909.8916,774,907.8916" style="stroke:#181818;stroke-width:0.5;"/><text fill="#000000" font-family="sans-serif" font-size="6.5" font-weight="bold" lengthAdjust="spacing" textLength="7" x="777" y="898.7603">49</text><text fill="#000000" font-family="sans-serif" font-size="6.5" lengthAdjust="spacing" textLength="2" x="786" y="898.7603">&#160;</text><polygon fill="#181818" points="322.75,919.0371,317.75,921.0371,322.75,923.0371,320.75,921.0371" style="stroke:#181818;stroke-width:0.5;"/><line style="stroke:#181818;stroke-width:0.5;stroke-dasharray:2.0,2.0;" x1="319.75" x2="768" y1="921.0371" y2="921.0371"/><text fill="#000000" font-family="sans-serif" font-size="6.5" font-weight="bold" lengthAdjust="spacing" textLength="7" x="325.75" y="918.4058">50</text><text fill="#000000" font-family="sans-serif" font-size="6.5" lengthAdjust="spacing" textLength="14.5" x="334.75" y="918.4058">entry</text><polygon fill="#181818" points="178.75,934.6826,173.75,936.6826,178.75,938.6826,176.75,936.6826" style="stroke:#181818;stroke-width:0.5;"/><line style="stroke:#181818;stroke-width:0.5;stroke-dasharray:2.0,2.0;" x1="175.75" x2="314.25" y1="936.6826" y2="936.6826"/><text fill="#000000" font-family="sans-serif" font-size="6.5" font-weight="bold" lengthAdjust="spacing" textLength="7" x="181.75" y="934.0513">51</text><text fill="#000000" font-family="sans-serif" font-size="6.5" lengthAdjust="spacing" textLength="14.5" x="190.75" y="934.0513">entry</text><polygon fill="#181818" points="32.25,950.3281,27.25,952.3281,32.25,954.3281,30.25,952.3281" style="stroke:#181818;stroke-width:0.5;"/><line style="stroke:#181818;stroke-width:0.5;stroke-dasharray:2.0,2.0;" x1="29.25" x2="170.25" y1="952.3281" y2="952.3281"/><text fill="#000000" font-family="sans-serif" font-size="6.5" font-weight="bold" lengthAdjust="spacing" textLength="7" x="35.25" y="949.6968">52</text><text fill="#000000" font-family="sans-serif" font-size="6.5" lengthAdjust="spacing" textLength="79" x="44.25" y="949.6968">displays operation success</text><!--SRC=[rLTDJ-Cm4BtdLrXSjaN03yXX9POlLOBLgYc7bRYOU6WZKhjhkq3__SxOIMgtIKWH1-Y5n7xpvjb-umpckP0hhlcIBPLK-KAh9J2hrv2OPcR5ysS-XynkIc0QSilbl0m1Pi65UYtad3tnqa2IyBLLShry19qaFnQ50FQab7rKRmdFhTBiw4O3I9OXCvW7USSbykiZnWsxoUuIPBL5NgoujEmeFHVYIbgzEP-35Fn-uc3tarxKXS9dLPPbnNenczxk14nXfKo1QWem3ZEz-XD3T81uaAq1MHnXrQMwBOnD7-IiUdJ8UZn6uoujGE8xjuMI3Vq6eyyxfXnR7DV7USrpBg3YyoyDWt-DezS6DABlyKy6nY23WzFmJXgtoqJi7ZofUunnG4U2U-UEng6kVi-cVnFoGV72BRZpJXZ-y86T_iI3PIdYdcdJ61U2SIRXbJaY6iBbrPaegk51GxW1-Y47Cj6P7nyZMwu14MtJE3a7EwDqT3oZSODfU9rpcc7wkK0amEFtyHDfi2Ho2C8Z2Z9MD4EHfvM4b8KsYs02kYa24LcrYifZFIgoFHbPeACnQRU6h5r4O_kktOo4D7cYwNgq4OIhiZLLbwHsAY-hzjAx9DiJ9cDW63annKjDlP89JuLY9GdZKZJ6D53YFSYKX6I7hVPXQ6UFnWfnOjfz6-NMy6yD1YC4jvoDYZCuOvcbmi8xzXB3naFIsiqAJCq5mf4DIEuNpilIPwTbDtfo9PyAlVGNpm095Txqv8uhCgMQ3oxoaQcMJQi-OOKKy4OEEwXIFN7bpL-R2P6C75M7HNkB_alK_9Sh-I7REh3oqssP75xpxnCCy0bQ-1exeUeREFhUBkdg9Jxicgw-vN0NnKnExSLQQnmAMf0kdJjjK0oAvZgrLprGX-w-1E4AgYxhSFLL-ZtbVZnGlTxozObjuwk5kjQE99AsYUYIvLgzQ8f60Ycmv4NP9M8_UgSkUwE_Iptv3zE7gsVRl1vMAxxbxly-qhrtmkPc6LnVNGRqEg991t3ZbD6rwa47tP9ht1U_gvYDOc4dlgiVxrCCrrZdUE5bWJq6L8a-dvZAvlCNq2JQGuIb_QL90eAgncbFae4CGQ- -6_bEYvuoKPXLoJU6gHLeVz6RTPxZsRIrfi4h_S_v7m00]--></g></svg>