<?xml version="1.0" encoding="us-ascii" standalone="no"?><svg xmlns="http://www.w3.org/2000/svg" xmlns:xlink="http://www.w3.org/1999/xlink" contentStyleType="text/css" height="928.8px" preserveAspectRatio="none" style="width:576px;height:928px;background:#FFFFFF;" version="1.1" viewBox="0 0 576 928" width="576px" zoomAndPan="magnify"><defs/><g><!--class AddEntryAgendaUI--><g id="elem_AddEntryAgendaUI"><rect codeLine="11" fill="#F1F1F1" height="38.4" id="AddEntryAgendaUI" rx="2" ry="2" style="stroke:#181818;stroke-width:0.4000000000000001;" width="120.8" x="156.8" y="5.6"/><ellipse cx="168.8" cy="18.4" fill="#ADD1B2" rx="8.8" ry="8.8" style="stroke:#181818;stroke-width:0.8000000000000002;"/><path d="M171.0125,15.1 Q171.1375,14.925 171.2875,14.8375 Q171.4375,14.75 171.6125,14.75 Q171.9125,14.75 172.1,14.9625 Q172.2875,15.1625 172.2875,15.65 L172.2875,16.8125 Q172.2875,17.3 172.1,17.5125 Q171.9125,17.725 171.6125,17.725 Q171.3375,17.725 171.175,17.5625 Q171.0125,17.4125 170.925,17 Q170.8875,16.7125 170.7375,16.5625 Q170.475,16.2625 169.9875,16.0875 Q169.5,15.9125 169,15.9125 Q168.3875,15.9125 167.875,16.175 Q167.375,16.4375 166.975,17.0375 Q166.5875,17.6375 166.5875,18.4625 L166.5875,19.3375 Q166.5875,20.325 167.3,20.9875 Q168.0125,21.6375 169.2875,21.6375 Q170.0375,21.6375 170.5625,21.4375 Q170.875,21.3125 171.2125,20.9625 Q171.425,20.75 171.5375,20.6875 Q171.6625,20.625 171.825,20.625 Q172.0875,20.625 172.2875,20.8375 Q172.5,21.0375 172.5,21.3125 Q172.5,21.5875 172.225,21.9125 Q171.825,22.375 171.1875,22.6375 Q170.325,23 169.2875,23 Q168.075,23 167.1125,22.5 Q166.325,22.1 165.775,21.25 Q165.225,20.3875 165.225,19.3625 L165.225,18.4375 Q165.225,17.375 165.7125,16.4625 Q166.2125,15.5375 167.0875,15.05 Q167.9625,14.55 168.95,14.55 Q169.5375,14.55 170.05,14.6875 Q170.575,14.8125 171.0125,15.1 Z " fill="#000000"/><text fill="#000000" font-family="sans-serif" font-size="11.2" lengthAdjust="spacing" textLength="95.2" x="180" y="23.0375">AddEntryAgendaUI</text><line style="stroke:#181818;stroke-width:0.4000000000000001;" x1="157.6" x2="276.8" y1="31.2" y2="31.2"/><line style="stroke:#181818;stroke-width:0.4000000000000001;" x1="157.6" x2="276.8" y1="37.6" y2="37.6"/></g><!--class AddEntryAgendaController--><g id="elem_AddEntryAgendaController"><rect codeLine="14" fill="#F1F1F1" height="97.9875" id="AddEntryAgendaController" rx="2" ry="2" style="stroke:#181818;stroke-width:0.4000000000000001;" width="250.4" x="92" y="92.8"/><ellipse cx="146.2" cy="105.6" fill="#ADD1B2" rx="8.8" ry="8.8" style="stroke:#181818;stroke-width:0.8000000000000002;"/><path d="M148.4125,102.3 Q148.5375,102.125 148.6875,102.0375 Q148.8375,101.95 149.0125,101.95 Q149.3125,101.95 149.5,102.1625 Q149.6875,102.3625 149.6875,102.85 L149.6875,104.0125 Q149.6875,104.5 149.5,104.7125 Q149.3125,104.925 149.0125,104.925 Q148.7375,104.925 148.575,104.7625 Q148.4125,104.6125 148.325,104.2 Q148.2875,103.9125 148.1375,103.7625 Q147.875,103.4625 147.3875,103.2875 Q146.9,103.1125 146.4,103.1125 Q145.7875,103.1125 145.275,103.375 Q144.775,103.6375 144.375,104.2375 Q143.9875,104.8375 143.9875,105.6625 L143.9875,106.5375 Q143.9875,107.525 144.7,108.1875 Q145.4125,108.8375 146.6875,108.8375 Q147.4375,108.8375 147.9625,108.6375 Q148.275,108.5125 148.6125,108.1625 Q148.825,107.95 148.9375,107.8875 Q149.0625,107.825 149.225,107.825 Q149.4875,107.825 149.6875,108.0375 Q149.9,108.2375 149.9,108.5125 Q149.9,108.7875 149.625,109.1125 Q149.225,109.575 148.5875,109.8375 Q147.725,110.2 146.6875,110.2 Q145.475,110.2 144.5125,109.7 Q143.725,109.3 143.175,108.45 Q142.625,107.5875 142.625,106.5625 L142.625,105.6375 Q142.625,104.575 143.1125,103.6625 Q143.6125,102.7375 144.4875,102.25 Q145.3625,101.75 146.35,101.75 Q146.9375,101.75 147.45,101.8875 Q147.975,102.0125 148.4125,102.3 Z " fill="#000000"/><text fill="#000000" font-family="sans-serif" font-size="11.2" lengthAdjust="spacing" textLength="135.2" x="162.6" y="110.2375">AddEntryAgendaController</text><line style="stroke:#181818;stroke-width:0.4000000000000001;" x1="92.8" x2="341.6" y1="118.4" y2="118.4"/><line style="stroke:#181818;stroke-width:0.4000000000000001;" x1="92.8" x2="341.6" y1="124.8" y2="124.8"/><text fill="#000000" font-family="sans-serif" font-size="11.2" lengthAdjust="spacing" textLength="236" x="96.8" y="140.0859">+AddEntryAgendaController(agenda, toDoList)</text><text fill="#000000" font-family="sans-serif" font-size="11.2" lengthAdjust="spacing" textLength="240.8" x="96.8" y="154.9828">+addEntryAgenda(startingDate, taskReference)</text><text fill="#000000" font-family="sans-serif" font-size="11.2" lengthAdjust="spacing" textLength="192" x="96.8" y="169.8797">-getTaskByReference(taskReference)</text><text fill="#000000" font-family="sans-serif" font-size="11.2" lengthAdjust="spacing" textLength="78.4" x="96.8" y="184.7766">+getTasksList()</text></g><!--class Agenda--><g id="elem_Agenda"><rect codeLine="21" fill="#F1F1F1" height="83.0906" id="Agenda" rx="2" ry="2" style="stroke:#181818;stroke-width:0.4000000000000001;" width="197.6" x="5.6" y="400"/><ellipse cx="81.4" cy="412.8" fill="#ADD1B2" rx="8.8" ry="8.8" style="stroke:#181818;stroke-width:0.8000000000000002;"/><path d="M83.6125,409.5 Q83.7375,409.325 83.8875,409.2375 Q84.0375,409.15 84.2125,409.15 Q84.5125,409.15 84.7,409.3625 Q84.8875,409.5625 84.8875,410.05 L84.8875,411.2125 Q84.8875,411.7 84.7,411.9125 Q84.5125,412.125 84.2125,412.125 Q83.9375,412.125 83.775,411.9625 Q83.6125,411.8125 83.525,411.4 Q83.4875,411.1125 83.3375,410.9625 Q83.075,410.6625 82.5875,410.4875 Q82.1,410.3125 81.6,410.3125 Q80.9875,410.3125 80.475,410.575 Q79.975,410.8375 79.575,411.4375 Q79.1875,412.0375 79.1875,412.8625 L79.1875,413.7375 Q79.1875,414.725 79.9,415.3875 Q80.6125,416.0375 81.8875,416.0375 Q82.6375,416.0375 83.1625,415.8375 Q83.475,415.7125 83.8125,415.3625 Q84.025,415.15 84.1375,415.0875 Q84.2625,415.025 84.425,415.025 Q84.6875,415.025 84.8875,415.2375 Q85.1,415.4375 85.1,415.7125 Q85.1,415.9875 84.825,416.3125 Q84.425,416.775 83.7875,417.0375 Q82.925,417.4 81.8875,417.4 Q80.675,417.4 79.7125,416.9 Q78.925,416.5 78.375,415.65 Q77.825,414.7875 77.825,413.7625 L77.825,412.8375 Q77.825,411.775 78.3125,410.8625 Q78.8125,409.9375 79.6875,409.45 Q80.5625,408.95 81.55,408.95 Q82.1375,408.95 82.65,409.0875 Q83.175,409.2125 83.6125,409.5 Z " fill="#000000"/><text fill="#000000" font-family="sans-serif" font-size="11.2" lengthAdjust="spacing" textLength="39.2" x="97.8" y="417.4375">Agenda</text><line style="stroke:#181818;stroke-width:0.4000000000000001;" x1="6.4" x2="202.4" y1="425.6" y2="425.6"/><line style="stroke:#181818;stroke-width:0.4000000000000001;" x1="6.4" x2="202.4" y1="432" y2="432"/><text fill="#000000" font-family="sans-serif" font-size="11.2" lengthAdjust="spacing" textLength="83.2" x="10.4" y="447.2859">-addEntry(entry)</text><text fill="#000000" font-family="sans-serif" font-size="11.2" lengthAdjust="spacing" textLength="103.2" x="10.4" y="462.1828">-validateEntry(entry)</text><text fill="#000000" font-family="sans-serif" font-size="11.2" lengthAdjust="spacing" textLength="188" x="10.4" y="477.0797">+addEntryAgenda(startingDate, task)</text></g><!--class Entry--><g id="elem_Entry"><rect codeLine="27" fill="#F1F1F1" height="83.0906" id="Entry" rx="2" ry="2" style="stroke:#181818;stroke-width:0.4000000000000001;" width="139.2" x="34.8" y="532"/><ellipse cx="87.8" cy="544.8" fill="#ADD1B2" rx="8.8" ry="8.8" style="stroke:#181818;stroke-width:0.8000000000000002;"/><path d="M90.0125,541.5 Q90.1375,541.325 90.2875,541.2375 Q90.4375,541.15 90.6125,541.15 Q90.9125,541.15 91.1,541.3625 Q91.2875,541.5625 91.2875,542.05 L91.2875,543.2125 Q91.2875,543.7 91.1,543.9125 Q90.9125,544.125 90.6125,544.125 Q90.3375,544.125 90.175,543.9625 Q90.0125,543.8125 89.925,543.4 Q89.8875,543.1125 89.7375,542.9625 Q89.475,542.6625 88.9875,542.4875 Q88.5,542.3125 88,542.3125 Q87.3875,542.3125 86.875,542.575 Q86.375,542.8375 85.975,543.4375 Q85.5875,544.0375 85.5875,544.8625 L85.5875,545.7375 Q85.5875,546.725 86.3,547.3875 Q87.0125,548.0375 88.2875,548.0375 Q89.0375,548.0375 89.5625,547.8375 Q89.875,547.7125 90.2125,547.3625 Q90.425,547.15 90.5375,547.0875 Q90.6625,547.025 90.825,547.025 Q91.0875,547.025 91.2875,547.2375 Q91.5,547.4375 91.5,547.7125 Q91.5,547.9875 91.225,548.3125 Q90.825,548.775 90.1875,549.0375 Q89.325,549.4 88.2875,549.4 Q87.075,549.4 86.1125,548.9 Q85.325,548.5 84.775,547.65 Q84.225,546.7875 84.225,545.7625 L84.225,544.8375 Q84.225,543.775 84.7125,542.8625 Q85.2125,541.9375 86.0875,541.45 Q86.9625,540.95 87.95,540.95 Q88.5375,540.95 89.05,541.0875 Q89.575,541.2125 90.0125,541.5 Z " fill="#000000"/><text fill="#000000" font-family="sans-serif" font-size="11.2" lengthAdjust="spacing" textLength="26.4" x="104.2" y="549.4375">Entry</text><line style="stroke:#181818;stroke-width:0.4000000000000001;" x1="35.6" x2="173.2" y1="557.6" y2="557.6"/><text fill="#000000" font-family="sans-serif" font-size="11.2" lengthAdjust="spacing" textLength="92.8" x="39.6" y="572.8859">-Date startingDate</text><line style="stroke:#181818;stroke-width:0.4000000000000001;" x1="35.6" x2="173.2" y1="578.8969" y2="578.8969"/><text fill="#000000" font-family="sans-serif" font-size="11.2" lengthAdjust="spacing" textLength="129.6" x="39.6" y="594.1828">+Entry(startingDate, task)</text><text fill="#000000" font-family="sans-serif" font-size="11.2" lengthAdjust="spacing" textLength="114.4" x="39.6" y="609.0797">+changeStatus(status)</text></g><!--class ToDoList--><g id="elem_ToDoList"><rect codeLine="33" fill="#F1F1F1" height="53.2969" id="ToDoList" rx="2" ry="2" style="stroke:#181818;stroke-width:0.4000000000000001;" width="204" x="259.2" y="414.8"/><ellipse cx="335" cy="427.6" fill="#ADD1B2" rx="8.8" ry="8.8" style="stroke:#181818;stroke-width:0.8000000000000002;"/><path d="M337.2125,424.3 Q337.3375,424.125 337.4875,424.0375 Q337.6375,423.95 337.8125,423.95 Q338.1125,423.95 338.3,424.1625 Q338.4875,424.3625 338.4875,424.85 L338.4875,426.0125 Q338.4875,426.5 338.3,426.7125 Q338.1125,426.925 337.8125,426.925 Q337.5375,426.925 337.375,426.7625 Q337.2125,426.6125 337.125,426.2 Q337.0875,425.9125 336.9375,425.7625 Q336.675,425.4625 336.1875,425.2875 Q335.7,425.1125 335.2,425.1125 Q334.5875,425.1125 334.075,425.375 Q333.575,425.6375 333.175,426.2375 Q332.7875,426.8375 332.7875,427.6625 L332.7875,428.5375 Q332.7875,429.525 333.5,430.1875 Q334.2125,430.8375 335.4875,430.8375 Q336.2375,430.8375 336.7625,430.6375 Q337.075,430.5125 337.4125,430.1625 Q337.625,429.95 337.7375,429.8875 Q337.8625,429.825 338.025,429.825 Q338.2875,429.825 338.4875,430.0375 Q338.7,430.2375 338.7,430.5125 Q338.7,430.7875 338.425,431.1125 Q338.025,431.575 337.3875,431.8375 Q336.525,432.2 335.4875,432.2 Q334.275,432.2 333.3125,431.7 Q332.525,431.3 331.975,430.45 Q331.425,429.5875 331.425,428.5625 L331.425,427.6375 Q331.425,426.575 331.9125,425.6625 Q332.4125,424.7375 333.2875,424.25 Q334.1625,423.75 335.15,423.75 Q335.7375,423.75 336.25,423.8875 Q336.775,424.0125 337.2125,424.3 Z " fill="#000000"/><text fill="#000000" font-family="sans-serif" font-size="11.2" lengthAdjust="spacing" textLength="45.6" x="351.4" y="432.2375">ToDoList</text><line style="stroke:#181818;stroke-width:0.4000000000000001;" x1="260" x2="462.4" y1="440.4" y2="440.4"/><line style="stroke:#181818;stroke-width:0.4000000000000001;" x1="260" x2="462.4" y1="446.8" y2="446.8"/><text fill="#000000" font-family="sans-serif" font-size="11.2" lengthAdjust="spacing" textLength="194.4" x="264" y="462.0859">+getTaskByReference(taskReference)</text></g><!--class Task--><g id="elem_Task"><rect codeLine="37" fill="#F1F1F1" height="142.6781" id="Task" rx="2" ry="2" style="stroke:#181818;stroke-width:0.4000000000000001;" width="418.4" x="152" y="664"/><ellipse cx="345.4" cy="676.8" fill="#ADD1B2" rx="8.8" ry="8.8" style="stroke:#181818;stroke-width:0.8000000000000002;"/><path d="M347.6125,673.5 Q347.7375,673.325 347.8875,673.2375 Q348.0375,673.15 348.2125,673.15 Q348.5125,673.15 348.7,673.3625 Q348.8875,673.5625 348.8875,674.05 L348.8875,675.2125 Q348.8875,675.7 348.7,675.9125 Q348.5125,676.125 348.2125,676.125 Q347.9375,676.125 347.775,675.9625 Q347.6125,675.8125 347.525,675.4 Q347.4875,675.1125 347.3375,674.9625 Q347.075,674.6625 346.5875,674.4875 Q346.1,674.3125 345.6,674.3125 Q344.9875,674.3125 344.475,674.575 Q343.975,674.8375 343.575,675.4375 Q343.1875,676.0375 343.1875,676.8625 L343.1875,677.7375 Q343.1875,678.725 343.9,679.3875 Q344.6125,680.0375 345.8875,680.0375 Q346.6375,680.0375 347.1625,679.8375 Q347.475,679.7125 347.8125,679.3625 Q348.025,679.15 348.1375,679.0875 Q348.2625,679.025 348.425,679.025 Q348.6875,679.025 348.8875,679.2375 Q349.1,679.4375 349.1,679.7125 Q349.1,679.9875 348.825,680.3125 Q348.425,680.775 347.7875,681.0375 Q346.925,681.4 345.8875,681.4 Q344.675,681.4 343.7125,680.9 Q342.925,680.5 342.375,679.65 Q341.825,678.7875 341.825,677.7625 L341.825,676.8375 Q341.825,675.775 342.3125,674.8625 Q342.8125,673.9375 343.6875,673.45 Q344.5625,672.95 345.55,672.95 Q346.1375,672.95 346.65,673.0875 Q347.175,673.2125 347.6125,673.5 Z " fill="#000000"/><text fill="#000000" font-family="sans-serif" font-size="11.2" lengthAdjust="spacing" textLength="24.8" x="361.8" y="681.4375">Task</text><line style="stroke:#181818;stroke-width:0.4000000000000001;" x1="152.8" x2="569.6" y1="689.6" y2="689.6"/><text fill="#000000" font-family="sans-serif" font-size="11.2" lengthAdjust="spacing" textLength="85.6" x="156.8" y="704.8859">-String reference</text><text fill="#000000" font-family="sans-serif" font-size="11.2" lengthAdjust="spacing" textLength="92" x="156.8" y="719.7828">-String description</text><text fill="#000000" font-family="sans-serif" font-size="11.2" lengthAdjust="spacing" textLength="191.2" x="156.8" y="734.6797">-EmergencyDegree degreeOfUrgency</text><text fill="#000000" font-family="sans-serif" font-size="11.2" lengthAdjust="spacing" textLength="108" x="156.8" y="749.5766">-int expectedDuration</text><text fill="#000000" font-family="sans-serif" font-size="11.2" lengthAdjust="spacing" textLength="132.8" x="156.8" y="764.4734">-GreenSpace greenSpace</text><line style="stroke:#181818;stroke-width:0.4000000000000001;" x1="152.8" x2="569.6" y1="770.4844" y2="770.4844"/><text fill="#000000" font-family="sans-serif" font-size="11.2" lengthAdjust="spacing" textLength="408.8" x="156.8" y="785.7703">+Task(reference, description, degreeOfUrgency, expectedDuration, greenSpace)</text><text fill="#000000" font-family="sans-serif" font-size="11.2" lengthAdjust="spacing" textLength="114.4" x="156.8" y="800.6672">+changeStatus(status)</text></g><!--class Repositories--><g id="elem_Repositories"><rect codeLine="47" fill="#F1F1F1" height="97.9875" id="Repositories" rx="2" ry="2" style="stroke:#181818;stroke-width:0.4000000000000001;" width="155.2" x="139.6" y="253.6"/><ellipse cx="182.2" cy="266.4" fill="#ADD1B2" rx="8.8" ry="8.8" style="stroke:#181818;stroke-width:0.8000000000000002;"/><path d="M184.4125,263.1 Q184.5375,262.925 184.6875,262.8375 Q184.8375,262.75 185.0125,262.75 Q185.3125,262.75 185.5,262.9625 Q185.6875,263.1625 185.6875,263.65 L185.6875,264.8125 Q185.6875,265.3 185.5,265.5125 Q185.3125,265.725 185.0125,265.725 Q184.7375,265.725 184.575,265.5625 Q184.4125,265.4125 184.325,265 Q184.2875,264.7125 184.1375,264.5625 Q183.875,264.2625 183.3875,264.0875 Q182.9,263.9125 182.4,263.9125 Q181.7875,263.9125 181.275,264.175 Q180.775,264.4375 180.375,265.0375 Q179.9875,265.6375 179.9875,266.4625 L179.9875,267.3375 Q179.9875,268.325 180.7,268.9875 Q181.4125,269.6375 182.6875,269.6375 Q183.4375,269.6375 183.9625,269.4375 Q184.275,269.3125 184.6125,268.9625 Q184.825,268.75 184.9375,268.6875 Q185.0625,268.625 185.225,268.625 Q185.4875,268.625 185.6875,268.8375 Q185.9,269.0375 185.9,269.3125 Q185.9,269.5875 185.625,269.9125 Q185.225,270.375 184.5875,270.6375 Q183.725,271 182.6875,271 Q181.475,271 180.5125,270.5 Q179.725,270.1 179.175,269.25 Q178.625,268.3875 178.625,267.3625 L178.625,266.4375 Q178.625,265.375 179.1125,264.4625 Q179.6125,263.5375 180.4875,263.05 Q181.3625,262.55 182.35,262.55 Q182.9375,262.55 183.45,262.6875 Q183.975,262.8125 184.4125,263.1 Z " fill="#000000"/><text fill="#000000" font-family="sans-serif" font-size="11.2" lengthAdjust="spacing" textLength="63.2" x="198.6" y="271.0375">Repositories</text><line style="stroke:#181818;stroke-width:0.4000000000000001;" x1="140.4" x2="294" y1="279.2" y2="279.2"/><line style="stroke:#181818;stroke-width:0.4000000000000001;" x1="140.4" x2="294" y1="285.6" y2="285.6"/><text fill="#000000" font-family="sans-serif" font-size="11.2" lengthAdjust="spacing" textLength="75.2" x="144.4" y="300.8859">-Repositories()</text><text fill="#000000" font-family="sans-serif" font-size="11.2" lengthAdjust="spacing" textLength="145.6" x="144.4" y="315.7828">+getInstance() : Repositories</text><text fill="#000000" font-family="sans-serif" font-size="11.2" lengthAdjust="spacing" textLength="69.6" x="144.4" y="330.6797">+getAgenda()</text><text fill="#000000" font-family="sans-serif" font-size="11.2" lengthAdjust="spacing" textLength="76" x="144.4" y="345.5766">+getToDoList()</text></g><!--class AgendaStatus--><g id="elem_AgendaStatus"><rect codeLine="54" fill="#F1F1F1" height="97.9875" id="AgendaStatus" rx="2" ry="2" style="stroke:#181818;stroke-width:0.4000000000000001;" width="96.8" x="27.2" y="686.4"/><ellipse cx="39.2" cy="699.2" fill="#EB937F" rx="8.8" ry="8.8" style="stroke:#181818;stroke-width:0.8000000000000002;"/><path d="M38.2875,699.8375 L38.2875,701.8375 L41.75,701.8375 L41.75,701.1 Q41.75,700.6125 41.9375,700.4 Q42.1375,700.1875 42.4375,700.1875 Q42.7375,700.1875 42.925,700.4 Q43.1125,700.6125 43.1125,701.1 L43.1125,703.2 L36.7125,703.2 Q36.2125,703.2 36,703.0125 Q35.8,702.825 35.8,702.5125 Q35.8,702.2125 36.0125,702.025 Q36.225,701.8375 36.7125,701.8375 L36.925,701.8375 L36.925,696.5125 L36.7125,696.5125 Q36.2125,696.5125 36,696.325 Q35.8,696.1375 35.8,695.825 Q35.8,695.525 36,695.3375 Q36.2125,695.15 36.7125,695.15 L42.8125,695.15 L42.8125,697.225 Q42.8125,697.7125 42.625,697.925 Q42.45,698.125 42.1375,698.125 Q41.8375,698.125 41.65,697.925 Q41.4625,697.7125 41.4625,697.225 L41.4625,696.5125 L38.2875,696.5125 L38.2875,698.475 L39.475,698.475 Q39.475,697.95 39.575,697.8 Q39.7875,697.475 40.1625,697.475 Q40.4625,697.475 40.65,697.6875 Q40.8375,697.8875 40.8375,698.375 L40.8375,699.95 Q40.8375,700.3875 40.7375,700.5375 Q40.525,700.85 40.1625,700.85 Q39.7875,700.85 39.575,700.525 Q39.475,700.375 39.475,699.8375 L38.2875,699.8375 Z " fill="#000000"/><text fill="#000000" font-family="sans-serif" font-size="11.2" lengthAdjust="spacing" textLength="71.2" x="50.4" y="703.8375">AgendaStatus</text><line style="stroke:#181818;stroke-width:0.4000000000000001;" x1="28" x2="123.2" y1="712" y2="712"/><text fill="#000000" font-family="sans-serif" font-size="11.2" lengthAdjust="spacing" textLength="50.4" x="32" y="727.2859">PLANNED</text><text fill="#000000" font-family="sans-serif" font-size="11.2" lengthAdjust="spacing" textLength="68.8" x="32" y="742.1828">POSTPONED</text><text fill="#000000" font-family="sans-serif" font-size="11.2" lengthAdjust="spacing" textLength="59.2" x="32" y="757.0797">CANCELED</text><text fill="#000000" font-family="sans-serif" font-size="11.2" lengthAdjust="spacing" textLength="31.2" x="32" y="771.9766">DONE</text><line style="stroke:#181818;stroke-width:0.4000000000000001;" x1="28" x2="123.2" y1="777.9875" y2="777.9875"/></g><!--class TaskStatus--><g id="elem_TaskStatus"><rect codeLine="61" fill="#F1F1F1" height="68.1938" id="TaskStatus" rx="2" ry="2" style="stroke:#181818;stroke-width:0.4000000000000001;" width="82.4" x="320" y="855.2"/><ellipse cx="332" cy="868" fill="#EB937F" rx="8.8" ry="8.8" style="stroke:#181818;stroke-width:0.8000000000000002;"/><path d="M331.0875,868.6375 L331.0875,870.6375 L334.55,870.6375 L334.55,869.9 Q334.55,869.4125 334.7375,869.2 Q334.9375,868.9875 335.2375,868.9875 Q335.5375,868.9875 335.725,869.2 Q335.9125,869.4125 335.9125,869.9 L335.9125,872 L329.5125,872 Q329.0125,872 328.8,871.8125 Q328.6,871.625 328.6,871.3125 Q328.6,871.0125 328.8125,870.825 Q329.025,870.6375 329.5125,870.6375 L329.725,870.6375 L329.725,865.3125 L329.5125,865.3125 Q329.0125,865.3125 328.8,865.125 Q328.6,864.9375 328.6,864.625 Q328.6,864.325 328.8,864.1375 Q329.0125,863.95 329.5125,863.95 L335.6125,863.95 L335.6125,866.025 Q335.6125,866.5125 335.425,866.725 Q335.25,866.925 334.9375,866.925 Q334.6375,866.925 334.45,866.725 Q334.2625,866.5125 334.2625,866.025 L334.2625,865.3125 L331.0875,865.3125 L331.0875,867.275 L332.275,867.275 Q332.275,866.75 332.375,866.6 Q332.5875,866.275 332.9625,866.275 Q333.2625,866.275 333.45,866.4875 Q333.6375,866.6875 333.6375,867.175 L333.6375,868.75 Q333.6375,869.1875 333.5375,869.3375 Q333.325,869.65 332.9625,869.65 Q332.5875,869.65 332.375,869.325 Q332.275,869.175 332.275,868.6375 L331.0875,868.6375 Z " fill="#000000"/><text fill="#000000" font-family="sans-serif" font-size="11.2" lengthAdjust="spacing" textLength="56.8" x="343.2" y="872.6375">TaskStatus</text><line style="stroke:#181818;stroke-width:0.4000000000000001;" x1="320.8" x2="401.6" y1="880.8" y2="880.8"/><text fill="#000000" font-family="sans-serif" font-size="11.2" lengthAdjust="spacing" textLength="48" x="324.8" y="896.0859">PENDING</text><text fill="#000000" font-family="sans-serif" font-size="11.2" lengthAdjust="spacing" textLength="68.8" x="324.8" y="910.9828">PROCESSED</text><line style="stroke:#181818;stroke-width:0.4000000000000001;" x1="320.8" x2="401.6" y1="916.9938" y2="916.9938"/></g><!--link AddEntryAgendaUI to AddEntryAgendaController--><g id="link_AddEntryAgendaUI_AddEntryAgendaController"><path codeLine="66" d="M217.2,44.112 C217.2,57.272 217.2,70.8 217.2,87.96 " fill="none" id="AddEntryAgendaUI-to-AddEntryAgendaController" style="stroke:#181818;stroke-width:0.8000000000000002;stroke-dasharray:7.0,7.0;"/><polygon fill="#181818" points="217.2,92.76,220.4,85.56,217.2,88.76,214,85.56,217.2,92.76" style="stroke:#181818;stroke-width:0.8000000000000002;"/></g><!--link AddEntryAgendaController to Repositories--><g id="link_AddEntryAgendaController_Repositories"><path codeLine="67" d="M217.2,190.6 C217.2,210.544 217.2,228.832 217.2,248.768 " fill="none" id="AddEntryAgendaController-to-Repositories" style="stroke:#181818;stroke-width:0.8000000000000002;stroke-dasharray:7.0,7.0;"/><polygon fill="#181818" points="217.2,253.568,220.4,246.368,217.2,249.568,214,246.368,217.2,253.568" style="stroke:#181818;stroke-width:0.8000000000000002;"/><text fill="#000000" font-family="sans-serif" font-size="10.4" lengthAdjust="spacing" textLength="53.6" x="218" y="226.4227">repositories</text></g><!--link AddEntryAgendaController to Agenda--><g id="link_AddEntryAgendaController_Agenda"><path codeLine="68" d="M162.152,190.528 C127.768,220.584 90,253.6 90,253.6 C90,253.6 90,351.2 90,351.2 C90,351.2 93.27,371.5649 97.07,395.1969 " fill="none" id="AddEntryAgendaController-to-Agenda" style="stroke:#181818;stroke-width:0.8000000000000002;stroke-dasharray:7.0,7.0;"/><polygon fill="#181818" points="97.832,399.936,99.8483,392.3193,97.197,395.9867,93.5295,393.3353,97.832,399.936" style="stroke:#181818;stroke-width:0.8000000000000002;"/><text fill="#000000" font-family="sans-serif" font-size="10.4" lengthAdjust="spacing" textLength="33.6" x="90.8" y="306.8227">agenda</text></g><!--link AddEntryAgendaController to ToDoList--><g id="link_AddEntryAgendaController_ToDoList"><path codeLine="69" d="M284.368,190.528 C326.312,220.584 372.4,253.6 372.4,253.6 C372.4,253.6 372.4,351.2 372.4,351.2 C372.4,351.2 368.3712,383.437 365.0672,409.877 " fill="none" id="AddEntryAgendaController-to-ToDoList" style="stroke:#181818;stroke-width:0.8000000000000002;stroke-dasharray:7.0,7.0;"/><polygon fill="#181818" points="364.472,414.64,368.5401,407.8924,364.968,410.6709,362.1895,407.0988,364.472,414.64" style="stroke:#181818;stroke-width:0.8000000000000002;"/><text fill="#000000" font-family="sans-serif" font-size="10.4" lengthAdjust="spacing" textLength="38.4" x="373.2" y="306.8227">toDoList</text></g><!--link Repositories to Repositories--><g id="link_Repositories_Repositories"><path codeLine="70" d="M295.024,289.376 C311.184,290.744 322.8,295.088 322.8,302.4 C322.8,309.712 315.9669,313.6511 299.8069,315.0191 " fill="none" id="Repositories-to-Repositories" style="stroke:#181818;stroke-width:0.8000000000000002;"/><polygon fill="#181818" points="295.024,315.424,302.4683,318.0053,299.0097,315.0866,301.9284,311.6281,295.024,315.424" style="stroke:#181818;stroke-width:0.8000000000000002;"/><text fill="#000000" font-family="sans-serif" font-size="10.4" lengthAdjust="spacing" textLength="39.2" x="327.6" y="306.8227">instance</text></g><!--link Repositories to Agenda--><g id="link_Repositories_Agenda"><path codeLine="71" d="M177.752,351.328 C164.784,367.136 153.5553,380.84 141.0673,396.072 " fill="none" id="Repositories-to-Agenda" style="stroke:#181818;stroke-width:0.8000000000000002;"/><polygon fill="#181818" points="138.024,399.784,145.0635,396.2449,140.56,396.6907,140.1142,392.1872,138.024,399.784" style="stroke:#181818;stroke-width:0.8000000000000002;"/><text fill="#000000" font-family="sans-serif" font-size="10.4" lengthAdjust="spacing" textLength="5.6" x="136.566" y="390.8969">1</text></g><!--link Repositories to ToDoList--><g id="link_Repositories_ToDoList"><path codeLine="72" d="M267.568,351.328 C289.864,372.64 311.7535,393.556 330.4495,411.42 " fill="none" id="Repositories-to-ToDoList" style="stroke:#181818;stroke-width:0.8000000000000002;"/><polygon fill="#181818" points="333.92,414.736,330.925,407.4483,331.028,411.9727,326.5036,412.0756,333.92,414.736" style="stroke:#181818;stroke-width:0.8000000000000002;"/><text fill="#000000" font-family="sans-serif" font-size="10.4" lengthAdjust="spacing" textLength="5.6" x="322.398" y="405.7838">1</text></g><!--link Agenda to Entry--><g id="link_Agenda_Entry"><path codeLine="73" d="M104.4,483.304 C104.4,498.76 104.4,511.552 104.4,527.016 " fill="none" id="Agenda-to-Entry" style="stroke:#181818;stroke-width:0.8000000000000002;"/><polygon fill="#181818" points="104.4,531.816,107.6,524.616,104.4,527.816,101.2,524.616,104.4,531.816" style="stroke:#181818;stroke-width:0.8000000000000002;"/><text fill="#000000" font-family="sans-serif" font-size="10.4" lengthAdjust="spacing" textLength="4" x="100.1313" y="522.9332">*</text></g><!--link ToDoList to Task--><g id="link_ToDoList_Task"><path codeLine="74" d="M361.2,468.568 C361.2,512.104 361.2,596.032 361.2,658.992 " fill="none" id="ToDoList-to-Task" style="stroke:#181818;stroke-width:0.8000000000000002;"/><polygon fill="#181818" points="361.2,663.792,364.4,656.592,361.2,659.792,358,656.592,361.2,663.792" style="stroke:#181818;stroke-width:0.8000000000000002;"/><text fill="#000000" font-family="sans-serif" font-size="10.4" lengthAdjust="spacing" textLength="4" x="357.0344" y="654.9362">*</text></g><!--link Entry to Task--><g id="link_Entry_Task"><path codeLine="75" d="M170.2,615.4 C193.904,630.168 217.3024,644.7412 243.8864,661.3092 " fill="none" id="Entry-to-Task" style="stroke:#181818;stroke-width:0.8000000000000002;"/><polygon fill="#181818" points="247.96,663.848,243.5421,657.324,244.5653,661.7323,240.157,662.7555,247.96,663.848" style="stroke:#181818;stroke-width:0.8000000000000002;"/><text fill="#000000" font-family="sans-serif" font-size="10.4" lengthAdjust="spacing" textLength="5.6" x="232.7504" y="654.9968">1</text></g><!--link Entry to AgendaStatus--><g id="link_Entry_AgendaStatus"><path codeLine="76" d="M97.024,615.4 C93.136,636.968 89.2027,658.828 85.1387,681.396 " fill="none" id="Entry-to-AgendaStatus" style="stroke:#181818;stroke-width:0.8000000000000002;"/><polygon fill="#181818" points="84.288,686.12,88.7134,679.6011,84.9969,682.1833,82.4147,678.4668,84.288,686.12" style="stroke:#181818;stroke-width:0.8000000000000002;"/><text fill="#000000" font-family="sans-serif" font-size="10.4" lengthAdjust="spacing" textLength="5.6" x="79.3688" y="677.2726">1</text></g><!--link Task to TaskStatus--><g id="link_Task_TaskStatus"><path codeLine="77" d="M361.2,806.4 C361.2,823.4 361.2,835.992 361.2,850.36 " fill="none" id="Task-to-TaskStatus" style="stroke:#181818;stroke-width:0.8000000000000002;"/><polygon fill="#181818" points="361.2,855.16,364.4,847.96,361.2,851.16,358,847.96,361.2,855.16" style="stroke:#181818;stroke-width:0.8000000000000002;"/><text fill="#000000" font-family="sans-serif" font-size="10.4" lengthAdjust="spacing" textLength="5.6" x="355.1538" y="846.2769">1</text></g><!--SRC=[ZLJ1Zjem4BtxAwoz4BgmQgySAb4IhP0Gh0Zx0Muo18jWHxPfcrRzzuvZEpWBx9O3STwycJTvcSb87xbec68dUf925WSbJq2DEWEvH1fM75a5kMbhe0eAmqHLnmHzOANyoKL5zwpMSQJc0apR06ratTeRCheHbCf84cKLDTDwRepYtyy6beKKEVyDz3CXenhsXXf95QyEXfRSjiEb8AJBeVEop8HHxRm2KRBN9Vr3_jwEBIIUPLs3GWx5t-EzUC8wO8AogLnnRSQEpmRyH1kc37gGCWF8PVguXJqe40MuX6a5PeVmjxOF93TeZvwchLGoZlhlT7otqw2UWFtt2ZzOpKlKlufyt6mar163ZcNGcExgEOLRPRfmSS0PmObXvgmj2o-HmCuR6Pp_s9XBAkAXjHm716TE1Te0BK4NYZVTS7HuTWA53r-qALGA00dsijc_EjIHk30KVZKuL52cPyKkwSz85Zck0j2gFxhsRKz9tyKabfwybPbSbPz4zVxBlIqqKdCZ5GSTh1Y0YIz3qTUbm7nhw9ZE1gGBnOz4b1JUZvi-4EUJ7pxNaXTzMStNwonrvqs-Uzc4kyLylSXM_YP5k2zZhHeMoTRfSltipjlD8ijpp4FwrIO_FNszkyBaxcxRhFYnPpWkaGdlvZbmHjt-lyyDbitwhmGPlAVfz6qVtB-PQzx3bmUlVJiMj8Z_8dJufmUtjwHVhW1RpudRwRx2DHI_OD9jMKps-3y0]--></g></svg>