<?xml version="1.0" encoding="us-ascii" standalone="no"?><svg xmlns="http://www.w3.org/2000/svg" xmlns:xlink="http://www.w3.org/1999/xlink" contentStyleType="text/css" height="1161px" preserveAspectRatio="none" style="width:746px;height:1161px;background:#FFFFFF;" version="1.1" viewBox="0 0 746 1161" width="746px" zoomAndPan="magnify"><defs/><g><!--class AddEntryAgendaUI--><g id="elem_AddEntryAgendaUI"><rect codeLine="11" fill="#F1F1F1" height="48" id="AddEntryAgendaUI" rx="2.5" ry="2.5" style="stroke:#181818;stroke-width:0.5;" width="151" x="168" y="7"/><ellipse cx="183" cy="23" fill="#ADD1B2" rx="11" ry="11" style="stroke:#181818;stroke-width:1.0;"/><path d="M185.7656,18.875 Q185.9219,18.6563 186.1094,18.5469 Q186.2969,18.4375 186.5156,18.4375 Q186.8906,18.4375 187.125,18.7031 Q187.3594,18.9531 187.3594,19.5625 L187.3594,21.0156 Q187.3594,21.625 187.125,21.8906 Q186.8906,22.1563 186.5156,22.1563 Q186.1719,22.1563 185.9688,21.9531 Q185.7656,21.7656 185.6563,21.25 Q185.6094,20.8906 185.4219,20.7031 Q185.0938,20.3281 184.4844,20.1094 Q183.875,19.8906 183.25,19.8906 Q182.4844,19.8906 181.8438,20.2188 Q181.2188,20.5469 180.7188,21.2969 Q180.2344,22.0469 180.2344,23.0781 L180.2344,24.1719 Q180.2344,25.4063 181.125,26.2344 Q182.0156,27.0469 183.6094,27.0469 Q184.5469,27.0469 185.2031,26.7969 Q185.5938,26.6406 186.0156,26.2031 Q186.2813,25.9375 186.4219,25.8594 Q186.5781,25.7813 186.7813,25.7813 Q187.1094,25.7813 187.3594,26.0469 Q187.625,26.2969 187.625,26.6406 Q187.625,26.9844 187.2813,27.3906 Q186.7813,27.9688 185.9844,28.2969 Q184.9063,28.75 183.6094,28.75 Q182.0938,28.75 180.8906,28.125 Q179.9063,27.625 179.2188,26.5625 Q178.5313,25.4844 178.5313,24.2031 L178.5313,23.0469 Q178.5313,21.7188 179.1406,20.5781 Q179.7656,19.4219 180.8594,18.8125 Q181.9531,18.1875 183.1875,18.1875 Q183.9219,18.1875 184.5625,18.3594 Q185.2188,18.5156 185.7656,18.875 Z " fill="#000000"/><text fill="#000000" font-family="sans-serif" font-size="14" lengthAdjust="spacing" textLength="119" x="197" y="28.7969">AddEntryAgendaUI</text><line style="stroke:#181818;stroke-width:0.5;" x1="169" x2="318" y1="39" y2="39"/><line style="stroke:#181818;stroke-width:0.5;" x1="169" x2="318" y1="47" y2="47"/></g><!--class AddEntryAgendaController--><g id="elem_AddEntryAgendaController"><rect codeLine="14" fill="#F1F1F1" height="122.4844" id="AddEntryAgendaController" rx="2.5" ry="2.5" style="stroke:#181818;stroke-width:0.5;" width="313" x="87" y="116"/><ellipse cx="154.75" cy="132" fill="#ADD1B2" rx="11" ry="11" style="stroke:#181818;stroke-width:1.0;"/><path d="M157.5156,127.875 Q157.6719,127.6563 157.8594,127.5469 Q158.0469,127.4375 158.2656,127.4375 Q158.6406,127.4375 158.875,127.7031 Q159.1094,127.9531 159.1094,128.5625 L159.1094,130.0156 Q159.1094,130.625 158.875,130.8906 Q158.6406,131.1563 158.2656,131.1563 Q157.9219,131.1563 157.7188,130.9531 Q157.5156,130.7656 157.4063,130.25 Q157.3594,129.8906 157.1719,129.7031 Q156.8438,129.3281 156.2344,129.1094 Q155.625,128.8906 155,128.8906 Q154.2344,128.8906 153.5938,129.2188 Q152.9688,129.5469 152.4688,130.2969 Q151.9844,131.0469 151.9844,132.0781 L151.9844,133.1719 Q151.9844,134.4063 152.875,135.2344 Q153.7656,136.0469 155.3594,136.0469 Q156.2969,136.0469 156.9531,135.7969 Q157.3438,135.6406 157.7656,135.2031 Q158.0313,134.9375 158.1719,134.8594 Q158.3281,134.7813 158.5313,134.7813 Q158.8594,134.7813 159.1094,135.0469 Q159.375,135.2969 159.375,135.6406 Q159.375,135.9844 159.0313,136.3906 Q158.5313,136.9688 157.7344,137.2969 Q156.6563,137.75 155.3594,137.75 Q153.8438,137.75 152.6406,137.125 Q151.6563,136.625 150.9688,135.5625 Q150.2813,134.4844 150.2813,133.2031 L150.2813,132.0469 Q150.2813,130.7188 150.8906,129.5781 Q151.5156,128.4219 152.6094,127.8125 Q153.7031,127.1875 154.9375,127.1875 Q155.6719,127.1875 156.3125,127.3594 Q156.9688,127.5156 157.5156,127.875 Z " fill="#000000"/><text fill="#000000" font-family="sans-serif" font-size="14" lengthAdjust="spacing" textLength="169" x="175.25" y="137.7969">AddEntryAgendaController</text><line style="stroke:#181818;stroke-width:0.5;" x1="88" x2="399" y1="148" y2="148"/><line style="stroke:#181818;stroke-width:0.5;" x1="88" x2="399" y1="156" y2="156"/><text fill="#000000" font-family="sans-serif" font-size="14" lengthAdjust="spacing" textLength="295" x="93" y="175.1074">+AddEntryAgendaController(agenda, toDoList)</text><text fill="#000000" font-family="sans-serif" font-size="14" lengthAdjust="spacing" textLength="301" x="93" y="193.7285">+addEntryAgenda(startingDate, taskReference)</text><text fill="#000000" font-family="sans-serif" font-size="14" lengthAdjust="spacing" textLength="240" x="93" y="212.3496">-getTaskByReference(taskReference)</text><text fill="#000000" font-family="sans-serif" font-size="14" lengthAdjust="spacing" textLength="98" x="93" y="230.9707">+getTasksList()</text></g><!--class Agenda--><g id="elem_Agenda"><rect codeLine="21" fill="#F1F1F1" height="103.8633" id="Agenda" rx="2.5" ry="2.5" style="stroke:#181818;stroke-width:0.5;" width="247" x="7" y="500"/><ellipse cx="101.75" cy="516" fill="#ADD1B2" rx="11" ry="11" style="stroke:#181818;stroke-width:1.0;"/><path d="M104.5156,511.875 Q104.6719,511.6563 104.8594,511.5469 Q105.0469,511.4375 105.2656,511.4375 Q105.6406,511.4375 105.875,511.7031 Q106.1094,511.9531 106.1094,512.5625 L106.1094,514.0156 Q106.1094,514.625 105.875,514.8906 Q105.6406,515.1563 105.2656,515.1563 Q104.9219,515.1563 104.7188,514.9531 Q104.5156,514.7656 104.4063,514.25 Q104.3594,513.8906 104.1719,513.7031 Q103.8438,513.3281 103.2344,513.1094 Q102.625,512.8906 102,512.8906 Q101.2344,512.8906 100.5938,513.2188 Q99.9688,513.5469 99.4688,514.2969 Q98.9844,515.0469 98.9844,516.0781 L98.9844,517.1719 Q98.9844,518.4063 99.875,519.2344 Q100.7656,520.0469 102.3594,520.0469 Q103.2969,520.0469 103.9531,519.7969 Q104.3438,519.6406 104.7656,519.2031 Q105.0313,518.9375 105.1719,518.8594 Q105.3281,518.7813 105.5313,518.7813 Q105.8594,518.7813 106.1094,519.0469 Q106.375,519.2969 106.375,519.6406 Q106.375,519.9844 106.0313,520.3906 Q105.5313,520.9688 104.7344,521.2969 Q103.6563,521.75 102.3594,521.75 Q100.8438,521.75 99.6406,521.125 Q98.6563,520.625 97.9688,519.5625 Q97.2813,518.4844 97.2813,517.2031 L97.2813,516.0469 Q97.2813,514.7188 97.8906,513.5781 Q98.5156,512.4219 99.6094,511.8125 Q100.7031,511.1875 101.9375,511.1875 Q102.6719,511.1875 103.3125,511.3594 Q103.9688,511.5156 104.5156,511.875 Z " fill="#000000"/><text fill="#000000" font-family="sans-serif" font-size="14" lengthAdjust="spacing" textLength="49" x="122.25" y="521.7969">Agenda</text><line style="stroke:#181818;stroke-width:0.5;" x1="8" x2="253" y1="532" y2="532"/><line style="stroke:#181818;stroke-width:0.5;" x1="8" x2="253" y1="540" y2="540"/><text fill="#000000" font-family="sans-serif" font-size="14" lengthAdjust="spacing" textLength="104" x="13" y="559.1074">-addEntry(entry)</text><text fill="#000000" font-family="sans-serif" font-size="14" lengthAdjust="spacing" textLength="129" x="13" y="577.7285">-validateEntry(entry)</text><text fill="#000000" font-family="sans-serif" font-size="14" lengthAdjust="spacing" textLength="235" x="13" y="596.3496">+addEntryAgenda(startingDate, task)</text></g><!--class Entry--><g id="elem_Entry"><rect codeLine="27" fill="#F1F1F1" height="85.2422" id="Entry" rx="2.5" ry="2.5" style="stroke:#181818;stroke-width:0.5;" width="174" x="43.5" y="665"/><ellipse cx="109.75" cy="681" fill="#ADD1B2" rx="11" ry="11" style="stroke:#181818;stroke-width:1.0;"/><path d="M112.5156,676.875 Q112.6719,676.6563 112.8594,676.5469 Q113.0469,676.4375 113.2656,676.4375 Q113.6406,676.4375 113.875,676.7031 Q114.1094,676.9531 114.1094,677.5625 L114.1094,679.0156 Q114.1094,679.625 113.875,679.8906 Q113.6406,680.1563 113.2656,680.1563 Q112.9219,680.1563 112.7188,679.9531 Q112.5156,679.7656 112.4063,679.25 Q112.3594,678.8906 112.1719,678.7031 Q111.8438,678.3281 111.2344,678.1094 Q110.625,677.8906 110,677.8906 Q109.2344,677.8906 108.5938,678.2188 Q107.9688,678.5469 107.4688,679.2969 Q106.9844,680.0469 106.9844,681.0781 L106.9844,682.1719 Q106.9844,683.4063 107.875,684.2344 Q108.7656,685.0469 110.3594,685.0469 Q111.2969,685.0469 111.9531,684.7969 Q112.3438,684.6406 112.7656,684.2031 Q113.0313,683.9375 113.1719,683.8594 Q113.3281,683.7813 113.5313,683.7813 Q113.8594,683.7813 114.1094,684.0469 Q114.375,684.2969 114.375,684.6406 Q114.375,684.9844 114.0313,685.3906 Q113.5313,685.9688 112.7344,686.2969 Q111.6563,686.75 110.3594,686.75 Q108.8438,686.75 107.6406,686.125 Q106.6563,685.625 105.9688,684.5625 Q105.2813,683.4844 105.2813,682.2031 L105.2813,681.0469 Q105.2813,679.7188 105.8906,678.5781 Q106.5156,677.4219 107.6094,676.8125 Q108.7031,676.1875 109.9375,676.1875 Q110.6719,676.1875 111.3125,676.3594 Q111.9688,676.5156 112.5156,676.875 Z " fill="#000000"/><text fill="#000000" font-family="sans-serif" font-size="14" lengthAdjust="spacing" textLength="33" x="130.25" y="686.7969">Entry</text><line style="stroke:#181818;stroke-width:0.5;" x1="44.5" x2="216.5" y1="697" y2="697"/><text fill="#000000" font-family="sans-serif" font-size="14" lengthAdjust="spacing" textLength="116" x="49.5" y="716.1074">-Date startingDate</text><line style="stroke:#181818;stroke-width:0.5;" x1="44.5" x2="216.5" y1="723.6211" y2="723.6211"/><text fill="#000000" font-family="sans-serif" font-size="14" lengthAdjust="spacing" textLength="162" x="49.5" y="742.7285">+Entry(startingDate, task)</text></g><!--class ToDoList--><g id="elem_ToDoList"><rect codeLine="32" fill="#F1F1F1" height="66.6211" id="ToDoList" rx="2.5" ry="2.5" style="stroke:#181818;stroke-width:0.5;" width="255" x="333" y="518.5"/><ellipse cx="427.75" cy="534.5" fill="#ADD1B2" rx="11" ry="11" style="stroke:#181818;stroke-width:1.0;"/><path d="M430.5156,530.375 Q430.6719,530.1563 430.8594,530.0469 Q431.0469,529.9375 431.2656,529.9375 Q431.6406,529.9375 431.875,530.2031 Q432.1094,530.4531 432.1094,531.0625 L432.1094,532.5156 Q432.1094,533.125 431.875,533.3906 Q431.6406,533.6563 431.2656,533.6563 Q430.9219,533.6563 430.7188,533.4531 Q430.5156,533.2656 430.4063,532.75 Q430.3594,532.3906 430.1719,532.2031 Q429.8438,531.8281 429.2344,531.6094 Q428.625,531.3906 428,531.3906 Q427.2344,531.3906 426.5938,531.7188 Q425.9688,532.0469 425.4688,532.7969 Q424.9844,533.5469 424.9844,534.5781 L424.9844,535.6719 Q424.9844,536.9063 425.875,537.7344 Q426.7656,538.5469 428.3594,538.5469 Q429.2969,538.5469 429.9531,538.2969 Q430.3438,538.1406 430.7656,537.7031 Q431.0313,537.4375 431.1719,537.3594 Q431.3281,537.2813 431.5313,537.2813 Q431.8594,537.2813 432.1094,537.5469 Q432.375,537.7969 432.375,538.1406 Q432.375,538.4844 432.0313,538.8906 Q431.5313,539.4688 430.7344,539.7969 Q429.6563,540.25 428.3594,540.25 Q426.8438,540.25 425.6406,539.625 Q424.6563,539.125 423.9688,538.0625 Q423.2813,536.9844 423.2813,535.7031 L423.2813,534.5469 Q423.2813,533.2188 423.8906,532.0781 Q424.5156,530.9219 425.6094,530.3125 Q426.7031,529.6875 427.9375,529.6875 Q428.6719,529.6875 429.3125,529.8594 Q429.9688,530.0156 430.5156,530.375 Z " fill="#000000"/><text fill="#000000" font-family="sans-serif" font-size="14" lengthAdjust="spacing" textLength="57" x="448.25" y="540.2969">ToDoList</text><line style="stroke:#181818;stroke-width:0.5;" x1="334" x2="587" y1="550.5" y2="550.5"/><line style="stroke:#181818;stroke-width:0.5;" x1="334" x2="587" y1="558.5" y2="558.5"/><text fill="#000000" font-family="sans-serif" font-size="14" lengthAdjust="spacing" textLength="243" x="339" y="577.6074">+getTaskByReference(taskReference)</text></g><!--class Task--><g id="elem_Task"><rect codeLine="36" fill="#F1F1F1" height="196.9688" id="Task" rx="2.5" ry="2.5" style="stroke:#181818;stroke-width:0.5;" width="558" x="181.5" y="811"/><ellipse cx="440.75" cy="827" fill="#ADD1B2" rx="11" ry="11" style="stroke:#181818;stroke-width:1.0;"/><path d="M443.5156,822.875 Q443.6719,822.6563 443.8594,822.5469 Q444.0469,822.4375 444.2656,822.4375 Q444.6406,822.4375 444.875,822.7031 Q445.1094,822.9531 445.1094,823.5625 L445.1094,825.0156 Q445.1094,825.625 444.875,825.8906 Q444.6406,826.1563 444.2656,826.1563 Q443.9219,826.1563 443.7188,825.9531 Q443.5156,825.7656 443.4063,825.25 Q443.3594,824.8906 443.1719,824.7031 Q442.8438,824.3281 442.2344,824.1094 Q441.625,823.8906 441,823.8906 Q440.2344,823.8906 439.5938,824.2188 Q438.9688,824.5469 438.4688,825.2969 Q437.9844,826.0469 437.9844,827.0781 L437.9844,828.1719 Q437.9844,829.4063 438.875,830.2344 Q439.7656,831.0469 441.3594,831.0469 Q442.2969,831.0469 442.9531,830.7969 Q443.3438,830.6406 443.7656,830.2031 Q444.0313,829.9375 444.1719,829.8594 Q444.3281,829.7813 444.5313,829.7813 Q444.8594,829.7813 445.1094,830.0469 Q445.375,830.2969 445.375,830.6406 Q445.375,830.9844 445.0313,831.3906 Q444.5313,831.9688 443.7344,832.2969 Q442.6563,832.75 441.3594,832.75 Q439.8438,832.75 438.6406,832.125 Q437.6563,831.625 436.9688,830.5625 Q436.2813,829.4844 436.2813,828.2031 L436.2813,827.0469 Q436.2813,825.7188 436.8906,824.5781 Q437.5156,823.4219 438.6094,822.8125 Q439.7031,822.1875 440.9375,822.1875 Q441.6719,822.1875 442.3125,822.3594 Q442.9688,822.5156 443.5156,822.875 Z " fill="#000000"/><text fill="#000000" font-family="sans-serif" font-size="14" lengthAdjust="spacing" textLength="31" x="461.25" y="832.7969">Task</text><line style="stroke:#181818;stroke-width:0.5;" x1="182.5" x2="738.5" y1="843" y2="843"/><text fill="#000000" font-family="sans-serif" font-size="14" lengthAdjust="spacing" textLength="107" x="187.5" y="862.1074">-String reference</text><text fill="#000000" font-family="sans-serif" font-size="14" lengthAdjust="spacing" textLength="115" x="187.5" y="880.7285">-String description</text><text fill="#000000" font-family="sans-serif" font-size="14" lengthAdjust="spacing" textLength="239" x="187.5" y="899.3496">-EmergencyDegree degreeOfUrgency</text><text fill="#000000" font-family="sans-serif" font-size="14" lengthAdjust="spacing" textLength="135" x="187.5" y="917.9707">-int expectedDuration</text><text fill="#000000" font-family="sans-serif" font-size="14" lengthAdjust="spacing" textLength="99" x="187.5" y="936.5918">-TaskType type</text><text fill="#000000" font-family="sans-serif" font-size="14" lengthAdjust="spacing" textLength="166" x="187.5" y="955.2129">-GreenSpace greenSpace</text><line style="stroke:#181818;stroke-width:0.5;" x1="182.5" x2="738.5" y1="962.7266" y2="962.7266"/><text fill="#000000" font-family="sans-serif" font-size="14" lengthAdjust="spacing" textLength="546" x="187.5" y="981.834">+Task(reference, description, degreeOfUrgency, expectedDuration, type, greenSpace)</text><text fill="#000000" font-family="sans-serif" font-size="14" lengthAdjust="spacing" textLength="143" x="187.5" y="1000.4551">+changeStatus(status)</text></g><!--class Repositories--><g id="elem_Repositories"><rect codeLine="47" fill="#F1F1F1" height="122.4844" id="Repositories" rx="2.5" ry="2.5" style="stroke:#181818;stroke-width:0.5;" width="194" x="146.5" y="317"/><ellipse cx="199.75" cy="333" fill="#ADD1B2" rx="11" ry="11" style="stroke:#181818;stroke-width:1.0;"/><path d="M202.5156,328.875 Q202.6719,328.6563 202.8594,328.5469 Q203.0469,328.4375 203.2656,328.4375 Q203.6406,328.4375 203.875,328.7031 Q204.1094,328.9531 204.1094,329.5625 L204.1094,331.0156 Q204.1094,331.625 203.875,331.8906 Q203.6406,332.1563 203.2656,332.1563 Q202.9219,332.1563 202.7188,331.9531 Q202.5156,331.7656 202.4063,331.25 Q202.3594,330.8906 202.1719,330.7031 Q201.8438,330.3281 201.2344,330.1094 Q200.625,329.8906 200,329.8906 Q199.2344,329.8906 198.5938,330.2188 Q197.9688,330.5469 197.4688,331.2969 Q196.9844,332.0469 196.9844,333.0781 L196.9844,334.1719 Q196.9844,335.4063 197.875,336.2344 Q198.7656,337.0469 200.3594,337.0469 Q201.2969,337.0469 201.9531,336.7969 Q202.3438,336.6406 202.7656,336.2031 Q203.0313,335.9375 203.1719,335.8594 Q203.3281,335.7813 203.5313,335.7813 Q203.8594,335.7813 204.1094,336.0469 Q204.375,336.2969 204.375,336.6406 Q204.375,336.9844 204.0313,337.3906 Q203.5313,337.9688 202.7344,338.2969 Q201.6563,338.75 200.3594,338.75 Q198.8438,338.75 197.6406,338.125 Q196.6563,337.625 195.9688,336.5625 Q195.2813,335.4844 195.2813,334.2031 L195.2813,333.0469 Q195.2813,331.7188 195.8906,330.5781 Q196.5156,329.4219 197.6094,328.8125 Q198.7031,328.1875 199.9375,328.1875 Q200.6719,328.1875 201.3125,328.3594 Q201.9688,328.5156 202.5156,328.875 Z " fill="#000000"/><text fill="#000000" font-family="sans-serif" font-size="14" lengthAdjust="spacing" textLength="79" x="220.25" y="338.7969">Repositories</text><line style="stroke:#181818;stroke-width:0.5;" x1="147.5" x2="339.5" y1="349" y2="349"/><line style="stroke:#181818;stroke-width:0.5;" x1="147.5" x2="339.5" y1="357" y2="357"/><text fill="#000000" font-family="sans-serif" font-size="14" lengthAdjust="spacing" textLength="94" x="152.5" y="376.1074">-Repositories()</text><text fill="#000000" font-family="sans-serif" font-size="14" lengthAdjust="spacing" textLength="182" x="152.5" y="394.7285">+getInstance() : Repositories</text><text fill="#000000" font-family="sans-serif" font-size="14" lengthAdjust="spacing" textLength="87" x="152.5" y="413.3496">+getAgenda()</text><text fill="#000000" font-family="sans-serif" font-size="14" lengthAdjust="spacing" textLength="95" x="152.5" y="431.9707">+getToDoList()</text></g><!--class AgendaStatus--><g id="elem_AgendaStatus"><rect codeLine="54" fill="#F1F1F1" height="122.4844" id="AgendaStatus" rx="2.5" ry="2.5" style="stroke:#181818;stroke-width:0.5;" width="121" x="25" y="848.5"/><ellipse cx="40" cy="864.5" fill="#EB937F" rx="11" ry="11" style="stroke:#181818;stroke-width:1.0;"/><path d="M38.8594,865.2969 L38.8594,867.7969 L43.1875,867.7969 L43.1875,866.875 Q43.1875,866.2656 43.4219,866 Q43.6719,865.7344 44.0469,865.7344 Q44.4219,865.7344 44.6563,866 Q44.8906,866.2656 44.8906,866.875 L44.8906,869.5 L36.8906,869.5 Q36.2656,869.5 36,869.2656 Q35.75,869.0313 35.75,868.6406 Q35.75,868.2656 36.0156,868.0313 Q36.2813,867.7969 36.8906,867.7969 L37.1563,867.7969 L37.1563,861.1406 L36.8906,861.1406 Q36.2656,861.1406 36,860.9063 Q35.75,860.6719 35.75,860.2813 Q35.75,859.9063 36,859.6719 Q36.2656,859.4375 36.8906,859.4375 L44.5156,859.4375 L44.5156,862.0313 Q44.5156,862.6406 44.2813,862.9063 Q44.0625,863.1563 43.6719,863.1563 Q43.2969,863.1563 43.0625,862.9063 Q42.8281,862.6406 42.8281,862.0313 L42.8281,861.1406 L38.8594,861.1406 L38.8594,863.5938 L40.3438,863.5938 Q40.3438,862.9375 40.4688,862.75 Q40.7344,862.3438 41.2031,862.3438 Q41.5781,862.3438 41.8125,862.6094 Q42.0469,862.8594 42.0469,863.4688 L42.0469,865.4375 Q42.0469,865.9844 41.9219,866.1719 Q41.6563,866.5625 41.2031,866.5625 Q40.7344,866.5625 40.4688,866.1563 Q40.3438,865.9688 40.3438,865.2969 L38.8594,865.2969 Z " fill="#000000"/><text fill="#000000" font-family="sans-serif" font-size="14" lengthAdjust="spacing" textLength="89" x="54" y="870.2969">AgendaStatus</text><line style="stroke:#181818;stroke-width:0.5;" x1="26" x2="145" y1="880.5" y2="880.5"/><text fill="#000000" font-family="sans-serif" font-size="14" lengthAdjust="spacing" textLength="63" x="31" y="899.6074">PLANNED</text><text fill="#000000" font-family="sans-serif" font-size="14" lengthAdjust="spacing" textLength="86" x="31" y="918.2285">POSTPONED</text><text fill="#000000" font-family="sans-serif" font-size="14" lengthAdjust="spacing" textLength="74" x="31" y="936.8496">CANCELED</text><text fill="#000000" font-family="sans-serif" font-size="14" lengthAdjust="spacing" textLength="39" x="31" y="955.4707">DONE</text><line style="stroke:#181818;stroke-width:0.5;" x1="26" x2="145" y1="962.9844" y2="962.9844"/></g><!--class TaskStatus--><g id="elem_TaskStatus"><rect codeLine="61" fill="#F1F1F1" height="85.2422" id="TaskStatus" rx="2.5" ry="2.5" style="stroke:#181818;stroke-width:0.5;" width="103" x="409" y="1069"/><ellipse cx="424" cy="1085" fill="#EB937F" rx="11" ry="11" style="stroke:#181818;stroke-width:1.0;"/><path d="M422.8594,1085.7969 L422.8594,1088.2969 L427.1875,1088.2969 L427.1875,1087.375 Q427.1875,1086.7656 427.4219,1086.5 Q427.6719,1086.2344 428.0469,1086.2344 Q428.4219,1086.2344 428.6563,1086.5 Q428.8906,1086.7656 428.8906,1087.375 L428.8906,1090 L420.8906,1090 Q420.2656,1090 420,1089.7656 Q419.75,1089.5313 419.75,1089.1406 Q419.75,1088.7656 420.0156,1088.5313 Q420.2813,1088.2969 420.8906,1088.2969 L421.1563,1088.2969 L421.1563,1081.6406 L420.8906,1081.6406 Q420.2656,1081.6406 420,1081.4063 Q419.75,1081.1719 419.75,1080.7813 Q419.75,1080.4063 420,1080.1719 Q420.2656,1079.9375 420.8906,1079.9375 L428.5156,1079.9375 L428.5156,1082.5313 Q428.5156,1083.1406 428.2813,1083.4063 Q428.0625,1083.6563 427.6719,1083.6563 Q427.2969,1083.6563 427.0625,1083.4063 Q426.8281,1083.1406 426.8281,1082.5313 L426.8281,1081.6406 L422.8594,1081.6406 L422.8594,1084.0938 L424.3438,1084.0938 Q424.3438,1083.4375 424.4688,1083.25 Q424.7344,1082.8438 425.2031,1082.8438 Q425.5781,1082.8438 425.8125,1083.1094 Q426.0469,1083.3594 426.0469,1083.9688 L426.0469,1085.9375 Q426.0469,1086.4844 425.9219,1086.6719 Q425.6563,1087.0625 425.2031,1087.0625 Q424.7344,1087.0625 424.4688,1086.6563 Q424.3438,1086.4688 424.3438,1085.7969 L422.8594,1085.7969 Z " fill="#000000"/><text fill="#000000" font-family="sans-serif" font-size="14" lengthAdjust="spacing" textLength="71" x="438" y="1090.7969">TaskStatus</text><line style="stroke:#181818;stroke-width:0.5;" x1="410" x2="511" y1="1101" y2="1101"/><text fill="#000000" font-family="sans-serif" font-size="14" lengthAdjust="spacing" textLength="60" x="415" y="1120.1074">PENDING</text><text fill="#000000" font-family="sans-serif" font-size="14" lengthAdjust="spacing" textLength="86" x="415" y="1138.7285">PROCESSED</text><line style="stroke:#181818;stroke-width:0.5;" x1="410" x2="511" y1="1146.2422" y2="1146.2422"/></g><!--link AddEntryAgendaUI to AddEntryAgendaController--><g id="link_AddEntryAgendaUI_AddEntryAgendaController"><path codeLine="66" d="M243.5,55.14 C243.5,71.59 243.5,88.5 243.5,109.95 " fill="none" id="AddEntryAgendaUI-to-AddEntryAgendaController" style="stroke:#181818;stroke-width:1.0;stroke-dasharray:7.0,7.0;"/><polygon fill="#181818" points="243.5,115.95,247.5,106.95,243.5,110.95,239.5,106.95,243.5,115.95" style="stroke:#181818;stroke-width:1.0;"/></g><!--link AddEntryAgendaController to Repositories--><g id="link_AddEntryAgendaController_Repositories"><path codeLine="67" d="M243.5,238.25 C243.5,263.18 243.5,286.04 243.5,310.96 " fill="none" id="AddEntryAgendaController-to-Repositories" style="stroke:#181818;stroke-width:1.0;stroke-dasharray:7.0,7.0;"/><polygon fill="#181818" points="243.5,316.96,247.5,307.96,243.5,311.96,239.5,307.96,243.5,316.96" style="stroke:#181818;stroke-width:1.0;"/><text fill="#000000" font-family="sans-serif" font-size="13" lengthAdjust="spacing" textLength="67" x="244.5" y="283.0283">repositories</text></g><!--link AddEntryAgendaController to Agenda--><g id="link_AddEntryAgendaController_Agenda"><path codeLine="68" d="M174.69,238.16 C131.71,275.73 84.5,317 84.5,317 C84.5,317 84.5,439 84.5,439 C84.5,439 95.1109,464.8297 107.2409,494.3697 " fill="none" id="AddEntryAgendaController-to-Agenda" style="stroke:#181818;stroke-width:1.0;stroke-dasharray:7.0,7.0;"/><polygon fill="#181818" points="109.52,499.92,109.8015,490.0752,107.6207,495.2948,102.4011,493.114,109.52,499.92" style="stroke:#181818;stroke-width:1.0;"/><text fill="#000000" font-family="sans-serif" font-size="13" lengthAdjust="spacing" textLength="42" x="85.5" y="383.5283">agenda</text></g><!--link AddEntryAgendaController to ToDoList--><g id="link_AddEntryAgendaController_ToDoList"><path codeLine="69" d="M327.46,238.16 C379.89,275.73 437.5,317 437.5,317 C437.5,317 450.393,448.1988 456.713,512.4888 " fill="none" id="AddEntryAgendaController-to-ToDoList" style="stroke:#181818;stroke-width:1.0;stroke-dasharray:7.0,7.0;"/><polygon fill="#181818" points="457.3,518.46,460.4003,509.1118,456.8108,513.484,452.4387,509.8945,457.3,518.46" style="stroke:#181818;stroke-width:1.0;"/><text fill="#000000" font-family="sans-serif" font-size="13" lengthAdjust="spacing" textLength="48" x="449.5" y="383.5283">toDoList</text></g><!--link Repositories to Repositories--><g id="link_Repositories_Repositories"><path codeLine="70" d="M340.78,361.72 C360.98,363.43 375.5,368.86 375.5,378 C375.5,387.14 366.9586,392.0639 346.7586,393.7739 " fill="none" id="Repositories-to-Repositories" style="stroke:#181818;stroke-width:1.0;"/><polygon fill="#181818" points="340.78,394.28,350.0853,397.5066,345.7622,393.8582,349.4105,389.5351,340.78,394.28" style="stroke:#181818;stroke-width:1.0;"/><text fill="#000000" font-family="sans-serif" font-size="13" lengthAdjust="spacing" textLength="49" x="381.5" y="383.5283">instance</text></g><!--link Repositories to Agenda--><g id="link_Repositories_Agenda"><path codeLine="71" d="M203.98,439.16 C190.99,458.92 179.9847,475.6755 167.4747,494.7155 " fill="none" id="Repositories-to-Agenda" style="stroke:#181818;stroke-width:1.0;"/><polygon fill="#181818" points="164.18,499.73,172.465,494.4048,166.9256,495.5513,165.7791,490.0118,164.18,499.73" style="stroke:#181818;stroke-width:1.0;"/><text fill="#000000" font-family="sans-serif" font-size="13" lengthAdjust="spacing" textLength="7" x="161.2354" y="488.6211">1</text></g><!--link Repositories to ToDoList--><g id="link_Repositories_ToDoList"><path codeLine="72" d="M319.4,439.16 C353.01,465.8 386.5181,492.3628 414.6881,514.6928 " fill="none" id="Repositories-to-ToDoList" style="stroke:#181818;stroke-width:1.0;"/><polygon fill="#181818" points="419.39,518.42,414.8219,509.6946,415.4717,515.314,409.8523,515.9639,419.39,518.42" style="stroke:#181818;stroke-width:1.0;"/><text fill="#000000" font-family="sans-serif" font-size="13" lengthAdjust="spacing" textLength="7" x="403.6074" y="507.2298">1</text></g><!--link Agenda to Entry--><g id="link_Agenda_Entry"><path codeLine="73" d="M130.5,604.11 C130.5,623.82 130.5,640.08 130.5,658.8 " fill="none" id="Agenda-to-Entry" style="stroke:#181818;stroke-width:1.0;"/><polygon fill="#181818" points="130.5,664.8,134.5,655.8,130.5,659.8,126.5,655.8,130.5,664.8" style="stroke:#181818;stroke-width:1.0;"/><text fill="#000000" font-family="sans-serif" font-size="13" lengthAdjust="spacing" textLength="5" x="125.1016" y="653.6722">*</text></g><!--link ToDoList to Task--><g id="link_ToDoList_Task"><path codeLine="74" d="M460.5,585.81 C460.5,636.43 460.5,729.58 460.5,804.68 " fill="none" id="ToDoList-to-Task" style="stroke:#181818;stroke-width:1.0;"/><polygon fill="#181818" points="460.5,810.68,464.5,801.68,460.5,805.68,456.5,801.68,460.5,810.68" style="stroke:#181818;stroke-width:1.0;"/><text fill="#000000" font-family="sans-serif" font-size="13" lengthAdjust="spacing" textLength="5" x="455.3164" y="799.8388">*</text></g><!--link Entry to Task--><g id="link_Entry_Task"><path codeLine="75" d="M199.28,750.18 C228.56,767.93 258.9188,786.3302 294.1788,807.7002 " fill="none" id="Entry-to-Task" style="stroke:#181818;stroke-width:1.0;"/><polygon fill="#181818" points="299.31,810.81,293.6865,802.7245,295.034,808.2185,289.54,809.566,299.31,810.81" style="stroke:#181818;stroke-width:1.0;"/><text fill="#000000" font-family="sans-serif" font-size="13" lengthAdjust="spacing" textLength="7" x="279.7009" y="799.6439">1</text></g><!--link Entry to AgendaStatus--><g id="link_Entry_AgendaStatus"><path codeLine="76" d="M121.07,750.43 C114.67,778.83 107.4467,810.9563 100.3367,842.5663 " fill="none" id="Entry-to-AgendaStatus" style="stroke:#181818;stroke-width:1.0;"/><polygon fill="#181818" points="99.02,848.42,104.8975,840.5172,100.1172,843.5419,97.0925,838.7616,99.02,848.42" style="stroke:#181818;stroke-width:1.0;"/><text fill="#000000" font-family="sans-serif" font-size="13" lengthAdjust="spacing" textLength="7" x="93.1786" y="837.392">1</text></g><!--link Task to TaskStatus--><g id="link_Task_TaskStatus"><path codeLine="77" d="M460.5,1008.16 C460.5,1029.57 460.5,1045.14 460.5,1062.91 " fill="none" id="Task-to-TaskStatus" style="stroke:#181818;stroke-width:1.0;"/><polygon fill="#181818" points="460.5,1068.91,464.5,1059.91,460.5,1063.91,456.5,1059.91,460.5,1068.91" style="stroke:#181818;stroke-width:1.0;"/><text fill="#000000" font-family="sans-serif" font-size="13" lengthAdjust="spacing" textLength="7" x="452.9422" y="1057.7997">1</text></g><!--SRC=[XLHDZzem4BtxLrXS2DsmQgySAb4IhP0Gh0Zx0xp942o27TccRLhrltSSEy5PFZQ7n7xpPjvuF9EnFd9HCyLEz2I5p0zAde0QTGPoiTGiFx8ICjDKG1NaXeco2Wdwm0hvYukIxbcbGql51PYc1bhBgh4RChvXbCf84dZb5TDwRepYxsS3oroAZFy1-fMGSGLxGusaYfS7Gmjkq-5I4DBwq7bHfCAePbw2ADZRalub_sxR5XBNigf08OVYytJF7h4MY54saIkkpSJnsO0VQSEKmHeap01ocJvkOGyAH0xEOLg2sI7ye-aDqGtQawTfAnLDWlnR7P_jj5EFmBwzmazMyGBrhooV9ni8jSHEnp9eI7VndCB3C3jVhgw-dn__uefubq26RO2TfJhQ02r0vuhNRGkqU7e2XKVCcmHA1O04-zditnpgI5mO2hzhR1qeahDY5tShlBCjQVlIGI_eBpAS0Q1bltGdikoeJomEiua_AiTNYd4h4WTH_Ltb1nmm73TcpjgM63z1RRPGIysDL1nqLwC16Fam50k-5EXlApsXim7fGl4T4JXr5-UQ3yJvv7lFfUH5NrVpzJfDt7gJxLuttMunNo_IbTya2FTXRC66GT9ribo_kFLsiqYp3FsGVZN8py_VxqumkJlQrYiyzWpxA2Z2Gpy7pgWR_yVShcIp_YT11lSqdNxCW_kRkUQDlesyzcrRfqNy3w75lupSs99-wZhOrfouaUuZN4FX1PDs_4Aon_y3]--></g></svg>