<?xml version="1.0" encoding="us-ascii" standalone="no"?><svg xmlns="http://www.w3.org/2000/svg" xmlns:xlink="http://www.w3.org/1999/xlink" contentStyleType="text/css" height="1011.6px" preserveAspectRatio="none" style="width:648px;height:1011px;background:#FFFFFF;" version="1.1" viewBox="0 0 648 1011" width="648px" zoomAndPan="magnify"><defs/><g><!--class AddEntryAgendaUI--><g id="elem_AddEntryAgendaUI"><rect codeLine="11" fill="#F1F1F1" height="43.2" id="AddEntryAgendaUI" rx="2.25" ry="2.25" style="stroke:#181818;stroke-width:0.45;" width="135.9" x="176.4" y="6.3"/><ellipse cx="189.9" cy="20.7" fill="#ADD1B2" rx="9.9" ry="9.9" style="stroke:#181818;stroke-width:0.9;"/><path d="M192.3891,16.9875 Q192.5297,16.7906 192.6984,16.6922 Q192.8672,16.5938 193.0641,16.5938 Q193.4016,16.5938 193.6125,16.8328 Q193.8234,17.0578 193.8234,17.6063 L193.8234,18.9141 Q193.8234,19.4625 193.6125,19.7016 Q193.4016,19.9406 193.0641,19.9406 Q192.7547,19.9406 192.5719,19.7578 Q192.3891,19.5891 192.2906,19.125 Q192.2484,18.8016 192.0797,18.6328 Q191.7844,18.2953 191.2359,18.0984 Q190.6875,17.9016 190.125,17.9016 Q189.4359,17.9016 188.8594,18.1969 Q188.2969,18.4922 187.8469,19.1672 Q187.4109,19.8422 187.4109,20.7703 L187.4109,21.7547 Q187.4109,22.8656 188.2125,23.6109 Q189.0141,24.3422 190.4484,24.3422 Q191.2922,24.3422 191.8828,24.1172 Q192.2344,23.9766 192.6141,23.5828 Q192.8531,23.3438 192.9797,23.2734 Q193.1203,23.2031 193.3031,23.2031 Q193.5984,23.2031 193.8234,23.4422 Q194.0625,23.6672 194.0625,23.9766 Q194.0625,24.2859 193.7531,24.6516 Q193.3031,25.1719 192.5859,25.4672 Q191.6156,25.875 190.4484,25.875 Q189.0844,25.875 188.0016,25.3125 Q187.1156,24.8625 186.4969,23.9063 Q185.8781,22.9359 185.8781,21.7828 L185.8781,20.7422 Q185.8781,19.5469 186.4266,18.5203 Q186.9891,17.4797 187.9734,16.9313 Q188.9578,16.3688 190.0688,16.3688 Q190.7297,16.3688 191.3063,16.5234 Q191.8969,16.6641 192.3891,16.9875 Z " fill="#000000"/><text fill="#000000" font-family="sans-serif" font-size="12.6" lengthAdjust="spacing" textLength="107.1" x="202.5" y="25.9172">AddEntryAgendaUI</text><line style="stroke:#181818;stroke-width:0.45;" x1="177.3" x2="311.4" y1="35.1" y2="35.1"/><line style="stroke:#181818;stroke-width:0.45;" x1="177.3" x2="311.4" y1="42.3" y2="42.3"/></g><!--class AddEntryAgendaController--><g id="elem_AddEntryAgendaController"><rect codeLine="14" fill="#F1F1F1" height="110.2359" id="AddEntryAgendaController" rx="2.25" ry="2.25" style="stroke:#181818;stroke-width:0.45;" width="281.7" x="103.5" y="104.4"/><ellipse cx="164.475" cy="118.8" fill="#ADD1B2" rx="9.9" ry="9.9" style="stroke:#181818;stroke-width:0.9;"/><path d="M166.9641,115.0875 Q167.1047,114.8906 167.2734,114.7922 Q167.4422,114.6938 167.6391,114.6938 Q167.9766,114.6938 168.1875,114.9328 Q168.3984,115.1578 168.3984,115.7063 L168.3984,117.0141 Q168.3984,117.5625 168.1875,117.8016 Q167.9766,118.0406 167.6391,118.0406 Q167.3297,118.0406 167.1469,117.8578 Q166.9641,117.6891 166.8656,117.225 Q166.8234,116.9016 166.6547,116.7328 Q166.3594,116.3953 165.8109,116.1984 Q165.2625,116.0016 164.7,116.0016 Q164.0109,116.0016 163.4344,116.2969 Q162.8719,116.5922 162.4219,117.2672 Q161.9859,117.9422 161.9859,118.8703 L161.9859,119.8547 Q161.9859,120.9656 162.7875,121.7109 Q163.5891,122.4422 165.0234,122.4422 Q165.8672,122.4422 166.4578,122.2172 Q166.8094,122.0766 167.1891,121.6828 Q167.4281,121.4438 167.5547,121.3734 Q167.6953,121.3031 167.8781,121.3031 Q168.1734,121.3031 168.3984,121.5422 Q168.6375,121.7672 168.6375,122.0766 Q168.6375,122.3859 168.3281,122.7516 Q167.8781,123.2719 167.1609,123.5672 Q166.1906,123.975 165.0234,123.975 Q163.6594,123.975 162.5766,123.4125 Q161.6906,122.9625 161.0719,122.0063 Q160.4531,121.0359 160.4531,119.8828 L160.4531,118.8422 Q160.4531,117.6469 161.0016,116.6203 Q161.5641,115.5797 162.5484,115.0313 Q163.5328,114.4688 164.6438,114.4688 Q165.3047,114.4688 165.8813,114.6234 Q166.4719,114.7641 166.9641,115.0875 Z " fill="#000000"/><text fill="#000000" font-family="sans-serif" font-size="12.6" lengthAdjust="spacing" textLength="152.1" x="182.925" y="124.0172">AddEntryAgendaController</text><line style="stroke:#181818;stroke-width:0.45;" x1="104.4" x2="384.3" y1="133.2" y2="133.2"/><line style="stroke:#181818;stroke-width:0.45;" x1="104.4" x2="384.3" y1="140.4" y2="140.4"/><text fill="#000000" font-family="sans-serif" font-size="12.6" lengthAdjust="spacing" textLength="265.5" x="108.9" y="157.5967">+AddEntryAgendaController(agenda, toDoList)</text><text fill="#000000" font-family="sans-serif" font-size="12.6" lengthAdjust="spacing" textLength="270.9" x="108.9" y="174.3557">+addEntryAgenda(startingDate, taskReference)</text><text fill="#000000" font-family="sans-serif" font-size="12.6" lengthAdjust="spacing" textLength="216" x="108.9" y="191.1146">-getTaskByReference(taskReference)</text><text fill="#000000" font-family="sans-serif" font-size="12.6" lengthAdjust="spacing" textLength="88.2" x="108.9" y="207.8736">+getTasksList()</text></g><!--class Agenda--><g id="elem_Agenda"><rect codeLine="21" fill="#F1F1F1" height="93.477" id="Agenda" rx="2.25" ry="2.25" style="stroke:#181818;stroke-width:0.45;" width="222.3" x="6.3" y="450"/><ellipse cx="91.575" cy="464.4" fill="#ADD1B2" rx="9.9" ry="9.9" style="stroke:#181818;stroke-width:0.9;"/><path d="M94.0641,460.6875 Q94.2047,460.4906 94.3734,460.3922 Q94.5422,460.2938 94.7391,460.2938 Q95.0766,460.2938 95.2875,460.5328 Q95.4984,460.7578 95.4984,461.3063 L95.4984,462.6141 Q95.4984,463.1625 95.2875,463.4016 Q95.0766,463.6406 94.7391,463.6406 Q94.4297,463.6406 94.2469,463.4578 Q94.0641,463.2891 93.9656,462.825 Q93.9234,462.5016 93.7547,462.3328 Q93.4594,461.9953 92.9109,461.7984 Q92.3625,461.6016 91.8,461.6016 Q91.1109,461.6016 90.5344,461.8969 Q89.9719,462.1922 89.5219,462.8672 Q89.0859,463.5422 89.0859,464.4703 L89.0859,465.4547 Q89.0859,466.5656 89.8875,467.3109 Q90.6891,468.0422 92.1234,468.0422 Q92.9672,468.0422 93.5578,467.8172 Q93.9094,467.6766 94.2891,467.2828 Q94.5281,467.0438 94.6547,466.9734 Q94.7953,466.9031 94.9781,466.9031 Q95.2734,466.9031 95.4984,467.1422 Q95.7375,467.3672 95.7375,467.6766 Q95.7375,467.9859 95.4281,468.3516 Q94.9781,468.8719 94.2609,469.1672 Q93.2906,469.575 92.1234,469.575 Q90.7594,469.575 89.6766,469.0125 Q88.7906,468.5625 88.1719,467.6063 Q87.5531,466.6359 87.5531,465.4828 L87.5531,464.4422 Q87.5531,463.2469 88.1016,462.2203 Q88.6641,461.1797 89.6484,460.6313 Q90.6328,460.0688 91.7438,460.0688 Q92.4047,460.0688 92.9813,460.2234 Q93.5719,460.3641 94.0641,460.6875 Z " fill="#000000"/><text fill="#000000" font-family="sans-serif" font-size="12.6" lengthAdjust="spacing" textLength="44.1" x="110.025" y="469.6172">Agenda</text><line style="stroke:#181818;stroke-width:0.45;" x1="7.2" x2="227.7" y1="478.8" y2="478.8"/><line style="stroke:#181818;stroke-width:0.45;" x1="7.2" x2="227.7" y1="486" y2="486"/><text fill="#000000" font-family="sans-serif" font-size="12.6" lengthAdjust="spacing" textLength="93.6" x="11.7" y="503.1967">-addEntry(entry)</text><text fill="#000000" font-family="sans-serif" font-size="12.6" lengthAdjust="spacing" textLength="116.1" x="11.7" y="519.9557">-validateEntry(entry)</text><text fill="#000000" font-family="sans-serif" font-size="12.6" lengthAdjust="spacing" textLength="211.5" x="11.7" y="536.7146">+addEntryAgenda(startingDate, task)</text></g><!--class Entry--><g id="elem_Entry"><rect codeLine="27" fill="#F1F1F1" height="76.718" id="Entry" rx="2.25" ry="2.25" style="stroke:#181818;stroke-width:0.45;" width="156.6" x="39.15" y="598.5"/><ellipse cx="98.775" cy="612.9" fill="#ADD1B2" rx="9.9" ry="9.9" style="stroke:#181818;stroke-width:0.9;"/><path d="M101.2641,609.1875 Q101.4047,608.9906 101.5734,608.8922 Q101.7422,608.7938 101.9391,608.7938 Q102.2766,608.7938 102.4875,609.0328 Q102.6984,609.2578 102.6984,609.8063 L102.6984,611.1141 Q102.6984,611.6625 102.4875,611.9016 Q102.2766,612.1406 101.9391,612.1406 Q101.6297,612.1406 101.4469,611.9578 Q101.2641,611.7891 101.1656,611.325 Q101.1234,611.0016 100.9547,610.8328 Q100.6594,610.4953 100.1109,610.2984 Q99.5625,610.1016 99,610.1016 Q98.3109,610.1016 97.7344,610.3969 Q97.1719,610.6922 96.7219,611.3672 Q96.2859,612.0422 96.2859,612.9703 L96.2859,613.9547 Q96.2859,615.0656 97.0875,615.8109 Q97.8891,616.5422 99.3234,616.5422 Q100.1672,616.5422 100.7578,616.3172 Q101.1094,616.1766 101.4891,615.7828 Q101.7281,615.5438 101.8547,615.4734 Q101.9953,615.4031 102.1781,615.4031 Q102.4734,615.4031 102.6984,615.6422 Q102.9375,615.8672 102.9375,616.1766 Q102.9375,616.4859 102.6281,616.8516 Q102.1781,617.3719 101.4609,617.6672 Q100.4906,618.075 99.3234,618.075 Q97.9594,618.075 96.8766,617.5125 Q95.9906,617.0625 95.3719,616.1063 Q94.7531,615.1359 94.7531,613.9828 L94.7531,612.9422 Q94.7531,611.7469 95.3016,610.7203 Q95.8641,609.6797 96.8484,609.1313 Q97.8328,608.5688 98.9438,608.5688 Q99.6047,608.5688 100.1813,608.7234 Q100.7719,608.8641 101.2641,609.1875 Z " fill="#000000"/><text fill="#000000" font-family="sans-serif" font-size="12.6" lengthAdjust="spacing" textLength="29.7" x="117.225" y="618.1172">Entry</text><line style="stroke:#181818;stroke-width:0.45;" x1="40.05" x2="194.85" y1="627.3" y2="627.3"/><text fill="#000000" font-family="sans-serif" font-size="12.6" lengthAdjust="spacing" textLength="104.4" x="44.55" y="644.4967">-Date startingDate</text><line style="stroke:#181818;stroke-width:0.45;" x1="40.05" x2="194.85" y1="651.259" y2="651.259"/><text fill="#000000" font-family="sans-serif" font-size="12.6" lengthAdjust="spacing" textLength="145.8" x="44.55" y="668.4557">+Entry(startingDate, task)</text></g><!--class ToDoList--><g id="elem_ToDoList"><rect codeLine="32" fill="#F1F1F1" height="59.959" id="ToDoList" rx="2.25" ry="2.25" style="stroke:#181818;stroke-width:0.45;" width="229.5" x="291.6" y="466.65"/><ellipse cx="376.875" cy="481.05" fill="#ADD1B2" rx="9.9" ry="9.9" style="stroke:#181818;stroke-width:0.9;"/><path d="M379.3641,477.3375 Q379.5047,477.1406 379.6734,477.0422 Q379.8422,476.9438 380.0391,476.9438 Q380.3766,476.9438 380.5875,477.1828 Q380.7984,477.4078 380.7984,477.9563 L380.7984,479.2641 Q380.7984,479.8125 380.5875,480.0516 Q380.3766,480.2906 380.0391,480.2906 Q379.7297,480.2906 379.5469,480.1078 Q379.3641,479.9391 379.2656,479.475 Q379.2234,479.1516 379.0547,478.9828 Q378.7594,478.6453 378.2109,478.4484 Q377.6625,478.2516 377.1,478.2516 Q376.4109,478.2516 375.8344,478.5469 Q375.2719,478.8422 374.8219,479.5172 Q374.3859,480.1922 374.3859,481.1203 L374.3859,482.1047 Q374.3859,483.2156 375.1875,483.9609 Q375.9891,484.6922 377.4234,484.6922 Q378.2672,484.6922 378.8578,484.4672 Q379.2094,484.3266 379.5891,483.9328 Q379.8281,483.6938 379.9547,483.6234 Q380.0953,483.5531 380.2781,483.5531 Q380.5734,483.5531 380.7984,483.7922 Q381.0375,484.0172 381.0375,484.3266 Q381.0375,484.6359 380.7281,485.0016 Q380.2781,485.5219 379.5609,485.8172 Q378.5906,486.225 377.4234,486.225 Q376.0594,486.225 374.9766,485.6625 Q374.0906,485.2125 373.4719,484.2563 Q372.8531,483.2859 372.8531,482.1328 L372.8531,481.0922 Q372.8531,479.8969 373.4016,478.8703 Q373.9641,477.8297 374.9484,477.2813 Q375.9328,476.7188 377.0438,476.7188 Q377.7047,476.7188 378.2813,476.8734 Q378.8719,477.0141 379.3641,477.3375 Z " fill="#000000"/><text fill="#000000" font-family="sans-serif" font-size="12.6" lengthAdjust="spacing" textLength="51.3" x="395.325" y="486.2672">ToDoList</text><line style="stroke:#181818;stroke-width:0.45;" x1="292.5" x2="520.2" y1="495.45" y2="495.45"/><line style="stroke:#181818;stroke-width:0.45;" x1="292.5" x2="520.2" y1="502.65" y2="502.65"/><text fill="#000000" font-family="sans-serif" font-size="12.6" lengthAdjust="spacing" textLength="218.7" x="297" y="519.8467">+getTaskByReference(taskReference)</text></g><!--class Task--><g id="elem_Task"><rect codeLine="36" fill="#F1F1F1" height="143.7539" id="Task" rx="2.25" ry="2.25" style="stroke:#181818;stroke-width:0.45;" width="470.7" x="171" y="729.9"/><ellipse cx="388.575" cy="744.3" fill="#ADD1B2" rx="9.9" ry="9.9" style="stroke:#181818;stroke-width:0.9;"/><path d="M391.0641,740.5875 Q391.2047,740.3906 391.3734,740.2922 Q391.5422,740.1938 391.7391,740.1938 Q392.0766,740.1938 392.2875,740.4328 Q392.4984,740.6578 392.4984,741.2063 L392.4984,742.5141 Q392.4984,743.0625 392.2875,743.3016 Q392.0766,743.5406 391.7391,743.5406 Q391.4297,743.5406 391.2469,743.3578 Q391.0641,743.1891 390.9656,742.725 Q390.9234,742.4016 390.7547,742.2328 Q390.4594,741.8953 389.9109,741.6984 Q389.3625,741.5016 388.8,741.5016 Q388.1109,741.5016 387.5344,741.7969 Q386.9719,742.0922 386.5219,742.7672 Q386.0859,743.4422 386.0859,744.3703 L386.0859,745.3547 Q386.0859,746.4656 386.8875,747.2109 Q387.6891,747.9422 389.1234,747.9422 Q389.9672,747.9422 390.5578,747.7172 Q390.9094,747.5766 391.2891,747.1828 Q391.5281,746.9438 391.6547,746.8734 Q391.7953,746.8031 391.9781,746.8031 Q392.2734,746.8031 392.4984,747.0422 Q392.7375,747.2672 392.7375,747.5766 Q392.7375,747.8859 392.4281,748.2516 Q391.9781,748.7719 391.2609,749.0672 Q390.2906,749.475 389.1234,749.475 Q387.7594,749.475 386.6766,748.9125 Q385.7906,748.4625 385.1719,747.5063 Q384.5531,746.5359 384.5531,745.3828 L384.5531,744.3422 Q384.5531,743.1469 385.1016,742.1203 Q385.6641,741.0797 386.6484,740.5313 Q387.6328,739.9688 388.7438,739.9688 Q389.4047,739.9688 389.9813,740.1234 Q390.5719,740.2641 391.0641,740.5875 Z " fill="#000000"/><text fill="#000000" font-family="sans-serif" font-size="12.6" lengthAdjust="spacing" textLength="27.9" x="407.025" y="749.5172">Task</text><line style="stroke:#181818;stroke-width:0.45;" x1="171.9" x2="640.8" y1="758.7" y2="758.7"/><text fill="#000000" font-family="sans-serif" font-size="12.6" lengthAdjust="spacing" textLength="96.3" x="176.4" y="775.8967">-String reference</text><text fill="#000000" font-family="sans-serif" font-size="12.6" lengthAdjust="spacing" textLength="103.5" x="176.4" y="792.6557">-String description</text><text fill="#000000" font-family="sans-serif" font-size="12.6" lengthAdjust="spacing" textLength="215.1" x="176.4" y="809.4146">-EmergencyDegree degreeOfUrgency</text><text fill="#000000" font-family="sans-serif" font-size="12.6" lengthAdjust="spacing" textLength="121.5" x="176.4" y="826.1736">-int expectedDuration</text><text fill="#000000" font-family="sans-serif" font-size="12.6" lengthAdjust="spacing" textLength="149.4" x="176.4" y="842.9326">-GreenSpace greenSpace</text><line style="stroke:#181818;stroke-width:0.45;" x1="171.9" x2="640.8" y1="849.6949" y2="849.6949"/><text fill="#000000" font-family="sans-serif" font-size="12.6" lengthAdjust="spacing" textLength="459.9" x="176.4" y="866.8916">+Task(reference, description, degreeOfUrgency, expectedDuration, greenSpace)</text></g><!--class Repositories--><g id="elem_Repositories"><rect codeLine="45" fill="#F1F1F1" height="110.2359" id="Repositories" rx="2.25" ry="2.25" style="stroke:#181818;stroke-width:0.45;" width="174.6" x="157.05" y="285.3"/><ellipse cx="204.975" cy="299.7" fill="#ADD1B2" rx="9.9" ry="9.9" style="stroke:#181818;stroke-width:0.9;"/><path d="M207.4641,295.9875 Q207.6047,295.7906 207.7734,295.6922 Q207.9422,295.5938 208.1391,295.5938 Q208.4766,295.5938 208.6875,295.8328 Q208.8984,296.0578 208.8984,296.6063 L208.8984,297.9141 Q208.8984,298.4625 208.6875,298.7016 Q208.4766,298.9406 208.1391,298.9406 Q207.8297,298.9406 207.6469,298.7578 Q207.4641,298.5891 207.3656,298.125 Q207.3234,297.8016 207.1547,297.6328 Q206.8594,297.2953 206.3109,297.0984 Q205.7625,296.9016 205.2,296.9016 Q204.5109,296.9016 203.9344,297.1969 Q203.3719,297.4922 202.9219,298.1672 Q202.4859,298.8422 202.4859,299.7703 L202.4859,300.7547 Q202.4859,301.8656 203.2875,302.6109 Q204.0891,303.3422 205.5234,303.3422 Q206.3672,303.3422 206.9578,303.1172 Q207.3094,302.9766 207.6891,302.5828 Q207.9281,302.3438 208.0547,302.2734 Q208.1953,302.2031 208.3781,302.2031 Q208.6734,302.2031 208.8984,302.4422 Q209.1375,302.6672 209.1375,302.9766 Q209.1375,303.2859 208.8281,303.6516 Q208.3781,304.1719 207.6609,304.4672 Q206.6906,304.875 205.5234,304.875 Q204.1594,304.875 203.0766,304.3125 Q202.1906,303.8625 201.5719,302.9063 Q200.9531,301.9359 200.9531,300.7828 L200.9531,299.7422 Q200.9531,298.5469 201.5016,297.5203 Q202.0641,296.4797 203.0484,295.9313 Q204.0328,295.3688 205.1438,295.3688 Q205.8047,295.3688 206.3813,295.5234 Q206.9719,295.6641 207.4641,295.9875 Z " fill="#000000"/><text fill="#000000" font-family="sans-serif" font-size="12.6" lengthAdjust="spacing" textLength="71.1" x="223.425" y="304.9172">Repositories</text><line style="stroke:#181818;stroke-width:0.45;" x1="157.95" x2="330.75" y1="314.1" y2="314.1"/><line style="stroke:#181818;stroke-width:0.45;" x1="157.95" x2="330.75" y1="321.3" y2="321.3"/><text fill="#000000" font-family="sans-serif" font-size="12.6" lengthAdjust="spacing" textLength="84.6" x="162.45" y="338.4967">-Repositories()</text><text fill="#000000" font-family="sans-serif" font-size="12.6" lengthAdjust="spacing" textLength="163.8" x="162.45" y="355.2557">+getInstance() : Repositories</text><text fill="#000000" font-family="sans-serif" font-size="12.6" lengthAdjust="spacing" textLength="78.3" x="162.45" y="372.0146">+getAgenda()</text><text fill="#000000" font-family="sans-serif" font-size="12.6" lengthAdjust="spacing" textLength="85.5" x="162.45" y="388.7736">+getToDoList()</text></g><!--class AgendaStatus--><g id="elem_AgendaStatus"><rect codeLine="52" fill="#F1F1F1" height="110.2359" id="AgendaStatus" rx="2.25" ry="2.25" style="stroke:#181818;stroke-width:0.45;" width="108.9" x="30.6" y="747"/><ellipse cx="44.1" cy="761.4" fill="#EB937F" rx="9.9" ry="9.9" style="stroke:#181818;stroke-width:0.9;"/><path d="M43.0734,762.1172 L43.0734,764.3672 L46.9688,764.3672 L46.9688,763.5375 Q46.9688,762.9891 47.1797,762.75 Q47.4047,762.5109 47.7422,762.5109 Q48.0797,762.5109 48.2906,762.75 Q48.5016,762.9891 48.5016,763.5375 L48.5016,765.9 L41.3016,765.9 Q40.7391,765.9 40.5,765.6891 Q40.275,765.4781 40.275,765.1266 Q40.275,764.7891 40.5141,764.5781 Q40.7531,764.3672 41.3016,764.3672 L41.5406,764.3672 L41.5406,758.3766 L41.3016,758.3766 Q40.7391,758.3766 40.5,758.1656 Q40.275,757.9547 40.275,757.6031 Q40.275,757.2656 40.5,757.0547 Q40.7391,756.8438 41.3016,756.8438 L48.1641,756.8438 L48.1641,759.1781 Q48.1641,759.7266 47.9531,759.9656 Q47.7563,760.1906 47.4047,760.1906 Q47.0672,760.1906 46.8563,759.9656 Q46.6453,759.7266 46.6453,759.1781 L46.6453,758.3766 L43.0734,758.3766 L43.0734,760.5844 L44.4094,760.5844 Q44.4094,759.9938 44.5219,759.825 Q44.7609,759.4594 45.1828,759.4594 Q45.5203,759.4594 45.7313,759.6984 Q45.9422,759.9234 45.9422,760.4719 L45.9422,762.2438 Q45.9422,762.7359 45.8297,762.9047 Q45.5906,763.2563 45.1828,763.2563 Q44.7609,763.2563 44.5219,762.8906 Q44.4094,762.7219 44.4094,762.1172 L43.0734,762.1172 Z " fill="#000000"/><text fill="#000000" font-family="sans-serif" font-size="12.6" lengthAdjust="spacing" textLength="80.1" x="56.7" y="766.6172">AgendaStatus</text><line style="stroke:#181818;stroke-width:0.45;" x1="31.5" x2="138.6" y1="775.8" y2="775.8"/><text fill="#000000" font-family="sans-serif" font-size="12.6" lengthAdjust="spacing" textLength="56.7" x="36" y="792.9967">PLANNED</text><text fill="#000000" font-family="sans-serif" font-size="12.6" lengthAdjust="spacing" textLength="77.4" x="36" y="809.7557">POSTPONED</text><text fill="#000000" font-family="sans-serif" font-size="12.6" lengthAdjust="spacing" textLength="66.6" x="36" y="826.5146">CANCELED</text><text fill="#000000" font-family="sans-serif" font-size="12.6" lengthAdjust="spacing" textLength="35.1" x="36" y="843.2736">DONE</text><line style="stroke:#181818;stroke-width:0.45;" x1="31.5" x2="138.6" y1="850.0359" y2="850.0359"/></g><!--class TaskStatus--><g id="elem_TaskStatus"><rect codeLine="59" fill="#F1F1F1" height="76.718" id="TaskStatus" rx="2.25" ry="2.25" style="stroke:#181818;stroke-width:0.45;" width="92.7" x="360" y="928.8"/><ellipse cx="373.5" cy="943.2" fill="#EB937F" rx="9.9" ry="9.9" style="stroke:#181818;stroke-width:0.9;"/><path d="M372.4734,943.9172 L372.4734,946.1672 L376.3688,946.1672 L376.3688,945.3375 Q376.3688,944.7891 376.5797,944.55 Q376.8047,944.3109 377.1422,944.3109 Q377.4797,944.3109 377.6906,944.55 Q377.9016,944.7891 377.9016,945.3375 L377.9016,947.7 L370.7016,947.7 Q370.1391,947.7 369.9,947.4891 Q369.675,947.2781 369.675,946.9266 Q369.675,946.5891 369.9141,946.3781 Q370.1531,946.1672 370.7016,946.1672 L370.9406,946.1672 L370.9406,940.1766 L370.7016,940.1766 Q370.1391,940.1766 369.9,939.9656 Q369.675,939.7547 369.675,939.4031 Q369.675,939.0656 369.9,938.8547 Q370.1391,938.6438 370.7016,938.6438 L377.5641,938.6438 L377.5641,940.9781 Q377.5641,941.5266 377.3531,941.7656 Q377.1563,941.9906 376.8047,941.9906 Q376.4672,941.9906 376.2563,941.7656 Q376.0453,941.5266 376.0453,940.9781 L376.0453,940.1766 L372.4734,940.1766 L372.4734,942.3844 L373.8094,942.3844 Q373.8094,941.7938 373.9219,941.625 Q374.1609,941.2594 374.5828,941.2594 Q374.9203,941.2594 375.1313,941.4984 Q375.3422,941.7234 375.3422,942.2719 L375.3422,944.0438 Q375.3422,944.5359 375.2297,944.7047 Q374.9906,945.0563 374.5828,945.0563 Q374.1609,945.0563 373.9219,944.6906 Q373.8094,944.5219 373.8094,943.9172 L372.4734,943.9172 Z " fill="#000000"/><text fill="#000000" font-family="sans-serif" font-size="12.6" lengthAdjust="spacing" textLength="63.9" x="386.1" y="948.4172">TaskStatus</text><line style="stroke:#181818;stroke-width:0.45;" x1="360.9" x2="451.8" y1="957.6" y2="957.6"/><text fill="#000000" font-family="sans-serif" font-size="12.6" lengthAdjust="spacing" textLength="54" x="365.4" y="974.7967">PENDING</text><text fill="#000000" font-family="sans-serif" font-size="12.6" lengthAdjust="spacing" textLength="77.4" x="365.4" y="991.5557">PROCESSED</text><line style="stroke:#181818;stroke-width:0.45;" x1="360.9" x2="451.8" y1="998.318" y2="998.318"/></g><!--link AddEntryAgendaUI to AddEntryAgendaController--><g id="link_AddEntryAgendaUI_AddEntryAgendaController"><path codeLine="64" d="M244.35,49.626 C244.35,64.431 244.35,79.65 244.35,98.955 " fill="none" id="AddEntryAgendaUI-to-AddEntryAgendaController" style="stroke:#181818;stroke-width:0.9;stroke-dasharray:7.0,7.0;"/><polygon fill="#181818" points="244.35,104.355,247.95,96.255,244.35,99.855,240.75,96.255,244.35,104.355" style="stroke:#181818;stroke-width:0.9;"/></g><!--link AddEntryAgendaController to Repositories--><g id="link_AddEntryAgendaController_Repositories"><path codeLine="65" d="M244.35,214.425 C244.35,236.862 244.35,257.436 244.35,279.864 " fill="none" id="AddEntryAgendaController-to-Repositories" style="stroke:#181818;stroke-width:0.9;stroke-dasharray:7.0,7.0;"/><polygon fill="#181818" points="244.35,285.264,247.95,277.164,244.35,280.764,240.75,277.164,244.35,285.264" style="stroke:#181818;stroke-width:0.9;"/><text fill="#000000" font-family="sans-serif" font-size="11.7" lengthAdjust="spacing" textLength="60.3" x="245.25" y="254.7255">repositories</text></g><!--link AddEntryAgendaController to Agenda--><g id="link_AddEntryAgendaController_Agenda"><path codeLine="66" d="M182.421,214.344 C143.739,248.157 101.25,285.3 101.25,285.3 C101.25,285.3 101.25,395.1 101.25,395.1 C101.25,395.1 104.9287,418.0105 109.2037,444.5965 " fill="none" id="AddEntryAgendaController-to-Agenda" style="stroke:#181818;stroke-width:0.9;stroke-dasharray:7.0,7.0;"/><polygon fill="#181818" points="110.061,449.928,112.3294,441.3592,109.3466,445.4851,105.2207,442.5023,110.061,449.928" style="stroke:#181818;stroke-width:0.9;"/><text fill="#000000" font-family="sans-serif" font-size="11.7" lengthAdjust="spacing" textLength="37.8" x="102.15" y="345.1755">agenda</text></g><!--link AddEntryAgendaController to ToDoList--><g id="link_AddEntryAgendaController_ToDoList"><path codeLine="67" d="M319.914,214.344 C367.101,248.157 418.95,285.3 418.95,285.3 C418.95,285.3 418.95,395.1 418.95,395.1 C418.95,395.1 414.4176,431.3667 410.7006,461.1117 " fill="none" id="AddEntryAgendaController-to-ToDoList" style="stroke:#181818;stroke-width:0.9;stroke-dasharray:7.0,7.0;"/><polygon fill="#181818" points="410.031,466.47,414.6076,458.8789,410.589,462.0047,407.4632,457.9861,410.031,466.47" style="stroke:#181818;stroke-width:0.9;"/><text fill="#000000" font-family="sans-serif" font-size="11.7" lengthAdjust="spacing" textLength="43.2" x="419.85" y="345.1755">toDoList</text></g><!--link Repositories to Repositories--><g id="link_Repositories_Repositories"><path codeLine="68" d="M331.902,325.548 C350.082,327.087 363.15,331.974 363.15,340.2 C363.15,348.426 355.4628,352.8575 337.2828,354.3965 " fill="none" id="Repositories-to-Repositories" style="stroke:#181818;stroke-width:0.9;"/><polygon fill="#181818" points="331.902,354.852,340.2768,357.7559,336.386,354.4724,339.6695,350.5816,331.902,354.852" style="stroke:#181818;stroke-width:0.9;"/><text fill="#000000" font-family="sans-serif" font-size="11.7" lengthAdjust="spacing" textLength="44.1" x="368.55" y="345.1755">instance</text></g><!--link Repositories to Agenda--><g id="link_Repositories_Agenda"><path codeLine="69" d="M199.971,395.244 C185.382,413.028 172.7497,428.4451 158.7007,445.5811 " fill="none" id="Repositories-to-Agenda" style="stroke:#181818;stroke-width:0.9;"/><polygon fill="#181818" points="155.277,449.757,163.1965,445.7755,158.1301,446.277,157.6285,441.2106,155.277,449.757" style="stroke:#181818;stroke-width:0.9;"/><text fill="#000000" font-family="sans-serif" font-size="11.7" lengthAdjust="spacing" textLength="6.3" x="153.6367" y="439.759">1</text></g><!--link Repositories to ToDoList--><g id="link_Repositories_ToDoList"><path codeLine="70" d="M301.014,395.244 C326.097,419.22 350.7227,442.7505 371.7557,462.8475 " fill="none" id="Repositories-to-ToDoList" style="stroke:#181818;stroke-width:0.9;"/><polygon fill="#181818" points="375.66,466.578,372.2906,458.3794,372.4064,463.4692,367.3166,463.5851,375.66,466.578" style="stroke:#181818;stroke-width:0.9;"/><text fill="#000000" font-family="sans-serif" font-size="11.7" lengthAdjust="spacing" textLength="6.3" x="362.6978" y="456.5068">1</text></g><!--link Agenda to Entry--><g id="link_Agenda_Entry"><path codeLine="71" d="M117.45,543.699 C117.45,561.438 117.45,576.072 117.45,592.92 " fill="none" id="Agenda-to-Entry" style="stroke:#181818;stroke-width:0.9;"/><polygon fill="#181818" points="117.45,598.32,121.05,590.22,117.45,593.82,113.85,590.22,117.45,598.32" style="stroke:#181818;stroke-width:0.9;"/><text fill="#000000" font-family="sans-serif" font-size="11.7" lengthAdjust="spacing" textLength="4.5" x="112.5914" y="588.305">*</text></g><!--link ToDoList to Task--><g id="link_ToDoList_Task"><path codeLine="72" d="M406.35,527.058 C406.35,573.516 406.35,659.916 406.35,724.401 " fill="none" id="ToDoList-to-Task" style="stroke:#181818;stroke-width:0.9;"/><polygon fill="#181818" points="406.35,729.801,409.95,721.701,406.35,725.301,402.75,721.701,406.35,729.801" style="stroke:#181818;stroke-width:0.9;"/><text fill="#000000" font-family="sans-serif" font-size="11.7" lengthAdjust="spacing" textLength="4.5" x="401.6426" y="719.798">*</text></g><!--link Entry to Task--><g id="link_Entry_Task"><path codeLine="73" d="M183.726,675.126 C212.463,691.371 242.4123,708.3062 275.7123,727.1342 " fill="none" id="Entry-to-Task" style="stroke:#181818;stroke-width:0.9;"/><polygon fill="#181818" points="280.413,729.792,275.1339,722.6716,276.4958,727.5772,271.5902,728.9391,280.413,729.792" style="stroke:#181818;stroke-width:0.9;"/><text fill="#000000" font-family="sans-serif" font-size="11.7" lengthAdjust="spacing" textLength="6.3" x="262.2128" y="719.7882">1</text></g><!--link Entry to AgendaStatus--><g id="link_Entry_AgendaStatus"><path codeLine="74" d="M110.016,675.126 C105.795,696.411 101.4799,718.1318 96.8179,741.6758 " fill="none" id="Entry-to-AgendaStatus" style="stroke:#181818;stroke-width:0.9;"/><polygon fill="#181818" points="95.769,746.973,100.8738,739.7265,96.6431,742.5587,93.8109,738.328,95.769,746.973" style="stroke:#181818;stroke-width:0.9;"/><text fill="#000000" font-family="sans-serif" font-size="11.7" lengthAdjust="spacing" textLength="6.3" x="90.3442" y="737.053">1</text></g><!--link Task to TaskStatus--><g id="link_Task_TaskStatus"><path codeLine="75" d="M406.35,873.972 C406.35,892.719 406.35,906.804 406.35,923.013 " fill="none" id="Task-to-TaskStatus" style="stroke:#181818;stroke-width:0.9;"/><polygon fill="#181818" points="406.35,928.413,409.95,920.313,406.35,923.913,402.75,920.313,406.35,928.413" style="stroke:#181818;stroke-width:0.9;"/><text fill="#000000" font-family="sans-serif" font-size="11.7" lengthAdjust="spacing" textLength="6.3" x="399.5677" y="918.6542">1</text></g><!--SRC=[XLDDZzem4BtxLrXS25rOjLSEbIY9LaW8LeJz0Tva21R1ZcpJDgtwtpk9xU1iWEKGx3TlvetdOwnFN5HCiJCzIo6pev9de4PTW5mj5SjEh83Kr2LG1PbXeYX3WZwoNFxYeg07LkhGKd81fgw0LhAicmiPtp1APIG9lBAIQRqmHl7tYu5L9aNA_m3zIiYuX8EXHbB5YwEXEM_IuL8GqlhGHPudmgXwKO38sTkA_YN_RjkM4i-oB44XX-BlwPuzOYqmHTbOhhas4yjdFNwa3LC6Qn0p0yXb-hI30oWG6LY7MG5cZ_2FkZD4DsXFZgORgMWIvD_gk6ndNZs2vkiKVhAIvwW_i7oUR23K4hrEmw0XtSQp2W_3x5svV7q_V_xL5N6VG8fZW9EbFAs7vg0pnQjs15eyEOF29sPr38K2G4BpjpsyMTIIk30KVbSuEf375yMkxYz85YaEFD2YEzhqcvoYBejfA3tzA3CTX9y6yOA7xg2IcXkfE6Z_u1uOkVvHhDvAOBsRiatel4UwKbnx0oVV1Jj982vdDqYfOURYHL_NYyqcYUrvc-vVj_wsN6oMoTfTOeIxC4r1-a6IJRpQlDZpRhjCqXJza3xOokVdxtVNaTpTqyOhVFOSXo8emaC_2ywftUN7N5-oURVnfDUdsUnZ7jnrPiWRVHivxTishqNSThVubv7TGTAja8URcXExdrs48HGscBIx598T_Xy0]--></g></svg>