<?xml version="1.0" encoding="us-ascii" standalone="no"?><svg xmlns="http://www.w3.org/2000/svg" xmlns:xlink="http://www.w3.org/1999/xlink" contentStyleType="text/css" height="944px" preserveAspectRatio="none" style="width:596px;height:944px;background:#FFFFFF;" version="1.1" viewBox="0 0 596 944" width="596.8px" zoomAndPan="magnify"><defs/><g><!--class AddEntryAgendaUI--><g id="elem_AddEntryAgendaUI"><rect codeLine="11" fill="#F1F1F1" height="38.4" id="AddEntryAgendaUI" rx="2" ry="2" style="stroke:#181818;stroke-width:0.4000000000000001;" width="120.8" x="134.4" y="5.6"/><ellipse cx="146.4" cy="18.4" fill="#ADD1B2" rx="8.8" ry="8.8" style="stroke:#181818;stroke-width:0.8000000000000002;"/><path d="M148.6125,15.1 Q148.7375,14.925 148.8875,14.8375 Q149.0375,14.75 149.2125,14.75 Q149.5125,14.75 149.7,14.9625 Q149.8875,15.1625 149.8875,15.65 L149.8875,16.8125 Q149.8875,17.3 149.7,17.5125 Q149.5125,17.725 149.2125,17.725 Q148.9375,17.725 148.775,17.5625 Q148.6125,17.4125 148.525,17 Q148.4875,16.7125 148.3375,16.5625 Q148.075,16.2625 147.5875,16.0875 Q147.1,15.9125 146.6,15.9125 Q145.9875,15.9125 145.475,16.175 Q144.975,16.4375 144.575,17.0375 Q144.1875,17.6375 144.1875,18.4625 L144.1875,19.3375 Q144.1875,20.325 144.9,20.9875 Q145.6125,21.6375 146.8875,21.6375 Q147.6375,21.6375 148.1625,21.4375 Q148.475,21.3125 148.8125,20.9625 Q149.025,20.75 149.1375,20.6875 Q149.2625,20.625 149.425,20.625 Q149.6875,20.625 149.8875,20.8375 Q150.1,21.0375 150.1,21.3125 Q150.1,21.5875 149.825,21.9125 Q149.425,22.375 148.7875,22.6375 Q147.925,23 146.8875,23 Q145.675,23 144.7125,22.5 Q143.925,22.1 143.375,21.25 Q142.825,20.3875 142.825,19.3625 L142.825,18.4375 Q142.825,17.375 143.3125,16.4625 Q143.8125,15.5375 144.6875,15.05 Q145.5625,14.55 146.55,14.55 Q147.1375,14.55 147.65,14.6875 Q148.175,14.8125 148.6125,15.1 Z " fill="#000000"/><text fill="#000000" font-family="sans-serif" font-size="11.2" lengthAdjust="spacing" textLength="95.2" x="157.6" y="23.0375">AddEntryAgendaUI</text><line style="stroke:#181818;stroke-width:0.4000000000000001;" x1="135.2" x2="254.4" y1="31.2" y2="31.2"/><line style="stroke:#181818;stroke-width:0.4000000000000001;" x1="135.2" x2="254.4" y1="37.6" y2="37.6"/></g><!--class AddEntryAgendaController--><g id="elem_AddEntryAgendaController"><rect codeLine="14" fill="#F1F1F1" height="97.9875" id="AddEntryAgendaController" rx="2" ry="2" style="stroke:#181818;stroke-width:0.4000000000000001;" width="250.4" x="69.6" y="92.8"/><ellipse cx="123.8" cy="105.6" fill="#ADD1B2" rx="8.8" ry="8.8" style="stroke:#181818;stroke-width:0.8000000000000002;"/><path d="M126.0125,102.3 Q126.1375,102.125 126.2875,102.0375 Q126.4375,101.95 126.6125,101.95 Q126.9125,101.95 127.1,102.1625 Q127.2875,102.3625 127.2875,102.85 L127.2875,104.0125 Q127.2875,104.5 127.1,104.7125 Q126.9125,104.925 126.6125,104.925 Q126.3375,104.925 126.175,104.7625 Q126.0125,104.6125 125.925,104.2 Q125.8875,103.9125 125.7375,103.7625 Q125.475,103.4625 124.9875,103.2875 Q124.5,103.1125 124,103.1125 Q123.3875,103.1125 122.875,103.375 Q122.375,103.6375 121.975,104.2375 Q121.5875,104.8375 121.5875,105.6625 L121.5875,106.5375 Q121.5875,107.525 122.3,108.1875 Q123.0125,108.8375 124.2875,108.8375 Q125.0375,108.8375 125.5625,108.6375 Q125.875,108.5125 126.2125,108.1625 Q126.425,107.95 126.5375,107.8875 Q126.6625,107.825 126.825,107.825 Q127.0875,107.825 127.2875,108.0375 Q127.5,108.2375 127.5,108.5125 Q127.5,108.7875 127.225,109.1125 Q126.825,109.575 126.1875,109.8375 Q125.325,110.2 124.2875,110.2 Q123.075,110.2 122.1125,109.7 Q121.325,109.3 120.775,108.45 Q120.225,107.5875 120.225,106.5625 L120.225,105.6375 Q120.225,104.575 120.7125,103.6625 Q121.2125,102.7375 122.0875,102.25 Q122.9625,101.75 123.95,101.75 Q124.5375,101.75 125.05,101.8875 Q125.575,102.0125 126.0125,102.3 Z " fill="#000000"/><text fill="#000000" font-family="sans-serif" font-size="11.2" lengthAdjust="spacing" textLength="135.2" x="140.2" y="110.2375">AddEntryAgendaController</text><line style="stroke:#181818;stroke-width:0.4000000000000001;" x1="70.4" x2="319.2" y1="118.4" y2="118.4"/><line style="stroke:#181818;stroke-width:0.4000000000000001;" x1="70.4" x2="319.2" y1="124.8" y2="124.8"/><text fill="#000000" font-family="sans-serif" font-size="11.2" lengthAdjust="spacing" textLength="236" x="74.4" y="140.0859">+AddEntryAgendaController(agenda, toDoList)</text><text fill="#000000" font-family="sans-serif" font-size="11.2" lengthAdjust="spacing" textLength="240.8" x="74.4" y="154.9828">+addEntryAgenda(startingDate, taskReference)</text><text fill="#000000" font-family="sans-serif" font-size="11.2" lengthAdjust="spacing" textLength="192" x="74.4" y="169.8797">-getTaskByReference(taskReference)</text><text fill="#000000" font-family="sans-serif" font-size="11.2" lengthAdjust="spacing" textLength="78.4" x="74.4" y="184.7766">+getTasksList()</text></g><!--class Agenda--><g id="elem_Agenda"><rect codeLine="21" fill="#F1F1F1" height="83.0906" id="Agenda" rx="2" ry="2" style="stroke:#181818;stroke-width:0.4000000000000001;" width="197.6" x="5.6" y="400"/><ellipse cx="81.4" cy="412.8" fill="#ADD1B2" rx="8.8" ry="8.8" style="stroke:#181818;stroke-width:0.8000000000000002;"/><path d="M83.6125,409.5 Q83.7375,409.325 83.8875,409.2375 Q84.0375,409.15 84.2125,409.15 Q84.5125,409.15 84.7,409.3625 Q84.8875,409.5625 84.8875,410.05 L84.8875,411.2125 Q84.8875,411.7 84.7,411.9125 Q84.5125,412.125 84.2125,412.125 Q83.9375,412.125 83.775,411.9625 Q83.6125,411.8125 83.525,411.4 Q83.4875,411.1125 83.3375,410.9625 Q83.075,410.6625 82.5875,410.4875 Q82.1,410.3125 81.6,410.3125 Q80.9875,410.3125 80.475,410.575 Q79.975,410.8375 79.575,411.4375 Q79.1875,412.0375 79.1875,412.8625 L79.1875,413.7375 Q79.1875,414.725 79.9,415.3875 Q80.6125,416.0375 81.8875,416.0375 Q82.6375,416.0375 83.1625,415.8375 Q83.475,415.7125 83.8125,415.3625 Q84.025,415.15 84.1375,415.0875 Q84.2625,415.025 84.425,415.025 Q84.6875,415.025 84.8875,415.2375 Q85.1,415.4375 85.1,415.7125 Q85.1,415.9875 84.825,416.3125 Q84.425,416.775 83.7875,417.0375 Q82.925,417.4 81.8875,417.4 Q80.675,417.4 79.7125,416.9 Q78.925,416.5 78.375,415.65 Q77.825,414.7875 77.825,413.7625 L77.825,412.8375 Q77.825,411.775 78.3125,410.8625 Q78.8125,409.9375 79.6875,409.45 Q80.5625,408.95 81.55,408.95 Q82.1375,408.95 82.65,409.0875 Q83.175,409.2125 83.6125,409.5 Z " fill="#000000"/><text fill="#000000" font-family="sans-serif" font-size="11.2" lengthAdjust="spacing" textLength="39.2" x="97.8" y="417.4375">Agenda</text><line style="stroke:#181818;stroke-width:0.4000000000000001;" x1="6.4" x2="202.4" y1="425.6" y2="425.6"/><line style="stroke:#181818;stroke-width:0.4000000000000001;" x1="6.4" x2="202.4" y1="432" y2="432"/><text fill="#000000" font-family="sans-serif" font-size="11.2" lengthAdjust="spacing" textLength="83.2" x="10.4" y="447.2859">-addEntry(entry)</text><text fill="#000000" font-family="sans-serif" font-size="11.2" lengthAdjust="spacing" textLength="103.2" x="10.4" y="462.1828">-validateEntry(entry)</text><text fill="#000000" font-family="sans-serif" font-size="11.2" lengthAdjust="spacing" textLength="188" x="10.4" y="477.0797">+addEntryAgenda(startingDate, task)</text></g><!--class Entry--><g id="elem_Entry"><rect codeLine="27" fill="#F1F1F1" height="83.0906" id="Entry" rx="2" ry="2" style="stroke:#181818;stroke-width:0.4000000000000001;" width="139.2" x="34.8" y="532"/><ellipse cx="87.8" cy="544.8" fill="#ADD1B2" rx="8.8" ry="8.8" style="stroke:#181818;stroke-width:0.8000000000000002;"/><path d="M90.0125,541.5 Q90.1375,541.325 90.2875,541.2375 Q90.4375,541.15 90.6125,541.15 Q90.9125,541.15 91.1,541.3625 Q91.2875,541.5625 91.2875,542.05 L91.2875,543.2125 Q91.2875,543.7 91.1,543.9125 Q90.9125,544.125 90.6125,544.125 Q90.3375,544.125 90.175,543.9625 Q90.0125,543.8125 89.925,543.4 Q89.8875,543.1125 89.7375,542.9625 Q89.475,542.6625 88.9875,542.4875 Q88.5,542.3125 88,542.3125 Q87.3875,542.3125 86.875,542.575 Q86.375,542.8375 85.975,543.4375 Q85.5875,544.0375 85.5875,544.8625 L85.5875,545.7375 Q85.5875,546.725 86.3,547.3875 Q87.0125,548.0375 88.2875,548.0375 Q89.0375,548.0375 89.5625,547.8375 Q89.875,547.7125 90.2125,547.3625 Q90.425,547.15 90.5375,547.0875 Q90.6625,547.025 90.825,547.025 Q91.0875,547.025 91.2875,547.2375 Q91.5,547.4375 91.5,547.7125 Q91.5,547.9875 91.225,548.3125 Q90.825,548.775 90.1875,549.0375 Q89.325,549.4 88.2875,549.4 Q87.075,549.4 86.1125,548.9 Q85.325,548.5 84.775,547.65 Q84.225,546.7875 84.225,545.7625 L84.225,544.8375 Q84.225,543.775 84.7125,542.8625 Q85.2125,541.9375 86.0875,541.45 Q86.9625,540.95 87.95,540.95 Q88.5375,540.95 89.05,541.0875 Q89.575,541.2125 90.0125,541.5 Z " fill="#000000"/><text fill="#000000" font-family="sans-serif" font-size="11.2" lengthAdjust="spacing" textLength="26.4" x="104.2" y="549.4375">Entry</text><line style="stroke:#181818;stroke-width:0.4000000000000001;" x1="35.6" x2="173.2" y1="557.6" y2="557.6"/><text fill="#000000" font-family="sans-serif" font-size="11.2" lengthAdjust="spacing" textLength="92.8" x="39.6" y="572.8859">-Date startingDate</text><line style="stroke:#181818;stroke-width:0.4000000000000001;" x1="35.6" x2="173.2" y1="578.8969" y2="578.8969"/><text fill="#000000" font-family="sans-serif" font-size="11.2" lengthAdjust="spacing" textLength="129.6" x="39.6" y="594.1828">+Entry(startingDate, task)</text><text fill="#000000" font-family="sans-serif" font-size="11.2" lengthAdjust="spacing" textLength="114.4" x="39.6" y="609.0797">+changeStatus(status)</text></g><!--class ToDoList--><g id="elem_ToDoList"><rect codeLine="33" fill="#F1F1F1" height="53.2969" id="ToDoList" rx="2" ry="2" style="stroke:#181818;stroke-width:0.4000000000000001;" width="204" x="266.4" y="414.8"/><ellipse cx="342.2" cy="427.6" fill="#ADD1B2" rx="8.8" ry="8.8" style="stroke:#181818;stroke-width:0.8000000000000002;"/><path d="M344.4125,424.3 Q344.5375,424.125 344.6875,424.0375 Q344.8375,423.95 345.0125,423.95 Q345.3125,423.95 345.5,424.1625 Q345.6875,424.3625 345.6875,424.85 L345.6875,426.0125 Q345.6875,426.5 345.5,426.7125 Q345.3125,426.925 345.0125,426.925 Q344.7375,426.925 344.575,426.7625 Q344.4125,426.6125 344.325,426.2 Q344.2875,425.9125 344.1375,425.7625 Q343.875,425.4625 343.3875,425.2875 Q342.9,425.1125 342.4,425.1125 Q341.7875,425.1125 341.275,425.375 Q340.775,425.6375 340.375,426.2375 Q339.9875,426.8375 339.9875,427.6625 L339.9875,428.5375 Q339.9875,429.525 340.7,430.1875 Q341.4125,430.8375 342.6875,430.8375 Q343.4375,430.8375 343.9625,430.6375 Q344.275,430.5125 344.6125,430.1625 Q344.825,429.95 344.9375,429.8875 Q345.0625,429.825 345.225,429.825 Q345.4875,429.825 345.6875,430.0375 Q345.9,430.2375 345.9,430.5125 Q345.9,430.7875 345.625,431.1125 Q345.225,431.575 344.5875,431.8375 Q343.725,432.2 342.6875,432.2 Q341.475,432.2 340.5125,431.7 Q339.725,431.3 339.175,430.45 Q338.625,429.5875 338.625,428.5625 L338.625,427.6375 Q338.625,426.575 339.1125,425.6625 Q339.6125,424.7375 340.4875,424.25 Q341.3625,423.75 342.35,423.75 Q342.9375,423.75 343.45,423.8875 Q343.975,424.0125 344.4125,424.3 Z " fill="#000000"/><text fill="#000000" font-family="sans-serif" font-size="11.2" lengthAdjust="spacing" textLength="45.6" x="358.6" y="432.2375">ToDoList</text><line style="stroke:#181818;stroke-width:0.4000000000000001;" x1="267.2" x2="469.6" y1="440.4" y2="440.4"/><line style="stroke:#181818;stroke-width:0.4000000000000001;" x1="267.2" x2="469.6" y1="446.8" y2="446.8"/><text fill="#000000" font-family="sans-serif" font-size="11.2" lengthAdjust="spacing" textLength="194.4" x="271.2" y="462.0859">+getTaskByReference(taskReference)</text></g><!--class Task--><g id="elem_Task"><rect codeLine="37" fill="#F1F1F1" height="157.575" id="Task" rx="2" ry="2" style="stroke:#181818;stroke-width:0.4000000000000001;" width="446.4" x="145.2" y="664"/><ellipse cx="352.6" cy="676.8" fill="#ADD1B2" rx="8.8" ry="8.8" style="stroke:#181818;stroke-width:0.8000000000000002;"/><path d="M354.8125,673.5 Q354.9375,673.325 355.0875,673.2375 Q355.2375,673.15 355.4125,673.15 Q355.7125,673.15 355.9,673.3625 Q356.0875,673.5625 356.0875,674.05 L356.0875,675.2125 Q356.0875,675.7 355.9,675.9125 Q355.7125,676.125 355.4125,676.125 Q355.1375,676.125 354.975,675.9625 Q354.8125,675.8125 354.725,675.4 Q354.6875,675.1125 354.5375,674.9625 Q354.275,674.6625 353.7875,674.4875 Q353.3,674.3125 352.8,674.3125 Q352.1875,674.3125 351.675,674.575 Q351.175,674.8375 350.775,675.4375 Q350.3875,676.0375 350.3875,676.8625 L350.3875,677.7375 Q350.3875,678.725 351.1,679.3875 Q351.8125,680.0375 353.0875,680.0375 Q353.8375,680.0375 354.3625,679.8375 Q354.675,679.7125 355.0125,679.3625 Q355.225,679.15 355.3375,679.0875 Q355.4625,679.025 355.625,679.025 Q355.8875,679.025 356.0875,679.2375 Q356.3,679.4375 356.3,679.7125 Q356.3,679.9875 356.025,680.3125 Q355.625,680.775 354.9875,681.0375 Q354.125,681.4 353.0875,681.4 Q351.875,681.4 350.9125,680.9 Q350.125,680.5 349.575,679.65 Q349.025,678.7875 349.025,677.7625 L349.025,676.8375 Q349.025,675.775 349.5125,674.8625 Q350.0125,673.9375 350.8875,673.45 Q351.7625,672.95 352.75,672.95 Q353.3375,672.95 353.85,673.0875 Q354.375,673.2125 354.8125,673.5 Z " fill="#000000"/><text fill="#000000" font-family="sans-serif" font-size="11.2" lengthAdjust="spacing" textLength="24.8" x="369" y="681.4375">Task</text><line style="stroke:#181818;stroke-width:0.4000000000000001;" x1="146" x2="590.8" y1="689.6" y2="689.6"/><text fill="#000000" font-family="sans-serif" font-size="11.2" lengthAdjust="spacing" textLength="85.6" x="150" y="704.8859">-String reference</text><text fill="#000000" font-family="sans-serif" font-size="11.2" lengthAdjust="spacing" textLength="92" x="150" y="719.7828">-String description</text><text fill="#000000" font-family="sans-serif" font-size="11.2" lengthAdjust="spacing" textLength="191.2" x="150" y="734.6797">-EmergencyDegree degreeOfUrgency</text><text fill="#000000" font-family="sans-serif" font-size="11.2" lengthAdjust="spacing" textLength="108" x="150" y="749.5766">-int expectedDuration</text><text fill="#000000" font-family="sans-serif" font-size="11.2" lengthAdjust="spacing" textLength="79.2" x="150" y="764.4734">-TaskType type</text><text fill="#000000" font-family="sans-serif" font-size="11.2" lengthAdjust="spacing" textLength="132.8" x="150" y="779.3703">-GreenSpace greenSpace</text><line style="stroke:#181818;stroke-width:0.4000000000000001;" x1="146" x2="590.8" y1="785.3813" y2="785.3813"/><text fill="#000000" font-family="sans-serif" font-size="11.2" lengthAdjust="spacing" textLength="436.8" x="150" y="800.6672">+Task(reference, description, degreeOfUrgency, expectedDuration, type, greenSpace)</text><text fill="#000000" font-family="sans-serif" font-size="11.2" lengthAdjust="spacing" textLength="114.4" x="150" y="815.5641">+changeStatus(status)</text></g><!--class Repositories--><g id="elem_Repositories"><rect codeLine="48" fill="#F1F1F1" height="97.9875" id="Repositories" rx="2" ry="2" style="stroke:#181818;stroke-width:0.4000000000000001;" width="155.2" x="117.2" y="253.6"/><ellipse cx="159.8" cy="266.4" fill="#ADD1B2" rx="8.8" ry="8.8" style="stroke:#181818;stroke-width:0.8000000000000002;"/><path d="M162.0125,263.1 Q162.1375,262.925 162.2875,262.8375 Q162.4375,262.75 162.6125,262.75 Q162.9125,262.75 163.1,262.9625 Q163.2875,263.1625 163.2875,263.65 L163.2875,264.8125 Q163.2875,265.3 163.1,265.5125 Q162.9125,265.725 162.6125,265.725 Q162.3375,265.725 162.175,265.5625 Q162.0125,265.4125 161.925,265 Q161.8875,264.7125 161.7375,264.5625 Q161.475,264.2625 160.9875,264.0875 Q160.5,263.9125 160,263.9125 Q159.3875,263.9125 158.875,264.175 Q158.375,264.4375 157.975,265.0375 Q157.5875,265.6375 157.5875,266.4625 L157.5875,267.3375 Q157.5875,268.325 158.3,268.9875 Q159.0125,269.6375 160.2875,269.6375 Q161.0375,269.6375 161.5625,269.4375 Q161.875,269.3125 162.2125,268.9625 Q162.425,268.75 162.5375,268.6875 Q162.6625,268.625 162.825,268.625 Q163.0875,268.625 163.2875,268.8375 Q163.5,269.0375 163.5,269.3125 Q163.5,269.5875 163.225,269.9125 Q162.825,270.375 162.1875,270.6375 Q161.325,271 160.2875,271 Q159.075,271 158.1125,270.5 Q157.325,270.1 156.775,269.25 Q156.225,268.3875 156.225,267.3625 L156.225,266.4375 Q156.225,265.375 156.7125,264.4625 Q157.2125,263.5375 158.0875,263.05 Q158.9625,262.55 159.95,262.55 Q160.5375,262.55 161.05,262.6875 Q161.575,262.8125 162.0125,263.1 Z " fill="#000000"/><text fill="#000000" font-family="sans-serif" font-size="11.2" lengthAdjust="spacing" textLength="63.2" x="176.2" y="271.0375">Repositories</text><line style="stroke:#181818;stroke-width:0.4000000000000001;" x1="118" x2="271.6" y1="279.2" y2="279.2"/><line style="stroke:#181818;stroke-width:0.4000000000000001;" x1="118" x2="271.6" y1="285.6" y2="285.6"/><text fill="#000000" font-family="sans-serif" font-size="11.2" lengthAdjust="spacing" textLength="75.2" x="122" y="300.8859">-Repositories()</text><text fill="#000000" font-family="sans-serif" font-size="11.2" lengthAdjust="spacing" textLength="145.6" x="122" y="315.7828">+getInstance() : Repositories</text><text fill="#000000" font-family="sans-serif" font-size="11.2" lengthAdjust="spacing" textLength="69.6" x="122" y="330.6797">+getAgenda()</text><text fill="#000000" font-family="sans-serif" font-size="11.2" lengthAdjust="spacing" textLength="76" x="122" y="345.5766">+getToDoList()</text></g><!--class AgendaStatus--><g id="elem_AgendaStatus"><rect codeLine="55" fill="#F1F1F1" height="97.9875" id="AgendaStatus" rx="2" ry="2" style="stroke:#181818;stroke-width:0.4000000000000001;" width="96.8" x="20" y="694"/><ellipse cx="32" cy="706.8" fill="#EB937F" rx="8.8" ry="8.8" style="stroke:#181818;stroke-width:0.8000000000000002;"/><path d="M31.0875,707.4375 L31.0875,709.4375 L34.55,709.4375 L34.55,708.7 Q34.55,708.2125 34.7375,708 Q34.9375,707.7875 35.2375,707.7875 Q35.5375,707.7875 35.725,708 Q35.9125,708.2125 35.9125,708.7 L35.9125,710.8 L29.5125,710.8 Q29.0125,710.8 28.8,710.6125 Q28.6,710.425 28.6,710.1125 Q28.6,709.8125 28.8125,709.625 Q29.025,709.4375 29.5125,709.4375 L29.725,709.4375 L29.725,704.1125 L29.5125,704.1125 Q29.0125,704.1125 28.8,703.925 Q28.6,703.7375 28.6,703.425 Q28.6,703.125 28.8,702.9375 Q29.0125,702.75 29.5125,702.75 L35.6125,702.75 L35.6125,704.825 Q35.6125,705.3125 35.425,705.525 Q35.25,705.725 34.9375,705.725 Q34.6375,705.725 34.45,705.525 Q34.2625,705.3125 34.2625,704.825 L34.2625,704.1125 L31.0875,704.1125 L31.0875,706.075 L32.275,706.075 Q32.275,705.55 32.375,705.4 Q32.5875,705.075 32.9625,705.075 Q33.2625,705.075 33.45,705.2875 Q33.6375,705.4875 33.6375,705.975 L33.6375,707.55 Q33.6375,707.9875 33.5375,708.1375 Q33.325,708.45 32.9625,708.45 Q32.5875,708.45 32.375,708.125 Q32.275,707.975 32.275,707.4375 L31.0875,707.4375 Z " fill="#000000"/><text fill="#000000" font-family="sans-serif" font-size="11.2" lengthAdjust="spacing" textLength="71.2" x="43.2" y="711.4375">AgendaStatus</text><line style="stroke:#181818;stroke-width:0.4000000000000001;" x1="20.8" x2="116" y1="719.6" y2="719.6"/><text fill="#000000" font-family="sans-serif" font-size="11.2" lengthAdjust="spacing" textLength="50.4" x="24.8" y="734.8859">PLANNED</text><text fill="#000000" font-family="sans-serif" font-size="11.2" lengthAdjust="spacing" textLength="68.8" x="24.8" y="749.7828">POSTPONED</text><text fill="#000000" font-family="sans-serif" font-size="11.2" lengthAdjust="spacing" textLength="59.2" x="24.8" y="764.6797">CANCELED</text><text fill="#000000" font-family="sans-serif" font-size="11.2" lengthAdjust="spacing" textLength="31.2" x="24.8" y="779.5766">DONE</text><line style="stroke:#181818;stroke-width:0.4000000000000001;" x1="20.8" x2="116" y1="785.5875" y2="785.5875"/></g><!--class TaskStatus--><g id="elem_TaskStatus"><rect codeLine="62" fill="#F1F1F1" height="68.1938" id="TaskStatus" rx="2" ry="2" style="stroke:#181818;stroke-width:0.4000000000000001;" width="82.4" x="327.2" y="870.4"/><ellipse cx="339.2" cy="883.2" fill="#EB937F" rx="8.8" ry="8.8" style="stroke:#181818;stroke-width:0.8000000000000002;"/><path d="M338.2875,883.8375 L338.2875,885.8375 L341.75,885.8375 L341.75,885.1 Q341.75,884.6125 341.9375,884.4 Q342.1375,884.1875 342.4375,884.1875 Q342.7375,884.1875 342.925,884.4 Q343.1125,884.6125 343.1125,885.1 L343.1125,887.2 L336.7125,887.2 Q336.2125,887.2 336,887.0125 Q335.8,886.825 335.8,886.5125 Q335.8,886.2125 336.0125,886.025 Q336.225,885.8375 336.7125,885.8375 L336.925,885.8375 L336.925,880.5125 L336.7125,880.5125 Q336.2125,880.5125 336,880.325 Q335.8,880.1375 335.8,879.825 Q335.8,879.525 336,879.3375 Q336.2125,879.15 336.7125,879.15 L342.8125,879.15 L342.8125,881.225 Q342.8125,881.7125 342.625,881.925 Q342.45,882.125 342.1375,882.125 Q341.8375,882.125 341.65,881.925 Q341.4625,881.7125 341.4625,881.225 L341.4625,880.5125 L338.2875,880.5125 L338.2875,882.475 L339.475,882.475 Q339.475,881.95 339.575,881.8 Q339.7875,881.475 340.1625,881.475 Q340.4625,881.475 340.65,881.6875 Q340.8375,881.8875 340.8375,882.375 L340.8375,883.95 Q340.8375,884.3875 340.7375,884.5375 Q340.525,884.85 340.1625,884.85 Q339.7875,884.85 339.575,884.525 Q339.475,884.375 339.475,883.8375 L338.2875,883.8375 Z " fill="#000000"/><text fill="#000000" font-family="sans-serif" font-size="11.2" lengthAdjust="spacing" textLength="56.8" x="350.4" y="887.8375">TaskStatus</text><line style="stroke:#181818;stroke-width:0.4000000000000001;" x1="328" x2="408.8" y1="896" y2="896"/><text fill="#000000" font-family="sans-serif" font-size="11.2" lengthAdjust="spacing" textLength="48" x="332" y="911.2859">PENDING</text><text fill="#000000" font-family="sans-serif" font-size="11.2" lengthAdjust="spacing" textLength="68.8" x="332" y="926.1828">PROCESSED</text><line style="stroke:#181818;stroke-width:0.4000000000000001;" x1="328" x2="408.8" y1="932.1938" y2="932.1938"/></g><!--link AddEntryAgendaUI to AddEntryAgendaController--><g id="link_AddEntryAgendaUI_AddEntryAgendaController"><path codeLine="67" d="M194.8,44.112 C194.8,57.272 194.8,70.8 194.8,87.96 " fill="none" id="AddEntryAgendaUI-to-AddEntryAgendaController" style="stroke:#181818;stroke-width:0.8000000000000002;stroke-dasharray:7.0,7.0;"/><polygon fill="#181818" points="194.8,92.76,198,85.56,194.8,88.76,191.6,85.56,194.8,92.76" style="stroke:#181818;stroke-width:0.8000000000000002;"/></g><!--link AddEntryAgendaController to Repositories--><g id="link_AddEntryAgendaController_Repositories"><path codeLine="68" d="M194.8,190.6 C194.8,210.544 194.8,228.832 194.8,248.768 " fill="none" id="AddEntryAgendaController-to-Repositories" style="stroke:#181818;stroke-width:0.8000000000000002;stroke-dasharray:7.0,7.0;"/><polygon fill="#181818" points="194.8,253.568,198,246.368,194.8,249.568,191.6,246.368,194.8,253.568" style="stroke:#181818;stroke-width:0.8000000000000002;"/><text fill="#000000" font-family="sans-serif" font-size="10.4" lengthAdjust="spacing" textLength="53.6" x="195.6" y="226.4227">repositories</text></g><!--link AddEntryAgendaController to Agenda--><g id="link_AddEntryAgendaController_Agenda"><path codeLine="69" d="M139.752,190.528 C105.368,220.584 67.6,253.6 67.6,253.6 C67.6,253.6 67.6,351.2 67.6,351.2 C67.6,351.2 76.0887,371.8638 85.7927,395.4958 " fill="none" id="AddEntryAgendaController-to-Agenda" style="stroke:#181818;stroke-width:0.8000000000000002;stroke-dasharray:7.0,7.0;"/><polygon fill="#181818" points="87.616,399.936,87.8412,392.0601,86.0966,396.2358,81.9209,394.4912,87.616,399.936" style="stroke:#181818;stroke-width:0.8000000000000002;"/><text fill="#000000" font-family="sans-serif" font-size="10.4" lengthAdjust="spacing" textLength="33.6" x="68.4" y="306.8227">agenda</text></g><!--link AddEntryAgendaController to ToDoList--><g id="link_AddEntryAgendaController_ToDoList"><path codeLine="70" d="M261.968,190.528 C303.912,220.584 350,253.6 350,253.6 C350,253.6 360.3144,358.559 365.3704,409.991 " fill="none" id="AddEntryAgendaController-to-ToDoList" style="stroke:#181818;stroke-width:0.8000000000000002;stroke-dasharray:7.0,7.0;"/><polygon fill="#181818" points="365.84,414.768,368.3203,407.2895,365.4487,410.7872,361.951,407.9156,365.84,414.768" style="stroke:#181818;stroke-width:0.8000000000000002;"/><text fill="#000000" font-family="sans-serif" font-size="10.4" lengthAdjust="spacing" textLength="38.4" x="359.6" y="306.8227">toDoList</text></g><!--link Repositories to Repositories--><g id="link_Repositories_Repositories"><path codeLine="71" d="M272.624,289.376 C288.784,290.744 300.4,295.088 300.4,302.4 C300.4,309.712 293.5669,313.6511 277.4069,315.0191 " fill="none" id="Repositories-to-Repositories" style="stroke:#181818;stroke-width:0.8000000000000002;"/><polygon fill="#181818" points="272.624,315.424,280.0683,318.0053,276.6097,315.0866,279.5284,311.6281,272.624,315.424" style="stroke:#181818;stroke-width:0.8000000000000002;"/><text fill="#000000" font-family="sans-serif" font-size="10.4" lengthAdjust="spacing" textLength="39.2" x="305.2" y="306.8227">instance</text></g><!--link Repositories to Agenda--><g id="link_Repositories_Agenda"><path codeLine="72" d="M163.184,351.328 C152.792,367.136 143.9878,380.5404 133.9798,395.7724 " fill="none" id="Repositories-to-Agenda" style="stroke:#181818;stroke-width:0.8000000000000002;"/><polygon fill="#181818" points="131.344,399.784,137.972,395.5238,133.5405,396.441,132.6233,392.0095,131.344,399.784" style="stroke:#181818;stroke-width:0.8000000000000002;"/><text fill="#000000" font-family="sans-serif" font-size="10.4" lengthAdjust="spacing" textLength="5.6" x="128.9884" y="390.8969">1</text></g><!--link Repositories to ToDoList--><g id="link_Repositories_ToDoList"><path codeLine="73" d="M255.52,351.328 C282.408,372.64 309.2144,393.8903 331.7504,411.7543 " fill="none" id="Repositories-to-ToDoList" style="stroke:#181818;stroke-width:0.8000000000000002;"/><polygon fill="#181818" points="335.512,414.736,331.8575,407.7557,332.3774,412.2512,327.8819,412.7711,335.512,414.736" style="stroke:#181818;stroke-width:0.8000000000000002;"/><text fill="#000000" font-family="sans-serif" font-size="10.4" lengthAdjust="spacing" textLength="5.6" x="322.8859" y="405.7838">1</text></g><!--link Agenda to Entry--><g id="link_Agenda_Entry"><path codeLine="74" d="M104.4,483.304 C104.4,498.76 104.4,511.552 104.4,527.016 " fill="none" id="Agenda-to-Entry" style="stroke:#181818;stroke-width:0.8000000000000002;"/><polygon fill="#181818" points="104.4,531.816,107.6,524.616,104.4,527.816,101.2,524.616,104.4,531.816" style="stroke:#181818;stroke-width:0.8000000000000002;"/><text fill="#000000" font-family="sans-serif" font-size="10.4" lengthAdjust="spacing" textLength="4" x="100.1313" y="522.9332">*</text></g><!--link ToDoList to Task--><g id="link_ToDoList_Task"><path codeLine="75" d="M368.4,468.464 C368.4,511.528 368.4,594.392 368.4,658.92 " fill="none" id="ToDoList-to-Task" style="stroke:#181818;stroke-width:0.8000000000000002;"/><polygon fill="#181818" points="368.4,663.72,371.6,656.52,368.4,659.72,365.2,656.52,368.4,663.72" style="stroke:#181818;stroke-width:0.8000000000000002;"/><text fill="#000000" font-family="sans-serif" font-size="10.4" lengthAdjust="spacing" textLength="4" x="364.2531" y="655.0453">*</text></g><!--link Entry to Task--><g id="link_Entry_Task"><path codeLine="76" d="M168.984,615.4 C192.112,630.08 214.9555,644.5876 241.3715,661.3556 " fill="none" id="Entry-to-Task" style="stroke:#181818;stroke-width:0.8000000000000002;"/><polygon fill="#181818" points="245.424,663.928,241.0602,657.3677,242.0469,661.7843,237.6303,662.7711,245.424,663.928" style="stroke:#181818;stroke-width:0.8000000000000002;"/><text fill="#000000" font-family="sans-serif" font-size="10.4" lengthAdjust="spacing" textLength="5.6" x="230.1943" y="655.0013">1</text></g><!--link Entry to AgendaStatus--><g id="link_Entry_AgendaStatus"><path codeLine="77" d="M95.592,615.4 C90.496,639.144 85.0561,664.4591 79.7201,689.2991 " fill="none" id="Entry-to-AgendaStatus" style="stroke:#181818;stroke-width:0.8000000000000002;"/><polygon fill="#181818" points="78.712,693.992,83.3528,687.6247,79.5521,690.0812,77.0955,686.2805,78.712,693.992" style="stroke:#181818;stroke-width:0.8000000000000002;"/><text fill="#000000" font-family="sans-serif" font-size="10.4" lengthAdjust="spacing" textLength="5.6" x="74.0275" y="684.828">1</text></g><!--link Task to TaskStatus--><g id="link_Task_TaskStatus"><path codeLine="78" d="M368.4,821.728 C368.4,838.856 368.4,851.312 368.4,865.528 " fill="none" id="Task-to-TaskStatus" style="stroke:#181818;stroke-width:0.8000000000000002;"/><polygon fill="#181818" points="368.4,870.328,371.6,863.128,368.4,866.328,365.2,863.128,368.4,870.328" style="stroke:#181818;stroke-width:0.8000000000000002;"/><text fill="#000000" font-family="sans-serif" font-size="10.4" lengthAdjust="spacing" textLength="5.6" x="362.3538" y="861.4398">1</text></g><!--SRC=[ZLJ1Zjem4BtxAomkX6vOjLSEbIY9LaW8LeJz03SPWaMm8zjicrRzzuvZ9pWBx2u7OhzvCsyydl5O7xcecM8dUf92vWSbJq2DEWEvM6gM7ra9cMage0fomqHPXGHzO8NynKL9zwpIeQNY0anJ0wrbrTWD6TymIcKa2RpoYcazDqRndsS3oroAZFy1-fMGSGLxGusaYfS7Gmjkq-5I4DBwq7bHfCAePbw2ADZBalub_sxR5XBNigf08OVYx-6UFM8j4ADi8bTScudZim4_qeOfWpL8c07aCdtSmXuKY1oSmxG4iqFuHzCReXkq1q_JLYgQ1FctEZxRQQSUWVtt2g-iuWNgNra-JZOGQecTZcNGaExYEOLROLfpVi0UmOvXvgmj2p-1mCuNiglynuMvk2BUfPPXWs3FgOusG0lGkU9rsnmjdfv0uU7p9e5I0I31VZRx5uSw4XU6mkyQcmgAvApOnTqAxsopsevrq1FwYmod0sZPBzs9B3lg4ul3REAtol6LOjoAn47KJvLr2xNKt4Z5GNSr6e2H3qEnu4k1_hRI4peRa2uKtok1KtTnhYr1d4- -ArrANlHvDL-lqyIjDzdkUTFj5lFr8btvJO9m7yOMR1WaNIVBzPDRRpUBDClG3-bN8_xu-FtkR9ExGs-zmcFFi8-28hphvy0PTG_3-zokPBF- -I23UvfEt-R1_SrSyqRVHbxxjgtJ8lwfQF4l8pVGf9-w3hOr9sxO-mZNK7Z1f1s_aEpn_m00]--></g></svg>