<?xml version="1.0" encoding="us-ascii" standalone="no"?><svg xmlns="http://www.w3.org/2000/svg" xmlns:xlink="http://www.w3.org/1999/xlink" contentStyleType="text/css" height="608.5px" preserveAspectRatio="none" style="width:509px;height:608px;background:#FFFFFF;" version="1.1" viewBox="0 0 509 608" width="509px" zoomAndPan="magnify"><defs/><g><!--class AddEntryAgendaUI--><g id="elem_AddEntryAgendaUI"><rect codeLine="11" fill="#F1F1F1" height="24" id="AddEntryAgendaUI" rx="1.25" ry="1.25" style="stroke:#181818;stroke-width:0.25;" width="75.5" x="240.75" y="3.5"/><ellipse cx="248.25" cy="11.5" fill="#ADD1B2" rx="5.5" ry="5.5" style="stroke:#181818;stroke-width:0.5;"/><path d="M249.6328,9.4375 Q249.7109,9.3281 249.8047,9.2734 Q249.8984,9.2188 250.0078,9.2188 Q250.1953,9.2188 250.3125,9.3516 Q250.4297,9.4766 250.4297,9.7813 L250.4297,10.5078 Q250.4297,10.8125 250.3125,10.9453 Q250.1953,11.0781 250.0078,11.0781 Q249.8359,11.0781 249.7344,10.9766 Q249.6328,10.8828 249.5781,10.625 Q249.5547,10.4453 249.4609,10.3516 Q249.2969,10.1641 248.9922,10.0547 Q248.6875,9.9453 248.375,9.9453 Q247.9922,9.9453 247.6719,10.1094 Q247.3594,10.2734 247.1094,10.6484 Q246.8672,11.0234 246.8672,11.5391 L246.8672,12.0859 Q246.8672,12.7031 247.3125,13.1172 Q247.7578,13.5234 248.5547,13.5234 Q249.0234,13.5234 249.3516,13.3984 Q249.5469,13.3203 249.7578,13.1016 Q249.8906,12.9688 249.9609,12.9297 Q250.0391,12.8906 250.1406,12.8906 Q250.3047,12.8906 250.4297,13.0234 Q250.5625,13.1484 250.5625,13.3203 Q250.5625,13.4922 250.3906,13.6953 Q250.1406,13.9844 249.7422,14.1484 Q249.2031,14.375 248.5547,14.375 Q247.7969,14.375 247.1953,14.0625 Q246.7031,13.8125 246.3594,13.2813 Q246.0156,12.7422 246.0156,12.1016 L246.0156,11.5234 Q246.0156,10.8594 246.3203,10.2891 Q246.6328,9.7109 247.1797,9.4063 Q247.7266,9.0938 248.3438,9.0938 Q248.7109,9.0938 249.0313,9.1797 Q249.3594,9.2578 249.6328,9.4375 Z " fill="#000000"/><text fill="#000000" font-family="sans-serif" font-size="7" lengthAdjust="spacing" textLength="59.5" x="255.25" y="14.3984">AddEntryAgendaUI</text><line style="stroke:#181818;stroke-width:0.25;" x1="241.25" x2="315.75" y1="19.5" y2="19.5"/><line style="stroke:#181818;stroke-width:0.25;" x1="241.25" x2="315.75" y1="23.5" y2="23.5"/></g><!--class AddEntryAgendaController--><g id="elem_AddEntryAgendaController"><rect codeLine="14" fill="#F1F1F1" height="70.5527" id="AddEntryAgendaController" rx="1.25" ry="1.25" style="stroke:#181818;stroke-width:0.25;" width="236" x="160.5" y="58"/><ellipse cx="234.125" cy="66" fill="#ADD1B2" rx="5.5" ry="5.5" style="stroke:#181818;stroke-width:0.5;"/><path d="M235.5078,63.9375 Q235.5859,63.8281 235.6797,63.7734 Q235.7734,63.7188 235.8828,63.7188 Q236.0703,63.7188 236.1875,63.8516 Q236.3047,63.9766 236.3047,64.2813 L236.3047,65.0078 Q236.3047,65.3125 236.1875,65.4453 Q236.0703,65.5781 235.8828,65.5781 Q235.7109,65.5781 235.6094,65.4766 Q235.5078,65.3828 235.4531,65.125 Q235.4297,64.9453 235.3359,64.8516 Q235.1719,64.6641 234.8672,64.5547 Q234.5625,64.4453 234.25,64.4453 Q233.8672,64.4453 233.5469,64.6094 Q233.2344,64.7734 232.9844,65.1484 Q232.7422,65.5234 232.7422,66.0391 L232.7422,66.5859 Q232.7422,67.2031 233.1875,67.6172 Q233.6328,68.0234 234.4297,68.0234 Q234.8984,68.0234 235.2266,67.8984 Q235.4219,67.8203 235.6328,67.6016 Q235.7656,67.4688 235.8359,67.4297 Q235.9141,67.3906 236.0156,67.3906 Q236.1797,67.3906 236.3047,67.5234 Q236.4375,67.6484 236.4375,67.8203 Q236.4375,67.9922 236.2656,68.1953 Q236.0156,68.4844 235.6172,68.6484 Q235.0781,68.875 234.4297,68.875 Q233.6719,68.875 233.0703,68.5625 Q232.5781,68.3125 232.2344,67.7813 Q231.8906,67.2422 231.8906,66.6016 L231.8906,66.0234 Q231.8906,65.3594 232.1953,64.7891 Q232.5078,64.2109 233.0547,63.9063 Q233.6016,63.5938 234.2188,63.5938 Q234.5859,63.5938 234.9063,63.6797 Q235.2344,63.7578 235.5078,63.9375 Z " fill="#000000"/><text fill="#000000" font-family="sans-serif" font-size="7" lengthAdjust="spacing" textLength="84.5" x="244.375" y="68.8984">AddEntryAgendaController</text><line style="stroke:#181818;stroke-width:0.25;" x1="161" x2="396" y1="74" y2="74"/><line style="stroke:#181818;stroke-width:0.25;" x1="161" x2="396" y1="78" y2="78"/><text fill="#000000" font-family="sans-serif" font-size="7" lengthAdjust="spacing" textLength="230" x="163.5" y="87.5537">+AddEntryAgendaController(agenda, toDoList, authenticationRepository)</text><text fill="#000000" font-family="sans-serif" font-size="7" lengthAdjust="spacing" textLength="121" x="163.5" y="96.8643">+addEntryAgenda(startingDate, index)</text><text fill="#000000" font-family="sans-serif" font-size="7" lengthAdjust="spacing" textLength="74" x="163.5" y="106.1748">-getTaskByIndex(index)</text><text fill="#000000" font-family="sans-serif" font-size="7" lengthAdjust="spacing" textLength="74.5" x="163.5" y="115.4854">-getGSMFromSession()</text><text fill="#000000" font-family="sans-serif" font-size="7" lengthAdjust="spacing" textLength="49" x="163.5" y="124.7959">+getTasksList()</text></g><!--class Agenda--><g id="elem_Agenda"><rect codeLine="22" fill="#F1F1F1" height="61.2422" id="Agenda" rx="1.25" ry="1.25" style="stroke:#181818;stroke-width:0.25;" width="182" x="211" y="269"/><ellipse cx="287.625" cy="277" fill="#ADD1B2" rx="5.5" ry="5.5" style="stroke:#181818;stroke-width:0.5;"/><path d="M289.0078,274.9375 Q289.0859,274.8281 289.1797,274.7734 Q289.2734,274.7188 289.3828,274.7188 Q289.5703,274.7188 289.6875,274.8516 Q289.8047,274.9766 289.8047,275.2813 L289.8047,276.0078 Q289.8047,276.3125 289.6875,276.4453 Q289.5703,276.5781 289.3828,276.5781 Q289.2109,276.5781 289.1094,276.4766 Q289.0078,276.3828 288.9531,276.125 Q288.9297,275.9453 288.8359,275.8516 Q288.6719,275.6641 288.3672,275.5547 Q288.0625,275.4453 287.75,275.4453 Q287.3672,275.4453 287.0469,275.6094 Q286.7344,275.7734 286.4844,276.1484 Q286.2422,276.5234 286.2422,277.0391 L286.2422,277.5859 Q286.2422,278.2031 286.6875,278.6172 Q287.1328,279.0234 287.9297,279.0234 Q288.3984,279.0234 288.7266,278.8984 Q288.9219,278.8203 289.1328,278.6016 Q289.2656,278.4688 289.3359,278.4297 Q289.4141,278.3906 289.5156,278.3906 Q289.6797,278.3906 289.8047,278.5234 Q289.9375,278.6484 289.9375,278.8203 Q289.9375,278.9922 289.7656,279.1953 Q289.5156,279.4844 289.1172,279.6484 Q288.5781,279.875 287.9297,279.875 Q287.1719,279.875 286.5703,279.5625 Q286.0781,279.3125 285.7344,278.7813 Q285.3906,278.2422 285.3906,277.6016 L285.3906,277.0234 Q285.3906,276.3594 285.6953,275.7891 Q286.0078,275.2109 286.5547,274.9063 Q287.1016,274.5938 287.7188,274.5938 Q288.0859,274.5938 288.4063,274.6797 Q288.7344,274.7578 289.0078,274.9375 Z " fill="#000000"/><text fill="#000000" font-family="sans-serif" font-size="7" lengthAdjust="spacing" textLength="24.5" x="297.875" y="279.8984">Agenda</text><line style="stroke:#181818;stroke-width:0.25;" x1="211.5" x2="392.5" y1="285" y2="285"/><line style="stroke:#181818;stroke-width:0.25;" x1="211.5" x2="392.5" y1="289" y2="289"/><text fill="#000000" font-family="sans-serif" font-size="7" lengthAdjust="spacing" textLength="176" x="214" y="298.5537">+addEntryAgenda(startingDate, task, gsmFromSession)</text><text fill="#000000" font-family="sans-serif" font-size="7" lengthAdjust="spacing" textLength="110.5" x="214" y="307.8643">-addEntry(gsmFromSession, entry)</text><text fill="#000000" font-family="sans-serif" font-size="7" lengthAdjust="spacing" textLength="64.5" x="214" y="317.1748">-validateEntry(entry)</text><text fill="#000000" font-family="sans-serif" font-size="7" lengthAdjust="spacing" textLength="121" x="214" y="326.4854">-validateUser(gsmFromSession, entry)</text></g><!--class Entry--><g id="elem_Entry"><rect codeLine="29" fill="#F1F1F1" height="42.6211" id="Entry" rx="1.25" ry="1.25" style="stroke:#181818;stroke-width:0.25;" width="87" x="264.5" y="360.5"/><ellipse cx="297.625" cy="368.5" fill="#ADD1B2" rx="5.5" ry="5.5" style="stroke:#181818;stroke-width:0.5;"/><path d="M299.0078,366.4375 Q299.0859,366.3281 299.1797,366.2734 Q299.2734,366.2188 299.3828,366.2188 Q299.5703,366.2188 299.6875,366.3516 Q299.8047,366.4766 299.8047,366.7813 L299.8047,367.5078 Q299.8047,367.8125 299.6875,367.9453 Q299.5703,368.0781 299.3828,368.0781 Q299.2109,368.0781 299.1094,367.9766 Q299.0078,367.8828 298.9531,367.625 Q298.9297,367.4453 298.8359,367.3516 Q298.6719,367.1641 298.3672,367.0547 Q298.0625,366.9453 297.75,366.9453 Q297.3672,366.9453 297.0469,367.1094 Q296.7344,367.2734 296.4844,367.6484 Q296.2422,368.0234 296.2422,368.5391 L296.2422,369.0859 Q296.2422,369.7031 296.6875,370.1172 Q297.1328,370.5234 297.9297,370.5234 Q298.3984,370.5234 298.7266,370.3984 Q298.9219,370.3203 299.1328,370.1016 Q299.2656,369.9688 299.3359,369.9297 Q299.4141,369.8906 299.5156,369.8906 Q299.6797,369.8906 299.8047,370.0234 Q299.9375,370.1484 299.9375,370.3203 Q299.9375,370.4922 299.7656,370.6953 Q299.5156,370.9844 299.1172,371.1484 Q298.5781,371.375 297.9297,371.375 Q297.1719,371.375 296.5703,371.0625 Q296.0781,370.8125 295.7344,370.2813 Q295.3906,369.7422 295.3906,369.1016 L295.3906,368.5234 Q295.3906,367.8594 295.6953,367.2891 Q296.0078,366.7109 296.5547,366.4063 Q297.1016,366.0938 297.7188,366.0938 Q298.0859,366.0938 298.4063,366.1797 Q298.7344,366.2578 299.0078,366.4375 Z " fill="#000000"/><text fill="#000000" font-family="sans-serif" font-size="7" lengthAdjust="spacing" textLength="16.5" x="307.875" y="371.3984">Entry</text><line style="stroke:#181818;stroke-width:0.25;" x1="265" x2="351" y1="376.5" y2="376.5"/><text fill="#000000" font-family="sans-serif" font-size="7" lengthAdjust="spacing" textLength="58" x="267.5" y="386.0537">-Date startingDate</text><line style="stroke:#181818;stroke-width:0.25;" x1="265" x2="351" y1="389.8105" y2="389.8105"/><text fill="#000000" font-family="sans-serif" font-size="7" lengthAdjust="spacing" textLength="81" x="267.5" y="399.3643">+Entry(startingDate, task)</text></g><!--class ToDoList--><g id="elem_ToDoList"><rect codeLine="34" fill="#F1F1F1" height="33.3105" id="ToDoList" rx="1.25" ry="1.25" style="stroke:#181818;stroke-width:0.25;" width="81.5" x="111.75" y="282.75"/><ellipse cx="136.125" cy="290.75" fill="#ADD1B2" rx="5.5" ry="5.5" style="stroke:#181818;stroke-width:0.5;"/><path d="M137.5078,288.6875 Q137.5859,288.5781 137.6797,288.5234 Q137.7734,288.4688 137.8828,288.4688 Q138.0703,288.4688 138.1875,288.6016 Q138.3047,288.7266 138.3047,289.0313 L138.3047,289.7578 Q138.3047,290.0625 138.1875,290.1953 Q138.0703,290.3281 137.8828,290.3281 Q137.7109,290.3281 137.6094,290.2266 Q137.5078,290.1328 137.4531,289.875 Q137.4297,289.6953 137.3359,289.6016 Q137.1719,289.4141 136.8672,289.3047 Q136.5625,289.1953 136.25,289.1953 Q135.8672,289.1953 135.5469,289.3594 Q135.2344,289.5234 134.9844,289.8984 Q134.7422,290.2734 134.7422,290.7891 L134.7422,291.3359 Q134.7422,291.9531 135.1875,292.3672 Q135.6328,292.7734 136.4297,292.7734 Q136.8984,292.7734 137.2266,292.6484 Q137.4219,292.5703 137.6328,292.3516 Q137.7656,292.2188 137.8359,292.1797 Q137.9141,292.1406 138.0156,292.1406 Q138.1797,292.1406 138.3047,292.2734 Q138.4375,292.3984 138.4375,292.5703 Q138.4375,292.7422 138.2656,292.9453 Q138.0156,293.2344 137.6172,293.3984 Q137.0781,293.625 136.4297,293.625 Q135.6719,293.625 135.0703,293.3125 Q134.5781,293.0625 134.2344,292.5313 Q133.8906,291.9922 133.8906,291.3516 L133.8906,290.7734 Q133.8906,290.1094 134.1953,289.5391 Q134.5078,288.9609 135.0547,288.6563 Q135.6016,288.3438 136.2188,288.3438 Q136.5859,288.3438 136.9063,288.4297 Q137.2344,288.5078 137.5078,288.6875 Z " fill="#000000"/><text fill="#000000" font-family="sans-serif" font-size="7" lengthAdjust="spacing" textLength="28.5" x="146.375" y="293.6484">ToDoList</text><line style="stroke:#181818;stroke-width:0.25;" x1="112.25" x2="192.75" y1="298.75" y2="298.75"/><line style="stroke:#181818;stroke-width:0.25;" x1="112.25" x2="192.75" y1="302.75" y2="302.75"/><text fill="#000000" font-family="sans-serif" font-size="7" lengthAdjust="spacing" textLength="75.5" x="114.75" y="312.3037">+getTaskByIndex(index)</text></g><!--class Task--><g id="elem_Task"><rect codeLine="38" fill="#F1F1F1" height="98.4844" id="Task" rx="1.25" ry="1.25" style="stroke:#181818;stroke-width:0.25;" width="279" x="3.5" y="433.5"/><ellipse cx="133.125" cy="441.5" fill="#ADD1B2" rx="5.5" ry="5.5" style="stroke:#181818;stroke-width:0.5;"/><path d="M134.5078,439.4375 Q134.5859,439.3281 134.6797,439.2734 Q134.7734,439.2188 134.8828,439.2188 Q135.0703,439.2188 135.1875,439.3516 Q135.3047,439.4766 135.3047,439.7813 L135.3047,440.5078 Q135.3047,440.8125 135.1875,440.9453 Q135.0703,441.0781 134.8828,441.0781 Q134.7109,441.0781 134.6094,440.9766 Q134.5078,440.8828 134.4531,440.625 Q134.4297,440.4453 134.3359,440.3516 Q134.1719,440.1641 133.8672,440.0547 Q133.5625,439.9453 133.25,439.9453 Q132.8672,439.9453 132.5469,440.1094 Q132.2344,440.2734 131.9844,440.6484 Q131.7422,441.0234 131.7422,441.5391 L131.7422,442.0859 Q131.7422,442.7031 132.1875,443.1172 Q132.6328,443.5234 133.4297,443.5234 Q133.8984,443.5234 134.2266,443.3984 Q134.4219,443.3203 134.6328,443.1016 Q134.7656,442.9688 134.8359,442.9297 Q134.9141,442.8906 135.0156,442.8906 Q135.1797,442.8906 135.3047,443.0234 Q135.4375,443.1484 135.4375,443.3203 Q135.4375,443.4922 135.2656,443.6953 Q135.0156,443.9844 134.6172,444.1484 Q134.0781,444.375 133.4297,444.375 Q132.6719,444.375 132.0703,444.0625 Q131.5781,443.8125 131.2344,443.2813 Q130.8906,442.7422 130.8906,442.1016 L130.8906,441.5234 Q130.8906,440.8594 131.1953,440.2891 Q131.5078,439.7109 132.0547,439.4063 Q132.6016,439.0938 133.2188,439.0938 Q133.5859,439.0938 133.9063,439.1797 Q134.2344,439.2578 134.5078,439.4375 Z " fill="#000000"/><text fill="#000000" font-family="sans-serif" font-size="7" lengthAdjust="spacing" textLength="15.5" x="143.375" y="444.3984">Task</text><line style="stroke:#181818;stroke-width:0.25;" x1="4" x2="282" y1="449.5" y2="449.5"/><text fill="#000000" font-family="sans-serif" font-size="7" lengthAdjust="spacing" textLength="34" x="6.5" y="459.0537">-String title</text><text fill="#000000" font-family="sans-serif" font-size="7" lengthAdjust="spacing" textLength="57.5" x="6.5" y="468.3643">-String description</text><text fill="#000000" font-family="sans-serif" font-size="7" lengthAdjust="spacing" textLength="119.5" x="6.5" y="477.6748">-EmergencyDegree degreeOfUrgency</text><text fill="#000000" font-family="sans-serif" font-size="7" lengthAdjust="spacing" textLength="67.5" x="6.5" y="486.9854">-int expectedDuration</text><text fill="#000000" font-family="sans-serif" font-size="7" lengthAdjust="spacing" textLength="49.5" x="6.5" y="496.2959">-TaskType type</text><text fill="#000000" font-family="sans-serif" font-size="7" lengthAdjust="spacing" textLength="83" x="6.5" y="505.6064">-GreenSpace greenSpace</text><line style="stroke:#181818;stroke-width:0.25;" x1="4" x2="282" y1="509.3633" y2="509.3633"/><text fill="#000000" font-family="sans-serif" font-size="7" lengthAdjust="spacing" textLength="273" x="6.5" y="518.917">+Task(reference, description, degreeOfUrgency, expectedDuration, type, greenSpace)</text><text fill="#000000" font-family="sans-serif" font-size="7" lengthAdjust="spacing" textLength="71.5" x="6.5" y="528.2275">+changeStatus(status)</text></g><!--class Repositories--><g id="elem_Repositories"><rect codeLine="49" fill="#F1F1F1" height="70.5527" id="Repositories" rx="1.25" ry="1.25" style="stroke:#181818;stroke-width:0.25;" width="104" x="272.5" y="168"/><ellipse cx="302.625" cy="176" fill="#ADD1B2" rx="5.5" ry="5.5" style="stroke:#181818;stroke-width:0.5;"/><path d="M304.0078,173.9375 Q304.0859,173.8281 304.1797,173.7734 Q304.2734,173.7188 304.3828,173.7188 Q304.5703,173.7188 304.6875,173.8516 Q304.8047,173.9766 304.8047,174.2813 L304.8047,175.0078 Q304.8047,175.3125 304.6875,175.4453 Q304.5703,175.5781 304.3828,175.5781 Q304.2109,175.5781 304.1094,175.4766 Q304.0078,175.3828 303.9531,175.125 Q303.9297,174.9453 303.8359,174.8516 Q303.6719,174.6641 303.3672,174.5547 Q303.0625,174.4453 302.75,174.4453 Q302.3672,174.4453 302.0469,174.6094 Q301.7344,174.7734 301.4844,175.1484 Q301.2422,175.5234 301.2422,176.0391 L301.2422,176.5859 Q301.2422,177.2031 301.6875,177.6172 Q302.1328,178.0234 302.9297,178.0234 Q303.3984,178.0234 303.7266,177.8984 Q303.9219,177.8203 304.1328,177.6016 Q304.2656,177.4688 304.3359,177.4297 Q304.4141,177.3906 304.5156,177.3906 Q304.6797,177.3906 304.8047,177.5234 Q304.9375,177.6484 304.9375,177.8203 Q304.9375,177.9922 304.7656,178.1953 Q304.5156,178.4844 304.1172,178.6484 Q303.5781,178.875 302.9297,178.875 Q302.1719,178.875 301.5703,178.5625 Q301.0781,178.3125 300.7344,177.7813 Q300.3906,177.2422 300.3906,176.6016 L300.3906,176.0234 Q300.3906,175.3594 300.6953,174.7891 Q301.0078,174.2109 301.5547,173.9063 Q302.1016,173.5938 302.7188,173.5938 Q303.0859,173.5938 303.4063,173.6797 Q303.7344,173.7578 304.0078,173.9375 Z " fill="#000000"/><text fill="#000000" font-family="sans-serif" font-size="7" lengthAdjust="spacing" textLength="39.5" x="312.875" y="178.8984">Repositories</text><line style="stroke:#181818;stroke-width:0.25;" x1="273" x2="376" y1="184" y2="184"/><line style="stroke:#181818;stroke-width:0.25;" x1="273" x2="376" y1="188" y2="188"/><text fill="#000000" font-family="sans-serif" font-size="7" lengthAdjust="spacing" textLength="47" x="275.5" y="197.5537">-Repositories()</text><text fill="#000000" font-family="sans-serif" font-size="7" lengthAdjust="spacing" textLength="91" x="275.5" y="206.8643">+getInstance() : Repositories</text><text fill="#000000" font-family="sans-serif" font-size="7" lengthAdjust="spacing" textLength="43.5" x="275.5" y="216.1748">+getAgenda()</text><text fill="#000000" font-family="sans-serif" font-size="7" lengthAdjust="spacing" textLength="47.5" x="275.5" y="225.4854">+getToDoList()</text><text fill="#000000" font-family="sans-serif" font-size="7" lengthAdjust="spacing" textLength="98" x="275.5" y="234.7959">+getAuthenticationRepository()</text></g><!--class AgendaStatus--><g id="elem_AgendaStatus"><rect codeLine="57" fill="#F1F1F1" height="61.2422" id="AgendaStatus" rx="1.25" ry="1.25" style="stroke:#181818;stroke-width:0.25;" width="60.5" x="335.75" y="452.25"/><ellipse cx="343.25" cy="460.25" fill="#EB937F" rx="5.5" ry="5.5" style="stroke:#181818;stroke-width:0.5;"/><path d="M342.6797,460.6484 L342.6797,461.8984 L344.8438,461.8984 L344.8438,461.4375 Q344.8438,461.1328 344.9609,461 Q345.0859,460.8672 345.2734,460.8672 Q345.4609,460.8672 345.5781,461 Q345.6953,461.1328 345.6953,461.4375 L345.6953,462.75 L341.6953,462.75 Q341.3828,462.75 341.25,462.6328 Q341.125,462.5156 341.125,462.3203 Q341.125,462.1328 341.2578,462.0156 Q341.3906,461.8984 341.6953,461.8984 L341.8281,461.8984 L341.8281,458.5703 L341.6953,458.5703 Q341.3828,458.5703 341.25,458.4531 Q341.125,458.3359 341.125,458.1406 Q341.125,457.9531 341.25,457.8359 Q341.3828,457.7188 341.6953,457.7188 L345.5078,457.7188 L345.5078,459.0156 Q345.5078,459.3203 345.3906,459.4531 Q345.2813,459.5781 345.0859,459.5781 Q344.8984,459.5781 344.7813,459.4531 Q344.6641,459.3203 344.6641,459.0156 L344.6641,458.5703 L342.6797,458.5703 L342.6797,459.7969 L343.4219,459.7969 Q343.4219,459.4688 343.4844,459.375 Q343.6172,459.1719 343.8516,459.1719 Q344.0391,459.1719 344.1563,459.3047 Q344.2734,459.4297 344.2734,459.7344 L344.2734,460.7188 Q344.2734,460.9922 344.2109,461.0859 Q344.0781,461.2813 343.8516,461.2813 Q343.6172,461.2813 343.4844,461.0781 Q343.4219,460.9844 343.4219,460.6484 L342.6797,460.6484 Z " fill="#000000"/><text fill="#000000" font-family="sans-serif" font-size="7" lengthAdjust="spacing" textLength="44.5" x="350.25" y="463.1484">AgendaStatus</text><line style="stroke:#181818;stroke-width:0.25;" x1="336.25" x2="395.75" y1="468.25" y2="468.25"/><text fill="#000000" font-family="sans-serif" font-size="7" lengthAdjust="spacing" textLength="31.5" x="338.75" y="477.8037">PLANNED</text><text fill="#000000" font-family="sans-serif" font-size="7" lengthAdjust="spacing" textLength="43" x="338.75" y="487.1143">POSTPONED</text><text fill="#000000" font-family="sans-serif" font-size="7" lengthAdjust="spacing" textLength="37" x="338.75" y="496.4248">CANCELED</text><text fill="#000000" font-family="sans-serif" font-size="7" lengthAdjust="spacing" textLength="19.5" x="338.75" y="505.7354">DONE</text><line style="stroke:#181818;stroke-width:0.25;" x1="336.25" x2="395.75" y1="509.4922" y2="509.4922"/></g><!--class TaskStatus--><g id="elem_TaskStatus"><rect codeLine="64" fill="#F1F1F1" height="42.6211" id="TaskStatus" rx="1.25" ry="1.25" style="stroke:#181818;stroke-width:0.25;" width="51.5" x="117.25" y="562.5"/><ellipse cx="124.75" cy="570.5" fill="#EB937F" rx="5.5" ry="5.5" style="stroke:#181818;stroke-width:0.5;"/><path d="M124.1797,570.8984 L124.1797,572.1484 L126.3438,572.1484 L126.3438,571.6875 Q126.3438,571.3828 126.4609,571.25 Q126.5859,571.1172 126.7734,571.1172 Q126.9609,571.1172 127.0781,571.25 Q127.1953,571.3828 127.1953,571.6875 L127.1953,573 L123.1953,573 Q122.8828,573 122.75,572.8828 Q122.625,572.7656 122.625,572.5703 Q122.625,572.3828 122.7578,572.2656 Q122.8906,572.1484 123.1953,572.1484 L123.3281,572.1484 L123.3281,568.8203 L123.1953,568.8203 Q122.8828,568.8203 122.75,568.7031 Q122.625,568.5859 122.625,568.3906 Q122.625,568.2031 122.75,568.0859 Q122.8828,567.9688 123.1953,567.9688 L127.0078,567.9688 L127.0078,569.2656 Q127.0078,569.5703 126.8906,569.7031 Q126.7813,569.8281 126.5859,569.8281 Q126.3984,569.8281 126.2813,569.7031 Q126.1641,569.5703 126.1641,569.2656 L126.1641,568.8203 L124.1797,568.8203 L124.1797,570.0469 L124.9219,570.0469 Q124.9219,569.7188 124.9844,569.625 Q125.1172,569.4219 125.3516,569.4219 Q125.5391,569.4219 125.6563,569.5547 Q125.7734,569.6797 125.7734,569.9844 L125.7734,570.9688 Q125.7734,571.2422 125.7109,571.3359 Q125.5781,571.5313 125.3516,571.5313 Q125.1172,571.5313 124.9844,571.3281 Q124.9219,571.2344 124.9219,570.8984 L124.1797,570.8984 Z " fill="#000000"/><text fill="#000000" font-family="sans-serif" font-size="7" lengthAdjust="spacing" textLength="35.5" x="131.75" y="573.3984">TaskStatus</text><line style="stroke:#181818;stroke-width:0.25;" x1="117.75" x2="168.25" y1="578.5" y2="578.5"/><text fill="#000000" font-family="sans-serif" font-size="7" lengthAdjust="spacing" textLength="30" x="120.25" y="588.0537">PENDING</text><text fill="#000000" font-family="sans-serif" font-size="7" lengthAdjust="spacing" textLength="43" x="120.25" y="597.3643">PROCESSED</text><line style="stroke:#181818;stroke-width:0.25;" x1="117.75" x2="168.25" y1="601.1211" y2="601.1211"/></g><!--class AuthenticationRepository--><g id="elem_AuthenticationRepository"><rect codeLine="69" fill="#F1F1F1" height="33.3105" id="AuthenticationRepository" rx="1.25" ry="1.25" style="stroke:#181818;stroke-width:0.25;" width="95" x="410.5" y="282.75"/><ellipse cx="418" cy="290.75" fill="#ADD1B2" rx="5.5" ry="5.5" style="stroke:#181818;stroke-width:0.5;"/><path d="M419.3828,288.6875 Q419.4609,288.5781 419.5547,288.5234 Q419.6484,288.4688 419.7578,288.4688 Q419.9453,288.4688 420.0625,288.6016 Q420.1797,288.7266 420.1797,289.0313 L420.1797,289.7578 Q420.1797,290.0625 420.0625,290.1953 Q419.9453,290.3281 419.7578,290.3281 Q419.5859,290.3281 419.4844,290.2266 Q419.3828,290.1328 419.3281,289.875 Q419.3047,289.6953 419.2109,289.6016 Q419.0469,289.4141 418.7422,289.3047 Q418.4375,289.1953 418.125,289.1953 Q417.7422,289.1953 417.4219,289.3594 Q417.1094,289.5234 416.8594,289.8984 Q416.6172,290.2734 416.6172,290.7891 L416.6172,291.3359 Q416.6172,291.9531 417.0625,292.3672 Q417.5078,292.7734 418.3047,292.7734 Q418.7734,292.7734 419.1016,292.6484 Q419.2969,292.5703 419.5078,292.3516 Q419.6406,292.2188 419.7109,292.1797 Q419.7891,292.1406 419.8906,292.1406 Q420.0547,292.1406 420.1797,292.2734 Q420.3125,292.3984 420.3125,292.5703 Q420.3125,292.7422 420.1406,292.9453 Q419.8906,293.2344 419.4922,293.3984 Q418.9531,293.625 418.3047,293.625 Q417.5469,293.625 416.9453,293.3125 Q416.4531,293.0625 416.1094,292.5313 Q415.7656,291.9922 415.7656,291.3516 L415.7656,290.7734 Q415.7656,290.1094 416.0703,289.5391 Q416.3828,288.9609 416.9297,288.6563 Q417.4766,288.3438 418.0938,288.3438 Q418.4609,288.3438 418.7813,288.4297 Q419.1094,288.5078 419.3828,288.6875 Z " fill="#000000"/><text fill="#000000" font-family="sans-serif" font-size="7" lengthAdjust="spacing" textLength="79" x="425" y="293.6484">AuthenticationRepository</text><line style="stroke:#181818;stroke-width:0.25;" x1="411" x2="505" y1="298.75" y2="298.75"/><line style="stroke:#181818;stroke-width:0.25;" x1="411" x2="505" y1="302.75" y2="302.75"/><text fill="#000000" font-family="sans-serif" font-size="7" lengthAdjust="spacing" textLength="82.5" x="413.5" y="312.3037">+getCurrentUserSession()</text></g><!--class GreenSpaceManager--><g id="elem_GreenSpaceManager"><rect codeLine="73" fill="#F1F1F1" height="42.6211" id="GreenSpaceManager" rx="1.25" ry="1.25" style="stroke:#181818;stroke-width:0.25;" width="99.5" x="222.75" y="562.5"/><ellipse cx="237.225" cy="570.5" fill="#ADD1B2" rx="5.5" ry="5.5" style="stroke:#181818;stroke-width:0.5;"/><path d="M238.6078,568.4375 Q238.6859,568.3281 238.7797,568.2734 Q238.8734,568.2188 238.9828,568.2188 Q239.1703,568.2188 239.2875,568.3516 Q239.4047,568.4766 239.4047,568.7813 L239.4047,569.5078 Q239.4047,569.8125 239.2875,569.9453 Q239.1703,570.0781 238.9828,570.0781 Q238.8109,570.0781 238.7094,569.9766 Q238.6078,569.8828 238.5531,569.625 Q238.5297,569.4453 238.4359,569.3516 Q238.2719,569.1641 237.9672,569.0547 Q237.6625,568.9453 237.35,568.9453 Q236.9672,568.9453 236.6469,569.1094 Q236.3344,569.2734 236.0844,569.6484 Q235.8422,570.0234 235.8422,570.5391 L235.8422,571.0859 Q235.8422,571.7031 236.2875,572.1172 Q236.7328,572.5234 237.5297,572.5234 Q237.9984,572.5234 238.3266,572.3984 Q238.5219,572.3203 238.7328,572.1016 Q238.8656,571.9688 238.9359,571.9297 Q239.0141,571.8906 239.1156,571.8906 Q239.2797,571.8906 239.4047,572.0234 Q239.5375,572.1484 239.5375,572.3203 Q239.5375,572.4922 239.3656,572.6953 Q239.1156,572.9844 238.7172,573.1484 Q238.1781,573.375 237.5297,573.375 Q236.7719,573.375 236.1703,573.0625 Q235.6781,572.8125 235.3344,572.2813 Q234.9906,571.7422 234.9906,571.1016 L234.9906,570.5234 Q234.9906,569.8594 235.2953,569.2891 Q235.6078,568.7109 236.1547,568.4063 Q236.7016,568.0938 237.3188,568.0938 Q237.6859,568.0938 238.0063,568.1797 Q238.3344,568.2578 238.6078,568.4375 Z " fill="#000000"/><text fill="#000000" font-family="sans-serif" font-size="7" lengthAdjust="spacing" textLength="68" x="245.775" y="573.3984">GreenSpaceManager</text><line style="stroke:#181818;stroke-width:0.25;" x1="223.25" x2="321.75" y1="578.5" y2="578.5"/><text fill="#000000" font-family="sans-serif" font-size="7" lengthAdjust="spacing" textLength="39.5" x="225.75" y="588.0537">-String email</text><line style="stroke:#181818;stroke-width:0.25;" x1="223.25" x2="321.75" y1="591.8105" y2="591.8105"/><text fill="#000000" font-family="sans-serif" font-size="7" lengthAdjust="spacing" textLength="93.5" x="225.75" y="601.3643">+GreenSpaceManager(email)</text></g><!--link AddEntryAgendaUI to AddEntryAgendaController--><g id="link_AddEntryAgendaUI_AddEntryAgendaController"><path codeLine="78" d="M278.5,27.655 C278.5,35.75 278.5,43.99 278.5,54.855 " fill="none" id="AddEntryAgendaUI-to-AddEntryAgendaController" style="stroke:#181818;stroke-width:0.5;stroke-dasharray:7.0,7.0;"/><polygon fill="#181818" points="278.5,57.855,280.5,53.355,278.5,55.355,276.5,53.355,278.5,57.855" style="stroke:#181818;stroke-width:0.5;"/></g><!--link AddEntryAgendaController to Repositories--><g id="link_AddEntryAgendaController_Repositories"><path codeLine="79" d="M293.18,128.54 C298.49,141.125 303.3242,152.5658 308.6342,165.1558 " fill="none" id="AddEntryAgendaController-to-Repositories" style="stroke:#181818;stroke-width:0.5;stroke-dasharray:7.0,7.0;"/><polygon fill="#181818" points="309.8,167.92,309.894,162.9965,308.8285,165.6165,306.2084,164.5509,309.8,167.92" style="stroke:#181818;stroke-width:0.5;"/><text fill="#000000" font-family="sans-serif" font-size="6.5" lengthAdjust="spacing" textLength="33.5" x="303.5" y="151.0142">repositories</text></g><!--link AddEntryAgendaController to Agenda--><g id="link_AddEntryAgendaController_Agenda"><path codeLine="80" d="M261.085,128.7 C251.485,147.96 241.5,168 241.5,168 C241.5,168 241.5,238.5 241.5,238.5 C241.5,238.5 254.6237,251.6237 269.8037,266.8037 " fill="none" id="AddEntryAgendaController-to-Agenda" style="stroke:#181818;stroke-width:0.5;stroke-dasharray:7.0,7.0;"/><polygon fill="#181818" points="271.925,268.925,270.1572,264.3288,270.1572,267.1572,267.3288,267.1572,271.925,268.925" style="stroke:#181818;stroke-width:0.5;"/><text fill="#000000" font-family="sans-serif" font-size="6.5" lengthAdjust="spacing" textLength="21" x="242" y="206.0142">agenda</text></g><!--link AddEntryAgendaController to ToDoList--><g id="link_AddEntryAgendaController_ToDoList"><path codeLine="81" d="M247.435,128.7 C230.315,147.96 212.5,168 212.5,168 C212.5,168 177.3089,244.8273 161.2289,279.9473 " fill="none" id="AddEntryAgendaController-to-ToDoList" style="stroke:#181818;stroke-width:0.5;stroke-dasharray:7.0,7.0;"/><polygon fill="#181818" points="159.98,282.675,163.6718,279.4161,161.0207,280.4019,160.0349,277.7509,159.98,282.675" style="stroke:#181818;stroke-width:0.5;"/><text fill="#000000" font-family="sans-serif" font-size="6.5" lengthAdjust="spacing" textLength="24" x="213" y="206.0142">toDoList</text></g><!--link AddEntryAgendaController to AuthenticationRepository--><g id="link_AddEntryAgendaController_AuthenticationRepository"><path codeLine="82" d="M347.245,128.59 C385.31,147.885 425,168 425,168 C425,168 444.3073,244.6458 453.1523,279.7658 " fill="none" id="AddEntryAgendaController-to-AuthenticationRepository" style="stroke:#181818;stroke-width:0.5;stroke-dasharray:7.0,7.0;"/><polygon fill="#181818" points="453.885,282.675,454.7254,277.8228,453.2744,280.2507,450.8466,278.7997,453.885,282.675" style="stroke:#181818;stroke-width:0.5;"/><text fill="#000000" font-family="sans-serif" font-size="6.5" lengthAdjust="spacing" textLength="40.5" x="443" y="206.0142">authentication</text></g><!--link Repositories to Repositories--><g id="link_Repositories_Repositories"><path codeLine="83" d="M376.63,194.29 C386.79,195.33 394,198.32 394,203.25 C394,208.18 389.7744,210.8645 379.6144,211.9045 " fill="none" id="Repositories-to-Repositories" style="stroke:#181818;stroke-width:0.5;"/><polygon fill="#181818" points="376.63,212.21,381.3103,213.7414,379.117,211.9554,380.9029,209.7622,376.63,212.21" style="stroke:#181818;stroke-width:0.5;"/><text fill="#000000" font-family="sans-serif" font-size="6.5" lengthAdjust="spacing" textLength="24.5" x="397" y="206.0142">instance</text></g><!--link Repositories to Agenda--><g id="link_Repositories_Agenda"><path codeLine="84" d="M316.28,238.54 C313.935,248.48 312.0844,256.3053 309.8094,265.9403 " fill="none" id="Repositories-to-Agenda" style="stroke:#181818;stroke-width:0.5;"/><polygon fill="#181818" points="309.12,268.86,312.1006,264.94,309.6945,266.4269,308.2076,264.0208,309.12,268.86" style="stroke:#181818;stroke-width:0.5;"/><text fill="#000000" font-family="sans-serif" font-size="6.5" lengthAdjust="spacing" textLength="3.5" x="306.2409" y="263.3344">1</text></g><!--link Repositories to ToDoList--><g id="link_Repositories_ToDoList"><path codeLine="85" d="M272.37,231.515 C239.03,249.275 202,269 202,269 C202,269 193.6002,274.0895 181.9902,281.1295 " fill="none" id="Repositories-to-ToDoList" style="stroke:#181818;stroke-width:0.5;"/><polygon fill="#181818" points="179.425,282.685,184.3099,282.0619,181.5627,281.3888,182.2359,278.6416,179.425,282.685" style="stroke:#181818;stroke-width:0.5;"/><text fill="#000000" font-family="sans-serif" font-size="6.5" lengthAdjust="spacing" textLength="3.5" x="180.8813" y="277.085">1</text></g><!--link Repositories to AuthenticationRepository--><g id="link_Repositories_AuthenticationRepository"><path codeLine="86" d="M373.265,238.54 C394.415,253.635 415.7329,268.8425 432.6979,280.9475 " fill="none" id="Repositories-to-AuthenticationRepository" style="stroke:#181818;stroke-width:0.5;"/><polygon fill="#181818" points="435.14,282.69,432.6385,278.4482,433.1049,281.2379,430.3152,281.7043,435.14,282.69" style="stroke:#181818;stroke-width:0.5;"/><text fill="#000000" font-family="sans-serif" font-size="6.5" lengthAdjust="spacing" textLength="3.5" x="426.7949" y="277.0909">1</text></g><!--link Agenda to Entry--><g id="link_Agenda_Entry"><path codeLine="87" d="M304.215,330.025 C304.965,340.15 305.5584,348.2282 306.2434,357.4782 " fill="none" id="Agenda-to-Entry" style="stroke:#181818;stroke-width:0.5;"/><polygon fill="#181818" points="306.465,360.47,308.1272,355.8346,306.2804,357.9768,304.1381,356.13,306.465,360.47" style="stroke:#181818;stroke-width:0.5;"/><text fill="#000000" font-family="sans-serif" font-size="6.5" lengthAdjust="spacing" textLength="2.5" x="303.5211" y="354.9173">*</text></g><!--link ToDoList to Task--><g id="link_ToDoList_Task"><path codeLine="88" d="M151.65,316.335 C150.29,342.415 147.731,391.4841 145.706,430.3691 " fill="none" id="ToDoList-to-Task" style="stroke:#181818;stroke-width:0.5;"/><polygon fill="#181818" points="145.55,433.365,147.7813,428.9751,145.68,430.8684,143.7867,428.7671,145.55,433.365" style="stroke:#181818;stroke-width:0.5;"/><text fill="#000000" font-family="sans-serif" font-size="6.5" lengthAdjust="spacing" textLength="2.5" x="143.1455" y="427.9463">*</text></g><!--link Entry to Task--><g id="link_Entry_Task"><path codeLine="89" d="M273.61,403.09 C258.97,411.965 243.7906,421.1651 226.1606,431.8501 " fill="none" id="Entry-to-Task" style="stroke:#181818;stroke-width:0.5;"/><polygon fill="#181818" points="223.595,433.405,228.48,432.783,225.733,432.1092,226.4068,429.3622,223.595,433.405" style="stroke:#181818;stroke-width:0.5;"/><text fill="#000000" font-family="sans-serif" font-size="6.5" lengthAdjust="spacing" textLength="3.5" x="226.1316" y="427.822">1</text></g><!--link Entry to AgendaStatus--><g id="link_Entry_AgendaStatus"><path codeLine="90" d="M320.16,403.215 C328.395,417.415 337.9051,433.8098 347.0701,449.6148 " fill="none" id="Entry-to-AgendaStatus" style="stroke:#181818;stroke-width:0.5;"/><polygon fill="#181818" points="348.575,452.21,348.0478,447.3139,347.3209,450.0473,344.5875,449.3204,348.575,452.21" style="stroke:#181818;stroke-width:0.5;"/><text fill="#000000" font-family="sans-serif" font-size="6.5" lengthAdjust="spacing" textLength="3.5" x="342.8579" y="446.696">1</text></g><!--link Task to TaskStatus--><g id="link_Task_TaskStatus"><path codeLine="91" d="M143,532.08 C143,542.785 143,550.57 143,559.455 " fill="none" id="Task-to-TaskStatus" style="stroke:#181818;stroke-width:0.5;"/><polygon fill="#181818" points="143,562.455,145,557.955,143,559.955,141,557.955,143,562.455" style="stroke:#181818;stroke-width:0.5;"/><text fill="#000000" font-family="sans-serif" font-size="6.5" lengthAdjust="spacing" textLength="3.5" x="139.2211" y="556.8999">1</text></g><!--link Entry to GreenSpaceManager--><g id="link_Entry_GreenSpaceManager"><path codeLine="92" d="M305.635,403.07 C300.965,444.22 291,532 291,532 C291,532 286.1632,545.3931 281.0432,559.5831 " fill="none" id="Entry-to-GreenSpaceManager" style="stroke:#181818;stroke-width:0.5;"/><polygon fill="#181818" points="280.025,562.405,283.4336,558.8509,280.8735,560.0534,279.671,557.4933,280.025,562.405" style="stroke:#181818;stroke-width:0.5;"/><text fill="#000000" font-family="sans-serif" font-size="6.5" lengthAdjust="spacing" textLength="3.5" x="277.4454" y="556.8419">1</text></g><!--link Task to GreenSpaceManager--><g id="link_Task_GreenSpaceManager"><path codeLine="93" d="M206.235,532.08 C220.1,542.785 231.6852,551.7368 243.1952,560.6218 " fill="none" id="Task-to-GreenSpaceManager" style="stroke:#181818;stroke-width:0.5;"/><polygon fill="#181818" points="245.57,562.455,243.23,558.1221,243.591,560.9274,240.7857,561.2884,245.57,562.455" style="stroke:#181818;stroke-width:0.5;"/><text fill="#000000" font-family="sans-serif" font-size="6.5" lengthAdjust="spacing" textLength="3.5" x="237.4991" y="556.8999">1</text></g><!--SRC=[XLJ1Rjim3BthAuHUwcvEiLrp6935MH6WJOev_G3DPXoXjcH8obPlsB-FicHRZkCkbyZaUoH5Fl5Mlt9HCyKgMaaXivEI5L2Zpa06JysoLrP0QfeIg8BCC56K8K2VM2v_SL7G8ojrw2cv0DFKG6jPDlQ3t5vnIcKa2LXPoRHU6QFuZxE1RIP5ody3_KJ8RGb7GusaYXSdGtDko-5I4D9ow2hFDyAePbM0oDdBbluXVw_xrXBFiYn18ORYx-ESFsAj8SQqYNpasiIKdSq9XE4Piyc_GoqrDr8rTouI6qMAj67AO7SIPY2cNEJmve2B0io1wTUlpTOQemlNG_hq3UUHWjQO9VB1FKVRIj0sNAzDrbtctH8CycDQw2e8xzDsl6ZiZIbOgmVzP2NFCP93NlEyQEpRJ8Y-ufRk2rxOocXOfhk7Ip4jFmXpy6FfhdwzgGCSVLtI52M6gZNSb32ovA0pnUjMMgrzKu72LcPD0eK2G83zsnzVdDM1k30KtcgK9EJ9MR61RfCUhDIjtftf0VaYnRS5jEYFxWOM7IauWiBOUE6WclWoSpp96BT9uY2gLqvsmeUBpvYPixOjnR-WBxsAEMZVdf6jqn_5_cu5qh6qw8ukHw01ueKNaBevXRRLp4DomWPnhhokNTL-Ri-FgzrkaxZpFZqyxxklzMgttZpwZmJDVHZRqt6GpIxPxXxS-Vj-lKbJv0tFQQQoG6Nhiy816QlruOts0ORvFZ61AqHTY0ugnaiNQmADMcSRRBBHxk-_pAuoChlZB2iSr18NUJ2sTtdEkAHk3xwFxOQyxBVbVsBFj7bviMD9M3nTB2vlmxqYfxYRppV-1jTzNSKpp9dwY5-tBUx3ZTjbf5z5dTcgZhWzr-URcaA9atO_XM1l7rCcaXdpfkv_]--></g></svg>