<?xml version="1.0" encoding="us-ascii" standalone="no"?><svg xmlns="http://www.w3.org/2000/svg" xmlns:xlink="http://www.w3.org/1999/xlink" contentStyleType="text/css" height="552.5px" preserveAspectRatio="none" style="width:328px;height:552px;background:#FFFFFF;" version="1.1" viewBox="0 0 328 552" width="328px" zoomAndPan="magnify"><defs/><g><!--class AddEntryAgendaUI--><g id="elem_AddEntryAgendaUI"><rect codeLine="11" fill="#F1F1F1" height="24" id="AddEntryAgendaUI" rx="1.25" ry="1.25" style="stroke:#181818;stroke-width:0.25;" width="75.5" x="80" y="3.5"/><ellipse cx="87.5" cy="11.5" fill="#ADD1B2" rx="5.5" ry="5.5" style="stroke:#181818;stroke-width:0.5;"/><path d="M88.8828,9.4375 Q88.9609,9.3281 89.0547,9.2734 Q89.1484,9.2188 89.2578,9.2188 Q89.4453,9.2188 89.5625,9.3516 Q89.6797,9.4766 89.6797,9.7813 L89.6797,10.5078 Q89.6797,10.8125 89.5625,10.9453 Q89.4453,11.0781 89.2578,11.0781 Q89.0859,11.0781 88.9844,10.9766 Q88.8828,10.8828 88.8281,10.625 Q88.8047,10.4453 88.7109,10.3516 Q88.5469,10.1641 88.2422,10.0547 Q87.9375,9.9453 87.625,9.9453 Q87.2422,9.9453 86.9219,10.1094 Q86.6094,10.2734 86.3594,10.6484 Q86.1172,11.0234 86.1172,11.5391 L86.1172,12.0859 Q86.1172,12.7031 86.5625,13.1172 Q87.0078,13.5234 87.8047,13.5234 Q88.2734,13.5234 88.6016,13.3984 Q88.7969,13.3203 89.0078,13.1016 Q89.1406,12.9688 89.2109,12.9297 Q89.2891,12.8906 89.3906,12.8906 Q89.5547,12.8906 89.6797,13.0234 Q89.8125,13.1484 89.8125,13.3203 Q89.8125,13.4922 89.6406,13.6953 Q89.3906,13.9844 88.9922,14.1484 Q88.4531,14.375 87.8047,14.375 Q87.0469,14.375 86.4453,14.0625 Q85.9531,13.8125 85.6094,13.2813 Q85.2656,12.7422 85.2656,12.1016 L85.2656,11.5234 Q85.2656,10.8594 85.5703,10.2891 Q85.8828,9.7109 86.4297,9.4063 Q86.9766,9.0938 87.5938,9.0938 Q87.9609,9.0938 88.2813,9.1797 Q88.6094,9.2578 88.8828,9.4375 Z " fill="#000000"/><text fill="#000000" font-family="sans-serif" font-size="7" lengthAdjust="spacing" textLength="59.5" x="94.5" y="14.3984">AddEntryAgendaUI</text><line style="stroke:#181818;stroke-width:0.25;" x1="80.5" x2="155" y1="19.5" y2="19.5"/><line style="stroke:#181818;stroke-width:0.25;" x1="80.5" x2="155" y1="23.5" y2="23.5"/></g><!--class AddEntryAgendaController--><g id="elem_AddEntryAgendaController"><rect codeLine="14" fill="#F1F1F1" height="61.2422" id="AddEntryAgendaController" rx="1.25" ry="1.25" style="stroke:#181818;stroke-width:0.25;" width="156.5" x="39.5" y="58"/><ellipse cx="73.375" cy="66" fill="#ADD1B2" rx="5.5" ry="5.5" style="stroke:#181818;stroke-width:0.5;"/><path d="M74.7578,63.9375 Q74.8359,63.8281 74.9297,63.7734 Q75.0234,63.7188 75.1328,63.7188 Q75.3203,63.7188 75.4375,63.8516 Q75.5547,63.9766 75.5547,64.2813 L75.5547,65.0078 Q75.5547,65.3125 75.4375,65.4453 Q75.3203,65.5781 75.1328,65.5781 Q74.9609,65.5781 74.8594,65.4766 Q74.7578,65.3828 74.7031,65.125 Q74.6797,64.9453 74.5859,64.8516 Q74.4219,64.6641 74.1172,64.5547 Q73.8125,64.4453 73.5,64.4453 Q73.1172,64.4453 72.7969,64.6094 Q72.4844,64.7734 72.2344,65.1484 Q71.9922,65.5234 71.9922,66.0391 L71.9922,66.5859 Q71.9922,67.2031 72.4375,67.6172 Q72.8828,68.0234 73.6797,68.0234 Q74.1484,68.0234 74.4766,67.8984 Q74.6719,67.8203 74.8828,67.6016 Q75.0156,67.4688 75.0859,67.4297 Q75.1641,67.3906 75.2656,67.3906 Q75.4297,67.3906 75.5547,67.5234 Q75.6875,67.6484 75.6875,67.8203 Q75.6875,67.9922 75.5156,68.1953 Q75.2656,68.4844 74.8672,68.6484 Q74.3281,68.875 73.6797,68.875 Q72.9219,68.875 72.3203,68.5625 Q71.8281,68.3125 71.4844,67.7813 Q71.1406,67.2422 71.1406,66.6016 L71.1406,66.0234 Q71.1406,65.3594 71.4453,64.7891 Q71.7578,64.2109 72.3047,63.9063 Q72.8516,63.5938 73.4688,63.5938 Q73.8359,63.5938 74.1563,63.6797 Q74.4844,63.7578 74.7578,63.9375 Z " fill="#000000"/><text fill="#000000" font-family="sans-serif" font-size="7" lengthAdjust="spacing" textLength="84.5" x="83.625" y="68.8984">AddEntryAgendaController</text><line style="stroke:#181818;stroke-width:0.25;" x1="40" x2="195.5" y1="74" y2="74"/><line style="stroke:#181818;stroke-width:0.25;" x1="40" x2="195.5" y1="78" y2="78"/><text fill="#000000" font-family="sans-serif" font-size="7" lengthAdjust="spacing" textLength="147.5" x="42.5" y="87.5537">+AddEntryAgendaController(agenda, toDoList)</text><text fill="#000000" font-family="sans-serif" font-size="7" lengthAdjust="spacing" textLength="150.5" x="42.5" y="96.8643">+addEntryAgenda(startingDate, taskReference)</text><text fill="#000000" font-family="sans-serif" font-size="7" lengthAdjust="spacing" textLength="120" x="42.5" y="106.1748">-getTaskByReference(taskReference)</text><text fill="#000000" font-family="sans-serif" font-size="7" lengthAdjust="spacing" textLength="49" x="42.5" y="115.4854">+getTasksList()</text></g><!--class Agenda--><g id="elem_Agenda"><rect codeLine="21" fill="#F1F1F1" height="51.9316" id="Agenda" rx="1.25" ry="1.25" style="stroke:#181818;stroke-width:0.25;" width="123.5" x="3.5" y="250"/><ellipse cx="50.875" cy="258" fill="#ADD1B2" rx="5.5" ry="5.5" style="stroke:#181818;stroke-width:0.5;"/><path d="M52.2578,255.9375 Q52.3359,255.8281 52.4297,255.7734 Q52.5234,255.7188 52.6328,255.7188 Q52.8203,255.7188 52.9375,255.8516 Q53.0547,255.9766 53.0547,256.2813 L53.0547,257.0078 Q53.0547,257.3125 52.9375,257.4453 Q52.8203,257.5781 52.6328,257.5781 Q52.4609,257.5781 52.3594,257.4766 Q52.2578,257.3828 52.2031,257.125 Q52.1797,256.9453 52.0859,256.8516 Q51.9219,256.6641 51.6172,256.5547 Q51.3125,256.4453 51,256.4453 Q50.6172,256.4453 50.2969,256.6094 Q49.9844,256.7734 49.7344,257.1484 Q49.4922,257.5234 49.4922,258.0391 L49.4922,258.5859 Q49.4922,259.2031 49.9375,259.6172 Q50.3828,260.0234 51.1797,260.0234 Q51.6484,260.0234 51.9766,259.8984 Q52.1719,259.8203 52.3828,259.6016 Q52.5156,259.4688 52.5859,259.4297 Q52.6641,259.3906 52.7656,259.3906 Q52.9297,259.3906 53.0547,259.5234 Q53.1875,259.6484 53.1875,259.8203 Q53.1875,259.9922 53.0156,260.1953 Q52.7656,260.4844 52.3672,260.6484 Q51.8281,260.875 51.1797,260.875 Q50.4219,260.875 49.8203,260.5625 Q49.3281,260.3125 48.9844,259.7813 Q48.6406,259.2422 48.6406,258.6016 L48.6406,258.0234 Q48.6406,257.3594 48.9453,256.7891 Q49.2578,256.2109 49.8047,255.9063 Q50.3516,255.5938 50.9688,255.5938 Q51.3359,255.5938 51.6563,255.6797 Q51.9844,255.7578 52.2578,255.9375 Z " fill="#000000"/><text fill="#000000" font-family="sans-serif" font-size="7" lengthAdjust="spacing" textLength="24.5" x="61.125" y="260.8984">Agenda</text><line style="stroke:#181818;stroke-width:0.25;" x1="4" x2="126.5" y1="266" y2="266"/><line style="stroke:#181818;stroke-width:0.25;" x1="4" x2="126.5" y1="270" y2="270"/><text fill="#000000" font-family="sans-serif" font-size="7" lengthAdjust="spacing" textLength="52" x="6.5" y="279.5537">-addEntry(entry)</text><text fill="#000000" font-family="sans-serif" font-size="7" lengthAdjust="spacing" textLength="64.5" x="6.5" y="288.8643">-validateEntry(entry)</text><text fill="#000000" font-family="sans-serif" font-size="7" lengthAdjust="spacing" textLength="117.5" x="6.5" y="298.1748">+addEntryAgenda(startingDate, task)</text></g><!--class Entry--><g id="elem_Entry"><rect codeLine="27" fill="#F1F1F1" height="42.6211" id="Entry" rx="1.25" ry="1.25" style="stroke:#181818;stroke-width:0.25;" width="87" x="21.75" y="332.5"/><ellipse cx="54.875" cy="340.5" fill="#ADD1B2" rx="5.5" ry="5.5" style="stroke:#181818;stroke-width:0.5;"/><path d="M56.2578,338.4375 Q56.3359,338.3281 56.4297,338.2734 Q56.5234,338.2188 56.6328,338.2188 Q56.8203,338.2188 56.9375,338.3516 Q57.0547,338.4766 57.0547,338.7813 L57.0547,339.5078 Q57.0547,339.8125 56.9375,339.9453 Q56.8203,340.0781 56.6328,340.0781 Q56.4609,340.0781 56.3594,339.9766 Q56.2578,339.8828 56.2031,339.625 Q56.1797,339.4453 56.0859,339.3516 Q55.9219,339.1641 55.6172,339.0547 Q55.3125,338.9453 55,338.9453 Q54.6172,338.9453 54.2969,339.1094 Q53.9844,339.2734 53.7344,339.6484 Q53.4922,340.0234 53.4922,340.5391 L53.4922,341.0859 Q53.4922,341.7031 53.9375,342.1172 Q54.3828,342.5234 55.1797,342.5234 Q55.6484,342.5234 55.9766,342.3984 Q56.1719,342.3203 56.3828,342.1016 Q56.5156,341.9688 56.5859,341.9297 Q56.6641,341.8906 56.7656,341.8906 Q56.9297,341.8906 57.0547,342.0234 Q57.1875,342.1484 57.1875,342.3203 Q57.1875,342.4922 57.0156,342.6953 Q56.7656,342.9844 56.3672,343.1484 Q55.8281,343.375 55.1797,343.375 Q54.4219,343.375 53.8203,343.0625 Q53.3281,342.8125 52.9844,342.2813 Q52.6406,341.7422 52.6406,341.1016 L52.6406,340.5234 Q52.6406,339.8594 52.9453,339.2891 Q53.2578,338.7109 53.8047,338.4063 Q54.3516,338.0938 54.9688,338.0938 Q55.3359,338.0938 55.6563,338.1797 Q55.9844,338.2578 56.2578,338.4375 Z " fill="#000000"/><text fill="#000000" font-family="sans-serif" font-size="7" lengthAdjust="spacing" textLength="16.5" x="65.125" y="343.3984">Entry</text><line style="stroke:#181818;stroke-width:0.25;" x1="22.25" x2="108.25" y1="348.5" y2="348.5"/><text fill="#000000" font-family="sans-serif" font-size="7" lengthAdjust="spacing" textLength="58" x="24.75" y="358.0537">-Date startingDate</text><line style="stroke:#181818;stroke-width:0.25;" x1="22.25" x2="108.25" y1="361.8105" y2="361.8105"/><text fill="#000000" font-family="sans-serif" font-size="7" lengthAdjust="spacing" textLength="81" x="24.75" y="371.3643">+Entry(startingDate, task)</text></g><!--class ToDoList--><g id="elem_ToDoList"><rect codeLine="32" fill="#F1F1F1" height="33.3105" id="ToDoList" rx="1.25" ry="1.25" style="stroke:#181818;stroke-width:0.25;" width="127.5" x="151.5" y="259.25"/><ellipse cx="198.875" cy="267.25" fill="#ADD1B2" rx="5.5" ry="5.5" style="stroke:#181818;stroke-width:0.5;"/><path d="M200.2578,265.1875 Q200.3359,265.0781 200.4297,265.0234 Q200.5234,264.9688 200.6328,264.9688 Q200.8203,264.9688 200.9375,265.1016 Q201.0547,265.2266 201.0547,265.5313 L201.0547,266.2578 Q201.0547,266.5625 200.9375,266.6953 Q200.8203,266.8281 200.6328,266.8281 Q200.4609,266.8281 200.3594,266.7266 Q200.2578,266.6328 200.2031,266.375 Q200.1797,266.1953 200.0859,266.1016 Q199.9219,265.9141 199.6172,265.8047 Q199.3125,265.6953 199,265.6953 Q198.6172,265.6953 198.2969,265.8594 Q197.9844,266.0234 197.7344,266.3984 Q197.4922,266.7734 197.4922,267.2891 L197.4922,267.8359 Q197.4922,268.4531 197.9375,268.8672 Q198.3828,269.2734 199.1797,269.2734 Q199.6484,269.2734 199.9766,269.1484 Q200.1719,269.0703 200.3828,268.8516 Q200.5156,268.7188 200.5859,268.6797 Q200.6641,268.6406 200.7656,268.6406 Q200.9297,268.6406 201.0547,268.7734 Q201.1875,268.8984 201.1875,269.0703 Q201.1875,269.2422 201.0156,269.4453 Q200.7656,269.7344 200.3672,269.8984 Q199.8281,270.125 199.1797,270.125 Q198.4219,270.125 197.8203,269.8125 Q197.3281,269.5625 196.9844,269.0313 Q196.6406,268.4922 196.6406,267.8516 L196.6406,267.2734 Q196.6406,266.6094 196.9453,266.0391 Q197.2578,265.4609 197.8047,265.1563 Q198.3516,264.8438 198.9688,264.8438 Q199.3359,264.8438 199.6563,264.9297 Q199.9844,265.0078 200.2578,265.1875 Z " fill="#000000"/><text fill="#000000" font-family="sans-serif" font-size="7" lengthAdjust="spacing" textLength="28.5" x="209.125" y="270.1484">ToDoList</text><line style="stroke:#181818;stroke-width:0.25;" x1="152" x2="278.5" y1="275.25" y2="275.25"/><line style="stroke:#181818;stroke-width:0.25;" x1="152" x2="278.5" y1="279.25" y2="279.25"/><text fill="#000000" font-family="sans-serif" font-size="7" lengthAdjust="spacing" textLength="121.5" x="154.5" y="288.8037">+getTaskByReference(taskReference)</text></g><!--class Task--><g id="elem_Task"><rect codeLine="36" fill="#F1F1F1" height="70.5527" id="Task" rx="1.25" ry="1.25" style="stroke:#181818;stroke-width:0.25;" width="219" x="105.75" y="405.5"/><ellipse cx="205.375" cy="413.5" fill="#ADD1B2" rx="5.5" ry="5.5" style="stroke:#181818;stroke-width:0.5;"/><path d="M206.7578,411.4375 Q206.8359,411.3281 206.9297,411.2734 Q207.0234,411.2188 207.1328,411.2188 Q207.3203,411.2188 207.4375,411.3516 Q207.5547,411.4766 207.5547,411.7813 L207.5547,412.5078 Q207.5547,412.8125 207.4375,412.9453 Q207.3203,413.0781 207.1328,413.0781 Q206.9609,413.0781 206.8594,412.9766 Q206.7578,412.8828 206.7031,412.625 Q206.6797,412.4453 206.5859,412.3516 Q206.4219,412.1641 206.1172,412.0547 Q205.8125,411.9453 205.5,411.9453 Q205.1172,411.9453 204.7969,412.1094 Q204.4844,412.2734 204.2344,412.6484 Q203.9922,413.0234 203.9922,413.5391 L203.9922,414.0859 Q203.9922,414.7031 204.4375,415.1172 Q204.8828,415.5234 205.6797,415.5234 Q206.1484,415.5234 206.4766,415.3984 Q206.6719,415.3203 206.8828,415.1016 Q207.0156,414.9688 207.0859,414.9297 Q207.1641,414.8906 207.2656,414.8906 Q207.4297,414.8906 207.5547,415.0234 Q207.6875,415.1484 207.6875,415.3203 Q207.6875,415.4922 207.5156,415.6953 Q207.2656,415.9844 206.8672,416.1484 Q206.3281,416.375 205.6797,416.375 Q204.9219,416.375 204.3203,416.0625 Q203.8281,415.8125 203.4844,415.2813 Q203.1406,414.7422 203.1406,414.1016 L203.1406,413.5234 Q203.1406,412.8594 203.4453,412.2891 Q203.7578,411.7109 204.3047,411.4063 Q204.8516,411.0938 205.4688,411.0938 Q205.8359,411.0938 206.1563,411.1797 Q206.4844,411.2578 206.7578,411.4375 Z " fill="#000000"/><text fill="#000000" font-family="sans-serif" font-size="7" lengthAdjust="spacing" textLength="15.5" x="215.625" y="416.3984">Task</text><line style="stroke:#181818;stroke-width:0.25;" x1="106.25" x2="324.25" y1="421.5" y2="421.5"/><text fill="#000000" font-family="sans-serif" font-size="7" lengthAdjust="spacing" textLength="53.5" x="108.75" y="431.0537">-String reference</text><text fill="#000000" font-family="sans-serif" font-size="7" lengthAdjust="spacing" textLength="57.5" x="108.75" y="440.3643">-String description</text><text fill="#000000" font-family="sans-serif" font-size="7" lengthAdjust="spacing" textLength="119.5" x="108.75" y="449.6748">-EmergencyDegree degreeOfUrgency</text><text fill="#000000" font-family="sans-serif" font-size="7" lengthAdjust="spacing" textLength="67.5" x="108.75" y="458.9854">-int expectedDuration</text><line style="stroke:#181818;stroke-width:0.25;" x1="106.25" x2="324.25" y1="462.7422" y2="462.7422"/><text fill="#000000" font-family="sans-serif" font-size="7" lengthAdjust="spacing" textLength="213" x="108.75" y="472.2959">+Task(reference, description, degreeOfUrgency, expectedDuration)</text></g><!--class Repositories--><g id="elem_Repositories"><rect codeLine="44" fill="#F1F1F1" height="61.2422" id="Repositories" rx="1.25" ry="1.25" style="stroke:#181818;stroke-width:0.25;" width="97" x="69.25" y="158.5"/><ellipse cx="95.875" cy="166.5" fill="#ADD1B2" rx="5.5" ry="5.5" style="stroke:#181818;stroke-width:0.5;"/><path d="M97.2578,164.4375 Q97.3359,164.3281 97.4297,164.2734 Q97.5234,164.2188 97.6328,164.2188 Q97.8203,164.2188 97.9375,164.3516 Q98.0547,164.4766 98.0547,164.7813 L98.0547,165.5078 Q98.0547,165.8125 97.9375,165.9453 Q97.8203,166.0781 97.6328,166.0781 Q97.4609,166.0781 97.3594,165.9766 Q97.2578,165.8828 97.2031,165.625 Q97.1797,165.4453 97.0859,165.3516 Q96.9219,165.1641 96.6172,165.0547 Q96.3125,164.9453 96,164.9453 Q95.6172,164.9453 95.2969,165.1094 Q94.9844,165.2734 94.7344,165.6484 Q94.4922,166.0234 94.4922,166.5391 L94.4922,167.0859 Q94.4922,167.7031 94.9375,168.1172 Q95.3828,168.5234 96.1797,168.5234 Q96.6484,168.5234 96.9766,168.3984 Q97.1719,168.3203 97.3828,168.1016 Q97.5156,167.9688 97.5859,167.9297 Q97.6641,167.8906 97.7656,167.8906 Q97.9297,167.8906 98.0547,168.0234 Q98.1875,168.1484 98.1875,168.3203 Q98.1875,168.4922 98.0156,168.6953 Q97.7656,168.9844 97.3672,169.1484 Q96.8281,169.375 96.1797,169.375 Q95.4219,169.375 94.8203,169.0625 Q94.3281,168.8125 93.9844,168.2813 Q93.6406,167.7422 93.6406,167.1016 L93.6406,166.5234 Q93.6406,165.8594 93.9453,165.2891 Q94.2578,164.7109 94.8047,164.4063 Q95.3516,164.0938 95.9688,164.0938 Q96.3359,164.0938 96.6563,164.1797 Q96.9844,164.2578 97.2578,164.4375 Z " fill="#000000"/><text fill="#000000" font-family="sans-serif" font-size="7" lengthAdjust="spacing" textLength="39.5" x="106.125" y="169.3984">Repositories</text><line style="stroke:#181818;stroke-width:0.25;" x1="69.75" x2="165.75" y1="174.5" y2="174.5"/><line style="stroke:#181818;stroke-width:0.25;" x1="69.75" x2="165.75" y1="178.5" y2="178.5"/><text fill="#000000" font-family="sans-serif" font-size="7" lengthAdjust="spacing" textLength="47" x="72.25" y="188.0537">-Repositories()</text><text fill="#000000" font-family="sans-serif" font-size="7" lengthAdjust="spacing" textLength="91" x="72.25" y="197.3643">+getInstance() : Repositories</text><text fill="#000000" font-family="sans-serif" font-size="7" lengthAdjust="spacing" textLength="43.5" x="72.25" y="206.6748">+getAgenda()</text><text fill="#000000" font-family="sans-serif" font-size="7" lengthAdjust="spacing" textLength="47.5" x="72.25" y="215.9854">+getToDoList()</text></g><!--class AgendaStatus--><g id="elem_AgendaStatus"><rect codeLine="51" fill="#F1F1F1" height="61.2422" id="AgendaStatus" rx="1.25" ry="1.25" style="stroke:#181818;stroke-width:0.25;" width="60.5" x="27.5" y="410.25"/><ellipse cx="35" cy="418.25" fill="#EB937F" rx="5.5" ry="5.5" style="stroke:#181818;stroke-width:0.5;"/><path d="M34.4297,418.6484 L34.4297,419.8984 L36.5938,419.8984 L36.5938,419.4375 Q36.5938,419.1328 36.7109,419 Q36.8359,418.8672 37.0234,418.8672 Q37.2109,418.8672 37.3281,419 Q37.4453,419.1328 37.4453,419.4375 L37.4453,420.75 L33.4453,420.75 Q33.1328,420.75 33,420.6328 Q32.875,420.5156 32.875,420.3203 Q32.875,420.1328 33.0078,420.0156 Q33.1406,419.8984 33.4453,419.8984 L33.5781,419.8984 L33.5781,416.5703 L33.4453,416.5703 Q33.1328,416.5703 33,416.4531 Q32.875,416.3359 32.875,416.1406 Q32.875,415.9531 33,415.8359 Q33.1328,415.7188 33.4453,415.7188 L37.2578,415.7188 L37.2578,417.0156 Q37.2578,417.3203 37.1406,417.4531 Q37.0313,417.5781 36.8359,417.5781 Q36.6484,417.5781 36.5313,417.4531 Q36.4141,417.3203 36.4141,417.0156 L36.4141,416.5703 L34.4297,416.5703 L34.4297,417.7969 L35.1719,417.7969 Q35.1719,417.4688 35.2344,417.375 Q35.3672,417.1719 35.6016,417.1719 Q35.7891,417.1719 35.9063,417.3047 Q36.0234,417.4297 36.0234,417.7344 L36.0234,418.7188 Q36.0234,418.9922 35.9609,419.0859 Q35.8281,419.2813 35.6016,419.2813 Q35.3672,419.2813 35.2344,419.0781 Q35.1719,418.9844 35.1719,418.6484 L34.4297,418.6484 Z " fill="#000000"/><text fill="#000000" font-family="sans-serif" font-size="7" lengthAdjust="spacing" textLength="44.5" x="42" y="421.1484">AgendaStatus</text><line style="stroke:#181818;stroke-width:0.25;" x1="28" x2="87.5" y1="426.25" y2="426.25"/><text fill="#000000" font-family="sans-serif" font-size="7" lengthAdjust="spacing" textLength="31.5" x="30.5" y="435.8037">PLANNED</text><text fill="#000000" font-family="sans-serif" font-size="7" lengthAdjust="spacing" textLength="43" x="30.5" y="445.1143">POSTPONED</text><text fill="#000000" font-family="sans-serif" font-size="7" lengthAdjust="spacing" textLength="37" x="30.5" y="454.4248">CANCELED</text><text fill="#000000" font-family="sans-serif" font-size="7" lengthAdjust="spacing" textLength="19.5" x="30.5" y="463.7354">DONE</text><line style="stroke:#181818;stroke-width:0.25;" x1="28" x2="87.5" y1="467.4922" y2="467.4922"/></g><!--class TaskStatus--><g id="elem_TaskStatus"><rect codeLine="58" fill="#F1F1F1" height="42.6211" id="TaskStatus" rx="1.25" ry="1.25" style="stroke:#181818;stroke-width:0.25;" width="51.5" x="189.5" y="506.5"/><ellipse cx="197" cy="514.5" fill="#EB937F" rx="5.5" ry="5.5" style="stroke:#181818;stroke-width:0.5;"/><path d="M196.4297,514.8984 L196.4297,516.1484 L198.5938,516.1484 L198.5938,515.6875 Q198.5938,515.3828 198.7109,515.25 Q198.8359,515.1172 199.0234,515.1172 Q199.2109,515.1172 199.3281,515.25 Q199.4453,515.3828 199.4453,515.6875 L199.4453,517 L195.4453,517 Q195.1328,517 195,516.8828 Q194.875,516.7656 194.875,516.5703 Q194.875,516.3828 195.0078,516.2656 Q195.1406,516.1484 195.4453,516.1484 L195.5781,516.1484 L195.5781,512.8203 L195.4453,512.8203 Q195.1328,512.8203 195,512.7031 Q194.875,512.5859 194.875,512.3906 Q194.875,512.2031 195,512.0859 Q195.1328,511.9688 195.4453,511.9688 L199.2578,511.9688 L199.2578,513.2656 Q199.2578,513.5703 199.1406,513.7031 Q199.0313,513.8281 198.8359,513.8281 Q198.6484,513.8281 198.5313,513.7031 Q198.4141,513.5703 198.4141,513.2656 L198.4141,512.8203 L196.4297,512.8203 L196.4297,514.0469 L197.1719,514.0469 Q197.1719,513.7188 197.2344,513.625 Q197.3672,513.4219 197.6016,513.4219 Q197.7891,513.4219 197.9063,513.5547 Q198.0234,513.6797 198.0234,513.9844 L198.0234,514.9688 Q198.0234,515.2422 197.9609,515.3359 Q197.8281,515.5313 197.6016,515.5313 Q197.3672,515.5313 197.2344,515.3281 Q197.1719,515.2344 197.1719,514.8984 L196.4297,514.8984 Z " fill="#000000"/><text fill="#000000" font-family="sans-serif" font-size="7" lengthAdjust="spacing" textLength="35.5" x="204" y="517.3984">TaskStatus</text><line style="stroke:#181818;stroke-width:0.25;" x1="190" x2="240.5" y1="522.5" y2="522.5"/><text fill="#000000" font-family="sans-serif" font-size="7" lengthAdjust="spacing" textLength="30" x="192.5" y="532.0537">PENDING</text><text fill="#000000" font-family="sans-serif" font-size="7" lengthAdjust="spacing" textLength="43" x="192.5" y="541.3643">PROCESSED</text><line style="stroke:#181818;stroke-width:0.25;" x1="190" x2="240.5" y1="545.1211" y2="545.1211"/></g><!--link AddEntryAgendaUI to AddEntryAgendaController--><g id="link_AddEntryAgendaUI_AddEntryAgendaController"><path codeLine="63" d="M117.75,27.57 C117.75,35.795 117.75,44.25 117.75,54.975 " fill="none" id="AddEntryAgendaUI-to-AddEntryAgendaController" style="stroke:#181818;stroke-width:0.5;stroke-dasharray:7.0,7.0;"/><polygon fill="#181818" points="117.75,57.975,119.75,53.475,117.75,55.475,115.75,53.475,117.75,57.975" style="stroke:#181818;stroke-width:0.5;"/></g><!--link AddEntryAgendaController to Repositories--><g id="link_AddEntryAgendaController_Repositories"><path codeLine="64" d="M117.75,119.125 C117.75,131.59 117.75,143.02 117.75,155.48 " fill="none" id="AddEntryAgendaController-to-Repositories" style="stroke:#181818;stroke-width:0.5;stroke-dasharray:7.0,7.0;"/><polygon fill="#181818" points="117.75,158.48,119.75,153.98,117.75,155.98,115.75,153.98,117.75,158.48" style="stroke:#181818;stroke-width:0.5;"/><text fill="#000000" font-family="sans-serif" font-size="6.5" lengthAdjust="spacing" textLength="33.5" x="118.25" y="141.5142">repositories</text></g><!--link AddEntryAgendaController to Agenda--><g id="link_AddEntryAgendaController_Agenda"><path codeLine="65" d="M83.345,119.08 C61.855,137.865 38.25,158.5 38.25,158.5 C38.25,158.5 38.25,219.5 38.25,219.5 C38.25,219.5 44.5123,232.4876 51.6323,247.2576 " fill="none" id="AddEntryAgendaController-to-Agenda" style="stroke:#181818;stroke-width:0.5;stroke-dasharray:7.0,7.0;"/><polygon fill="#181818" points="52.935,249.96,52.7825,245.0379,51.8494,247.708,49.1793,246.7749,52.935,249.96" style="stroke:#181818;stroke-width:0.5;"/><text fill="#000000" font-family="sans-serif" font-size="6.5" lengthAdjust="spacing" textLength="21" x="38.75" y="191.7642">agenda</text></g><!--link AddEntryAgendaController to ToDoList--><g id="link_AddEntryAgendaController_ToDoList"><path codeLine="66" d="M159.73,119.08 C185.945,137.865 214.75,158.5 214.75,158.5 C214.75,158.5 215.0324,224.085 215.1674,256.23 " fill="none" id="AddEntryAgendaController-to-ToDoList" style="stroke:#181818;stroke-width:0.5;stroke-dasharray:7.0,7.0;"/><polygon fill="#181818" points="215.18,259.23,217.1611,254.7216,215.1695,256.73,213.1611,254.7384,215.18,259.23" style="stroke:#181818;stroke-width:0.5;"/><text fill="#000000" font-family="sans-serif" font-size="6.5" lengthAdjust="spacing" textLength="24" x="215.25" y="191.7642">toDoList</text></g><!--link Repositories to Repositories--><g id="link_Repositories_Repositories"><path codeLine="67" d="M166.39,180.86 C176.49,181.715 183.75,184.43 183.75,189 C183.75,193.57 179.4793,196.0319 169.3793,196.8869 " fill="none" id="Repositories-to-Repositories" style="stroke:#181818;stroke-width:0.5;"/><polygon fill="#181818" points="166.39,197.14,171.0427,198.7533,168.8811,196.9291,170.7053,194.7675,166.39,197.14" style="stroke:#181818;stroke-width:0.5;"/><text fill="#000000" font-family="sans-serif" font-size="6.5" lengthAdjust="spacing" textLength="24.5" x="186.75" y="191.7642">instance</text></g><!--link Repositories to Agenda--><g id="link_Repositories_Agenda"><path codeLine="68" d="M99.39,219.58 C93.355,229.46 88.2728,237.7842 82.4628,247.3042 " fill="none" id="Repositories-to-Agenda" style="stroke:#181818;stroke-width:0.5;"/><polygon fill="#181818" points="80.9,249.865,84.9514,247.0657,82.2024,247.731,81.5371,244.982,80.9,249.865" style="stroke:#181818;stroke-width:0.5;"/><text fill="#000000" font-family="sans-serif" font-size="6.5" lengthAdjust="spacing" textLength="3.5" x="79.2678" y="244.3105">1</text></g><!--link Repositories to ToDoList--><g id="link_Repositories_ToDoList"><path codeLine="69" d="M151.85,219.58 C166.95,232.9 181.87,246.0607 194.53,257.2257 " fill="none" id="Repositories-to-ToDoList" style="stroke:#181818;stroke-width:0.5;"/><polygon fill="#181818" points="196.78,259.21,194.7279,254.7335,194.905,257.5564,192.0821,257.7335,196.78,259.21" style="stroke:#181818;stroke-width:0.5;"/><text fill="#000000" font-family="sans-serif" font-size="6.5" lengthAdjust="spacing" textLength="3.5" x="189.2992" y="253.6149">1</text></g><!--link Agenda to Entry--><g id="link_Agenda_Entry"><path codeLine="70" d="M65.25,302.055 C65.25,311.91 65.25,320.04 65.25,329.4 " fill="none" id="Agenda-to-Entry" style="stroke:#181818;stroke-width:0.5;"/><polygon fill="#181818" points="65.25,332.4,67.25,327.9,65.25,329.9,63.25,327.9,65.25,332.4" style="stroke:#181818;stroke-width:0.5;"/><text fill="#000000" font-family="sans-serif" font-size="6.5" lengthAdjust="spacing" textLength="2.5" x="62.5508" y="326.8361">*</text></g><!--link ToDoList to Task--><g id="link_ToDoList_Task"><path codeLine="71" d="M215.25,292.8 C215.25,318.93 215.25,367.775 215.25,402.49 " fill="none" id="ToDoList-to-Task" style="stroke:#181818;stroke-width:0.5;"/><polygon fill="#181818" points="215.25,405.49,217.25,400.99,215.25,402.99,213.25,400.99,215.25,405.49" style="stroke:#181818;stroke-width:0.5;"/><text fill="#000000" font-family="sans-serif" font-size="6.5" lengthAdjust="spacing" textLength="2.5" x="212.6211" y="399.9345">*</text></g><!--link Entry to Task--><g id="link_Entry_Task"><path codeLine="72" d="M101.56,375.07 C117.47,384.19 133.9775,393.6526 151.9475,403.9576 " fill="none" id="Entry-to-Task" style="stroke:#181818;stroke-width:0.5;"/><polygon fill="#181818" points="154.55,405.45,151.6412,401.4764,152.3813,404.2063,149.6514,404.9464,154.55,405.45" style="stroke:#181818;stroke-width:0.5;"/><text fill="#000000" font-family="sans-serif" font-size="6.5" lengthAdjust="spacing" textLength="3.5" x="144.6098" y="399.8904">1</text></g><!--link Entry to AgendaStatus--><g id="link_Entry_AgendaStatus"><path codeLine="73" d="M63.435,375.07 C62.515,385.605 61.6465,395.6064 60.6315,407.2064 " fill="none" id="Entry-to-AgendaStatus" style="stroke:#181818;stroke-width:0.5;"/><polygon fill="#181818" points="60.37,410.195,62.7546,405.8865,60.5879,407.7045,58.7699,405.5378,60.37,410.195" style="stroke:#181818;stroke-width:0.5;"/><text fill="#000000" font-family="sans-serif" font-size="6.5" lengthAdjust="spacing" textLength="3.5" x="56.9706" y="404.6792">1</text></g><!--link Task to TaskStatus--><g id="link_Task_TaskStatus"><path codeLine="74" d="M215.25,476.23 C215.25,486.46 215.25,494.32 215.25,503.375 " fill="none" id="Task-to-TaskStatus" style="stroke:#181818;stroke-width:0.5;"/><polygon fill="#181818" points="215.25,506.375,217.25,501.875,215.25,503.875,213.25,501.875,215.25,506.375" style="stroke:#181818;stroke-width:0.5;"/><text fill="#000000" font-family="sans-serif" font-size="6.5" lengthAdjust="spacing" textLength="3.5" x="211.4711" y="500.8071">1</text></g><!--SRC=[XLDDZzem4BtxLrXS20LMxPL3fPH45HA25M5_W9iCmIBOaUsqJQl-zzgn7PmDi1o2_URDlF5yJEM5ife8SiLNpdX-5lmAM8a6qCrIa_n2IiXKMm4Ma2l2oYeao3Cf-2_AIdmYbGmj5MMWsXfmpQlMND3qZf4BnL7WbLT4obWfGNyq2ZOvPndz0_WpGjCAJWehZWKjpmeNrAH3EKEeyy5nKQHCYJOkWHNaROF_ed_tRMkkpxogG6WErh_v8tj4Ec2XPHE-fLBDB9yC-95KH2XTWuGeq5mYBmSuWG2MWtLObg2E6lxMzeRe3ctkQD98HRCW_qx7PRlqwX6OhrFuIIfQQFsHvUDa0w6Ew7KC0uTq6yygF0rpTENozVtu-JTNZVi4CZq6UhA4fmtG0cGkQDsDG8UdLn3wYNcRG2a0DC7yxKzl5hKaoXI6txKU7IYIHf3UVMw4ervg4SPVl8-r6CK8Nd20cakgkA0W_Ki6OEGQWtLPDamNqjHZXbS3qetY-XOu-VBQ4G7MNDs4P8genek-RkFTBatiUPyTN_V-jevtwtJhBec6-p2c2CCWwIxPxBxRys6_JhDC-sdwQDrUNhu-t3FqS06DL_ZibUvsK8IdVXPSORkapxc-PAj-bT6WJylb-poewyoOD_aoSThtRLuBkRNjy4yJkroetmqFcveZktXzX34KDXXrInAI7VuV]--></g></svg>