<?xml version="1.0" encoding="us-ascii" standalone="no"?><svg xmlns="http://www.w3.org/2000/svg" xmlns:xlink="http://www.w3.org/1999/xlink" contentStyleType="text/css" height="851.9px" preserveAspectRatio="none" style="width:729px;height:851px;background:#FFFFFF;" version="1.1" viewBox="0 0 729 851" width="729.4px" zoomAndPan="magnify"><defs/><g><!--class AddEntryAgendaUI--><g id="elem_AddEntryAgendaUI"><rect codeLine="11" fill="#F1F1F1" height="33.6" id="AddEntryAgendaUI" rx="1.75" ry="1.75" style="stroke:#181818;stroke-width:0.3499999999999999;" width="105.7" x="340.55" y="4.9"/><ellipse cx="351.05" cy="16.1" fill="#ADD1B2" rx="7.7" ry="7.7" style="stroke:#181818;stroke-width:0.6999999999999998;"/><path d="M352.9859,13.2125 Q353.0953,13.0594 353.2266,12.9828 Q353.3578,12.9062 353.5109,12.9062 Q353.7734,12.9062 353.9375,13.0922 Q354.1016,13.2672 354.1016,13.6937 L354.1016,14.7109 Q354.1016,15.1375 353.9375,15.3234 Q353.7734,15.5094 353.5109,15.5094 Q353.2703,15.5094 353.1281,15.3672 Q352.9859,15.2359 352.9094,14.875 Q352.8766,14.6234 352.7453,14.4922 Q352.5156,14.2297 352.0891,14.0766 Q351.6625,13.9234 351.225,13.9234 Q350.6891,13.9234 350.2406,14.1531 Q349.8031,14.3828 349.4531,14.9078 Q349.1141,15.4328 349.1141,16.1547 L349.1141,16.9203 Q349.1141,17.7844 349.7375,18.3641 Q350.3609,18.9328 351.4766,18.9328 Q352.1328,18.9328 352.5922,18.7578 Q352.8656,18.6484 353.1609,18.3422 Q353.3469,18.1562 353.4453,18.1016 Q353.5547,18.0469 353.6969,18.0469 Q353.9266,18.0469 354.1016,18.2328 Q354.2875,18.4078 354.2875,18.6484 Q354.2875,18.8891 354.0469,19.1734 Q353.6969,19.5781 353.1391,19.8078 Q352.3844,20.125 351.4766,20.125 Q350.4156,20.125 349.5734,19.6875 Q348.8844,19.3375 348.4031,18.5937 Q347.9219,17.8391 347.9219,16.9422 L347.9219,16.1328 Q347.9219,15.2031 348.3484,14.4047 Q348.7859,13.5953 349.5516,13.1687 Q350.3172,12.7312 351.1812,12.7312 Q351.6953,12.7312 352.1437,12.8516 Q352.6031,12.9609 352.9859,13.2125 Z " fill="#000000"/><text fill="#000000" font-family="sans-serif" font-size="9.8" lengthAdjust="spacing" textLength="83.3" x="360.85" y="20.1578">AddEntryAgendaUI</text><line style="stroke:#181818;stroke-width:0.3499999999999999;" x1="341.25" x2="445.55" y1="27.3" y2="27.3"/><line style="stroke:#181818;stroke-width:0.3499999999999999;" x1="341.25" x2="445.55" y1="32.9" y2="32.9"/></g><!--class AddEntryAgendaController--><g id="elem_AddEntryAgendaController"><rect codeLine="14" fill="#F1F1F1" height="98.7738" id="AddEntryAgendaController" rx="1.75" ry="1.75" style="stroke:#181818;stroke-width:0.3499999999999999;" width="330.4" x="228.2" y="81.2"/><ellipse cx="331.275" cy="92.4" fill="#ADD1B2" rx="7.7" ry="7.7" style="stroke:#181818;stroke-width:0.6999999999999998;"/><path d="M333.2109,89.5125 Q333.3203,89.3594 333.4516,89.2828 Q333.5828,89.2062 333.7359,89.2062 Q333.9984,89.2062 334.1625,89.3922 Q334.3266,89.5672 334.3266,89.9937 L334.3266,91.0109 Q334.3266,91.4375 334.1625,91.6234 Q333.9984,91.8094 333.7359,91.8094 Q333.4953,91.8094 333.3531,91.6672 Q333.2109,91.5359 333.1344,91.175 Q333.1016,90.9234 332.9703,90.7922 Q332.7406,90.5297 332.3141,90.3766 Q331.8875,90.2234 331.45,90.2234 Q330.9141,90.2234 330.4656,90.4531 Q330.0281,90.6828 329.6781,91.2078 Q329.3391,91.7328 329.3391,92.4547 L329.3391,93.2203 Q329.3391,94.0844 329.9625,94.6641 Q330.5859,95.2328 331.7016,95.2328 Q332.3578,95.2328 332.8172,95.0578 Q333.0906,94.9484 333.3859,94.6422 Q333.5719,94.4562 333.6703,94.4016 Q333.7797,94.3469 333.9219,94.3469 Q334.1516,94.3469 334.3266,94.5328 Q334.5125,94.7078 334.5125,94.9484 Q334.5125,95.1891 334.2719,95.4734 Q333.9219,95.8781 333.3641,96.1078 Q332.6094,96.425 331.7016,96.425 Q330.6406,96.425 329.7984,95.9875 Q329.1094,95.6375 328.6281,94.8937 Q328.1469,94.1391 328.1469,93.2422 L328.1469,92.4328 Q328.1469,91.5031 328.5734,90.7047 Q329.0109,89.8953 329.7766,89.4687 Q330.5422,89.0312 331.4062,89.0312 Q331.9203,89.0312 332.3687,89.1516 Q332.8281,89.2609 333.2109,89.5125 Z " fill="#000000"/><text fill="#000000" font-family="sans-serif" font-size="9.8" lengthAdjust="spacing" textLength="118.3" x="345.625" y="96.4578">AddEntryAgendaController</text><line style="stroke:#181818;stroke-width:0.3499999999999999;" x1="228.9" x2="557.9" y1="103.6" y2="103.6"/><line style="stroke:#181818;stroke-width:0.3499999999999999;" x1="228.9" x2="557.9" y1="109.2" y2="109.2"/><text fill="#000000" font-family="sans-serif" font-size="9.8" lengthAdjust="spacing" textLength="322" x="232.4" y="122.5752">+AddEntryAgendaController(agenda, toDoList, authenticationRepository)</text><text fill="#000000" font-family="sans-serif" font-size="9.8" lengthAdjust="spacing" textLength="169.4" x="232.4" y="135.61">+addEntryAgenda(startingDate, index)</text><text fill="#000000" font-family="sans-serif" font-size="9.8" lengthAdjust="spacing" textLength="103.6" x="232.4" y="148.6447">-getTaskByIndex(index)</text><text fill="#000000" font-family="sans-serif" font-size="9.8" lengthAdjust="spacing" textLength="104.3" x="232.4" y="161.6795">-getGSMFromSession()</text><text fill="#000000" font-family="sans-serif" font-size="9.8" lengthAdjust="spacing" textLength="68.6" x="232.4" y="174.7143">+getTasksList()</text></g><!--class Agenda--><g id="elem_Agenda"><rect codeLine="22" fill="#F1F1F1" height="85.7391" id="Agenda" rx="1.75" ry="1.75" style="stroke:#181818;stroke-width:0.3499999999999999;" width="254.8" x="298.9" y="376.6"/><ellipse cx="406.175" cy="387.8" fill="#ADD1B2" rx="7.7" ry="7.7" style="stroke:#181818;stroke-width:0.6999999999999998;"/><path d="M408.1109,384.9125 Q408.2203,384.7594 408.3516,384.6828 Q408.4828,384.6062 408.6359,384.6062 Q408.8984,384.6062 409.0625,384.7922 Q409.2266,384.9672 409.2266,385.3937 L409.2266,386.4109 Q409.2266,386.8375 409.0625,387.0234 Q408.8984,387.2094 408.6359,387.2094 Q408.3953,387.2094 408.2531,387.0672 Q408.1109,386.9359 408.0344,386.575 Q408.0016,386.3234 407.8703,386.1922 Q407.6406,385.9297 407.2141,385.7766 Q406.7875,385.6234 406.35,385.6234 Q405.8141,385.6234 405.3656,385.8531 Q404.9281,386.0828 404.5781,386.6078 Q404.2391,387.1328 404.2391,387.8547 L404.2391,388.6203 Q404.2391,389.4844 404.8625,390.0641 Q405.4859,390.6328 406.6016,390.6328 Q407.2578,390.6328 407.7172,390.4578 Q407.9906,390.3484 408.2859,390.0422 Q408.4719,389.8562 408.5703,389.8016 Q408.6797,389.7469 408.8219,389.7469 Q409.0516,389.7469 409.2266,389.9328 Q409.4125,390.1078 409.4125,390.3484 Q409.4125,390.5891 409.1719,390.8734 Q408.8219,391.2781 408.2641,391.5078 Q407.5094,391.825 406.6016,391.825 Q405.5406,391.825 404.6984,391.3875 Q404.0094,391.0375 403.5281,390.2937 Q403.0469,389.5391 403.0469,388.6422 L403.0469,387.8328 Q403.0469,386.9031 403.4734,386.1047 Q403.9109,385.2953 404.6766,384.8687 Q405.4422,384.4312 406.3062,384.4312 Q406.8203,384.4312 407.2687,384.5516 Q407.7281,384.6609 408.1109,384.9125 Z " fill="#000000"/><text fill="#000000" font-family="sans-serif" font-size="9.8" lengthAdjust="spacing" textLength="34.3" x="420.525" y="391.8578">Agenda</text><line style="stroke:#181818;stroke-width:0.3499999999999999;" x1="299.6" x2="553" y1="399" y2="399"/><line style="stroke:#181818;stroke-width:0.3499999999999999;" x1="299.6" x2="553" y1="404.6" y2="404.6"/><text fill="#000000" font-family="sans-serif" font-size="9.8" lengthAdjust="spacing" textLength="246.4" x="303.1" y="417.9752">+addEntryAgenda(startingDate, task, gsmFromSession)</text><text fill="#000000" font-family="sans-serif" font-size="9.8" lengthAdjust="spacing" textLength="154.7" x="303.1" y="431.01">-addEntry(gsmFromSession, entry)</text><text fill="#000000" font-family="sans-serif" font-size="9.8" lengthAdjust="spacing" textLength="90.3" x="303.1" y="444.0447">-validateEntry(entry)</text><text fill="#000000" font-family="sans-serif" font-size="9.8" lengthAdjust="spacing" textLength="169.4" x="303.1" y="457.0795">-validateUser(gsmFromSession, entry)</text></g><!--class Entry--><g id="elem_Entry"><rect codeLine="29" fill="#F1F1F1" height="59.6695" id="Entry" rx="1.75" ry="1.75" style="stroke:#181818;stroke-width:0.3499999999999999;" width="121.8" x="370.3" y="504.7"/><ellipse cx="416.675" cy="515.9" fill="#ADD1B2" rx="7.7" ry="7.7" style="stroke:#181818;stroke-width:0.6999999999999998;"/><path d="M418.6109,513.0125 Q418.7203,512.8594 418.8516,512.7828 Q418.9828,512.7062 419.1359,512.7062 Q419.3984,512.7062 419.5625,512.8922 Q419.7266,513.0672 419.7266,513.4937 L419.7266,514.5109 Q419.7266,514.9375 419.5625,515.1234 Q419.3984,515.3094 419.1359,515.3094 Q418.8953,515.3094 418.7531,515.1672 Q418.6109,515.0359 418.5344,514.675 Q418.5016,514.4234 418.3703,514.2922 Q418.1406,514.0297 417.7141,513.8766 Q417.2875,513.7234 416.85,513.7234 Q416.3141,513.7234 415.8656,513.9531 Q415.4281,514.1828 415.0781,514.7078 Q414.7391,515.2328 414.7391,515.9547 L414.7391,516.7203 Q414.7391,517.5844 415.3625,518.1641 Q415.9859,518.7328 417.1016,518.7328 Q417.7578,518.7328 418.2172,518.5578 Q418.4906,518.4484 418.7859,518.1422 Q418.9719,517.9562 419.0703,517.9016 Q419.1797,517.8469 419.3219,517.8469 Q419.5516,517.8469 419.7266,518.0328 Q419.9125,518.2078 419.9125,518.4484 Q419.9125,518.6891 419.6719,518.9734 Q419.3219,519.3781 418.7641,519.6078 Q418.0094,519.925 417.1016,519.925 Q416.0406,519.925 415.1984,519.4875 Q414.5094,519.1375 414.0281,518.3937 Q413.5469,517.6391 413.5469,516.7422 L413.5469,515.9328 Q413.5469,515.0031 413.9734,514.2047 Q414.4109,513.3953 415.1766,512.9687 Q415.9422,512.5312 416.8062,512.5312 Q417.3203,512.5312 417.7687,512.6516 Q418.2281,512.7609 418.6109,513.0125 Z " fill="#000000"/><text fill="#000000" font-family="sans-serif" font-size="9.8" lengthAdjust="spacing" textLength="23.1" x="431.025" y="519.9578">Entry</text><line style="stroke:#181818;stroke-width:0.3499999999999999;" x1="371" x2="491.4" y1="527.1" y2="527.1"/><text fill="#000000" font-family="sans-serif" font-size="9.8" lengthAdjust="spacing" textLength="81.2" x="374.5" y="540.4752">-Date startingDate</text><line style="stroke:#181818;stroke-width:0.3499999999999999;" x1="371" x2="491.4" y1="545.7348" y2="545.7348"/><text fill="#000000" font-family="sans-serif" font-size="9.8" lengthAdjust="spacing" textLength="113.4" x="374.5" y="559.11">+Entry(startingDate, task)</text></g><!--class ToDoList--><g id="elem_ToDoList"><rect codeLine="34" fill="#F1F1F1" height="46.6348" id="ToDoList" rx="1.75" ry="1.75" style="stroke:#181818;stroke-width:0.3499999999999999;" width="114.1" x="159.95" y="395.85"/><ellipse cx="194.075" cy="407.05" fill="#ADD1B2" rx="7.7" ry="7.7" style="stroke:#181818;stroke-width:0.6999999999999998;"/><path d="M196.0109,404.1625 Q196.1203,404.0094 196.2516,403.9328 Q196.3828,403.8562 196.5359,403.8562 Q196.7984,403.8562 196.9625,404.0422 Q197.1266,404.2172 197.1266,404.6437 L197.1266,405.6609 Q197.1266,406.0875 196.9625,406.2734 Q196.7984,406.4594 196.5359,406.4594 Q196.2953,406.4594 196.1531,406.3172 Q196.0109,406.1859 195.9344,405.825 Q195.9016,405.5734 195.7703,405.4422 Q195.5406,405.1797 195.1141,405.0266 Q194.6875,404.8734 194.25,404.8734 Q193.7141,404.8734 193.2656,405.1031 Q192.8281,405.3328 192.4781,405.8578 Q192.1391,406.3828 192.1391,407.1047 L192.1391,407.8703 Q192.1391,408.7344 192.7625,409.3141 Q193.3859,409.8828 194.5016,409.8828 Q195.1578,409.8828 195.6172,409.7078 Q195.8906,409.5984 196.1859,409.2922 Q196.3719,409.1062 196.4703,409.0516 Q196.5797,408.9969 196.7219,408.9969 Q196.9516,408.9969 197.1266,409.1828 Q197.3125,409.3578 197.3125,409.5984 Q197.3125,409.8391 197.0719,410.1234 Q196.7219,410.5281 196.1641,410.7578 Q195.4094,411.075 194.5016,411.075 Q193.4406,411.075 192.5984,410.6375 Q191.9094,410.2875 191.4281,409.5437 Q190.9469,408.7891 190.9469,407.8922 L190.9469,407.0828 Q190.9469,406.1531 191.3734,405.3547 Q191.8109,404.5453 192.5766,404.1187 Q193.3422,403.6812 194.2062,403.6812 Q194.7203,403.6812 195.1687,403.8016 Q195.6281,403.9109 196.0109,404.1625 Z " fill="#000000"/><text fill="#000000" font-family="sans-serif" font-size="9.8" lengthAdjust="spacing" textLength="39.9" x="208.425" y="411.1078">ToDoList</text><line style="stroke:#181818;stroke-width:0.3499999999999999;" x1="160.65" x2="273.35" y1="418.25" y2="418.25"/><line style="stroke:#181818;stroke-width:0.3499999999999999;" x1="160.65" x2="273.35" y1="423.85" y2="423.85"/><text fill="#000000" font-family="sans-serif" font-size="9.8" lengthAdjust="spacing" textLength="105.7" x="164.15" y="437.2252">+getTaskByIndex(index)</text></g><!--class Task--><g id="elem_Task"><rect codeLine="38" fill="#F1F1F1" height="137.8781" id="Task" rx="1.75" ry="1.75" style="stroke:#181818;stroke-width:0.3499999999999999;" width="390.6" x="4.9" y="606.9"/><ellipse cx="186.375" cy="618.1" fill="#ADD1B2" rx="7.7" ry="7.7" style="stroke:#181818;stroke-width:0.6999999999999998;"/><path d="M188.3109,615.2125 Q188.4203,615.0594 188.5516,614.9828 Q188.6828,614.9062 188.8359,614.9062 Q189.0984,614.9062 189.2625,615.0922 Q189.4266,615.2672 189.4266,615.6937 L189.4266,616.7109 Q189.4266,617.1375 189.2625,617.3234 Q189.0984,617.5094 188.8359,617.5094 Q188.5953,617.5094 188.4531,617.3672 Q188.3109,617.2359 188.2344,616.875 Q188.2016,616.6234 188.0703,616.4922 Q187.8406,616.2297 187.4141,616.0766 Q186.9875,615.9234 186.55,615.9234 Q186.0141,615.9234 185.5656,616.1531 Q185.1281,616.3828 184.7781,616.9078 Q184.4391,617.4328 184.4391,618.1547 L184.4391,618.9203 Q184.4391,619.7844 185.0625,620.3641 Q185.6859,620.9328 186.8016,620.9328 Q187.4578,620.9328 187.9172,620.7578 Q188.1906,620.6484 188.4859,620.3422 Q188.6719,620.1562 188.7703,620.1016 Q188.8797,620.0469 189.0219,620.0469 Q189.2516,620.0469 189.4266,620.2328 Q189.6125,620.4078 189.6125,620.6484 Q189.6125,620.8891 189.3719,621.1734 Q189.0219,621.5781 188.4641,621.8078 Q187.7094,622.125 186.8016,622.125 Q185.7406,622.125 184.8984,621.6875 Q184.2094,621.3375 183.7281,620.5937 Q183.2469,619.8391 183.2469,618.9422 L183.2469,618.1328 Q183.2469,617.2031 183.6734,616.4047 Q184.1109,615.5953 184.8766,615.1687 Q185.6422,614.7312 186.5062,614.7312 Q187.0203,614.7312 187.4687,614.8516 Q187.9281,614.9609 188.3109,615.2125 Z " fill="#000000"/><text fill="#000000" font-family="sans-serif" font-size="9.8" lengthAdjust="spacing" textLength="21.7" x="200.725" y="622.1578">Task</text><line style="stroke:#181818;stroke-width:0.3499999999999999;" x1="5.6" x2="394.8" y1="629.3" y2="629.3"/><text fill="#000000" font-family="sans-serif" font-size="9.8" lengthAdjust="spacing" textLength="47.6" x="9.1" y="642.6752">-String title</text><text fill="#000000" font-family="sans-serif" font-size="9.8" lengthAdjust="spacing" textLength="80.5" x="9.1" y="655.71">-String description</text><text fill="#000000" font-family="sans-serif" font-size="9.8" lengthAdjust="spacing" textLength="167.3" x="9.1" y="668.7447">-EmergencyDegree degreeOfUrgency</text><text fill="#000000" font-family="sans-serif" font-size="9.8" lengthAdjust="spacing" textLength="94.5" x="9.1" y="681.7795">-int expectedDuration</text><text fill="#000000" font-family="sans-serif" font-size="9.8" lengthAdjust="spacing" textLength="69.3" x="9.1" y="694.8143">-TaskType type</text><text fill="#000000" font-family="sans-serif" font-size="9.8" lengthAdjust="spacing" textLength="116.2" x="9.1" y="707.849">-GreenSpace greenSpace</text><line style="stroke:#181818;stroke-width:0.3499999999999999;" x1="5.6" x2="394.8" y1="713.1086" y2="713.1086"/><text fill="#000000" font-family="sans-serif" font-size="9.8" lengthAdjust="spacing" textLength="382.2" x="9.1" y="726.4838">+Task(reference, description, degreeOfUrgency, expectedDuration, type, greenSpace)</text><text fill="#000000" font-family="sans-serif" font-size="9.8" lengthAdjust="spacing" textLength="100.1" x="9.1" y="739.5186">+changeStatus(status)</text></g><!--class Repositories--><g id="elem_Repositories"><rect codeLine="49" fill="#F1F1F1" height="98.7738" id="Repositories" rx="1.75" ry="1.75" style="stroke:#181818;stroke-width:0.3499999999999999;" width="145.6" x="385" y="235.2"/><ellipse cx="427.175" cy="246.4" fill="#ADD1B2" rx="7.7" ry="7.7" style="stroke:#181818;stroke-width:0.6999999999999998;"/><path d="M429.1109,243.5125 Q429.2203,243.3594 429.3516,243.2828 Q429.4828,243.2062 429.6359,243.2062 Q429.8984,243.2062 430.0625,243.3922 Q430.2266,243.5672 430.2266,243.9937 L430.2266,245.0109 Q430.2266,245.4375 430.0625,245.6234 Q429.8984,245.8094 429.6359,245.8094 Q429.3953,245.8094 429.2531,245.6672 Q429.1109,245.5359 429.0344,245.175 Q429.0016,244.9234 428.8703,244.7922 Q428.6406,244.5297 428.2141,244.3766 Q427.7875,244.2234 427.35,244.2234 Q426.8141,244.2234 426.3656,244.4531 Q425.9281,244.6828 425.5781,245.2078 Q425.2391,245.7328 425.2391,246.4547 L425.2391,247.2203 Q425.2391,248.0844 425.8625,248.6641 Q426.4859,249.2328 427.6016,249.2328 Q428.2578,249.2328 428.7172,249.0578 Q428.9906,248.9484 429.2859,248.6422 Q429.4719,248.4562 429.5703,248.4016 Q429.6797,248.3469 429.8219,248.3469 Q430.0516,248.3469 430.2266,248.5328 Q430.4125,248.7078 430.4125,248.9484 Q430.4125,249.1891 430.1719,249.4734 Q429.8219,249.8781 429.2641,250.1078 Q428.5094,250.425 427.6016,250.425 Q426.5406,250.425 425.6984,249.9875 Q425.0094,249.6375 424.5281,248.8937 Q424.0469,248.1391 424.0469,247.2422 L424.0469,246.4328 Q424.0469,245.5031 424.4734,244.7047 Q424.9109,243.8953 425.6766,243.4687 Q426.4422,243.0312 427.3062,243.0312 Q427.8203,243.0312 428.2687,243.1516 Q428.7281,243.2609 429.1109,243.5125 Z " fill="#000000"/><text fill="#000000" font-family="sans-serif" font-size="9.8" lengthAdjust="spacing" textLength="55.3" x="441.525" y="250.4578">Repositories</text><line style="stroke:#181818;stroke-width:0.3499999999999999;" x1="385.7" x2="529.9" y1="257.6" y2="257.6"/><line style="stroke:#181818;stroke-width:0.3499999999999999;" x1="385.7" x2="529.9" y1="263.2" y2="263.2"/><text fill="#000000" font-family="sans-serif" font-size="9.8" lengthAdjust="spacing" textLength="65.8" x="389.2" y="276.5752">-Repositories()</text><text fill="#000000" font-family="sans-serif" font-size="9.8" lengthAdjust="spacing" textLength="127.4" x="389.2" y="289.61">+getInstance() : Repositories</text><text fill="#000000" font-family="sans-serif" font-size="9.8" lengthAdjust="spacing" textLength="60.9" x="389.2" y="302.6447">+getAgenda()</text><text fill="#000000" font-family="sans-serif" font-size="9.8" lengthAdjust="spacing" textLength="66.5" x="389.2" y="315.6795">+getToDoList()</text><text fill="#000000" font-family="sans-serif" font-size="9.8" lengthAdjust="spacing" textLength="137.2" x="389.2" y="328.7143">+getAuthenticationRepository()</text></g><!--class AgendaStatus--><g id="elem_AgendaStatus"><rect codeLine="57" fill="#F1F1F1" height="85.7391" id="AgendaStatus" rx="1.75" ry="1.75" style="stroke:#181818;stroke-width:0.3499999999999999;" width="84.7" x="470.05" y="633.15"/><ellipse cx="480.55" cy="644.35" fill="#EB937F" rx="7.7" ry="7.7" style="stroke:#181818;stroke-width:0.6999999999999998;"/><path d="M479.7516,644.9078 L479.7516,646.6578 L482.7812,646.6578 L482.7812,646.0125 Q482.7812,645.5859 482.9453,645.4 Q483.1203,645.2141 483.3828,645.2141 Q483.6453,645.2141 483.8094,645.4 Q483.9734,645.5859 483.9734,646.0125 L483.9734,647.85 L478.3734,647.85 Q477.9359,647.85 477.75,647.6859 Q477.575,647.5219 477.575,647.2484 Q477.575,646.9859 477.7609,646.8219 Q477.9469,646.6578 478.3734,646.6578 L478.5594,646.6578 L478.5594,641.9984 L478.3734,641.9984 Q477.9359,641.9984 477.75,641.8344 Q477.575,641.6703 477.575,641.3969 Q477.575,641.1344 477.75,640.9703 Q477.9359,640.8062 478.3734,640.8062 L483.7109,640.8062 L483.7109,642.6219 Q483.7109,643.0484 483.5469,643.2344 Q483.3937,643.4094 483.1203,643.4094 Q482.8578,643.4094 482.6937,643.2344 Q482.5297,643.0484 482.5297,642.6219 L482.5297,641.9984 L479.7516,641.9984 L479.7516,643.7156 L480.7906,643.7156 Q480.7906,643.2562 480.8781,643.125 Q481.0641,642.8406 481.3922,642.8406 Q481.6547,642.8406 481.8187,643.0266 Q481.9828,643.2016 481.9828,643.6281 L481.9828,645.0062 Q481.9828,645.3891 481.8953,645.5203 Q481.7094,645.7937 481.3922,645.7937 Q481.0641,645.7937 480.8781,645.5094 Q480.7906,645.3781 480.7906,644.9078 L479.7516,644.9078 Z " fill="#000000"/><text fill="#000000" font-family="sans-serif" font-size="9.8" lengthAdjust="spacing" textLength="62.3" x="490.35" y="648.4078">AgendaStatus</text><line style="stroke:#181818;stroke-width:0.3499999999999999;" x1="470.75" x2="554.05" y1="655.55" y2="655.55"/><text fill="#000000" font-family="sans-serif" font-size="9.8" lengthAdjust="spacing" textLength="44.1" x="474.25" y="668.9252">PLANNED</text><text fill="#000000" font-family="sans-serif" font-size="9.8" lengthAdjust="spacing" textLength="60.2" x="474.25" y="681.96">POSTPONED</text><text fill="#000000" font-family="sans-serif" font-size="9.8" lengthAdjust="spacing" textLength="51.8" x="474.25" y="694.9947">CANCELED</text><text fill="#000000" font-family="sans-serif" font-size="9.8" lengthAdjust="spacing" textLength="27.3" x="474.25" y="708.0295">DONE</text><line style="stroke:#181818;stroke-width:0.3499999999999999;" x1="470.75" x2="554.05" y1="713.2891" y2="713.2891"/></g><!--class TaskStatus--><g id="elem_TaskStatus"><rect codeLine="64" fill="#F1F1F1" height="59.6695" id="TaskStatus" rx="1.75" ry="1.75" style="stroke:#181818;stroke-width:0.3499999999999999;" width="72.1" x="164.15" y="787.5"/><ellipse cx="174.65" cy="798.7" fill="#EB937F" rx="7.7" ry="7.7" style="stroke:#181818;stroke-width:0.6999999999999998;"/><path d="M173.8516,799.2578 L173.8516,801.0078 L176.8812,801.0078 L176.8812,800.3625 Q176.8812,799.9359 177.0453,799.75 Q177.2203,799.5641 177.4828,799.5641 Q177.7453,799.5641 177.9094,799.75 Q178.0734,799.9359 178.0734,800.3625 L178.0734,802.2 L172.4734,802.2 Q172.0359,802.2 171.85,802.0359 Q171.675,801.8719 171.675,801.5984 Q171.675,801.3359 171.8609,801.1719 Q172.0469,801.0078 172.4734,801.0078 L172.6594,801.0078 L172.6594,796.3484 L172.4734,796.3484 Q172.0359,796.3484 171.85,796.1844 Q171.675,796.0203 171.675,795.7469 Q171.675,795.4844 171.85,795.3203 Q172.0359,795.1562 172.4734,795.1562 L177.8109,795.1562 L177.8109,796.9719 Q177.8109,797.3984 177.6469,797.5844 Q177.4937,797.7594 177.2203,797.7594 Q176.9578,797.7594 176.7937,797.5844 Q176.6297,797.3984 176.6297,796.9719 L176.6297,796.3484 L173.8516,796.3484 L173.8516,798.0656 L174.8906,798.0656 Q174.8906,797.6062 174.9781,797.475 Q175.1641,797.1906 175.4922,797.1906 Q175.7547,797.1906 175.9187,797.3766 Q176.0828,797.5516 176.0828,797.9781 L176.0828,799.3562 Q176.0828,799.7391 175.9953,799.8703 Q175.8094,800.1437 175.4922,800.1437 Q175.1641,800.1437 174.9781,799.8594 Q174.8906,799.7281 174.8906,799.2578 L173.8516,799.2578 Z " fill="#000000"/><text fill="#000000" font-family="sans-serif" font-size="9.8" lengthAdjust="spacing" textLength="49.7" x="184.45" y="802.7578">TaskStatus</text><line style="stroke:#181818;stroke-width:0.3499999999999999;" x1="164.85" x2="235.55" y1="809.9" y2="809.9"/><text fill="#000000" font-family="sans-serif" font-size="9.8" lengthAdjust="spacing" textLength="42" x="168.35" y="823.2752">PENDING</text><text fill="#000000" font-family="sans-serif" font-size="9.8" lengthAdjust="spacing" textLength="60.2" x="168.35" y="836.31">PROCESSED</text><line style="stroke:#181818;stroke-width:0.3499999999999999;" x1="164.85" x2="235.55" y1="841.5695" y2="841.5695"/></g><!--class AuthenticationRepository--><g id="elem_AuthenticationRepository"><rect codeLine="69" fill="#F1F1F1" height="46.6348" id="AuthenticationRepository" rx="1.75" ry="1.75" style="stroke:#181818;stroke-width:0.3499999999999999;" width="133" x="578.2" y="395.85"/><ellipse cx="588.7" cy="407.05" fill="#ADD1B2" rx="7.7" ry="7.7" style="stroke:#181818;stroke-width:0.6999999999999998;"/><path d="M590.6359,404.1625 Q590.7453,404.0094 590.8766,403.9328 Q591.0078,403.8562 591.1609,403.8562 Q591.4234,403.8562 591.5875,404.0422 Q591.7516,404.2172 591.7516,404.6437 L591.7516,405.6609 Q591.7516,406.0875 591.5875,406.2734 Q591.4234,406.4594 591.1609,406.4594 Q590.9203,406.4594 590.7781,406.3172 Q590.6359,406.1859 590.5594,405.825 Q590.5266,405.5734 590.3953,405.4422 Q590.1656,405.1797 589.7391,405.0266 Q589.3125,404.8734 588.875,404.8734 Q588.3391,404.8734 587.8906,405.1031 Q587.4531,405.3328 587.1031,405.8578 Q586.7641,406.3828 586.7641,407.1047 L586.7641,407.8703 Q586.7641,408.7344 587.3875,409.3141 Q588.0109,409.8828 589.1266,409.8828 Q589.7828,409.8828 590.2422,409.7078 Q590.5156,409.5984 590.8109,409.2922 Q590.9969,409.1062 591.0953,409.0516 Q591.2047,408.9969 591.3469,408.9969 Q591.5766,408.9969 591.7516,409.1828 Q591.9375,409.3578 591.9375,409.5984 Q591.9375,409.8391 591.6969,410.1234 Q591.3469,410.5281 590.7891,410.7578 Q590.0344,411.075 589.1266,411.075 Q588.0656,411.075 587.2234,410.6375 Q586.5344,410.2875 586.0531,409.5437 Q585.5719,408.7891 585.5719,407.8922 L585.5719,407.0828 Q585.5719,406.1531 585.9984,405.3547 Q586.4359,404.5453 587.2016,404.1187 Q587.9672,403.6812 588.8312,403.6812 Q589.3453,403.6812 589.7937,403.8016 Q590.2531,403.9109 590.6359,404.1625 Z " fill="#000000"/><text fill="#000000" font-family="sans-serif" font-size="9.8" lengthAdjust="spacing" textLength="110.6" x="598.5" y="411.1078">AuthenticationRepository</text><line style="stroke:#181818;stroke-width:0.3499999999999999;" x1="578.9" x2="710.5" y1="418.25" y2="418.25"/><line style="stroke:#181818;stroke-width:0.3499999999999999;" x1="578.9" x2="710.5" y1="423.85" y2="423.85"/><text fill="#000000" font-family="sans-serif" font-size="9.8" lengthAdjust="spacing" textLength="115.5" x="582.4" y="437.2252">+getCurrentUserSession()</text></g><!--class UserSession--><g id="elem_UserSession"><rect codeLine="73" fill="#F1F1F1" height="46.6348" id="UserSession" rx="1.75" ry="1.75" style="stroke:#181818;stroke-width:0.3499999999999999;" width="77.7" x="605.85" y="511"/><ellipse cx="616.35" cy="522.2" fill="#ADD1B2" rx="7.7" ry="7.7" style="stroke:#181818;stroke-width:0.6999999999999998;"/><path d="M618.2859,519.3125 Q618.3953,519.1594 618.5266,519.0828 Q618.6578,519.0062 618.8109,519.0062 Q619.0734,519.0062 619.2375,519.1922 Q619.4016,519.3672 619.4016,519.7937 L619.4016,520.8109 Q619.4016,521.2375 619.2375,521.4234 Q619.0734,521.6094 618.8109,521.6094 Q618.5703,521.6094 618.4281,521.4672 Q618.2859,521.3359 618.2094,520.975 Q618.1766,520.7234 618.0453,520.5922 Q617.8156,520.3297 617.3891,520.1766 Q616.9625,520.0234 616.525,520.0234 Q615.9891,520.0234 615.5406,520.2531 Q615.1031,520.4828 614.7531,521.0078 Q614.4141,521.5328 614.4141,522.2547 L614.4141,523.0203 Q614.4141,523.8844 615.0375,524.4641 Q615.6609,525.0328 616.7766,525.0328 Q617.4328,525.0328 617.8922,524.8578 Q618.1656,524.7484 618.4609,524.4422 Q618.6469,524.2562 618.7453,524.2016 Q618.8547,524.1469 618.9969,524.1469 Q619.2266,524.1469 619.4016,524.3328 Q619.5875,524.5078 619.5875,524.7484 Q619.5875,524.9891 619.3469,525.2734 Q618.9969,525.6781 618.4391,525.9078 Q617.6844,526.225 616.7766,526.225 Q615.7156,526.225 614.8734,525.7875 Q614.1844,525.4375 613.7031,524.6937 Q613.2219,523.9391 613.2219,523.0422 L613.2219,522.2328 Q613.2219,521.3031 613.6484,520.5047 Q614.0859,519.6953 614.8516,519.2687 Q615.6172,518.8312 616.4812,518.8312 Q616.9953,518.8312 617.4437,518.9516 Q617.9031,519.0609 618.2859,519.3125 Z " fill="#000000"/><text fill="#000000" font-family="sans-serif" font-size="9.8" lengthAdjust="spacing" textLength="55.3" x="626.15" y="526.2578">UserSession</text><line style="stroke:#181818;stroke-width:0.3499999999999999;" x1="606.55" x2="682.85" y1="533.4" y2="533.4"/><line style="stroke:#181818;stroke-width:0.3499999999999999;" x1="606.55" x2="682.85" y1="539" y2="539"/><text fill="#000000" font-family="sans-serif" font-size="9.8" lengthAdjust="spacing" textLength="54.6" x="610.05" y="552.3752">+getUserId()</text></g><!--class GreenSpaceManager--><g id="elem_GreenSpaceManager"><rect codeLine="77" fill="#F1F1F1" height="59.6695" id="GreenSpaceManager" rx="1.75" ry="1.75" style="stroke:#181818;stroke-width:0.3499999999999999;" width="139.3" x="311.85" y="787.5"/><ellipse cx="332.115" cy="798.7" fill="#ADD1B2" rx="7.7" ry="7.7" style="stroke:#181818;stroke-width:0.6999999999999998;"/><path d="M334.0509,795.8125 Q334.1603,795.6594 334.2916,795.5828 Q334.4228,795.5062 334.5759,795.5062 Q334.8384,795.5062 335.0025,795.6922 Q335.1666,795.8672 335.1666,796.2937 L335.1666,797.3109 Q335.1666,797.7375 335.0025,797.9234 Q334.8384,798.1094 334.5759,798.1094 Q334.3353,798.1094 334.1931,797.9672 Q334.0509,797.8359 333.9744,797.475 Q333.9416,797.2234 333.8103,797.0922 Q333.5806,796.8297 333.1541,796.6766 Q332.7275,796.5234 332.29,796.5234 Q331.7541,796.5234 331.3056,796.7531 Q330.8681,796.9828 330.5181,797.5078 Q330.1791,798.0328 330.1791,798.7547 L330.1791,799.5203 Q330.1791,800.3844 330.8025,800.9641 Q331.4259,801.5328 332.5416,801.5328 Q333.1978,801.5328 333.6572,801.3578 Q333.9306,801.2484 334.2259,800.9422 Q334.4119,800.7562 334.5103,800.7016 Q334.6197,800.6469 334.7619,800.6469 Q334.9916,800.6469 335.1666,800.8328 Q335.3525,801.0078 335.3525,801.2484 Q335.3525,801.4891 335.1119,801.7734 Q334.7619,802.1781 334.2041,802.4078 Q333.4494,802.725 332.5416,802.725 Q331.4806,802.725 330.6384,802.2875 Q329.9494,801.9375 329.4681,801.1937 Q328.9869,800.4391 328.9869,799.5422 L328.9869,798.7328 Q328.9869,797.8031 329.4134,797.0047 Q329.8509,796.1953 330.6166,795.7687 Q331.3822,795.3312 332.2462,795.3312 Q332.7603,795.3312 333.2087,795.4516 Q333.6681,795.5609 334.0509,795.8125 Z " fill="#000000"/><text fill="#000000" font-family="sans-serif" font-size="9.8" lengthAdjust="spacing" textLength="95.2" x="344.085" y="802.7578">GreenSpaceManager</text><line style="stroke:#181818;stroke-width:0.3499999999999999;" x1="312.55" x2="450.45" y1="809.9" y2="809.9"/><text fill="#000000" font-family="sans-serif" font-size="9.8" lengthAdjust="spacing" textLength="55.3" x="316.05" y="823.2752">-String email</text><line style="stroke:#181818;stroke-width:0.3499999999999999;" x1="312.55" x2="450.45" y1="828.5348" y2="828.5348"/><text fill="#000000" font-family="sans-serif" font-size="9.8" lengthAdjust="spacing" textLength="130.9" x="316.05" y="841.91">+GreenSpaceManager(email)</text></g><!--link AddEntryAgendaUI to AddEntryAgendaController--><g id="link_AddEntryAgendaUI_AddEntryAgendaController"><path codeLine="82" d="M393.4,38.717 C393.4,50.05 393.4,61.586 393.4,76.797 " fill="none" id="AddEntryAgendaUI-to-AddEntryAgendaController" style="stroke:#181818;stroke-width:0.6999999999999998;stroke-dasharray:7.0,7.0;"/><polygon fill="#181818" points="393.4,80.997,396.2,74.697,393.4,77.497,390.6,74.697,393.4,80.997" style="stroke:#181818;stroke-width:0.6999999999999998;"/></g><!--link AddEntryAgendaController to Repositories--><g id="link_AddEntryAgendaController_Repositories"><path codeLine="83" d="M413.952,179.956 C421.386,197.575 428.1538,213.5921 435.5878,231.2181 " fill="none" id="AddEntryAgendaController-to-Repositories" style="stroke:#181818;stroke-width:0.6999999999999998;stroke-dasharray:7.0,7.0;"/><polygon fill="#181818" points="437.22,235.088,437.3517,228.1951,435.8599,231.8631,432.1918,230.3713,437.22,235.088" style="stroke:#181818;stroke-width:0.6999999999999998;"/><text fill="#000000" font-family="sans-serif" font-size="9.1" lengthAdjust="spacing" textLength="46.9" x="428.4" y="211.4198">repositories</text></g><!--link AddEntryAgendaController to Agenda--><g id="link_AddEntryAgendaController_Agenda"><path codeLine="84" d="M369.019,180.18 C355.579,207.144 341.6,235.2 341.6,235.2 C341.6,235.2 341.6,333.9 341.6,333.9 C341.6,333.9 359.9732,352.2732 381.2252,373.5252 " fill="none" id="AddEntryAgendaController-to-Agenda" style="stroke:#181818;stroke-width:0.6999999999999998;stroke-dasharray:7.0,7.0;"/><polygon fill="#181818" points="384.195,376.495,381.7201,370.0603,381.7201,374.0201,377.7603,374.0201,384.195,376.495" style="stroke:#181818;stroke-width:0.6999999999999998;"/><text fill="#000000" font-family="sans-serif" font-size="9.1" lengthAdjust="spacing" textLength="29.4" x="342.3" y="288.4198">agenda</text></g><!--link AddEntryAgendaController to ToDoList--><g id="link_AddEntryAgendaController_ToDoList"><path codeLine="85" d="M349.909,180.18 C325.941,207.144 301,235.2 301,235.2 C301,235.2 251.7325,342.7582 229.2205,391.9262 " fill="none" id="AddEntryAgendaController-to-ToDoList" style="stroke:#181818;stroke-width:0.6999999999999998;stroke-dasharray:7.0,7.0;"/><polygon fill="#181818" points="227.472,395.745,232.6405,391.1825,228.929,392.5627,227.5488,388.8512,227.472,395.745" style="stroke:#181818;stroke-width:0.6999999999999998;"/><text fill="#000000" font-family="sans-serif" font-size="9.1" lengthAdjust="spacing" textLength="33.6" x="301.7" y="288.4198">toDoList</text></g><!--link AddEntryAgendaController to AuthenticationRepository--><g id="link_AddEntryAgendaController_AuthenticationRepository"><path codeLine="86" d="M489.643,180.026 C542.934,207.039 598.5,235.2 598.5,235.2 C598.5,235.2 625.5303,342.5042 637.9133,391.6722 " fill="none" id="AddEntryAgendaController-to-AuthenticationRepository" style="stroke:#181818;stroke-width:0.6999999999999998;stroke-dasharray:7.0,7.0;"/><polygon fill="#181818" points="638.939,395.745,640.1156,388.9519,638.0842,392.351,634.6852,390.3196,638.939,395.745" style="stroke:#181818;stroke-width:0.6999999999999998;"/><text fill="#000000" font-family="sans-serif" font-size="9.1" lengthAdjust="spacing" textLength="100.1" x="623.7" y="288.4198">authenticationRepository</text></g><!--link AuthenticationRepository to UserSession--><g id="link_AuthenticationRepository_UserSession"><path codeLine="87" d="M644.7,443.016 C644.7,462.819 644.7,487.025 644.7,506.758 " fill="none" id="AuthenticationRepository-to-UserSession" style="stroke:#181818;stroke-width:0.6999999999999998;stroke-dasharray:7.0,7.0;"/><polygon fill="#181818" points="644.7,510.958,647.5,504.658,644.7,507.458,641.9,504.658,644.7,510.958" style="stroke:#181818;stroke-width:0.6999999999999998;"/></g><!--link Repositories to Repositories--><g id="link_Repositories_Repositories"><path codeLine="88" d="M530.782,272.006 C545.006,273.462 555.1,277.648 555.1,284.55 C555.1,291.452 549.1842,295.2103 534.9602,296.6663 " fill="none" id="Repositories-to-Repositories" style="stroke:#181818;stroke-width:0.6999999999999998;"/><polygon fill="#181818" points="530.782,297.094,537.3344,299.2379,534.2638,296.7376,536.7641,293.667,530.782,297.094" style="stroke:#181818;stroke-width:0.6999999999999998;"/><text fill="#000000" font-family="sans-serif" font-size="9.1" lengthAdjust="spacing" textLength="34.3" x="559.3" y="288.4198">instance</text></g><!--link Repositories to Agenda--><g id="link_Repositories_Agenda"><path codeLine="89" d="M446.292,333.956 C443.009,347.872 440.4182,358.8274 437.2332,372.3164 " fill="none" id="Repositories-to-Agenda" style="stroke:#181818;stroke-width:0.6999999999999998;"/><polygon fill="#181818" points="436.268,376.404,440.4408,370.916,437.0723,372.9977,434.9907,369.6292,436.268,376.404" style="stroke:#181818;stroke-width:0.6999999999999998;"/><text fill="#000000" font-family="sans-serif" font-size="9.1" lengthAdjust="spacing" textLength="4.9" x="432.2373" y="368.6682">1</text></g><!--link Repositories to ToDoList--><g id="link_Repositories_ToDoList"><path codeLine="90" d="M384.818,324.121 C338.142,348.985 286.3,376.6 286.3,376.6 C286.3,376.6 274.5403,383.7253 258.2863,393.5813 " fill="none" id="Repositories-to-ToDoList" style="stroke:#181818;stroke-width:0.6999999999999998;"/><polygon fill="#181818" points="254.695,395.759,261.5338,394.8867,257.6878,393.9443,258.6302,390.0982,254.695,395.759" style="stroke:#181818;stroke-width:0.6999999999999998;"/><text fill="#000000" font-family="sans-serif" font-size="9.1" lengthAdjust="spacing" textLength="4.9" x="256.7339" y="387.9189">1</text></g><!--link Repositories to AuthenticationRepository--><g id="link_Repositories_AuthenticationRepository"><path codeLine="91" d="M526.071,333.956 C555.681,355.089 585.5261,376.3795 609.2771,393.3265 " fill="none" id="Repositories-to-AuthenticationRepository" style="stroke:#181818;stroke-width:0.6999999999999998;"/><polygon fill="#181818" points="612.696,395.766,609.194,389.8275,609.8469,393.7331,605.9413,394.386,612.696,395.766" style="stroke:#181818;stroke-width:0.6999999999999998;"/><text fill="#000000" font-family="sans-serif" font-size="9.1" lengthAdjust="spacing" textLength="4.9" x="601.0129" y="387.9273">1</text></g><!--link Agenda to Entry--><g id="link_Agenda_Entry"><path codeLine="92" d="M428.113,462.035 C428.722,476.21 429.2055,487.5119 429.7655,500.4619 " fill="none" id="Agenda-to-Entry" style="stroke:#181818;stroke-width:0.6999999999999998;"/><polygon fill="#181818" points="429.947,504.658,432.4722,498.2429,429.7958,501.1613,426.8774,498.4849,429.947,504.658" style="stroke:#181818;stroke-width:0.6999999999999998;"/><text fill="#000000" font-family="sans-serif" font-size="9.1" lengthAdjust="spacing" textLength="3.5" x="425.9684" y="496.8842">*</text></g><!--link ToDoList to Task--><g id="link_ToDoList_Task"><path codeLine="93" d="M215.495,442.869 C213.087,479.381 208.5679,548.0811 204.9839,602.5201 " fill="none" id="ToDoList-to-Task" style="stroke:#181818;stroke-width:0.6999999999999998;"/><polygon fill="#181818" points="204.708,606.711,207.9158,600.6085,204.9379,603.2186,202.3279,600.2407,204.708,606.711" style="stroke:#181818;stroke-width:0.6999999999999998;"/><text fill="#000000" font-family="sans-serif" font-size="9.1" lengthAdjust="spacing" textLength="3.5" x="201.4105" y="599.1248">*</text></g><!--link Entry to Task--><g id="link_Entry_Task"><path codeLine="94" d="M383.054,564.326 C362.558,576.751 341.3068,589.6311 316.6248,604.5901 " fill="none" id="Entry-to-Task" style="stroke:#181818;stroke-width:0.6999999999999998;"/><polygon fill="#181818" points="313.033,606.767,319.872,605.8962,316.0262,604.9529,316.9695,601.1071,313.033,606.767" style="stroke:#181818;stroke-width:0.6999999999999998;"/><text fill="#000000" font-family="sans-serif" font-size="9.1" lengthAdjust="spacing" textLength="4.9" x="316.5842" y="598.9507">1</text></g><!--link Entry to AgendaStatus--><g id="link_Entry_AgendaStatus"><path codeLine="95" d="M448.224,564.501 C459.753,584.381 473.0671,607.3337 485.8981,629.4607 " fill="none" id="Entry-to-AgendaStatus" style="stroke:#181818;stroke-width:0.6999999999999998;"/><polygon fill="#181818" points="488.005,633.094,487.2669,626.2394,486.2493,630.0662,482.4225,629.0486,488.005,633.094" style="stroke:#181818;stroke-width:0.6999999999999998;"/><text fill="#000000" font-family="sans-serif" font-size="9.1" lengthAdjust="spacing" textLength="4.9" x="480.001" y="625.3744">1</text></g><!--link Task to TaskStatus--><g id="link_Task_TaskStatus"><path codeLine="96" d="M200.2,744.912 C200.2,759.899 200.2,770.798 200.2,783.237 " fill="none" id="Task-to-TaskStatus" style="stroke:#181818;stroke-width:0.6999999999999998;"/><polygon fill="#181818" points="200.2,787.437,203,781.137,200.2,783.937,197.4,781.137,200.2,787.437" style="stroke:#181818;stroke-width:0.6999999999999998;"/><text fill="#000000" font-family="sans-serif" font-size="9.1" lengthAdjust="spacing" textLength="4.9" x="194.9095" y="779.6598">1</text></g><!--link Entry to GreenSpaceManager--><g id="link_Entry_GreenSpaceManager"><path codeLine="97" d="M427.889,564.298 C421.351,621.908 407.4,744.8 407.4,744.8 C407.4,744.8 400.6285,763.5503 393.4605,783.4163 " fill="none" id="Entry-to-GreenSpaceManager" style="stroke:#181818;stroke-width:0.6999999999999998;"/><polygon fill="#181818" points="392.035,787.367,396.807,782.3913,393.2229,784.0748,391.5394,780.4906,392.035,787.367" style="stroke:#181818;stroke-width:0.6999999999999998;"/><text fill="#000000" font-family="sans-serif" font-size="9.1" lengthAdjust="spacing" textLength="4.9" x="388.4235" y="779.5787">1</text></g><!--link Task to GreenSpaceManager--><g id="link_Task_GreenSpaceManager"><path codeLine="98" d="M288.729,744.912 C308.14,759.899 324.3593,772.4316 340.4733,784.8706 " fill="none" id="Task-to-GreenSpaceManager" style="stroke:#181818;stroke-width:0.6999999999999998;"/><polygon fill="#181818" points="343.798,787.437,340.522,781.3709,341.0274,785.2983,337.1,785.8038,343.798,787.437" style="stroke:#181818;stroke-width:0.6999999999999998;"/><text fill="#000000" font-family="sans-serif" font-size="9.1" lengthAdjust="spacing" textLength="4.9" x="332.4988" y="779.6598">1</text></g><!--SRC=[XLJ1Rjim3BthAuHUwcvEiLrp6935MH6WJOev_G3DPXoXjcH8yjPisB-FicHRZkCkbyYFV2H5Fl5Mlt9HCyKgMaaXivEI5L2Z6Y23fMRPAoiWDUSIg8BCC56KeOC-iLp-ugAWHrRgq59o0UPS0wrbUROVvFQAKIeZIS3AIgRroXZ5VpG6jfaKAVyDz1CXjoKS3JMIAbwS3CsvBOTBGKZBeQiytmYZpgi2HCvUjlGF-NlTjfPubcK92dqe_ZxEsIFM0Z6cJUGZroQch34d48Pdp2R_3hNKt4XrldEHs2XIf0rJ1hkJC0CnvIA7D-UuAC0Sc7xzUjvQCBemFQHFtt0UAMYDMI8Vt7EqhGInuNfjikuoxvPWa1_JGbT1U9-suqLZQqp1ejxf9ojvZf6SvpNBYyQ-pOJeAsxflk25hOo6PRfxk1JJyeCm1p-MxkhNcpguewrBcgB4KBM6cn96I0uwKxnkfTNYcmeKjZ8x9r0e07ImV_lZYqET4nU6mbkDaeGyQHGRw3RfmKhTwjr13yWNARuje4L_T3Umtf628oYCZHSEgealCyUJZ76R90wYUkLa9tou-8oPQRHjAVu5VUbLp47xzeomJdyK-xiLICVIeZkw73aDBbvu0QcRKuYjPXwI4pQ8flAwTbNxkJq_hdQxJUBE-_JmlE- -rglTUlFeFnA4-p2sf-CWcrsotJsuy_VzUfEco1kUqqnbWShMZS816QlruOts0G8uu5XqcuT-WmwUcC1Leox42HNZfUDFNAFMs0QRRBxx-o-pAu_CxaBB2WUwn8KVZFTTdWENrEtBztqxCIpxhVgVs3FZMCxkOZ8xGHilc0u9xqiNYyi6S2_sgT_Dvnj_wUksxf8ppDd2tIPl_JxSk3L9-YtNmLRGnAtGFjyK2byFQLTVwEpnCMMYiZ5lQlu7]--></g></svg>