<?xml version="1.0" encoding="us-ascii" standalone="no"?><svg xmlns="http://www.w3.org/2000/svg" xmlns:xlink="http://www.w3.org/1999/xlink" contentStyleType="text/css" height="608.5px" preserveAspectRatio="none" style="width:521px;height:608px;background:#FFFFFF;" version="1.1" viewBox="0 0 521 608" width="521px" zoomAndPan="magnify"><defs/><g><!--class AddEntryAgendaUI--><g id="elem_AddEntryAgendaUI"><rect codeLine="11" fill="#F1F1F1" height="24" id="AddEntryAgendaUI" rx="1.25" ry="1.25" style="stroke:#181818;stroke-width:0.25;" width="75.5" x="243.25" y="3.5"/><ellipse cx="250.75" cy="11.5" fill="#ADD1B2" rx="5.5" ry="5.5" style="stroke:#181818;stroke-width:0.5;"/><path d="M252.1328,9.4375 Q252.2109,9.3281 252.3047,9.2734 Q252.3984,9.2188 252.5078,9.2188 Q252.6953,9.2188 252.8125,9.3516 Q252.9297,9.4766 252.9297,9.7813 L252.9297,10.5078 Q252.9297,10.8125 252.8125,10.9453 Q252.6953,11.0781 252.5078,11.0781 Q252.3359,11.0781 252.2344,10.9766 Q252.1328,10.8828 252.0781,10.625 Q252.0547,10.4453 251.9609,10.3516 Q251.7969,10.1641 251.4922,10.0547 Q251.1875,9.9453 250.875,9.9453 Q250.4922,9.9453 250.1719,10.1094 Q249.8594,10.2734 249.6094,10.6484 Q249.3672,11.0234 249.3672,11.5391 L249.3672,12.0859 Q249.3672,12.7031 249.8125,13.1172 Q250.2578,13.5234 251.0547,13.5234 Q251.5234,13.5234 251.8516,13.3984 Q252.0469,13.3203 252.2578,13.1016 Q252.3906,12.9688 252.4609,12.9297 Q252.5391,12.8906 252.6406,12.8906 Q252.8047,12.8906 252.9297,13.0234 Q253.0625,13.1484 253.0625,13.3203 Q253.0625,13.4922 252.8906,13.6953 Q252.6406,13.9844 252.2422,14.1484 Q251.7031,14.375 251.0547,14.375 Q250.2969,14.375 249.6953,14.0625 Q249.2031,13.8125 248.8594,13.2813 Q248.5156,12.7422 248.5156,12.1016 L248.5156,11.5234 Q248.5156,10.8594 248.8203,10.2891 Q249.1328,9.7109 249.6797,9.4063 Q250.2266,9.0938 250.8438,9.0938 Q251.2109,9.0938 251.5313,9.1797 Q251.8594,9.2578 252.1328,9.4375 Z " fill="#000000"/><text fill="#000000" font-family="sans-serif" font-size="7" lengthAdjust="spacing" textLength="59.5" x="257.75" y="14.3984">AddEntryAgendaUI</text><line style="stroke:#181818;stroke-width:0.25;" x1="243.75" x2="318.25" y1="19.5" y2="19.5"/><line style="stroke:#181818;stroke-width:0.25;" x1="243.75" x2="318.25" y1="23.5" y2="23.5"/></g><!--class AddEntryAgendaController--><g id="elem_AddEntryAgendaController"><rect codeLine="14" fill="#F1F1F1" height="70.5527" id="AddEntryAgendaController" rx="1.25" ry="1.25" style="stroke:#181818;stroke-width:0.25;" width="236" x="163" y="58"/><ellipse cx="236.625" cy="66" fill="#ADD1B2" rx="5.5" ry="5.5" style="stroke:#181818;stroke-width:0.5;"/><path d="M238.0078,63.9375 Q238.0859,63.8281 238.1797,63.7734 Q238.2734,63.7188 238.3828,63.7188 Q238.5703,63.7188 238.6875,63.8516 Q238.8047,63.9766 238.8047,64.2813 L238.8047,65.0078 Q238.8047,65.3125 238.6875,65.4453 Q238.5703,65.5781 238.3828,65.5781 Q238.2109,65.5781 238.1094,65.4766 Q238.0078,65.3828 237.9531,65.125 Q237.9297,64.9453 237.8359,64.8516 Q237.6719,64.6641 237.3672,64.5547 Q237.0625,64.4453 236.75,64.4453 Q236.3672,64.4453 236.0469,64.6094 Q235.7344,64.7734 235.4844,65.1484 Q235.2422,65.5234 235.2422,66.0391 L235.2422,66.5859 Q235.2422,67.2031 235.6875,67.6172 Q236.1328,68.0234 236.9297,68.0234 Q237.3984,68.0234 237.7266,67.8984 Q237.9219,67.8203 238.1328,67.6016 Q238.2656,67.4688 238.3359,67.4297 Q238.4141,67.3906 238.5156,67.3906 Q238.6797,67.3906 238.8047,67.5234 Q238.9375,67.6484 238.9375,67.8203 Q238.9375,67.9922 238.7656,68.1953 Q238.5156,68.4844 238.1172,68.6484 Q237.5781,68.875 236.9297,68.875 Q236.1719,68.875 235.5703,68.5625 Q235.0781,68.3125 234.7344,67.7813 Q234.3906,67.2422 234.3906,66.6016 L234.3906,66.0234 Q234.3906,65.3594 234.6953,64.7891 Q235.0078,64.2109 235.5547,63.9063 Q236.1016,63.5938 236.7188,63.5938 Q237.0859,63.5938 237.4063,63.6797 Q237.7344,63.7578 238.0078,63.9375 Z " fill="#000000"/><text fill="#000000" font-family="sans-serif" font-size="7" lengthAdjust="spacing" textLength="84.5" x="246.875" y="68.8984">AddEntryAgendaController</text><line style="stroke:#181818;stroke-width:0.25;" x1="163.5" x2="398.5" y1="74" y2="74"/><line style="stroke:#181818;stroke-width:0.25;" x1="163.5" x2="398.5" y1="78" y2="78"/><text fill="#000000" font-family="sans-serif" font-size="7" lengthAdjust="spacing" textLength="230" x="166" y="87.5537">+AddEntryAgendaController(agenda, toDoList, authenticationRepository)</text><text fill="#000000" font-family="sans-serif" font-size="7" lengthAdjust="spacing" textLength="121" x="166" y="96.8643">+addEntryAgenda(startingDate, index)</text><text fill="#000000" font-family="sans-serif" font-size="7" lengthAdjust="spacing" textLength="74" x="166" y="106.1748">-getTaskByIndex(index)</text><text fill="#000000" font-family="sans-serif" font-size="7" lengthAdjust="spacing" textLength="74.5" x="166" y="115.4854">-getGSMFromSession()</text><text fill="#000000" font-family="sans-serif" font-size="7" lengthAdjust="spacing" textLength="49" x="166" y="124.7959">+getTasksList()</text></g><!--class Agenda--><g id="elem_Agenda"><rect codeLine="22" fill="#F1F1F1" height="61.2422" id="Agenda" rx="1.25" ry="1.25" style="stroke:#181818;stroke-width:0.25;" width="182" x="213.5" y="269"/><ellipse cx="290.125" cy="277" fill="#ADD1B2" rx="5.5" ry="5.5" style="stroke:#181818;stroke-width:0.5;"/><path d="M291.5078,274.9375 Q291.5859,274.8281 291.6797,274.7734 Q291.7734,274.7188 291.8828,274.7188 Q292.0703,274.7188 292.1875,274.8516 Q292.3047,274.9766 292.3047,275.2813 L292.3047,276.0078 Q292.3047,276.3125 292.1875,276.4453 Q292.0703,276.5781 291.8828,276.5781 Q291.7109,276.5781 291.6094,276.4766 Q291.5078,276.3828 291.4531,276.125 Q291.4297,275.9453 291.3359,275.8516 Q291.1719,275.6641 290.8672,275.5547 Q290.5625,275.4453 290.25,275.4453 Q289.8672,275.4453 289.5469,275.6094 Q289.2344,275.7734 288.9844,276.1484 Q288.7422,276.5234 288.7422,277.0391 L288.7422,277.5859 Q288.7422,278.2031 289.1875,278.6172 Q289.6328,279.0234 290.4297,279.0234 Q290.8984,279.0234 291.2266,278.8984 Q291.4219,278.8203 291.6328,278.6016 Q291.7656,278.4688 291.8359,278.4297 Q291.9141,278.3906 292.0156,278.3906 Q292.1797,278.3906 292.3047,278.5234 Q292.4375,278.6484 292.4375,278.8203 Q292.4375,278.9922 292.2656,279.1953 Q292.0156,279.4844 291.6172,279.6484 Q291.0781,279.875 290.4297,279.875 Q289.6719,279.875 289.0703,279.5625 Q288.5781,279.3125 288.2344,278.7813 Q287.8906,278.2422 287.8906,277.6016 L287.8906,277.0234 Q287.8906,276.3594 288.1953,275.7891 Q288.5078,275.2109 289.0547,274.9063 Q289.6016,274.5938 290.2188,274.5938 Q290.5859,274.5938 290.9063,274.6797 Q291.2344,274.7578 291.5078,274.9375 Z " fill="#000000"/><text fill="#000000" font-family="sans-serif" font-size="7" lengthAdjust="spacing" textLength="24.5" x="300.375" y="279.8984">Agenda</text><line style="stroke:#181818;stroke-width:0.25;" x1="214" x2="395" y1="285" y2="285"/><line style="stroke:#181818;stroke-width:0.25;" x1="214" x2="395" y1="289" y2="289"/><text fill="#000000" font-family="sans-serif" font-size="7" lengthAdjust="spacing" textLength="176" x="216.5" y="298.5537">+addEntryAgenda(startingDate, task, gsmFromSession)</text><text fill="#000000" font-family="sans-serif" font-size="7" lengthAdjust="spacing" textLength="110.5" x="216.5" y="307.8643">-addEntry(gsmFromSession, entry)</text><text fill="#000000" font-family="sans-serif" font-size="7" lengthAdjust="spacing" textLength="64.5" x="216.5" y="317.1748">-validateEntry(entry)</text><text fill="#000000" font-family="sans-serif" font-size="7" lengthAdjust="spacing" textLength="121" x="216.5" y="326.4854">-validateUser(gsmFromSession, entry)</text></g><!--class Entry--><g id="elem_Entry"><rect codeLine="29" fill="#F1F1F1" height="42.6211" id="Entry" rx="1.25" ry="1.25" style="stroke:#181818;stroke-width:0.25;" width="87" x="264.5" y="360.5"/><ellipse cx="297.625" cy="368.5" fill="#ADD1B2" rx="5.5" ry="5.5" style="stroke:#181818;stroke-width:0.5;"/><path d="M299.0078,366.4375 Q299.0859,366.3281 299.1797,366.2734 Q299.2734,366.2188 299.3828,366.2188 Q299.5703,366.2188 299.6875,366.3516 Q299.8047,366.4766 299.8047,366.7813 L299.8047,367.5078 Q299.8047,367.8125 299.6875,367.9453 Q299.5703,368.0781 299.3828,368.0781 Q299.2109,368.0781 299.1094,367.9766 Q299.0078,367.8828 298.9531,367.625 Q298.9297,367.4453 298.8359,367.3516 Q298.6719,367.1641 298.3672,367.0547 Q298.0625,366.9453 297.75,366.9453 Q297.3672,366.9453 297.0469,367.1094 Q296.7344,367.2734 296.4844,367.6484 Q296.2422,368.0234 296.2422,368.5391 L296.2422,369.0859 Q296.2422,369.7031 296.6875,370.1172 Q297.1328,370.5234 297.9297,370.5234 Q298.3984,370.5234 298.7266,370.3984 Q298.9219,370.3203 299.1328,370.1016 Q299.2656,369.9688 299.3359,369.9297 Q299.4141,369.8906 299.5156,369.8906 Q299.6797,369.8906 299.8047,370.0234 Q299.9375,370.1484 299.9375,370.3203 Q299.9375,370.4922 299.7656,370.6953 Q299.5156,370.9844 299.1172,371.1484 Q298.5781,371.375 297.9297,371.375 Q297.1719,371.375 296.5703,371.0625 Q296.0781,370.8125 295.7344,370.2813 Q295.3906,369.7422 295.3906,369.1016 L295.3906,368.5234 Q295.3906,367.8594 295.6953,367.2891 Q296.0078,366.7109 296.5547,366.4063 Q297.1016,366.0938 297.7188,366.0938 Q298.0859,366.0938 298.4063,366.1797 Q298.7344,366.2578 299.0078,366.4375 Z " fill="#000000"/><text fill="#000000" font-family="sans-serif" font-size="7" lengthAdjust="spacing" textLength="16.5" x="307.875" y="371.3984">Entry</text><line style="stroke:#181818;stroke-width:0.25;" x1="265" x2="351" y1="376.5" y2="376.5"/><text fill="#000000" font-family="sans-serif" font-size="7" lengthAdjust="spacing" textLength="58" x="267.5" y="386.0537">-Date startingDate</text><line style="stroke:#181818;stroke-width:0.25;" x1="265" x2="351" y1="389.8105" y2="389.8105"/><text fill="#000000" font-family="sans-serif" font-size="7" lengthAdjust="spacing" textLength="81" x="267.5" y="399.3643">+Entry(startingDate, task)</text></g><!--class ToDoList--><g id="elem_ToDoList"><rect codeLine="34" fill="#F1F1F1" height="33.3105" id="ToDoList" rx="1.25" ry="1.25" style="stroke:#181818;stroke-width:0.25;" width="81.5" x="114.25" y="282.75"/><ellipse cx="138.625" cy="290.75" fill="#ADD1B2" rx="5.5" ry="5.5" style="stroke:#181818;stroke-width:0.5;"/><path d="M140.0078,288.6875 Q140.0859,288.5781 140.1797,288.5234 Q140.2734,288.4688 140.3828,288.4688 Q140.5703,288.4688 140.6875,288.6016 Q140.8047,288.7266 140.8047,289.0313 L140.8047,289.7578 Q140.8047,290.0625 140.6875,290.1953 Q140.5703,290.3281 140.3828,290.3281 Q140.2109,290.3281 140.1094,290.2266 Q140.0078,290.1328 139.9531,289.875 Q139.9297,289.6953 139.8359,289.6016 Q139.6719,289.4141 139.3672,289.3047 Q139.0625,289.1953 138.75,289.1953 Q138.3672,289.1953 138.0469,289.3594 Q137.7344,289.5234 137.4844,289.8984 Q137.2422,290.2734 137.2422,290.7891 L137.2422,291.3359 Q137.2422,291.9531 137.6875,292.3672 Q138.1328,292.7734 138.9297,292.7734 Q139.3984,292.7734 139.7266,292.6484 Q139.9219,292.5703 140.1328,292.3516 Q140.2656,292.2188 140.3359,292.1797 Q140.4141,292.1406 140.5156,292.1406 Q140.6797,292.1406 140.8047,292.2734 Q140.9375,292.3984 140.9375,292.5703 Q140.9375,292.7422 140.7656,292.9453 Q140.5156,293.2344 140.1172,293.3984 Q139.5781,293.625 138.9297,293.625 Q138.1719,293.625 137.5703,293.3125 Q137.0781,293.0625 136.7344,292.5313 Q136.3906,291.9922 136.3906,291.3516 L136.3906,290.7734 Q136.3906,290.1094 136.6953,289.5391 Q137.0078,288.9609 137.5547,288.6563 Q138.1016,288.3438 138.7188,288.3438 Q139.0859,288.3438 139.4063,288.4297 Q139.7344,288.5078 140.0078,288.6875 Z " fill="#000000"/><text fill="#000000" font-family="sans-serif" font-size="7" lengthAdjust="spacing" textLength="28.5" x="148.875" y="293.6484">ToDoList</text><line style="stroke:#181818;stroke-width:0.25;" x1="114.75" x2="195.25" y1="298.75" y2="298.75"/><line style="stroke:#181818;stroke-width:0.25;" x1="114.75" x2="195.25" y1="302.75" y2="302.75"/><text fill="#000000" font-family="sans-serif" font-size="7" lengthAdjust="spacing" textLength="75.5" x="117.25" y="312.3037">+getTaskByIndex(index)</text></g><!--class Task--><g id="elem_Task"><rect codeLine="38" fill="#F1F1F1" height="98.4844" id="Task" rx="1.25" ry="1.25" style="stroke:#181818;stroke-width:0.25;" width="279" x="3.5" y="433.5"/><ellipse cx="133.125" cy="441.5" fill="#ADD1B2" rx="5.5" ry="5.5" style="stroke:#181818;stroke-width:0.5;"/><path d="M134.5078,439.4375 Q134.5859,439.3281 134.6797,439.2734 Q134.7734,439.2188 134.8828,439.2188 Q135.0703,439.2188 135.1875,439.3516 Q135.3047,439.4766 135.3047,439.7813 L135.3047,440.5078 Q135.3047,440.8125 135.1875,440.9453 Q135.0703,441.0781 134.8828,441.0781 Q134.7109,441.0781 134.6094,440.9766 Q134.5078,440.8828 134.4531,440.625 Q134.4297,440.4453 134.3359,440.3516 Q134.1719,440.1641 133.8672,440.0547 Q133.5625,439.9453 133.25,439.9453 Q132.8672,439.9453 132.5469,440.1094 Q132.2344,440.2734 131.9844,440.6484 Q131.7422,441.0234 131.7422,441.5391 L131.7422,442.0859 Q131.7422,442.7031 132.1875,443.1172 Q132.6328,443.5234 133.4297,443.5234 Q133.8984,443.5234 134.2266,443.3984 Q134.4219,443.3203 134.6328,443.1016 Q134.7656,442.9688 134.8359,442.9297 Q134.9141,442.8906 135.0156,442.8906 Q135.1797,442.8906 135.3047,443.0234 Q135.4375,443.1484 135.4375,443.3203 Q135.4375,443.4922 135.2656,443.6953 Q135.0156,443.9844 134.6172,444.1484 Q134.0781,444.375 133.4297,444.375 Q132.6719,444.375 132.0703,444.0625 Q131.5781,443.8125 131.2344,443.2813 Q130.8906,442.7422 130.8906,442.1016 L130.8906,441.5234 Q130.8906,440.8594 131.1953,440.2891 Q131.5078,439.7109 132.0547,439.4063 Q132.6016,439.0938 133.2188,439.0938 Q133.5859,439.0938 133.9063,439.1797 Q134.2344,439.2578 134.5078,439.4375 Z " fill="#000000"/><text fill="#000000" font-family="sans-serif" font-size="7" lengthAdjust="spacing" textLength="15.5" x="143.375" y="444.3984">Task</text><line style="stroke:#181818;stroke-width:0.25;" x1="4" x2="282" y1="449.5" y2="449.5"/><text fill="#000000" font-family="sans-serif" font-size="7" lengthAdjust="spacing" textLength="34" x="6.5" y="459.0537">-String title</text><text fill="#000000" font-family="sans-serif" font-size="7" lengthAdjust="spacing" textLength="57.5" x="6.5" y="468.3643">-String description</text><text fill="#000000" font-family="sans-serif" font-size="7" lengthAdjust="spacing" textLength="119.5" x="6.5" y="477.6748">-EmergencyDegree degreeOfUrgency</text><text fill="#000000" font-family="sans-serif" font-size="7" lengthAdjust="spacing" textLength="67.5" x="6.5" y="486.9854">-int expectedDuration</text><text fill="#000000" font-family="sans-serif" font-size="7" lengthAdjust="spacing" textLength="49.5" x="6.5" y="496.2959">-TaskType type</text><text fill="#000000" font-family="sans-serif" font-size="7" lengthAdjust="spacing" textLength="83" x="6.5" y="505.6064">-GreenSpace greenSpace</text><line style="stroke:#181818;stroke-width:0.25;" x1="4" x2="282" y1="509.3633" y2="509.3633"/><text fill="#000000" font-family="sans-serif" font-size="7" lengthAdjust="spacing" textLength="273" x="6.5" y="518.917">+Task(reference, description, degreeOfUrgency, expectedDuration, type, greenSpace)</text><text fill="#000000" font-family="sans-serif" font-size="7" lengthAdjust="spacing" textLength="71.5" x="6.5" y="528.2275">+changeStatus(status)</text></g><!--class Repositories--><g id="elem_Repositories"><rect codeLine="49" fill="#F1F1F1" height="70.5527" id="Repositories" rx="1.25" ry="1.25" style="stroke:#181818;stroke-width:0.25;" width="104" x="275" y="168"/><ellipse cx="305.125" cy="176" fill="#ADD1B2" rx="5.5" ry="5.5" style="stroke:#181818;stroke-width:0.5;"/><path d="M306.5078,173.9375 Q306.5859,173.8281 306.6797,173.7734 Q306.7734,173.7188 306.8828,173.7188 Q307.0703,173.7188 307.1875,173.8516 Q307.3047,173.9766 307.3047,174.2813 L307.3047,175.0078 Q307.3047,175.3125 307.1875,175.4453 Q307.0703,175.5781 306.8828,175.5781 Q306.7109,175.5781 306.6094,175.4766 Q306.5078,175.3828 306.4531,175.125 Q306.4297,174.9453 306.3359,174.8516 Q306.1719,174.6641 305.8672,174.5547 Q305.5625,174.4453 305.25,174.4453 Q304.8672,174.4453 304.5469,174.6094 Q304.2344,174.7734 303.9844,175.1484 Q303.7422,175.5234 303.7422,176.0391 L303.7422,176.5859 Q303.7422,177.2031 304.1875,177.6172 Q304.6328,178.0234 305.4297,178.0234 Q305.8984,178.0234 306.2266,177.8984 Q306.4219,177.8203 306.6328,177.6016 Q306.7656,177.4688 306.8359,177.4297 Q306.9141,177.3906 307.0156,177.3906 Q307.1797,177.3906 307.3047,177.5234 Q307.4375,177.6484 307.4375,177.8203 Q307.4375,177.9922 307.2656,178.1953 Q307.0156,178.4844 306.6172,178.6484 Q306.0781,178.875 305.4297,178.875 Q304.6719,178.875 304.0703,178.5625 Q303.5781,178.3125 303.2344,177.7813 Q302.8906,177.2422 302.8906,176.6016 L302.8906,176.0234 Q302.8906,175.3594 303.1953,174.7891 Q303.5078,174.2109 304.0547,173.9063 Q304.6016,173.5938 305.2188,173.5938 Q305.5859,173.5938 305.9063,173.6797 Q306.2344,173.7578 306.5078,173.9375 Z " fill="#000000"/><text fill="#000000" font-family="sans-serif" font-size="7" lengthAdjust="spacing" textLength="39.5" x="315.375" y="178.8984">Repositories</text><line style="stroke:#181818;stroke-width:0.25;" x1="275.5" x2="378.5" y1="184" y2="184"/><line style="stroke:#181818;stroke-width:0.25;" x1="275.5" x2="378.5" y1="188" y2="188"/><text fill="#000000" font-family="sans-serif" font-size="7" lengthAdjust="spacing" textLength="47" x="278" y="197.5537">-Repositories()</text><text fill="#000000" font-family="sans-serif" font-size="7" lengthAdjust="spacing" textLength="91" x="278" y="206.8643">+getInstance() : Repositories</text><text fill="#000000" font-family="sans-serif" font-size="7" lengthAdjust="spacing" textLength="43.5" x="278" y="216.1748">+getAgenda()</text><text fill="#000000" font-family="sans-serif" font-size="7" lengthAdjust="spacing" textLength="47.5" x="278" y="225.4854">+getToDoList()</text><text fill="#000000" font-family="sans-serif" font-size="7" lengthAdjust="spacing" textLength="98" x="278" y="234.7959">+getAuthenticationRepository()</text></g><!--class AgendaStatus--><g id="elem_AgendaStatus"><rect codeLine="57" fill="#F1F1F1" height="61.2422" id="AgendaStatus" rx="1.25" ry="1.25" style="stroke:#181818;stroke-width:0.25;" width="60.5" x="335.75" y="452.25"/><ellipse cx="343.25" cy="460.25" fill="#EB937F" rx="5.5" ry="5.5" style="stroke:#181818;stroke-width:0.5;"/><path d="M342.6797,460.6484 L342.6797,461.8984 L344.8438,461.8984 L344.8438,461.4375 Q344.8438,461.1328 344.9609,461 Q345.0859,460.8672 345.2734,460.8672 Q345.4609,460.8672 345.5781,461 Q345.6953,461.1328 345.6953,461.4375 L345.6953,462.75 L341.6953,462.75 Q341.3828,462.75 341.25,462.6328 Q341.125,462.5156 341.125,462.3203 Q341.125,462.1328 341.2578,462.0156 Q341.3906,461.8984 341.6953,461.8984 L341.8281,461.8984 L341.8281,458.5703 L341.6953,458.5703 Q341.3828,458.5703 341.25,458.4531 Q341.125,458.3359 341.125,458.1406 Q341.125,457.9531 341.25,457.8359 Q341.3828,457.7188 341.6953,457.7188 L345.5078,457.7188 L345.5078,459.0156 Q345.5078,459.3203 345.3906,459.4531 Q345.2813,459.5781 345.0859,459.5781 Q344.8984,459.5781 344.7813,459.4531 Q344.6641,459.3203 344.6641,459.0156 L344.6641,458.5703 L342.6797,458.5703 L342.6797,459.7969 L343.4219,459.7969 Q343.4219,459.4688 343.4844,459.375 Q343.6172,459.1719 343.8516,459.1719 Q344.0391,459.1719 344.1563,459.3047 Q344.2734,459.4297 344.2734,459.7344 L344.2734,460.7188 Q344.2734,460.9922 344.2109,461.0859 Q344.0781,461.2813 343.8516,461.2813 Q343.6172,461.2813 343.4844,461.0781 Q343.4219,460.9844 343.4219,460.6484 L342.6797,460.6484 Z " fill="#000000"/><text fill="#000000" font-family="sans-serif" font-size="7" lengthAdjust="spacing" textLength="44.5" x="350.25" y="463.1484">AgendaStatus</text><line style="stroke:#181818;stroke-width:0.25;" x1="336.25" x2="395.75" y1="468.25" y2="468.25"/><text fill="#000000" font-family="sans-serif" font-size="7" lengthAdjust="spacing" textLength="31.5" x="338.75" y="477.8037">PLANNED</text><text fill="#000000" font-family="sans-serif" font-size="7" lengthAdjust="spacing" textLength="43" x="338.75" y="487.1143">POSTPONED</text><text fill="#000000" font-family="sans-serif" font-size="7" lengthAdjust="spacing" textLength="37" x="338.75" y="496.4248">CANCELED</text><text fill="#000000" font-family="sans-serif" font-size="7" lengthAdjust="spacing" textLength="19.5" x="338.75" y="505.7354">DONE</text><line style="stroke:#181818;stroke-width:0.25;" x1="336.25" x2="395.75" y1="509.4922" y2="509.4922"/></g><!--class TaskStatus--><g id="elem_TaskStatus"><rect codeLine="64" fill="#F1F1F1" height="42.6211" id="TaskStatus" rx="1.25" ry="1.25" style="stroke:#181818;stroke-width:0.25;" width="51.5" x="117.25" y="562.5"/><ellipse cx="124.75" cy="570.5" fill="#EB937F" rx="5.5" ry="5.5" style="stroke:#181818;stroke-width:0.5;"/><path d="M124.1797,570.8984 L124.1797,572.1484 L126.3438,572.1484 L126.3438,571.6875 Q126.3438,571.3828 126.4609,571.25 Q126.5859,571.1172 126.7734,571.1172 Q126.9609,571.1172 127.0781,571.25 Q127.1953,571.3828 127.1953,571.6875 L127.1953,573 L123.1953,573 Q122.8828,573 122.75,572.8828 Q122.625,572.7656 122.625,572.5703 Q122.625,572.3828 122.7578,572.2656 Q122.8906,572.1484 123.1953,572.1484 L123.3281,572.1484 L123.3281,568.8203 L123.1953,568.8203 Q122.8828,568.8203 122.75,568.7031 Q122.625,568.5859 122.625,568.3906 Q122.625,568.2031 122.75,568.0859 Q122.8828,567.9688 123.1953,567.9688 L127.0078,567.9688 L127.0078,569.2656 Q127.0078,569.5703 126.8906,569.7031 Q126.7813,569.8281 126.5859,569.8281 Q126.3984,569.8281 126.2813,569.7031 Q126.1641,569.5703 126.1641,569.2656 L126.1641,568.8203 L124.1797,568.8203 L124.1797,570.0469 L124.9219,570.0469 Q124.9219,569.7188 124.9844,569.625 Q125.1172,569.4219 125.3516,569.4219 Q125.5391,569.4219 125.6563,569.5547 Q125.7734,569.6797 125.7734,569.9844 L125.7734,570.9688 Q125.7734,571.2422 125.7109,571.3359 Q125.5781,571.5313 125.3516,571.5313 Q125.1172,571.5313 124.9844,571.3281 Q124.9219,571.2344 124.9219,570.8984 L124.1797,570.8984 Z " fill="#000000"/><text fill="#000000" font-family="sans-serif" font-size="7" lengthAdjust="spacing" textLength="35.5" x="131.75" y="573.3984">TaskStatus</text><line style="stroke:#181818;stroke-width:0.25;" x1="117.75" x2="168.25" y1="578.5" y2="578.5"/><text fill="#000000" font-family="sans-serif" font-size="7" lengthAdjust="spacing" textLength="30" x="120.25" y="588.0537">PENDING</text><text fill="#000000" font-family="sans-serif" font-size="7" lengthAdjust="spacing" textLength="43" x="120.25" y="597.3643">PROCESSED</text><line style="stroke:#181818;stroke-width:0.25;" x1="117.75" x2="168.25" y1="601.1211" y2="601.1211"/></g><!--class AuthenticationRepository--><g id="elem_AuthenticationRepository"><rect codeLine="69" fill="#F1F1F1" height="33.3105" id="AuthenticationRepository" rx="1.25" ry="1.25" style="stroke:#181818;stroke-width:0.25;" width="95" x="413" y="282.75"/><ellipse cx="420.5" cy="290.75" fill="#ADD1B2" rx="5.5" ry="5.5" style="stroke:#181818;stroke-width:0.5;"/><path d="M421.8828,288.6875 Q421.9609,288.5781 422.0547,288.5234 Q422.1484,288.4688 422.2578,288.4688 Q422.4453,288.4688 422.5625,288.6016 Q422.6797,288.7266 422.6797,289.0313 L422.6797,289.7578 Q422.6797,290.0625 422.5625,290.1953 Q422.4453,290.3281 422.2578,290.3281 Q422.0859,290.3281 421.9844,290.2266 Q421.8828,290.1328 421.8281,289.875 Q421.8047,289.6953 421.7109,289.6016 Q421.5469,289.4141 421.2422,289.3047 Q420.9375,289.1953 420.625,289.1953 Q420.2422,289.1953 419.9219,289.3594 Q419.6094,289.5234 419.3594,289.8984 Q419.1172,290.2734 419.1172,290.7891 L419.1172,291.3359 Q419.1172,291.9531 419.5625,292.3672 Q420.0078,292.7734 420.8047,292.7734 Q421.2734,292.7734 421.6016,292.6484 Q421.7969,292.5703 422.0078,292.3516 Q422.1406,292.2188 422.2109,292.1797 Q422.2891,292.1406 422.3906,292.1406 Q422.5547,292.1406 422.6797,292.2734 Q422.8125,292.3984 422.8125,292.5703 Q422.8125,292.7422 422.6406,292.9453 Q422.3906,293.2344 421.9922,293.3984 Q421.4531,293.625 420.8047,293.625 Q420.0469,293.625 419.4453,293.3125 Q418.9531,293.0625 418.6094,292.5313 Q418.2656,291.9922 418.2656,291.3516 L418.2656,290.7734 Q418.2656,290.1094 418.5703,289.5391 Q418.8828,288.9609 419.4297,288.6563 Q419.9766,288.3438 420.5938,288.3438 Q420.9609,288.3438 421.2813,288.4297 Q421.6094,288.5078 421.8828,288.6875 Z " fill="#000000"/><text fill="#000000" font-family="sans-serif" font-size="7" lengthAdjust="spacing" textLength="79" x="427.5" y="293.6484">AuthenticationRepository</text><line style="stroke:#181818;stroke-width:0.25;" x1="413.5" x2="507.5" y1="298.75" y2="298.75"/><line style="stroke:#181818;stroke-width:0.25;" x1="413.5" x2="507.5" y1="302.75" y2="302.75"/><text fill="#000000" font-family="sans-serif" font-size="7" lengthAdjust="spacing" textLength="82.5" x="416" y="312.3037">+getCurrentUserSession()</text></g><!--class UserSession--><g id="elem_UserSession"><rect codeLine="73" fill="#F1F1F1" height="33.3105" id="UserSession" rx="1.25" ry="1.25" style="stroke:#181818;stroke-width:0.25;" width="88.5" x="416.25" y="365"/><ellipse cx="438.625" cy="373" fill="#ADD1B2" rx="5.5" ry="5.5" style="stroke:#181818;stroke-width:0.5;"/><path d="M440.0078,370.9375 Q440.0859,370.8281 440.1797,370.7734 Q440.2734,370.7188 440.3828,370.7188 Q440.5703,370.7188 440.6875,370.8516 Q440.8047,370.9766 440.8047,371.2813 L440.8047,372.0078 Q440.8047,372.3125 440.6875,372.4453 Q440.5703,372.5781 440.3828,372.5781 Q440.2109,372.5781 440.1094,372.4766 Q440.0078,372.3828 439.9531,372.125 Q439.9297,371.9453 439.8359,371.8516 Q439.6719,371.6641 439.3672,371.5547 Q439.0625,371.4453 438.75,371.4453 Q438.3672,371.4453 438.0469,371.6094 Q437.7344,371.7734 437.4844,372.1484 Q437.2422,372.5234 437.2422,373.0391 L437.2422,373.5859 Q437.2422,374.2031 437.6875,374.6172 Q438.1328,375.0234 438.9297,375.0234 Q439.3984,375.0234 439.7266,374.8984 Q439.9219,374.8203 440.1328,374.6016 Q440.2656,374.4688 440.3359,374.4297 Q440.4141,374.3906 440.5156,374.3906 Q440.6797,374.3906 440.8047,374.5234 Q440.9375,374.6484 440.9375,374.8203 Q440.9375,374.9922 440.7656,375.1953 Q440.5156,375.4844 440.1172,375.6484 Q439.5781,375.875 438.9297,375.875 Q438.1719,375.875 437.5703,375.5625 Q437.0781,375.3125 436.7344,374.7813 Q436.3906,374.2422 436.3906,373.6016 L436.3906,373.0234 Q436.3906,372.3594 436.6953,371.7891 Q437.0078,371.2109 437.5547,370.9063 Q438.1016,370.5938 438.7188,370.5938 Q439.0859,370.5938 439.4063,370.6797 Q439.7344,370.7578 440.0078,370.9375 Z " fill="#000000"/><text fill="#000000" font-family="sans-serif" font-size="7" lengthAdjust="spacing" textLength="39.5" x="448.875" y="375.8984">UserSession</text><line style="stroke:#181818;stroke-width:0.25;" x1="416.75" x2="504.25" y1="381" y2="381"/><line style="stroke:#181818;stroke-width:0.25;" x1="416.75" x2="504.25" y1="385" y2="385"/><text fill="#000000" font-family="sans-serif" font-size="7" lengthAdjust="spacing" textLength="82.5" x="419.25" y="394.5537">+getCurrentUserSession()</text></g><!--class GreenSpaceManager--><g id="elem_GreenSpaceManager"><rect codeLine="77" fill="#F1F1F1" height="42.6211" id="GreenSpaceManager" rx="1.25" ry="1.25" style="stroke:#181818;stroke-width:0.25;" width="99.5" x="222.75" y="562.5"/><ellipse cx="237.225" cy="570.5" fill="#ADD1B2" rx="5.5" ry="5.5" style="stroke:#181818;stroke-width:0.5;"/><path d="M238.6078,568.4375 Q238.6859,568.3281 238.7797,568.2734 Q238.8734,568.2188 238.9828,568.2188 Q239.1703,568.2188 239.2875,568.3516 Q239.4047,568.4766 239.4047,568.7813 L239.4047,569.5078 Q239.4047,569.8125 239.2875,569.9453 Q239.1703,570.0781 238.9828,570.0781 Q238.8109,570.0781 238.7094,569.9766 Q238.6078,569.8828 238.5531,569.625 Q238.5297,569.4453 238.4359,569.3516 Q238.2719,569.1641 237.9672,569.0547 Q237.6625,568.9453 237.35,568.9453 Q236.9672,568.9453 236.6469,569.1094 Q236.3344,569.2734 236.0844,569.6484 Q235.8422,570.0234 235.8422,570.5391 L235.8422,571.0859 Q235.8422,571.7031 236.2875,572.1172 Q236.7328,572.5234 237.5297,572.5234 Q237.9984,572.5234 238.3266,572.3984 Q238.5219,572.3203 238.7328,572.1016 Q238.8656,571.9688 238.9359,571.9297 Q239.0141,571.8906 239.1156,571.8906 Q239.2797,571.8906 239.4047,572.0234 Q239.5375,572.1484 239.5375,572.3203 Q239.5375,572.4922 239.3656,572.6953 Q239.1156,572.9844 238.7172,573.1484 Q238.1781,573.375 237.5297,573.375 Q236.7719,573.375 236.1703,573.0625 Q235.6781,572.8125 235.3344,572.2813 Q234.9906,571.7422 234.9906,571.1016 L234.9906,570.5234 Q234.9906,569.8594 235.2953,569.2891 Q235.6078,568.7109 236.1547,568.4063 Q236.7016,568.0938 237.3188,568.0938 Q237.6859,568.0938 238.0063,568.1797 Q238.3344,568.2578 238.6078,568.4375 Z " fill="#000000"/><text fill="#000000" font-family="sans-serif" font-size="7" lengthAdjust="spacing" textLength="68" x="245.775" y="573.3984">GreenSpaceManager</text><line style="stroke:#181818;stroke-width:0.25;" x1="223.25" x2="321.75" y1="578.5" y2="578.5"/><text fill="#000000" font-family="sans-serif" font-size="7" lengthAdjust="spacing" textLength="39.5" x="225.75" y="588.0537">-String email</text><line style="stroke:#181818;stroke-width:0.25;" x1="223.25" x2="321.75" y1="591.8105" y2="591.8105"/><text fill="#000000" font-family="sans-serif" font-size="7" lengthAdjust="spacing" textLength="93.5" x="225.75" y="601.3643">+GreenSpaceManager(email)</text></g><!--link AddEntryAgendaUI to AddEntryAgendaController--><g id="link_AddEntryAgendaUI_AddEntryAgendaController"><path codeLine="82" d="M281,27.655 C281,35.75 281,43.99 281,54.855 " fill="none" id="AddEntryAgendaUI-to-AddEntryAgendaController" style="stroke:#181818;stroke-width:0.5;stroke-dasharray:7.0,7.0;"/><polygon fill="#181818" points="281,57.855,283,53.355,281,55.355,279,53.355,281,57.855" style="stroke:#181818;stroke-width:0.5;"/></g><!--link AddEntryAgendaController to Repositories--><g id="link_AddEntryAgendaController_Repositories"><path codeLine="83" d="M295.68,128.54 C300.99,141.125 305.8242,152.5658 311.1342,165.1558 " fill="none" id="AddEntryAgendaController-to-Repositories" style="stroke:#181818;stroke-width:0.5;stroke-dasharray:7.0,7.0;"/><polygon fill="#181818" points="312.3,167.92,312.394,162.9965,311.3285,165.6165,308.7084,164.5509,312.3,167.92" style="stroke:#181818;stroke-width:0.5;"/><text fill="#000000" font-family="sans-serif" font-size="6.5" lengthAdjust="spacing" textLength="33.5" x="306" y="151.0142">repositories</text></g><!--link AddEntryAgendaController to Agenda--><g id="link_AddEntryAgendaController_Agenda"><path codeLine="84" d="M263.585,128.7 C253.985,147.96 244,168 244,168 C244,168 244,238.5 244,238.5 C244,238.5 257.1237,251.6237 272.3037,266.8037 " fill="none" id="AddEntryAgendaController-to-Agenda" style="stroke:#181818;stroke-width:0.5;stroke-dasharray:7.0,7.0;"/><polygon fill="#181818" points="274.425,268.925,272.6572,264.3288,272.6572,267.1572,269.8288,267.1572,274.425,268.925" style="stroke:#181818;stroke-width:0.5;"/><text fill="#000000" font-family="sans-serif" font-size="6.5" lengthAdjust="spacing" textLength="21" x="244.5" y="206.0142">agenda</text></g><!--link AddEntryAgendaController to ToDoList--><g id="link_AddEntryAgendaController_ToDoList"><path codeLine="85" d="M249.935,128.7 C232.815,147.96 215,168 215,168 C215,168 179.8089,244.8273 163.7289,279.9473 " fill="none" id="AddEntryAgendaController-to-ToDoList" style="stroke:#181818;stroke-width:0.5;stroke-dasharray:7.0,7.0;"/><polygon fill="#181818" points="162.48,282.675,166.1718,279.4161,163.5207,280.4019,162.5349,277.7509,162.48,282.675" style="stroke:#181818;stroke-width:0.5;"/><text fill="#000000" font-family="sans-serif" font-size="6.5" lengthAdjust="spacing" textLength="24" x="215.5" y="206.0142">toDoList</text></g><!--link AddEntryAgendaController to AuthenticationRepository--><g id="link_AddEntryAgendaController_AuthenticationRepository"><path codeLine="86" d="M349.745,128.59 C387.81,147.885 427.5,168 427.5,168 C427.5,168 446.8073,244.6458 455.6523,279.7658 " fill="none" id="AddEntryAgendaController-to-AuthenticationRepository" style="stroke:#181818;stroke-width:0.5;stroke-dasharray:7.0,7.0;"/><polygon fill="#181818" points="456.385,282.675,457.2254,277.8228,455.7744,280.2507,453.3466,278.7997,456.385,282.675" style="stroke:#181818;stroke-width:0.5;"/><text fill="#000000" font-family="sans-serif" font-size="6.5" lengthAdjust="spacing" textLength="71.5" x="445.5" y="206.0142">authenticationRepository</text></g><!--link AuthenticationRepository to UserSession--><g id="link_AuthenticationRepository_UserSession"><path codeLine="87" d="M460.5,316.44 C460.5,330.585 460.5,347.875 460.5,361.97 " fill="none" id="AuthenticationRepository-to-UserSession" style="stroke:#181818;stroke-width:0.5;stroke-dasharray:7.0,7.0;"/><polygon fill="#181818" points="460.5,364.97,462.5,360.47,460.5,362.47,458.5,360.47,460.5,364.97" style="stroke:#181818;stroke-width:0.5;"/></g><!--link Repositories to Repositories--><g id="link_Repositories_Repositories"><path codeLine="88" d="M379.13,194.29 C389.29,195.33 396.5,198.32 396.5,203.25 C396.5,208.18 392.2744,210.8645 382.1144,211.9045 " fill="none" id="Repositories-to-Repositories" style="stroke:#181818;stroke-width:0.5;"/><polygon fill="#181818" points="379.13,212.21,383.8103,213.7414,381.617,211.9554,383.4029,209.7622,379.13,212.21" style="stroke:#181818;stroke-width:0.5;"/><text fill="#000000" font-family="sans-serif" font-size="6.5" lengthAdjust="spacing" textLength="24.5" x="399.5" y="206.0142">instance</text></g><!--link Repositories to Agenda--><g id="link_Repositories_Agenda"><path codeLine="89" d="M318.78,238.54 C316.435,248.48 314.5844,256.3053 312.3094,265.9403 " fill="none" id="Repositories-to-Agenda" style="stroke:#181818;stroke-width:0.5;"/><polygon fill="#181818" points="311.62,268.86,314.6006,264.94,312.1945,266.4269,310.7076,264.0208,311.62,268.86" style="stroke:#181818;stroke-width:0.5;"/><text fill="#000000" font-family="sans-serif" font-size="6.5" lengthAdjust="spacing" textLength="3.5" x="308.7409" y="263.3344">1</text></g><!--link Repositories to ToDoList--><g id="link_Repositories_ToDoList"><path codeLine="90" d="M274.87,231.515 C241.53,249.275 204.5,269 204.5,269 C204.5,269 196.1002,274.0895 184.4902,281.1295 " fill="none" id="Repositories-to-ToDoList" style="stroke:#181818;stroke-width:0.5;"/><polygon fill="#181818" points="181.925,282.685,186.8099,282.0619,184.0627,281.3888,184.7359,278.6416,181.925,282.685" style="stroke:#181818;stroke-width:0.5;"/><text fill="#000000" font-family="sans-serif" font-size="6.5" lengthAdjust="spacing" textLength="3.5" x="183.3813" y="277.085">1</text></g><!--link Repositories to AuthenticationRepository--><g id="link_Repositories_AuthenticationRepository"><path codeLine="91" d="M375.765,238.54 C396.915,253.635 418.2329,268.8425 435.1979,280.9475 " fill="none" id="Repositories-to-AuthenticationRepository" style="stroke:#181818;stroke-width:0.5;"/><polygon fill="#181818" points="437.64,282.69,435.1385,278.4482,435.6049,281.2379,432.8152,281.7043,437.64,282.69" style="stroke:#181818;stroke-width:0.5;"/><text fill="#000000" font-family="sans-serif" font-size="6.5" lengthAdjust="spacing" textLength="3.5" x="429.2949" y="277.0909">1</text></g><!--link Agenda to Entry--><g id="link_Agenda_Entry"><path codeLine="92" d="M305.795,330.025 C306.23,340.15 306.5754,348.2228 306.9754,357.4728 " fill="none" id="Agenda-to-Entry" style="stroke:#181818;stroke-width:0.5;"/><polygon fill="#181818" points="307.105,360.47,308.9087,355.8878,306.997,357.9723,304.9125,356.0606,307.105,360.47" style="stroke:#181818;stroke-width:0.5;"/><text fill="#000000" font-family="sans-serif" font-size="6.5" lengthAdjust="spacing" textLength="2.5" x="304.2631" y="354.9173">*</text></g><!--link ToDoList to Task--><g id="link_ToDoList_Task"><path codeLine="93" d="M153.925,316.335 C152.205,342.415 148.9771,391.4865 146.4171,430.3715 " fill="none" id="ToDoList-to-Task" style="stroke:#181818;stroke-width:0.5;"/><polygon fill="#181818" points="146.22,433.365,148.5113,429.0061,146.3842,430.8704,144.5199,428.7433,146.22,433.365" style="stroke:#181818;stroke-width:0.5;"/><text fill="#000000" font-family="sans-serif" font-size="6.5" lengthAdjust="spacing" textLength="2.5" x="143.8647" y="427.9463">*</text></g><!--link Entry to Task--><g id="link_Entry_Task"><path codeLine="94" d="M273.61,403.09 C258.97,411.965 243.7906,421.1651 226.1606,431.8501 " fill="none" id="Entry-to-Task" style="stroke:#181818;stroke-width:0.5;"/><polygon fill="#181818" points="223.595,433.405,228.48,432.783,225.733,432.1092,226.4068,429.3622,223.595,433.405" style="stroke:#181818;stroke-width:0.5;"/><text fill="#000000" font-family="sans-serif" font-size="6.5" lengthAdjust="spacing" textLength="3.5" x="226.1316" y="427.822">1</text></g><!--link Entry to AgendaStatus--><g id="link_Entry_AgendaStatus"><path codeLine="95" d="M320.16,403.215 C328.395,417.415 337.9051,433.8098 347.0701,449.6148 " fill="none" id="Entry-to-AgendaStatus" style="stroke:#181818;stroke-width:0.5;"/><polygon fill="#181818" points="348.575,452.21,348.0478,447.3139,347.3209,450.0473,344.5875,449.3204,348.575,452.21" style="stroke:#181818;stroke-width:0.5;"/><text fill="#000000" font-family="sans-serif" font-size="6.5" lengthAdjust="spacing" textLength="3.5" x="342.8579" y="446.696">1</text></g><!--link Task to TaskStatus--><g id="link_Task_TaskStatus"><path codeLine="96" d="M143,532.08 C143,542.785 143,550.57 143,559.455 " fill="none" id="Task-to-TaskStatus" style="stroke:#181818;stroke-width:0.5;"/><polygon fill="#181818" points="143,562.455,145,557.955,143,559.955,141,557.955,143,562.455" style="stroke:#181818;stroke-width:0.5;"/><text fill="#000000" font-family="sans-serif" font-size="6.5" lengthAdjust="spacing" textLength="3.5" x="139.2211" y="556.8999">1</text></g><!--link Entry to GreenSpaceManager--><g id="link_Entry_GreenSpaceManager"><path codeLine="97" d="M305.635,403.07 C300.965,444.22 291,532 291,532 C291,532 286.1632,545.3931 281.0432,559.5831 " fill="none" id="Entry-to-GreenSpaceManager" style="stroke:#181818;stroke-width:0.5;"/><polygon fill="#181818" points="280.025,562.405,283.4336,558.8509,280.8735,560.0534,279.671,557.4933,280.025,562.405" style="stroke:#181818;stroke-width:0.5;"/><text fill="#000000" font-family="sans-serif" font-size="6.5" lengthAdjust="spacing" textLength="3.5" x="277.4454" y="556.8419">1</text></g><!--link Task to GreenSpaceManager--><g id="link_Task_GreenSpaceManager"><path codeLine="98" d="M206.235,532.08 C220.1,542.785 231.6852,551.7368 243.1952,560.6218 " fill="none" id="Task-to-GreenSpaceManager" style="stroke:#181818;stroke-width:0.5;"/><polygon fill="#181818" points="245.57,562.455,243.23,558.1221,243.591,560.9274,240.7857,561.2884,245.57,562.455" style="stroke:#181818;stroke-width:0.5;"/><text fill="#000000" font-family="sans-serif" font-size="6.5" lengthAdjust="spacing" textLength="3.5" x="237.4991" y="556.8999">1</text></g><!--SRC=[ZLJDSfim4Bxp59fSGbgSQQy-TCOrRiOpYPq9zWEeiCQQWCH8eWtjzDsxGWA4CMbziTZTRt-_tLlrodX59Ir9ARX8prAKGBIi8HWq5KrVQGw9RWeW4b9DULxu1kfCC_6JyPoSQA5yJS4uwAO2KecYCH_1xHMba5e47Yejg58hhINxNclOfe8dx1UGJq5mMy194os8PFbPauoPT9ZWGT1Yo2hBDbpBPfK3p-XnItu7VwxhrWBVeYX0eWt1tySvVKXRGOHXO_78b8u8hVKPk6OfDS5Ve1AAQI6RE-k9ZZo5IbEfiJinrH0HnZDuiuQB7FI1gjUlpTO8mmlLG_Bq3UUHW58O9NJE7KQPJ50sbDS6wufvDmMD-8ZaglJSkx0TBXnh8m96wen-q89bwCbQNjCS5VPjnaMVSGjt2IzCPiHFqzPXGqpJzzmSt5YwqgytTJ17NHSqGOeXQpNJ1Oma6QXKiggbLYlVb22nbMaJGou1qC3yxKz7AxL6Z6i2RnLI4hAubdI0cw07GtN3TojwG3nFSBU0vFtJLc2iGmadaEWR2_QoYIuZHvE8KHiayhmwvgHdN5nSOwfhPLgAVrvVUXOpKAuz8rd7FuBztNA4OshX7LcEZ0OJHpmFrCt9bwrc5iaI6tXTEbxRhDtSdXzNkzqcjkzzSdZUTr_hrMwzUNGVCOfxDwQdOoURNRpTFTZtotwzIHB43Uiqavd7idKjSK3QS7tOqTw19_vlpC299yhnxCWBea99MM5zJKp3Ljawcrp1-_ili-SlcBsB1kKFTud7tnlrkpWhN19xEz-txOYnx2_iFtpFZ6OvUvU3sMaQVzum0hzUibXSDe0vua_jRZxVkAAlwxeYPv2pYTkhtjfzkB4dC-WlNYSsv0xiEUtZJKN-9WNj6VIDdNmCcR1iZ9kg_m80]--></g></svg>