<?xml version="1.0" encoding="us-ascii" standalone="no"?><svg xmlns="http://www.w3.org/2000/svg" xmlns:xlink="http://www.w3.org/1999/xlink" contentStyleType="text/css" height="359.1px" preserveAspectRatio="none" style="width:571px;height:359px;background:#FFFFFF;" version="1.1" viewBox="0 0 571 359" width="571.2px" zoomAndPan="magnify"><defs/><g><text fill="#000000" font-family="sans-serif" font-size="9.8" font-weight="bold" lengthAdjust="spacing" textLength="245.7" x="162.05" y="21.0752">System Sequence Diagram (SSD) - Alternative One</text><rect fill="#FFFFFF" height="175.9297" style="stroke:#181818;stroke-width:0.6999999999999998;" width="7" x="42.7" y="106.3043"/><rect fill="#FFFFFF" height="21.9037" style="stroke:#181818;stroke-width:0.6999999999999998;" width="7" x="541.1" y="122.608"/><rect fill="#FFFFFF" height="21.9037" style="stroke:#181818;stroke-width:0.6999999999999998;" width="7" x="541.1" y="166.4154"/><rect fill="#FFFFFF" height="21.9037" style="stroke:#181818;stroke-width:0.6999999999999998;" width="7" x="541.1" y="210.2229"/><rect fill="#FFFFFF" height="21.9037" style="stroke:#181818;stroke-width:0.6999999999999998;" width="7" x="541.1" y="254.0303"/><line style="stroke:#181818;stroke-width:0.3499999999999999;stroke-dasharray:5.0,5.0;" x1="46.2" x2="46.2" y1="99.3043" y2="288.534"/><line style="stroke:#181818;stroke-width:0.3499999999999999;stroke-dasharray:5.0,5.0;" x1="544.6" x2="544.6" y1="99.3043" y2="288.534"/><text fill="#000000" font-family="sans-serif" font-size="9.8" lengthAdjust="spacing" textLength="81.2" x="3.5" y="83.81">Human Resources</text><text fill="#000000" font-family="sans-serif" font-size="9.8" lengthAdjust="spacing" textLength="39.2" x="24.5" y="96.8447">Manager</text><ellipse cx="46.2" cy="37.1848" fill="#E3E3E3" rx="5.6" ry="5.6" style="stroke:#181818;stroke-width:0.3499999999999999;"/><path d="M46.2,42.7848 L46.2,61.6848 M37.1,48.3848 L55.3,48.3848 M46.2,61.6848 L37.1,72.1848 M46.2,61.6848 L55.3,72.1848 " fill="none" style="stroke:#181818;stroke-width:0.3499999999999999;"/><text fill="#000000" font-family="sans-serif" font-size="9.8" lengthAdjust="spacing" textLength="81.2" x="3.5" y="298.4092">Human Resources</text><text fill="#000000" font-family="sans-serif" font-size="9.8" lengthAdjust="spacing" textLength="39.2" x="24.5" y="311.4439">Manager</text><ellipse cx="46.2" cy="319.8535" fill="#E3E3E3" rx="5.6" ry="5.6" style="stroke:#181818;stroke-width:0.3499999999999999;"/><path d="M46.2,325.4535 L46.2,344.3535 M37.1,331.0535 L55.3,331.0535 M46.2,344.3535 L37.1,354.8535 M46.2,344.3535 L55.3,354.8535 " fill="none" style="stroke:#181818;stroke-width:0.3499999999999999;"/><rect fill="#E3E3E3" height="22.8348" rx="1.75" ry="1.75" style="stroke:#181818;stroke-width:0.3499999999999999;" width="44.8" x="522.2" y="75.7695"/><text fill="#000000" font-family="sans-serif" font-size="9.8" lengthAdjust="spacing" textLength="35" x="527.1" y="91.2447">:System</text><rect fill="#E3E3E3" height="22.8348" rx="1.75" ry="1.75" style="stroke:#181818;stroke-width:0.3499999999999999;" width="44.8" x="522.2" y="287.834"/><text fill="#000000" font-family="sans-serif" font-size="9.8" lengthAdjust="spacing" textLength="35" x="527.1" y="303.3092">:System</text><rect fill="#FFFFFF" height="175.9297" style="stroke:#181818;stroke-width:0.6999999999999998;" width="7" x="42.7" y="106.3043"/><rect fill="#FFFFFF" height="21.9037" style="stroke:#181818;stroke-width:0.6999999999999998;" width="7" x="541.1" y="122.608"/><rect fill="#FFFFFF" height="21.9037" style="stroke:#181818;stroke-width:0.6999999999999998;" width="7" x="541.1" y="166.4154"/><rect fill="#FFFFFF" height="21.9037" style="stroke:#181818;stroke-width:0.6999999999999998;" width="7" x="541.1" y="210.2229"/><rect fill="#FFFFFF" height="21.9037" style="stroke:#181818;stroke-width:0.6999999999999998;" width="7" x="541.1" y="254.0303"/><polygon fill="#181818" points="532.7,119.808,539.7,122.608,532.7,125.408,535.5,122.608" style="stroke:#181818;stroke-width:0.6999999999999998;"/><line style="stroke:#181818;stroke-width:0.6999999999999998;" x1="49.7" x2="536.9" y1="122.608" y2="122.608"/><text fill="#000000" font-family="sans-serif" font-size="9.1" font-weight="bold" lengthAdjust="spacing" textLength="4.9" x="54.6" y="118.9241">1</text><text fill="#000000" font-family="sans-serif" font-size="9.1" lengthAdjust="spacing" textLength="139.3" x="62.3" y="118.9241">asks to register a new collaborator</text><polygon fill="#181818" points="57.4,141.7117,50.4,144.5117,57.4,147.3117,54.6,144.5117" style="stroke:#181818;stroke-width:0.6999999999999998;"/><line style="stroke:#181818;stroke-width:0.6999999999999998;stroke-dasharray:2.0,2.0;" x1="53.2" x2="543.9" y1="144.5117" y2="144.5117"/><text fill="#000000" font-family="sans-serif" font-size="9.1" font-weight="bold" lengthAdjust="spacing" textLength="4.9" x="61.6" y="140.8278">2</text><text fill="#000000" font-family="sans-serif" font-size="9.1" lengthAdjust="spacing" textLength="466.9" x="69.3" y="140.8278">requests data (i.e. Name, Birthday, Admission Date, Address, Contact Info (Mobile, Email), ID Doc (Type, Number))</text><polygon fill="#181818" points="532.7,163.6154,539.7,166.4154,532.7,169.2154,535.5,166.4154" style="stroke:#181818;stroke-width:0.6999999999999998;"/><line style="stroke:#181818;stroke-width:0.6999999999999998;" x1="49.7" x2="536.9" y1="166.4154" y2="166.4154"/><text fill="#000000" font-family="sans-serif" font-size="9.1" font-weight="bold" lengthAdjust="spacing" textLength="4.9" x="54.6" y="162.7315">3</text><text fill="#000000" font-family="sans-serif" font-size="9.1" lengthAdjust="spacing" textLength="85.4" x="62.3" y="162.7315">types requested data</text><polygon fill="#181818" points="57.4,185.5191,50.4,188.3191,57.4,191.1191,54.6,188.3191" style="stroke:#181818;stroke-width:0.6999999999999998;"/><line style="stroke:#181818;stroke-width:0.6999999999999998;stroke-dasharray:2.0,2.0;" x1="53.2" x2="543.9" y1="188.3191" y2="188.3191"/><text fill="#000000" font-family="sans-serif" font-size="9.1" font-weight="bold" lengthAdjust="spacing" textLength="4.9" x="61.6" y="184.6353">4</text><text fill="#000000" font-family="sans-serif" font-size="9.1" lengthAdjust="spacing" textLength="180.6" x="69.3" y="184.6353">shows the list of jobs and asks to select one</text><polygon fill="#181818" points="532.7,207.4229,539.7,210.2229,532.7,213.0229,535.5,210.2229" style="stroke:#181818;stroke-width:0.6999999999999998;"/><line style="stroke:#181818;stroke-width:0.6999999999999998;" x1="49.7" x2="536.9" y1="210.2229" y2="210.2229"/><text fill="#000000" font-family="sans-serif" font-size="9.1" font-weight="bold" lengthAdjust="spacing" textLength="4.9" x="54.6" y="206.539">5</text><text fill="#000000" font-family="sans-serif" font-size="9.1" lengthAdjust="spacing" textLength="59.5" x="62.3" y="206.539">selects the job</text><polygon fill="#181818" points="57.4,229.3266,50.4,232.1266,57.4,234.9266,54.6,232.1266" style="stroke:#181818;stroke-width:0.6999999999999998;"/><line style="stroke:#181818;stroke-width:0.6999999999999998;stroke-dasharray:2.0,2.0;" x1="53.2" x2="543.9" y1="232.1266" y2="232.1266"/><text fill="#000000" font-family="sans-serif" font-size="9.1" font-weight="bold" lengthAdjust="spacing" textLength="4.9" x="61.6" y="228.4427">6</text><text fill="#000000" font-family="sans-serif" font-size="9.1" lengthAdjust="spacing" textLength="165.2" x="69.3" y="228.4427">shows all data and requests confirmation</text><polygon fill="#181818" points="532.7,251.2303,539.7,254.0303,532.7,256.8303,535.5,254.0303" style="stroke:#181818;stroke-width:0.6999999999999998;"/><line style="stroke:#181818;stroke-width:0.6999999999999998;" x1="49.7" x2="536.9" y1="254.0303" y2="254.0303"/><text fill="#000000" font-family="sans-serif" font-size="9.1" font-weight="bold" lengthAdjust="spacing" textLength="4.9" x="54.6" y="250.3464">7</text><text fill="#000000" font-family="sans-serif" font-size="9.1" lengthAdjust="spacing" textLength="54.6" x="62.3" y="250.3464">confirms data</text><polygon fill="#181818" points="57.4,273.134,50.4,275.934,57.4,278.734,54.6,275.934" style="stroke:#181818;stroke-width:0.6999999999999998;"/><line style="stroke:#181818;stroke-width:0.6999999999999998;stroke-dasharray:2.0,2.0;" x1="53.2" x2="543.9" y1="275.934" y2="275.934"/><text fill="#000000" font-family="sans-serif" font-size="9.1" font-weight="bold" lengthAdjust="spacing" textLength="4.9" x="61.6" y="272.2501">8</text><text fill="#000000" font-family="sans-serif" font-size="9.1" lengthAdjust="spacing" textLength="110.6" x="69.3" y="272.2501">displays operation success</text><!--SRC=[dPB1Rjim38RlVeeVEIL0qWV8eK0t3sWFQO5wnrqOcR6roA8doWtyzcFi91Y6xP3gH8dapuyKzUXZJuawT1B5jKawHau35thpzEIEr72Lny18x3B59lmPe2tLSlAnmO62Sb5adosq6ZLpXuf_3HmTe_JKdCENLLMkiC5Jo9mYPV_1U8kMHaEME7HxJcQxB0cBvw6ZY7TM6P9Z_H5t58qbBK2Av_TTOGJPEzzJp5XivvAJSpOd8Vz1cQVe0dRCmERnYhUruACYYxNMU7jA84G-mKa8j9T41ZBbtPIkqhYSYzB6HC_QMrEobZKhQig4fN_W1xnInsjyyIctDOrhFDMTL_KIKPhc-LudLbtZgyHifV0I3uBbJlO-cFjRHpwirdWfKOh3yllOs-lhDAtLQaAf-P-4VxURBLElY5nFZ7VsfwsSR6Gj8zZ480VybBs2OdqRfdAmJO7Olzx1DcVDqYRvAImAOPxx6UVs4qxYmQVEjatYFKINFFtCc6glVQ1H8JsdgJ9qSBR6-X-2tm00]--></g></svg>