<?xml version="1.0" encoding="us-ascii" standalone="no"?><svg xmlns="http://www.w3.org/2000/svg" xmlns:xlink="http://www.w3.org/1999/xlink" contentStyleType="text/css" height="616.7px" preserveAspectRatio="none" style="width:377px;height:616px;background:#FFFFFF;" version="1.1" viewBox="0 0 377 616" width="378px" zoomAndPan="magnify"><defs/><g><!--class GenerateTeam--><g id="elem_GenerateTeam"><rect codeLine="9" fill="#F1F1F1" height="72.7043" id="GenerateTeam" rx="1.75" ry="1.75" style="stroke:#181818;stroke-width:0.3499999999999999;" width="184.8" x="123.2" y="437.5"/><ellipse cx="179.025" cy="448.7" fill="#ADD1B2" rx="7.7" ry="7.7" style="stroke:#181818;stroke-width:0.6999999999999998;"/><path d="M180.9609,445.8125 Q181.0703,445.6594 181.2016,445.5828 Q181.3328,445.5062 181.4859,445.5062 Q181.7484,445.5062 181.9125,445.6922 Q182.0766,445.8672 182.0766,446.2937 L182.0766,447.3109 Q182.0766,447.7375 181.9125,447.9234 Q181.7484,448.1094 181.4859,448.1094 Q181.2453,448.1094 181.1031,447.9672 Q180.9609,447.8359 180.8844,447.475 Q180.8516,447.2234 180.7203,447.0922 Q180.4906,446.8297 180.0641,446.6766 Q179.6375,446.5234 179.2,446.5234 Q178.6641,446.5234 178.2156,446.7531 Q177.7781,446.9828 177.4281,447.5078 Q177.0891,448.0328 177.0891,448.7547 L177.0891,449.5203 Q177.0891,450.3844 177.7125,450.9641 Q178.3359,451.5328 179.4516,451.5328 Q180.1078,451.5328 180.5672,451.3578 Q180.8406,451.2484 181.1359,450.9422 Q181.3219,450.7562 181.4203,450.7016 Q181.5297,450.6469 181.6719,450.6469 Q181.9016,450.6469 182.0766,450.8328 Q182.2625,451.0078 182.2625,451.2484 Q182.2625,451.4891 182.0219,451.7734 Q181.6719,452.1781 181.1141,452.4078 Q180.3594,452.725 179.4516,452.725 Q178.3906,452.725 177.5484,452.2875 Q176.8594,451.9375 176.3781,451.1937 Q175.8969,450.4391 175.8969,449.5422 L175.8969,448.7328 Q175.8969,447.8031 176.3234,447.0047 Q176.7609,446.1953 177.5266,445.7687 Q178.2922,445.3312 179.1562,445.3312 Q179.6703,445.3312 180.1187,445.4516 Q180.5781,445.5609 180.9609,445.8125 Z " fill="#000000"/><text fill="#000000" font-family="sans-serif" font-size="9.8" lengthAdjust="spacing" textLength="67.2" x="193.375" y="452.7578">GenerateTeam</text><line style="stroke:#181818;stroke-width:0.3499999999999999;" x1="123.9" x2="307.3" y1="459.9" y2="459.9"/><text fill="#000000" font-family="sans-serif" font-size="9.8" lengthAdjust="spacing" textLength="50.4" x="127.4" y="473.2752">-int minSize</text><text fill="#000000" font-family="sans-serif" font-size="9.8" lengthAdjust="spacing" textLength="52.5" x="127.4" y="486.31">-int maxSize</text><line style="stroke:#181818;stroke-width:0.3499999999999999;" x1="123.9" x2="307.3" y1="491.5695" y2="491.5695"/><text fill="#000000" font-family="sans-serif" font-size="9.8" lengthAdjust="spacing" textLength="176.4" x="127.4" y="504.9447">+GenerateTeam(minSize, maxSize, skill)</text></g><!--class Skill--><g id="elem_Skill"><rect codeLine="17" fill="#F1F1F1" height="59.6695" id="Skill" rx="1.75" ry="1.75" style="stroke:#181818;stroke-width:0.3499999999999999;" width="65.8" x="182.7" y="552.3"/><ellipse cx="204.855" cy="563.5" fill="#ADD1B2" rx="7.7" ry="7.7" style="stroke:#181818;stroke-width:0.6999999999999998;"/><path d="M206.7909,560.6125 Q206.9003,560.4594 207.0316,560.3828 Q207.1628,560.3062 207.3159,560.3062 Q207.5784,560.3062 207.7425,560.4922 Q207.9066,560.6672 207.9066,561.0937 L207.9066,562.1109 Q207.9066,562.5375 207.7425,562.7234 Q207.5784,562.9094 207.3159,562.9094 Q207.0753,562.9094 206.9331,562.7672 Q206.7909,562.6359 206.7144,562.275 Q206.6816,562.0234 206.5503,561.8922 Q206.3206,561.6297 205.8941,561.4766 Q205.4675,561.3234 205.03,561.3234 Q204.4941,561.3234 204.0456,561.5531 Q203.6081,561.7828 203.2581,562.3078 Q202.9191,562.8328 202.9191,563.5547 L202.9191,564.3203 Q202.9191,565.1844 203.5425,565.7641 Q204.1659,566.3328 205.2816,566.3328 Q205.9378,566.3328 206.3972,566.1578 Q206.6706,566.0484 206.9659,565.7422 Q207.1519,565.5562 207.2503,565.5016 Q207.3597,565.4469 207.5019,565.4469 Q207.7316,565.4469 207.9066,565.6328 Q208.0925,565.8078 208.0925,566.0484 Q208.0925,566.2891 207.8519,566.5734 Q207.5019,566.9781 206.9441,567.2078 Q206.1894,567.525 205.2816,567.525 Q204.2206,567.525 203.3784,567.0875 Q202.6894,566.7375 202.2081,565.9937 Q201.7269,565.2391 201.7269,564.3422 L201.7269,563.5328 Q201.7269,562.6031 202.1534,561.8047 Q202.5909,560.9953 203.3566,560.5687 Q204.1222,560.1312 204.9862,560.1312 Q205.5003,560.1312 205.9487,560.2516 Q206.4081,560.3609 206.7909,560.6125 Z " fill="#000000"/><text fill="#000000" font-family="sans-serif" font-size="9.8" lengthAdjust="spacing" textLength="17.5" x="217.245" y="567.5578">Skill</text><line style="stroke:#181818;stroke-width:0.3499999999999999;" x1="183.4" x2="247.8" y1="574.7" y2="574.7"/><text fill="#000000" font-family="sans-serif" font-size="9.8" lengthAdjust="spacing" textLength="56.7" x="186.9" y="588.0752">-String name</text><line style="stroke:#181818;stroke-width:0.3499999999999999;" x1="183.4" x2="247.8" y1="593.3348" y2="593.3348"/><text fill="#000000" font-family="sans-serif" font-size="9.8" lengthAdjust="spacing" textLength="57.4" x="186.9" y="606.71">+Skill (name)</text></g><!--class SkillsRepository--><g id="elem_SkillsRepository"><rect codeLine="23" fill="#F1F1F1" height="46.6348" id="SkillsRepository" rx="1.75" ry="1.75" style="stroke:#181818;stroke-width:0.3499999999999999;" width="92.4" x="4.9" y="335.65"/><ellipse cx="15.4" cy="346.85" fill="#ADD1B2" rx="7.7" ry="7.7" style="stroke:#181818;stroke-width:0.6999999999999998;"/><path d="M17.3359,343.9625 Q17.4453,343.8094 17.5766,343.7328 Q17.7078,343.6562 17.8609,343.6562 Q18.1234,343.6562 18.2875,343.8422 Q18.4516,344.0172 18.4516,344.4437 L18.4516,345.4609 Q18.4516,345.8875 18.2875,346.0734 Q18.1234,346.2594 17.8609,346.2594 Q17.6203,346.2594 17.4781,346.1172 Q17.3359,345.9859 17.2594,345.625 Q17.2266,345.3734 17.0953,345.2422 Q16.8656,344.9797 16.4391,344.8266 Q16.0125,344.6734 15.575,344.6734 Q15.0391,344.6734 14.5906,344.9031 Q14.1531,345.1328 13.8031,345.6578 Q13.4641,346.1828 13.4641,346.9047 L13.4641,347.6703 Q13.4641,348.5344 14.0875,349.1141 Q14.7109,349.6828 15.8266,349.6828 Q16.4828,349.6828 16.9422,349.5078 Q17.2156,349.3984 17.5109,349.0922 Q17.6969,348.9062 17.7953,348.8516 Q17.9047,348.7969 18.0469,348.7969 Q18.2766,348.7969 18.4516,348.9828 Q18.6375,349.1578 18.6375,349.3984 Q18.6375,349.6391 18.3969,349.9234 Q18.0469,350.3281 17.4891,350.5578 Q16.7344,350.875 15.8266,350.875 Q14.7656,350.875 13.9234,350.4375 Q13.2344,350.0875 12.7531,349.3437 Q12.2719,348.5891 12.2719,347.6922 L12.2719,346.8828 Q12.2719,345.9531 12.6984,345.1547 Q13.1359,344.3453 13.9016,343.9187 Q14.6672,343.4812 15.5312,343.4812 Q16.0453,343.4812 16.4937,343.6016 Q16.9531,343.7109 17.3359,343.9625 Z " fill="#000000"/><text fill="#000000" font-family="sans-serif" font-size="9.8" lengthAdjust="spacing" textLength="70" x="25.2" y="350.9078">SkillsRepository</text><line style="stroke:#181818;stroke-width:0.3499999999999999;" x1="5.6" x2="96.6" y1="358.05" y2="358.05"/><line style="stroke:#181818;stroke-width:0.3499999999999999;" x1="5.6" x2="96.6" y1="363.65" y2="363.65"/><text fill="#000000" font-family="sans-serif" font-size="9.8" lengthAdjust="spacing" textLength="64.4" x="9.1" y="377.0252">+getSkillsList()</text></g><!--class GenerateTeamRepository--><g id="elem_GenerateTeamRepository"><rect codeLine="27" fill="#F1F1F1" height="72.7043" id="GenerateTeamRepository" rx="1.75" ry="1.75" style="stroke:#181818;stroke-width:0.3499999999999999;" width="182.7" x="122.15" y="322.7"/><ellipse cx="153.125" cy="333.9" fill="#ADD1B2" rx="7.7" ry="7.7" style="stroke:#181818;stroke-width:0.6999999999999998;"/><path d="M155.0609,331.0125 Q155.1703,330.8594 155.3016,330.7828 Q155.4328,330.7062 155.5859,330.7062 Q155.8484,330.7062 156.0125,330.8922 Q156.1766,331.0672 156.1766,331.4937 L156.1766,332.5109 Q156.1766,332.9375 156.0125,333.1234 Q155.8484,333.3094 155.5859,333.3094 Q155.3453,333.3094 155.2031,333.1672 Q155.0609,333.0359 154.9844,332.675 Q154.9516,332.4234 154.8203,332.2922 Q154.5906,332.0297 154.1641,331.8766 Q153.7375,331.7234 153.3,331.7234 Q152.7641,331.7234 152.3156,331.9531 Q151.8781,332.1828 151.5281,332.7078 Q151.1891,333.2328 151.1891,333.9547 L151.1891,334.7203 Q151.1891,335.5844 151.8125,336.1641 Q152.4359,336.7328 153.5516,336.7328 Q154.2078,336.7328 154.6672,336.5578 Q154.9406,336.4484 155.2359,336.1422 Q155.4219,335.9562 155.5203,335.9016 Q155.6297,335.8469 155.7719,335.8469 Q156.0016,335.8469 156.1766,336.0328 Q156.3625,336.2078 156.3625,336.4484 Q156.3625,336.6891 156.1219,336.9734 Q155.7719,337.3781 155.2141,337.6078 Q154.4594,337.925 153.5516,337.925 Q152.4906,337.925 151.6484,337.4875 Q150.9594,337.1375 150.4781,336.3937 Q149.9969,335.6391 149.9969,334.7422 L149.9969,333.9328 Q149.9969,333.0031 150.4234,332.2047 Q150.8609,331.3953 151.6266,330.9687 Q152.3922,330.5312 153.2562,330.5312 Q153.7703,330.5312 154.2187,330.6516 Q154.6781,330.7609 155.0609,331.0125 Z " fill="#000000"/><text fill="#000000" font-family="sans-serif" font-size="9.8" lengthAdjust="spacing" textLength="114.8" x="167.475" y="337.9578">GenerateTeamRepository</text><line style="stroke:#181818;stroke-width:0.3499999999999999;" x1="122.85" x2="304.15" y1="345.1" y2="345.1"/><line style="stroke:#181818;stroke-width:0.3499999999999999;" x1="122.85" x2="304.15" y1="350.7" y2="350.7"/><text fill="#000000" font-family="sans-serif" font-size="9.8" lengthAdjust="spacing" textLength="52.5" x="126.35" y="364.0752">-addTeam()</text><text fill="#000000" font-family="sans-serif" font-size="9.8" lengthAdjust="spacing" textLength="70" x="126.35" y="377.11">-validateTeam()</text><text fill="#000000" font-family="sans-serif" font-size="9.8" lengthAdjust="spacing" textLength="174.3" x="126.35" y="390.1447">+generateTeam(minSize, maxSize, skill)</text></g><!--class Repositories--><g id="elem_Repositories"><rect codeLine="33" fill="#F1F1F1" height="85.7391" id="Repositories" rx="1.75" ry="1.75" style="stroke:#181818;stroke-width:0.3499999999999999;" width="149.8" x="57.4" y="195.3"/><ellipse cx="101.675" cy="206.5" fill="#ADD1B2" rx="7.7" ry="7.7" style="stroke:#181818;stroke-width:0.6999999999999998;"/><path d="M103.6109,203.6125 Q103.7203,203.4594 103.8516,203.3828 Q103.9828,203.3062 104.1359,203.3062 Q104.3984,203.3062 104.5625,203.4922 Q104.7266,203.6672 104.7266,204.0937 L104.7266,205.1109 Q104.7266,205.5375 104.5625,205.7234 Q104.3984,205.9094 104.1359,205.9094 Q103.8953,205.9094 103.7531,205.7672 Q103.6109,205.6359 103.5344,205.275 Q103.5016,205.0234 103.3703,204.8922 Q103.1406,204.6297 102.7141,204.4766 Q102.2875,204.3234 101.85,204.3234 Q101.3141,204.3234 100.8656,204.5531 Q100.4281,204.7828 100.0781,205.3078 Q99.7391,205.8328 99.7391,206.5547 L99.7391,207.3203 Q99.7391,208.1844 100.3625,208.7641 Q100.9859,209.3328 102.1016,209.3328 Q102.7578,209.3328 103.2172,209.1578 Q103.4906,209.0484 103.7859,208.7422 Q103.9719,208.5562 104.0703,208.5016 Q104.1797,208.4469 104.3219,208.4469 Q104.5516,208.4469 104.7266,208.6328 Q104.9125,208.8078 104.9125,209.0484 Q104.9125,209.2891 104.6719,209.5734 Q104.3219,209.9781 103.7641,210.2078 Q103.0094,210.525 102.1016,210.525 Q101.0406,210.525 100.1984,210.0875 Q99.5094,209.7375 99.0281,208.9937 Q98.5469,208.2391 98.5469,207.3422 L98.5469,206.5328 Q98.5469,205.6031 98.9734,204.8047 Q99.4109,203.9953 100.1766,203.5687 Q100.9422,203.1312 101.8062,203.1312 Q102.3203,203.1312 102.7687,203.2516 Q103.2281,203.3609 103.6109,203.6125 Z " fill="#000000"/><text fill="#000000" font-family="sans-serif" font-size="9.8" lengthAdjust="spacing" textLength="55.3" x="116.025" y="210.5578">Repositories</text><line style="stroke:#181818;stroke-width:0.3499999999999999;" x1="58.1" x2="206.5" y1="217.7" y2="217.7"/><line style="stroke:#181818;stroke-width:0.3499999999999999;" x1="58.1" x2="206.5" y1="223.3" y2="223.3"/><text fill="#000000" font-family="sans-serif" font-size="9.8" lengthAdjust="spacing" textLength="65.8" x="61.6" y="236.6752">-Repositories()</text><text fill="#000000" font-family="sans-serif" font-size="9.8" lengthAdjust="spacing" textLength="127.4" x="61.6" y="249.71">+getInstance() : Repositories</text><text fill="#000000" font-family="sans-serif" font-size="9.8" lengthAdjust="spacing" textLength="91.7" x="61.6" y="262.7447">+getSkillRepository()</text><text fill="#000000" font-family="sans-serif" font-size="9.8" lengthAdjust="spacing" textLength="141.4" x="61.6" y="275.7795">+getGenerateTeamRepository()</text></g><!--class HRM--><g id="elem_HRM"><rect codeLine="41" fill="#F1F1F1" height="46.6348" id="HRM" rx="1.75" ry="1.75" style="stroke:#181818;stroke-width:0.3499999999999999;" width="43.4" x="329.7" y="335.65"/><ellipse cx="340.2" cy="346.85" fill="#ADD1B2" rx="7.7" ry="7.7" style="stroke:#181818;stroke-width:0.6999999999999998;"/><path d="M342.1359,343.9625 Q342.2453,343.8094 342.3766,343.7328 Q342.5078,343.6562 342.6609,343.6562 Q342.9234,343.6562 343.0875,343.8422 Q343.2516,344.0172 343.2516,344.4437 L343.2516,345.4609 Q343.2516,345.8875 343.0875,346.0734 Q342.9234,346.2594 342.6609,346.2594 Q342.4203,346.2594 342.2781,346.1172 Q342.1359,345.9859 342.0594,345.625 Q342.0266,345.3734 341.8953,345.2422 Q341.6656,344.9797 341.2391,344.8266 Q340.8125,344.6734 340.375,344.6734 Q339.8391,344.6734 339.3906,344.9031 Q338.9531,345.1328 338.6031,345.6578 Q338.2641,346.1828 338.2641,346.9047 L338.2641,347.6703 Q338.2641,348.5344 338.8875,349.1141 Q339.5109,349.6828 340.6266,349.6828 Q341.2828,349.6828 341.7422,349.5078 Q342.0156,349.3984 342.3109,349.0922 Q342.4969,348.9062 342.5953,348.8516 Q342.7047,348.7969 342.8469,348.7969 Q343.0766,348.7969 343.2516,348.9828 Q343.4375,349.1578 343.4375,349.3984 Q343.4375,349.6391 343.1969,349.9234 Q342.8469,350.3281 342.2891,350.5578 Q341.5344,350.875 340.6266,350.875 Q339.5656,350.875 338.7234,350.4375 Q338.0344,350.0875 337.5531,349.3437 Q337.0719,348.5891 337.0719,347.6922 L337.0719,346.8828 Q337.0719,345.9531 337.4984,345.1547 Q337.9359,344.3453 338.7016,343.9187 Q339.4672,343.4812 340.3312,343.4812 Q340.8453,343.4812 341.2937,343.6016 Q341.7531,343.7109 342.1359,343.9625 Z " fill="#000000"/><text fill="#000000" font-family="sans-serif" font-size="9.8" lengthAdjust="spacing" textLength="21" x="350" y="350.9078">HRM</text><line style="stroke:#181818;stroke-width:0.3499999999999999;" x1="330.4" x2="372.4" y1="358.05" y2="358.05"/><text fill="#000000" font-family="sans-serif" font-size="9.8" lengthAdjust="spacing" textLength="28" x="333.9" y="371.4252">-name</text><line style="stroke:#181818;stroke-width:0.3499999999999999;" x1="330.4" x2="372.4" y1="376.6848" y2="376.6848"/></g><!--class GenerateTeamController--><g id="elem_GenerateTeamController"><rect codeLine="45" fill="#F1F1F1" height="72.7043" id="GenerateTeamController" rx="1.75" ry="1.75" style="stroke:#181818;stroke-width:0.3499999999999999;" width="182.7" x="40.95" y="80.5"/><ellipse cx="74.025" cy="91.7" fill="#ADD1B2" rx="7.7" ry="7.7" style="stroke:#181818;stroke-width:0.6999999999999998;"/><path d="M75.9609,88.8125 Q76.0703,88.6594 76.2016,88.5828 Q76.3328,88.5062 76.4859,88.5062 Q76.7484,88.5062 76.9125,88.6922 Q77.0766,88.8672 77.0766,89.2937 L77.0766,90.3109 Q77.0766,90.7375 76.9125,90.9234 Q76.7484,91.1094 76.4859,91.1094 Q76.2453,91.1094 76.1031,90.9672 Q75.9609,90.8359 75.8844,90.475 Q75.8516,90.2234 75.7203,90.0922 Q75.4906,89.8297 75.0641,89.6766 Q74.6375,89.5234 74.2,89.5234 Q73.6641,89.5234 73.2156,89.7531 Q72.7781,89.9828 72.4281,90.5078 Q72.0891,91.0328 72.0891,91.7547 L72.0891,92.5203 Q72.0891,93.3844 72.7125,93.9641 Q73.3359,94.5328 74.4516,94.5328 Q75.1078,94.5328 75.5672,94.3578 Q75.8406,94.2484 76.1359,93.9422 Q76.3219,93.7562 76.4203,93.7016 Q76.5297,93.6469 76.6719,93.6469 Q76.9016,93.6469 77.0766,93.8328 Q77.2625,94.0078 77.2625,94.2484 Q77.2625,94.4891 77.0219,94.7734 Q76.6719,95.1781 76.1141,95.4078 Q75.3594,95.725 74.4516,95.725 Q73.3906,95.725 72.5484,95.2875 Q71.8594,94.9375 71.3781,94.1937 Q70.8969,93.4391 70.8969,92.5422 L70.8969,91.7328 Q70.8969,90.8031 71.3234,90.0047 Q71.7609,89.1953 72.5266,88.7687 Q73.2922,88.3312 74.1562,88.3312 Q74.6703,88.3312 75.1187,88.4516 Q75.5781,88.5609 75.9609,88.8125 Z " fill="#000000"/><text fill="#000000" font-family="sans-serif" font-size="9.8" lengthAdjust="spacing" textLength="110.6" x="88.375" y="95.7578">GenerateTeamController</text><line style="stroke:#181818;stroke-width:0.3499999999999999;" x1="41.65" x2="222.95" y1="102.9" y2="102.9"/><line style="stroke:#181818;stroke-width:0.3499999999999999;" x1="41.65" x2="222.95" y1="108.5" y2="108.5"/><text fill="#000000" font-family="sans-serif" font-size="9.8" lengthAdjust="spacing" textLength="123.2" x="45.15" y="121.8752">+GenerateTeamController()</text><text fill="#000000" font-family="sans-serif" font-size="9.8" lengthAdjust="spacing" textLength="64.4" x="45.15" y="134.91">+getSkillsList()</text><text fill="#000000" font-family="sans-serif" font-size="9.8" lengthAdjust="spacing" textLength="174.3" x="45.15" y="147.9447">+generateTeam(minSize, maxSize, skill)</text></g><!--class GenerateTeamUI--><g id="elem_GenerateTeamUI"><rect codeLine="51" fill="#F1F1F1" height="33.6" id="GenerateTeamUI" rx="1.75" ry="1.75" style="stroke:#181818;stroke-width:0.3499999999999999;" width="98" x="83.3" y="4.9"/><ellipse cx="93.8" cy="16.1" fill="#ADD1B2" rx="7.7" ry="7.7" style="stroke:#181818;stroke-width:0.6999999999999998;"/><path d="M95.7359,13.2125 Q95.8453,13.0594 95.9766,12.9828 Q96.1078,12.9062 96.2609,12.9062 Q96.5234,12.9062 96.6875,13.0922 Q96.8516,13.2672 96.8516,13.6937 L96.8516,14.7109 Q96.8516,15.1375 96.6875,15.3234 Q96.5234,15.5094 96.2609,15.5094 Q96.0203,15.5094 95.8781,15.3672 Q95.7359,15.2359 95.6594,14.875 Q95.6266,14.6234 95.4953,14.4922 Q95.2656,14.2297 94.8391,14.0766 Q94.4125,13.9234 93.975,13.9234 Q93.4391,13.9234 92.9906,14.1531 Q92.5531,14.3828 92.2031,14.9078 Q91.8641,15.4328 91.8641,16.1547 L91.8641,16.9203 Q91.8641,17.7844 92.4875,18.3641 Q93.1109,18.9328 94.2266,18.9328 Q94.8828,18.9328 95.3422,18.7578 Q95.6156,18.6484 95.9109,18.3422 Q96.0969,18.1562 96.1953,18.1016 Q96.3047,18.0469 96.4469,18.0469 Q96.6766,18.0469 96.8516,18.2328 Q97.0375,18.4078 97.0375,18.6484 Q97.0375,18.8891 96.7969,19.1734 Q96.4469,19.5781 95.8891,19.8078 Q95.1344,20.125 94.2266,20.125 Q93.1656,20.125 92.3234,19.6875 Q91.6344,19.3375 91.1531,18.5937 Q90.6719,17.8391 90.6719,16.9422 L90.6719,16.1328 Q90.6719,15.2031 91.0984,14.4047 Q91.5359,13.5953 92.3016,13.1687 Q93.0672,12.7312 93.9312,12.7312 Q94.4453,12.7312 94.8937,12.8516 Q95.3531,12.9609 95.7359,13.2125 Z " fill="#000000"/><text fill="#000000" font-family="sans-serif" font-size="9.8" lengthAdjust="spacing" textLength="75.6" x="103.6" y="20.1578">GenerateTeamUI</text><line style="stroke:#181818;stroke-width:0.3499999999999999;" x1="84" x2="180.6" y1="27.3" y2="27.3"/><line style="stroke:#181818;stroke-width:0.3499999999999999;" x1="84" x2="180.6" y1="32.9" y2="32.9"/></g><!--link GenerateTeamUI to GenerateTeamController--><g id="link_GenerateTeamUI_GenerateTeamController"><path codeLine="54" d="M132.3,38.528 C132.3,50.05 132.3,61.81 132.3,76.272 " fill="none" id="GenerateTeamUI-to-GenerateTeamController" style="stroke:#181818;stroke-width:0.6999999999999998;stroke-dasharray:7.0,7.0;"/><polygon fill="#181818" points="132.3,80.472,135.1,74.172,132.3,76.972,129.5,74.172,132.3,80.472" style="stroke:#181818;stroke-width:0.6999999999999998;"/></g><!--link GenerateTeamController to Repositories--><g id="link_GenerateTeamController_Repositories"><path codeLine="55" d="M132.3,153.517 C132.3,166.6 132.3,177.31 132.3,190.89 " fill="none" id="GenerateTeamController-to-Repositories" style="stroke:#181818;stroke-width:0.6999999999999998;stroke-dasharray:7.0,7.0;"/><polygon fill="#181818" points="132.3,195.09,135.1,188.79,132.3,191.59,129.5,188.79,132.3,195.09" style="stroke:#181818;stroke-width:0.6999999999999998;"/></g><!--link GenerateTeamController to GenerateTeamRepository--><g id="link_GenerateTeamController_GenerateTeamRepository"><path codeLine="56" d="M172.718,153.496 C195.65,173.852 219.8,195.3 219.8,195.3 C219.8,195.3 219.8,280.7 219.8,280.7 C219.8,280.7 218.4037,297.9618 216.7517,318.3178 " fill="none" id="GenerateTeamController-to-GenerateTeamRepository" style="stroke:#181818;stroke-width:0.6999999999999998;stroke-dasharray:7.0,7.0;"/><polygon fill="#181818" points="216.412,322.504,219.7124,316.4511,216.6951,319.0155,214.1308,315.9982,216.412,322.504" style="stroke:#181818;stroke-width:0.6999999999999998;"/></g><!--link GenerateTeamController to SkillsRepository--><g id="link_GenerateTeamController_SkillsRepository"><path codeLine="57" d="M91.882,153.496 C68.95,173.852 44.8,195.3 44.8,195.3 C44.8,195.3 44.8,280.7 44.8,280.7 C44.8,280.7 47.043,308.3988 48.905,331.3238 " fill="none" id="GenerateTeamController-to-SkillsRepository" style="stroke:#181818;stroke-width:0.6999999999999998;stroke-dasharray:7.0,7.0;"/><polygon fill="#181818" points="49.245,335.51,51.5258,329.004,48.9617,332.0215,45.9442,329.4574,49.245,335.51" style="stroke:#181818;stroke-width:0.6999999999999998;"/></g><!--link Repositories to GenerateTeamRepository--><g id="link_Repositories_GenerateTeamRepository"><path codeLine="58" d="M160.93,280.903 C170.149,294.497 177.9205,305.9521 186.8035,319.0491 " fill="none" id="Repositories-to-GenerateTeamRepository" style="stroke:#181818;stroke-width:0.6999999999999998;"/><polygon fill="#181818" points="189.161,322.525,187.942,315.7394,187.1964,319.6284,183.3074,318.8828,189.161,322.525" style="stroke:#181818;stroke-width:0.6999999999999998;"/></g><!--link Repositories to SkillsRepository--><g id="link_Repositories_SkillsRepository"><path codeLine="59" d="M103.67,280.903 C91.252,299.208 79.546,316.4587 69.095,331.8727 " fill="none" id="Repositories-to-SkillsRepository" style="stroke:#181818;stroke-width:0.6999999999999998;"/><polygon fill="#181818" points="66.738,335.349,72.591,331.7059,68.7022,332.4521,67.956,328.5632,66.738,335.349" style="stroke:#181818;stroke-width:0.6999999999999998;"/></g><!--link HRM to GenerateTeam--><g id="link_HRM_GenerateTeam"><path codeLine="60" d="M329.679,382.41 C322.868,389.494 317.1,395.5 317.1,395.5 C317.1,395.5 292.4141,414.3951 265.8211,434.7511 " fill="none" id="HRM-to-GenerateTeam" style="stroke:#181818;stroke-width:0.6999999999999998;"/><polygon fill="#181818" points="262.486,437.304,269.1905,435.6981,265.2652,435.1766,265.7867,431.2513,262.486,437.304" style="stroke:#181818;stroke-width:0.6999999999999998;"/></g><!--link HRM to Skill--><g id="link_HRM_Skill"><path codeLine="61" d="M346.724,382.655 C338.107,424.76 320.6,510.3 320.6,510.3 C320.6,510.3 282.8067,535.8766 252.0137,556.7086 " fill="none" id="HRM-to-Skill" style="stroke:#181818;stroke-width:0.6999999999999998;"/><polygon fill="#181818" points="248.535,559.062,255.322,557.851,251.4339,557.1008,252.1841,553.2127,248.535,559.062" style="stroke:#181818;stroke-width:0.6999999999999998;"/></g><!--link GenerateTeamRepository to GenerateTeam--><g id="link_GenerateTeamRepository_GenerateTeam"><path codeLine="62" d="M214.165,395.682 C214.41,408.982 214.6126,419.8607 214.8576,433.1607 " fill="none" id="GenerateTeamRepository-to-GenerateTeam" style="stroke:#181818;stroke-width:0.6999999999999998;"/><polygon fill="#181818" points="214.935,437.36,217.6185,431.0095,214.8705,433.8606,212.0194,431.1126,214.935,437.36" style="stroke:#181818;stroke-width:0.6999999999999998;"/></g><!--link SkillsRepository to Skill--><g id="link_SkillsRepository_Skill"><path codeLine="63" d="M60.137,382.655 C76.783,424.76 110.6,510.3 110.6,510.3 C110.6,510.3 148.3933,535.8766 179.1863,556.7086 " fill="none" id="SkillsRepository-to-Skill" style="stroke:#181818;stroke-width:0.6999999999999998;"/><polygon fill="#181818" points="182.665,559.062,179.0159,553.2127,179.7661,557.1008,175.878,557.851,182.665,559.062" style="stroke:#181818;stroke-width:0.6999999999999998;"/></g><!--link GenerateTeam to Skill--><g id="link_GenerateTeam_Skill"><path codeLine="64" d="M215.6,510.44 C215.6,524.013 215.6,535.08 215.6,547.96 " fill="none" id="GenerateTeam-to-Skill" style="stroke:#181818;stroke-width:0.6999999999999998;"/><polygon fill="#181818" points="215.6,552.16,218.4,545.86,215.6,548.66,212.8,545.86,215.6,552.16" style="stroke:#181818;stroke-width:0.6999999999999998;"/></g><!--SRC=[dLF9JiCm4BtxA-P6eZOLPmv8Y0DKWai37s2IQMhXsf4zB07nxpXkwZfRXSZDR-OjCtRigr0rDtmFDIzUUOKvDHB1O45SLHAP3Grsnqlz8LG5MovjN9528JKrGgrbqnvOL2maj_Q6o8YNDy9reLKklX0k6RkGk2KW3KPKEu9IjAv2AyOy1-vGeU64J-XalXcuBmEX2FR2QyG8__I8XnOzPj9rBuzDIt3Xf4mP-pawvIqGB7ANrKsf-1uxlKCzQP4HpMwmrbQGDasdi80AwL1x49QIzCI8Wuru6V2oz97JxlpEfIYFSwH1_2_31SjW8z06enYCX6cjhBlt0fCKhdfDWy5EsMFsz7I7-Riqzvl74C8lU78rjrgHqLAY2IkTBiVklOt_QrMnn_FQMRlA05kjhcUYi9a1MaPlasVwfXTuZZ5yWgnttLasgpdg6ocrLpKK2A3lPZFFUSGQ_IZJ4X7Cs2y0]--></g></svg>