<?xml version="1.0" encoding="us-ascii" standalone="no"?><svg xmlns="http://www.w3.org/2000/svg" xmlns:xlink="http://www.w3.org/1999/xlink" contentStyleType="text/css" height="356px" preserveAspectRatio="none" style="width:538px;height:356px;background:#FFFFFF;" version="1.1" viewBox="0 0 538 356" width="538.8px" zoomAndPan="magnify"><defs/><g><rect fill="#FFFFFF" height="278.1453" style="stroke:#181818;stroke-width:0.4000000000000001;" width="4" x="36.4" y="37.4484"/><rect fill="#FFFFFF" height="29.9648" style="stroke:#181818;stroke-width:0.4000000000000001;" width="4" x="178.8" y="46.7648"/><rect fill="#FFFFFF" height="56.85" style="stroke:#181818;stroke-width:0.4000000000000001;" width="4" x="178.8" y="89.2461"/><rect fill="#FFFFFF" height="12.5164" style="stroke:#181818;stroke-width:0.4000000000000001;" width="4" x="178.8" y="158.6125"/><rect fill="#FFFFFF" height="131.9484" style="stroke:#181818;stroke-width:0.4000000000000001;" width="4" x="178.8" y="183.6453"/><rect fill="#FFFFFF" height="31.8172" style="stroke:#181818;stroke-width:0.4000000000000001;" width="4" x="288.4" y="101.7625"/><rect fill="#FFFFFF" height="106.9156" style="stroke:#181818;stroke-width:0.4000000000000001;" width="4" x="288.4" y="196.1617"/><rect fill="#FFFFFF" height="12.5164" style="stroke:#181818;stroke-width:0.4000000000000001;" width="4" x="347" y="208.6781"/><rect fill="#FFFFFF" height="12.5164" style="stroke:#181818;stroke-width:0.4000000000000001;" width="4" x="389.8" y="233.7109"/><rect fill="#FFFFFF" height="31.8172" style="stroke:#181818;stroke-width:0.4000000000000001;" width="4" x="497.4" y="258.7438"/><line style="stroke:#181818;stroke-width:0.20000000000000004;stroke-dasharray:5.0,5.0;" x1="38.4" x2="38.4" y1="33.4484" y2="322.7938"/><line style="stroke:#181818;stroke-width:0.20000000000000004;stroke-dasharray:5.0,5.0;" x1="180.8" x2="180.8" y1="33.4484" y2="322.7938"/><line style="stroke:#181818;stroke-width:0.20000000000000004;stroke-dasharray:5.0,5.0;" x1="290.4" x2="290.4" y1="62.6891" y2="322.7938"/><line style="stroke:#181818;stroke-width:0.20000000000000004;stroke-dasharray:5.0,5.0;" x1="348.8" x2="348.8" y1="33.4484" y2="322.7938"/><line style="stroke:#181818;stroke-width:0.20000000000000004;stroke-dasharray:5.0,5.0;" x1="391.6" x2="391.6" y1="33.4484" y2="322.7938"/><line style="stroke:#181818;stroke-width:0.20000000000000004;stroke-dasharray:5.0,5.0;" x1="437.2" x2="437.2" y1="33.4484" y2="322.7938"/><line style="stroke:#181818;stroke-width:0.20000000000000004;stroke-dasharray:5.0,5.0;" x1="499.2" x2="499.2" y1="33.4484" y2="322.7938"/><text fill="#000000" font-family="sans-serif" font-size="5.6" lengthAdjust="spacing" textLength="70.4" x="2" y="32.043">Human Resources Manager</text><ellipse cx="38.4" cy="5.4" fill="#E3E3E3" rx="3.2" ry="3.2" style="stroke:#181818;stroke-width:0.20000000000000004;"/><path d="M38.4,8.6 L38.4,19.4 M33.2,11.8 L43.6,11.8 M38.4,19.4 L33.2,25.4 M38.4,19.4 L43.6,25.4 " fill="none" style="stroke:#181818;stroke-width:0.20000000000000004;"/><text fill="#000000" font-family="sans-serif" font-size="5.6" lengthAdjust="spacing" textLength="70.4" x="2" y="328.4367">Human Resources Manager</text><ellipse cx="38.4" cy="333.2422" fill="#E3E3E3" rx="3.2" ry="3.2" style="stroke:#181818;stroke-width:0.20000000000000004;"/><path d="M38.4,336.4422 L38.4,347.2422 M33.2,339.6422 L43.6,339.6422 M38.4,347.2422 L33.2,353.2422 M38.4,347.2422 L43.6,353.2422 " fill="none" style="stroke:#181818;stroke-width:0.20000000000000004;"/><rect fill="#E3E3E3" height="13.0484" rx="1" ry="1" style="stroke:#181818;stroke-width:0.20000000000000004;" width="50.4" x="155.6" y="20"/><text fill="#000000" font-family="sans-serif" font-size="5.6" lengthAdjust="spacing" textLength="44.8" x="158.4" y="28.843">:GenerateTeamUI</text><rect fill="#E3E3E3" height="13.0484" rx="1" ry="1" style="stroke:#181818;stroke-width:0.20000000000000004;" width="50.4" x="155.6" y="322.3938"/><text fill="#000000" font-family="sans-serif" font-size="5.6" lengthAdjust="spacing" textLength="44.8" x="158.4" y="331.2367">:GenerateTeamUI</text><rect fill="#E3E3E3" height="13.0484" rx="1" ry="1" style="stroke:#181818;stroke-width:0.20000000000000004;" width="70.4" x="255.2" y="322.3938"/><text fill="#000000" font-family="sans-serif" font-size="5.6" lengthAdjust="spacing" textLength="64.8" x="258" y="331.2367">:GenerateTeamController</text><rect fill="#E3E3E3" height="13.0484" rx="1" ry="1" style="stroke:#181818;stroke-width:0.20000000000000004;" width="38.8" x="329.6" y="20"/><text fill="#000000" font-family="sans-serif" font-size="5.6" lengthAdjust="spacing" textLength="33.2" x="332.4" y="28.843">:Repositories</text><rect fill="#E3E3E3" height="13.0484" rx="1" ry="1" style="stroke:#181818;stroke-width:0.20000000000000004;" width="38.8" x="329.6" y="322.3938"/><text fill="#000000" font-family="sans-serif" font-size="5.6" lengthAdjust="spacing" textLength="33.2" x="332.4" y="331.2367">:Repositories</text><rect fill="#E3E3E3" height="20.4969" rx="1" ry="1" style="stroke:#181818;stroke-width:0.20000000000000004;" width="38.8" x="372.4" y="12.5516"/><text fill="#000000" font-family="sans-serif" font-size="5.6" lengthAdjust="spacing" textLength="29.6" x="377" y="21.3945">repositories</text><text fill="#000000" font-family="sans-serif" font-size="5.6" lengthAdjust="spacing" textLength="33.2" x="375.2" y="28.843">:Repositories</text><rect fill="#E3E3E3" height="20.4969" rx="1" ry="1" style="stroke:#181818;stroke-width:0.20000000000000004;" width="38.8" x="372.4" y="322.3938"/><text fill="#000000" font-family="sans-serif" font-size="5.6" lengthAdjust="spacing" textLength="29.6" x="377" y="331.2367">repositories</text><text fill="#000000" font-family="sans-serif" font-size="5.6" lengthAdjust="spacing" textLength="33.2" x="375.2" y="338.6852">:Repositories</text><rect fill="#E3E3E3" height="20.4969" rx="1" ry="1" style="stroke:#181818;stroke-width:0.20000000000000004;" width="44.4" x="415.2" y="12.5516"/><text fill="#000000" font-family="sans-serif" font-size="5.6" lengthAdjust="spacing" textLength="36.4" x="419.2" y="21.3945">skillRepository</text><text fill="#000000" font-family="sans-serif" font-size="5.6" lengthAdjust="spacing" textLength="38.8" x="418" y="28.843">:SkillRepository</text><rect fill="#E3E3E3" height="20.4969" rx="1" ry="1" style="stroke:#181818;stroke-width:0.20000000000000004;" width="44.4" x="415.2" y="322.3938"/><text fill="#000000" font-family="sans-serif" font-size="5.6" lengthAdjust="spacing" textLength="36.4" x="419.2" y="331.2367">skillRepository</text><text fill="#000000" font-family="sans-serif" font-size="5.6" lengthAdjust="spacing" textLength="38.8" x="418" y="338.6852">:SkillRepository</text><rect fill="#E3E3E3" height="20.4969" rx="1" ry="1" style="stroke:#181818;stroke-width:0.20000000000000004;" width="71.6" x="463.6" y="12.5516"/><text fill="#000000" font-family="sans-serif" font-size="5.6" lengthAdjust="spacing" textLength="66" x="466.4" y="21.3945">generateTeamRepository:</text><text fill="#000000" font-family="sans-serif" font-size="5.6" lengthAdjust="spacing" textLength="65.6" x="466.6" y="28.843">GenerateTeamRepository</text><rect fill="#E3E3E3" height="20.4969" rx="1" ry="1" style="stroke:#181818;stroke-width:0.20000000000000004;" width="71.6" x="463.6" y="322.3938"/><text fill="#000000" font-family="sans-serif" font-size="5.6" lengthAdjust="spacing" textLength="66" x="466.4" y="331.2367">generateTeamRepository:</text><text fill="#000000" font-family="sans-serif" font-size="5.6" lengthAdjust="spacing" textLength="65.6" x="466.6" y="338.6852">GenerateTeamRepository</text><rect fill="#FFFFFF" height="278.1453" style="stroke:#181818;stroke-width:0.4000000000000001;" width="4" x="36.4" y="37.4484"/><rect fill="#FFFFFF" height="29.9648" style="stroke:#181818;stroke-width:0.4000000000000001;" width="4" x="178.8" y="46.7648"/><rect fill="#FFFFFF" height="56.85" style="stroke:#181818;stroke-width:0.4000000000000001;" width="4" x="178.8" y="89.2461"/><rect fill="#FFFFFF" height="12.5164" style="stroke:#181818;stroke-width:0.4000000000000001;" width="4" x="178.8" y="158.6125"/><rect fill="#FFFFFF" height="131.9484" style="stroke:#181818;stroke-width:0.4000000000000001;" width="4" x="178.8" y="183.6453"/><rect fill="#FFFFFF" height="31.8172" style="stroke:#181818;stroke-width:0.4000000000000001;" width="4" x="288.4" y="101.7625"/><rect fill="#FFFFFF" height="106.9156" style="stroke:#181818;stroke-width:0.4000000000000001;" width="4" x="288.4" y="196.1617"/><rect fill="#FFFFFF" height="12.5164" style="stroke:#181818;stroke-width:0.4000000000000001;" width="4" x="347" y="208.6781"/><rect fill="#FFFFFF" height="12.5164" style="stroke:#181818;stroke-width:0.4000000000000001;" width="4" x="389.8" y="233.7109"/><rect fill="#FFFFFF" height="31.8172" style="stroke:#181818;stroke-width:0.4000000000000001;" width="4" x="497.4" y="258.7438"/><polygon fill="#181818" points="174,45.1648,178,46.7648,174,48.3648,175.6,46.7648" style="stroke:#181818;stroke-width:0.4000000000000001;"/><line style="stroke:#181818;stroke-width:0.4000000000000001;" x1="40.4" x2="176.4" y1="46.7648" y2="46.7648"/><text fill="#000000" font-family="sans-serif" font-size="5.2" font-weight="bold" lengthAdjust="spacing" textLength="2.8" x="43.2" y="44.6598">1</text><text fill="#000000" font-family="sans-serif" font-size="5.2" lengthAdjust="spacing" textLength="82.4" x="47.6" y="44.6598">Initiates a team proposal generation</text><polygon fill="#181818" points="250.4,57.6813,254.4,59.2813,250.4,60.8813,252,59.2813" style="stroke:#181818;stroke-width:0.4000000000000001;"/><line style="stroke:#181818;stroke-width:0.4000000000000001;" x1="182.8" x2="252.8" y1="59.2813" y2="59.2813"/><text fill="#000000" font-family="sans-serif" font-size="5.2" font-weight="bold" lengthAdjust="spacing" textLength="2.8" x="185.6" y="57.1762">2</text><text fill="#000000" font-family="sans-serif" font-size="5.2" lengthAdjust="spacing" textLength="14.4" x="190" y="57.1762">create</text><rect fill="#E3E3E3" height="13.0484" rx="1" ry="1" style="stroke:#181818;stroke-width:0.20000000000000004;" width="70.4" x="255.2" y="49.9648"/><text fill="#000000" font-family="sans-serif" font-size="5.6" lengthAdjust="spacing" textLength="64.8" x="258" y="58.8078">:GenerateTeamController</text><polygon fill="#181818" points="44.8,75.1297,40.8,76.7297,44.8,78.3297,43.2,76.7297" style="stroke:#181818;stroke-width:0.4000000000000001;"/><line style="stroke:#181818;stroke-width:0.4000000000000001;stroke-dasharray:2.0,2.0;" x1="42.4" x2="180.4" y1="76.7297" y2="76.7297"/><text fill="#000000" font-family="sans-serif" font-size="5.2" font-weight="bold" lengthAdjust="spacing" textLength="2.8" x="47.2" y="74.6246">3</text><text fill="#000000" font-family="sans-serif" font-size="5.2" lengthAdjust="spacing" textLength="92.8" x="51.6" y="74.6246">Requests data (min and max team size)</text><polygon fill="#181818" points="174,87.6461,178,89.2461,174,90.8461,175.6,89.2461" style="stroke:#181818;stroke-width:0.4000000000000001;"/><line style="stroke:#181818;stroke-width:0.4000000000000001;" x1="40.4" x2="176.4" y1="89.2461" y2="89.2461"/><text fill="#000000" font-family="sans-serif" font-size="5.2" font-weight="bold" lengthAdjust="spacing" textLength="2.8" x="43.2" y="87.141">4</text><text fill="#000000" font-family="sans-serif" font-size="5.2" lengthAdjust="spacing" textLength="50" x="47.6" y="87.141">Types requested data</text><polygon fill="#181818" points="283.6,100.1625,287.6,101.7625,283.6,103.3625,285.2,101.7625" style="stroke:#181818;stroke-width:0.4000000000000001;"/><line style="stroke:#181818;stroke-width:0.4000000000000001;" x1="182.8" x2="286" y1="101.7625" y2="101.7625"/><text fill="#000000" font-family="sans-serif" font-size="5.2" font-weight="bold" lengthAdjust="spacing" textLength="2.8" x="185.6" y="99.6574">5</text><text fill="#000000" font-family="sans-serif" font-size="5.2" lengthAdjust="spacing" textLength="31.6" x="190" y="99.6574">getSkillsList()</text><rect fill="none" height="17.3008" style="stroke:#000000;stroke-width:0.6000000000000001;" width="72.8" x="254" y="104.9625"/><path d="M254,104.9625 L278.8,104.9625 L278.8,108.5625 L274.8,112.5625 L254,112.5625 L254,104.9625 " fill="#EEEEEE" style="stroke:#000000;stroke-width:0.8000000000000002;"/><text fill="#000000" font-family="sans-serif" font-size="5.2" font-weight="bold" lengthAdjust="spacing" textLength="6.8" x="259.2" y="111.3738">ref</text><text fill="#000000" font-family="sans-serif" font-size="4.8" lengthAdjust="spacing" textLength="30" x="275.4" y="119.3422">Get Skills List</text><polygon fill="#181818" points="187.2,131.9797,183.2,133.5797,187.2,135.1797,185.6,133.5797" style="stroke:#181818;stroke-width:0.4000000000000001;"/><line style="stroke:#181818;stroke-width:0.4000000000000001;stroke-dasharray:2.0,2.0;" x1="184.8" x2="290" y1="133.5797" y2="133.5797"/><text fill="#000000" font-family="sans-serif" font-size="5.2" font-weight="bold" lengthAdjust="spacing" textLength="2.8" x="189.6" y="131.4746">6</text><text fill="#000000" font-family="sans-serif" font-size="5.2" lengthAdjust="spacing" textLength="21.2" x="194" y="131.4746">SkillsList</text><polygon fill="#181818" points="44.8,144.4961,40.8,146.0961,44.8,147.6961,43.2,146.0961" style="stroke:#181818;stroke-width:0.4000000000000001;"/><line style="stroke:#181818;stroke-width:0.4000000000000001;stroke-dasharray:2.0,2.0;" x1="42.4" x2="180.4" y1="146.0961" y2="146.0961"/><text fill="#000000" font-family="sans-serif" font-size="5.2" font-weight="bold" lengthAdjust="spacing" textLength="2.8" x="47.2" y="143.991">7</text><text fill="#000000" font-family="sans-serif" font-size="5.2" lengthAdjust="spacing" textLength="105.6" x="51.6" y="143.991">shows the list of skills and asks to select one</text><polygon fill="#181818" points="174,157.0125,178,158.6125,174,160.2125,175.6,158.6125" style="stroke:#181818;stroke-width:0.4000000000000001;"/><line style="stroke:#181818;stroke-width:0.4000000000000001;" x1="40.4" x2="176.4" y1="158.6125" y2="158.6125"/><text fill="#000000" font-family="sans-serif" font-size="5.2" font-weight="bold" lengthAdjust="spacing" textLength="2.8" x="43.2" y="156.5074">8</text><text fill="#000000" font-family="sans-serif" font-size="5.2" lengthAdjust="spacing" textLength="30.4" x="47.6" y="156.5074">chooses skill</text><polygon fill="#181818" points="44.8,169.5289,40.8,171.1289,44.8,172.7289,43.2,171.1289" style="stroke:#181818;stroke-width:0.4000000000000001;"/><line style="stroke:#181818;stroke-width:0.4000000000000001;stroke-dasharray:2.0,2.0;" x1="42.4" x2="180.4" y1="171.1289" y2="171.1289"/><text fill="#000000" font-family="sans-serif" font-size="5.2" font-weight="bold" lengthAdjust="spacing" textLength="2.8" x="47.2" y="169.0238">9</text><text fill="#000000" font-family="sans-serif" font-size="5.2" lengthAdjust="spacing" textLength="124.4" x="51.6" y="169.0238">generate the team proposal and requests confirmation</text><polygon fill="#181818" points="174,182.0453,178,183.6453,174,185.2453,175.6,183.6453" style="stroke:#181818;stroke-width:0.4000000000000001;"/><line style="stroke:#181818;stroke-width:0.4000000000000001;" x1="40.4" x2="176.4" y1="183.6453" y2="183.6453"/><text fill="#000000" font-family="sans-serif" font-size="5.2" font-weight="bold" lengthAdjust="spacing" textLength="5.6" x="43.2" y="181.5402">10</text><text fill="#000000" font-family="sans-serif" font-size="5.2" lengthAdjust="spacing" textLength="66" x="50.4" y="181.5402">confirms the team generated</text><polygon fill="#181818" points="283.6,194.5617,287.6,196.1617,283.6,197.7617,285.2,196.1617" style="stroke:#181818;stroke-width:0.4000000000000001;"/><line style="stroke:#181818;stroke-width:0.4000000000000001;" x1="182.8" x2="286" y1="196.1617" y2="196.1617"/><text fill="#000000" font-family="sans-serif" font-size="5.2" font-weight="bold" lengthAdjust="spacing" textLength="5.6" x="185.6" y="194.0566">11</text><text fill="#000000" font-family="sans-serif" font-size="5.2" lengthAdjust="spacing" textLength="90.8" x="192.8" y="194.0566">generateTeam(minSize, maxSize, skill)</text><polygon fill="#181818" points="342.2,207.0781,346.2,208.6781,342.2,210.2781,343.8,208.6781" style="stroke:#181818;stroke-width:0.4000000000000001;"/><line style="stroke:#181818;stroke-width:0.4000000000000001;" x1="292.4" x2="344.6" y1="208.6781" y2="208.6781"/><text fill="#000000" font-family="sans-serif" font-size="5.2" font-weight="bold" lengthAdjust="spacing" textLength="5.6" x="295.2" y="206.573">12</text><text fill="#000000" font-family="sans-serif" font-size="5.2" lengthAdjust="spacing" textLength="30" x="302.4" y="206.573">getInstance()</text><polygon fill="#181818" points="296.8,219.5945,292.8,221.1945,296.8,222.7945,295.2,221.1945" style="stroke:#181818;stroke-width:0.4000000000000001;"/><line style="stroke:#181818;stroke-width:0.4000000000000001;stroke-dasharray:2.0,2.0;" x1="294.4" x2="348.6" y1="221.1945" y2="221.1945"/><text fill="#000000" font-family="sans-serif" font-size="5.2" font-weight="bold" lengthAdjust="spacing" textLength="5.6" x="299.2" y="219.0895">13</text><text fill="#000000" font-family="sans-serif" font-size="5.2" lengthAdjust="spacing" textLength="26.8" x="306.4" y="219.0895">repositories</text><polygon fill="#181818" points="385,232.1109,389,233.7109,385,235.3109,386.6,233.7109" style="stroke:#181818;stroke-width:0.4000000000000001;"/><line style="stroke:#181818;stroke-width:0.4000000000000001;" x1="292.4" x2="387.4" y1="233.7109" y2="233.7109"/><text fill="#000000" font-family="sans-serif" font-size="5.2" font-weight="bold" lengthAdjust="spacing" textLength="5.6" x="295.2" y="231.6059">14</text><text fill="#000000" font-family="sans-serif" font-size="5.2" lengthAdjust="spacing" textLength="69.2" x="302.4" y="231.6059">getGenerateTeamRepository()</text><polygon fill="#181818" points="296.8,244.6273,292.8,246.2273,296.8,247.8273,295.2,246.2273" style="stroke:#181818;stroke-width:0.4000000000000001;"/><line style="stroke:#181818;stroke-width:0.4000000000000001;stroke-dasharray:2.0,2.0;" x1="294.4" x2="391.4" y1="246.2273" y2="246.2273"/><text fill="#000000" font-family="sans-serif" font-size="5.2" font-weight="bold" lengthAdjust="spacing" textLength="5.6" x="299.2" y="244.1223">15</text><text fill="#000000" font-family="sans-serif" font-size="5.2" lengthAdjust="spacing" textLength="57.6" x="306.4" y="244.1223">generateTeamRepository</text><polygon fill="#181818" points="492.6,257.1438,496.6,258.7438,492.6,260.3438,494.2,258.7438" style="stroke:#181818;stroke-width:0.4000000000000001;"/><line style="stroke:#181818;stroke-width:0.4000000000000001;" x1="292.4" x2="495" y1="258.7438" y2="258.7438"/><text fill="#000000" font-family="sans-serif" font-size="5.2" font-weight="bold" lengthAdjust="spacing" textLength="5.6" x="295.2" y="256.6387">16</text><text fill="#000000" font-family="sans-serif" font-size="5.2" lengthAdjust="spacing" textLength="90.8" x="302.4" y="256.6387">generateTeam(minSize, maxSize, skill)</text><rect fill="none" height="17.3008" style="stroke:#000000;stroke-width:0.6000000000000001;" width="74" x="462.4" y="261.9438"/><path d="M462.4,261.9438 L487.2,261.9438 L487.2,265.5438 L483.2,269.5438 L462.4,269.5438 L462.4,261.9438 " fill="#EEEEEE" style="stroke:#000000;stroke-width:0.8000000000000002;"/><text fill="#000000" font-family="sans-serif" font-size="5.2" font-weight="bold" lengthAdjust="spacing" textLength="6.8" x="467.6" y="268.3551">ref</text><text fill="#000000" font-family="sans-serif" font-size="4.8" lengthAdjust="spacing" textLength="34.4" x="482.2" y="276.3234">Generate Team</text><polygon fill="#181818" points="296.8,288.9609,292.8,290.5609,296.8,292.1609,295.2,290.5609" style="stroke:#181818;stroke-width:0.4000000000000001;"/><line style="stroke:#181818;stroke-width:0.4000000000000001;stroke-dasharray:2.0,2.0;" x1="294.4" x2="499" y1="290.5609" y2="290.5609"/><text fill="#000000" font-family="sans-serif" font-size="5.2" font-weight="bold" lengthAdjust="spacing" textLength="5.6" x="299.2" y="288.4559">17</text><text fill="#000000" font-family="sans-serif" font-size="5.2" lengthAdjust="spacing" textLength="11.6" x="306.4" y="288.4559">team</text><polygon fill="#181818" points="187.2,301.4773,183.2,303.0773,187.2,304.6773,185.6,303.0773" style="stroke:#181818;stroke-width:0.4000000000000001;"/><line style="stroke:#181818;stroke-width:0.4000000000000001;stroke-dasharray:2.0,2.0;" x1="184.8" x2="290" y1="303.0773" y2="303.0773"/><text fill="#000000" font-family="sans-serif" font-size="5.2" font-weight="bold" lengthAdjust="spacing" textLength="5.6" x="189.6" y="300.9723">18</text><text fill="#000000" font-family="sans-serif" font-size="5.2" lengthAdjust="spacing" textLength="11.6" x="196.8" y="300.9723">team</text><polygon fill="#181818" points="42.8,313.9938,38.8,315.5938,42.8,317.1938,41.2,315.5938" style="stroke:#181818;stroke-width:0.4000000000000001;"/><line style="stroke:#181818;stroke-width:0.4000000000000001;stroke-dasharray:2.0,2.0;" x1="40.4" x2="180.4" y1="315.5938" y2="315.5938"/><text fill="#000000" font-family="sans-serif" font-size="5.2" font-weight="bold" lengthAdjust="spacing" textLength="5.6" x="45.2" y="313.4887">19</text><text fill="#000000" font-family="sans-serif" font-size="5.2" lengthAdjust="spacing" textLength="63.2" x="52.4" y="313.4887">displays operation success</text><!--SRC=[bLN1Rjim3BtxAuXSrXRh3-JGIp6a0LfWYDDRBwpDn49ioHFbjjdNZv8TMuwDDDF94HyVdvv8XGzArsYnWifeanNML0JEDfHm7wanE-2UKdSi2Inb3lM-Z05SO6u-bTx33akc9C766TrKxsIJv4UXSeATCUxTV2MOEMDXyTHKg653R1gR4SCBQgbW5u0CJvkNH7YTobIDsi5YkI9D5Xrj2QlNTG2zhYzW7ersrfHbH_YutJoVeJTK6rOYHH47pERNxp74HeWtFPkGZZF4ZxBiSKT9IiSx8I-TLDf7oWVmyaslPWE1PRNrD8ctKtq899YMW2pvWFi7yGUMiDRAAOao83ZoDscDq609NKrbT4ZgQSJMiE6NK0YHD-_kJiWoIu9empuaCLzhARVufo5s33awX9jAQK2TGuLVRL5MV-asfEKqAHJBtHvhaMfREie3tpNo97LFBfZDpuhTpMqFwZD33_JRVbdQWVaWsuPWPgt8GSiAddQ48JcXC0oKGSZzwIY3c1uG7NuGCpAI2_F9u0g2KXB1x83RwjvEv8F4332LCe5WD5rZQLOOms9g89htSYJXr8j1nRXbC9ouk-hCw9sorT11t-beyJpmdYhbrzpm8CpFWc-nL9hgf- -nzYESxwfhR-_fmSzlQ9krPddFCegQPiGGvYoEo4OmhDKLFnCZM6J8X2BIa0OHyvD-GL8wqPH6ekPVb0loqdbzuPNvN-z7Khjtwdoo-jbhu_F3rtMYhpf1JCOlf6p7T-FECwD3dmcBflSixvknNKAkk2xno63gxaa5RZBvK-EvmOX- -YVx7m00]--></g></svg>