<?xml version="1.0" encoding="us-ascii" standalone="no"?><svg xmlns="http://www.w3.org/2000/svg" xmlns:xlink="http://www.w3.org/1999/xlink" contentStyleType="text/css" height="749.4px" preserveAspectRatio="none" style="width:461px;height:749px;background:#FFFFFF;" version="1.1" viewBox="0 0 461 749" width="461.4px" zoomAndPan="magnify"><defs/><g><!--class GenerateTeam--><g id="elem_GenerateTeam"><rect codeLine="9" fill="#F1F1F1" height="84.6633" id="GenerateTeam" rx="1.5" ry="1.5" style="stroke:#181818;stroke-width:0.3;" width="192" x="245.7" y="419.4"/><ellipse cx="310.35" cy="429" fill="#ADD1B2" rx="6.6" ry="6.6" style="stroke:#181818;stroke-width:0.6;"/><path d="M312.0094,426.525 Q312.1031,426.3938 312.2156,426.3281 Q312.3281,426.2625 312.4594,426.2625 Q312.6844,426.2625 312.825,426.4219 Q312.9656,426.5719 312.9656,426.9375 L312.9656,427.8094 Q312.9656,428.175 312.825,428.3344 Q312.6844,428.4938 312.4594,428.4938 Q312.2531,428.4938 312.1312,428.3719 Q312.0094,428.2594 311.9437,427.95 Q311.9156,427.7344 311.8031,427.6219 Q311.6063,427.3969 311.2406,427.2656 Q310.875,427.1344 310.5,427.1344 Q310.0406,427.1344 309.6563,427.3313 Q309.2813,427.5281 308.9813,427.9781 Q308.6906,428.4281 308.6906,429.0469 L308.6906,429.7031 Q308.6906,430.4437 309.225,430.9406 Q309.7594,431.4281 310.7156,431.4281 Q311.2781,431.4281 311.6719,431.2781 Q311.9063,431.1844 312.1594,430.9219 Q312.3187,430.7625 312.4031,430.7156 Q312.4969,430.6688 312.6188,430.6688 Q312.8156,430.6688 312.9656,430.8281 Q313.125,430.9781 313.125,431.1844 Q313.125,431.3906 312.9188,431.6344 Q312.6188,431.9813 312.1406,432.1781 Q311.4938,432.45 310.7156,432.45 Q309.8063,432.45 309.0844,432.075 Q308.4938,431.775 308.0813,431.1375 Q307.6688,430.4906 307.6688,429.7219 L307.6688,429.0281 Q307.6688,428.2313 308.0344,427.5469 Q308.4094,426.8531 309.0656,426.4875 Q309.7219,426.1125 310.4625,426.1125 Q310.9031,426.1125 311.2875,426.2156 Q311.6813,426.3094 312.0094,426.525 Z " fill="#000000"/><text fill="#000000" font-family="sans-serif" font-size="8.4" lengthAdjust="spacing" textLength="57.6" x="322.65" y="432.4781">GenerateTeam</text><line style="stroke:#181818;stroke-width:0.3;" x1="246.3" x2="437.1" y1="438.6" y2="438.6"/><text fill="#000000" font-family="sans-serif" font-size="8.4" lengthAdjust="spacing" textLength="43.2" x="249.3" y="450.0645">-int minSize</text><text fill="#000000" font-family="sans-serif" font-size="8.4" lengthAdjust="spacing" textLength="45" x="249.3" y="461.2371">-int maxSize</text><text fill="#000000" font-family="sans-serif" font-size="8.4" lengthAdjust="spacing" textLength="90.6" x="249.3" y="472.4098">-List&lt;Skill&gt; skillsNeeded</text><text fill="#000000" font-family="sans-serif" font-size="8.4" lengthAdjust="spacing" textLength="153.6" x="249.3" y="483.5824">-List&lt;Collaborator&gt; collaboratorsNeeded</text><line style="stroke:#181818;stroke-width:0.3;" x1="246.3" x2="437.1" y1="488.0906" y2="488.0906"/><text fill="#000000" font-family="sans-serif" font-size="8.4" lengthAdjust="spacing" textLength="184.8" x="249.3" y="499.5551">+GenerateTeam(minSize, maxSize, skillsNeeded)</text></g><!--class Skill--><g id="elem_Skill"><rect codeLine="19" fill="#F1F1F1" height="51.1453" id="Skill" rx="1.5" ry="1.5" style="stroke:#181818;stroke-width:0.3;" width="56.4" x="217.5" y="694.2"/><ellipse cx="236.49" cy="703.8" fill="#ADD1B2" rx="6.6" ry="6.6" style="stroke:#181818;stroke-width:0.6;"/><path d="M238.1494,701.325 Q238.2431,701.1938 238.3556,701.1281 Q238.4681,701.0625 238.5994,701.0625 Q238.8244,701.0625 238.965,701.2219 Q239.1056,701.3719 239.1056,701.7375 L239.1056,702.6094 Q239.1056,702.975 238.965,703.1344 Q238.8244,703.2937 238.5994,703.2937 Q238.3931,703.2937 238.2712,703.1719 Q238.1494,703.0594 238.0837,702.75 Q238.0556,702.5344 237.9431,702.4219 Q237.7462,702.1969 237.3806,702.0656 Q237.015,701.9344 236.64,701.9344 Q236.1806,701.9344 235.7963,702.1313 Q235.4213,702.3281 235.1212,702.7781 Q234.8306,703.2281 234.8306,703.8469 L234.8306,704.5031 Q234.8306,705.2438 235.365,705.7406 Q235.8994,706.2281 236.8556,706.2281 Q237.4181,706.2281 237.8119,706.0781 Q238.0463,705.9844 238.2994,705.7219 Q238.4587,705.5625 238.5431,705.5156 Q238.6369,705.4688 238.7587,705.4688 Q238.9556,705.4688 239.1056,705.6281 Q239.265,705.7781 239.265,705.9844 Q239.265,706.1906 239.0587,706.4344 Q238.7587,706.7813 238.2806,706.9781 Q237.6337,707.25 236.8556,707.25 Q235.9462,707.25 235.2244,706.875 Q234.6337,706.575 234.2212,705.9375 Q233.8087,705.2906 233.8087,704.5219 L233.8087,703.8281 Q233.8087,703.0313 234.1744,702.3469 Q234.5494,701.6531 235.2056,701.2875 Q235.8619,700.9125 236.6025,700.9125 Q237.0431,700.9125 237.4275,701.0156 Q237.8212,701.1094 238.1494,701.325 Z " fill="#000000"/><text fill="#000000" font-family="sans-serif" font-size="8.4" lengthAdjust="spacing" textLength="15" x="247.11" y="707.2781">Skill</text><line style="stroke:#181818;stroke-width:0.3;" x1="218.1" x2="273.3" y1="713.4" y2="713.4"/><text fill="#000000" font-family="sans-serif" font-size="8.4" lengthAdjust="spacing" textLength="48.6" x="221.1" y="724.8645">-String name</text><line style="stroke:#181818;stroke-width:0.3;" x1="218.1" x2="273.3" y1="729.3727" y2="729.3727"/><text fill="#000000" font-family="sans-serif" font-size="8.4" lengthAdjust="spacing" textLength="49.2" x="221.1" y="740.8371">+Skill (name)</text></g><!--class Collaborator--><g id="elem_Collaborator"><rect codeLine="25" fill="#F1F1F1" height="118.1812" id="Collaborator" rx="1.5" ry="1.5" style="stroke:#181818;stroke-width:0.3;" width="402.6" x="44.4" y="540"/><ellipse cx="219.75" cy="549.6" fill="#ADD1B2" rx="6.6" ry="6.6" style="stroke:#181818;stroke-width:0.6;"/><path d="M221.4094,547.125 Q221.5031,546.9938 221.6156,546.9281 Q221.7281,546.8625 221.8594,546.8625 Q222.0844,546.8625 222.225,547.0219 Q222.3656,547.1719 222.3656,547.5375 L222.3656,548.4094 Q222.3656,548.775 222.225,548.9344 Q222.0844,549.0938 221.8594,549.0938 Q221.6531,549.0938 221.5313,548.9719 Q221.4094,548.8594 221.3438,548.55 Q221.3156,548.3344 221.2031,548.2219 Q221.0063,547.9969 220.6406,547.8656 Q220.275,547.7344 219.9,547.7344 Q219.4406,547.7344 219.0563,547.9313 Q218.6813,548.1281 218.3813,548.5781 Q218.0906,549.0281 218.0906,549.6469 L218.0906,550.3031 Q218.0906,551.0437 218.625,551.5406 Q219.1594,552.0281 220.1156,552.0281 Q220.6781,552.0281 221.0719,551.8781 Q221.3063,551.7844 221.5594,551.5219 Q221.7188,551.3625 221.8031,551.3156 Q221.8969,551.2688 222.0187,551.2688 Q222.2156,551.2688 222.3656,551.4281 Q222.525,551.5781 222.525,551.7844 Q222.525,551.9906 222.3188,552.2344 Q222.0187,552.5813 221.5406,552.7781 Q220.8937,553.05 220.1156,553.05 Q219.2062,553.05 218.4844,552.675 Q217.8937,552.375 217.4813,551.7375 Q217.0688,551.0906 217.0688,550.3219 L217.0688,549.6281 Q217.0688,548.8313 217.4344,548.1469 Q217.8094,547.4531 218.4656,547.0875 Q219.1219,546.7125 219.8625,546.7125 Q220.3031,546.7125 220.6875,546.8156 Q221.0812,546.9094 221.4094,547.125 Z " fill="#000000"/><text fill="#000000" font-family="sans-serif" font-size="8.4" lengthAdjust="spacing" textLength="46.8" x="232.05" y="553.0781">Collaborator</text><line style="stroke:#181818;stroke-width:0.3;" x1="45" x2="446.4" y1="559.2" y2="559.2"/><text fill="#000000" font-family="sans-serif" font-size="8.4" lengthAdjust="spacing" textLength="48.6" x="48" y="570.6645">-String name</text><text fill="#000000" font-family="sans-serif" font-size="8.4" lengthAdjust="spacing" textLength="54" x="48" y="581.8371">-Date birthday</text><text fill="#000000" font-family="sans-serif" font-size="8.4" lengthAdjust="spacing" textLength="79.2" x="48" y="593.0098">-Date admissionDate</text><text fill="#000000" font-family="sans-serif" font-size="8.4" lengthAdjust="spacing" textLength="58.2" x="48" y="604.1824">-String address</text><text fill="#000000" font-family="sans-serif" font-size="8.4" lengthAdjust="spacing" textLength="67.8" x="48" y="615.3551">-int phoneNumber</text><text fill="#000000" font-family="sans-serif" font-size="8.4" lengthAdjust="spacing" textLength="47.4" x="48" y="626.5277">-String email</text><text fill="#000000" font-family="sans-serif" font-size="8.4" lengthAdjust="spacing" textLength="50.4" x="48" y="637.7004">-int idNumber</text><line style="stroke:#181818;stroke-width:0.3;" x1="45" x2="446.4" y1="642.2086" y2="642.2086"/><text fill="#000000" font-family="sans-serif" font-size="8.4" lengthAdjust="spacing" textLength="395.4" x="48" y="653.673">+Collaborator(name, birthday, admissionDate, address, phoneNumber, email, idDocType, idNumber, job)</text></g><!--class SkillsRepository--><g id="elem_SkillsRepository"><rect codeLine="37" fill="#F1F1F1" height="51.1453" id="SkillsRepository" rx="1.5" ry="1.5" style="stroke:#181818;stroke-width:0.3;" width="79.2" x="48.3" y="321.3"/><ellipse cx="57.3" cy="330.9" fill="#ADD1B2" rx="6.6" ry="6.6" style="stroke:#181818;stroke-width:0.6;"/><path d="M58.9594,328.425 Q59.0531,328.2938 59.1656,328.2281 Q59.2781,328.1625 59.4094,328.1625 Q59.6344,328.1625 59.775,328.3219 Q59.9156,328.4719 59.9156,328.8375 L59.9156,329.7094 Q59.9156,330.075 59.775,330.2344 Q59.6344,330.3938 59.4094,330.3938 Q59.2031,330.3938 59.0813,330.2719 Q58.9594,330.1594 58.8938,329.85 Q58.8656,329.6344 58.7531,329.5219 Q58.5563,329.2969 58.1906,329.1656 Q57.825,329.0344 57.45,329.0344 Q56.9906,329.0344 56.6062,329.2313 Q56.2312,329.4281 55.9313,329.8781 Q55.6406,330.3281 55.6406,330.9469 L55.6406,331.6031 Q55.6406,332.3438 56.175,332.8406 Q56.7094,333.3281 57.6656,333.3281 Q58.2281,333.3281 58.6219,333.1781 Q58.8562,333.0844 59.1094,332.8219 Q59.2688,332.6625 59.3531,332.6156 Q59.4469,332.5687 59.5687,332.5687 Q59.7656,332.5687 59.9156,332.7281 Q60.075,332.8781 60.075,333.0844 Q60.075,333.2906 59.8688,333.5344 Q59.5687,333.8812 59.0906,334.0781 Q58.4437,334.35 57.6656,334.35 Q56.7563,334.35 56.0344,333.975 Q55.4438,333.675 55.0313,333.0375 Q54.6188,332.3906 54.6188,331.6219 L54.6188,330.9281 Q54.6188,330.1312 54.9844,329.4469 Q55.3594,328.7531 56.0156,328.3875 Q56.6719,328.0125 57.4125,328.0125 Q57.8531,328.0125 58.2375,328.1156 Q58.6312,328.2094 58.9594,328.425 Z " fill="#000000"/><text fill="#000000" font-family="sans-serif" font-size="8.4" lengthAdjust="spacing" textLength="60" x="65.7" y="334.3781">SkillsRepository</text><line style="stroke:#181818;stroke-width:0.3;" x1="48.9" x2="126.9" y1="340.5" y2="340.5"/><line style="stroke:#181818;stroke-width:0.3;" x1="48.9" x2="126.9" y1="345.3" y2="345.3"/><text fill="#000000" font-family="sans-serif" font-size="8.4" lengthAdjust="spacing" textLength="55.2" x="51.9" y="356.7645">+getSkillsList()</text><text fill="#000000" font-family="sans-serif" font-size="8.4" lengthAdjust="spacing" textLength="69" x="51.9" y="367.9371">+getSkillByName()</text></g><!--class GenerateTeamRepository--><g id="elem_GenerateTeamRepository"><rect codeLine="42" fill="#F1F1F1" height="73.4906" id="GenerateTeamRepository" rx="1.5" ry="1.5" style="stroke:#181818;stroke-width:0.3;" width="190.2" x="203.4" y="310.2"/><ellipse cx="246.75" cy="319.8" fill="#ADD1B2" rx="6.6" ry="6.6" style="stroke:#181818;stroke-width:0.6;"/><path d="M248.4094,317.325 Q248.5031,317.1937 248.6156,317.1281 Q248.7281,317.0625 248.8594,317.0625 Q249.0844,317.0625 249.225,317.2219 Q249.3656,317.3719 249.3656,317.7375 L249.3656,318.6094 Q249.3656,318.975 249.225,319.1344 Q249.0844,319.2938 248.8594,319.2938 Q248.6531,319.2938 248.5313,319.1719 Q248.4094,319.0594 248.3438,318.75 Q248.3156,318.5344 248.2031,318.4219 Q248.0063,318.1969 247.6406,318.0656 Q247.275,317.9344 246.9,317.9344 Q246.4406,317.9344 246.0562,318.1312 Q245.6812,318.3281 245.3813,318.7781 Q245.0906,319.2281 245.0906,319.8469 L245.0906,320.5031 Q245.0906,321.2438 245.625,321.7406 Q246.1594,322.2281 247.1156,322.2281 Q247.6781,322.2281 248.0719,322.0781 Q248.3062,321.9844 248.5594,321.7219 Q248.7188,321.5625 248.8031,321.5156 Q248.8969,321.4688 249.0187,321.4688 Q249.2156,321.4688 249.3656,321.6281 Q249.525,321.7781 249.525,321.9844 Q249.525,322.1906 249.3188,322.4344 Q249.0187,322.7813 248.5406,322.9781 Q247.8937,323.25 247.1156,323.25 Q246.2062,323.25 245.4844,322.875 Q244.8937,322.575 244.4813,321.9375 Q244.0688,321.2906 244.0688,320.5219 L244.0688,319.8281 Q244.0688,319.0313 244.4344,318.3469 Q244.8094,317.6531 245.4656,317.2875 Q246.1219,316.9125 246.8625,316.9125 Q247.3031,316.9125 247.6875,317.0156 Q248.0812,317.1094 248.4094,317.325 Z " fill="#000000"/><text fill="#000000" font-family="sans-serif" font-size="8.4" lengthAdjust="spacing" textLength="98.4" x="259.05" y="323.2781">GenerateTeamRepository</text><line style="stroke:#181818;stroke-width:0.3;" x1="204" x2="393" y1="329.4" y2="329.4"/><line style="stroke:#181818;stroke-width:0.3;" x1="204" x2="393" y1="334.2" y2="334.2"/><text fill="#000000" font-family="sans-serif" font-size="8.4" lengthAdjust="spacing" textLength="45" x="207" y="345.6645">-addTeam()</text><text fill="#000000" font-family="sans-serif" font-size="8.4" lengthAdjust="spacing" textLength="60" x="207" y="356.8371">-validateTeam()</text><text fill="#000000" font-family="sans-serif" font-size="8.4" lengthAdjust="spacing" textLength="183" x="207" y="368.0098">+generateTeam(minSize, maxSize, skillsNeeded)</text><text fill="#000000" font-family="sans-serif" font-size="8.4" lengthAdjust="spacing" textLength="57.6" x="207" y="379.1824">+getTeamList()</text></g><!--class CollaboratorRepository--><g id="elem_CollaboratorRepository"><rect codeLine="49" fill="#F1F1F1" height="39.9727" id="CollaboratorRepository" rx="1.5" ry="1.5" style="stroke:#181818;stroke-width:0.3;" width="106.8" x="117.9" y="441.6"/><ellipse cx="126.9" cy="451.2" fill="#ADD1B2" rx="6.6" ry="6.6" style="stroke:#181818;stroke-width:0.6;"/><path d="M128.5594,448.725 Q128.6531,448.5938 128.7656,448.5281 Q128.8781,448.4625 129.0094,448.4625 Q129.2344,448.4625 129.375,448.6219 Q129.5156,448.7719 129.5156,449.1375 L129.5156,450.0094 Q129.5156,450.375 129.375,450.5344 Q129.2344,450.6937 129.0094,450.6937 Q128.8031,450.6937 128.6813,450.5719 Q128.5594,450.4594 128.4938,450.15 Q128.4656,449.9344 128.3531,449.8219 Q128.1563,449.5969 127.7906,449.4656 Q127.425,449.3344 127.05,449.3344 Q126.5906,449.3344 126.2063,449.5313 Q125.8313,449.7281 125.5313,450.1781 Q125.2406,450.6281 125.2406,451.2469 L125.2406,451.9031 Q125.2406,452.6438 125.775,453.1406 Q126.3094,453.6281 127.2656,453.6281 Q127.8281,453.6281 128.2219,453.4781 Q128.4562,453.3844 128.7094,453.1219 Q128.8688,452.9625 128.9531,452.9156 Q129.0469,452.8688 129.1688,452.8688 Q129.3656,452.8688 129.5156,453.0281 Q129.675,453.1781 129.675,453.3844 Q129.675,453.5906 129.4688,453.8344 Q129.1688,454.1813 128.6906,454.3781 Q128.0438,454.65 127.2656,454.65 Q126.3562,454.65 125.6344,454.275 Q125.0437,453.975 124.6313,453.3375 Q124.2188,452.6906 124.2188,451.9219 L124.2188,451.2281 Q124.2188,450.4313 124.5844,449.7469 Q124.9594,449.0531 125.6156,448.6875 Q126.2719,448.3125 127.0125,448.3125 Q127.4531,448.3125 127.8375,448.4156 Q128.2313,448.5094 128.5594,448.725 Z " fill="#000000"/><text fill="#000000" font-family="sans-serif" font-size="8.4" lengthAdjust="spacing" textLength="87.6" x="135.3" y="454.6781">CollaboratorRepository</text><line style="stroke:#181818;stroke-width:0.3;" x1="118.5" x2="224.1" y1="460.8" y2="460.8"/><line style="stroke:#181818;stroke-width:0.3;" x1="118.5" x2="224.1" y1="465.6" y2="465.6"/><text fill="#000000" font-family="sans-serif" font-size="8.4" lengthAdjust="spacing" textLength="82.8" x="121.5" y="477.0645">+getCollaboratorList()</text></g><!--class Repositories--><g id="elem_Repositories"><rect codeLine="53" fill="#F1F1F1" height="84.6633" id="Repositories" rx="1.5" ry="1.5" style="stroke:#181818;stroke-width:0.3;" width="128.4" x="119.7" y="189.6"/><ellipse cx="157.65" cy="199.2" fill="#ADD1B2" rx="6.6" ry="6.6" style="stroke:#181818;stroke-width:0.6;"/><path d="M159.3094,196.725 Q159.4031,196.5938 159.5156,196.5281 Q159.6281,196.4625 159.7594,196.4625 Q159.9844,196.4625 160.125,196.6219 Q160.2656,196.7719 160.2656,197.1375 L160.2656,198.0094 Q160.2656,198.375 160.125,198.5344 Q159.9844,198.6938 159.7594,198.6938 Q159.5531,198.6938 159.4313,198.5719 Q159.3094,198.4594 159.2438,198.15 Q159.2156,197.9344 159.1031,197.8219 Q158.9063,197.5969 158.5406,197.4656 Q158.175,197.3344 157.8,197.3344 Q157.3406,197.3344 156.9562,197.5313 Q156.5812,197.7281 156.2813,198.1781 Q155.9906,198.6281 155.9906,199.2469 L155.9906,199.9031 Q155.9906,200.6437 156.525,201.1406 Q157.0594,201.6281 158.0156,201.6281 Q158.5781,201.6281 158.9719,201.4781 Q159.2062,201.3844 159.4594,201.1219 Q159.6188,200.9625 159.7031,200.9156 Q159.7969,200.8688 159.9188,200.8688 Q160.1156,200.8688 160.2656,201.0281 Q160.425,201.1781 160.425,201.3844 Q160.425,201.5906 160.2188,201.8344 Q159.9188,202.1813 159.4406,202.3781 Q158.7938,202.65 158.0156,202.65 Q157.1063,202.65 156.3844,202.275 Q155.7938,201.975 155.3813,201.3375 Q154.9688,200.6906 154.9688,199.9219 L154.9688,199.2281 Q154.9688,198.4313 155.3344,197.7469 Q155.7094,197.0531 156.3656,196.6875 Q157.0219,196.3125 157.7625,196.3125 Q158.2031,196.3125 158.5875,196.4156 Q158.9813,196.5094 159.3094,196.725 Z " fill="#000000"/><text fill="#000000" font-family="sans-serif" font-size="8.4" lengthAdjust="spacing" textLength="47.4" x="169.95" y="202.6781">Repositories</text><line style="stroke:#181818;stroke-width:0.3;" x1="120.3" x2="247.5" y1="208.8" y2="208.8"/><line style="stroke:#181818;stroke-width:0.3;" x1="120.3" x2="247.5" y1="213.6" y2="213.6"/><text fill="#000000" font-family="sans-serif" font-size="8.4" lengthAdjust="spacing" textLength="56.4" x="123.3" y="225.0645">-Repositories()</text><text fill="#000000" font-family="sans-serif" font-size="8.4" lengthAdjust="spacing" textLength="109.2" x="123.3" y="236.2371">+getInstance() : Repositories</text><text fill="#000000" font-family="sans-serif" font-size="8.4" lengthAdjust="spacing" textLength="110.4" x="123.3" y="247.4098">+getCollaboratorRepository()</text><text fill="#000000" font-family="sans-serif" font-size="8.4" lengthAdjust="spacing" textLength="78.6" x="123.3" y="258.5824">+getSkillRepository()</text><text fill="#000000" font-family="sans-serif" font-size="8.4" lengthAdjust="spacing" textLength="121.2" x="123.3" y="269.7551">+getGenerateTeamRepository()</text></g><!--class GenerateTeamController--><g id="elem_GenerateTeamController"><rect codeLine="61" fill="#F1F1F1" height="84.6633" id="GenerateTeamController" rx="1.5" ry="1.5" style="stroke:#181818;stroke-width:0.3;" width="359.4" x="4.2" y="69"/><ellipse cx="133.95" cy="78.6" fill="#ADD1B2" rx="6.6" ry="6.6" style="stroke:#181818;stroke-width:0.6;"/><path d="M135.6094,76.125 Q135.7031,75.9937 135.8156,75.9281 Q135.9281,75.8625 136.0594,75.8625 Q136.2844,75.8625 136.425,76.0219 Q136.5656,76.1719 136.5656,76.5375 L136.5656,77.4094 Q136.5656,77.775 136.425,77.9344 Q136.2844,78.0938 136.0594,78.0938 Q135.8531,78.0938 135.7313,77.9719 Q135.6094,77.8594 135.5438,77.55 Q135.5156,77.3344 135.4031,77.2219 Q135.2062,76.9969 134.8406,76.8656 Q134.475,76.7344 134.1,76.7344 Q133.6406,76.7344 133.2563,76.9312 Q132.8813,77.1281 132.5812,77.5781 Q132.2906,78.0281 132.2906,78.6469 L132.2906,79.3031 Q132.2906,80.0438 132.825,80.5406 Q133.3594,81.0281 134.3156,81.0281 Q134.8781,81.0281 135.2719,80.8781 Q135.5063,80.7844 135.7594,80.5219 Q135.9188,80.3625 136.0031,80.3156 Q136.0969,80.2688 136.2188,80.2688 Q136.4156,80.2688 136.5656,80.4281 Q136.725,80.5781 136.725,80.7844 Q136.725,80.9906 136.5187,81.2344 Q136.2188,81.5813 135.7406,81.7781 Q135.0938,82.05 134.3156,82.05 Q133.4063,82.05 132.6844,81.675 Q132.0938,81.375 131.6813,80.7375 Q131.2687,80.0906 131.2687,79.3219 L131.2687,78.6281 Q131.2687,77.8313 131.6344,77.1469 Q132.0094,76.4531 132.6656,76.0875 Q133.3219,75.7125 134.0625,75.7125 Q134.5031,75.7125 134.8875,75.8156 Q135.2813,75.9094 135.6094,76.125 Z " fill="#000000"/><text fill="#000000" font-family="sans-serif" font-size="8.4" lengthAdjust="spacing" textLength="94.8" x="146.25" y="82.0781">GenerateTeamController</text><line style="stroke:#181818;stroke-width:0.3;" x1="4.8" x2="363" y1="88.2" y2="88.2"/><line style="stroke:#181818;stroke-width:0.3;" x1="4.8" x2="363" y1="93" y2="93"/><text fill="#000000" font-family="sans-serif" font-size="8.4" lengthAdjust="spacing" textLength="352.2" x="7.8" y="104.4645">+GenerateTeamController(collaboratorRepository, skillRepository, generateTeamRepository)</text><text fill="#000000" font-family="sans-serif" font-size="8.4" lengthAdjust="spacing" textLength="55.2" x="7.8" y="115.6371">+getSkillsList()</text><text fill="#000000" font-family="sans-serif" font-size="8.4" lengthAdjust="spacing" textLength="82.8" x="7.8" y="126.8098">+getCollaboratorList()</text><text fill="#000000" font-family="sans-serif" font-size="8.4" lengthAdjust="spacing" textLength="57.6" x="7.8" y="137.9824">+getTeamList()</text><text fill="#000000" font-family="sans-serif" font-size="8.4" lengthAdjust="spacing" textLength="183" x="7.8" y="149.1551">+generateTeam(minSize, maxSize, skillsNeeded)</text></g><!--class GenerateTeamUI--><g id="elem_GenerateTeamUI"><rect codeLine="69" fill="#F1F1F1" height="28.8" id="GenerateTeamUI" rx="1.5" ry="1.5" style="stroke:#181818;stroke-width:0.3;" width="84" x="141.9" y="4.2"/><ellipse cx="150.9" cy="13.8" fill="#ADD1B2" rx="6.6" ry="6.6" style="stroke:#181818;stroke-width:0.6;"/><path d="M152.5594,11.325 Q152.6531,11.1938 152.7656,11.1281 Q152.8781,11.0625 153.0094,11.0625 Q153.2344,11.0625 153.375,11.2219 Q153.5156,11.3719 153.5156,11.7375 L153.5156,12.6094 Q153.5156,12.975 153.375,13.1344 Q153.2344,13.2938 153.0094,13.2938 Q152.8031,13.2938 152.6813,13.1719 Q152.5594,13.0594 152.4938,12.75 Q152.4656,12.5344 152.3531,12.4219 Q152.1563,12.1969 151.7906,12.0656 Q151.425,11.9344 151.05,11.9344 Q150.5906,11.9344 150.2062,12.1313 Q149.8312,12.3281 149.5313,12.7781 Q149.2406,13.2281 149.2406,13.8469 L149.2406,14.5031 Q149.2406,15.2437 149.775,15.7406 Q150.3094,16.2281 151.2656,16.2281 Q151.8281,16.2281 152.2219,16.0781 Q152.4562,15.9844 152.7094,15.7219 Q152.8688,15.5625 152.9531,15.5156 Q153.0469,15.4688 153.1688,15.4688 Q153.3656,15.4688 153.5156,15.6281 Q153.675,15.7781 153.675,15.9844 Q153.675,16.1906 153.4688,16.4344 Q153.1688,16.7813 152.6906,16.9781 Q152.0438,17.25 151.2656,17.25 Q150.3563,17.25 149.6344,16.875 Q149.0438,16.575 148.6313,15.9375 Q148.2188,15.2906 148.2188,14.5219 L148.2188,13.8281 Q148.2188,13.0313 148.5844,12.3469 Q148.9594,11.6531 149.6156,11.2875 Q150.2719,10.9125 151.0125,10.9125 Q151.4531,10.9125 151.8375,11.0156 Q152.2313,11.1094 152.5594,11.325 Z " fill="#000000"/><text fill="#000000" font-family="sans-serif" font-size="8.4" lengthAdjust="spacing" textLength="64.8" x="159.3" y="17.2781">GenerateTeamUI</text><line style="stroke:#181818;stroke-width:0.3;" x1="142.5" x2="225.3" y1="23.4" y2="23.4"/><line style="stroke:#181818;stroke-width:0.3;" x1="142.5" x2="225.3" y1="28.2" y2="28.2"/></g><!--link GenerateTeamUI to GenerateTeamController--><g id="link_GenerateTeamUI_GenerateTeamController"><path codeLine="72" d="M183.9,33.096 C183.9,42.696 183.9,52.41 183.9,65.298 " fill="none" id="GenerateTeamUI-to-GenerateTeamController" style="stroke:#181818;stroke-width:0.6;stroke-dasharray:7.0,7.0;"/><polygon fill="#181818" points="183.9,68.898,186.3,63.498,183.9,65.898,181.5,63.498,183.9,68.898" style="stroke:#181818;stroke-width:0.6;"/></g><!--link GenerateTeamController to Repositories--><g id="link_GenerateTeamController_Repositories"><path codeLine="73" d="M183.9,153.66 C183.9,165.294 183.9,174.33 183.9,185.964 " fill="none" id="GenerateTeamController-to-Repositories" style="stroke:#181818;stroke-width:0.6;stroke-dasharray:7.0,7.0;"/><polygon fill="#181818" points="183.9,189.564,186.3,184.164,183.9,186.564,181.5,184.164,183.9,189.564" style="stroke:#181818;stroke-width:0.6;"/></g><!--link GenerateTeamController to GenerateTeamRepository--><g id="link_GenerateTeamController_GenerateTeamRepository"><path codeLine="74" d="M223.932,153.708 C241.542,172.098 258.3,189.6 258.3,189.6 C258.3,189.6 276.4612,260.339 288.3292,306.587 " fill="none" id="GenerateTeamController-to-GenerateTeamRepository" style="stroke:#181818;stroke-width:0.6;stroke-dasharray:7.0,7.0;"/><polygon fill="#181818" points="289.224,310.074,290.2064,304.2469,288.4783,307.1682,285.5571,305.44,289.224,310.074" style="stroke:#181818;stroke-width:0.6;"/></g><!--link GenerateTeamController to SkillsRepository--><g id="link_GenerateTeamController_SkillsRepository"><path codeLine="75" d="M143.544,153.708 C125.796,172.098 108.9,189.6 108.9,189.6 C108.9,189.6 97.6609,273.434 91.7269,317.648 " fill="none" id="GenerateTeamController-to-SkillsRepository" style="stroke:#181818;stroke-width:0.6;stroke-dasharray:7.0,7.0;"/><polygon fill="#181818" points="91.248,321.216,94.345,316.1832,91.6471,318.2427,89.5876,315.5447,91.248,321.216" style="stroke:#181818;stroke-width:0.6;"/></g><!--link Repositories to GenerateTeamRepository--><g id="link_Repositories_GenerateTeamRepository"><path codeLine="76" d="M226.086,274.356 C237.894,286.068 248.0644,296.1625 259.5064,307.5145 " fill="none" id="Repositories-to-GenerateTeamRepository" style="stroke:#181818;stroke-width:0.6;"/><polygon fill="#181818" points="262.062,310.05,259.9189,304.543,259.9323,307.9371,256.5382,307.9505,262.062,310.05" style="stroke:#181818;stroke-width:0.6;"/></g><!--link Repositories to SkillsRepository--><g id="link_Repositories_SkillsRepository"><path codeLine="77" d="M148.56,274.356 C135.252,290.118 122.8628,304.7916 111.2588,318.5316 " fill="none" id="Repositories-to-SkillsRepository" style="stroke:#181818;stroke-width:0.6;"/><polygon fill="#181818" points="108.936,321.282,114.2538,318.705,110.8717,318.99,110.5866,315.6079,108.936,321.282" style="stroke:#181818;stroke-width:0.6;"/></g><!--link Repositories to CollaboratorRepository--><g id="link_Repositories_CollaboratorRepository"><path codeLine="78" d="M181.59,274.428 C178.854,324.054 174.6121,401.0035 172.5781,437.9095 " fill="none" id="Repositories-to-CollaboratorRepository" style="stroke:#181818;stroke-width:0.6;"/><polygon fill="#181818" points="172.38,441.504,175.0735,436.2443,172.5451,438.5085,170.2808,435.9801,172.38,441.504" style="stroke:#181818;stroke-width:0.6;"/></g><!--link CollaboratorRepository to Collaborator--><g id="link_CollaboratorRepository_Collaborator"><path codeLine="79" d="M181.962,481.812 C190.296,497.076 200.6183,515.9726 212.0003,536.8106 " fill="none" id="CollaboratorRepository-to-Collaborator" style="stroke:#181818;stroke-width:0.6;"/><polygon fill="#181818" points="213.726,539.97,213.2437,534.0804,212.2879,537.3372,209.0311,536.3814,213.726,539.97" style="stroke:#181818;stroke-width:0.6;"/></g><!--link Collaborator to Skill--><g id="link_Collaborator_Skill"><path codeLine="80" d="M245.7,658.35 C245.7,670.974 245.7,680.052 245.7,690.546 " fill="none" id="Collaborator-to-Skill" style="stroke:#181818;stroke-width:0.6;"/><polygon fill="#181818" points="245.7,694.146,248.1,688.746,245.7,691.146,243.3,688.746,245.7,694.146" style="stroke:#181818;stroke-width:0.6;"/></g><!--link GenerateTeam to Collaborator--><g id="link_GenerateTeam_Collaborator"><path codeLine="81" d="M312.246,504.09 C304.254,515.43 297.5262,524.9736 289.0122,537.0516 " fill="none" id="GenerateTeam-to-Collaborator" style="stroke:#181818;stroke-width:0.6;"/><polygon fill="#181818" points="286.938,539.994,292.0109,536.9631,288.6665,537.542,288.0876,534.1976,286.938,539.994" style="stroke:#181818;stroke-width:0.6;"/></g><!--link GenerateTeamRepository to GenerateTeam--><g id="link_GenerateTeamRepository_GenerateTeam"><path codeLine="82" d="M312.228,383.532 C316.554,394.914 320.0801,404.2092 324.5441,415.9452 " fill="none" id="GenerateTeamRepository-to-GenerateTeam" style="stroke:#181818;stroke-width:0.6;"/><polygon fill="#181818" points="325.824,419.31,326.1474,413.4095,324.7574,416.506,321.661,415.116,325.824,419.31" style="stroke:#181818;stroke-width:0.6;"/></g><!--link SkillsRepository to Skill--><g id="link_SkillsRepository_Skill"><path codeLine="83" d="M80.898,372.384 C66.282,424.494 33.9,540 33.9,540 C33.9,540 33.9,658.2 33.9,658.2 C33.9,658.2 156.1822,693.3611 213.8962,709.9571 " fill="none" id="SkillsRepository-to-Skill" style="stroke:#181818;stroke-width:0.6;"/><polygon fill="#181818" points="217.356,710.952,212.8296,707.1531,214.4728,710.1229,211.503,711.7662,217.356,710.952" style="stroke:#181818;stroke-width:0.6;"/></g><!--link GenerateTeam to Skill--><g id="link_GenerateTeam_Skill"><path codeLine="84" d="M404.004,504.108 C431.418,522.498 457.5,540 457.5,540 C457.5,540 457.5,658.2 457.5,658.2 C457.5,658.2 335.2178,693.3611 277.5038,709.9571 " fill="none" id="GenerateTeam-to-Skill" style="stroke:#181818;stroke-width:0.6;"/><polygon fill="#181818" points="274.044,710.952,279.897,711.7662,276.9272,710.1229,278.5704,707.1531,274.044,710.952" style="stroke:#181818;stroke-width:0.6;"/></g><!--SRC=[dLHDZziW4BtpAxWrKUnLprKLgTsLgaXL3its1s0pwqo3mGAshLljVo_uAs3ZhBQvHCoycVVc3TXSK3PCiveshBom2aws5K0rb9R9IW0n4y2S6LU_K5RqYGaJPWHAi6q3j56YzGSI94l1ZFbahSRYsSAXLFA4Vu2-9-ITW2TBhQ8QgxEb73qhAab8LqE_W0JDB3o2Q_ENKFVBAKfBQ-nwX17sEuXyHMC_dYuen9uQ_sUE01nucBvNGh12kVvAxsaPd4PmXzv5AZO3SpOIPb7_BI4le_YEVb9zSkCxuoIhOMZRvpS-4fQ5iiRgUN7-uEJG0hKzSzO68SPhDCOvw4zHBUDSWp5zp1lMd9M4utDTW8w0K3CKLnZo0BCBnNNAiqb55fDd8sCMCcLz-yorVL3bexinsSIGqH-gM1Xela6Z33g-Td1ZHokmVSxlSRETHJ-tHoVCXLzIrsZHBlT2kzLkX_DF9f2F-xvsVyCbc0Hvz20okU3qS25YNZrL89XfWZ0O-d6GnZtYqfb1FqIWDDTLpSBKT2fjx9hrzqfQxUX0JyEcqvioAMfmEGnKIG7Rr-v9mk3KolvZyyd1ln_Sm2upYztTxLSC82ks-OfeZJTmwTtSgfY_DnBTjJnVxRd0lTufVUt8ojkOLqIuAsCqtB9evJCm7umilZit2Fem8Vy0]--></g></svg>