<?xml version="1.0" encoding="us-ascii" standalone="no"?><svg xmlns="http://www.w3.org/2000/svg" xmlns:xlink="http://www.w3.org/1999/xlink" contentStyleType="text/css" height="679.2px" preserveAspectRatio="none" style="width:935px;height:679px;background:#FFFFFF;" version="1.1" viewBox="0 0 935 679" width="935.4px" zoomAndPan="magnify"><defs/><g><rect fill="#FFFFFF" height="562.4578" style="stroke:#181818;stroke-width:0.6;" width="6" x="54.6" y="56.1727"/><rect fill="#FFFFFF" height="44.9473" style="stroke:#181818;stroke-width:0.6;" width="6" x="272.4" y="70.1473"/><rect fill="#FFFFFF" height="168.9715" style="stroke:#181818;stroke-width:0.6;" width="6" x="272.4" y="133.8691"/><rect fill="#FFFFFF" height="18.7746" style="stroke:#181818;stroke-width:0.6;" width="6" x="272.4" y="321.6152"/><rect fill="#FFFFFF" height="259.466" style="stroke:#181818;stroke-width:0.6;" width="6" x="272.4" y="359.1645"/><rect fill="#FFFFFF" height="131.4223" style="stroke:#181818;stroke-width:0.6;" width="6" x="436.8" y="152.6437"/><rect fill="#FFFFFF" height="221.9168" style="stroke:#181818;stroke-width:0.6;" width="6" x="436.8" y="377.9391"/><rect fill="#FFFFFF" height="18.7746" style="stroke:#181818;stroke-width:0.6;" width="6" x="524.7" y="171.4184"/><rect fill="#FFFFFF" height="18.7746" style="stroke:#181818;stroke-width:0.6;" width="6" x="524.7" y="396.7137"/><rect fill="#FFFFFF" height="18.7746" style="stroke:#181818;stroke-width:0.6;" width="6" x="588.9" y="208.9676"/><rect fill="#FFFFFF" height="18.7746" style="stroke:#181818;stroke-width:0.6;" width="6" x="588.9" y="434.2629"/><rect fill="#FFFFFF" height="18.7746" style="stroke:#181818;stroke-width:0.6;" width="6" x="657.3" y="246.5168"/><rect fill="#FFFFFF" height="109.2691" style="stroke:#181818;stroke-width:0.6;" width="6" x="751.2" y="471.8121"/><line style="stroke:#181818;stroke-width:0.3;stroke-dasharray:5.0,5.0;" x1="57.6" x2="57.6" y1="50.1727" y2="629.4305"/><line style="stroke:#181818;stroke-width:0.3;stroke-dasharray:5.0,5.0;" x1="275.4" x2="275.4" y1="50.1727" y2="629.4305"/><line style="stroke:#181818;stroke-width:0.3;stroke-dasharray:5.0,5.0;" x1="439.8" x2="439.8" y1="94.0336" y2="629.4305"/><line style="stroke:#181818;stroke-width:0.3;stroke-dasharray:5.0,5.0;" x1="527.4" x2="527.4" y1="50.1727" y2="629.4305"/><line style="stroke:#181818;stroke-width:0.3;stroke-dasharray:5.0,5.0;" x1="591.6" x2="591.6" y1="50.1727" y2="629.4305"/><line style="stroke:#181818;stroke-width:0.3;stroke-dasharray:5.0,5.0;" x1="660" x2="660" y1="50.1727" y2="629.4305"/><line style="stroke:#181818;stroke-width:0.3;stroke-dasharray:5.0,5.0;" x1="754.2" x2="754.2" y1="50.1727" y2="629.4305"/><line style="stroke:#181818;stroke-width:0.3;stroke-dasharray:5.0,5.0;" x1="915.6" x2="915.6" y1="501.2848" y2="629.4305"/><text fill="#000000" font-family="sans-serif" font-size="8.4" lengthAdjust="spacing" textLength="105.6" x="3" y="48.0645">Human Resources Manager</text><ellipse cx="57.6" cy="8.1" fill="#E3E3E3" rx="4.8" ry="4.8" style="stroke:#181818;stroke-width:0.3;"/><path d="M57.6,12.9 L57.6,29.1 M49.8,17.7 L65.4,17.7 M57.6,29.1 L49.8,38.1 M57.6,29.1 L65.4,38.1 " fill="none" style="stroke:#181818;stroke-width:0.3;"/><text fill="#000000" font-family="sans-serif" font-size="8.4" lengthAdjust="spacing" textLength="105.6" x="3" y="637.8949">Human Resources Manager</text><ellipse cx="57.6" cy="645.1031" fill="#E3E3E3" rx="4.8" ry="4.8" style="stroke:#181818;stroke-width:0.3;"/><path d="M57.6,649.9031 L57.6,666.1031 M49.8,654.7031 L65.4,654.7031 M57.6,666.1031 L49.8,675.1031 M57.6,666.1031 L65.4,675.1031 " fill="none" style="stroke:#181818;stroke-width:0.3;"/><rect fill="#E3E3E3" height="19.5727" rx="1.5" ry="1.5" style="stroke:#181818;stroke-width:0.3;" width="75.6" x="237.6" y="30"/><text fill="#000000" font-family="sans-serif" font-size="8.4" lengthAdjust="spacing" textLength="67.2" x="241.8" y="43.2645">:GenerateTeamUI</text><rect fill="#E3E3E3" height="19.5727" rx="1.5" ry="1.5" style="stroke:#181818;stroke-width:0.3;" width="75.6" x="237.6" y="628.8305"/><text fill="#000000" font-family="sans-serif" font-size="8.4" lengthAdjust="spacing" textLength="67.2" x="241.8" y="642.0949">:GenerateTeamUI</text><rect fill="#E3E3E3" height="19.5727" rx="1.5" ry="1.5" style="stroke:#181818;stroke-width:0.3;" width="105.6" x="387" y="628.8305"/><text fill="#000000" font-family="sans-serif" font-size="8.4" lengthAdjust="spacing" textLength="97.2" x="391.2" y="642.0949">:GenerateTeamController</text><rect fill="#E3E3E3" height="19.5727" rx="1.5" ry="1.5" style="stroke:#181818;stroke-width:0.3;" width="58.2" x="498.6" y="30"/><text fill="#000000" font-family="sans-serif" font-size="8.4" lengthAdjust="spacing" textLength="49.8" x="502.8" y="43.2645">:Repositories</text><rect fill="#E3E3E3" height="19.5727" rx="1.5" ry="1.5" style="stroke:#181818;stroke-width:0.3;" width="58.2" x="498.6" y="628.8305"/><text fill="#000000" font-family="sans-serif" font-size="8.4" lengthAdjust="spacing" textLength="49.8" x="502.8" y="642.0949">:Repositories</text><rect fill="#E3E3E3" height="30.7453" rx="1.5" ry="1.5" style="stroke:#181818;stroke-width:0.3;" width="58.2" x="562.8" y="18.8273"/><text fill="#000000" font-family="sans-serif" font-size="8.4" lengthAdjust="spacing" textLength="44.4" x="569.7" y="32.0918">repositories</text><text fill="#000000" font-family="sans-serif" font-size="8.4" lengthAdjust="spacing" textLength="49.8" x="567" y="43.2645">:Repositories</text><rect fill="#E3E3E3" height="30.7453" rx="1.5" ry="1.5" style="stroke:#181818;stroke-width:0.3;" width="58.2" x="562.8" y="628.8305"/><text fill="#000000" font-family="sans-serif" font-size="8.4" lengthAdjust="spacing" textLength="44.4" x="569.7" y="642.0949">repositories</text><text fill="#000000" font-family="sans-serif" font-size="8.4" lengthAdjust="spacing" textLength="49.8" x="567" y="653.2676">:Repositories</text><rect fill="#E3E3E3" height="19.5727" rx="1.5" ry="1.5" style="stroke:#181818;stroke-width:0.3;" width="66.6" x="627" y="30"/><text fill="#000000" font-family="sans-serif" font-size="8.4" lengthAdjust="spacing" textLength="58.2" x="631.2" y="43.2645">:SkillRepository</text><rect fill="#E3E3E3" height="19.5727" rx="1.5" ry="1.5" style="stroke:#181818;stroke-width:0.3;" width="66.6" x="627" y="628.8305"/><text fill="#000000" font-family="sans-serif" font-size="8.4" lengthAdjust="spacing" textLength="58.2" x="631.2" y="642.0949">:SkillRepository</text><rect fill="#E3E3E3" height="30.7453" rx="1.5" ry="1.5" style="stroke:#181818;stroke-width:0.3;" width="109.2" x="699.6" y="18.8273"/><text fill="#000000" font-family="sans-serif" font-size="8.4" lengthAdjust="spacing" textLength="100.8" x="703.8" y="32.0918">GenerateTeamRepository:</text><text fill="#000000" font-family="sans-serif" font-size="8.4" lengthAdjust="spacing" textLength="94.2" x="707.1" y="43.2645">TaskCategoryRepository</text><rect fill="#E3E3E3" height="30.7453" rx="1.5" ry="1.5" style="stroke:#181818;stroke-width:0.3;" width="109.2" x="699.6" y="628.8305"/><text fill="#000000" font-family="sans-serif" font-size="8.4" lengthAdjust="spacing" textLength="100.8" x="703.8" y="642.0949">GenerateTeamRepository:</text><text fill="#000000" font-family="sans-serif" font-size="8.4" lengthAdjust="spacing" textLength="94.2" x="707.1" y="653.2676">TaskCategoryRepository</text><rect fill="#E3E3E3" height="30.7453" rx="1.5" ry="1.5" style="stroke:#181818;stroke-width:0.3;" width="32.4" x="899.4" y="628.8305"/><text fill="#000000" font-family="sans-serif" font-size="8.4" lengthAdjust="spacing" textLength="18.6" x="906.3" y="642.0949">team</text><text fill="#000000" font-family="sans-serif" font-size="8.4" lengthAdjust="spacing" textLength="24" x="903.6" y="653.2676">:Team</text><rect fill="#FFFFFF" height="562.4578" style="stroke:#181818;stroke-width:0.6;" width="6" x="54.6" y="56.1727"/><rect fill="#FFFFFF" height="44.9473" style="stroke:#181818;stroke-width:0.6;" width="6" x="272.4" y="70.1473"/><rect fill="#FFFFFF" height="168.9715" style="stroke:#181818;stroke-width:0.6;" width="6" x="272.4" y="133.8691"/><rect fill="#FFFFFF" height="18.7746" style="stroke:#181818;stroke-width:0.6;" width="6" x="272.4" y="321.6152"/><rect fill="#FFFFFF" height="259.466" style="stroke:#181818;stroke-width:0.6;" width="6" x="272.4" y="359.1645"/><rect fill="#FFFFFF" height="131.4223" style="stroke:#181818;stroke-width:0.6;" width="6" x="436.8" y="152.6437"/><rect fill="#FFFFFF" height="221.9168" style="stroke:#181818;stroke-width:0.6;" width="6" x="436.8" y="377.9391"/><rect fill="#FFFFFF" height="18.7746" style="stroke:#181818;stroke-width:0.6;" width="6" x="524.7" y="171.4184"/><rect fill="#FFFFFF" height="18.7746" style="stroke:#181818;stroke-width:0.6;" width="6" x="524.7" y="396.7137"/><rect fill="#FFFFFF" height="18.7746" style="stroke:#181818;stroke-width:0.6;" width="6" x="588.9" y="208.9676"/><rect fill="#FFFFFF" height="18.7746" style="stroke:#181818;stroke-width:0.6;" width="6" x="588.9" y="434.2629"/><rect fill="#FFFFFF" height="18.7746" style="stroke:#181818;stroke-width:0.6;" width="6" x="657.3" y="246.5168"/><rect fill="#FFFFFF" height="109.2691" style="stroke:#181818;stroke-width:0.6;" width="6" x="751.2" y="471.8121"/><polygon fill="#181818" points="265.2,67.7473,271.2,70.1473,265.2,72.5473,267.6,70.1473" style="stroke:#181818;stroke-width:0.6;"/><line style="stroke:#181818;stroke-width:0.6;" x1="60.6" x2="268.8" y1="70.1473" y2="70.1473"/><text fill="#000000" font-family="sans-serif" font-size="7.8" font-weight="bold" lengthAdjust="spacing" textLength="4.2" x="64.8" y="66.9896">1</text><text fill="#000000" font-family="sans-serif" font-size="7.8" lengthAdjust="spacing" textLength="123.6" x="71.4" y="66.9896">Initiates a team proposal generation</text><polygon fill="#181818" points="379.8,86.5219,385.8,88.9219,379.8,91.3219,382.2,88.9219" style="stroke:#181818;stroke-width:0.6;"/><line style="stroke:#181818;stroke-width:0.6;" x1="278.4" x2="383.4" y1="88.9219" y2="88.9219"/><text fill="#000000" font-family="sans-serif" font-size="7.8" font-weight="bold" lengthAdjust="spacing" textLength="4.2" x="282.6" y="85.7643">2</text><text fill="#000000" font-family="sans-serif" font-size="7.8" lengthAdjust="spacing" textLength="21.6" x="289.2" y="85.7643">create</text><rect fill="#E3E3E3" height="19.5727" rx="1.5" ry="1.5" style="stroke:#181818;stroke-width:0.3;" width="105.6" x="387" y="74.9473"/><text fill="#000000" font-family="sans-serif" font-size="8.4" lengthAdjust="spacing" textLength="97.2" x="391.2" y="88.2117">:GenerateTeamController</text><polygon fill="#181818" points="67.2,112.6945,61.2,115.0945,67.2,117.4945,64.8,115.0945" style="stroke:#181818;stroke-width:0.6;"/><line style="stroke:#181818;stroke-width:0.6;stroke-dasharray:2.0,2.0;" x1="63.6" x2="274.8" y1="115.0945" y2="115.0945"/><text fill="#000000" font-family="sans-serif" font-size="7.8" font-weight="bold" lengthAdjust="spacing" textLength="4.2" x="70.8" y="111.9369">3</text><text fill="#000000" font-family="sans-serif" font-size="7.8" lengthAdjust="spacing" textLength="139.2" x="77.4" y="111.9369">Requests data (min and max team size)</text><polygon fill="#181818" points="265.2,131.4691,271.2,133.8691,265.2,136.2691,267.6,133.8691" style="stroke:#181818;stroke-width:0.6;"/><line style="stroke:#181818;stroke-width:0.6;" x1="60.6" x2="268.8" y1="133.8691" y2="133.8691"/><text fill="#000000" font-family="sans-serif" font-size="7.8" font-weight="bold" lengthAdjust="spacing" textLength="4.2" x="64.8" y="130.7115">4</text><text fill="#000000" font-family="sans-serif" font-size="7.8" lengthAdjust="spacing" textLength="75" x="71.4" y="130.7115">Types requested data</text><polygon fill="#181818" points="429.6,150.2438,435.6,152.6437,429.6,155.0438,432,152.6437" style="stroke:#181818;stroke-width:0.6;"/><line style="stroke:#181818;stroke-width:0.6;" x1="278.4" x2="433.2" y1="152.6437" y2="152.6437"/><text fill="#000000" font-family="sans-serif" font-size="7.8" font-weight="bold" lengthAdjust="spacing" textLength="4.2" x="282.6" y="149.4861">5</text><text fill="#000000" font-family="sans-serif" font-size="7.8" lengthAdjust="spacing" textLength="47.4" x="289.2" y="149.4861">getSkillsList()</text><polygon fill="#181818" points="517.5,169.0184,523.5,171.4184,517.5,173.8184,519.9,171.4184" style="stroke:#181818;stroke-width:0.6;"/><line style="stroke:#181818;stroke-width:0.6;" x1="442.8" x2="521.1" y1="171.4184" y2="171.4184"/><text fill="#000000" font-family="sans-serif" font-size="7.8" font-weight="bold" lengthAdjust="spacing" textLength="4.2" x="447" y="168.2607">6</text><text fill="#000000" font-family="sans-serif" font-size="7.8" lengthAdjust="spacing" textLength="45" x="453.6" y="168.2607">getInstance()</text><polygon fill="#181818" points="449.4,187.793,443.4,190.193,449.4,192.593,447,190.193" style="stroke:#181818;stroke-width:0.6;"/><line style="stroke:#181818;stroke-width:0.6;stroke-dasharray:2.0,2.0;" x1="445.8" x2="527.1" y1="190.193" y2="190.193"/><text fill="#000000" font-family="sans-serif" font-size="7.8" font-weight="bold" lengthAdjust="spacing" textLength="4.2" x="453" y="187.0354">7</text><text fill="#000000" font-family="sans-serif" font-size="7.8" lengthAdjust="spacing" textLength="40.2" x="459.6" y="187.0354">repositories</text><polygon fill="#181818" points="581.7,206.5676,587.7,208.9676,581.7,211.3676,584.1,208.9676" style="stroke:#181818;stroke-width:0.6;"/><line style="stroke:#181818;stroke-width:0.6;" x1="442.8" x2="585.3" y1="208.9676" y2="208.9676"/><text fill="#000000" font-family="sans-serif" font-size="7.8" font-weight="bold" lengthAdjust="spacing" textLength="4.2" x="447" y="205.81">8</text><text fill="#000000" font-family="sans-serif" font-size="7.8" lengthAdjust="spacing" textLength="67.8" x="453.6" y="205.81">getSkillRepository()</text><polygon fill="#181818" points="449.4,225.3422,443.4,227.7422,449.4,230.1422,447,227.7422" style="stroke:#181818;stroke-width:0.6;"/><line style="stroke:#181818;stroke-width:0.6;stroke-dasharray:2.0,2.0;" x1="445.8" x2="591.3" y1="227.7422" y2="227.7422"/><text fill="#000000" font-family="sans-serif" font-size="7.8" font-weight="bold" lengthAdjust="spacing" textLength="4.2" x="453" y="224.5846">9</text><text fill="#000000" font-family="sans-serif" font-size="7.8" lengthAdjust="spacing" textLength="52.2" x="459.6" y="224.5846">SkillRepository</text><polygon fill="#181818" points="650.1,244.1168,656.1,246.5168,650.1,248.9168,652.5,246.5168" style="stroke:#181818;stroke-width:0.6;"/><line style="stroke:#181818;stroke-width:0.6;" x1="442.8" x2="653.7" y1="246.5168" y2="246.5168"/><text fill="#000000" font-family="sans-serif" font-size="7.8" font-weight="bold" lengthAdjust="spacing" textLength="8.4" x="447" y="243.3592">10</text><text fill="#000000" font-family="sans-serif" font-size="7.8" lengthAdjust="spacing" textLength="47.4" x="457.8" y="243.3592">getSkillsList()</text><polygon fill="#181818" points="449.4,262.8914,443.4,265.2914,449.4,267.6914,447,265.2914" style="stroke:#181818;stroke-width:0.6;"/><line style="stroke:#181818;stroke-width:0.6;stroke-dasharray:2.0,2.0;" x1="445.8" x2="659.7" y1="265.2914" y2="265.2914"/><text fill="#000000" font-family="sans-serif" font-size="7.8" font-weight="bold" lengthAdjust="spacing" textLength="8.4" x="453" y="262.1338">11</text><text fill="#000000" font-family="sans-serif" font-size="7.8" lengthAdjust="spacing" textLength="31.8" x="463.8" y="262.1338">SkillsList</text><polygon fill="#181818" points="285,281.666,279,284.066,285,286.466,282.6,284.066" style="stroke:#181818;stroke-width:0.6;"/><line style="stroke:#181818;stroke-width:0.6;stroke-dasharray:2.0,2.0;" x1="281.4" x2="439.2" y1="284.066" y2="284.066"/><text fill="#000000" font-family="sans-serif" font-size="7.8" font-weight="bold" lengthAdjust="spacing" textLength="8.4" x="288.6" y="280.9084">12</text><text fill="#000000" font-family="sans-serif" font-size="7.8" lengthAdjust="spacing" textLength="31.8" x="299.4" y="280.9084">SkillsList</text><polygon fill="#181818" points="67.2,300.4406,61.2,302.8406,67.2,305.2406,64.8,302.8406" style="stroke:#181818;stroke-width:0.6;"/><line style="stroke:#181818;stroke-width:0.6;stroke-dasharray:2.0,2.0;" x1="63.6" x2="274.8" y1="302.8406" y2="302.8406"/><text fill="#000000" font-family="sans-serif" font-size="7.8" font-weight="bold" lengthAdjust="spacing" textLength="8.4" x="70.8" y="299.683">13</text><text fill="#000000" font-family="sans-serif" font-size="7.8" lengthAdjust="spacing" textLength="158.4" x="81.6" y="299.683">shows the list of skills and asks to select one</text><polygon fill="#181818" points="265.2,319.2152,271.2,321.6152,265.2,324.0152,267.6,321.6152" style="stroke:#181818;stroke-width:0.6;"/><line style="stroke:#181818;stroke-width:0.6;" x1="60.6" x2="268.8" y1="321.6152" y2="321.6152"/><text fill="#000000" font-family="sans-serif" font-size="7.8" font-weight="bold" lengthAdjust="spacing" textLength="8.4" x="64.8" y="318.4576">14</text><text fill="#000000" font-family="sans-serif" font-size="7.8" lengthAdjust="spacing" textLength="45.6" x="75.6" y="318.4576">chooses skill</text><polygon fill="#181818" points="67.2,337.9898,61.2,340.3898,67.2,342.7898,64.8,340.3898" style="stroke:#181818;stroke-width:0.6;"/><line style="stroke:#181818;stroke-width:0.6;stroke-dasharray:2.0,2.0;" x1="63.6" x2="274.8" y1="340.3898" y2="340.3898"/><text fill="#000000" font-family="sans-serif" font-size="7.8" font-weight="bold" lengthAdjust="spacing" textLength="8.4" x="70.8" y="337.2322">15</text><text fill="#000000" font-family="sans-serif" font-size="7.8" lengthAdjust="spacing" textLength="186.6" x="81.6" y="337.2322">generate the team proposal and requests confirmation</text><polygon fill="#181818" points="265.2,356.7645,271.2,359.1645,265.2,361.5645,267.6,359.1645" style="stroke:#181818;stroke-width:0.6;"/><line style="stroke:#181818;stroke-width:0.6;" x1="60.6" x2="268.8" y1="359.1645" y2="359.1645"/><text fill="#000000" font-family="sans-serif" font-size="7.8" font-weight="bold" lengthAdjust="spacing" textLength="8.4" x="64.8" y="356.0068">16</text><text fill="#000000" font-family="sans-serif" font-size="7.8" lengthAdjust="spacing" textLength="99" x="75.6" y="356.0068">confirms the team generated</text><polygon fill="#181818" points="429.6,375.5391,435.6,377.9391,429.6,380.3391,432,377.9391" style="stroke:#181818;stroke-width:0.6;"/><line style="stroke:#181818;stroke-width:0.6;" x1="278.4" x2="433.2" y1="377.9391" y2="377.9391"/><text fill="#000000" font-family="sans-serif" font-size="7.8" font-weight="bold" lengthAdjust="spacing" textLength="8.4" x="282.6" y="374.7814">17</text><text fill="#000000" font-family="sans-serif" font-size="7.8" lengthAdjust="spacing" textLength="136.2" x="293.4" y="374.7814">generateTeam(minSize, maxSize, skill)</text><polygon fill="#181818" points="517.5,394.3137,523.5,396.7137,517.5,399.1137,519.9,396.7137" style="stroke:#181818;stroke-width:0.6;"/><line style="stroke:#181818;stroke-width:0.6;" x1="442.8" x2="521.1" y1="396.7137" y2="396.7137"/><text fill="#000000" font-family="sans-serif" font-size="7.8" font-weight="bold" lengthAdjust="spacing" textLength="8.4" x="447" y="393.5561">18</text><text fill="#000000" font-family="sans-serif" font-size="7.8" lengthAdjust="spacing" textLength="45" x="457.8" y="393.5561">getInstance()</text><polygon fill="#181818" points="449.4,413.0883,443.4,415.4883,449.4,417.8883,447,415.4883" style="stroke:#181818;stroke-width:0.6;"/><line style="stroke:#181818;stroke-width:0.6;stroke-dasharray:2.0,2.0;" x1="445.8" x2="527.1" y1="415.4883" y2="415.4883"/><text fill="#000000" font-family="sans-serif" font-size="7.8" font-weight="bold" lengthAdjust="spacing" textLength="8.4" x="453" y="412.3307">19</text><text fill="#000000" font-family="sans-serif" font-size="7.8" lengthAdjust="spacing" textLength="40.2" x="463.8" y="412.3307">repositories</text><polygon fill="#181818" points="581.7,431.8629,587.7,434.2629,581.7,436.6629,584.1,434.2629" style="stroke:#181818;stroke-width:0.6;"/><line style="stroke:#181818;stroke-width:0.6;" x1="442.8" x2="585.3" y1="434.2629" y2="434.2629"/><text fill="#000000" font-family="sans-serif" font-size="7.8" font-weight="bold" lengthAdjust="spacing" textLength="8.4" x="447" y="431.1053">20</text><text fill="#000000" font-family="sans-serif" font-size="7.8" lengthAdjust="spacing" textLength="103.8" x="457.8" y="431.1053">getGenerateTeamRepository()</text><polygon fill="#181818" points="449.4,450.6375,443.4,453.0375,449.4,455.4375,447,453.0375" style="stroke:#181818;stroke-width:0.6;"/><line style="stroke:#181818;stroke-width:0.6;stroke-dasharray:2.0,2.0;" x1="445.8" x2="591.3" y1="453.0375" y2="453.0375"/><text fill="#000000" font-family="sans-serif" font-size="7.8" font-weight="bold" lengthAdjust="spacing" textLength="8.4" x="453" y="449.8799">21</text><text fill="#000000" font-family="sans-serif" font-size="7.8" lengthAdjust="spacing" textLength="86.4" x="463.8" y="449.8799">generateTeamRepository</text><polygon fill="#181818" points="744,469.4121,750,471.8121,744,474.2121,746.4,471.8121" style="stroke:#181818;stroke-width:0.6;"/><line style="stroke:#181818;stroke-width:0.6;" x1="442.8" x2="747.6" y1="471.8121" y2="471.8121"/><text fill="#000000" font-family="sans-serif" font-size="7.8" font-weight="bold" lengthAdjust="spacing" textLength="8.4" x="447" y="468.6545">22</text><text fill="#000000" font-family="sans-serif" font-size="7.8" lengthAdjust="spacing" textLength="136.2" x="457.8" y="468.6545">generateTeam(minSize, maxSize, skill)</text><polygon fill="#181818" points="892.2,488.1867,898.2,490.5867,892.2,492.9867,894.6,490.5867" style="stroke:#181818;stroke-width:0.6;"/><line style="stroke:#181818;stroke-width:0.6;" x1="757.2" x2="895.8" y1="490.5867" y2="490.5867"/><text fill="#000000" font-family="sans-serif" font-size="7.8" font-weight="bold" lengthAdjust="spacing" textLength="8.4" x="761.4" y="487.4291">23</text><text fill="#000000" font-family="sans-serif" font-size="7.8" lengthAdjust="spacing" textLength="117" x="772.2" y="487.4291">generate(minSize, maxSize, skill)</text><rect fill="#E3E3E3" height="30.7453" rx="1.5" ry="1.5" style="stroke:#181818;stroke-width:0.3;" width="32.4" x="899.4" y="476.6121"/><text fill="#000000" font-family="sans-serif" font-size="8.4" lengthAdjust="spacing" textLength="18.6" x="906.3" y="489.8766">team</text><text fill="#000000" font-family="sans-serif" font-size="8.4" lengthAdjust="spacing" textLength="24" x="903.6" y="501.0492">:Team</text><line style="stroke:#181818;stroke-width:0.6;" x1="757.2" x2="782.4" y1="527.932" y2="527.932"/><line style="stroke:#181818;stroke-width:0.6;" x1="782.4" x2="782.4" y1="527.932" y2="535.732"/><line style="stroke:#181818;stroke-width:0.6;" x1="757.8" x2="782.4" y1="535.732" y2="535.732"/><polygon fill="#181818" points="763.8,533.332,757.8,535.732,763.8,538.132,761.4,535.732" style="stroke:#181818;stroke-width:0.6;"/><text fill="#000000" font-family="sans-serif" font-size="7.8" font-weight="bold" lengthAdjust="spacing" textLength="8.4" x="761.4" y="524.7744">24</text><text fill="#000000" font-family="sans-serif" font-size="7.8" lengthAdjust="spacing" textLength="54" x="772.2" y="524.7744">addTeam(team)</text><line style="stroke:#181818;stroke-width:0.6;" x1="757.2" x2="782.4" y1="554.5066" y2="554.5066"/><line style="stroke:#181818;stroke-width:0.6;" x1="782.4" x2="782.4" y1="554.5066" y2="562.3066"/><line style="stroke:#181818;stroke-width:0.6;" x1="757.8" x2="782.4" y1="562.3066" y2="562.3066"/><polygon fill="#181818" points="763.8,559.9066,757.8,562.3066,763.8,564.7066,761.4,562.3066" style="stroke:#181818;stroke-width:0.6;"/><text fill="#000000" font-family="sans-serif" font-size="7.8" font-weight="bold" lengthAdjust="spacing" textLength="8.4" x="761.4" y="551.349">25</text><text fill="#000000" font-family="sans-serif" font-size="7.8" lengthAdjust="spacing" textLength="67.2" x="772.2" y="551.349">validateTeam(team)</text><polygon fill="#181818" points="449.4,578.6813,443.4,581.0813,449.4,583.4812,447,581.0813" style="stroke:#181818;stroke-width:0.6;"/><line style="stroke:#181818;stroke-width:0.6;stroke-dasharray:2.0,2.0;" x1="445.8" x2="753.6" y1="581.0813" y2="581.0813"/><text fill="#000000" font-family="sans-serif" font-size="7.8" font-weight="bold" lengthAdjust="spacing" textLength="8.4" x="453" y="577.9236">26</text><text fill="#000000" font-family="sans-serif" font-size="7.8" lengthAdjust="spacing" textLength="40.2" x="463.8" y="577.9236">collaborator</text><polygon fill="#181818" points="285,597.4559,279,599.8559,285,602.2559,282.6,599.8559" style="stroke:#181818;stroke-width:0.6;"/><line style="stroke:#181818;stroke-width:0.6;stroke-dasharray:2.0,2.0;" x1="281.4" x2="439.2" y1="599.8559" y2="599.8559"/><text fill="#000000" font-family="sans-serif" font-size="7.8" font-weight="bold" lengthAdjust="spacing" textLength="8.4" x="288.6" y="596.6982">27</text><text fill="#000000" font-family="sans-serif" font-size="7.8" lengthAdjust="spacing" textLength="40.2" x="299.4" y="596.6982">collaborator</text><polygon fill="#181818" points="64.2,616.2305,58.2,618.6305,64.2,621.0305,61.8,618.6305" style="stroke:#181818;stroke-width:0.6;"/><line style="stroke:#181818;stroke-width:0.6;stroke-dasharray:2.0,2.0;" x1="60.6" x2="274.8" y1="618.6305" y2="618.6305"/><text fill="#000000" font-family="sans-serif" font-size="7.8" font-weight="bold" lengthAdjust="spacing" textLength="8.4" x="67.8" y="615.4729">28</text><text fill="#000000" font-family="sans-serif" font-size="7.8" lengthAdjust="spacing" textLength="94.8" x="78.6" y="615.4729">displays operation success</text><!--SRC=[pLR1Rjim3BtxAuXUrXRh3-ImIp6q0LfWYDrRBwpDE49ioHFbjjdNZv8THqxiDjrfEjdcu-CJHLBchT8DMgoXDjha6sjg0cTRIdYmD9XliQJKxIe2Ixb3NLOnW3TOc3UbIrXZnPGas3gZs_g5R99yswY2O6sCUp7l2UREMBYuRslKi28shSs9uH6rHB0NW0ptgyT4U9tALOFQmSNYZZHPT9GHra_B07fQVe2vDTfPKrKzuMssUZX2hwWnh4IA8WwOrSzVOuYD4CzwqY4z8astgge6u2x0qXFYMEW1l7ZM6VBsLWobl1wnt6KdD4xSHPTd2P0iINnorQimX1Gc84iUuEQ7P0iMiDJAAR4o87XlQAoHA5X1sKbIHWUdWKQI73xu9HH2v5DvVIrakIL1T6Pl4fkFjP0p_TqIEuO27S9bhJIWBg36zouegpzq5TmAEWaKoyrsZKYr7HqLWUySUU9QaWjdmG-AtUNL01eyGqKCd_qAdi8WUUu8bfgbpdEAt4SK_a165kzvqsjOG5m-8rYqwnEAI4GQRUDG31-8IK_Kf96S8vuF5ANJadmTpoTs92OzsLSQvmPwDO5ZJaWwavjzSNpES3ZYKNdonhmnk0r19SvWri21AXIfDA3O331LCkN0Q3gdKFEDCIob6eYcAtGaeUys2Yh6ZUX5s7q3vKQlbQqFVVcPZWxF1zvzfEASlZa8ypF5DsughVhTTsxt4FRtrMRwBtefY9YUk__SKUKatTSRAupsh-P-9BMx74Osly9d7o4B0tiVO9vydg7NY4KHvFdQEWF-YfKgzbkQyEdnGqPpkR7nnOX8O-VoUBJNQ2ZC-7yo4HPGA6ugt36Ofhy3WTjS_abugkUYLt_7_WK0]--></g></svg>