<?xml version="1.0" encoding="us-ascii" standalone="no"?><svg xmlns="http://www.w3.org/2000/svg" xmlns:xlink="http://www.w3.org/1999/xlink" contentStyleType="text/css" height="1030.2px" preserveAspectRatio="none" style="width:1467px;height:1030px;background:#FFFFFF;" version="1.1" viewBox="0 0 1467 1030" width="1467.6px" zoomAndPan="magnify"><defs/><g><rect fill="#FFFFFF" height="896.25" style="stroke:#181818;stroke-width:0.6;" width="6" x="29.4" y="64.7859"/><rect fill="#FFFFFF" height="342.2602" style="stroke:#181818;stroke-width:0.6;" width="6" x="258.6" y="77.5723"/><rect fill="#FFFFFF" height="17.5863" style="stroke:#181818;stroke-width:0.6;" width="6" x="258.6" y="437.4188"/><rect fill="#FFFFFF" height="488.4445" style="stroke:#181818;stroke-width:0.6;" width="6" x="258.6" y="472.5914"/><rect fill="#FFFFFF" height="282.1945" style="stroke:#181818;stroke-width:0.6;" width="6" x="455.4" y="120.0516"/><rect fill="#FFFFFF" height="453.2719" style="stroke:#181818;stroke-width:0.6;" width="6" x="455.4" y="490.1777"/><rect fill="#FFFFFF" height="129.7043" style="stroke:#181818;stroke-width:0.6;" width="6" x="458.4" y="512.5641"/><rect fill="#FFFFFF" height="200.0496" style="stroke:#181818;stroke-width:0.6;" width="6" x="458.4" y="668.8547"/><rect fill="#FFFFFF" height="17.5863" style="stroke:#181818;stroke-width:0.6;" width="6" x="588.6" y="137.6379"/><rect fill="#FFFFFF" height="17.5863" style="stroke:#181818;stroke-width:0.6;" width="6" x="588.6" y="533.1504"/><rect fill="#FFFFFF" height="17.5863" style="stroke:#181818;stroke-width:0.6;" width="6" x="588.6" y="689.441"/><rect fill="#FFFFFF" height="17.5863" style="stroke:#181818;stroke-width:0.6;" width="6" x="656.4" y="172.8105"/><rect fill="#FFFFFF" height="17.5863" style="stroke:#181818;stroke-width:0.6;" width="6" x="656.4" y="568.323"/><rect fill="#FFFFFF" height="17.5863" style="stroke:#181818;stroke-width:0.6;" width="6" x="656.4" y="724.6137"/><rect fill="#FFFFFF" height="17.5863" style="stroke:#181818;stroke-width:0.6;" width="6" x="714" y="207.9832"/><rect fill="#FFFFFF" height="17.5863" style="stroke:#181818;stroke-width:0.6;" width="6" x="714" y="603.4957"/><rect fill="#FFFFFF" height="35.1727" style="stroke:#181818;stroke-width:0.6;" width="6" x="714" y="890.6906"/><rect fill="#FFFFFF" height="141.5039" style="stroke:#181818;stroke-width:0.6;" width="6" x="772.2" y="243.1559"/><rect fill="#FFFFFF" height="17.5863" style="stroke:#181818;stroke-width:0.6;" width="6" x="872.4" y="310.1145"/><rect fill="#FFFFFF" height="21.7863" style="stroke:#181818;stroke-width:0.6;" width="6" x="938.1" y="345.2871"/><rect fill="#FFFFFF" height="17.5863" style="stroke:#181818;stroke-width:0.6;" width="6" x="1037.7" y="759.7863"/><rect fill="#FFFFFF" height="17.5863" style="stroke:#181818;stroke-width:0.6;" width="6" x="1150.2" y="794.959"/><rect fill="#FFFFFF" height="17.5863" style="stroke:#181818;stroke-width:0.6;" width="6" x="1234.8" y="830.1316"/><rect fill="none" height="63.1453" style="stroke:#000000;stroke-width:0.8999999999999999;" width="246" x="737.7" y="286.9418"/><line style="stroke:#181818;stroke-width:0.3;stroke-dasharray:5.0,5.0;" x1="32.4" x2="32.4" y1="58.7859" y2="971.8359"/><line style="stroke:#181818;stroke-width:0.3;stroke-dasharray:5.0,5.0;" x1="261.6" x2="261.6" y1="58.7859" y2="971.8359"/><line style="stroke:#181818;stroke-width:0.3;stroke-dasharray:5.0,5.0;" x1="458.4" x2="458.4" y1="100.8188" y2="971.8359"/><line style="stroke:#181818;stroke-width:0.3;stroke-dasharray:5.0,5.0;" x1="591.3" x2="591.3" y1="58.7859" y2="971.8359"/><line style="stroke:#181818;stroke-width:0.3;stroke-dasharray:5.0,5.0;" x1="659.1" x2="659.1" y1="58.7859" y2="971.8359"/><line style="stroke:#181818;stroke-width:0.3;stroke-dasharray:5.0,5.0;" x1="716.7" x2="716.7" y1="58.7859" y2="971.8359"/><line style="stroke:#181818;stroke-width:0.3;stroke-dasharray:5.0,5.0;" x1="774.9" x2="774.9" y1="58.7859" y2="971.8359"/><line style="stroke:#181818;stroke-width:0.3;stroke-dasharray:5.0,5.0;" x1="875.1" x2="875.1" y1="58.7859" y2="971.8359"/><line style="stroke:#181818;stroke-width:0.3;stroke-dasharray:5.0,5.0;" x1="941.1" x2="941.1" y1="271.3488" y2="971.8359"/><line style="stroke:#181818;stroke-width:0.3;stroke-dasharray:5.0,5.0;" x1="1040.7" x2="1040.7" y1="58.7859" y2="971.8359"/><line style="stroke:#181818;stroke-width:0.3;stroke-dasharray:5.0,5.0;" x1="1152.9" x2="1152.9" y1="58.7859" y2="971.8359"/><line style="stroke:#181818;stroke-width:0.3;stroke-dasharray:5.0,5.0;" x1="1237.5" x2="1237.5" y1="58.7859" y2="971.8359"/><line style="stroke:#181818;stroke-width:0.3;stroke-dasharray:5.0,5.0;" x1="1295.7" x2="1295.7" y1="58.7859" y2="971.8359"/><line style="stroke:#181818;stroke-width:0.3;stroke-dasharray:5.0,5.0;" x1="1340.1" x2="1340.1" y1="58.7859" y2="971.8359"/><line style="stroke:#181818;stroke-width:0.3;stroke-dasharray:5.0,5.0;" x1="1413.3" x2="1413.3" y1="58.7859" y2="971.8359"/><text fill="#000000" font-family="sans-serif" font-size="8.4" lengthAdjust="spacing" textLength="55.2" x="3" y="47.1211">Green Spaces</text><text fill="#000000" font-family="sans-serif" font-size="8.4" lengthAdjust="spacing" textLength="36" x="12.6" y="57.0141">Manager</text><ellipse cx="32.4" cy="8.1" fill="#E3E3E3" rx="4.8" ry="4.8" style="stroke:#181818;stroke-width:0.3;"/><path d="M32.4,12.9 L32.4,29.1 M24.6,17.7 L40.2,17.7 M32.4,29.1 L24.6,38.1 M32.4,29.1 L40.2,38.1 " fill="none" style="stroke:#181818;stroke-width:0.3;"/><text fill="#000000" font-family="sans-serif" font-size="8.4" lengthAdjust="spacing" textLength="55.2" x="3" y="979.357">Green Spaces</text><text fill="#000000" font-family="sans-serif" font-size="8.4" lengthAdjust="spacing" textLength="36" x="12.6" y="989.25">Manager</text><ellipse cx="32.4" cy="996.1219" fill="#E3E3E3" rx="4.8" ry="4.8" style="stroke:#181818;stroke-width:0.3;"/><path d="M32.4,1000.9219 L32.4,1017.1219 M24.6,1005.7219 L40.2,1005.7219 M32.4,1017.1219 L24.6,1026.1219 M32.4,1017.1219 L40.2,1026.1219 " fill="none" style="stroke:#181818;stroke-width:0.3;"/><rect fill="#E3E3E3" height="18.293" rx="1.5" ry="1.5" style="stroke:#181818;stroke-width:0.3;" width="110.4" x="206.4" y="39.893"/><text fill="#000000" font-family="sans-serif" font-size="8.4" lengthAdjust="spacing" textLength="102" x="210.6" y="52.2141">:PostponeEntryAgendaUI</text><rect fill="#E3E3E3" height="18.293" rx="1.5" ry="1.5" style="stroke:#181818;stroke-width:0.3;" width="110.4" x="206.4" y="971.2359"/><text fill="#000000" font-family="sans-serif" font-size="8.4" lengthAdjust="spacing" textLength="102" x="210.6" y="983.557">:PostponeEntryAgendaUI</text><rect fill="#E3E3E3" height="18.293" rx="1.5" ry="1.5" style="stroke:#181818;stroke-width:0.3;" width="144" x="386.4" y="971.2359"/><text fill="#000000" font-family="sans-serif" font-size="8.4" lengthAdjust="spacing" textLength="135.6" x="390.6" y="983.557">:PostponeEntryAgendaController</text><rect fill="#E3E3E3" height="18.293" rx="1.5" ry="1.5" style="stroke:#181818;stroke-width:0.3;" width="61.8" x="560.7" y="39.893"/><text fill="#000000" font-family="sans-serif" font-size="8.4" lengthAdjust="spacing" textLength="53.4" x="564.9" y="52.2141">:Repositories</text><rect fill="#E3E3E3" height="18.293" rx="1.5" ry="1.5" style="stroke:#181818;stroke-width:0.3;" width="61.8" x="560.7" y="971.2359"/><text fill="#000000" font-family="sans-serif" font-size="8.4" lengthAdjust="spacing" textLength="53.4" x="564.9" y="983.557">:Repositories</text><rect fill="#E3E3E3" height="28.1859" rx="1.5" ry="1.5" style="stroke:#181818;stroke-width:0.3;" width="61.8" x="628.5" y="30"/><text fill="#000000" font-family="sans-serif" font-size="8.4" lengthAdjust="spacing" textLength="49.2" x="634.8" y="42.3211">repositories</text><text fill="#000000" font-family="sans-serif" font-size="8.4" lengthAdjust="spacing" textLength="53.4" x="632.7" y="52.2141">:Repositories</text><rect fill="#E3E3E3" height="28.1859" rx="1.5" ry="1.5" style="stroke:#181818;stroke-width:0.3;" width="61.8" x="628.5" y="971.2359"/><text fill="#000000" font-family="sans-serif" font-size="8.4" lengthAdjust="spacing" textLength="49.2" x="634.8" y="983.557">repositories</text><text fill="#000000" font-family="sans-serif" font-size="8.4" lengthAdjust="spacing" textLength="53.4" x="632.7" y="993.45">:Repositories</text><rect fill="#E3E3E3" height="28.1859" rx="1.5" ry="1.5" style="stroke:#181818;stroke-width:0.3;" width="41.4" x="696.3" y="30"/><text fill="#000000" font-family="sans-serif" font-size="8.4" lengthAdjust="spacing" textLength="33" x="700.5" y="42.3211">agenda:</text><text fill="#000000" font-family="sans-serif" font-size="8.4" lengthAdjust="spacing" textLength="31.8" x="701.1" y="52.2141">Agenda</text><rect fill="#E3E3E3" height="28.1859" rx="1.5" ry="1.5" style="stroke:#181818;stroke-width:0.3;" width="41.4" x="696.3" y="971.2359"/><text fill="#000000" font-family="sans-serif" font-size="8.4" lengthAdjust="spacing" textLength="33" x="700.5" y="983.557">agenda:</text><text fill="#000000" font-family="sans-serif" font-size="8.4" lengthAdjust="spacing" textLength="31.8" x="701.1" y="993.45">Agenda</text><rect fill="#E3E3E3" height="18.293" rx="1.5" ry="1.5" style="stroke:#181818;stroke-width:0.3;" width="63" x="743.7" y="39.893"/><text fill="#000000" font-family="sans-serif" font-size="8.4" lengthAdjust="spacing" textLength="54.6" x="747.9" y="52.2141">:EntryMapper</text><rect fill="#E3E3E3" height="18.293" rx="1.5" ry="1.5" style="stroke:#181818;stroke-width:0.3;" width="63" x="743.7" y="971.2359"/><text fill="#000000" font-family="sans-serif" font-size="8.4" lengthAdjust="spacing" textLength="54.6" x="747.9" y="983.557">:EntryMapper</text><rect fill="#E3E3E3" height="28.1859" rx="1.5" ry="1.5" style="stroke:#181818;stroke-width:0.3;" width="46.2" x="852.3" y="30"/><text fill="#000000" font-family="sans-serif" font-size="8.4" lengthAdjust="spacing" textLength="35.4" x="857.7" y="42.3211">entryDto</text><text fill="#000000" font-family="sans-serif" font-size="8.4" lengthAdjust="spacing" textLength="37.8" x="856.5" y="52.2141">:EntryDto</text><rect fill="#E3E3E3" height="28.1859" rx="1.5" ry="1.5" style="stroke:#181818;stroke-width:0.3;" width="46.2" x="852.3" y="971.2359"/><text fill="#000000" font-family="sans-serif" font-size="8.4" lengthAdjust="spacing" textLength="35.4" x="857.7" y="983.557">entryDto</text><text fill="#000000" font-family="sans-serif" font-size="8.4" lengthAdjust="spacing" textLength="37.8" x="856.5" y="993.45">:EntryDto</text><rect fill="#E3E3E3" height="28.1859" rx="1.5" ry="1.5" style="stroke:#181818;stroke-width:0.3;" width="73.2" x="904.5" y="971.2359"/><text fill="#000000" font-family="sans-serif" font-size="8.4" lengthAdjust="spacing" textLength="49.2" x="916.5" y="983.557">entryListDto</text><text fill="#000000" font-family="sans-serif" font-size="8.4" lengthAdjust="spacing" textLength="64.8" x="908.7" y="993.45">:List&lt;entryDto&gt;</text><rect fill="#E3E3E3" height="28.1859" rx="1.5" ry="1.5" style="stroke:#181818;stroke-width:0.3;" width="114" x="983.7" y="30"/><text fill="#000000" font-family="sans-serif" font-size="8.4" lengthAdjust="spacing" textLength="105.6" x="987.9" y="42.3211">authenticationRepository:</text><text fill="#000000" font-family="sans-serif" font-size="8.4" lengthAdjust="spacing" textLength="104.4" x="988.5" y="52.2141">AuthenticationRepository</text><rect fill="#E3E3E3" height="28.1859" rx="1.5" ry="1.5" style="stroke:#181818;stroke-width:0.3;" width="114" x="983.7" y="971.2359"/><text fill="#000000" font-family="sans-serif" font-size="8.4" lengthAdjust="spacing" textLength="105.6" x="987.9" y="983.557">authenticationRepository:</text><text fill="#000000" font-family="sans-serif" font-size="8.4" lengthAdjust="spacing" textLength="104.4" x="988.5" y="993.45">AuthenticationRepository</text><rect fill="#E3E3E3" height="28.1859" rx="1.5" ry="1.5" style="stroke:#181818;stroke-width:0.3;" width="99" x="1103.7" y="30"/><text fill="#000000" font-family="sans-serif" font-size="8.4" lengthAdjust="spacing" textLength="90.6" x="1107.9" y="42.3211">authenticationFacade:</text><text fill="#000000" font-family="sans-serif" font-size="8.4" lengthAdjust="spacing" textLength="48.6" x="1128.9" y="52.2141">AuthFacade</text><rect fill="#E3E3E3" height="28.1859" rx="1.5" ry="1.5" style="stroke:#181818;stroke-width:0.3;" width="99" x="1103.7" y="971.2359"/><text fill="#000000" font-family="sans-serif" font-size="8.4" lengthAdjust="spacing" textLength="90.6" x="1107.9" y="983.557">authenticationFacade:</text><text fill="#000000" font-family="sans-serif" font-size="8.4" lengthAdjust="spacing" textLength="48.6" x="1128.9" y="993.45">AuthFacade</text><rect fill="#E3E3E3" height="28.1859" rx="1.5" ry="1.5" style="stroke:#181818;stroke-width:0.3;" width="58.2" x="1208.7" y="30"/><text fill="#000000" font-family="sans-serif" font-size="8.4" lengthAdjust="spacing" textLength="20.4" x="1227.6" y="42.3211">user:</text><text fill="#000000" font-family="sans-serif" font-size="8.4" lengthAdjust="spacing" textLength="49.8" x="1212.9" y="52.2141">UserSession</text><rect fill="#E3E3E3" height="28.1859" rx="1.5" ry="1.5" style="stroke:#181818;stroke-width:0.3;" width="58.2" x="1208.7" y="971.2359"/><text fill="#000000" font-family="sans-serif" font-size="8.4" lengthAdjust="spacing" textLength="20.4" x="1227.6" y="983.557">user:</text><text fill="#000000" font-family="sans-serif" font-size="8.4" lengthAdjust="spacing" textLength="49.8" x="1212.9" y="993.45">UserSession</text><rect fill="#E3E3E3" height="28.1859" rx="1.5" ry="1.5" style="stroke:#181818;stroke-width:0.3;" width="45.6" x="1272.9" y="30"/><text fill="#000000" font-family="sans-serif" font-size="8.4" lengthAdjust="spacing" textLength="37.2" x="1277.1" y="42.3211">entryList:</text><text fill="#000000" font-family="sans-serif" font-size="8.4" lengthAdjust="spacing" textLength="34.8" x="1278.3" y="52.2141">EntryList</text><rect fill="#E3E3E3" height="28.1859" rx="1.5" ry="1.5" style="stroke:#181818;stroke-width:0.3;" width="45.6" x="1272.9" y="971.2359"/><text fill="#000000" font-family="sans-serif" font-size="8.4" lengthAdjust="spacing" textLength="37.2" x="1277.1" y="983.557">entryList:</text><text fill="#000000" font-family="sans-serif" font-size="8.4" lengthAdjust="spacing" textLength="34.8" x="1278.3" y="993.45">EntryList</text><rect fill="#E3E3E3" height="28.1859" rx="1.5" ry="1.5" style="stroke:#181818;stroke-width:0.3;" width="31.8" x="1324.5" y="30"/><text fill="#000000" font-family="sans-serif" font-size="8.4" lengthAdjust="spacing" textLength="23.4" x="1328.7" y="42.3211">entry:</text><text fill="#000000" font-family="sans-serif" font-size="8.4" lengthAdjust="spacing" textLength="21" x="1329.9" y="52.2141">Entry</text><rect fill="#E3E3E3" height="28.1859" rx="1.5" ry="1.5" style="stroke:#181818;stroke-width:0.3;" width="31.8" x="1324.5" y="971.2359"/><text fill="#000000" font-family="sans-serif" font-size="8.4" lengthAdjust="spacing" textLength="23.4" x="1328.7" y="983.557">entry:</text><text fill="#000000" font-family="sans-serif" font-size="8.4" lengthAdjust="spacing" textLength="21" x="1329.9" y="993.45">Entry</text><rect fill="#E3E3E3" height="28.1859" rx="1.5" ry="1.5" style="stroke:#181818;stroke-width:0.3;" width="102" x="1362.3" y="30"/><text fill="#000000" font-family="sans-serif" font-size="8.4" lengthAdjust="spacing" textLength="90.6" x="1368" y="42.3211">greenSpacesManager:</text><text fill="#000000" font-family="sans-serif" font-size="8.4" lengthAdjust="spacing" textLength="93.6" x="1366.5" y="52.2141">Green Spaces Manager</text><rect fill="#E3E3E3" height="28.1859" rx="1.5" ry="1.5" style="stroke:#181818;stroke-width:0.3;" width="102" x="1362.3" y="971.2359"/><text fill="#000000" font-family="sans-serif" font-size="8.4" lengthAdjust="spacing" textLength="90.6" x="1368" y="983.557">greenSpacesManager:</text><text fill="#000000" font-family="sans-serif" font-size="8.4" lengthAdjust="spacing" textLength="93.6" x="1366.5" y="993.45">Green Spaces Manager</text><rect fill="#FFFFFF" height="896.25" style="stroke:#181818;stroke-width:0.6;" width="6" x="29.4" y="64.7859"/><rect fill="#FFFFFF" height="342.2602" style="stroke:#181818;stroke-width:0.6;" width="6" x="258.6" y="77.5723"/><rect fill="#FFFFFF" height="17.5863" style="stroke:#181818;stroke-width:0.6;" width="6" x="258.6" y="437.4188"/><rect fill="#FFFFFF" height="488.4445" style="stroke:#181818;stroke-width:0.6;" width="6" x="258.6" y="472.5914"/><rect fill="#FFFFFF" height="282.1945" style="stroke:#181818;stroke-width:0.6;" width="6" x="455.4" y="120.0516"/><rect fill="#FFFFFF" height="453.2719" style="stroke:#181818;stroke-width:0.6;" width="6" x="455.4" y="490.1777"/><rect fill="#FFFFFF" height="129.7043" style="stroke:#181818;stroke-width:0.6;" width="6" x="458.4" y="512.5641"/><rect fill="#FFFFFF" height="200.0496" style="stroke:#181818;stroke-width:0.6;" width="6" x="458.4" y="668.8547"/><rect fill="#FFFFFF" height="17.5863" style="stroke:#181818;stroke-width:0.6;" width="6" x="588.6" y="137.6379"/><rect fill="#FFFFFF" height="17.5863" style="stroke:#181818;stroke-width:0.6;" width="6" x="588.6" y="533.1504"/><rect fill="#FFFFFF" height="17.5863" style="stroke:#181818;stroke-width:0.6;" width="6" x="588.6" y="689.441"/><rect fill="#FFFFFF" height="17.5863" style="stroke:#181818;stroke-width:0.6;" width="6" x="656.4" y="172.8105"/><rect fill="#FFFFFF" height="17.5863" style="stroke:#181818;stroke-width:0.6;" width="6" x="656.4" y="568.323"/><rect fill="#FFFFFF" height="17.5863" style="stroke:#181818;stroke-width:0.6;" width="6" x="656.4" y="724.6137"/><rect fill="#FFFFFF" height="17.5863" style="stroke:#181818;stroke-width:0.6;" width="6" x="714" y="207.9832"/><rect fill="#FFFFFF" height="17.5863" style="stroke:#181818;stroke-width:0.6;" width="6" x="714" y="603.4957"/><rect fill="#FFFFFF" height="35.1727" style="stroke:#181818;stroke-width:0.6;" width="6" x="714" y="890.6906"/><rect fill="#FFFFFF" height="141.5039" style="stroke:#181818;stroke-width:0.6;" width="6" x="772.2" y="243.1559"/><rect fill="#FFFFFF" height="17.5863" style="stroke:#181818;stroke-width:0.6;" width="6" x="872.4" y="310.1145"/><rect fill="#FFFFFF" height="21.7863" style="stroke:#181818;stroke-width:0.6;" width="6" x="938.1" y="345.2871"/><rect fill="#FFFFFF" height="17.5863" style="stroke:#181818;stroke-width:0.6;" width="6" x="1037.7" y="759.7863"/><rect fill="#FFFFFF" height="17.5863" style="stroke:#181818;stroke-width:0.6;" width="6" x="1150.2" y="794.959"/><rect fill="#FFFFFF" height="17.5863" style="stroke:#181818;stroke-width:0.6;" width="6" x="1234.8" y="830.1316"/><polygon fill="#181818" points="251.4,75.1723,257.4,77.5723,251.4,79.9723,253.8,77.5723" style="stroke:#181818;stroke-width:0.6;"/><line style="stroke:#181818;stroke-width:0.6;" x1="35.4" x2="255" y1="77.5723" y2="77.5723"/><text fill="#000000" font-family="sans-serif" font-size="7.8" font-weight="bold" lengthAdjust="spacing" textLength="5.4" x="39.6" y="74.727">1</text><text fill="#000000" font-family="sans-serif" font-size="7.8" lengthAdjust="spacing" textLength="154.2" x="47.4" y="74.727">Asks to postpone an entry in the Agenda</text><polygon fill="#181818" points="379.2,92.7586,385.2,95.1586,379.2,97.5586,381.6,95.1586" style="stroke:#181818;stroke-width:0.6;"/><line style="stroke:#181818;stroke-width:0.6;" x1="264.6" x2="382.8" y1="95.1586" y2="95.1586"/><text fill="#000000" font-family="sans-serif" font-size="7.8" font-weight="bold" lengthAdjust="spacing" textLength="5.4" x="268.8" y="92.3133">2</text><text fill="#000000" font-family="sans-serif" font-size="7.8" lengthAdjust="spacing" textLength="22.8" x="276.6" y="92.3133">create</text><rect fill="#E3E3E3" height="18.293" rx="1.5" ry="1.5" style="stroke:#181818;stroke-width:0.3;" width="144" x="386.4" y="82.3723"/><text fill="#000000" font-family="sans-serif" font-size="8.4" lengthAdjust="spacing" textLength="135.6" x="390.6" y="94.6934">:PostponeEntryAgendaController</text><polygon fill="#181818" points="448.2,117.6516,454.2,120.0516,448.2,122.4516,450.6,120.0516" style="stroke:#181818;stroke-width:0.6;"/><line style="stroke:#181818;stroke-width:0.6;" x1="264.6" x2="451.8" y1="120.0516" y2="120.0516"/><text fill="#000000" font-family="sans-serif" font-size="7.8" font-weight="bold" lengthAdjust="spacing" textLength="5.4" x="268.8" y="117.2063">3</text><text fill="#000000" font-family="sans-serif" font-size="7.8" lengthAdjust="spacing" textLength="59.4" x="276.6" y="117.2063">getEntriesDTO()</text><polygon fill="#181818" points="581.4,135.2379,587.4,137.6379,581.4,140.0379,583.8,137.6379" style="stroke:#181818;stroke-width:0.6;"/><line style="stroke:#181818;stroke-width:0.6;" x1="461.4" x2="585" y1="137.6379" y2="137.6379"/><text fill="#000000" font-family="sans-serif" font-size="7.8" font-weight="bold" lengthAdjust="spacing" textLength="5.4" x="465.6" y="134.7926">4</text><text fill="#000000" font-family="sans-serif" font-size="7.8" lengthAdjust="spacing" textLength="48.6" x="473.4" y="134.7926">getInstance()</text><polygon fill="#181818" points="468,152.8242,462,155.2242,468,157.6242,465.6,155.2242" style="stroke:#181818;stroke-width:0.6;"/><line style="stroke:#181818;stroke-width:0.6;stroke-dasharray:2.0,2.0;" x1="464.4" x2="591" y1="155.2242" y2="155.2242"/><text fill="#000000" font-family="sans-serif" font-size="7.8" font-weight="bold" lengthAdjust="spacing" textLength="5.4" x="471.6" y="152.3789">5</text><text fill="#000000" font-family="sans-serif" font-size="7.8" lengthAdjust="spacing" textLength="45" x="479.4" y="152.3789">repositories</text><polygon fill="#181818" points="649.2,170.4105,655.2,172.8105,649.2,175.2105,651.6,172.8105" style="stroke:#181818;stroke-width:0.6;"/><line style="stroke:#181818;stroke-width:0.6;" x1="461.4" x2="652.8" y1="172.8105" y2="172.8105"/><text fill="#000000" font-family="sans-serif" font-size="7.8" font-weight="bold" lengthAdjust="spacing" textLength="5.4" x="465.6" y="169.9652">6</text><text fill="#000000" font-family="sans-serif" font-size="7.8" lengthAdjust="spacing" textLength="45" x="473.4" y="169.9652">getAgenda()</text><polygon fill="#181818" points="468,187.9969,462,190.3969,468,192.7969,465.6,190.3969" style="stroke:#181818;stroke-width:0.6;"/><line style="stroke:#181818;stroke-width:0.6;stroke-dasharray:2.0,2.0;" x1="464.4" x2="658.8" y1="190.3969" y2="190.3969"/><text fill="#000000" font-family="sans-serif" font-size="7.8" font-weight="bold" lengthAdjust="spacing" textLength="5.4" x="471.6" y="187.5516">7</text><text fill="#000000" font-family="sans-serif" font-size="7.8" lengthAdjust="spacing" textLength="27" x="479.4" y="187.5516">agenda</text><polygon fill="#181818" points="706.8,205.5832,712.8,207.9832,706.8,210.3832,709.2,207.9832" style="stroke:#181818;stroke-width:0.6;"/><line style="stroke:#181818;stroke-width:0.6;" x1="461.4" x2="710.4" y1="207.9832" y2="207.9832"/><text fill="#000000" font-family="sans-serif" font-size="7.8" font-weight="bold" lengthAdjust="spacing" textLength="5.4" x="465.6" y="205.1379">8</text><text fill="#000000" font-family="sans-serif" font-size="7.8" lengthAdjust="spacing" textLength="56.4" x="473.4" y="205.1379">getEntriesList()</text><polygon fill="#181818" points="468,223.1695,462,225.5695,468,227.9695,465.6,225.5695" style="stroke:#181818;stroke-width:0.6;"/><line style="stroke:#181818;stroke-width:0.6;stroke-dasharray:2.0,2.0;" x1="464.4" x2="716.4" y1="225.5695" y2="225.5695"/><text fill="#000000" font-family="sans-serif" font-size="7.8" font-weight="bold" lengthAdjust="spacing" textLength="5.4" x="471.6" y="222.7242">9</text><text fill="#000000" font-family="sans-serif" font-size="7.8" lengthAdjust="spacing" textLength="39.6" x="479.4" y="222.7242">entriesList</text><polygon fill="#181818" points="765,240.7559,771,243.1559,765,245.5559,767.4,243.1559" style="stroke:#181818;stroke-width:0.6;"/><line style="stroke:#181818;stroke-width:0.6;" x1="461.4" x2="768.6" y1="243.1559" y2="243.1559"/><text fill="#000000" font-family="sans-serif" font-size="7.8" font-weight="bold" lengthAdjust="spacing" textLength="10.8" x="465.6" y="240.3105">10</text><text fill="#000000" font-family="sans-serif" font-size="7.8" lengthAdjust="spacing" textLength="82.8" x="478.8" y="240.3105">toDTOList(entriesList)</text><polygon fill="#181818" points="897.3,258.3422,903.3,260.7422,897.3,263.1422,899.7,260.7422" style="stroke:#181818;stroke-width:0.6;"/><line style="stroke:#181818;stroke-width:0.6;" x1="778.2" x2="900.9" y1="260.7422" y2="260.7422"/><text fill="#000000" font-family="sans-serif" font-size="7.8" font-weight="bold" lengthAdjust="spacing" textLength="10.8" x="782.4" y="257.8969">11</text><text fill="#000000" font-family="sans-serif" font-size="7.8" lengthAdjust="spacing" textLength="27.6" x="795.6" y="257.8969">create()</text><rect fill="#E3E3E3" height="28.1859" rx="1.5" ry="1.5" style="stroke:#181818;stroke-width:0.3;" width="73.2" x="904.5" y="247.9559"/><text fill="#000000" font-family="sans-serif" font-size="8.4" lengthAdjust="spacing" textLength="49.2" x="916.5" y="260.277">entryListDto</text><text fill="#000000" font-family="sans-serif" font-size="8.4" lengthAdjust="spacing" textLength="64.8" x="908.7" y="270.1699">:List&lt;entryDto&gt;</text><path d="M737.7,286.9418 L782.1,286.9418 L782.1,291.3281 L776.1,297.3281 L737.7,297.3281 L737.7,286.9418 " fill="#EEEEEE" style="stroke:#000000;stroke-width:0.8999999999999999;"/><rect fill="none" height="63.1453" style="stroke:#000000;stroke-width:0.8999999999999999;" width="246" x="737.7" y="286.9418"/><text fill="#000000" font-family="sans-serif" font-size="7.8" font-weight="bold" lengthAdjust="spacing" textLength="17.4" x="746.7" y="295.0828">loop</text><text fill="#000000" font-family="sans-serif" font-size="6.6" font-weight="bold" lengthAdjust="spacing" textLength="98.4" x="791.1" y="294.5227">[For each entry in entriesList]</text><polygon fill="#181818" points="865.2,307.7145,871.2,310.1145,865.2,312.5145,867.6,310.1145" style="stroke:#181818;stroke-width:0.6;"/><line style="stroke:#181818;stroke-width:0.6;" x1="778.2" x2="868.8" y1="310.1145" y2="310.1145"/><text fill="#000000" font-family="sans-serif" font-size="7.8" font-weight="bold" lengthAdjust="spacing" textLength="10.8" x="782.4" y="307.2691">12</text><text fill="#000000" font-family="sans-serif" font-size="7.8" lengthAdjust="spacing" textLength="69.6" x="795.6" y="307.2691">entryToDTO(entry)</text><polygon fill="#181818" points="784.8,325.3008,778.8,327.7008,784.8,330.1008,782.4,327.7008" style="stroke:#181818;stroke-width:0.6;"/><line style="stroke:#181818;stroke-width:0.6;stroke-dasharray:2.0,2.0;" x1="781.2" x2="874.8" y1="327.7008" y2="327.7008"/><text fill="#000000" font-family="sans-serif" font-size="7.8" font-weight="bold" lengthAdjust="spacing" textLength="10.8" x="788.4" y="324.8555">13</text><text fill="#000000" font-family="sans-serif" font-size="7.8" lengthAdjust="spacing" textLength="33" x="801.6" y="324.8555">entryDto</text><polygon fill="#181818" points="930.9,342.8871,936.9,345.2871,930.9,347.6871,933.3,345.2871" style="stroke:#181818;stroke-width:0.6;"/><line style="stroke:#181818;stroke-width:0.6;" x1="778.2" x2="934.5" y1="345.2871" y2="345.2871"/><text fill="#000000" font-family="sans-serif" font-size="7.8" font-weight="bold" lengthAdjust="spacing" textLength="10.8" x="782.4" y="342.4418">14</text><text fill="#000000" font-family="sans-serif" font-size="7.8" lengthAdjust="spacing" textLength="51.6" x="795.6" y="342.4418">add(entryDto)</text><polygon fill="#181818" points="784.8,364.6734,778.8,367.0734,784.8,369.4734,782.4,367.0734" style="stroke:#181818;stroke-width:0.6;"/><line style="stroke:#181818;stroke-width:0.6;stroke-dasharray:2.0,2.0;" x1="781.2" x2="940.5" y1="367.0734" y2="367.0734"/><text fill="#000000" font-family="sans-serif" font-size="7.8" font-weight="bold" lengthAdjust="spacing" textLength="10.8" x="788.4" y="364.2281">15</text><text fill="#000000" font-family="sans-serif" font-size="7.8" lengthAdjust="spacing" textLength="53.4" x="801.6" y="364.2281">entriesListDto</text><polygon fill="#181818" points="468,382.2598,462,384.6598,468,387.0598,465.6,384.6598" style="stroke:#181818;stroke-width:0.6;"/><line style="stroke:#181818;stroke-width:0.6;stroke-dasharray:2.0,2.0;" x1="464.4" x2="774.6" y1="384.6598" y2="384.6598"/><text fill="#000000" font-family="sans-serif" font-size="7.8" font-weight="bold" lengthAdjust="spacing" textLength="10.8" x="471.6" y="381.8145">16</text><text fill="#000000" font-family="sans-serif" font-size="7.8" lengthAdjust="spacing" textLength="53.4" x="484.8" y="381.8145">entriesListDto</text><polygon fill="#181818" points="271.2,399.8461,265.2,402.2461,271.2,404.6461,268.8,402.2461" style="stroke:#181818;stroke-width:0.6;"/><line style="stroke:#181818;stroke-width:0.6;stroke-dasharray:2.0,2.0;" x1="267.6" x2="457.8" y1="402.2461" y2="402.2461"/><text fill="#000000" font-family="sans-serif" font-size="7.8" font-weight="bold" lengthAdjust="spacing" textLength="10.8" x="274.8" y="399.4008">17</text><text fill="#000000" font-family="sans-serif" font-size="7.8" lengthAdjust="spacing" textLength="53.4" x="288" y="399.4008">entriesListDto</text><polygon fill="#181818" points="42,417.4324,36,419.8324,42,422.2324,39.6,419.8324" style="stroke:#181818;stroke-width:0.6;"/><line style="stroke:#181818;stroke-width:0.6;stroke-dasharray:2.0,2.0;" x1="38.4" x2="261" y1="419.8324" y2="419.8324"/><text fill="#000000" font-family="sans-serif" font-size="7.8" font-weight="bold" lengthAdjust="spacing" textLength="10.8" x="45.6" y="416.9871">18</text><text fill="#000000" font-family="sans-serif" font-size="7.8" lengthAdjust="spacing" textLength="76.8" x="58.8" y="416.9871">Shows list of entries</text><polygon fill="#181818" points="251.4,435.0188,257.4,437.4188,251.4,439.8187,253.8,437.4188" style="stroke:#181818;stroke-width:0.6;"/><line style="stroke:#181818;stroke-width:0.6;" x1="35.4" x2="255" y1="437.4188" y2="437.4188"/><text fill="#000000" font-family="sans-serif" font-size="7.8" font-weight="bold" lengthAdjust="spacing" textLength="10.8" x="39.6" y="434.5734">19</text><text fill="#000000" font-family="sans-serif" font-size="7.8" lengthAdjust="spacing" textLength="107.4" x="52.8" y="434.5734">selects an entry to postpone</text><polygon fill="#181818" points="42,452.6051,36,455.0051,42,457.4051,39.6,455.0051" style="stroke:#181818;stroke-width:0.6;"/><line style="stroke:#181818;stroke-width:0.6;stroke-dasharray:2.0,2.0;" x1="38.4" x2="261" y1="455.0051" y2="455.0051"/><text fill="#000000" font-family="sans-serif" font-size="7.8" font-weight="bold" lengthAdjust="spacing" textLength="10.8" x="45.6" y="452.1598">20</text><text fill="#000000" font-family="sans-serif" font-size="7.8" lengthAdjust="spacing" textLength="108" x="58.8" y="452.1598">requests data (i.e., new date)</text><polygon fill="#181818" points="251.4,470.1914,257.4,472.5914,251.4,474.9914,253.8,472.5914" style="stroke:#181818;stroke-width:0.6;"/><line style="stroke:#181818;stroke-width:0.6;" x1="35.4" x2="255" y1="472.5914" y2="472.5914"/><text fill="#000000" font-family="sans-serif" font-size="7.8" font-weight="bold" lengthAdjust="spacing" textLength="10.8" x="39.6" y="469.7461">21</text><text fill="#000000" font-family="sans-serif" font-size="7.8" lengthAdjust="spacing" textLength="198.6" x="52.8" y="469.7461">types requested data (entry index, new starting date)</text><polygon fill="#181818" points="448.2,487.7777,454.2,490.1777,448.2,492.5777,450.6,490.1777" style="stroke:#181818;stroke-width:0.6;"/><line style="stroke:#181818;stroke-width:0.6;" x1="264.6" x2="451.8" y1="490.1777" y2="490.1777"/><text fill="#000000" font-family="sans-serif" font-size="7.8" font-weight="bold" lengthAdjust="spacing" textLength="10.8" x="268.8" y="487.3324">22</text><text fill="#000000" font-family="sans-serif" font-size="7.8" lengthAdjust="spacing" textLength="166.2" x="282" y="487.3324">postponeEntry(entryIndex, newStartingDate)</text><line style="stroke:#181818;stroke-width:0.6;" x1="461.4" x2="489.6" y1="504.7641" y2="504.7641"/><line style="stroke:#181818;stroke-width:0.6;" x1="489.6" x2="489.6" y1="504.7641" y2="512.5641"/><line style="stroke:#181818;stroke-width:0.6;" x1="465" x2="489.6" y1="512.5641" y2="512.5641"/><polygon fill="#181818" points="471,510.1641,465,512.5641,471,514.9641,468.6,512.5641" style="stroke:#181818;stroke-width:0.6;"/><text fill="#000000" font-family="sans-serif" font-size="7.8" font-weight="bold" lengthAdjust="spacing" textLength="10.8" x="468.6" y="501.9188">23</text><text fill="#000000" font-family="sans-serif" font-size="7.8" lengthAdjust="spacing" textLength="105.6" x="481.8" y="501.9188">getEntryByIndex(entryIndex)</text><polygon fill="#181818" points="581.4,530.7504,587.4,533.1504,581.4,535.5504,583.8,533.1504" style="stroke:#181818;stroke-width:0.6;"/><line style="stroke:#181818;stroke-width:0.6;" x1="464.4" x2="585" y1="533.1504" y2="533.1504"/><text fill="#000000" font-family="sans-serif" font-size="7.8" font-weight="bold" lengthAdjust="spacing" textLength="10.8" x="468.6" y="530.3051">24</text><text fill="#000000" font-family="sans-serif" font-size="7.8" lengthAdjust="spacing" textLength="48.6" x="481.8" y="530.3051">getInstance()</text><polygon fill="#181818" points="471,548.3367,465,550.7367,471,553.1367,468.6,550.7367" style="stroke:#181818;stroke-width:0.6;"/><line style="stroke:#181818;stroke-width:0.6;stroke-dasharray:2.0,2.0;" x1="467.4" x2="591" y1="550.7367" y2="550.7367"/><text fill="#000000" font-family="sans-serif" font-size="7.8" font-weight="bold" lengthAdjust="spacing" textLength="10.8" x="474.6" y="547.8914">25</text><text fill="#000000" font-family="sans-serif" font-size="7.8" lengthAdjust="spacing" textLength="45" x="487.8" y="547.8914">repositories</text><polygon fill="#181818" points="649.2,565.923,655.2,568.323,649.2,570.723,651.6,568.323" style="stroke:#181818;stroke-width:0.6;"/><line style="stroke:#181818;stroke-width:0.6;" x1="464.4" x2="652.8" y1="568.323" y2="568.323"/><text fill="#000000" font-family="sans-serif" font-size="7.8" font-weight="bold" lengthAdjust="spacing" textLength="10.8" x="468.6" y="565.4777">26</text><text fill="#000000" font-family="sans-serif" font-size="7.8" lengthAdjust="spacing" textLength="45" x="481.8" y="565.4777">getAgenda()</text><polygon fill="#181818" points="471,583.5094,465,585.9094,471,588.3094,468.6,585.9094" style="stroke:#181818;stroke-width:0.6;"/><line style="stroke:#181818;stroke-width:0.6;stroke-dasharray:2.0,2.0;" x1="467.4" x2="658.8" y1="585.9094" y2="585.9094"/><text fill="#000000" font-family="sans-serif" font-size="7.8" font-weight="bold" lengthAdjust="spacing" textLength="10.8" x="474.6" y="583.0641">27</text><text fill="#000000" font-family="sans-serif" font-size="7.8" lengthAdjust="spacing" textLength="27" x="487.8" y="583.0641">agenda</text><polygon fill="#181818" points="706.8,601.0957,712.8,603.4957,706.8,605.8957,709.2,603.4957" style="stroke:#181818;stroke-width:0.6;"/><line style="stroke:#181818;stroke-width:0.6;" x1="464.4" x2="710.4" y1="603.4957" y2="603.4957"/><text fill="#000000" font-family="sans-serif" font-size="7.8" font-weight="bold" lengthAdjust="spacing" textLength="10.8" x="468.6" y="600.6504">28</text><text fill="#000000" font-family="sans-serif" font-size="7.8" lengthAdjust="spacing" textLength="105.6" x="481.8" y="600.6504">getEntryByIndex(entryIndex)</text><polygon fill="#181818" points="471,618.682,465,621.082,471,623.482,468.6,621.082" style="stroke:#181818;stroke-width:0.6;"/><line style="stroke:#181818;stroke-width:0.6;stroke-dasharray:2.0,2.0;" x1="467.4" x2="716.4" y1="621.082" y2="621.082"/><text fill="#000000" font-family="sans-serif" font-size="7.8" font-weight="bold" lengthAdjust="spacing" textLength="10.8" x="474.6" y="618.2367">29</text><text fill="#000000" font-family="sans-serif" font-size="7.8" lengthAdjust="spacing" textLength="19.2" x="487.8" y="618.2367">entry</text><line style="stroke:#181818;stroke-width:0.6;stroke-dasharray:2.0,2.0;" x1="464.4" x2="489.6" y1="641.6684" y2="641.6684"/><line style="stroke:#181818;stroke-width:0.6;stroke-dasharray:2.0,2.0;" x1="489.6" x2="489.6" y1="641.6684" y2="649.4684"/><line style="stroke:#181818;stroke-width:0.6;stroke-dasharray:2.0,2.0;" x1="461.4" x2="489.6" y1="649.4684" y2="649.4684"/><polygon fill="#181818" points="467.4,647.0684,461.4,649.4684,467.4,651.8684,465,649.4684" style="stroke:#181818;stroke-width:0.6;"/><text fill="#000000" font-family="sans-serif" font-size="7.8" font-weight="bold" lengthAdjust="spacing" textLength="10.8" x="468.6" y="638.823">30</text><text fill="#000000" font-family="sans-serif" font-size="7.8" lengthAdjust="spacing" textLength="19.2" x="481.8" y="638.823">entry</text><line style="stroke:#181818;stroke-width:0.6;" x1="461.4" x2="489.6" y1="661.0547" y2="661.0547"/><line style="stroke:#181818;stroke-width:0.6;" x1="489.6" x2="489.6" y1="661.0547" y2="668.8547"/><line style="stroke:#181818;stroke-width:0.6;" x1="465" x2="489.6" y1="668.8547" y2="668.8547"/><polygon fill="#181818" points="471,666.4547,465,668.8547,471,671.2547,468.6,668.8547" style="stroke:#181818;stroke-width:0.6;"/><text fill="#000000" font-family="sans-serif" font-size="7.8" font-weight="bold" lengthAdjust="spacing" textLength="10.8" x="468.6" y="658.2094">31</text><text fill="#000000" font-family="sans-serif" font-size="7.8" lengthAdjust="spacing" textLength="81" x="481.8" y="658.2094">getGSMFromSession()</text><polygon fill="#181818" points="581.4,687.041,587.4,689.441,581.4,691.841,583.8,689.441" style="stroke:#181818;stroke-width:0.6;"/><line style="stroke:#181818;stroke-width:0.6;" x1="464.4" x2="585" y1="689.441" y2="689.441"/><text fill="#000000" font-family="sans-serif" font-size="7.8" font-weight="bold" lengthAdjust="spacing" textLength="10.8" x="468.6" y="686.5957">32</text><text fill="#000000" font-family="sans-serif" font-size="7.8" lengthAdjust="spacing" textLength="48.6" x="481.8" y="686.5957">getInstance()</text><polygon fill="#181818" points="471,704.6273,465,707.0273,471,709.4273,468.6,707.0273" style="stroke:#181818;stroke-width:0.6;"/><line style="stroke:#181818;stroke-width:0.6;stroke-dasharray:2.0,2.0;" x1="467.4" x2="591" y1="707.0273" y2="707.0273"/><text fill="#000000" font-family="sans-serif" font-size="7.8" font-weight="bold" lengthAdjust="spacing" textLength="10.8" x="474.6" y="704.182">33</text><text fill="#000000" font-family="sans-serif" font-size="7.8" lengthAdjust="spacing" textLength="45" x="487.8" y="704.182">repositories</text><polygon fill="#181818" points="649.2,722.2137,655.2,724.6137,649.2,727.0137,651.6,724.6137" style="stroke:#181818;stroke-width:0.6;"/><line style="stroke:#181818;stroke-width:0.6;" x1="464.4" x2="652.8" y1="724.6137" y2="724.6137"/><text fill="#000000" font-family="sans-serif" font-size="7.8" font-weight="bold" lengthAdjust="spacing" textLength="10.8" x="468.6" y="721.7684">34</text><text fill="#000000" font-family="sans-serif" font-size="7.8" lengthAdjust="spacing" textLength="112.8" x="481.8" y="721.7684">getAuthenticationRepository()</text><polygon fill="#181818" points="471,739.8,465,742.2,471,744.6,468.6,742.2" style="stroke:#181818;stroke-width:0.6;"/><line style="stroke:#181818;stroke-width:0.6;stroke-dasharray:2.0,2.0;" x1="467.4" x2="658.8" y1="742.2" y2="742.2"/><text fill="#000000" font-family="sans-serif" font-size="7.8" font-weight="bold" lengthAdjust="spacing" textLength="10.8" x="474.6" y="739.3547">35</text><text fill="#000000" font-family="sans-serif" font-size="7.8" lengthAdjust="spacing" textLength="94.8" x="487.8" y="739.3547">authenticationRepository</text><polygon fill="#181818" points="1030.5,757.3863,1036.5,759.7863,1030.5,762.1863,1032.9,759.7863" style="stroke:#181818;stroke-width:0.6;"/><line style="stroke:#181818;stroke-width:0.6;" x1="464.4" x2="1034.1" y1="759.7863" y2="759.7863"/><text fill="#000000" font-family="sans-serif" font-size="7.8" font-weight="bold" lengthAdjust="spacing" textLength="10.8" x="468.6" y="756.941">36</text><text fill="#000000" font-family="sans-serif" font-size="7.8" lengthAdjust="spacing" textLength="90.6" x="481.8" y="756.941">getCurrentUserSession()</text><polygon fill="#181818" points="471,774.9727,465,777.3727,471,779.7727,468.6,777.3727" style="stroke:#181818;stroke-width:0.6;"/><line style="stroke:#181818;stroke-width:0.6;stroke-dasharray:2.0,2.0;" x1="467.4" x2="1040.1" y1="777.3727" y2="777.3727"/><text fill="#000000" font-family="sans-serif" font-size="7.8" font-weight="bold" lengthAdjust="spacing" textLength="10.8" x="474.6" y="774.5273">37</text><text fill="#000000" font-family="sans-serif" font-size="7.8" lengthAdjust="spacing" textLength="80.4" x="487.8" y="774.5273">authenticationFacade</text><polygon fill="#181818" points="1143,792.559,1149,794.959,1143,797.359,1145.4,794.959" style="stroke:#181818;stroke-width:0.6;"/><line style="stroke:#181818;stroke-width:0.6;" x1="464.4" x2="1146.6" y1="794.959" y2="794.959"/><text fill="#000000" font-family="sans-serif" font-size="7.8" font-weight="bold" lengthAdjust="spacing" textLength="10.8" x="468.6" y="792.1137">38</text><text fill="#000000" font-family="sans-serif" font-size="7.8" lengthAdjust="spacing" textLength="90.6" x="481.8" y="792.1137">getCurrentUserSession()</text><polygon fill="#181818" points="471,810.1453,465,812.5453,471,814.9453,468.6,812.5453" style="stroke:#181818;stroke-width:0.6;"/><line style="stroke:#181818;stroke-width:0.6;stroke-dasharray:2.0,2.0;" x1="467.4" x2="1152.6" y1="812.5453" y2="812.5453"/><text fill="#000000" font-family="sans-serif" font-size="7.8" font-weight="bold" lengthAdjust="spacing" textLength="10.8" x="474.6" y="809.7">39</text><text fill="#000000" font-family="sans-serif" font-size="7.8" lengthAdjust="spacing" textLength="45" x="487.8" y="809.7">userSession</text><polygon fill="#181818" points="1227.6,827.7316,1233.6,830.1316,1227.6,832.5316,1230,830.1316" style="stroke:#181818;stroke-width:0.6;"/><line style="stroke:#181818;stroke-width:0.6;" x1="464.4" x2="1231.2" y1="830.1316" y2="830.1316"/><text fill="#000000" font-family="sans-serif" font-size="7.8" font-weight="bold" lengthAdjust="spacing" textLength="10.8" x="468.6" y="827.2863">40</text><text fill="#000000" font-family="sans-serif" font-size="7.8" lengthAdjust="spacing" textLength="40.8" x="481.8" y="827.2863">getUserId()</text><polygon fill="#181818" points="471,845.318,465,847.718,471,850.118,468.6,847.718" style="stroke:#181818;stroke-width:0.6;"/><line style="stroke:#181818;stroke-width:0.6;stroke-dasharray:2.0,2.0;" x1="467.4" x2="1237.2" y1="847.718" y2="847.718"/><text fill="#000000" font-family="sans-serif" font-size="7.8" font-weight="bold" lengthAdjust="spacing" textLength="10.8" x="474.6" y="844.8727">41</text><text fill="#000000" font-family="sans-serif" font-size="7.8" lengthAdjust="spacing" textLength="20.4" x="487.8" y="844.8727">email</text><line style="stroke:#181818;stroke-width:0.6;stroke-dasharray:2.0,2.0;" x1="464.4" x2="489.6" y1="868.3043" y2="868.3043"/><line style="stroke:#181818;stroke-width:0.6;stroke-dasharray:2.0,2.0;" x1="489.6" x2="489.6" y1="868.3043" y2="876.1043"/><line style="stroke:#181818;stroke-width:0.6;stroke-dasharray:2.0,2.0;" x1="461.4" x2="489.6" y1="876.1043" y2="876.1043"/><polygon fill="#181818" points="467.4,873.7043,461.4,876.1043,467.4,878.5043,465,876.1043" style="stroke:#181818;stroke-width:0.6;"/><text fill="#000000" font-family="sans-serif" font-size="7.8" font-weight="bold" lengthAdjust="spacing" textLength="10.8" x="468.6" y="865.459">42</text><text fill="#000000" font-family="sans-serif" font-size="7.8" lengthAdjust="spacing" textLength="20.4" x="481.8" y="865.459">email</text><polygon fill="#181818" points="706.8,888.2906,712.8,890.6906,706.8,893.0906,709.2,890.6906" style="stroke:#181818;stroke-width:0.6;"/><line style="stroke:#181818;stroke-width:0.6;" x1="461.4" x2="710.4" y1="890.6906" y2="890.6906"/><text fill="#000000" font-family="sans-serif" font-size="7.8" font-weight="bold" lengthAdjust="spacing" textLength="10.8" x="465.6" y="887.8453">43</text><text fill="#000000" font-family="sans-serif" font-size="7.8" lengthAdjust="spacing" textLength="170.4" x="478.8" y="887.8453">postponeEntry(entry, newStartingDate, email)</text><polygon fill="#181818" points="1333.2,905.877,1339.2,908.277,1333.2,910.677,1335.6,908.277" style="stroke:#181818;stroke-width:0.6;"/><line style="stroke:#181818;stroke-width:0.6;" x1="720" x2="1336.8" y1="908.277" y2="908.277"/><text fill="#000000" font-family="sans-serif" font-size="7.8" font-weight="bold" lengthAdjust="spacing" textLength="10.8" x="724.2" y="905.4316">44</text><text fill="#000000" font-family="sans-serif" font-size="7.8" lengthAdjust="spacing" textLength="124.8" x="737.4" y="905.4316">setStartingDate(newStartingDate)</text><polygon fill="#181818" points="1333.2,923.4633,1339.2,925.8633,1333.2,928.2633,1335.6,925.8633" style="stroke:#181818;stroke-width:0.6;"/><line style="stroke:#181818;stroke-width:0.6;" x1="717" x2="1336.8" y1="925.8633" y2="925.8633"/><text fill="#000000" font-family="sans-serif" font-size="7.8" font-weight="bold" lengthAdjust="spacing" textLength="10.8" x="721.2" y="923.018">45</text><text fill="#000000" font-family="sans-serif" font-size="7.8" lengthAdjust="spacing" textLength="100.8" x="734.4" y="923.018">changeStatus(POSTPONED)</text><polygon fill="#181818" points="271.2,941.0496,265.2,943.4496,271.2,945.8496,268.8,943.4496" style="stroke:#181818;stroke-width:0.6;"/><line style="stroke:#181818;stroke-width:0.6;stroke-dasharray:2.0,2.0;" x1="267.6" x2="457.8" y1="943.4496" y2="943.4496"/><text fill="#000000" font-family="sans-serif" font-size="7.8" font-weight="bold" lengthAdjust="spacing" textLength="10.8" x="274.8" y="940.6043">46</text><text fill="#000000" font-family="sans-serif" font-size="7.8" lengthAdjust="spacing" textLength="19.2" x="288" y="940.6043">entry</text><polygon fill="#181818" points="39,958.6359,33,961.0359,39,963.4359,36.6,961.0359" style="stroke:#181818;stroke-width:0.6;"/><line style="stroke:#181818;stroke-width:0.6;stroke-dasharray:2.0,2.0;" x1="35.4" x2="261" y1="961.0359" y2="961.0359"/><text fill="#000000" font-family="sans-serif" font-size="7.8" font-weight="bold" lengthAdjust="spacing" textLength="10.8" x="42.6" y="958.1906">47</text><text fill="#000000" font-family="sans-serif" font-size="7.8" lengthAdjust="spacing" textLength="138.6" x="55.8" y="958.1906">displays operation success or failure</text><!--SRC=[rLZBRjiw4DthAuXiQXTjFy0e0hYn4nXe4iDo5WMoOQM9BKGcLPAwgV_-3X-II5cqbQvQRIAHCsVEqCCpPEHhmIegw84SEEFPNl0342LgI6GxKz7ibUuWLSSIY81CKROhVGEvfpb_AzYElD1IGfBGMd5M7tw2I98F-o87yiAv-ib_9pHJN92hEm70I8h889_PFMM8Bwu8bUGklKyGLHLPKL6coDLipQMgE8CbK-8utm7BwTFAs3wjBflUS7pdPUdWRxQRxpsd3LHS5aYh06biDijrQ28yYsSsw9267jJ4dZqpIy9OpU-M3ujvBxXXUa-hol43yprVhvURqD9CB1J7-4ltsZaijey3rjyBgQo7VllQ85ntViQYxui_tXvdYuogWhCssQFE9Z9b44E_SvYtDACvE3pxqIBOpz2xbY3G-Wd_f20b8XXpFHn96wsNpNkOxe13OsmCbm_RpO_GQAUBrTQggrJqy2kO-0NybE9Ff-ky-8ygCFMS47pmXNo-nfebCpANhv8eJYfNhuGoov0KZE1A4Lisngz5mcet0_f15CJInVpn8-9b0j1YQ1edTw1qUbYi-5DFfgrH2spsH3ki7-E925ZO5c359Exw33pt049lcM16Utvs76R4tq21MGvn28z4QbdOLJd38JqXaNeiQBUem_7JOG9su_eBgGifHiDjys3IZhLKC1leW6A4Xe0QIfvCpB2Gy8Srb3pK23jVNm8B_NYJRH0d4LwPOU8ddYNd5Rb5PKVw-wwK_In7HSD8TcsEMvsKIUWuFN4Dqz4ADeoECsRHW-LgTF34nLlx2xZ3QuGLbkUJ1luIwqPx1oBaaR3EPJWbjyvZ4XiC7IGsMAXzw3vilwniiJQQ5m7oG3eTqlg5VbeoPoJTypT9IlGZ_AM1INg-ZJZwAYkXnCEAxCJLKznXQGtY2lXLWqJ_d2fA9iKN-FA9C7ZJtp0TGq0TAsmE3WTo1zJiZXn-MpoKLkmsU7hgW2-8_gpDmpGk2xbg4LC7k6ZnHkgznNOwT_nc8JtqYAYSRI1_HV_uYzh7-6KTqKcSchs_XOpp7r4fME-tU6bmvxB9FruXaVFjdzTC1F3zLHGY6ROtjH0uv1sBOpnxH_FGA9YBSdVdyWZlSm7y3Dp9__tiNVWJvdRSOrrtUEV83k4rHCrrGrFKt5PvZ9QvVWHJUiJVMWTQb34IfzxzZNdEExwV6hKPQ10dlU6J3J8bu_N7rw1hUraodLRvk9De3uf3P7lAzFyOgAhbPFsORjUF3yl5TAooUMUDlgPTE67CI5x8ggH7IJZUmkqka7M6zpeS4UG5LwWMCDJllKzzpViV]--></g></svg>