<?xml version="1.0" encoding="us-ascii" standalone="no"?><svg xmlns="http://www.w3.org/2000/svg" xmlns:xlink="http://www.w3.org/1999/xlink" contentStyleType="text/css" height="222.6px" preserveAspectRatio="none" style="width:489px;height:222px;background:#FFFFFF;" version="1.1" viewBox="0 0 489 222" width="489.3px" zoomAndPan="magnify"><defs/><g><!--class Agenda--><g id="elem_Agenda"><rect codeLine="7" fill="#F1F1F1" height="72.7043" id="Agenda" rx="1.75" ry="1.75" style="stroke:#181818;stroke-width:0.3499999999999999;" width="172.9" x="4.9" y="11.2"/><ellipse cx="71.225" cy="22.4" fill="#ADD1B2" rx="7.7" ry="7.7" style="stroke:#181818;stroke-width:0.6999999999999998;"/><path d="M73.1609,19.5125 Q73.2703,19.3594 73.4016,19.2828 Q73.5328,19.2062 73.6859,19.2062 Q73.9484,19.2062 74.1125,19.3922 Q74.2766,19.5672 74.2766,19.9937 L74.2766,21.0109 Q74.2766,21.4375 74.1125,21.6234 Q73.9484,21.8094 73.6859,21.8094 Q73.4453,21.8094 73.3031,21.6672 Q73.1609,21.5359 73.0844,21.175 Q73.0516,20.9234 72.9203,20.7922 Q72.6906,20.5297 72.2641,20.3766 Q71.8375,20.2234 71.4,20.2234 Q70.8641,20.2234 70.4156,20.4531 Q69.9781,20.6828 69.6281,21.2078 Q69.2891,21.7328 69.2891,22.4547 L69.2891,23.2203 Q69.2891,24.0844 69.9125,24.6641 Q70.5359,25.2328 71.6516,25.2328 Q72.3078,25.2328 72.7672,25.0578 Q73.0406,24.9484 73.3359,24.6422 Q73.5219,24.4562 73.6203,24.4016 Q73.7297,24.3469 73.8719,24.3469 Q74.1016,24.3469 74.2766,24.5328 Q74.4625,24.7078 74.4625,24.9484 Q74.4625,25.1891 74.2219,25.4734 Q73.8719,25.8781 73.3141,26.1078 Q72.5594,26.425 71.6516,26.425 Q70.5906,26.425 69.7484,25.9875 Q69.0594,25.6375 68.5781,24.8937 Q68.0969,24.1391 68.0969,23.2422 L68.0969,22.4328 Q68.0969,21.5031 68.5234,20.7047 Q68.9609,19.8953 69.7266,19.4687 Q70.4922,19.0312 71.3562,19.0312 Q71.8703,19.0312 72.3187,19.1516 Q72.7781,19.2609 73.1609,19.5125 Z " fill="#000000"/><text fill="#000000" font-family="sans-serif" font-size="9.8" lengthAdjust="spacing" textLength="34.3" x="85.575" y="26.4578">Agenda</text><line style="stroke:#181818;stroke-width:0.3499999999999999;" x1="5.6" x2="177.1" y1="33.6" y2="33.6"/><line style="stroke:#181818;stroke-width:0.3499999999999999;" x1="5.6" x2="177.1" y1="39.2" y2="39.2"/><text fill="#000000" font-family="sans-serif" font-size="9.8" lengthAdjust="spacing" textLength="72.8" x="9.1" y="52.5752">-addEntry(entry)</text><text fill="#000000" font-family="sans-serif" font-size="9.8" lengthAdjust="spacing" textLength="90.3" x="9.1" y="65.61">-validateEntry(entry)</text><text fill="#000000" font-family="sans-serif" font-size="9.8" lengthAdjust="spacing" textLength="164.5" x="9.1" y="78.6447">+addEntryAgenda(startingDate, task)</text></g><!--class Entry--><g id="elem_Entry"><rect codeLine="13" fill="#F1F1F1" height="59.6695" id="Entry" rx="1.75" ry="1.75" style="stroke:#181818;stroke-width:0.3499999999999999;" width="121.8" x="202.65" y="17.85"/><ellipse cx="249.025" cy="29.05" fill="#ADD1B2" rx="7.7" ry="7.7" style="stroke:#181818;stroke-width:0.6999999999999998;"/><path d="M250.9609,26.1625 Q251.0703,26.0094 251.2016,25.9328 Q251.3328,25.8562 251.4859,25.8562 Q251.7484,25.8562 251.9125,26.0422 Q252.0766,26.2172 252.0766,26.6437 L252.0766,27.6609 Q252.0766,28.0875 251.9125,28.2734 Q251.7484,28.4594 251.4859,28.4594 Q251.2453,28.4594 251.1031,28.3172 Q250.9609,28.1859 250.8844,27.825 Q250.8516,27.5734 250.7203,27.4422 Q250.4906,27.1797 250.0641,27.0266 Q249.6375,26.8734 249.2,26.8734 Q248.6641,26.8734 248.2156,27.1031 Q247.7781,27.3328 247.4281,27.8578 Q247.0891,28.3828 247.0891,29.1047 L247.0891,29.8703 Q247.0891,30.7344 247.7125,31.3141 Q248.3359,31.8828 249.4516,31.8828 Q250.1078,31.8828 250.5672,31.7078 Q250.8406,31.5984 251.1359,31.2922 Q251.3219,31.1062 251.4203,31.0516 Q251.5297,30.9969 251.6719,30.9969 Q251.9016,30.9969 252.0766,31.1828 Q252.2625,31.3578 252.2625,31.5984 Q252.2625,31.8391 252.0219,32.1234 Q251.6719,32.5281 251.1141,32.7578 Q250.3594,33.075 249.4516,33.075 Q248.3906,33.075 247.5484,32.6375 Q246.8594,32.2875 246.3781,31.5437 Q245.8969,30.7891 245.8969,29.8922 L245.8969,29.0828 Q245.8969,28.1531 246.3234,27.3547 Q246.7609,26.5453 247.5266,26.1187 Q248.2922,25.6812 249.1562,25.6812 Q249.6703,25.6812 250.1187,25.8016 Q250.5781,25.9109 250.9609,26.1625 Z " fill="#000000"/><text fill="#000000" font-family="sans-serif" font-size="9.8" lengthAdjust="spacing" textLength="23.1" x="263.375" y="33.1078">Entry</text><line style="stroke:#181818;stroke-width:0.3499999999999999;" x1="203.35" x2="323.75" y1="40.25" y2="40.25"/><text fill="#000000" font-family="sans-serif" font-size="9.8" lengthAdjust="spacing" textLength="81.2" x="206.85" y="53.6252">-Date startingDate</text><line style="stroke:#181818;stroke-width:0.3499999999999999;" x1="203.35" x2="323.75" y1="58.8848" y2="58.8848"/><text fill="#000000" font-family="sans-serif" font-size="9.8" lengthAdjust="spacing" textLength="113.4" x="206.85" y="72.26">+Entry(startingDate, task)</text></g><!--class Repositories--><g id="elem_Repositories"><rect codeLine="19" fill="#F1F1F1" height="85.7391" id="Repositories" rx="1.75" ry="1.75" style="stroke:#181818;stroke-width:0.3499999999999999;" width="135.8" x="348.95" y="4.9"/><ellipse cx="386.225" cy="16.1" fill="#ADD1B2" rx="7.7" ry="7.7" style="stroke:#181818;stroke-width:0.6999999999999998;"/><path d="M388.1609,13.2125 Q388.2703,13.0594 388.4016,12.9828 Q388.5328,12.9062 388.6859,12.9062 Q388.9484,12.9062 389.1125,13.0922 Q389.2766,13.2672 389.2766,13.6937 L389.2766,14.7109 Q389.2766,15.1375 389.1125,15.3234 Q388.9484,15.5094 388.6859,15.5094 Q388.4453,15.5094 388.3031,15.3672 Q388.1609,15.2359 388.0844,14.875 Q388.0516,14.6234 387.9203,14.4922 Q387.6906,14.2297 387.2641,14.0766 Q386.8375,13.9234 386.4,13.9234 Q385.8641,13.9234 385.4156,14.1531 Q384.9781,14.3828 384.6281,14.9078 Q384.2891,15.4328 384.2891,16.1547 L384.2891,16.9203 Q384.2891,17.7844 384.9125,18.3641 Q385.5359,18.9328 386.6516,18.9328 Q387.3078,18.9328 387.7672,18.7578 Q388.0406,18.6484 388.3359,18.3422 Q388.5219,18.1562 388.6203,18.1016 Q388.7297,18.0469 388.8719,18.0469 Q389.1016,18.0469 389.2766,18.2328 Q389.4625,18.4078 389.4625,18.6484 Q389.4625,18.8891 389.2219,19.1734 Q388.8719,19.5781 388.3141,19.8078 Q387.5594,20.125 386.6516,20.125 Q385.5906,20.125 384.7484,19.6875 Q384.0594,19.3375 383.5781,18.5937 Q383.0969,17.8391 383.0969,16.9422 L383.0969,16.1328 Q383.0969,15.2031 383.5234,14.4047 Q383.9609,13.5953 384.7266,13.1687 Q385.4922,12.7312 386.3562,12.7312 Q386.8703,12.7312 387.3187,12.8516 Q387.7781,12.9609 388.1609,13.2125 Z " fill="#000000"/><text fill="#000000" font-family="sans-serif" font-size="9.8" lengthAdjust="spacing" textLength="55.3" x="400.575" y="20.1578">Repositories</text><line style="stroke:#181818;stroke-width:0.3499999999999999;" x1="349.65" x2="484.05" y1="27.3" y2="27.3"/><line style="stroke:#181818;stroke-width:0.3499999999999999;" x1="349.65" x2="484.05" y1="32.9" y2="32.9"/><text fill="#000000" font-family="sans-serif" font-size="9.8" lengthAdjust="spacing" textLength="65.8" x="353.15" y="46.2752">-Repositories()</text><text fill="#000000" font-family="sans-serif" font-size="9.8" lengthAdjust="spacing" textLength="127.4" x="353.15" y="59.31">+getInstance() : Repositories</text><text fill="#000000" font-family="sans-serif" font-size="9.8" lengthAdjust="spacing" textLength="60.9" x="353.15" y="72.3447">+getAgenda()</text><text fill="#000000" font-family="sans-serif" font-size="9.8" lengthAdjust="spacing" textLength="66.5" x="353.15" y="85.3795">+getToDoList()</text></g><!--class AgendaStatus--><g id="elem_AgendaStatus"><rect codeLine="26" fill="#F1F1F1" height="85.7391" id="AgendaStatus" rx="1.75" ry="1.75" style="stroke:#181818;stroke-width:0.3499999999999999;" width="84.7" x="49" y="132.3"/><ellipse cx="59.5" cy="143.5" fill="#EB937F" rx="7.7" ry="7.7" style="stroke:#181818;stroke-width:0.6999999999999998;"/><path d="M58.7016,144.0578 L58.7016,145.8078 L61.7312,145.8078 L61.7312,145.1625 Q61.7312,144.7359 61.8953,144.55 Q62.0703,144.3641 62.3328,144.3641 Q62.5953,144.3641 62.7594,144.55 Q62.9234,144.7359 62.9234,145.1625 L62.9234,147 L57.3234,147 Q56.8859,147 56.7,146.8359 Q56.525,146.6719 56.525,146.3984 Q56.525,146.1359 56.7109,145.9719 Q56.8969,145.8078 57.3234,145.8078 L57.5094,145.8078 L57.5094,141.1484 L57.3234,141.1484 Q56.8859,141.1484 56.7,140.9844 Q56.525,140.8203 56.525,140.5469 Q56.525,140.2844 56.7,140.1203 Q56.8859,139.9562 57.3234,139.9562 L62.6609,139.9562 L62.6609,141.7719 Q62.6609,142.1984 62.4969,142.3844 Q62.3437,142.5594 62.0703,142.5594 Q61.8078,142.5594 61.6437,142.3844 Q61.4797,142.1984 61.4797,141.7719 L61.4797,141.1484 L58.7016,141.1484 L58.7016,142.8656 L59.7406,142.8656 Q59.7406,142.4062 59.8281,142.275 Q60.0141,141.9906 60.3422,141.9906 Q60.6047,141.9906 60.7687,142.1766 Q60.9328,142.3516 60.9328,142.7781 L60.9328,144.1562 Q60.9328,144.5391 60.8453,144.6703 Q60.6594,144.9437 60.3422,144.9437 Q60.0141,144.9437 59.8281,144.6594 Q59.7406,144.5281 59.7406,144.0578 L58.7016,144.0578 Z " fill="#000000"/><text fill="#000000" font-family="sans-serif" font-size="9.8" lengthAdjust="spacing" textLength="62.3" x="69.3" y="147.5578">AgendaStatus</text><line style="stroke:#181818;stroke-width:0.3499999999999999;" x1="49.7" x2="133" y1="154.7" y2="154.7"/><text fill="#000000" font-family="sans-serif" font-size="9.8" lengthAdjust="spacing" textLength="44.1" x="53.2" y="168.0752">PLANNED</text><text fill="#000000" font-family="sans-serif" font-size="9.8" lengthAdjust="spacing" textLength="60.2" x="53.2" y="181.11">POSTPONED</text><text fill="#000000" font-family="sans-serif" font-size="9.8" lengthAdjust="spacing" textLength="51.8" x="53.2" y="194.1447">CANCELED</text><text fill="#000000" font-family="sans-serif" font-size="9.8" lengthAdjust="spacing" textLength="27.3" x="53.2" y="207.1795">DONE</text><line style="stroke:#181818;stroke-width:0.3499999999999999;" x1="49.7" x2="133" y1="212.4391" y2="212.4391"/></g><!--class PostponeEntryController--><g id="elem_PostponeEntryController"><rect codeLine="33" fill="#F1F1F1" height="33.6" id="PostponeEntryController" rx="1.75" ry="1.75" style="stroke:#181818;stroke-width:0.3499999999999999;" width="130.9" x="158.2" y="158.2"/><ellipse cx="168.7" cy="169.4" fill="#ADD1B2" rx="7.7" ry="7.7" style="stroke:#181818;stroke-width:0.6999999999999998;"/><path d="M170.6359,166.5125 Q170.7453,166.3594 170.8766,166.2828 Q171.0078,166.2062 171.1609,166.2062 Q171.4234,166.2062 171.5875,166.3922 Q171.7516,166.5672 171.7516,166.9937 L171.7516,168.0109 Q171.7516,168.4375 171.5875,168.6234 Q171.4234,168.8094 171.1609,168.8094 Q170.9203,168.8094 170.7781,168.6672 Q170.6359,168.5359 170.5594,168.175 Q170.5266,167.9234 170.3953,167.7922 Q170.1656,167.5297 169.7391,167.3766 Q169.3125,167.2234 168.875,167.2234 Q168.3391,167.2234 167.8906,167.4531 Q167.4531,167.6828 167.1031,168.2078 Q166.7641,168.7328 166.7641,169.4547 L166.7641,170.2203 Q166.7641,171.0844 167.3875,171.6641 Q168.0109,172.2328 169.1266,172.2328 Q169.7828,172.2328 170.2422,172.0578 Q170.5156,171.9484 170.8109,171.6422 Q170.9969,171.4562 171.0953,171.4016 Q171.2047,171.3469 171.3469,171.3469 Q171.5766,171.3469 171.7516,171.5328 Q171.9375,171.7078 171.9375,171.9484 Q171.9375,172.1891 171.6969,172.4734 Q171.3469,172.8781 170.7891,173.1078 Q170.0344,173.425 169.1266,173.425 Q168.0656,173.425 167.2234,172.9875 Q166.5344,172.6375 166.0531,171.8937 Q165.5719,171.1391 165.5719,170.2422 L165.5719,169.4328 Q165.5719,168.5031 165.9984,167.7047 Q166.4359,166.8953 167.2016,166.4687 Q167.9672,166.0312 168.8312,166.0312 Q169.3453,166.0312 169.7937,166.1516 Q170.2531,166.2609 170.6359,166.5125 Z " fill="#000000"/><text fill="#000000" font-family="sans-serif" font-size="9.8" lengthAdjust="spacing" textLength="108.5" x="178.5" y="173.4578">PostponeEntryController</text><line style="stroke:#181818;stroke-width:0.3499999999999999;" x1="158.9" x2="288.4" y1="180.6" y2="180.6"/><line style="stroke:#181818;stroke-width:0.3499999999999999;" x1="158.9" x2="288.4" y1="186.2" y2="186.2"/></g><!--class PostponeEntryUI--><g id="elem_PostponeEntryUI"><rect codeLine="37" fill="#F1F1F1" height="33.6" id="PostponeEntryUI" rx="1.75" ry="1.75" style="stroke:#181818;stroke-width:0.3499999999999999;" width="95.9" x="313.6" y="158.2"/><ellipse cx="324.1" cy="169.4" fill="#ADD1B2" rx="7.7" ry="7.7" style="stroke:#181818;stroke-width:0.6999999999999998;"/><path d="M326.0359,166.5125 Q326.1453,166.3594 326.2766,166.2828 Q326.4078,166.2062 326.5609,166.2062 Q326.8234,166.2062 326.9875,166.3922 Q327.1516,166.5672 327.1516,166.9937 L327.1516,168.0109 Q327.1516,168.4375 326.9875,168.6234 Q326.8234,168.8094 326.5609,168.8094 Q326.3203,168.8094 326.1781,168.6672 Q326.0359,168.5359 325.9594,168.175 Q325.9266,167.9234 325.7953,167.7922 Q325.5656,167.5297 325.1391,167.3766 Q324.7125,167.2234 324.275,167.2234 Q323.7391,167.2234 323.2906,167.4531 Q322.8531,167.6828 322.5031,168.2078 Q322.1641,168.7328 322.1641,169.4547 L322.1641,170.2203 Q322.1641,171.0844 322.7875,171.6641 Q323.4109,172.2328 324.5266,172.2328 Q325.1828,172.2328 325.6422,172.0578 Q325.9156,171.9484 326.2109,171.6422 Q326.3969,171.4562 326.4953,171.4016 Q326.6047,171.3469 326.7469,171.3469 Q326.9766,171.3469 327.1516,171.5328 Q327.3375,171.7078 327.3375,171.9484 Q327.3375,172.1891 327.0969,172.4734 Q326.7469,172.8781 326.1891,173.1078 Q325.4344,173.425 324.5266,173.425 Q323.4656,173.425 322.6234,172.9875 Q321.9344,172.6375 321.4531,171.8937 Q320.9719,171.1391 320.9719,170.2422 L320.9719,169.4328 Q320.9719,168.5031 321.3984,167.7047 Q321.8359,166.8953 322.6016,166.4687 Q323.3672,166.0312 324.2312,166.0312 Q324.7453,166.0312 325.1937,166.1516 Q325.6531,166.2609 326.0359,166.5125 Z " fill="#000000"/><text fill="#000000" font-family="sans-serif" font-size="9.8" lengthAdjust="spacing" textLength="73.5" x="333.9" y="173.4578">PostponeEntryUI</text><line style="stroke:#181818;stroke-width:0.3499999999999999;" x1="314.3" x2="408.8" y1="180.6" y2="180.6"/><line style="stroke:#181818;stroke-width:0.3499999999999999;" x1="314.3" x2="408.8" y1="186.2" y2="186.2"/></g><!--SRC=[TP1DReCm48NtFeMNeBPIrjqXO86422hf0QOmfHQERTb3AnhrxZK_ReYgU65vvdr-RpHk4Cg0XJCtq0xGOqEJH6wn9L2zHER-0FS1dVuIgkVl8DrUaK8XJGQvqNAQ2xOJMmdE9KHMl8s4HQjL8xwH7nXR59xqg3hW5yRzUOAkonNPASBvZjVc9qZH0U4_vI7Wgqda22pv2JCFFt82DyJi9mGjOCYP2Rx7LxyruOxDvlE2HZj1sWfqmUwc6Mt3yHwfKDvCjHZ5_Fa6kYBRxBjF9vtfKZYAbbXKutdRKaD0OmYjowIgycnz7vjJVGnLcbHfNcv5vjlN9TJQaT5gNMMg_QsbH7jXTv3NOf5-0G00]--></g></svg>