<?xml version="1.0" encoding="us-ascii" standalone="no"?><svg xmlns="http://www.w3.org/2000/svg" xmlns:xlink="http://www.w3.org/1999/xlink" contentStyleType="text/css" height="885px" preserveAspectRatio="none" style="width:486px;height:885px;background:#FFFFFF;" version="1.1" viewBox="0 0 486 885" width="486px" zoomAndPan="magnify"><defs/><g><!--class Agenda--><g id="elem_Agenda"><rect codeLine="7" fill="#F1F1F1" height="103.8633" id="Agenda" rx="2.5" ry="2.5" style="stroke:#181818;stroke-width:0.5;" width="247" x="7" y="445"/><ellipse cx="101.75" cy="461" fill="#ADD1B2" rx="11" ry="11" style="stroke:#181818;stroke-width:1.0;"/><path d="M104.5156,456.875 Q104.6719,456.6563 104.8594,456.5469 Q105.0469,456.4375 105.2656,456.4375 Q105.6406,456.4375 105.875,456.7031 Q106.1094,456.9531 106.1094,457.5625 L106.1094,459.0156 Q106.1094,459.625 105.875,459.8906 Q105.6406,460.1563 105.2656,460.1563 Q104.9219,460.1563 104.7188,459.9531 Q104.5156,459.7656 104.4063,459.25 Q104.3594,458.8906 104.1719,458.7031 Q103.8438,458.3281 103.2344,458.1094 Q102.625,457.8906 102,457.8906 Q101.2344,457.8906 100.5938,458.2188 Q99.9688,458.5469 99.4688,459.2969 Q98.9844,460.0469 98.9844,461.0781 L98.9844,462.1719 Q98.9844,463.4063 99.875,464.2344 Q100.7656,465.0469 102.3594,465.0469 Q103.2969,465.0469 103.9531,464.7969 Q104.3438,464.6406 104.7656,464.2031 Q105.0313,463.9375 105.1719,463.8594 Q105.3281,463.7813 105.5313,463.7813 Q105.8594,463.7813 106.1094,464.0469 Q106.375,464.2969 106.375,464.6406 Q106.375,464.9844 106.0313,465.3906 Q105.5313,465.9688 104.7344,466.2969 Q103.6563,466.75 102.3594,466.75 Q100.8438,466.75 99.6406,466.125 Q98.6563,465.625 97.9688,464.5625 Q97.2813,463.4844 97.2813,462.2031 L97.2813,461.0469 Q97.2813,459.7188 97.8906,458.5781 Q98.5156,457.4219 99.6094,456.8125 Q100.7031,456.1875 101.9375,456.1875 Q102.6719,456.1875 103.3125,456.3594 Q103.9688,456.5156 104.5156,456.875 Z " fill="#000000"/><text fill="#000000" font-family="sans-serif" font-size="14" lengthAdjust="spacing" textLength="49" x="122.25" y="466.7969">Agenda</text><line style="stroke:#181818;stroke-width:0.5;" x1="8" x2="253" y1="477" y2="477"/><line style="stroke:#181818;stroke-width:0.5;" x1="8" x2="253" y1="485" y2="485"/><text fill="#000000" font-family="sans-serif" font-size="14" lengthAdjust="spacing" textLength="104" x="13" y="504.1074">-addEntry(entry)</text><text fill="#000000" font-family="sans-serif" font-size="14" lengthAdjust="spacing" textLength="129" x="13" y="522.7285">-validateEntry(entry)</text><text fill="#000000" font-family="sans-serif" font-size="14" lengthAdjust="spacing" textLength="235" x="13" y="541.3496">+addEntryAgenda(startingDate, task)</text></g><!--class Entry--><g id="elem_Entry"><rect codeLine="13" fill="#F1F1F1" height="85.2422" id="Entry" rx="2.5" ry="2.5" style="stroke:#181818;stroke-width:0.5;" width="174" x="43.5" y="610"/><ellipse cx="109.75" cy="626" fill="#ADD1B2" rx="11" ry="11" style="stroke:#181818;stroke-width:1.0;"/><path d="M112.5156,621.875 Q112.6719,621.6563 112.8594,621.5469 Q113.0469,621.4375 113.2656,621.4375 Q113.6406,621.4375 113.875,621.7031 Q114.1094,621.9531 114.1094,622.5625 L114.1094,624.0156 Q114.1094,624.625 113.875,624.8906 Q113.6406,625.1563 113.2656,625.1563 Q112.9219,625.1563 112.7188,624.9531 Q112.5156,624.7656 112.4063,624.25 Q112.3594,623.8906 112.1719,623.7031 Q111.8438,623.3281 111.2344,623.1094 Q110.625,622.8906 110,622.8906 Q109.2344,622.8906 108.5938,623.2188 Q107.9688,623.5469 107.4688,624.2969 Q106.9844,625.0469 106.9844,626.0781 L106.9844,627.1719 Q106.9844,628.4063 107.875,629.2344 Q108.7656,630.0469 110.3594,630.0469 Q111.2969,630.0469 111.9531,629.7969 Q112.3438,629.6406 112.7656,629.2031 Q113.0313,628.9375 113.1719,628.8594 Q113.3281,628.7813 113.5313,628.7813 Q113.8594,628.7813 114.1094,629.0469 Q114.375,629.2969 114.375,629.6406 Q114.375,629.9844 114.0313,630.3906 Q113.5313,630.9688 112.7344,631.2969 Q111.6563,631.75 110.3594,631.75 Q108.8438,631.75 107.6406,631.125 Q106.6563,630.625 105.9688,629.5625 Q105.2813,628.4844 105.2813,627.2031 L105.2813,626.0469 Q105.2813,624.7188 105.8906,623.5781 Q106.5156,622.4219 107.6094,621.8125 Q108.7031,621.1875 109.9375,621.1875 Q110.6719,621.1875 111.3125,621.3594 Q111.9688,621.5156 112.5156,621.875 Z " fill="#000000"/><text fill="#000000" font-family="sans-serif" font-size="14" lengthAdjust="spacing" textLength="33" x="130.25" y="631.7969">Entry</text><line style="stroke:#181818;stroke-width:0.5;" x1="44.5" x2="216.5" y1="642" y2="642"/><text fill="#000000" font-family="sans-serif" font-size="14" lengthAdjust="spacing" textLength="116" x="49.5" y="661.1074">-Date startingDate</text><line style="stroke:#181818;stroke-width:0.5;" x1="44.5" x2="216.5" y1="668.6211" y2="668.6211"/><text fill="#000000" font-family="sans-serif" font-size="14" lengthAdjust="spacing" textLength="162" x="49.5" y="687.7285">+Entry(startingDate, task)</text></g><!--class Repositories--><g id="elem_Repositories"><rect codeLine="19" fill="#F1F1F1" height="122.4844" id="Repositories" rx="2.5" ry="2.5" style="stroke:#181818;stroke-width:0.5;" width="194" x="189.5" y="262"/><ellipse cx="242.75" cy="278" fill="#ADD1B2" rx="11" ry="11" style="stroke:#181818;stroke-width:1.0;"/><path d="M245.5156,273.875 Q245.6719,273.6563 245.8594,273.5469 Q246.0469,273.4375 246.2656,273.4375 Q246.6406,273.4375 246.875,273.7031 Q247.1094,273.9531 247.1094,274.5625 L247.1094,276.0156 Q247.1094,276.625 246.875,276.8906 Q246.6406,277.1563 246.2656,277.1563 Q245.9219,277.1563 245.7188,276.9531 Q245.5156,276.7656 245.4063,276.25 Q245.3594,275.8906 245.1719,275.7031 Q244.8438,275.3281 244.2344,275.1094 Q243.625,274.8906 243,274.8906 Q242.2344,274.8906 241.5938,275.2188 Q240.9688,275.5469 240.4688,276.2969 Q239.9844,277.0469 239.9844,278.0781 L239.9844,279.1719 Q239.9844,280.4063 240.875,281.2344 Q241.7656,282.0469 243.3594,282.0469 Q244.2969,282.0469 244.9531,281.7969 Q245.3438,281.6406 245.7656,281.2031 Q246.0313,280.9375 246.1719,280.8594 Q246.3281,280.7813 246.5313,280.7813 Q246.8594,280.7813 247.1094,281.0469 Q247.375,281.2969 247.375,281.6406 Q247.375,281.9844 247.0313,282.3906 Q246.5313,282.9688 245.7344,283.2969 Q244.6563,283.75 243.3594,283.75 Q241.8438,283.75 240.6406,283.125 Q239.6563,282.625 238.9688,281.5625 Q238.2813,280.4844 238.2813,279.2031 L238.2813,278.0469 Q238.2813,276.7188 238.8906,275.5781 Q239.5156,274.4219 240.6094,273.8125 Q241.7031,273.1875 242.9375,273.1875 Q243.6719,273.1875 244.3125,273.3594 Q244.9688,273.5156 245.5156,273.875 Z " fill="#000000"/><text fill="#000000" font-family="sans-serif" font-size="14" lengthAdjust="spacing" textLength="79" x="263.25" y="283.7969">Repositories</text><line style="stroke:#181818;stroke-width:0.5;" x1="190.5" x2="382.5" y1="294" y2="294"/><line style="stroke:#181818;stroke-width:0.5;" x1="190.5" x2="382.5" y1="302" y2="302"/><text fill="#000000" font-family="sans-serif" font-size="14" lengthAdjust="spacing" textLength="94" x="195.5" y="321.1074">-Repositories()</text><text fill="#000000" font-family="sans-serif" font-size="14" lengthAdjust="spacing" textLength="182" x="195.5" y="339.7285">+getInstance() : Repositories</text><text fill="#000000" font-family="sans-serif" font-size="14" lengthAdjust="spacing" textLength="87" x="195.5" y="358.3496">+getAgenda()</text><text fill="#000000" font-family="sans-serif" font-size="14" lengthAdjust="spacing" textLength="95" x="195.5" y="376.9707">+getToDoList()</text></g><!--class AgendaStatus--><g id="elem_AgendaStatus"><rect codeLine="26" fill="#F1F1F1" height="122.4844" id="AgendaStatus" rx="2.5" ry="2.5" style="stroke:#181818;stroke-width:0.5;" width="121" x="70" y="756"/><ellipse cx="85" cy="772" fill="#EB937F" rx="11" ry="11" style="stroke:#181818;stroke-width:1.0;"/><path d="M83.8594,772.7969 L83.8594,775.2969 L88.1875,775.2969 L88.1875,774.375 Q88.1875,773.7656 88.4219,773.5 Q88.6719,773.2344 89.0469,773.2344 Q89.4219,773.2344 89.6563,773.5 Q89.8906,773.7656 89.8906,774.375 L89.8906,777 L81.8906,777 Q81.2656,777 81,776.7656 Q80.75,776.5313 80.75,776.1406 Q80.75,775.7656 81.0156,775.5313 Q81.2813,775.2969 81.8906,775.2969 L82.1563,775.2969 L82.1563,768.6406 L81.8906,768.6406 Q81.2656,768.6406 81,768.4063 Q80.75,768.1719 80.75,767.7813 Q80.75,767.4063 81,767.1719 Q81.2656,766.9375 81.8906,766.9375 L89.5156,766.9375 L89.5156,769.5313 Q89.5156,770.1406 89.2813,770.4063 Q89.0625,770.6563 88.6719,770.6563 Q88.2969,770.6563 88.0625,770.4063 Q87.8281,770.1406 87.8281,769.5313 L87.8281,768.6406 L83.8594,768.6406 L83.8594,771.0938 L85.3438,771.0938 Q85.3438,770.4375 85.4688,770.25 Q85.7344,769.8438 86.2031,769.8438 Q86.5781,769.8438 86.8125,770.1094 Q87.0469,770.3594 87.0469,770.9688 L87.0469,772.9375 Q87.0469,773.4844 86.9219,773.6719 Q86.6563,774.0625 86.2031,774.0625 Q85.7344,774.0625 85.4688,773.6563 Q85.3438,773.4688 85.3438,772.7969 L83.8594,772.7969 Z " fill="#000000"/><text fill="#000000" font-family="sans-serif" font-size="14" lengthAdjust="spacing" textLength="89" x="99" y="777.7969">AgendaStatus</text><line style="stroke:#181818;stroke-width:0.5;" x1="71" x2="190" y1="788" y2="788"/><text fill="#000000" font-family="sans-serif" font-size="14" lengthAdjust="spacing" textLength="63" x="76" y="807.1074">PLANNED</text><text fill="#000000" font-family="sans-serif" font-size="14" lengthAdjust="spacing" textLength="86" x="76" y="825.7285">POSTPONED</text><text fill="#000000" font-family="sans-serif" font-size="14" lengthAdjust="spacing" textLength="74" x="76" y="844.3496">CANCELED</text><text fill="#000000" font-family="sans-serif" font-size="14" lengthAdjust="spacing" textLength="39" x="76" y="862.9707">DONE</text><line style="stroke:#181818;stroke-width:0.5;" x1="71" x2="190" y1="870.4844" y2="870.4844"/></g><!--class PostponeEntryController--><g id="elem_PostponeEntryController"><rect codeLine="33" fill="#F1F1F1" height="66.6211" id="PostponeEntryController" rx="2.5" ry="2.5" style="stroke:#181818;stroke-width:0.5;" width="187" x="46" y="116"/><ellipse cx="61" cy="132" fill="#ADD1B2" rx="11" ry="11" style="stroke:#181818;stroke-width:1.0;"/><path d="M63.7656,127.875 Q63.9219,127.6563 64.1094,127.5469 Q64.2969,127.4375 64.5156,127.4375 Q64.8906,127.4375 65.125,127.7031 Q65.3594,127.9531 65.3594,128.5625 L65.3594,130.0156 Q65.3594,130.625 65.125,130.8906 Q64.8906,131.1563 64.5156,131.1563 Q64.1719,131.1563 63.9688,130.9531 Q63.7656,130.7656 63.6563,130.25 Q63.6094,129.8906 63.4219,129.7031 Q63.0938,129.3281 62.4844,129.1094 Q61.875,128.8906 61.25,128.8906 Q60.4844,128.8906 59.8438,129.2188 Q59.2188,129.5469 58.7188,130.2969 Q58.2344,131.0469 58.2344,132.0781 L58.2344,133.1719 Q58.2344,134.4063 59.125,135.2344 Q60.0156,136.0469 61.6094,136.0469 Q62.5469,136.0469 63.2031,135.7969 Q63.5938,135.6406 64.0156,135.2031 Q64.2813,134.9375 64.4219,134.8594 Q64.5781,134.7813 64.7813,134.7813 Q65.1094,134.7813 65.3594,135.0469 Q65.625,135.2969 65.625,135.6406 Q65.625,135.9844 65.2813,136.3906 Q64.7813,136.9688 63.9844,137.2969 Q62.9063,137.75 61.6094,137.75 Q60.0938,137.75 58.8906,137.125 Q57.9063,136.625 57.2188,135.5625 Q56.5313,134.4844 56.5313,133.2031 L56.5313,132.0469 Q56.5313,130.7188 57.1406,129.5781 Q57.7656,128.4219 58.8594,127.8125 Q59.9531,127.1875 61.1875,127.1875 Q61.9219,127.1875 62.5625,127.3594 Q63.2188,127.5156 63.7656,127.875 Z " fill="#000000"/><text fill="#000000" font-family="sans-serif" font-size="14" lengthAdjust="spacing" textLength="155" x="75" y="137.7969">PostponeEntryController</text><line style="stroke:#181818;stroke-width:0.5;" x1="47" x2="232" y1="148" y2="148"/><text fill="#000000" font-family="sans-serif" font-size="14" lengthAdjust="spacing" textLength="110" x="52" y="167.1074">-Agenda: agenda</text><line style="stroke:#181818;stroke-width:0.5;" x1="47" x2="232" y1="174.6211" y2="174.6211"/></g><!--class PostponeEntryUI--><g id="elem_PostponeEntryUI"><rect codeLine="37" fill="#F1F1F1" height="48" id="PostponeEntryUI" rx="2.5" ry="2.5" style="stroke:#181818;stroke-width:0.5;" width="137" x="71" y="7"/><ellipse cx="86" cy="23" fill="#ADD1B2" rx="11" ry="11" style="stroke:#181818;stroke-width:1.0;"/><path d="M88.7656,18.875 Q88.9219,18.6563 89.1094,18.5469 Q89.2969,18.4375 89.5156,18.4375 Q89.8906,18.4375 90.125,18.7031 Q90.3594,18.9531 90.3594,19.5625 L90.3594,21.0156 Q90.3594,21.625 90.125,21.8906 Q89.8906,22.1563 89.5156,22.1563 Q89.1719,22.1563 88.9688,21.9531 Q88.7656,21.7656 88.6563,21.25 Q88.6094,20.8906 88.4219,20.7031 Q88.0938,20.3281 87.4844,20.1094 Q86.875,19.8906 86.25,19.8906 Q85.4844,19.8906 84.8438,20.2188 Q84.2188,20.5469 83.7188,21.2969 Q83.2344,22.0469 83.2344,23.0781 L83.2344,24.1719 Q83.2344,25.4063 84.125,26.2344 Q85.0156,27.0469 86.6094,27.0469 Q87.5469,27.0469 88.2031,26.7969 Q88.5938,26.6406 89.0156,26.2031 Q89.2813,25.9375 89.4219,25.8594 Q89.5781,25.7813 89.7813,25.7813 Q90.1094,25.7813 90.3594,26.0469 Q90.625,26.2969 90.625,26.6406 Q90.625,26.9844 90.2813,27.3906 Q89.7813,27.9688 88.9844,28.2969 Q87.9063,28.75 86.6094,28.75 Q85.0938,28.75 83.8906,28.125 Q82.9063,27.625 82.2188,26.5625 Q81.5313,25.4844 81.5313,24.2031 L81.5313,23.0469 Q81.5313,21.7188 82.1406,20.5781 Q82.7656,19.4219 83.8594,18.8125 Q84.9531,18.1875 86.1875,18.1875 Q86.9219,18.1875 87.5625,18.3594 Q88.2188,18.5156 88.7656,18.875 Z " fill="#000000"/><text fill="#000000" font-family="sans-serif" font-size="14" lengthAdjust="spacing" textLength="105" x="100" y="28.7969">PostponeEntryUI</text><line style="stroke:#181818;stroke-width:0.5;" x1="72" x2="207" y1="39" y2="39"/><line style="stroke:#181818;stroke-width:0.5;" x1="72" x2="207" y1="47" y2="47"/></g><!--link PostponeEntryUI to PostponeEntryController--><g id="link_PostponeEntryUI_PostponeEntryController"><path codeLine="41" d="M139.5,55.02 C139.5,72.39 139.5,90.46 139.5,109.83 " fill="none" id="PostponeEntryUI-to-PostponeEntryController" style="stroke:#181818;stroke-width:1.0;stroke-dasharray:7.0,7.0;"/><polygon fill="#181818" points="139.5,115.83,143.5,106.83,139.5,110.83,135.5,106.83,139.5,115.83" style="stroke:#181818;stroke-width:1.0;"/></g><!--link PostponeEntryController to Repositories--><g id="link_PostponeEntryController_Repositories"><path codeLine="43" d="M167.5,183.16 C186.49,205.32 208.254,230.7256 230.904,257.1356 " fill="none" id="PostponeEntryController-to-Repositories" style="stroke:#181818;stroke-width:1.0;stroke-dasharray:7.0,7.0;"/><polygon fill="#181818" points="234.81,261.69,231.9873,252.2543,231.555,257.8946,225.9147,257.4624,234.81,261.69" style="stroke:#181818;stroke-width:1.0;"/><text fill="#000000" font-family="sans-serif" font-size="13" lengthAdjust="spacing" textLength="67" x="209.5" y="228.0283">repositories</text></g><!--link PostponeEntryController to Agenda--><g id="link_PostponeEntryController_Agenda"><path codeLine="45" d="M136.29,183.05 C133.04,215.96 128.5,262 128.5,262 C128.5,262 128.5,384 128.5,384 C128.5,384 128.9524,409.381 129.4824,438.921 " fill="none" id="PostponeEntryController-to-Agenda" style="stroke:#181818;stroke-width:1.0;stroke-dasharray:7.0,7.0;"/><polygon fill="#181818" points="129.59,444.92,133.4279,435.8497,129.5003,439.9208,125.4292,435.9932,129.59,444.92" style="stroke:#181818;stroke-width:1.0;"/><text fill="#000000" font-family="sans-serif" font-size="13" lengthAdjust="spacing" textLength="42" x="129.5" y="328.5283">agenda</text></g><!--link Repositories to Repositories--><g id="link_Repositories_Repositories"><path codeLine="47" d="M383.78,306.72 C403.98,308.43 418.5,313.86 418.5,323 C418.5,332.14 409.9586,337.0639 389.7586,338.7739 " fill="none" id="Repositories-to-Repositories" style="stroke:#181818;stroke-width:1.0;"/><polygon fill="#181818" points="383.78,339.28,393.0853,342.5066,388.7622,338.8582,392.4105,334.5351,383.78,339.28" style="stroke:#181818;stroke-width:1.0;"/><text fill="#000000" font-family="sans-serif" font-size="13" lengthAdjust="spacing" textLength="49" x="424.5" y="328.5283">instance</text></g><!--link Repositories to Agenda--><g id="link_Repositories_Agenda"><path codeLine="49" d="M231.94,384.16 C214.01,403.92 198.301,421.2458 181.031,440.2858 " fill="none" id="Repositories-to-Agenda" style="stroke:#181818;stroke-width:1.0;"/><polygon fill="#181818" points="177,444.73,186.0093,440.7511,180.3592,441.0265,180.0838,435.3764,177,444.73" style="stroke:#181818;stroke-width:1.0;"/><text fill="#000000" font-family="sans-serif" font-size="13" lengthAdjust="spacing" textLength="7" x="175.7781" y="433.6211">1</text></g><!--link Agenda to Entry--><g id="link_Agenda_Entry"><path codeLine="51" d="M130.5,549.11 C130.5,568.82 130.5,585.08 130.5,603.8 " fill="none" id="Agenda-to-Entry" style="stroke:#181818;stroke-width:1.0;"/><polygon fill="#181818" points="130.5,609.8,134.5,600.8,130.5,604.8,126.5,600.8,130.5,609.8" style="stroke:#181818;stroke-width:1.0;"/><text fill="#000000" font-family="sans-serif" font-size="13" lengthAdjust="spacing" textLength="5" x="125.1016" y="598.6722">*</text></g><!--link Entry to AgendaStatus--><g id="link_Entry_AgendaStatus"><path codeLine="53" d="M130.5,695.35 C130.5,713.78 130.5,729.78 130.5,749.92 " fill="none" id="Entry-to-AgendaStatus" style="stroke:#181818;stroke-width:1.0;"/><polygon fill="#181818" points="130.5,755.92,134.5,746.92,130.5,750.92,126.5,746.92,130.5,755.92" style="stroke:#181818;stroke-width:1.0;"/><text fill="#000000" font-family="sans-serif" font-size="13" lengthAdjust="spacing" textLength="7" x="123.0953" y="744.892">1</text></g><!--SRC=[VLB1JiCm3BtdAwATEg0JN7T0gjOT9atRHCS7cDQKQ5bI9HweJFmxQPEojZ1wI6E_v_Sin_OWL0K6Zho2_00bPbHBv0Pp0bLAPFQ7OD-Wq1z2bVmLfEqZKYYaka9UQLat0Uk1kGHh4o8ZNaw4grohJ7mYlsUiHNXIeYg0dnbtNmn5iLHawWYRS-gJxo150OI_aDkExaKYIs38TPWwyXqdi8Sf- -gCMcBdqp1ud-xrlCCLcQ3pX9MsWhGHQ3kvGJ8ApV4IQQMScCenclBvW7IXXDvxHNkTwhMm5BMsg4x7CAMCW4wTwMwTR3RBrD-tsNwtxQ95ibairo58NVeoX9ssL6dbHxdGxjHIeZcps3lCERJ_AnNFgpDhe56IpsQFrwH7v0lG5lL7CdThrnlGltMZRjdWKU9uB2p2C_n1d3nCWXfZOHVRzCt4RmnZVd66NFyItm00]--></g></svg>