<?xml version="1.0" encoding="us-ascii" standalone="no"?><svg xmlns="http://www.w3.org/2000/svg" xmlns:xlink="http://www.w3.org/1999/xlink" contentStyleType="text/css" height="1213px" preserveAspectRatio="none" style="width:2077px;height:1213px;background:#FFFFFF;" version="1.1" viewBox="0 0 2077 1213" width="2077px" zoomAndPan="magnify"><defs/><g><rect fill="#FFFFFF" height="1023.4258" style="stroke:#181818;stroke-width:1.0;" width="10" x="83" y="91.4883"/><rect fill="#FFFFFF" height="334.5938" style="stroke:#181818;stroke-width:1.0;" width="10" x="465" y="112.7988"/><rect fill="#FFFFFF" height="29.3105" style="stroke:#181818;stroke-width:1.0;" width="10" x="465" y="476.7031"/><rect fill="#FFFFFF" height="579.5898" style="stroke:#181818;stroke-width:1.0;" width="10" x="465" y="535.3242"/><rect fill="#FFFFFF" height="265.9727" style="stroke:#181818;stroke-width:1.0;" width="10" x="761" y="152.1094"/><rect fill="#FFFFFF" height="491.6582" style="stroke:#181818;stroke-width:1.0;" width="10" x="761" y="564.6348"/><rect fill="#FFFFFF" height="98.9316" style="stroke:#181818;stroke-width:1.0;" width="10" x="766" y="601.9453"/><rect fill="#FFFFFF" height="216.1738" style="stroke:#181818;stroke-width:1.0;" width="10" x="766" y="745.1875"/><rect fill="#FFFFFF" height="29.3105" style="stroke:#181818;stroke-width:1.0;" width="10" x="1169" y="183.5977"/><rect fill="#FFFFFF" height="29.3105" style="stroke:#181818;stroke-width:1.0;" width="10" x="1169" y="636.2559"/><rect fill="#FFFFFF" height="58.6211" style="stroke:#181818;stroke-width:1.0;" width="10" x="1169" y="997.6719"/><rect fill="#FFFFFF" height="29.3105" style="stroke:#181818;stroke-width:1.0;" width="10" x="1310.5" y="242.2188"/><rect fill="#FFFFFF" height="29.3105" style="stroke:#181818;stroke-width:1.0;" width="10" x="1310.5" y="779.498"/><rect fill="#FFFFFF" height="29.3105" style="stroke:#181818;stroke-width:1.0;" width="10" x="1468" y="300.8398"/><rect fill="#FFFFFF" height="29.3105" style="stroke:#181818;stroke-width:1.0;" width="10" x="1468" y="838.1191"/><rect fill="#FFFFFF" height="29.3105" style="stroke:#181818;stroke-width:1.0;" width="10" x="1624.5" y="359.4609"/><rect fill="#FFFFFF" height="29.3105" style="stroke:#181818;stroke-width:1.0;" width="10" x="1624.5" y="896.7402"/><line style="stroke:#181818;stroke-width:0.5;stroke-dasharray:5.0,5.0;" x1="88" x2="88" y1="81.4883" y2="1132.9141"/><line style="stroke:#181818;stroke-width:0.5;stroke-dasharray:5.0,5.0;" x1="470" x2="470" y1="81.4883" y2="1132.9141"/><line style="stroke:#181818;stroke-width:0.5;stroke-dasharray:5.0,5.0;" x1="766" x2="766" y1="151.543" y2="1132.9141"/><line style="stroke:#181818;stroke-width:0.5;stroke-dasharray:5.0,5.0;" x1="1173.5" x2="1173.5" y1="81.4883" y2="1132.9141"/><line style="stroke:#181818;stroke-width:0.5;stroke-dasharray:5.0,5.0;" x1="1315.5" x2="1315.5" y1="81.4883" y2="1132.9141"/><line style="stroke:#181818;stroke-width:0.5;stroke-dasharray:5.0,5.0;" x1="1472.5" x2="1472.5" y1="81.4883" y2="1132.9141"/><line style="stroke:#181818;stroke-width:0.5;stroke-dasharray:5.0,5.0;" x1="1629.5" x2="1629.5" y1="81.4883" y2="1132.9141"/><line style="stroke:#181818;stroke-width:0.5;stroke-dasharray:5.0,5.0;" x1="1808.5" x2="1808.5" y1="81.4883" y2="1132.9141"/><line style="stroke:#181818;stroke-width:0.5;stroke-dasharray:5.0,5.0;" x1="1950.5" x2="1950.5" y1="81.4883" y2="1132.9141"/><line style="stroke:#181818;stroke-width:0.5;stroke-dasharray:5.0,5.0;" x1="2044.5" x2="2044.5" y1="81.4883" y2="1132.9141"/><text fill="#000000" font-family="sans-serif" font-size="14" lengthAdjust="spacing" textLength="160" x="5" y="78.5352">Organization Employee</text><ellipse cx="88" cy="13.5" fill="#E3E3E3" rx="8" ry="8" style="stroke:#181818;stroke-width:0.5;"/><path d="M88,21.5 L88,48.5 M75,29.5 L101,29.5 M88,48.5 L75,63.5 M88,48.5 L101,63.5 " fill="none" style="stroke:#181818;stroke-width:0.5;"/><text fill="#000000" font-family="sans-serif" font-size="14" lengthAdjust="spacing" textLength="160" x="5" y="1145.4492">Organization Employee</text><ellipse cx="88" cy="1156.9023" fill="#E3E3E3" rx="8" ry="8" style="stroke:#181818;stroke-width:0.5;"/><path d="M88,1164.9023 L88,1191.9023 M75,1172.9023 L101,1172.9023 M88,1191.9023 L75,1206.9023 M88,1191.9023 L101,1206.9023 " fill="none" style="stroke:#181818;stroke-width:0.5;"/><rect fill="#E3E3E3" height="30.4883" rx="2.5" ry="2.5" style="stroke:#181818;stroke-width:0.5;" width="184" x="378" y="50"/><text fill="#000000" font-family="sans-serif" font-size="14" lengthAdjust="spacing" textLength="170" x="385" y="70.5352">:PostponeEntryAgendaUI</text><rect fill="#E3E3E3" height="30.4883" rx="2.5" ry="2.5" style="stroke:#181818;stroke-width:0.5;" width="184" x="378" y="1131.9141"/><text fill="#000000" font-family="sans-serif" font-size="14" lengthAdjust="spacing" textLength="170" x="385" y="1152.4492">:PostponeEntryAgendaUI</text><rect fill="#E3E3E3" height="30.4883" rx="2.5" ry="2.5" style="stroke:#181818;stroke-width:0.5;" width="240" x="646" y="1131.9141"/><text fill="#000000" font-family="sans-serif" font-size="14" lengthAdjust="spacing" textLength="226" x="653" y="1152.4492">:PostponeEntryAgendaController</text><rect fill="#E3E3E3" height="46.9766" rx="2.5" ry="2.5" style="stroke:#181818;stroke-width:0.5;" width="71" x="1138.5" y="33.5117"/><text fill="#000000" font-family="sans-serif" font-size="14" lengthAdjust="spacing" textLength="51" x="1148.5" y="54.0469">agenda</text><text fill="#000000" font-family="sans-serif" font-size="14" lengthAdjust="spacing" textLength="57" x="1145.5" y="70.5352">:Agenda</text><rect fill="#E3E3E3" height="46.9766" rx="2.5" ry="2.5" style="stroke:#181818;stroke-width:0.5;" width="71" x="1138.5" y="1131.9141"/><text fill="#000000" font-family="sans-serif" font-size="14" lengthAdjust="spacing" textLength="51" x="1148.5" y="1152.4492">agenda</text><text fill="#000000" font-family="sans-serif" font-size="14" lengthAdjust="spacing" textLength="57" x="1145.5" y="1168.9375">:Agenda</text><rect fill="#E3E3E3" height="30.4883" rx="2.5" ry="2.5" style="stroke:#181818;stroke-width:0.5;" width="192" x="1219.5" y="50"/><text fill="#000000" font-family="sans-serif" font-size="14" lengthAdjust="spacing" textLength="178" x="1226.5" y="70.5352">:AuthenticationRepository</text><rect fill="#E3E3E3" height="30.4883" rx="2.5" ry="2.5" style="stroke:#181818;stroke-width:0.5;" width="192" x="1219.5" y="1131.9141"/><text fill="#000000" font-family="sans-serif" font-size="14" lengthAdjust="spacing" textLength="178" x="1226.5" y="1152.4492">:AuthenticationRepository</text><rect fill="#E3E3E3" height="46.9766" rx="2.5" ry="2.5" style="stroke:#181818;stroke-width:0.5;" width="103" x="1421.5" y="33.5117"/><text fill="#000000" font-family="sans-serif" font-size="14" lengthAdjust="spacing" textLength="82" x="1432" y="54.0469">repositories</text><text fill="#000000" font-family="sans-serif" font-size="14" lengthAdjust="spacing" textLength="89" x="1428.5" y="70.5352">:Repositories</text><rect fill="#E3E3E3" height="46.9766" rx="2.5" ry="2.5" style="stroke:#181818;stroke-width:0.5;" width="103" x="1421.5" y="1131.9141"/><text fill="#000000" font-family="sans-serif" font-size="14" lengthAdjust="spacing" textLength="82" x="1432" y="1152.4492">repositories</text><text fill="#000000" font-family="sans-serif" font-size="14" lengthAdjust="spacing" textLength="89" x="1428.5" y="1168.9375">:Repositories</text><rect fill="#E3E3E3" height="46.9766" rx="2.5" ry="2.5" style="stroke:#181818;stroke-width:0.5;" width="190" x="1534.5" y="33.5117"/><text fill="#000000" font-family="sans-serif" font-size="14" lengthAdjust="spacing" textLength="176" x="1541.5" y="54.0469">authenticationRepository:</text><text fill="#000000" font-family="sans-serif" font-size="14" lengthAdjust="spacing" textLength="174" x="1542.5" y="70.5352">AuthenticationRepository</text><rect fill="#E3E3E3" height="46.9766" rx="2.5" ry="2.5" style="stroke:#181818;stroke-width:0.5;" width="190" x="1534.5" y="1131.9141"/><text fill="#000000" font-family="sans-serif" font-size="14" lengthAdjust="spacing" textLength="176" x="1541.5" y="1152.4492">authenticationRepository:</text><text fill="#000000" font-family="sans-serif" font-size="14" lengthAdjust="spacing" textLength="174" x="1542.5" y="1168.9375">AuthenticationRepository</text><rect fill="#E3E3E3" height="46.9766" rx="2.5" ry="2.5" style="stroke:#181818;stroke-width:0.5;" width="148" x="1734.5" y="33.5117"/><text fill="#000000" font-family="sans-serif" font-size="14" lengthAdjust="spacing" textLength="78" x="1769.5" y="54.0469">appSession</text><text fill="#000000" font-family="sans-serif" font-size="14" lengthAdjust="spacing" textLength="134" x="1741.5" y="70.5352">:ApplicationSession</text><rect fill="#E3E3E3" height="46.9766" rx="2.5" ry="2.5" style="stroke:#181818;stroke-width:0.5;" width="148" x="1734.5" y="1131.9141"/><text fill="#000000" font-family="sans-serif" font-size="14" lengthAdjust="spacing" textLength="78" x="1769.5" y="1152.4492">appSession</text><text fill="#000000" font-family="sans-serif" font-size="14" lengthAdjust="spacing" textLength="134" x="1741.5" y="1168.9375">:ApplicationSession</text><rect fill="#E3E3E3" height="46.9766" rx="2.5" ry="2.5" style="stroke:#181818;stroke-width:0.5;" width="116" x="1892.5" y="33.5117"/><text fill="#000000" font-family="sans-serif" font-size="14" lengthAdjust="spacing" textLength="102" x="1899.5" y="54.0469">currentSession</text><text fill="#000000" font-family="sans-serif" font-size="14" lengthAdjust="spacing" textLength="87" x="1907" y="70.5352">:UserSession</text><rect fill="#E3E3E3" height="46.9766" rx="2.5" ry="2.5" style="stroke:#181818;stroke-width:0.5;" width="116" x="1892.5" y="1131.9141"/><text fill="#000000" font-family="sans-serif" font-size="14" lengthAdjust="spacing" textLength="102" x="1899.5" y="1152.4492">currentSession</text><text fill="#000000" font-family="sans-serif" font-size="14" lengthAdjust="spacing" textLength="87" x="1907" y="1168.9375">:UserSession</text><rect fill="#E3E3E3" height="46.9766" rx="2.5" ry="2.5" style="stroke:#181818;stroke-width:0.5;" width="53" x="2018.5" y="33.5117"/><text fill="#000000" font-family="sans-serif" font-size="14" lengthAdjust="spacing" textLength="35" x="2027.5" y="54.0469">entry</text><text fill="#000000" font-family="sans-serif" font-size="14" lengthAdjust="spacing" textLength="39" x="2025.5" y="70.5352">:Entry</text><rect fill="#E3E3E3" height="46.9766" rx="2.5" ry="2.5" style="stroke:#181818;stroke-width:0.5;" width="53" x="2018.5" y="1131.9141"/><text fill="#000000" font-family="sans-serif" font-size="14" lengthAdjust="spacing" textLength="35" x="2027.5" y="1152.4492">entry</text><text fill="#000000" font-family="sans-serif" font-size="14" lengthAdjust="spacing" textLength="39" x="2025.5" y="1168.9375">:Entry</text><rect fill="#FFFFFF" height="1023.4258" style="stroke:#181818;stroke-width:1.0;" width="10" x="83" y="91.4883"/><rect fill="#FFFFFF" height="334.5938" style="stroke:#181818;stroke-width:1.0;" width="10" x="465" y="112.7988"/><rect fill="#FFFFFF" height="29.3105" style="stroke:#181818;stroke-width:1.0;" width="10" x="465" y="476.7031"/><rect fill="#FFFFFF" height="579.5898" style="stroke:#181818;stroke-width:1.0;" width="10" x="465" y="535.3242"/><rect fill="#FFFFFF" height="265.9727" style="stroke:#181818;stroke-width:1.0;" width="10" x="761" y="152.1094"/><rect fill="#FFFFFF" height="491.6582" style="stroke:#181818;stroke-width:1.0;" width="10" x="761" y="564.6348"/><rect fill="#FFFFFF" height="98.9316" style="stroke:#181818;stroke-width:1.0;" width="10" x="766" y="601.9453"/><rect fill="#FFFFFF" height="216.1738" style="stroke:#181818;stroke-width:1.0;" width="10" x="766" y="745.1875"/><rect fill="#FFFFFF" height="29.3105" style="stroke:#181818;stroke-width:1.0;" width="10" x="1169" y="183.5977"/><rect fill="#FFFFFF" height="29.3105" style="stroke:#181818;stroke-width:1.0;" width="10" x="1169" y="636.2559"/><rect fill="#FFFFFF" height="58.6211" style="stroke:#181818;stroke-width:1.0;" width="10" x="1169" y="997.6719"/><rect fill="#FFFFFF" height="29.3105" style="stroke:#181818;stroke-width:1.0;" width="10" x="1310.5" y="242.2188"/><rect fill="#FFFFFF" height="29.3105" style="stroke:#181818;stroke-width:1.0;" width="10" x="1310.5" y="779.498"/><rect fill="#FFFFFF" height="29.3105" style="stroke:#181818;stroke-width:1.0;" width="10" x="1468" y="300.8398"/><rect fill="#FFFFFF" height="29.3105" style="stroke:#181818;stroke-width:1.0;" width="10" x="1468" y="838.1191"/><rect fill="#FFFFFF" height="29.3105" style="stroke:#181818;stroke-width:1.0;" width="10" x="1624.5" y="359.4609"/><rect fill="#FFFFFF" height="29.3105" style="stroke:#181818;stroke-width:1.0;" width="10" x="1624.5" y="896.7402"/><polygon fill="#181818" points="453,108.7988,463,112.7988,453,116.7988,457,112.7988" style="stroke:#181818;stroke-width:1.0;"/><line style="stroke:#181818;stroke-width:1.0;" x1="93" x2="459" y1="112.7988" y2="112.7988"/><text fill="#000000" font-family="sans-serif" font-size="13" font-weight="bold" lengthAdjust="spacing" textLength="9" x="100" y="108.0566">1</text><text fill="#000000" font-family="sans-serif" font-size="13" lengthAdjust="spacing" textLength="164" x="113" y="108.0566">asks to postpone an entry</text><polygon fill="#181818" points="634,138.1094,644,142.1094,634,146.1094,638,142.1094" style="stroke:#181818;stroke-width:1.0;"/><line style="stroke:#181818;stroke-width:1.0;" x1="475" x2="640" y1="142.1094" y2="142.1094"/><text fill="#000000" font-family="sans-serif" font-size="13" font-weight="bold" lengthAdjust="spacing" textLength="9" x="482" y="137.3672">2</text><text fill="#000000" font-family="sans-serif" font-size="13" lengthAdjust="spacing" textLength="38" x="495" y="137.3672">create</text><rect fill="#E3E3E3" height="30.4883" rx="2.5" ry="2.5" style="stroke:#181818;stroke-width:0.5;" width="240" x="646" y="120.7988"/><text fill="#000000" font-family="sans-serif" font-size="14" lengthAdjust="spacing" textLength="226" x="653" y="141.334">:PostponeEntryAgendaController</text><polygon fill="#181818" points="1157,179.5977,1167,183.5977,1157,187.5977,1161,183.5977" style="stroke:#181818;stroke-width:1.0;"/><line style="stroke:#181818;stroke-width:1.0;" x1="771" x2="1163" y1="183.5977" y2="183.5977"/><text fill="#000000" font-family="sans-serif" font-size="13" font-weight="bold" lengthAdjust="spacing" textLength="9" x="778" y="178.8555">3</text><text fill="#000000" font-family="sans-serif" font-size="13" lengthAdjust="spacing" textLength="75" x="791" y="178.8555">getAgenda()</text><polygon fill="#181818" points="782,208.9082,772,212.9082,782,216.9082,778,212.9082" style="stroke:#181818;stroke-width:1.0;"/><line style="stroke:#181818;stroke-width:1.0;stroke-dasharray:2.0,2.0;" x1="776" x2="1173" y1="212.9082" y2="212.9082"/><text fill="#000000" font-family="sans-serif" font-size="13" font-weight="bold" lengthAdjust="spacing" textLength="9" x="788" y="208.166">4</text><text fill="#000000" font-family="sans-serif" font-size="13" lengthAdjust="spacing" textLength="45" x="801" y="208.166">agenda</text><polygon fill="#181818" points="1298.5,238.2188,1308.5,242.2188,1298.5,246.2188,1302.5,242.2188" style="stroke:#181818;stroke-width:1.0;"/><line style="stroke:#181818;stroke-width:1.0;" x1="771" x2="1304.5" y1="242.2188" y2="242.2188"/><text fill="#000000" font-family="sans-serif" font-size="13" font-weight="bold" lengthAdjust="spacing" textLength="9" x="778" y="237.4766">5</text><text fill="#000000" font-family="sans-serif" font-size="13" lengthAdjust="spacing" textLength="81" x="791" y="237.4766">getInstance()</text><polygon fill="#181818" points="782,267.5293,772,271.5293,782,275.5293,778,271.5293" style="stroke:#181818;stroke-width:1.0;"/><line style="stroke:#181818;stroke-width:1.0;stroke-dasharray:2.0,2.0;" x1="776" x2="1314.5" y1="271.5293" y2="271.5293"/><text fill="#000000" font-family="sans-serif" font-size="13" font-weight="bold" lengthAdjust="spacing" textLength="9" x="788" y="266.7871">6</text><text fill="#000000" font-family="sans-serif" font-size="13" lengthAdjust="spacing" textLength="75" x="801" y="266.7871">repositories</text><polygon fill="#181818" points="1456,296.8398,1466,300.8398,1456,304.8398,1460,300.8398" style="stroke:#181818;stroke-width:1.0;"/><line style="stroke:#181818;stroke-width:1.0;" x1="771" x2="1462" y1="300.8398" y2="300.8398"/><text fill="#000000" font-family="sans-serif" font-size="13" font-weight="bold" lengthAdjust="spacing" textLength="9" x="778" y="296.0977">7</text><text fill="#000000" font-family="sans-serif" font-size="13" lengthAdjust="spacing" textLength="188" x="791" y="296.0977">getAuthenticationRepository()</text><polygon fill="#181818" points="782,326.1504,772,330.1504,782,334.1504,778,330.1504" style="stroke:#181818;stroke-width:1.0;"/><line style="stroke:#181818;stroke-width:1.0;stroke-dasharray:2.0,2.0;" x1="776" x2="1472" y1="330.1504" y2="330.1504"/><text fill="#000000" font-family="sans-serif" font-size="13" font-weight="bold" lengthAdjust="spacing" textLength="9" x="788" y="325.4082">8</text><text fill="#000000" font-family="sans-serif" font-size="13" lengthAdjust="spacing" textLength="158" x="801" y="325.4082">authenticationRepository</text><polygon fill="#181818" points="1612.5,355.4609,1622.5,359.4609,1612.5,363.4609,1616.5,359.4609" style="stroke:#181818;stroke-width:1.0;"/><line style="stroke:#181818;stroke-width:1.0;" x1="771" x2="1618.5" y1="359.4609" y2="359.4609"/><text fill="#000000" font-family="sans-serif" font-size="13" font-weight="bold" lengthAdjust="spacing" textLength="9" x="778" y="354.7188">9</text><text fill="#000000" font-family="sans-serif" font-size="13" lengthAdjust="spacing" textLength="151" x="791" y="354.7188">getCurrentUserSession()</text><polygon fill="#181818" points="782,384.7715,772,388.7715,782,392.7715,778,388.7715" style="stroke:#181818;stroke-width:1.0;"/><line style="stroke:#181818;stroke-width:1.0;stroke-dasharray:2.0,2.0;" x1="776" x2="1628.5" y1="388.7715" y2="388.7715"/><text fill="#000000" font-family="sans-serif" font-size="13" font-weight="bold" lengthAdjust="spacing" textLength="18" x="788" y="384.0293">10</text><text fill="#000000" font-family="sans-serif" font-size="13" lengthAdjust="spacing" textLength="93" x="810" y="384.0293">currentSession</text><polygon fill="#181818" points="486,414.082,476,418.082,486,422.082,482,418.082" style="stroke:#181818;stroke-width:1.0;"/><line style="stroke:#181818;stroke-width:1.0;stroke-dasharray:2.0,2.0;" x1="480" x2="765" y1="418.082" y2="418.082"/><text fill="#000000" font-family="sans-serif" font-size="13" font-weight="bold" lengthAdjust="spacing" textLength="18" x="492" y="413.3398">11</text><text fill="#000000" font-family="sans-serif" font-size="13" lengthAdjust="spacing" textLength="66" x="514" y="413.3398">entriesList</text><polygon fill="#181818" points="104,443.3926,94,447.3926,104,451.3926,100,447.3926" style="stroke:#181818;stroke-width:1.0;"/><line style="stroke:#181818;stroke-width:1.0;stroke-dasharray:2.0,2.0;" x1="98" x2="469" y1="447.3926" y2="447.3926"/><text fill="#000000" font-family="sans-serif" font-size="13" font-weight="bold" lengthAdjust="spacing" textLength="18" x="110" y="442.6504">12</text><text fill="#000000" font-family="sans-serif" font-size="13" lengthAdjust="spacing" textLength="140" x="132" y="442.6504">displays list of entries</text><polygon fill="#181818" points="453,472.7031,463,476.7031,453,480.7031,457,476.7031" style="stroke:#181818;stroke-width:1.0;"/><line style="stroke:#181818;stroke-width:1.0;" x1="93" x2="459" y1="476.7031" y2="476.7031"/><text fill="#000000" font-family="sans-serif" font-size="13" font-weight="bold" lengthAdjust="spacing" textLength="18" x="100" y="471.9609">13</text><text fill="#000000" font-family="sans-serif" font-size="13" lengthAdjust="spacing" textLength="179" x="122" y="471.9609">selects an entry to postpone</text><polygon fill="#181818" points="104,502.0137,94,506.0137,104,510.0137,100,506.0137" style="stroke:#181818;stroke-width:1.0;"/><line style="stroke:#181818;stroke-width:1.0;stroke-dasharray:2.0,2.0;" x1="98" x2="469" y1="506.0137" y2="506.0137"/><text fill="#000000" font-family="sans-serif" font-size="13" font-weight="bold" lengthAdjust="spacing" textLength="18" x="110" y="501.2715">14</text><text fill="#000000" font-family="sans-serif" font-size="13" lengthAdjust="spacing" textLength="85" x="132" y="501.2715">requests data</text><polygon fill="#181818" points="453,531.3242,463,535.3242,453,539.3242,457,535.3242" style="stroke:#181818;stroke-width:1.0;"/><line style="stroke:#181818;stroke-width:1.0;" x1="93" x2="459" y1="535.3242" y2="535.3242"/><text fill="#000000" font-family="sans-serif" font-size="13" font-weight="bold" lengthAdjust="spacing" textLength="18" x="100" y="530.582">15</text><text fill="#000000" font-family="sans-serif" font-size="13" lengthAdjust="spacing" textLength="331" x="122" y="530.582">types requested data (entry index, new starting date)</text><polygon fill="#181818" points="749,560.6348,759,564.6348,749,568.6348,753,564.6348" style="stroke:#181818;stroke-width:1.0;"/><line style="stroke:#181818;stroke-width:1.0;" x1="475" x2="755" y1="564.6348" y2="564.6348"/><text fill="#000000" font-family="sans-serif" font-size="13" font-weight="bold" lengthAdjust="spacing" textLength="18" x="482" y="559.8926">16</text><text fill="#000000" font-family="sans-serif" font-size="13" lengthAdjust="spacing" textLength="245" x="504" y="559.8926">postponeEntry(index, newStartingDate)</text><line style="stroke:#181818;stroke-width:1.0;" x1="771" x2="818" y1="588.9453" y2="588.9453"/><line style="stroke:#181818;stroke-width:1.0;" x1="818" x2="818" y1="588.9453" y2="601.9453"/><line style="stroke:#181818;stroke-width:1.0;" x1="777" x2="818" y1="601.9453" y2="601.9453"/><polygon fill="#181818" points="787,597.9453,777,601.9453,787,605.9453,783,601.9453" style="stroke:#181818;stroke-width:1.0;"/><text fill="#000000" font-family="sans-serif" font-size="13" font-weight="bold" lengthAdjust="spacing" textLength="18" x="783" y="584.2031">17</text><text fill="#000000" font-family="sans-serif" font-size="13" lengthAdjust="spacing" textLength="144" x="805" y="584.2031">getEntryByIndex(index)</text><polygon fill="#181818" points="1157,632.2559,1167,636.2559,1157,640.2559,1161,636.2559" style="stroke:#181818;stroke-width:1.0;"/><line style="stroke:#181818;stroke-width:1.0;" x1="776" x2="1163" y1="636.2559" y2="636.2559"/><text fill="#000000" font-family="sans-serif" font-size="13" font-weight="bold" lengthAdjust="spacing" textLength="18" x="783" y="631.5137">18</text><text fill="#000000" font-family="sans-serif" font-size="13" lengthAdjust="spacing" textLength="144" x="805" y="631.5137">getEntryByIndex(index)</text><polygon fill="#181818" points="787,661.5664,777,665.5664,787,669.5664,783,665.5664" style="stroke:#181818;stroke-width:1.0;"/><line style="stroke:#181818;stroke-width:1.0;stroke-dasharray:2.0,2.0;" x1="781" x2="1173" y1="665.5664" y2="665.5664"/><text fill="#000000" font-family="sans-serif" font-size="13" font-weight="bold" lengthAdjust="spacing" textLength="18" x="793" y="660.8242">19</text><text fill="#000000" font-family="sans-serif" font-size="13" lengthAdjust="spacing" textLength="32" x="815" y="660.8242">entry</text><line style="stroke:#181818;stroke-width:1.0;stroke-dasharray:2.0,2.0;" x1="776" x2="818" y1="699.877" y2="699.877"/><line style="stroke:#181818;stroke-width:1.0;stroke-dasharray:2.0,2.0;" x1="818" x2="818" y1="699.877" y2="712.877"/><line style="stroke:#181818;stroke-width:1.0;stroke-dasharray:2.0,2.0;" x1="771" x2="818" y1="712.877" y2="712.877"/><polygon fill="#181818" points="781,708.877,771,712.877,781,716.877,777,712.877" style="stroke:#181818;stroke-width:1.0;"/><text fill="#000000" font-family="sans-serif" font-size="13" font-weight="bold" lengthAdjust="spacing" textLength="18" x="783" y="695.1348">20</text><text fill="#000000" font-family="sans-serif" font-size="13" lengthAdjust="spacing" textLength="32" x="805" y="695.1348">entry</text><line style="stroke:#181818;stroke-width:1.0;" x1="771" x2="818" y1="732.1875" y2="732.1875"/><line style="stroke:#181818;stroke-width:1.0;" x1="818" x2="818" y1="732.1875" y2="745.1875"/><line style="stroke:#181818;stroke-width:1.0;" x1="777" x2="818" y1="745.1875" y2="745.1875"/><polygon fill="#181818" points="787,741.1875,777,745.1875,787,749.1875,783,745.1875" style="stroke:#181818;stroke-width:1.0;"/><text fill="#000000" font-family="sans-serif" font-size="13" font-weight="bold" lengthAdjust="spacing" textLength="18" x="783" y="727.4453">21</text><text fill="#000000" font-family="sans-serif" font-size="13" lengthAdjust="spacing" textLength="135" x="805" y="727.4453">getGSMFromSession()</text><polygon fill="#181818" points="1298.5,775.498,1308.5,779.498,1298.5,783.498,1302.5,779.498" style="stroke:#181818;stroke-width:1.0;"/><line style="stroke:#181818;stroke-width:1.0;" x1="776" x2="1304.5" y1="779.498" y2="779.498"/><text fill="#000000" font-family="sans-serif" font-size="13" font-weight="bold" lengthAdjust="spacing" textLength="18" x="783" y="774.7559">22</text><text fill="#000000" font-family="sans-serif" font-size="13" lengthAdjust="spacing" textLength="81" x="805" y="774.7559">getInstance()</text><polygon fill="#181818" points="787,804.8086,777,808.8086,787,812.8086,783,808.8086" style="stroke:#181818;stroke-width:1.0;"/><line style="stroke:#181818;stroke-width:1.0;stroke-dasharray:2.0,2.0;" x1="781" x2="1314.5" y1="808.8086" y2="808.8086"/><text fill="#000000" font-family="sans-serif" font-size="13" font-weight="bold" lengthAdjust="spacing" textLength="18" x="793" y="804.0664">23</text><text fill="#000000" font-family="sans-serif" font-size="13" lengthAdjust="spacing" textLength="75" x="815" y="804.0664">repositories</text><polygon fill="#181818" points="1456,834.1191,1466,838.1191,1456,842.1191,1460,838.1191" style="stroke:#181818;stroke-width:1.0;"/><line style="stroke:#181818;stroke-width:1.0;" x1="776" x2="1462" y1="838.1191" y2="838.1191"/><text fill="#000000" font-family="sans-serif" font-size="13" font-weight="bold" lengthAdjust="spacing" textLength="18" x="783" y="833.377">24</text><text fill="#000000" font-family="sans-serif" font-size="13" lengthAdjust="spacing" textLength="188" x="805" y="833.377">getAuthenticationRepository()</text><polygon fill="#181818" points="787,863.4297,777,867.4297,787,871.4297,783,867.4297" style="stroke:#181818;stroke-width:1.0;"/><line style="stroke:#181818;stroke-width:1.0;stroke-dasharray:2.0,2.0;" x1="781" x2="1472" y1="867.4297" y2="867.4297"/><text fill="#000000" font-family="sans-serif" font-size="13" font-weight="bold" lengthAdjust="spacing" textLength="18" x="793" y="862.6875">25</text><text fill="#000000" font-family="sans-serif" font-size="13" lengthAdjust="spacing" textLength="158" x="815" y="862.6875">authenticationRepository</text><polygon fill="#181818" points="1612.5,892.7402,1622.5,896.7402,1612.5,900.7402,1616.5,896.7402" style="stroke:#181818;stroke-width:1.0;"/><line style="stroke:#181818;stroke-width:1.0;" x1="776" x2="1618.5" y1="896.7402" y2="896.7402"/><text fill="#000000" font-family="sans-serif" font-size="13" font-weight="bold" lengthAdjust="spacing" textLength="18" x="783" y="891.998">26</text><text fill="#000000" font-family="sans-serif" font-size="13" lengthAdjust="spacing" textLength="151" x="805" y="891.998">getCurrentUserSession()</text><polygon fill="#181818" points="787,922.0508,777,926.0508,787,930.0508,783,926.0508" style="stroke:#181818;stroke-width:1.0;"/><line style="stroke:#181818;stroke-width:1.0;stroke-dasharray:2.0,2.0;" x1="781" x2="1628.5" y1="926.0508" y2="926.0508"/><text fill="#000000" font-family="sans-serif" font-size="13" font-weight="bold" lengthAdjust="spacing" textLength="18" x="793" y="921.3086">27</text><text fill="#000000" font-family="sans-serif" font-size="13" lengthAdjust="spacing" textLength="93" x="815" y="921.3086">currentSession</text><line style="stroke:#181818;stroke-width:1.0;stroke-dasharray:2.0,2.0;" x1="776" x2="818" y1="960.3613" y2="960.3613"/><line style="stroke:#181818;stroke-width:1.0;stroke-dasharray:2.0,2.0;" x1="818" x2="818" y1="960.3613" y2="973.3613"/><line style="stroke:#181818;stroke-width:1.0;stroke-dasharray:2.0,2.0;" x1="771" x2="818" y1="973.3613" y2="973.3613"/><polygon fill="#181818" points="781,969.3613,771,973.3613,781,977.3613,777,973.3613" style="stroke:#181818;stroke-width:1.0;"/><text fill="#000000" font-family="sans-serif" font-size="13" font-weight="bold" lengthAdjust="spacing" textLength="18" x="783" y="955.6191">28</text><text fill="#000000" font-family="sans-serif" font-size="13" lengthAdjust="spacing" textLength="34" x="805" y="955.6191">email</text><polygon fill="#181818" points="1157,993.6719,1167,997.6719,1157,1001.6719,1161,997.6719" style="stroke:#181818;stroke-width:1.0;"/><line style="stroke:#181818;stroke-width:1.0;" x1="771" x2="1163" y1="997.6719" y2="997.6719"/><text fill="#000000" font-family="sans-serif" font-size="13" font-weight="bold" lengthAdjust="spacing" textLength="18" x="778" y="992.9297">29</text><text fill="#000000" font-family="sans-serif" font-size="13" lengthAdjust="spacing" textLength="357" x="800" y="992.9297">postponeEntry(entry, newStartingDate, gsmFromSession)</text><polygon fill="#181818" points="2033,1022.9824,2043,1026.9824,2033,1030.9824,2037,1026.9824" style="stroke:#181818;stroke-width:1.0;"/><line style="stroke:#181818;stroke-width:1.0;" x1="1179" x2="2039" y1="1026.9824" y2="1026.9824"/><text fill="#000000" font-family="sans-serif" font-size="13" font-weight="bold" lengthAdjust="spacing" textLength="18" x="1186" y="1022.2402">30</text><text fill="#000000" font-family="sans-serif" font-size="13" lengthAdjust="spacing" textLength="208" x="1208" y="1022.2402">setStartingDate(newStartingDate)</text><polygon fill="#181818" points="2033,1052.293,2043,1056.293,2033,1060.293,2037,1056.293" style="stroke:#181818;stroke-width:1.0;"/><line style="stroke:#181818;stroke-width:1.0;" x1="1174" x2="2039" y1="1056.293" y2="1056.293"/><text fill="#000000" font-family="sans-serif" font-size="13" font-weight="bold" lengthAdjust="spacing" textLength="18" x="1181" y="1051.5508">31</text><text fill="#000000" font-family="sans-serif" font-size="13" lengthAdjust="spacing" textLength="168" x="1203" y="1051.5508">changeStatus(POSTPONED)</text><polygon fill="#181818" points="486,1081.6035,476,1085.6035,486,1089.6035,482,1085.6035" style="stroke:#181818;stroke-width:1.0;"/><line style="stroke:#181818;stroke-width:1.0;stroke-dasharray:2.0,2.0;" x1="480" x2="765" y1="1085.6035" y2="1085.6035"/><text fill="#000000" font-family="sans-serif" font-size="13" font-weight="bold" lengthAdjust="spacing" textLength="18" x="492" y="1080.8613">32</text><text fill="#000000" font-family="sans-serif" font-size="13" lengthAdjust="spacing" textLength="134" x="514" y="1080.8613">null or error message</text><polygon fill="#181818" points="99,1110.9141,89,1114.9141,99,1118.9141,95,1114.9141" style="stroke:#181818;stroke-width:1.0;"/><line style="stroke:#181818;stroke-width:1.0;stroke-dasharray:2.0,2.0;" x1="93" x2="469" y1="1114.9141" y2="1114.9141"/><text fill="#000000" font-family="sans-serif" font-size="13" font-weight="bold" lengthAdjust="spacing" textLength="18" x="105" y="1110.1719">33</text><text fill="#000000" font-family="sans-serif" font-size="13" lengthAdjust="spacing" textLength="231" x="127" y="1110.1719">displays operation success or failure</text><!--SRC=[xLTHSzeu47xthzZ9ov5EqqdJj7FZXqv9e1bo41WCxKjV5BE09xRaa-IqtA-_bOonARRhGE-Up4CcbdQ_tPM-tTK20AYdWCTCiWWYmOM_bY92q3911_PsO-O_iHLwUXCYIFGruwlmPo6rPWlnFU0hMB9GeMEtMQ85Jw97bEdt7-jWWR0KGZ-A7wc4huM4ix5SCHxymtGWEFIZE1GRn3DW2hgzaHKaAphmWvXn3MVkH2WT2uvzhkMckqA-OFE1bPyFcedV2lfVX25AgtOxcmuF5PaL_SRTL2TrwAx_qEkM6EacUesS5cmKKuo52YYuZTNAFxt0d1wToo64p8G2L6HqMlYq89DXTrRYP8LTznklTQbgiyH277ke54cPeuZZSAkpNKpH9fD3HJ-HaapaodE5igZbzJslEpvKH7DH96ylp4hs7sRJBfrxnfhWcMcqxB0hvaSVSF6H600kQJmfq0BYxSq3us11S_4T255cjsX-140mXX6lNX6KBv6azYHsgfOsUrlcPrODH4eLWbYXJXdKEJyGpcD9YNKWO4DBaIwsVb5y5kv0Te6_XCkSAs5awkc0Ayfm7-jyBQDpgUDbLl8eYeIlYwMHkImmaoNRCwzWU5raDiTAGx6uXHkeIv-AECh1TtIfG4o3kKrpgP11jMIgygwSNbMMyt3tKxcMU8rDfu5dAMlIatWm39HsAg0FqytagZawIdqN5e6AGxPH4186Y6K6cQiKi8fPNwmS2aDgSMfNC8fLf5djsFaZyUy45M4jc6OlyK5lObIPEYwiFdHITmA-m1-lWUDte3obcaajb_Rn_2M5ZMp4nPxOoL6zBMXl3_C5LM-BJvIrq3URWS5EBTGmjXoqgfmsWMvSNKihRDejoaGR5DazTcyFf1ombjtbnthdZJxJMwr15VZrcHxJ1Oxh12TsWsCwmibTeM5dEAKxDEeGlxbBdD0fVa-tEBfZbEPLn8Bm-BpQLPNzWcYpzQ0WleQLYWh9T-9pxcFshBLzHnSjTMfBSHsGlwRvZAOrfXFLcOozsMJyqE-Tl_IjM7k0-vsR9s48DCQXbFGtegEXv-cfFLp4ADDvK2M-JvZ6mfAkEf5OrqkBOMNJmITwB2THwFmqi_vVOsyxvBP3RZlajaDkE-IsGsuxvBP3RZlajaDkE-IsGsuxvBP3xdymv4v26Y_ceo4yepJt1s_VN5rUNR-vxdXCGpUMSFa1thvttxrphoxXQz-RWTa_TpgZmGoKIAIFnaLwLZmcsXBWdZqpc2P4tmXT6CV8xtj_PGlGvy-153mYEZdtNqQvm8VhYvj0WuUIN84l8wU7IvQ4cZHyiQ1BTs4- -tpnfpEasqpeF4q3SMv5OdZfmjtDlm00]--></g></svg>