<?xml version="1.0" encoding="us-ascii" standalone="no"?><svg xmlns="http://www.w3.org/2000/svg" xmlns:xlink="http://www.w3.org/1999/xlink" contentStyleType="text/css" height="453px" preserveAspectRatio="none" style="width:755px;height:453px;background:#FFFFFF;" version="1.1" viewBox="0 0 755 453" width="755px" zoomAndPan="magnify"><defs/><g><text fill="#000000" font-family="sans-serif" font-size="7" font-weight="bold" lengthAdjust="spacing" textLength="50" x="349.03" y="12.5537">Domain Model</text><!--class MediumSizedPark--><g id="elem_MediumSizedPark"><rect codeLine="11" fill="#F1F1F1" height="18.3105" id="MediumSizedPark" rx="1.25" ry="1.25" style="stroke:#181818;stroke-width:0.25;" width="59" x="532.31" y="23.3105"/><text fill="#000000" font-family="sans-serif" font-size="7" lengthAdjust="spacing" textLength="56" x="533.81" y="33.3643">MediumSizedPark</text><line style="stroke:#181818;stroke-width:0.25;" x1="532.81" x2="590.81" y1="37.6211" y2="37.6211"/></g><!--class LargeSizedPark--><g id="elem_LargeSizedPark"><rect codeLine="13" fill="#F1F1F1" height="18.3105" id="LargeSizedPark" rx="1.25" ry="1.25" style="stroke:#181818;stroke-width:0.25;" width="53" x="608.81" y="23.3105"/><text fill="#000000" font-family="sans-serif" font-size="7" lengthAdjust="spacing" textLength="50" x="610.31" y="33.3643">LargeSizedPark</text><line style="stroke:#181818;stroke-width:0.25;" x1="609.31" x2="661.31" y1="37.6211" y2="37.6211"/></g><!--class Garden--><g id="elem_Garden"><rect codeLine="15" fill="#F1F1F1" height="18.3105" id="Garden" rx="1.25" ry="1.25" style="stroke:#181818;stroke-width:0.25;" width="27" x="679.31" y="23.3105"/><text fill="#000000" font-family="sans-serif" font-size="7" lengthAdjust="spacing" textLength="24" x="680.81" y="33.3643">Garden</text><line style="stroke:#181818;stroke-width:0.25;" x1="679.81" x2="705.81" y1="37.6211" y2="37.6211"/></g><!--class GreenSpace--><g id="elem_GreenSpace"><rect codeLine="17" fill="#F1F1F1" height="18.3105" id="GreenSpace" rx="1.25" ry="1.25" style="stroke:#181818;stroke-width:0.25;" width="43" x="597.31" y="85.8105"/><text fill="#000000" font-family="sans-serif" font-size="7" lengthAdjust="spacing" textLength="40" x="598.81" y="95.8643">GreenSpace</text><line style="stroke:#181818;stroke-width:0.25;" x1="597.81" x2="639.81" y1="100.1211" y2="100.1211"/></g><!--class Organization--><g id="elem_Organization"><rect codeLine="20" fill="#F1F1F1" height="18.3105" id="Organization" rx="1.25" ry="1.25" style="stroke:#181818;stroke-width:0.25;" width="43" x="331.81" y="23.3105"/><text fill="#000000" font-family="sans-serif" font-size="7" lengthAdjust="spacing" textLength="40" x="333.31" y="33.3643">Organization</text><line style="stroke:#181818;stroke-width:0.25;" x1="332.31" x2="374.31" y1="37.6211" y2="37.6211"/></g><!--class FleetManager--><g id="elem_FleetManager"><rect codeLine="23" fill="#F1F1F1" height="27.6211" id="FleetManager" rx="1.25" ry="1.25" style="stroke:#181818;stroke-width:0.25;" width="47" x="154.81" y="81.3105"/><text fill="#000000" font-family="sans-serif" font-size="7" lengthAdjust="spacing" textLength="44" x="156.31" y="91.3643">FleetManager</text><line style="stroke:#181818;stroke-width:0.25;" x1="155.31" x2="201.31" y1="95.6211" y2="95.6211"/><text fill="#000000" font-family="sans-serif" font-size="7" lengthAdjust="spacing" textLength="17.5" x="157.81" y="105.1748">name</text></g><!--class HumanResourcesManager--><g id="elem_HumanResourcesManager"><rect codeLine="26" fill="#F1F1F1" height="27.6211" id="HumanResourcesManager" rx="1.25" ry="1.25" style="stroke:#181818;stroke-width:0.25;" width="87" x="370.81" y="81.3105"/><text fill="#000000" font-family="sans-serif" font-size="7" lengthAdjust="spacing" textLength="84" x="372.31" y="91.3643">HumanResourcesManager</text><line style="stroke:#181818;stroke-width:0.25;" x1="371.31" x2="457.31" y1="95.6211" y2="95.6211"/><text fill="#000000" font-family="sans-serif" font-size="7" lengthAdjust="spacing" textLength="17.5" x="373.81" y="105.1748">name</text></g><!--class GreenSpaceManager--><g id="elem_GreenSpaceManager"><rect codeLine="29" fill="#F1F1F1" height="27.6211" id="GreenSpaceManager" rx="1.25" ry="1.25" style="stroke:#181818;stroke-width:0.25;" width="71" x="475.31" y="81.3105"/><text fill="#000000" font-family="sans-serif" font-size="7" lengthAdjust="spacing" textLength="68" x="476.81" y="91.3643">GreenSpaceManager</text><line style="stroke:#181818;stroke-width:0.25;" x1="475.81" x2="545.81" y1="95.6211" y2="95.6211"/><text fill="#000000" font-family="sans-serif" font-size="7" lengthAdjust="spacing" textLength="17.5" x="478.31" y="105.1748">name</text></g><!--class GreenSpaceUser--><g id="elem_GreenSpaceUser"><rect codeLine="32" fill="#F1F1F1" height="27.6211" id="GreenSpaceUser" rx="1.25" ry="1.25" style="stroke:#181818;stroke-width:0.25;" width="57.5" x="79.56" y="81.3105"/><text fill="#000000" font-family="sans-serif" font-size="7" lengthAdjust="spacing" textLength="54.5" x="81.06" y="91.3643">GreenSpaceUser</text><line style="stroke:#181818;stroke-width:0.25;" x1="80.06" x2="136.56" y1="95.6211" y2="95.6211"/><text fill="#000000" font-family="sans-serif" font-size="7" lengthAdjust="spacing" textLength="17.5" x="82.56" y="105.1748">name</text></g><!--class Equipment--><g id="elem_Equipment"><rect codeLine="36" fill="#F1F1F1" height="18.3105" id="Equipment" rx="1.25" ry="1.25" style="stroke:#181818;stroke-width:0.25;" width="36.5" x="67.06" y="190.0605"/><text fill="#000000" font-family="sans-serif" font-size="7" lengthAdjust="spacing" textLength="33.5" x="68.56" y="200.1143">Equipment</text><line style="stroke:#181818;stroke-width:0.25;" x1="67.56" x2="103.06" y1="204.3711" y2="204.3711"/></g><!--class Machine--><g id="elem_Machine"><rect codeLine="38" fill="#F1F1F1" height="18.3105" id="Machine" rx="1.25" ry="1.25" style="stroke:#181818;stroke-width:0.25;" width="29.5" x="121.06" y="190.0605"/><text fill="#000000" font-family="sans-serif" font-size="7" lengthAdjust="spacing" textLength="26.5" x="122.56" y="200.1143">Machine</text><line style="stroke:#181818;stroke-width:0.25;" x1="121.56" x2="150.06" y1="204.3711" y2="204.3711"/></g><!--class Vehicle--><g id="elem_Vehicle"><rect codeLine="40" fill="#F1F1F1" height="102.1055" id="Vehicle" rx="1.25" ry="1.25" style="stroke:#181818;stroke-width:0.25;" width="109" x="168.31" y="148.3105"/><text fill="#000000" font-family="sans-serif" font-size="7" lengthAdjust="spacing" textLength="23" x="211.31" y="158.3643">Vehicle</text><line style="stroke:#181818;stroke-width:0.25;" x1="168.81" x2="276.81" y1="162.6211" y2="162.6211"/><text fill="#000000" font-family="sans-serif" font-size="7" lengthAdjust="spacing" textLength="18.5" x="171.31" y="172.1748">brand</text><text fill="#000000" font-family="sans-serif" font-size="7" lengthAdjust="spacing" textLength="19" x="171.31" y="181.4854">model</text><text fill="#000000" font-family="sans-serif" font-size="7" lengthAdjust="spacing" textLength="12.5" x="171.31" y="190.7959">tare</text><text fill="#000000" font-family="sans-serif" font-size="7" lengthAdjust="spacing" textLength="39.5" x="171.31" y="200.1064">grossWeight</text><text fill="#000000" font-family="sans-serif" font-size="7" lengthAdjust="spacing" textLength="32.5" x="171.31" y="209.417">currentKm</text><text fill="#000000" font-family="sans-serif" font-size="7" lengthAdjust="spacing" textLength="39" x="171.31" y="218.7275">registerDate</text><text fill="#000000" font-family="sans-serif" font-size="7" lengthAdjust="spacing" textLength="48.5" x="171.31" y="228.0381">acquisitionDate</text><text fill="#000000" font-family="sans-serif" font-size="7" lengthAdjust="spacing" textLength="103" x="171.31" y="237.3486">maintenanceCheckUpFrequency</text><text fill="#000000" font-family="sans-serif" font-size="7" lengthAdjust="spacing" textLength="40" x="171.31" y="246.6592">plateNumber</text></g><!--class CheckUp--><g id="elem_CheckUp"><rect codeLine="51" fill="#F1F1F1" height="46.2422" id="CheckUp" rx="1.25" ry="1.25" style="stroke:#181818;stroke-width:0.25;" width="49.5" x="62.06" y="313.3105"/><text fill="#000000" font-family="sans-serif" font-size="7" lengthAdjust="spacing" textLength="28.5" x="72.56" y="323.3643">CheckUp</text><line style="stroke:#181818;stroke-width:0.25;" x1="62.56" x2="111.06" y1="327.6211" y2="327.6211"/><text fill="#000000" font-family="sans-serif" font-size="7" lengthAdjust="spacing" textLength="38.5" x="65.06" y="337.1748">CurrentKMS</text><text fill="#000000" font-family="sans-serif" font-size="7" lengthAdjust="spacing" textLength="6.5" x="65.06" y="346.4854">ID</text><text fill="#000000" font-family="sans-serif" font-size="7" lengthAdjust="spacing" textLength="43.5" x="65.06" y="355.7959">CheckUpDate</text></g><!--class VehicleType--><g id="elem_VehicleType"><rect codeLine="56" fill="#F1F1F1" height="46.2422" id="VehicleType" rx="1.25" ry="1.25" style="stroke:#181818;stroke-width:0.25;" width="55" x="195.31" y="313.3105"/><text fill="#000000" font-family="sans-serif" font-size="7" lengthAdjust="spacing" textLength="39" x="203.31" y="323.3643">VehicleType</text><line style="stroke:#181818;stroke-width:0.25;" x1="195.81" x2="249.81" y1="327.6211" y2="327.6211"/><text fill="#000000" font-family="sans-serif" font-size="7" lengthAdjust="spacing" textLength="44.5" x="198.31" y="337.1748">typeTransport</text><text fill="#000000" font-family="sans-serif" font-size="7" lengthAdjust="spacing" textLength="49" x="198.31" y="346.4854">packageWeight</text><text fill="#000000" font-family="sans-serif" font-size="7" lengthAdjust="spacing" textLength="28.5" x="198.31" y="355.7959">transport</text></g><!--class Job--><g id="elem_Job"><rect codeLine="62" fill="#F1F1F1" height="27.6211" id="Job" rx="1.25" ry="1.25" style="stroke:#181818;stroke-width:0.25;" width="23.5" x="499.56" y="185.5605"/><text fill="#000000" font-family="sans-serif" font-size="7" lengthAdjust="spacing" textLength="11" x="505.81" y="195.6143">Job</text><line style="stroke:#181818;stroke-width:0.25;" x1="500.06" x2="522.56" y1="199.8711" y2="199.8711"/><text fill="#000000" font-family="sans-serif" font-size="7" lengthAdjust="spacing" textLength="17.5" x="502.56" y="209.4248">name</text></g><!--class Collaborator--><g id="elem_Collaborator"><rect codeLine="65" fill="#F1F1F1" height="92.7949" id="Collaborator" rx="1.25" ry="1.25" style="stroke:#181818;stroke-width:0.25;" width="52.5" x="434.06" y="289.8105"/><text fill="#000000" font-family="sans-serif" font-size="7" lengthAdjust="spacing" textLength="39" x="440.81" y="299.8643">Collaborator</text><line style="stroke:#181818;stroke-width:0.25;" x1="434.56" x2="486.06" y1="304.1211" y2="304.1211"/><text fill="#000000" font-family="sans-serif" font-size="7" lengthAdjust="spacing" textLength="17.5" x="437.06" y="313.6748">name</text><text fill="#000000" font-family="sans-serif" font-size="7" lengthAdjust="spacing" textLength="25.5" x="437.06" y="322.9854">birthday</text><text fill="#000000" font-family="sans-serif" font-size="7" lengthAdjust="spacing" textLength="46.5" x="437.06" y="332.2959">admissionDate</text><text fill="#000000" font-family="sans-serif" font-size="7" lengthAdjust="spacing" textLength="25.5" x="437.06" y="341.6064">address</text><text fill="#000000" font-family="sans-serif" font-size="7" lengthAdjust="spacing" textLength="44.5" x="437.06" y="350.917">phoneNumber</text><text fill="#000000" font-family="sans-serif" font-size="7" lengthAdjust="spacing" textLength="16.5" x="437.06" y="360.2275">email</text><text fill="#000000" font-family="sans-serif" font-size="7" lengthAdjust="spacing" textLength="35" x="437.06" y="369.5381">IDDocType</text><text fill="#000000" font-family="sans-serif" font-size="7" lengthAdjust="spacing" textLength="31" x="437.06" y="378.8486">IDNumber</text></g><!--class Skill--><g id="elem_Skill"><rect codeLine="75" fill="#F1F1F1" height="27.6211" id="Skill" rx="1.25" ry="1.25" style="stroke:#181818;stroke-width:0.25;" width="23.5" x="509.56" y="422.3105"/><text fill="#000000" font-family="sans-serif" font-size="7" lengthAdjust="spacing" textLength="12.5" x="515.06" y="432.3643">Skill</text><line style="stroke:#181818;stroke-width:0.25;" x1="510.06" x2="532.56" y1="436.6211" y2="436.6211"/><text fill="#000000" font-family="sans-serif" font-size="7" lengthAdjust="spacing" textLength="17.5" x="512.56" y="446.1748">name</text></g><!--class Team--><g id="elem_Team"><rect codeLine="78" fill="#F1F1F1" height="46.2422" id="Team" rx="1.25" ry="1.25" style="stroke:#181818;stroke-width:0.25;" width="80" x="401.81" y="176.3105"/><text fill="#000000" font-family="sans-serif" font-size="7" lengthAdjust="spacing" textLength="18" x="432.81" y="186.3643">Team</text><line style="stroke:#181818;stroke-width:0.25;" x1="402.31" x2="481.31" y1="190.6211" y2="190.6211"/><text fill="#000000" font-family="sans-serif" font-size="7" lengthAdjust="spacing" textLength="25.5" x="404.81" y="200.1748">maxSize</text><text fill="#000000" font-family="sans-serif" font-size="7" lengthAdjust="spacing" textLength="74" x="404.81" y="209.4854">numberOfCollaborators</text><text fill="#000000" font-family="sans-serif" font-size="7" lengthAdjust="spacing" textLength="39.5" x="404.81" y="218.7959">skillsNeeded</text></g><!--class Agenda--><g id="elem_Agenda"><rect codeLine="84" fill="#F1F1F1" height="18.3105" id="Agenda" rx="1.25" ry="1.25" style="stroke:#181818;stroke-width:0.25;" width="27.5" x="724.06" y="23.3105"/><text fill="#000000" font-family="sans-serif" font-size="7" lengthAdjust="spacing" textLength="24.5" x="725.56" y="33.3643">Agenda</text><line style="stroke:#181818;stroke-width:0.25;" x1="724.56" x2="751.06" y1="37.6211" y2="37.6211"/></g><!--class Task--><g id="elem_Task"><rect codeLine="86" fill="#F1F1F1" height="18.3105" id="Task" rx="1.25" ry="1.25" style="stroke:#181818;stroke-width:0.25;" width="18.5" x="323.56" y="85.8105"/><text fill="#000000" font-family="sans-serif" font-size="7" lengthAdjust="spacing" textLength="15.5" x="325.06" y="95.8643">Task</text><line style="stroke:#181818;stroke-width:0.25;" x1="324.06" x2="341.56" y1="100.1211" y2="100.1211"/></g><!--link Organization to GreenSpace--><g id="link_Organization_GreenSpace"><path codeLine="89" d="M374.84,37.8755 C396.075,42.6355 429.445,50.1505 458.31,56.8105 C508.1,68.2955 566.485,82.1155 597.275,89.4355 " fill="none" id="Organization-GreenSpace" style="stroke:#181818;stroke-width:0.5;"/><polygon fill="#000000" points="502.7454,62.1978,498.6715,59.7451,498.0079,62.6081,502.7454,62.1978" style="stroke:#000000;stroke-width:0.5;"/><text fill="#000000" font-family="sans-serif" font-size="6.5" lengthAdjust="spacing" textLength="26.5" x="504.81" y="64.3247">manages</text><text fill="#000000" font-family="sans-serif" font-size="6.5" lengthAdjust="spacing" textLength="3.5" x="378.8413" y="36.6015">1</text><text fill="#000000" font-family="sans-serif" font-size="6.5" lengthAdjust="spacing" textLength="10" x="583.3777" y="86.5239">1..*</text></g><!--link MediumSizedPark to GreenSpace--><g id="link_MediumSizedPark_GreenSpace"><path codeLine="90" d="M569.975,41.8705 C580.815,53.5655 599.83,74.0805 610.66,85.7655 " fill="none" id="MediumSizedPark-GreenSpace" style="stroke:#181818;stroke-width:0.5;"/><polygon fill="#000000" points="596.0095,63.4668,594.0128,59.151,591.8574,61.1489,596.0095,63.4668" style="stroke:#000000;stroke-width:0.5;"/><text fill="#000000" font-family="sans-serif" font-size="6.5" lengthAdjust="spacing" textLength="10.5" x="598.81" y="64.3247">is a</text><text fill="#000000" font-family="sans-serif" font-size="6.5" lengthAdjust="spacing" textLength="3.5" x="568.199" y="52.574">1</text><text fill="#000000" font-family="sans-serif" font-size="6.5" lengthAdjust="spacing" textLength="3.5" x="604.1281" y="80.1828">1</text></g><!--link Garden to GreenSpace--><g id="link_Garden_GreenSpace"><path codeLine="91" d="M682.21,41.8705 C668.14,53.5655 643.45,74.0805 629.395,85.7655 " fill="none" id="Garden-GreenSpace" style="stroke:#181818;stroke-width:0.5;"/><polygon fill="#000000" points="662.8873,63.2312,667.3047,61.4707,665.4262,59.2104,662.8873,63.2312" style="stroke:#000000;stroke-width:0.5;"/><text fill="#000000" font-family="sans-serif" font-size="6.5" lengthAdjust="spacing" textLength="10.5" x="669.31" y="64.3247">is a</text><text fill="#000000" font-family="sans-serif" font-size="6.5" lengthAdjust="spacing" textLength="3.5" x="675.3909" y="52.574">1</text><text fill="#000000" font-family="sans-serif" font-size="6.5" lengthAdjust="spacing" textLength="3.5" x="628.6007" y="80.1828">1</text></g><!--link LargeSizedPark to GreenSpace--><g id="link_LargeSizedPark_GreenSpace"><path codeLine="92" d="M632.945,41.8705 C629.81,53.5655 624.305,74.0805 621.17,85.7655 " fill="none" id="LargeSizedPark-GreenSpace" style="stroke:#181818;stroke-width:0.5;"/><polygon fill="#000000" points="630.1623,64.0479,632.7533,60.0606,629.9147,59.2991,630.1623,64.0479" style="stroke:#000000;stroke-width:0.5;"/><text fill="#000000" font-family="sans-serif" font-size="6.5" lengthAdjust="spacing" textLength="10.5" x="635.31" y="64.3247">is a</text><text fill="#000000" font-family="sans-serif" font-size="6.5" lengthAdjust="spacing" textLength="3.5" x="628.3391" y="52.574">1</text><text fill="#000000" font-family="sans-serif" font-size="6.5" lengthAdjust="spacing" textLength="3.5" x="617.8568" y="80.1828">1</text></g><!--link Organization to FleetManager--><g id="link_Organization_FleetManager"><path codeLine="93" d="M331.675,40.6655 C298.665,52.2655 235.96,74.3005 201.845,86.2905 " fill="none" id="Organization-FleetManager" style="stroke:#181818;stroke-width:0.5;"/><polygon fill="#000000" points="281.4514,62.4622,286.2053,62.3491,285.231,59.5764,281.4514,62.4622" style="stroke:#000000;stroke-width:0.5;"/><text fill="#000000" font-family="sans-serif" font-size="6.5" lengthAdjust="spacing" textLength="10.5" x="288.31" y="64.3247">has</text><text fill="#000000" font-family="sans-serif" font-size="6.5" lengthAdjust="spacing" textLength="3.5" x="324.3019" y="39.8459">1</text><text fill="#000000" font-family="sans-serif" font-size="6.5" lengthAdjust="spacing" textLength="10" x="205.8577" y="82.9755">1..*</text></g><!--link Organization to HumanResourcesManager--><g id="link_Organization_HumanResourcesManager"><path codeLine="94" d="M362.05,41.8705 C372.265,52.1705 389.265,69.3105 401.095,81.2355 " fill="none" id="Organization-HumanResourcesManager" style="stroke:#181818;stroke-width:0.5;"/><polygon fill="#000000" points="389.5705,63.4083,387.429,59.1625,385.3424,61.2321,389.5705,63.4083" style="stroke:#000000;stroke-width:0.5;"/><text fill="#000000" font-family="sans-serif" font-size="6.5" lengthAdjust="spacing" textLength="10.5" x="392.31" y="64.3247">has</text><text fill="#000000" font-family="sans-serif" font-size="6.5" lengthAdjust="spacing" textLength="3.5" x="360.4286" y="52.574">1</text><text fill="#000000" font-family="sans-serif" font-size="6.5" lengthAdjust="spacing" textLength="10" x="386.8828" y="75.5727">1..*</text></g><!--link Organization to GreenSpaceManager--><g id="link_Organization_GreenSpaceManager"><path codeLine="95" d="M374.88,41.4805 C401.165,51.7455 445.89,69.2105 476.825,81.2905 " fill="none" id="Organization-GreenSpaceManager" style="stroke:#181818;stroke-width:0.5;"/><polygon fill="#000000" points="441.1387,62.5427,437.4605,59.5288,436.3915,62.2664,441.1387,62.5427" style="stroke:#000000;stroke-width:0.5;"/><text fill="#000000" font-family="sans-serif" font-size="6.5" lengthAdjust="spacing" textLength="10.5" x="443.31" y="64.3247">has</text><text fill="#000000" font-family="sans-serif" font-size="6.5" lengthAdjust="spacing" textLength="3.5" x="377.4499" y="52.5793">1</text><text fill="#000000" font-family="sans-serif" font-size="6.5" lengthAdjust="spacing" textLength="3.5" x="467.8531" y="77.0473">1</text></g><!--link Organization to GreenSpaceUser--><g id="link_Organization_GreenSpaceUser"><path codeLine="96" d="M331.685,37.0405 C293.66,44.2655 212.515,60.7305 145.81,81.3105 C142.975,82.1855 140.03,83.1405 137.1,84.1255 " fill="none" id="Organization-GreenSpaceUser" style="stroke:#181818;stroke-width:0.5;"/><polygon fill="#000000" points="236.3801,62.2213,241.1214,62.5859,240.4302,59.7294,236.3801,62.2213" style="stroke:#000000;stroke-width:0.5;"/><text fill="#000000" font-family="sans-serif" font-size="6.5" lengthAdjust="spacing" textLength="10.5" x="243.31" y="64.3247">has</text><text fill="#000000" font-family="sans-serif" font-size="6.5" lengthAdjust="spacing" textLength="3.5" x="324.3135" y="45.5284">1</text><text fill="#000000" font-family="sans-serif" font-size="6.5" lengthAdjust="spacing" textLength="10" x="141.007" y="80.8854">1..*</text></g><!--link Collaborator to Job--><g id="link_Collaborator_Job"><path codeLine="97" d="M451.805,289.6955 C452.24,281.0905 454.215,272.5405 458.81,265.3105 C467.235,252.0555 480,261.7055 490.81,250.3105 C500.645,239.9455 506.01,224.2355 508.755,213.0955 " fill="none" id="Collaborator-Job" style="stroke:#181818;stroke-width:0.5;"/><polygon fill="#000000" points="462.8016,268.127,458.924,270.8797,461.2825,272.6331,462.8016,268.127" style="stroke:#000000;stroke-width:0.5;"/><text fill="#000000" font-family="sans-serif" font-size="6.5" lengthAdjust="spacing" textLength="10.5" x="465.81" y="272.8247">has</text><text fill="#000000" font-family="sans-serif" font-size="6.5" lengthAdjust="spacing" textLength="10" x="440.7288" y="284.1704">0..*</text><text fill="#000000" font-family="sans-serif" font-size="6.5" lengthAdjust="spacing" textLength="3.5" x="508.5688" y="224.2831">1</text></g><!--link Job to Collaborator--><g id="link_Job_Collaborator"><path codeLine="102" d="M506.33,213.1005 C499.71,230.7455 487.685,262.8155 477.585,289.7505 " fill="none" id="Job-Collaborator" style="stroke:#181818;stroke-width:0.5;"/><polygon fill="#000000" points="487.4322,272.4741,490.3961,268.7555,487.6443,267.7236,487.4322,272.4741" style="stroke:#000000;stroke-width:0.5;"/><text fill="#000000" font-family="sans-serif" font-size="6.5" lengthAdjust="spacing" textLength="33.5" x="492.81" y="272.8247">assigned to</text><text fill="#000000" font-family="sans-serif" font-size="6.5" lengthAdjust="spacing" textLength="3.5" x="501.2737" y="224.2893">1</text><text fill="#000000" font-family="sans-serif" font-size="6.5" lengthAdjust="spacing" textLength="10" x="468.5632" y="284.2298">0..*</text></g><!--link Collaborator to Skill--><g id="link_Collaborator_Skill"><path codeLine="98" d="M486.605,373.9305 C491.82,381.7105 497.125,389.9405 501.81,397.8105 C506.53,405.7305 511.29,414.9205 514.925,422.2455 " fill="none" id="Collaborator-Skill" style="stroke:#181818;stroke-width:0.5;"/><polygon fill="#000000" points="510.5742,404.7901,509.555,400.1453,507.0195,401.6315,510.5742,404.7901" style="stroke:#000000;stroke-width:0.5;"/><text fill="#000000" font-family="sans-serif" font-size="6.5" lengthAdjust="spacing" textLength="10.5" x="513.81" y="405.3247">has</text><text fill="#000000" font-family="sans-serif" font-size="6.5" lengthAdjust="spacing" textLength="10" x="490.6147" y="376.7427">0..*</text><text fill="#000000" font-family="sans-serif" font-size="6.5" lengthAdjust="spacing" textLength="10" x="502.2922" y="416.585">1..*</text></g><!--link Skill to Collaborator--><g id="link_Skill_Collaborator"><path codeLine="103" d="M509.54,434.2455 C494.36,431.8455 468.515,425.2155 456.81,407.3105 C452.085,400.0805 450.225,391.4855 450.015,382.8255 " fill="none" id="Skill-Collaborator" style="stroke:#181818;stroke-width:0.5;"/><polygon fill="#000000" points="457.4181,400.999,459.88,405.0675,461.8012,402.8434,457.4181,400.999" style="stroke:#000000;stroke-width:0.5;"/><text fill="#000000" font-family="sans-serif" font-size="6.5" lengthAdjust="spacing" textLength="33.5" x="463.81" y="405.3247">assigned to</text><text fill="#000000" font-family="sans-serif" font-size="6.5" lengthAdjust="spacing" textLength="10" x="495.6619" y="431.36">1..*</text><text fill="#000000" font-family="sans-serif" font-size="6.5" lengthAdjust="spacing" textLength="10" x="438.8918" y="393.5806">0..*</text></g><!--link HumanResourcesManager to Job--><g id="link_HumanResourcesManager_Job"><path codeLine="99" d="M433.455,108.8705 C443.895,116.1155 457.05,125.2255 468.81,133.3105 C478.565,140.0155 483.38,139.1005 490.81,148.3105 C499.665,159.2805 505.155,174.5905 508.2,185.4705 " fill="none" id="HumanResourcesManager-Job" style="stroke:#181818;stroke-width:0.5;"/><polygon fill="#000000" points="473.056,130.4226,470.9492,126.1595,468.8458,128.212,473.056,130.4226" style="stroke:#000000;stroke-width:0.5;"/><text fill="#000000" font-family="sans-serif" font-size="6.5" lengthAdjust="spacing" textLength="21" x="475.81" y="131.3247">selects</text><text fill="#000000" font-family="sans-serif" font-size="6.5" lengthAdjust="spacing" textLength="3.5" x="433.7602" y="119.838">1</text><text fill="#000000" font-family="sans-serif" font-size="6.5" lengthAdjust="spacing" textLength="3.5" x="503.6369" y="180.0302">1</text></g><!--link HumanResourcesManager to Job--><g id="link_HumanResourcesManager_Job"><path codeLine="101" d="M457.99,107.9255 C477.265,113.7705 496.275,120.2405 499.31,123.8105 C513.995,141.0955 514.365,169.0105 513.025,185.4655 " fill="none" id="HumanResourcesManager-Job-1" style="stroke:#181818;stroke-width:0.5;"/><polygon fill="#000000" points="508.757,130.672,507.3377,126.1335,504.9411,127.8345,508.757,130.672" style="stroke:#000000;stroke-width:0.5;"/><text fill="#000000" font-family="sans-serif" font-size="6.5" lengthAdjust="spacing" textLength="21.5" x="511.81" y="131.3247">register</text><text fill="#000000" font-family="sans-serif" font-size="6.5" lengthAdjust="spacing" textLength="3.5" x="461.7522" y="107.1541">1</text><text fill="#000000" font-family="sans-serif" font-size="6.5" lengthAdjust="spacing" textLength="10" x="514.4939" y="180.0241">1..*</text></g><!--link HumanResourcesManager to Skill--><g id="link_HumanResourcesManager_Skill"><path codeLine="100" d="M457.825,106.6805 C460.86,107.4155 463.88,108.1305 466.81,108.8105 C498.23,116.0905 517.5,98.7605 537.81,123.8105 C577.51,172.7705 537.99,344.9505 528.81,407.3105 C528.085,412.2305 526.82,417.5255 525.525,422.1805 " fill="none" id="HumanResourcesManager-Skill" style="stroke:#181818;stroke-width:0.5;"/><polygon fill="#000000" points="553.8345,272.5777,554.3224,267.8475,551.4489,268.4641,553.8345,272.5777" style="stroke:#000000;stroke-width:0.5;"/><text fill="#000000" font-family="sans-serif" font-size="6.5" lengthAdjust="spacing" textLength="21" x="557.81" y="272.8247">selects</text><text fill="#000000" font-family="sans-serif" font-size="6.5" lengthAdjust="spacing" textLength="3.5" x="461.8564" y="115.1092">1</text><text fill="#000000" font-family="sans-serif" font-size="6.5" lengthAdjust="spacing" textLength="10" x="515.3533" y="416.7314">1..*</text></g><!--link HumanResourcesManager to Skill--><g id="link_HumanResourcesManager_Skill"><path codeLine="105" d="M457.94,106.8355 C460.935,107.5305 463.915,108.1955 466.81,108.8105 C504.975,116.9255 522.095,100.4005 553.31,123.8105 C563.01,131.0855 561.68,136.7405 565.31,148.3105 C596.555,247.8805 588.75,284.6555 553.31,382.8105 C549.255,394.0355 548.35,397.0155 542.31,407.3105 C539.34,412.3705 535.645,417.6105 532.185,422.1805 " fill="none" id="HumanResourcesManager-Skill-1" style="stroke:#181818;stroke-width:0.5;"/><polygon fill="#000000" points="587.3829,272.5668,587.7768,267.8278,584.9161,268.5014,587.3829,272.5668" style="stroke:#000000;stroke-width:0.5;"/><text fill="#000000" font-family="sans-serif" font-size="6.5" lengthAdjust="spacing" textLength="21.5" x="591.31" y="272.8247">register</text><text fill="#000000" font-family="sans-serif" font-size="6.5" lengthAdjust="spacing" textLength="3.5" x="461.8999" y="116.7063">1</text><text fill="#000000" font-family="sans-serif" font-size="6.5" lengthAdjust="spacing" textLength="10" x="535.6577" y="416.7314">1..*</text></g><!--link HumanResourcesManager to Collaborator--><g id="link_HumanResourcesManager_Collaborator"><path codeLine="104" d="M399.435,108.8805 C386.07,121.2405 367.99,139.0805 364.31,148.3105 C347.525,190.4205 345.76,208.9455 364.31,250.3105 C378.465,281.8755 410.675,306.5605 433.885,321.1255 " fill="none" id="HumanResourcesManager-Collaborator" style="stroke:#181818;stroke-width:0.5;"/><polygon fill="#000000" points="367.2105,201.851,367.9364,197.1515,365.0355,197.6223,367.2105,201.851" style="stroke:#000000;stroke-width:0.5;"/><text fill="#000000" font-family="sans-serif" font-size="6.5" lengthAdjust="spacing" textLength="21.5" x="371.31" y="202.0747">register</text><text fill="#000000" font-family="sans-serif" font-size="6.5" lengthAdjust="spacing" textLength="3.5" x="392.2983" y="119.8502">1</text><text fill="#000000" font-family="sans-serif" font-size="6.5" lengthAdjust="spacing" textLength="10" x="420.0551" y="317.2924">1..*</text></g><!--link HumanResourcesManager to Team--><g id="link_HumanResourcesManager_Team"><path codeLine="106" d="M412.185,108.9755 C411.425,116.2455 411.13,125.3555 412.81,133.3105 C415.975,148.2755 422.795,163.9805 429.025,176.2605 " fill="none" id="HumanResourcesManager-Team" style="stroke:#181818;stroke-width:0.5;"/><polygon fill="#000000" points="415.917,131.0585,416.2444,126.3145,413.3935,127.028,415.917,131.0585" style="stroke:#000000;stroke-width:0.5;"/><text fill="#000000" font-family="sans-serif" font-size="6.5" lengthAdjust="spacing" textLength="28.5" x="419.81" y="131.3247">generates</text><text fill="#000000" font-family="sans-serif" font-size="6.5" lengthAdjust="spacing" textLength="3.5" x="407.8373" y="119.966">1</text><text fill="#000000" font-family="sans-serif" font-size="6.5" lengthAdjust="spacing" textLength="10" x="427.8816" y="170.7579">1..*</text></g><!--link FleetManager to Vehicle--><g id="link_FleetManager_Vehicle"><path codeLine="107" d="M184.035,108.8455 C188.405,118.9755 194.715,133.6205 200.98,148.1605 " fill="none" id="FleetManager-Vehicle" style="stroke:#181818;stroke-width:0.5;"/><polygon fill="#000000" points="197.7995,130.9291,197.3589,126.1943,194.66,127.3576,197.7995,130.9291" style="stroke:#000000;stroke-width:0.5;"/><text fill="#000000" font-family="sans-serif" font-size="6.5" lengthAdjust="spacing" textLength="21.5" x="201.31" y="131.3247">register</text><text fill="#000000" font-family="sans-serif" font-size="6.5" lengthAdjust="spacing" textLength="3.5" x="181.4542" y="120.0331">1</text><text fill="#000000" font-family="sans-serif" font-size="6.5" lengthAdjust="spacing" textLength="10" x="189.0097" y="142.6077">1..*</text></g><!--link FleetManager to Equipment--><g id="link_FleetManager_Equipment"><path codeLine="108" d="M154.725,105.1705 C135.59,113.0055 111.64,122.9205 110.81,123.8105 C93.07,142.8105 87.625,174.6355 85.99,189.9905 " fill="none" id="FleetManager-Equipment" style="stroke:#181818;stroke-width:0.5;"/><polygon fill="#000000" points="111.736,130.5756,115.725,127.9871,113.4417,126.1368,111.736,130.5756" style="stroke:#000000;stroke-width:0.5;"/><text fill="#000000" font-family="sans-serif" font-size="6.5" lengthAdjust="spacing" textLength="26.5" x="117.81" y="131.3247">manages</text><text fill="#000000" font-family="sans-serif" font-size="6.5" lengthAdjust="spacing" textLength="3.5" x="147.3456" y="104.5839">1</text><text fill="#000000" font-family="sans-serif" font-size="6.5" lengthAdjust="spacing" textLength="10" x="74.667" y="184.4002">1..*</text></g><!--link FleetManager to Machine--><g id="link_FleetManager_Machine"><path codeLine="109" d="M163.77,108.8455 C159.69,113.2505 155.61,118.4155 152.81,123.8105 C141.375,145.8555 137.58,175.4555 136.365,190.0005 " fill="none" id="FleetManager-Machine" style="stroke:#181818;stroke-width:0.5;"/><polygon fill="#000000" points="154.5102,131.0019,157.3493,127.1872,154.5649,126.2469,154.5102,131.0019" style="stroke:#000000;stroke-width:0.5;"/><text fill="#000000" font-family="sans-serif" font-size="6.5" lengthAdjust="spacing" textLength="26.5" x="159.81" y="131.3247">manages</text><text fill="#000000" font-family="sans-serif" font-size="6.5" lengthAdjust="spacing" textLength="3.5" x="156.5029" y="120.0331">1</text><text fill="#000000" font-family="sans-serif" font-size="6.5" lengthAdjust="spacing" textLength="10" x="125.0037" y="184.4132">1..*</text></g><!--link FleetManager to CheckUp--><g id="link_FleetManager_CheckUp"><path codeLine="110" d="M154.775,105.3755 C151.77,106.5655 148.725,107.7355 145.81,108.8105 C94.505,127.7005 61.045,103.7905 29.31,148.3105 C3,185.2255 16.085,206.9505 29.31,250.3105 C36.54,274.0105 52.775,297.0905 66.16,313.2855 " fill="none" id="FleetManager-CheckUp" style="stroke:#181818;stroke-width:0.5;"/><polygon fill="#000000" points="30.8298,201.6831,33.9548,198.0989,31.2512,196.9465,30.8298,201.6831" style="stroke:#000000;stroke-width:0.5;"/><text fill="#000000" font-family="sans-serif" font-size="6.5" lengthAdjust="spacing" textLength="21.5" x="36.31" y="202.0747">register</text><text fill="#000000" font-family="sans-serif" font-size="6.5" lengthAdjust="spacing" textLength="3.5" x="147.2452" y="114.7129">1</text><text fill="#000000" font-family="sans-serif" font-size="6.5" lengthAdjust="spacing" textLength="10" x="52.2323" y="307.6158">1..*</text></g><!--link Vehicle to CheckUp--><g id="link_Vehicle_CheckUp"><path codeLine="111" d="M172.17,250.4505 C150.57,272.0505 126.465,296.1555 109.395,313.2255 " fill="none" id="Vehicle-CheckUp" style="stroke:#181818;stroke-width:0.5;"/><polygon fill="#000000" points="155.5422,271.9011,159.7792,269.7422,157.7011,267.6641,155.5422,271.9011" style="stroke:#000000;stroke-width:0.5;"/><text fill="#000000" font-family="sans-serif" font-size="6.5" lengthAdjust="spacing" textLength="14" x="161.81" y="272.8247">need</text><text fill="#000000" font-family="sans-serif" font-size="6.5" lengthAdjust="spacing" textLength="10" x="158.2578" y="261.3607">0..*</text><text fill="#000000" font-family="sans-serif" font-size="6.5" lengthAdjust="spacing" textLength="3.5" x="108.9551" y="307.7178">1</text></g><!--link Vehicle to VehicleType--><g id="link_Vehicle_VehicleType"><path codeLine="112" d="M222.81,250.4505 C222.81,272.0505 222.81,296.1555 222.81,313.2255 " fill="none" id="Vehicle-VehicleType" style="stroke:#181818;stroke-width:0.5;"/><polygon fill="#000000" points="225.31,272.6333,226.7795,268.1108,223.8405,268.1108,225.31,272.6333" style="stroke:#000000;stroke-width:0.5;"/><text fill="#000000" font-family="sans-serif" font-size="6.5" lengthAdjust="spacing" textLength="37" x="229.81" y="272.8247">cataloged as</text><text fill="#000000" font-family="sans-serif" font-size="6.5" lengthAdjust="spacing" textLength="10" x="212.4584" y="261.3607">0..*</text><text fill="#000000" font-family="sans-serif" font-size="6.5" lengthAdjust="spacing" textLength="3.5" x="219.053" y="307.7178">1</text></g><!--link Team to Collaborator--><g id="link_Team_Collaborator"><path codeLine="113" d="M428.78,222.3405 C421.805,237.2555 415.62,257.2405 420.81,274.8105 C423.67,284.4905 428.6,294.0755 434.03,302.6855 " fill="none" id="Team-Collaborator" style="stroke:#181818;stroke-width:0.5;"/><polygon fill="#000000" points="423.473,272.628,424.6445,268.0192,421.7118,268.2109,423.473,272.628" style="stroke:#000000;stroke-width:0.5;"/><text fill="#000000" font-family="sans-serif" font-size="6.5" lengthAdjust="spacing" textLength="10.5" x="427.81" y="272.8247">has</text><text fill="#000000" font-family="sans-serif" font-size="6.5" lengthAdjust="spacing" textLength="3.5" x="423.0168" y="233.5246">1</text><text fill="#000000" font-family="sans-serif" font-size="6.5" lengthAdjust="spacing" textLength="10" x="420.0223" y="296.3694">2..*</text></g><!--link Task to Skill--><g id="link_Task_Skill"><path codeLine="114" d="M331.86,104.3105 C329.315,130.9255 323.975,212.8655 346.81,274.8105 C372.475,344.4105 386.8,365.8455 448.31,407.3105 C467.86,420.4905 494.445,428.7805 509.545,432.7555 " fill="none" id="Task-Skill" style="stroke:#181818;stroke-width:0.5;"/><polygon fill="#000000" points="350.4996,272.3322,349.6401,267.6552,347.0552,269.0536,350.4996,272.3322" style="stroke:#000000;stroke-width:0.5;"/><text fill="#000000" font-family="sans-serif" font-size="6.5" lengthAdjust="spacing" textLength="14" x="353.81" y="272.8247">need</text><text fill="#000000" font-family="sans-serif" font-size="6.5" lengthAdjust="spacing" textLength="3.5" x="327.6006" y="115.1687">1</text><text fill="#000000" font-family="sans-serif" font-size="6.5" lengthAdjust="spacing" textLength="10" x="495.4585" y="440.003">1..*</text></g><!--link Organization to Task--><g id="link_Organization_Task"><path codeLine="115" d="M350.375,41.8705 C346.475,53.5655 339.635,74.0805 335.74,85.7655 " fill="none" id="Organization-Task" style="stroke:#181818;stroke-width:0.5;"/><polygon fill="#000000" points="346.5193,64.005,349.3437,60.1794,346.5557,59.2498,346.5193,64.005" style="stroke:#000000;stroke-width:0.5;"/><text fill="#000000" font-family="sans-serif" font-size="6.5" lengthAdjust="spacing" textLength="10.5" x="351.81" y="64.3247">has</text><text fill="#000000" font-family="sans-serif" font-size="6.5" lengthAdjust="spacing" textLength="3.5" x="345.6159" y="52.574">1</text><text fill="#000000" font-family="sans-serif" font-size="6.5" lengthAdjust="spacing" textLength="10" x="325.1061" y="80.1828">0..*</text></g><!--link Task to Team--><g id="link_Task_Team"><path codeLine="116" d="M339.58,104.3605 C345.985,112.3905 356.115,124.3355 366.31,133.3105 C375.195,141.1305 379.09,140.8905 388.31,148.3105 C399.01,156.9155 410.155,167.2005 419.49,176.2355 " fill="none" id="Task-Team" style="stroke:#181818;stroke-width:0.5;"/><polygon fill="#000000" points="370.6687,130.3051,368.2889,126.1882,366.3236,128.3733,370.6687,130.3051" style="stroke:#000000;stroke-width:0.5;"/><text fill="#000000" font-family="sans-serif" font-size="6.5" lengthAdjust="spacing" textLength="33.5" x="373.31" y="131.3247">assigned to</text><text fill="#000000" font-family="sans-serif" font-size="6.5" lengthAdjust="spacing" textLength="10" x="342.7432" y="115.0613">1..*</text><text fill="#000000" font-family="sans-serif" font-size="6.5" lengthAdjust="spacing" textLength="3.5" x="412.4547" y="170.7292">1</text></g><!--SRC=[bLLDRzim3BtxLmWv3cZHxPZ3WA9PjsvBEopfUcOarXQY3rUIiRN5_ljaINPamtFIN29HZ-GZnIVRFLSr6914QgLfPRH4uao3XUrFQg1xA77ZdWKIWzI1AaKEi1Km_PkhaZo2i5XaHrI0jPVE6Rvh7DvGhJRy1Sb5KN66X793VQImbkWgpMnHEEvydfMMm1LPQuQYA48OiaR66za6O3_0xCbhyJUTV0VZ2KuSV0R3KEK6WwWslYGCncIzCoKe_WAEQvNRhmMYMuFovHjl9_wdG68VxKiZGVr4gnj3qSu03sbF0jtRCI91FZqrl9QeN5RI6cZ55MQMNrXntzWKOMT0iR2IePljoe71i2YDjlO1ULcviAUDCJxyDnbs1ajk7PeLk0W7wWbOtlQfjxKNvL21edXL8TtVrzS6dnfKz3cSry8ZRnkvGzCpJC34y2ebNM_2zcOLhH4JyemgspxNNNNEBxU-Gbjh4qj8yveLvVhplf5VzMxg2gwq4B3J1fmUN43e8pUkOX2B0YQvjNaRW363raOAbLPToUqUVOz4gcsbQKi_xKPzsUov45F4jkZLz9hw_QSTzOW9xdUFEUz8mRQHx2qYGtOe-x94nI0RbItOg9TYe875-mKvE_D_v-Vl5hbebZvzEy2MV2p6UkoTHXxS4l3mfCKZg96KZw1dI0-qkoGLs7dyj9Rd7HSJmZuXrKZedSTW-1ON0PhIjEDw51PMSO8wx7HH6VyOsABmxxebnpq6ETxe5dDrRqhhrLewJ2naKDoI-17bfK96dFRmc3T5Ez7d56AZ03t3jtNZZMv1qKlY1Oa-SH3KO6I7wEv97wIPmHy-5BbYPnowhyWylEzOUhy7T3gEmz4zG9L_ZFuBor_s9Q7WGEZIuyCOXrvrV3zCtLaSz_2QJTzEIZwfoaWaE8yYvGpJXGt7wny0]--></g></svg>