<?xml version="1.0" encoding="us-ascii" standalone="no"?><svg xmlns="http://www.w3.org/2000/svg" xmlns:xlink="http://www.w3.org/1999/xlink" contentStyleType="text/css" height="420.8px" preserveAspectRatio="none" style="width:578px;height:420px;background:#FFFFFF;" version="1.1" viewBox="0 0 578 420" width="578.4px" zoomAndPan="magnify"><defs/><g><!--class ListGreenSpacesByGSMUI--><g id="elem_ListGreenSpacesByGSMUI"><rect codeLine="9" fill="#F1F1F1" height="19.2" id="ListGreenSpacesByGSMUI" rx="1" ry="1" style="stroke:#181818;stroke-width:0.20000000000000004;" width="80" x="302.6" y="2.8"/><ellipse cx="308.6" cy="9.2" fill="#ADD1B2" rx="4.4" ry="4.4" style="stroke:#181818;stroke-width:0.4000000000000001;"/><path d="M309.7063,7.55 Q309.7688,7.4625 309.8438,7.4188 Q309.9188,7.375 310.0063,7.375 Q310.1563,7.375 310.25,7.4813 Q310.3438,7.5813 310.3438,7.825 L310.3438,8.4063 Q310.3438,8.65 310.25,8.7563 Q310.1563,8.8625 310.0063,8.8625 Q309.8688,8.8625 309.7875,8.7813 Q309.7063,8.7063 309.6625,8.5 Q309.6438,8.3563 309.5688,8.2813 Q309.4375,8.1313 309.1938,8.0438 Q308.95,7.9563 308.7,7.9563 Q308.3938,7.9563 308.1375,8.0875 Q307.8875,8.2188 307.6875,8.5188 Q307.4938,8.8188 307.4938,9.2313 L307.4938,9.6688 Q307.4938,10.1625 307.85,10.4938 Q308.2063,10.8188 308.8438,10.8188 Q309.2188,10.8188 309.4813,10.7188 Q309.6375,10.6563 309.8063,10.4813 Q309.9125,10.375 309.9688,10.3438 Q310.0313,10.3125 310.1125,10.3125 Q310.2438,10.3125 310.3438,10.4188 Q310.45,10.5188 310.45,10.6563 Q310.45,10.7938 310.3125,10.9563 Q310.1125,11.1875 309.7938,11.3188 Q309.3625,11.5 308.8438,11.5 Q308.2375,11.5 307.7563,11.25 Q307.3625,11.05 307.0875,10.625 Q306.8125,10.1938 306.8125,9.6813 L306.8125,9.2188 Q306.8125,8.6875 307.0563,8.2313 Q307.3063,7.7688 307.7438,7.525 Q308.1813,7.275 308.675,7.275 Q308.9688,7.275 309.225,7.3438 Q309.4875,7.4063 309.7063,7.55 Z " fill="#000000"/><text fill="#000000" font-family="sans-serif" font-size="5.6" lengthAdjust="spacing" textLength="67.2" x="314.2" y="11.5188">ListGreenSpacesByGSMUI</text><line style="stroke:#181818;stroke-width:0.20000000000000004;" x1="303" x2="382.2" y1="15.6" y2="15.6"/><line style="stroke:#181818;stroke-width:0.20000000000000004;" x1="303" x2="382.2" y1="18.8" y2="18.8"/></g><!--class ListGreenSpacesByGSMController--><g id="elem_ListGreenSpacesByGSMController"><rect codeLine="12" fill="#F1F1F1" height="48.9938" id="ListGreenSpacesByGSMController" rx="1" ry="1" style="stroke:#181818;stroke-width:0.20000000000000004;" width="223.2" x="231" y="46.4"/><ellipse cx="297.3" cy="52.8" fill="#ADD1B2" rx="4.4" ry="4.4" style="stroke:#181818;stroke-width:0.4000000000000001;"/><path d="M298.4063,51.15 Q298.4688,51.0625 298.5438,51.0188 Q298.6188,50.975 298.7063,50.975 Q298.8563,50.975 298.95,51.0813 Q299.0438,51.1813 299.0438,51.425 L299.0438,52.0063 Q299.0438,52.25 298.95,52.3563 Q298.8563,52.4625 298.7063,52.4625 Q298.5688,52.4625 298.4875,52.3813 Q298.4063,52.3063 298.3625,52.1 Q298.3438,51.9563 298.2688,51.8813 Q298.1375,51.7313 297.8938,51.6438 Q297.65,51.5563 297.4,51.5563 Q297.0938,51.5563 296.8375,51.6875 Q296.5875,51.8188 296.3875,52.1188 Q296.1938,52.4188 296.1938,52.8313 L296.1938,53.2688 Q296.1938,53.7625 296.55,54.0938 Q296.9063,54.4188 297.5438,54.4188 Q297.9188,54.4188 298.1813,54.3188 Q298.3375,54.2563 298.5063,54.0813 Q298.6125,53.975 298.6688,53.9438 Q298.7313,53.9125 298.8125,53.9125 Q298.9438,53.9125 299.0438,54.0188 Q299.15,54.1188 299.15,54.2563 Q299.15,54.3938 299.0125,54.5563 Q298.8125,54.7875 298.4938,54.9188 Q298.0625,55.1 297.5438,55.1 Q296.9375,55.1 296.4563,54.85 Q296.0625,54.65 295.7875,54.225 Q295.5125,53.7938 295.5125,53.2813 L295.5125,52.8188 Q295.5125,52.2875 295.7563,51.8313 Q296.0063,51.3688 296.4438,51.125 Q296.8813,50.875 297.375,50.875 Q297.6688,50.875 297.925,50.9438 Q298.1875,51.0063 298.4063,51.15 Z " fill="#000000"/><text fill="#000000" font-family="sans-serif" font-size="5.6" lengthAdjust="spacing" textLength="87.2" x="305.5" y="55.1188">ListGreenSpacesByGSMController</text><line style="stroke:#181818;stroke-width:0.20000000000000004;" x1="231.4" x2="453.8" y1="59.2" y2="59.2"/><line style="stroke:#181818;stroke-width:0.20000000000000004;" x1="231.4" x2="453.8" y1="62.4" y2="62.4"/><text fill="#000000" font-family="sans-serif" font-size="5.6" lengthAdjust="spacing" textLength="218.4" x="233.4" y="70.043">+ListGreenSpacesByGSMController(authenticationRepository, greenSpaceRepository)</text><text fill="#000000" font-family="sans-serif" font-size="5.6" lengthAdjust="spacing" textLength="59.6" x="233.4" y="77.4914">-getGSMFromSession()</text><text fill="#000000" font-family="sans-serif" font-size="5.6" lengthAdjust="spacing" textLength="55.6" x="233.4" y="84.9398">+sortListByAlgorithm()</text><text fill="#000000" font-family="sans-serif" font-size="5.6" lengthAdjust="spacing" textLength="46.4" x="233.4" y="92.3883">+getSortListDTO()</text></g><!--class GreenSpaceRepository--><g id="elem_GreenSpaceRepository"><rect codeLine="19" fill="#F1F1F1" height="34.0969" id="GreenSpaceRepository" rx="1" ry="1" style="stroke:#181818;stroke-width:0.20000000000000004;" width="123.2" x="132.6" y="200.2"/><ellipse cx="162.9" cy="206.6" fill="#ADD1B2" rx="4.4" ry="4.4" style="stroke:#181818;stroke-width:0.4000000000000001;"/><path d="M164.0063,204.95 Q164.0688,204.8625 164.1438,204.8188 Q164.2188,204.775 164.3063,204.775 Q164.4563,204.775 164.55,204.8813 Q164.6438,204.9813 164.6438,205.225 L164.6438,205.8063 Q164.6438,206.05 164.55,206.1563 Q164.4563,206.2625 164.3063,206.2625 Q164.1688,206.2625 164.0875,206.1813 Q164.0063,206.1063 163.9625,205.9 Q163.9438,205.7563 163.8688,205.6813 Q163.7375,205.5313 163.4938,205.4438 Q163.25,205.3563 163,205.3563 Q162.6938,205.3563 162.4375,205.4875 Q162.1875,205.6188 161.9875,205.9188 Q161.7938,206.2188 161.7938,206.6313 L161.7938,207.0688 Q161.7938,207.5625 162.15,207.8938 Q162.5063,208.2188 163.1438,208.2188 Q163.5188,208.2188 163.7813,208.1188 Q163.9375,208.0563 164.1063,207.8813 Q164.2125,207.775 164.2688,207.7438 Q164.3313,207.7125 164.4125,207.7125 Q164.5438,207.7125 164.6438,207.8188 Q164.75,207.9188 164.75,208.0563 Q164.75,208.1938 164.6125,208.3563 Q164.4125,208.5875 164.0938,208.7188 Q163.6625,208.9 163.1438,208.9 Q162.5375,208.9 162.0563,208.65 Q161.6625,208.45 161.3875,208.025 Q161.1125,207.5938 161.1125,207.0813 L161.1125,206.6188 Q161.1125,206.0875 161.3563,205.6313 Q161.6063,205.1688 162.0438,204.925 Q162.4813,204.675 162.975,204.675 Q163.2688,204.675 163.525,204.7438 Q163.7875,204.8063 164.0063,204.95 Z " fill="#000000"/><text fill="#000000" font-family="sans-serif" font-size="5.6" lengthAdjust="spacing" textLength="59.2" x="171.1" y="208.9188">GreenSpaceRepository</text><line style="stroke:#181818;stroke-width:0.20000000000000004;" x1="133" x2="255.4" y1="213" y2="213"/><line style="stroke:#181818;stroke-width:0.20000000000000004;" x1="133" x2="255.4" y1="216.2" y2="216.2"/><text fill="#000000" font-family="sans-serif" font-size="5.6" lengthAdjust="spacing" textLength="118.4" x="135" y="223.843">+getGreenSpaceListByGSM(gsmFromSession)</text><text fill="#000000" font-family="sans-serif" font-size="5.6" lengthAdjust="spacing" textLength="99.2" x="135" y="231.2914">+sortListByAlgorithm(gsmFromSession)</text></g><!--class GreenSpace--><g id="elem_GreenSpace"><rect codeLine="24" fill="#F1F1F1" height="63.8906" id="GreenSpace" rx="1" ry="1" style="stroke:#181818;stroke-width:0.20000000000000004;" width="169.6" x="45" y="273.6"/><ellipse cx="112.1" cy="280" fill="#ADD1B2" rx="4.4" ry="4.4" style="stroke:#181818;stroke-width:0.4000000000000001;"/><path d="M113.2063,278.35 Q113.2688,278.2625 113.3438,278.2188 Q113.4188,278.175 113.5063,278.175 Q113.6563,278.175 113.75,278.2813 Q113.8438,278.3813 113.8438,278.625 L113.8438,279.2063 Q113.8438,279.45 113.75,279.5563 Q113.6563,279.6625 113.5063,279.6625 Q113.3688,279.6625 113.2875,279.5813 Q113.2063,279.5063 113.1625,279.3 Q113.1438,279.1563 113.0688,279.0813 Q112.9375,278.9313 112.6938,278.8438 Q112.45,278.7563 112.2,278.7563 Q111.8938,278.7563 111.6375,278.8875 Q111.3875,279.0188 111.1875,279.3188 Q110.9938,279.6188 110.9938,280.0313 L110.9938,280.4688 Q110.9938,280.9625 111.35,281.2938 Q111.7063,281.6188 112.3438,281.6188 Q112.7188,281.6188 112.9813,281.5188 Q113.1375,281.4563 113.3063,281.2813 Q113.4125,281.175 113.4688,281.1438 Q113.5313,281.1125 113.6125,281.1125 Q113.7438,281.1125 113.8438,281.2188 Q113.95,281.3188 113.95,281.4563 Q113.95,281.5938 113.8125,281.7563 Q113.6125,281.9875 113.2938,282.1188 Q112.8625,282.3 112.3438,282.3 Q111.7375,282.3 111.2563,282.05 Q110.8625,281.85 110.5875,281.425 Q110.3125,280.9938 110.3125,280.4813 L110.3125,280.0188 Q110.3125,279.4875 110.5563,279.0313 Q110.8063,278.5688 111.2438,278.325 Q111.6813,278.075 112.175,278.075 Q112.4688,278.075 112.725,278.1438 Q112.9875,278.2063 113.2063,278.35 Z " fill="#000000"/><text fill="#000000" font-family="sans-serif" font-size="5.6" lengthAdjust="spacing" textLength="32" x="120.3" y="282.3188">GreenSpace</text><line style="stroke:#181818;stroke-width:0.20000000000000004;" x1="45.4" x2="214.2" y1="286.4" y2="286.4"/><text fill="#000000" font-family="sans-serif" font-size="5.6" lengthAdjust="spacing" textLength="32.4" x="47.4" y="294.043">-String name</text><text fill="#000000" font-family="sans-serif" font-size="5.6" lengthAdjust="spacing" textLength="44.8" x="47.4" y="301.4914">-Address address</text><text fill="#000000" font-family="sans-serif" font-size="5.6" lengthAdjust="spacing" textLength="59.2" x="47.4" y="308.9398">-GreenSpaceType type</text><text fill="#000000" font-family="sans-serif" font-size="5.6" lengthAdjust="spacing" textLength="32.4" x="47.4" y="316.3883">-double area</text><text fill="#000000" font-family="sans-serif" font-size="5.6" lengthAdjust="spacing" textLength="116.8" x="47.4" y="323.8367">-GreenSpacesManager greenSpacesManager</text><line style="stroke:#181818;stroke-width:0.20000000000000004;" x1="45.4" x2="214.2" y1="326.8422" y2="326.8422"/><text fill="#000000" font-family="sans-serif" font-size="5.6" lengthAdjust="spacing" textLength="164.8" x="47.4" y="334.4852">+GreenSpace(name, address, type, area, greenSpacesManager)</text></g><!--class GreenSpaceManager--><g id="elem_GreenSpaceManager"><rect codeLine="33" fill="#F1F1F1" height="34.0969" id="GreenSpaceManager" rx="1" ry="1" style="stroke:#181818;stroke-width:0.20000000000000004;" width="79.6" x="2.8" y="376.6"/><ellipse cx="14.38" cy="383" fill="#ADD1B2" rx="4.4" ry="4.4" style="stroke:#181818;stroke-width:0.4000000000000001;"/><path d="M15.4863,381.35 Q15.5488,381.2625 15.6238,381.2188 Q15.6988,381.175 15.7863,381.175 Q15.9363,381.175 16.03,381.2813 Q16.1238,381.3813 16.1238,381.625 L16.1238,382.2063 Q16.1238,382.45 16.03,382.5563 Q15.9363,382.6625 15.7863,382.6625 Q15.6488,382.6625 15.5675,382.5813 Q15.4863,382.5063 15.4425,382.3 Q15.4238,382.1563 15.3488,382.0813 Q15.2175,381.9313 14.9738,381.8438 Q14.73,381.7563 14.48,381.7563 Q14.1738,381.7563 13.9175,381.8875 Q13.6675,382.0188 13.4675,382.3188 Q13.2738,382.6188 13.2738,383.0313 L13.2738,383.4688 Q13.2738,383.9625 13.63,384.2938 Q13.9863,384.6188 14.6238,384.6188 Q14.9988,384.6188 15.2613,384.5188 Q15.4175,384.4563 15.5863,384.2813 Q15.6925,384.175 15.7488,384.1438 Q15.8113,384.1125 15.8925,384.1125 Q16.0238,384.1125 16.1238,384.2188 Q16.23,384.3188 16.23,384.4563 Q16.23,384.5938 16.0925,384.7563 Q15.8925,384.9875 15.5738,385.1188 Q15.1425,385.3 14.6238,385.3 Q14.0175,385.3 13.5363,385.05 Q13.1425,384.85 12.8675,384.425 Q12.5925,383.9938 12.5925,383.4813 L12.5925,383.0188 Q12.5925,382.4875 12.8363,382.0313 Q13.0863,381.5688 13.5238,381.325 Q13.9613,381.075 14.455,381.075 Q14.7488,381.075 15.005,381.1438 Q15.2675,381.2063 15.4863,381.35 Z " fill="#000000"/><text fill="#000000" font-family="sans-serif" font-size="5.6" lengthAdjust="spacing" textLength="54.4" x="21.22" y="385.3188">GreenSpaceManager</text><line style="stroke:#181818;stroke-width:0.20000000000000004;" x1="3.2" x2="82" y1="389.4" y2="389.4"/><text fill="#000000" font-family="sans-serif" font-size="5.6" lengthAdjust="spacing" textLength="31.6" x="5.2" y="397.043">-String email</text><line style="stroke:#181818;stroke-width:0.20000000000000004;" x1="3.2" x2="82" y1="400.0484" y2="400.0484"/><text fill="#000000" font-family="sans-serif" font-size="5.6" lengthAdjust="spacing" textLength="74.8" x="5.2" y="407.6914">+GreenSpaceManager(email)</text></g><!--class Address--><g id="elem_Address"><rect codeLine="38" fill="#F1F1F1" height="48.9938" id="Address" rx="1" ry="1" style="stroke:#181818;stroke-width:0.20000000000000004;" width="66.8" x="96.4" y="369.2"/><ellipse cx="117.7" cy="375.6" fill="#ADD1B2" rx="4.4" ry="4.4" style="stroke:#181818;stroke-width:0.4000000000000001;"/><path d="M118.8063,373.95 Q118.8688,373.8625 118.9438,373.8188 Q119.0188,373.775 119.1063,373.775 Q119.2563,373.775 119.35,373.8813 Q119.4438,373.9813 119.4438,374.225 L119.4438,374.8063 Q119.4438,375.05 119.35,375.1563 Q119.2563,375.2625 119.1063,375.2625 Q118.9688,375.2625 118.8875,375.1813 Q118.8063,375.1063 118.7625,374.9 Q118.7438,374.7563 118.6688,374.6813 Q118.5375,374.5313 118.2938,374.4438 Q118.05,374.3563 117.8,374.3563 Q117.4938,374.3563 117.2375,374.4875 Q116.9875,374.6188 116.7875,374.9188 Q116.5938,375.2188 116.5938,375.6313 L116.5938,376.0688 Q116.5938,376.5625 116.95,376.8938 Q117.3063,377.2188 117.9438,377.2188 Q118.3188,377.2188 118.5813,377.1188 Q118.7375,377.0563 118.9063,376.8813 Q119.0125,376.775 119.0688,376.7438 Q119.1313,376.7125 119.2125,376.7125 Q119.3438,376.7125 119.4438,376.8188 Q119.55,376.9188 119.55,377.0563 Q119.55,377.1938 119.4125,377.3563 Q119.2125,377.5875 118.8938,377.7188 Q118.4625,377.9 117.9438,377.9 Q117.3375,377.9 116.8563,377.65 Q116.4625,377.45 116.1875,377.025 Q115.9125,376.5938 115.9125,376.0813 L115.9125,375.6188 Q115.9125,375.0875 116.1563,374.6313 Q116.4063,374.1688 116.8438,373.925 Q117.2813,373.675 117.775,373.675 Q118.0688,373.675 118.325,373.7438 Q118.5875,373.8063 118.8063,373.95 Z " fill="#000000"/><text fill="#000000" font-family="sans-serif" font-size="5.6" lengthAdjust="spacing" textLength="20.8" x="125.9" y="377.9188">Address</text><line style="stroke:#181818;stroke-width:0.20000000000000004;" x1="96.8" x2="162.8" y1="382" y2="382"/><text fill="#000000" font-family="sans-serif" font-size="5.6" lengthAdjust="spacing" textLength="32.8" x="98.8" y="389.643">-String street</text><text fill="#000000" font-family="sans-serif" font-size="5.6" lengthAdjust="spacing" textLength="37.6" x="98.8" y="397.0914">-String zipcode</text><text fill="#000000" font-family="sans-serif" font-size="5.6" lengthAdjust="spacing" textLength="26.8" x="98.8" y="404.5398">-String city</text><line style="stroke:#181818;stroke-width:0.20000000000000004;" x1="96.8" x2="162.8" y1="407.5453" y2="407.5453"/><text fill="#000000" font-family="sans-serif" font-size="5.6" lengthAdjust="spacing" textLength="62" x="98.8" y="415.1883">+Address(addressArray)</text></g><!--class GreenSpaceType--><g id="elem_GreenSpaceType"><rect codeLine="45" fill="#F1F1F1" height="41.5453" id="GreenSpaceType" rx="1" ry="1" style="stroke:#181818;stroke-width:0.20000000000000004;" width="62.8" x="177.2" y="372.8"/><ellipse cx="185.54" cy="379.2" fill="#EB937F" rx="4.4" ry="4.4" style="stroke:#181818;stroke-width:0.4000000000000001;"/><path d="M185.0838,379.5188 L185.0838,380.5188 L186.815,380.5188 L186.815,380.15 Q186.815,379.9063 186.9088,379.8 Q187.0088,379.6938 187.1588,379.6938 Q187.3088,379.6938 187.4025,379.8 Q187.4963,379.9063 187.4963,380.15 L187.4963,381.2 L184.2963,381.2 Q184.0463,381.2 183.94,381.1063 Q183.84,381.0125 183.84,380.8563 Q183.84,380.7063 183.9463,380.6125 Q184.0525,380.5188 184.2963,380.5188 L184.4025,380.5188 L184.4025,377.8563 L184.2963,377.8563 Q184.0463,377.8563 183.94,377.7625 Q183.84,377.6688 183.84,377.5125 Q183.84,377.3625 183.94,377.2688 Q184.0463,377.175 184.2963,377.175 L187.3463,377.175 L187.3463,378.2125 Q187.3463,378.4563 187.2525,378.5625 Q187.165,378.6625 187.0088,378.6625 Q186.8588,378.6625 186.765,378.5625 Q186.6713,378.4563 186.6713,378.2125 L186.6713,377.8563 L185.0838,377.8563 L185.0838,378.8375 L185.6775,378.8375 Q185.6775,378.575 185.7275,378.5 Q185.8338,378.3375 186.0213,378.3375 Q186.1713,378.3375 186.265,378.4438 Q186.3588,378.5438 186.3588,378.7875 L186.3588,379.575 Q186.3588,379.7938 186.3088,379.8688 Q186.2025,380.025 186.0213,380.025 Q185.8338,380.025 185.7275,379.8625 Q185.6775,379.7875 185.6775,379.5188 L185.0838,379.5188 Z " fill="#000000"/><text fill="#000000" font-family="sans-serif" font-size="5.6" lengthAdjust="spacing" textLength="44.8" x="191.66" y="381.5188">GreenSpaceType</text><line style="stroke:#181818;stroke-width:0.20000000000000004;" x1="177.6" x2="239.6" y1="385.6" y2="385.6"/><text fill="#000000" font-family="sans-serif" font-size="5.6" lengthAdjust="spacing" textLength="23.2" x="179.6" y="393.243">GARDEN</text><text fill="#000000" font-family="sans-serif" font-size="5.6" lengthAdjust="spacing" textLength="58" x="179.6" y="400.6914">MEDIUM_SIZED_PARK</text><text fill="#000000" font-family="sans-serif" font-size="5.6" lengthAdjust="spacing" textLength="55.6" x="179.6" y="408.1398">LARGE_SIZED_PARK</text><line style="stroke:#181818;stroke-width:0.20000000000000004;" x1="177.6" x2="239.6" y1="411.1453" y2="411.1453"/></g><!--class Repositories--><g id="elem_Repositories"><rect codeLine="51" fill="#F1F1F1" height="34.0969" id="Repositories" rx="1" ry="1" style="stroke:#181818;stroke-width:0.20000000000000004;" width="84.8" x="223.8" y="126.8"/><ellipse cx="248.7" cy="133.2" fill="#ADD1B2" rx="4.4" ry="4.4" style="stroke:#181818;stroke-width:0.4000000000000001;"/><path d="M249.8063,131.55 Q249.8688,131.4625 249.9438,131.4188 Q250.0188,131.375 250.1063,131.375 Q250.2563,131.375 250.35,131.4813 Q250.4438,131.5813 250.4438,131.825 L250.4438,132.4063 Q250.4438,132.65 250.35,132.7563 Q250.2563,132.8625 250.1063,132.8625 Q249.9688,132.8625 249.8875,132.7813 Q249.8063,132.7063 249.7625,132.5 Q249.7438,132.3563 249.6688,132.2813 Q249.5375,132.1313 249.2938,132.0438 Q249.05,131.9563 248.8,131.9563 Q248.4938,131.9563 248.2375,132.0875 Q247.9875,132.2188 247.7875,132.5188 Q247.5938,132.8188 247.5938,133.2313 L247.5938,133.6688 Q247.5938,134.1625 247.95,134.4938 Q248.3063,134.8188 248.9438,134.8188 Q249.3188,134.8188 249.5813,134.7188 Q249.7375,134.6563 249.9063,134.4813 Q250.0125,134.375 250.0688,134.3438 Q250.1313,134.3125 250.2125,134.3125 Q250.3438,134.3125 250.4438,134.4188 Q250.55,134.5188 250.55,134.6563 Q250.55,134.7938 250.4125,134.9563 Q250.2125,135.1875 249.8938,135.3188 Q249.4625,135.5 248.9438,135.5 Q248.3375,135.5 247.8563,135.25 Q247.4625,135.05 247.1875,134.625 Q246.9125,134.1938 246.9125,133.6813 L246.9125,133.2188 Q246.9125,132.6875 247.1563,132.2313 Q247.4063,131.7688 247.8438,131.525 Q248.2813,131.275 248.775,131.275 Q249.0688,131.275 249.325,131.3438 Q249.5875,131.4063 249.8063,131.55 Z " fill="#000000"/><text fill="#000000" font-family="sans-serif" font-size="5.6" lengthAdjust="spacing" textLength="31.6" x="256.9" y="135.5188">Repositories</text><line style="stroke:#181818;stroke-width:0.20000000000000004;" x1="224.2" x2="308.2" y1="139.6" y2="139.6"/><line style="stroke:#181818;stroke-width:0.20000000000000004;" x1="224.2" x2="308.2" y1="142.8" y2="142.8"/><text fill="#000000" font-family="sans-serif" font-size="5.6" lengthAdjust="spacing" textLength="76" x="226.2" y="150.443">+getGreenSpaceRepository();</text><text fill="#000000" font-family="sans-serif" font-size="5.6" lengthAdjust="spacing" textLength="80" x="226.2" y="157.8914">+getAuthenticationRepository();</text></g><!--class AuthenticationRepository--><g id="elem_AuthenticationRepository"><rect codeLine="56" fill="#F1F1F1" height="26.6484" id="AuthenticationRepository" rx="1" ry="1" style="stroke:#181818;stroke-width:0.20000000000000004;" width="76" x="288.6" y="203.8"/><ellipse cx="294.6" cy="210.2" fill="#ADD1B2" rx="4.4" ry="4.4" style="stroke:#181818;stroke-width:0.4000000000000001;"/><path d="M295.7063,208.55 Q295.7688,208.4625 295.8438,208.4188 Q295.9188,208.375 296.0063,208.375 Q296.1563,208.375 296.25,208.4813 Q296.3438,208.5813 296.3438,208.825 L296.3438,209.4063 Q296.3438,209.65 296.25,209.7563 Q296.1563,209.8625 296.0063,209.8625 Q295.8688,209.8625 295.7875,209.7813 Q295.7063,209.7063 295.6625,209.5 Q295.6438,209.3563 295.5688,209.2813 Q295.4375,209.1313 295.1938,209.0438 Q294.95,208.9563 294.7,208.9563 Q294.3938,208.9563 294.1375,209.0875 Q293.8875,209.2188 293.6875,209.5188 Q293.4938,209.8188 293.4938,210.2313 L293.4938,210.6688 Q293.4938,211.1625 293.85,211.4938 Q294.2063,211.8188 294.8438,211.8188 Q295.2188,211.8188 295.4813,211.7188 Q295.6375,211.6563 295.8063,211.4813 Q295.9125,211.375 295.9688,211.3438 Q296.0313,211.3125 296.1125,211.3125 Q296.2438,211.3125 296.3438,211.4188 Q296.45,211.5188 296.45,211.6563 Q296.45,211.7938 296.3125,211.9563 Q296.1125,212.1875 295.7938,212.3188 Q295.3625,212.5 294.8438,212.5 Q294.2375,212.5 293.7563,212.25 Q293.3625,212.05 293.0875,211.625 Q292.8125,211.1938 292.8125,210.6813 L292.8125,210.2188 Q292.8125,209.6875 293.0563,209.2313 Q293.3063,208.7688 293.7438,208.525 Q294.1813,208.275 294.675,208.275 Q294.9688,208.275 295.225,208.3438 Q295.4875,208.4063 295.7063,208.55 Z " fill="#000000"/><text fill="#000000" font-family="sans-serif" font-size="5.6" lengthAdjust="spacing" textLength="63.2" x="300.2" y="212.5188">AuthenticationRepository</text><line style="stroke:#181818;stroke-width:0.20000000000000004;" x1="289" x2="364.2" y1="216.6" y2="216.6"/><line style="stroke:#181818;stroke-width:0.20000000000000004;" x1="289" x2="364.2" y1="219.8" y2="219.8"/><text fill="#000000" font-family="sans-serif" font-size="5.6" lengthAdjust="spacing" textLength="66" x="291" y="227.443">+getCurrentUserSession()</text></g><!--class UserSession--><g id="elem_UserSession"><rect codeLine="60" fill="#F1F1F1" height="26.6484" id="UserSession" rx="1" ry="1" style="stroke:#181818;stroke-width:0.20000000000000004;" width="44.4" x="304.4" y="292.2"/><ellipse cx="310.4" cy="298.6" fill="#ADD1B2" rx="4.4" ry="4.4" style="stroke:#181818;stroke-width:0.4000000000000001;"/><path d="M311.5063,296.95 Q311.5688,296.8625 311.6438,296.8188 Q311.7188,296.775 311.8063,296.775 Q311.9563,296.775 312.05,296.8813 Q312.1438,296.9813 312.1438,297.225 L312.1438,297.8063 Q312.1438,298.05 312.05,298.1563 Q311.9563,298.2625 311.8063,298.2625 Q311.6688,298.2625 311.5875,298.1813 Q311.5063,298.1063 311.4625,297.9 Q311.4438,297.7563 311.3688,297.6813 Q311.2375,297.5313 310.9938,297.4438 Q310.75,297.3563 310.5,297.3563 Q310.1938,297.3563 309.9375,297.4875 Q309.6875,297.6188 309.4875,297.9188 Q309.2938,298.2188 309.2938,298.6313 L309.2938,299.0688 Q309.2938,299.5625 309.65,299.8938 Q310.0063,300.2188 310.6438,300.2188 Q311.0188,300.2188 311.2813,300.1188 Q311.4375,300.0563 311.6063,299.8813 Q311.7125,299.775 311.7688,299.7438 Q311.8313,299.7125 311.9125,299.7125 Q312.0438,299.7125 312.1438,299.8188 Q312.25,299.9188 312.25,300.0563 Q312.25,300.1938 312.1125,300.3563 Q311.9125,300.5875 311.5938,300.7188 Q311.1625,300.9 310.6438,300.9 Q310.0375,300.9 309.5563,300.65 Q309.1625,300.45 308.8875,300.025 Q308.6125,299.5938 308.6125,299.0813 L308.6125,298.6188 Q308.6125,298.0875 308.8563,297.6313 Q309.1063,297.1688 309.5438,296.925 Q309.9813,296.675 310.475,296.675 Q310.7688,296.675 311.025,296.7438 Q311.2875,296.8063 311.5063,296.95 Z " fill="#000000"/><text fill="#000000" font-family="sans-serif" font-size="5.6" lengthAdjust="spacing" textLength="31.6" x="316" y="300.9188">UserSession</text><line style="stroke:#181818;stroke-width:0.20000000000000004;" x1="304.8" x2="348.4" y1="305" y2="305"/><line style="stroke:#181818;stroke-width:0.20000000000000004;" x1="304.8" x2="348.4" y1="308.2" y2="308.2"/><text fill="#000000" font-family="sans-serif" font-size="5.6" lengthAdjust="spacing" textLength="31.2" x="306.8" y="315.843">+getUserId()</text></g><!--class GreenSpaceDTO--><g id="elem_GreenSpaceDTO"><rect codeLine="64" fill="#F1F1F1" height="63.8906" id="GreenSpaceDTO" rx="1" ry="1" style="stroke:#181818;stroke-width:0.20000000000000004;" width="178.4" x="397.4" y="185.2"/><ellipse cx="462.9" cy="191.6" fill="#ADD1B2" rx="4.4" ry="4.4" style="stroke:#181818;stroke-width:0.4000000000000001;"/><path d="M464.0063,189.95 Q464.0688,189.8625 464.1438,189.8188 Q464.2188,189.775 464.3063,189.775 Q464.4563,189.775 464.55,189.8813 Q464.6438,189.9813 464.6438,190.225 L464.6438,190.8063 Q464.6438,191.05 464.55,191.1563 Q464.4563,191.2625 464.3063,191.2625 Q464.1688,191.2625 464.0875,191.1813 Q464.0063,191.1063 463.9625,190.9 Q463.9438,190.7563 463.8688,190.6813 Q463.7375,190.5313 463.4938,190.4438 Q463.25,190.3563 463,190.3563 Q462.6938,190.3563 462.4375,190.4875 Q462.1875,190.6188 461.9875,190.9188 Q461.7938,191.2188 461.7938,191.6313 L461.7938,192.0688 Q461.7938,192.5625 462.15,192.8938 Q462.5063,193.2188 463.1438,193.2188 Q463.5188,193.2188 463.7813,193.1188 Q463.9375,193.0563 464.1063,192.8813 Q464.2125,192.775 464.2688,192.7438 Q464.3313,192.7125 464.4125,192.7125 Q464.5438,192.7125 464.6438,192.8188 Q464.75,192.9188 464.75,193.0563 Q464.75,193.1938 464.6125,193.3563 Q464.4125,193.5875 464.0938,193.7188 Q463.6625,193.9 463.1438,193.9 Q462.5375,193.9 462.0563,193.65 Q461.6625,193.45 461.3875,193.025 Q461.1125,192.5938 461.1125,192.0813 L461.1125,191.6188 Q461.1125,191.0875 461.3563,190.6313 Q461.6063,190.1688 462.0438,189.925 Q462.4813,189.675 462.975,189.675 Q463.2688,189.675 463.525,189.7438 Q463.7875,189.8063 464.0063,189.95 Z " fill="#000000"/><text fill="#000000" font-family="sans-serif" font-size="5.6" lengthAdjust="spacing" textLength="44" x="471.1" y="193.9188">GreenSpaceDTO</text><line style="stroke:#181818;stroke-width:0.20000000000000004;" x1="397.8" x2="575.4" y1="198" y2="198"/><text fill="#000000" font-family="sans-serif" font-size="5.6" lengthAdjust="spacing" textLength="32.4" x="399.8" y="205.643">-String name</text><text fill="#000000" font-family="sans-serif" font-size="5.6" lengthAdjust="spacing" textLength="38.4" x="399.8" y="213.0914">-Adress adress</text><text fill="#000000" font-family="sans-serif" font-size="5.6" lengthAdjust="spacing" textLength="59.2" x="399.8" y="220.5398">-GreenSpaceType type</text><text fill="#000000" font-family="sans-serif" font-size="5.6" lengthAdjust="spacing" textLength="32.4" x="399.8" y="227.9883">-double area</text><text fill="#000000" font-family="sans-serif" font-size="5.6" lengthAdjust="spacing" textLength="116.8" x="399.8" y="235.4367">-GreenSpacesManager greenSpacesManager</text><line style="stroke:#181818;stroke-width:0.20000000000000004;" x1="397.8" x2="575.4" y1="238.4422" y2="238.4422"/><text fill="#000000" font-family="sans-serif" font-size="5.6" lengthAdjust="spacing" textLength="173.6" x="399.8" y="246.0852">+GreenSpaceDTO(name, adress, type, area, greenSpacesManager)</text></g><!--class GreenSpaceMapper--><g id="elem_GreenSpaceMapper"><rect codeLine="73" fill="#F1F1F1" height="34.0969" id="GreenSpaceMapper" rx="1" ry="1" style="stroke:#181818;stroke-width:0.20000000000000004;" width="92.4" x="440.4" y="126.8"/><ellipse cx="459.3" cy="133.2" fill="#ADD1B2" rx="4.4" ry="4.4" style="stroke:#181818;stroke-width:0.4000000000000001;"/><path d="M460.4063,131.55 Q460.4688,131.4625 460.5438,131.4188 Q460.6188,131.375 460.7063,131.375 Q460.8563,131.375 460.95,131.4813 Q461.0438,131.5813 461.0438,131.825 L461.0438,132.4063 Q461.0438,132.65 460.95,132.7563 Q460.8563,132.8625 460.7063,132.8625 Q460.5688,132.8625 460.4875,132.7813 Q460.4063,132.7063 460.3625,132.5 Q460.3438,132.3563 460.2688,132.2813 Q460.1375,132.1313 459.8938,132.0438 Q459.65,131.9563 459.4,131.9563 Q459.0938,131.9563 458.8375,132.0875 Q458.5875,132.2188 458.3875,132.5188 Q458.1938,132.8188 458.1938,133.2313 L458.1938,133.6688 Q458.1938,134.1625 458.55,134.4938 Q458.9063,134.8188 459.5438,134.8188 Q459.9188,134.8188 460.1813,134.7188 Q460.3375,134.6563 460.5063,134.4813 Q460.6125,134.375 460.6688,134.3438 Q460.7313,134.3125 460.8125,134.3125 Q460.9438,134.3125 461.0438,134.4188 Q461.15,134.5188 461.15,134.6563 Q461.15,134.7938 461.0125,134.9563 Q460.8125,135.1875 460.4938,135.3188 Q460.0625,135.5 459.5438,135.5 Q458.9375,135.5 458.4563,135.25 Q458.0625,135.05 457.7875,134.625 Q457.5125,134.1938 457.5125,133.6813 L457.5125,133.2188 Q457.5125,132.6875 457.7563,132.2313 Q458.0063,131.7688 458.4438,131.525 Q458.8813,131.275 459.375,131.275 Q459.6688,131.275 459.925,131.3438 Q460.1875,131.4063 460.4063,131.55 Z " fill="#000000"/><text fill="#000000" font-family="sans-serif" font-size="5.6" lengthAdjust="spacing" textLength="51.2" x="467.5" y="135.5188">GreenSpaceMapper</text><line style="stroke:#181818;stroke-width:0.20000000000000004;" x1="440.8" x2="532.4" y1="139.6" y2="139.6"/><line style="stroke:#181818;stroke-width:0.20000000000000004;" x1="440.8" x2="532.4" y1="142.8" y2="142.8"/><text fill="#000000" font-family="sans-serif" font-size="5.6" lengthAdjust="spacing" textLength="75.2" x="442.8" y="150.443">+toDTOList(greenSpacesList)</text><text fill="#000000" font-family="sans-serif" font-size="5.6" lengthAdjust="spacing" textLength="87.6" x="442.8" y="157.8914">+greenSpaceToDTO(greenSpace)</text></g><!--class ApplicationSession--><g id="elem_ApplicationSession"><rect codeLine="78" fill="#F1F1F1" height="34.0969" id="ApplicationSession" rx="1" ry="1" style="stroke:#181818;stroke-width:0.20000000000000004;" width="61.6" x="228.6" y="288.6"/><ellipse cx="235.14" cy="295" fill="#ADD1B2" rx="4.4" ry="4.4" style="stroke:#181818;stroke-width:0.4000000000000001;"/><path d="M236.2463,293.35 Q236.3088,293.2625 236.3838,293.2188 Q236.4588,293.175 236.5463,293.175 Q236.6963,293.175 236.79,293.2813 Q236.8838,293.3813 236.8838,293.625 L236.8838,294.2063 Q236.8838,294.45 236.79,294.5563 Q236.6963,294.6625 236.5463,294.6625 Q236.4088,294.6625 236.3275,294.5813 Q236.2463,294.5063 236.2025,294.3 Q236.1838,294.1563 236.1088,294.0813 Q235.9775,293.9313 235.7338,293.8438 Q235.49,293.7563 235.24,293.7563 Q234.9338,293.7563 234.6775,293.8875 Q234.4275,294.0188 234.2275,294.3188 Q234.0338,294.6188 234.0338,295.0313 L234.0338,295.4688 Q234.0338,295.9625 234.39,296.2938 Q234.7463,296.6188 235.3838,296.6188 Q235.7588,296.6188 236.0213,296.5188 Q236.1775,296.4563 236.3463,296.2813 Q236.4525,296.175 236.5088,296.1438 Q236.5713,296.1125 236.6525,296.1125 Q236.7838,296.1125 236.8838,296.2188 Q236.99,296.3188 236.99,296.4563 Q236.99,296.5938 236.8525,296.7563 Q236.6525,296.9875 236.3338,297.1188 Q235.9025,297.3 235.3838,297.3 Q234.7775,297.3 234.2963,297.05 Q233.9025,296.85 233.6275,296.425 Q233.3525,295.9938 233.3525,295.4813 L233.3525,295.0188 Q233.3525,294.4875 233.5963,294.0313 Q233.8463,293.5688 234.2838,293.325 Q234.7213,293.075 235.215,293.075 Q235.5088,293.075 235.765,293.1438 Q236.0275,293.2063 236.2463,293.35 Z " fill="#000000"/><text fill="#000000" font-family="sans-serif" font-size="5.6" lengthAdjust="spacing" textLength="47.6" x="240.86" y="297.3188">ApplicationSession</text><line style="stroke:#181818;stroke-width:0.20000000000000004;" x1="229" x2="289.8" y1="301.4" y2="301.4"/><line style="stroke:#181818;stroke-width:0.20000000000000004;" x1="229" x2="289.8" y1="304.6" y2="304.6"/><text fill="#000000" font-family="sans-serif" font-size="5.6" lengthAdjust="spacing" textLength="37.6" x="231" y="312.243">-getAlgorithm()</text><text fill="#000000" font-family="sans-serif" font-size="5.6" lengthAdjust="spacing" textLength="56.8" x="231" y="319.6914">+getSortingAlgorithm()</text></g><!--class SortingAlgorithm--><g id="elem_SortingAlgorithm"><rect codeLine="83" fill="#F1F1F1" height="26.6484" id="SortingAlgorithm" rx="1" ry="1" style="stroke:#181818;stroke-width:0.20000000000000004;" width="88.8" x="366.6" y="380.2"/><ellipse cx="388.5" cy="386.6" fill="#B4A7E5" rx="4.4" ry="4.4" style="stroke:#181818;stroke-width:0.4000000000000001;"/><path d="M388.8813,385.2563 L388.8813,387.9188 L389.5688,387.9188 Q389.8125,387.9188 389.9188,388.0125 Q390.025,388.1063 390.025,388.2625 Q390.025,388.4125 389.9188,388.5063 Q389.8125,388.6 389.5688,388.6 L387.5125,388.6 Q387.2688,388.6 387.1625,388.5063 Q387.0563,388.4125 387.0563,388.2563 Q387.0563,388.1063 387.1625,388.0125 Q387.2688,387.9188 387.5125,387.9188 L388.2,387.9188 L388.2,385.2563 L387.5125,385.2563 Q387.2688,385.2563 387.1625,385.1625 Q387.0563,385.0688 387.0563,384.9125 Q387.0563,384.7625 387.1625,384.6688 Q387.2688,384.575 387.5125,384.575 L389.5688,384.575 Q389.8125,384.575 389.9188,384.6688 Q390.025,384.7625 390.025,384.9125 Q390.025,385.0688 389.9188,385.1625 Q389.8125,385.2563 389.5688,385.2563 L388.8813,385.2563 Z " fill="#000000"/><text fill="#000000" font-family="sans-serif" font-size="5.6" font-style="italic" lengthAdjust="spacing" textLength="41.6" x="396.7" y="388.9188">SortingAlgorithm</text><line style="stroke:#181818;stroke-width:0.20000000000000004;" x1="367" x2="455" y1="393" y2="393"/><line style="stroke:#181818;stroke-width:0.20000000000000004;" x1="367" x2="455" y1="396.2" y2="396.2"/><text fill="#000000" font-family="sans-serif" font-size="5.6" lengthAdjust="spacing" textLength="84" x="369" y="403.843">+sort(managedGreenSpacesList)</text></g><!--class Algoritmo1--><g id="elem_Algoritmo1"><rect codeLine="87" fill="#F1F1F1" height="34.0969" id="Algoritmo1" rx="1" ry="1" style="stroke:#181818;stroke-width:0.20000000000000004;" width="96.4" x="362.8" y="288.6"/><ellipse cx="395.9" cy="295" fill="#ADD1B2" rx="4.4" ry="4.4" style="stroke:#181818;stroke-width:0.4000000000000001;"/><path d="M397.0063,293.35 Q397.0688,293.2625 397.1438,293.2188 Q397.2188,293.175 397.3063,293.175 Q397.4563,293.175 397.55,293.2813 Q397.6438,293.3813 397.6438,293.625 L397.6438,294.2063 Q397.6438,294.45 397.55,294.5563 Q397.4563,294.6625 397.3063,294.6625 Q397.1688,294.6625 397.0875,294.5813 Q397.0063,294.5063 396.9625,294.3 Q396.9438,294.1563 396.8688,294.0813 Q396.7375,293.9313 396.4938,293.8438 Q396.25,293.7563 396,293.7563 Q395.6938,293.7563 395.4375,293.8875 Q395.1875,294.0188 394.9875,294.3188 Q394.7938,294.6188 394.7938,295.0313 L394.7938,295.4688 Q394.7938,295.9625 395.15,296.2938 Q395.5063,296.6188 396.1438,296.6188 Q396.5188,296.6188 396.7813,296.5188 Q396.9375,296.4563 397.1063,296.2813 Q397.2125,296.175 397.2688,296.1438 Q397.3313,296.1125 397.4125,296.1125 Q397.5438,296.1125 397.6438,296.2188 Q397.75,296.3188 397.75,296.4563 Q397.75,296.5938 397.6125,296.7563 Q397.4125,296.9875 397.0938,297.1188 Q396.6625,297.3 396.1438,297.3 Q395.5375,297.3 395.0563,297.05 Q394.6625,296.85 394.3875,296.425 Q394.1125,295.9938 394.1125,295.4813 L394.1125,295.0188 Q394.1125,294.4875 394.3563,294.0313 Q394.6063,293.5688 395.0438,293.325 Q395.4813,293.075 395.975,293.075 Q396.2688,293.075 396.525,293.1438 Q396.7875,293.2063 397.0063,293.35 Z " fill="#000000"/><text fill="#000000" font-family="sans-serif" font-size="5.6" lengthAdjust="spacing" textLength="26.8" x="404.1" y="297.3188">Algoritmo1</text><line style="stroke:#181818;stroke-width:0.20000000000000004;" x1="363.2" x2="458.8" y1="301.4" y2="301.4"/><line style="stroke:#181818;stroke-width:0.20000000000000004;" x1="363.2" x2="458.8" y1="304.6" y2="304.6"/><text fill="#000000" font-family="sans-serif" font-size="5.6" lengthAdjust="spacing" textLength="84" x="365.2" y="312.243">+sort(managedGreenSpacesList)</text><text fill="#000000" font-family="sans-serif" font-size="5.6" lengthAdjust="spacing" textLength="91.6" x="365.2" y="319.6914">-sortList(managedGreenSpacesList)</text></g><!--class Algoritmo2--><g id="elem_Algoritmo2"><rect codeLine="92" fill="#F1F1F1" height="34.0969" id="Algoritmo2" rx="1" ry="1" style="stroke:#181818;stroke-width:0.20000000000000004;" width="96.4" x="473.2" y="288.6"/><ellipse cx="506.3" cy="295" fill="#ADD1B2" rx="4.4" ry="4.4" style="stroke:#181818;stroke-width:0.4000000000000001;"/><path d="M507.4063,293.35 Q507.4688,293.2625 507.5438,293.2188 Q507.6188,293.175 507.7063,293.175 Q507.8563,293.175 507.95,293.2813 Q508.0438,293.3813 508.0438,293.625 L508.0438,294.2063 Q508.0438,294.45 507.95,294.5563 Q507.8563,294.6625 507.7063,294.6625 Q507.5688,294.6625 507.4875,294.5813 Q507.4063,294.5063 507.3625,294.3 Q507.3438,294.1563 507.2688,294.0813 Q507.1375,293.9313 506.8938,293.8438 Q506.65,293.7563 506.4,293.7563 Q506.0938,293.7563 505.8375,293.8875 Q505.5875,294.0188 505.3875,294.3188 Q505.1938,294.6188 505.1938,295.0313 L505.1938,295.4688 Q505.1938,295.9625 505.55,296.2938 Q505.9063,296.6188 506.5438,296.6188 Q506.9188,296.6188 507.1813,296.5188 Q507.3375,296.4563 507.5063,296.2813 Q507.6125,296.175 507.6688,296.1438 Q507.7313,296.1125 507.8125,296.1125 Q507.9438,296.1125 508.0438,296.2188 Q508.15,296.3188 508.15,296.4563 Q508.15,296.5938 508.0125,296.7563 Q507.8125,296.9875 507.4938,297.1188 Q507.0625,297.3 506.5438,297.3 Q505.9375,297.3 505.4563,297.05 Q505.0625,296.85 504.7875,296.425 Q504.5125,295.9938 504.5125,295.4813 L504.5125,295.0188 Q504.5125,294.4875 504.7563,294.0313 Q505.0063,293.5688 505.4438,293.325 Q505.8813,293.075 506.375,293.075 Q506.6688,293.075 506.925,293.1438 Q507.1875,293.2063 507.4063,293.35 Z " fill="#000000"/><text fill="#000000" font-family="sans-serif" font-size="5.6" lengthAdjust="spacing" textLength="26.8" x="514.5" y="297.3188">Algoritmo2</text><line style="stroke:#181818;stroke-width:0.20000000000000004;" x1="473.6" x2="569.2" y1="301.4" y2="301.4"/><line style="stroke:#181818;stroke-width:0.20000000000000004;" x1="473.6" x2="569.2" y1="304.6" y2="304.6"/><text fill="#000000" font-family="sans-serif" font-size="5.6" lengthAdjust="spacing" textLength="84" x="475.6" y="312.243">+sort(managedGreenSpacesList)</text><text fill="#000000" font-family="sans-serif" font-size="5.6" lengthAdjust="spacing" textLength="91.6" x="475.6" y="319.6914">-sortList(managedGreenSpacesList)</text></g><!--link ListGreenSpacesByGSMUI to ListGreenSpacesByGSMController--><g id="link_ListGreenSpacesByGSMUI_ListGreenSpacesByGSMController"><path codeLine="98" d="M342.6,22.056 C342.6,28.636 342.6,35.4 342.6,43.98 " fill="none" id="ListGreenSpacesByGSMUI-to-ListGreenSpacesByGSMController" style="stroke:#181818;stroke-width:0.4000000000000001;stroke-dasharray:7.0,7.0;"/><polygon fill="#181818" points="342.6,46.38,344.2,42.78,342.6,44.38,341,42.78,342.6,46.38" style="stroke:#181818;stroke-width:0.4000000000000001;"/></g><!--link ListGreenSpacesByGSMController to Repositories--><g id="link_ListGreenSpacesByGSMController_Repositories"><path codeLine="99" d="M317.16,95.24 C306.22,105.58 295.4484,115.7596 285.5604,125.1036 " fill="none" id="ListGreenSpacesByGSMController-to-Repositories" style="stroke:#181818;stroke-width:0.4000000000000001;stroke-dasharray:7.0,7.0;"/><polygon fill="#181818" points="283.816,126.752,287.5315,125.4423,285.2696,125.3783,285.3336,123.1165,283.816,126.752" style="stroke:#181818;stroke-width:0.4000000000000001;"/><text fill="#000000" font-family="sans-serif" font-size="5.2" lengthAdjust="spacing" textLength="26.8" x="305" y="113.2113">repositories</text></g><!--link ListGreenSpacesByGSMController to GreenSpaceRepository--><g id="link_ListGreenSpacesByGSMController_GreenSpaceRepository"><path codeLine="100" d="M265.172,95.224 C216.708,110.26 163.4,126.8 163.4,126.8 C163.4,126.8 163.4,160.8 163.4,160.8 C163.4,160.8 174.8071,181.5412 183.8871,198.0452 " fill="none" id="ListGreenSpacesByGSMController-to-GreenSpaceRepository" style="stroke:#181818;stroke-width:0.4000000000000001;stroke-dasharray:7.0,7.0;"/><polygon fill="#181818" points="185.044,200.148,184.7105,196.2226,184.0799,198.3957,181.9068,197.7651,185.044,200.148" style="stroke:#181818;stroke-width:0.4000000000000001;"/><text fill="#000000" font-family="sans-serif" font-size="5.2" lengthAdjust="spacing" textLength="52.4" x="163.8" y="146.0113">greenSpaceRepository</text></g><!--link ListGreenSpacesByGSMController to AuthenticationRepository--><g id="link_ListGreenSpacesByGSMController_AuthenticationRepository"><path codeLine="101" d="M344.504,95.264 C345.692,110.292 347,126.8 347,126.8 C347,126.8 347,160.8 347,160.8 C347,160.8 338.2333,184.8649 332.2053,201.4169 " fill="none" id="ListGreenSpacesByGSMController-to-AuthenticationRepository" style="stroke:#181818;stroke-width:0.4000000000000001;stroke-dasharray:7.0,7.0;"/><polygon fill="#181818" points="331.384,203.672,334.1193,200.8369,332.0684,201.7927,331.1125,199.7418,331.384,203.672" style="stroke:#181818;stroke-width:0.4000000000000001;"/><text fill="#000000" font-family="sans-serif" font-size="5.2" lengthAdjust="spacing" textLength="57.2" x="347.4" y="146.0113">authenticationRepository</text></g><!--link AuthenticationRepository to UserSession--><g id="link_AuthenticationRepository_UserSession"><path codeLine="102" d="M326.6,230.716 C326.6,247.276 326.6,273.204 326.6,289.74 " fill="none" id="AuthenticationRepository-to-UserSession" style="stroke:#181818;stroke-width:0.4000000000000001;stroke-dasharray:7.0,7.0;"/><polygon fill="#181818" points="326.6,292.14,328.2,288.54,326.6,290.14,325,288.54,326.6,292.14" style="stroke:#181818;stroke-width:0.4000000000000001;"/></g><!--link Repositories to Repositories--><g id="link_Repositories_Repositories"><path codeLine="103" d="M308.628,138.648 C316.804,139.256 322.6,140.972 322.6,143.8 C322.6,146.628 319.1974,148.166 311.0214,148.774 " fill="none" id="Repositories-to-Repositories" style="stroke:#181818;stroke-width:0.4000000000000001;"/><polygon fill="#181818" points="308.628,148.952,312.3367,150.2806,310.6225,148.8037,312.0994,147.0894,308.628,148.952" style="stroke:#181818;stroke-width:0.4000000000000001;"/><text fill="#000000" font-family="sans-serif" font-size="5.2" lengthAdjust="spacing" textLength="19.6" x="325" y="146.0113">instance</text></g><!--link Repositories to GreenSpaceRepository--><g id="link_Repositories_GreenSpaceRepository"><path codeLine="104" d="M249.68,160.856 C238.016,172.62 224.1341,186.616 212.4541,198.392 " fill="none" id="Repositories-to-GreenSpaceRepository" style="stroke:#181818;stroke-width:0.4000000000000001;"/><polygon fill="#181818" points="210.764,200.096,214.4351,198.6667,212.1724,198.676,212.1632,196.4133,210.764,200.096" style="stroke:#181818;stroke-width:0.4000000000000001;"/><text fill="#000000" font-family="sans-serif" font-size="5.2" lengthAdjust="spacing" textLength="2.8" x="210.3808" y="195.6411">1</text></g><!--link Repositories to AuthenticationRepository--><g id="link_Repositories_AuthenticationRepository"><path codeLine="105" d="M280.056,160.856 C290.888,173.876 304.2013,189.8748 314.1853,201.8788 " fill="none" id="Repositories-to-AuthenticationRepository" style="stroke:#181818;stroke-width:0.4000000000000001;"/><polygon fill="#181818" points="315.72,203.724,314.6481,199.9331,314.4411,202.1863,312.1878,201.9793,315.72,203.724" style="stroke:#181818;stroke-width:0.4000000000000001;"/><text fill="#000000" font-family="sans-serif" font-size="5.2" lengthAdjust="spacing" textLength="2.8" x="310.5791" y="199.3439">1</text></g><!--link GreenSpaceRepository to GreenSpace--><g id="link_GreenSpaceRepository_GreenSpace"><path codeLine="106" d="M181.936,234.284 C173.796,245.352 164.2775,258.2982 154.5215,271.5702 " fill="none" id="GreenSpaceRepository-to-GreenSpace" style="stroke:#181818;stroke-width:0.4000000000000001;"/><polygon fill="#181818" points="153.1,273.504,156.5214,271.551,154.2846,271.8925,153.943,269.6557,153.1,273.504" style="stroke:#181818;stroke-width:0.4000000000000001;"/><text fill="#000000" font-family="sans-serif" font-size="5.2" lengthAdjust="spacing" textLength="2" x="153.1558" y="269.0534">*</text></g><!--link GreenSpace to GreenSpaceManager--><g id="link_GreenSpace_GreenSpaceManager"><path codeLine="107" d="M98.196,337.604 C85.036,350.764 71.9931,363.8069 60.9971,374.8029 " fill="none" id="GreenSpace-to-GreenSpaceManager" style="stroke:#181818;stroke-width:0.4000000000000001;"/><polygon fill="#181818" points="59.3,376.5,62.977,375.0858,60.7142,375.0858,60.7142,372.823,59.3,376.5" style="stroke:#181818;stroke-width:0.4000000000000001;"/><text fill="#000000" font-family="sans-serif" font-size="5.2" lengthAdjust="spacing" textLength="2.8" x="58.9384" y="372.0457">1</text></g><!--link GreenSpace to Address--><g id="link_GreenSpace_Address"><path codeLine="108" d="M129.8,337.604 C129.8,347.988 129.8,356.952 129.8,366.688 " fill="none" id="GreenSpace-to-Address" style="stroke:#181818;stroke-width:0.4000000000000001;"/><polygon fill="#181818" points="129.8,369.088,131.4,365.488,129.8,367.088,128.2,365.488,129.8,369.088" style="stroke:#181818;stroke-width:0.4000000000000001;"/><text fill="#000000" font-family="sans-serif" font-size="5.2" lengthAdjust="spacing" textLength="2.8" x="126.8381" y="364.6675">1</text></g><!--link GreenSpace to GreenSpaceType--><g id="link_GreenSpace_GreenSpaceType"><path codeLine="109" d="M158.36,337.604 C168.932,349.304 179.0229,360.4673 188.4709,370.9233 " fill="none" id="GreenSpace-to-GreenSpaceType" style="stroke:#181818;stroke-width:0.4000000000000001;"/><polygon fill="#181818" points="190.08,372.704,188.8536,368.9602,188.7391,371.2201,186.4793,371.1056,190.08,372.704" style="stroke:#181818;stroke-width:0.4000000000000001;"/><text fill="#000000" font-family="sans-serif" font-size="5.2" lengthAdjust="spacing" textLength="2.8" x="184.6033" y="368.262">1</text></g><!--link GreenSpaceRepository to ApplicationSession--><g id="link_GreenSpaceRepository_ApplicationSession"><path codeLine="110" d="M206.616,234.284 C218.22,249.872 234.0113,271.0866 245.5953,286.6546 " fill="none" id="GreenSpaceRepository-to-ApplicationSession" style="stroke:#181818;stroke-width:0.4000000000000001;stroke-dasharray:7.0,7.0;"/><polygon fill="#181818" points="247.028,288.58,246.1626,284.7367,245.8341,286.9755,243.5953,286.647,247.028,288.58" style="stroke:#181818;stroke-width:0.4000000000000001;"/></g><!--link ApplicationSession to SortingAlgorithm--><g id="link_ApplicationSession_SortingAlgorithm"><path codeLine="111" d="M279.4,322.632 C288.556,330.244 297.4,337.6 297.4,337.6 C297.4,337.6 348.6323,362.677 382.2083,379.109 " fill="none" id="ApplicationSession-to-SortingAlgorithm" style="stroke:#181818;stroke-width:0.4000000000000001;"/><polygon fill="#181818" points="384.364,380.164,381.8338,377.1444,382.5676,379.2848,380.4271,380.0186,384.364,380.164" style="stroke:#181818;stroke-width:0.4000000000000001;"/><text fill="#000000" font-family="sans-serif" font-size="5.2" lengthAdjust="spacing" textLength="19.6" x="337.8" y="355.6113">instance</text></g><!--link Algoritmo1 to SortingAlgorithm--><g id="link_Algoritmo1_SortingAlgorithm"><path codeLine="112" d="M411,322.608 C411,339.308 411,362.324 411,377.668 " fill="none" id="Algoritmo1-to-SortingAlgorithm" style="stroke:#181818;stroke-width:0.4000000000000001;stroke-dasharray:7.0,7.0;"/><polygon fill="#181818" points="411,380.068,412.6,376.468,411,378.068,409.4,376.468,411,380.068" style="stroke:#181818;stroke-width:0.4000000000000001;"/></g><!--link Algoritmo2 to SortingAlgorithm--><g id="link_Algoritmo2_SortingAlgorithm"><path codeLine="113" d="M500.376,322.608 C479.228,339.308 448.9354,363.2365 429.5074,378.5805 " fill="none" id="Algoritmo2-to-SortingAlgorithm" style="stroke:#181818;stroke-width:0.4000000000000001;stroke-dasharray:7.0,7.0;"/><polygon fill="#181818" points="427.624,380.068,431.4408,379.0924,429.1935,378.8284,429.4575,376.5811,427.624,380.068" style="stroke:#181818;stroke-width:0.4000000000000001;"/></g><!--link ListGreenSpacesByGSMController to GreenSpaceMapper--><g id="link_ListGreenSpacesByGSMController_GreenSpaceMapper"><path codeLine="114" d="M390.548,95.24 C411.168,105.58 432.6104,116.3327 451.2544,125.6767 " fill="none" id="ListGreenSpacesByGSMController-to-GreenSpaceMapper" style="stroke:#181818;stroke-width:0.4000000000000001;stroke-dasharray:7.0,7.0;"/><polygon fill="#181818" points="453.4,126.752,450.8985,123.7086,451.612,125.8559,449.4647,126.5694,453.4,126.752" style="stroke:#181818;stroke-width:0.4000000000000001;"/></g><!--link GreenSpaceMapper to GreenSpaceDTO--><g id="link_GreenSpaceMapper_GreenSpaceDTO"><path codeLine="115" d="M486.6,160.856 C486.6,168.056 486.6,174.332 486.6,182.68 " fill="none" id="GreenSpaceMapper-to-GreenSpaceDTO" style="stroke:#181818;stroke-width:0.4000000000000001;stroke-dasharray:7.0,7.0;"/><polygon fill="#181818" points="486.6,185.08,488.2,181.48,486.6,183.08,485,181.48,486.6,185.08" style="stroke:#181818;stroke-width:0.4000000000000001;"/></g><!--SRC=[lLPDRzim3BthLmYzp5sJOjsn1GQuJHO4QxOXRYwx5AhDE49joP0K3Ewm_pv9_f8TEKsnORsq9X_V8oMIgdoch222vBWWyJD98L9b1bX0h0XBCq2o1SWTIVXFobAy9PbqFHbbeCe2SC6pqdmWnnbdHCfGAK6VzWgMCMSHVG7y0Q5t6MmLLXmBckuKJgXHfPmXP6FmFPLg8G1Of7C3ULikejLcYN-XtySGTvmfmRCCX4PY_NDn71MGlTe1KpGcHdmD1PTKSL5ESDe6TTPpopbDGMcMpuBd4KYfuuBASI6vK4RmjWopb0kgTddZqZ5HxPqzVDFMjew5HwZ9tYYrxefPAmUfp1tr8-93e4Uqbff6-fBqzJAIGsK8aqJeE4ogtvMnYtimTsukld8aVF-aUuS884EaN16ccqiuHzgOgimxQ63a9utanF9FBEd44-sjf_RrguASq6meLYC3wtIuwiBx35BfEDKplT0YvWdqR35LPQLJimHrBQ4GfBGYmFOvxfzZ9RK8rxFvL_ldQZvRRbQFqVB7VFRuFLn_iTRxSBsOkyOsvRPpA4XVwtIT5PpVjFvmfFaDfZkD4P3JedTx8JHa8q5q0z4IE6OdnbYNYNyEz80SwSgwAVzRJvfnRThoBxgoABgbfBWcDRCQEE7ckraMNKK6wQ3SDYsAhBwL_l6Q_JIsV_HXkYvDHfa2iJMBOEXliZMB9SXjSSbYc6-NJXMMywkJucoYpSfw0_l7VykEHjwPoyjFhpmmw9Ntnp2uOtcjtzNkwvHet_XUUz-bKzZ6vlWQZxs1Q7Jq3PypriYj4q-dmy8fa_eVYXWESMTNPzuo_SYnV93t2RLHxrr-1-THRyRV0wft-V5uitpycTZZFvXMv1bWmpeSG-Vyd1apd4CaSgR4wtzJqrKh2ntii3vAhoVq1m00]--></g></svg>