<?xml version="1.0" encoding="us-ascii" standalone="no"?><svg xmlns="http://www.w3.org/2000/svg" xmlns:xlink="http://www.w3.org/1999/xlink" contentStyleType="text/css" height="723.2px" preserveAspectRatio="none" style="width:696px;height:723px;background:#FFFFFF;" version="1.1" viewBox="0 0 696 723" width="696px" zoomAndPan="magnify"><defs/><g><!--class ListGreenSpacesByGSMUI--><g id="elem_ListGreenSpacesByGSMUI"><rect codeLine="9" fill="#F1F1F1" height="38.4" id="ListGreenSpacesByGSMUI" rx="2" ry="2" style="stroke:#181818;stroke-width:0.4000000000000001;" width="160" x="330.8" y="5.6"/><ellipse cx="342.8" cy="18.4" fill="#ADD1B2" rx="8.8" ry="8.8" style="stroke:#181818;stroke-width:0.8000000000000002;"/><path d="M345.0125,15.1 Q345.1375,14.925 345.2875,14.8375 Q345.4375,14.75 345.6125,14.75 Q345.9125,14.75 346.1,14.9625 Q346.2875,15.1625 346.2875,15.65 L346.2875,16.8125 Q346.2875,17.3 346.1,17.5125 Q345.9125,17.725 345.6125,17.725 Q345.3375,17.725 345.175,17.5625 Q345.0125,17.4125 344.925,17 Q344.8875,16.7125 344.7375,16.5625 Q344.475,16.2625 343.9875,16.0875 Q343.5,15.9125 343,15.9125 Q342.3875,15.9125 341.875,16.175 Q341.375,16.4375 340.975,17.0375 Q340.5875,17.6375 340.5875,18.4625 L340.5875,19.3375 Q340.5875,20.325 341.3,20.9875 Q342.0125,21.6375 343.2875,21.6375 Q344.0375,21.6375 344.5625,21.4375 Q344.875,21.3125 345.2125,20.9625 Q345.425,20.75 345.5375,20.6875 Q345.6625,20.625 345.825,20.625 Q346.0875,20.625 346.2875,20.8375 Q346.5,21.0375 346.5,21.3125 Q346.5,21.5875 346.225,21.9125 Q345.825,22.375 345.1875,22.6375 Q344.325,23 343.2875,23 Q342.075,23 341.1125,22.5 Q340.325,22.1 339.775,21.25 Q339.225,20.3875 339.225,19.3625 L339.225,18.4375 Q339.225,17.375 339.7125,16.4625 Q340.2125,15.5375 341.0875,15.05 Q341.9625,14.55 342.95,14.55 Q343.5375,14.55 344.05,14.6875 Q344.575,14.8125 345.0125,15.1 Z " fill="#000000"/><text fill="#000000" font-family="sans-serif" font-size="11.2" lengthAdjust="spacing" textLength="134.4" x="354" y="23.0375">ListGreenSpacesByGSMUI</text><line style="stroke:#181818;stroke-width:0.4000000000000001;" x1="331.6" x2="490" y1="31.2" y2="31.2"/><line style="stroke:#181818;stroke-width:0.4000000000000001;" x1="331.6" x2="490" y1="37.6" y2="37.6"/></g><!--class ListGreenSpacesByGSMController--><g id="elem_ListGreenSpacesByGSMController"><rect codeLine="12" fill="#F1F1F1" height="68.1938" id="ListGreenSpacesByGSMController" rx="2" ry="2" style="stroke:#181818;stroke-width:0.4000000000000001;" width="446.4" x="187.6" y="92.8"/><ellipse cx="320.2" cy="105.6" fill="#ADD1B2" rx="8.8" ry="8.8" style="stroke:#181818;stroke-width:0.8000000000000002;"/><path d="M322.4125,102.3 Q322.5375,102.125 322.6875,102.0375 Q322.8375,101.95 323.0125,101.95 Q323.3125,101.95 323.5,102.1625 Q323.6875,102.3625 323.6875,102.85 L323.6875,104.0125 Q323.6875,104.5 323.5,104.7125 Q323.3125,104.925 323.0125,104.925 Q322.7375,104.925 322.575,104.7625 Q322.4125,104.6125 322.325,104.2 Q322.2875,103.9125 322.1375,103.7625 Q321.875,103.4625 321.3875,103.2875 Q320.9,103.1125 320.4,103.1125 Q319.7875,103.1125 319.275,103.375 Q318.775,103.6375 318.375,104.2375 Q317.9875,104.8375 317.9875,105.6625 L317.9875,106.5375 Q317.9875,107.525 318.7,108.1875 Q319.4125,108.8375 320.6875,108.8375 Q321.4375,108.8375 321.9625,108.6375 Q322.275,108.5125 322.6125,108.1625 Q322.825,107.95 322.9375,107.8875 Q323.0625,107.825 323.225,107.825 Q323.4875,107.825 323.6875,108.0375 Q323.9,108.2375 323.9,108.5125 Q323.9,108.7875 323.625,109.1125 Q323.225,109.575 322.5875,109.8375 Q321.725,110.2 320.6875,110.2 Q319.475,110.2 318.5125,109.7 Q317.725,109.3 317.175,108.45 Q316.625,107.5875 316.625,106.5625 L316.625,105.6375 Q316.625,104.575 317.1125,103.6625 Q317.6125,102.7375 318.4875,102.25 Q319.3625,101.75 320.35,101.75 Q320.9375,101.75 321.45,101.8875 Q321.975,102.0125 322.4125,102.3 Z " fill="#000000"/><text fill="#000000" font-family="sans-serif" font-size="11.2" lengthAdjust="spacing" textLength="174.4" x="336.6" y="110.2375">ListGreenSpacesByGSMController</text><line style="stroke:#181818;stroke-width:0.4000000000000001;" x1="188.4" x2="633.2" y1="118.4" y2="118.4"/><line style="stroke:#181818;stroke-width:0.4000000000000001;" x1="188.4" x2="633.2" y1="124.8" y2="124.8"/><text fill="#000000" font-family="sans-serif" font-size="11.2" lengthAdjust="spacing" textLength="436.8" x="192.4" y="140.0859">+ListGreenSpacesByGSMController(authenticationRepository, greenSpaceRepository)</text><text fill="#000000" font-family="sans-serif" font-size="11.2" lengthAdjust="spacing" textLength="119.2" x="192.4" y="154.9828">-getGSMFromSession()</text></g><!--class GreenSpaceRepository--><g id="elem_GreenSpaceRepository"><rect codeLine="17" fill="#F1F1F1" height="53.2969" id="GreenSpaceRepository" rx="2" ry="2" style="stroke:#181818;stroke-width:0.4000000000000001;" width="173.6" x="172.8" y="340.8"/><ellipse cx="198.12" cy="353.6" fill="#ADD1B2" rx="8.8" ry="8.8" style="stroke:#181818;stroke-width:0.8000000000000002;"/><path d="M200.3325,350.3 Q200.4575,350.125 200.6075,350.0375 Q200.7575,349.95 200.9325,349.95 Q201.2325,349.95 201.42,350.1625 Q201.6075,350.3625 201.6075,350.85 L201.6075,352.0125 Q201.6075,352.5 201.42,352.7125 Q201.2325,352.925 200.9325,352.925 Q200.6575,352.925 200.495,352.7625 Q200.3325,352.6125 200.245,352.2 Q200.2075,351.9125 200.0575,351.7625 Q199.795,351.4625 199.3075,351.2875 Q198.82,351.1125 198.32,351.1125 Q197.7075,351.1125 197.195,351.375 Q196.695,351.6375 196.295,352.2375 Q195.9075,352.8375 195.9075,353.6625 L195.9075,354.5375 Q195.9075,355.525 196.62,356.1875 Q197.3325,356.8375 198.6075,356.8375 Q199.3575,356.8375 199.8825,356.6375 Q200.195,356.5125 200.5325,356.1625 Q200.745,355.95 200.8575,355.8875 Q200.9825,355.825 201.145,355.825 Q201.4075,355.825 201.6075,356.0375 Q201.82,356.2375 201.82,356.5125 Q201.82,356.7875 201.545,357.1125 Q201.145,357.575 200.5075,357.8375 Q199.645,358.2 198.6075,358.2 Q197.395,358.2 196.4325,357.7 Q195.645,357.3 195.095,356.45 Q194.545,355.5875 194.545,354.5625 L194.545,353.6375 Q194.545,352.575 195.0325,351.6625 Q195.5325,350.7375 196.4075,350.25 Q197.2825,349.75 198.27,349.75 Q198.8575,349.75 199.37,349.8875 Q199.895,350.0125 200.3325,350.3 Z " fill="#000000"/><text fill="#000000" font-family="sans-serif" font-size="11.2" lengthAdjust="spacing" textLength="118.4" x="212.28" y="358.2375">GreenSpaceRepository</text><line style="stroke:#181818;stroke-width:0.4000000000000001;" x1="173.6" x2="345.6" y1="366.4" y2="366.4"/><line style="stroke:#181818;stroke-width:0.4000000000000001;" x1="173.6" x2="345.6" y1="372.8" y2="372.8"/><text fill="#000000" font-family="sans-serif" font-size="11.2" lengthAdjust="spacing" textLength="164" x="177.6" y="388.0859">+getGreenSpaceByName(name)</text></g><!--class GreenSpace--><g id="elem_GreenSpace"><rect codeLine="21" fill="#F1F1F1" height="127.7813" id="GreenSpace" rx="2" ry="2" style="stroke:#181818;stroke-width:0.4000000000000001;" width="339.2" x="90" y="443.2"/><ellipse cx="224.2" cy="456" fill="#ADD1B2" rx="8.8" ry="8.8" style="stroke:#181818;stroke-width:0.8000000000000002;"/><path d="M226.4125,452.7 Q226.5375,452.525 226.6875,452.4375 Q226.8375,452.35 227.0125,452.35 Q227.3125,452.35 227.5,452.5625 Q227.6875,452.7625 227.6875,453.25 L227.6875,454.4125 Q227.6875,454.9 227.5,455.1125 Q227.3125,455.325 227.0125,455.325 Q226.7375,455.325 226.575,455.1625 Q226.4125,455.0125 226.325,454.6 Q226.2875,454.3125 226.1375,454.1625 Q225.875,453.8625 225.3875,453.6875 Q224.9,453.5125 224.4,453.5125 Q223.7875,453.5125 223.275,453.775 Q222.775,454.0375 222.375,454.6375 Q221.9875,455.2375 221.9875,456.0625 L221.9875,456.9375 Q221.9875,457.925 222.7,458.5875 Q223.4125,459.2375 224.6875,459.2375 Q225.4375,459.2375 225.9625,459.0375 Q226.275,458.9125 226.6125,458.5625 Q226.825,458.35 226.9375,458.2875 Q227.0625,458.225 227.225,458.225 Q227.4875,458.225 227.6875,458.4375 Q227.9,458.6375 227.9,458.9125 Q227.9,459.1875 227.625,459.5125 Q227.225,459.975 226.5875,460.2375 Q225.725,460.6 224.6875,460.6 Q223.475,460.6 222.5125,460.1 Q221.725,459.7 221.175,458.85 Q220.625,457.9875 220.625,456.9625 L220.625,456.0375 Q220.625,454.975 221.1125,454.0625 Q221.6125,453.1375 222.4875,452.65 Q223.3625,452.15 224.35,452.15 Q224.9375,452.15 225.45,452.2875 Q225.975,452.4125 226.4125,452.7 Z " fill="#000000"/><text fill="#000000" font-family="sans-serif" font-size="11.2" lengthAdjust="spacing" textLength="64" x="240.6" y="460.6375">GreenSpace</text><line style="stroke:#181818;stroke-width:0.4000000000000001;" x1="90.8" x2="428.4" y1="468.8" y2="468.8"/><text fill="#000000" font-family="sans-serif" font-size="11.2" lengthAdjust="spacing" textLength="64.8" x="94.8" y="484.0859">-String name</text><text fill="#000000" font-family="sans-serif" font-size="11.2" lengthAdjust="spacing" textLength="89.6" x="94.8" y="498.9828">-Address address</text><text fill="#000000" font-family="sans-serif" font-size="11.2" lengthAdjust="spacing" textLength="118.4" x="94.8" y="513.8797">-GreenSpaceType type</text><text fill="#000000" font-family="sans-serif" font-size="11.2" lengthAdjust="spacing" textLength="64.8" x="94.8" y="528.7766">-double area</text><text fill="#000000" font-family="sans-serif" font-size="11.2" lengthAdjust="spacing" textLength="233.6" x="94.8" y="543.6734">-GreenSpacesManager greenSpacesManager</text><line style="stroke:#181818;stroke-width:0.4000000000000001;" x1="90.8" x2="428.4" y1="549.6844" y2="549.6844"/><text fill="#000000" font-family="sans-serif" font-size="11.2" lengthAdjust="spacing" textLength="329.6" x="94.8" y="564.9703">+GreenSpace(name, address, type, area, greenSpacesManager)</text></g><!--class GreenSpaceManager--><g id="elem_GreenSpaceManager"><rect codeLine="30" fill="#F1F1F1" height="68.1938" id="GreenSpaceManager" rx="2" ry="2" style="stroke:#181818;stroke-width:0.4000000000000001;" width="159.2" x="5.6" y="634.8"/><ellipse cx="28.76" cy="647.6" fill="#ADD1B2" rx="8.8" ry="8.8" style="stroke:#181818;stroke-width:0.8000000000000002;"/><path d="M30.9725,644.3 Q31.0975,644.125 31.2475,644.0375 Q31.3975,643.95 31.5725,643.95 Q31.8725,643.95 32.06,644.1625 Q32.2475,644.3625 32.2475,644.85 L32.2475,646.0125 Q32.2475,646.5 32.06,646.7125 Q31.8725,646.925 31.5725,646.925 Q31.2975,646.925 31.135,646.7625 Q30.9725,646.6125 30.885,646.2 Q30.8475,645.9125 30.6975,645.7625 Q30.435,645.4625 29.9475,645.2875 Q29.46,645.1125 28.96,645.1125 Q28.3475,645.1125 27.835,645.375 Q27.335,645.6375 26.935,646.2375 Q26.5475,646.8375 26.5475,647.6625 L26.5475,648.5375 Q26.5475,649.525 27.26,650.1875 Q27.9725,650.8375 29.2475,650.8375 Q29.9975,650.8375 30.5225,650.6375 Q30.835,650.5125 31.1725,650.1625 Q31.385,649.95 31.4975,649.8875 Q31.6225,649.825 31.785,649.825 Q32.0475,649.825 32.2475,650.0375 Q32.46,650.2375 32.46,650.5125 Q32.46,650.7875 32.185,651.1125 Q31.785,651.575 31.1475,651.8375 Q30.285,652.2 29.2475,652.2 Q28.035,652.2 27.0725,651.7 Q26.285,651.3 25.735,650.45 Q25.185,649.5875 25.185,648.5625 L25.185,647.6375 Q25.185,646.575 25.6725,645.6625 Q26.1725,644.7375 27.0475,644.25 Q27.9225,643.75 28.91,643.75 Q29.4975,643.75 30.01,643.8875 Q30.535,644.0125 30.9725,644.3 Z " fill="#000000"/><text fill="#000000" font-family="sans-serif" font-size="11.2" lengthAdjust="spacing" textLength="108.8" x="42.44" y="652.2375">GreenSpaceManager</text><line style="stroke:#181818;stroke-width:0.4000000000000001;" x1="6.4" x2="164" y1="660.4" y2="660.4"/><text fill="#000000" font-family="sans-serif" font-size="11.2" lengthAdjust="spacing" textLength="63.2" x="10.4" y="675.6859">-String email</text><line style="stroke:#181818;stroke-width:0.4000000000000001;" x1="6.4" x2="164" y1="681.6969" y2="681.6969"/><text fill="#000000" font-family="sans-serif" font-size="11.2" lengthAdjust="spacing" textLength="149.6" x="10.4" y="696.9828">+GreenSpaceManager(email)</text></g><!--class Address--><g id="elem_Address"><rect codeLine="35" fill="#F1F1F1" height="97.9875" id="Address" rx="2" ry="2" style="stroke:#181818;stroke-width:0.4000000000000001;" width="133.6" x="192.8" y="620"/><ellipse cx="235.4" cy="632.8" fill="#ADD1B2" rx="8.8" ry="8.8" style="stroke:#181818;stroke-width:0.8000000000000002;"/><path d="M237.6125,629.5 Q237.7375,629.325 237.8875,629.2375 Q238.0375,629.15 238.2125,629.15 Q238.5125,629.15 238.7,629.3625 Q238.8875,629.5625 238.8875,630.05 L238.8875,631.2125 Q238.8875,631.7 238.7,631.9125 Q238.5125,632.125 238.2125,632.125 Q237.9375,632.125 237.775,631.9625 Q237.6125,631.8125 237.525,631.4 Q237.4875,631.1125 237.3375,630.9625 Q237.075,630.6625 236.5875,630.4875 Q236.1,630.3125 235.6,630.3125 Q234.9875,630.3125 234.475,630.575 Q233.975,630.8375 233.575,631.4375 Q233.1875,632.0375 233.1875,632.8625 L233.1875,633.7375 Q233.1875,634.725 233.9,635.3875 Q234.6125,636.0375 235.8875,636.0375 Q236.6375,636.0375 237.1625,635.8375 Q237.475,635.7125 237.8125,635.3625 Q238.025,635.15 238.1375,635.0875 Q238.2625,635.025 238.425,635.025 Q238.6875,635.025 238.8875,635.2375 Q239.1,635.4375 239.1,635.7125 Q239.1,635.9875 238.825,636.3125 Q238.425,636.775 237.7875,637.0375 Q236.925,637.4 235.8875,637.4 Q234.675,637.4 233.7125,636.9 Q232.925,636.5 232.375,635.65 Q231.825,634.7875 231.825,633.7625 L231.825,632.8375 Q231.825,631.775 232.3125,630.8625 Q232.8125,629.9375 233.6875,629.45 Q234.5625,628.95 235.55,628.95 Q236.1375,628.95 236.65,629.0875 Q237.175,629.2125 237.6125,629.5 Z " fill="#000000"/><text fill="#000000" font-family="sans-serif" font-size="11.2" lengthAdjust="spacing" textLength="41.6" x="251.8" y="637.4375">Address</text><line style="stroke:#181818;stroke-width:0.4000000000000001;" x1="193.6" x2="325.6" y1="645.6" y2="645.6"/><text fill="#000000" font-family="sans-serif" font-size="11.2" lengthAdjust="spacing" textLength="65.6" x="197.6" y="660.8859">-String street</text><text fill="#000000" font-family="sans-serif" font-size="11.2" lengthAdjust="spacing" textLength="75.2" x="197.6" y="675.7828">-String zipcode</text><text fill="#000000" font-family="sans-serif" font-size="11.2" lengthAdjust="spacing" textLength="53.6" x="197.6" y="690.6797">-String city</text><line style="stroke:#181818;stroke-width:0.4000000000000001;" x1="193.6" x2="325.6" y1="696.6906" y2="696.6906"/><text fill="#000000" font-family="sans-serif" font-size="11.2" lengthAdjust="spacing" textLength="124" x="197.6" y="711.9766">+Address(addressArray)</text></g><!--class GreenSpaceType--><g id="elem_GreenSpaceType"><rect codeLine="42" fill="#F1F1F1" height="83.0906" id="GreenSpaceType" rx="2" ry="2" style="stroke:#181818;stroke-width:0.4000000000000001;" width="125.6" x="354.4" y="627.2"/><ellipse cx="371.08" cy="640" fill="#EB937F" rx="8.8" ry="8.8" style="stroke:#181818;stroke-width:0.8000000000000002;"/><path d="M370.1675,640.6375 L370.1675,642.6375 L373.63,642.6375 L373.63,641.9 Q373.63,641.4125 373.8175,641.2 Q374.0175,640.9875 374.3175,640.9875 Q374.6175,640.9875 374.805,641.2 Q374.9925,641.4125 374.9925,641.9 L374.9925,644 L368.5925,644 Q368.0925,644 367.88,643.8125 Q367.68,643.625 367.68,643.3125 Q367.68,643.0125 367.8925,642.825 Q368.105,642.6375 368.5925,642.6375 L368.805,642.6375 L368.805,637.3125 L368.5925,637.3125 Q368.0925,637.3125 367.88,637.125 Q367.68,636.9375 367.68,636.625 Q367.68,636.325 367.88,636.1375 Q368.0925,635.95 368.5925,635.95 L374.6925,635.95 L374.6925,638.025 Q374.6925,638.5125 374.505,638.725 Q374.33,638.925 374.0175,638.925 Q373.7175,638.925 373.53,638.725 Q373.3425,638.5125 373.3425,638.025 L373.3425,637.3125 L370.1675,637.3125 L370.1675,639.275 L371.355,639.275 Q371.355,638.75 371.455,638.6 Q371.6675,638.275 372.0425,638.275 Q372.3425,638.275 372.53,638.4875 Q372.7175,638.6875 372.7175,639.175 L372.7175,640.75 Q372.7175,641.1875 372.6175,641.3375 Q372.405,641.65 372.0425,641.65 Q371.6675,641.65 371.455,641.325 Q371.355,641.175 371.355,640.6375 L370.1675,640.6375 Z " fill="#000000"/><text fill="#000000" font-family="sans-serif" font-size="11.2" lengthAdjust="spacing" textLength="89.6" x="383.32" y="644.6375">GreenSpaceType</text><line style="stroke:#181818;stroke-width:0.4000000000000001;" x1="355.2" x2="479.2" y1="652.8" y2="652.8"/><text fill="#000000" font-family="sans-serif" font-size="11.2" lengthAdjust="spacing" textLength="46.4" x="359.2" y="668.0859">GARDEN</text><text fill="#000000" font-family="sans-serif" font-size="11.2" lengthAdjust="spacing" textLength="116" x="359.2" y="682.9828">MEDIUM_SIZED_PARK</text><text fill="#000000" font-family="sans-serif" font-size="11.2" lengthAdjust="spacing" textLength="111.2" x="359.2" y="697.8797">LARGE_SIZED_PARK</text><line style="stroke:#181818;stroke-width:0.4000000000000001;" x1="355.2" x2="479.2" y1="703.8906" y2="703.8906"/></g><!--class Repositories--><g id="elem_Repositories"><rect codeLine="48" fill="#F1F1F1" height="68.1938" id="Repositories" rx="2" ry="2" style="stroke:#181818;stroke-width:0.4000000000000001;" width="169.6" x="326" y="224"/><ellipse cx="375.8" cy="236.8" fill="#ADD1B2" rx="8.8" ry="8.8" style="stroke:#181818;stroke-width:0.8000000000000002;"/><path d="M378.0125,233.5 Q378.1375,233.325 378.2875,233.2375 Q378.4375,233.15 378.6125,233.15 Q378.9125,233.15 379.1,233.3625 Q379.2875,233.5625 379.2875,234.05 L379.2875,235.2125 Q379.2875,235.7 379.1,235.9125 Q378.9125,236.125 378.6125,236.125 Q378.3375,236.125 378.175,235.9625 Q378.0125,235.8125 377.925,235.4 Q377.8875,235.1125 377.7375,234.9625 Q377.475,234.6625 376.9875,234.4875 Q376.5,234.3125 376,234.3125 Q375.3875,234.3125 374.875,234.575 Q374.375,234.8375 373.975,235.4375 Q373.5875,236.0375 373.5875,236.8625 L373.5875,237.7375 Q373.5875,238.725 374.3,239.3875 Q375.0125,240.0375 376.2875,240.0375 Q377.0375,240.0375 377.5625,239.8375 Q377.875,239.7125 378.2125,239.3625 Q378.425,239.15 378.5375,239.0875 Q378.6625,239.025 378.825,239.025 Q379.0875,239.025 379.2875,239.2375 Q379.5,239.4375 379.5,239.7125 Q379.5,239.9875 379.225,240.3125 Q378.825,240.775 378.1875,241.0375 Q377.325,241.4 376.2875,241.4 Q375.075,241.4 374.1125,240.9 Q373.325,240.5 372.775,239.65 Q372.225,238.7875 372.225,237.7625 L372.225,236.8375 Q372.225,235.775 372.7125,234.8625 Q373.2125,233.9375 374.0875,233.45 Q374.9625,232.95 375.95,232.95 Q376.5375,232.95 377.05,233.0875 Q377.575,233.2125 378.0125,233.5 Z " fill="#000000"/><text fill="#000000" font-family="sans-serif" font-size="11.2" lengthAdjust="spacing" textLength="63.2" x="392.2" y="241.4375">Repositories</text><line style="stroke:#181818;stroke-width:0.4000000000000001;" x1="326.8" x2="494.8" y1="249.6" y2="249.6"/><line style="stroke:#181818;stroke-width:0.4000000000000001;" x1="326.8" x2="494.8" y1="256" y2="256"/><text fill="#000000" font-family="sans-serif" font-size="11.2" lengthAdjust="spacing" textLength="152" x="330.8" y="271.2859">+getGreenSpaceRepository();</text><text fill="#000000" font-family="sans-serif" font-size="11.2" lengthAdjust="spacing" textLength="160" x="330.8" y="286.1828">+getAuthenticationRepository();</text></g><!--class AuthenticationRepository--><g id="elem_AuthenticationRepository"><rect codeLine="53" fill="#F1F1F1" height="53.2969" id="AuthenticationRepository" rx="2" ry="2" style="stroke:#181818;stroke-width:0.4000000000000001;" width="152" x="501.2" y="340.8"/><ellipse cx="513.2" cy="353.6" fill="#ADD1B2" rx="8.8" ry="8.8" style="stroke:#181818;stroke-width:0.8000000000000002;"/><path d="M515.4125,350.3 Q515.5375,350.125 515.6875,350.0375 Q515.8375,349.95 516.0125,349.95 Q516.3125,349.95 516.5,350.1625 Q516.6875,350.3625 516.6875,350.85 L516.6875,352.0125 Q516.6875,352.5 516.5,352.7125 Q516.3125,352.925 516.0125,352.925 Q515.7375,352.925 515.575,352.7625 Q515.4125,352.6125 515.325,352.2 Q515.2875,351.9125 515.1375,351.7625 Q514.875,351.4625 514.3875,351.2875 Q513.9,351.1125 513.4,351.1125 Q512.7875,351.1125 512.275,351.375 Q511.775,351.6375 511.375,352.2375 Q510.9875,352.8375 510.9875,353.6625 L510.9875,354.5375 Q510.9875,355.525 511.7,356.1875 Q512.4125,356.8375 513.6875,356.8375 Q514.4375,356.8375 514.9625,356.6375 Q515.275,356.5125 515.6125,356.1625 Q515.825,355.95 515.9375,355.8875 Q516.0625,355.825 516.225,355.825 Q516.4875,355.825 516.6875,356.0375 Q516.9,356.2375 516.9,356.5125 Q516.9,356.7875 516.625,357.1125 Q516.225,357.575 515.5875,357.8375 Q514.725,358.2 513.6875,358.2 Q512.475,358.2 511.5125,357.7 Q510.725,357.3 510.175,356.45 Q509.625,355.5875 509.625,354.5625 L509.625,353.6375 Q509.625,352.575 510.1125,351.6625 Q510.6125,350.7375 511.4875,350.25 Q512.3625,349.75 513.35,349.75 Q513.9375,349.75 514.45,349.8875 Q514.975,350.0125 515.4125,350.3 Z " fill="#000000"/><text fill="#000000" font-family="sans-serif" font-size="11.2" lengthAdjust="spacing" textLength="126.4" x="524.4" y="358.2375">AuthenticationRepository</text><line style="stroke:#181818;stroke-width:0.4000000000000001;" x1="502" x2="652.4" y1="366.4" y2="366.4"/><line style="stroke:#181818;stroke-width:0.4000000000000001;" x1="502" x2="652.4" y1="372.8" y2="372.8"/><text fill="#000000" font-family="sans-serif" font-size="11.2" lengthAdjust="spacing" textLength="132" x="506" y="388.0859">+getCurrentUserSession()</text></g><!--class UserSession--><g id="elem_UserSession"><rect codeLine="57" fill="#F1F1F1" height="53.2969" id="UserSession" rx="2" ry="2" style="stroke:#181818;stroke-width:0.4000000000000001;" width="88.8" x="532.8" y="480.4"/><ellipse cx="544.8" cy="493.2" fill="#ADD1B2" rx="8.8" ry="8.8" style="stroke:#181818;stroke-width:0.8000000000000002;"/><path d="M547.0125,489.9 Q547.1375,489.725 547.2875,489.6375 Q547.4375,489.55 547.6125,489.55 Q547.9125,489.55 548.1,489.7625 Q548.2875,489.9625 548.2875,490.45 L548.2875,491.6125 Q548.2875,492.1 548.1,492.3125 Q547.9125,492.525 547.6125,492.525 Q547.3375,492.525 547.175,492.3625 Q547.0125,492.2125 546.925,491.8 Q546.8875,491.5125 546.7375,491.3625 Q546.475,491.0625 545.9875,490.8875 Q545.5,490.7125 545,490.7125 Q544.3875,490.7125 543.875,490.975 Q543.375,491.2375 542.975,491.8375 Q542.5875,492.4375 542.5875,493.2625 L542.5875,494.1375 Q542.5875,495.125 543.3,495.7875 Q544.0125,496.4375 545.2875,496.4375 Q546.0375,496.4375 546.5625,496.2375 Q546.875,496.1125 547.2125,495.7625 Q547.425,495.55 547.5375,495.4875 Q547.6625,495.425 547.825,495.425 Q548.0875,495.425 548.2875,495.6375 Q548.5,495.8375 548.5,496.1125 Q548.5,496.3875 548.225,496.7125 Q547.825,497.175 547.1875,497.4375 Q546.325,497.8 545.2875,497.8 Q544.075,497.8 543.1125,497.3 Q542.325,496.9 541.775,496.05 Q541.225,495.1875 541.225,494.1625 L541.225,493.2375 Q541.225,492.175 541.7125,491.2625 Q542.2125,490.3375 543.0875,489.85 Q543.9625,489.35 544.95,489.35 Q545.5375,489.35 546.05,489.4875 Q546.575,489.6125 547.0125,489.9 Z " fill="#000000"/><text fill="#000000" font-family="sans-serif" font-size="11.2" lengthAdjust="spacing" textLength="63.2" x="556" y="497.8375">UserSession</text><line style="stroke:#181818;stroke-width:0.4000000000000001;" x1="533.6" x2="620.8" y1="506" y2="506"/><line style="stroke:#181818;stroke-width:0.4000000000000001;" x1="533.6" x2="620.8" y1="512.4" y2="512.4"/><text fill="#000000" font-family="sans-serif" font-size="11.2" lengthAdjust="spacing" textLength="62.4" x="537.6" y="527.6859">+getUserId()</text></g><!--link ListGreenSpacesByGSMUI to ListGreenSpacesByGSMController--><g id="link_ListGreenSpacesByGSMUI_ListGreenSpacesByGSMController"><path codeLine="62" d="M410.8,44.016 C410.8,57.6 410.8,71.664 410.8,87.872 " fill="none" id="ListGreenSpacesByGSMUI-to-ListGreenSpacesByGSMController" style="stroke:#181818;stroke-width:0.8000000000000002;stroke-dasharray:7.0,7.0;"/><polygon fill="#181818" points="410.8,92.672,414,85.472,410.8,88.672,407.6,85.472,410.8,92.672" style="stroke:#181818;stroke-width:0.8000000000000002;"/></g><!--link ListGreenSpacesByGSMController to Repositories--><g id="link_ListGreenSpacesByGSMController_Repositories"><path codeLine="63" d="M410.8,160.976 C410.8,180.328 410.8,199.808 410.8,219.136 " fill="none" id="ListGreenSpacesByGSMController-to-Repositories" style="stroke:#181818;stroke-width:0.8000000000000002;stroke-dasharray:7.0,7.0;"/><polygon fill="#181818" points="410.8,223.936,414,216.736,410.8,219.936,407.6,216.736,410.8,223.936" style="stroke:#181818;stroke-width:0.8000000000000002;"/><text fill="#000000" font-family="sans-serif" font-size="10.4" lengthAdjust="spacing" textLength="53.6" x="411.6" y="196.8227">repositories</text></g><!--link ListGreenSpacesByGSMController to GreenSpaceRepository--><g id="link_ListGreenSpacesByGSMController_GreenSpaceRepository"><path codeLine="64" d="M339.76,160.912 C280.328,188.776 205.2,224 205.2,224 C205.2,224 205.2,292 205.2,292 C205.2,292 222.0645,315.1903 237.7525,336.7583 " fill="none" id="ListGreenSpacesByGSMController-to-GreenSpaceRepository" style="stroke:#181818;stroke-width:0.8000000000000002;stroke-dasharray:7.0,7.0;"/><polygon fill="#181818" points="240.576,340.64,238.9286,332.9351,238.2231,337.4052,233.7529,336.6997,240.576,340.64" style="stroke:#181818;stroke-width:0.8000000000000002;"/><text fill="#000000" font-family="sans-serif" font-size="10.4" lengthAdjust="spacing" textLength="104.8" x="206" y="262.4227">greenSpaceRepository</text></g><!--link ListGreenSpacesByGSMController to AuthenticationRepository--><g id="link_ListGreenSpacesByGSMController_AuthenticationRepository"><path codeLine="65" d="M466.92,160.912 C513.856,188.776 573.2,224 573.2,224 C573.2,224 575.1779,294.5859 576.3299,335.8099 " fill="none" id="ListGreenSpacesByGSMController-to-AuthenticationRepository" style="stroke:#181818;stroke-width:0.8000000000000002;stroke-dasharray:7.0,7.0;"/><polygon fill="#181818" points="576.464,340.608,579.4616,333.3214,576.3523,336.6096,573.0641,333.5002,576.464,340.608" style="stroke:#181818;stroke-width:0.8000000000000002;"/><text fill="#000000" font-family="sans-serif" font-size="10.4" lengthAdjust="spacing" textLength="114.4" x="575.6" y="262.4227">authenticationRepository</text></g><!--link AuthenticationRepository to UserSession--><g id="link_AuthenticationRepository_UserSession"><path codeLine="66" d="M577.2,394.68 C577.2,419.24 577.2,450.896 577.2,475.416 " fill="none" id="AuthenticationRepository-to-UserSession" style="stroke:#181818;stroke-width:0.8000000000000002;stroke-dasharray:7.0,7.0;"/><polygon fill="#181818" points="577.2,480.216,580.4,473.016,577.2,476.216,574,473.016,577.2,480.216" style="stroke:#181818;stroke-width:0.8000000000000002;"/></g><!--link Repositories to Repositories--><g id="link_Repositories_Repositories"><path codeLine="67" d="M495.656,247.696 C512.008,248.912 523.6,252.344 523.6,258 C523.6,263.656 516.7948,266.732 500.4428,267.948 " fill="none" id="Repositories-to-Repositories" style="stroke:#181818;stroke-width:0.8000000000000002;"/><polygon fill="#181818" points="495.656,268.304,503.0735,270.9612,499.645,268.0074,502.5989,264.5789,495.656,268.304" style="stroke:#181818;stroke-width:0.8000000000000002;"/><text fill="#000000" font-family="sans-serif" font-size="10.4" lengthAdjust="spacing" textLength="39.2" x="528.4" y="262.4227">instance</text></g><!--link Repositories to GreenSpaceRepository--><g id="link_Repositories_GreenSpaceRepository"><path codeLine="68" d="M364.2,292.088 C342.336,307.704 320.5624,323.2588 300.1144,337.8588 " fill="none" id="Repositories-to-GreenSpaceRepository" style="stroke:#181818;stroke-width:0.8000000000000002;"/><polygon fill="#181818" points="296.208,340.648,303.9271,339.0685,299.4634,338.3236,300.2082,333.8599,296.208,340.648" style="stroke:#181818;stroke-width:0.8000000000000002;"/><text fill="#000000" font-family="sans-serif" font-size="10.4" lengthAdjust="spacing" textLength="5.6" x="297.0527" y="331.8878">1</text></g><!--link Repositories to AuthenticationRepository--><g id="link_Repositories_AuthenticationRepository"><path codeLine="69" d="M462.08,292.088 C486.144,307.704 510.3812,323.4355 532.8852,338.0355 " fill="none" id="Repositories-to-AuthenticationRepository" style="stroke:#181818;stroke-width:0.8000000000000002;"/><polygon fill="#181818" points="536.912,340.648,532.6135,334.0448,533.5563,338.4709,529.1302,339.4138,536.912,340.648" style="stroke:#181818;stroke-width:0.8000000000000002;"/><text fill="#000000" font-family="sans-serif" font-size="10.4" lengthAdjust="spacing" textLength="5.6" x="523.0984" y="331.8878">1</text></g><!--link GreenSpaceRepository to GreenSpace--><g id="link_GreenSpaceRepository_GreenSpace"><path codeLine="70" d="M259.6,394.68 C259.6,408.448 259.6,421.144 259.6,438.192 " fill="none" id="GreenSpaceRepository-to-GreenSpace" style="stroke:#181818;stroke-width:0.8000000000000002;"/><polygon fill="#181818" points="259.6,442.992,262.8,435.792,259.6,438.992,256.4,435.792,259.6,442.992" style="stroke:#181818;stroke-width:0.8000000000000002;"/><text fill="#000000" font-family="sans-serif" font-size="10.4" lengthAdjust="spacing" textLength="4" x="255.4156" y="434.0894">*</text></g><!--link GreenSpace to GreenSpaceManager--><g id="link_GreenSpace_GreenSpaceManager"><path codeLine="71" d="M190.672,571.24 C167.064,592.896 145.1127,613.0347 125.1127,631.3867 " fill="none" id="GreenSpace-to-GreenSpaceManager" style="stroke:#181818;stroke-width:0.8000000000000002;"/><polygon fill="#181818" points="121.576,634.632,129.0446,632.1219,124.5232,631.9276,124.7175,627.4063,121.576,634.632" style="stroke:#181818;stroke-width:0.8000000000000002;"/><text fill="#000000" font-family="sans-serif" font-size="10.4" lengthAdjust="spacing" textLength="5.6" x="121.3272" y="625.7285">1</text></g><!--link GreenSpace to Address--><g id="link_GreenSpace_Address"><path codeLine="72" d="M259.6,571.24 C259.6,587.392 259.6,599.712 259.6,614.984 " fill="none" id="GreenSpace-to-Address" style="stroke:#181818;stroke-width:0.8000000000000002;"/><polygon fill="#181818" points="259.6,619.784,262.8,612.584,259.6,615.784,256.4,612.584,259.6,619.784" style="stroke:#181818;stroke-width:0.8000000000000002;"/><text fill="#000000" font-family="sans-serif" font-size="10.4" lengthAdjust="spacing" textLength="5.6" x="253.6763" y="610.944">1</text></g><!--link GreenSpace to GreenSpaceType--><g id="link_GreenSpace_GreenSpaceType"><path codeLine="73" d="M321.888,571.24 C340.384,590.016 356.7838,606.6682 373.4958,623.6362 " fill="none" id="GreenSpace-to-GreenSpaceType" style="stroke:#181818;stroke-width:0.8000000000000002;"/><polygon fill="#181818" points="376.864,627.056,374.0915,619.6808,374.0572,624.2062,369.5318,624.1718,376.864,627.056" style="stroke:#181818;stroke-width:0.8000000000000002;"/><text fill="#000000" font-family="sans-serif" font-size="10.4" lengthAdjust="spacing" textLength="5.6" x="365.4676" y="618.1785">1</text></g><!--SRC=[ZLHTRvim57tthx3wChAHQdlDf4cqoH1QKqsXUTbBvS8jiMfiP3kQwBJ_FjiGC9b9oqC8zvvpxeVljNgXl26IrBWXnGkf8DSj0ooXq8HN390Q0Ef0Il6RyWe_4wPy3wCSTDi0RWHhxGVod0KZIYLQI_fqr90LWkVq5V1dX3umUDPO2onfTT2uf3Og5HmXny5tLEbK0l3Sv0RgfatpxJx3Vz3VIuXRmRKKZ84qI6oUJvTH4Jdg0t1D2sA3xw0HYceXsnXN0scqBfpciW9jLBvBKUUWbE55Yp6jDC0x9ME9W_kclISrHDpy1EazQPcRxfc-MrndICfIchYOTE_EEF8Ux67O4-aSfJW-cKCb4iWvKcq9DwSklLfFfYxV4UhIZ4yXOwSVEz4um0xMq_kcLK5DA3iFrYCZv_Iq-iAd2aeRdfwONcbJY18cjeBgjelJgqHzBOcKf7L1W1zhFErZ5ofDTklDlVkxtQop_VOnptvjrey_azqFPxrBTkd6Dmuf3pD0GOM6O9oHQF5ry2SpKsanOpTcGDwmtHwbD92z0XcOLC_iSQmrApiScjd2w-jlRwmVUcCxhOBVcvMvTSQlzx13FLm5j_OzQdFDNE6v6mBDzj_gURr5VfrukJmld79bhji2_iTTVRaAbXb6pkM3WZUIOttqzJrS8FhfNWY0-eMwpBVRXFu1]--></g></svg>