<?xml version="1.0" encoding="us-ascii" standalone="no"?><svg xmlns="http://www.w3.org/2000/svg" xmlns:xlink="http://www.w3.org/1999/xlink" contentStyleType="text/css" height="1043.2px" preserveAspectRatio="none" style="width:1253px;height:1043px;background:#FFFFFF;" version="1.1" viewBox="0 0 1253 1043" width="1253.6px" zoomAndPan="magnify"><defs/><g><rect fill="#FFFFFF" height="857.8422" style="stroke:#181818;stroke-width:0.8000000000000002;" width="8" x="38.8" y="89.7938"/><rect fill="#FFFFFF" height="839.2094" style="stroke:#181818;stroke-width:0.8000000000000002;" width="8" x="179.6" y="108.4266"/><rect fill="#FFFFFF" height="33.8328" style="stroke:#181818;stroke-width:0.8000000000000002;" width="8" x="183.6" y="224.8219"/><rect fill="#FFFFFF" height="33.8328" style="stroke:#181818;stroke-width:0.8000000000000002;" width="8" x="183.6" y="295.6875"/><rect fill="#FFFFFF" height="25.0328" style="stroke:#181818;stroke-width:0.8000000000000002;" width="8" x="315.6" y="168.3563"/><rect fill="#FFFFFF" height="25.0328" style="stroke:#181818;stroke-width:0.8000000000000002;" width="8" x="460" y="385.1859"/><rect fill="#FFFFFF" height="25.0328" style="stroke:#181818;stroke-width:0.8000000000000002;" width="8" x="575.2" y="435.2516"/><rect fill="#FFFFFF" height="276.6891" style="stroke:#181818;stroke-width:0.8000000000000002;" width="8" x="647.2" y="620.8813"/><rect fill="#FFFFFF" height="25.0328" style="stroke:#181818;stroke-width:0.8000000000000002;" width="8" x="720.8" y="520.75"/><rect fill="#FFFFFF" height="25.0328" style="stroke:#181818;stroke-width:0.8000000000000002;" width="8" x="806.4" y="570.8156"/><rect fill="#FFFFFF" height="50.0656" style="stroke:#181818;stroke-width:0.8000000000000002;" width="8" x="956.8" y="791.8391"/><rect fill="#FFFFFF" height="100.1313" style="stroke:#181818;stroke-width:0.8000000000000002;" width="8" x="1064.8" y="766.8063"/><rect fill="#FFFFFF" height="25.0328" style="stroke:#181818;stroke-width:0.8000000000000002;" width="8" x="1216.8" y="716.7406"/><rect fill="none" height="190.6625" style="stroke:#000000;stroke-width:1.2000000000000002;" width="632.8" x="616.4" y="682.675"/><line style="stroke:#181818;stroke-width:0.4000000000000001;stroke-dasharray:5.0,5.0;" x1="42.4" x2="42.4" y1="81.7938" y2="962.0359"/><line style="stroke:#181818;stroke-width:0.4000000000000001;stroke-dasharray:5.0,5.0;" x1="183.6" x2="183.6" y1="81.7938" y2="962.0359"/><line style="stroke:#181818;stroke-width:0.4000000000000001;stroke-dasharray:5.0,5.0;" x1="319.6" x2="319.6" y1="140.275" y2="962.0359"/><line style="stroke:#181818;stroke-width:0.4000000000000001;stroke-dasharray:5.0,5.0;" x1="463.6" x2="463.6" y1="81.7938" y2="962.0359"/><line style="stroke:#181818;stroke-width:0.4000000000000001;stroke-dasharray:5.0,5.0;" x1="578.8" x2="578.8" y1="81.7938" y2="962.0359"/><line style="stroke:#181818;stroke-width:0.4000000000000001;stroke-dasharray:5.0,5.0;" x1="650.8" x2="650.8" y1="81.7938" y2="962.0359"/><line style="stroke:#181818;stroke-width:0.4000000000000001;stroke-dasharray:5.0,5.0;" x1="724.4" x2="724.4" y1="81.7938" y2="962.0359"/><line style="stroke:#181818;stroke-width:0.4000000000000001;stroke-dasharray:5.0,5.0;" x1="810" x2="810" y1="81.7938" y2="962.0359"/><line style="stroke:#181818;stroke-width:0.4000000000000001;stroke-dasharray:5.0,5.0;" x1="885.2" x2="885.2" y1="81.7938" y2="962.0359"/><line style="stroke:#181818;stroke-width:0.4000000000000001;stroke-dasharray:5.0,5.0;" x1="960.4" x2="960.4" y1="81.7938" y2="962.0359"/><line style="stroke:#181818;stroke-width:0.4000000000000001;stroke-dasharray:5.0,5.0;" x1="1068.4" x2="1068.4" y1="81.7938" y2="962.0359"/><line style="stroke:#181818;stroke-width:0.4000000000000001;stroke-dasharray:5.0,5.0;" x1="1148.4" x2="1148.4" y1="81.7938" y2="962.0359"/><line style="stroke:#181818;stroke-width:0.4000000000000001;stroke-dasharray:5.0,5.0;" x1="1220.4" x2="1220.4" y1="660.1781" y2="962.0359"/><text fill="#000000" font-family="sans-serif" font-size="11.2" lengthAdjust="spacing" textLength="72.8" x="4" y="64.0859">Green Spaces</text><text fill="#000000" font-family="sans-serif" font-size="11.2" lengthAdjust="spacing" textLength="44.8" x="18" y="78.9828">Manager</text><ellipse cx="42.8" cy="10.8" fill="#E3E3E3" rx="6.4" ry="6.4" style="stroke:#181818;stroke-width:0.4000000000000001;"/><path d="M42.8,17.2 L42.8,38.8 M32.4,23.6 L53.2,23.6 M42.8,38.8 L32.4,50.8 M42.8,38.8 L53.2,50.8 " fill="none" style="stroke:#181818;stroke-width:0.4000000000000001;"/><text fill="#000000" font-family="sans-serif" font-size="11.2" lengthAdjust="spacing" textLength="72.8" x="4" y="973.3219">Green Spaces</text><text fill="#000000" font-family="sans-serif" font-size="11.2" lengthAdjust="spacing" textLength="44.8" x="18" y="988.2188">Manager</text><ellipse cx="42.8" cy="997.8297" fill="#E3E3E3" rx="6.4" ry="6.4" style="stroke:#181818;stroke-width:0.4000000000000001;"/><path d="M42.8,1004.2297 L42.8,1025.8297 M32.4,1010.6297 L53.2,1010.6297 M42.8,1025.8297 L32.4,1037.8297 M42.8,1025.8297 L53.2,1037.8297 " fill="none" style="stroke:#181818;stroke-width:0.4000000000000001;"/><rect fill="#E3E3E3" height="26.0969" rx="2" ry="2" style="stroke:#181818;stroke-width:0.4000000000000001;" width="92.8" x="137.2" y="54.8969"/><text fill="#000000" font-family="sans-serif" font-size="11.2" lengthAdjust="spacing" textLength="81.6" x="142.8" y="72.5828">:ConsultTasksUI</text><rect fill="#E3E3E3" height="26.0969" rx="2" ry="2" style="stroke:#181818;stroke-width:0.4000000000000001;" width="92.8" x="137.2" y="961.2359"/><text fill="#000000" font-family="sans-serif" font-size="11.2" lengthAdjust="spacing" textLength="81.6" x="142.8" y="978.9219">:ConsultTasksUI</text><rect fill="#E3E3E3" height="26.0969" rx="2" ry="2" style="stroke:#181818;stroke-width:0.4000000000000001;" width="132.8" x="253.2" y="961.2359"/><text fill="#000000" font-family="sans-serif" font-size="11.2" lengthAdjust="spacing" textLength="121.6" x="258.8" y="978.9219">:ConsultTasksController</text><rect fill="#E3E3E3" height="40.9938" rx="2" ry="2" style="stroke:#181818;stroke-width:0.4000000000000001;" width="140" x="394" y="40"/><text fill="#000000" font-family="sans-serif" font-size="11.2" lengthAdjust="spacing" textLength="128.8" x="399.6" y="57.6859">authenticationRepository:</text><text fill="#000000" font-family="sans-serif" font-size="11.2" lengthAdjust="spacing" textLength="126.4" x="400.8" y="72.5828">AuthenticationRepository</text><rect fill="#E3E3E3" height="40.9938" rx="2" ry="2" style="stroke:#181818;stroke-width:0.4000000000000001;" width="140" x="394" y="961.2359"/><text fill="#000000" font-family="sans-serif" font-size="11.2" lengthAdjust="spacing" textLength="128.8" x="399.6" y="978.9219">authenticationRepository:</text><text fill="#000000" font-family="sans-serif" font-size="11.2" lengthAdjust="spacing" textLength="126.4" x="400.8" y="993.8188">AuthenticationRepository</text><rect fill="#E3E3E3" height="40.9938" rx="2" ry="2" style="stroke:#181818;stroke-width:0.4000000000000001;" width="74.4" x="542" y="40"/><text fill="#000000" font-family="sans-serif" font-size="11.2" lengthAdjust="spacing" textLength="25.6" x="566.4" y="57.6859">user:</text><text fill="#000000" font-family="sans-serif" font-size="11.2" lengthAdjust="spacing" textLength="63.2" x="547.6" y="72.5828">UserSession</text><rect fill="#E3E3E3" height="40.9938" rx="2" ry="2" style="stroke:#181818;stroke-width:0.4000000000000001;" width="74.4" x="542" y="961.2359"/><text fill="#000000" font-family="sans-serif" font-size="11.2" lengthAdjust="spacing" textLength="25.6" x="566.4" y="978.9219">user:</text><text fill="#000000" font-family="sans-serif" font-size="11.2" lengthAdjust="spacing" textLength="63.2" x="547.6" y="993.8188">UserSession</text><rect fill="#E3E3E3" height="26.0969" rx="2" ry="2" style="stroke:#181818;stroke-width:0.4000000000000001;" width="53.6" x="624.4" y="54.8969"/><text fill="#000000" font-family="sans-serif" font-size="11.2" lengthAdjust="spacing" textLength="42.4" x="630" y="72.5828">:Agenda</text><rect fill="#E3E3E3" height="26.0969" rx="2" ry="2" style="stroke:#181818;stroke-width:0.4000000000000001;" width="53.6" x="624.4" y="961.2359"/><text fill="#000000" font-family="sans-serif" font-size="11.2" lengthAdjust="spacing" textLength="42.4" x="630" y="978.9219">:Agenda</text><rect fill="#E3E3E3" height="26.0969" rx="2" ry="2" style="stroke:#181818;stroke-width:0.4000000000000001;" width="77.6" x="686" y="54.8969"/><text fill="#000000" font-family="sans-serif" font-size="11.2" lengthAdjust="spacing" textLength="66.4" x="691.6" y="72.5828">:Repositories</text><rect fill="#E3E3E3" height="26.0969" rx="2" ry="2" style="stroke:#181818;stroke-width:0.4000000000000001;" width="77.6" x="686" y="961.2359"/><text fill="#000000" font-family="sans-serif" font-size="11.2" lengthAdjust="spacing" textLength="66.4" x="691.6" y="978.9219">:Repositories</text><rect fill="#E3E3E3" height="40.9938" rx="2" ry="2" style="stroke:#181818;stroke-width:0.4000000000000001;" width="77.6" x="771.6" y="40"/><text fill="#000000" font-family="sans-serif" font-size="11.2" lengthAdjust="spacing" textLength="59.2" x="780.8" y="57.6859">repositories</text><text fill="#000000" font-family="sans-serif" font-size="11.2" lengthAdjust="spacing" textLength="66.4" x="777.2" y="72.5828">:Repositories</text><rect fill="#E3E3E3" height="40.9938" rx="2" ry="2" style="stroke:#181818;stroke-width:0.4000000000000001;" width="77.6" x="771.6" y="961.2359"/><text fill="#000000" font-family="sans-serif" font-size="11.2" lengthAdjust="spacing" textLength="59.2" x="780.8" y="978.9219">repositories</text><text fill="#000000" font-family="sans-serif" font-size="11.2" lengthAdjust="spacing" textLength="66.4" x="777.2" y="993.8188">:Repositories</text><rect fill="#E3E3E3" height="40.9938" rx="2" ry="2" style="stroke:#181818;stroke-width:0.4000000000000001;" width="56.8" x="857.2" y="40"/><text fill="#000000" font-family="sans-serif" font-size="11.2" lengthAdjust="spacing" textLength="44.8" x="863.2" y="57.6859">toDoList:</text><text fill="#000000" font-family="sans-serif" font-size="11.2" lengthAdjust="spacing" textLength="45.6" x="862.8" y="72.5828">ToDoList</text><rect fill="#E3E3E3" height="40.9938" rx="2" ry="2" style="stroke:#181818;stroke-width:0.4000000000000001;" width="56.8" x="857.2" y="961.2359"/><text fill="#000000" font-family="sans-serif" font-size="11.2" lengthAdjust="spacing" textLength="44.8" x="863.2" y="978.9219">toDoList:</text><text fill="#000000" font-family="sans-serif" font-size="11.2" lengthAdjust="spacing" textLength="45.6" x="862.8" y="993.8188">ToDoList</text><rect fill="#E3E3E3" height="26.0969" rx="2" ry="2" style="stroke:#181818;stroke-width:0.4000000000000001;" width="77.6" x="922" y="54.8969"/><text fill="#000000" font-family="sans-serif" font-size="11.2" lengthAdjust="spacing" textLength="66.4" x="927.6" y="72.5828">:TaskMapper</text><rect fill="#E3E3E3" height="26.0969" rx="2" ry="2" style="stroke:#181818;stroke-width:0.4000000000000001;" width="77.6" x="922" y="961.2359"/><text fill="#000000" font-family="sans-serif" font-size="11.2" lengthAdjust="spacing" textLength="66.4" x="927.6" y="978.9219">:TaskMapper</text><rect fill="#E3E3E3" height="40.9938" rx="2" ry="2" style="stroke:#181818;stroke-width:0.4000000000000001;" width="56.8" x="1040.4" y="40"/><text fill="#000000" font-family="sans-serif" font-size="11.2" lengthAdjust="spacing" textLength="38.4" x="1049.6" y="57.6859">taskDto</text><text fill="#000000" font-family="sans-serif" font-size="11.2" lengthAdjust="spacing" textLength="45.6" x="1046" y="72.5828">:TaskDto</text><rect fill="#E3E3E3" height="40.9938" rx="2" ry="2" style="stroke:#181818;stroke-width:0.4000000000000001;" width="56.8" x="1040.4" y="961.2359"/><text fill="#000000" font-family="sans-serif" font-size="11.2" lengthAdjust="spacing" textLength="38.4" x="1049.6" y="978.9219">taskDto</text><text fill="#000000" font-family="sans-serif" font-size="11.2" lengthAdjust="spacing" textLength="45.6" x="1046" y="993.8188">:TaskDto</text><rect fill="#E3E3E3" height="40.9938" rx="2" ry="2" style="stroke:#181818;stroke-width:0.4000000000000001;" width="87.2" x="1105.2" y="40"/><text fill="#000000" font-family="sans-serif" font-size="11.2" lengthAdjust="spacing" textLength="61.6" x="1118" y="57.6859">tasksListDto</text><text fill="#000000" font-family="sans-serif" font-size="11.2" lengthAdjust="spacing" textLength="76" x="1110.8" y="72.5828">:List&lt;TaskDto&gt;</text><rect fill="#E3E3E3" height="40.9938" rx="2" ry="2" style="stroke:#181818;stroke-width:0.4000000000000001;" width="87.2" x="1105.2" y="961.2359"/><text fill="#000000" font-family="sans-serif" font-size="11.2" lengthAdjust="spacing" textLength="61.6" x="1118" y="978.9219">tasksListDto</text><text fill="#000000" font-family="sans-serif" font-size="11.2" lengthAdjust="spacing" textLength="76" x="1110.8" y="993.8188">:List&lt;TaskDto&gt;</text><rect fill="#E3E3E3" height="40.9938" rx="2" ry="2" style="stroke:#181818;stroke-width:0.4000000000000001;" width="40.8" x="1200.4" y="961.2359"/><text fill="#000000" font-family="sans-serif" font-size="11.2" lengthAdjust="spacing" textLength="25.6" x="1208" y="978.9219">entry</text><text fill="#000000" font-family="sans-serif" font-size="11.2" lengthAdjust="spacing" textLength="29.6" x="1206" y="993.8188">:Entry</text><rect fill="#FFFFFF" height="857.8422" style="stroke:#181818;stroke-width:0.8000000000000002;" width="8" x="38.8" y="89.7938"/><rect fill="#FFFFFF" height="839.2094" style="stroke:#181818;stroke-width:0.8000000000000002;" width="8" x="179.6" y="108.4266"/><rect fill="#FFFFFF" height="33.8328" style="stroke:#181818;stroke-width:0.8000000000000002;" width="8" x="183.6" y="224.8219"/><rect fill="#FFFFFF" height="33.8328" style="stroke:#181818;stroke-width:0.8000000000000002;" width="8" x="183.6" y="295.6875"/><rect fill="#FFFFFF" height="25.0328" style="stroke:#181818;stroke-width:0.8000000000000002;" width="8" x="315.6" y="168.3563"/><rect fill="#FFFFFF" height="25.0328" style="stroke:#181818;stroke-width:0.8000000000000002;" width="8" x="460" y="385.1859"/><rect fill="#FFFFFF" height="25.0328" style="stroke:#181818;stroke-width:0.8000000000000002;" width="8" x="575.2" y="435.2516"/><rect fill="#FFFFFF" height="276.6891" style="stroke:#181818;stroke-width:0.8000000000000002;" width="8" x="647.2" y="620.8813"/><rect fill="#FFFFFF" height="25.0328" style="stroke:#181818;stroke-width:0.8000000000000002;" width="8" x="720.8" y="520.75"/><rect fill="#FFFFFF" height="25.0328" style="stroke:#181818;stroke-width:0.8000000000000002;" width="8" x="806.4" y="570.8156"/><rect fill="#FFFFFF" height="50.0656" style="stroke:#181818;stroke-width:0.8000000000000002;" width="8" x="956.8" y="791.8391"/><rect fill="#FFFFFF" height="100.1313" style="stroke:#181818;stroke-width:0.8000000000000002;" width="8" x="1064.8" y="766.8063"/><rect fill="#FFFFFF" height="25.0328" style="stroke:#181818;stroke-width:0.8000000000000002;" width="8" x="1216.8" y="716.7406"/><polygon fill="#181818" points="170,105.2266,178,108.4266,170,111.6266,173.2,108.4266" style="stroke:#181818;stroke-width:0.8000000000000002;"/><line style="stroke:#181818;stroke-width:0.8000000000000002;" x1="46.8" x2="174.8" y1="108.4266" y2="108.4266"/><text fill="#000000" font-family="sans-serif" font-size="10.4" lengthAdjust="spacing" textLength="117.6" x="52.4" y="104.2164">requests to consult tasks</text><polygon fill="#181818" points="243.6,130.2594,251.6,133.4594,243.6,136.6594,246.8,133.4594" style="stroke:#181818;stroke-width:0.8000000000000002;"/><line style="stroke:#181818;stroke-width:0.8000000000000002;" x1="187.6" x2="248.4" y1="133.4594" y2="133.4594"/><text fill="#000000" font-family="sans-serif" font-size="10.4" lengthAdjust="spacing" textLength="28.8" x="193.2" y="129.2492">create</text><rect fill="#E3E3E3" height="26.0969" rx="2" ry="2" style="stroke:#181818;stroke-width:0.4000000000000001;" width="132.8" x="253.2" y="114.8266"/><text fill="#000000" font-family="sans-serif" font-size="11.2" lengthAdjust="spacing" textLength="121.6" x="258.8" y="132.5125">:ConsultTasksController</text><polygon fill="#181818" points="306,165.1563,314,168.3563,306,171.5563,309.2,168.3563" style="stroke:#181818;stroke-width:0.8000000000000002;"/><line style="stroke:#181818;stroke-width:0.8000000000000002;" x1="187.6" x2="310.8" y1="168.3563" y2="168.3563"/><text fill="#000000" font-family="sans-serif" font-size="10.4" lengthAdjust="spacing" textLength="62.4" x="193.2" y="164.1461">requestData()</text><polygon fill="#181818" points="196.4,190.1891,188.4,193.3891,196.4,196.5891,193.2,193.3891" style="stroke:#181818;stroke-width:0.8000000000000002;"/><line style="stroke:#181818;stroke-width:0.8000000000000002;" x1="191.6" x2="318.8" y1="193.3891" y2="193.3891"/><text fill="#000000" font-family="sans-serif" font-size="10.4" lengthAdjust="spacing" textLength="84.8" x="201.2" y="189.1789">requestStartDate()</text><line style="stroke:#181818;stroke-width:0.8000000000000002;" x1="187.6" x2="225.2" y1="214.4219" y2="214.4219"/><line style="stroke:#181818;stroke-width:0.8000000000000002;" x1="225.2" x2="225.2" y1="214.4219" y2="224.8219"/><line style="stroke:#181818;stroke-width:0.8000000000000002;" x1="192.4" x2="225.2" y1="224.8219" y2="224.8219"/><polygon fill="#181818" points="200.4,221.6219,192.4,224.8219,200.4,228.0219,197.2,224.8219" style="stroke:#181818;stroke-width:0.8000000000000002;"/><text fill="#000000" font-family="sans-serif" font-size="10.4" lengthAdjust="spacing" textLength="116.8" x="197.2" y="210.2117">prompt user for start date</text><line style="stroke:#181818;stroke-width:0.8000000000000002;" x1="191.6" x2="225.2" y1="257.8547" y2="257.8547"/><line style="stroke:#181818;stroke-width:0.8000000000000002;" x1="225.2" x2="225.2" y1="257.8547" y2="268.2547"/><line style="stroke:#181818;stroke-width:0.8000000000000002;" x1="187.6" x2="225.2" y1="268.2547" y2="268.2547"/><polygon fill="#181818" points="195.6,265.0547,187.6,268.2547,195.6,271.4547,192.4,268.2547" style="stroke:#181818;stroke-width:0.8000000000000002;"/><text fill="#000000" font-family="sans-serif" font-size="10.4" lengthAdjust="spacing" textLength="71.2" x="197.2" y="253.6445">parse startDate</text><line style="stroke:#181818;stroke-width:0.8000000000000002;" x1="187.6" x2="225.2" y1="285.2875" y2="285.2875"/><line style="stroke:#181818;stroke-width:0.8000000000000002;" x1="225.2" x2="225.2" y1="285.2875" y2="295.6875"/><line style="stroke:#181818;stroke-width:0.8000000000000002;" x1="192.4" x2="225.2" y1="295.6875" y2="295.6875"/><polygon fill="#181818" points="200.4,292.4875,192.4,295.6875,200.4,298.8875,197.2,295.6875" style="stroke:#181818;stroke-width:0.8000000000000002;"/><text fill="#000000" font-family="sans-serif" font-size="10.4" lengthAdjust="spacing" textLength="112.8" x="197.2" y="281.0773">prompt user for end date</text><line style="stroke:#181818;stroke-width:0.8000000000000002;" x1="191.6" x2="225.2" y1="328.7203" y2="328.7203"/><line style="stroke:#181818;stroke-width:0.8000000000000002;" x1="225.2" x2="225.2" y1="328.7203" y2="339.1203"/><line style="stroke:#181818;stroke-width:0.8000000000000002;" x1="187.6" x2="225.2" y1="339.1203" y2="339.1203"/><polygon fill="#181818" points="195.6,335.9203,187.6,339.1203,195.6,342.3203,192.4,339.1203" style="stroke:#181818;stroke-width:0.8000000000000002;"/><text fill="#000000" font-family="sans-serif" font-size="10.4" lengthAdjust="spacing" textLength="67.2" x="197.2" y="324.5102">parse endDate</text><polygon fill="#181818" points="196.4,356.9531,188.4,360.1531,196.4,363.3531,193.2,360.1531" style="stroke:#181818;stroke-width:0.8000000000000002;"/><line style="stroke:#181818;stroke-width:0.8000000000000002;stroke-dasharray:2.0,2.0;" x1="191.6" x2="318.8" y1="360.1531" y2="360.1531"/><text fill="#000000" font-family="sans-serif" font-size="10.4" lengthAdjust="spacing" textLength="87.2" x="201.2" y="355.943">startDate, endDate</text><polygon fill="#181818" points="450.4,381.9859,458.4,385.1859,450.4,388.3859,453.6,385.1859" style="stroke:#181818;stroke-width:0.8000000000000002;"/><line style="stroke:#181818;stroke-width:0.8000000000000002;" x1="319.6" x2="455.2" y1="385.1859" y2="385.1859"/><text fill="#000000" font-family="sans-serif" font-size="10.4" lengthAdjust="spacing" textLength="113.6" x="325.2" y="380.9758">getCurrentUserSession()</text><polygon fill="#181818" points="328.4,407.0188,320.4,410.2188,328.4,413.4188,325.2,410.2188" style="stroke:#181818;stroke-width:0.8000000000000002;"/><line style="stroke:#181818;stroke-width:0.8000000000000002;stroke-dasharray:2.0,2.0;" x1="323.6" x2="463.2" y1="410.2188" y2="410.2188"/><text fill="#000000" font-family="sans-serif" font-size="10.4" lengthAdjust="spacing" textLength="99.2" x="333.2" y="406.0086">authenticationFacade</text><polygon fill="#181818" points="565.6,432.0516,573.6,435.2516,565.6,438.4516,568.8,435.2516" style="stroke:#181818;stroke-width:0.8000000000000002;"/><line style="stroke:#181818;stroke-width:0.8000000000000002;" x1="319.6" x2="570.4" y1="435.2516" y2="435.2516"/><text fill="#000000" font-family="sans-serif" font-size="10.4" lengthAdjust="spacing" textLength="50.4" x="325.2" y="431.0414">getUserId()</text><polygon fill="#181818" points="328.4,457.0844,320.4,460.2844,328.4,463.4844,325.2,460.2844" style="stroke:#181818;stroke-width:0.8000000000000002;"/><line style="stroke:#181818;stroke-width:0.8000000000000002;stroke-dasharray:2.0,2.0;" x1="323.6" x2="578.4" y1="460.2844" y2="460.2844"/><text fill="#000000" font-family="sans-serif" font-size="10.4" lengthAdjust="spacing" textLength="24.8" x="333.2" y="456.0742">email</text><line style="stroke:#181818;stroke-width:0.8000000000000002;stroke-dasharray:2.0,2.0;" x1="319.6" x2="353.2" y1="489.3172" y2="489.3172"/><line style="stroke:#181818;stroke-width:0.8000000000000002;stroke-dasharray:2.0,2.0;" x1="353.2" x2="353.2" y1="489.3172" y2="499.7172"/><line style="stroke:#181818;stroke-width:0.8000000000000002;stroke-dasharray:2.0,2.0;" x1="315.6" x2="353.2" y1="499.7172" y2="499.7172"/><polygon fill="#181818" points="323.6,496.5172,315.6,499.7172,323.6,502.9172,320.4,499.7172" style="stroke:#181818;stroke-width:0.8000000000000002;"/><text fill="#000000" font-family="sans-serif" font-size="10.4" lengthAdjust="spacing" textLength="24.8" x="325.2" y="485.107">email</text><polygon fill="#181818" points="711.2,517.55,719.2,520.75,711.2,523.95,714.4,520.75" style="stroke:#181818;stroke-width:0.8000000000000002;"/><line style="stroke:#181818;stroke-width:0.8000000000000002;" x1="319.6" x2="716" y1="520.75" y2="520.75"/><text fill="#000000" font-family="sans-serif" font-size="10.4" lengthAdjust="spacing" textLength="60" x="325.2" y="516.5398">getInstance()</text><polygon fill="#181818" points="328.4,542.5828,320.4,545.7828,328.4,548.9828,325.2,545.7828" style="stroke:#181818;stroke-width:0.8000000000000002;"/><line style="stroke:#181818;stroke-width:0.8000000000000002;stroke-dasharray:2.0,2.0;" x1="323.6" x2="724" y1="545.7828" y2="545.7828"/><text fill="#000000" font-family="sans-serif" font-size="10.4" lengthAdjust="spacing" textLength="53.6" x="333.2" y="541.5727">repositories</text><polygon fill="#181818" points="796.8,567.6156,804.8,570.8156,796.8,574.0156,800,570.8156" style="stroke:#181818;stroke-width:0.8000000000000002;"/><line style="stroke:#181818;stroke-width:0.8000000000000002;" x1="319.6" x2="801.6" y1="570.8156" y2="570.8156"/><text fill="#000000" font-family="sans-serif" font-size="10.4" lengthAdjust="spacing" textLength="56" x="325.2" y="566.6055">getAgenda()</text><polygon fill="#181818" points="328.4,592.6484,320.4,595.8484,328.4,599.0484,325.2,595.8484" style="stroke:#181818;stroke-width:0.8000000000000002;"/><line style="stroke:#181818;stroke-width:0.8000000000000002;stroke-dasharray:2.0,2.0;" x1="323.6" x2="809.6" y1="595.8484" y2="595.8484"/><text fill="#000000" font-family="sans-serif" font-size="10.4" lengthAdjust="spacing" textLength="33.6" x="333.2" y="591.6383">agenda</text><polygon fill="#181818" points="637.6,617.6813,645.6,620.8813,637.6,624.0813,640.8,620.8813" style="stroke:#181818;stroke-width:0.8000000000000002;"/><line style="stroke:#181818;stroke-width:0.8000000000000002;" x1="319.6" x2="642.4" y1="620.8813" y2="620.8813"/><text fill="#000000" font-family="sans-serif" font-size="10.4" lengthAdjust="spacing" textLength="304.8" x="325.2" y="616.6711">getTasksForCollaboratorBetweenDates(email, startDate, endDate)</text><polygon fill="#181818" points="1190.8,642.7141,1198.8,645.9141,1190.8,649.1141,1194,645.9141" style="stroke:#181818;stroke-width:0.8000000000000002;"/><line style="stroke:#181818;stroke-width:0.8000000000000002;" x1="655.2" x2="1195.6" y1="645.9141" y2="645.9141"/><text fill="#000000" font-family="sans-serif" font-size="10.4" lengthAdjust="spacing" textLength="35.2" x="660.8" y="641.7039">create()</text><rect fill="#E3E3E3" height="40.9938" rx="2" ry="2" style="stroke:#181818;stroke-width:0.4000000000000001;" width="40.8" x="1200.4" y="627.2813"/><text fill="#000000" font-family="sans-serif" font-size="11.2" lengthAdjust="spacing" textLength="25.6" x="1208" y="644.9672">entry</text><text fill="#000000" font-family="sans-serif" font-size="11.2" lengthAdjust="spacing" textLength="29.6" x="1206" y="659.8641">:Entry</text><path d="M616.4,682.675 L674.8,682.675 L674.8,690.1078 L666.8,698.1078 L616.4,698.1078 L616.4,682.675 " fill="#EEEEEE" style="stroke:#000000;stroke-width:1.2000000000000002;"/><rect fill="none" height="190.6625" style="stroke:#000000;stroke-width:1.2000000000000002;" width="632.8" x="616.4" y="682.675"/><text fill="#000000" font-family="sans-serif" font-size="10.4" font-weight="bold" lengthAdjust="spacing" textLength="22.4" x="628.4" y="694.6977">loop</text><text fill="#000000" font-family="sans-serif" font-size="8.8" font-weight="bold" lengthAdjust="spacing" textLength="114.4" x="686.8" y="693.7711">[For each entry in agenda]</text><polygon fill="#181818" points="1207.2,713.5406,1215.2,716.7406,1207.2,719.9406,1210.4,716.7406" style="stroke:#181818;stroke-width:0.8000000000000002;"/><line style="stroke:#181818;stroke-width:0.8000000000000002;" x1="655.2" x2="1212" y1="716.7406" y2="716.7406"/><text fill="#000000" font-family="sans-serif" font-size="10.4" lengthAdjust="spacing" textLength="23.2" x="660.8" y="712.5305">entry</text><polygon fill="#181818" points="664,738.5734,656,741.7734,664,744.9734,660.8,741.7734" style="stroke:#181818;stroke-width:0.8000000000000002;"/><line style="stroke:#181818;stroke-width:0.8000000000000002;stroke-dasharray:2.0,2.0;" x1="659.2" x2="1220" y1="741.7734" y2="741.7734"/><text fill="#000000" font-family="sans-serif" font-size="10.4" lengthAdjust="spacing" textLength="23.2" x="668.8" y="737.5633">entry</text><polygon fill="#181818" points="1055.2,763.6063,1063.2,766.8063,1055.2,770.0063,1058.4,766.8063" style="stroke:#181818;stroke-width:0.8000000000000002;"/><line style="stroke:#181818;stroke-width:0.8000000000000002;" x1="655.2" x2="1060" y1="766.8063" y2="766.8063"/><text fill="#000000" font-family="sans-serif" font-size="10.4" lengthAdjust="spacing" textLength="84.8" x="660.8" y="762.5961">entryToDTO(entry)</text><polygon fill="#181818" points="973.6,788.6391,965.6,791.8391,973.6,795.0391,970.4,791.8391" style="stroke:#181818;stroke-width:0.8000000000000002;"/><line style="stroke:#181818;stroke-width:0.8000000000000002;" x1="968.8" x2="1064" y1="791.8391" y2="791.8391"/><text fill="#000000" font-family="sans-serif" font-size="10.4" lengthAdjust="spacing" textLength="84.8" x="978.4" y="787.6289">entryToDTO(entry)</text><polygon fill="#181818" points="1055.2,813.6719,1063.2,816.8719,1055.2,820.0719,1058.4,816.8719" style="stroke:#181818;stroke-width:0.8000000000000002;"/><line style="stroke:#181818;stroke-width:0.8000000000000002;" x1="964.8" x2="1060" y1="816.8719" y2="816.8719"/><text fill="#000000" font-family="sans-serif" font-size="10.4" lengthAdjust="spacing" textLength="35.2" x="970.4" y="812.6617">create()</text><polygon fill="#181818" points="1055.2,838.7047,1063.2,841.9047,1055.2,845.1047,1058.4,841.9047" style="stroke:#181818;stroke-width:0.8000000000000002;"/><line style="stroke:#181818;stroke-width:0.8000000000000002;stroke-dasharray:2.0,2.0;" x1="960.8" x2="1060" y1="841.9047" y2="841.9047"/><text fill="#000000" font-family="sans-serif" font-size="10.4" lengthAdjust="spacing" textLength="40.8" x="966.4" y="837.6945">taskDTO</text><polygon fill="#181818" points="664,863.7375,656,866.9375,664,870.1375,660.8,866.9375" style="stroke:#181818;stroke-width:0.8000000000000002;"/><line style="stroke:#181818;stroke-width:0.8000000000000002;stroke-dasharray:2.0,2.0;" x1="659.2" x2="1068" y1="866.9375" y2="866.9375"/><text fill="#000000" font-family="sans-serif" font-size="10.4" lengthAdjust="spacing" textLength="40.8" x="668.8" y="862.7273">taskDTO</text><polygon fill="#181818" points="328.4,894.3703,320.4,897.5703,328.4,900.7703,325.2,897.5703" style="stroke:#181818;stroke-width:0.8000000000000002;"/><line style="stroke:#181818;stroke-width:0.8000000000000002;stroke-dasharray:2.0,2.0;" x1="323.6" x2="650.4" y1="897.5703" y2="897.5703"/><text fill="#000000" font-family="sans-serif" font-size="10.4" lengthAdjust="spacing" textLength="48" x="333.2" y="893.3602">entriesList</text><polygon fill="#181818" points="196.4,919.4031,188.4,922.6031,196.4,925.8031,193.2,922.6031" style="stroke:#181818;stroke-width:0.8000000000000002;"/><line style="stroke:#181818;stroke-width:0.8000000000000002;stroke-dasharray:2.0,2.0;" x1="191.6" x2="318.8" y1="922.6031" y2="922.6031"/><text fill="#000000" font-family="sans-serif" font-size="10.4" lengthAdjust="spacing" textLength="48" x="201.2" y="918.393">entriesList</text><polygon fill="#181818" points="51.6,944.4359,43.6,947.6359,51.6,950.8359,48.4,947.6359" style="stroke:#181818;stroke-width:0.8000000000000002;"/><line style="stroke:#181818;stroke-width:0.8000000000000002;stroke-dasharray:2.0,2.0;" x1="46.8" x2="182.8" y1="947.6359" y2="947.6359"/><text fill="#000000" font-family="sans-serif" font-size="10.4" lengthAdjust="spacing" textLength="67.2" x="56.4" y="943.4258">displays tasks</text><!--SRC=[fLRRRjim37tFLmXzQehs1uAXG9TB4Q1PYzXz6D0NpbOJeuxaISgA_FqeobOatx9YUeaYyHmUaHHb_L682XGSs44AcUsLF71cr95FjD-f8Fk07K_CgUHCySo0s9MXWTv3BZyBiMFlK6e-cK1cf69NZufpmHB4S_qcDY2GHLqnqEmnsKmGQugig40OTZMRIw6FfKb1V-ZNDHczhaTiS6wKBCkQS9vkds9hE9ez5_WVJ275bbTI5wZgD7iJ3mDRn1JZOiwZvWhnh_YJSArndo1skINrOST53ewGfgrzxxJWcgosovVOH0KMRw8NaCG88nVogT065QRrb2oRzPO46yODL5KTGMF_FhoyBBSjLbnV68aIKZVprelqkMkghITdRsVVQj2zHz5-6ua1LoU4BEqlcIv_fDkVL4d57p2SAcR2SE24tTrZSR0P5kFl8zV67f5bhZZ8XoPBZyL2eWKx48TeMoutDyYGAOuMVTjd-WKOk9vw4qzBDUUNxI1SIrnYyA18mGCAEt8-GkHa44s5Lx8oL6Fi7M-Ljdmijwf3HEzXsrIWD7S4YpO-a3F6q1A3bVq_KX3-5I4kl0s5FyVj9PuulasIuekEX3jkvaUbS2suu7s9RxM8-F0nwzsvckAT5MIG3oeUyz3efoIGQYjtdRVgotDHTugsx21qe8uVe2WxLe6aBerFno35nHnW4tD7M0jCfyXuNxXjQuneBUeklARdrZZaliCHA4YS1DUoXw98xROJ7qA7ENQzVYIC_Jo-9WdlzD0pjv9gZgyS_98Ay8JVkVd4DzKMkxwcUD_st8DfX_zSM4vWnu2Cd7EKGSqtw8yOb5v4AMN5LhOFGBPdrCHP8KQTz3YQEUImUIE-VXE6x6YRik73E4uSfEK2zLbn_V3LrFZEfi_ND9rUrjyyceEMTjH6ZI_t97_5NSTb_QgF0XhFpZOuwCKQw4D7yERKO-0W4_-YsCSepFKbFoqVWub0kkv6Km11jyCiOCEX3wiHLtrt8Nx7XeXwcwTzGX5eFu9cB2zqLS991zyyhTSp-6i_eFu2]--></g></svg>