<?xml version="1.0" encoding="us-ascii" standalone="no"?><svg xmlns="http://www.w3.org/2000/svg" xmlns:xlink="http://www.w3.org/1999/xlink" contentStyleType="text/css" height="819px" preserveAspectRatio="none" style="width:1619px;height:819px;background:#FFFFFF;" version="1.1" viewBox="0 0 1619 819" width="1619.4px" zoomAndPan="magnify"><defs/><g><rect fill="#FFFFFF" height="705.2004" style="stroke:#181818;stroke-width:0.6;" width="6" x="27.9" y="54.893"/><rect fill="#FFFFFF" height="692.4141" style="stroke:#181818;stroke-width:0.6;" width="6" x="150.9" y="67.6793"/><rect fill="#FFFFFF" height="651.2414" style="stroke:#181818;stroke-width:0.6;" width="6" x="399.9" y="91.2656"/><rect fill="#FFFFFF" height="17.5863" style="stroke:#181818;stroke-width:0.6;" width="6" x="554.1" y="153.1313"/><rect fill="#FFFFFF" height="17.5863" style="stroke:#181818;stroke-width:0.6;" width="6" x="554.1" y="354.3809"/><rect fill="#FFFFFF" height="17.5863" style="stroke:#181818;stroke-width:0.6;" width="6" x="621.9" y="188.3039"/><rect fill="#FFFFFF" height="17.5863" style="stroke:#181818;stroke-width:0.6;" width="6" x="621.9" y="389.5535"/><rect fill="#FFFFFF" height="300.1945" style="stroke:#181818;stroke-width:0.6;" width="6" x="724.5" y="424.7262"/><rect fill="#FFFFFF" height="24.1863" style="stroke:#181818;stroke-width:0.6;" width="6" x="727.5" y="531.6574"/><rect fill="#FFFFFF" height="17.5863" style="stroke:#181818;stroke-width:0.6;" width="6" x="1191.6" y="223.4766"/><rect fill="#FFFFFF" height="17.5863" style="stroke:#181818;stroke-width:0.6;" width="6" x="1304.1" y="258.6492"/><rect fill="#FFFFFF" height="17.5863" style="stroke:#181818;stroke-width:0.6;" width="6" x="1388.7" y="293.8219"/><rect fill="#FFFFFF" height="17.5863" style="stroke:#181818;stroke-width:0.6;" width="6" x="1388.7" y="627.3891"/><rect fill="#FFFFFF" height="17.5863" style="stroke:#181818;stroke-width:0.6;" width="6" x="1491.3" y="491.6848"/><rect fill="#FFFFFF" height="17.5863" style="stroke:#181818;stroke-width:0.6;" width="6" x="1491.3" y="577.6301"/><rect fill="#FFFFFF" height="17.5863" style="stroke:#181818;stroke-width:0.6;" width="6" x="1554" y="677.148"/><rect fill="none" height="239.4223" style="stroke:#000000;stroke-width:0.8999999999999999;" width="927" x="688.8" y="468.5121"/><rect fill="none" height="99.518" style="stroke:#000000;stroke-width:0.8999999999999999;" width="915" x="694.8" y="604.2164"/><rect fill="none" height="45.559" style="stroke:#000000;stroke-width:0.8999999999999999;" width="903" x="700.8" y="653.9754"/><line style="stroke:#181818;stroke-width:0.3;stroke-dasharray:5.0,5.0;" x1="30.6" x2="30.6" y1="48.893" y2="770.8934"/><line style="stroke:#181818;stroke-width:0.3;stroke-dasharray:5.0,5.0;" x1="153.9" x2="153.9" y1="48.893" y2="770.8934"/><line style="stroke:#181818;stroke-width:0.3;stroke-dasharray:5.0,5.0;" x1="402.9" x2="402.9" y1="90.9258" y2="770.8934"/><line style="stroke:#181818;stroke-width:0.3;stroke-dasharray:5.0,5.0;" x1="556.8" x2="556.8" y1="48.893" y2="770.8934"/><line style="stroke:#181818;stroke-width:0.3;stroke-dasharray:5.0,5.0;" x1="624.6" x2="624.6" y1="48.893" y2="770.8934"/><line style="stroke:#181818;stroke-width:0.3;stroke-dasharray:5.0,5.0;" x1="727.2" x2="727.2" y1="48.893" y2="770.8934"/><line style="stroke:#181818;stroke-width:0.3;stroke-dasharray:5.0,5.0;" x1="968.4" x2="968.4" y1="48.893" y2="770.8934"/><line style="stroke:#181818;stroke-width:0.3;stroke-dasharray:5.0,5.0;" x1="1029" x2="1029" y1="48.893" y2="770.8934"/><line style="stroke:#181818;stroke-width:0.3;stroke-dasharray:5.0,5.0;" x1="1095" x2="1095" y1="48.893" y2="770.8934"/><line style="stroke:#181818;stroke-width:0.3;stroke-dasharray:5.0,5.0;" x1="1194.6" x2="1194.6" y1="48.893" y2="770.8934"/><line style="stroke:#181818;stroke-width:0.3;stroke-dasharray:5.0,5.0;" x1="1306.8" x2="1306.8" y1="48.893" y2="770.8934"/><line style="stroke:#181818;stroke-width:0.3;stroke-dasharray:5.0,5.0;" x1="1391.4" x2="1391.4" y1="48.893" y2="770.8934"/><line style="stroke:#181818;stroke-width:0.3;stroke-dasharray:5.0,5.0;" x1="1449.6" x2="1449.6" y1="48.893" y2="770.8934"/><line style="stroke:#181818;stroke-width:0.3;stroke-dasharray:5.0,5.0;" x1="1494" x2="1494" y1="48.893" y2="770.8934"/><line style="stroke:#181818;stroke-width:0.3;stroke-dasharray:5.0,5.0;" x1="1557" x2="1557" y1="452.9191" y2="770.8934"/><text fill="#000000" font-family="sans-serif" font-size="8.4" lengthAdjust="spacing" textLength="52.2" x="3" y="47.1211">Collaborator</text><ellipse cx="30.9" cy="8.1" fill="#E3E3E3" rx="4.8" ry="4.8" style="stroke:#181818;stroke-width:0.3;"/><path d="M30.9,12.9 L30.9,29.1 M23.1,17.7 L38.7,17.7 M30.9,29.1 L23.1,38.1 M30.9,29.1 L38.7,38.1 " fill="none" style="stroke:#181818;stroke-width:0.3;"/><text fill="#000000" font-family="sans-serif" font-size="8.4" lengthAdjust="spacing" textLength="52.2" x="3" y="778.4145">Collaborator</text><ellipse cx="30.9" cy="785.2863" fill="#E3E3E3" rx="4.8" ry="4.8" style="stroke:#181818;stroke-width:0.3;"/><path d="M30.9,790.0863 L30.9,806.2863 M23.1,794.8863 L38.7,794.8863 M30.9,806.2863 L23.1,815.2863 M30.9,806.2863 L38.7,815.2863 " fill="none" style="stroke:#181818;stroke-width:0.3;"/><rect fill="#E3E3E3" height="18.293" rx="1.5" ry="1.5" style="stroke:#181818;stroke-width:0.3;" width="74.4" x="116.7" y="30"/><text fill="#000000" font-family="sans-serif" font-size="8.4" lengthAdjust="spacing" textLength="66" x="120.9" y="42.3211">:ConsultTasksUI</text><rect fill="#E3E3E3" height="18.293" rx="1.5" ry="1.5" style="stroke:#181818;stroke-width:0.3;" width="74.4" x="116.7" y="770.2934"/><text fill="#000000" font-family="sans-serif" font-size="8.4" lengthAdjust="spacing" textLength="66" x="120.9" y="782.6145">:ConsultTasksUI</text><rect fill="#E3E3E3" height="18.293" rx="1.5" ry="1.5" style="stroke:#181818;stroke-width:0.3;" width="108" x="348.9" y="770.2934"/><text fill="#000000" font-family="sans-serif" font-size="8.4" lengthAdjust="spacing" textLength="99.6" x="353.1" y="782.6145">:ConsultTasksController</text><rect fill="#E3E3E3" height="18.293" rx="1.5" ry="1.5" style="stroke:#181818;stroke-width:0.3;" width="61.8" x="526.2" y="30"/><text fill="#000000" font-family="sans-serif" font-size="8.4" lengthAdjust="spacing" textLength="53.4" x="530.4" y="42.3211">:Repositories</text><rect fill="#E3E3E3" height="18.293" rx="1.5" ry="1.5" style="stroke:#181818;stroke-width:0.3;" width="61.8" x="526.2" y="770.2934"/><text fill="#000000" font-family="sans-serif" font-size="8.4" lengthAdjust="spacing" textLength="53.4" x="530.4" y="782.6145">:Repositories</text><rect fill="#E3E3E3" height="28.1859" rx="1.5" ry="1.5" style="stroke:#181818;stroke-width:0.3;" width="61.8" x="594" y="20.107"/><text fill="#000000" font-family="sans-serif" font-size="8.4" lengthAdjust="spacing" textLength="49.2" x="600.3" y="32.4281">repositories</text><text fill="#000000" font-family="sans-serif" font-size="8.4" lengthAdjust="spacing" textLength="53.4" x="598.2" y="42.3211">:Repositories</text><rect fill="#E3E3E3" height="28.1859" rx="1.5" ry="1.5" style="stroke:#181818;stroke-width:0.3;" width="61.8" x="594" y="770.2934"/><text fill="#000000" font-family="sans-serif" font-size="8.4" lengthAdjust="spacing" textLength="49.2" x="600.3" y="782.6145">repositories</text><text fill="#000000" font-family="sans-serif" font-size="8.4" lengthAdjust="spacing" textLength="53.4" x="598.2" y="792.5074">:Repositories</text><rect fill="#E3E3E3" height="28.1859" rx="1.5" ry="1.5" style="stroke:#181818;stroke-width:0.3;" width="41.4" x="706.8" y="20.107"/><text fill="#000000" font-family="sans-serif" font-size="8.4" lengthAdjust="spacing" textLength="33" x="711" y="32.4281">agenda:</text><text fill="#000000" font-family="sans-serif" font-size="8.4" lengthAdjust="spacing" textLength="31.8" x="711.6" y="42.3211">Agenda</text><rect fill="#E3E3E3" height="28.1859" rx="1.5" ry="1.5" style="stroke:#181818;stroke-width:0.3;" width="41.4" x="706.8" y="770.2934"/><text fill="#000000" font-family="sans-serif" font-size="8.4" lengthAdjust="spacing" textLength="33" x="711" y="782.6145">agenda:</text><text fill="#000000" font-family="sans-serif" font-size="8.4" lengthAdjust="spacing" textLength="31.8" x="711.6" y="792.5074">Agenda</text><rect fill="#E3E3E3" height="18.293" rx="1.5" ry="1.5" style="stroke:#181818;stroke-width:0.3;" width="63" x="937.2" y="30"/><text fill="#000000" font-family="sans-serif" font-size="8.4" lengthAdjust="spacing" textLength="54.6" x="941.4" y="42.3211">:EntryMapper</text><rect fill="#E3E3E3" height="18.293" rx="1.5" ry="1.5" style="stroke:#181818;stroke-width:0.3;" width="63" x="937.2" y="770.2934"/><text fill="#000000" font-family="sans-serif" font-size="8.4" lengthAdjust="spacing" textLength="54.6" x="941.4" y="782.6145">:EntryMapper</text><rect fill="#E3E3E3" height="28.1859" rx="1.5" ry="1.5" style="stroke:#181818;stroke-width:0.3;" width="46.2" x="1006.2" y="20.107"/><text fill="#000000" font-family="sans-serif" font-size="8.4" lengthAdjust="spacing" textLength="35.4" x="1011.6" y="32.4281">entryDto</text><text fill="#000000" font-family="sans-serif" font-size="8.4" lengthAdjust="spacing" textLength="37.8" x="1010.4" y="42.3211">:EntryDto</text><rect fill="#E3E3E3" height="28.1859" rx="1.5" ry="1.5" style="stroke:#181818;stroke-width:0.3;" width="46.2" x="1006.2" y="770.2934"/><text fill="#000000" font-family="sans-serif" font-size="8.4" lengthAdjust="spacing" textLength="35.4" x="1011.6" y="782.6145">entryDto</text><text fill="#000000" font-family="sans-serif" font-size="8.4" lengthAdjust="spacing" textLength="37.8" x="1010.4" y="792.5074">:EntryDto</text><rect fill="#E3E3E3" height="28.1859" rx="1.5" ry="1.5" style="stroke:#181818;stroke-width:0.3;" width="73.2" x="1058.4" y="20.107"/><text fill="#000000" font-family="sans-serif" font-size="8.4" lengthAdjust="spacing" textLength="49.2" x="1070.4" y="32.4281">entryListDto</text><text fill="#000000" font-family="sans-serif" font-size="8.4" lengthAdjust="spacing" textLength="64.8" x="1062.6" y="42.3211">:List&lt;entryDto&gt;</text><rect fill="#E3E3E3" height="28.1859" rx="1.5" ry="1.5" style="stroke:#181818;stroke-width:0.3;" width="73.2" x="1058.4" y="770.2934"/><text fill="#000000" font-family="sans-serif" font-size="8.4" lengthAdjust="spacing" textLength="49.2" x="1070.4" y="782.6145">entryListDto</text><text fill="#000000" font-family="sans-serif" font-size="8.4" lengthAdjust="spacing" textLength="64.8" x="1062.6" y="792.5074">:List&lt;entryDto&gt;</text><rect fill="#E3E3E3" height="28.1859" rx="1.5" ry="1.5" style="stroke:#181818;stroke-width:0.3;" width="114" x="1137.6" y="20.107"/><text fill="#000000" font-family="sans-serif" font-size="8.4" lengthAdjust="spacing" textLength="105.6" x="1141.8" y="32.4281">authenticationRepository:</text><text fill="#000000" font-family="sans-serif" font-size="8.4" lengthAdjust="spacing" textLength="104.4" x="1142.4" y="42.3211">AuthenticationRepository</text><rect fill="#E3E3E3" height="28.1859" rx="1.5" ry="1.5" style="stroke:#181818;stroke-width:0.3;" width="114" x="1137.6" y="770.2934"/><text fill="#000000" font-family="sans-serif" font-size="8.4" lengthAdjust="spacing" textLength="105.6" x="1141.8" y="782.6145">authenticationRepository:</text><text fill="#000000" font-family="sans-serif" font-size="8.4" lengthAdjust="spacing" textLength="104.4" x="1142.4" y="792.5074">AuthenticationRepository</text><rect fill="#E3E3E3" height="28.1859" rx="1.5" ry="1.5" style="stroke:#181818;stroke-width:0.3;" width="99" x="1257.6" y="20.107"/><text fill="#000000" font-family="sans-serif" font-size="8.4" lengthAdjust="spacing" textLength="90.6" x="1261.8" y="32.4281">authenticationFacade:</text><text fill="#000000" font-family="sans-serif" font-size="8.4" lengthAdjust="spacing" textLength="48.6" x="1282.8" y="42.3211">AuthFacade</text><rect fill="#E3E3E3" height="28.1859" rx="1.5" ry="1.5" style="stroke:#181818;stroke-width:0.3;" width="99" x="1257.6" y="770.2934"/><text fill="#000000" font-family="sans-serif" font-size="8.4" lengthAdjust="spacing" textLength="90.6" x="1261.8" y="782.6145">authenticationFacade:</text><text fill="#000000" font-family="sans-serif" font-size="8.4" lengthAdjust="spacing" textLength="48.6" x="1282.8" y="792.5074">AuthFacade</text><rect fill="#E3E3E3" height="28.1859" rx="1.5" ry="1.5" style="stroke:#181818;stroke-width:0.3;" width="58.2" x="1362.6" y="20.107"/><text fill="#000000" font-family="sans-serif" font-size="8.4" lengthAdjust="spacing" textLength="20.4" x="1381.5" y="32.4281">user:</text><text fill="#000000" font-family="sans-serif" font-size="8.4" lengthAdjust="spacing" textLength="49.8" x="1366.8" y="42.3211">UserSession</text><rect fill="#E3E3E3" height="28.1859" rx="1.5" ry="1.5" style="stroke:#181818;stroke-width:0.3;" width="58.2" x="1362.6" y="770.2934"/><text fill="#000000" font-family="sans-serif" font-size="8.4" lengthAdjust="spacing" textLength="20.4" x="1381.5" y="782.6145">user:</text><text fill="#000000" font-family="sans-serif" font-size="8.4" lengthAdjust="spacing" textLength="49.8" x="1366.8" y="792.5074">UserSession</text><rect fill="#E3E3E3" height="28.1859" rx="1.5" ry="1.5" style="stroke:#181818;stroke-width:0.3;" width="45.6" x="1426.8" y="20.107"/><text fill="#000000" font-family="sans-serif" font-size="8.4" lengthAdjust="spacing" textLength="37.2" x="1431" y="32.4281">entryList:</text><text fill="#000000" font-family="sans-serif" font-size="8.4" lengthAdjust="spacing" textLength="34.8" x="1432.2" y="42.3211">EntryList</text><rect fill="#E3E3E3" height="28.1859" rx="1.5" ry="1.5" style="stroke:#181818;stroke-width:0.3;" width="45.6" x="1426.8" y="770.2934"/><text fill="#000000" font-family="sans-serif" font-size="8.4" lengthAdjust="spacing" textLength="37.2" x="1431" y="782.6145">entryList:</text><text fill="#000000" font-family="sans-serif" font-size="8.4" lengthAdjust="spacing" textLength="34.8" x="1432.2" y="792.5074">EntryList</text><rect fill="#E3E3E3" height="28.1859" rx="1.5" ry="1.5" style="stroke:#181818;stroke-width:0.3;" width="31.8" x="1478.4" y="20.107"/><text fill="#000000" font-family="sans-serif" font-size="8.4" lengthAdjust="spacing" textLength="23.4" x="1482.6" y="32.4281">entry:</text><text fill="#000000" font-family="sans-serif" font-size="8.4" lengthAdjust="spacing" textLength="21" x="1483.8" y="42.3211">Entry</text><rect fill="#E3E3E3" height="28.1859" rx="1.5" ry="1.5" style="stroke:#181818;stroke-width:0.3;" width="31.8" x="1478.4" y="770.2934"/><text fill="#000000" font-family="sans-serif" font-size="8.4" lengthAdjust="spacing" textLength="23.4" x="1482.6" y="782.6145">entry:</text><text fill="#000000" font-family="sans-serif" font-size="8.4" lengthAdjust="spacing" textLength="21" x="1483.8" y="792.5074">Entry</text><rect fill="#E3E3E3" height="28.1859" rx="1.5" ry="1.5" style="stroke:#181818;stroke-width:0.3;" width="81.6" x="1516.2" y="770.2934"/><text fill="#000000" font-family="sans-serif" font-size="8.4" lengthAdjust="spacing" textLength="73.2" x="1520.4" y="782.6145">tasksCollaborator</text><text fill="#000000" font-family="sans-serif" font-size="8.4" lengthAdjust="spacing" textLength="50.4" x="1531.8" y="792.5074">:List&lt;Entry&gt;</text><rect fill="#FFFFFF" height="705.2004" style="stroke:#181818;stroke-width:0.6;" width="6" x="27.9" y="54.893"/><rect fill="#FFFFFF" height="692.4141" style="stroke:#181818;stroke-width:0.6;" width="6" x="150.9" y="67.6793"/><rect fill="#FFFFFF" height="651.2414" style="stroke:#181818;stroke-width:0.6;" width="6" x="399.9" y="91.2656"/><rect fill="#FFFFFF" height="17.5863" style="stroke:#181818;stroke-width:0.6;" width="6" x="554.1" y="153.1313"/><rect fill="#FFFFFF" height="17.5863" style="stroke:#181818;stroke-width:0.6;" width="6" x="554.1" y="354.3809"/><rect fill="#FFFFFF" height="17.5863" style="stroke:#181818;stroke-width:0.6;" width="6" x="621.9" y="188.3039"/><rect fill="#FFFFFF" height="17.5863" style="stroke:#181818;stroke-width:0.6;" width="6" x="621.9" y="389.5535"/><rect fill="#FFFFFF" height="300.1945" style="stroke:#181818;stroke-width:0.6;" width="6" x="724.5" y="424.7262"/><rect fill="#FFFFFF" height="24.1863" style="stroke:#181818;stroke-width:0.6;" width="6" x="727.5" y="531.6574"/><rect fill="#FFFFFF" height="17.5863" style="stroke:#181818;stroke-width:0.6;" width="6" x="1191.6" y="223.4766"/><rect fill="#FFFFFF" height="17.5863" style="stroke:#181818;stroke-width:0.6;" width="6" x="1304.1" y="258.6492"/><rect fill="#FFFFFF" height="17.5863" style="stroke:#181818;stroke-width:0.6;" width="6" x="1388.7" y="293.8219"/><rect fill="#FFFFFF" height="17.5863" style="stroke:#181818;stroke-width:0.6;" width="6" x="1388.7" y="627.3891"/><rect fill="#FFFFFF" height="17.5863" style="stroke:#181818;stroke-width:0.6;" width="6" x="1491.3" y="491.6848"/><rect fill="#FFFFFF" height="17.5863" style="stroke:#181818;stroke-width:0.6;" width="6" x="1491.3" y="577.6301"/><rect fill="#FFFFFF" height="17.5863" style="stroke:#181818;stroke-width:0.6;" width="6" x="1554" y="677.148"/><polygon fill="#181818" points="143.7,65.2793,149.7,67.6793,143.7,70.0793,146.1,67.6793" style="stroke:#181818;stroke-width:0.6;"/><line style="stroke:#181818;stroke-width:0.6;" x1="33.9" x2="147.3" y1="67.6793" y2="67.6793"/><text fill="#000000" font-family="sans-serif" font-size="7.8" font-weight="bold" lengthAdjust="spacing" textLength="5.4" x="38.1" y="64.834">1</text><text fill="#000000" font-family="sans-serif" font-size="7.8" lengthAdjust="spacing" textLength="97.8" x="45.9" y="64.834">Requests to consult tasks</text><polygon fill="#181818" points="341.7,82.8656,347.7,85.2656,341.7,87.6656,344.1,85.2656" style="stroke:#181818;stroke-width:0.6;"/><line style="stroke:#181818;stroke-width:0.6;" x1="156.9" x2="345.3" y1="85.2656" y2="85.2656"/><text fill="#000000" font-family="sans-serif" font-size="7.8" font-weight="bold" lengthAdjust="spacing" textLength="5.4" x="161.1" y="82.4203">2</text><text fill="#000000" font-family="sans-serif" font-size="7.8" lengthAdjust="spacing" textLength="22.8" x="168.9" y="82.4203">create</text><rect fill="#E3E3E3" height="18.293" rx="1.5" ry="1.5" style="stroke:#181818;stroke-width:0.3;" width="108" x="348.9" y="72.4793"/><text fill="#000000" font-family="sans-serif" font-size="8.4" lengthAdjust="spacing" textLength="99.6" x="353.1" y="84.8004">:ConsultTasksController</text><polygon fill="#181818" points="392.7,107.7586,398.7,110.1586,392.7,112.5586,395.1,110.1586" style="stroke:#181818;stroke-width:0.6;"/><line style="stroke:#181818;stroke-width:0.6;" x1="156.9" x2="396.3" y1="110.1586" y2="110.1586"/><text fill="#000000" font-family="sans-serif" font-size="7.8" font-weight="bold" lengthAdjust="spacing" textLength="5.4" x="161.1" y="107.3133">3</text><text fill="#000000" font-family="sans-serif" font-size="7.8" lengthAdjust="spacing" textLength="220.8" x="168.9" y="107.3133">getTasksForCollaboratorBetweenDates(startDate, endDate)</text><line style="stroke:#181818;stroke-width:0.6;" x1="405.9" x2="431.1" y1="127.7449" y2="127.7449"/><line style="stroke:#181818;stroke-width:0.6;" x1="431.1" x2="431.1" y1="127.7449" y2="135.5449"/><line style="stroke:#181818;stroke-width:0.6;" x1="406.5" x2="431.1" y1="135.5449" y2="135.5449"/><polygon fill="#181818" points="412.5,133.1449,406.5,135.5449,412.5,137.9449,410.1,135.5449" style="stroke:#181818;stroke-width:0.6;"/><text fill="#000000" font-family="sans-serif" font-size="7.8" font-weight="bold" lengthAdjust="spacing" textLength="5.4" x="410.1" y="124.8996">4</text><text fill="#000000" font-family="sans-serif" font-size="7.8" lengthAdjust="spacing" textLength="132" x="417.9" y="124.8996">getEmailCollaboratorFromSession()</text><polygon fill="#181818" points="546.9,150.7313,552.9,153.1313,546.9,155.5313,549.3,153.1313" style="stroke:#181818;stroke-width:0.6;"/><line style="stroke:#181818;stroke-width:0.6;" x1="405.9" x2="550.5" y1="153.1313" y2="153.1313"/><text fill="#000000" font-family="sans-serif" font-size="7.8" font-weight="bold" lengthAdjust="spacing" textLength="5.4" x="410.1" y="150.2859">5</text><text fill="#000000" font-family="sans-serif" font-size="7.8" lengthAdjust="spacing" textLength="48.6" x="417.9" y="150.2859">getInstance()</text><polygon fill="#181818" points="412.5,168.3176,406.5,170.7176,412.5,173.1176,410.1,170.7176" style="stroke:#181818;stroke-width:0.6;"/><line style="stroke:#181818;stroke-width:0.6;stroke-dasharray:2.0,2.0;" x1="408.9" x2="556.5" y1="170.7176" y2="170.7176"/><text fill="#000000" font-family="sans-serif" font-size="7.8" font-weight="bold" lengthAdjust="spacing" textLength="5.4" x="416.1" y="167.8723">6</text><text fill="#000000" font-family="sans-serif" font-size="7.8" lengthAdjust="spacing" textLength="45" x="423.9" y="167.8723">repositories</text><polygon fill="#181818" points="614.7,185.9039,620.7,188.3039,614.7,190.7039,617.1,188.3039" style="stroke:#181818;stroke-width:0.6;"/><line style="stroke:#181818;stroke-width:0.6;" x1="405.9" x2="618.3" y1="188.3039" y2="188.3039"/><text fill="#000000" font-family="sans-serif" font-size="7.8" font-weight="bold" lengthAdjust="spacing" textLength="5.4" x="410.1" y="185.4586">7</text><text fill="#000000" font-family="sans-serif" font-size="7.8" lengthAdjust="spacing" textLength="112.8" x="417.9" y="185.4586">getAuthenticationRepository()</text><polygon fill="#181818" points="412.5,203.4902,406.5,205.8902,412.5,208.2902,410.1,205.8902" style="stroke:#181818;stroke-width:0.6;"/><line style="stroke:#181818;stroke-width:0.6;stroke-dasharray:2.0,2.0;" x1="408.9" x2="624.3" y1="205.8902" y2="205.8902"/><text fill="#000000" font-family="sans-serif" font-size="7.8" font-weight="bold" lengthAdjust="spacing" textLength="5.4" x="416.1" y="203.0449">8</text><text fill="#000000" font-family="sans-serif" font-size="7.8" lengthAdjust="spacing" textLength="94.8" x="423.9" y="203.0449">authenticationRepository</text><polygon fill="#181818" points="1184.4,221.0766,1190.4,223.4766,1184.4,225.8766,1186.8,223.4766" style="stroke:#181818;stroke-width:0.6;"/><line style="stroke:#181818;stroke-width:0.6;" x1="405.9" x2="1188" y1="223.4766" y2="223.4766"/><text fill="#000000" font-family="sans-serif" font-size="7.8" font-weight="bold" lengthAdjust="spacing" textLength="5.4" x="410.1" y="220.6313">9</text><text fill="#000000" font-family="sans-serif" font-size="7.8" lengthAdjust="spacing" textLength="90.6" x="417.9" y="220.6313">getCurrentUserSession()</text><polygon fill="#181818" points="412.5,238.6629,406.5,241.0629,412.5,243.4629,410.1,241.0629" style="stroke:#181818;stroke-width:0.6;"/><line style="stroke:#181818;stroke-width:0.6;stroke-dasharray:2.0,2.0;" x1="408.9" x2="1194" y1="241.0629" y2="241.0629"/><text fill="#000000" font-family="sans-serif" font-size="7.8" font-weight="bold" lengthAdjust="spacing" textLength="10.8" x="416.1" y="238.2176">10</text><text fill="#000000" font-family="sans-serif" font-size="7.8" lengthAdjust="spacing" textLength="80.4" x="429.3" y="238.2176">authenticationFacade</text><polygon fill="#181818" points="1296.9,256.2492,1302.9,258.6492,1296.9,261.0492,1299.3,258.6492" style="stroke:#181818;stroke-width:0.6;"/><line style="stroke:#181818;stroke-width:0.6;" x1="405.9" x2="1300.5" y1="258.6492" y2="258.6492"/><text fill="#000000" font-family="sans-serif" font-size="7.8" font-weight="bold" lengthAdjust="spacing" textLength="10.8" x="410.1" y="255.8039">11</text><text fill="#000000" font-family="sans-serif" font-size="7.8" lengthAdjust="spacing" textLength="90.6" x="423.3" y="255.8039">getCurrentUserSession()</text><polygon fill="#181818" points="412.5,273.8355,406.5,276.2355,412.5,278.6355,410.1,276.2355" style="stroke:#181818;stroke-width:0.6;"/><line style="stroke:#181818;stroke-width:0.6;stroke-dasharray:2.0,2.0;" x1="408.9" x2="1306.5" y1="276.2355" y2="276.2355"/><text fill="#000000" font-family="sans-serif" font-size="7.8" font-weight="bold" lengthAdjust="spacing" textLength="10.8" x="416.1" y="273.3902">12</text><text fill="#000000" font-family="sans-serif" font-size="7.8" lengthAdjust="spacing" textLength="45" x="429.3" y="273.3902">userSession</text><polygon fill="#181818" points="1381.5,291.4219,1387.5,293.8219,1381.5,296.2219,1383.9,293.8219" style="stroke:#181818;stroke-width:0.6;"/><line style="stroke:#181818;stroke-width:0.6;" x1="405.9" x2="1385.1" y1="293.8219" y2="293.8219"/><text fill="#000000" font-family="sans-serif" font-size="7.8" font-weight="bold" lengthAdjust="spacing" textLength="10.8" x="410.1" y="290.9766">13</text><text fill="#000000" font-family="sans-serif" font-size="7.8" lengthAdjust="spacing" textLength="40.8" x="423.3" y="290.9766">getUserId()</text><polygon fill="#181818" points="412.5,309.0082,406.5,311.4082,412.5,313.8082,410.1,311.4082" style="stroke:#181818;stroke-width:0.6;"/><line style="stroke:#181818;stroke-width:0.6;stroke-dasharray:2.0,2.0;" x1="408.9" x2="1391.1" y1="311.4082" y2="311.4082"/><text fill="#000000" font-family="sans-serif" font-size="7.8" font-weight="bold" lengthAdjust="spacing" textLength="10.8" x="416.1" y="308.5629">14</text><text fill="#000000" font-family="sans-serif" font-size="7.8" lengthAdjust="spacing" textLength="20.4" x="429.3" y="308.5629">email</text><line style="stroke:#181818;stroke-width:0.6;stroke-dasharray:2.0,2.0;" x1="405.9" x2="431.1" y1="328.9945" y2="328.9945"/><line style="stroke:#181818;stroke-width:0.6;stroke-dasharray:2.0,2.0;" x1="431.1" x2="431.1" y1="328.9945" y2="336.7945"/><line style="stroke:#181818;stroke-width:0.6;stroke-dasharray:2.0,2.0;" x1="406.5" x2="431.1" y1="336.7945" y2="336.7945"/><polygon fill="#181818" points="412.5,334.3945,406.5,336.7945,412.5,339.1945,410.1,336.7945" style="stroke:#181818;stroke-width:0.6;"/><text fill="#000000" font-family="sans-serif" font-size="7.8" font-weight="bold" lengthAdjust="spacing" textLength="10.8" x="410.1" y="326.1492">15</text><text fill="#000000" font-family="sans-serif" font-size="7.8" lengthAdjust="spacing" textLength="20.4" x="423.3" y="326.1492">email</text><polygon fill="#181818" points="546.9,351.9809,552.9,354.3809,546.9,356.7809,549.3,354.3809" style="stroke:#181818;stroke-width:0.6;"/><line style="stroke:#181818;stroke-width:0.6;" x1="405.9" x2="550.5" y1="354.3809" y2="354.3809"/><text fill="#000000" font-family="sans-serif" font-size="7.8" font-weight="bold" lengthAdjust="spacing" textLength="10.8" x="410.1" y="351.5355">16</text><text fill="#000000" font-family="sans-serif" font-size="7.8" lengthAdjust="spacing" textLength="48.6" x="423.3" y="351.5355">getInstance()</text><polygon fill="#181818" points="412.5,369.5672,406.5,371.9672,412.5,374.3672,410.1,371.9672" style="stroke:#181818;stroke-width:0.6;"/><line style="stroke:#181818;stroke-width:0.6;stroke-dasharray:2.0,2.0;" x1="408.9" x2="556.5" y1="371.9672" y2="371.9672"/><text fill="#000000" font-family="sans-serif" font-size="7.8" font-weight="bold" lengthAdjust="spacing" textLength="10.8" x="416.1" y="369.1219">17</text><text fill="#000000" font-family="sans-serif" font-size="7.8" lengthAdjust="spacing" textLength="45" x="429.3" y="369.1219">repositories</text><polygon fill="#181818" points="614.7,387.1535,620.7,389.5535,614.7,391.9535,617.1,389.5535" style="stroke:#181818;stroke-width:0.6;"/><line style="stroke:#181818;stroke-width:0.6;" x1="405.9" x2="618.3" y1="389.5535" y2="389.5535"/><text fill="#000000" font-family="sans-serif" font-size="7.8" font-weight="bold" lengthAdjust="spacing" textLength="10.8" x="410.1" y="386.7082">18</text><text fill="#000000" font-family="sans-serif" font-size="7.8" lengthAdjust="spacing" textLength="45" x="423.3" y="386.7082">getAgenda()</text><polygon fill="#181818" points="412.5,404.7398,406.5,407.1398,412.5,409.5398,410.1,407.1398" style="stroke:#181818;stroke-width:0.6;"/><line style="stroke:#181818;stroke-width:0.6;stroke-dasharray:2.0,2.0;" x1="408.9" x2="624.3" y1="407.1398" y2="407.1398"/><text fill="#000000" font-family="sans-serif" font-size="7.8" font-weight="bold" lengthAdjust="spacing" textLength="10.8" x="416.1" y="404.2945">19</text><text fill="#000000" font-family="sans-serif" font-size="7.8" lengthAdjust="spacing" textLength="27" x="429.3" y="404.2945">agenda</text><polygon fill="#181818" points="717.3,422.3262,723.3,424.7262,717.3,427.1262,719.7,424.7262" style="stroke:#181818;stroke-width:0.6;"/><line style="stroke:#181818;stroke-width:0.6;" x1="405.9" x2="720.9" y1="424.7262" y2="424.7262"/><text fill="#000000" font-family="sans-serif" font-size="7.8" font-weight="bold" lengthAdjust="spacing" textLength="10.8" x="410.1" y="421.8809">20</text><text fill="#000000" font-family="sans-serif" font-size="7.8" lengthAdjust="spacing" textLength="294" x="423.3" y="421.8809">getTasksForCollaboratorBetweenDates (collaboratorEmail, startDate, endDate)</text><polygon fill="#181818" points="1509,439.9125,1515,442.3125,1509,444.7125,1511.4,442.3125" style="stroke:#181818;stroke-width:0.6;"/><line style="stroke:#181818;stroke-width:0.6;" x1="730.5" x2="1512.6" y1="442.3125" y2="442.3125"/><text fill="#000000" font-family="sans-serif" font-size="7.8" font-weight="bold" lengthAdjust="spacing" textLength="10.8" x="734.7" y="439.4672">21</text><text fill="#000000" font-family="sans-serif" font-size="7.8" lengthAdjust="spacing" textLength="22.8" x="747.9" y="439.4672">create</text><rect fill="#E3E3E3" height="28.1859" rx="1.5" ry="1.5" style="stroke:#181818;stroke-width:0.3;" width="81.6" x="1516.2" y="429.5262"/><text fill="#000000" font-family="sans-serif" font-size="8.4" lengthAdjust="spacing" textLength="73.2" x="1520.4" y="441.8473">tasksCollaborator</text><text fill="#000000" font-family="sans-serif" font-size="8.4" lengthAdjust="spacing" textLength="50.4" x="1531.8" y="451.7402">:List&lt;Entry&gt;</text><path d="M688.8,468.5121 L733.2,468.5121 L733.2,472.8984 L727.2,478.8984 L688.8,478.8984 L688.8,468.5121 " fill="#EEEEEE" style="stroke:#000000;stroke-width:0.8999999999999999;"/><rect fill="none" height="239.4223" style="stroke:#000000;stroke-width:0.8999999999999999;" width="927" x="688.8" y="468.5121"/><text fill="#000000" font-family="sans-serif" font-size="7.8" font-weight="bold" lengthAdjust="spacing" textLength="17.4" x="697.8" y="476.6531">loop</text><text fill="#000000" font-family="sans-serif" font-size="6.6" font-weight="bold" lengthAdjust="spacing" textLength="87" x="742.2" y="476.093">[For each entry in agenda]</text><polygon fill="#181818" points="1484.1,489.2848,1490.1,491.6848,1484.1,494.0848,1486.5,491.6848" style="stroke:#181818;stroke-width:0.6;"/><line style="stroke:#181818;stroke-width:0.6;" x1="730.5" x2="1487.7" y1="491.6848" y2="491.6848"/><text fill="#000000" font-family="sans-serif" font-size="7.8" font-weight="bold" lengthAdjust="spacing" textLength="10.8" x="734.7" y="488.8395">22</text><text fill="#000000" font-family="sans-serif" font-size="7.8" lengthAdjust="spacing" textLength="63.6" x="747.9" y="488.8395">getStartingDate()</text><polygon fill="#181818" points="737.1,506.8711,731.1,509.2711,737.1,511.6711,734.7,509.2711" style="stroke:#181818;stroke-width:0.6;"/><line style="stroke:#181818;stroke-width:0.6;stroke-dasharray:2.0,2.0;" x1="733.5" x2="1493.7" y1="509.2711" y2="509.2711"/><text fill="#000000" font-family="sans-serif" font-size="7.8" font-weight="bold" lengthAdjust="spacing" textLength="10.8" x="740.7" y="506.4258">23</text><text fill="#000000" font-family="sans-serif" font-size="7.8" lengthAdjust="spacing" textLength="46.8" x="753.9" y="506.4258">startingDate</text><line style="stroke:#181818;stroke-width:0.6;" x1="730.5" x2="758.7" y1="523.8574" y2="523.8574"/><line style="stroke:#181818;stroke-width:0.6;" x1="758.7" x2="758.7" y1="523.8574" y2="531.6574"/><line style="stroke:#181818;stroke-width:0.6;" x1="734.1" x2="758.7" y1="531.6574" y2="531.6574"/><polygon fill="#181818" points="740.1,529.2574,734.1,531.6574,740.1,534.0574,737.7,531.6574" style="stroke:#181818;stroke-width:0.6;"/><text fill="#000000" font-family="sans-serif" font-size="7.8" font-weight="bold" lengthAdjust="spacing" textLength="10.8" x="737.7" y="521.0121">24</text><text fill="#000000" font-family="sans-serif" font-size="7.8" lengthAdjust="spacing" textLength="213.6" x="750.9" y="521.0121">checkDateWithinRange(startingDate, startDate, endDate)</text><line style="stroke:#181818;stroke-width:0.6;stroke-dasharray:2.0,2.0;" x1="733.5" x2="758.7" y1="555.2438" y2="555.2438"/><line style="stroke:#181818;stroke-width:0.6;stroke-dasharray:2.0,2.0;" x1="758.7" x2="758.7" y1="555.2438" y2="563.0437"/><line style="stroke:#181818;stroke-width:0.6;stroke-dasharray:2.0,2.0;" x1="730.5" x2="758.7" y1="563.0437" y2="563.0437"/><polygon fill="#181818" points="736.5,560.6438,730.5,563.0437,736.5,565.4438,734.1,563.0437" style="stroke:#181818;stroke-width:0.6;"/><text fill="#000000" font-family="sans-serif" font-size="7.8" font-weight="bold" lengthAdjust="spacing" textLength="10.8" x="737.7" y="552.3984">25</text><text fill="#000000" font-family="sans-serif" font-size="7.8" lengthAdjust="spacing" textLength="2.4" x="750.9" y="552.3984">&#160;</text><polygon fill="#181818" points="1484.1,575.2301,1490.1,577.6301,1484.1,580.0301,1486.5,577.6301" style="stroke:#181818;stroke-width:0.6;"/><line style="stroke:#181818;stroke-width:0.6;" x1="730.5" x2="1487.7" y1="577.6301" y2="577.6301"/><text fill="#000000" font-family="sans-serif" font-size="7.8" font-weight="bold" lengthAdjust="spacing" textLength="10.8" x="734.7" y="574.7848">26</text><text fill="#000000" font-family="sans-serif" font-size="7.8" lengthAdjust="spacing" textLength="63" x="747.9" y="574.7848">getTeamAssign()</text><polygon fill="#181818" points="737.1,592.8164,731.1,595.2164,737.1,597.6164,734.7,595.2164" style="stroke:#181818;stroke-width:0.6;"/><line style="stroke:#181818;stroke-width:0.6;stroke-dasharray:2.0,2.0;" x1="733.5" x2="1493.7" y1="595.2164" y2="595.2164"/><text fill="#000000" font-family="sans-serif" font-size="7.8" font-weight="bold" lengthAdjust="spacing" textLength="10.8" x="740.7" y="592.3711">27</text><text fill="#000000" font-family="sans-serif" font-size="7.8" lengthAdjust="spacing" textLength="44.4" x="753.9" y="592.3711">teamAssign</text><path d="M694.8,604.2164 L739.2,604.2164 L739.2,608.6027 L733.2,614.6027 L694.8,614.6027 L694.8,604.2164 " fill="#EEEEEE" style="stroke:#000000;stroke-width:0.8999999999999999;"/><rect fill="none" height="99.518" style="stroke:#000000;stroke-width:0.8999999999999999;" width="915" x="694.8" y="604.2164"/><text fill="#000000" font-family="sans-serif" font-size="7.8" font-weight="bold" lengthAdjust="spacing" textLength="17.4" x="703.8" y="612.3574">loop</text><text fill="#000000" font-family="sans-serif" font-size="6.6" font-weight="bold" lengthAdjust="spacing" textLength="126.6" x="748.2" y="611.7973">[For each collaborator in teamAssign]</text><polygon fill="#181818" points="1381.5,624.9891,1387.5,627.3891,1381.5,629.7891,1383.9,627.3891" style="stroke:#181818;stroke-width:0.6;"/><line style="stroke:#181818;stroke-width:0.6;" x1="730.5" x2="1385.1" y1="627.3891" y2="627.3891"/><text fill="#000000" font-family="sans-serif" font-size="7.8" font-weight="bold" lengthAdjust="spacing" textLength="10.8" x="734.7" y="624.5437">28</text><text fill="#000000" font-family="sans-serif" font-size="7.8" lengthAdjust="spacing" textLength="37.2" x="747.9" y="624.5437">getEmail()</text><polygon fill="#181818" points="737.1,642.5754,731.1,644.9754,737.1,647.3754,734.7,644.9754" style="stroke:#181818;stroke-width:0.6;"/><line style="stroke:#181818;stroke-width:0.6;stroke-dasharray:2.0,2.0;" x1="733.5" x2="1391.1" y1="644.9754" y2="644.9754"/><text fill="#000000" font-family="sans-serif" font-size="7.8" font-weight="bold" lengthAdjust="spacing" textLength="10.8" x="740.7" y="642.1301">29</text><text fill="#000000" font-family="sans-serif" font-size="7.8" lengthAdjust="spacing" textLength="20.4" x="753.9" y="642.1301">email</text><path d="M700.8,653.9754 L738,653.9754 L738,658.3617 L732,664.3617 L700.8,664.3617 L700.8,653.9754 " fill="#EEEEEE" style="stroke:#000000;stroke-width:0.8999999999999999;"/><rect fill="none" height="45.559" style="stroke:#000000;stroke-width:0.8999999999999999;" width="903" x="700.8" y="653.9754"/><text fill="#000000" font-family="sans-serif" font-size="7.8" font-weight="bold" lengthAdjust="spacing" textLength="10.2" x="709.8" y="662.1164">alt</text><text fill="#000000" font-family="sans-serif" font-size="6.6" font-weight="bold" lengthAdjust="spacing" textLength="99" x="747" y="661.5563">[email == collaboratorEmail]</text><polygon fill="#181818" points="1546.8,674.748,1552.8,677.148,1546.8,679.548,1549.2,677.148" style="stroke:#181818;stroke-width:0.6;"/><line style="stroke:#181818;stroke-width:0.6;" x1="730.5" x2="1550.4" y1="677.148" y2="677.148"/><text fill="#000000" font-family="sans-serif" font-size="7.8" font-weight="bold" lengthAdjust="spacing" textLength="10.8" x="734.7" y="674.3027">30</text><text fill="#000000" font-family="sans-serif" font-size="7.8" lengthAdjust="spacing" textLength="37.8" x="747.9" y="674.3027">add(entry)</text><polygon fill="#181818" points="737.1,692.3344,731.1,694.7344,737.1,697.1344,734.7,694.7344" style="stroke:#181818;stroke-width:0.6;"/><line style="stroke:#181818;stroke-width:0.6;stroke-dasharray:2.0,2.0;" x1="733.5" x2="1556.4" y1="694.7344" y2="694.7344"/><text fill="#000000" font-family="sans-serif" font-size="7.8" font-weight="bold" lengthAdjust="spacing" textLength="10.8" x="740.7" y="691.8891">31</text><text fill="#000000" font-family="sans-serif" font-size="7.8" lengthAdjust="spacing" textLength="2.4" x="753.9" y="691.8891">&#160;</text><polygon fill="#181818" points="412.5,722.5207,406.5,724.9207,412.5,727.3207,410.1,724.9207" style="stroke:#181818;stroke-width:0.6;"/><line style="stroke:#181818;stroke-width:0.6;stroke-dasharray:2.0,2.0;" x1="408.9" x2="726.9" y1="724.9207" y2="724.9207"/><text fill="#000000" font-family="sans-serif" font-size="7.8" font-weight="bold" lengthAdjust="spacing" textLength="10.8" x="416.1" y="722.0754">32</text><text fill="#000000" font-family="sans-serif" font-size="7.8" lengthAdjust="spacing" textLength="67.2" x="429.3" y="722.0754">tasksCollaborator</text><polygon fill="#181818" points="163.5,740.107,157.5,742.507,163.5,744.907,161.1,742.507" style="stroke:#181818;stroke-width:0.6;"/><line style="stroke:#181818;stroke-width:0.6;stroke-dasharray:2.0,2.0;" x1="159.9" x2="402.3" y1="742.507" y2="742.507"/><text fill="#000000" font-family="sans-serif" font-size="7.8" font-weight="bold" lengthAdjust="spacing" textLength="10.8" x="167.1" y="739.6617">33</text><text fill="#000000" font-family="sans-serif" font-size="7.8" lengthAdjust="spacing" textLength="67.2" x="180.3" y="739.6617">tasksCollaborator</text><polygon fill="#181818" points="37.5,757.6934,31.5,760.0934,37.5,762.4934,35.1,760.0934" style="stroke:#181818;stroke-width:0.6;"/><line style="stroke:#181818;stroke-width:0.6;stroke-dasharray:2.0,2.0;" x1="33.9" x2="153.3" y1="760.0934" y2="760.0934"/><text fill="#000000" font-family="sans-serif" font-size="7.8" font-weight="bold" lengthAdjust="spacing" textLength="10.8" x="41.1" y="757.248">34</text><text fill="#000000" font-family="sans-serif" font-size="7.8" lengthAdjust="spacing" textLength="71.4" x="54.3" y="757.248">Shows list of tasks</text><!--SRC=[hLPHRzem47xFhx1u6QlQFu3MIXJI2OcLAg6QAlN5JLnY4MmME-lwxtTsGZWdSQ3TUC6nl_lkE_lkRBNbOayBkYCxAMII5NB7Y2vA5gXcPK-JBTsmMB_dZ1GiqLHiSWnG6Ktb6nSRyafpnOA0bbgASlV2YY3ual6KaLSfzOly4z14ouACPZBFwOiiA7oD25LajbekfxUhQBfUHG6mQfxmFHMQZ2OpALIPwpLLM_MuiEZ7nG06nhe0VbOphwDb2nsnlLGSN7EcB2OA7rn8WH3FejSWTYrWWqHA9yzYQWSMDVqUti-dBUSXg7l_GVVxMX-ptzE7Xx0Lk5sOQmd-mtfuD9YlLpte9LUwiZ2ZRmU6cwETHRHjuRWoMEK9rLoA9jXt4urdoJAwTaESTpIXAQlvge-6eVfqhKl52a0_mb_Cb0862pVJdh017Hx6RhWz1WUm1ORtw-WfC9d9VrFDt5GCy1Uvke7K8nCIiLybKreHBKbIfHxH9lS20h-62TBKJe0DM9f4lBW0wwHWi6fN7BZDr9O1m3UiokixMU2okMNwZJ4n1qirLXfYDCDBY3irWwz1uy3yB5VDQId37UKvvhk3qg_tUkmnXgotjWi1_aJ208TXJI2cd9mLc21NZNTSN0uiPNuAf26s8doPEI0gxgYAaInV5Gn8ZFirkanMxQmi2fX22UtJsIeg5-IiURNN5UNHFUG0Hr3NxCVLr-uxogjvfBeyyWs9xUCx2BMDmaWqsXQfJvPj7CwIcK5Ic2a7duYkTUM-PHqSCIXRYQza-dFzZ5BnbGakaSfhTHTvVCQEKwSIh5bmCkSF3gjxxhnMHSO9Mh5Tw9BqjQ-EvFesTSx1_6hle6Eag_l_o7-u2MstlndXzjlXoQNS4r1E8DoikZu85uVD671hBv0g-jW40WyX4q8h5vrOwZkdlLunNU4jLOYnWqSdus4ygcmOaumbMqFta-kCYmXUSsoCtGoVnuVFfV4z9F_quQ9TNZEwcqBRs8Z_iyUwuVl43hjfWvFRP0-Y7eZDDgFZjJmKLRSNETsiYQdRq4usDUi7NZBMb5nVaqwb_bFnWIYQfcDRM0C1dkJfYZZj-hma_8HhA8- -EPiL_eN09KALKh_vEaA2C-kckPZiEzLFWoZSPwVHW9-y4n9dyasH7BQ1o5Vqp4KKvg6B6H71Nm00]--></g></svg>