<?xml version="1.0" encoding="us-ascii" standalone="no"?><svg xmlns="http://www.w3.org/2000/svg" xmlns:xlink="http://www.w3.org/1999/xlink" contentStyleType="text/css" height="675.6px" preserveAspectRatio="none" style="width:1580px;height:675px;background:#FFFFFF;" version="1.1" viewBox="0 0 1580 675" width="1580.4px" zoomAndPan="magnify"><defs/><g><rect fill="#FFFFFF" height="561.7898" style="stroke:#181818;stroke-width:0.6;" width="6" x="27.9" y="54.893"/><rect fill="#FFFFFF" height="549.0035" style="stroke:#181818;stroke-width:0.6;" width="6" x="150.9" y="67.6793"/><rect fill="#FFFFFF" height="536.8172" style="stroke:#181818;stroke-width:0.6;" width="6" x="399.9" y="85.2656"/><rect fill="#FFFFFF" height="496.2445" style="stroke:#181818;stroke-width:0.6;" width="6" x="402.9" y="102.852"/><rect fill="#FFFFFF" height="17.5863" style="stroke:#181818;stroke-width:0.6;" width="6" x="490.8" y="120.4383"/><rect fill="#FFFFFF" height="17.5863" style="stroke:#181818;stroke-width:0.6;" width="6" x="558.6" y="155.6109"/><rect fill="#FFFFFF" height="431.2992" style="stroke:#181818;stroke-width:0.6;" width="6" x="648.9" y="190.7836"/><rect fill="#FFFFFF" height="368.3402" style="stroke:#181818;stroke-width:0.6;" width="6" x="651.9" y="213.1699"/><rect fill="#FFFFFF" height="24.1863" style="stroke:#181818;stroke-width:0.6;" width="6" x="654.9" y="344.0742"/><rect fill="#FFFFFF" height="94.5316" style="stroke:#181818;stroke-width:0.6;" width="6" x="654.9" y="465.1922"/><rect fill="#FFFFFF" height="17.5863" style="stroke:#181818;stroke-width:0.6;" width="6" x="1385.7" y="304.1016"/><rect fill="#FFFFFF" height="17.5863" style="stroke:#181818;stroke-width:0.6;" width="6" x="1385.7" y="425.2195"/><rect fill="#FFFFFF" height="17.5863" style="stroke:#181818;stroke-width:0.6;" width="6" x="1385.7" y="520.9512"/><rect fill="#FFFFFF" height="17.5863" style="stroke:#181818;stroke-width:0.6;" width="6" x="1488.3" y="233.7563"/><rect fill="#FFFFFF" height="17.5863" style="stroke:#181818;stroke-width:0.6;" width="6" x="1488.3" y="268.9289"/><rect fill="#FFFFFF" height="17.5863" style="stroke:#181818;stroke-width:0.6;" width="6" x="1488.3" y="390.0469"/><rect fill="#FFFFFF" height="17.5863" style="stroke:#181818;stroke-width:0.6;" width="6" x="1488.3" y="485.7785"/><line style="stroke:#181818;stroke-width:0.3;stroke-dasharray:5.0,5.0;" x1="30.6" x2="30.6" y1="48.893" y2="627.4828"/><line style="stroke:#181818;stroke-width:0.3;stroke-dasharray:5.0,5.0;" x1="153.9" x2="153.9" y1="48.893" y2="627.4828"/><line style="stroke:#181818;stroke-width:0.3;stroke-dasharray:5.0,5.0;" x1="402.9" x2="402.9" y1="48.893" y2="627.4828"/><line style="stroke:#181818;stroke-width:0.3;stroke-dasharray:5.0,5.0;" x1="493.5" x2="493.5" y1="48.893" y2="627.4828"/><line style="stroke:#181818;stroke-width:0.3;stroke-dasharray:5.0,5.0;" x1="561.3" x2="561.3" y1="48.893" y2="627.4828"/><line style="stroke:#181818;stroke-width:0.3;stroke-dasharray:5.0,5.0;" x1="651.6" x2="651.6" y1="48.893" y2="627.4828"/><line style="stroke:#181818;stroke-width:0.3;stroke-dasharray:5.0,5.0;" x1="965.4" x2="965.4" y1="48.893" y2="627.4828"/><line style="stroke:#181818;stroke-width:0.3;stroke-dasharray:5.0,5.0;" x1="1026" x2="1026" y1="48.893" y2="627.4828"/><line style="stroke:#181818;stroke-width:0.3;stroke-dasharray:5.0,5.0;" x1="1092" x2="1092" y1="48.893" y2="627.4828"/><line style="stroke:#181818;stroke-width:0.3;stroke-dasharray:5.0,5.0;" x1="1191.6" x2="1191.6" y1="48.893" y2="627.4828"/><line style="stroke:#181818;stroke-width:0.3;stroke-dasharray:5.0,5.0;" x1="1303.8" x2="1303.8" y1="48.893" y2="627.4828"/><line style="stroke:#181818;stroke-width:0.3;stroke-dasharray:5.0,5.0;" x1="1388.4" x2="1388.4" y1="48.893" y2="627.4828"/><line style="stroke:#181818;stroke-width:0.3;stroke-dasharray:5.0,5.0;" x1="1446.6" x2="1446.6" y1="48.893" y2="627.4828"/><line style="stroke:#181818;stroke-width:0.3;stroke-dasharray:5.0,5.0;" x1="1491" x2="1491" y1="48.893" y2="627.4828"/><line style="stroke:#181818;stroke-width:0.3;stroke-dasharray:5.0,5.0;" x1="1545" x2="1545" y1="48.893" y2="627.4828"/><text fill="#000000" font-family="sans-serif" font-size="8.4" lengthAdjust="spacing" textLength="52.2" x="3" y="47.1211">Collaborator</text><ellipse cx="30.9" cy="8.1" fill="#E3E3E3" rx="4.8" ry="4.8" style="stroke:#181818;stroke-width:0.3;"/><path d="M30.9,12.9 L30.9,29.1 M23.1,17.7 L38.7,17.7 M30.9,29.1 L23.1,38.1 M30.9,29.1 L38.7,38.1 " fill="none" style="stroke:#181818;stroke-width:0.3;"/><text fill="#000000" font-family="sans-serif" font-size="8.4" lengthAdjust="spacing" textLength="52.2" x="3" y="635.0039">Collaborator</text><ellipse cx="30.9" cy="641.8758" fill="#E3E3E3" rx="4.8" ry="4.8" style="stroke:#181818;stroke-width:0.3;"/><path d="M30.9,646.6758 L30.9,662.8758 M23.1,651.4758 L38.7,651.4758 M30.9,662.8758 L23.1,671.8758 M30.9,662.8758 L38.7,671.8758 " fill="none" style="stroke:#181818;stroke-width:0.3;"/><rect fill="#E3E3E3" height="18.293" rx="1.5" ry="1.5" style="stroke:#181818;stroke-width:0.3;" width="74.4" x="116.7" y="30"/><text fill="#000000" font-family="sans-serif" font-size="8.4" lengthAdjust="spacing" textLength="66" x="120.9" y="42.3211">:ConsultTasksUI</text><rect fill="#E3E3E3" height="18.293" rx="1.5" ry="1.5" style="stroke:#181818;stroke-width:0.3;" width="74.4" x="116.7" y="626.8828"/><text fill="#000000" font-family="sans-serif" font-size="8.4" lengthAdjust="spacing" textLength="66" x="120.9" y="639.2039">:ConsultTasksUI</text><rect fill="#E3E3E3" height="18.293" rx="1.5" ry="1.5" style="stroke:#181818;stroke-width:0.3;" width="108" x="348.9" y="30"/><text fill="#000000" font-family="sans-serif" font-size="8.4" lengthAdjust="spacing" textLength="99.6" x="353.1" y="42.3211">:ConsultTasksController</text><rect fill="#E3E3E3" height="18.293" rx="1.5" ry="1.5" style="stroke:#181818;stroke-width:0.3;" width="108" x="348.9" y="626.8828"/><text fill="#000000" font-family="sans-serif" font-size="8.4" lengthAdjust="spacing" textLength="99.6" x="353.1" y="639.2039">:ConsultTasksController</text><rect fill="#E3E3E3" height="18.293" rx="1.5" ry="1.5" style="stroke:#181818;stroke-width:0.3;" width="61.8" x="462.9" y="30"/><text fill="#000000" font-family="sans-serif" font-size="8.4" lengthAdjust="spacing" textLength="53.4" x="467.1" y="42.3211">:Repositories</text><rect fill="#E3E3E3" height="18.293" rx="1.5" ry="1.5" style="stroke:#181818;stroke-width:0.3;" width="61.8" x="462.9" y="626.8828"/><text fill="#000000" font-family="sans-serif" font-size="8.4" lengthAdjust="spacing" textLength="53.4" x="467.1" y="639.2039">:Repositories</text><rect fill="#E3E3E3" height="28.1859" rx="1.5" ry="1.5" style="stroke:#181818;stroke-width:0.3;" width="61.8" x="530.7" y="20.107"/><text fill="#000000" font-family="sans-serif" font-size="8.4" lengthAdjust="spacing" textLength="49.2" x="537" y="32.4281">repositories</text><text fill="#000000" font-family="sans-serif" font-size="8.4" lengthAdjust="spacing" textLength="53.4" x="534.9" y="42.3211">:Repositories</text><rect fill="#E3E3E3" height="28.1859" rx="1.5" ry="1.5" style="stroke:#181818;stroke-width:0.3;" width="61.8" x="530.7" y="626.8828"/><text fill="#000000" font-family="sans-serif" font-size="8.4" lengthAdjust="spacing" textLength="49.2" x="537" y="639.2039">repositories</text><text fill="#000000" font-family="sans-serif" font-size="8.4" lengthAdjust="spacing" textLength="53.4" x="534.9" y="649.0969">:Repositories</text><rect fill="#E3E3E3" height="28.1859" rx="1.5" ry="1.5" style="stroke:#181818;stroke-width:0.3;" width="41.4" x="631.2" y="20.107"/><text fill="#000000" font-family="sans-serif" font-size="8.4" lengthAdjust="spacing" textLength="33" x="635.4" y="32.4281">agenda:</text><text fill="#000000" font-family="sans-serif" font-size="8.4" lengthAdjust="spacing" textLength="31.8" x="636" y="42.3211">Agenda</text><rect fill="#E3E3E3" height="28.1859" rx="1.5" ry="1.5" style="stroke:#181818;stroke-width:0.3;" width="41.4" x="631.2" y="626.8828"/><text fill="#000000" font-family="sans-serif" font-size="8.4" lengthAdjust="spacing" textLength="33" x="635.4" y="639.2039">agenda:</text><text fill="#000000" font-family="sans-serif" font-size="8.4" lengthAdjust="spacing" textLength="31.8" x="636" y="649.0969">Agenda</text><rect fill="#E3E3E3" height="18.293" rx="1.5" ry="1.5" style="stroke:#181818;stroke-width:0.3;" width="63" x="934.2" y="30"/><text fill="#000000" font-family="sans-serif" font-size="8.4" lengthAdjust="spacing" textLength="54.6" x="938.4" y="42.3211">:EntryMapper</text><rect fill="#E3E3E3" height="18.293" rx="1.5" ry="1.5" style="stroke:#181818;stroke-width:0.3;" width="63" x="934.2" y="626.8828"/><text fill="#000000" font-family="sans-serif" font-size="8.4" lengthAdjust="spacing" textLength="54.6" x="938.4" y="639.2039">:EntryMapper</text><rect fill="#E3E3E3" height="28.1859" rx="1.5" ry="1.5" style="stroke:#181818;stroke-width:0.3;" width="46.2" x="1003.2" y="20.107"/><text fill="#000000" font-family="sans-serif" font-size="8.4" lengthAdjust="spacing" textLength="35.4" x="1008.6" y="32.4281">entryDto</text><text fill="#000000" font-family="sans-serif" font-size="8.4" lengthAdjust="spacing" textLength="37.8" x="1007.4" y="42.3211">:EntryDto</text><rect fill="#E3E3E3" height="28.1859" rx="1.5" ry="1.5" style="stroke:#181818;stroke-width:0.3;" width="46.2" x="1003.2" y="626.8828"/><text fill="#000000" font-family="sans-serif" font-size="8.4" lengthAdjust="spacing" textLength="35.4" x="1008.6" y="639.2039">entryDto</text><text fill="#000000" font-family="sans-serif" font-size="8.4" lengthAdjust="spacing" textLength="37.8" x="1007.4" y="649.0969">:EntryDto</text><rect fill="#E3E3E3" height="28.1859" rx="1.5" ry="1.5" style="stroke:#181818;stroke-width:0.3;" width="73.2" x="1055.4" y="20.107"/><text fill="#000000" font-family="sans-serif" font-size="8.4" lengthAdjust="spacing" textLength="49.2" x="1067.4" y="32.4281">entryListDto</text><text fill="#000000" font-family="sans-serif" font-size="8.4" lengthAdjust="spacing" textLength="64.8" x="1059.6" y="42.3211">:List&lt;entryDto&gt;</text><rect fill="#E3E3E3" height="28.1859" rx="1.5" ry="1.5" style="stroke:#181818;stroke-width:0.3;" width="73.2" x="1055.4" y="626.8828"/><text fill="#000000" font-family="sans-serif" font-size="8.4" lengthAdjust="spacing" textLength="49.2" x="1067.4" y="639.2039">entryListDto</text><text fill="#000000" font-family="sans-serif" font-size="8.4" lengthAdjust="spacing" textLength="64.8" x="1059.6" y="649.0969">:List&lt;entryDto&gt;</text><rect fill="#E3E3E3" height="28.1859" rx="1.5" ry="1.5" style="stroke:#181818;stroke-width:0.3;" width="114" x="1134.6" y="20.107"/><text fill="#000000" font-family="sans-serif" font-size="8.4" lengthAdjust="spacing" textLength="105.6" x="1138.8" y="32.4281">authenticationRepository:</text><text fill="#000000" font-family="sans-serif" font-size="8.4" lengthAdjust="spacing" textLength="104.4" x="1139.4" y="42.3211">AuthenticationRepository</text><rect fill="#E3E3E3" height="28.1859" rx="1.5" ry="1.5" style="stroke:#181818;stroke-width:0.3;" width="114" x="1134.6" y="626.8828"/><text fill="#000000" font-family="sans-serif" font-size="8.4" lengthAdjust="spacing" textLength="105.6" x="1138.8" y="639.2039">authenticationRepository:</text><text fill="#000000" font-family="sans-serif" font-size="8.4" lengthAdjust="spacing" textLength="104.4" x="1139.4" y="649.0969">AuthenticationRepository</text><rect fill="#E3E3E3" height="28.1859" rx="1.5" ry="1.5" style="stroke:#181818;stroke-width:0.3;" width="99" x="1254.6" y="20.107"/><text fill="#000000" font-family="sans-serif" font-size="8.4" lengthAdjust="spacing" textLength="90.6" x="1258.8" y="32.4281">authenticationFacade:</text><text fill="#000000" font-family="sans-serif" font-size="8.4" lengthAdjust="spacing" textLength="48.6" x="1279.8" y="42.3211">AuthFacade</text><rect fill="#E3E3E3" height="28.1859" rx="1.5" ry="1.5" style="stroke:#181818;stroke-width:0.3;" width="99" x="1254.6" y="626.8828"/><text fill="#000000" font-family="sans-serif" font-size="8.4" lengthAdjust="spacing" textLength="90.6" x="1258.8" y="639.2039">authenticationFacade:</text><text fill="#000000" font-family="sans-serif" font-size="8.4" lengthAdjust="spacing" textLength="48.6" x="1279.8" y="649.0969">AuthFacade</text><rect fill="#E3E3E3" height="28.1859" rx="1.5" ry="1.5" style="stroke:#181818;stroke-width:0.3;" width="58.2" x="1359.6" y="20.107"/><text fill="#000000" font-family="sans-serif" font-size="8.4" lengthAdjust="spacing" textLength="20.4" x="1378.5" y="32.4281">user:</text><text fill="#000000" font-family="sans-serif" font-size="8.4" lengthAdjust="spacing" textLength="49.8" x="1363.8" y="42.3211">UserSession</text><rect fill="#E3E3E3" height="28.1859" rx="1.5" ry="1.5" style="stroke:#181818;stroke-width:0.3;" width="58.2" x="1359.6" y="626.8828"/><text fill="#000000" font-family="sans-serif" font-size="8.4" lengthAdjust="spacing" textLength="20.4" x="1378.5" y="639.2039">user:</text><text fill="#000000" font-family="sans-serif" font-size="8.4" lengthAdjust="spacing" textLength="49.8" x="1363.8" y="649.0969">UserSession</text><rect fill="#E3E3E3" height="28.1859" rx="1.5" ry="1.5" style="stroke:#181818;stroke-width:0.3;" width="45.6" x="1423.8" y="20.107"/><text fill="#000000" font-family="sans-serif" font-size="8.4" lengthAdjust="spacing" textLength="37.2" x="1428" y="32.4281">entryList:</text><text fill="#000000" font-family="sans-serif" font-size="8.4" lengthAdjust="spacing" textLength="34.8" x="1429.2" y="42.3211">EntryList</text><rect fill="#E3E3E3" height="28.1859" rx="1.5" ry="1.5" style="stroke:#181818;stroke-width:0.3;" width="45.6" x="1423.8" y="626.8828"/><text fill="#000000" font-family="sans-serif" font-size="8.4" lengthAdjust="spacing" textLength="37.2" x="1428" y="639.2039">entryList:</text><text fill="#000000" font-family="sans-serif" font-size="8.4" lengthAdjust="spacing" textLength="34.8" x="1429.2" y="649.0969">EntryList</text><rect fill="#E3E3E3" height="28.1859" rx="1.5" ry="1.5" style="stroke:#181818;stroke-width:0.3;" width="31.8" x="1475.4" y="20.107"/><text fill="#000000" font-family="sans-serif" font-size="8.4" lengthAdjust="spacing" textLength="23.4" x="1479.6" y="32.4281">entry:</text><text fill="#000000" font-family="sans-serif" font-size="8.4" lengthAdjust="spacing" textLength="21" x="1480.8" y="42.3211">Entry</text><rect fill="#E3E3E3" height="28.1859" rx="1.5" ry="1.5" style="stroke:#181818;stroke-width:0.3;" width="31.8" x="1475.4" y="626.8828"/><text fill="#000000" font-family="sans-serif" font-size="8.4" lengthAdjust="spacing" textLength="23.4" x="1479.6" y="639.2039">entry:</text><text fill="#000000" font-family="sans-serif" font-size="8.4" lengthAdjust="spacing" textLength="21" x="1480.8" y="649.0969">Entry</text><rect fill="#E3E3E3" height="28.1859" rx="1.5" ry="1.5" style="stroke:#181818;stroke-width:0.3;" width="63.6" x="1513.2" y="20.107"/><text fill="#000000" font-family="sans-serif" font-size="8.4" lengthAdjust="spacing" textLength="55.2" x="1517.4" y="32.4281">Green Spaces</text><text fill="#000000" font-family="sans-serif" font-size="8.4" lengthAdjust="spacing" textLength="36" x="1527" y="42.3211">Manager</text><rect fill="#E3E3E3" height="28.1859" rx="1.5" ry="1.5" style="stroke:#181818;stroke-width:0.3;" width="63.6" x="1513.2" y="626.8828"/><text fill="#000000" font-family="sans-serif" font-size="8.4" lengthAdjust="spacing" textLength="55.2" x="1517.4" y="639.2039">Green Spaces</text><text fill="#000000" font-family="sans-serif" font-size="8.4" lengthAdjust="spacing" textLength="36" x="1527" y="649.0969">Manager</text><rect fill="#FFFFFF" height="561.7898" style="stroke:#181818;stroke-width:0.6;" width="6" x="27.9" y="54.893"/><rect fill="#FFFFFF" height="549.0035" style="stroke:#181818;stroke-width:0.6;" width="6" x="150.9" y="67.6793"/><rect fill="#FFFFFF" height="536.8172" style="stroke:#181818;stroke-width:0.6;" width="6" x="399.9" y="85.2656"/><rect fill="#FFFFFF" height="496.2445" style="stroke:#181818;stroke-width:0.6;" width="6" x="402.9" y="102.852"/><rect fill="#FFFFFF" height="17.5863" style="stroke:#181818;stroke-width:0.6;" width="6" x="490.8" y="120.4383"/><rect fill="#FFFFFF" height="17.5863" style="stroke:#181818;stroke-width:0.6;" width="6" x="558.6" y="155.6109"/><rect fill="#FFFFFF" height="431.2992" style="stroke:#181818;stroke-width:0.6;" width="6" x="648.9" y="190.7836"/><rect fill="#FFFFFF" height="368.3402" style="stroke:#181818;stroke-width:0.6;" width="6" x="651.9" y="213.1699"/><rect fill="#FFFFFF" height="24.1863" style="stroke:#181818;stroke-width:0.6;" width="6" x="654.9" y="344.0742"/><rect fill="#FFFFFF" height="94.5316" style="stroke:#181818;stroke-width:0.6;" width="6" x="654.9" y="465.1922"/><rect fill="#FFFFFF" height="17.5863" style="stroke:#181818;stroke-width:0.6;" width="6" x="1385.7" y="304.1016"/><rect fill="#FFFFFF" height="17.5863" style="stroke:#181818;stroke-width:0.6;" width="6" x="1385.7" y="425.2195"/><rect fill="#FFFFFF" height="17.5863" style="stroke:#181818;stroke-width:0.6;" width="6" x="1385.7" y="520.9512"/><rect fill="#FFFFFF" height="17.5863" style="stroke:#181818;stroke-width:0.6;" width="6" x="1488.3" y="233.7563"/><rect fill="#FFFFFF" height="17.5863" style="stroke:#181818;stroke-width:0.6;" width="6" x="1488.3" y="268.9289"/><rect fill="#FFFFFF" height="17.5863" style="stroke:#181818;stroke-width:0.6;" width="6" x="1488.3" y="390.0469"/><rect fill="#FFFFFF" height="17.5863" style="stroke:#181818;stroke-width:0.6;" width="6" x="1488.3" y="485.7785"/><polygon fill="#181818" points="143.7,65.2793,149.7,67.6793,143.7,70.0793,146.1,67.6793" style="stroke:#181818;stroke-width:0.6;"/><line style="stroke:#181818;stroke-width:0.6;" x1="33.9" x2="147.3" y1="67.6793" y2="67.6793"/><text fill="#000000" font-family="sans-serif" font-size="7.8" font-weight="bold" lengthAdjust="spacing" textLength="5.4" x="38.1" y="64.834">1</text><text fill="#000000" font-family="sans-serif" font-size="7.8" lengthAdjust="spacing" textLength="97.8" x="45.9" y="64.834">Requests to consult tasks</text><polygon fill="#181818" points="392.7,82.8656,398.7,85.2656,392.7,87.6656,395.1,85.2656" style="stroke:#181818;stroke-width:0.6;"/><line style="stroke:#181818;stroke-width:0.6;" x1="156.9" x2="396.3" y1="85.2656" y2="85.2656"/><text fill="#000000" font-family="sans-serif" font-size="7.8" font-weight="bold" lengthAdjust="spacing" textLength="5.4" x="161.1" y="82.4203">2</text><text fill="#000000" font-family="sans-serif" font-size="7.8" lengthAdjust="spacing" textLength="22.8" x="168.9" y="82.4203">create</text><polygon fill="#181818" points="395.7,100.452,401.7,102.852,395.7,105.252,398.1,102.852" style="stroke:#181818;stroke-width:0.6;"/><line style="stroke:#181818;stroke-width:0.6;" x1="156.9" x2="399.3" y1="102.852" y2="102.852"/><text fill="#000000" font-family="sans-serif" font-size="7.8" font-weight="bold" lengthAdjust="spacing" textLength="5.4" x="161.1" y="100.0066">3</text><text fill="#000000" font-family="sans-serif" font-size="7.8" lengthAdjust="spacing" textLength="220.8" x="168.9" y="100.0066">getTasksForCollaboratorBetweenDates(startDate, endDate)</text><polygon fill="#181818" points="483.6,118.0383,489.6,120.4383,483.6,122.8383,486,120.4383" style="stroke:#181818;stroke-width:0.6;"/><line style="stroke:#181818;stroke-width:0.6;" x1="408.9" x2="487.2" y1="120.4383" y2="120.4383"/><text fill="#000000" font-family="sans-serif" font-size="7.8" font-weight="bold" lengthAdjust="spacing" textLength="5.4" x="413.1" y="117.593">4</text><text fill="#000000" font-family="sans-serif" font-size="7.8" lengthAdjust="spacing" textLength="48.6" x="420.9" y="117.593">getInstance()</text><polygon fill="#181818" points="415.5,135.6246,409.5,138.0246,415.5,140.4246,413.1,138.0246" style="stroke:#181818;stroke-width:0.6;"/><line style="stroke:#181818;stroke-width:0.6;stroke-dasharray:2.0,2.0;" x1="411.9" x2="493.2" y1="138.0246" y2="138.0246"/><text fill="#000000" font-family="sans-serif" font-size="7.8" font-weight="bold" lengthAdjust="spacing" textLength="5.4" x="419.1" y="135.1793">5</text><text fill="#000000" font-family="sans-serif" font-size="7.8" lengthAdjust="spacing" textLength="45" x="426.9" y="135.1793">repositories</text><polygon fill="#181818" points="551.4,153.2109,557.4,155.6109,551.4,158.0109,553.8,155.6109" style="stroke:#181818;stroke-width:0.6;"/><line style="stroke:#181818;stroke-width:0.6;" x1="408.9" x2="555" y1="155.6109" y2="155.6109"/><text fill="#000000" font-family="sans-serif" font-size="7.8" font-weight="bold" lengthAdjust="spacing" textLength="5.4" x="413.1" y="152.7656">6</text><text fill="#000000" font-family="sans-serif" font-size="7.8" lengthAdjust="spacing" textLength="45" x="420.9" y="152.7656">getAgenda()</text><polygon fill="#181818" points="415.5,170.7973,409.5,173.1973,415.5,175.5973,413.1,173.1973" style="stroke:#181818;stroke-width:0.6;"/><line style="stroke:#181818;stroke-width:0.6;stroke-dasharray:2.0,2.0;" x1="411.9" x2="561" y1="173.1973" y2="173.1973"/><text fill="#000000" font-family="sans-serif" font-size="7.8" font-weight="bold" lengthAdjust="spacing" textLength="5.4" x="419.1" y="170.352">7</text><text fill="#000000" font-family="sans-serif" font-size="7.8" lengthAdjust="spacing" textLength="27" x="426.9" y="170.352">agenda</text><polygon fill="#181818" points="641.7,188.3836,647.7,190.7836,641.7,193.1836,644.1,190.7836" style="stroke:#181818;stroke-width:0.6;"/><line style="stroke:#181818;stroke-width:0.6;" x1="408.9" x2="645.3" y1="190.7836" y2="190.7836"/><text fill="#000000" font-family="sans-serif" font-size="7.8" font-weight="bold" lengthAdjust="spacing" textLength="5.4" x="413.1" y="187.9383">8</text><text fill="#000000" font-family="sans-serif" font-size="7.8" lengthAdjust="spacing" textLength="220.8" x="420.9" y="187.9383">getTasksForCollaboratorBetweenDates(startDate, endDate)</text><line style="stroke:#181818;stroke-width:0.6;" x1="654.9" x2="683.1" y1="205.3699" y2="205.3699"/><line style="stroke:#181818;stroke-width:0.6;" x1="683.1" x2="683.1" y1="205.3699" y2="213.1699"/><line style="stroke:#181818;stroke-width:0.6;" x1="658.5" x2="683.1" y1="213.1699" y2="213.1699"/><polygon fill="#181818" points="664.5,210.7699,658.5,213.1699,664.5,215.5699,662.1,213.1699" style="stroke:#181818;stroke-width:0.6;"/><text fill="#000000" font-family="sans-serif" font-size="7.8" font-weight="bold" lengthAdjust="spacing" textLength="5.4" x="662.1" y="202.5246">9</text><text fill="#000000" font-family="sans-serif" font-size="7.8" lengthAdjust="spacing" textLength="291.6" x="669.9" y="202.5246">getTasksForCollaboratorBetweenDates(collaboratorEmail, startDate, endDate)</text><polygon fill="#181818" points="1481.1,231.3563,1487.1,233.7563,1481.1,236.1563,1483.5,233.7563" style="stroke:#181818;stroke-width:0.6;"/><line style="stroke:#181818;stroke-width:0.6;" x1="657.9" x2="1484.7" y1="233.7563" y2="233.7563"/><text fill="#000000" font-family="sans-serif" font-size="7.8" font-weight="bold" lengthAdjust="spacing" textLength="10.8" x="662.1" y="230.9109">10</text><text fill="#000000" font-family="sans-serif" font-size="7.8" lengthAdjust="spacing" textLength="63.6" x="675.3" y="230.9109">getStartingDate()</text><polygon fill="#181818" points="664.5,248.9426,658.5,251.3426,664.5,253.7426,662.1,251.3426" style="stroke:#181818;stroke-width:0.6;"/><line style="stroke:#181818;stroke-width:0.6;stroke-dasharray:2.0,2.0;" x1="660.9" x2="1490.7" y1="251.3426" y2="251.3426"/><text fill="#000000" font-family="sans-serif" font-size="7.8" font-weight="bold" lengthAdjust="spacing" textLength="10.8" x="668.1" y="248.4973">11</text><text fill="#000000" font-family="sans-serif" font-size="7.8" lengthAdjust="spacing" textLength="46.8" x="681.3" y="248.4973">startingDate</text><polygon fill="#181818" points="1481.1,266.5289,1487.1,268.9289,1481.1,271.3289,1483.5,268.9289" style="stroke:#181818;stroke-width:0.6;"/><line style="stroke:#181818;stroke-width:0.6;" x1="657.9" x2="1484.7" y1="268.9289" y2="268.9289"/><text fill="#000000" font-family="sans-serif" font-size="7.8" font-weight="bold" lengthAdjust="spacing" textLength="10.8" x="662.1" y="266.0836">12</text><text fill="#000000" font-family="sans-serif" font-size="7.8" lengthAdjust="spacing" textLength="63" x="675.3" y="266.0836">getTeamAssign()</text><polygon fill="#181818" points="664.5,284.1152,658.5,286.5152,664.5,288.9152,662.1,286.5152" style="stroke:#181818;stroke-width:0.6;"/><line style="stroke:#181818;stroke-width:0.6;stroke-dasharray:2.0,2.0;" x1="660.9" x2="1490.7" y1="286.5152" y2="286.5152"/><text fill="#000000" font-family="sans-serif" font-size="7.8" font-weight="bold" lengthAdjust="spacing" textLength="10.8" x="668.1" y="283.6699">13</text><text fill="#000000" font-family="sans-serif" font-size="7.8" lengthAdjust="spacing" textLength="44.4" x="681.3" y="283.6699">teamAssign</text><polygon fill="#181818" points="1378.5,301.7016,1384.5,304.1016,1378.5,306.5016,1380.9,304.1016" style="stroke:#181818;stroke-width:0.6;"/><line style="stroke:#181818;stroke-width:0.6;" x1="657.9" x2="1382.1" y1="304.1016" y2="304.1016"/><text fill="#000000" font-family="sans-serif" font-size="7.8" font-weight="bold" lengthAdjust="spacing" textLength="10.8" x="662.1" y="301.2562">14</text><text fill="#000000" font-family="sans-serif" font-size="7.8" lengthAdjust="spacing" textLength="37.2" x="675.3" y="301.2562">getEmail()</text><polygon fill="#181818" points="664.5,319.2879,658.5,321.6879,664.5,324.0879,662.1,321.6879" style="stroke:#181818;stroke-width:0.6;"/><line style="stroke:#181818;stroke-width:0.6;stroke-dasharray:2.0,2.0;" x1="660.9" x2="1388.1" y1="321.6879" y2="321.6879"/><text fill="#000000" font-family="sans-serif" font-size="7.8" font-weight="bold" lengthAdjust="spacing" textLength="10.8" x="668.1" y="318.8426">15</text><text fill="#000000" font-family="sans-serif" font-size="7.8" lengthAdjust="spacing" textLength="66" x="681.3" y="318.8426">collaboratorEmail</text><line style="stroke:#181818;stroke-width:0.6;" x1="657.9" x2="686.1" y1="336.2742" y2="336.2742"/><line style="stroke:#181818;stroke-width:0.6;" x1="686.1" x2="686.1" y1="336.2742" y2="344.0742"/><line style="stroke:#181818;stroke-width:0.6;" x1="661.5" x2="686.1" y1="344.0742" y2="344.0742"/><polygon fill="#181818" points="667.5,341.6742,661.5,344.0742,667.5,346.4742,665.1,344.0742" style="stroke:#181818;stroke-width:0.6;"/><text fill="#000000" font-family="sans-serif" font-size="7.8" font-weight="bold" lengthAdjust="spacing" textLength="10.8" x="665.1" y="333.4289">16</text><text fill="#000000" font-family="sans-serif" font-size="7.8" lengthAdjust="spacing" textLength="213.6" x="678.3" y="333.4289">checkDateWithinRange(startingDate, startDate, endDate)</text><line style="stroke:#181818;stroke-width:0.6;stroke-dasharray:2.0,2.0;" x1="660.9" x2="686.1" y1="367.6605" y2="367.6605"/><line style="stroke:#181818;stroke-width:0.6;stroke-dasharray:2.0,2.0;" x1="686.1" x2="686.1" y1="367.6605" y2="375.4605"/><line style="stroke:#181818;stroke-width:0.6;stroke-dasharray:2.0,2.0;" x1="657.9" x2="686.1" y1="375.4605" y2="375.4605"/><polygon fill="#181818" points="663.9,373.0605,657.9,375.4605,663.9,377.8605,661.5,375.4605" style="stroke:#181818;stroke-width:0.6;"/><text fill="#000000" font-family="sans-serif" font-size="7.8" font-weight="bold" lengthAdjust="spacing" textLength="10.8" x="665.1" y="364.8152">17</text><text fill="#000000" font-family="sans-serif" font-size="7.8" lengthAdjust="spacing" textLength="2.4" x="678.3" y="364.8152">&#160;</text><polygon fill="#181818" points="1481.1,387.6469,1487.1,390.0469,1481.1,392.4469,1483.5,390.0469" style="stroke:#181818;stroke-width:0.6;"/><line style="stroke:#181818;stroke-width:0.6;" x1="657.9" x2="1484.7" y1="390.0469" y2="390.0469"/><text fill="#000000" font-family="sans-serif" font-size="7.8" font-weight="bold" lengthAdjust="spacing" textLength="10.8" x="662.1" y="387.2016">18</text><text fill="#000000" font-family="sans-serif" font-size="7.8" lengthAdjust="spacing" textLength="63" x="675.3" y="387.2016">getTeamAssign()</text><polygon fill="#181818" points="664.5,405.2332,658.5,407.6332,664.5,410.0332,662.1,407.6332" style="stroke:#181818;stroke-width:0.6;"/><line style="stroke:#181818;stroke-width:0.6;stroke-dasharray:2.0,2.0;" x1="660.9" x2="1490.7" y1="407.6332" y2="407.6332"/><text fill="#000000" font-family="sans-serif" font-size="7.8" font-weight="bold" lengthAdjust="spacing" textLength="10.8" x="668.1" y="404.7879">19</text><text fill="#000000" font-family="sans-serif" font-size="7.8" lengthAdjust="spacing" textLength="44.4" x="681.3" y="404.7879">teamAssign</text><polygon fill="#181818" points="1378.5,422.8195,1384.5,425.2195,1378.5,427.6195,1380.9,425.2195" style="stroke:#181818;stroke-width:0.6;"/><line style="stroke:#181818;stroke-width:0.6;" x1="657.9" x2="1382.1" y1="425.2195" y2="425.2195"/><text fill="#000000" font-family="sans-serif" font-size="7.8" font-weight="bold" lengthAdjust="spacing" textLength="10.8" x="662.1" y="422.3742">20</text><text fill="#000000" font-family="sans-serif" font-size="7.8" lengthAdjust="spacing" textLength="37.2" x="675.3" y="422.3742">getEmail()</text><polygon fill="#181818" points="664.5,440.4059,658.5,442.8059,664.5,445.2059,662.1,442.8059" style="stroke:#181818;stroke-width:0.6;"/><line style="stroke:#181818;stroke-width:0.6;stroke-dasharray:2.0,2.0;" x1="660.9" x2="1388.1" y1="442.8059" y2="442.8059"/><text fill="#000000" font-family="sans-serif" font-size="7.8" font-weight="bold" lengthAdjust="spacing" textLength="10.8" x="668.1" y="439.9605">21</text><text fill="#000000" font-family="sans-serif" font-size="7.8" lengthAdjust="spacing" textLength="66" x="681.3" y="439.9605">collaboratorEmail</text><line style="stroke:#181818;stroke-width:0.6;" x1="657.9" x2="686.1" y1="457.3922" y2="457.3922"/><line style="stroke:#181818;stroke-width:0.6;" x1="686.1" x2="686.1" y1="457.3922" y2="465.1922"/><line style="stroke:#181818;stroke-width:0.6;" x1="661.5" x2="686.1" y1="465.1922" y2="465.1922"/><polygon fill="#181818" points="667.5,462.7922,661.5,465.1922,667.5,467.5922,665.1,465.1922" style="stroke:#181818;stroke-width:0.6;"/><text fill="#000000" font-family="sans-serif" font-size="7.8" font-weight="bold" lengthAdjust="spacing" textLength="10.8" x="665.1" y="454.5469">22</text><text fill="#000000" font-family="sans-serif" font-size="7.8" lengthAdjust="spacing" textLength="162.6" x="678.3" y="454.5469">verifyCollaborator(entry, collaboratorEmail)</text><polygon fill="#181818" points="1481.1,483.3785,1487.1,485.7785,1481.1,488.1785,1483.5,485.7785" style="stroke:#181818;stroke-width:0.6;"/><line style="stroke:#181818;stroke-width:0.6;" x1="660.9" x2="1484.7" y1="485.7785" y2="485.7785"/><text fill="#000000" font-family="sans-serif" font-size="7.8" font-weight="bold" lengthAdjust="spacing" textLength="10.8" x="665.1" y="482.9332">23</text><text fill="#000000" font-family="sans-serif" font-size="7.8" lengthAdjust="spacing" textLength="63" x="678.3" y="482.9332">getTeamAssign()</text><polygon fill="#181818" points="667.5,500.9648,661.5,503.3648,667.5,505.7648,665.1,503.3648" style="stroke:#181818;stroke-width:0.6;"/><line style="stroke:#181818;stroke-width:0.6;stroke-dasharray:2.0,2.0;" x1="663.9" x2="1490.7" y1="503.3648" y2="503.3648"/><text fill="#000000" font-family="sans-serif" font-size="7.8" font-weight="bold" lengthAdjust="spacing" textLength="10.8" x="671.1" y="500.5195">24</text><text fill="#000000" font-family="sans-serif" font-size="7.8" lengthAdjust="spacing" textLength="44.4" x="684.3" y="500.5195">teamAssign</text><polygon fill="#181818" points="1378.5,518.5512,1384.5,520.9512,1378.5,523.3512,1380.9,520.9512" style="stroke:#181818;stroke-width:0.6;"/><line style="stroke:#181818;stroke-width:0.6;" x1="660.9" x2="1382.1" y1="520.9512" y2="520.9512"/><text fill="#000000" font-family="sans-serif" font-size="7.8" font-weight="bold" lengthAdjust="spacing" textLength="10.8" x="665.1" y="518.1059">25</text><text fill="#000000" font-family="sans-serif" font-size="7.8" lengthAdjust="spacing" textLength="37.2" x="678.3" y="518.1059">getEmail()</text><polygon fill="#181818" points="667.5,536.1375,661.5,538.5375,667.5,540.9375,665.1,538.5375" style="stroke:#181818;stroke-width:0.6;"/><line style="stroke:#181818;stroke-width:0.6;stroke-dasharray:2.0,2.0;" x1="663.9" x2="1388.1" y1="538.5375" y2="538.5375"/><text fill="#000000" font-family="sans-serif" font-size="7.8" font-weight="bold" lengthAdjust="spacing" textLength="10.8" x="671.1" y="535.6922">26</text><text fill="#000000" font-family="sans-serif" font-size="7.8" lengthAdjust="spacing" textLength="66" x="684.3" y="535.6922">collaboratorEmail</text><line style="stroke:#181818;stroke-width:0.6;stroke-dasharray:2.0,2.0;" x1="660.9" x2="686.1" y1="559.1238" y2="559.1238"/><line style="stroke:#181818;stroke-width:0.6;stroke-dasharray:2.0,2.0;" x1="686.1" x2="686.1" y1="559.1238" y2="566.9238"/><line style="stroke:#181818;stroke-width:0.6;stroke-dasharray:2.0,2.0;" x1="657.9" x2="686.1" y1="566.9238" y2="566.9238"/><polygon fill="#181818" points="663.9,564.5238,657.9,566.9238,663.9,569.3238,661.5,566.9238" style="stroke:#181818;stroke-width:0.6;"/><text fill="#000000" font-family="sans-serif" font-size="7.8" font-weight="bold" lengthAdjust="spacing" textLength="10.8" x="665.1" y="556.2785">27</text><text fill="#000000" font-family="sans-serif" font-size="7.8" lengthAdjust="spacing" textLength="2.4" x="678.3" y="556.2785">&#160;</text><polygon fill="#181818" points="415.5,579.1102,409.5,581.5102,415.5,583.9102,413.1,581.5102" style="stroke:#181818;stroke-width:0.6;"/><line style="stroke:#181818;stroke-width:0.6;stroke-dasharray:2.0,2.0;" x1="411.9" x2="648.3" y1="581.5102" y2="581.5102"/><text fill="#000000" font-family="sans-serif" font-size="7.8" font-weight="bold" lengthAdjust="spacing" textLength="10.8" x="419.1" y="578.6648">28</text><text fill="#000000" font-family="sans-serif" font-size="7.8" lengthAdjust="spacing" textLength="20.4" x="432.3" y="578.6648">tasks</text><polygon fill="#181818" points="163.5,596.6965,157.5,599.0965,163.5,601.4965,161.1,599.0965" style="stroke:#181818;stroke-width:0.6;"/><line style="stroke:#181818;stroke-width:0.6;stroke-dasharray:2.0,2.0;" x1="159.9" x2="399.3" y1="599.0965" y2="599.0965"/><text fill="#000000" font-family="sans-serif" font-size="7.8" font-weight="bold" lengthAdjust="spacing" textLength="10.8" x="167.1" y="596.2512">29</text><text fill="#000000" font-family="sans-serif" font-size="7.8" lengthAdjust="spacing" textLength="20.4" x="180.3" y="596.2512">tasks</text><polygon fill="#181818" points="37.5,614.2828,31.5,616.6828,37.5,619.0828,35.1,616.6828" style="stroke:#181818;stroke-width:0.6;"/><line style="stroke:#181818;stroke-width:0.6;stroke-dasharray:2.0,2.0;" x1="33.9" x2="153.3" y1="616.6828" y2="616.6828"/><text fill="#000000" font-family="sans-serif" font-size="7.8" font-weight="bold" lengthAdjust="spacing" textLength="10.8" x="41.1" y="613.8375">30</text><text fill="#000000" font-family="sans-serif" font-size="7.8" lengthAdjust="spacing" textLength="71.4" x="54.3" y="613.8375">Shows list of tasks</text><!--SRC=[xLR1Rk8m4BtdAwnUbahj3w1LfRIaLILQgeHgjT9UN3CGYs2pjccNlz-n7O9D0WMwnyq5EtxptfXvurZFkLXIHHTa8OLafP8B84Qj8D7DofAoEPr1OTOL40NCK36hGe0kwKH-S34ZKrffI1AwCbAi5c-WakHRoIT0fbAQD_adeSn8HIxkP5NHDwaepYu8rUHkD1ocjwCy7O_o15aDPtn9XI4N_JifzAeoOwhd-lNHeLyV3s1mR1JoGyqypeSxw1oMKdEKvg0T9izUOeWA4Bz4Pq0HH-0V92Qq_qkaRk1GwKFsF4Xtn3FCRlr4byiwFt3pzEKbszcuMnWOYVfPFTm63CQZ3lIGQ-CZxEZxXk5c6-SGkx5OhX9NEQE6Iz5iTcrtisV9CSPnXpZlAQCJgFdyf67mqpXwfK4X-XL_2j0Q6HpSljwpRKHdct6ytOw03TW1i-Tn_ZC6FIW0GGeqlYt_4nLONL-jX-8fiIRcxzH0xDead97h6tGfwPCSVgz06qsC9Coxb1XhqoqBkZaX-20UewnVCOufm3NtVYjdhTo6pi0R_rwgiAzkmNpWDWOOgNlQuFxiy0h_c8aTNExZjezZHWNqkHTu5CWW6FGk6qmJQhkdUMiZhklS-YJiemOoWUxGGBJmghwNzcWMaMWHgFfUtADNj0LzdtxndupIgpk_MR1FhNAg7WiMiWNbrHKvbCAdQSIfEFFxJ0hBYeUuvUjTjc8QKjylhNNFT1rkJmUCBNnGbJsCdLcEWIvIF15cuj_aQ1g-BsLeJoQVeAlHeTpS8TPQTWHHPgt27qgmcxJ3Sgm4DhS5-S5DoKMEttBeXONwt5udMQpHFfJzIJxzxu2lEU0T59-km_EcvpwALsszC-f-NjcEATtfvJkkXAUMyOXIdblEaqfwTcS51FKDmbz8ZgJmNytD_IOE3SBYouhL2gz7VLAKyaEJ2YzeH4u3ce32Nen2ne3WBm00]--></g></svg>