<?xml version="1.0" encoding="us-ascii" standalone="no"?><svg xmlns="http://www.w3.org/2000/svg" xmlns:xlink="http://www.w3.org/1999/xlink" contentStyleType="text/css" height="868px" preserveAspectRatio="none" style="width:418px;height:868px;background:#FFFFFF;" version="1.1" viewBox="0 0 418 868" width="418px" zoomAndPan="magnify"><defs/><g><!--class ConsultTasksUI--><g id="elem_ConsultTasksUI"><rect codeLine="8" fill="#F1F1F1" height="48" id="ConsultTasksUI" rx="2.5" ry="2.5" style="stroke:#181818;stroke-width:0.5;" width="130" x="220" y="7"/><ellipse cx="235" cy="23" fill="#ADD1B2" rx="11" ry="11" style="stroke:#181818;stroke-width:1.0;"/><path d="M237.7656,18.875 Q237.9219,18.6563 238.1094,18.5469 Q238.2969,18.4375 238.5156,18.4375 Q238.8906,18.4375 239.125,18.7031 Q239.3594,18.9531 239.3594,19.5625 L239.3594,21.0156 Q239.3594,21.625 239.125,21.8906 Q238.8906,22.1563 238.5156,22.1563 Q238.1719,22.1563 237.9688,21.9531 Q237.7656,21.7656 237.6563,21.25 Q237.6094,20.8906 237.4219,20.7031 Q237.0938,20.3281 236.4844,20.1094 Q235.875,19.8906 235.25,19.8906 Q234.4844,19.8906 233.8438,20.2188 Q233.2188,20.5469 232.7188,21.2969 Q232.2344,22.0469 232.2344,23.0781 L232.2344,24.1719 Q232.2344,25.4063 233.125,26.2344 Q234.0156,27.0469 235.6094,27.0469 Q236.5469,27.0469 237.2031,26.7969 Q237.5938,26.6406 238.0156,26.2031 Q238.2813,25.9375 238.4219,25.8594 Q238.5781,25.7813 238.7813,25.7813 Q239.1094,25.7813 239.3594,26.0469 Q239.625,26.2969 239.625,26.6406 Q239.625,26.9844 239.2813,27.3906 Q238.7813,27.9688 237.9844,28.2969 Q236.9063,28.75 235.6094,28.75 Q234.0938,28.75 232.8906,28.125 Q231.9063,27.625 231.2188,26.5625 Q230.5313,25.4844 230.5313,24.2031 L230.5313,23.0469 Q230.5313,21.7188 231.1406,20.5781 Q231.7656,19.4219 232.8594,18.8125 Q233.9531,18.1875 235.1875,18.1875 Q235.9219,18.1875 236.5625,18.3594 Q237.2188,18.5156 237.7656,18.875 Z " fill="#000000"/><text fill="#000000" font-family="sans-serif" font-size="14" lengthAdjust="spacing" textLength="98" x="249" y="28.7969">ConsultTasksUI</text><line style="stroke:#181818;stroke-width:0.5;" x1="221" x2="349" y1="39" y2="39"/><line style="stroke:#181818;stroke-width:0.5;" x1="221" x2="349" y1="47" y2="47"/></g><!--class ConsultTasksController--><g id="elem_ConsultTasksController"><rect codeLine="10" fill="#F1F1F1" height="85.2422" id="ConsultTasksController" rx="2.5" ry="2.5" style="stroke:#181818;stroke-width:0.5;" width="252" x="159" y="116"/><ellipse cx="206.75" cy="132" fill="#ADD1B2" rx="11" ry="11" style="stroke:#181818;stroke-width:1.0;"/><path d="M209.5156,127.875 Q209.6719,127.6563 209.8594,127.5469 Q210.0469,127.4375 210.2656,127.4375 Q210.6406,127.4375 210.875,127.7031 Q211.1094,127.9531 211.1094,128.5625 L211.1094,130.0156 Q211.1094,130.625 210.875,130.8906 Q210.6406,131.1563 210.2656,131.1563 Q209.9219,131.1563 209.7188,130.9531 Q209.5156,130.7656 209.4063,130.25 Q209.3594,129.8906 209.1719,129.7031 Q208.8438,129.3281 208.2344,129.1094 Q207.625,128.8906 207,128.8906 Q206.2344,128.8906 205.5938,129.2188 Q204.9688,129.5469 204.4688,130.2969 Q203.9844,131.0469 203.9844,132.0781 L203.9844,133.1719 Q203.9844,134.4063 204.875,135.2344 Q205.7656,136.0469 207.3594,136.0469 Q208.2969,136.0469 208.9531,135.7969 Q209.3438,135.6406 209.7656,135.2031 Q210.0313,134.9375 210.1719,134.8594 Q210.3281,134.7813 210.5313,134.7813 Q210.8594,134.7813 211.1094,135.0469 Q211.375,135.2969 211.375,135.6406 Q211.375,135.9844 211.0313,136.3906 Q210.5313,136.9688 209.7344,137.2969 Q208.6563,137.75 207.3594,137.75 Q205.8438,137.75 204.6406,137.125 Q203.6563,136.625 202.9688,135.5625 Q202.2813,134.4844 202.2813,133.2031 L202.2813,132.0469 Q202.2813,130.7188 202.8906,129.5781 Q203.5156,128.4219 204.6094,127.8125 Q205.7031,127.1875 206.9375,127.1875 Q207.6719,127.1875 208.3125,127.3594 Q208.9688,127.5156 209.5156,127.875 Z " fill="#000000"/><text fill="#000000" font-family="sans-serif" font-size="14" lengthAdjust="spacing" textLength="148" x="227.25" y="137.7969">ConsultTasksController</text><line style="stroke:#181818;stroke-width:0.5;" x1="160" x2="410" y1="148" y2="148"/><line style="stroke:#181818;stroke-width:0.5;" x1="160" x2="410" y1="156" y2="156"/><text fill="#000000" font-family="sans-serif" font-size="14" lengthAdjust="spacing" textLength="240" x="165" y="175.1074">-getTaskByReference(taskReference)</text><text fill="#000000" font-family="sans-serif" font-size="14" lengthAdjust="spacing" textLength="98" x="165" y="193.7285">+getTasksList()</text></g><!--class Repositories--><g id="elem_Repositories"><rect codeLine="15" fill="#F1F1F1" height="103.8633" id="Repositories" rx="2.5" ry="2.5" style="stroke:#181818;stroke-width:0.5;" width="190" x="7" y="262"/><ellipse cx="58.25" cy="278" fill="#ADD1B2" rx="11" ry="11" style="stroke:#181818;stroke-width:1.0;"/><path d="M61.0156,273.875 Q61.1719,273.6563 61.3594,273.5469 Q61.5469,273.4375 61.7656,273.4375 Q62.1406,273.4375 62.375,273.7031 Q62.6094,273.9531 62.6094,274.5625 L62.6094,276.0156 Q62.6094,276.625 62.375,276.8906 Q62.1406,277.1563 61.7656,277.1563 Q61.4219,277.1563 61.2188,276.9531 Q61.0156,276.7656 60.9063,276.25 Q60.8594,275.8906 60.6719,275.7031 Q60.3438,275.3281 59.7344,275.1094 Q59.125,274.8906 58.5,274.8906 Q57.7344,274.8906 57.0938,275.2188 Q56.4688,275.5469 55.9688,276.2969 Q55.4844,277.0469 55.4844,278.0781 L55.4844,279.1719 Q55.4844,280.4063 56.375,281.2344 Q57.2656,282.0469 58.8594,282.0469 Q59.7969,282.0469 60.4531,281.7969 Q60.8438,281.6406 61.2656,281.2031 Q61.5313,280.9375 61.6719,280.8594 Q61.8281,280.7813 62.0313,280.7813 Q62.3594,280.7813 62.6094,281.0469 Q62.875,281.2969 62.875,281.6406 Q62.875,281.9844 62.5313,282.3906 Q62.0313,282.9688 61.2344,283.2969 Q60.1563,283.75 58.8594,283.75 Q57.3438,283.75 56.1406,283.125 Q55.1563,282.625 54.4688,281.5625 Q53.7813,280.4844 53.7813,279.2031 L53.7813,278.0469 Q53.7813,276.7188 54.3906,275.5781 Q55.0156,274.4219 56.1094,273.8125 Q57.2031,273.1875 58.4375,273.1875 Q59.1719,273.1875 59.8125,273.3594 Q60.4688,273.5156 61.0156,273.875 Z " fill="#000000"/><text fill="#000000" font-family="sans-serif" font-size="14" lengthAdjust="spacing" textLength="79" x="78.75" y="283.7969">Repositories</text><line style="stroke:#181818;stroke-width:0.5;" x1="8" x2="196" y1="294" y2="294"/><line style="stroke:#181818;stroke-width:0.5;" x1="8" x2="196" y1="302" y2="302"/><text fill="#000000" font-family="sans-serif" font-size="14" lengthAdjust="spacing" textLength="94" x="13" y="321.1074">-Repositories()</text><text fill="#000000" font-family="sans-serif" font-size="14" lengthAdjust="spacing" textLength="178" x="13" y="339.7285">+getInstance(): Repositories</text><text fill="#000000" font-family="sans-serif" font-size="14" lengthAdjust="spacing" textLength="95" x="13" y="358.3496">+getToDoList()</text></g><!--class ToDoList--><g id="elem_ToDoList"><rect codeLine="21" fill="#F1F1F1" height="66.6211" id="ToDoList" rx="2.5" ry="2.5" style="stroke:#181818;stroke-width:0.5;" width="255" x="96.5" y="427"/><ellipse cx="191.25" cy="443" fill="#ADD1B2" rx="11" ry="11" style="stroke:#181818;stroke-width:1.0;"/><path d="M194.0156,438.875 Q194.1719,438.6563 194.3594,438.5469 Q194.5469,438.4375 194.7656,438.4375 Q195.1406,438.4375 195.375,438.7031 Q195.6094,438.9531 195.6094,439.5625 L195.6094,441.0156 Q195.6094,441.625 195.375,441.8906 Q195.1406,442.1563 194.7656,442.1563 Q194.4219,442.1563 194.2188,441.9531 Q194.0156,441.7656 193.9063,441.25 Q193.8594,440.8906 193.6719,440.7031 Q193.3438,440.3281 192.7344,440.1094 Q192.125,439.8906 191.5,439.8906 Q190.7344,439.8906 190.0938,440.2188 Q189.4688,440.5469 188.9688,441.2969 Q188.4844,442.0469 188.4844,443.0781 L188.4844,444.1719 Q188.4844,445.4063 189.375,446.2344 Q190.2656,447.0469 191.8594,447.0469 Q192.7969,447.0469 193.4531,446.7969 Q193.8438,446.6406 194.2656,446.2031 Q194.5313,445.9375 194.6719,445.8594 Q194.8281,445.7813 195.0313,445.7813 Q195.3594,445.7813 195.6094,446.0469 Q195.875,446.2969 195.875,446.6406 Q195.875,446.9844 195.5313,447.3906 Q195.0313,447.9688 194.2344,448.2969 Q193.1563,448.75 191.8594,448.75 Q190.3438,448.75 189.1406,448.125 Q188.1563,447.625 187.4688,446.5625 Q186.7813,445.4844 186.7813,444.2031 L186.7813,443.0469 Q186.7813,441.7188 187.3906,440.5781 Q188.0156,439.4219 189.1094,438.8125 Q190.2031,438.1875 191.4375,438.1875 Q192.1719,438.1875 192.8125,438.3594 Q193.4688,438.5156 194.0156,438.875 Z " fill="#000000"/><text fill="#000000" font-family="sans-serif" font-size="14" lengthAdjust="spacing" textLength="57" x="211.75" y="448.7969">ToDoList</text><line style="stroke:#181818;stroke-width:0.5;" x1="97.5" x2="350.5" y1="459" y2="459"/><line style="stroke:#181818;stroke-width:0.5;" x1="97.5" x2="350.5" y1="467" y2="467"/><text fill="#000000" font-family="sans-serif" font-size="14" lengthAdjust="spacing" textLength="243" x="102.5" y="486.1074">+getTaskByReference(taskReference)</text></g><!--class Task--><g id="elem_Task"><rect codeLine="25" fill="#F1F1F1" height="159.7266" id="Task" rx="2.5" ry="2.5" style="stroke:#181818;stroke-width:0.5;" width="255" x="96.5" y="555"/><ellipse cx="204.25" cy="571" fill="#ADD1B2" rx="11" ry="11" style="stroke:#181818;stroke-width:1.0;"/><path d="M207.0156,566.875 Q207.1719,566.6563 207.3594,566.5469 Q207.5469,566.4375 207.7656,566.4375 Q208.1406,566.4375 208.375,566.7031 Q208.6094,566.9531 208.6094,567.5625 L208.6094,569.0156 Q208.6094,569.625 208.375,569.8906 Q208.1406,570.1563 207.7656,570.1563 Q207.4219,570.1563 207.2188,569.9531 Q207.0156,569.7656 206.9063,569.25 Q206.8594,568.8906 206.6719,568.7031 Q206.3438,568.3281 205.7344,568.1094 Q205.125,567.8906 204.5,567.8906 Q203.7344,567.8906 203.0938,568.2188 Q202.4688,568.5469 201.9688,569.2969 Q201.4844,570.0469 201.4844,571.0781 L201.4844,572.1719 Q201.4844,573.4063 202.375,574.2344 Q203.2656,575.0469 204.8594,575.0469 Q205.7969,575.0469 206.4531,574.7969 Q206.8438,574.6406 207.2656,574.2031 Q207.5313,573.9375 207.6719,573.8594 Q207.8281,573.7813 208.0313,573.7813 Q208.3594,573.7813 208.6094,574.0469 Q208.875,574.2969 208.875,574.6406 Q208.875,574.9844 208.5313,575.3906 Q208.0313,575.9688 207.2344,576.2969 Q206.1563,576.75 204.8594,576.75 Q203.3438,576.75 202.1406,576.125 Q201.1563,575.625 200.4688,574.5625 Q199.7813,573.4844 199.7813,572.2031 L199.7813,571.0469 Q199.7813,569.7188 200.3906,568.5781 Q201.0156,567.4219 202.1094,566.8125 Q203.2031,566.1875 204.4375,566.1875 Q205.1719,566.1875 205.8125,566.3594 Q206.4688,566.5156 207.0156,566.875 Z " fill="#000000"/><text fill="#000000" font-family="sans-serif" font-size="14" lengthAdjust="spacing" textLength="31" x="224.75" y="576.7969">Task</text><line style="stroke:#181818;stroke-width:0.5;" x1="97.5" x2="350.5" y1="587" y2="587"/><text fill="#000000" font-family="sans-serif" font-size="14" lengthAdjust="spacing" textLength="107" x="102.5" y="606.1074">-String reference</text><text fill="#000000" font-family="sans-serif" font-size="14" lengthAdjust="spacing" textLength="115" x="102.5" y="624.7285">-String description</text><text fill="#000000" font-family="sans-serif" font-size="14" lengthAdjust="spacing" textLength="243" x="102.5" y="643.3496">-EmergencyDegree: degreeOfUrgency</text><text fill="#000000" font-family="sans-serif" font-size="14" lengthAdjust="spacing" textLength="135" x="102.5" y="661.9707">-int expectedDuration</text><text fill="#000000" font-family="sans-serif" font-size="14" lengthAdjust="spacing" textLength="103" x="102.5" y="680.5918">-TaskType: type</text><text fill="#000000" font-family="sans-serif" font-size="14" lengthAdjust="spacing" textLength="170" x="102.5" y="699.2129">-GreenSpace: greenSpace</text><line style="stroke:#181818;stroke-width:0.5;" x1="97.5" x2="350.5" y1="706.7266" y2="706.7266"/></g><!--class TaskStatus--><g id="elem_TaskStatus"><rect codeLine="34" fill="#F1F1F1" height="85.2422" id="TaskStatus" rx="2.5" ry="2.5" style="stroke:#181818;stroke-width:0.5;" width="103" x="172.5" y="776"/><ellipse cx="187.5" cy="792" fill="#EB937F" rx="11" ry="11" style="stroke:#181818;stroke-width:1.0;"/><path d="M186.3594,792.7969 L186.3594,795.2969 L190.6875,795.2969 L190.6875,794.375 Q190.6875,793.7656 190.9219,793.5 Q191.1719,793.2344 191.5469,793.2344 Q191.9219,793.2344 192.1563,793.5 Q192.3906,793.7656 192.3906,794.375 L192.3906,797 L184.3906,797 Q183.7656,797 183.5,796.7656 Q183.25,796.5313 183.25,796.1406 Q183.25,795.7656 183.5156,795.5313 Q183.7813,795.2969 184.3906,795.2969 L184.6563,795.2969 L184.6563,788.6406 L184.3906,788.6406 Q183.7656,788.6406 183.5,788.4063 Q183.25,788.1719 183.25,787.7813 Q183.25,787.4063 183.5,787.1719 Q183.7656,786.9375 184.3906,786.9375 L192.0156,786.9375 L192.0156,789.5313 Q192.0156,790.1406 191.7813,790.4063 Q191.5625,790.6563 191.1719,790.6563 Q190.7969,790.6563 190.5625,790.4063 Q190.3281,790.1406 190.3281,789.5313 L190.3281,788.6406 L186.3594,788.6406 L186.3594,791.0938 L187.8438,791.0938 Q187.8438,790.4375 187.9688,790.25 Q188.2344,789.8438 188.7031,789.8438 Q189.0781,789.8438 189.3125,790.1094 Q189.5469,790.3594 189.5469,790.9688 L189.5469,792.9375 Q189.5469,793.4844 189.4219,793.6719 Q189.1563,794.0625 188.7031,794.0625 Q188.2344,794.0625 187.9688,793.6563 Q187.8438,793.4688 187.8438,792.7969 L186.3594,792.7969 Z " fill="#000000"/><text fill="#000000" font-family="sans-serif" font-size="14" lengthAdjust="spacing" textLength="71" x="201.5" y="797.7969">TaskStatus</text><line style="stroke:#181818;stroke-width:0.5;" x1="173.5" x2="274.5" y1="808" y2="808"/><text fill="#000000" font-family="sans-serif" font-size="14" lengthAdjust="spacing" textLength="60" x="178.5" y="827.1074">PENDING</text><text fill="#000000" font-family="sans-serif" font-size="14" lengthAdjust="spacing" textLength="86" x="178.5" y="845.7285">PROCESSED</text><line style="stroke:#181818;stroke-width:0.5;" x1="173.5" x2="274.5" y1="853.2422" y2="853.2422"/></g><!--link ConsultTasksUI to ConsultTasksController--><g id="link_ConsultTasksUI_ConsultTasksController"><path codeLine="39" d="M285,55.02 C285,72 285,89.58 285,109.84 " fill="none" id="ConsultTasksUI-to-ConsultTasksController" style="stroke:#181818;stroke-width:1.0;stroke-dasharray:7.0,7.0;"/><polygon fill="#181818" points="285,115.84,289,106.84,285,110.84,281,106.84,285,115.84" style="stroke:#181818;stroke-width:1.0;"/></g><!--link ConsultTasksController to Repositories--><g id="link_ConsultTasksController_Repositories"><path codeLine="41" d="M235.48,201.04 C213.14,219.77 191.1463,238.2234 167.5963,257.9834 " fill="none" id="ConsultTasksController-to-Repositories" style="stroke:#181818;stroke-width:1.0;stroke-dasharray:7.0,7.0;"/><polygon fill="#181818" points="163,261.84,172.4656,259.1193,166.8303,258.6261,167.3234,252.9908,163,261.84" style="stroke:#181818;stroke-width:1.0;"/></g><!--link ConsultTasksController to ToDoList--><g id="link_ConsultTasksController_ToDoList"><path codeLine="43" d="M295.98,201.19 C303.46,229.57 312,262 312,262 C312,262 312,366 312,366 C312,366 284.2618,395.4705 258.8918,422.4305 " fill="none" id="ConsultTasksController-to-ToDoList" style="stroke:#181818;stroke-width:1.0;stroke-dasharray:7.0,7.0;"/><polygon fill="#181818" points="254.78,426.8,263.8608,422.9869,258.2065,423.1587,258.0347,417.5045,254.78,426.8" style="stroke:#181818;stroke-width:1.0;"/></g><!--link Repositories to Repositories--><g id="link_Repositories_Repositories"><path codeLine="45" d="M197.23,299.12 C217.42,300.63 232,305.59 232,314 C232,322.41 223.4033,326.9225 203.2133,328.4325 " fill="none" id="Repositories-to-Repositories" style="stroke:#181818;stroke-width:1.0;"/><polygon fill="#181818" points="197.23,328.88,206.5033,332.1976,202.2161,328.5071,205.9066,324.2199,197.23,328.88" style="stroke:#181818;stroke-width:1.0;"/><text fill="#000000" font-family="sans-serif" font-size="13" lengthAdjust="spacing" textLength="67" x="238" y="319.5283">repositories</text></g><!--link Repositories to ToDoList--><g id="link_Repositories_ToDoList"><path codeLine="47" d="M145.36,366.35 C162.34,386.47 177.4496,404.3652 192.5096,422.2052 " fill="none" id="Repositories-to-ToDoList" style="stroke:#181818;stroke-width:1.0;"/><polygon fill="#181818" points="196.38,426.79,193.631,417.3326,193.1547,422.9693,187.5179,422.493,196.38,426.79" style="stroke:#181818;stroke-width:1.0;"/><text fill="#000000" font-family="sans-serif" font-size="13" lengthAdjust="spacing" textLength="7" x="183.4477" y="415.8359">1</text></g><!--link ToDoList to Task--><g id="link_ToDoList_Task"><path codeLine="49" d="M224,494.35 C224,511.56 224,527.43 224,548.74 " fill="none" id="ToDoList-to-Task" style="stroke:#181818;stroke-width:1.0;"/><polygon fill="#181818" points="224,554.74,228,545.74,224,549.74,220,545.74,224,554.74" style="stroke:#181818;stroke-width:1.0;"/><text fill="#000000" font-family="sans-serif" font-size="13" lengthAdjust="spacing" textLength="5" x="218.7695" y="543.6118">*</text></g><!--link Task to TaskStatus--><g id="link_Task_TaskStatus"><path codeLine="51" d="M224,715.08 C224,735.91 224,751.56 224,769.57 " fill="none" id="Task-to-TaskStatus" style="stroke:#181818;stroke-width:1.0;"/><polygon fill="#181818" points="224,775.57,228,766.57,224,770.57,220,766.57,224,775.57" style="stroke:#181818;stroke-width:1.0;"/><text fill="#000000" font-family="sans-serif" font-size="13" lengthAdjust="spacing" textLength="7" x="216.4641" y="764.7268">1</text></g><!--SRC=[VLBBReCm4BpxAwoSabQ9sYk7Icr04LALL27v09TiN2kEZRn6BOtwxrtUq4Sum7fsPbXcmPCocN3Yp3EHdeI4n1SQk8FK2oCrCEm8-2OEzbqPoOz2ux2ZbG5VPC0pgulom0RDL0l4H- -TUiqznAarYVe4ViTOrU5BQp3NVYVmXFluylKNJhLtLcjm5yRfcake6a_55exWmAGmzNJkJhEATjlGy5cXdyvOvxs5pABorYd0nd48JNjvR9228FjPC5Br_ZQqF-rRx3AQuigmlPBmPg244gEiNSiQeGV0rAdCAsjgF3g3aqGhGf0E8216-TmSzpLSivJn73uoMYuSmjo9Nb- -U4Sh37Yvo1fRaO59wByWL7PrEIoO_5pDcdZXyoR2bsWTnkjLNMytooX9eh1aZpVC5uk7VvOxflPu9HcbVutOfi_OKCBdyx57GD4E7N-H9_UJWLTRrQsRIVNv1DEzPtU9V0C0]--></g></svg>