<?xml version="1.0" encoding="us-ascii" standalone="no"?><svg xmlns="http://www.w3.org/2000/svg" xmlns:xlink="http://www.w3.org/1999/xlink" contentStyleType="text/css" height="819px" preserveAspectRatio="none" style="width:1678px;height:819px;background:#FFFFFF;" version="1.1" viewBox="0 0 1678 819" width="1678.2px" zoomAndPan="magnify"><defs/><g><rect fill="#FFFFFF" height="705.2004" style="stroke:#181818;stroke-width:0.6;" width="6" x="27.9" y="54.893"/><rect fill="#FFFFFF" height="692.4141" style="stroke:#181818;stroke-width:0.6;" width="6" x="209.7" y="67.6793"/><rect fill="#FFFFFF" height="651.2414" style="stroke:#181818;stroke-width:0.6;" width="6" x="458.7" y="91.2656"/><rect fill="#FFFFFF" height="17.5863" style="stroke:#181818;stroke-width:0.6;" width="6" x="612.9" y="153.1313"/><rect fill="#FFFFFF" height="17.5863" style="stroke:#181818;stroke-width:0.6;" width="6" x="612.9" y="354.3809"/><rect fill="#FFFFFF" height="17.5863" style="stroke:#181818;stroke-width:0.6;" width="6" x="680.7" y="188.3039"/><rect fill="#FFFFFF" height="17.5863" style="stroke:#181818;stroke-width:0.6;" width="6" x="680.7" y="389.5535"/><rect fill="#FFFFFF" height="300.1945" style="stroke:#181818;stroke-width:0.6;" width="6" x="783.3" y="424.7262"/><rect fill="#FFFFFF" height="24.1863" style="stroke:#181818;stroke-width:0.6;" width="6" x="786.3" y="531.6574"/><rect fill="#FFFFFF" height="17.5863" style="stroke:#181818;stroke-width:0.6;" width="6" x="1250.4" y="223.4766"/><rect fill="#FFFFFF" height="17.5863" style="stroke:#181818;stroke-width:0.6;" width="6" x="1362.9" y="258.6492"/><rect fill="#FFFFFF" height="17.5863" style="stroke:#181818;stroke-width:0.6;" width="6" x="1447.5" y="293.8219"/><rect fill="#FFFFFF" height="17.5863" style="stroke:#181818;stroke-width:0.6;" width="6" x="1447.5" y="627.3891"/><rect fill="#FFFFFF" height="17.5863" style="stroke:#181818;stroke-width:0.6;" width="6" x="1550.1" y="491.6848"/><rect fill="#FFFFFF" height="17.5863" style="stroke:#181818;stroke-width:0.6;" width="6" x="1550.1" y="577.6301"/><rect fill="#FFFFFF" height="17.5863" style="stroke:#181818;stroke-width:0.6;" width="6" x="1612.8" y="677.148"/><rect fill="none" height="239.4223" style="stroke:#000000;stroke-width:0.8999999999999999;" width="927" x="747.6" y="468.5121"/><rect fill="none" height="99.518" style="stroke:#000000;stroke-width:0.8999999999999999;" width="915" x="753.6" y="604.2164"/><rect fill="none" height="45.559" style="stroke:#000000;stroke-width:0.8999999999999999;" width="903" x="759.6" y="653.9754"/><line style="stroke:#181818;stroke-width:0.3;stroke-dasharray:5.0,5.0;" x1="30.6" x2="30.6" y1="48.893" y2="770.8934"/><line style="stroke:#181818;stroke-width:0.3;stroke-dasharray:5.0,5.0;" x1="212.7" x2="212.7" y1="48.893" y2="770.8934"/><line style="stroke:#181818;stroke-width:0.3;stroke-dasharray:5.0,5.0;" x1="461.7" x2="461.7" y1="90.9258" y2="770.8934"/><line style="stroke:#181818;stroke-width:0.3;stroke-dasharray:5.0,5.0;" x1="615.6" x2="615.6" y1="48.893" y2="770.8934"/><line style="stroke:#181818;stroke-width:0.3;stroke-dasharray:5.0,5.0;" x1="683.4" x2="683.4" y1="48.893" y2="770.8934"/><line style="stroke:#181818;stroke-width:0.3;stroke-dasharray:5.0,5.0;" x1="786" x2="786" y1="48.893" y2="770.8934"/><line style="stroke:#181818;stroke-width:0.3;stroke-dasharray:5.0,5.0;" x1="1027.2" x2="1027.2" y1="48.893" y2="770.8934"/><line style="stroke:#181818;stroke-width:0.3;stroke-dasharray:5.0,5.0;" x1="1087.8" x2="1087.8" y1="48.893" y2="770.8934"/><line style="stroke:#181818;stroke-width:0.3;stroke-dasharray:5.0,5.0;" x1="1153.8" x2="1153.8" y1="48.893" y2="770.8934"/><line style="stroke:#181818;stroke-width:0.3;stroke-dasharray:5.0,5.0;" x1="1253.4" x2="1253.4" y1="48.893" y2="770.8934"/><line style="stroke:#181818;stroke-width:0.3;stroke-dasharray:5.0,5.0;" x1="1365.6" x2="1365.6" y1="48.893" y2="770.8934"/><line style="stroke:#181818;stroke-width:0.3;stroke-dasharray:5.0,5.0;" x1="1450.2" x2="1450.2" y1="48.893" y2="770.8934"/><line style="stroke:#181818;stroke-width:0.3;stroke-dasharray:5.0,5.0;" x1="1508.4" x2="1508.4" y1="48.893" y2="770.8934"/><line style="stroke:#181818;stroke-width:0.3;stroke-dasharray:5.0,5.0;" x1="1552.8" x2="1552.8" y1="48.893" y2="770.8934"/><line style="stroke:#181818;stroke-width:0.3;stroke-dasharray:5.0,5.0;" x1="1615.8" x2="1615.8" y1="452.9191" y2="770.8934"/><text fill="#000000" font-family="sans-serif" font-size="8.4" lengthAdjust="spacing" textLength="52.2" x="3" y="47.1211">Collaborator</text><ellipse cx="30.9" cy="8.1" fill="#E3E3E3" rx="4.8" ry="4.8" style="stroke:#181818;stroke-width:0.3;"/><path d="M30.9,12.9 L30.9,29.1 M23.1,17.7 L38.7,17.7 M30.9,29.1 L23.1,38.1 M30.9,29.1 L38.7,38.1 " fill="none" style="stroke:#181818;stroke-width:0.3;"/><text fill="#000000" font-family="sans-serif" font-size="8.4" lengthAdjust="spacing" textLength="52.2" x="3" y="778.4145">Collaborator</text><ellipse cx="30.9" cy="785.2863" fill="#E3E3E3" rx="4.8" ry="4.8" style="stroke:#181818;stroke-width:0.3;"/><path d="M30.9,790.0863 L30.9,806.2863 M23.1,794.8863 L38.7,794.8863 M30.9,806.2863 L23.1,815.2863 M30.9,806.2863 L38.7,815.2863 " fill="none" style="stroke:#181818;stroke-width:0.3;"/><rect fill="#E3E3E3" height="18.293" rx="1.5" ry="1.5" style="stroke:#181818;stroke-width:0.3;" width="74.4" x="175.5" y="30"/><text fill="#000000" font-family="sans-serif" font-size="8.4" lengthAdjust="spacing" textLength="66" x="179.7" y="42.3211">:ConsultTasksUI</text><rect fill="#E3E3E3" height="18.293" rx="1.5" ry="1.5" style="stroke:#181818;stroke-width:0.3;" width="74.4" x="175.5" y="770.2934"/><text fill="#000000" font-family="sans-serif" font-size="8.4" lengthAdjust="spacing" textLength="66" x="179.7" y="782.6145">:ConsultTasksUI</text><rect fill="#E3E3E3" height="18.293" rx="1.5" ry="1.5" style="stroke:#181818;stroke-width:0.3;" width="108" x="407.7" y="770.2934"/><text fill="#000000" font-family="sans-serif" font-size="8.4" lengthAdjust="spacing" textLength="99.6" x="411.9" y="782.6145">:ConsultTasksController</text><rect fill="#E3E3E3" height="18.293" rx="1.5" ry="1.5" style="stroke:#181818;stroke-width:0.3;" width="61.8" x="585" y="30"/><text fill="#000000" font-family="sans-serif" font-size="8.4" lengthAdjust="spacing" textLength="53.4" x="589.2" y="42.3211">:Repositories</text><rect fill="#E3E3E3" height="18.293" rx="1.5" ry="1.5" style="stroke:#181818;stroke-width:0.3;" width="61.8" x="585" y="770.2934"/><text fill="#000000" font-family="sans-serif" font-size="8.4" lengthAdjust="spacing" textLength="53.4" x="589.2" y="782.6145">:Repositories</text><rect fill="#E3E3E3" height="28.1859" rx="1.5" ry="1.5" style="stroke:#181818;stroke-width:0.3;" width="61.8" x="652.8" y="20.107"/><text fill="#000000" font-family="sans-serif" font-size="8.4" lengthAdjust="spacing" textLength="49.2" x="659.1" y="32.4281">repositories</text><text fill="#000000" font-family="sans-serif" font-size="8.4" lengthAdjust="spacing" textLength="53.4" x="657" y="42.3211">:Repositories</text><rect fill="#E3E3E3" height="28.1859" rx="1.5" ry="1.5" style="stroke:#181818;stroke-width:0.3;" width="61.8" x="652.8" y="770.2934"/><text fill="#000000" font-family="sans-serif" font-size="8.4" lengthAdjust="spacing" textLength="49.2" x="659.1" y="782.6145">repositories</text><text fill="#000000" font-family="sans-serif" font-size="8.4" lengthAdjust="spacing" textLength="53.4" x="657" y="792.5074">:Repositories</text><rect fill="#E3E3E3" height="28.1859" rx="1.5" ry="1.5" style="stroke:#181818;stroke-width:0.3;" width="41.4" x="765.6" y="20.107"/><text fill="#000000" font-family="sans-serif" font-size="8.4" lengthAdjust="spacing" textLength="33" x="769.8" y="32.4281">agenda:</text><text fill="#000000" font-family="sans-serif" font-size="8.4" lengthAdjust="spacing" textLength="31.8" x="770.4" y="42.3211">Agenda</text><rect fill="#E3E3E3" height="28.1859" rx="1.5" ry="1.5" style="stroke:#181818;stroke-width:0.3;" width="41.4" x="765.6" y="770.2934"/><text fill="#000000" font-family="sans-serif" font-size="8.4" lengthAdjust="spacing" textLength="33" x="769.8" y="782.6145">agenda:</text><text fill="#000000" font-family="sans-serif" font-size="8.4" lengthAdjust="spacing" textLength="31.8" x="770.4" y="792.5074">Agenda</text><rect fill="#E3E3E3" height="18.293" rx="1.5" ry="1.5" style="stroke:#181818;stroke-width:0.3;" width="63" x="996" y="30"/><text fill="#000000" font-family="sans-serif" font-size="8.4" lengthAdjust="spacing" textLength="54.6" x="1000.2" y="42.3211">:EntryMapper</text><rect fill="#E3E3E3" height="18.293" rx="1.5" ry="1.5" style="stroke:#181818;stroke-width:0.3;" width="63" x="996" y="770.2934"/><text fill="#000000" font-family="sans-serif" font-size="8.4" lengthAdjust="spacing" textLength="54.6" x="1000.2" y="782.6145">:EntryMapper</text><rect fill="#E3E3E3" height="28.1859" rx="1.5" ry="1.5" style="stroke:#181818;stroke-width:0.3;" width="46.2" x="1065" y="20.107"/><text fill="#000000" font-family="sans-serif" font-size="8.4" lengthAdjust="spacing" textLength="35.4" x="1070.4" y="32.4281">entryDto</text><text fill="#000000" font-family="sans-serif" font-size="8.4" lengthAdjust="spacing" textLength="37.8" x="1069.2" y="42.3211">:EntryDto</text><rect fill="#E3E3E3" height="28.1859" rx="1.5" ry="1.5" style="stroke:#181818;stroke-width:0.3;" width="46.2" x="1065" y="770.2934"/><text fill="#000000" font-family="sans-serif" font-size="8.4" lengthAdjust="spacing" textLength="35.4" x="1070.4" y="782.6145">entryDto</text><text fill="#000000" font-family="sans-serif" font-size="8.4" lengthAdjust="spacing" textLength="37.8" x="1069.2" y="792.5074">:EntryDto</text><rect fill="#E3E3E3" height="28.1859" rx="1.5" ry="1.5" style="stroke:#181818;stroke-width:0.3;" width="73.2" x="1117.2" y="20.107"/><text fill="#000000" font-family="sans-serif" font-size="8.4" lengthAdjust="spacing" textLength="49.2" x="1129.2" y="32.4281">entryListDto</text><text fill="#000000" font-family="sans-serif" font-size="8.4" lengthAdjust="spacing" textLength="64.8" x="1121.4" y="42.3211">:List&lt;entryDto&gt;</text><rect fill="#E3E3E3" height="28.1859" rx="1.5" ry="1.5" style="stroke:#181818;stroke-width:0.3;" width="73.2" x="1117.2" y="770.2934"/><text fill="#000000" font-family="sans-serif" font-size="8.4" lengthAdjust="spacing" textLength="49.2" x="1129.2" y="782.6145">entryListDto</text><text fill="#000000" font-family="sans-serif" font-size="8.4" lengthAdjust="spacing" textLength="64.8" x="1121.4" y="792.5074">:List&lt;entryDto&gt;</text><rect fill="#E3E3E3" height="28.1859" rx="1.5" ry="1.5" style="stroke:#181818;stroke-width:0.3;" width="114" x="1196.4" y="20.107"/><text fill="#000000" font-family="sans-serif" font-size="8.4" lengthAdjust="spacing" textLength="105.6" x="1200.6" y="32.4281">authenticationRepository:</text><text fill="#000000" font-family="sans-serif" font-size="8.4" lengthAdjust="spacing" textLength="104.4" x="1201.2" y="42.3211">AuthenticationRepository</text><rect fill="#E3E3E3" height="28.1859" rx="1.5" ry="1.5" style="stroke:#181818;stroke-width:0.3;" width="114" x="1196.4" y="770.2934"/><text fill="#000000" font-family="sans-serif" font-size="8.4" lengthAdjust="spacing" textLength="105.6" x="1200.6" y="782.6145">authenticationRepository:</text><text fill="#000000" font-family="sans-serif" font-size="8.4" lengthAdjust="spacing" textLength="104.4" x="1201.2" y="792.5074">AuthenticationRepository</text><rect fill="#E3E3E3" height="28.1859" rx="1.5" ry="1.5" style="stroke:#181818;stroke-width:0.3;" width="99" x="1316.4" y="20.107"/><text fill="#000000" font-family="sans-serif" font-size="8.4" lengthAdjust="spacing" textLength="90.6" x="1320.6" y="32.4281">authenticationFacade:</text><text fill="#000000" font-family="sans-serif" font-size="8.4" lengthAdjust="spacing" textLength="48.6" x="1341.6" y="42.3211">AuthFacade</text><rect fill="#E3E3E3" height="28.1859" rx="1.5" ry="1.5" style="stroke:#181818;stroke-width:0.3;" width="99" x="1316.4" y="770.2934"/><text fill="#000000" font-family="sans-serif" font-size="8.4" lengthAdjust="spacing" textLength="90.6" x="1320.6" y="782.6145">authenticationFacade:</text><text fill="#000000" font-family="sans-serif" font-size="8.4" lengthAdjust="spacing" textLength="48.6" x="1341.6" y="792.5074">AuthFacade</text><rect fill="#E3E3E3" height="28.1859" rx="1.5" ry="1.5" style="stroke:#181818;stroke-width:0.3;" width="58.2" x="1421.4" y="20.107"/><text fill="#000000" font-family="sans-serif" font-size="8.4" lengthAdjust="spacing" textLength="20.4" x="1440.3" y="32.4281">user:</text><text fill="#000000" font-family="sans-serif" font-size="8.4" lengthAdjust="spacing" textLength="49.8" x="1425.6" y="42.3211">UserSession</text><rect fill="#E3E3E3" height="28.1859" rx="1.5" ry="1.5" style="stroke:#181818;stroke-width:0.3;" width="58.2" x="1421.4" y="770.2934"/><text fill="#000000" font-family="sans-serif" font-size="8.4" lengthAdjust="spacing" textLength="20.4" x="1440.3" y="782.6145">user:</text><text fill="#000000" font-family="sans-serif" font-size="8.4" lengthAdjust="spacing" textLength="49.8" x="1425.6" y="792.5074">UserSession</text><rect fill="#E3E3E3" height="28.1859" rx="1.5" ry="1.5" style="stroke:#181818;stroke-width:0.3;" width="45.6" x="1485.6" y="20.107"/><text fill="#000000" font-family="sans-serif" font-size="8.4" lengthAdjust="spacing" textLength="37.2" x="1489.8" y="32.4281">entryList:</text><text fill="#000000" font-family="sans-serif" font-size="8.4" lengthAdjust="spacing" textLength="34.8" x="1491" y="42.3211">EntryList</text><rect fill="#E3E3E3" height="28.1859" rx="1.5" ry="1.5" style="stroke:#181818;stroke-width:0.3;" width="45.6" x="1485.6" y="770.2934"/><text fill="#000000" font-family="sans-serif" font-size="8.4" lengthAdjust="spacing" textLength="37.2" x="1489.8" y="782.6145">entryList:</text><text fill="#000000" font-family="sans-serif" font-size="8.4" lengthAdjust="spacing" textLength="34.8" x="1491" y="792.5074">EntryList</text><rect fill="#E3E3E3" height="28.1859" rx="1.5" ry="1.5" style="stroke:#181818;stroke-width:0.3;" width="31.8" x="1537.2" y="20.107"/><text fill="#000000" font-family="sans-serif" font-size="8.4" lengthAdjust="spacing" textLength="23.4" x="1541.4" y="32.4281">entry:</text><text fill="#000000" font-family="sans-serif" font-size="8.4" lengthAdjust="spacing" textLength="21" x="1542.6" y="42.3211">Entry</text><rect fill="#E3E3E3" height="28.1859" rx="1.5" ry="1.5" style="stroke:#181818;stroke-width:0.3;" width="31.8" x="1537.2" y="770.2934"/><text fill="#000000" font-family="sans-serif" font-size="8.4" lengthAdjust="spacing" textLength="23.4" x="1541.4" y="782.6145">entry:</text><text fill="#000000" font-family="sans-serif" font-size="8.4" lengthAdjust="spacing" textLength="21" x="1542.6" y="792.5074">Entry</text><rect fill="#E3E3E3" height="28.1859" rx="1.5" ry="1.5" style="stroke:#181818;stroke-width:0.3;" width="81.6" x="1575" y="770.2934"/><text fill="#000000" font-family="sans-serif" font-size="8.4" lengthAdjust="spacing" textLength="73.2" x="1579.2" y="782.6145">tasksCollaborator</text><text fill="#000000" font-family="sans-serif" font-size="8.4" lengthAdjust="spacing" textLength="50.4" x="1590.6" y="792.5074">:List&lt;Entry&gt;</text><rect fill="#FFFFFF" height="705.2004" style="stroke:#181818;stroke-width:0.6;" width="6" x="27.9" y="54.893"/><rect fill="#FFFFFF" height="692.4141" style="stroke:#181818;stroke-width:0.6;" width="6" x="209.7" y="67.6793"/><rect fill="#FFFFFF" height="651.2414" style="stroke:#181818;stroke-width:0.6;" width="6" x="458.7" y="91.2656"/><rect fill="#FFFFFF" height="17.5863" style="stroke:#181818;stroke-width:0.6;" width="6" x="612.9" y="153.1313"/><rect fill="#FFFFFF" height="17.5863" style="stroke:#181818;stroke-width:0.6;" width="6" x="612.9" y="354.3809"/><rect fill="#FFFFFF" height="17.5863" style="stroke:#181818;stroke-width:0.6;" width="6" x="680.7" y="188.3039"/><rect fill="#FFFFFF" height="17.5863" style="stroke:#181818;stroke-width:0.6;" width="6" x="680.7" y="389.5535"/><rect fill="#FFFFFF" height="300.1945" style="stroke:#181818;stroke-width:0.6;" width="6" x="783.3" y="424.7262"/><rect fill="#FFFFFF" height="24.1863" style="stroke:#181818;stroke-width:0.6;" width="6" x="786.3" y="531.6574"/><rect fill="#FFFFFF" height="17.5863" style="stroke:#181818;stroke-width:0.6;" width="6" x="1250.4" y="223.4766"/><rect fill="#FFFFFF" height="17.5863" style="stroke:#181818;stroke-width:0.6;" width="6" x="1362.9" y="258.6492"/><rect fill="#FFFFFF" height="17.5863" style="stroke:#181818;stroke-width:0.6;" width="6" x="1447.5" y="293.8219"/><rect fill="#FFFFFF" height="17.5863" style="stroke:#181818;stroke-width:0.6;" width="6" x="1447.5" y="627.3891"/><rect fill="#FFFFFF" height="17.5863" style="stroke:#181818;stroke-width:0.6;" width="6" x="1550.1" y="491.6848"/><rect fill="#FFFFFF" height="17.5863" style="stroke:#181818;stroke-width:0.6;" width="6" x="1550.1" y="577.6301"/><rect fill="#FFFFFF" height="17.5863" style="stroke:#181818;stroke-width:0.6;" width="6" x="1612.8" y="677.148"/><polygon fill="#181818" points="202.5,65.2793,208.5,67.6793,202.5,70.0793,204.9,67.6793" style="stroke:#181818;stroke-width:0.6;"/><line style="stroke:#181818;stroke-width:0.6;" x1="33.9" x2="206.1" y1="67.6793" y2="67.6793"/><text fill="#000000" font-family="sans-serif" font-size="7.8" font-weight="bold" lengthAdjust="spacing" textLength="5.4" x="38.1" y="64.834">1</text><text fill="#000000" font-family="sans-serif" font-size="7.8" lengthAdjust="spacing" textLength="156.6" x="45.9" y="64.834">Requests to consult tasks between a date</text><polygon fill="#181818" points="400.5,82.8656,406.5,85.2656,400.5,87.6656,402.9,85.2656" style="stroke:#181818;stroke-width:0.6;"/><line style="stroke:#181818;stroke-width:0.6;" x1="215.7" x2="404.1" y1="85.2656" y2="85.2656"/><text fill="#000000" font-family="sans-serif" font-size="7.8" font-weight="bold" lengthAdjust="spacing" textLength="5.4" x="219.9" y="82.4203">2</text><text fill="#000000" font-family="sans-serif" font-size="7.8" lengthAdjust="spacing" textLength="22.8" x="227.7" y="82.4203">create</text><rect fill="#E3E3E3" height="18.293" rx="1.5" ry="1.5" style="stroke:#181818;stroke-width:0.3;" width="108" x="407.7" y="72.4793"/><text fill="#000000" font-family="sans-serif" font-size="8.4" lengthAdjust="spacing" textLength="99.6" x="411.9" y="84.8004">:ConsultTasksController</text><polygon fill="#181818" points="451.5,107.7586,457.5,110.1586,451.5,112.5586,453.9,110.1586" style="stroke:#181818;stroke-width:0.6;"/><line style="stroke:#181818;stroke-width:0.6;" x1="215.7" x2="455.1" y1="110.1586" y2="110.1586"/><text fill="#000000" font-family="sans-serif" font-size="7.8" font-weight="bold" lengthAdjust="spacing" textLength="5.4" x="219.9" y="107.3133">3</text><text fill="#000000" font-family="sans-serif" font-size="7.8" lengthAdjust="spacing" textLength="220.8" x="227.7" y="107.3133">getTasksForCollaboratorBetweenDates(startDate, endDate)</text><line style="stroke:#181818;stroke-width:0.6;" x1="464.7" x2="489.9" y1="127.7449" y2="127.7449"/><line style="stroke:#181818;stroke-width:0.6;" x1="489.9" x2="489.9" y1="127.7449" y2="135.5449"/><line style="stroke:#181818;stroke-width:0.6;" x1="465.3" x2="489.9" y1="135.5449" y2="135.5449"/><polygon fill="#181818" points="471.3,133.1449,465.3,135.5449,471.3,137.9449,468.9,135.5449" style="stroke:#181818;stroke-width:0.6;"/><text fill="#000000" font-family="sans-serif" font-size="7.8" font-weight="bold" lengthAdjust="spacing" textLength="5.4" x="468.9" y="124.8996">4</text><text fill="#000000" font-family="sans-serif" font-size="7.8" lengthAdjust="spacing" textLength="132" x="476.7" y="124.8996">getEmailCollaboratorFromSession()</text><polygon fill="#181818" points="605.7,150.7313,611.7,153.1313,605.7,155.5313,608.1,153.1313" style="stroke:#181818;stroke-width:0.6;"/><line style="stroke:#181818;stroke-width:0.6;" x1="464.7" x2="609.3" y1="153.1313" y2="153.1313"/><text fill="#000000" font-family="sans-serif" font-size="7.8" font-weight="bold" lengthAdjust="spacing" textLength="5.4" x="468.9" y="150.2859">5</text><text fill="#000000" font-family="sans-serif" font-size="7.8" lengthAdjust="spacing" textLength="48.6" x="476.7" y="150.2859">getInstance()</text><polygon fill="#181818" points="471.3,168.3176,465.3,170.7176,471.3,173.1176,468.9,170.7176" style="stroke:#181818;stroke-width:0.6;"/><line style="stroke:#181818;stroke-width:0.6;stroke-dasharray:2.0,2.0;" x1="467.7" x2="615.3" y1="170.7176" y2="170.7176"/><text fill="#000000" font-family="sans-serif" font-size="7.8" font-weight="bold" lengthAdjust="spacing" textLength="5.4" x="474.9" y="167.8723">6</text><text fill="#000000" font-family="sans-serif" font-size="7.8" lengthAdjust="spacing" textLength="45" x="482.7" y="167.8723">repositories</text><polygon fill="#181818" points="673.5,185.9039,679.5,188.3039,673.5,190.7039,675.9,188.3039" style="stroke:#181818;stroke-width:0.6;"/><line style="stroke:#181818;stroke-width:0.6;" x1="464.7" x2="677.1" y1="188.3039" y2="188.3039"/><text fill="#000000" font-family="sans-serif" font-size="7.8" font-weight="bold" lengthAdjust="spacing" textLength="5.4" x="468.9" y="185.4586">7</text><text fill="#000000" font-family="sans-serif" font-size="7.8" lengthAdjust="spacing" textLength="112.8" x="476.7" y="185.4586">getAuthenticationRepository()</text><polygon fill="#181818" points="471.3,203.4902,465.3,205.8902,471.3,208.2902,468.9,205.8902" style="stroke:#181818;stroke-width:0.6;"/><line style="stroke:#181818;stroke-width:0.6;stroke-dasharray:2.0,2.0;" x1="467.7" x2="683.1" y1="205.8902" y2="205.8902"/><text fill="#000000" font-family="sans-serif" font-size="7.8" font-weight="bold" lengthAdjust="spacing" textLength="5.4" x="474.9" y="203.0449">8</text><text fill="#000000" font-family="sans-serif" font-size="7.8" lengthAdjust="spacing" textLength="94.8" x="482.7" y="203.0449">authenticationRepository</text><polygon fill="#181818" points="1243.2,221.0766,1249.2,223.4766,1243.2,225.8766,1245.6,223.4766" style="stroke:#181818;stroke-width:0.6;"/><line style="stroke:#181818;stroke-width:0.6;" x1="464.7" x2="1246.8" y1="223.4766" y2="223.4766"/><text fill="#000000" font-family="sans-serif" font-size="7.8" font-weight="bold" lengthAdjust="spacing" textLength="5.4" x="468.9" y="220.6313">9</text><text fill="#000000" font-family="sans-serif" font-size="7.8" lengthAdjust="spacing" textLength="90.6" x="476.7" y="220.6313">getCurrentUserSession()</text><polygon fill="#181818" points="471.3,238.6629,465.3,241.0629,471.3,243.4629,468.9,241.0629" style="stroke:#181818;stroke-width:0.6;"/><line style="stroke:#181818;stroke-width:0.6;stroke-dasharray:2.0,2.0;" x1="467.7" x2="1252.8" y1="241.0629" y2="241.0629"/><text fill="#000000" font-family="sans-serif" font-size="7.8" font-weight="bold" lengthAdjust="spacing" textLength="10.8" x="474.9" y="238.2176">10</text><text fill="#000000" font-family="sans-serif" font-size="7.8" lengthAdjust="spacing" textLength="80.4" x="488.1" y="238.2176">authenticationFacade</text><polygon fill="#181818" points="1355.7,256.2492,1361.7,258.6492,1355.7,261.0492,1358.1,258.6492" style="stroke:#181818;stroke-width:0.6;"/><line style="stroke:#181818;stroke-width:0.6;" x1="464.7" x2="1359.3" y1="258.6492" y2="258.6492"/><text fill="#000000" font-family="sans-serif" font-size="7.8" font-weight="bold" lengthAdjust="spacing" textLength="10.8" x="468.9" y="255.8039">11</text><text fill="#000000" font-family="sans-serif" font-size="7.8" lengthAdjust="spacing" textLength="90.6" x="482.1" y="255.8039">getCurrentUserSession()</text><polygon fill="#181818" points="471.3,273.8355,465.3,276.2355,471.3,278.6355,468.9,276.2355" style="stroke:#181818;stroke-width:0.6;"/><line style="stroke:#181818;stroke-width:0.6;stroke-dasharray:2.0,2.0;" x1="467.7" x2="1365.3" y1="276.2355" y2="276.2355"/><text fill="#000000" font-family="sans-serif" font-size="7.8" font-weight="bold" lengthAdjust="spacing" textLength="10.8" x="474.9" y="273.3902">12</text><text fill="#000000" font-family="sans-serif" font-size="7.8" lengthAdjust="spacing" textLength="45" x="488.1" y="273.3902">userSession</text><polygon fill="#181818" points="1440.3,291.4219,1446.3,293.8219,1440.3,296.2219,1442.7,293.8219" style="stroke:#181818;stroke-width:0.6;"/><line style="stroke:#181818;stroke-width:0.6;" x1="464.7" x2="1443.9" y1="293.8219" y2="293.8219"/><text fill="#000000" font-family="sans-serif" font-size="7.8" font-weight="bold" lengthAdjust="spacing" textLength="10.8" x="468.9" y="290.9766">13</text><text fill="#000000" font-family="sans-serif" font-size="7.8" lengthAdjust="spacing" textLength="40.8" x="482.1" y="290.9766">getUserId()</text><polygon fill="#181818" points="471.3,309.0082,465.3,311.4082,471.3,313.8082,468.9,311.4082" style="stroke:#181818;stroke-width:0.6;"/><line style="stroke:#181818;stroke-width:0.6;stroke-dasharray:2.0,2.0;" x1="467.7" x2="1449.9" y1="311.4082" y2="311.4082"/><text fill="#000000" font-family="sans-serif" font-size="7.8" font-weight="bold" lengthAdjust="spacing" textLength="10.8" x="474.9" y="308.5629">14</text><text fill="#000000" font-family="sans-serif" font-size="7.8" lengthAdjust="spacing" textLength="20.4" x="488.1" y="308.5629">email</text><line style="stroke:#181818;stroke-width:0.6;stroke-dasharray:2.0,2.0;" x1="464.7" x2="489.9" y1="328.9945" y2="328.9945"/><line style="stroke:#181818;stroke-width:0.6;stroke-dasharray:2.0,2.0;" x1="489.9" x2="489.9" y1="328.9945" y2="336.7945"/><line style="stroke:#181818;stroke-width:0.6;stroke-dasharray:2.0,2.0;" x1="465.3" x2="489.9" y1="336.7945" y2="336.7945"/><polygon fill="#181818" points="471.3,334.3945,465.3,336.7945,471.3,339.1945,468.9,336.7945" style="stroke:#181818;stroke-width:0.6;"/><text fill="#000000" font-family="sans-serif" font-size="7.8" font-weight="bold" lengthAdjust="spacing" textLength="10.8" x="468.9" y="326.1492">15</text><text fill="#000000" font-family="sans-serif" font-size="7.8" lengthAdjust="spacing" textLength="20.4" x="482.1" y="326.1492">email</text><polygon fill="#181818" points="605.7,351.9809,611.7,354.3809,605.7,356.7809,608.1,354.3809" style="stroke:#181818;stroke-width:0.6;"/><line style="stroke:#181818;stroke-width:0.6;" x1="464.7" x2="609.3" y1="354.3809" y2="354.3809"/><text fill="#000000" font-family="sans-serif" font-size="7.8" font-weight="bold" lengthAdjust="spacing" textLength="10.8" x="468.9" y="351.5355">16</text><text fill="#000000" font-family="sans-serif" font-size="7.8" lengthAdjust="spacing" textLength="48.6" x="482.1" y="351.5355">getInstance()</text><polygon fill="#181818" points="471.3,369.5672,465.3,371.9672,471.3,374.3672,468.9,371.9672" style="stroke:#181818;stroke-width:0.6;"/><line style="stroke:#181818;stroke-width:0.6;stroke-dasharray:2.0,2.0;" x1="467.7" x2="615.3" y1="371.9672" y2="371.9672"/><text fill="#000000" font-family="sans-serif" font-size="7.8" font-weight="bold" lengthAdjust="spacing" textLength="10.8" x="474.9" y="369.1219">17</text><text fill="#000000" font-family="sans-serif" font-size="7.8" lengthAdjust="spacing" textLength="45" x="488.1" y="369.1219">repositories</text><polygon fill="#181818" points="673.5,387.1535,679.5,389.5535,673.5,391.9535,675.9,389.5535" style="stroke:#181818;stroke-width:0.6;"/><line style="stroke:#181818;stroke-width:0.6;" x1="464.7" x2="677.1" y1="389.5535" y2="389.5535"/><text fill="#000000" font-family="sans-serif" font-size="7.8" font-weight="bold" lengthAdjust="spacing" textLength="10.8" x="468.9" y="386.7082">18</text><text fill="#000000" font-family="sans-serif" font-size="7.8" lengthAdjust="spacing" textLength="45" x="482.1" y="386.7082">getAgenda()</text><polygon fill="#181818" points="471.3,404.7398,465.3,407.1398,471.3,409.5398,468.9,407.1398" style="stroke:#181818;stroke-width:0.6;"/><line style="stroke:#181818;stroke-width:0.6;stroke-dasharray:2.0,2.0;" x1="467.7" x2="683.1" y1="407.1398" y2="407.1398"/><text fill="#000000" font-family="sans-serif" font-size="7.8" font-weight="bold" lengthAdjust="spacing" textLength="10.8" x="474.9" y="404.2945">19</text><text fill="#000000" font-family="sans-serif" font-size="7.8" lengthAdjust="spacing" textLength="27" x="488.1" y="404.2945">agenda</text><polygon fill="#181818" points="776.1,422.3262,782.1,424.7262,776.1,427.1262,778.5,424.7262" style="stroke:#181818;stroke-width:0.6;"/><line style="stroke:#181818;stroke-width:0.6;" x1="464.7" x2="779.7" y1="424.7262" y2="424.7262"/><text fill="#000000" font-family="sans-serif" font-size="7.8" font-weight="bold" lengthAdjust="spacing" textLength="10.8" x="468.9" y="421.8809">20</text><text fill="#000000" font-family="sans-serif" font-size="7.8" lengthAdjust="spacing" textLength="294" x="482.1" y="421.8809">getTasksForCollaboratorBetweenDates (collaboratorEmail, startDate, endDate)</text><polygon fill="#181818" points="1567.8,439.9125,1573.8,442.3125,1567.8,444.7125,1570.2,442.3125" style="stroke:#181818;stroke-width:0.6;"/><line style="stroke:#181818;stroke-width:0.6;" x1="789.3" x2="1571.4" y1="442.3125" y2="442.3125"/><text fill="#000000" font-family="sans-serif" font-size="7.8" font-weight="bold" lengthAdjust="spacing" textLength="10.8" x="793.5" y="439.4672">21</text><text fill="#000000" font-family="sans-serif" font-size="7.8" lengthAdjust="spacing" textLength="22.8" x="806.7" y="439.4672">create</text><rect fill="#E3E3E3" height="28.1859" rx="1.5" ry="1.5" style="stroke:#181818;stroke-width:0.3;" width="81.6" x="1575" y="429.5262"/><text fill="#000000" font-family="sans-serif" font-size="8.4" lengthAdjust="spacing" textLength="73.2" x="1579.2" y="441.8473">tasksCollaborator</text><text fill="#000000" font-family="sans-serif" font-size="8.4" lengthAdjust="spacing" textLength="50.4" x="1590.6" y="451.7402">:List&lt;Entry&gt;</text><path d="M747.6,468.5121 L792,468.5121 L792,472.8984 L786,478.8984 L747.6,478.8984 L747.6,468.5121 " fill="#EEEEEE" style="stroke:#000000;stroke-width:0.8999999999999999;"/><rect fill="none" height="239.4223" style="stroke:#000000;stroke-width:0.8999999999999999;" width="927" x="747.6" y="468.5121"/><text fill="#000000" font-family="sans-serif" font-size="7.8" font-weight="bold" lengthAdjust="spacing" textLength="17.4" x="756.6" y="476.6531">loop</text><text fill="#000000" font-family="sans-serif" font-size="6.6" font-weight="bold" lengthAdjust="spacing" textLength="87" x="801" y="476.093">[For each entry in agenda]</text><polygon fill="#181818" points="1542.9,489.2848,1548.9,491.6848,1542.9,494.0848,1545.3,491.6848" style="stroke:#181818;stroke-width:0.6;"/><line style="stroke:#181818;stroke-width:0.6;" x1="789.3" x2="1546.5" y1="491.6848" y2="491.6848"/><text fill="#000000" font-family="sans-serif" font-size="7.8" font-weight="bold" lengthAdjust="spacing" textLength="10.8" x="793.5" y="488.8395">22</text><text fill="#000000" font-family="sans-serif" font-size="7.8" lengthAdjust="spacing" textLength="63.6" x="806.7" y="488.8395">getStartingDate()</text><polygon fill="#181818" points="795.9,506.8711,789.9,509.2711,795.9,511.6711,793.5,509.2711" style="stroke:#181818;stroke-width:0.6;"/><line style="stroke:#181818;stroke-width:0.6;stroke-dasharray:2.0,2.0;" x1="792.3" x2="1552.5" y1="509.2711" y2="509.2711"/><text fill="#000000" font-family="sans-serif" font-size="7.8" font-weight="bold" lengthAdjust="spacing" textLength="10.8" x="799.5" y="506.4258">23</text><text fill="#000000" font-family="sans-serif" font-size="7.8" lengthAdjust="spacing" textLength="46.8" x="812.7" y="506.4258">startingDate</text><line style="stroke:#181818;stroke-width:0.6;" x1="789.3" x2="817.5" y1="523.8574" y2="523.8574"/><line style="stroke:#181818;stroke-width:0.6;" x1="817.5" x2="817.5" y1="523.8574" y2="531.6574"/><line style="stroke:#181818;stroke-width:0.6;" x1="792.9" x2="817.5" y1="531.6574" y2="531.6574"/><polygon fill="#181818" points="798.9,529.2574,792.9,531.6574,798.9,534.0574,796.5,531.6574" style="stroke:#181818;stroke-width:0.6;"/><text fill="#000000" font-family="sans-serif" font-size="7.8" font-weight="bold" lengthAdjust="spacing" textLength="10.8" x="796.5" y="521.0121">24</text><text fill="#000000" font-family="sans-serif" font-size="7.8" lengthAdjust="spacing" textLength="213.6" x="809.7" y="521.0121">checkDateWithinRange(startingDate, startDate, endDate)</text><line style="stroke:#181818;stroke-width:0.6;stroke-dasharray:2.0,2.0;" x1="792.3" x2="817.5" y1="555.2438" y2="555.2438"/><line style="stroke:#181818;stroke-width:0.6;stroke-dasharray:2.0,2.0;" x1="817.5" x2="817.5" y1="555.2438" y2="563.0437"/><line style="stroke:#181818;stroke-width:0.6;stroke-dasharray:2.0,2.0;" x1="789.3" x2="817.5" y1="563.0437" y2="563.0437"/><polygon fill="#181818" points="795.3,560.6438,789.3,563.0437,795.3,565.4438,792.9,563.0437" style="stroke:#181818;stroke-width:0.6;"/><text fill="#000000" font-family="sans-serif" font-size="7.8" font-weight="bold" lengthAdjust="spacing" textLength="10.8" x="796.5" y="552.3984">25</text><text fill="#000000" font-family="sans-serif" font-size="7.8" lengthAdjust="spacing" textLength="2.4" x="809.7" y="552.3984">&#160;</text><polygon fill="#181818" points="1542.9,575.2301,1548.9,577.6301,1542.9,580.0301,1545.3,577.6301" style="stroke:#181818;stroke-width:0.6;"/><line style="stroke:#181818;stroke-width:0.6;" x1="789.3" x2="1546.5" y1="577.6301" y2="577.6301"/><text fill="#000000" font-family="sans-serif" font-size="7.8" font-weight="bold" lengthAdjust="spacing" textLength="10.8" x="793.5" y="574.7848">26</text><text fill="#000000" font-family="sans-serif" font-size="7.8" lengthAdjust="spacing" textLength="63" x="806.7" y="574.7848">getTeamAssign()</text><polygon fill="#181818" points="795.9,592.8164,789.9,595.2164,795.9,597.6164,793.5,595.2164" style="stroke:#181818;stroke-width:0.6;"/><line style="stroke:#181818;stroke-width:0.6;stroke-dasharray:2.0,2.0;" x1="792.3" x2="1552.5" y1="595.2164" y2="595.2164"/><text fill="#000000" font-family="sans-serif" font-size="7.8" font-weight="bold" lengthAdjust="spacing" textLength="10.8" x="799.5" y="592.3711">27</text><text fill="#000000" font-family="sans-serif" font-size="7.8" lengthAdjust="spacing" textLength="44.4" x="812.7" y="592.3711">teamAssign</text><path d="M753.6,604.2164 L798,604.2164 L798,608.6027 L792,614.6027 L753.6,614.6027 L753.6,604.2164 " fill="#EEEEEE" style="stroke:#000000;stroke-width:0.8999999999999999;"/><rect fill="none" height="99.518" style="stroke:#000000;stroke-width:0.8999999999999999;" width="915" x="753.6" y="604.2164"/><text fill="#000000" font-family="sans-serif" font-size="7.8" font-weight="bold" lengthAdjust="spacing" textLength="17.4" x="762.6" y="612.3574">loop</text><text fill="#000000" font-family="sans-serif" font-size="6.6" font-weight="bold" lengthAdjust="spacing" textLength="126.6" x="807" y="611.7973">[For each collaborator in teamAssign]</text><polygon fill="#181818" points="1440.3,624.9891,1446.3,627.3891,1440.3,629.7891,1442.7,627.3891" style="stroke:#181818;stroke-width:0.6;"/><line style="stroke:#181818;stroke-width:0.6;" x1="789.3" x2="1443.9" y1="627.3891" y2="627.3891"/><text fill="#000000" font-family="sans-serif" font-size="7.8" font-weight="bold" lengthAdjust="spacing" textLength="10.8" x="793.5" y="624.5437">28</text><text fill="#000000" font-family="sans-serif" font-size="7.8" lengthAdjust="spacing" textLength="37.2" x="806.7" y="624.5437">getEmail()</text><polygon fill="#181818" points="795.9,642.5754,789.9,644.9754,795.9,647.3754,793.5,644.9754" style="stroke:#181818;stroke-width:0.6;"/><line style="stroke:#181818;stroke-width:0.6;stroke-dasharray:2.0,2.0;" x1="792.3" x2="1449.9" y1="644.9754" y2="644.9754"/><text fill="#000000" font-family="sans-serif" font-size="7.8" font-weight="bold" lengthAdjust="spacing" textLength="10.8" x="799.5" y="642.1301">29</text><text fill="#000000" font-family="sans-serif" font-size="7.8" lengthAdjust="spacing" textLength="20.4" x="812.7" y="642.1301">email</text><path d="M759.6,653.9754 L796.8,653.9754 L796.8,658.3617 L790.8,664.3617 L759.6,664.3617 L759.6,653.9754 " fill="#EEEEEE" style="stroke:#000000;stroke-width:0.8999999999999999;"/><rect fill="none" height="45.559" style="stroke:#000000;stroke-width:0.8999999999999999;" width="903" x="759.6" y="653.9754"/><text fill="#000000" font-family="sans-serif" font-size="7.8" font-weight="bold" lengthAdjust="spacing" textLength="10.2" x="768.6" y="662.1164">alt</text><text fill="#000000" font-family="sans-serif" font-size="6.6" font-weight="bold" lengthAdjust="spacing" textLength="99" x="805.8" y="661.5563">[email == collaboratorEmail]</text><polygon fill="#181818" points="1605.6,674.748,1611.6,677.148,1605.6,679.548,1608,677.148" style="stroke:#181818;stroke-width:0.6;"/><line style="stroke:#181818;stroke-width:0.6;" x1="789.3" x2="1609.2" y1="677.148" y2="677.148"/><text fill="#000000" font-family="sans-serif" font-size="7.8" font-weight="bold" lengthAdjust="spacing" textLength="10.8" x="793.5" y="674.3027">30</text><text fill="#000000" font-family="sans-serif" font-size="7.8" lengthAdjust="spacing" textLength="37.8" x="806.7" y="674.3027">add(entry)</text><polygon fill="#181818" points="795.9,692.3344,789.9,694.7344,795.9,697.1344,793.5,694.7344" style="stroke:#181818;stroke-width:0.6;"/><line style="stroke:#181818;stroke-width:0.6;stroke-dasharray:2.0,2.0;" x1="792.3" x2="1615.2" y1="694.7344" y2="694.7344"/><text fill="#000000" font-family="sans-serif" font-size="7.8" font-weight="bold" lengthAdjust="spacing" textLength="10.8" x="799.5" y="691.8891">31</text><text fill="#000000" font-family="sans-serif" font-size="7.8" lengthAdjust="spacing" textLength="2.4" x="812.7" y="691.8891">&#160;</text><polygon fill="#181818" points="471.3,722.5207,465.3,724.9207,471.3,727.3207,468.9,724.9207" style="stroke:#181818;stroke-width:0.6;"/><line style="stroke:#181818;stroke-width:0.6;stroke-dasharray:2.0,2.0;" x1="467.7" x2="785.7" y1="724.9207" y2="724.9207"/><text fill="#000000" font-family="sans-serif" font-size="7.8" font-weight="bold" lengthAdjust="spacing" textLength="10.8" x="474.9" y="722.0754">32</text><text fill="#000000" font-family="sans-serif" font-size="7.8" lengthAdjust="spacing" textLength="67.2" x="488.1" y="722.0754">tasksCollaborator</text><polygon fill="#181818" points="222.3,740.107,216.3,742.507,222.3,744.907,219.9,742.507" style="stroke:#181818;stroke-width:0.6;"/><line style="stroke:#181818;stroke-width:0.6;stroke-dasharray:2.0,2.0;" x1="218.7" x2="461.1" y1="742.507" y2="742.507"/><text fill="#000000" font-family="sans-serif" font-size="7.8" font-weight="bold" lengthAdjust="spacing" textLength="10.8" x="225.9" y="739.6617">33</text><text fill="#000000" font-family="sans-serif" font-size="7.8" lengthAdjust="spacing" textLength="67.2" x="239.1" y="739.6617">tasksCollaborator</text><polygon fill="#181818" points="37.5,757.6934,31.5,760.0934,37.5,762.4934,35.1,760.0934" style="stroke:#181818;stroke-width:0.6;"/><line style="stroke:#181818;stroke-width:0.6;stroke-dasharray:2.0,2.0;" x1="33.9" x2="212.1" y1="760.0934" y2="760.0934"/><text fill="#000000" font-family="sans-serif" font-size="7.8" font-weight="bold" lengthAdjust="spacing" textLength="10.8" x="41.1" y="757.248">34</text><text fill="#000000" font-family="sans-serif" font-size="7.8" lengthAdjust="spacing" textLength="71.4" x="54.3" y="757.248">Shows list of tasks</text><!--SRC=[hLPHRzem47xFhpZnCZQrVm2jbIYa4n8hLK8rJUgBILmI4MmME-lwxtUsas0dED1klE3OttttdNrtjjZbx41AieSzPpp9Ihwd8CkA1g9TEP1aHxOqbcy5XP8cah1jOGD4HbB-chCjl912q20WbUIiscze6GIViZobyCAvtF0_0KaaBs4quqL1Dhma-3K28c2sMYwdTwjekbv50RBAFCaFX4aOJMQSYQgGQo9succXqK-B0GoEPOdyj6PUHyiEEg87Bd9qdLEXCL7uw49A2_7CJXh4hWLk44l9v9bDzK2Zfj_2X_cqupn4TM_VoU5GwwFwU_hu67O2rmjpoT5_M0-F1lFrwWHwcGjfBDJeQyDmUxJJYAuj7bU6gtb2PCvP6-oRYiQpf1bTko7EUvAGbDPyvgDbC9-kTILeYUWd_8kf4CYWuMhQ4pQYmsRiXdl2e05hOFYmZdu6AZFptqHIDnK3-mkkRp7rO08H_LLH8GL83eb9FP0gzs13vIkb30Yao1K0_bfYp5ezWHH8fFBoonSaIqhQG1suJjoE0SAtrAJvFI_jAhepZkTeASP2OiXgU8NRaAh1vw1re7wQg-RKbE6Uv8NDTu-TeDxwiSSOYq3RBXZwOmb5d0rh0r7LvQpW15ottkrQSs0fzLDO6c8jmfUe0wBYdghOakKhYW69yMcDBfDMEwlA4gUi_FRfxDIO2tBMlDhh0lFe7d9WHr2NyFlLr-vxoisyfRewyWs9FSNN2DLzGqbKsXQfJvRk8ywIch6aK5KEFX5zQ-E-OnqSCLQsWgzaJkVw1QNYAnExH8nNSpLvVCQEKwSIj5bmDkSRX-RQkwnLmJYnLdGNke9JxQidkRvSdNDGlzexwXX9ynmuyZSNesx-joEx_VPu2iuFWCe1mytCRG8vQpPZmAs-JqpqiGe4tqKgX4ukEh7KLr1ttJ1TsrigBCOUtZeP3-DHPSkOP3JPAReVkSno5k7ZZevjDyFdyUvpQNqFoJz_kDOkhodPJx5jRDd_sMFPydrWXzsqiPDRPOz5FH2RRaR7QtaegdulShfP6rE_ePrjQjeFFcoqATpSGAzI_wduK1H9qx4kh840p_BqHPntVLaIVi0rbiV9IPqMGolkcbKhzQkl9oMui7BQgqa_NFqq5eNxy5GQx3Vm1EAClmeeS2E0lnZAe4EXdheseqNm5m00]--></g></svg>