<?xml version="1.0" encoding="us-ascii" standalone="no"?><svg xmlns="http://www.w3.org/2000/svg" xmlns:xlink="http://www.w3.org/1999/xlink" contentStyleType="text/css" height="893px" preserveAspectRatio="none" style="width:661px;height:893px;background:#FFFFFF;" version="1.1" viewBox="0 0 661 893" width="661px" zoomAndPan="magnify"><defs/><g><text fill="#000000" font-family="sans-serif" font-size="14" font-weight="bold" lengthAdjust="spacing" textLength="127" x="260" y="25.1074">Use Case Diagram</text><!--cluster actors--><g id="cluster_actors"><rect fill="none" height="701" rx="2.5" ry="2.5" style="stroke:#FFFF00;stroke-width:1.0;" width="124" x="7" y="46.6211"/><text fill="#000000" font-family="sans-serif" font-size="14" font-weight="bold" lengthAdjust="spacing" textLength="99" x="19.5" y="63.7285">System Actors</text></g><!--cluster usecases--><g id="cluster_usecases"><rect fill="none" height="784" rx="2.5" ry="2.5" style="stroke:#FFFF00;stroke-width:1.0;" width="496" x="159" y="103.6211"/><text fill="#000000" font-family="sans-serif" font-size="14" font-weight="bold" lengthAdjust="spacing" textLength="74" x="370" y="120.7285">Use Cases</text></g><!--entity Collaborator--><g id="elem_Collaborator"><ellipse cx="69" cy="92.6211" fill="#F1F1F1" rx="8" ry="8" style="stroke:#181818;stroke-width:0.5;"/><path d="M69,100.6211 L69,127.6211 M56,108.6211 L82,108.6211 M69,127.6211 L56,142.6211 M69,127.6211 L82,142.6211 " fill="none" style="stroke:#181818;stroke-width:0.5;"/><text fill="#000000" font-family="sans-serif" font-size="14" lengthAdjust="spacing" textLength="78" x="30" y="159.2285">Collaborator</text></g><!--entity GSM--><g id="elem_GSM"><ellipse cx="69" cy="207.1211" fill="#F1F1F1" rx="8" ry="8" style="stroke:#181818;stroke-width:0.5;"/><path d="M69,215.1211 L69,242.1211 M56,223.1211 L82,223.1211 M69,242.1211 L56,257.1211 M69,242.1211 L82,257.1211 " fill="none" style="stroke:#181818;stroke-width:0.5;"/><text fill="#000000" font-family="sans-serif" font-size="14" lengthAdjust="spacing" textLength="40" x="41" y="273.7285">Green</text><text fill="#000000" font-family="sans-serif" font-size="14" lengthAdjust="spacing" textLength="47" x="41" y="292.3496">Spaces</text><text fill="#000000" font-family="sans-serif" font-size="14" lengthAdjust="spacing" textLength="56" x="41" y="310.9707">Manager</text></g><!--entity GSU--><g id="elem_GSU"><ellipse cx="69" cy="358.1211" fill="#F1F1F1" rx="8" ry="8" style="stroke:#181818;stroke-width:0.5;"/><path d="M69,366.1211 L69,393.1211 M56,374.1211 L82,374.1211 M69,393.1211 L56,408.1211 M69,393.1211 L82,408.1211 " fill="none" style="stroke:#181818;stroke-width:0.5;"/><text fill="#000000" font-family="sans-serif" font-size="14" lengthAdjust="spacing" textLength="40" x="45.5" y="424.7285">Green</text><text fill="#000000" font-family="sans-serif" font-size="14" lengthAdjust="spacing" textLength="47" x="45.5" y="443.3496">Spaces</text><text fill="#000000" font-family="sans-serif" font-size="14" lengthAdjust="spacing" textLength="29" x="45.5" y="461.9707">User</text></g><!--entity HRM--><g id="elem_HRM"><ellipse cx="69" cy="509.1211" fill="#F1F1F1" rx="8" ry="8" style="stroke:#181818;stroke-width:0.5;"/><path d="M69,517.1211 L69,544.1211 M56,525.1211 L82,525.1211 M69,544.1211 L56,559.1211 M69,544.1211 L82,559.1211 " fill="none" style="stroke:#181818;stroke-width:0.5;"/><text fill="#000000" font-family="sans-serif" font-size="14" lengthAdjust="spacing" textLength="44" x="35" y="575.7285">Human</text><text fill="#000000" font-family="sans-serif" font-size="14" lengthAdjust="spacing" textLength="68" x="35" y="594.3496">Resources</text><text fill="#000000" font-family="sans-serif" font-size="14" lengthAdjust="spacing" textLength="56" x="35" y="612.9707">Manager</text></g><!--entity FM--><g id="elem_FM"><ellipse cx="69" cy="660.6211" fill="#F1F1F1" rx="8" ry="8" style="stroke:#181818;stroke-width:0.5;"/><path d="M69,668.6211 L69,695.6211 M56,676.6211 L82,676.6211 M69,695.6211 L56,710.6211 M69,695.6211 L82,710.6211 " fill="none" style="stroke:#181818;stroke-width:0.5;"/><text fill="#000000" font-family="sans-serif" font-size="14" lengthAdjust="spacing" textLength="92" x="23" y="727.2285">Fleet Manager</text></g><g id="elem_UC01"><ellipse cx="407.1133" cy="171.6437" fill="#F1F1F1" rx="140.6133" ry="30.5227" style="stroke:#181818;stroke-width:0.5;"/><text fill="#000000" font-family="sans-serif" font-size="14" lengthAdjust="spacing" textLength="247" x="283.6133" y="175.4406">UC01 - Register Skills of a Collaborator</text></g><g id="elem_UC02"><ellipse cx="406.9801" cy="466.4171" fill="#F1F1F1" rx="91.9801" ry="20.796" style="stroke:#181818;stroke-width:0.5;"/><text fill="#000000" font-family="sans-serif" font-size="14" lengthAdjust="spacing" textLength="139" x="334.4801" y="471.2208">UC02 - Register a Job</text></g><g id="elem_UC03"><ellipse cx="406.7863" cy="286.3783" fill="#F1F1F1" rx="231.7863" ry="48.7573" style="stroke:#181818;stroke-width:0.5;"/><text fill="#000000" font-family="sans-serif" font-size="14" lengthAdjust="spacing" textLength="436" x="188.7863" y="290.1752">UC03 - Register collaborator with job and fundamental characteristics</text></g><g id="elem_UC04"><ellipse cx="406.7688" cy="390.3749" fill="#F1F1F1" rx="86.7688" ry="19.7538" style="stroke:#181818;stroke-width:0.5;"/><text fill="#000000" font-family="sans-serif" font-size="14" lengthAdjust="spacing" textLength="126" x="340.7688" y="395.1786">UC04 - Assign Skills</text></g><g id="elem_UC05"><ellipse cx="407.2154" cy="558.5642" fill="#F1F1F1" rx="167.7154" ry="35.9431" style="stroke:#181818;stroke-width:0.5;"/><text fill="#000000" font-family="sans-serif" font-size="14" lengthAdjust="spacing" textLength="300" x="255.2154" y="562.361">UC05 - Generate a team proposal automatically</text></g><g id="elem_UC06"><ellipse cx="407.244" cy="756.7699" fill="#F1F1F1" rx="101.244" ry="22.6488" style="stroke:#181818;stroke-width:0.5;"/><text fill="#000000" font-family="sans-serif" font-size="14" lengthAdjust="spacing" textLength="161" x="325.9994" y="760.8434">UC06 - Register a vehicle</text></g><g id="elem_UC07"><ellipse cx="406.7817" cy="842.6774" fill="#F1F1F1" rx="130.7817" ry="28.5563" style="stroke:#181818;stroke-width:0.5;"/><text fill="#000000" font-family="sans-serif" font-size="14" lengthAdjust="spacing" textLength="226" x="293.7817" y="846.4743">UC07 - Register Vehicle's Check-up</text></g><g id="elem_UC08"><ellipse cx="407.0132" cy="664.7237" fill="#F1F1F1" rx="161.0132" ry="34.6026" style="stroke:#181818;stroke-width:0.5;"/><text fill="#000000" font-family="sans-serif" font-size="14" lengthAdjust="spacing" textLength="290" x="262.0132" y="668.5206">UC08 - List the vehicles needing the check-up</text></g><!--link HRM to UC01--><g id="link_HRM_UC01"><path d="M103.35,531.4011 C116.97,518.2211 131.32,501.2411 139,482.6211 C150.16,455.5811 131.82,241.7111 151,219.6211 C180.32,185.8611 219.2758,171.8111 263.2858,166.3411 " fill="none" id="HRM-to-UC01" style="stroke:#181818;stroke-width:1.0;"/><polygon fill="#181818" points="269.24,165.6011,259.8154,162.7417,264.2782,166.2178,260.8021,170.6806,269.24,165.6011" style="stroke:#181818;stroke-width:1.0;"/></g><!--link UC01 to Collaborator--><g id="link_UC01_Collaborator"><path d="M289.02,154.9111 C225.82,145.8811 157.9298,136.1792 114.1598,129.9292 " fill="none" id="UC01-to-Collaborator" style="stroke:#181818;stroke-width:1.0;"/><polygon fill="#181818" points="108.22,129.0811,116.5642,134.3132,113.1698,129.7879,117.6951,126.3935,108.22,129.0811" style="stroke:#181818;stroke-width:1.0;"/></g><!--link HRM to UC02--><g id="link_HRM_UC02"><path d="M103.23,531.6511 C117.21,521.6311 134.13,511.1311 151,504.6211 C203.62,484.3311 260.2435,475.3418 310.2435,470.9018 " fill="none" id="HRM-to-UC02" style="stroke:#181818;stroke-width:1.0;"/><polygon fill="#181818" points="316.22,470.3711,306.9015,467.1828,311.2396,470.8134,307.6091,475.1515,316.22,470.3711" style="stroke:#181818;stroke-width:1.0;"/></g><!--link HRM to UC03--><g id="link_HRM_UC03"><path d="M103.3,530.8711 C116.75,517.7211 130.96,500.8911 139,482.6211 C150.69,456.0711 132.2,374.7211 151,352.6211 C166.18,334.7711 180.0775,323.9682 201.2775,314.0282 " fill="none" id="HRM-to-UC03" style="stroke:#181818;stroke-width:1.0;"/><polygon fill="#181818" points="206.71,311.4811,196.8632,311.6801,202.1829,313.6037,200.2593,318.9235,206.71,311.4811" style="stroke:#181818;stroke-width:1.0;"/></g><!--link UC03 to Collaborator--><g id="link_UC03_Collaborator"><path d="M213.89,259.4011 C190.7,249.7211 168.92,236.8111 151,219.6211 C137.91,207.0711 149.08,195.7011 139,180.6211 C130.88,168.4811 124.1154,161.3065 112.8654,152.3565 " fill="none" id="UC03-to-Collaborator" style="stroke:#181818;stroke-width:1.0;"/><polygon fill="#181818" points="108.17,148.6211,112.7228,157.3545,112.0828,151.734,117.7034,151.094,108.17,148.6211" style="stroke:#181818;stroke-width:1.0;"/></g><!--link HRM to UC04--><g id="link_HRM_UC04"><path d="M103.32,529.3011 C116.27,516.2311 130.1,499.8911 139,482.6211 C150.46,460.3811 132.69,444.6711 151,427.6211 C198.79,383.1011 269.0198,376.9876 325.6998,380.2376 " fill="none" id="HRM-to-UC04" style="stroke:#181818;stroke-width:1.0;"/><polygon fill="#181818" points="331.69,380.5811,322.9337,376.0724,326.6982,380.2949,322.4758,384.0593,331.69,380.5811" style="stroke:#181818;stroke-width:1.0;"/></g><!--link UC04 to Collaborator--><g id="link_UC04_Collaborator"><path d="M334.78,401.8011 C276.56,406.5011 196.66,402.0011 151,352.6211 C124.99,324.4911 156.52,214.6911 139,180.6211 C131.96,166.9411 124.8211,158.9593 112.8611,149.8393 " fill="none" id="UC04-to-Collaborator" style="stroke:#181818;stroke-width:1.0;"/><polygon fill="#181818" points="108.09,146.2011,112.8212,154.8391,112.0659,149.2329,117.6721,148.4776,108.09,146.2011" style="stroke:#181818;stroke-width:1.0;"/></g><!--link HRM to UC05--><g id="link_HRM_UC05"><path d="M103.14,558.6211 C135.59,558.6211 181.58,558.6211 233.39,558.6211 " fill="none" id="HRM-to-UC05" style="stroke:#181818;stroke-width:1.0;"/><polygon fill="#181818" points="239.39,558.6211,230.39,554.6211,234.39,558.6211,230.39,562.6211,239.39,558.6211" style="stroke:#181818;stroke-width:1.0;"/></g><!--link FM to UC06--><g id="link_FM_UC06"><path d="M115.1,706.8011 C126.71,710.3611 139.24,713.9011 151,716.6211 C205.9,729.3311 262.4454,738.3873 311.8254,745.1473 " fill="none" id="FM-to-UC06" style="stroke:#181818;stroke-width:1.0;"/><polygon fill="#181818" points="317.77,745.9611,309.3957,740.7774,312.8162,745.2829,308.3106,748.7034,317.77,745.9611" style="stroke:#181818;stroke-width:1.0;"/></g><!--link FM to UC07--><g id="link_FM_UC07"><path d="M90.8,731.3311 C104.78,754.0411 125.32,781.0211 151,796.6211 C188.67,819.5211 228.9329,830.7545 271.6129,836.9845 " fill="none" id="FM-to-UC07" style="stroke:#181818;stroke-width:1.0;"/><polygon fill="#181818" points="277.55,837.8511,269.2221,832.5931,272.6024,837.1289,268.0666,840.5092,277.55,837.8511" style="stroke:#181818;stroke-width:1.0;"/></g><!--link FM to UC08--><g id="link_FM_UC08"><path d="M115.31,687.9811 C151.68,685.0611 198.9193,681.2619 249.9193,677.1619 " fill="none" id="FM-to-UC08" style="stroke:#181818;stroke-width:1.0;"/><polygon fill="#181818" points="255.9,676.6811,246.6084,673.4152,250.9161,677.0818,247.2495,681.3894,255.9,676.6811" style="stroke:#181818;stroke-width:1.0;"/></g><!--SRC=[XPDFZzem4CNl_XGZBfoGMlwVAcrPmQeg5wBjQI-3CoHU71lPJX6g-jqx2MimYTJD8OgTztxFRvGC_L6P4pgieBB6ojBPYY2uciJzpGdb4GlAmaKJE981JQ593EyANs9kpyeKS43jIIJcc_wF0Bw-MvUJMrbj7Ln8QtiMVuK8AZ3wrHEia6_F2Wls2g7f421OSAee0-IgWIbhXBXHOP1TVA0AdcImpWy0FM3x2DV0TW4Sg75l7V8YsHvi795vCnbN9FzcjcYug6ifcspx7oMVDSfUKzbBNI7BTkHjxNhCbzq3Sws90gI2zROPHz8kpkJQhFOacyMrsiUAHQilNs44EoeKpy91TbHQUx07m8VcBQCHjtO-38n6t-uRLmplzAQL9etJ98GVTX-nuovst3DFKhDCOk2iGWdlTWzeSZZK9iUAJ40DikJlIBAUJKhw63RfXarYXydd7QPyZ2VlLM4-PXMfqovr6gdJpwapfcx84BybdaoWvjznzcGzry0ws0gv0MfzWPWtw-RDUjJvuxn_KwcafWYOj_hrpJ_l-HUf_zVLFVImAaaUH_KfWXOTqA87MZBe9sCWb1IFuS4GvSsFtspA3dFPOIxvu_u7]--></g></svg>