<?xml version="1.0" encoding="us-ascii" standalone="no"?><svg xmlns="http://www.w3.org/2000/svg" xmlns:xlink="http://www.w3.org/1999/xlink" contentStyleType="text/css" height="871.5px" preserveAspectRatio="none" style="width:596px;height:871px;background:#FFFFFF;" version="1.1" viewBox="0 0 596 871" width="596.4px" zoomAndPan="magnify"><defs/><g><text fill="#000000" font-family="sans-serif" font-size="9.8" font-weight="bold" lengthAdjust="spacing" textLength="88.9" x="248.85" y="17.5752">Use Case Diagram</text><!--cluster actors--><g id="cluster_actors"><rect fill="none" height="570.5" rx="1.75" ry="1.75" style="stroke:#FFFF00;stroke-width:0.6999999999999998;" width="220.5" x="4.9" y="177.5348"/><text fill="#000000" font-family="sans-serif" font-size="9.8" font-weight="bold" lengthAdjust="spacing" textLength="69.3" x="80.5" y="189.51">System Actors</text></g><!--cluster usecases--><g id="cluster_usecases"><rect fill="none" height="835.1" rx="1.75" ry="1.75" style="stroke:#FFFF00;stroke-width:0.6999999999999998;" width="347.2" x="245" y="32.6348"/><text fill="#000000" font-family="sans-serif" font-size="9.8" font-weight="bold" lengthAdjust="spacing" textLength="51.8" x="392.7" y="44.61">Use Cases</text></g><!--entity Collaborator--><g id="elem_Collaborator"><ellipse cx="115.15" cy="315.4348" fill="#F1F1F1" rx="5.6" ry="5.6" style="stroke:#181818;stroke-width:0.3499999999999999;"/><path d="M115.15,321.0348 L115.15,339.9348 M106.05,326.6348 L124.25,326.6348 M115.15,339.9348 L106.05,350.4348 M115.15,339.9348 L124.25,350.4348 " fill="none" style="stroke:#181818;stroke-width:0.3499999999999999;"/><text fill="#000000" font-family="sans-serif" font-size="9.8" lengthAdjust="spacing" textLength="54.6" x="87.85" y="362.06">Collaborator</text></g><!--entity GSM--><g id="elem_GSM"><ellipse cx="115.15" cy="209.3848" fill="#F1F1F1" rx="5.6" ry="5.6" style="stroke:#181818;stroke-width:0.3499999999999999;"/><path d="M115.15,214.9848 L115.15,233.8848 M106.05,220.5848 L124.25,220.5848 M115.15,233.8848 L106.05,244.3848 M115.15,233.8848 L124.25,244.3848 " fill="none" style="stroke:#181818;stroke-width:0.3499999999999999;"/><text fill="#000000" font-family="sans-serif" font-size="9.8" lengthAdjust="spacing" textLength="28" x="95.55" y="256.01">Green</text><text fill="#000000" font-family="sans-serif" font-size="9.8" lengthAdjust="spacing" textLength="32.9" x="95.55" y="269.0447">Spaces</text><text fill="#000000" font-family="sans-serif" font-size="9.8" lengthAdjust="spacing" textLength="39.2" x="95.55" y="282.0795">Manager</text></g><!--entity GSU--><g id="elem_GSU"><ellipse cx="115.15" cy="395.5848" fill="#F1F1F1" rx="5.6" ry="5.6" style="stroke:#181818;stroke-width:0.3499999999999999;"/><path d="M115.15,401.1848 L115.15,420.0848 M106.05,406.7848 L124.25,406.7848 M115.15,420.0848 L106.05,430.5848 M115.15,420.0848 L124.25,430.5848 " fill="none" style="stroke:#181818;stroke-width:0.3499999999999999;"/><text fill="#000000" font-family="sans-serif" font-size="9.8" lengthAdjust="spacing" textLength="28" x="98.7" y="442.21">Green</text><text fill="#000000" font-family="sans-serif" font-size="9.8" lengthAdjust="spacing" textLength="32.9" x="98.7" y="455.2447">Spaces</text><text fill="#000000" font-family="sans-serif" font-size="9.8" lengthAdjust="spacing" textLength="20.3" x="98.7" y="468.2795">User</text></g><!--entity HRM--><g id="elem_HRM"><ellipse cx="115.15" cy="501.2848" fill="#F1F1F1" rx="5.6" ry="5.6" style="stroke:#181818;stroke-width:0.3499999999999999;"/><path d="M115.15,506.8848 L115.15,525.7848 M106.05,512.4848 L124.25,512.4848 M115.15,525.7848 L106.05,536.2848 M115.15,525.7848 L124.25,536.2848 " fill="none" style="stroke:#181818;stroke-width:0.3499999999999999;"/><text fill="#000000" font-family="sans-serif" font-size="9.8" lengthAdjust="spacing" textLength="30.8" x="91.35" y="547.91">Human</text><text fill="#000000" font-family="sans-serif" font-size="9.8" lengthAdjust="spacing" textLength="47.6" x="91.35" y="560.9447">Resources</text><text fill="#000000" font-family="sans-serif" font-size="9.8" lengthAdjust="spacing" textLength="39.2" x="91.35" y="573.9795">Manager</text></g><!--entity FM--><g id="elem_FM"><ellipse cx="115.15" cy="607.3348" fill="#F1F1F1" rx="5.6" ry="5.6" style="stroke:#181818;stroke-width:0.3499999999999999;"/><path d="M115.15,612.9348 L115.15,631.8348 M106.05,618.5348 L124.25,618.5348 M115.15,631.8348 L106.05,642.3348 M115.15,631.8348 L124.25,642.3348 " fill="none" style="stroke:#181818;stroke-width:0.3499999999999999;"/><text fill="#000000" font-family="sans-serif" font-size="9.8" lengthAdjust="spacing" textLength="64.4" x="82.95" y="653.96">Fleet Manager</text></g><!--entity QAM--><g id="elem_QAM"><ellipse cx="115.15" cy="687.1348" fill="#F1F1F1" rx="5.6" ry="5.6" style="stroke:#181818;stroke-width:0.3499999999999999;"/><path d="M115.15,692.7348 L115.15,711.6348 M106.05,698.3348 L124.25,698.3348 M115.15,711.6348 L106.05,722.1348 M115.15,711.6348 L124.25,722.1348 " fill="none" style="stroke:#181818;stroke-width:0.3499999999999999;"/><text fill="#000000" font-family="sans-serif" font-size="9.8" lengthAdjust="spacing" textLength="198.1" x="16.1" y="733.76">Software Quality Assessment Team Manager</text></g><g id="elem_UC01"><ellipse cx="418.6793" cy="464.5506" fill="#F1F1F1" rx="98.4293" ry="21.3659" style="stroke:#181818;stroke-width:0.3499999999999999;"/><text fill="#000000" font-family="sans-serif" font-size="9.8" lengthAdjust="spacing" textLength="172.9" x="332.2293" y="467.2084">UC01 - Register Skills of a Collaborator</text></g><g id="elem_UC02"><ellipse cx="418.5861" cy="600.192" fill="#F1F1F1" rx="64.3861" ry="14.5572" style="stroke:#181818;stroke-width:0.3499999999999999;"/><text fill="#000000" font-family="sans-serif" font-size="9.8" lengthAdjust="spacing" textLength="97.3" x="367.8361" y="603.5546">UC02 - Register a Job</text></g><g id="elem_UC03"><ellipse cx="418.4504" cy="331.3648" fill="#F1F1F1" rx="162.2504" ry="34.1301" style="stroke:#181818;stroke-width:0.3499999999999999;"/><text fill="#000000" font-family="sans-serif" font-size="9.8" lengthAdjust="spacing" textLength="305.2" x="265.8504" y="334.0227">UC03 - Register collaborator with job and fundamental characteristics</text></g><g id="elem_UC04"><ellipse cx="418.4382" cy="404.1624" fill="#F1F1F1" rx="60.7382" ry="13.8276" style="stroke:#181818;stroke-width:0.3499999999999999;"/><text fill="#000000" font-family="sans-serif" font-size="9.8" lengthAdjust="spacing" textLength="88.2" x="372.2382" y="407.525">UC04 - Assign Skills</text></g><g id="elem_UC05"><ellipse cx="418.7508" cy="535.8949" fill="#F1F1F1" rx="117.4008" ry="25.1602" style="stroke:#181818;stroke-width:0.3499999999999999;"/><text fill="#000000" font-family="sans-serif" font-size="9.8" lengthAdjust="spacing" textLength="210" x="312.3508" y="538.5527">UC05 - Generate a team proposal automatically</text></g><g id="elem_UC06"><ellipse cx="418.7708" cy="728.5389" fill="#F1F1F1" rx="70.8708" ry="15.8542" style="stroke:#181818;stroke-width:0.3499999999999999;"/><text fill="#000000" font-family="sans-serif" font-size="9.8" lengthAdjust="spacing" textLength="112.7" x="361.8996" y="731.3904">UC06 - Register a vehicle</text></g><g id="elem_UC07"><ellipse cx="418.4472" cy="788.6742" fill="#F1F1F1" rx="91.5472" ry="19.9894" style="stroke:#181818;stroke-width:0.3499999999999999;"/><text fill="#000000" font-family="sans-serif" font-size="9.8" lengthAdjust="spacing" textLength="158.2" x="339.3472" y="791.332">UC07 - Register Vehicle's Check-up</text></g><g id="elem_UC08"><ellipse cx="418.6092" cy="664.1066" fill="#F1F1F1" rx="112.7092" ry="24.2218" style="stroke:#181818;stroke-width:0.3499999999999999;"/><text fill="#000000" font-family="sans-serif" font-size="9.8" lengthAdjust="spacing" textLength="203" x="317.1092" y="666.7644">UC08 - List the vehicles needing the check-up</text></g><g id="elem_UC09"><ellipse cx="418.4412" cy="260.7577" fill="#F1F1F1" rx="38.3412" ry="11.4729" style="stroke:#181818;stroke-width:0.3499999999999999;"/><text fill="#000000" font-family="sans-serif" font-size="9.8" lengthAdjust="spacing" textLength="42" x="395.3412" y="264.1203">UC09 - ...</text></g><g id="elem_UC10"><ellipse cx="418.4412" cy="70.3577" fill="#F1F1F1" rx="38.3412" ry="11.4729" style="stroke:#181818;stroke-width:0.3499999999999999;"/><text fill="#000000" font-family="sans-serif" font-size="9.8" lengthAdjust="spacing" textLength="42" x="395.3412" y="73.7203">UC10 - ...</text></g><g id="elem_UC11"><ellipse cx="418.4412" cy="117.9577" fill="#F1F1F1" rx="38.3412" ry="11.4729" style="stroke:#181818;stroke-width:0.3499999999999999;"/><text fill="#000000" font-family="sans-serif" font-size="9.8" lengthAdjust="spacing" textLength="42" x="395.3412" y="121.3203">UC11 - ...</text></g><g id="elem_UC12"><ellipse cx="418.4412" cy="165.5577" fill="#F1F1F1" rx="38.3412" ry="11.4729" style="stroke:#181818;stroke-width:0.3499999999999999;"/><text fill="#000000" font-family="sans-serif" font-size="9.8" lengthAdjust="spacing" textLength="42" x="395.3412" y="168.9203">UC12 - ...</text></g><g id="elem_UC13"><ellipse cx="418.4412" cy="213.1577" fill="#F1F1F1" rx="38.3412" ry="11.4729" style="stroke:#181818;stroke-width:0.3499999999999999;"/><text fill="#000000" font-family="sans-serif" font-size="9.8" lengthAdjust="spacing" textLength="42" x="395.3412" y="216.5203">UC13 - ...</text></g><g id="elem_UC14"><ellipse cx="418.4412" cy="844.5577" fill="#F1F1F1" rx="38.3412" ry="11.4729" style="stroke:#181818;stroke-width:0.3499999999999999;"/><text fill="#000000" font-family="sans-serif" font-size="9.8" lengthAdjust="spacing" textLength="42" x="395.3412" y="847.9203">UC14 - ...</text></g><!--link HRM to UC01--><g id="link_HRM_UC01"><path d="M139.09,527.9828 C163.765,519.7298 204.008,506.8498 239.4,498.1348 C272.006,490.1058 304.244,483.6797 335.604,478.0517 " fill="none" id="HRM-to-UC01" style="stroke:#181818;stroke-width:0.6999999999999998;"/><polygon fill="#181818" points="339.738,477.3098,333.0425,475.6666,336.293,477.928,334.0317,481.1786,339.738,477.3098" style="stroke:#181818;stroke-width:0.6999999999999998;"/></g><!--link UC01 to Collaborator--><g id="link_UC01_Collaborator"><path d="M320.558,466.6068 C290.829,462.2738 260.463,452.0118 239.4,430.2348 C222.754,413.0288 246.365,395.3888 231,377.0348 C209.139,350.9108 173.3965,342.3551 146.7895,339.2401 " fill="none" id="UC01-to-Collaborator" style="stroke:#181818;stroke-width:0.6999999999999998;"/><polygon fill="#181818" points="142.618,338.7518,148.5497,342.2653,146.0943,339.1587,149.2008,336.7033,142.618,338.7518" style="stroke:#181818;stroke-width:0.6999999999999998;"/></g><!--link HRM to UC02--><g id="link_HRM_UC02"><path d="M139.048,543.9638 C163.688,552.2378 203.896,565.0338 239.4,573.0348 C279.692,582.1208 321.6226,588.5401 356.8816,593.1601 " fill="none" id="HRM-to-UC02" style="stroke:#181818;stroke-width:0.6999999999999998;"/><polygon fill="#181818" points="361.046,593.7058,355.1632,590.111,357.5757,593.251,354.4356,595.6635,361.046,593.7058" style="stroke:#181818;stroke-width:0.6999999999999998;"/></g><!--link HRM to UC03--><g id="link_HRM_UC03"><path d="M139.09,532.3018 C166.089,526.7508 209.65,513.3528 231,482.7348 C244.391,463.5338 224.343,395.6548 239.4,377.7348 C249.949,365.1698 259.6306,357.5778 274.4496,350.6058 " fill="none" id="HRM-to-UC03" style="stroke:#181818;stroke-width:0.6999999999999998;"/><polygon fill="#181818" points="278.25,348.8178,271.3574,348.9662,275.083,350.3078,273.7414,354.0334,278.25,348.8178" style="stroke:#181818;stroke-width:0.6999999999999998;"/></g><!--link UC03 to Collaborator--><g id="link_UC03_Collaborator"><path d="M256.634,334.5238 C212.359,335.3428 173.4593,336.0704 146.8523,336.5604 " fill="none" id="UC03-to-Collaborator" style="stroke:#181818;stroke-width:0.6999999999999998;"/><polygon fill="#181818" points="142.653,336.6378,149.0035,339.3213,146.1524,336.5733,148.9004,333.7222,142.653,336.6378" style="stroke:#181818;stroke-width:0.6999999999999998;"/></g><!--link HRM to UC04--><g id="link_HRM_UC04"><path d="M139.146,531.8958 C165.774,525.9878 208.565,512.2888 231,482.7348 C245.105,464.1568 222.803,447.3218 239.4,430.9348 C272.23,398.5248 322.1622,394.3348 362.2162,396.8478 " fill="none" id="HRM-to-UC04" style="stroke:#181818;stroke-width:0.6999999999999998;"/><polygon fill="#181818" points="366.408,397.1108,360.2957,393.9218,362.9149,396.8916,359.945,399.5108,366.408,397.1108" style="stroke:#181818;stroke-width:0.6999999999999998;"/></g><!--link UC04 to Collaborator--><g id="link_UC04_Collaborator"><path d="M362.957,398.5878 C327.418,394.2758 280.329,387.4368 239.4,377.7348 C205.345,369.6638 171.1773,357.9368 146.4043,348.7948 " fill="none" id="UC04-to-Collaborator" style="stroke:#181818;stroke-width:0.6999999999999998;"/><polygon fill="#181818" points="142.464,347.3408,147.405,352.1487,145.7476,348.5525,149.3438,346.895,142.464,347.3408" style="stroke:#181818;stroke-width:0.6999999999999998;"/></g><!--link HRM to UC05--><g id="link_HRM_UC05"><path d="M139.048,535.9348 C173.691,535.9348 237.083,535.9348 297.045,535.9348 " fill="none" id="HRM-to-UC05" style="stroke:#181818;stroke-width:0.6999999999999998;"/><polygon fill="#181818" points="301.245,535.9348,294.945,533.1348,297.745,535.9348,294.945,538.7348,301.245,535.9348" style="stroke:#181818;stroke-width:0.6999999999999998;"/></g><!--link FM to UC06--><g id="link_FM_UC06"><path d="M147.357,631.8978 C173.334,635.9228 209.321,645.6108 231,668.9348 C240.863,679.5468 228.634,690.7398 239.4,700.4348 C269.885,727.8748 311.591,734.5878 349.216,734.5878 " fill="none" id="FM-to-UC06" style="stroke:#181818;stroke-width:0.6999999999999998;"/><polygon fill="#181818" points="353.416,734.5878,347.116,731.7878,349.916,734.5878,347.116,737.3878,353.416,734.5878" style="stroke:#181818;stroke-width:0.6999999999999998;"/></g><!--link FM to UC07--><g id="link_FM_UC07"><path d="M147.581,630.9248 C174.251,634.3338 211.12,643.6578 231,668.9348 C243.075,684.2858 226.17,742.0638 239.4,756.4348 C262.164,781.1658 292.7983,790.5049 325.6563,793.4099 " fill="none" id="FM-to-UC07" style="stroke:#181818;stroke-width:0.6999999999999998;"/><polygon fill="#181818" points="329.84,793.7798,323.8111,790.4358,326.3536,793.4715,323.3179,796.0141,329.84,793.7798" style="stroke:#181818;stroke-width:0.6999999999999998;"/></g><!--link FM to UC08--><g id="link_FM_UC08"><path d="M147.602,632.7168 C188.048,637.3998 255.6399,645.2322 315.0629,652.1202 " fill="none" id="FM-to-UC08" style="stroke:#181818;stroke-width:0.6999999999999998;"/><polygon fill="#181818" points="319.235,652.6038,313.2993,649.097,315.7583,652.2008,312.6545,654.6597,319.235,652.6038" style="stroke:#181818;stroke-width:0.6999999999999998;"/></g><!--link GSM to UC09--><g id="link_GSM_UC09"><path d="M134.974,245.0988 C184.121,247.8288 311.3455,254.9106 376.2985,258.5226 " fill="none" id="GSM-to-UC09" style="stroke:#181818;stroke-width:0.6999999999999998;"/><polygon fill="#181818" points="380.492,258.7558,374.3572,255.6103,376.9974,258.5614,374.0463,261.2016,380.492,258.7558" style="stroke:#181818;stroke-width:0.6999999999999998;"/></g><!--link GSM to UC10--><g id="link_GSM_UC10"><path d="M134.855,208.0128 C155.54,172.7118 192.094,120.4988 239.4,94.2348 C283.612,69.6858 339.0187,66.5408 376.9097,67.6328 " fill="none" id="GSM-to-UC10" style="stroke:#181818;stroke-width:0.6999999999999998;"/><polygon fill="#181818" points="381.108,67.7538,374.8913,64.7734,377.6095,67.6529,374.73,70.3711,381.108,67.7538" style="stroke:#181818;stroke-width:0.6999999999999998;"/></g><!--link GSM to UC11--><g id="link_GSM_UC11"><path d="M134.82,222.3138 C157.199,198.2618 196.798,160.4408 239.4,141.8348 C284.956,121.9338 338.5763,117.6232 375.8583,117.1752 " fill="none" id="GSM-to-UC11" style="stroke:#181818;stroke-width:0.6999999999999998;"/><polygon fill="#181818" points="380.058,117.1248,373.7248,114.4007,376.5583,117.1668,373.7921,120.0003,380.058,117.1248" style="stroke:#181818;stroke-width:0.6999999999999998;"/></g><!--link GSM to UC12--><g id="link_GSM_UC12"><path d="M134.897,233.5698 C158.641,221.0118 200.802,200.2988 239.4,189.4348 C286.951,176.0508 339.6084,170.417 376.1694,167.841 " fill="none" id="GSM-to-UC12" style="stroke:#181818;stroke-width:0.6999999999999998;"/><polygon fill="#181818" points="380.359,167.5458,373.8778,165.1955,376.8677,167.7918,374.2714,170.7816,380.359,167.5458" style="stroke:#181818;stroke-width:0.6999999999999998;"/></g><!--link GSM to UC13--><g id="link_GSM_UC13"><path d="M134.974,242.0818 C184.513,237.0348 313.4467,223.8878 377.8467,217.3218 " fill="none" id="GSM-to-UC13" style="stroke:#181818;stroke-width:0.6999999999999998;"/><polygon fill="#181818" points="382.025,216.8958,375.4735,214.7492,378.5431,217.2508,376.0415,220.3203,382.025,216.8958" style="stroke:#181818;stroke-width:0.6999999999999998;"/></g><!--link QAM to UC14--><g id="link_QAM_UC14"><path d="M137.641,736.5408 C160.097,762.9448 197.645,801.4588 239.4,820.8348 C284.634,841.8278 338.59,845.8923 376.012,845.9763 " fill="none" id="QAM-to-UC14" style="stroke:#181818;stroke-width:0.6999999999999998;"/><polygon fill="#181818" points="380.212,845.9858,373.9183,843.1716,376.712,845.9779,373.9057,848.7716,380.212,845.9858" style="stroke:#181818;stroke-width:0.6999999999999998;"/></g><!--SRC=[XPHDZzem48Rl-HKZBfn0XF1vgKIfO5MLmq9tJtiPmf2uE3QodI9KzRzt4Z3aG-foYB0pppEPDnzTUnBgZ0OpoBJISMfqHk1CJi7pp1dZ4oQqSrT9O2Xsg199GVTPOLCyw8jG2HnHMWegyAF-Jm3y-whDWSnIIstWIbBgI_0t29nmh7wp14lampU12RD18Edem6am8aaT74GX4re5mSCAdTtLEifW4JjjR0VG0fP_uTQmN00tbBZN1dbHsUwi3P7wK3iUaUo7sg3YGKrfMUys_wdaQ_LbRzMobpn3BjkIrRbfEL-sDUTA4Zce5gngvtVww2ve25vpbC9TOM4jMPkHSl2JEDmg-hhO555Mal5vtbB9BSN5uXRBVSL5oq48FTXI8ZX70xkJaDA2FWBMKYiTHN69yo3GwtrvRjmqlDDAkjffMEs4y5tllNROr0vRS5I5uqeRk0YNmY-z1rG7EERgW4L4A25E-HcCkPuX4LlVB6esY_mCqUSpZFWo-3w8HDspyjPHqphorj7drZ5RrwI8pn8duugxUpRwh2sFWRdJ6V84AEKLVBzniz-uPPtKy_vDgOWbUS6ah5yz-4cBdrRvznlTjR1CAJxryhCNJHkYQKiqOz4Fre1BoL-61KLqA3uQnMRSSCuQpbdBEMTdlz_tmBmiuBVM4_Cc4GvgH3Xe4FUDAX7MYR19X2rYM2U6JQBrN8THdOYQHDGYHdNYzfpn- - -94Ny8_W40]--></g></svg>