<?xml version="1.0" encoding="us-ascii" standalone="no"?><svg xmlns="http://www.w3.org/2000/svg" xmlns:xlink="http://www.w3.org/1999/xlink" contentStyleType="text/css" height="849px" preserveAspectRatio="none" style="width:653px;height:849px;background:#FFFFFF;" version="1.1" viewBox="0 0 653 849" width="653px" zoomAndPan="magnify"><defs/><g><!--cluster actors--><g id="cluster_actors"><rect fill="none" height="701" rx="2.5" ry="2.5" style="stroke:#FFFF00;stroke-width:1.0;" width="124" x="7" y="7"/><text fill="#000000" font-family="sans-serif" font-size="14" font-weight="bold" lengthAdjust="spacing" textLength="99" x="19.5" y="24.1074">System Actors</text></g><!--cluster usecases--><g id="cluster_usecases"><rect fill="none" height="770" rx="2.5" ry="2.5" style="stroke:#FFFF00;stroke-width:1.0;" width="488" x="159" y="73"/><text fill="#000000" font-family="sans-serif" font-size="14" font-weight="bold" lengthAdjust="spacing" textLength="74" x="366" y="90.1074">Use Cases</text></g><!--entity Collaborator--><g id="elem_Collaborator"><ellipse cx="69" cy="53" fill="#F1F1F1" rx="8" ry="8" style="stroke:#181818;stroke-width:0.5;"/><path d="M69,61 L69,88 M56,69 L82,69 M69,88 L56,103 M69,88 L82,103 " fill="none" style="stroke:#181818;stroke-width:0.5;"/><text fill="#000000" font-family="sans-serif" font-size="14" lengthAdjust="spacing" textLength="78" x="30" y="119.6074">Collaborator</text></g><!--entity GSM--><g id="elem_GSM"><ellipse cx="69" cy="167.5" fill="#F1F1F1" rx="8" ry="8" style="stroke:#181818;stroke-width:0.5;"/><path d="M69,175.5 L69,202.5 M56,183.5 L82,183.5 M69,202.5 L56,217.5 M69,202.5 L82,217.5 " fill="none" style="stroke:#181818;stroke-width:0.5;"/><text fill="#000000" font-family="sans-serif" font-size="14" lengthAdjust="spacing" textLength="40" x="41" y="234.1074">Green</text><text fill="#000000" font-family="sans-serif" font-size="14" lengthAdjust="spacing" textLength="47" x="41" y="252.7285">Spaces</text><text fill="#000000" font-family="sans-serif" font-size="14" lengthAdjust="spacing" textLength="56" x="41" y="271.3496">Manager</text></g><!--entity GSU--><g id="elem_GSU"><ellipse cx="69" cy="318.5" fill="#F1F1F1" rx="8" ry="8" style="stroke:#181818;stroke-width:0.5;"/><path d="M69,326.5 L69,353.5 M56,334.5 L82,334.5 M69,353.5 L56,368.5 M69,353.5 L82,368.5 " fill="none" style="stroke:#181818;stroke-width:0.5;"/><text fill="#000000" font-family="sans-serif" font-size="14" lengthAdjust="spacing" textLength="40" x="45.5" y="385.1074">Green</text><text fill="#000000" font-family="sans-serif" font-size="14" lengthAdjust="spacing" textLength="47" x="45.5" y="403.7285">Spaces</text><text fill="#000000" font-family="sans-serif" font-size="14" lengthAdjust="spacing" textLength="29" x="45.5" y="422.3496">User</text></g><!--entity HRM--><g id="elem_HRM"><ellipse cx="69" cy="469.5" fill="#F1F1F1" rx="8" ry="8" style="stroke:#181818;stroke-width:0.5;"/><path d="M69,477.5 L69,504.5 M56,485.5 L82,485.5 M69,504.5 L56,519.5 M69,504.5 L82,519.5 " fill="none" style="stroke:#181818;stroke-width:0.5;"/><text fill="#000000" font-family="sans-serif" font-size="14" lengthAdjust="spacing" textLength="44" x="35" y="536.1074">Human</text><text fill="#000000" font-family="sans-serif" font-size="14" lengthAdjust="spacing" textLength="68" x="35" y="554.7285">Resources</text><text fill="#000000" font-family="sans-serif" font-size="14" lengthAdjust="spacing" textLength="56" x="35" y="573.3496">Manager</text></g><!--entity FM--><g id="elem_FM"><ellipse cx="69" cy="621" fill="#F1F1F1" rx="8" ry="8" style="stroke:#181818;stroke-width:0.5;"/><path d="M69,629 L69,656 M56,637 L82,637 M69,656 L56,671 M69,656 L82,671 " fill="none" style="stroke:#181818;stroke-width:0.5;"/><text fill="#000000" font-family="sans-serif" font-size="14" lengthAdjust="spacing" textLength="92" x="23" y="687.6074">Fleet Manager</text></g><g id="elem_UC1"><ellipse cx="402.8559" cy="139.7712" fill="#F1F1F1" rx="136.8559" ry="29.7712" style="stroke:#181818;stroke-width:0.5;"/><text fill="#000000" font-family="sans-serif" font-size="14" lengthAdjust="spacing" textLength="239" x="283.3559" y="143.5681">UC1 - Register Skills of a Collaborator</text></g><g id="elem_UC2"><ellipse cx="402.7523" cy="429.1505" fill="#F1F1F1" rx="88.7523" ry="20.1505" style="stroke:#181818;stroke-width:0.5;"/><text fill="#000000" font-family="sans-serif" font-size="14" lengthAdjust="spacing" textLength="131" x="334.2523" y="433.9542">UC2 - Register a Job</text></g><g id="elem_UC3"><ellipse cx="402.8714" cy="252.9743" fill="#F1F1F1" rx="227.8714" ry="47.9743" style="stroke:#181818;stroke-width:0.5;"/><text fill="#000000" font-family="sans-serif" font-size="14" lengthAdjust="spacing" textLength="428" x="188.8714" y="256.7712">UC3 - Register collaborator with job and fundamental characteristics</text></g><g id="elem_UC4"><ellipse cx="403.1549" cy="355.131" fill="#F1F1F1" rx="83.6549" ry="19.131" style="stroke:#181818;stroke-width:0.5;"/><text fill="#000000" font-family="sans-serif" font-size="14" lengthAdjust="spacing" textLength="118" x="341.1549" y="359.9347">UC4 - Assign Skills</text></g><g id="elem_UC5"><ellipse cx="402.8824" cy="519.1765" fill="#F1F1F1" rx="163.8824" ry="35.1765" style="stroke:#181818;stroke-width:0.5;"/><text fill="#000000" font-family="sans-serif" font-size="14" lengthAdjust="spacing" textLength="292" x="254.8824" y="522.9734">UC5 - Generate a team proposal automatically</text></g><g id="elem_UC6"><ellipse cx="402.7971" cy="713.9594" fill="#F1F1F1" rx="97.7971" ry="21.9594" style="stroke:#181818;stroke-width:0.5;"/><text fill="#000000" font-family="sans-serif" font-size="14" lengthAdjust="spacing" textLength="153" x="324.519" y="718.3865">UC6 - Register a vehicle</text></g><g id="elem_UC7"><ellipse cx="403.0651" cy="798.813" fill="#F1F1F1" rx="127.0651" ry="27.813" style="stroke:#181818;stroke-width:0.5;"/><text fill="#000000" font-family="sans-serif" font-size="14" lengthAdjust="spacing" textLength="218" x="294.0651" y="802.6099">UC7 - Register Vehicle's Check-up</text></g><g id="elem_UC8"><ellipse cx="403.1952" cy="622.839" fill="#F1F1F1" rx="157.1952" ry="33.839" style="stroke:#181818;stroke-width:0.5;"/><text fill="#000000" font-family="sans-serif" font-size="14" lengthAdjust="spacing" textLength="282" x="262.1952" y="626.6359">UC8 - List the vehicles needing the check-up</text></g><!--link HRM to UC1--><g id="link_HRM_UC1"><path d="M103.34,491.77 C116.96,478.6 131.31,461.61 139,443 C149.88,416.68 132.3,208.48 151,187 C180.18,153.48 219.042,139.7085 262.772,134.5085 " fill="none" id="HRM-to-UC1" style="stroke:#181818;stroke-width:1.0;"/><polygon fill="#181818" points="268.73,133.8,259.3206,130.8907,263.765,134.3904,260.2653,138.8347,268.73,133.8" style="stroke:#181818;stroke-width:1.0;"/></g><!--link UC1 to Collaborator--><g id="link_UC1_Collaborator"><path d="M293.94,121.77 C230.08,111 159.0564,99.0179 113.9964,91.4179 " fill="none" id="UC1-to-Collaborator" style="stroke:#181818;stroke-width:1.0;"/><polygon fill="#181818" points="108.08,90.42,116.2894,95.8611,113.0104,91.2516,117.6199,87.9725,108.08,90.42" style="stroke:#181818;stroke-width:1.0;"/></g><!--link HRM to UC2--><g id="link_HRM_UC2"><path d="M103.29,492.52 C117.28,482.69 134.19,472.38 151,466 C203.4,446.1 259.7424,437.3675 309.1824,433.0875 " fill="none" id="HRM-to-UC2" style="stroke:#181818;stroke-width:1.0;"/><polygon fill="#181818" points="315.16,432.57,305.8485,429.3611,310.1786,433.0012,306.5385,437.3313,315.16,432.57" style="stroke:#181818;stroke-width:1.0;"/></g><!--link HRM to UC3--><g id="link_HRM_UC3"><path d="M103.27,491.24 C116.71,478.08 130.93,461.25 139,443 C150.29,417.48 132.88,339.23 151,318 C166.05,300.37 179.7619,289.7352 200.7619,279.9452 " fill="none" id="HRM-to-UC3" style="stroke:#181818;stroke-width:1.0;"/><polygon fill="#181818" points="206.2,277.41,196.3527,277.5874,201.6683,279.5227,199.733,284.8382,206.2,277.41" style="stroke:#181818;stroke-width:1.0;"/></g><!--link UC3 to Collaborator--><g id="link_UC3_Collaborator"><path d="M211.9,226.74 C189.29,217.11 168.19,204.22 151,187 C136.07,172.05 150.36,158.81 139,141 C131.06,128.55 124.2181,121.2193 112.8381,112.2293 " fill="none" id="UC3-to-Collaborator" style="stroke:#181818;stroke-width:1.0;"/><polygon fill="#181818" points="108.13,108.51,112.7126,117.2278,112.0534,111.6095,117.6718,110.9503,108.13,108.51" style="stroke:#181818;stroke-width:1.0;"/></g><!--link HRM to UC4--><g id="link_HRM_UC4"><path d="M103.22,489.63 C116.15,476.55 130,460.21 139,443 C149.99,421.98 133.54,407.05 151,391 C198.89,346.99 269.1215,341.4182 325.0115,344.8882 " fill="none" id="HRM-to-UC4" style="stroke:#181818;stroke-width:1.0;"/><polygon fill="#181818" points="331,345.26,322.2652,340.71,326.0096,344.9502,321.7694,348.6946,331,345.26" style="stroke:#181818;stroke-width:1.0;"/></g><!--link UC4 to Collaborator--><g id="link_UC4_Collaborator"><path d="M334.45,365.94 C276.94,371.02 196.59,367.33 151,318 C124.24,289.05 157,176.08 139,141 C131.98,127.31 124.8445,119.3237 112.8745,110.2137 " fill="none" id="UC4-to-Collaborator" style="stroke:#181818;stroke-width:1.0;"/><polygon fill="#181818" points="108.1,106.58,112.8393,115.2136,112.0788,109.6081,117.6843,108.8476,108.1,106.58" style="stroke:#181818;stroke-width:1.0;"/></g><!--link HRM to UC5--><g id="link_HRM_UC5"><path d="M103.05,519 C135.44,519 181.33,519 232.85,519 " fill="none" id="HRM-to-UC5" style="stroke:#181818;stroke-width:1.0;"/><polygon fill="#181818" points="238.85,519,229.85,515,233.85,519,229.85,523,238.85,519" style="stroke:#181818;stroke-width:1.0;"/></g><!--link FM to UC6--><g id="link_FM_UC6"><path d="M115.2,665.2 C126.81,668.33 139.32,671.49 151,674 C206.33,685.89 263.281,695.0464 312.261,702.0864 " fill="none" id="FM-to-UC6" style="stroke:#181818;stroke-width:1.0;"/><polygon fill="#181818" points="318.2,702.94,309.8606,697.7003,313.2509,702.2286,308.7225,705.6189,318.2,702.94" style="stroke:#181818;stroke-width:1.0;"/></g><!--link FM to UC7--><g id="link_FM_UC7"><path d="M91.7,691.61 C105.74,713.46 126.06,739.1 151,754 C188.82,776.59 229.2092,787.5789 271.7292,793.5989 " fill="none" id="FM-to-UC7" style="stroke:#181818;stroke-width:1.0;"/><polygon fill="#181818" points="277.67,794.44,269.3196,789.2179,272.7194,793.7391,268.1981,797.1389,277.67,794.44" style="stroke:#181818;stroke-width:1.0;"/></g><!--link FM to UC8--><g id="link_FM_UC8"><path d="M115.12,648.06 C151.82,644.85 199.7627,640.6617 250.9727,636.1917 " fill="none" id="FM-to-UC8" style="stroke:#181818;stroke-width:1.0;"/><polygon fill="#181818" points="256.95,635.67,247.6363,632.4678,251.9689,636.1048,248.3319,640.4375,256.95,635.67" style="stroke:#181818;stroke-width:1.0;"/></g><!--SRC=[XPC_Rzim4CLtVeg35qyUwlzJWSID7HJrOYETifofiyIO8WMIgciK_UuzoRH3AK2ZGT1Hx_tUtK4Q-fCo5JeieRJ6oiBPaY2uciJxcmhb2NFQXuicS2G3cboJ6BuhV86PFIkJmn6r9v6Ox_e_0lXwj2uZjxBQEhYGrlOi_Wen32em-yKJh91ltnJcZVdfDvOLHmbDnm31WbDv4I1J3LLP8yGT3uFznGSguK46w_m0q0EsZt1DRWlWP8q7wv2Bv7YmSKJcrUnvLlAlPek69tOjPRFV_aV9FTzaBwdikIwHPJlojdOVcC-x3dEjYGAaWlMssKiotMqtrybgJx8fhgF5YaMhBp227UMAL-5WVr9QUx17mCxWBOArhPbRWT7ewxrk6Ln_s5IICavJ4BxRGqIEUyXntpb9dJA9WBCA1RpP0w39u5YR34io0JN8WZyaoNesAUbZqgIND8dDJpvjViejF7YlSXCN58dJ7d4QYTDFYJCcRiWGloHUHw3cft6sifxRnphO4hbprFe2CMlMovhraVFkXdzHeQIcw9wtwlNDFE-R5wdvvzKwzB0gI9v6THKfYovbqQSicVA36H0AkZNWmH1bpO_U7CekSDa5BlaB_WS0]--></g></svg>