<?xml version="1.0" encoding="us-ascii" standalone="no"?><svg xmlns="http://www.w3.org/2000/svg" xmlns:xlink="http://www.w3.org/1999/xlink" contentStyleType="text/css" height="315px" preserveAspectRatio="none" style="width:636px;height:315px;background:#FFFFFF;" version="1.1" viewBox="0 0 636 315" width="636.5px" zoomAndPan="magnify"><defs/><g><rect fill="#FFFFFF" height="250.8281" style="stroke:#181818;stroke-width:0.5;" width="5" x="111.5" y="40.9561"/><rect fill="#FFFFFF" height="246.3281" style="stroke:#181818;stroke-width:0.5;" width="5" x="111.5" y="40.9561"/><rect fill="#FFFFFF" height="15.6455" style="stroke:#181818;stroke-width:0.5;" width="5" x="207.5" y="64.7471"/><rect fill="#FFFFFF" height="15.6455" style="stroke:#181818;stroke-width:0.5;" width="5" x="207.5" y="96.0381"/><rect fill="#FFFFFF" height="15.6455" style="stroke:#181818;stroke-width:0.5;" width="5" x="207.5" y="158.6201"/><rect fill="#FFFFFF" height="15.6455" style="stroke:#181818;stroke-width:0.5;" width="5" x="272.5" y="127.3291"/><rect fill="#FFFFFF" height="23.1455" style="stroke:#181818;stroke-width:0.5;" width="5" x="346.25" y="189.9111"/><rect fill="#FFFFFF" height="15.6455" style="stroke:#181818;stroke-width:0.5;" width="5" x="450.5" y="224.7021"/><rect fill="#FFFFFF" height="15.6455" style="stroke:#181818;stroke-width:0.5;" width="5" x="576.5" y="255.9932"/><rect fill="none" height="166.1006" style="stroke:#000000;stroke-width:0.75;" width="345" x="41.75" y="43.4561"/><line style="stroke:#181818;stroke-width:0.25;stroke-dasharray:5.0,5.0;" x1="111.25" x2="111.25" y1="19.3105" y2="296.2842"/><line style="stroke:#181818;stroke-width:0.25;stroke-dasharray:5.0,5.0;" x1="209.75" x2="209.75" y1="19.3105" y2="296.2842"/><line style="stroke:#181818;stroke-width:0.25;stroke-dasharray:5.0,5.0;" x1="274.75" x2="274.75" y1="19.3105" y2="296.2842"/><line style="stroke:#181818;stroke-width:0.25;stroke-dasharray:5.0,5.0;" x1="348.75" x2="348.75" y1="19.3105" y2="296.2842"/><line style="stroke:#181818;stroke-width:0.25;stroke-dasharray:5.0,5.0;" x1="452.75" x2="452.75" y1="19.3105" y2="296.2842"/><line style="stroke:#181818;stroke-width:0.25;stroke-dasharray:5.0,5.0;" x1="578.75" x2="578.75" y1="19.3105" y2="296.2842"/><rect fill="#E3E3E3" height="16.3105" rx="1.25" ry="1.25" style="stroke:#181818;stroke-width:0.25;" width="129.5" x="46.75" y="2.5"/><text fill="#000000" font-family="sans-serif" font-size="7" lengthAdjust="spacing" textLength="122.5" x="50.25" y="13.5537">:VehicleNeedingMaintenanceController</text><rect fill="#E3E3E3" height="16.3105" rx="1.25" ry="1.25" style="stroke:#181818;stroke-width:0.25;" width="129.5" x="46.75" y="295.7842"/><text fill="#000000" font-family="sans-serif" font-size="7" lengthAdjust="spacing" textLength="122.5" x="50.25" y="306.8379">:VehicleNeedingMaintenanceController</text><rect fill="#E3E3E3" height="16.3105" rx="1.25" ry="1.25" style="stroke:#181818;stroke-width:0.25;" width="48.5" x="185.75" y="2.5"/><text fill="#000000" font-family="sans-serif" font-size="7" lengthAdjust="spacing" textLength="41.5" x="189.25" y="13.5537">:Repositories</text><rect fill="#E3E3E3" height="16.3105" rx="1.25" ry="1.25" style="stroke:#181818;stroke-width:0.25;" width="48.5" x="185.75" y="295.7842"/><text fill="#000000" font-family="sans-serif" font-size="7" lengthAdjust="spacing" textLength="41.5" x="189.25" y="306.8379">:Repositories</text><rect fill="#E3E3E3" height="16.3105" rx="1.25" ry="1.25" style="stroke:#181818;stroke-width:0.25;" width="71.5" x="239.25" y="2.5"/><text fill="#000000" font-family="sans-serif" font-size="7" lengthAdjust="spacing" textLength="64.5" x="242.75" y="13.5537">:CheckUpRepository</text><rect fill="#E3E3E3" height="16.3105" rx="1.25" ry="1.25" style="stroke:#181818;stroke-width:0.25;" width="71.5" x="239.25" y="295.7842"/><text fill="#000000" font-family="sans-serif" font-size="7" lengthAdjust="spacing" textLength="64.5" x="242.75" y="306.8379">:CheckUpRepository</text><rect fill="#E3E3E3" height="16.3105" rx="1.25" ry="1.25" style="stroke:#181818;stroke-width:0.25;" width="66" x="315.75" y="2.5"/><text fill="#000000" font-family="sans-serif" font-size="7" lengthAdjust="spacing" textLength="59" x="319.25" y="13.5537">:VehicleRepository</text><rect fill="#E3E3E3" height="16.3105" rx="1.25" ry="1.25" style="stroke:#181818;stroke-width:0.25;" width="66" x="315.75" y="295.7842"/><text fill="#000000" font-family="sans-serif" font-size="7" lengthAdjust="spacing" textLength="59" x="319.25" y="306.8379">:VehicleRepository</text><rect fill="#E3E3E3" height="16.3105" rx="1.25" ry="1.25" style="stroke:#181818;stroke-width:0.25;" width="132.5" x="386.75" y="2.5"/><text fill="#000000" font-family="sans-serif" font-size="7" lengthAdjust="spacing" textLength="125.5" x="390.25" y="13.5537">:VehicleNeedingMaintenanceRepository</text><rect fill="#E3E3E3" height="16.3105" rx="1.25" ry="1.25" style="stroke:#181818;stroke-width:0.25;" width="132.5" x="386.75" y="295.7842"/><text fill="#000000" font-family="sans-serif" font-size="7" lengthAdjust="spacing" textLength="125.5" x="390.25" y="306.8379">:VehicleNeedingMaintenanceRepository</text><rect fill="#E3E3E3" height="16.3105" rx="1.25" ry="1.25" style="stroke:#181818;stroke-width:0.25;" width="109.5" x="524.25" y="2.5"/><text fill="#000000" font-family="sans-serif" font-size="7" lengthAdjust="spacing" textLength="102.5" x="527.75" y="13.5537">:VehicleNeedingMaintenanceList</text><rect fill="#E3E3E3" height="16.3105" rx="1.25" ry="1.25" style="stroke:#181818;stroke-width:0.25;" width="109.5" x="524.25" y="295.7842"/><text fill="#000000" font-family="sans-serif" font-size="7" lengthAdjust="spacing" textLength="102.5" x="527.75" y="306.8379">:VehicleNeedingMaintenanceList</text><rect fill="#FFFFFF" height="250.8281" style="stroke:#181818;stroke-width:0.5;" width="5" x="111.5" y="40.9561"/><rect fill="#FFFFFF" height="246.3281" style="stroke:#181818;stroke-width:0.5;" width="5" x="111.5" y="40.9561"/><rect fill="#FFFFFF" height="15.6455" style="stroke:#181818;stroke-width:0.5;" width="5" x="207.5" y="64.7471"/><rect fill="#FFFFFF" height="15.6455" style="stroke:#181818;stroke-width:0.5;" width="5" x="207.5" y="96.0381"/><rect fill="#FFFFFF" height="15.6455" style="stroke:#181818;stroke-width:0.5;" width="5" x="207.5" y="158.6201"/><rect fill="#FFFFFF" height="15.6455" style="stroke:#181818;stroke-width:0.5;" width="5" x="272.5" y="127.3291"/><rect fill="#FFFFFF" height="23.1455" style="stroke:#181818;stroke-width:0.5;" width="5" x="346.25" y="189.9111"/><rect fill="#FFFFFF" height="15.6455" style="stroke:#181818;stroke-width:0.5;" width="5" x="450.5" y="224.7021"/><rect fill="#FFFFFF" height="15.6455" style="stroke:#181818;stroke-width:0.5;" width="5" x="576.5" y="255.9932"/><polygon fill="#181818" points="105.5,33.9561,110.5,35.9561,105.5,37.9561,107.5,35.9561" style="stroke:#181818;stroke-width:0.5;"/><line style="stroke:#181818;stroke-width:0.5;" x1="0" x2="108.5" y1="35.9561" y2="35.9561"/><text fill="#000000" font-family="sans-serif" font-size="6.5" font-weight="bold" lengthAdjust="spacing" textLength="3.5" x="3.5" y="33.3247">2</text><text fill="#000000" font-family="sans-serif" font-size="6.5" lengthAdjust="spacing" textLength="18" x="9" y="33.3247">create</text><path d="M41.75,43.4561 L156.25,43.4561 L156.25,48.1016 L151.25,53.1016 L41.75,53.1016 L41.75,43.4561 " fill="#EEEEEE" style="stroke:#000000;stroke-width:0.75;"/><rect fill="none" height="166.1006" style="stroke:#000000;stroke-width:0.75;" width="345" x="41.75" y="43.4561"/><text fill="#000000" font-family="sans-serif" font-size="6.5" font-weight="bold" lengthAdjust="spacing" textLength="92" x="49.25" y="50.9702">get checkUp and Vehicle List</text><polygon fill="#181818" points="201.5,62.7471,206.5,64.7471,201.5,66.7471,203.5,64.7471" style="stroke:#181818;stroke-width:0.5;"/><line style="stroke:#181818;stroke-width:0.5;" x1="116.5" x2="204.5" y1="64.7471" y2="64.7471"/><text fill="#000000" font-family="sans-serif" font-size="6.5" font-weight="bold" lengthAdjust="spacing" textLength="9" x="120" y="62.1157">2.1</text><text fill="#000000" font-family="sans-serif" font-size="6.5" lengthAdjust="spacing" textLength="37.5" x="131" y="62.1157">getInstance()</text><polygon fill="#181818" points="122,78.3926,117,80.3926,122,82.3926,120,80.3926" style="stroke:#181818;stroke-width:0.5;"/><line style="stroke:#181818;stroke-width:0.5;stroke-dasharray:2.0,2.0;" x1="119" x2="209.5" y1="80.3926" y2="80.3926"/><text fill="#000000" font-family="sans-serif" font-size="6.5" font-weight="bold" lengthAdjust="spacing" textLength="9" x="125" y="77.7612">2.2</text><text fill="#000000" font-family="sans-serif" font-size="6.5" lengthAdjust="spacing" textLength="33.5" x="136" y="77.7612">repositories</text><polygon fill="#181818" points="201.5,94.0381,206.5,96.0381,201.5,98.0381,203.5,96.0381" style="stroke:#181818;stroke-width:0.5;"/><line style="stroke:#181818;stroke-width:0.5;" x1="116.5" x2="204.5" y1="96.0381" y2="96.0381"/><text fill="#000000" font-family="sans-serif" font-size="6.5" font-weight="bold" lengthAdjust="spacing" textLength="9" x="120" y="93.4067">2.3</text><text fill="#000000" font-family="sans-serif" font-size="6.5" lengthAdjust="spacing" textLength="70.5" x="131" y="93.4067">getCheckUpRepository()</text><polygon fill="#181818" points="122,109.6836,117,111.6836,122,113.6836,120,111.6836" style="stroke:#181818;stroke-width:0.5;"/><line style="stroke:#181818;stroke-width:0.5;stroke-dasharray:2.0,2.0;" x1="119" x2="209.5" y1="111.6836" y2="111.6836"/><text fill="#000000" font-family="sans-serif" font-size="6.5" font-weight="bold" lengthAdjust="spacing" textLength="9" x="125" y="109.0522">2.4</text><text fill="#000000" font-family="sans-serif" font-size="6.5" lengthAdjust="spacing" textLength="57.5" x="136" y="109.0522">CheckUpRepository</text><polygon fill="#181818" points="266.5,125.3291,271.5,127.3291,266.5,129.3291,268.5,127.3291" style="stroke:#181818;stroke-width:0.5;"/><line style="stroke:#181818;stroke-width:0.5;" x1="116.5" x2="269.5" y1="127.3291" y2="127.3291"/><text fill="#000000" font-family="sans-serif" font-size="6.5" font-weight="bold" lengthAdjust="spacing" textLength="9" x="120" y="124.6978">2.5</text><text fill="#000000" font-family="sans-serif" font-size="6.5" lengthAdjust="spacing" textLength="53.5" x="131" y="124.6978">getCheckUpsList()</text><polygon fill="#181818" points="122,140.9746,117,142.9746,122,144.9746,120,142.9746" style="stroke:#181818;stroke-width:0.5;"/><line style="stroke:#181818;stroke-width:0.5;stroke-dasharray:2.0,2.0;" x1="119" x2="274.5" y1="142.9746" y2="142.9746"/><text fill="#000000" font-family="sans-serif" font-size="6.5" font-weight="bold" lengthAdjust="spacing" textLength="9" x="125" y="140.3433">2.6</text><text fill="#000000" font-family="sans-serif" font-size="6.5" lengthAdjust="spacing" textLength="37" x="136" y="140.3433">CheckUpList</text><polygon fill="#181818" points="201.5,156.6201,206.5,158.6201,201.5,160.6201,203.5,158.6201" style="stroke:#181818;stroke-width:0.5;"/><line style="stroke:#181818;stroke-width:0.5;" x1="116.5" x2="204.5" y1="158.6201" y2="158.6201"/><text fill="#000000" font-family="sans-serif" font-size="6.5" font-weight="bold" lengthAdjust="spacing" textLength="9" x="120" y="155.9888">2.7</text><text fill="#000000" font-family="sans-serif" font-size="6.5" lengthAdjust="spacing" textLength="65.5" x="131" y="155.9888">getVehicleRepository()</text><polygon fill="#181818" points="122,172.2656,117,174.2656,122,176.2656,120,174.2656" style="stroke:#181818;stroke-width:0.5;"/><line style="stroke:#181818;stroke-width:0.5;stroke-dasharray:2.0,2.0;" x1="119" x2="209.5" y1="174.2656" y2="174.2656"/><text fill="#000000" font-family="sans-serif" font-size="6.5" font-weight="bold" lengthAdjust="spacing" textLength="9" x="125" y="171.6343">2.8</text><text fill="#000000" font-family="sans-serif" font-size="6.5" lengthAdjust="spacing" textLength="52.5" x="136" y="171.6343">VehicleRepository</text><polygon fill="#181818" points="340.25,187.9111,345.25,189.9111,340.25,191.9111,342.25,189.9111" style="stroke:#181818;stroke-width:0.5;"/><line style="stroke:#181818;stroke-width:0.5;" x1="116.5" x2="343.25" y1="189.9111" y2="189.9111"/><text fill="#000000" font-family="sans-serif" font-size="6.5" font-weight="bold" lengthAdjust="spacing" textLength="9" x="120" y="187.2798">2.9</text><text fill="#000000" font-family="sans-serif" font-size="6.5" lengthAdjust="spacing" textLength="48.5" x="131" y="187.2798">getVehiclesList()</text><polygon fill="#181818" points="122,203.5566,117,205.5566,122,207.5566,120,205.5566" style="stroke:#181818;stroke-width:0.5;"/><line style="stroke:#181818;stroke-width:0.5;stroke-dasharray:2.0,2.0;" x1="119" x2="345.75" y1="205.5566" y2="205.5566"/><text fill="#000000" font-family="sans-serif" font-size="6.5" font-weight="bold" lengthAdjust="spacing" textLength="12.5" x="125" y="202.9253">2.10</text><text fill="#000000" font-family="sans-serif" font-size="6.5" lengthAdjust="spacing" textLength="35.5" x="139.5" y="202.9253">VehiclesList</text><polygon fill="#181818" points="444.5,222.7021,449.5,224.7021,444.5,226.7021,446.5,224.7021" style="stroke:#181818;stroke-width:0.5;"/><line style="stroke:#181818;stroke-width:0.5;" x1="116.5" x2="447.5" y1="224.7021" y2="224.7021"/><text fill="#000000" font-family="sans-serif" font-size="6.5" font-weight="bold" lengthAdjust="spacing" textLength="3.5" x="120" y="222.0708">3</text><text fill="#000000" font-family="sans-serif" font-size="6.5" lengthAdjust="spacing" textLength="125.5" x="125.5" y="222.0708">getVehiclesNeedingMaintenanceRepository</text><polygon fill="#181818" points="122,238.3477,117,240.3477,122,242.3477,120,240.3477" style="stroke:#181818;stroke-width:0.5;"/><line style="stroke:#181818;stroke-width:0.5;stroke-dasharray:2.0,2.0;" x1="119" x2="452.5" y1="240.3477" y2="240.3477"/><text fill="#000000" font-family="sans-serif" font-size="6.5" font-weight="bold" lengthAdjust="spacing" textLength="3.5" x="125" y="237.7163">4</text><text fill="#000000" font-family="sans-serif" font-size="6.5" lengthAdjust="spacing" textLength="114.5" x="130.5" y="237.7163">vehiclesNeedingMaintenanceRepository</text><polygon fill="#181818" points="570.5,253.9932,575.5,255.9932,570.5,257.9932,572.5,255.9932" style="stroke:#181818;stroke-width:0.5;"/><line style="stroke:#181818;stroke-width:0.5;" x1="116.5" x2="573.5" y1="255.9932" y2="255.9932"/><text fill="#000000" font-family="sans-serif" font-size="6.5" font-weight="bold" lengthAdjust="spacing" textLength="3.5" x="120" y="253.3618">5</text><text fill="#000000" font-family="sans-serif" font-size="6.5" lengthAdjust="spacing" textLength="184.5" x="125.5" y="253.3618">getVehiclesNeedingMaintenanceList (vehiclesList, checkUpList)</text><polygon fill="#181818" points="122,269.6387,117,271.6387,122,273.6387,120,271.6387" style="stroke:#181818;stroke-width:0.5;"/><line style="stroke:#181818;stroke-width:0.5;stroke-dasharray:2.0,2.0;" x1="119" x2="578.5" y1="271.6387" y2="271.6387"/><text fill="#000000" font-family="sans-serif" font-size="6.5" font-weight="bold" lengthAdjust="spacing" textLength="3.5" x="125" y="269.0073">6</text><text fill="#000000" font-family="sans-serif" font-size="6.5" lengthAdjust="spacing" textLength="94" x="130.5" y="269.0073">vehiclesNeedingMaintenanceList</text><polygon fill="#181818" points="5.5,285.2842,0.5,287.2842,5.5,289.2842,3.5,287.2842" style="stroke:#181818;stroke-width:0.5;"/><line style="stroke:#181818;stroke-width:0.5;stroke-dasharray:2.0,2.0;" x1="2.5" x2="108.5" y1="287.2842" y2="287.2842"/><text fill="#000000" font-family="sans-serif" font-size="6.5" font-weight="bold" lengthAdjust="spacing" textLength="3.5" x="8.5" y="284.6528">7</text><text fill="#000000" font-family="sans-serif" font-size="6.5" lengthAdjust="spacing" textLength="94" x="14" y="284.6528">vehiclesNeedingMaintenanceList</text><!--SRC=[pPRFJyCW5CVl_1KldjGu4-TjCLvsCb4Fc-wEzDcHTT00czb_B-nNIwaMDfl8hV3Uuyk7BmMzuAAaYYvXAOLaSoMN24QjaEZZI4dPWkOuDPi2GI4pLEH5FK3FQIQ_kCZXanOQ2Q4h8yLg-O6A41jYEECb5GOkHZESSrRWAs9curye5mO55Gp7KXWbYmBL1L0DuxV9SoDrWgNKt4Z5KMzZZXsRANUAx9oDbF4SsUAzh09tjPkzxHeRMRD9x58QYVv8R95dhaqptVKH0ljMGHvMdQuD7hVuhgzX14mXDUYFvqgkIiZH0DkH02eos2k1xIJrSCeCNziYkptnXgB6FQamlBqZxK5USxNSGbhssAxAQdyIsZWcbrVTnOuAsnpJdUvQcux17lJ87ehAcX45CpnJKIUTmE8Mqp_W59uyqZkhEgzWVe-MTjQF0LKvFdqzeOG0Zt_C8y2S8EFSz1usAS7UmHywojv_RlOKwmUIK-VeYV5iuY6DFWC_qRJNP6gkbH1mqi4r5D5Iur5aVKzHk_dkppbMwLWF6-m_Fxoz_ktfShe36k-Tn3f-TiqOwpv4rn6dwMx1wopRmTU5mEMwvl6RmoFCVNIUkpQnCTT5Kq8CrfYwxVXYCXy6Wnt3qoJKhw_ji_CR]--></g></svg>