<?xml version="1.0" encoding="us-ascii" standalone="no"?><svg xmlns="http://www.w3.org/2000/svg" xmlns:xlink="http://www.w3.org/1999/xlink" contentStyleType="text/css" height="480.6px" preserveAspectRatio="none" style="width:1526px;height:480px;background:#FFFFFF;" version="1.1" viewBox="0 0 1526 480" width="1526.4px" zoomAndPan="magnify"><defs/><g><rect fill="#FFFFFF" height="272.6191" style="stroke:#181818;stroke-width:0.9;" width="9" x="67.95" y="101.018"/><rect fill="#FFFFFF" height="259.7572" style="stroke:#181818;stroke-width:0.9;" width="9" x="363.15" y="121.9799"/><rect fill="#FFFFFF" height="186.3334" style="stroke:#181818;stroke-width:0.9;" width="9" x="584.55" y="159.1418"/><rect fill="#FFFFFF" height="28.1619" style="stroke:#181818;stroke-width:0.9;" width="9" x="1191.15" y="232.8275"/><rect fill="#FFFFFF" height="28.1619" style="stroke:#181818;stroke-width:0.9;" width="9" x="1417.95" y="289.1514"/><line style="stroke:#181818;stroke-width:0.45;stroke-dasharray:5.0,5.0;" x1="72" x2="72" y1="92.018" y2="389.8371"/><line style="stroke:#181818;stroke-width:0.45;stroke-dasharray:5.0,5.0;" x1="367.2" x2="367.2" y1="92.018" y2="389.8371"/><line style="stroke:#181818;stroke-width:0.45;stroke-dasharray:5.0,5.0;" x1="588.6" x2="588.6" y1="157.8094" y2="389.8371"/><line style="stroke:#181818;stroke-width:0.45;stroke-dasharray:5.0,5.0;" x1="757.8" x2="757.8" y1="92.018" y2="389.8371"/><line style="stroke:#181818;stroke-width:0.45;stroke-dasharray:5.0,5.0;" x1="874.8" x2="874.8" y1="92.018" y2="389.8371"/><line style="stroke:#181818;stroke-width:0.45;stroke-dasharray:5.0,5.0;" x1="1008" x2="1008" y1="92.018" y2="389.8371"/><line style="stroke:#181818;stroke-width:0.45;stroke-dasharray:5.0,5.0;" x1="1195.2" x2="1195.2" y1="92.018" y2="389.8371"/><line style="stroke:#181818;stroke-width:0.45;stroke-dasharray:5.0,5.0;" x1="1422" x2="1422" y1="92.018" y2="389.8371"/><text fill="#000000" font-family="sans-serif" font-size="12.6" lengthAdjust="spacing" textLength="130.5" x="4.5" y="72.0967">Vehicle and Equipment</text><text fill="#000000" font-family="sans-serif" font-size="12.6" lengthAdjust="spacing" textLength="82.8" x="30.15" y="88.8557">Fleet Manager</text><ellipse cx="72.45" cy="12.15" fill="#E3E3E3" rx="7.2" ry="7.2" style="stroke:#181818;stroke-width:0.45;"/><path d="M72.45,19.35 L72.45,43.65 M60.75,26.55 L84.15,26.55 M72.45,43.65 L60.75,57.15 M72.45,43.65 L84.15,57.15 " fill="none" style="stroke:#181818;stroke-width:0.45;"/><text fill="#000000" font-family="sans-serif" font-size="12.6" lengthAdjust="spacing" textLength="130.5" x="4.5" y="402.5338">Vehicle and Equipment</text><text fill="#000000" font-family="sans-serif" font-size="12.6" lengthAdjust="spacing" textLength="82.8" x="30.15" y="419.2928">Fleet Manager</text><ellipse cx="72.45" cy="430.1051" fill="#E3E3E3" rx="7.2" ry="7.2" style="stroke:#181818;stroke-width:0.45;"/><path d="M72.45,437.3051 L72.45,461.6051 M60.75,444.5051 L84.15,444.5051 M72.45,461.6051 L60.75,475.1051 M72.45,461.6051 L84.15,475.1051 " fill="none" style="stroke:#181818;stroke-width:0.45;"/><rect fill="#E3E3E3" height="29.359" rx="2.25" ry="2.25" style="stroke:#181818;stroke-width:0.45;" width="191.7" x="271.8" y="61.759"/><text fill="#000000" font-family="sans-serif" font-size="12.6" lengthAdjust="spacing" textLength="175.5" x="278.1" y="81.6557">:VehicleNeedingMaintenanceUI</text><rect fill="#E3E3E3" height="29.359" rx="2.25" ry="2.25" style="stroke:#181818;stroke-width:0.45;" width="191.7" x="271.8" y="388.9371"/><text fill="#000000" font-family="sans-serif" font-size="12.6" lengthAdjust="spacing" textLength="175.5" x="278.1" y="408.8338">:VehicleNeedingMaintenanceUI</text><rect fill="#E3E3E3" height="29.359" rx="2.25" ry="2.25" style="stroke:#181818;stroke-width:0.45;" width="233.1" x="472.5" y="388.9371"/><text fill="#000000" font-family="sans-serif" font-size="12.6" lengthAdjust="spacing" textLength="220.5" x="478.8" y="408.8338">:VehicleNeedingMaintenanceController</text><rect fill="#E3E3E3" height="29.359" rx="2.25" ry="2.25" style="stroke:#181818;stroke-width:0.45;" width="87.3" x="714.6" y="61.759"/><text fill="#000000" font-family="sans-serif" font-size="12.6" lengthAdjust="spacing" textLength="74.7" x="720.9" y="81.6557">:Repositories</text><rect fill="#E3E3E3" height="29.359" rx="2.25" ry="2.25" style="stroke:#181818;stroke-width:0.45;" width="87.3" x="714.6" y="388.9371"/><text fill="#000000" font-family="sans-serif" font-size="12.6" lengthAdjust="spacing" textLength="74.7" x="720.9" y="408.8338">:Repositories</text><rect fill="#E3E3E3" height="29.359" rx="2.25" ry="2.25" style="stroke:#181818;stroke-width:0.45;" width="128.7" x="810.9" y="61.759"/><text fill="#000000" font-family="sans-serif" font-size="12.6" lengthAdjust="spacing" textLength="116.1" x="817.2" y="81.6557">:CheckUpRepository</text><rect fill="#E3E3E3" height="29.359" rx="2.25" ry="2.25" style="stroke:#181818;stroke-width:0.45;" width="128.7" x="810.9" y="388.9371"/><text fill="#000000" font-family="sans-serif" font-size="12.6" lengthAdjust="spacing" textLength="116.1" x="817.2" y="408.8338">:CheckUpRepository</text><rect fill="#E3E3E3" height="29.359" rx="2.25" ry="2.25" style="stroke:#181818;stroke-width:0.45;" width="118.8" x="948.6" y="61.759"/><text fill="#000000" font-family="sans-serif" font-size="12.6" lengthAdjust="spacing" textLength="106.2" x="954.9" y="81.6557">:VehicleRepository</text><rect fill="#E3E3E3" height="29.359" rx="2.25" ry="2.25" style="stroke:#181818;stroke-width:0.45;" width="118.8" x="948.6" y="388.9371"/><text fill="#000000" font-family="sans-serif" font-size="12.6" lengthAdjust="spacing" textLength="106.2" x="954.9" y="408.8338">:VehicleRepository</text><rect fill="#E3E3E3" height="29.359" rx="2.25" ry="2.25" style="stroke:#181818;stroke-width:0.45;" width="238.5" x="1076.4" y="61.759"/><text fill="#000000" font-family="sans-serif" font-size="12.6" lengthAdjust="spacing" textLength="225.9" x="1082.7" y="81.6557">:VehicleNeedingMaintenanceRepository</text><rect fill="#E3E3E3" height="29.359" rx="2.25" ry="2.25" style="stroke:#181818;stroke-width:0.45;" width="238.5" x="1076.4" y="388.9371"/><text fill="#000000" font-family="sans-serif" font-size="12.6" lengthAdjust="spacing" textLength="225.9" x="1082.7" y="408.8338">:VehicleNeedingMaintenanceRepository</text><rect fill="#E3E3E3" height="29.359" rx="2.25" ry="2.25" style="stroke:#181818;stroke-width:0.45;" width="197.1" x="1323.9" y="61.759"/><text fill="#000000" font-family="sans-serif" font-size="12.6" lengthAdjust="spacing" textLength="184.5" x="1330.2" y="81.6557">:VehicleNeedingMaintenanceList</text><rect fill="#E3E3E3" height="29.359" rx="2.25" ry="2.25" style="stroke:#181818;stroke-width:0.45;" width="197.1" x="1323.9" y="388.9371"/><text fill="#000000" font-family="sans-serif" font-size="12.6" lengthAdjust="spacing" textLength="184.5" x="1330.2" y="408.8338">:VehicleNeedingMaintenanceList</text><rect fill="#FFFFFF" height="272.6191" style="stroke:#181818;stroke-width:0.9;" width="9" x="67.95" y="101.018"/><rect fill="#FFFFFF" height="259.7572" style="stroke:#181818;stroke-width:0.9;" width="9" x="363.15" y="121.9799"/><rect fill="#FFFFFF" height="186.3334" style="stroke:#181818;stroke-width:0.9;" width="9" x="584.55" y="159.1418"/><rect fill="#FFFFFF" height="28.1619" style="stroke:#181818;stroke-width:0.9;" width="9" x="1191.15" y="232.8275"/><rect fill="#FFFFFF" height="28.1619" style="stroke:#181818;stroke-width:0.9;" width="9" x="1417.95" y="289.1514"/><polygon fill="#181818" points="352.35,118.3799,361.35,121.9799,352.35,125.5799,355.95,121.9799" style="stroke:#181818;stroke-width:0.9;"/><line style="stroke:#181818;stroke-width:0.9;" x1="76.95" x2="357.75" y1="121.9799" y2="121.9799"/><text fill="#000000" font-family="sans-serif" font-size="11.7" font-weight="bold" lengthAdjust="spacing" textLength="6.3" x="83.25" y="117.2435">1</text><text fill="#000000" font-family="sans-serif" font-size="11.7" lengthAdjust="spacing" textLength="191.7" x="93.15" y="117.2435">ask to list vehicles needing check-up</text><polygon fill="#181818" points="461.7,146.5418,470.7,150.1418,461.7,153.7418,465.3,150.1418" style="stroke:#181818;stroke-width:0.9;"/><line style="stroke:#181818;stroke-width:0.9;" x1="372.15" x2="467.1" y1="150.1418" y2="150.1418"/><text fill="#000000" font-family="sans-serif" font-size="11.7" font-weight="bold" lengthAdjust="spacing" textLength="6.3" x="378.45" y="145.4054">2</text><text fill="#000000" font-family="sans-serif" font-size="11.7" lengthAdjust="spacing" textLength="32.4" x="388.35" y="145.4054">create</text><rect fill="#E3E3E3" height="29.359" rx="2.25" ry="2.25" style="stroke:#181818;stroke-width:0.45;" width="233.1" x="472.5" y="129.1799"/><text fill="#000000" font-family="sans-serif" font-size="12.6" lengthAdjust="spacing" textLength="220.5" x="478.8" y="149.0766">:VehicleNeedingMaintenanceController</text><rect fill="none" height="38.9268" style="stroke:#000000;stroke-width:1.35;" width="238.5" x="469.8" y="168.4389"/><path d="M469.8,168.4389 L525.6,168.4389 L525.6,176.5389 L516.6,185.5389 L469.8,185.5389 L469.8,168.4389 " fill="#EEEEEE" style="stroke:#000000;stroke-width:1.8;"/><text fill="#000000" font-family="sans-serif" font-size="11.7" font-weight="bold" lengthAdjust="spacing" textLength="15.3" x="481.5" y="182.8644">ref</text><text fill="#000000" font-family="sans-serif" font-size="10.8" lengthAdjust="spacing" textLength="146.7" x="515.7" y="200.7932">Get CheckUp and Vehicle List</text><polygon fill="#181818" points="1180.35,229.2275,1189.35,232.8275,1180.35,236.4275,1183.95,232.8275" style="stroke:#181818;stroke-width:0.9;"/><line style="stroke:#181818;stroke-width:0.9;" x1="593.55" x2="1185.75" y1="232.8275" y2="232.8275"/><text fill="#000000" font-family="sans-serif" font-size="11.7" font-weight="bold" lengthAdjust="spacing" textLength="6.3" x="599.85" y="228.0911">3</text><text fill="#000000" font-family="sans-serif" font-size="11.7" lengthAdjust="spacing" textLength="225.9" x="609.75" y="228.0911">getVehiclesNeedingMaintenanceRepository</text><polygon fill="#181818" points="603.45,257.3895,594.45,260.9895,603.45,264.5895,599.85,260.9895" style="stroke:#181818;stroke-width:0.9;"/><line style="stroke:#181818;stroke-width:0.9;stroke-dasharray:2.0,2.0;" x1="598.05" x2="1194.75" y1="260.9895" y2="260.9895"/><text fill="#000000" font-family="sans-serif" font-size="11.7" font-weight="bold" lengthAdjust="spacing" textLength="6.3" x="608.85" y="256.253">4</text><text fill="#000000" font-family="sans-serif" font-size="11.7" lengthAdjust="spacing" textLength="206.1" x="618.75" y="256.253">vehiclesNeedingMaintenanceRepository</text><polygon fill="#181818" points="1407.15,285.5514,1416.15,289.1514,1407.15,292.7514,1410.75,289.1514" style="stroke:#181818;stroke-width:0.9;"/><line style="stroke:#181818;stroke-width:0.9;" x1="593.55" x2="1412.55" y1="289.1514" y2="289.1514"/><text fill="#000000" font-family="sans-serif" font-size="11.7" font-weight="bold" lengthAdjust="spacing" textLength="6.3" x="599.85" y="284.4149">5</text><text fill="#000000" font-family="sans-serif" font-size="11.7" lengthAdjust="spacing" textLength="332.1" x="609.75" y="284.4149">getVehiclesNeedingMaintenanceList (vehiclesList, checkUpList)</text><polygon fill="#181818" points="603.45,313.7133,594.45,317.3133,603.45,320.9133,599.85,317.3133" style="stroke:#181818;stroke-width:0.9;"/><line style="stroke:#181818;stroke-width:0.9;stroke-dasharray:2.0,2.0;" x1="598.05" x2="1421.55" y1="317.3133" y2="317.3133"/><text fill="#000000" font-family="sans-serif" font-size="11.7" font-weight="bold" lengthAdjust="spacing" textLength="6.3" x="608.85" y="312.5769">6</text><text fill="#000000" font-family="sans-serif" font-size="11.7" lengthAdjust="spacing" textLength="169.2" x="618.75" y="312.5769">vehiclesNeedingMaintenanceList</text><polygon fill="#181818" points="382.05,341.8752,373.05,345.4752,382.05,349.0752,378.45,345.4752" style="stroke:#181818;stroke-width:0.9;"/><line style="stroke:#181818;stroke-width:0.9;" x1="376.65" x2="588.15" y1="345.4752" y2="345.4752"/><text fill="#000000" font-family="sans-serif" font-size="11.7" font-weight="bold" lengthAdjust="spacing" textLength="6.3" x="387.45" y="340.7388">7</text><text fill="#000000" font-family="sans-serif" font-size="11.7" lengthAdjust="spacing" textLength="169.2" x="397.35" y="340.7388">vehiclesNeedingMaintenanceList</text><polygon fill="#181818" points="82.35,370.0371,73.35,373.6371,82.35,377.2371,78.75,373.6371" style="stroke:#181818;stroke-width:0.9;"/><line style="stroke:#181818;stroke-width:0.9;" x1="76.95" x2="362.25" y1="373.6371" y2="373.6371"/><text fill="#000000" font-family="sans-serif" font-size="11.7" font-weight="bold" lengthAdjust="spacing" textLength="6.3" x="87.75" y="368.9007">8</text><text fill="#000000" font-family="sans-serif" font-size="11.7" lengthAdjust="spacing" textLength="254.7" x="97.65" y="368.9007">displays the list of vehicles needing the check-up</text><!--SRC=[hLHDKy8m4BttL-nmKaR-G0zU676S0GyWdBp4TA4PsYGcAGx_tarQ2YsjLCSzjTbzRpzUidOlf6Q6vP0hgNXgL8xWJ86HhJsQyJtRuSeTCmI3t36voou3RCeIzINa3hOiinX5h71A5la76lhcJXaORJ0LdF1C9l3qMGYTetJl4cOPeeC5avJ1Z81PsCmM4V4wmOLcqi4ehh2lY0abMJ0X7KecEQvV843MBqCHKoMTKLbMvPg-BUSjw1Arie9g5cX3J7rmN0dVEBNMWanJvFkrFWUMtEtJxXfRgCroQ2ijODCpb6Gkh6l3_LdGJHoOmw1719NH3qmUQU0G4seFJa56uN0e4rYGPGhWllj9eS_Gcf3KgW-z4HbHUYd6OwBb1Ycg6L9ZWs0DLp23Mr07DAKVUkoPRbgbIhY7fpiP6hwAHeeWtkjiFeUlk3dn67ReAaRxarfHRtqzLZVValYNF4qqJAgPnxLs_req9DXRzosoZW5xYMvCs8V0tQaP__TGtiArzZ_tjx9sbLi-XS5p3IKC6UmGtku13a6UvXTUwT-Bk2YW-zcL3zUlX1WIONN6ZXPSYkLAKDlhhU2TvyrmaS0lcMy0]--></g></svg>