<?xml version="1.0" encoding="us-ascii" standalone="no"?><svg xmlns="http://www.w3.org/2000/svg" xmlns:xlink="http://www.w3.org/1999/xlink" contentStyleType="text/css" height="559.3px" preserveAspectRatio="none" style="width:1192px;height:559px;background:#FFFFFF;" version="1.1" viewBox="0 0 1192 559" width="1192.1px" zoomAndPan="magnify"><defs/><g><rect fill="#FFFFFF" height="397.2979" style="stroke:#181818;stroke-width:0.6999999999999998;" width="7" x="52.85" y="78.5695"/><rect fill="#FFFFFF" height="387.2941" style="stroke:#181818;stroke-width:0.6999999999999998;" width="7" x="287.35" y="94.8732"/><rect fill="#FFFFFF" height="330.1867" style="stroke:#181818;stroke-width:0.6999999999999998;" width="7" x="459.55" y="123.777"/><rect fill="#FFFFFF" height="21.9037" style="stroke:#181818;stroke-width:0.6999999999999998;" width="7" x="591.15" y="147.3117"/><rect fill="#FFFFFF" height="21.9037" style="stroke:#181818;stroke-width:0.6999999999999998;" width="7" x="591.15" y="191.1191"/><rect fill="#FFFFFF" height="21.9037" style="stroke:#181818;stroke-width:0.6999999999999998;" width="7" x="591.15" y="278.734"/><rect fill="#FFFFFF" height="21.9037" style="stroke:#181818;stroke-width:0.6999999999999998;" width="7" x="682.15" y="234.9266"/><rect fill="#FFFFFF" height="21.9037" style="stroke:#181818;stroke-width:0.6999999999999998;" width="7" x="785.4" y="322.5414"/><rect fill="#FFFFFF" height="21.9037" style="stroke:#181818;stroke-width:0.6999999999999998;" width="7" x="931.35" y="366.3488"/><rect fill="#FFFFFF" height="21.9037" style="stroke:#181818;stroke-width:0.6999999999999998;" width="7" x="1107.75" y="410.1562"/><line style="stroke:#181818;stroke-width:0.3499999999999999;stroke-dasharray:5.0,5.0;" x1="56" x2="56" y1="71.5695" y2="488.4674"/><line style="stroke:#181818;stroke-width:0.3499999999999999;stroke-dasharray:5.0,5.0;" x1="290.5" x2="290.5" y1="71.5695" y2="488.4674"/><line style="stroke:#181818;stroke-width:0.3499999999999999;stroke-dasharray:5.0,5.0;" x1="462.7" x2="462.7" y1="122.7406" y2="488.4674"/><line style="stroke:#181818;stroke-width:0.3499999999999999;stroke-dasharray:5.0,5.0;" x1="594.3" x2="594.3" y1="71.5695" y2="488.4674"/><line style="stroke:#181818;stroke-width:0.3499999999999999;stroke-dasharray:5.0,5.0;" x1="685.3" x2="685.3" y1="71.5695" y2="488.4674"/><line style="stroke:#181818;stroke-width:0.3499999999999999;stroke-dasharray:5.0,5.0;" x1="788.9" x2="788.9" y1="71.5695" y2="488.4674"/><line style="stroke:#181818;stroke-width:0.3499999999999999;stroke-dasharray:5.0,5.0;" x1="934.5" x2="934.5" y1="71.5695" y2="488.4674"/><line style="stroke:#181818;stroke-width:0.3499999999999999;stroke-dasharray:5.0,5.0;" x1="1110.9" x2="1110.9" y1="71.5695" y2="488.4674"/><text fill="#000000" font-family="sans-serif" font-size="9.8" lengthAdjust="spacing" textLength="101.5" x="3.5" y="56.0752">Vehicle and Equipment</text><text fill="#000000" font-family="sans-serif" font-size="9.8" lengthAdjust="spacing" textLength="64.4" x="23.45" y="69.11">Fleet Manager</text><ellipse cx="56.35" cy="9.45" fill="#E3E3E3" rx="5.6" ry="5.6" style="stroke:#181818;stroke-width:0.3499999999999999;"/><path d="M56.35,15.05 L56.35,33.95 M47.25,20.65 L65.45,20.65 M56.35,33.95 L47.25,44.45 M56.35,33.95 L65.45,44.45 " fill="none" style="stroke:#181818;stroke-width:0.3499999999999999;"/><text fill="#000000" font-family="sans-serif" font-size="9.8" lengthAdjust="spacing" textLength="101.5" x="3.5" y="498.3426">Vehicle and Equipment</text><text fill="#000000" font-family="sans-serif" font-size="9.8" lengthAdjust="spacing" textLength="64.4" x="23.45" y="511.3773">Fleet Manager</text><ellipse cx="56.35" cy="519.7869" fill="#E3E3E3" rx="5.6" ry="5.6" style="stroke:#181818;stroke-width:0.3499999999999999;"/><path d="M56.35,525.3869 L56.35,544.2869 M47.25,530.9869 L65.45,530.9869 M56.35,544.2869 L47.25,554.7869 M56.35,544.2869 L65.45,554.7869 " fill="none" style="stroke:#181818;stroke-width:0.3499999999999999;"/><rect fill="#E3E3E3" height="22.8348" rx="1.75" ry="1.75" style="stroke:#181818;stroke-width:0.3499999999999999;" width="149.1" x="216.3" y="48.0348"/><text fill="#000000" font-family="sans-serif" font-size="9.8" lengthAdjust="spacing" textLength="136.5" x="221.2" y="63.51">:VehicleNeedingMaintenanceUI</text><rect fill="#E3E3E3" height="22.8348" rx="1.75" ry="1.75" style="stroke:#181818;stroke-width:0.3499999999999999;" width="149.1" x="216.3" y="487.7674"/><text fill="#000000" font-family="sans-serif" font-size="9.8" lengthAdjust="spacing" textLength="136.5" x="221.2" y="503.2426">:VehicleNeedingMaintenanceUI</text><rect fill="#E3E3E3" height="22.8348" rx="1.75" ry="1.75" style="stroke:#181818;stroke-width:0.3499999999999999;" width="181.3" x="372.4" y="487.7674"/><text fill="#000000" font-family="sans-serif" font-size="9.8" lengthAdjust="spacing" textLength="171.5" x="377.3" y="503.2426">:VehicleNeedingMaintenanceController</text><rect fill="#E3E3E3" height="22.8348" rx="1.75" ry="1.75" style="stroke:#181818;stroke-width:0.3499999999999999;" width="67.9" x="560.7" y="48.0348"/><text fill="#000000" font-family="sans-serif" font-size="9.8" lengthAdjust="spacing" textLength="58.1" x="565.6" y="63.51">:Repositories</text><rect fill="#E3E3E3" height="22.8348" rx="1.75" ry="1.75" style="stroke:#181818;stroke-width:0.3499999999999999;" width="67.9" x="560.7" y="487.7674"/><text fill="#000000" font-family="sans-serif" font-size="9.8" lengthAdjust="spacing" textLength="58.1" x="565.6" y="503.2426">:Repositories</text><rect fill="#E3E3E3" height="22.8348" rx="1.75" ry="1.75" style="stroke:#181818;stroke-width:0.3499999999999999;" width="100.1" x="635.6" y="48.0348"/><text fill="#000000" font-family="sans-serif" font-size="9.8" lengthAdjust="spacing" textLength="90.3" x="640.5" y="63.51">:CheckUpRepository</text><rect fill="#E3E3E3" height="22.8348" rx="1.75" ry="1.75" style="stroke:#181818;stroke-width:0.3499999999999999;" width="100.1" x="635.6" y="487.7674"/><text fill="#000000" font-family="sans-serif" font-size="9.8" lengthAdjust="spacing" textLength="90.3" x="640.5" y="503.2426">:CheckUpRepository</text><rect fill="#E3E3E3" height="22.8348" rx="1.75" ry="1.75" style="stroke:#181818;stroke-width:0.3499999999999999;" width="92.4" x="742.7" y="48.0348"/><text fill="#000000" font-family="sans-serif" font-size="9.8" lengthAdjust="spacing" textLength="82.6" x="747.6" y="63.51">:VehicleRepository</text><rect fill="#E3E3E3" height="22.8348" rx="1.75" ry="1.75" style="stroke:#181818;stroke-width:0.3499999999999999;" width="92.4" x="742.7" y="487.7674"/><text fill="#000000" font-family="sans-serif" font-size="9.8" lengthAdjust="spacing" textLength="82.6" x="747.6" y="503.2426">:VehicleRepository</text><rect fill="#E3E3E3" height="22.8348" rx="1.75" ry="1.75" style="stroke:#181818;stroke-width:0.3499999999999999;" width="185.5" x="842.1" y="48.0348"/><text fill="#000000" font-family="sans-serif" font-size="9.8" lengthAdjust="spacing" textLength="175.7" x="847" y="63.51">:VehicleNeedingMaintenanceRepository</text><rect fill="#E3E3E3" height="22.8348" rx="1.75" ry="1.75" style="stroke:#181818;stroke-width:0.3499999999999999;" width="185.5" x="842.1" y="487.7674"/><text fill="#000000" font-family="sans-serif" font-size="9.8" lengthAdjust="spacing" textLength="175.7" x="847" y="503.2426">:VehicleNeedingMaintenanceRepository</text><rect fill="#E3E3E3" height="22.8348" rx="1.75" ry="1.75" style="stroke:#181818;stroke-width:0.3499999999999999;" width="153.3" x="1034.6" y="48.0348"/><text fill="#000000" font-family="sans-serif" font-size="9.8" lengthAdjust="spacing" textLength="143.5" x="1039.5" y="63.51">:VehicleNeedingMaintenanceList</text><rect fill="#E3E3E3" height="22.8348" rx="1.75" ry="1.75" style="stroke:#181818;stroke-width:0.3499999999999999;" width="153.3" x="1034.6" y="487.7674"/><text fill="#000000" font-family="sans-serif" font-size="9.8" lengthAdjust="spacing" textLength="143.5" x="1039.5" y="503.2426">:VehicleNeedingMaintenanceList</text><rect fill="#FFFFFF" height="397.2979" style="stroke:#181818;stroke-width:0.6999999999999998;" width="7" x="52.85" y="78.5695"/><rect fill="#FFFFFF" height="387.2941" style="stroke:#181818;stroke-width:0.6999999999999998;" width="7" x="287.35" y="94.8732"/><rect fill="#FFFFFF" height="330.1867" style="stroke:#181818;stroke-width:0.6999999999999998;" width="7" x="459.55" y="123.777"/><rect fill="#FFFFFF" height="21.9037" style="stroke:#181818;stroke-width:0.6999999999999998;" width="7" x="591.15" y="147.3117"/><rect fill="#FFFFFF" height="21.9037" style="stroke:#181818;stroke-width:0.6999999999999998;" width="7" x="591.15" y="191.1191"/><rect fill="#FFFFFF" height="21.9037" style="stroke:#181818;stroke-width:0.6999999999999998;" width="7" x="591.15" y="278.734"/><rect fill="#FFFFFF" height="21.9037" style="stroke:#181818;stroke-width:0.6999999999999998;" width="7" x="682.15" y="234.9266"/><rect fill="#FFFFFF" height="21.9037" style="stroke:#181818;stroke-width:0.6999999999999998;" width="7" x="785.4" y="322.5414"/><rect fill="#FFFFFF" height="21.9037" style="stroke:#181818;stroke-width:0.6999999999999998;" width="7" x="931.35" y="366.3488"/><rect fill="#FFFFFF" height="21.9037" style="stroke:#181818;stroke-width:0.6999999999999998;" width="7" x="1107.75" y="410.1562"/><polygon fill="#181818" points="278.95,92.0732,285.95,94.8732,278.95,97.6732,281.75,94.8732" style="stroke:#181818;stroke-width:0.6999999999999998;"/><line style="stroke:#181818;stroke-width:0.6999999999999998;" x1="59.85" x2="283.15" y1="94.8732" y2="94.8732"/><text fill="#000000" font-family="sans-serif" font-size="9.1" font-weight="bold" lengthAdjust="spacing" textLength="4.9" x="64.75" y="91.1894">1</text><text fill="#000000" font-family="sans-serif" font-size="9.1" lengthAdjust="spacing" textLength="149.1" x="72.45" y="91.1894">ask to list vehicles needing check-up</text><polygon fill="#181818" points="364,113.977,371,116.777,364,119.577,366.8,116.777" style="stroke:#181818;stroke-width:0.6999999999999998;"/><line style="stroke:#181818;stroke-width:0.6999999999999998;" x1="294.35" x2="368.2" y1="116.777" y2="116.777"/><text fill="#000000" font-family="sans-serif" font-size="9.1" font-weight="bold" lengthAdjust="spacing" textLength="4.9" x="299.25" y="113.0931">2</text><text fill="#000000" font-family="sans-serif" font-size="9.1" lengthAdjust="spacing" textLength="25.2" x="306.95" y="113.0931">create</text><rect fill="#E3E3E3" height="22.8348" rx="1.75" ry="1.75" style="stroke:#181818;stroke-width:0.3499999999999999;" width="181.3" x="372.4" y="100.4732"/><text fill="#000000" font-family="sans-serif" font-size="9.8" lengthAdjust="spacing" textLength="171.5" x="377.3" y="115.9484">:VehicleNeedingMaintenanceController</text><polygon fill="#181818" points="582.75,144.5117,589.75,147.3117,582.75,150.1117,585.55,147.3117" style="stroke:#181818;stroke-width:0.6999999999999998;"/><line style="stroke:#181818;stroke-width:0.6999999999999998;" x1="466.55" x2="586.95" y1="147.3117" y2="147.3117"/><text fill="#000000" font-family="sans-serif" font-size="9.1" font-weight="bold" lengthAdjust="spacing" textLength="4.9" x="471.45" y="143.6278">3</text><text fill="#000000" font-family="sans-serif" font-size="9.1" lengthAdjust="spacing" textLength="52.5" x="479.15" y="143.6278">getInstance()</text><polygon fill="#181818" points="474.25,166.4154,467.25,169.2154,474.25,172.0154,471.45,169.2154" style="stroke:#181818;stroke-width:0.6999999999999998;"/><line style="stroke:#181818;stroke-width:0.6999999999999998;stroke-dasharray:2.0,2.0;" x1="470.05" x2="593.95" y1="169.2154" y2="169.2154"/><text fill="#000000" font-family="sans-serif" font-size="9.1" font-weight="bold" lengthAdjust="spacing" textLength="4.9" x="478.45" y="165.5315">4</text><text fill="#000000" font-family="sans-serif" font-size="9.1" lengthAdjust="spacing" textLength="46.9" x="486.15" y="165.5315">repositories</text><polygon fill="#181818" points="582.75,188.3191,589.75,191.1191,582.75,193.9191,585.55,191.1191" style="stroke:#181818;stroke-width:0.6999999999999998;"/><line style="stroke:#181818;stroke-width:0.6999999999999998;" x1="466.55" x2="586.95" y1="191.1191" y2="191.1191"/><text fill="#000000" font-family="sans-serif" font-size="9.1" font-weight="bold" lengthAdjust="spacing" textLength="4.9" x="471.45" y="187.4353">5</text><text fill="#000000" font-family="sans-serif" font-size="9.1" lengthAdjust="spacing" textLength="98.7" x="479.15" y="187.4353">getCheckUpRepository()</text><polygon fill="#181818" points="474.25,210.2229,467.25,213.0229,474.25,215.8229,471.45,213.0229" style="stroke:#181818;stroke-width:0.6999999999999998;"/><line style="stroke:#181818;stroke-width:0.6999999999999998;stroke-dasharray:2.0,2.0;" x1="470.05" x2="593.95" y1="213.0229" y2="213.0229"/><text fill="#000000" font-family="sans-serif" font-size="9.1" font-weight="bold" lengthAdjust="spacing" textLength="4.9" x="478.45" y="209.339">6</text><text fill="#000000" font-family="sans-serif" font-size="9.1" lengthAdjust="spacing" textLength="80.5" x="486.15" y="209.339">CheckUpRepository</text><polygon fill="#181818" points="673.75,232.1266,680.75,234.9266,673.75,237.7266,676.55,234.9266" style="stroke:#181818;stroke-width:0.6999999999999998;"/><line style="stroke:#181818;stroke-width:0.6999999999999998;" x1="466.55" x2="677.95" y1="234.9266" y2="234.9266"/><text fill="#000000" font-family="sans-serif" font-size="9.1" font-weight="bold" lengthAdjust="spacing" textLength="4.9" x="471.45" y="231.2427">7</text><text fill="#000000" font-family="sans-serif" font-size="9.1" lengthAdjust="spacing" textLength="74.9" x="479.15" y="231.2427">getCheckUpsList()</text><polygon fill="#181818" points="474.25,254.0303,467.25,256.8303,474.25,259.6303,471.45,256.8303" style="stroke:#181818;stroke-width:0.6999999999999998;"/><line style="stroke:#181818;stroke-width:0.6999999999999998;stroke-dasharray:2.0,2.0;" x1="470.05" x2="684.95" y1="256.8303" y2="256.8303"/><text fill="#000000" font-family="sans-serif" font-size="9.1" font-weight="bold" lengthAdjust="spacing" textLength="4.9" x="478.45" y="253.1464">8</text><text fill="#000000" font-family="sans-serif" font-size="9.1" lengthAdjust="spacing" textLength="51.8" x="486.15" y="253.1464">CheckUpList</text><polygon fill="#181818" points="582.75,275.934,589.75,278.734,582.75,281.534,585.55,278.734" style="stroke:#181818;stroke-width:0.6999999999999998;"/><line style="stroke:#181818;stroke-width:0.6999999999999998;" x1="466.55" x2="586.95" y1="278.734" y2="278.734"/><text fill="#000000" font-family="sans-serif" font-size="9.1" font-weight="bold" lengthAdjust="spacing" textLength="4.9" x="471.45" y="275.0501">9</text><text fill="#000000" font-family="sans-serif" font-size="9.1" lengthAdjust="spacing" textLength="91.7" x="479.15" y="275.0501">getVehicleRepository()</text><polygon fill="#181818" points="474.25,297.8377,467.25,300.6377,474.25,303.4377,471.45,300.6377" style="stroke:#181818;stroke-width:0.6999999999999998;"/><line style="stroke:#181818;stroke-width:0.6999999999999998;stroke-dasharray:2.0,2.0;" x1="470.05" x2="593.95" y1="300.6377" y2="300.6377"/><text fill="#000000" font-family="sans-serif" font-size="9.1" font-weight="bold" lengthAdjust="spacing" textLength="9.8" x="478.45" y="296.9538">10</text><text fill="#000000" font-family="sans-serif" font-size="9.1" lengthAdjust="spacing" textLength="73.5" x="491.05" y="296.9538">VehicleRepository</text><polygon fill="#181818" points="777,319.7414,784,322.5414,777,325.3414,779.8,322.5414" style="stroke:#181818;stroke-width:0.6999999999999998;"/><line style="stroke:#181818;stroke-width:0.6999999999999998;" x1="466.55" x2="781.2" y1="322.5414" y2="322.5414"/><text fill="#000000" font-family="sans-serif" font-size="9.1" font-weight="bold" lengthAdjust="spacing" textLength="9.8" x="471.45" y="318.8575">11</text><text fill="#000000" font-family="sans-serif" font-size="9.1" lengthAdjust="spacing" textLength="67.9" x="484.05" y="318.8575">getVehiclesList()</text><polygon fill="#181818" points="474.25,341.6451,467.25,344.4451,474.25,347.2451,471.45,344.4451" style="stroke:#181818;stroke-width:0.6999999999999998;"/><line style="stroke:#181818;stroke-width:0.6999999999999998;stroke-dasharray:2.0,2.0;" x1="470.05" x2="788.2" y1="344.4451" y2="344.4451"/><text fill="#000000" font-family="sans-serif" font-size="9.1" font-weight="bold" lengthAdjust="spacing" textLength="9.8" x="478.45" y="340.7612">12</text><text fill="#000000" font-family="sans-serif" font-size="9.1" lengthAdjust="spacing" textLength="49.7" x="491.05" y="340.7612">VehiclesList</text><polygon fill="#181818" points="922.95,363.5488,929.95,366.3488,922.95,369.1488,925.75,366.3488" style="stroke:#181818;stroke-width:0.6999999999999998;"/><line style="stroke:#181818;stroke-width:0.6999999999999998;" x1="466.55" x2="927.15" y1="366.3488" y2="366.3488"/><text fill="#000000" font-family="sans-serif" font-size="9.1" font-weight="bold" lengthAdjust="spacing" textLength="9.8" x="471.45" y="362.6649">13</text><text fill="#000000" font-family="sans-serif" font-size="9.1" lengthAdjust="spacing" textLength="175.7" x="484.05" y="362.6649">getVehiclesNeedingMaintenanceRepository</text><polygon fill="#181818" points="474.25,385.4525,467.25,388.2525,474.25,391.0525,471.45,388.2525" style="stroke:#181818;stroke-width:0.6999999999999998;"/><line style="stroke:#181818;stroke-width:0.6999999999999998;stroke-dasharray:2.0,2.0;" x1="470.05" x2="934.15" y1="388.2525" y2="388.2525"/><text fill="#000000" font-family="sans-serif" font-size="9.1" font-weight="bold" lengthAdjust="spacing" textLength="9.8" x="478.45" y="384.5687">14</text><text fill="#000000" font-family="sans-serif" font-size="9.1" lengthAdjust="spacing" textLength="160.3" x="491.05" y="384.5687">vehiclesNeedingMaintenanceRepository</text><polygon fill="#181818" points="1099.35,407.3562,1106.35,410.1562,1099.35,412.9562,1102.15,410.1562" style="stroke:#181818;stroke-width:0.6999999999999998;"/><line style="stroke:#181818;stroke-width:0.6999999999999998;" x1="466.55" x2="1103.55" y1="410.1562" y2="410.1562"/><text fill="#000000" font-family="sans-serif" font-size="9.1" font-weight="bold" lengthAdjust="spacing" textLength="9.8" x="471.45" y="406.4724">15</text><text fill="#000000" font-family="sans-serif" font-size="9.1" lengthAdjust="spacing" textLength="258.3" x="484.05" y="406.4724">getVehiclesNeedingMaintenanceList (vehiclesList, checkUpList)</text><polygon fill="#181818" points="474.25,429.26,467.25,432.06,474.25,434.86,471.45,432.06" style="stroke:#181818;stroke-width:0.6999999999999998;"/><line style="stroke:#181818;stroke-width:0.6999999999999998;stroke-dasharray:2.0,2.0;" x1="470.05" x2="1110.55" y1="432.06" y2="432.06"/><text fill="#000000" font-family="sans-serif" font-size="9.1" font-weight="bold" lengthAdjust="spacing" textLength="9.8" x="478.45" y="428.3761">16</text><text fill="#000000" font-family="sans-serif" font-size="9.1" lengthAdjust="spacing" textLength="131.6" x="491.05" y="428.3761">vehiclesNeedingMaintenanceList</text><polygon fill="#181818" points="302.05,451.1637,295.05,453.9637,302.05,456.7637,299.25,453.9637" style="stroke:#181818;stroke-width:0.6999999999999998;"/><line style="stroke:#181818;stroke-width:0.6999999999999998;" x1="297.85" x2="462.35" y1="453.9637" y2="453.9637"/><text fill="#000000" font-family="sans-serif" font-size="9.1" font-weight="bold" lengthAdjust="spacing" textLength="9.8" x="306.25" y="450.2798">17</text><text fill="#000000" font-family="sans-serif" font-size="9.1" lengthAdjust="spacing" textLength="131.6" x="318.85" y="450.2798">vehiclesNeedingMaintenanceList</text><polygon fill="#181818" points="64.05,473.0674,57.05,475.8674,64.05,478.6674,61.25,475.8674" style="stroke:#181818;stroke-width:0.6999999999999998;"/><line style="stroke:#181818;stroke-width:0.6999999999999998;" x1="59.85" x2="286.65" y1="475.8674" y2="475.8674"/><text fill="#000000" font-family="sans-serif" font-size="9.1" font-weight="bold" lengthAdjust="spacing" textLength="9.8" x="68.25" y="472.1835">18</text><text fill="#000000" font-family="sans-serif" font-size="9.1" lengthAdjust="spacing" textLength="198.1" x="80.85" y="472.1835">displays the list of vehicles needing the check-up</text><!--SRC=[jLRBKkim3DtdApHT0KD_e0is7PZf36LHQ5Ttu-k8njF43hRJE_txAoSbBxiaeU1LQ-j8EjA9BNCGCcUQPP0fgNYYLOPWTO6HgKzonWziZw_sb29ev9R9VTesC0cBrJyXz_3EKeDHn0ghP97zHKs_kLKQPZjC12Syap4yVXGYpr3QFnAUKaGBQoOfWfu1Cx1xMaVarmekSYOjp1Pdx0jYJ47MJ4YBaacEsnMKaErgB6AffDKgJS-nbc-RvnvqWxaoWd8MQ4gRUkFqAXnnejQ3B1FaXstU65Q- -xlX77ketMOibHwmUpBMoRCmjWztUsNVn95PBFiHmNdH7vW_KC5XGQW3M0KfcSEn2c10LY60E_Rp8c-WjKFgLhtf5ZaZbwuLTtVabciagwv9ZIqRrZboo-qw7u5MaSCzsfKqrb6xkVMmjUjGdprhjq9HvcS62_f06ltu-1YdnHjavgcCAFuwHr_QqPKysrmzxnscniapGBAHo61oVW2FMlKDN2Or76IYzVNbco0Qx-e9YUPQ2KqHb9VGWCkVgSzkqod79MLTgWHTrGEc5C3ZQ8BIkinlCCedc-u3q27srUCnccxlWVaQrZLkLU7u0ocrgZCfgL2fN3S6QkLCuEROQjzzzRnLryJjToeuHWJz5COKSQAu9Y8_wrS-_zzFedqp1j_pQY9miyO2Oc7ob9qCs0IhMKEz- -E6Esn6ZlRdGzFBVm00]--></g></svg>