<?xml version="1.0" encoding="us-ascii" standalone="no"?><svg xmlns="http://www.w3.org/2000/svg" xmlns:xlink="http://www.w3.org/1999/xlink" contentStyleType="text/css" height="465px" preserveAspectRatio="none" style="width:615px;height:465px;background:#FFFFFF;" version="1.1" viewBox="0 0 615 465" width="615px" zoomAndPan="magnify"><defs/><g><!--class CheckUpRepository--><g id="elem_CheckUpRepository"><rect codeLine="11" fill="#F1F1F1" height="39.9727" id="CheckUpRepository" rx="1.5" ry="1.5" style="stroke:#181818;stroke-width:0.3;" width="117.6" x="187.8" y="421.2"/><ellipse cx="207.33" cy="430.8" fill="#ADD1B2" rx="6.6" ry="6.6" style="stroke:#181818;stroke-width:0.6;"/><path d="M208.9894,428.325 Q209.0831,428.1937 209.1956,428.1281 Q209.3081,428.0625 209.4394,428.0625 Q209.6644,428.0625 209.805,428.2219 Q209.9456,428.3719 209.9456,428.7375 L209.9456,429.6094 Q209.9456,429.975 209.805,430.1344 Q209.6644,430.2938 209.4394,430.2938 Q209.2331,430.2938 209.1113,430.1719 Q208.9894,430.0594 208.9238,429.75 Q208.8956,429.5344 208.7831,429.4219 Q208.5863,429.1969 208.2206,429.0656 Q207.855,428.9344 207.48,428.9344 Q207.0206,428.9344 206.6363,429.1312 Q206.2613,429.3281 205.9613,429.7781 Q205.6706,430.2281 205.6706,430.8469 L205.6706,431.5031 Q205.6706,432.2438 206.205,432.7406 Q206.7394,433.2281 207.6956,433.2281 Q208.2581,433.2281 208.6519,433.0781 Q208.8863,432.9844 209.1394,432.7219 Q209.2988,432.5625 209.3831,432.5156 Q209.4769,432.4688 209.5988,432.4688 Q209.7956,432.4688 209.9456,432.6281 Q210.105,432.7781 210.105,432.9844 Q210.105,433.1906 209.8988,433.4344 Q209.5988,433.7813 209.1206,433.9781 Q208.4738,434.25 207.6956,434.25 Q206.7863,434.25 206.0644,433.875 Q205.4738,433.575 205.0613,432.9375 Q204.6488,432.2906 204.6488,431.5219 L204.6488,430.8281 Q204.6488,430.0313 205.0144,429.3469 Q205.3894,428.6531 206.0456,428.2875 Q206.7019,427.9125 207.4425,427.9125 Q207.8831,427.9125 208.2675,428.0156 Q208.6613,428.1094 208.9894,428.325 Z " fill="#000000"/><text fill="#000000" font-family="sans-serif" font-size="8.4" lengthAdjust="spacing" textLength="75" x="218.07" y="434.2781">CheckUpRepository</text><line style="stroke:#181818;stroke-width:0.3;" x1="188.4" x2="304.8" y1="440.4" y2="440.4"/><text fill="#000000" font-family="sans-serif" font-size="8.4" lengthAdjust="spacing" textLength="110.4" x="191.4" y="451.8645">-List&lt;CheckUp&gt; checkUpList;</text><line style="stroke:#181818;stroke-width:0.3;" x1="188.4" x2="304.8" y1="456.3727" y2="456.3727"/></g><!--class VehicleRepository--><g id="elem_VehicleRepository"><rect codeLine="15" fill="#F1F1F1" height="39.9727" id="VehicleRepository" rx="1.5" ry="1.5" style="stroke:#181818;stroke-width:0.3;" width="109.2" x="390" y="421.2"/><ellipse cx="408.72" cy="430.8" fill="#ADD1B2" rx="6.6" ry="6.6" style="stroke:#181818;stroke-width:0.6;"/><path d="M410.3794,428.325 Q410.4731,428.1937 410.5856,428.1281 Q410.6981,428.0625 410.8294,428.0625 Q411.0544,428.0625 411.195,428.2219 Q411.3356,428.3719 411.3356,428.7375 L411.3356,429.6094 Q411.3356,429.975 411.195,430.1344 Q411.0544,430.2938 410.8294,430.2938 Q410.6231,430.2938 410.5013,430.1719 Q410.3794,430.0594 410.3138,429.75 Q410.2856,429.5344 410.1731,429.4219 Q409.9763,429.1969 409.6106,429.0656 Q409.245,428.9344 408.87,428.9344 Q408.4106,428.9344 408.0263,429.1312 Q407.6513,429.3281 407.3513,429.7781 Q407.0606,430.2281 407.0606,430.8469 L407.0606,431.5031 Q407.0606,432.2438 407.595,432.7406 Q408.1294,433.2281 409.0856,433.2281 Q409.6481,433.2281 410.0419,433.0781 Q410.2763,432.9844 410.5294,432.7219 Q410.6888,432.5625 410.7731,432.5156 Q410.8669,432.4688 410.9888,432.4688 Q411.1856,432.4688 411.3356,432.6281 Q411.495,432.7781 411.495,432.9844 Q411.495,433.1906 411.2888,433.4344 Q410.9888,433.7813 410.5106,433.9781 Q409.8638,434.25 409.0856,434.25 Q408.1763,434.25 407.4544,433.875 Q406.8638,433.575 406.4513,432.9375 Q406.0388,432.2906 406.0388,431.5219 L406.0388,430.8281 Q406.0388,430.0313 406.4044,429.3469 Q406.7794,428.6531 407.4356,428.2875 Q408.0919,427.9125 408.8325,427.9125 Q409.2731,427.9125 409.6575,428.0156 Q410.0513,428.1094 410.3794,428.325 Z " fill="#000000"/><text fill="#000000" font-family="sans-serif" font-size="8.4" lengthAdjust="spacing" textLength="68.4" x="419.28" y="434.2781">VehicleRepository</text><line style="stroke:#181818;stroke-width:0.3;" x1="390.6" x2="498.6" y1="440.4" y2="440.4"/><text fill="#000000" font-family="sans-serif" font-size="8.4" lengthAdjust="spacing" textLength="102" x="393.6" y="451.8645">-List&lt;Vehicle&gt; vehiclesList;</text><line style="stroke:#181818;stroke-width:0.3;" x1="390.6" x2="498.6" y1="456.3727" y2="456.3727"/></g><!--class VehicleNeedingMaintenanceRepository--><g id="elem_VehicleNeedingMaintenanceRepository"><rect codeLine="19" fill="#F1F1F1" height="62.318" id="VehicleNeedingMaintenanceRepository" rx="1.5" ry="1.5" style="stroke:#181818;stroke-width:0.3;" width="246.6" x="123.3" y="322.2"/><ellipse cx="169.95" cy="331.8" fill="#ADD1B2" rx="6.6" ry="6.6" style="stroke:#181818;stroke-width:0.6;"/><path d="M171.6094,329.325 Q171.7031,329.1937 171.8156,329.1281 Q171.9281,329.0625 172.0594,329.0625 Q172.2844,329.0625 172.425,329.2219 Q172.5656,329.3719 172.5656,329.7375 L172.5656,330.6094 Q172.5656,330.975 172.425,331.1344 Q172.2844,331.2938 172.0594,331.2938 Q171.8531,331.2938 171.7313,331.1719 Q171.6094,331.0594 171.5438,330.75 Q171.5156,330.5344 171.4031,330.4219 Q171.2062,330.1969 170.8406,330.0656 Q170.475,329.9344 170.1,329.9344 Q169.6406,329.9344 169.2563,330.1312 Q168.8813,330.3281 168.5812,330.7781 Q168.2906,331.2281 168.2906,331.8469 L168.2906,332.5031 Q168.2906,333.2438 168.825,333.7406 Q169.3594,334.2281 170.3156,334.2281 Q170.8781,334.2281 171.2719,334.0781 Q171.5063,333.9844 171.7594,333.7219 Q171.9188,333.5625 172.0031,333.5156 Q172.0969,333.4688 172.2188,333.4688 Q172.4156,333.4688 172.5656,333.6281 Q172.725,333.7781 172.725,333.9844 Q172.725,334.1906 172.5187,334.4344 Q172.2188,334.7813 171.7406,334.9781 Q171.0938,335.25 170.3156,335.25 Q169.4063,335.25 168.6844,334.875 Q168.0938,334.575 167.6813,333.9375 Q167.2687,333.2906 167.2687,332.5219 L167.2687,331.8281 Q167.2687,331.0313 167.6344,330.3469 Q168.0094,329.6531 168.6656,329.2875 Q169.3219,328.9125 170.0625,328.9125 Q170.5031,328.9125 170.8875,329.0156 Q171.2813,329.1094 171.6094,329.325 Z " fill="#000000"/><text fill="#000000" font-family="sans-serif" font-size="8.4" lengthAdjust="spacing" textLength="148.2" x="182.25" y="335.2781">VehicleNeedingMaintenanceRepository</text><line style="stroke:#181818;stroke-width:0.3;" x1="123.9" x2="369.3" y1="341.4" y2="341.4"/><line style="stroke:#181818;stroke-width:0.3;" x1="123.9" x2="369.3" y1="346.2" y2="346.2"/><text fill="#000000" font-family="sans-serif" font-size="8.4" lengthAdjust="spacing" textLength="239.4" x="126.9" y="357.6645">+getVehiclesNeedingMaintenanceList(allVehicles, allCheckUps)</text><text fill="#000000" font-family="sans-serif" font-size="8.4" lengthAdjust="spacing" textLength="144.6" x="126.9" y="368.8371">-needsCheckUp(vehicle, allCheckUps)</text><text fill="#000000" font-family="sans-serif" font-size="8.4" lengthAdjust="spacing" textLength="165.6" x="126.9" y="380.0098">-getLastCheckUpKms(vehicle, allCheckUps)</text></g><!--class Repositories--><g id="elem_Repositories"><rect codeLine="25" fill="#F1F1F1" height="84.6633" id="Repositories" rx="1.5" ry="1.5" style="stroke:#181818;stroke-width:0.3;" width="178.2" x="323.1" y="190.2"/><ellipse cx="385.95" cy="199.8" fill="#ADD1B2" rx="6.6" ry="6.6" style="stroke:#181818;stroke-width:0.6;"/><path d="M387.6094,197.325 Q387.7031,197.1938 387.8156,197.1281 Q387.9281,197.0625 388.0594,197.0625 Q388.2844,197.0625 388.425,197.2219 Q388.5656,197.3719 388.5656,197.7375 L388.5656,198.6094 Q388.5656,198.975 388.425,199.1344 Q388.2844,199.2938 388.0594,199.2938 Q387.8531,199.2938 387.7313,199.1719 Q387.6094,199.0594 387.5438,198.75 Q387.5156,198.5344 387.4031,198.4219 Q387.2063,198.1969 386.8406,198.0656 Q386.475,197.9344 386.1,197.9344 Q385.6406,197.9344 385.2562,198.1313 Q384.8812,198.3281 384.5813,198.7781 Q384.2906,199.2281 384.2906,199.8469 L384.2906,200.5031 Q384.2906,201.2438 384.825,201.7406 Q385.3594,202.2281 386.3156,202.2281 Q386.8781,202.2281 387.2719,202.0781 Q387.5062,201.9844 387.7594,201.7219 Q387.9188,201.5625 388.0031,201.5156 Q388.0969,201.4688 388.2188,201.4688 Q388.4156,201.4688 388.5656,201.6281 Q388.725,201.7781 388.725,201.9844 Q388.725,202.1906 388.5188,202.4344 Q388.2188,202.7813 387.7406,202.9781 Q387.0938,203.25 386.3156,203.25 Q385.4063,203.25 384.6844,202.875 Q384.0938,202.575 383.6813,201.9375 Q383.2688,201.2906 383.2688,200.5219 L383.2688,199.8281 Q383.2688,199.0313 383.6344,198.3469 Q384.0094,197.6531 384.6656,197.2875 Q385.3219,196.9125 386.0625,196.9125 Q386.5031,196.9125 386.8875,197.0156 Q387.2813,197.1094 387.6094,197.325 Z " fill="#000000"/><text fill="#000000" font-family="sans-serif" font-size="8.4" lengthAdjust="spacing" textLength="47.4" x="398.25" y="203.2781">Repositories</text><line style="stroke:#181818;stroke-width:0.3;" x1="323.7" x2="500.7" y1="209.4" y2="209.4"/><line style="stroke:#181818;stroke-width:0.3;" x1="323.7" x2="500.7" y1="214.2" y2="214.2"/><text fill="#000000" font-family="sans-serif" font-size="8.4" lengthAdjust="spacing" textLength="56.4" x="326.7" y="225.6645">-Repositories()</text><text fill="#000000" font-family="sans-serif" font-size="8.4" lengthAdjust="spacing" textLength="109.2" x="326.7" y="236.8371">+getInstance() : Repositories</text><text fill="#000000" font-family="sans-serif" font-size="8.4" lengthAdjust="spacing" textLength="91.2" x="326.7" y="248.0098">+getVehicleRepository()</text><text fill="#000000" font-family="sans-serif" font-size="8.4" lengthAdjust="spacing" textLength="97.8" x="326.7" y="259.1824">+getCheckUpRepository()</text><text fill="#000000" font-family="sans-serif" font-size="8.4" lengthAdjust="spacing" textLength="171" x="326.7" y="270.3551">+getVehicleNeedingMaintenanceRepository()</text></g><!--class VehicleNeedingMaintenanceController--><g id="elem_VehicleNeedingMaintenanceController"><rect codeLine="33" fill="#F1F1F1" height="73.4906" id="VehicleNeedingMaintenanceController" rx="1.5" ry="1.5" style="stroke:#181818;stroke-width:0.3;" width="462" x="4.2" y="69.6"/><ellipse cx="160.35" cy="79.2" fill="#ADD1B2" rx="6.6" ry="6.6" style="stroke:#181818;stroke-width:0.6;"/><path d="M162.0094,76.725 Q162.1031,76.5938 162.2156,76.5281 Q162.3281,76.4625 162.4594,76.4625 Q162.6844,76.4625 162.825,76.6219 Q162.9656,76.7719 162.9656,77.1375 L162.9656,78.0094 Q162.9656,78.375 162.825,78.5344 Q162.6844,78.6938 162.4594,78.6938 Q162.2531,78.6938 162.1313,78.5719 Q162.0094,78.4594 161.9438,78.15 Q161.9156,77.9344 161.8031,77.8219 Q161.6063,77.5969 161.2406,77.4656 Q160.875,77.3344 160.5,77.3344 Q160.0406,77.3344 159.6563,77.5313 Q159.2813,77.7281 158.9813,78.1781 Q158.6906,78.6281 158.6906,79.2469 L158.6906,79.9031 Q158.6906,80.6438 159.225,81.1406 Q159.7594,81.6281 160.7156,81.6281 Q161.2781,81.6281 161.6719,81.4781 Q161.9063,81.3844 162.1594,81.1219 Q162.3188,80.9625 162.4031,80.9156 Q162.4969,80.8687 162.6188,80.8687 Q162.8156,80.8687 162.9656,81.0281 Q163.125,81.1781 163.125,81.3844 Q163.125,81.5906 162.9188,81.8344 Q162.6188,82.1812 162.1406,82.3781 Q161.4938,82.65 160.7156,82.65 Q159.8063,82.65 159.0844,82.275 Q158.4938,81.975 158.0812,81.3375 Q157.6688,80.6906 157.6688,79.9219 L157.6688,79.2281 Q157.6688,78.4312 158.0344,77.7469 Q158.4094,77.0531 159.0656,76.6875 Q159.7219,76.3125 160.4625,76.3125 Q160.9031,76.3125 161.2875,76.4156 Q161.6813,76.5094 162.0094,76.725 Z " fill="#000000"/><text fill="#000000" font-family="sans-serif" font-size="8.4" lengthAdjust="spacing" textLength="144.6" x="172.65" y="82.6781">VehicleNeedingMaintenanceController</text><line style="stroke:#181818;stroke-width:0.3;" x1="4.8" x2="465.6" y1="88.8" y2="88.8"/><line style="stroke:#181818;stroke-width:0.3;" x1="4.8" x2="465.6" y1="93.6" y2="93.6"/><text fill="#000000" font-family="sans-serif" font-size="8.4" lengthAdjust="spacing" textLength="454.8" x="7.8" y="105.0645">+VehicleNeedingMaintenanceController( vehicleNeedingMaintenanceRepository, checkUpRepository, vehicleRepository)</text><text fill="#000000" font-family="sans-serif" font-size="8.4" lengthAdjust="spacing" textLength="89.4" x="7.8" y="116.2371">-getVehicleRepository()</text><text fill="#000000" font-family="sans-serif" font-size="8.4" lengthAdjust="spacing" textLength="96" x="7.8" y="127.4098">-getCheckUpRepository()</text><text fill="#000000" font-family="sans-serif" font-size="8.4" lengthAdjust="spacing" textLength="147.6" x="7.8" y="138.5824">+getVehiclesNeedingMaintenanceList()</text></g><!--class VehicleNeedingMaintenanceUI--><g id="elem_VehicleNeedingMaintenanceUI"><rect codeLine="40" fill="#F1F1F1" height="28.8" id="VehicleNeedingMaintenanceUI" rx="1.5" ry="1.5" style="stroke:#181818;stroke-width:0.3;" width="133.8" x="168.3" y="4.2"/><ellipse cx="177.3" cy="13.8" fill="#ADD1B2" rx="6.6" ry="6.6" style="stroke:#181818;stroke-width:0.6;"/><path d="M178.9594,11.325 Q179.0531,11.1938 179.1656,11.1281 Q179.2781,11.0625 179.4094,11.0625 Q179.6344,11.0625 179.775,11.2219 Q179.9156,11.3719 179.9156,11.7375 L179.9156,12.6094 Q179.9156,12.975 179.775,13.1344 Q179.6344,13.2938 179.4094,13.2938 Q179.2031,13.2938 179.0812,13.1719 Q178.9594,13.0594 178.8937,12.75 Q178.8656,12.5344 178.7531,12.4219 Q178.5563,12.1969 178.1906,12.0656 Q177.825,11.9344 177.45,11.9344 Q176.9906,11.9344 176.6063,12.1313 Q176.2313,12.3281 175.9313,12.7781 Q175.6406,13.2281 175.6406,13.8469 L175.6406,14.5031 Q175.6406,15.2437 176.175,15.7406 Q176.7094,16.2281 177.6656,16.2281 Q178.2281,16.2281 178.6219,16.0781 Q178.8563,15.9844 179.1094,15.7219 Q179.2687,15.5625 179.3531,15.5156 Q179.4469,15.4688 179.5688,15.4688 Q179.7656,15.4688 179.9156,15.6281 Q180.075,15.7781 180.075,15.9844 Q180.075,16.1906 179.8688,16.4344 Q179.5688,16.7813 179.0906,16.9781 Q178.4438,17.25 177.6656,17.25 Q176.7563,17.25 176.0344,16.875 Q175.4438,16.575 175.0313,15.9375 Q174.6188,15.2906 174.6188,14.5219 L174.6188,13.8281 Q174.6188,13.0313 174.9844,12.3469 Q175.3594,11.6531 176.0156,11.2875 Q176.6719,10.9125 177.4125,10.9125 Q177.8531,10.9125 178.2375,11.0156 Q178.6313,11.1094 178.9594,11.325 Z " fill="#000000"/><text fill="#000000" font-family="sans-serif" font-size="8.4" lengthAdjust="spacing" textLength="114.6" x="185.7" y="17.2781">VehicleNeedingMaintenanceUI</text><line style="stroke:#181818;stroke-width:0.3;" x1="168.9" x2="301.5" y1="23.4" y2="23.4"/><line style="stroke:#181818;stroke-width:0.3;" x1="168.9" x2="301.5" y1="28.2" y2="28.2"/></g><!--link VehicleNeedingMaintenanceUI to VehicleNeedingMaintenanceController--><g id="link_VehicleNeedingMaintenanceUI_VehicleNeedingMaintenanceController"><path codeLine="43" d="M235.2,33.084 C235.2,42.954 235.2,53.1 235.2,65.97 " fill="none" id="VehicleNeedingMaintenanceUI-to-VehicleNeedingMaintenanceController" style="stroke:#181818;stroke-width:0.6;stroke-dasharray:7.0,7.0;"/><polygon fill="#181818" points="235.2,69.57,237.6,64.17,235.2,66.57,232.8,64.17,235.2,69.57" style="stroke:#181818;stroke-width:0.6;"/></g><!--link VehicleNeedingMaintenanceController to Repositories--><g id="link_VehicleNeedingMaintenanceController_Repositories"><path codeLine="45" d="M286.158,142.818 C307.092,157.614 328.5301,172.7623 350.2381,188.1043 " fill="none" id="VehicleNeedingMaintenanceController-to-Repositories" style="stroke:#181818;stroke-width:0.6;stroke-dasharray:7.0,7.0;"/><polygon fill="#181818" points="353.178,190.182,350.1533,185.1054,350.7281,188.4505,347.383,189.0253,353.178,190.182" style="stroke:#181818;stroke-width:0.6;"/><text fill="#000000" font-family="sans-serif" font-size="7.8" lengthAdjust="spacing" textLength="40.2" x="324" y="169.817">repositories</text></g><!--link VehicleNeedingMaintenanceController to CheckUpRepository--><g id="link_VehicleNeedingMaintenanceController_CheckUpRepository"><path codeLine="46" d="M201.18,142.818 C191.826,152.724 184.2,160.8 184.2,160.8 C184.2,160.8 118.2,292.8 118.2,292.8 C118.2,292.8 112.8,322.2 112.8,322.2 C112.8,322.2 112.8,384.6 112.8,384.6 C112.8,384.6 158.0559,403.5782 196.6719,419.7662 " fill="none" id="VehicleNeedingMaintenanceController-to-CheckUpRepository" style="stroke:#181818;stroke-width:0.6;stroke-dasharray:7.0,7.0;"/><polygon fill="#181818" points="199.992,421.158,195.9397,416.8569,197.2253,419.9982,194.084,421.2837,199.992,421.158" style="stroke:#181818;stroke-width:0.6;"/><text fill="#000000" font-family="sans-serif" font-size="7.8" lengthAdjust="spacing" textLength="69" x="118.8" y="301.817">CheckUpRepository</text></g><!--link VehicleNeedingMaintenanceController to VehicleRepository--><g id="link_VehicleNeedingMaintenanceController_VehicleRepository"><path codeLine="47" d="M375.192,142.836 C462.816,165.39 559.2,190.2 559.2,190.2 C559.2,190.2 559.2,274.8 559.2,274.8 C559.2,274.8 490.4221,374.366 460.1281,418.22 " fill="none" id="VehicleNeedingMaintenanceController-to-VehicleRepository" style="stroke:#181818;stroke-width:0.6;stroke-dasharray:7.0,7.0;"/><polygon fill="#181818" points="458.082,421.182,463.1258,418.1031,459.7871,418.7137,459.1765,415.3749,458.082,421.182" style="stroke:#181818;stroke-width:0.6;"/><text fill="#000000" font-family="sans-serif" font-size="7.8" lengthAdjust="spacing" textLength="63" x="547.2" y="301.817">VehicleRepository</text></g><!--link VehicleNeedingMaintenanceController to VehicleNeedingMaintenanceRepository--><g id="link_VehicleNeedingMaintenanceController_VehicleNeedingMaintenanceRepository"><path codeLine="48" d="M209.49,142.896 C193.44,165.438 175.8,190.2 175.8,190.2 C175.8,190.2 175.8,274.8 175.8,274.8 C175.8,274.8 196.5643,297.6764 216.4003,319.5284 " fill="none" id="VehicleNeedingMaintenanceController-to-VehicleNeedingMaintenanceRepository" style="stroke:#181818;stroke-width:0.6;stroke-dasharray:7.0,7.0;"/><polygon fill="#181818" points="218.82,322.194,216.9676,316.5825,216.8036,319.9727,213.4135,319.8087,218.82,322.194" style="stroke:#181818;stroke-width:0.6;"/><text fill="#000000" font-family="sans-serif" font-size="7.8" lengthAdjust="spacing" textLength="135.6" x="176.4" y="235.817">VehicleNeedingMaintenanceRepository</text></g><!--link Repositories to CheckUpRepository--><g id="link_Repositories_CheckUpRepository"><path codeLine="50" d="M403.428,274.902 C394.014,319.74 380.4,384.6 380.4,384.6 C380.4,384.6 335.1441,403.5782 296.5281,419.7662 " fill="none" id="Repositories-to-CheckUpRepository" style="stroke:#181818;stroke-width:0.6;"/><polygon fill="#181818" points="293.208,421.158,299.116,421.2837,295.9747,419.9982,297.2603,416.8569,293.208,421.158" style="stroke:#181818;stroke-width:0.6;"/><text fill="#000000" font-family="sans-serif" font-size="7.8" lengthAdjust="spacing" textLength="4.2" x="297.7705" y="414.445">1</text></g><!--link Repositories to VehicleRepository--><g id="link_Repositories_VehicleRepository"><path codeLine="51" d="M418.716,274.86 C425.646,319.26 435.7525,384.0311 440.9665,417.4151 " fill="none" id="Repositories-to-VehicleRepository" style="stroke:#181818;stroke-width:0.6;"/><polygon fill="#181818" points="441.522,420.972,443.06,415.2663,441.0591,418.0079,438.3175,416.007,441.522,420.972" style="stroke:#181818;stroke-width:0.6;"/><text fill="#000000" font-family="sans-serif" font-size="7.8" lengthAdjust="spacing" textLength="4.2" x="436.3349" y="414.3801">1</text></g><!--link Repositories to VehicleNeedingMaintenanceRepository--><g id="link_Repositories_VehicleNeedingMaintenanceRepository"><path codeLine="52" d="M354.282,274.968 C332.832,290.472 311.8396,305.643 292.0096,319.977 " fill="none" id="Repositories-to-VehicleNeedingMaintenanceRepository" style="stroke:#181818;stroke-width:0.6;"/><polygon fill="#181818" points="289.092,322.086,294.8743,320.8676,291.5233,320.3285,292.0624,316.9775,289.092,322.086" style="stroke:#181818;stroke-width:0.6;"/><text fill="#000000" font-family="sans-serif" font-size="7.8" lengthAdjust="spacing" textLength="4.2" x="290.3197" y="315.4271">1</text></g><!--link Repositories to Repositories--><g id="link_Repositories_Repositories"><path codeLine="53" d="M501.408,221.424 C513.918,223.236 522.3,226.926 522.3,232.5 C522.3,238.074 517.4808,241.2479 504.9708,243.0599 " fill="none" id="Repositories-to-Repositories" style="stroke:#181818;stroke-width:0.6;"/><polygon fill="#181818" points="501.408,243.576,507.0963,245.1771,504.377,243.146,506.4082,240.4267,501.408,243.576" style="stroke:#181818;stroke-width:0.6;"/><text fill="#000000" font-family="sans-serif" font-size="7.8" lengthAdjust="spacing" textLength="29.4" x="525.9" y="235.817">instance</text></g><!--link VehicleNeedingMaintenanceRepository to CheckUpRepository--><g id="link_VehicleNeedingMaintenanceRepository_CheckUpRepository"><path codeLine="55" d="M246.6,384.81 C246.6,396.882 246.6,406.77 246.6,417.474 " fill="none" id="VehicleNeedingMaintenanceRepository-to-CheckUpRepository" style="stroke:#181818;stroke-width:0.6;"/><polygon fill="#181818" points="246.6,421.074,249,415.674,246.6,418.074,244.2,415.674,246.6,421.074" style="stroke:#181818;stroke-width:0.6;"/><text fill="#000000" font-family="sans-serif" font-size="7.8" lengthAdjust="spacing" textLength="4.2" x="241.9997" y="414.5015">1</text></g><!--link VehicleNeedingMaintenanceRepository to VehicleRepository--><g id="link_VehicleNeedingMaintenanceRepository_VehicleRepository"><path codeLine="56" d="M316.686,384.69 C344.388,396.816 372.0981,408.9565 396.6501,419.7025 " fill="none" id="VehicleNeedingMaintenanceRepository-to-VehicleRepository" style="stroke:#181818;stroke-width:0.6;"/><polygon fill="#181818" points="399.948,421.146,395.9634,416.7822,397.1997,419.9431,394.0388,421.1794,399.948,421.146" style="stroke:#181818;stroke-width:0.6;"/><text fill="#000000" font-family="sans-serif" font-size="7.8" lengthAdjust="spacing" textLength="4.2" x="386.5437" y="414.4307">1</text></g><!--SRC=[bLJ1JiCm3BtdAwnTreaDmRMWIOZJnE00Wdl8l3PQbbI91ng8VwVTCfgH4hgUKlizn-_PxT2jfAwuvMjO6sr4QSqQWUm6MPkfk5Zn0fzegn0i2kAwK270bNnXtgKkOCcL2pDAQgHjXL0PjMrUsB0ZQImP5h24uixT45dvkY6S2QEVv0V21MD3XKi2Cc1bKH8iPDEED9gn7GTkInIhv-eHA-Ca6RlzP50_axbqTEsJKn3xGnEyOby7xWkMKYZivlha5Dxs1zTDVa1Sr3xSSwa9DTSYAdS61P97knZUbCsuKWV46EeNtxWRxHi2NTES3sQ-eKvWVTMSE_BXkxNx0_qZuwTRYSxBFufberR4J3jgMiv6a1-18fsj1o4_cbMOxE5dDkfX_wtHP8rIQFTouAm7D3jCENNz-B16OUZjjs0_YOGNavGL_-zA7nEUPvyDAf67y_Df7nCJHLhGhbYu47dzrmZMes-9o9Ky3lKk5jcVnw5JYwNM8-y3OYoq2IQJAGmk1x78BbJSVGALR2BY7SzE-kyyCVkssDyQJY37qhu1]--></g></svg>