<?xml version="1.0" encoding="us-ascii" standalone="no"?><svg xmlns="http://www.w3.org/2000/svg" xmlns:xlink="http://www.w3.org/1999/xlink" contentStyleType="text/css" height="115.5px" preserveAspectRatio="none" style="width:1385px;height:115px;background:#FFFFFF;" version="1.1" viewBox="0 0 1385 115" width="1386px" zoomAndPan="magnify"><defs/><g><!--class CheckUpRepository--><g id="elem_CheckUpRepository"><rect codeLine="7" fill="#F1F1F1" height="72.7043" id="CheckUpRepository" rx="1.75" ry="1.75" style="stroke:#181818;stroke-width:0.3499999999999999;" width="198.8" x="896.7" y="31.5"/><ellipse cx="949.375" cy="42.7" fill="#ADD1B2" rx="7.7" ry="7.7" style="stroke:#181818;stroke-width:0.6999999999999998;"/><path d="M951.3109,39.8125 Q951.4203,39.6594 951.5516,39.5828 Q951.6828,39.5062 951.8359,39.5062 Q952.0984,39.5062 952.2625,39.6922 Q952.4266,39.8672 952.4266,40.2937 L952.4266,41.3109 Q952.4266,41.7375 952.2625,41.9234 Q952.0984,42.1094 951.8359,42.1094 Q951.5953,42.1094 951.4531,41.9672 Q951.3109,41.8359 951.2344,41.475 Q951.2016,41.2234 951.0703,41.0922 Q950.8406,40.8297 950.4141,40.6766 Q949.9875,40.5234 949.55,40.5234 Q949.0141,40.5234 948.5656,40.7531 Q948.1281,40.9828 947.7781,41.5078 Q947.4391,42.0328 947.4391,42.7547 L947.4391,43.5203 Q947.4391,44.3844 948.0625,44.9641 Q948.6859,45.5328 949.8016,45.5328 Q950.4578,45.5328 950.9172,45.3578 Q951.1906,45.2484 951.4859,44.9422 Q951.6719,44.7562 951.7703,44.7016 Q951.8797,44.6469 952.0219,44.6469 Q952.2516,44.6469 952.4266,44.8328 Q952.6125,45.0078 952.6125,45.2484 Q952.6125,45.4891 952.3719,45.7734 Q952.0219,46.1781 951.4641,46.4078 Q950.7094,46.725 949.8016,46.725 Q948.7406,46.725 947.8984,46.2875 Q947.2094,45.9375 946.7281,45.1937 Q946.2469,44.4391 946.2469,43.5422 L946.2469,42.7328 Q946.2469,41.8031 946.6734,41.0047 Q947.1109,40.1953 947.8766,39.7687 Q948.6422,39.3312 949.5062,39.3312 Q950.0203,39.3312 950.4687,39.4516 Q950.9281,39.5609 951.3109,39.8125 Z " fill="#000000"/><text fill="#000000" font-family="sans-serif" font-size="9.8" lengthAdjust="spacing" textLength="87.5" x="963.725" y="46.7578">CheckUpRepository</text><line style="stroke:#181818;stroke-width:0.3499999999999999;" x1="897.4" x2="1094.8" y1="53.9" y2="53.9"/><line style="stroke:#181818;stroke-width:0.3499999999999999;" x1="897.4" x2="1094.8" y1="59.5" y2="59.5"/><text fill="#000000" font-family="sans-serif" font-size="9.8" lengthAdjust="spacing" textLength="105" x="900.9" y="72.8752">-addCheckUp(checkUp)</text><text fill="#000000" font-family="sans-serif" font-size="9.8" lengthAdjust="spacing" textLength="122.5" x="900.9" y="85.91">-validateCheckUp(checkUp)</text><text fill="#000000" font-family="sans-serif" font-size="9.8" lengthAdjust="spacing" textLength="190.4" x="900.9" y="98.9447">+registerCheckUp(plateNumber, kms, date)</text></g><!--class VehicleRepository--><g id="elem_VehicleRepository"><rect codeLine="13" fill="#F1F1F1" height="46.6348" id="VehicleRepository" rx="1.75" ry="1.75" style="stroke:#181818;stroke-width:0.3499999999999999;" width="222.6" x="649.6" y="44.45"/><ellipse cx="718.025" cy="55.65" fill="#ADD1B2" rx="7.7" ry="7.7" style="stroke:#181818;stroke-width:0.6999999999999998;"/><path d="M719.9609,52.7625 Q720.0703,52.6094 720.2016,52.5328 Q720.3328,52.4562 720.4859,52.4562 Q720.7484,52.4562 720.9125,52.6422 Q721.0766,52.8172 721.0766,53.2437 L721.0766,54.2609 Q721.0766,54.6875 720.9125,54.8734 Q720.7484,55.0594 720.4859,55.0594 Q720.2453,55.0594 720.1031,54.9172 Q719.9609,54.7859 719.8844,54.425 Q719.8516,54.1734 719.7203,54.0422 Q719.4906,53.7797 719.0641,53.6266 Q718.6375,53.4734 718.2,53.4734 Q717.6641,53.4734 717.2156,53.7031 Q716.7781,53.9328 716.4281,54.4578 Q716.0891,54.9828 716.0891,55.7047 L716.0891,56.4703 Q716.0891,57.3344 716.7125,57.9141 Q717.3359,58.4828 718.4516,58.4828 Q719.1078,58.4828 719.5672,58.3078 Q719.8406,58.1984 720.1359,57.8922 Q720.3219,57.7062 720.4203,57.6516 Q720.5297,57.5969 720.6719,57.5969 Q720.9016,57.5969 721.0766,57.7828 Q721.2625,57.9578 721.2625,58.1984 Q721.2625,58.4391 721.0219,58.7234 Q720.6719,59.1281 720.1141,59.3578 Q719.3594,59.675 718.4516,59.675 Q717.3906,59.675 716.5484,59.2375 Q715.8594,58.8875 715.3781,58.1437 Q714.8969,57.3891 714.8969,56.4922 L714.8969,55.6828 Q714.8969,54.7531 715.3234,53.9547 Q715.7609,53.1453 716.5266,52.7187 Q717.2922,52.2812 718.1562,52.2812 Q718.6703,52.2812 719.1187,52.4016 Q719.5781,52.5109 719.9609,52.7625 Z " fill="#000000"/><text fill="#000000" font-family="sans-serif" font-size="9.8" lengthAdjust="spacing" textLength="79.8" x="732.375" y="59.7078">VehicleRepository</text><line style="stroke:#181818;stroke-width:0.3499999999999999;" x1="650.3" x2="871.5" y1="66.85" y2="66.85"/><line style="stroke:#181818;stroke-width:0.3499999999999999;" x1="650.3" x2="871.5" y1="72.45" y2="72.45"/><text fill="#000000" font-family="sans-serif" font-size="9.8" lengthAdjust="spacing" textLength="214.2" x="653.8" y="85.8252">+getVehicleByPlateNumber(vehiclePlateNumber)</text></g><!--class CheckUp--><g id="elem_CheckUp"><rect codeLine="17" fill="#F1F1F1" height="72.7043" id="CheckUp" rx="1.75" ry="1.75" style="stroke:#181818;stroke-width:0.3499999999999999;" width="140" x="1120" y="31.5"/><ellipse cx="1167.075" cy="42.7" fill="#ADD1B2" rx="7.7" ry="7.7" style="stroke:#181818;stroke-width:0.6999999999999998;"/><path d="M1169.0109,39.8125 Q1169.1203,39.6594 1169.2516,39.5828 Q1169.3828,39.5062 1169.5359,39.5062 Q1169.7984,39.5062 1169.9625,39.6922 Q1170.1266,39.8672 1170.1266,40.2937 L1170.1266,41.3109 Q1170.1266,41.7375 1169.9625,41.9234 Q1169.7984,42.1094 1169.5359,42.1094 Q1169.2953,42.1094 1169.1531,41.9672 Q1169.0109,41.8359 1168.9344,41.475 Q1168.9016,41.2234 1168.7703,41.0922 Q1168.5406,40.8297 1168.1141,40.6766 Q1167.6875,40.5234 1167.25,40.5234 Q1166.7141,40.5234 1166.2656,40.7531 Q1165.8281,40.9828 1165.4781,41.5078 Q1165.1391,42.0328 1165.1391,42.7547 L1165.1391,43.5203 Q1165.1391,44.3844 1165.7625,44.9641 Q1166.3859,45.5328 1167.5016,45.5328 Q1168.1578,45.5328 1168.6172,45.3578 Q1168.8906,45.2484 1169.1859,44.9422 Q1169.3719,44.7562 1169.4703,44.7016 Q1169.5797,44.6469 1169.7219,44.6469 Q1169.9516,44.6469 1170.1266,44.8328 Q1170.3125,45.0078 1170.3125,45.2484 Q1170.3125,45.4891 1170.0719,45.7734 Q1169.7219,46.1781 1169.1641,46.4078 Q1168.4094,46.725 1167.5016,46.725 Q1166.4406,46.725 1165.5984,46.2875 Q1164.9094,45.9375 1164.4281,45.1937 Q1163.9469,44.4391 1163.9469,43.5422 L1163.9469,42.7328 Q1163.9469,41.8031 1164.3734,41.0047 Q1164.8109,40.1953 1165.5766,39.7687 Q1166.3422,39.3312 1167.2062,39.3312 Q1167.7203,39.3312 1168.1687,39.4516 Q1168.6281,39.5609 1169.0109,39.8125 Z " fill="#000000"/><text fill="#000000" font-family="sans-serif" font-size="9.8" lengthAdjust="spacing" textLength="39.9" x="1181.425" y="46.7578">CheckUp</text><line style="stroke:#181818;stroke-width:0.3499999999999999;" x1="1120.7" x2="1259.3" y1="53.9" y2="53.9"/><text fill="#000000" font-family="sans-serif" font-size="9.8" lengthAdjust="spacing" textLength="34.3" x="1124.2" y="67.2752">-int kms</text><text fill="#000000" font-family="sans-serif" font-size="9.8" lengthAdjust="spacing" textLength="46.9" x="1124.2" y="80.31">-Date date</text><line style="stroke:#181818;stroke-width:0.3499999999999999;" x1="1120.7" x2="1259.3" y1="85.5695" y2="85.5695"/><text fill="#000000" font-family="sans-serif" font-size="9.8" lengthAdjust="spacing" textLength="131.6" x="1124.2" y="98.9447">+CheckUp(vehicle, kms, date)</text></g><!--class Vehicle--><g id="elem_Vehicle"><rect codeLine="23" fill="#F1F1F1" height="46.6348" id="Vehicle" rx="1.75" ry="1.75" style="stroke:#181818;stroke-width:0.3499999999999999;" width="96.6" x="1284.5" y="44.45"/><ellipse cx="1313.9" cy="55.65" fill="#ADD1B2" rx="7.7" ry="7.7" style="stroke:#181818;stroke-width:0.6999999999999998;"/><path d="M1315.8359,52.7625 Q1315.9453,52.6094 1316.0766,52.5328 Q1316.2078,52.4562 1316.3609,52.4562 Q1316.6234,52.4562 1316.7875,52.6422 Q1316.9516,52.8172 1316.9516,53.2437 L1316.9516,54.2609 Q1316.9516,54.6875 1316.7875,54.8734 Q1316.6234,55.0594 1316.3609,55.0594 Q1316.1203,55.0594 1315.9781,54.9172 Q1315.8359,54.7859 1315.7594,54.425 Q1315.7266,54.1734 1315.5953,54.0422 Q1315.3656,53.7797 1314.9391,53.6266 Q1314.5125,53.4734 1314.075,53.4734 Q1313.5391,53.4734 1313.0906,53.7031 Q1312.6531,53.9328 1312.3031,54.4578 Q1311.9641,54.9828 1311.9641,55.7047 L1311.9641,56.4703 Q1311.9641,57.3344 1312.5875,57.9141 Q1313.2109,58.4828 1314.3266,58.4828 Q1314.9828,58.4828 1315.4422,58.3078 Q1315.7156,58.1984 1316.0109,57.8922 Q1316.1969,57.7062 1316.2953,57.6516 Q1316.4047,57.5969 1316.5469,57.5969 Q1316.7766,57.5969 1316.9516,57.7828 Q1317.1375,57.9578 1317.1375,58.1984 Q1317.1375,58.4391 1316.8969,58.7234 Q1316.5469,59.1281 1315.9891,59.3578 Q1315.2344,59.675 1314.3266,59.675 Q1313.2656,59.675 1312.4234,59.2375 Q1311.7344,58.8875 1311.2531,58.1437 Q1310.7719,57.3891 1310.7719,56.4922 L1310.7719,55.6828 Q1310.7719,54.7531 1311.1984,53.9547 Q1311.6359,53.1453 1312.4016,52.7187 Q1313.1672,52.2812 1314.0312,52.2812 Q1314.5453,52.2812 1314.9937,52.4016 Q1315.4531,52.5109 1315.8359,52.7625 Z " fill="#000000"/><text fill="#000000" font-family="sans-serif" font-size="9.8" lengthAdjust="spacing" textLength="32.2" x="1327.9" y="59.7078">Vehicle</text><line style="stroke:#181818;stroke-width:0.3499999999999999;" x1="1285.2" x2="1380.4" y1="66.85" y2="66.85"/><text fill="#000000" font-family="sans-serif" font-size="9.8" lengthAdjust="spacing" textLength="88.2" x="1288.7" y="80.2252">-String plateNumber</text><line style="stroke:#181818;stroke-width:0.3499999999999999;" x1="1285.2" x2="1380.4" y1="85.4848" y2="85.4848"/></g><!--class Repositories--><g id="elem_Repositories"><rect codeLine="28" fill="#F1F1F1" height="85.7391" id="Repositories" rx="1.75" ry="1.75" style="stroke:#181818;stroke-width:0.3499999999999999;" width="135.8" x="476.7" y="25.2"/><ellipse cx="513.975" cy="36.4" fill="#ADD1B2" rx="7.7" ry="7.7" style="stroke:#181818;stroke-width:0.6999999999999998;"/><path d="M515.9109,33.5125 Q516.0203,33.3594 516.1516,33.2828 Q516.2828,33.2062 516.4359,33.2062 Q516.6984,33.2062 516.8625,33.3922 Q517.0266,33.5672 517.0266,33.9937 L517.0266,35.0109 Q517.0266,35.4375 516.8625,35.6234 Q516.6984,35.8094 516.4359,35.8094 Q516.1953,35.8094 516.0531,35.6672 Q515.9109,35.5359 515.8344,35.175 Q515.8016,34.9234 515.6703,34.7922 Q515.4406,34.5297 515.0141,34.3766 Q514.5875,34.2234 514.15,34.2234 Q513.6141,34.2234 513.1656,34.4531 Q512.7281,34.6828 512.3781,35.2078 Q512.0391,35.7328 512.0391,36.4547 L512.0391,37.2203 Q512.0391,38.0844 512.6625,38.6641 Q513.2859,39.2328 514.4016,39.2328 Q515.0578,39.2328 515.5172,39.0578 Q515.7906,38.9484 516.0859,38.6422 Q516.2719,38.4562 516.3703,38.4016 Q516.4797,38.3469 516.6219,38.3469 Q516.8516,38.3469 517.0266,38.5328 Q517.2125,38.7078 517.2125,38.9484 Q517.2125,39.1891 516.9719,39.4734 Q516.6219,39.8781 516.0641,40.1078 Q515.3094,40.425 514.4016,40.425 Q513.3406,40.425 512.4984,39.9875 Q511.8094,39.6375 511.3281,38.8937 Q510.8469,38.1391 510.8469,37.2422 L510.8469,36.4328 Q510.8469,35.5031 511.2734,34.7047 Q511.7109,33.8953 512.4766,33.4687 Q513.2422,33.0312 514.1062,33.0312 Q514.6203,33.0312 515.0687,33.1516 Q515.5281,33.2609 515.9109,33.5125 Z " fill="#000000"/><text fill="#000000" font-family="sans-serif" font-size="9.8" lengthAdjust="spacing" textLength="55.3" x="528.325" y="40.4578">Repositories</text><line style="stroke:#181818;stroke-width:0.3499999999999999;" x1="477.4" x2="611.8" y1="47.6" y2="47.6"/><line style="stroke:#181818;stroke-width:0.3499999999999999;" x1="477.4" x2="611.8" y1="53.2" y2="53.2"/><text fill="#000000" font-family="sans-serif" font-size="9.8" lengthAdjust="spacing" textLength="65.8" x="480.9" y="66.5752">-Repositories()</text><text fill="#000000" font-family="sans-serif" font-size="9.8" lengthAdjust="spacing" textLength="127.4" x="480.9" y="79.61">+getInstance() : Repositories</text><text fill="#000000" font-family="sans-serif" font-size="9.8" lengthAdjust="spacing" textLength="114.1" x="480.9" y="92.6447">+getCheckUpRepository()</text><text fill="#000000" font-family="sans-serif" font-size="9.8" lengthAdjust="spacing" textLength="106.4" x="480.9" y="105.6795">+getVehicleRepository()</text></g><!--class RegisterCheckUpController--><g id="elem_RegisterCheckUpController"><rect codeLine="35" fill="#F1F1F1" height="85.7391" id="RegisterCheckUpController" rx="1.75" ry="1.75" style="stroke:#181818;stroke-width:0.3499999999999999;" width="314.3" x="137.55" y="25.2"/><ellipse cx="231.525" cy="36.4" fill="#ADD1B2" rx="7.7" ry="7.7" style="stroke:#181818;stroke-width:0.6999999999999998;"/><path d="M233.4609,33.5125 Q233.5703,33.3594 233.7016,33.2828 Q233.8328,33.2062 233.9859,33.2062 Q234.2484,33.2062 234.4125,33.3922 Q234.5766,33.5672 234.5766,33.9937 L234.5766,35.0109 Q234.5766,35.4375 234.4125,35.6234 Q234.2484,35.8094 233.9859,35.8094 Q233.7453,35.8094 233.6031,35.6672 Q233.4609,35.5359 233.3844,35.175 Q233.3516,34.9234 233.2203,34.7922 Q232.9906,34.5297 232.5641,34.3766 Q232.1375,34.2234 231.7,34.2234 Q231.1641,34.2234 230.7156,34.4531 Q230.2781,34.6828 229.9281,35.2078 Q229.5891,35.7328 229.5891,36.4547 L229.5891,37.2203 Q229.5891,38.0844 230.2125,38.6641 Q230.8359,39.2328 231.9516,39.2328 Q232.6078,39.2328 233.0672,39.0578 Q233.3406,38.9484 233.6359,38.6422 Q233.8219,38.4562 233.9203,38.4016 Q234.0297,38.3469 234.1719,38.3469 Q234.4016,38.3469 234.5766,38.5328 Q234.7625,38.7078 234.7625,38.9484 Q234.7625,39.1891 234.5219,39.4734 Q234.1719,39.8781 233.6141,40.1078 Q232.8594,40.425 231.9516,40.425 Q230.8906,40.425 230.0484,39.9875 Q229.3594,39.6375 228.8781,38.8937 Q228.3969,38.1391 228.3969,37.2422 L228.3969,36.4328 Q228.3969,35.5031 228.8234,34.7047 Q229.2609,33.8953 230.0266,33.4687 Q230.7922,33.0312 231.6562,33.0312 Q232.1703,33.0312 232.6187,33.1516 Q233.0781,33.2609 233.4609,33.5125 Z " fill="#000000"/><text fill="#000000" font-family="sans-serif" font-size="9.8" lengthAdjust="spacing" textLength="120.4" x="245.875" y="40.4578">RegisterCheckUpController</text><line style="stroke:#181818;stroke-width:0.3499999999999999;" x1="138.25" x2="451.15" y1="47.6" y2="47.6"/><line style="stroke:#181818;stroke-width:0.3499999999999999;" x1="138.25" x2="451.15" y1="53.2" y2="53.2"/><text fill="#000000" font-family="sans-serif" font-size="9.8" lengthAdjust="spacing" textLength="305.9" x="141.75" y="66.5752">+RegisterCheckUpController(CheckUpRepository, VehicleRepository)</text><text fill="#000000" font-family="sans-serif" font-size="9.8" lengthAdjust="spacing" textLength="190.4" x="141.75" y="79.61">+registerCheckUp(plateNumber, kms, date)</text><text fill="#000000" font-family="sans-serif" font-size="9.8" lengthAdjust="spacing" textLength="217" x="141.75" y="92.6447">-getVehiclesByPlateNumber(vehiclePlateNumber)</text><text fill="#000000" font-family="sans-serif" font-size="9.8" lengthAdjust="spacing" textLength="79.1" x="141.75" y="105.6795">+getVehiclesList()</text></g><!--class RegisterCheckUpUI--><g id="elem_RegisterCheckUpUI"><rect codeLine="43" fill="#F1F1F1" height="33.6" id="RegisterCheckUpUI" rx="1.75" ry="1.75" style="stroke:#181818;stroke-width:0.3499999999999999;" width="107.8" x="4.9" y="51.1"/><ellipse cx="15.4" cy="62.3" fill="#ADD1B2" rx="7.7" ry="7.7" style="stroke:#181818;stroke-width:0.6999999999999998;"/><path d="M17.3359,59.4125 Q17.4453,59.2594 17.5766,59.1828 Q17.7078,59.1062 17.8609,59.1062 Q18.1234,59.1062 18.2875,59.2922 Q18.4516,59.4672 18.4516,59.8937 L18.4516,60.9109 Q18.4516,61.3375 18.2875,61.5234 Q18.1234,61.7094 17.8609,61.7094 Q17.6203,61.7094 17.4781,61.5672 Q17.3359,61.4359 17.2594,61.075 Q17.2266,60.8234 17.0953,60.6922 Q16.8656,60.4297 16.4391,60.2766 Q16.0125,60.1234 15.575,60.1234 Q15.0391,60.1234 14.5906,60.3531 Q14.1531,60.5828 13.8031,61.1078 Q13.4641,61.6328 13.4641,62.3547 L13.4641,63.1203 Q13.4641,63.9844 14.0875,64.5641 Q14.7109,65.1328 15.8266,65.1328 Q16.4828,65.1328 16.9422,64.9578 Q17.2156,64.8484 17.5109,64.5422 Q17.6969,64.3562 17.7953,64.3016 Q17.9047,64.2469 18.0469,64.2469 Q18.2766,64.2469 18.4516,64.4328 Q18.6375,64.6078 18.6375,64.8484 Q18.6375,65.0891 18.3969,65.3734 Q18.0469,65.7781 17.4891,66.0078 Q16.7344,66.325 15.8266,66.325 Q14.7656,66.325 13.9234,65.8875 Q13.2344,65.5375 12.7531,64.7937 Q12.2719,64.0391 12.2719,63.1422 L12.2719,62.3328 Q12.2719,61.4031 12.6984,60.6047 Q13.1359,59.7953 13.9016,59.3687 Q14.6672,58.9312 15.5312,58.9312 Q16.0453,58.9312 16.4937,59.0516 Q16.9531,59.1609 17.3359,59.4125 Z " fill="#000000"/><text fill="#000000" font-family="sans-serif" font-size="9.8" lengthAdjust="spacing" textLength="85.4" x="25.2" y="66.3578">RegisterCheckUpUI</text><line style="stroke:#181818;stroke-width:0.3499999999999999;" x1="5.6" x2="112" y1="73.5" y2="73.5"/><line style="stroke:#181818;stroke-width:0.3499999999999999;" x1="5.6" x2="112" y1="79.1" y2="79.1"/></g><!--link RegisterCheckUpUI to RegisterCheckUpController--><g id="link_RegisterCheckUpUI_RegisterCheckUpController"><path codeLine="46" d="M112.77,67.9 C126.49,67.9 137.431,67.9 137.431,67.9 C137.431,67.9 137.452,67.9 137.487,67.9 " fill="none" id="RegisterCheckUpUI-RegisterCheckUpController" style="stroke:#181818;stroke-width:0.6999999999999998;"/></g><!--link RegisterCheckUpController to Repositories--><g id="link_RegisterCheckUpController_Repositories"><path codeLine="48" d="M452.067,67.9 C457.73,67.9 461.3,67.9 461.3,67.9 C461.3,67.9 467.53,67.9 476.581,67.9 " fill="none" id="RegisterCheckUpController-Repositories" style="stroke:#181818;stroke-width:0.6999999999999998;"/></g><!--link RegisterCheckUpController to CheckUpRepository--><g id="link_RegisterCheckUpController_CheckUpRepository"><path codeLine="49" d="M417.088,25.144 C450.191,13.58 477.05,4.2 477.05,4.2 C477.05,4.2 872.55,4.2 872.55,4.2 C872.55,4.2 897.806,17.22 925.484,31.493 " fill="none" id="RegisterCheckUpController-CheckUpRepository" style="stroke:#181818;stroke-width:0.6999999999999998;"/></g><!--link RegisterCheckUpController to VehicleRepository--><g id="link_RegisterCheckUpController_VehicleRepository"><path codeLine="50" d="M417.088,25.144 C450.191,13.58 477.05,4.2 477.05,4.2 C477.05,4.2 625.45,4.2 625.45,4.2 C625.45,4.2 672.266,26.215 710.85,44.359 " fill="none" id="RegisterCheckUpController-VehicleRepository" style="stroke:#181818;stroke-width:0.6999999999999998;"/></g><!--link Repositories to CheckUpRepository--><g id="link_Repositories_CheckUpRepository"><path codeLine="52" d="M612.514,26.838 C632.898,14.511 649.95,4.2 649.95,4.2 C649.95,4.2 872.55,4.2 872.55,4.2 C872.55,4.2 897.806,17.22 925.484,31.493 " fill="none" id="Repositories-CheckUpRepository" style="stroke:#181818;stroke-width:0.6999999999999998;"/></g><!--link Repositories to VehicleRepository--><g id="link_Repositories_VehicleRepository"><path codeLine="53" d="M612.619,67.9 C615.195,67.9 616.7,67.9 616.7,67.9 C616.7,67.9 632.674,67.9 649.586,67.9 " fill="none" id="Repositories-VehicleRepository" style="stroke:#181818;stroke-width:0.6999999999999998;"/></g><!--link Repositories to Repositories--><g id="link_Repositories_Repositories"><path codeLine="54" d="M612.696,52.451 C626.836,54.075 637,59.227 637,67.9 C637,76.573 626.836,81.725 612.696,83.349 " fill="none" id="Repositories-Repositories" style="stroke:#181818;stroke-width:0.6999999999999998;"/></g><!--link CheckUpRepository to CheckUp--><g id="link_CheckUpRepository_CheckUp"><path codeLine="56" d="M1095.507,67.9 C1105.069,67.9 1114.344,67.9 1119.951,67.9 " fill="none" id="CheckUpRepository-CheckUp" style="stroke:#181818;stroke-width:0.6999999999999998;"/></g><!--link VehicleRepository to Vehicle--><g id="link_VehicleRepository_Vehicle"><path codeLine="57" d="M811.209,44.359 C849.996,26.215 897.05,4.2 897.05,4.2 C897.05,4.2 1260.35,4.2 1260.35,4.2 C1260.35,4.2 1285.389,26.215 1306.025,44.359 " fill="none" id="VehicleRepository-Vehicle" style="stroke:#181818;stroke-width:0.6999999999999998;"/></g><!--link CheckUp to Vehicle--><g id="link_CheckUp_Vehicle"><path codeLine="58" d="M1260.007,67.9 C1270.619,67.9 1281.595,67.9 1284.472,67.9 " fill="none" id="CheckUp-Vehicle" style="stroke:#181818;stroke-width:0.6999999999999998;"/></g><!--SRC=[bLD1Ri8m4Bpx5Juc0gIUUslf1QcggY9wDyusM36svJLKAUhVwoHEuc2WWakKdTcPtTc0bL26MRQdXl6AbR1sjGHgWJkcIWa41mBkMA6_XIhf5vCO8r8eSBK1QhIicnSIWLmon2VdhDWU7AouLcln0_I1j01Txe1N6_C1HgDmsjOdGlrlmOeYG1dldda779aK1NDm4PrPA0Kwi3rgfAU-7VPRi7DQxN5EczwS_9BW_maxmIMC_hGRO5Q22zXp_JwgPCUk69KYjM0RD1PKADUuXhSNtzBwTmuzkvUyEU0WkVP9-Xj4Yv6HFAmX08UEk9Y5dAXVRwNG7vb3bjF72Mca9DU9-vFeiZoUP7A8fLREQYd1zlbU9MI9wJozqftdReCOHyR_Jths3U2hz_7xNLrmiperM59jyx-oQKAFKfgUxIOnoUicEucocIBwQYxhJGYfn1bXCZf9z4OFalxz1lc-Bwhy0G00]--></g></svg>