<?xml version="1.0" encoding="us-ascii" standalone="no"?><svg xmlns="http://www.w3.org/2000/svg" xmlns:xlink="http://www.w3.org/1999/xlink" contentStyleType="text/css" height="541.8px" preserveAspectRatio="none" style="width:761px;height:541px;background:#FFFFFF;" version="1.1" viewBox="0 0 761 541" width="761.6px" zoomAndPan="magnify"><defs/><g><!--class FM--><g id="elem_FM"><rect codeLine="22" fill="#F1F1F1" height="72.7043" id="FM" rx="1.75" ry="1.75" style="stroke:#181818;stroke-width:0.3499999999999999;" width="39.9" x="548.45" y="464.8"/><ellipse cx="560.525" cy="476" fill="#ADD1B2" rx="7.7" ry="7.7" style="stroke:#181818;stroke-width:0.6999999999999998;"/><path d="M562.4609,473.1125 Q562.5703,472.9594 562.7016,472.8828 Q562.8328,472.8062 562.9859,472.8062 Q563.2484,472.8062 563.4125,472.9922 Q563.5766,473.1672 563.5766,473.5937 L563.5766,474.6109 Q563.5766,475.0375 563.4125,475.2234 Q563.2484,475.4094 562.9859,475.4094 Q562.7453,475.4094 562.6031,475.2672 Q562.4609,475.1359 562.3844,474.775 Q562.3516,474.5234 562.2203,474.3922 Q561.9906,474.1297 561.5641,473.9766 Q561.1375,473.8234 560.7,473.8234 Q560.1641,473.8234 559.7156,474.0531 Q559.2781,474.2828 558.9281,474.8078 Q558.5891,475.3328 558.5891,476.0547 L558.5891,476.8203 Q558.5891,477.6844 559.2125,478.2641 Q559.8359,478.8328 560.9516,478.8328 Q561.6078,478.8328 562.0672,478.6578 Q562.3406,478.5484 562.6359,478.2422 Q562.8219,478.0562 562.9203,478.0016 Q563.0297,477.9469 563.1719,477.9469 Q563.4016,477.9469 563.5766,478.1328 Q563.7625,478.3078 563.7625,478.5484 Q563.7625,478.7891 563.5219,479.0734 Q563.1719,479.4781 562.6141,479.7078 Q561.8594,480.025 560.9516,480.025 Q559.8906,480.025 559.0484,479.5875 Q558.3594,479.2375 557.8781,478.4937 Q557.3969,477.7391 557.3969,476.8422 L557.3969,476.0328 Q557.3969,475.1031 557.8234,474.3047 Q558.2609,473.4953 559.0266,473.0687 Q559.7922,472.6312 560.6562,472.6312 Q561.1703,472.6312 561.6187,472.7516 Q562.0781,472.8609 562.4609,473.1125 Z " fill="#000000"/><text fill="#000000" font-family="sans-serif" font-size="9.8" lengthAdjust="spacing" textLength="14" x="570.675" y="480.0578">FM</text><line style="stroke:#181818;stroke-width:0.3499999999999999;" x1="549.15" x2="587.65" y1="487.2" y2="487.2"/><text fill="#000000" font-family="sans-serif" font-size="9.8" lengthAdjust="spacing" textLength="28" x="552.65" y="500.5752">-name</text><text fill="#000000" font-family="sans-serif" font-size="9.8" lengthAdjust="spacing" textLength="26.6" x="552.65" y="513.61">-email</text><text fill="#000000" font-family="sans-serif" font-size="9.8" lengthAdjust="spacing" textLength="31.5" x="552.65" y="526.6447">-phone</text><line style="stroke:#181818;stroke-width:0.3499999999999999;" x1="549.15" x2="587.65" y1="531.9043" y2="531.9043"/></g><!--class CheckUp--><g id="elem_CheckUp"><rect codeLine="28" fill="#F1F1F1" height="85.7391" id="CheckUp" rx="1.75" ry="1.75" style="stroke:#181818;stroke-width:0.3499999999999999;" width="170.1" x="483.35" y="324.1"/><ellipse cx="545.475" cy="335.3" fill="#ADD1B2" rx="7.7" ry="7.7" style="stroke:#181818;stroke-width:0.6999999999999998;"/><path d="M547.4109,332.4125 Q547.5203,332.2594 547.6516,332.1828 Q547.7828,332.1062 547.9359,332.1062 Q548.1984,332.1062 548.3625,332.2922 Q548.5266,332.4672 548.5266,332.8937 L548.5266,333.9109 Q548.5266,334.3375 548.3625,334.5234 Q548.1984,334.7094 547.9359,334.7094 Q547.6953,334.7094 547.5531,334.5672 Q547.4109,334.4359 547.3344,334.075 Q547.3016,333.8234 547.1703,333.6922 Q546.9406,333.4297 546.5141,333.2766 Q546.0875,333.1234 545.65,333.1234 Q545.1141,333.1234 544.6656,333.3531 Q544.2281,333.5828 543.8781,334.1078 Q543.5391,334.6328 543.5391,335.3547 L543.5391,336.1203 Q543.5391,336.9844 544.1625,337.5641 Q544.7859,338.1328 545.9016,338.1328 Q546.5578,338.1328 547.0172,337.9578 Q547.2906,337.8484 547.5859,337.5422 Q547.7719,337.3562 547.8703,337.3016 Q547.9797,337.2469 548.1219,337.2469 Q548.3516,337.2469 548.5266,337.4328 Q548.7125,337.6078 548.7125,337.8484 Q548.7125,338.0891 548.4719,338.3734 Q548.1219,338.7781 547.5641,339.0078 Q546.8094,339.325 545.9016,339.325 Q544.8406,339.325 543.9984,338.8875 Q543.3094,338.5375 542.8281,337.7937 Q542.3469,337.0391 542.3469,336.1422 L542.3469,335.3328 Q542.3469,334.4031 542.7734,333.6047 Q543.2109,332.7953 543.9766,332.3687 Q544.7422,331.9312 545.6062,331.9312 Q546.1203,331.9312 546.5687,332.0516 Q547.0281,332.1609 547.4109,332.4125 Z " fill="#000000"/><text fill="#000000" font-family="sans-serif" font-size="9.8" lengthAdjust="spacing" textLength="39.9" x="559.825" y="339.3578">CheckUp</text><line style="stroke:#181818;stroke-width:0.3499999999999999;" x1="484.05" x2="652.75" y1="346.5" y2="346.5"/><text fill="#000000" font-family="sans-serif" font-size="9.8" lengthAdjust="spacing" textLength="56.7" x="487.55" y="359.8752">-Integer date</text><text fill="#000000" font-family="sans-serif" font-size="9.8" lengthAdjust="spacing" textLength="59.5" x="487.55" y="372.91">-Double plate</text><text fill="#000000" font-family="sans-serif" font-size="9.8" lengthAdjust="spacing" textLength="58.1" x="487.55" y="385.9447">-Double KMS</text><line style="stroke:#181818;stroke-width:0.3499999999999999;" x1="484.05" x2="652.75" y1="391.2043" y2="391.2043"/><text fill="#000000" font-family="sans-serif" font-size="9.8" lengthAdjust="spacing" textLength="161.7" x="487.55" y="404.5795">+CheckUp(plate number, KMS, date)</text></g><!--class OrganizationRepository--><g id="elem_OrganizationRepository"><rect codeLine="63" fill="#F1F1F1" height="46.6348" id="OrganizationRepository" rx="1.75" ry="1.75" style="stroke:#181818;stroke-width:0.3499999999999999;" width="192.5" x="472.15" y="145.6"/><ellipse cx="513.625" cy="156.8" fill="#ADD1B2" rx="7.7" ry="7.7" style="stroke:#181818;stroke-width:0.6999999999999998;"/><path d="M515.5609,153.9125 Q515.6703,153.7594 515.8016,153.6828 Q515.9328,153.6062 516.0859,153.6062 Q516.3484,153.6062 516.5125,153.7922 Q516.6766,153.9672 516.6766,154.3937 L516.6766,155.4109 Q516.6766,155.8375 516.5125,156.0234 Q516.3484,156.2094 516.0859,156.2094 Q515.8453,156.2094 515.7031,156.0672 Q515.5609,155.9359 515.4844,155.575 Q515.4516,155.3234 515.3203,155.1922 Q515.0906,154.9297 514.6641,154.7766 Q514.2375,154.6234 513.8,154.6234 Q513.2641,154.6234 512.8156,154.8531 Q512.3781,155.0828 512.0281,155.6078 Q511.6891,156.1328 511.6891,156.8547 L511.6891,157.6203 Q511.6891,158.4844 512.3125,159.0641 Q512.9359,159.6328 514.0516,159.6328 Q514.7078,159.6328 515.1672,159.4578 Q515.4406,159.3484 515.7359,159.0422 Q515.9219,158.8562 516.0203,158.8016 Q516.1297,158.7469 516.2719,158.7469 Q516.5016,158.7469 516.6766,158.9328 Q516.8625,159.1078 516.8625,159.3484 Q516.8625,159.5891 516.6219,159.8734 Q516.2719,160.2781 515.7141,160.5078 Q514.9594,160.825 514.0516,160.825 Q512.9906,160.825 512.1484,160.3875 Q511.4594,160.0375 510.9781,159.2937 Q510.4969,158.5391 510.4969,157.6422 L510.4969,156.8328 Q510.4969,155.9031 510.9234,155.1047 Q511.3609,154.2953 512.1266,153.8687 Q512.8922,153.4312 513.7562,153.4312 Q514.2703,153.4312 514.7187,153.5516 Q515.1781,153.6609 515.5609,153.9125 Z " fill="#000000"/><text fill="#000000" font-family="sans-serif" font-size="9.8" lengthAdjust="spacing" textLength="103.6" x="527.975" y="160.8578">OrganizationRepository</text><line style="stroke:#181818;stroke-width:0.3499999999999999;" x1="472.85" x2="663.95" y1="168" y2="168"/><line style="stroke:#181818;stroke-width:0.3499999999999999;" x1="472.85" x2="663.95" y1="173.6" y2="173.6"/><text fill="#000000" font-family="sans-serif" font-size="9.8" lengthAdjust="spacing" textLength="184.1" x="476.35" y="186.9752">+getOrganizationByEmployeeEmail(email)</text></g><!--class Repositories--><g id="elem_Repositories"><rect codeLine="67" fill="#F1F1F1" height="85.7391" id="Repositories" rx="1.75" ry="1.75" style="stroke:#181818;stroke-width:0.3499999999999999;" width="138.6" x="550.9" y="4.9"/><ellipse cx="589.575" cy="16.1" fill="#ADD1B2" rx="7.7" ry="7.7" style="stroke:#181818;stroke-width:0.6999999999999998;"/><path d="M591.5109,13.2125 Q591.6203,13.0594 591.7516,12.9828 Q591.8828,12.9062 592.0359,12.9062 Q592.2984,12.9062 592.4625,13.0922 Q592.6266,13.2672 592.6266,13.6937 L592.6266,14.7109 Q592.6266,15.1375 592.4625,15.3234 Q592.2984,15.5094 592.0359,15.5094 Q591.7953,15.5094 591.6531,15.3672 Q591.5109,15.2359 591.4344,14.875 Q591.4016,14.6234 591.2703,14.4922 Q591.0406,14.2297 590.6141,14.0766 Q590.1875,13.9234 589.75,13.9234 Q589.2141,13.9234 588.7656,14.1531 Q588.3281,14.3828 587.9781,14.9078 Q587.6391,15.4328 587.6391,16.1547 L587.6391,16.9203 Q587.6391,17.7844 588.2625,18.3641 Q588.8859,18.9328 590.0016,18.9328 Q590.6578,18.9328 591.1172,18.7578 Q591.3906,18.6484 591.6859,18.3422 Q591.8719,18.1562 591.9703,18.1016 Q592.0797,18.0469 592.2219,18.0469 Q592.4516,18.0469 592.6266,18.2328 Q592.8125,18.4078 592.8125,18.6484 Q592.8125,18.8891 592.5719,19.1734 Q592.2219,19.5781 591.6641,19.8078 Q590.9094,20.125 590.0016,20.125 Q588.9406,20.125 588.0984,19.6875 Q587.4094,19.3375 586.9281,18.5937 Q586.4469,17.8391 586.4469,16.9422 L586.4469,16.1328 Q586.4469,15.2031 586.8734,14.4047 Q587.3109,13.5953 588.0766,13.1687 Q588.8422,12.7312 589.7062,12.7312 Q590.2203,12.7312 590.6687,12.8516 Q591.1281,12.9609 591.5109,13.2125 Z " fill="#000000"/><text fill="#000000" font-family="sans-serif" font-size="9.8" lengthAdjust="spacing" textLength="55.3" x="603.925" y="20.1578">Repositories</text><line style="stroke:#181818;stroke-width:0.3499999999999999;" x1="551.6" x2="688.8" y1="27.3" y2="27.3"/><line style="stroke:#181818;stroke-width:0.3499999999999999;" x1="551.6" x2="688.8" y1="32.9" y2="32.9"/><text fill="#000000" font-family="sans-serif" font-size="9.8" lengthAdjust="spacing" textLength="65.8" x="555.1" y="46.2752">-Repositories()</text><text fill="#000000" font-family="sans-serif" font-size="9.8" lengthAdjust="spacing" textLength="127.4" x="555.1" y="59.31">+getInstance() : Repositories</text><text fill="#000000" font-family="sans-serif" font-size="9.8" lengthAdjust="spacing" textLength="114.1" x="555.1" y="72.3447">+getCheckUpRepository()</text><text fill="#000000" font-family="sans-serif" font-size="9.8" lengthAdjust="spacing" textLength="130.2" x="555.1" y="85.3795">+getOrganizationRepository()</text></g><!--class CreateCheckUpController--><g id="elem_CreateCheckUpController"><rect codeLine="74" fill="#F1F1F1" height="59.6695" id="CreateCheckUpController" rx="1.75" ry="1.75" style="stroke:#181818;stroke-width:0.3499999999999999;" width="347.9" x="130.55" y="17.85"/><ellipse cx="244.825" cy="29.05" fill="#ADD1B2" rx="7.7" ry="7.7" style="stroke:#181818;stroke-width:0.6999999999999998;"/><path d="M246.7609,26.1625 Q246.8703,26.0094 247.0016,25.9328 Q247.1328,25.8562 247.2859,25.8562 Q247.5484,25.8562 247.7125,26.0422 Q247.8766,26.2172 247.8766,26.6437 L247.8766,27.6609 Q247.8766,28.0875 247.7125,28.2734 Q247.5484,28.4594 247.2859,28.4594 Q247.0453,28.4594 246.9031,28.3172 Q246.7609,28.1859 246.6844,27.825 Q246.6516,27.5734 246.5203,27.4422 Q246.2906,27.1797 245.8641,27.0266 Q245.4375,26.8734 245,26.8734 Q244.4641,26.8734 244.0156,27.1031 Q243.5781,27.3328 243.2281,27.8578 Q242.8891,28.3828 242.8891,29.1047 L242.8891,29.8703 Q242.8891,30.7344 243.5125,31.3141 Q244.1359,31.8828 245.2516,31.8828 Q245.9078,31.8828 246.3672,31.7078 Q246.6406,31.5984 246.9359,31.2922 Q247.1219,31.1062 247.2203,31.0516 Q247.3297,30.9969 247.4719,30.9969 Q247.7016,30.9969 247.8766,31.1828 Q248.0625,31.3578 248.0625,31.5984 Q248.0625,31.8391 247.8219,32.1234 Q247.4719,32.5281 246.9141,32.7578 Q246.1594,33.075 245.2516,33.075 Q244.1906,33.075 243.3484,32.6375 Q242.6594,32.2875 242.1781,31.5437 Q241.6969,30.7891 241.6969,29.8922 L241.6969,29.0828 Q241.6969,28.1531 242.1234,27.3547 Q242.5609,26.5453 243.3266,26.1187 Q244.0922,25.6812 244.9562,25.6812 Q245.4703,25.6812 245.9187,25.8016 Q246.3781,25.9109 246.7609,26.1625 Z " fill="#000000"/><text fill="#000000" font-family="sans-serif" font-size="9.8" lengthAdjust="spacing" textLength="113.4" x="259.175" y="33.1078">CreateCheckUpController</text><line style="stroke:#181818;stroke-width:0.3499999999999999;" x1="131.25" x2="477.75" y1="40.25" y2="40.25"/><line style="stroke:#181818;stroke-width:0.3499999999999999;" x1="131.25" x2="477.75" y1="45.85" y2="45.85"/><text fill="#000000" font-family="sans-serif" font-size="9.8" lengthAdjust="spacing" textLength="339.5" x="134.75" y="59.2252">+CreateCheckUpController(organizationRepository, taskCategoryRepository)</text><text fill="#000000" font-family="sans-serif" font-size="9.8" lengthAdjust="spacing" textLength="189.7" x="134.75" y="72.26">+createCheckUp(plate number, KMS, date)</text></g><!--class CreateCheckUpUI--><g id="elem_CreateCheckUpUI"><rect codeLine="94" fill="#F1F1F1" height="33.6" id="CreateCheckUpUI" rx="1.75" ry="1.75" style="stroke:#181818;stroke-width:0.3499999999999999;" width="100.8" x="4.9" y="30.8"/><ellipse cx="15.4" cy="42" fill="#ADD1B2" rx="7.7" ry="7.7" style="stroke:#181818;stroke-width:0.6999999999999998;"/><path d="M17.3359,39.1125 Q17.4453,38.9594 17.5766,38.8828 Q17.7078,38.8062 17.8609,38.8062 Q18.1234,38.8062 18.2875,38.9922 Q18.4516,39.1672 18.4516,39.5937 L18.4516,40.6109 Q18.4516,41.0375 18.2875,41.2234 Q18.1234,41.4094 17.8609,41.4094 Q17.6203,41.4094 17.4781,41.2672 Q17.3359,41.1359 17.2594,40.775 Q17.2266,40.5234 17.0953,40.3922 Q16.8656,40.1297 16.4391,39.9766 Q16.0125,39.8234 15.575,39.8234 Q15.0391,39.8234 14.5906,40.0531 Q14.1531,40.2828 13.8031,40.8078 Q13.4641,41.3328 13.4641,42.0547 L13.4641,42.8203 Q13.4641,43.6844 14.0875,44.2641 Q14.7109,44.8328 15.8266,44.8328 Q16.4828,44.8328 16.9422,44.6578 Q17.2156,44.5484 17.5109,44.2422 Q17.6969,44.0562 17.7953,44.0016 Q17.9047,43.9469 18.0469,43.9469 Q18.2766,43.9469 18.4516,44.1328 Q18.6375,44.3078 18.6375,44.5484 Q18.6375,44.7891 18.3969,45.0734 Q18.0469,45.4781 17.4891,45.7078 Q16.7344,46.025 15.8266,46.025 Q14.7656,46.025 13.9234,45.5875 Q13.2344,45.2375 12.7531,44.4937 Q12.2719,43.7391 12.2719,42.8422 L12.2719,42.0328 Q12.2719,41.1031 12.6984,40.3047 Q13.1359,39.4953 13.9016,39.0687 Q14.6672,38.6312 15.5312,38.6312 Q16.0453,38.6312 16.4937,38.7516 Q16.9531,38.8609 17.3359,39.1125 Z " fill="#000000"/><text fill="#000000" font-family="sans-serif" font-size="9.8" lengthAdjust="spacing" textLength="78.4" x="25.2" y="46.0578">CreateCheckUpUI</text><line style="stroke:#181818;stroke-width:0.3499999999999999;" x1="5.6" x2="105" y1="53.2" y2="53.2"/><line style="stroke:#181818;stroke-width:0.3499999999999999;" x1="5.6" x2="105" y1="58.8" y2="58.8"/></g><!--class CheckUpRepository--><g id="elem_CheckUpRepository"><rect fill="#F1F1F1" height="33.6" id="CheckUpRepository" rx="1.75" ry="1.75" style="stroke:#181818;stroke-width:0.3499999999999999;" width="109.9" x="319.55" y="152.25"/><ellipse cx="330.05" cy="163.45" fill="#ADD1B2" rx="7.7" ry="7.7" style="stroke:#181818;stroke-width:0.6999999999999998;"/><path d="M331.9859,160.5625 Q332.0953,160.4094 332.2266,160.3328 Q332.3578,160.2562 332.5109,160.2562 Q332.7734,160.2562 332.9375,160.4422 Q333.1016,160.6172 333.1016,161.0437 L333.1016,162.0609 Q333.1016,162.4875 332.9375,162.6734 Q332.7734,162.8594 332.5109,162.8594 Q332.2703,162.8594 332.1281,162.7172 Q331.9859,162.5859 331.9094,162.225 Q331.8766,161.9734 331.7453,161.8422 Q331.5156,161.5797 331.0891,161.4266 Q330.6625,161.2734 330.225,161.2734 Q329.6891,161.2734 329.2406,161.5031 Q328.8031,161.7328 328.4531,162.2578 Q328.1141,162.7828 328.1141,163.5047 L328.1141,164.2703 Q328.1141,165.1344 328.7375,165.7141 Q329.3609,166.2828 330.4766,166.2828 Q331.1328,166.2828 331.5922,166.1078 Q331.8656,165.9984 332.1609,165.6922 Q332.3469,165.5062 332.4453,165.4516 Q332.5547,165.3969 332.6969,165.3969 Q332.9266,165.3969 333.1016,165.5828 Q333.2875,165.7578 333.2875,165.9984 Q333.2875,166.2391 333.0469,166.5234 Q332.6969,166.9281 332.1391,167.1578 Q331.3844,167.475 330.4766,167.475 Q329.4156,167.475 328.5734,167.0375 Q327.8844,166.6875 327.4031,165.9437 Q326.9219,165.1891 326.9219,164.2922 L326.9219,163.4828 Q326.9219,162.5531 327.3484,161.7547 Q327.7859,160.9453 328.5516,160.5187 Q329.3172,160.0812 330.1812,160.0812 Q330.6953,160.0812 331.1437,160.2016 Q331.6031,160.3109 331.9859,160.5625 Z " fill="#000000"/><text fill="#000000" font-family="sans-serif" font-size="9.8" lengthAdjust="spacing" textLength="87.5" x="339.85" y="167.5078">CheckUpRepository</text><line style="stroke:#181818;stroke-width:0.3499999999999999;" x1="320.25" x2="428.75" y1="174.65" y2="174.65"/><line style="stroke:#181818;stroke-width:0.3499999999999999;" x1="320.25" x2="428.75" y1="180.25" y2="180.25"/></g><!--class Organization--><g id="elem_Organization"><rect fill="#F1F1F1" height="33.6" id="Organization" rx="1.75" ry="1.75" style="stroke:#181818;stroke-width:0.3499999999999999;" width="78.4" x="529.2" y="235.2"/><ellipse cx="539.7" cy="246.4" fill="#ADD1B2" rx="7.7" ry="7.7" style="stroke:#181818;stroke-width:0.6999999999999998;"/><path d="M541.6359,243.5125 Q541.7453,243.3594 541.8766,243.2828 Q542.0078,243.2062 542.1609,243.2062 Q542.4234,243.2062 542.5875,243.3922 Q542.7516,243.5672 542.7516,243.9937 L542.7516,245.0109 Q542.7516,245.4375 542.5875,245.6234 Q542.4234,245.8094 542.1609,245.8094 Q541.9203,245.8094 541.7781,245.6672 Q541.6359,245.5359 541.5594,245.175 Q541.5266,244.9234 541.3953,244.7922 Q541.1656,244.5297 540.7391,244.3766 Q540.3125,244.2234 539.875,244.2234 Q539.3391,244.2234 538.8906,244.4531 Q538.4531,244.6828 538.1031,245.2078 Q537.7641,245.7328 537.7641,246.4547 L537.7641,247.2203 Q537.7641,248.0844 538.3875,248.6641 Q539.0109,249.2328 540.1266,249.2328 Q540.7828,249.2328 541.2422,249.0578 Q541.5156,248.9484 541.8109,248.6422 Q541.9969,248.4562 542.0953,248.4016 Q542.2047,248.3469 542.3469,248.3469 Q542.5766,248.3469 542.7516,248.5328 Q542.9375,248.7078 542.9375,248.9484 Q542.9375,249.1891 542.6969,249.4734 Q542.3469,249.8781 541.7891,250.1078 Q541.0344,250.425 540.1266,250.425 Q539.0656,250.425 538.2234,249.9875 Q537.5344,249.6375 537.0531,248.8937 Q536.5719,248.1391 536.5719,247.2422 L536.5719,246.4328 Q536.5719,245.5031 536.9984,244.7047 Q537.4359,243.8953 538.2016,243.4687 Q538.9672,243.0312 539.8312,243.0312 Q540.3453,243.0312 540.7937,243.1516 Q541.2531,243.2609 541.6359,243.5125 Z " fill="#000000"/><text fill="#000000" font-family="sans-serif" font-size="9.8" lengthAdjust="spacing" textLength="56" x="549.5" y="250.4578">Organization</text><line style="stroke:#181818;stroke-width:0.3499999999999999;" x1="529.9" x2="606.9" y1="257.6" y2="257.6"/><line style="stroke:#181818;stroke-width:0.3499999999999999;" x1="529.9" x2="606.9" y1="263.2" y2="263.2"/></g><!--link Repositories to Repositories--><g id="link_Repositories_Repositories"><path codeLine="97" d="M689.535,34.958 C703.78,36.309 714,40.523 714,47.6 C714,54.677 707.9612,58.4945 693.7162,59.8455 " fill="none" id="Repositories-to-Repositories" style="stroke:#181818;stroke-width:0.6999999999999998;"/><polygon fill="#181818" points="689.535,60.242,696.0712,62.4347,693.0194,59.9115,695.5425,56.8597,689.535,60.242" style="stroke:#181818;stroke-width:0.6999999999999998;"/><text fill="#000000" font-family="sans-serif" font-size="9.1" lengthAdjust="spacing" textLength="34.3" x="718.2" y="51.4698">instance</text></g><!--link CreateCheckUpUI to CreateCheckUpController--><g id="link_CreateCheckUpUI_CreateCheckUpController"><path codeLine="100" d="M105.777,47.6 C115.423,47.6 120.197,47.6 126.273,47.6 " fill="none" id="CreateCheckUpUI-to-CreateCheckUpController" style="stroke:#181818;stroke-width:0.6999999999999998;stroke-dasharray:7.0,7.0;"/><polygon fill="#181818" points="130.473,47.6,124.173,44.8,126.973,47.6,124.173,50.4,130.473,47.6" style="stroke:#181818;stroke-width:0.6999999999999998;"/></g><!--link CreateCheckUpController to Repositories--><g id="link_CreateCheckUpController_Repositories"><path codeLine="102" d="M478.513,47.6 C504.098,47.6 524.909,47.6 546.623,47.6 " fill="none" id="CreateCheckUpController-to-Repositories" style="stroke:#181818;stroke-width:0.6999999999999998;stroke-dasharray:7.0,7.0;"/><polygon fill="#181818" points="550.823,47.6,544.523,44.8,547.323,47.6,544.523,50.4,550.823,47.6" style="stroke:#181818;stroke-width:0.6999999999999998;"/><text fill="#000000" font-family="sans-serif" font-size="9.1" lengthAdjust="spacing" textLength="46.9" x="491.225" y="42.7198">repositories</text></g><!--link Repositories to CheckUpRepository--><g id="link_Repositories_CheckUpRepository"><path codeLine="104" d="M589.253,90.468 C576.303,108.115 564.2,124.6 564.2,124.6 C564.2,124.6 459.9,145.6 459.9,145.6 C459.9,145.6 450.1334,148.2008 433.6064,152.6038 " fill="none" id="Repositories-to-CheckUpRepository" style="stroke:#181818;stroke-width:0.6999999999999998;"/><polygon fill="#181818" points="429.548,153.685,436.3565,154.7688,432.93,152.784,434.9149,149.3575,429.548,153.685" style="stroke:#181818;stroke-width:0.6999999999999998;"/><text fill="#000000" font-family="sans-serif" font-size="9.1" lengthAdjust="spacing" textLength="4.9" x="435.0283" y="149.5829">1</text></g><!--link CreateCheckUpController to OrganizationRepository--><g id="link_CreateCheckUpController_OrganizationRepository"><path codeLine="107" d="M368.382,77.364 C414.449,98.315 471.939,124.4708 514.485,143.8258 " fill="none" id="CreateCheckUpController-to-OrganizationRepository" style="stroke:#181818;stroke-width:0.6999999999999998;stroke-dasharray:7.0,7.0;"/><polygon fill="#181818" points="518.308,145.565,513.7329,140.4076,515.1222,144.1157,511.4141,145.5049,518.308,145.565" style="stroke:#181818;stroke-width:0.6999999999999998;"/><text fill="#000000" font-family="sans-serif" font-size="9.1" lengthAdjust="spacing" textLength="92.4" x="469" y="121.8198">organizationRepository</text></g><!--link CreateCheckUpController to CheckUpRepository--><g id="link_CreateCheckUpController_CheckUpRepository"><path codeLine="108" d="M321.447,77.364 C335.118,100.814 351.7486,129.3296 362.9066,148.4676 " fill="none" id="CreateCheckUpController-to-CheckUpRepository" style="stroke:#181818;stroke-width:0.6999999999999998;stroke-dasharray:7.0,7.0;"/><polygon fill="#181818" points="365.022,152.096,364.2678,145.2432,363.2591,149.0724,359.4299,148.0638,365.022,152.096" style="stroke:#181818;stroke-width:0.6999999999999998;"/><text fill="#000000" font-family="sans-serif" font-size="9.1" lengthAdjust="spacing" textLength="80.5" x="348.6" y="121.8198">CheckUpRepository</text></g><!--link Repositories to OrganizationRepository--><g id="link_Repositories_OrganizationRepository"><path codeLine="110" d="M609.371,90.468 C604.835,108.115 600.6,124.6 600.6,124.6 C600.6,124.6 595.5358,131.4788 587.7448,142.0698 " fill="none" id="Repositories-to-OrganizationRepository" style="stroke:#181818;stroke-width:0.6999999999999998;"/><polygon fill="#181818" points="585.256,145.453,591.2446,142.0374,587.33,142.6337,586.7337,138.719,585.256,145.453" style="stroke:#181818;stroke-width:0.6999999999999998;"/><text fill="#000000" font-family="sans-serif" font-size="9.1" lengthAdjust="spacing" textLength="4.9" x="583.1021" y="137.7851">1</text></g><!--link OrganizationRepository to Organization--><g id="link_OrganizationRepository_Organization"><path codeLine="112" d="M568.4,192.682 C568.4,206.157 568.4,218.666 568.4,230.797 " fill="none" id="OrganizationRepository-to-Organization" style="stroke:#181818;stroke-width:0.6999999999999998;"/><polygon fill="#181818" points="568.4,234.997,571.2,228.697,568.4,231.497,565.6,228.697,568.4,234.997" style="stroke:#181818;stroke-width:0.6999999999999998;"/><text fill="#000000" font-family="sans-serif" font-size="9.1" lengthAdjust="spacing" textLength="3.5" x="564.4734" y="227.3469">*</text></g><!--link Organization to CheckUp--><g id="link_Organization_CheckUp"><path codeLine="120" d="M568.4,268.947 C568.4,283.276 568.4,300.601 568.4,319.753 " fill="none" id="Organization-to-CheckUp" style="stroke:#181818;stroke-width:0.6999999999999998;"/><polygon fill="#181818" points="568.4,323.953,571.2,317.653,568.4,320.453,565.6,317.653,568.4,323.953" style="stroke:#181818;stroke-width:0.6999999999999998;"/><text fill="#000000" font-family="sans-serif" font-size="9.1" lengthAdjust="spacing" textLength="35.7" x="569.1" y="300.3198">checkUp</text><text fill="#000000" font-family="sans-serif" font-size="9.1" lengthAdjust="spacing" textLength="4.9" x="562.9334" y="284.0853">1</text><text fill="#000000" font-family="sans-serif" font-size="9.1" lengthAdjust="spacing" textLength="3.5" x="564.6977" y="316.2228">*</text></g><!--link CheckUp to FM--><g id="link_CheckUp_FM"><path codeLine="121" d="M568.4,409.584 C568.4,427.315 568.4,443.534 568.4,460.53 " fill="none" id="CheckUp-to-FM" style="stroke:#181818;stroke-width:0.6999999999999998;"/><polygon fill="#181818" points="568.4,464.73,571.2,458.43,568.4,461.23,565.6,458.43,568.4,464.73" style="stroke:#181818;stroke-width:0.6999999999999998;"/><text fill="#000000" font-family="sans-serif" font-size="9.1" lengthAdjust="spacing" textLength="41.3" x="569.1" y="441.0198">createdBy</text></g><!--SRC=[bLR1Rjim3BthAuHTdAvkiLrp6D2c6rOCtO1blUsYo4mYL9OCIUcG3VltKP9bIx4JO3a4Dlduz4XHj2hx8bJ736jfgvNcUwDReCuSW8oUZl4NjeErEqgW1hXZQYTpWDspHlyIQaUtJDhS8uK2T-o0TbeU_GkfPfpQE4soA2wPjNVE6R4vE7ZaMgt5Rw3l2AaaR1rrcXgnsplQ22z7Q8MU44JlkauAphnj3TPwL_M7L1H_rzGwT72w0_Uey5bnM5mb7nfN1sD0kJxEk_uElCyMp9GGWxpZOyk4xF4H_kc9_Y4USqCLQw5_18_hdxkznceC0Qizy9VdReXwL0vsO6Z3N8f-q8SDRa0d9wOlJ-jW855LpxK8IAeExGPCxK5reBiYOre_c7rPeMsdpP7sQTtGDLOUDxC1outeGdshb78UiSWGHRM-cHrJudVOXWbjA4XfUcNkQv1vOly56olSAJgMhhJ5qbR9ofh62rqu_BjAnbScXI_0gUUQCdNys7PI7m4-CnktCp0EY3oZXS-W7aNNNkSQTTPHMXtLu9l6BfDtJMEmSshQCeN7o0oSt41IOs0Bs7iSOxEQrbIehJOjamze7Am_iJVuNc6R1_i0RWw6nIUE2zVKPLlrKEnKh0TsRyhw_bWcJIh4N5lsMXHhlc- -0-OfNDP1uM3aaFjy_MdNJ9kcu1meSyJzi6E5ye5jO11WXrEL6_6y3iJZEA3B0ZH2-aCr2ilZvwKlCZchiDSzoKehPxIKUBvJTcVy2ptBNExjQB-Qht-UBSyNEZyYnXOvlu__qL-VyBiopbNVHqhZmd6AwssVVbXgo3tH7DA4fS9IlN4CFnjDT6wHbhez10orQJx7E3wL5br8Om371hn24oaiIFoEu1icpqW5gg5UNvAvqSuX2dNEztsc50arJcrXiR9774pHvIKcEVZPiovVOwP1dX-nCR1AHHFVV2YRUedJ8ROjgQQVFG-ViMP1v7J9sm_dsl04c_NlxKIKoO_F98Ctxz_GoL72Ef_bnmNoefDBm3CJP4ddJz55heb8f9aHNkRN9pYlWv0p-aBOsp9iVajx_kmoWgeEsTNaSY5FjPrKvdBmtCtg4hwuCQNhZKypPL7SFPR5H1i2iYhva5IfIw55WdbGqh2aF3wHPF48lB4j- -7OtFkEB7WIHq1166gM_0C0]--></g></svg>