<?xml version="1.0" encoding="us-ascii" standalone="no"?><svg xmlns="http://www.w3.org/2000/svg" xmlns:xlink="http://www.w3.org/1999/xlink" contentStyleType="text/css" height="371px" preserveAspectRatio="none" style="width:493px;height:370px;background:#FFFFFF;" version="1.1" viewBox="0 0 493 370" width="493.5px" zoomAndPan="magnify"><defs/><g><!--class CheckUpRepository--><g id="elem_CheckUpRepository"><rect codeLine="9" fill="#F1F1F1" height="72.7043" id="CheckUpRepository" rx="1.75" ry="1.75" style="stroke:#181818;stroke-width:0.3499999999999999;" width="109.9" x="184.45" y="185.5"/><ellipse cx="194.95" cy="196.7" fill="#ADD1B2" rx="7.7" ry="7.7" style="stroke:#181818;stroke-width:0.6999999999999998;"/><path d="M196.8859,193.8125 Q196.9953,193.6594 197.1266,193.5828 Q197.2578,193.5062 197.4109,193.5062 Q197.6734,193.5062 197.8375,193.6922 Q198.0016,193.8672 198.0016,194.2937 L198.0016,195.3109 Q198.0016,195.7375 197.8375,195.9234 Q197.6734,196.1094 197.4109,196.1094 Q197.1703,196.1094 197.0281,195.9672 Q196.8859,195.8359 196.8094,195.475 Q196.7766,195.2234 196.6453,195.0922 Q196.4156,194.8297 195.9891,194.6766 Q195.5625,194.5234 195.125,194.5234 Q194.5891,194.5234 194.1406,194.7531 Q193.7031,194.9828 193.3531,195.5078 Q193.0141,196.0328 193.0141,196.7547 L193.0141,197.5203 Q193.0141,198.3844 193.6375,198.9641 Q194.2609,199.5328 195.3766,199.5328 Q196.0328,199.5328 196.4922,199.3578 Q196.7656,199.2484 197.0609,198.9422 Q197.2469,198.7562 197.3453,198.7016 Q197.4547,198.6469 197.5969,198.6469 Q197.8266,198.6469 198.0016,198.8328 Q198.1875,199.0078 198.1875,199.2484 Q198.1875,199.4891 197.9469,199.7734 Q197.5969,200.1781 197.0391,200.4078 Q196.2844,200.725 195.3766,200.725 Q194.3156,200.725 193.4734,200.2875 Q192.7844,199.9375 192.3031,199.1937 Q191.8219,198.4391 191.8219,197.5422 L191.8219,196.7328 Q191.8219,195.8031 192.2484,195.0047 Q192.6859,194.1953 193.4516,193.7687 Q194.2172,193.3312 195.0812,193.3312 Q195.5953,193.3312 196.0437,193.4516 Q196.5031,193.5609 196.8859,193.8125 Z " fill="#000000"/><text fill="#000000" font-family="sans-serif" font-size="9.8" lengthAdjust="spacing" textLength="87.5" x="204.75" y="200.7578">CheckUpRepository</text><line style="stroke:#181818;stroke-width:0.3499999999999999;" x1="185.15" x2="293.65" y1="207.9" y2="207.9"/><text fill="#000000" font-family="sans-serif" font-size="9.8" lengthAdjust="spacing" textLength="82.6" x="188.65" y="221.2752">+RegisterCheckUp</text><line style="stroke:#181818;stroke-width:0.3499999999999999;" x1="185.15" x2="293.65" y1="226.5348" y2="226.5348"/><text fill="#000000" font-family="sans-serif" font-size="9.8" lengthAdjust="spacing" textLength="67.2" x="188.65" y="239.91">-addCheckUp()</text><text fill="#000000" font-family="sans-serif" font-size="9.8" lengthAdjust="spacing" textLength="84.7" x="188.65" y="252.9447">-validateCheckUp()</text></g><!--class FM--><g id="elem_FM"><rect codeLine="16" fill="#F1F1F1" height="46.6348" id="FM" rx="1.75" ry="1.75" style="stroke:#181818;stroke-width:0.3499999999999999;" width="36.4" x="385.7" y="319.9"/><ellipse cx="396.2" cy="331.1" fill="#ADD1B2" rx="7.7" ry="7.7" style="stroke:#181818;stroke-width:0.6999999999999998;"/><path d="M398.1359,328.2125 Q398.2453,328.0594 398.3766,327.9828 Q398.5078,327.9062 398.6609,327.9062 Q398.9234,327.9062 399.0875,328.0922 Q399.2516,328.2672 399.2516,328.6937 L399.2516,329.7109 Q399.2516,330.1375 399.0875,330.3234 Q398.9234,330.5094 398.6609,330.5094 Q398.4203,330.5094 398.2781,330.3672 Q398.1359,330.2359 398.0594,329.875 Q398.0266,329.6234 397.8953,329.4922 Q397.6656,329.2297 397.2391,329.0766 Q396.8125,328.9234 396.375,328.9234 Q395.8391,328.9234 395.3906,329.1531 Q394.9531,329.3828 394.6031,329.9078 Q394.2641,330.4328 394.2641,331.1547 L394.2641,331.9203 Q394.2641,332.7844 394.8875,333.3641 Q395.5109,333.9328 396.6266,333.9328 Q397.2828,333.9328 397.7422,333.7578 Q398.0156,333.6484 398.3109,333.3422 Q398.4969,333.1562 398.5953,333.1016 Q398.7047,333.0469 398.8469,333.0469 Q399.0766,333.0469 399.2516,333.2328 Q399.4375,333.4078 399.4375,333.6484 Q399.4375,333.8891 399.1969,334.1734 Q398.8469,334.5781 398.2891,334.8078 Q397.5344,335.125 396.6266,335.125 Q395.5656,335.125 394.7234,334.6875 Q394.0344,334.3375 393.5531,333.5937 Q393.0719,332.8391 393.0719,331.9422 L393.0719,331.1328 Q393.0719,330.2031 393.4984,329.4047 Q393.9359,328.5953 394.7016,328.1687 Q395.4672,327.7312 396.3312,327.7312 Q396.8453,327.7312 397.2937,327.8516 Q397.7531,327.9609 398.1359,328.2125 Z " fill="#000000"/><text fill="#000000" font-family="sans-serif" font-size="9.8" lengthAdjust="spacing" textLength="14" x="406" y="335.1578">FM</text><line style="stroke:#181818;stroke-width:0.3499999999999999;" x1="386.4" x2="421.4" y1="342.3" y2="342.3"/><text fill="#000000" font-family="sans-serif" font-size="9.8" lengthAdjust="spacing" textLength="28" x="389.9" y="355.6752">-name</text><line style="stroke:#181818;stroke-width:0.3499999999999999;" x1="386.4" x2="421.4" y1="360.9348" y2="360.9348"/></g><!--class CheckUp--><g id="elem_CheckUp"><rect codeLine="20" fill="#F1F1F1" height="85.7391" id="CheckUp" rx="1.75" ry="1.75" style="stroke:#181818;stroke-width:0.3499999999999999;" width="170.1" x="318.85" y="179.2"/><ellipse cx="380.975" cy="190.4" fill="#ADD1B2" rx="7.7" ry="7.7" style="stroke:#181818;stroke-width:0.6999999999999998;"/><path d="M382.9109,187.5125 Q383.0203,187.3594 383.1516,187.2828 Q383.2828,187.2062 383.4359,187.2062 Q383.6984,187.2062 383.8625,187.3922 Q384.0266,187.5672 384.0266,187.9937 L384.0266,189.0109 Q384.0266,189.4375 383.8625,189.6234 Q383.6984,189.8094 383.4359,189.8094 Q383.1953,189.8094 383.0531,189.6672 Q382.9109,189.5359 382.8344,189.175 Q382.8016,188.9234 382.6703,188.7922 Q382.4406,188.5297 382.0141,188.3766 Q381.5875,188.2234 381.15,188.2234 Q380.6141,188.2234 380.1656,188.4531 Q379.7281,188.6828 379.3781,189.2078 Q379.0391,189.7328 379.0391,190.4547 L379.0391,191.2203 Q379.0391,192.0844 379.6625,192.6641 Q380.2859,193.2328 381.4016,193.2328 Q382.0578,193.2328 382.5172,193.0578 Q382.7906,192.9484 383.0859,192.6422 Q383.2719,192.4562 383.3703,192.4016 Q383.4797,192.3469 383.6219,192.3469 Q383.8516,192.3469 384.0266,192.5328 Q384.2125,192.7078 384.2125,192.9484 Q384.2125,193.1891 383.9719,193.4734 Q383.6219,193.8781 383.0641,194.1078 Q382.3094,194.425 381.4016,194.425 Q380.3406,194.425 379.4984,193.9875 Q378.8094,193.6375 378.3281,192.8937 Q377.8469,192.1391 377.8469,191.2422 L377.8469,190.4328 Q377.8469,189.5031 378.2734,188.7047 Q378.7109,187.8953 379.4766,187.4687 Q380.2422,187.0312 381.1062,187.0312 Q381.6203,187.0312 382.0687,187.1516 Q382.5281,187.2609 382.9109,187.5125 Z " fill="#000000"/><text fill="#000000" font-family="sans-serif" font-size="9.8" lengthAdjust="spacing" textLength="39.9" x="395.325" y="194.4578">CheckUp</text><line style="stroke:#181818;stroke-width:0.3499999999999999;" x1="319.55" x2="488.25" y1="201.6" y2="201.6"/><text fill="#000000" font-family="sans-serif" font-size="9.8" lengthAdjust="spacing" textLength="56.7" x="323.05" y="214.9752">-Integer date</text><text fill="#000000" font-family="sans-serif" font-size="9.8" lengthAdjust="spacing" textLength="59.5" x="323.05" y="228.01">-Double plate</text><text fill="#000000" font-family="sans-serif" font-size="9.8" lengthAdjust="spacing" textLength="58.1" x="323.05" y="241.0447">-Double KMS</text><line style="stroke:#181818;stroke-width:0.3499999999999999;" x1="319.55" x2="488.25" y1="246.3043" y2="246.3043"/><text fill="#000000" font-family="sans-serif" font-size="9.8" lengthAdjust="spacing" textLength="161.7" x="323.05" y="259.6795">+CheckUp(plate number, KMS, date)</text></g><!--class Repositories--><g id="elem_Repositories"><rect codeLine="29" fill="#F1F1F1" height="72.7043" id="Repositories" rx="1.75" ry="1.75" style="stroke:#181818;stroke-width:0.3499999999999999;" width="135.8" x="95.9" y="85.4"/><ellipse cx="133.175" cy="96.6" fill="#ADD1B2" rx="7.7" ry="7.7" style="stroke:#181818;stroke-width:0.6999999999999998;"/><path d="M135.1109,93.7125 Q135.2203,93.5594 135.3516,93.4828 Q135.4828,93.4062 135.6359,93.4062 Q135.8984,93.4062 136.0625,93.5922 Q136.2266,93.7672 136.2266,94.1937 L136.2266,95.2109 Q136.2266,95.6375 136.0625,95.8234 Q135.8984,96.0094 135.6359,96.0094 Q135.3953,96.0094 135.2531,95.8672 Q135.1109,95.7359 135.0344,95.375 Q135.0016,95.1234 134.8703,94.9922 Q134.6406,94.7297 134.2141,94.5766 Q133.7875,94.4234 133.35,94.4234 Q132.8141,94.4234 132.3656,94.6531 Q131.9281,94.8828 131.5781,95.4078 Q131.2391,95.9328 131.2391,96.6547 L131.2391,97.4203 Q131.2391,98.2844 131.8625,98.8641 Q132.4859,99.4328 133.6016,99.4328 Q134.2578,99.4328 134.7172,99.2578 Q134.9906,99.1484 135.2859,98.8422 Q135.4719,98.6562 135.5703,98.6016 Q135.6797,98.5469 135.8219,98.5469 Q136.0516,98.5469 136.2266,98.7328 Q136.4125,98.9078 136.4125,99.1484 Q136.4125,99.3891 136.1719,99.6734 Q135.8219,100.0781 135.2641,100.3078 Q134.5094,100.625 133.6016,100.625 Q132.5406,100.625 131.6984,100.1875 Q131.0094,99.8375 130.5281,99.0937 Q130.0469,98.3391 130.0469,97.4422 L130.0469,96.6328 Q130.0469,95.7031 130.4734,94.9047 Q130.9109,94.0953 131.6766,93.6687 Q132.4422,93.2312 133.3062,93.2312 Q133.8203,93.2312 134.2687,93.3516 Q134.7281,93.4609 135.1109,93.7125 Z " fill="#000000"/><text fill="#000000" font-family="sans-serif" font-size="9.8" lengthAdjust="spacing" textLength="55.3" x="147.525" y="100.6578">Repositories</text><line style="stroke:#181818;stroke-width:0.3499999999999999;" x1="96.6" x2="231" y1="107.8" y2="107.8"/><line style="stroke:#181818;stroke-width:0.3499999999999999;" x1="96.6" x2="231" y1="113.4" y2="113.4"/><text fill="#000000" font-family="sans-serif" font-size="9.8" lengthAdjust="spacing" textLength="65.8" x="100.1" y="126.7752">-Repositories()</text><text fill="#000000" font-family="sans-serif" font-size="9.8" lengthAdjust="spacing" textLength="127.4" x="100.1" y="139.81">+getInstance() : Repositories</text><text fill="#000000" font-family="sans-serif" font-size="9.8" lengthAdjust="spacing" textLength="114.1" x="100.1" y="152.8447">+getCheckUpRepository()</text></g><!--class RegisterCheckUpController--><g id="elem_RegisterCheckUpController"><rect codeLine="35" fill="#F1F1F1" height="59.6695" id="RegisterCheckUpController" rx="1.75" ry="1.75" style="stroke:#181818;stroke-width:0.3499999999999999;" width="203.7" x="137.55" y="4.9"/><ellipse cx="176.225" cy="16.1" fill="#ADD1B2" rx="7.7" ry="7.7" style="stroke:#181818;stroke-width:0.6999999999999998;"/><path d="M178.1609,13.2125 Q178.2703,13.0594 178.4016,12.9828 Q178.5328,12.9062 178.6859,12.9062 Q178.9484,12.9062 179.1125,13.0922 Q179.2766,13.2672 179.2766,13.6937 L179.2766,14.7109 Q179.2766,15.1375 179.1125,15.3234 Q178.9484,15.5094 178.6859,15.5094 Q178.4453,15.5094 178.3031,15.3672 Q178.1609,15.2359 178.0844,14.875 Q178.0516,14.6234 177.9203,14.4922 Q177.6906,14.2297 177.2641,14.0766 Q176.8375,13.9234 176.4,13.9234 Q175.8641,13.9234 175.4156,14.1531 Q174.9781,14.3828 174.6281,14.9078 Q174.2891,15.4328 174.2891,16.1547 L174.2891,16.9203 Q174.2891,17.7844 174.9125,18.3641 Q175.5359,18.9328 176.6516,18.9328 Q177.3078,18.9328 177.7672,18.7578 Q178.0406,18.6484 178.3359,18.3422 Q178.5219,18.1562 178.6203,18.1016 Q178.7297,18.0469 178.8719,18.0469 Q179.1016,18.0469 179.2766,18.2328 Q179.4625,18.4078 179.4625,18.6484 Q179.4625,18.8891 179.2219,19.1734 Q178.8719,19.5781 178.3141,19.8078 Q177.5594,20.125 176.6516,20.125 Q175.5906,20.125 174.7484,19.6875 Q174.0594,19.3375 173.5781,18.5937 Q173.0969,17.8391 173.0969,16.9422 L173.0969,16.1328 Q173.0969,15.2031 173.5234,14.4047 Q173.9609,13.5953 174.7266,13.1687 Q175.4922,12.7312 176.3562,12.7312 Q176.8703,12.7312 177.3187,12.8516 Q177.7781,12.9609 178.1609,13.2125 Z " fill="#000000"/><text fill="#000000" font-family="sans-serif" font-size="9.8" lengthAdjust="spacing" textLength="120.4" x="190.575" y="20.1578">RegisterCheckUpController</text><line style="stroke:#181818;stroke-width:0.3499999999999999;" x1="138.25" x2="340.55" y1="27.3" y2="27.3"/><line style="stroke:#181818;stroke-width:0.3499999999999999;" x1="138.25" x2="340.55" y1="32.9" y2="32.9"/><text fill="#000000" font-family="sans-serif" font-size="9.8" lengthAdjust="spacing" textLength="133" x="141.75" y="46.2752">+RegisterCheckUpController()</text><text fill="#000000" font-family="sans-serif" font-size="9.8" lengthAdjust="spacing" textLength="195.3" x="141.75" y="59.31">+registerCheckUp(plate number, KMS, date)</text></g><!--class RegisterCheckUpUI--><g id="elem_RegisterCheckUpUI"><rect codeLine="40" fill="#F1F1F1" height="33.6" id="RegisterCheckUpUI" rx="1.75" ry="1.75" style="stroke:#181818;stroke-width:0.3499999999999999;" width="107.8" x="4.9" y="17.85"/><ellipse cx="15.4" cy="29.05" fill="#ADD1B2" rx="7.7" ry="7.7" style="stroke:#181818;stroke-width:0.6999999999999998;"/><path d="M17.3359,26.1625 Q17.4453,26.0094 17.5766,25.9328 Q17.7078,25.8562 17.8609,25.8562 Q18.1234,25.8562 18.2875,26.0422 Q18.4516,26.2172 18.4516,26.6437 L18.4516,27.6609 Q18.4516,28.0875 18.2875,28.2734 Q18.1234,28.4594 17.8609,28.4594 Q17.6203,28.4594 17.4781,28.3172 Q17.3359,28.1859 17.2594,27.825 Q17.2266,27.5734 17.0953,27.4422 Q16.8656,27.1797 16.4391,27.0266 Q16.0125,26.8734 15.575,26.8734 Q15.0391,26.8734 14.5906,27.1031 Q14.1531,27.3328 13.8031,27.8578 Q13.4641,28.3828 13.4641,29.1047 L13.4641,29.8703 Q13.4641,30.7344 14.0875,31.3141 Q14.7109,31.8828 15.8266,31.8828 Q16.4828,31.8828 16.9422,31.7078 Q17.2156,31.5984 17.5109,31.2922 Q17.6969,31.1062 17.7953,31.0516 Q17.9047,30.9969 18.0469,30.9969 Q18.2766,30.9969 18.4516,31.1828 Q18.6375,31.3578 18.6375,31.5984 Q18.6375,31.8391 18.3969,32.1234 Q18.0469,32.5281 17.4891,32.7578 Q16.7344,33.075 15.8266,33.075 Q14.7656,33.075 13.9234,32.6375 Q13.2344,32.2875 12.7531,31.5437 Q12.2719,30.7891 12.2719,29.8922 L12.2719,29.0828 Q12.2719,28.1531 12.6984,27.3547 Q13.1359,26.5453 13.9016,26.1187 Q14.6672,25.6812 15.5312,25.6812 Q16.0453,25.6812 16.4937,25.8016 Q16.9531,25.9109 17.3359,26.1625 Z " fill="#000000"/><text fill="#000000" font-family="sans-serif" font-size="9.8" lengthAdjust="spacing" textLength="85.4" x="25.2" y="33.1078">RegisterCheckUpUI</text><line style="stroke:#181818;stroke-width:0.3499999999999999;" x1="5.6" x2="112" y1="40.25" y2="40.25"/><line style="stroke:#181818;stroke-width:0.3499999999999999;" x1="5.6" x2="112" y1="45.85" y2="45.85"/></g><!--link Repositories to Repositories--><g id="link_Repositories_Repositories"><path codeLine="43" d="M231.896,106.099 C246.036,107.751 256.2,112.987 256.2,121.8 C256.2,130.613 250.2076,135.3616 236.0676,137.0136 " fill="none" id="Repositories-to-Repositories" style="stroke:#181818;stroke-width:0.6999999999999998;"/><polygon fill="#181818" points="231.896,137.501,238.4784,139.551,235.3724,137.0949,237.8285,133.9888,231.896,137.501" style="stroke:#181818;stroke-width:0.6999999999999998;"/><text fill="#000000" font-family="sans-serif" font-size="9.1" lengthAdjust="spacing" textLength="34.3" x="260.4" y="125.6698">instance</text></g><!--link RegisterCheckUpUI to RegisterCheckUpController--><g id="link_RegisterCheckUpUI_RegisterCheckUpController"><path codeLine="45" d="M112.784,34.65 C116.613,34.65 119,34.65 119,34.65 C119,34.65 122.92,34.65 133.189,34.65 " fill="none" id="RegisterCheckUpUI-to-RegisterCheckUpController" style="stroke:#181818;stroke-width:0.6999999999999998;stroke-dasharray:7.0,7.0;"/><polygon fill="#181818" points="137.389,34.65,131.089,31.85,133.889,34.65,131.089,37.45,137.389,34.65" style="stroke:#181818;stroke-width:0.6999999999999998;"/></g><!--link RegisterCheckUpController to Repositories--><g id="link_RegisterCheckUpController_Repositories"><path codeLine="47" d="M213.591,64.617 C207.774,71.218 204.3139,75.144 198.2869,81.983 " fill="none" id="RegisterCheckUpController-to-Repositories" style="stroke:#181818;stroke-width:0.6999999999999998;stroke-dasharray:7.0,7.0;"/><polygon fill="#181818" points="195.51,85.134,201.776,82.2587,197.8241,82.5082,197.5747,78.5562,195.51,85.134" style="stroke:#181818;stroke-width:0.6999999999999998;"/><text fill="#000000" font-family="sans-serif" font-size="9.1" lengthAdjust="spacing" textLength="46.9" x="205.254" y="85.3988">repositories</text></g><!--link Repositories to CheckUpRepository--><g id="link_Repositories_CheckUpRepository"><path codeLine="49" d="M191.31,158.41 C198.065,167.23 202.7344,173.3393 209.4824,182.1453 " fill="none" id="Repositories-to-CheckUpRepository" style="stroke:#181818;stroke-width:0.6999999999999998;"/><polygon fill="#181818" points="212.037,185.479,210.4275,178.7753,209.9081,182.7009,205.9826,182.1815,212.037,185.479" style="stroke:#181818;stroke-width:0.6999999999999998;"/><text fill="#000000" font-family="sans-serif" font-size="9.1" lengthAdjust="spacing" textLength="4.9" x="203.1309" y="177.7253">1</text></g><!--link CheckUpRepository to CheckUp--><g id="link_CheckUpRepository_CheckUp"><path codeLine="51" d="M294.392,221.9 C295.82,221.9 302.624,221.9 314.384,221.9 " fill="none" id="CheckUpRepository-to-CheckUp" style="stroke:#181818;stroke-width:0.6999999999999998;"/><polygon fill="#181818" points="318.584,221.9,312.284,219.1,315.084,221.9,312.284,224.7,318.584,221.9" style="stroke:#181818;stroke-width:0.6999999999999998;"/></g><!--link RegisterCheckUpController to CheckUpRepository--><g id="link_RegisterCheckUpController_CheckUpRepository"><path codeLine="52" d="M267.498,64.463 C278.124,75.474 287.7,85.4 287.7,85.4 C287.7,85.4 287.7,158.2 287.7,158.2 C287.7,158.2 280.2523,167.9148 269.3533,182.1318 " fill="none" id="RegisterCheckUpController-to-CheckUpRepository" style="stroke:#181818;stroke-width:0.6999999999999998;stroke-dasharray:7.0,7.0;"/><polygon fill="#181818" points="266.798,185.465,272.8531,182.1687,268.9274,182.6873,268.4088,178.7616,266.798,185.465" style="stroke:#181818;stroke-width:0.6999999999999998;"/><text fill="#000000" font-family="sans-serif" font-size="9.1" lengthAdjust="spacing" textLength="80.5" x="288.4" y="125.6698">CheckUpRepository</text></g><!--link CheckUp to FM--><g id="link_CheckUp_FM"><path codeLine="54" d="M403.9,264.922 C403.9,283.423 403.9,300.181 403.9,315.672 " fill="none" id="CheckUp-to-FM" style="stroke:#181818;stroke-width:0.6999999999999998;"/><polygon fill="#181818" points="403.9,319.872,406.7,313.572,403.9,316.372,401.1,313.572,403.9,319.872" style="stroke:#181818;stroke-width:0.6999999999999998;"/><text fill="#000000" font-family="sans-serif" font-size="9.1" lengthAdjust="spacing" textLength="41.3" x="404.6" y="296.1198">createdBy</text></g><!--SRC=[VLBBRi8m4BpxArQzG5I2sYi7f9QgKbHn0V41nja62yUsRATLYlhlTLAJ1mQEcHdFx6nsOezSQcfe2QMIYXsCAX6SgP3qZARiI0lSkbeW66IEoa8C1VP0S_NDPG6VLDWX8xX4Lsi4hKJTV9395L8PfyZW5HFKsXVd3DzN3ZEcv9R_83mHqZAmEY0xxlG6jRBSALEV202aDCy3CqrQu8iAdbE7FTh0Zx31Wbk79k3azspyleRM2bAGjCIU2CgEpQJ30WqqxW5wKzNUxqUB2FfORzjWdtoUf5M1hCezcbaZcBLMIPCO8hjs76sNEmJ_IthJ0bqchVyh3AS9B4QYNX8jRPhq_IusibBI6IM4RtWA3ZSLtHXchBZRyMhgBlDfdXmrJvVZJIo0XwwDyFBzV7bxq4W_Q3cFKinmYT583yyFyHKI4a6DzdnbTzBdozZDpt0x0L9lxAzr0SoWNsh-wha_]--></g></svg>