<?xml version="1.0" encoding="us-ascii" standalone="no"?><svg xmlns="http://www.w3.org/2000/svg" xmlns:xlink="http://www.w3.org/1999/xlink" contentStyleType="text/css" height="346.5px" preserveAspectRatio="none" style="width:704px;height:346px;background:#FFFFFF;" version="1.1" viewBox="0 0 704 346" width="704.7px" zoomAndPan="magnify"><defs/><g><!--class CheckUpRepository--><g id="elem_CheckUpRepository"><rect codeLine="9" fill="#F1F1F1" height="93.477" id="CheckUpRepository" rx="2.25" ry="2.25" style="stroke:#181818;stroke-width:0.45;" width="141.3" x="301.05" y="238.5"/><ellipse cx="314.55" cy="252.9" fill="#ADD1B2" rx="9.9" ry="9.9" style="stroke:#181818;stroke-width:0.9;"/><path d="M317.0391,249.1875 Q317.1797,248.9906 317.3484,248.8922 Q317.5172,248.7938 317.7141,248.7938 Q318.0516,248.7938 318.2625,249.0328 Q318.4734,249.2578 318.4734,249.8063 L318.4734,251.1141 Q318.4734,251.6625 318.2625,251.9016 Q318.0516,252.1406 317.7141,252.1406 Q317.4047,252.1406 317.2219,251.9578 Q317.0391,251.7891 316.9406,251.325 Q316.8984,251.0016 316.7297,250.8328 Q316.4344,250.4953 315.8859,250.2984 Q315.3375,250.1016 314.775,250.1016 Q314.0859,250.1016 313.5094,250.3969 Q312.9469,250.6922 312.4969,251.3672 Q312.0609,252.0422 312.0609,252.9703 L312.0609,253.9547 Q312.0609,255.0656 312.8625,255.8109 Q313.6641,256.5422 315.0984,256.5422 Q315.9422,256.5422 316.5328,256.3172 Q316.8844,256.1766 317.2641,255.7828 Q317.5031,255.5438 317.6297,255.4734 Q317.7703,255.4031 317.9531,255.4031 Q318.2484,255.4031 318.4734,255.6422 Q318.7125,255.8672 318.7125,256.1766 Q318.7125,256.4859 318.4031,256.8516 Q317.9531,257.3719 317.2359,257.6672 Q316.2656,258.075 315.0984,258.075 Q313.7344,258.075 312.6516,257.5125 Q311.7656,257.0625 311.1469,256.1063 Q310.5281,255.1359 310.5281,253.9828 L310.5281,252.9422 Q310.5281,251.7469 311.0766,250.7203 Q311.6391,249.6797 312.6234,249.1313 Q313.6078,248.5688 314.7188,248.5688 Q315.3797,248.5688 315.9563,248.7234 Q316.5469,248.8641 317.0391,249.1875 Z " fill="#000000"/><text fill="#000000" font-family="sans-serif" font-size="12.6" lengthAdjust="spacing" textLength="112.5" x="327.15" y="258.1172">CheckUpRepository</text><line style="stroke:#181818;stroke-width:0.45;" x1="301.95" x2="441.45" y1="267.3" y2="267.3"/><text fill="#000000" font-family="sans-serif" font-size="12.6" lengthAdjust="spacing" textLength="106.2" x="306.45" y="284.4967">+RegisterCheckUp</text><line style="stroke:#181818;stroke-width:0.45;" x1="301.95" x2="441.45" y1="291.259" y2="291.259"/><text fill="#000000" font-family="sans-serif" font-size="12.6" lengthAdjust="spacing" textLength="86.4" x="306.45" y="308.4557">-addCheckUp()</text><text fill="#000000" font-family="sans-serif" font-size="12.6" lengthAdjust="spacing" textLength="108.9" x="306.45" y="325.2146">-validateCheckUp()</text></g><!--class FM--><g id="elem_FM"><rect codeLine="16" fill="#F1F1F1" height="59.959" id="FM" rx="2.25" ry="2.25" style="stroke:#181818;stroke-width:0.45;" width="83.7" x="547.65" y="14.4"/><ellipse cx="577.755" cy="28.8" fill="#ADD1B2" rx="9.9" ry="9.9" style="stroke:#181818;stroke-width:0.9;"/><path d="M580.2441,25.0875 Q580.3847,24.8906 580.5534,24.7922 Q580.7222,24.6938 580.9191,24.6938 Q581.2566,24.6938 581.4675,24.9328 Q581.6784,25.1578 581.6784,25.7063 L581.6784,27.0141 Q581.6784,27.5625 581.4675,27.8016 Q581.2566,28.0406 580.9191,28.0406 Q580.6097,28.0406 580.4269,27.8578 Q580.2441,27.6891 580.1456,27.225 Q580.1034,26.9016 579.9347,26.7328 Q579.6394,26.3953 579.0909,26.1984 Q578.5425,26.0016 577.98,26.0016 Q577.2909,26.0016 576.7144,26.2969 Q576.1519,26.5922 575.7019,27.2672 Q575.2659,27.9422 575.2659,28.8703 L575.2659,29.8547 Q575.2659,30.9656 576.0675,31.7109 Q576.8691,32.4422 578.3034,32.4422 Q579.1472,32.4422 579.7378,32.2172 Q580.0894,32.0766 580.4691,31.6828 Q580.7081,31.4438 580.8347,31.3734 Q580.9753,31.3031 581.1581,31.3031 Q581.4534,31.3031 581.6784,31.5422 Q581.9175,31.7672 581.9175,32.0766 Q581.9175,32.3859 581.6081,32.7516 Q581.1581,33.2719 580.4409,33.5672 Q579.4706,33.975 578.3034,33.975 Q576.9394,33.975 575.8566,33.4125 Q574.9706,32.9625 574.3519,32.0063 Q573.7331,31.0359 573.7331,29.8828 L573.7331,28.8422 Q573.7331,27.6469 574.2816,26.6203 Q574.8441,25.5797 575.8284,25.0313 Q576.8128,24.4688 577.9238,24.4688 Q578.5847,24.4688 579.1613,24.6234 Q579.7519,24.7641 580.2441,25.0875 Z " fill="#000000"/><text fill="#000000" font-family="sans-serif" font-size="12.6" lengthAdjust="spacing" textLength="18" x="594.045" y="34.0172">FM</text><line style="stroke:#181818;stroke-width:0.45;" x1="548.55" x2="630.45" y1="43.2" y2="43.2"/><text fill="#000000" font-family="sans-serif" font-size="12.6" lengthAdjust="spacing" textLength="72.9" x="553.05" y="60.3967">-String name</text><line style="stroke:#181818;stroke-width:0.45;" x1="548.55" x2="630.45" y1="67.159" y2="67.159"/></g><!--class CheckUp--><g id="elem_CheckUp"><rect codeLine="20" fill="#F1F1F1" height="110.2359" id="CheckUp" rx="2.25" ry="2.25" style="stroke:#181818;stroke-width:0.45;" width="218.7" x="480.15" y="230.4"/><ellipse cx="560.025" cy="244.8" fill="#ADD1B2" rx="9.9" ry="9.9" style="stroke:#181818;stroke-width:0.9;"/><path d="M562.5141,241.0875 Q562.6547,240.8906 562.8234,240.7922 Q562.9922,240.6938 563.1891,240.6938 Q563.5266,240.6938 563.7375,240.9328 Q563.9484,241.1578 563.9484,241.7063 L563.9484,243.0141 Q563.9484,243.5625 563.7375,243.8016 Q563.5266,244.0406 563.1891,244.0406 Q562.8797,244.0406 562.6969,243.8578 Q562.5141,243.6891 562.4156,243.225 Q562.3734,242.9016 562.2047,242.7328 Q561.9094,242.3953 561.3609,242.1984 Q560.8125,242.0016 560.25,242.0016 Q559.5609,242.0016 558.9844,242.2969 Q558.4219,242.5922 557.9719,243.2672 Q557.5359,243.9422 557.5359,244.8703 L557.5359,245.8547 Q557.5359,246.9656 558.3375,247.7109 Q559.1391,248.4422 560.5734,248.4422 Q561.4172,248.4422 562.0078,248.2172 Q562.3594,248.0766 562.7391,247.6828 Q562.9781,247.4438 563.1047,247.3734 Q563.2453,247.3031 563.4281,247.3031 Q563.7234,247.3031 563.9484,247.5422 Q564.1875,247.7672 564.1875,248.0766 Q564.1875,248.3859 563.8781,248.7516 Q563.4281,249.2719 562.7109,249.5672 Q561.7406,249.975 560.5734,249.975 Q559.2094,249.975 558.1266,249.4125 Q557.2406,248.9625 556.6219,248.0063 Q556.0031,247.0359 556.0031,245.8828 L556.0031,244.8422 Q556.0031,243.6469 556.5516,242.6203 Q557.1141,241.5797 558.0984,241.0313 Q559.0828,240.4688 560.1938,240.4688 Q560.8547,240.4688 561.4313,240.6234 Q562.0219,240.7641 562.5141,241.0875 Z " fill="#000000"/><text fill="#000000" font-family="sans-serif" font-size="12.6" lengthAdjust="spacing" textLength="51.3" x="578.475" y="250.0172">CheckUp</text><line style="stroke:#181818;stroke-width:0.45;" x1="481.05" x2="697.95" y1="259.2" y2="259.2"/><text fill="#000000" font-family="sans-serif" font-size="12.6" lengthAdjust="spacing" textLength="72.9" x="485.55" y="276.3967">-Integer date</text><text fill="#000000" font-family="sans-serif" font-size="12.6" lengthAdjust="spacing" textLength="76.5" x="485.55" y="293.1557">-Double plate</text><text fill="#000000" font-family="sans-serif" font-size="12.6" lengthAdjust="spacing" textLength="74.7" x="485.55" y="309.9146">-Double KMS</text><line style="stroke:#181818;stroke-width:0.45;" x1="481.05" x2="697.95" y1="316.677" y2="316.677"/><text fill="#000000" font-family="sans-serif" font-size="12.6" lengthAdjust="spacing" textLength="207.9" x="485.55" y="333.8736">+CheckUp(plate number, KMS, date)</text></g><!--class Repositories--><g id="elem_Repositories"><rect codeLine="29" fill="#F1F1F1" height="93.477" id="Repositories" rx="2.25" ry="2.25" style="stroke:#181818;stroke-width:0.45;" width="174.6" x="143.1" y="109.8"/><ellipse cx="191.025" cy="124.2" fill="#ADD1B2" rx="9.9" ry="9.9" style="stroke:#181818;stroke-width:0.9;"/><path d="M193.5141,120.4875 Q193.6547,120.2906 193.8234,120.1922 Q193.9922,120.0938 194.1891,120.0938 Q194.5266,120.0938 194.7375,120.3328 Q194.9484,120.5578 194.9484,121.1063 L194.9484,122.4141 Q194.9484,122.9625 194.7375,123.2016 Q194.5266,123.4406 194.1891,123.4406 Q193.8797,123.4406 193.6969,123.2578 Q193.5141,123.0891 193.4156,122.625 Q193.3734,122.3016 193.2047,122.1328 Q192.9094,121.7953 192.3609,121.5984 Q191.8125,121.4016 191.25,121.4016 Q190.5609,121.4016 189.9844,121.6969 Q189.4219,121.9922 188.9719,122.6672 Q188.5359,123.3422 188.5359,124.2703 L188.5359,125.2547 Q188.5359,126.3656 189.3375,127.1109 Q190.1391,127.8422 191.5734,127.8422 Q192.4172,127.8422 193.0078,127.6172 Q193.3594,127.4766 193.7391,127.0828 Q193.9781,126.8438 194.1047,126.7734 Q194.2453,126.7031 194.4281,126.7031 Q194.7234,126.7031 194.9484,126.9422 Q195.1875,127.1672 195.1875,127.4766 Q195.1875,127.7859 194.8781,128.1516 Q194.4281,128.6719 193.7109,128.9672 Q192.7406,129.375 191.5734,129.375 Q190.2094,129.375 189.1266,128.8125 Q188.2406,128.3625 187.6219,127.4063 Q187.0031,126.4359 187.0031,125.2828 L187.0031,124.2422 Q187.0031,123.0469 187.5516,122.0203 Q188.1141,120.9797 189.0984,120.4313 Q190.0828,119.8688 191.1938,119.8688 Q191.8547,119.8688 192.4313,120.0234 Q193.0219,120.1641 193.5141,120.4875 Z " fill="#000000"/><text fill="#000000" font-family="sans-serif" font-size="12.6" lengthAdjust="spacing" textLength="71.1" x="209.475" y="129.4172">Repositories</text><line style="stroke:#181818;stroke-width:0.45;" x1="144" x2="316.8" y1="138.6" y2="138.6"/><line style="stroke:#181818;stroke-width:0.45;" x1="144" x2="316.8" y1="145.8" y2="145.8"/><text fill="#000000" font-family="sans-serif" font-size="12.6" lengthAdjust="spacing" textLength="84.6" x="148.5" y="162.9967">-Repositories()</text><text fill="#000000" font-family="sans-serif" font-size="12.6" lengthAdjust="spacing" textLength="163.8" x="148.5" y="179.7557">+getInstance() : Repositories</text><text fill="#000000" font-family="sans-serif" font-size="12.6" lengthAdjust="spacing" textLength="146.7" x="148.5" y="196.5146">+getCheckUpRepository()</text></g><!--class RegisterCheckUpController--><g id="elem_RegisterCheckUpController"><rect codeLine="35" fill="#F1F1F1" height="76.718" id="RegisterCheckUpController" rx="2.25" ry="2.25" style="stroke:#181818;stroke-width:0.45;" width="261.9" x="176.85" y="6.3"/><ellipse cx="226.575" cy="20.7" fill="#ADD1B2" rx="9.9" ry="9.9" style="stroke:#181818;stroke-width:0.9;"/><path d="M229.0641,16.9875 Q229.2047,16.7906 229.3734,16.6922 Q229.5422,16.5938 229.7391,16.5938 Q230.0766,16.5938 230.2875,16.8328 Q230.4984,17.0578 230.4984,17.6063 L230.4984,18.9141 Q230.4984,19.4625 230.2875,19.7016 Q230.0766,19.9406 229.7391,19.9406 Q229.4297,19.9406 229.2469,19.7578 Q229.0641,19.5891 228.9656,19.125 Q228.9234,18.8016 228.7547,18.6328 Q228.4594,18.2953 227.9109,18.0984 Q227.3625,17.9016 226.8,17.9016 Q226.1109,17.9016 225.5344,18.1969 Q224.9719,18.4922 224.5219,19.1672 Q224.0859,19.8422 224.0859,20.7703 L224.0859,21.7547 Q224.0859,22.8656 224.8875,23.6109 Q225.6891,24.3422 227.1234,24.3422 Q227.9672,24.3422 228.5578,24.1172 Q228.9094,23.9766 229.2891,23.5828 Q229.5281,23.3438 229.6547,23.2734 Q229.7953,23.2031 229.9781,23.2031 Q230.2734,23.2031 230.4984,23.4422 Q230.7375,23.6672 230.7375,23.9766 Q230.7375,24.2859 230.4281,24.6516 Q229.9781,25.1719 229.2609,25.4672 Q228.2906,25.875 227.1234,25.875 Q225.7594,25.875 224.6766,25.3125 Q223.7906,24.8625 223.1719,23.9063 Q222.5531,22.9359 222.5531,21.7828 L222.5531,20.7422 Q222.5531,19.5469 223.1016,18.5203 Q223.6641,17.4797 224.6484,16.9313 Q225.6328,16.3688 226.7438,16.3688 Q227.4047,16.3688 227.9813,16.5234 Q228.5719,16.6641 229.0641,16.9875 Z " fill="#000000"/><text fill="#000000" font-family="sans-serif" font-size="12.6" lengthAdjust="spacing" textLength="154.8" x="245.025" y="25.9172">RegisterCheckUpController</text><line style="stroke:#181818;stroke-width:0.45;" x1="177.75" x2="437.85" y1="35.1" y2="35.1"/><line style="stroke:#181818;stroke-width:0.45;" x1="177.75" x2="437.85" y1="42.3" y2="42.3"/><text fill="#000000" font-family="sans-serif" font-size="12.6" lengthAdjust="spacing" textLength="171" x="182.25" y="59.4967">+RegisterCheckUpController()</text><text fill="#000000" font-family="sans-serif" font-size="12.6" lengthAdjust="spacing" textLength="251.1" x="182.25" y="76.2557">+registerCheckUp(plate number, KMS, date)</text></g><!--class RegisterCheckUpUI--><g id="elem_RegisterCheckUpUI"><rect codeLine="40" fill="#F1F1F1" height="43.2" id="RegisterCheckUpUI" rx="2.25" ry="2.25" style="stroke:#181818;stroke-width:0.45;" width="138.6" x="6.3" y="22.95"/><ellipse cx="19.8" cy="37.35" fill="#ADD1B2" rx="9.9" ry="9.9" style="stroke:#181818;stroke-width:0.9;"/><path d="M22.2891,33.6375 Q22.4297,33.4406 22.5984,33.3422 Q22.7672,33.2438 22.9641,33.2438 Q23.3016,33.2438 23.5125,33.4828 Q23.7234,33.7078 23.7234,34.2563 L23.7234,35.5641 Q23.7234,36.1125 23.5125,36.3516 Q23.3016,36.5906 22.9641,36.5906 Q22.6547,36.5906 22.4719,36.4078 Q22.2891,36.2391 22.1906,35.775 Q22.1484,35.4516 21.9797,35.2828 Q21.6844,34.9453 21.1359,34.7484 Q20.5875,34.5516 20.025,34.5516 Q19.3359,34.5516 18.7594,34.8469 Q18.1969,35.1422 17.7469,35.8172 Q17.3109,36.4922 17.3109,37.4203 L17.3109,38.4047 Q17.3109,39.5156 18.1125,40.2609 Q18.9141,40.9922 20.3484,40.9922 Q21.1922,40.9922 21.7828,40.7672 Q22.1344,40.6266 22.5141,40.2328 Q22.7531,39.9938 22.8797,39.9234 Q23.0203,39.8531 23.2031,39.8531 Q23.4984,39.8531 23.7234,40.0922 Q23.9625,40.3172 23.9625,40.6266 Q23.9625,40.9359 23.6531,41.3016 Q23.2031,41.8219 22.4859,42.1172 Q21.5156,42.525 20.3484,42.525 Q18.9844,42.525 17.9016,41.9625 Q17.0156,41.5125 16.3969,40.5563 Q15.7781,39.5859 15.7781,38.4328 L15.7781,37.3922 Q15.7781,36.1969 16.3266,35.1703 Q16.8891,34.1297 17.8734,33.5813 Q18.8578,33.0188 19.9688,33.0188 Q20.6297,33.0188 21.2063,33.1734 Q21.7969,33.3141 22.2891,33.6375 Z " fill="#000000"/><text fill="#000000" font-family="sans-serif" font-size="12.6" lengthAdjust="spacing" textLength="109.8" x="32.4" y="42.5672">RegisterCheckUpUI</text><line style="stroke:#181818;stroke-width:0.45;" x1="7.2" x2="144" y1="51.75" y2="51.75"/><line style="stroke:#181818;stroke-width:0.45;" x1="7.2" x2="144" y1="58.95" y2="58.95"/></g><!--link RegisterCheckUpUI to RegisterCheckUpController--><g id="link_RegisterCheckUpUI_RegisterCheckUpController"><path codeLine="44" d="M145.008,44.55 C149.931,44.55 153,44.55 153,44.55 C153,44.55 158.04,44.55 171.243,44.55 " fill="none" id="RegisterCheckUpUI-to-RegisterCheckUpController" style="stroke:#181818;stroke-width:0.9;stroke-dasharray:7.0,7.0;"/><polygon fill="#181818" points="176.643,44.55,168.543,40.95,172.143,44.55,168.543,48.15,176.643,44.55" style="stroke:#181818;stroke-width:0.9;"/></g><!--link RegisterCheckUpController to Repositories--><g id="link_RegisterCheckUpController_Repositories"><path codeLine="46" d="M281.376,83.079 C275.427,91.566 272.1401,96.2456 265.9661,105.0386 " fill="none" id="RegisterCheckUpController-to-Repositories" style="stroke:#181818;stroke-width:0.9;stroke-dasharray:7.0,7.0;"/><polygon fill="#181818" points="262.863,109.458,270.4639,104.8976,265.4489,105.7752,264.5713,100.7602,262.863,109.458" style="stroke:#181818;stroke-width:0.9;"/><text fill="#000000" font-family="sans-serif" font-size="11.7" lengthAdjust="spacing" textLength="60.3" x="273.024" y="109.7985">repositories</text></g><!--link Repositories to CheckUpRepository--><g id="link_Repositories_CheckUpRepository"><path codeLine="48" d="M281.808,203.67 C294.435,215.01 303.9351,223.5432 316.5441,234.8652 " fill="none" id="Repositories-to-CheckUpRepository" style="stroke:#181818;stroke-width:0.9;"/><polygon fill="#181818" points="320.562,238.473,316.9403,230.3827,317.2137,235.4665,312.1299,235.7399,320.562,238.473" style="stroke:#181818;stroke-width:0.9;"/><text fill="#000000" font-family="sans-serif" font-size="11.7" lengthAdjust="spacing" textLength="6.3" x="306.9671" y="228.504">1</text></g><!--link CheckUpRepository to CheckUp--><g id="link_CheckUpRepository_CheckUp"><path codeLine="50" d="M442.413,285.3 C454.464,285.3 461.826,285.3 474.597,285.3 " fill="none" id="CheckUpRepository-to-CheckUp" style="stroke:#181818;stroke-width:0.9;"/><polygon fill="#181818" points="479.997,285.3,471.897,281.7,475.497,285.3,471.897,288.9,479.997,285.3" style="stroke:#181818;stroke-width:0.9;"/><text fill="#000000" font-family="sans-serif" font-size="11.7" lengthAdjust="spacing" textLength="4.5" x="459" y="279.0255">*</text></g><!--link RegisterCheckUpController to CheckUpRepository--><g id="link_RegisterCheckUpController_CheckUpRepository"><path codeLine="51" d="M355.446,82.881 C373.455,97.038 389.7,109.8 389.7,109.8 C389.7,109.8 389.7,203.4 389.7,203.4 C389.7,203.4 387.1471,214.905 383.0791,233.184 " fill="none" id="RegisterCheckUpController-to-CheckUpRepository" style="stroke:#181818;stroke-width:0.9;stroke-dasharray:7.0,7.0;"/><polygon fill="#181818" points="381.906,238.455,387.1796,231.3305,382.8836,234.0625,380.1516,229.7664,381.906,238.455" style="stroke:#181818;stroke-width:0.9;"/><text fill="#000000" font-family="sans-serif" font-size="11.7" lengthAdjust="spacing" textLength="103.5" x="390.6" y="161.5755">CheckUpRepository</text></g><!--link FM to CheckUp--><g id="link_FM_CheckUp"><path codeLine="53" d="M589.5,74.754 C589.5,113.382 589.5,176.688 589.5,224.892 " fill="none" id="FM-to-CheckUp" style="stroke:#181818;stroke-width:0.9;"/><polygon fill="#181818" points="589.5,230.292,593.1,222.192,589.5,225.792,585.9,222.192,589.5,230.292" style="stroke:#181818;stroke-width:0.9;"/></g><!--link Repositories to Repositories--><g id="link_Repositories_Repositories"><path codeLine="55" d="M317.952,136.413 C336.132,138.537 349.2,145.269 349.2,156.6 C349.2,167.931 341.4955,174.0364 323.3155,176.1604 " fill="none" id="Repositories-to-Repositories" style="stroke:#181818;stroke-width:0.9;"/><polygon fill="#181818" points="317.952,176.787,326.415,179.4227,322.4216,176.2648,325.5795,172.2714,317.952,176.787" style="stroke:#181818;stroke-width:0.9;"/><text fill="#000000" font-family="sans-serif" font-size="11.7" lengthAdjust="spacing" textLength="44.1" x="354.6" y="161.5755">instance</text></g><!--SRC=[VL91Ri8m4Bpx5Iika9QWzie12L5LYYekH3p0EDjWuTYMxRHAKVzU9pKaOE3ecV7EpDfZU-1IKqChg9HKR6zKXU1CZQHdD6K7McBk6e5Wa3agIp4Ks3qjr3UN9NnIOOUCu19Ten6q4arx8ECRf39EaS4j9gYrI-SCtzKECwPapdyGNWZf65ZjaHssUeDQMUwKQOu4059Q586P91tmHGKlgCCURU5ds639hKCJSF9x6lo-XcuKfBatztqahR2dW_waWKmwBD50wn6WDrNl_9QqYA2FTTxPU_zJdau5igvsQAQjODgDIbh7O7dkoD6UVOVWVrK_j4INIUlVXk4aWVc5g9T4gviaVR-hlQoKT4O9uHiUmuIxYdCCSwbusF6cwpRpRkq2Odosk1yWqW_IT_S6Uvpxb8Fba0ioNS3eTHJ_CK8YgDK6S0vFZmBC5l507-E6YV-2QJyspdPLX8Sd9ty0]--></g></svg>