<?xml version="1.0" encoding="us-ascii" standalone="no"?><svg xmlns="http://www.w3.org/2000/svg" xmlns:xlink="http://www.w3.org/1999/xlink" contentStyleType="text/css" height="476px" preserveAspectRatio="none" style="width:441px;height:476px;background:#FFFFFF;" version="1.1" viewBox="0 0 441 476" width="441px" zoomAndPan="magnify"><defs/><g><text fill="#000000" font-family="sans-serif" font-size="14" font-weight="bold" lengthAdjust="spacing" textLength="351" x="44" y="30.1074">System Sequence Diagram (SSD) - Alternative One</text><rect fill="#FFFFFF" height="251.3281" style="stroke:#181818;stroke-width:1.0;" width="10" x="18" y="133.2422"/><rect fill="#FFFFFF" height="31.291" style="stroke:#181818;stroke-width:1.0;" width="10" x="398" y="156.5332"/><rect fill="#FFFFFF" height="31.291" style="stroke:#181818;stroke-width:1.0;" width="10" x="398" y="219.1152"/><rect fill="#FFFFFF" height="31.291" style="stroke:#181818;stroke-width:1.0;" width="10" x="398" y="281.6973"/><rect fill="#FFFFFF" height="31.291" style="stroke:#181818;stroke-width:1.0;" width="10" x="398" y="344.2793"/><line style="stroke:#181818;stroke-width:0.5;stroke-dasharray:5.0,5.0;" x1="23" x2="23" y1="123.2422" y2="393.5703"/><line style="stroke:#181818;stroke-width:0.5;stroke-dasharray:5.0,5.0;" x1="403" x2="403" y1="123.2422" y2="393.5703"/><text fill="#000000" font-family="sans-serif" font-size="14" lengthAdjust="spacing" textLength="30" x="5" y="119.7285">HRM</text><ellipse cx="23" cy="53.1211" fill="#E3E3E3" rx="8" ry="8" style="stroke:#181818;stroke-width:0.5;"/><path d="M23,61.1211 L23,88.1211 M10,69.1211 L36,69.1211 M23,88.1211 L10,103.1211 M23,88.1211 L36,103.1211 " fill="none" style="stroke:#181818;stroke-width:0.5;"/><text fill="#000000" font-family="sans-serif" font-size="14" lengthAdjust="spacing" textLength="30" x="5" y="407.6777">HRM</text><ellipse cx="23" cy="419.6914" fill="#E3E3E3" rx="8" ry="8" style="stroke:#181818;stroke-width:0.5;"/><path d="M23,427.6914 L23,454.6914 M10,435.6914 L36,435.6914 M23,454.6914 L10,469.6914 M23,454.6914 L36,469.6914 " fill="none" style="stroke:#181818;stroke-width:0.5;"/><rect fill="#E3E3E3" height="32.6211" rx="2.5" ry="2.5" style="stroke:#181818;stroke-width:0.5;" width="64" x="371" y="89.6211"/><text fill="#000000" font-family="sans-serif" font-size="14" lengthAdjust="spacing" textLength="50" x="378" y="111.7285">:System</text><rect fill="#E3E3E3" height="32.6211" rx="2.5" ry="2.5" style="stroke:#181818;stroke-width:0.5;" width="64" x="371" y="392.5703"/><text fill="#000000" font-family="sans-serif" font-size="14" lengthAdjust="spacing" textLength="50" x="378" y="414.6777">:System</text><rect fill="#FFFFFF" height="251.3281" style="stroke:#181818;stroke-width:1.0;" width="10" x="18" y="133.2422"/><rect fill="#FFFFFF" height="31.291" style="stroke:#181818;stroke-width:1.0;" width="10" x="398" y="156.5332"/><rect fill="#FFFFFF" height="31.291" style="stroke:#181818;stroke-width:1.0;" width="10" x="398" y="219.1152"/><rect fill="#FFFFFF" height="31.291" style="stroke:#181818;stroke-width:1.0;" width="10" x="398" y="281.6973"/><rect fill="#FFFFFF" height="31.291" style="stroke:#181818;stroke-width:1.0;" width="10" x="398" y="344.2793"/><polygon fill="#181818" points="386,152.5332,396,156.5332,386,160.5332,390,156.5332" style="stroke:#181818;stroke-width:1.0;"/><line style="stroke:#181818;stroke-width:1.0;" x1="28" x2="392" y1="156.5332" y2="156.5332"/><text fill="#000000" font-family="sans-serif" font-size="13" font-weight="bold" lengthAdjust="spacing" textLength="7" x="35" y="151.2705">1</text><text fill="#000000" font-family="sans-serif" font-size="13" lengthAdjust="spacing" textLength="97" x="46" y="151.2705">Access interface</text><polygon fill="#181818" points="39,183.8242,29,187.8242,39,191.8242,35,187.8242" style="stroke:#181818;stroke-width:1.0;"/><line style="stroke:#181818;stroke-width:1.0;stroke-dasharray:2.0,2.0;" x1="33" x2="402" y1="187.8242" y2="187.8242"/><text fill="#000000" font-family="sans-serif" font-size="13" font-weight="bold" lengthAdjust="spacing" textLength="7" x="45" y="182.5615">2</text><text fill="#000000" font-family="sans-serif" font-size="13" lengthAdjust="spacing" textLength="92" x="56" y="182.5615">Shows interface</text><polygon fill="#181818" points="386,215.1152,396,219.1152,386,223.1152,390,219.1152" style="stroke:#181818;stroke-width:1.0;"/><line style="stroke:#181818;stroke-width:1.0;" x1="28" x2="392" y1="219.1152" y2="219.1152"/><text fill="#000000" font-family="sans-serif" font-size="13" font-weight="bold" lengthAdjust="spacing" textLength="7" x="35" y="213.8525">3</text><text fill="#000000" font-family="sans-serif" font-size="13" lengthAdjust="spacing" textLength="180" x="46" y="213.8525">Types username and password</text><polygon fill="#181818" points="39,246.4063,29,250.4063,39,254.4063,35,250.4063" style="stroke:#181818;stroke-width:1.0;"/><line style="stroke:#181818;stroke-width:1.0;stroke-dasharray:2.0,2.0;" x1="33" x2="402" y1="250.4063" y2="250.4063"/><text fill="#000000" font-family="sans-serif" font-size="13" font-weight="bold" lengthAdjust="spacing" textLength="7" x="45" y="245.1436">4</text><text fill="#000000" font-family="sans-serif" font-size="13" lengthAdjust="spacing" textLength="85" x="56" y="245.1436">Grants access</text><polygon fill="#181818" points="386,277.6973,396,281.6973,386,285.6973,390,281.6973" style="stroke:#181818;stroke-width:1.0;"/><line style="stroke:#181818;stroke-width:1.0;" x1="28" x2="392" y1="281.6973" y2="281.6973"/><text fill="#000000" font-family="sans-serif" font-size="13" font-weight="bold" lengthAdjust="spacing" textLength="7" x="35" y="276.4346">5</text><text fill="#000000" font-family="sans-serif" font-size="13" lengthAdjust="spacing" textLength="198" x="46" y="276.4346">Add/remove/edit/view/search skills</text><polygon fill="#181818" points="39,308.9883,29,312.9883,39,316.9883,35,312.9883" style="stroke:#181818;stroke-width:1.0;"/><line style="stroke:#181818;stroke-width:1.0;stroke-dasharray:2.0,2.0;" x1="33" x2="402" y1="312.9883" y2="312.9883"/><text fill="#000000" font-family="sans-serif" font-size="13" font-weight="bold" lengthAdjust="spacing" textLength="7" x="45" y="307.7256">6</text><text fill="#000000" font-family="sans-serif" font-size="13" lengthAdjust="spacing" textLength="335" x="56" y="307.7256">Shows all data and requests confirmation for the operation</text><polygon fill="#181818" points="386,340.2793,396,344.2793,386,348.2793,390,344.2793" style="stroke:#181818;stroke-width:1.0;"/><line style="stroke:#181818;stroke-width:1.0;" x1="28" x2="392" y1="344.2793" y2="344.2793"/><text fill="#000000" font-family="sans-serif" font-size="13" font-weight="bold" lengthAdjust="spacing" textLength="7" x="35" y="339.0166">7</text><text fill="#000000" font-family="sans-serif" font-size="13" lengthAdjust="spacing" textLength="80" x="46" y="339.0166">Confirms data</text><polygon fill="#181818" points="39,371.5703,29,375.5703,39,379.5703,35,375.5703" style="stroke:#181818;stroke-width:1.0;"/><line style="stroke:#181818;stroke-width:1.0;stroke-dasharray:2.0,2.0;" x1="33" x2="402" y1="375.5703" y2="375.5703"/><text fill="#000000" font-family="sans-serif" font-size="13" font-weight="bold" lengthAdjust="spacing" textLength="7" x="45" y="370.3076">8</text><text fill="#000000" font-family="sans-serif" font-size="13" lengthAdjust="spacing" textLength="160" x="56" y="370.3076">Displays operation success</text><!--SRC=[dLBBJiCm4BpdArOzmQ7AlGUaYYAu82J23ops9h7m8tWtYVBtRD8NGXLIwzFQdfcT7Pk_NEmmOu2GOZ9jJe50Say5dsuwD5_OK2MJ9yXa16FZVmEuHPj65nkeqJCLXJXHQ3MnK82AldkAXc3di9dXTrMrkuSrRBrGZYXk87YBIiDUKkp39sMjZQGCgvVtrnKWmrFeV9g82kqephWEey1gis-n8FRbGdG32fqf1UWwxc3zS3IsWQqnn0mkgf4Q3It8ay1H4GxhG5khmabj0rMRnhyIbYwANFJmCNN4qFCSXMQFqMhWp6FAzXOxprcJOMNDarrjPcjjcIcaWKgoJih1qLWoOJOjw7jxpxT7XDw3HS5bn3n_2bQZ9iNQvQ2_84MezScb9KWTvUNawW4UztAyTBh5wyvnvt7YimVW_hymVm00]--></g></svg>