<?xml version="1.0" encoding="us-ascii" standalone="no"?><svg xmlns="http://www.w3.org/2000/svg" xmlns:xlink="http://www.w3.org/1999/xlink" contentStyleType="text/css" height="1031.4px" preserveAspectRatio="none" style="width:1465px;height:1031px;background:#FFFFFF;" version="1.1" viewBox="0 0 1465 1031" width="1465.2px" zoomAndPan="magnify"><defs/><g><!--class AddTaskToDoListUI--><g id="elem_AddTaskToDoListUI"><rect codeLine="11" fill="#F1F1F1" height="43.2" id="AddTaskToDoListUI" rx="2.25" ry="2.25" style="stroke:#181818;stroke-width:0.45;" width="141.3" x="712.8" y="6.3"/><ellipse cx="726.3" cy="20.7" fill="#ADD1B2" rx="9.9" ry="9.9" style="stroke:#181818;stroke-width:0.9;"/><path d="M728.7891,16.9875 Q728.9297,16.7906 729.0984,16.6922 Q729.2672,16.5938 729.4641,16.5938 Q729.8016,16.5938 730.0125,16.8328 Q730.2234,17.0578 730.2234,17.6063 L730.2234,18.9141 Q730.2234,19.4625 730.0125,19.7016 Q729.8016,19.9406 729.4641,19.9406 Q729.1547,19.9406 728.9719,19.7578 Q728.7891,19.5891 728.6906,19.125 Q728.6484,18.8016 728.4797,18.6328 Q728.1844,18.2953 727.6359,18.0984 Q727.0875,17.9016 726.525,17.9016 Q725.8359,17.9016 725.2594,18.1969 Q724.6969,18.4922 724.2469,19.1672 Q723.8109,19.8422 723.8109,20.7703 L723.8109,21.7547 Q723.8109,22.8656 724.6125,23.6109 Q725.4141,24.3422 726.8484,24.3422 Q727.6922,24.3422 728.2828,24.1172 Q728.6344,23.9766 729.0141,23.5828 Q729.2531,23.3438 729.3797,23.2734 Q729.5203,23.2031 729.7031,23.2031 Q729.9984,23.2031 730.2234,23.4422 Q730.4625,23.6672 730.4625,23.9766 Q730.4625,24.2859 730.1531,24.6516 Q729.7031,25.1719 728.9859,25.4672 Q728.0156,25.875 726.8484,25.875 Q725.4844,25.875 724.4016,25.3125 Q723.5156,24.8625 722.8969,23.9063 Q722.2781,22.9359 722.2781,21.7828 L722.2781,20.7422 Q722.2781,19.5469 722.8266,18.5203 Q723.3891,17.4797 724.3734,16.9313 Q725.3578,16.3688 726.4688,16.3688 Q727.1297,16.3688 727.7063,16.5234 Q728.2969,16.6641 728.7891,16.9875 Z " fill="#000000"/><text fill="#000000" font-family="sans-serif" font-size="12.6" lengthAdjust="spacing" textLength="112.5" x="738.9" y="25.9172">AddTaskToDoListUI</text><line style="stroke:#181818;stroke-width:0.45;" x1="713.7" x2="853.2" y1="35.1" y2="35.1"/><line style="stroke:#181818;stroke-width:0.45;" x1="713.7" x2="853.2" y1="42.3" y2="42.3"/></g><!--class AddTaskToDoListController--><g id="elem_AddTaskToDoListController"><rect codeLine="14" fill="#F1F1F1" height="126.9949" id="AddTaskToDoListController" rx="2.25" ry="2.25" style="stroke:#181818;stroke-width:0.45;" width="567.9" x="499.5" y="104.4"/><ellipse cx="700.875" cy="118.8" fill="#ADD1B2" rx="9.9" ry="9.9" style="stroke:#181818;stroke-width:0.9;"/><path d="M703.3641,115.0875 Q703.5047,114.8906 703.6734,114.7922 Q703.8422,114.6938 704.0391,114.6938 Q704.3766,114.6938 704.5875,114.9328 Q704.7984,115.1578 704.7984,115.7063 L704.7984,117.0141 Q704.7984,117.5625 704.5875,117.8016 Q704.3766,118.0406 704.0391,118.0406 Q703.7297,118.0406 703.5469,117.8578 Q703.3641,117.6891 703.2656,117.225 Q703.2234,116.9016 703.0547,116.7328 Q702.7594,116.3953 702.2109,116.1984 Q701.6625,116.0016 701.1,116.0016 Q700.4109,116.0016 699.8344,116.2969 Q699.2719,116.5922 698.8219,117.2672 Q698.3859,117.9422 698.3859,118.8703 L698.3859,119.8547 Q698.3859,120.9656 699.1875,121.7109 Q699.9891,122.4422 701.4234,122.4422 Q702.2672,122.4422 702.8578,122.2172 Q703.2094,122.0766 703.5891,121.6828 Q703.8281,121.4438 703.9547,121.3734 Q704.0953,121.3031 704.2781,121.3031 Q704.5734,121.3031 704.7984,121.5422 Q705.0375,121.7672 705.0375,122.0766 Q705.0375,122.3859 704.7281,122.7516 Q704.2781,123.2719 703.5609,123.5672 Q702.5906,123.975 701.4234,123.975 Q700.0594,123.975 698.9766,123.4125 Q698.0906,122.9625 697.4719,122.0063 Q696.8531,121.0359 696.8531,119.8828 L696.8531,118.8422 Q696.8531,117.6469 697.4016,116.6203 Q697.9641,115.5797 698.9484,115.0313 Q699.9328,114.4688 701.0438,114.4688 Q701.7047,114.4688 702.2813,114.6234 Q702.8719,114.7641 703.3641,115.0875 Z " fill="#000000"/><text fill="#000000" font-family="sans-serif" font-size="12.6" lengthAdjust="spacing" textLength="157.5" x="719.325" y="124.0172">AddTaskToDoListController</text><line style="stroke:#181818;stroke-width:0.45;" x1="500.4" x2="1066.5" y1="133.2" y2="133.2"/><line style="stroke:#181818;stroke-width:0.45;" x1="500.4" x2="1066.5" y1="140.4" y2="140.4"/><text fill="#000000" font-family="sans-serif" font-size="12.6" lengthAdjust="spacing" textLength="506.7" x="504.9" y="157.5967">+AddTaskToDoListController(greenSpaceRepository, toDoList, authenticationRepository)</text><text fill="#000000" font-family="sans-serif" font-size="12.6" lengthAdjust="spacing" textLength="557.1" x="504.9" y="174.3557">+addTaskToDoList(title, description, degreeOfUrgency, expectedDuration, taskType, greenSpace)</text><text fill="#000000" font-family="sans-serif" font-size="12.6" lengthAdjust="spacing" textLength="181.8" x="504.9" y="191.1146">-getGreenSpaceByName(name)</text><text fill="#000000" font-family="sans-serif" font-size="12.6" lengthAdjust="spacing" textLength="134.1" x="504.9" y="207.8736">-getGSMFromSession()</text><text fill="#000000" font-family="sans-serif" font-size="12.6" lengthAdjust="spacing" textLength="159.3" x="504.9" y="224.6326">+getGreenSpacesListDTO()</text></g><!--class ToDoList--><g id="elem_ToDoList"><rect codeLine="22" fill="#F1F1F1" height="59.959" id="ToDoList" rx="2.25" ry="2.25" style="stroke:#181818;stroke-width:0.45;" width="146.7" x="312.3" y="526.05"/><ellipse cx="356.175" cy="540.45" fill="#ADD1B2" rx="9.9" ry="9.9" style="stroke:#181818;stroke-width:0.9;"/><path d="M358.6641,536.7375 Q358.8047,536.5406 358.9734,536.4422 Q359.1422,536.3438 359.3391,536.3438 Q359.6766,536.3438 359.8875,536.5828 Q360.0984,536.8078 360.0984,537.3563 L360.0984,538.6641 Q360.0984,539.2125 359.8875,539.4516 Q359.6766,539.6906 359.3391,539.6906 Q359.0297,539.6906 358.8469,539.5078 Q358.6641,539.3391 358.5656,538.875 Q358.5234,538.5516 358.3547,538.3828 Q358.0594,538.0453 357.5109,537.8484 Q356.9625,537.6516 356.4,537.6516 Q355.7109,537.6516 355.1344,537.9469 Q354.5719,538.2422 354.1219,538.9172 Q353.6859,539.5922 353.6859,540.5203 L353.6859,541.5047 Q353.6859,542.6156 354.4875,543.3609 Q355.2891,544.0922 356.7234,544.0922 Q357.5672,544.0922 358.1578,543.8672 Q358.5094,543.7266 358.8891,543.3328 Q359.1281,543.0938 359.2547,543.0234 Q359.3953,542.9531 359.5781,542.9531 Q359.8734,542.9531 360.0984,543.1922 Q360.3375,543.4172 360.3375,543.7266 Q360.3375,544.0359 360.0281,544.4016 Q359.5781,544.9219 358.8609,545.2172 Q357.8906,545.625 356.7234,545.625 Q355.3594,545.625 354.2766,545.0625 Q353.3906,544.6125 352.7719,543.6563 Q352.1531,542.6859 352.1531,541.5328 L352.1531,540.4922 Q352.1531,539.2969 352.7016,538.2703 Q353.2641,537.2297 354.2484,536.6813 Q355.2328,536.1188 356.3438,536.1188 Q357.0047,536.1188 357.5813,536.2734 Q358.1719,536.4141 358.6641,536.7375 Z " fill="#000000"/><text fill="#000000" font-family="sans-serif" font-size="12.6" lengthAdjust="spacing" textLength="51.3" x="374.625" y="545.6672">ToDoList</text><line style="stroke:#181818;stroke-width:0.45;" x1="313.2" x2="458.1" y1="554.85" y2="554.85"/><line style="stroke:#181818;stroke-width:0.45;" x1="313.2" x2="458.1" y1="562.05" y2="562.05"/><text fill="#000000" font-family="sans-serif" font-size="12.6" lengthAdjust="spacing" textLength="135.9" x="317.7" y="579.2467">+getTaskByIndex(index)</text></g><!--class GreenSpace--><g id="elem_GreenSpace"><rect codeLine="26" fill="#F1F1F1" height="143.7539" id="GreenSpace" rx="2.25" ry="2.25" style="stroke:#181818;stroke-width:0.45;" width="374.4" x="511.65" y="699.75"/><ellipse cx="659.025" cy="714.15" fill="#ADD1B2" rx="9.9" ry="9.9" style="stroke:#181818;stroke-width:0.9;"/><path d="M661.5141,710.4375 Q661.6547,710.2406 661.8234,710.1422 Q661.9922,710.0438 662.1891,710.0438 Q662.5266,710.0438 662.7375,710.2828 Q662.9484,710.5078 662.9484,711.0563 L662.9484,712.3641 Q662.9484,712.9125 662.7375,713.1516 Q662.5266,713.3906 662.1891,713.3906 Q661.8797,713.3906 661.6969,713.2078 Q661.5141,713.0391 661.4156,712.575 Q661.3734,712.2516 661.2047,712.0828 Q660.9094,711.7453 660.3609,711.5484 Q659.8125,711.3516 659.25,711.3516 Q658.5609,711.3516 657.9844,711.6469 Q657.4219,711.9422 656.9719,712.6172 Q656.5359,713.2922 656.5359,714.2203 L656.5359,715.2047 Q656.5359,716.3156 657.3375,717.0609 Q658.1391,717.7922 659.5734,717.7922 Q660.4172,717.7922 661.0078,717.5672 Q661.3594,717.4266 661.7391,717.0328 Q661.9781,716.7938 662.1047,716.7234 Q662.2453,716.6531 662.4281,716.6531 Q662.7234,716.6531 662.9484,716.8922 Q663.1875,717.1172 663.1875,717.4266 Q663.1875,717.7359 662.8781,718.1016 Q662.4281,718.6219 661.7109,718.9172 Q660.7406,719.325 659.5734,719.325 Q658.2094,719.325 657.1266,718.7625 Q656.2406,718.3125 655.6219,717.3563 Q655.0031,716.3859 655.0031,715.2328 L655.0031,714.1922 Q655.0031,712.9969 655.5516,711.9703 Q656.1141,710.9297 657.0984,710.3813 Q658.0828,709.8188 659.1938,709.8188 Q659.8547,709.8188 660.4313,709.9734 Q661.0219,710.1141 661.5141,710.4375 Z " fill="#000000"/><text fill="#000000" font-family="sans-serif" font-size="12.6" lengthAdjust="spacing" textLength="72" x="677.475" y="719.3672">GreenSpace</text><line style="stroke:#181818;stroke-width:0.45;" x1="512.55" x2="885.15" y1="728.55" y2="728.55"/><text fill="#000000" font-family="sans-serif" font-size="12.6" lengthAdjust="spacing" textLength="72.9" x="517.05" y="745.7467">-String name</text><text fill="#000000" font-family="sans-serif" font-size="12.6" lengthAdjust="spacing" textLength="86.4" x="517.05" y="762.5057">-Adress adress</text><text fill="#000000" font-family="sans-serif" font-size="12.6" lengthAdjust="spacing" textLength="133.2" x="517.05" y="779.2646">-GreenSpaceType type</text><text fill="#000000" font-family="sans-serif" font-size="12.6" lengthAdjust="spacing" textLength="72.9" x="517.05" y="796.0236">-double area</text><text fill="#000000" font-family="sans-serif" font-size="12.6" lengthAdjust="spacing" textLength="262.8" x="517.05" y="812.7826">-GreenSpacesManager greenSpacesManager</text><line style="stroke:#181818;stroke-width:0.45;" x1="512.55" x2="885.15" y1="819.5449" y2="819.5449"/><text fill="#000000" font-family="sans-serif" font-size="12.6" lengthAdjust="spacing" textLength="363.6" x="517.05" y="836.7416">+GreenSpace(name, adress, type, area, greenSpacesManager)</text></g><!--class Repositories--><g id="elem_Repositories"><rect codeLine="35" fill="#F1F1F1" height="126.9949" id="Repositories" rx="2.25" ry="2.25" style="stroke:#181818;stroke-width:0.45;" width="187.2" x="462.15" y="302.4"/><ellipse cx="516.375" cy="316.8" fill="#ADD1B2" rx="9.9" ry="9.9" style="stroke:#181818;stroke-width:0.9;"/><path d="M518.8641,313.0875 Q519.0047,312.8906 519.1734,312.7922 Q519.3422,312.6938 519.5391,312.6938 Q519.8766,312.6938 520.0875,312.9328 Q520.2984,313.1578 520.2984,313.7063 L520.2984,315.0141 Q520.2984,315.5625 520.0875,315.8016 Q519.8766,316.0406 519.5391,316.0406 Q519.2297,316.0406 519.0469,315.8578 Q518.8641,315.6891 518.7656,315.225 Q518.7234,314.9016 518.5547,314.7328 Q518.2594,314.3953 517.7109,314.1984 Q517.1625,314.0016 516.6,314.0016 Q515.9109,314.0016 515.3344,314.2969 Q514.7719,314.5922 514.3219,315.2672 Q513.8859,315.9422 513.8859,316.8703 L513.8859,317.8547 Q513.8859,318.9656 514.6875,319.7109 Q515.4891,320.4422 516.9234,320.4422 Q517.7672,320.4422 518.3578,320.2172 Q518.7094,320.0766 519.0891,319.6828 Q519.3281,319.4438 519.4547,319.3734 Q519.5953,319.3031 519.7781,319.3031 Q520.0734,319.3031 520.2984,319.5422 Q520.5375,319.7672 520.5375,320.0766 Q520.5375,320.3859 520.2281,320.7516 Q519.7781,321.2719 519.0609,321.5672 Q518.0906,321.975 516.9234,321.975 Q515.5594,321.975 514.4766,321.4125 Q513.5906,320.9625 512.9719,320.0063 Q512.3531,319.0359 512.3531,317.8828 L512.3531,316.8422 Q512.3531,315.6469 512.9016,314.6203 Q513.4641,313.5797 514.4484,313.0313 Q515.4328,312.4688 516.5438,312.4688 Q517.2047,312.4688 517.7813,312.6234 Q518.3719,312.7641 518.8641,313.0875 Z " fill="#000000"/><text fill="#000000" font-family="sans-serif" font-size="12.6" lengthAdjust="spacing" textLength="71.1" x="534.825" y="322.0172">Repositories</text><line style="stroke:#181818;stroke-width:0.45;" x1="463.05" x2="648.45" y1="331.2" y2="331.2"/><line style="stroke:#181818;stroke-width:0.45;" x1="463.05" x2="648.45" y1="338.4" y2="338.4"/><text fill="#000000" font-family="sans-serif" font-size="12.6" lengthAdjust="spacing" textLength="84.6" x="467.55" y="355.5967">-Repositories()</text><text fill="#000000" font-family="sans-serif" font-size="12.6" lengthAdjust="spacing" textLength="163.8" x="467.55" y="372.3557">+getInstance() : Repositories</text><text fill="#000000" font-family="sans-serif" font-size="12.6" lengthAdjust="spacing" textLength="85.5" x="467.55" y="389.1146">+getToDoList()</text><text fill="#000000" font-family="sans-serif" font-size="12.6" lengthAdjust="spacing" textLength="167.4" x="467.55" y="405.8736">+getGreenSpaceRepository()</text><text fill="#000000" font-family="sans-serif" font-size="12.6" lengthAdjust="spacing" textLength="176.4" x="467.55" y="422.6326">+getAuthenticationRepository()</text></g><!--class TaskStatus--><g id="elem_TaskStatus"><rect codeLine="43" fill="#F1F1F1" height="76.718" id="TaskStatus" rx="2.25" ry="2.25" style="stroke:#181818;stroke-width:0.45;" width="92.7" x="6.3" y="931.95"/><ellipse cx="19.8" cy="946.35" fill="#EB937F" rx="9.9" ry="9.9" style="stroke:#181818;stroke-width:0.9;"/><path d="M18.7734,947.0672 L18.7734,949.3172 L22.6688,949.3172 L22.6688,948.4875 Q22.6688,947.9391 22.8797,947.7 Q23.1047,947.4609 23.4422,947.4609 Q23.7797,947.4609 23.9906,947.7 Q24.2016,947.9391 24.2016,948.4875 L24.2016,950.85 L17.0016,950.85 Q16.4391,950.85 16.2,950.6391 Q15.975,950.4281 15.975,950.0766 Q15.975,949.7391 16.2141,949.5281 Q16.4531,949.3172 17.0016,949.3172 L17.2406,949.3172 L17.2406,943.3266 L17.0016,943.3266 Q16.4391,943.3266 16.2,943.1156 Q15.975,942.9047 15.975,942.5531 Q15.975,942.2156 16.2,942.0047 Q16.4391,941.7938 17.0016,941.7938 L23.8641,941.7938 L23.8641,944.1281 Q23.8641,944.6766 23.6531,944.9156 Q23.4563,945.1406 23.1047,945.1406 Q22.7672,945.1406 22.5563,944.9156 Q22.3453,944.6766 22.3453,944.1281 L22.3453,943.3266 L18.7734,943.3266 L18.7734,945.5344 L20.1094,945.5344 Q20.1094,944.9438 20.2219,944.775 Q20.4609,944.4094 20.8828,944.4094 Q21.2203,944.4094 21.4313,944.6484 Q21.6422,944.8734 21.6422,945.4219 L21.6422,947.1938 Q21.6422,947.6859 21.5297,947.8547 Q21.2906,948.2063 20.8828,948.2063 Q20.4609,948.2063 20.2219,947.8406 Q20.1094,947.6719 20.1094,947.0672 L18.7734,947.0672 Z " fill="#000000"/><text fill="#000000" font-family="sans-serif" font-size="12.6" lengthAdjust="spacing" textLength="63.9" x="32.4" y="951.5672">TaskStatus</text><line style="stroke:#181818;stroke-width:0.45;" x1="7.2" x2="98.1" y1="960.75" y2="960.75"/><text fill="#000000" font-family="sans-serif" font-size="12.6" lengthAdjust="spacing" textLength="54" x="11.7" y="977.9467">PENDING</text><text fill="#000000" font-family="sans-serif" font-size="12.6" lengthAdjust="spacing" textLength="77.4" x="11.7" y="994.7057">PROCESSED</text><line style="stroke:#181818;stroke-width:0.45;" x1="7.2" x2="98.1" y1="1001.468" y2="1001.468"/></g><!--class Task--><g id="elem_Task"><rect codeLine="48" fill="#F1F1F1" height="177.2719" id="Task" rx="2.25" ry="2.25" style="stroke:#181818;stroke-width:0.45;" width="467.1" x="12.6" y="683.1"/><ellipse cx="228.375" cy="697.5" fill="#ADD1B2" rx="9.9" ry="9.9" style="stroke:#181818;stroke-width:0.9;"/><path d="M230.8641,693.7875 Q231.0047,693.5906 231.1734,693.4922 Q231.3422,693.3938 231.5391,693.3938 Q231.8766,693.3938 232.0875,693.6328 Q232.2984,693.8578 232.2984,694.4063 L232.2984,695.7141 Q232.2984,696.2625 232.0875,696.5016 Q231.8766,696.7406 231.5391,696.7406 Q231.2297,696.7406 231.0469,696.5578 Q230.8641,696.3891 230.7656,695.925 Q230.7234,695.6016 230.5547,695.4328 Q230.2594,695.0953 229.7109,694.8984 Q229.1625,694.7016 228.6,694.7016 Q227.9109,694.7016 227.3344,694.9969 Q226.7719,695.2922 226.3219,695.9672 Q225.8859,696.6422 225.8859,697.5703 L225.8859,698.5547 Q225.8859,699.6656 226.6875,700.4109 Q227.4891,701.1422 228.9234,701.1422 Q229.7672,701.1422 230.3578,700.9172 Q230.7094,700.7766 231.0891,700.3828 Q231.3281,700.1438 231.4547,700.0734 Q231.5953,700.0031 231.7781,700.0031 Q232.0734,700.0031 232.2984,700.2422 Q232.5375,700.4672 232.5375,700.7766 Q232.5375,701.0859 232.2281,701.4516 Q231.7781,701.9719 231.0609,702.2672 Q230.0906,702.675 228.9234,702.675 Q227.5594,702.675 226.4766,702.1125 Q225.5906,701.6625 224.9719,700.7063 Q224.3531,699.7359 224.3531,698.5828 L224.3531,697.5422 Q224.3531,696.3469 224.9016,695.3203 Q225.4641,694.2797 226.4484,693.7313 Q227.4328,693.1688 228.5438,693.1688 Q229.2047,693.1688 229.7813,693.3234 Q230.3719,693.4641 230.8641,693.7875 Z " fill="#000000"/><text fill="#000000" font-family="sans-serif" font-size="12.6" lengthAdjust="spacing" textLength="27.9" x="246.825" y="702.7172">Task</text><line style="stroke:#181818;stroke-width:0.45;" x1="13.5" x2="478.8" y1="711.9" y2="711.9"/><text fill="#000000" font-family="sans-serif" font-size="12.6" lengthAdjust="spacing" textLength="61.2" x="18" y="729.0967">-String title</text><text fill="#000000" font-family="sans-serif" font-size="12.6" lengthAdjust="spacing" textLength="103.5" x="18" y="745.8557">-String description</text><text fill="#000000" font-family="sans-serif" font-size="12.6" lengthAdjust="spacing" textLength="215.1" x="18" y="762.6146">-EmergencyDegree degreeOfUrgency</text><text fill="#000000" font-family="sans-serif" font-size="12.6" lengthAdjust="spacing" textLength="121.5" x="18" y="779.3736">-int expectedDuration</text><text fill="#000000" font-family="sans-serif" font-size="12.6" lengthAdjust="spacing" textLength="89.1" x="18" y="796.1326">-TaskType type</text><text fill="#000000" font-family="sans-serif" font-size="12.6" lengthAdjust="spacing" textLength="149.4" x="18" y="812.8916">-GreenSpace greenSpace</text><line style="stroke:#181818;stroke-width:0.45;" x1="13.5" x2="478.8" y1="819.6539" y2="819.6539"/><text fill="#000000" font-family="sans-serif" font-size="12.6" lengthAdjust="spacing" textLength="456.3" x="18" y="836.8506">+Task(title, description, degreeOfUrgency, expectedDuration, type, greenSpace)</text><text fill="#000000" font-family="sans-serif" font-size="12.6" lengthAdjust="spacing" textLength="128.7" x="18" y="853.6096">+changeStatus(status)</text></g><!--class GreenSpaceRepository--><g id="elem_GreenSpaceRepository"><rect codeLine="59" fill="#F1F1F1" height="76.718" id="GreenSpaceRepository" rx="2.25" ry="2.25" style="stroke:#181818;stroke-width:0.45;" width="195.3" x="601.2" y="517.95"/><ellipse cx="629.685" cy="532.35" fill="#ADD1B2" rx="9.9" ry="9.9" style="stroke:#181818;stroke-width:0.9;"/><path d="M632.1741,528.6375 Q632.3147,528.4406 632.4834,528.3422 Q632.6522,528.2438 632.8491,528.2438 Q633.1866,528.2438 633.3975,528.4828 Q633.6084,528.7078 633.6084,529.2563 L633.6084,530.5641 Q633.6084,531.1125 633.3975,531.3516 Q633.1866,531.5906 632.8491,531.5906 Q632.5397,531.5906 632.3569,531.4078 Q632.1741,531.2391 632.0756,530.775 Q632.0334,530.4516 631.8647,530.2828 Q631.5694,529.9453 631.0209,529.7484 Q630.4725,529.5516 629.91,529.5516 Q629.2209,529.5516 628.6444,529.8469 Q628.0819,530.1422 627.6319,530.8172 Q627.1959,531.4922 627.1959,532.4203 L627.1959,533.4047 Q627.1959,534.5156 627.9975,535.2609 Q628.7991,535.9922 630.2334,535.9922 Q631.0772,535.9922 631.6678,535.7672 Q632.0194,535.6266 632.3991,535.2328 Q632.6381,534.9938 632.7647,534.9234 Q632.9053,534.8531 633.0881,534.8531 Q633.3834,534.8531 633.6084,535.0922 Q633.8475,535.3172 633.8475,535.6266 Q633.8475,535.9359 633.5381,536.3016 Q633.0881,536.8219 632.3709,537.1172 Q631.4006,537.525 630.2334,537.525 Q628.8694,537.525 627.7866,536.9625 Q626.9006,536.5125 626.2819,535.5563 Q625.6631,534.5859 625.6631,533.4328 L625.6631,532.3922 Q625.6631,531.1969 626.2116,530.1703 Q626.7741,529.1297 627.7584,528.5813 Q628.7428,528.0188 629.8538,528.0188 Q630.5147,528.0188 631.0913,528.1734 Q631.6819,528.3141 632.1741,528.6375 Z " fill="#000000"/><text fill="#000000" font-family="sans-serif" font-size="12.6" lengthAdjust="spacing" textLength="133.2" x="645.615" y="537.5672">GreenSpaceRepository</text><line style="stroke:#181818;stroke-width:0.45;" x1="602.1" x2="795.6" y1="546.75" y2="546.75"/><line style="stroke:#181818;stroke-width:0.45;" x1="602.1" x2="795.6" y1="553.95" y2="553.95"/><text fill="#000000" font-family="sans-serif" font-size="12.6" lengthAdjust="spacing" textLength="132.3" x="606.6" y="571.1467">+getGreenSpacesList()</text><text fill="#000000" font-family="sans-serif" font-size="12.6" lengthAdjust="spacing" textLength="184.5" x="606.6" y="587.9057">+getGreenSpaceByName(name)</text></g><!--class AuthenticationRepository--><g id="elem_AuthenticationRepository"><rect codeLine="64" fill="#F1F1F1" height="59.959" id="AuthenticationRepository" rx="2.25" ry="2.25" style="stroke:#181818;stroke-width:0.45;" width="171" x="855.45" y="526.05"/><ellipse cx="868.95" cy="540.45" fill="#ADD1B2" rx="9.9" ry="9.9" style="stroke:#181818;stroke-width:0.9;"/><path d="M871.4391,536.7375 Q871.5797,536.5406 871.7484,536.4422 Q871.9172,536.3438 872.1141,536.3438 Q872.4516,536.3438 872.6625,536.5828 Q872.8734,536.8078 872.8734,537.3563 L872.8734,538.6641 Q872.8734,539.2125 872.6625,539.4516 Q872.4516,539.6906 872.1141,539.6906 Q871.8047,539.6906 871.6219,539.5078 Q871.4391,539.3391 871.3406,538.875 Q871.2984,538.5516 871.1297,538.3828 Q870.8344,538.0453 870.2859,537.8484 Q869.7375,537.6516 869.175,537.6516 Q868.4859,537.6516 867.9094,537.9469 Q867.3469,538.2422 866.8969,538.9172 Q866.4609,539.5922 866.4609,540.5203 L866.4609,541.5047 Q866.4609,542.6156 867.2625,543.3609 Q868.0641,544.0922 869.4984,544.0922 Q870.3422,544.0922 870.9328,543.8672 Q871.2844,543.7266 871.6641,543.3328 Q871.9031,543.0938 872.0297,543.0234 Q872.1703,542.9531 872.3531,542.9531 Q872.6484,542.9531 872.8734,543.1922 Q873.1125,543.4172 873.1125,543.7266 Q873.1125,544.0359 872.8031,544.4016 Q872.3531,544.9219 871.6359,545.2172 Q870.6656,545.625 869.4984,545.625 Q868.1344,545.625 867.0516,545.0625 Q866.1656,544.6125 865.5469,543.6563 Q864.9281,542.6859 864.9281,541.5328 L864.9281,540.4922 Q864.9281,539.2969 865.4766,538.2703 Q866.0391,537.2297 867.0234,536.6813 Q868.0078,536.1188 869.1188,536.1188 Q869.7797,536.1188 870.3563,536.2734 Q870.9469,536.4141 871.4391,536.7375 Z " fill="#000000"/><text fill="#000000" font-family="sans-serif" font-size="12.6" lengthAdjust="spacing" textLength="142.2" x="881.55" y="545.6672">AuthenticationRepository</text><line style="stroke:#181818;stroke-width:0.45;" x1="856.35" x2="1025.55" y1="554.85" y2="554.85"/><line style="stroke:#181818;stroke-width:0.45;" x1="856.35" x2="1025.55" y1="562.05" y2="562.05"/><text fill="#000000" font-family="sans-serif" font-size="12.6" lengthAdjust="spacing" textLength="148.5" x="860.85" y="579.2467">+getCurrentUserSession()</text></g><!--class UserSession--><g id="elem_UserSession"><rect codeLine="68" fill="#F1F1F1" height="59.959" id="UserSession" rx="2.25" ry="2.25" style="stroke:#181818;stroke-width:0.45;" width="99.9" x="918" y="741.6"/><ellipse cx="931.5" cy="756" fill="#ADD1B2" rx="9.9" ry="9.9" style="stroke:#181818;stroke-width:0.9;"/><path d="M933.9891,752.2875 Q934.1297,752.0906 934.2984,751.9922 Q934.4672,751.8938 934.6641,751.8938 Q935.0016,751.8938 935.2125,752.1328 Q935.4234,752.3578 935.4234,752.9063 L935.4234,754.2141 Q935.4234,754.7625 935.2125,755.0016 Q935.0016,755.2406 934.6641,755.2406 Q934.3547,755.2406 934.1719,755.0578 Q933.9891,754.8891 933.8906,754.425 Q933.8484,754.1016 933.6797,753.9328 Q933.3844,753.5953 932.8359,753.3984 Q932.2875,753.2016 931.725,753.2016 Q931.0359,753.2016 930.4594,753.4969 Q929.8969,753.7922 929.4469,754.4672 Q929.0109,755.1422 929.0109,756.0703 L929.0109,757.0547 Q929.0109,758.1656 929.8125,758.9109 Q930.6141,759.6422 932.0484,759.6422 Q932.8922,759.6422 933.4828,759.4172 Q933.8344,759.2766 934.2141,758.8828 Q934.4531,758.6438 934.5797,758.5734 Q934.7203,758.5031 934.9031,758.5031 Q935.1984,758.5031 935.4234,758.7422 Q935.6625,758.9672 935.6625,759.2766 Q935.6625,759.5859 935.3531,759.9516 Q934.9031,760.4719 934.1859,760.7672 Q933.2156,761.175 932.0484,761.175 Q930.6844,761.175 929.6016,760.6125 Q928.7156,760.1625 928.0969,759.2063 Q927.4781,758.2359 927.4781,757.0828 L927.4781,756.0422 Q927.4781,754.8469 928.0266,753.8203 Q928.5891,752.7797 929.5734,752.2313 Q930.5578,751.6688 931.6688,751.6688 Q932.3297,751.6688 932.9063,751.8234 Q933.4969,751.9641 933.9891,752.2875 Z " fill="#000000"/><text fill="#000000" font-family="sans-serif" font-size="12.6" lengthAdjust="spacing" textLength="71.1" x="944.1" y="761.2172">UserSession</text><line style="stroke:#181818;stroke-width:0.45;" x1="918.9" x2="1017" y1="770.4" y2="770.4"/><line style="stroke:#181818;stroke-width:0.45;" x1="918.9" x2="1017" y1="777.6" y2="777.6"/><text fill="#000000" font-family="sans-serif" font-size="12.6" lengthAdjust="spacing" textLength="70.2" x="923.4" y="794.7967">+getUserId()</text></g><!--class GreenSpaceManager--><g id="elem_GreenSpaceManager"><rect codeLine="72" fill="#F1F1F1" height="76.718" id="GreenSpaceManager" rx="2.25" ry="2.25" style="stroke:#181818;stroke-width:0.45;" width="179.1" x="420.3" y="931.95"/><ellipse cx="446.355" cy="946.35" fill="#ADD1B2" rx="9.9" ry="9.9" style="stroke:#181818;stroke-width:0.9;"/><path d="M448.8441,942.6375 Q448.9847,942.4406 449.1534,942.3422 Q449.3222,942.2438 449.5191,942.2438 Q449.8566,942.2438 450.0675,942.4828 Q450.2784,942.7078 450.2784,943.2563 L450.2784,944.5641 Q450.2784,945.1125 450.0675,945.3516 Q449.8566,945.5906 449.5191,945.5906 Q449.2097,945.5906 449.0269,945.4078 Q448.8441,945.2391 448.7456,944.775 Q448.7034,944.4516 448.5347,944.2828 Q448.2394,943.9453 447.6909,943.7484 Q447.1425,943.5516 446.58,943.5516 Q445.8909,943.5516 445.3144,943.8469 Q444.7519,944.1422 444.3019,944.8172 Q443.8659,945.4922 443.8659,946.4203 L443.8659,947.4047 Q443.8659,948.5156 444.6675,949.2609 Q445.4691,949.9922 446.9034,949.9922 Q447.7472,949.9922 448.3378,949.7672 Q448.6894,949.6266 449.0691,949.2328 Q449.3081,948.9938 449.4347,948.9234 Q449.5753,948.8531 449.7581,948.8531 Q450.0534,948.8531 450.2784,949.0922 Q450.5175,949.3172 450.5175,949.6266 Q450.5175,949.9359 450.2081,950.3016 Q449.7581,950.8219 449.0409,951.1172 Q448.0706,951.525 446.9034,951.525 Q445.5394,951.525 444.4566,950.9625 Q443.5706,950.5125 442.9519,949.5563 Q442.3331,948.5859 442.3331,947.4328 L442.3331,946.3922 Q442.3331,945.1969 442.8816,944.1703 Q443.4441,943.1297 444.4284,942.5813 Q445.4128,942.0188 446.5238,942.0188 Q447.1847,942.0188 447.7613,942.1734 Q448.3519,942.3141 448.8441,942.6375 Z " fill="#000000"/><text fill="#000000" font-family="sans-serif" font-size="12.6" lengthAdjust="spacing" textLength="122.4" x="461.745" y="951.5672">GreenSpaceManager</text><line style="stroke:#181818;stroke-width:0.45;" x1="421.2" x2="598.5" y1="960.75" y2="960.75"/><text fill="#000000" font-family="sans-serif" font-size="12.6" lengthAdjust="spacing" textLength="71.1" x="425.7" y="977.9467">-String email</text><line style="stroke:#181818;stroke-width:0.45;" x1="421.2" x2="598.5" y1="984.709" y2="984.709"/><text fill="#000000" font-family="sans-serif" font-size="12.6" lengthAdjust="spacing" textLength="168.3" x="425.7" y="1001.9057">+GreenSpaceManager(email)</text></g><!--class Adress--><g id="elem_Adress"><rect codeLine="77" fill="#F1F1F1" height="110.2359" id="Adress" rx="2.25" ry="2.25" style="stroke:#181818;stroke-width:0.45;" width="135.9" x="630.9" y="915.3"/><ellipse cx="675.225" cy="929.7" fill="#ADD1B2" rx="9.9" ry="9.9" style="stroke:#181818;stroke-width:0.9;"/><path d="M677.7141,925.9875 Q677.8547,925.7906 678.0234,925.6922 Q678.1922,925.5938 678.3891,925.5938 Q678.7266,925.5938 678.9375,925.8328 Q679.1484,926.0578 679.1484,926.6063 L679.1484,927.9141 Q679.1484,928.4625 678.9375,928.7016 Q678.7266,928.9406 678.3891,928.9406 Q678.0797,928.9406 677.8969,928.7578 Q677.7141,928.5891 677.6156,928.125 Q677.5734,927.8016 677.4047,927.6328 Q677.1094,927.2953 676.5609,927.0984 Q676.0125,926.9016 675.45,926.9016 Q674.7609,926.9016 674.1844,927.1969 Q673.6219,927.4922 673.1719,928.1672 Q672.7359,928.8422 672.7359,929.7703 L672.7359,930.7547 Q672.7359,931.8656 673.5375,932.6109 Q674.3391,933.3422 675.7734,933.3422 Q676.6172,933.3422 677.2078,933.1172 Q677.5594,932.9766 677.9391,932.5828 Q678.1781,932.3438 678.3047,932.2734 Q678.4453,932.2031 678.6281,932.2031 Q678.9234,932.2031 679.1484,932.4422 Q679.3875,932.6672 679.3875,932.9766 Q679.3875,933.2859 679.0781,933.6516 Q678.6281,934.1719 677.9109,934.4672 Q676.9406,934.875 675.7734,934.875 Q674.4094,934.875 673.3266,934.3125 Q672.4406,933.8625 671.8219,932.9063 Q671.2031,931.9359 671.2031,930.7828 L671.2031,929.7422 Q671.2031,928.5469 671.7516,927.5203 Q672.3141,926.4797 673.2984,925.9313 Q674.2828,925.3688 675.3938,925.3688 Q676.0547,925.3688 676.6313,925.5234 Q677.2219,925.6641 677.7141,925.9875 Z " fill="#000000"/><text fill="#000000" font-family="sans-serif" font-size="12.6" lengthAdjust="spacing" textLength="39.6" x="693.675" y="934.9172">Adress</text><line style="stroke:#181818;stroke-width:0.45;" x1="631.8" x2="765.9" y1="944.1" y2="944.1"/><text fill="#000000" font-family="sans-serif" font-size="12.6" lengthAdjust="spacing" textLength="73.8" x="636.3" y="961.2967">-String street</text><text fill="#000000" font-family="sans-serif" font-size="12.6" lengthAdjust="spacing" textLength="84.6" x="636.3" y="978.0557">-String zipcode</text><text fill="#000000" font-family="sans-serif" font-size="12.6" lengthAdjust="spacing" textLength="60.3" x="636.3" y="994.8146">-String city</text><line style="stroke:#181818;stroke-width:0.45;" x1="631.8" x2="765.9" y1="1001.577" y2="1001.577"/><text fill="#000000" font-family="sans-serif" font-size="12.6" lengthAdjust="spacing" textLength="125.1" x="636.3" y="1018.7736">+Adress(adressArray)</text></g><!--class TaskType--><g id="elem_TaskType"><rect codeLine="84" fill="#F1F1F1" height="76.718" id="TaskType" rx="2.25" ry="2.25" style="stroke:#181818;stroke-width:0.45;" width="90.9" x="130.5" y="931.95"/><ellipse cx="146.43" cy="946.35" fill="#EB937F" rx="9.9" ry="9.9" style="stroke:#181818;stroke-width:0.9;"/><path d="M145.4034,947.0672 L145.4034,949.3172 L149.2987,949.3172 L149.2987,948.4875 Q149.2987,947.9391 149.5097,947.7 Q149.7347,947.4609 150.0722,947.4609 Q150.4097,947.4609 150.6206,947.7 Q150.8316,947.9391 150.8316,948.4875 L150.8316,950.85 L143.6316,950.85 Q143.0691,950.85 142.83,950.6391 Q142.605,950.4281 142.605,950.0766 Q142.605,949.7391 142.8441,949.5281 Q143.0831,949.3172 143.6316,949.3172 L143.8706,949.3172 L143.8706,943.3266 L143.6316,943.3266 Q143.0691,943.3266 142.83,943.1156 Q142.605,942.9047 142.605,942.5531 Q142.605,942.2156 142.83,942.0047 Q143.0691,941.7938 143.6316,941.7938 L150.4941,941.7938 L150.4941,944.1281 Q150.4941,944.6766 150.2831,944.9156 Q150.0863,945.1406 149.7347,945.1406 Q149.3972,945.1406 149.1863,944.9156 Q148.9753,944.6766 148.9753,944.1281 L148.9753,943.3266 L145.4034,943.3266 L145.4034,945.5344 L146.7394,945.5344 Q146.7394,944.9438 146.8519,944.775 Q147.0909,944.4094 147.5128,944.4094 Q147.8503,944.4094 148.0613,944.6484 Q148.2722,944.8734 148.2722,945.4219 L148.2722,947.1938 Q148.2722,947.6859 148.1597,947.8547 Q147.9206,948.2063 147.5128,948.2063 Q147.0909,948.2063 146.8519,947.8406 Q146.7394,947.6719 146.7394,947.0672 L145.4034,947.0672 Z " fill="#000000"/><text fill="#000000" font-family="sans-serif" font-size="12.6" lengthAdjust="spacing" textLength="56.7" x="159.57" y="951.5672">TaskType</text><line style="stroke:#181818;stroke-width:0.45;" x1="131.4" x2="220.5" y1="960.75" y2="960.75"/><text fill="#000000" font-family="sans-serif" font-size="12.6" lengthAdjust="spacing" textLength="59.4" x="135.9" y="977.9467">REGULAR</text><text fill="#000000" font-family="sans-serif" font-size="12.6" lengthAdjust="spacing" textLength="80.1" x="135.9" y="994.7057">OCCASIONAL</text><line style="stroke:#181818;stroke-width:0.45;" x1="131.4" x2="220.5" y1="1001.468" y2="1001.468"/></g><!--class GreenSpaceType--><g id="elem_GreenSpaceType"><rect codeLine="89" fill="#F1F1F1" height="93.477" id="GreenSpaceType" rx="2.25" ry="2.25" style="stroke:#181818;stroke-width:0.45;" width="141.3" x="798.3" y="923.4"/><ellipse cx="817.065" cy="937.8" fill="#EB937F" rx="9.9" ry="9.9" style="stroke:#181818;stroke-width:0.9;"/><path d="M816.0384,938.5172 L816.0384,940.7672 L819.9338,940.7672 L819.9338,939.9375 Q819.9338,939.3891 820.1447,939.15 Q820.3697,938.9109 820.7072,938.9109 Q821.0447,938.9109 821.2556,939.15 Q821.4666,939.3891 821.4666,939.9375 L821.4666,942.3 L814.2666,942.3 Q813.7041,942.3 813.465,942.0891 Q813.24,941.8781 813.24,941.5266 Q813.24,941.1891 813.4791,940.9781 Q813.7181,940.7672 814.2666,940.7672 L814.5056,940.7672 L814.5056,934.7766 L814.2666,934.7766 Q813.7041,934.7766 813.465,934.5656 Q813.24,934.3547 813.24,934.0031 Q813.24,933.6656 813.465,933.4547 Q813.7041,933.2438 814.2666,933.2438 L821.1291,933.2438 L821.1291,935.5781 Q821.1291,936.1266 820.9181,936.3656 Q820.7213,936.5906 820.3697,936.5906 Q820.0322,936.5906 819.8213,936.3656 Q819.6103,936.1266 819.6103,935.5781 L819.6103,934.7766 L816.0384,934.7766 L816.0384,936.9844 L817.3744,936.9844 Q817.3744,936.3938 817.4869,936.225 Q817.7259,935.8594 818.1478,935.8594 Q818.4853,935.8594 818.6963,936.0984 Q818.9072,936.3234 818.9072,936.8719 L818.9072,938.6438 Q818.9072,939.1359 818.7947,939.3047 Q818.5556,939.6563 818.1478,939.6563 Q817.7259,939.6563 817.4869,939.2906 Q817.3744,939.1219 817.3744,938.5172 L816.0384,938.5172 Z " fill="#000000"/><text fill="#000000" font-family="sans-serif" font-size="12.6" lengthAdjust="spacing" textLength="100.8" x="830.835" y="943.0172">GreenSpaceType</text><line style="stroke:#181818;stroke-width:0.45;" x1="799.2" x2="938.7" y1="952.2" y2="952.2"/><text fill="#000000" font-family="sans-serif" font-size="12.6" lengthAdjust="spacing" textLength="52.2" x="803.7" y="969.3967">GARDEN</text><text fill="#000000" font-family="sans-serif" font-size="12.6" lengthAdjust="spacing" textLength="130.5" x="803.7" y="986.1557">MEDIUM_SIZED_PARK</text><text fill="#000000" font-family="sans-serif" font-size="12.6" lengthAdjust="spacing" textLength="125.1" x="803.7" y="1002.9146">LARGE_SIZED_PARK</text><line style="stroke:#181818;stroke-width:0.45;" x1="799.2" x2="938.7" y1="1009.677" y2="1009.677"/></g><!--class EmergencyDegree--><g id="elem_EmergencyDegree"><rect codeLine="95" fill="#F1F1F1" height="93.477" id="EmergencyDegree" rx="2.25" ry="2.25" style="stroke:#181818;stroke-width:0.45;" width="135" x="253.35" y="923.4"/><ellipse cx="266.85" cy="937.8" fill="#EB937F" rx="9.9" ry="9.9" style="stroke:#181818;stroke-width:0.9;"/><path d="M265.8234,938.5172 L265.8234,940.7672 L269.7188,940.7672 L269.7188,939.9375 Q269.7188,939.3891 269.9297,939.15 Q270.1547,938.9109 270.4922,938.9109 Q270.8297,938.9109 271.0406,939.15 Q271.2516,939.3891 271.2516,939.9375 L271.2516,942.3 L264.0516,942.3 Q263.4891,942.3 263.25,942.0891 Q263.025,941.8781 263.025,941.5266 Q263.025,941.1891 263.2641,940.9781 Q263.5031,940.7672 264.0516,940.7672 L264.2906,940.7672 L264.2906,934.7766 L264.0516,934.7766 Q263.4891,934.7766 263.25,934.5656 Q263.025,934.3547 263.025,934.0031 Q263.025,933.6656 263.25,933.4547 Q263.4891,933.2438 264.0516,933.2438 L270.9141,933.2438 L270.9141,935.5781 Q270.9141,936.1266 270.7031,936.3656 Q270.5063,936.5906 270.1547,936.5906 Q269.8172,936.5906 269.6063,936.3656 Q269.3953,936.1266 269.3953,935.5781 L269.3953,934.7766 L265.8234,934.7766 L265.8234,936.9844 L267.1594,936.9844 Q267.1594,936.3938 267.2719,936.225 Q267.5109,935.8594 267.9328,935.8594 Q268.2703,935.8594 268.4813,936.0984 Q268.6922,936.3234 268.6922,936.8719 L268.6922,938.6438 Q268.6922,939.1359 268.5797,939.3047 Q268.3406,939.6563 267.9328,939.6563 Q267.5109,939.6563 267.2719,939.2906 Q267.1594,939.1219 267.1594,938.5172 L265.8234,938.5172 Z " fill="#000000"/><text fill="#000000" font-family="sans-serif" font-size="12.6" lengthAdjust="spacing" textLength="106.2" x="279.45" y="943.0172">EmergencyDegree</text><line style="stroke:#181818;stroke-width:0.45;" x1="254.25" x2="387.45" y1="952.2" y2="952.2"/><text fill="#000000" font-family="sans-serif" font-size="12.6" lengthAdjust="spacing" textLength="28.8" x="258.75" y="969.3967">HIGH</text><text fill="#000000" font-family="sans-serif" font-size="12.6" lengthAdjust="spacing" textLength="47.7" x="258.75" y="986.1557">MEDIUM</text><text fill="#000000" font-family="sans-serif" font-size="12.6" lengthAdjust="spacing" textLength="28.8" x="258.75" y="1002.9146">LOW</text><line style="stroke:#181818;stroke-width:0.45;" x1="254.25" x2="387.45" y1="1009.677" y2="1009.677"/></g><!--class GreenSpaceDTO--><g id="elem_GreenSpaceDTO"><rect codeLine="101" fill="#F1F1F1" height="143.7539" id="GreenSpaceDTO" rx="2.25" ry="2.25" style="stroke:#181818;stroke-width:0.45;" width="401.4" x="1057.95" y="484.2"/><ellipse cx="1205.325" cy="498.6" fill="#ADD1B2" rx="9.9" ry="9.9" style="stroke:#181818;stroke-width:0.9;"/><path d="M1207.8141,494.8875 Q1207.9547,494.6906 1208.1234,494.5922 Q1208.2922,494.4938 1208.4891,494.4938 Q1208.8266,494.4938 1209.0375,494.7328 Q1209.2484,494.9578 1209.2484,495.5063 L1209.2484,496.8141 Q1209.2484,497.3625 1209.0375,497.6016 Q1208.8266,497.8406 1208.4891,497.8406 Q1208.1797,497.8406 1207.9969,497.6578 Q1207.8141,497.4891 1207.7156,497.025 Q1207.6734,496.7016 1207.5047,496.5328 Q1207.2094,496.1953 1206.6609,495.9984 Q1206.1125,495.8016 1205.55,495.8016 Q1204.8609,495.8016 1204.2844,496.0969 Q1203.7219,496.3922 1203.2719,497.0672 Q1202.8359,497.7422 1202.8359,498.6703 L1202.8359,499.6547 Q1202.8359,500.7656 1203.6375,501.5109 Q1204.4391,502.2422 1205.8734,502.2422 Q1206.7172,502.2422 1207.3078,502.0172 Q1207.6594,501.8766 1208.0391,501.4828 Q1208.2781,501.2438 1208.4047,501.1734 Q1208.5453,501.1031 1208.7281,501.1031 Q1209.0234,501.1031 1209.2484,501.3422 Q1209.4875,501.5672 1209.4875,501.8766 Q1209.4875,502.1859 1209.1781,502.5516 Q1208.7281,503.0719 1208.0109,503.3672 Q1207.0406,503.775 1205.8734,503.775 Q1204.5094,503.775 1203.4266,503.2125 Q1202.5406,502.7625 1201.9219,501.8063 Q1201.3031,500.8359 1201.3031,499.6828 L1201.3031,498.6422 Q1201.3031,497.4469 1201.8516,496.4203 Q1202.4141,495.3797 1203.3984,494.8313 Q1204.3828,494.2688 1205.4938,494.2688 Q1206.1547,494.2688 1206.7313,494.4234 Q1207.3219,494.5641 1207.8141,494.8875 Z " fill="#000000"/><text fill="#000000" font-family="sans-serif" font-size="12.6" lengthAdjust="spacing" textLength="99" x="1223.775" y="503.8172">GreenSpaceDTO</text><line style="stroke:#181818;stroke-width:0.45;" x1="1058.85" x2="1458.45" y1="513" y2="513"/><text fill="#000000" font-family="sans-serif" font-size="12.6" lengthAdjust="spacing" textLength="72.9" x="1063.35" y="530.1967">-String name</text><text fill="#000000" font-family="sans-serif" font-size="12.6" lengthAdjust="spacing" textLength="86.4" x="1063.35" y="546.9557">-Adress adress</text><text fill="#000000" font-family="sans-serif" font-size="12.6" lengthAdjust="spacing" textLength="133.2" x="1063.35" y="563.7146">-GreenSpaceType type</text><text fill="#000000" font-family="sans-serif" font-size="12.6" lengthAdjust="spacing" textLength="72.9" x="1063.35" y="580.4736">-double area</text><text fill="#000000" font-family="sans-serif" font-size="12.6" lengthAdjust="spacing" textLength="262.8" x="1063.35" y="597.2326">-GreenSpacesManager greenSpacesManager</text><line style="stroke:#181818;stroke-width:0.45;" x1="1058.85" x2="1458.45" y1="603.9949" y2="603.9949"/><text fill="#000000" font-family="sans-serif" font-size="12.6" lengthAdjust="spacing" textLength="390.6" x="1063.35" y="621.1916">+GreenSpaceDTO(name, adress, type, area, greenSpacesManager)</text></g><!--class GreenSpaceMapper--><g id="elem_GreenSpaceMapper"><rect codeLine="110" fill="#F1F1F1" height="76.718" id="GreenSpaceMapper" rx="2.25" ry="2.25" style="stroke:#181818;stroke-width:0.45;" width="207.9" x="1142.1" y="327.6"/><ellipse cx="1184.625" cy="342" fill="#ADD1B2" rx="9.9" ry="9.9" style="stroke:#181818;stroke-width:0.9;"/><path d="M1187.1141,338.2875 Q1187.2547,338.0906 1187.4234,337.9922 Q1187.5922,337.8938 1187.7891,337.8938 Q1188.1266,337.8938 1188.3375,338.1328 Q1188.5484,338.3578 1188.5484,338.9063 L1188.5484,340.2141 Q1188.5484,340.7625 1188.3375,341.0016 Q1188.1266,341.2406 1187.7891,341.2406 Q1187.4797,341.2406 1187.2969,341.0578 Q1187.1141,340.8891 1187.0156,340.425 Q1186.9734,340.1016 1186.8047,339.9328 Q1186.5094,339.5953 1185.9609,339.3984 Q1185.4125,339.2016 1184.85,339.2016 Q1184.1609,339.2016 1183.5844,339.4969 Q1183.0219,339.7922 1182.5719,340.4672 Q1182.1359,341.1422 1182.1359,342.0703 L1182.1359,343.0547 Q1182.1359,344.1656 1182.9375,344.9109 Q1183.7391,345.6422 1185.1734,345.6422 Q1186.0172,345.6422 1186.6078,345.4172 Q1186.9594,345.2766 1187.3391,344.8828 Q1187.5781,344.6438 1187.7047,344.5734 Q1187.8453,344.5031 1188.0281,344.5031 Q1188.3234,344.5031 1188.5484,344.7422 Q1188.7875,344.9672 1188.7875,345.2766 Q1188.7875,345.5859 1188.4781,345.9516 Q1188.0281,346.4719 1187.3109,346.7672 Q1186.3406,347.175 1185.1734,347.175 Q1183.8094,347.175 1182.7266,346.6125 Q1181.8406,346.1625 1181.2219,345.2063 Q1180.6031,344.2359 1180.6031,343.0828 L1180.6031,342.0422 Q1180.6031,340.8469 1181.1516,339.8203 Q1181.7141,338.7797 1182.6984,338.2313 Q1183.6828,337.6688 1184.7938,337.6688 Q1185.4547,337.6688 1186.0313,337.8234 Q1186.6219,337.9641 1187.1141,338.2875 Z " fill="#000000"/><text fill="#000000" font-family="sans-serif" font-size="12.6" lengthAdjust="spacing" textLength="115.2" x="1203.075" y="347.2172">GreenSpaceMapper</text><line style="stroke:#181818;stroke-width:0.45;" x1="1143" x2="1349.1" y1="356.4" y2="356.4"/><line style="stroke:#181818;stroke-width:0.45;" x1="1143" x2="1349.1" y1="363.6" y2="363.6"/><text fill="#000000" font-family="sans-serif" font-size="12.6" lengthAdjust="spacing" textLength="169.2" x="1147.5" y="380.7967">+toDTOList(greenSpacesList)</text><text fill="#000000" font-family="sans-serif" font-size="12.6" lengthAdjust="spacing" textLength="197.1" x="1147.5" y="397.5557">+greenSpaceToDTO(greenSpace)</text></g><!--link AddTaskToDoListUI to AddTaskToDoListController--><g id="link_AddTaskToDoListUI_AddTaskToDoListController"><path codeLine="115" d="M783.45,49.779 C783.45,64.35 783.45,79.182 783.45,98.739 " fill="none" id="AddTaskToDoListUI-to-AddTaskToDoListController" style="stroke:#181818;stroke-width:0.9;stroke-dasharray:7.0,7.0;"/><polygon fill="#181818" points="783.45,104.139,787.05,96.039,783.45,99.639,779.85,96.039,783.45,104.139" style="stroke:#181818;stroke-width:0.9;"/></g><!--link AddTaskToDoListController to Repositories--><g id="link_AddTaskToDoListController_Repositories"><path codeLine="116" d="M710.775,231.372 C684.486,254.025 658.9037,276.0689 632.6057,298.7309 " fill="none" id="AddTaskToDoListController-to-Repositories" style="stroke:#181818;stroke-width:0.9;stroke-dasharray:7.0,7.0;"/><polygon fill="#181818" points="628.515,302.256,637.0011,299.6955,631.9239,299.3184,632.301,294.2412,628.515,302.256" style="stroke:#181818;stroke-width:0.9;"/><text fill="#000000" font-family="sans-serif" font-size="11.7" lengthAdjust="spacing" textLength="60.3" x="678.15" y="271.8255">repositories</text></g><!--link AddTaskToDoListController to ToDoList--><g id="link_AddTaskToDoListController_ToDoList"><path codeLine="117" d="M604.242,231.372 C504.774,266.121 400.95,302.4 400.95,302.4 C400.95,302.4 391.7717,454.0778 387.7487,520.6508 " fill="none" id="AddTaskToDoListController-to-ToDoList" style="stroke:#181818;stroke-width:0.9;stroke-dasharray:7.0,7.0;"/><polygon fill="#181818" points="387.423,526.041,391.505,518.1729,387.6944,521.5492,384.3181,517.7386,387.423,526.041" style="stroke:#181818;stroke-width:0.9;"/><text fill="#000000" font-family="sans-serif" font-size="11.7" lengthAdjust="spacing" textLength="43.2" x="401.85" y="370.8255">toDoList</text></g><!--link AddTaskToDoListController to AuthenticationRepository--><g id="link_AddTaskToDoListController_AuthenticationRepository"><path codeLine="118" d="M831.744,231.66 C858.357,266.328 886.05,302.4 886.05,302.4 C886.05,302.4 919.006,454.1908 933.451,520.7638 " fill="none" id="AddTaskToDoListController-to-AuthenticationRepository" style="stroke:#181818;stroke-width:0.9;stroke-dasharray:7.0,7.0;"/><polygon fill="#181818" points="934.596,526.041,936.3966,517.3618,933.6418,521.6433,929.3603,518.8886,934.596,526.041" style="stroke:#181818;stroke-width:0.9;"/><text fill="#000000" font-family="sans-serif" font-size="11.7" lengthAdjust="spacing" textLength="128.7" x="914.85" y="370.8255">authenticationRepository</text></g><!--link AddTaskToDoListController to GreenSpaceRepository--><g id="link_AddTaskToDoListController_GreenSpaceRepository"><path codeLine="119" d="M771.966,231.489 C757.854,308.583 735.75,429.3 735.75,429.3 C735.75,429.3 722.2205,475.5169 711.3395,512.6509 " fill="none" id="AddTaskToDoListController-to-GreenSpaceRepository" style="stroke:#181818;stroke-width:0.9;stroke-dasharray:7.0,7.0;"/><polygon fill="#181818" points="709.821,517.833,715.5534,511.0721,711.0864,513.5146,708.644,509.0475,709.821,517.833" style="stroke:#181818;stroke-width:0.9;"/><text fill="#000000" font-family="sans-serif" font-size="11.7" lengthAdjust="spacing" textLength="117.9" x="760.05" y="370.8255">greenSpaceRepository</text></g><!--link GreenSpaceRepository to GreenSpace--><g id="link_GreenSpaceRepository_GreenSpace"><path codeLine="120" d="M698.85,594.576 C698.85,623.556 698.85,659.115 698.85,694.26 " fill="none" id="GreenSpaceRepository-to-GreenSpace" style="stroke:#181818;stroke-width:0.9;stroke-dasharray:7.0,7.0;"/><polygon fill="#181818" points="698.85,699.66,702.45,691.56,698.85,695.16,695.25,691.56,698.85,699.66" style="stroke:#181818;stroke-width:0.9;"/></g><!--link ToDoList to Task--><g id="link_ToDoList_Task"><path codeLine="121" d="M366.543,586.377 C350.28,611.298 328.9848,643.9185 306.5118,678.3615 " fill="none" id="ToDoList-to-Task" style="stroke:#181818;stroke-width:0.9;stroke-dasharray:7.0,7.0;"/><polygon fill="#181818" points="303.561,682.884,311.0022,678.0675,306.02,679.1153,304.9722,674.1331,303.561,682.884" style="stroke:#181818;stroke-width:0.9;"/></g><!--link AuthenticationRepository to UserSession--><g id="link_AuthenticationRepository_UserSession"><path codeLine="122" d="M944.649,586.377 C949.806,627.192 958.4273,695.4184 963.5753,736.2334 " fill="none" id="AuthenticationRepository-to-UserSession" style="stroke:#181818;stroke-width:0.9;stroke-dasharray:7.0,7.0;"/><polygon fill="#181818" points="964.251,741.591,966.8091,733.1042,963.6879,737.1264,959.6657,734.0052,964.251,741.591" style="stroke:#181818;stroke-width:0.9;"/></g><!--link Repositories to Repositories--><g id="link_Repositories_Repositories"><path codeLine="123" d="M649.584,349.722 C667.872,351.594 680.85,356.976 680.85,365.85 C680.85,374.724 673.2439,379.5561 654.9559,381.4281 " fill="none" id="Repositories-to-Repositories" style="stroke:#181818;stroke-width:0.9;"/><polygon fill="#181818" points="649.584,381.978,658.0085,384.7345,654.0606,381.5198,657.2753,377.5719,649.584,381.978" style="stroke:#181818;stroke-width:0.9;"/><text fill="#000000" font-family="sans-serif" font-size="11.7" lengthAdjust="spacing" textLength="44.1" x="686.25" y="370.8255">instance</text></g><!--link Repositories to ToDoList--><g id="link_Repositories_ToDoList"><path codeLine="124" d="M499.113,429.534 C469.728,462.105 438.8567,496.3181 415.6817,522.0131 " fill="none" id="Repositories-to-ToDoList" style="stroke:#181818;stroke-width:0.9;"/><polygon fill="#181818" points="412.065,526.023,420.1633,522.4192,415.0789,522.6814,414.8167,517.597,412.065,526.023" style="stroke:#181818;stroke-width:0.9;"/><text fill="#000000" font-family="sans-serif" font-size="11.7" lengthAdjust="spacing" textLength="6.3" x="410.3453" y="515.9606">1</text></g><!--link Repositories to AuthenticationRepository--><g id="link_Repositories_AuthenticationRepository"><path codeLine="125" d="M649.44,409.653 C722.718,443.205 812.25,484.2 812.25,484.2 C812.25,484.2 847.6813,503.7738 883.1323,523.3578 " fill="none" id="Repositories-to-AuthenticationRepository" style="stroke:#181818;stroke-width:0.9;"/><polygon fill="#181818" points="887.859,525.969,882.5097,518.9011,883.9201,523.793,879.0282,525.2034,887.859,525.969" style="stroke:#181818;stroke-width:0.9;"/><text fill="#000000" font-family="sans-serif" font-size="11.7" lengthAdjust="spacing" textLength="6.3" x="870.4866" y="515.896">1</text></g><!--link Repositories to GreenSpaceRepository--><g id="link_Repositories_GreenSpaceRepository"><path codeLine="126" d="M603.396,429.534 C625.599,458.784 647.9927,488.2961 667.1177,513.4871 " fill="none" id="Repositories-to-GreenSpaceRepository" style="stroke:#181818;stroke-width:0.9;"/><polygon fill="#181818" points="670.383,517.788,668.3524,509.1598,667.6619,514.2039,662.6178,513.5134,670.383,517.788" style="stroke:#181818;stroke-width:0.9;"/><text fill="#000000" font-family="sans-serif" font-size="11.7" lengthAdjust="spacing" textLength="6.3" x="659.044" y="507.7759">1</text></g><!--link Task to EmergencyDegree--><g id="link_Task_EmergencyDegree"><path codeLine="127" d="M279.567,860.625 C287.766,882.198 294.301,899.3973 301.402,918.1083 " fill="none" id="Task-to-EmergencyDegree" style="stroke:#181818;stroke-width:0.9;"/><polygon fill="#181818" points="303.318,923.157,303.8098,914.3067,301.7213,918.9498,297.0782,916.8614,303.318,923.157" style="stroke:#181818;stroke-width:0.9;"/><text fill="#000000" font-family="sans-serif" font-size="11.7" lengthAdjust="spacing" textLength="6.3" x="294.2389" y="913.159">1</text></g><!--link Task to TaskStatus--><g id="link_Task_TaskStatus"><path codeLine="128" d="M159.588,860.625 C134.937,885.681 113.1726,907.7871 93.2376,928.0551 " fill="none" id="Task-to-TaskStatus" style="stroke:#181818;stroke-width:0.9;"/><polygon fill="#181818" points="89.451,931.905,97.6975,928.6546,92.6065,928.6968,92.5643,923.6058,89.451,931.905" style="stroke:#181818;stroke-width:0.9;"/><text fill="#000000" font-family="sans-serif" font-size="11.7" lengthAdjust="spacing" textLength="6.3" x="88.5141" y="921.9115">1</text></g><!--link Task to GreenSpaceManager--><g id="link_Task_GreenSpaceManager"><path codeLine="129" d="M364.113,860.625 C397.71,885.681 428.2026,908.4083 455.3736,928.6763 " fill="none" id="Task-to-GreenSpaceManager" style="stroke:#181818;stroke-width:0.9;"/><polygon fill="#181818" points="459.702,931.905,455.3619,924.1763,456.095,929.2144,451.0569,929.9475,459.702,931.905" style="stroke:#181818;stroke-width:0.9;"/><text fill="#000000" font-family="sans-serif" font-size="11.7" lengthAdjust="spacing" textLength="6.3" x="444.9076" y="921.9115">1</text></g><!--link Task to TaskType--><g id="link_Task_TaskType"><path codeLine="130" d="M214.749,860.625 C205.803,885.681 198.3486,906.5514 191.1126,926.8194 " fill="none" id="Task-to-TaskType" style="stroke:#181818;stroke-width:0.9;"/><polygon fill="#181818" points="189.297,931.905,195.4109,925.487,190.81,927.667,188.6301,923.0662,189.297,931.905" style="stroke:#181818;stroke-width:0.9;"/><text fill="#000000" font-family="sans-serif" font-size="11.7" lengthAdjust="spacing" textLength="6.3" x="184.6221" y="921.9115">1</text></g><!--link GreenSpace to GreenSpaceManager--><g id="link_GreenSpace_GreenSpaceManager"><path codeLine="131" d="M630.351,843.921 C601.722,873.711 573.3791,903.1989 549.5201,928.0209 " fill="none" id="GreenSpace-to-GreenSpaceManager" style="stroke:#181818;stroke-width:0.9;"/><polygon fill="#181818" points="545.778,931.914,553.9866,928.569,548.8964,928.6697,548.7957,923.5795,545.778,931.914" style="stroke:#181818;stroke-width:0.9;"/><text fill="#000000" font-family="sans-serif" font-size="11.7" lengthAdjust="spacing" textLength="6.3" x="544.702" y="921.9219">1</text></g><!--link GreenSpace to Adress--><g id="link_GreenSpace_Adress"><path codeLine="132" d="M698.85,843.921 C698.85,867.447 698.85,887.805 698.85,909.828 " fill="none" id="GreenSpace-to-Adress" style="stroke:#181818;stroke-width:0.9;"/><polygon fill="#181818" points="698.85,915.228,702.45,907.128,698.85,910.728,695.25,907.128,698.85,915.228" style="stroke:#181818;stroke-width:0.9;"/><text fill="#000000" font-family="sans-serif" font-size="11.7" lengthAdjust="spacing" textLength="6.3" x="692.1858" y="905.3028">1</text></g><!--link GreenSpace to GreenSpaceType--><g id="link_GreenSpace_GreenSpaceType"><path codeLine="133" d="M760.5,843.921 C783.414,870.417 805.2519,895.6642 825.6909,919.2892 " fill="none" id="GreenSpace-to-GreenSpaceType" style="stroke:#181818;stroke-width:0.9;"/><polygon fill="#181818" points="829.224,923.373,826.6469,914.8919,826.2798,919.9698,821.2019,919.6027,829.224,923.373" style="stroke:#181818;stroke-width:0.9;"/><text fill="#000000" font-family="sans-serif" font-size="11.7" lengthAdjust="spacing" textLength="6.3" x="817.1625" y="913.404">1</text></g><!--link AddTaskToDoListController to GreenSpaceMapper--><g id="link_AddTaskToDoListController_GreenSpaceMapper"><path codeLine="134" d="M933.561,231.372 C1016.883,266.121 1103.85,302.4 1103.85,302.4 C1103.85,302.4 1125.637,311.9889 1155.922,325.3089 " fill="none" id="AddTaskToDoListController-to-GreenSpaceMapper" style="stroke:#181818;stroke-width:0.9;stroke-dasharray:7.0,7.0;"/><polygon fill="#181818" points="1160.865,327.483,1154.8998,320.9266,1156.7458,325.6713,1152.0011,327.5173,1160.865,327.483" style="stroke:#181818;stroke-width:0.9;"/></g><!--link GreenSpaceMapper to GreenSpaceDTO--><g id="link_GreenSpaceMapper_GreenSpaceDTO"><path codeLine="135" d="M1248.552,404.226 C1250.073,426.996 1251.7116,451.425 1253.5206,478.542 " fill="none" id="GreenSpaceMapper-to-GreenSpaceDTO" style="stroke:#181818;stroke-width:0.9;stroke-dasharray:7.0,7.0;"/><polygon fill="#181818" points="1253.88,483.93,1256.9329,475.6083,1253.5805,479.44,1249.7488,476.0876,1253.88,483.93" style="stroke:#181818;stroke-width:0.9;"/></g><!--SRC=[dLRVRzem47xtNs7jfQaQgksLXqafoMYq0XK1JTfBvIOkM0rsP1kjTDh_FlyWYGrEkvK727VVdSzttztbGZmJsY2ETd37A2ktdEqmb7oFGQzfKFcCDhYGXnf3Zak9wAPs0MABAlQBq0ryGhLmDJMXM1uQ31jM7_GVS15GCYuPSApA6WcHICd9urxYl6Iq8AyOVWRWeiPF4ae6ETbi9Qo83eSm2e2nWKbLhP1uNh6KtH4Xrpdy3VuCA2UCIixg6dC5WkfpDGY8DXnZMgX4u2Lkc22IyKEiuh306AAzt68gIObqD3tcqZf6lkD84bdZ65POb9mqsaJ_qOSidjPyWscflEENHbqEL-cU8mkHseTAM0pxUEm9emsMqqvsSvYZ7Owe-dBKnUoRgcw1XL3EecDadftGmQMhXL9sIMjZRdEa3FHLRWuvhV1BHFIt0- -T7Gr6XIgZOeOEnWYCCAcuYWCYyzEBUsjzJQZ9qIihjdzK14GSev25c26gMCgTtBIY3dxLmqrsucC4iJagDhxZW0FdWbrj2HR76tgoDh5G9IgdGlMAEkiIZZrG3-aeuPXD0sHpzSa0sMpPCDtle2vH8P7SYsCPxhDvci-dzdcvc6H5aQLEbHN-f626evx4eQkLPpjioPeQxfvIs888bMTKjfhLaSvzdProEbMmDzVe3pTEi6ckogsQPDZcAHBc9qZbFiLE5voqJR2Xl4Rivz10_Hpdaptd2h8McFSDspbmn8wDbkPL5Bn1snj-YV4EaHgSDCOH6Xcb6xLjMT-3aCfEUg9NqfIiyfbJ4dbeHwps4jcsIpX71v-qXW_sZ6KsNTybI_Eyc4oI8b_CaxiEVJ8hhCqqMQRPt3pEiZHVpnwA_6UMFjmdo-z6gXnECrVOkZlbilLtcqzl7M_MnU97ACLgRWwDlC2u6nnrPsFkFqRSbHVDHoUSIuMcwRUZsdQhXQ7wngT-o_p-HXePkUscd9-lvklhhyCx6GnlQstdJjEnUYbnPklRXgrut6tlTmo6kdKykFJVSHYQAsCOUiC0mH7a-m3TWZQtKyU2mVcY4Sxi06uIuMXqcbLoN5_dk4zVFdM936k7OWYZG_S4PYUrY9Fsz9NzjlFbPqFjt4mtdvFcDqm38DlMRvkR0_wL4BRXm5a7-YZLNE0l]--></g></svg>