<?xml version="1.0" encoding="us-ascii" standalone="no"?><svg xmlns="http://www.w3.org/2000/svg" xmlns:xlink="http://www.w3.org/1999/xlink" contentStyleType="text/css" height="720.6px" preserveAspectRatio="none" style="width:2106px;height:720px;background:#FFFFFF;" version="1.1" viewBox="0 0 2106 720" width="2106px" zoomAndPan="magnify"><defs/><g><rect fill="#FFFFFF" height="581.4187" style="stroke:#181818;stroke-width:0.6;" width="6" x="29.1" y="67.3453"/><rect fill="#FFFFFF" height="111.4477" style="stroke:#181818;stroke-width:0.6;" width="6" x="453.3" y="81.3199"/><rect fill="#FFFFFF" height="18.7746" style="stroke:#181818;stroke-width:0.6;" width="6" x="453.3" y="211.5422"/><rect fill="#FFFFFF" height="18.7746" style="stroke:#181818;stroke-width:0.6;" width="6" x="453.3" y="249.0914"/><rect fill="#FFFFFF" height="362.1234" style="stroke:#181818;stroke-width:0.6;" width="6" x="453.3" y="286.6406"/><rect fill="#FFFFFF" height="47.7258" style="stroke:#181818;stroke-width:0.6;" width="6" x="831.3" y="126.2672"/><rect fill="#FFFFFF" height="324.5742" style="stroke:#181818;stroke-width:0.6;" width="6" x="831.3" y="305.4152"/><rect fill="#FFFFFF" height="54.3258" style="stroke:#181818;stroke-width:0.6;" width="6" x="834.3" y="328.9898"/><rect fill="#FFFFFF" height="54.3258" style="stroke:#181818;stroke-width:0.6;" width="6" x="834.3" y="411.0902"/><rect fill="#FFFFFF" height="18.7746" style="stroke:#181818;stroke-width:0.6;" width="6" x="964.5" y="488.3906"/><rect fill="#FFFFFF" height="18.7746" style="stroke:#181818;stroke-width:0.6;" width="6" x="1028.7" y="525.9398"/><rect fill="#FFFFFF" height="47.7258" style="stroke:#181818;stroke-width:0.6;" width="6" x="1232.7" y="563.4891"/><line style="stroke:#181818;stroke-width:0.3;stroke-dasharray:5.0,5.0;" x1="31.8" x2="31.8" y1="61.3453" y2="659.5641"/><line style="stroke:#181818;stroke-width:0.3;stroke-dasharray:5.0,5.0;" x1="456" x2="456" y1="61.3453" y2="659.5641"/><line style="stroke:#181818;stroke-width:0.3;stroke-dasharray:5.0,5.0;" x1="834.3" x2="834.3" y1="105.2063" y2="659.5641"/><line style="stroke:#181818;stroke-width:0.3;stroke-dasharray:5.0,5.0;" x1="967.2" x2="967.2" y1="61.3453" y2="659.5641"/><line style="stroke:#181818;stroke-width:0.3;stroke-dasharray:5.0,5.0;" x1="1031.4" x2="1031.4" y1="61.3453" y2="659.5641"/><line style="stroke:#181818;stroke-width:0.3;stroke-dasharray:5.0,5.0;" x1="1235.4" x2="1235.4" y1="61.3453" y2="659.5641"/><line style="stroke:#181818;stroke-width:0.3;stroke-dasharray:5.0,5.0;" x1="1306.8" x2="1306.8" y1="61.3453" y2="659.5641"/><line style="stroke:#181818;stroke-width:0.3;stroke-dasharray:5.0,5.0;" x1="1392.6" x2="1392.6" y1="61.3453" y2="659.5641"/><line style="stroke:#181818;stroke-width:0.3;stroke-dasharray:5.0,5.0;" x1="1477.8" x2="1477.8" y1="61.3453" y2="659.5641"/><line style="stroke:#181818;stroke-width:0.3;stroke-dasharray:5.0,5.0;" x1="1576.2" x2="1576.2" y1="61.3453" y2="659.5641"/><line style="stroke:#181818;stroke-width:0.3;stroke-dasharray:5.0,5.0;" x1="1683.6" x2="1683.6" y1="61.3453" y2="659.5641"/><line style="stroke:#181818;stroke-width:0.3;stroke-dasharray:5.0,5.0;" x1="1788.6" x2="1788.6" y1="61.3453" y2="659.5641"/><line style="stroke:#181818;stroke-width:0.3;stroke-dasharray:5.0,5.0;" x1="1869" x2="1869" y1="61.3453" y2="659.5641"/><line style="stroke:#181818;stroke-width:0.3;stroke-dasharray:5.0,5.0;" x1="1932.6" x2="1932.6" y1="61.3453" y2="659.5641"/><line style="stroke:#181818;stroke-width:0.3;stroke-dasharray:5.0,5.0;" x1="2017.2" x2="2017.2" y1="61.3453" y2="659.5641"/><line style="stroke:#181818;stroke-width:0.3;stroke-dasharray:5.0,5.0;" x1="2087.4" x2="2087.4" y1="61.3453" y2="659.5641"/><text fill="#000000" font-family="sans-serif" font-size="8.4" lengthAdjust="spacing" textLength="54.6" x="3" y="48.0645">Green Spaces</text><text fill="#000000" font-family="sans-serif" font-size="8.4" lengthAdjust="spacing" textLength="33.6" x="13.5" y="59.2371">Manager</text><ellipse cx="32.1" cy="8.1" fill="#E3E3E3" rx="4.8" ry="4.8" style="stroke:#181818;stroke-width:0.3;"/><path d="M32.1,12.9 L32.1,29.1 M24.3,17.7 L39.9,17.7 M32.1,29.1 L24.3,38.1 M32.1,29.1 L39.9,38.1 " fill="none" style="stroke:#181818;stroke-width:0.3;"/><text fill="#000000" font-family="sans-serif" font-size="8.4" lengthAdjust="spacing" textLength="54.6" x="3" y="668.0285">Green Spaces</text><text fill="#000000" font-family="sans-serif" font-size="8.4" lengthAdjust="spacing" textLength="33.6" x="13.5" y="679.2012">Manager</text><ellipse cx="32.1" cy="686.4094" fill="#E3E3E3" rx="4.8" ry="4.8" style="stroke:#181818;stroke-width:0.3;"/><path d="M32.1,691.2094 L32.1,707.4094 M24.3,696.0094 L39.9,696.0094 M32.1,707.4094 L24.3,716.4094 M32.1,707.4094 L39.9,716.4094 " fill="none" style="stroke:#181818;stroke-width:0.3;"/><rect fill="#E3E3E3" height="19.5727" rx="1.5" ry="1.5" style="stroke:#181818;stroke-width:0.3;" width="85.8" x="413.4" y="41.1727"/><text fill="#000000" font-family="sans-serif" font-size="8.4" lengthAdjust="spacing" textLength="77.4" x="417.6" y="54.4371">:AddTaskToDoListUI</text><rect fill="#E3E3E3" height="19.5727" rx="1.5" ry="1.5" style="stroke:#181818;stroke-width:0.3;" width="85.8" x="413.4" y="658.9641"/><text fill="#000000" font-family="sans-serif" font-size="8.4" lengthAdjust="spacing" textLength="77.4" x="417.6" y="672.2285">:AddTaskToDoListUI</text><rect fill="#E3E3E3" height="19.5727" rx="1.5" ry="1.5" style="stroke:#181818;stroke-width:0.3;" width="117.6" x="775.5" y="658.9641"/><text fill="#000000" font-family="sans-serif" font-size="8.4" lengthAdjust="spacing" textLength="109.2" x="779.7" y="672.2285">:AddTaskToDoListControlller</text><rect fill="#E3E3E3" height="19.5727" rx="1.5" ry="1.5" style="stroke:#181818;stroke-width:0.3;" width="58.2" x="938.4" y="41.1727"/><text fill="#000000" font-family="sans-serif" font-size="8.4" lengthAdjust="spacing" textLength="49.8" x="942.6" y="54.4371">:Repositories</text><rect fill="#E3E3E3" height="19.5727" rx="1.5" ry="1.5" style="stroke:#181818;stroke-width:0.3;" width="58.2" x="938.4" y="658.9641"/><text fill="#000000" font-family="sans-serif" font-size="8.4" lengthAdjust="spacing" textLength="49.8" x="942.6" y="672.2285">:Repositories</text><rect fill="#E3E3E3" height="30.7453" rx="1.5" ry="1.5" style="stroke:#181818;stroke-width:0.3;" width="58.2" x="1002.6" y="30"/><text fill="#000000" font-family="sans-serif" font-size="8.4" lengthAdjust="spacing" textLength="44.4" x="1009.5" y="43.2645">repositories</text><text fill="#000000" font-family="sans-serif" font-size="8.4" lengthAdjust="spacing" textLength="49.8" x="1006.8" y="54.4371">:Repositories</text><rect fill="#E3E3E3" height="30.7453" rx="1.5" ry="1.5" style="stroke:#181818;stroke-width:0.3;" width="58.2" x="1002.6" y="658.9641"/><text fill="#000000" font-family="sans-serif" font-size="8.4" lengthAdjust="spacing" textLength="44.4" x="1009.5" y="672.2285">repositories</text><text fill="#000000" font-family="sans-serif" font-size="8.4" lengthAdjust="spacing" textLength="49.8" x="1006.8" y="683.4012">:Repositories</text><rect fill="#E3E3E3" height="30.7453" rx="1.5" ry="1.5" style="stroke:#181818;stroke-width:0.3;" width="42.6" x="1214.4" y="30"/><text fill="#000000" font-family="sans-serif" font-size="8.4" lengthAdjust="spacing" textLength="33.6" x="1218.9" y="43.2645">toDoList:</text><text fill="#000000" font-family="sans-serif" font-size="8.4" lengthAdjust="spacing" textLength="34.2" x="1218.6" y="54.4371">ToDoList</text><rect fill="#E3E3E3" height="30.7453" rx="1.5" ry="1.5" style="stroke:#181818;stroke-width:0.3;" width="42.6" x="1214.4" y="658.9641"/><text fill="#000000" font-family="sans-serif" font-size="8.4" lengthAdjust="spacing" textLength="33.6" x="1218.9" y="672.2285">toDoList:</text><text fill="#000000" font-family="sans-serif" font-size="8.4" lengthAdjust="spacing" textLength="34.2" x="1218.6" y="683.4012">ToDoList</text><rect fill="#E3E3E3" height="19.5727" rx="1.5" ry="1.5" style="stroke:#181818;stroke-width:0.3;" width="87.6" x="1263" y="41.1727"/><text fill="#000000" font-family="sans-serif" font-size="8.4" lengthAdjust="spacing" textLength="79.2" x="1267.2" y="54.4371">:GreenSpaceMapper</text><rect fill="#E3E3E3" height="19.5727" rx="1.5" ry="1.5" style="stroke:#181818;stroke-width:0.3;" width="87.6" x="1263" y="658.9641"/><text fill="#000000" font-family="sans-serif" font-size="8.4" lengthAdjust="spacing" textLength="79.2" x="1267.2" y="672.2285">:GreenSpaceMapper</text><rect fill="#E3E3E3" height="30.7453" rx="1.5" ry="1.5" style="stroke:#181818;stroke-width:0.3;" width="72" x="1356.6" y="30"/><text fill="#000000" font-family="sans-serif" font-size="8.4" lengthAdjust="spacing" textLength="61.2" x="1362" y="43.2645">GreenSpaceDto</text><text fill="#000000" font-family="sans-serif" font-size="8.4" lengthAdjust="spacing" textLength="63.6" x="1360.8" y="54.4371">:GreenSpaceDto</text><rect fill="#E3E3E3" height="30.7453" rx="1.5" ry="1.5" style="stroke:#181818;stroke-width:0.3;" width="72" x="1356.6" y="658.9641"/><text fill="#000000" font-family="sans-serif" font-size="8.4" lengthAdjust="spacing" textLength="61.2" x="1362" y="672.2285">GreenSpaceDto</text><text fill="#000000" font-family="sans-serif" font-size="8.4" lengthAdjust="spacing" textLength="63.6" x="1360.8" y="683.4012">:GreenSpaceDto</text><rect fill="#E3E3E3" height="30.7453" rx="1.5" ry="1.5" style="stroke:#181818;stroke-width:0.3;" width="87" x="1434.6" y="30"/><text fill="#000000" font-family="sans-serif" font-size="8.4" lengthAdjust="spacing" textLength="78.6" x="1438.8" y="43.2645">GreenSpacesListDto</text><text fill="#000000" font-family="sans-serif" font-size="8.4" lengthAdjust="spacing" textLength="57" x="1449.6" y="54.4371">:List&lt;TaskDto&gt;</text><rect fill="#E3E3E3" height="30.7453" rx="1.5" ry="1.5" style="stroke:#181818;stroke-width:0.3;" width="87" x="1434.6" y="658.9641"/><text fill="#000000" font-family="sans-serif" font-size="8.4" lengthAdjust="spacing" textLength="78.6" x="1438.8" y="672.2285">GreenSpacesListDto</text><text fill="#000000" font-family="sans-serif" font-size="8.4" lengthAdjust="spacing" textLength="57" x="1449.6" y="683.4012">:List&lt;TaskDto&gt;</text><rect fill="#E3E3E3" height="30.7453" rx="1.5" ry="1.5" style="stroke:#181818;stroke-width:0.3;" width="97.8" x="1527.6" y="30"/><text fill="#000000" font-family="sans-serif" font-size="8.4" lengthAdjust="spacing" textLength="89.4" x="1531.8" y="43.2645">greenSpaceRepository:</text><text fill="#000000" font-family="sans-serif" font-size="8.4" lengthAdjust="spacing" textLength="88.8" x="1532.1" y="54.4371">GreenSpaceRepository</text><rect fill="#E3E3E3" height="30.7453" rx="1.5" ry="1.5" style="stroke:#181818;stroke-width:0.3;" width="97.8" x="1527.6" y="658.9641"/><text fill="#000000" font-family="sans-serif" font-size="8.4" lengthAdjust="spacing" textLength="89.4" x="1531.8" y="672.2285">greenSpaceRepository:</text><text fill="#000000" font-family="sans-serif" font-size="8.4" lengthAdjust="spacing" textLength="88.8" x="1532.1" y="683.4012">GreenSpaceRepository</text><rect fill="#E3E3E3" height="30.7453" rx="1.5" ry="1.5" style="stroke:#181818;stroke-width:0.3;" width="105" x="1631.4" y="30"/><text fill="#000000" font-family="sans-serif" font-size="8.4" lengthAdjust="spacing" textLength="96.6" x="1635.6" y="43.2645">authenticationRepository:</text><text fill="#000000" font-family="sans-serif" font-size="8.4" lengthAdjust="spacing" textLength="94.8" x="1636.5" y="54.4371">AuthenticationRepository</text><rect fill="#E3E3E3" height="30.7453" rx="1.5" ry="1.5" style="stroke:#181818;stroke-width:0.3;" width="105" x="1631.4" y="658.9641"/><text fill="#000000" font-family="sans-serif" font-size="8.4" lengthAdjust="spacing" textLength="96.6" x="1635.6" y="672.2285">authenticationRepository:</text><text fill="#000000" font-family="sans-serif" font-size="8.4" lengthAdjust="spacing" textLength="94.8" x="1636.5" y="683.4012">AuthenticationRepository</text><rect fill="#E3E3E3" height="30.7453" rx="1.5" ry="1.5" style="stroke:#181818;stroke-width:0.3;" width="93" x="1742.4" y="30"/><text fill="#000000" font-family="sans-serif" font-size="8.4" lengthAdjust="spacing" textLength="84.6" x="1746.6" y="43.2645">authenticationFacade:</text><text fill="#000000" font-family="sans-serif" font-size="8.4" lengthAdjust="spacing" textLength="46.2" x="1765.8" y="54.4371">AuthFacade</text><rect fill="#E3E3E3" height="30.7453" rx="1.5" ry="1.5" style="stroke:#181818;stroke-width:0.3;" width="93" x="1742.4" y="658.9641"/><text fill="#000000" font-family="sans-serif" font-size="8.4" lengthAdjust="spacing" textLength="84.6" x="1746.6" y="672.2285">authenticationFacade:</text><text fill="#000000" font-family="sans-serif" font-size="8.4" lengthAdjust="spacing" textLength="46.2" x="1765.8" y="683.4012">AuthFacade</text><rect fill="#E3E3E3" height="30.7453" rx="1.5" ry="1.5" style="stroke:#181818;stroke-width:0.3;" width="55.8" x="1841.4" y="30"/><text fill="#000000" font-family="sans-serif" font-size="8.4" lengthAdjust="spacing" textLength="19.2" x="1859.7" y="43.2645">user:</text><text fill="#000000" font-family="sans-serif" font-size="8.4" lengthAdjust="spacing" textLength="47.4" x="1845.6" y="54.4371">UserSession</text><rect fill="#E3E3E3" height="30.7453" rx="1.5" ry="1.5" style="stroke:#181818;stroke-width:0.3;" width="55.8" x="1841.4" y="658.9641"/><text fill="#000000" font-family="sans-serif" font-size="8.4" lengthAdjust="spacing" textLength="19.2" x="1859.7" y="672.2285">user:</text><text fill="#000000" font-family="sans-serif" font-size="8.4" lengthAdjust="spacing" textLength="47.4" x="1845.6" y="683.4012">UserSession</text><rect fill="#E3E3E3" height="30.7453" rx="1.5" ry="1.5" style="stroke:#181818;stroke-width:0.3;" width="58.8" x="1903.2" y="30"/><text fill="#000000" font-family="sans-serif" font-size="8.4" lengthAdjust="spacing" textLength="50.4" x="1907.4" y="43.2645">GreenSpace:</text><text fill="#000000" font-family="sans-serif" font-size="8.4" lengthAdjust="spacing" textLength="48" x="1908.6" y="54.4371">GreenSpace</text><rect fill="#E3E3E3" height="30.7453" rx="1.5" ry="1.5" style="stroke:#181818;stroke-width:0.3;" width="58.8" x="1903.2" y="658.9641"/><text fill="#000000" font-family="sans-serif" font-size="8.4" lengthAdjust="spacing" textLength="50.4" x="1907.4" y="672.2285">GreenSpace:</text><text fill="#000000" font-family="sans-serif" font-size="8.4" lengthAdjust="spacing" textLength="48" x="1908.6" y="683.4012">GreenSpace</text><rect fill="#E3E3E3" height="30.7453" rx="1.5" ry="1.5" style="stroke:#181818;stroke-width:0.3;" width="99" x="1968" y="30"/><text fill="#000000" font-family="sans-serif" font-size="8.4" lengthAdjust="spacing" textLength="86.4" x="1974.3" y="43.2645">greenSpacesManager:</text><text fill="#000000" font-family="sans-serif" font-size="8.4" lengthAdjust="spacing" textLength="90.6" x="1972.2" y="54.4371">Green Spaces Manager</text><rect fill="#E3E3E3" height="30.7453" rx="1.5" ry="1.5" style="stroke:#181818;stroke-width:0.3;" width="99" x="1968" y="658.9641"/><text fill="#000000" font-family="sans-serif" font-size="8.4" lengthAdjust="spacing" textLength="86.4" x="1974.3" y="672.2285">greenSpacesManager:</text><text fill="#000000" font-family="sans-serif" font-size="8.4" lengthAdjust="spacing" textLength="90.6" x="1972.2" y="683.4012">Green Spaces Manager</text><rect fill="#E3E3E3" height="30.7453" rx="1.5" ry="1.5" style="stroke:#181818;stroke-width:0.3;" width="29.4" x="2073" y="30"/><text fill="#000000" font-family="sans-serif" font-size="8.4" lengthAdjust="spacing" textLength="15.6" x="2079.9" y="43.2645">task</text><text fill="#000000" font-family="sans-serif" font-size="8.4" lengthAdjust="spacing" textLength="21" x="2077.2" y="54.4371">:Task</text><rect fill="#E3E3E3" height="30.7453" rx="1.5" ry="1.5" style="stroke:#181818;stroke-width:0.3;" width="29.4" x="2073" y="658.9641"/><text fill="#000000" font-family="sans-serif" font-size="8.4" lengthAdjust="spacing" textLength="15.6" x="2079.9" y="672.2285">task</text><text fill="#000000" font-family="sans-serif" font-size="8.4" lengthAdjust="spacing" textLength="21" x="2077.2" y="683.4012">:Task</text><rect fill="#FFFFFF" height="581.4187" style="stroke:#181818;stroke-width:0.6;" width="6" x="29.1" y="67.3453"/><rect fill="#FFFFFF" height="111.4477" style="stroke:#181818;stroke-width:0.6;" width="6" x="453.3" y="81.3199"/><rect fill="#FFFFFF" height="18.7746" style="stroke:#181818;stroke-width:0.6;" width="6" x="453.3" y="211.5422"/><rect fill="#FFFFFF" height="18.7746" style="stroke:#181818;stroke-width:0.6;" width="6" x="453.3" y="249.0914"/><rect fill="#FFFFFF" height="362.1234" style="stroke:#181818;stroke-width:0.6;" width="6" x="453.3" y="286.6406"/><rect fill="#FFFFFF" height="47.7258" style="stroke:#181818;stroke-width:0.6;" width="6" x="831.3" y="126.2672"/><rect fill="#FFFFFF" height="324.5742" style="stroke:#181818;stroke-width:0.6;" width="6" x="831.3" y="305.4152"/><rect fill="#FFFFFF" height="54.3258" style="stroke:#181818;stroke-width:0.6;" width="6" x="834.3" y="328.9898"/><rect fill="#FFFFFF" height="54.3258" style="stroke:#181818;stroke-width:0.6;" width="6" x="834.3" y="411.0902"/><rect fill="#FFFFFF" height="18.7746" style="stroke:#181818;stroke-width:0.6;" width="6" x="964.5" y="488.3906"/><rect fill="#FFFFFF" height="18.7746" style="stroke:#181818;stroke-width:0.6;" width="6" x="1028.7" y="525.9398"/><rect fill="#FFFFFF" height="47.7258" style="stroke:#181818;stroke-width:0.6;" width="6" x="1232.7" y="563.4891"/><polygon fill="#181818" points="446.1,78.9199,452.1,81.3199,446.1,83.7199,448.5,81.3199" style="stroke:#181818;stroke-width:0.6;"/><line style="stroke:#181818;stroke-width:0.6;" x1="35.1" x2="449.7" y1="81.3199" y2="81.3199"/><text fill="#000000" font-family="sans-serif" font-size="7.8" font-weight="bold" lengthAdjust="spacing" textLength="4.2" x="39.3" y="78.1623">1</text><text fill="#000000" font-family="sans-serif" font-size="7.8" lengthAdjust="spacing" textLength="142.2" x="45.9" y="78.1623">Asks to add a new task to the To-Do List</text><polygon fill="#181818" points="768.3,97.6945,774.3,100.0945,768.3,102.4945,770.7,100.0945" style="stroke:#181818;stroke-width:0.6;"/><line style="stroke:#181818;stroke-width:0.6;" x1="459.3" x2="771.9" y1="100.0945" y2="100.0945"/><text fill="#000000" font-family="sans-serif" font-size="7.8" font-weight="bold" lengthAdjust="spacing" textLength="4.2" x="463.5" y="96.9369">2</text><text fill="#000000" font-family="sans-serif" font-size="7.8" lengthAdjust="spacing" textLength="21.6" x="470.1" y="96.9369">create</text><rect fill="#E3E3E3" height="19.5727" rx="1.5" ry="1.5" style="stroke:#181818;stroke-width:0.3;" width="117.6" x="775.5" y="86.1199"/><text fill="#000000" font-family="sans-serif" font-size="8.4" lengthAdjust="spacing" textLength="109.2" x="779.7" y="99.3844">:AddTaskToDoListControlller</text><polygon fill="#181818" points="824.1,123.8672,830.1,126.2672,824.1,128.6672,826.5,126.2672" style="stroke:#181818;stroke-width:0.6;"/><line style="stroke:#181818;stroke-width:0.6;" x1="459.3" x2="827.7" y1="126.2672" y2="126.2672"/><text fill="#000000" font-family="sans-serif" font-size="7.8" font-weight="bold" lengthAdjust="spacing" textLength="4.2" x="463.5" y="123.1096">3</text><text fill="#000000" font-family="sans-serif" font-size="7.8" lengthAdjust="spacing" textLength="78.6" x="470.1" y="123.1096">getGreenSpacesDTO()</text><rect fill="none" height="25.9512" style="stroke:#000000;stroke-width:0.8999999999999999;" width="121.2" x="773.7" y="131.0672"/><path d="M773.7,131.0672 L810.9,131.0672 L810.9,136.4672 L804.9,142.4672 L773.7,142.4672 L773.7,131.0672 " fill="#EEEEEE" style="stroke:#000000;stroke-width:1.2;"/><text fill="#000000" font-family="sans-serif" font-size="7.8" font-weight="bold" lengthAdjust="spacing" textLength="10.2" x="781.5" y="140.6842">ref</text><text fill="#000000" font-family="sans-serif" font-size="7.2" lengthAdjust="spacing" textLength="87.6" x="790.5" y="152.6367">Get Green Spaces Dto List</text><polygon fill="#181818" points="465.9,171.593,459.9,173.993,465.9,176.393,463.5,173.993" style="stroke:#181818;stroke-width:0.6;"/><line style="stroke:#181818;stroke-width:0.6;stroke-dasharray:2.0,2.0;" x1="462.3" x2="833.7" y1="173.993" y2="173.993"/><text fill="#000000" font-family="sans-serif" font-size="7.8" font-weight="bold" lengthAdjust="spacing" textLength="4.2" x="469.5" y="170.8354">4</text><text fill="#000000" font-family="sans-serif" font-size="7.8" lengthAdjust="spacing" textLength="70.2" x="476.1" y="170.8354">greenSpacesListDto</text><polygon fill="#181818" points="41.7,190.3676,35.7,192.7676,41.7,195.1676,39.3,192.7676" style="stroke:#181818;stroke-width:0.6;"/><line style="stroke:#181818;stroke-width:0.6;stroke-dasharray:2.0,2.0;" x1="38.1" x2="455.7" y1="192.7676" y2="192.7676"/><text fill="#000000" font-family="sans-serif" font-size="7.8" font-weight="bold" lengthAdjust="spacing" textLength="4.2" x="45.3" y="189.61">5</text><text fill="#000000" font-family="sans-serif" font-size="7.8" lengthAdjust="spacing" textLength="93.6" x="51.9" y="189.61">Shows list of green spaces</text><polygon fill="#181818" points="446.1,209.1422,452.1,211.5422,446.1,213.9422,448.5,211.5422" style="stroke:#181818;stroke-width:0.6;"/><line style="stroke:#181818;stroke-width:0.6;" x1="35.1" x2="449.7" y1="211.5422" y2="211.5422"/><text fill="#000000" font-family="sans-serif" font-size="7.8" font-weight="bold" lengthAdjust="spacing" textLength="4.2" x="39.3" y="208.3846">6</text><text fill="#000000" font-family="sans-serif" font-size="7.8" lengthAdjust="spacing" textLength="76.8" x="45.9" y="208.3846">selects a green space</text><polygon fill="#181818" points="41.7,227.9168,35.7,230.3168,41.7,232.7168,39.3,230.3168" style="stroke:#181818;stroke-width:0.6;"/><line style="stroke:#181818;stroke-width:0.6;stroke-dasharray:2.0,2.0;" x1="38.1" x2="455.7" y1="230.3168" y2="230.3168"/><text fill="#000000" font-family="sans-serif" font-size="7.8" font-weight="bold" lengthAdjust="spacing" textLength="4.2" x="45.3" y="227.1592">7</text><text fill="#000000" font-family="sans-serif" font-size="7.8" lengthAdjust="spacing" textLength="397.2" x="51.9" y="227.1592">requests data (Requests data (title, descritpion, degreeOfUrgency, expectedDurationTime, taskType, greenSpace))</text><polygon fill="#181818" points="446.1,246.6914,452.1,249.0914,446.1,251.4914,448.5,249.0914" style="stroke:#181818;stroke-width:0.6;"/><line style="stroke:#181818;stroke-width:0.6;" x1="35.1" x2="449.7" y1="249.0914" y2="249.0914"/><text fill="#000000" font-family="sans-serif" font-size="7.8" font-weight="bold" lengthAdjust="spacing" textLength="4.2" x="39.3" y="245.9338">8</text><text fill="#000000" font-family="sans-serif" font-size="7.8" lengthAdjust="spacing" textLength="73.2" x="45.9" y="245.9338">types requested data</text><polygon fill="#181818" points="41.7,265.466,35.7,267.866,41.7,270.266,39.3,267.866" style="stroke:#181818;stroke-width:0.6;"/><line style="stroke:#181818;stroke-width:0.6;stroke-dasharray:2.0,2.0;" x1="38.1" x2="455.7" y1="267.866" y2="267.866"/><text fill="#000000" font-family="sans-serif" font-size="7.8" font-weight="bold" lengthAdjust="spacing" textLength="4.2" x="45.3" y="264.7084">9</text><text fill="#000000" font-family="sans-serif" font-size="7.8" lengthAdjust="spacing" textLength="141.6" x="51.9" y="264.7084">shows all data and requests confirmation</text><polygon fill="#181818" points="446.1,284.2406,452.1,286.6406,446.1,289.0406,448.5,286.6406" style="stroke:#181818;stroke-width:0.6;"/><line style="stroke:#181818;stroke-width:0.6;" x1="35.1" x2="449.7" y1="286.6406" y2="286.6406"/><text fill="#000000" font-family="sans-serif" font-size="7.8" font-weight="bold" lengthAdjust="spacing" textLength="8.4" x="39.3" y="283.483">10</text><text fill="#000000" font-family="sans-serif" font-size="7.8" lengthAdjust="spacing" textLength="46.8" x="50.1" y="283.483">confirms data</text><polygon fill="#181818" points="824.1,303.0152,830.1,305.4152,824.1,307.8152,826.5,305.4152" style="stroke:#181818;stroke-width:0.6;"/><line style="stroke:#181818;stroke-width:0.6;" x1="459.3" x2="827.7" y1="305.4152" y2="305.4152"/><text fill="#000000" font-family="sans-serif" font-size="7.8" font-weight="bold" lengthAdjust="spacing" textLength="8.4" x="463.5" y="302.2576">11</text><text fill="#000000" font-family="sans-serif" font-size="7.8" lengthAdjust="spacing" textLength="349.8" x="474.3" y="302.2576">addTaskToDoList(title, description, degreeOfUrgency, expectedDurationTime, taskType, greenSpace)</text><line style="stroke:#181818;stroke-width:0.6;" x1="837.3" x2="865.5" y1="321.1898" y2="321.1898"/><line style="stroke:#181818;stroke-width:0.6;" x1="865.5" x2="865.5" y1="321.1898" y2="328.9898"/><line style="stroke:#181818;stroke-width:0.6;" x1="840.9" x2="865.5" y1="328.9898" y2="328.9898"/><polygon fill="#181818" points="846.9,326.5898,840.9,328.9898,846.9,331.3898,844.5,328.9898" style="stroke:#181818;stroke-width:0.6;"/><text fill="#000000" font-family="sans-serif" font-size="7.8" font-weight="bold" lengthAdjust="spacing" textLength="8.4" x="844.5" y="318.0322">12</text><text fill="#000000" font-family="sans-serif" font-size="7.8" lengthAdjust="spacing" textLength="108" x="855.3" y="318.0322">getGreenSpaceByName(name)</text><rect fill="none" height="25.9512" style="stroke:#000000;stroke-width:0.8999999999999999;" width="121.2" x="773.7" y="336.7898"/><path d="M773.7,336.7898 L810.9,336.7898 L810.9,342.1898 L804.9,348.1898 L773.7,348.1898 L773.7,336.7898 " fill="#EEEEEE" style="stroke:#000000;stroke-width:1.2;"/><text fill="#000000" font-family="sans-serif" font-size="7.8" font-weight="bold" lengthAdjust="spacing" textLength="10.2" x="781.5" y="346.4068">ref</text><text fill="#000000" font-family="sans-serif" font-size="7.2" lengthAdjust="spacing" textLength="87.6" x="790.5" y="358.3594">Get Green Space by Name</text><line style="stroke:#181818;stroke-width:0.6;stroke-dasharray:2.0,2.0;" x1="840.3" x2="865.5" y1="382.7156" y2="382.7156"/><line style="stroke:#181818;stroke-width:0.6;stroke-dasharray:2.0,2.0;" x1="865.5" x2="865.5" y1="382.7156" y2="390.5156"/><line style="stroke:#181818;stroke-width:0.6;stroke-dasharray:2.0,2.0;" x1="837.3" x2="865.5" y1="390.5156" y2="390.5156"/><polygon fill="#181818" points="843.3,388.1156,837.3,390.5156,843.3,392.9156,840.9,390.5156" style="stroke:#181818;stroke-width:0.6;"/><text fill="#000000" font-family="sans-serif" font-size="7.8" font-weight="bold" lengthAdjust="spacing" textLength="8.4" x="844.5" y="379.558">13</text><text fill="#000000" font-family="sans-serif" font-size="7.8" lengthAdjust="spacing" textLength="41.4" x="855.3" y="379.558">greenSpace</text><line style="stroke:#181818;stroke-width:0.6;" x1="837.3" x2="865.5" y1="403.2902" y2="403.2902"/><line style="stroke:#181818;stroke-width:0.6;" x1="865.5" x2="865.5" y1="403.2902" y2="411.0902"/><line style="stroke:#181818;stroke-width:0.6;" x1="840.9" x2="865.5" y1="411.0902" y2="411.0902"/><polygon fill="#181818" points="846.9,408.6902,840.9,411.0902,846.9,413.4902,844.5,411.0902" style="stroke:#181818;stroke-width:0.6;"/><text fill="#000000" font-family="sans-serif" font-size="7.8" font-weight="bold" lengthAdjust="spacing" textLength="8.4" x="844.5" y="400.1326">14</text><text fill="#000000" font-family="sans-serif" font-size="7.8" lengthAdjust="spacing" textLength="79.8" x="855.3" y="400.1326">getGSMFromSession()</text><rect fill="none" height="25.9512" style="stroke:#000000;stroke-width:0.8999999999999999;" width="121.2" x="773.7" y="418.8902"/><path d="M773.7,418.8902 L810.9,418.8902 L810.9,424.2902 L804.9,430.2902 L773.7,430.2902 L773.7,418.8902 " fill="#EEEEEE" style="stroke:#000000;stroke-width:1.2;"/><text fill="#000000" font-family="sans-serif" font-size="7.8" font-weight="bold" lengthAdjust="spacing" textLength="10.2" x="781.5" y="428.5072">ref</text><text fill="#000000" font-family="sans-serif" font-size="7.2" lengthAdjust="spacing" textLength="49.2" x="809.7" y="440.4598">Get GSM email</text><line style="stroke:#181818;stroke-width:0.6;stroke-dasharray:2.0,2.0;" x1="840.3" x2="865.5" y1="464.816" y2="464.816"/><line style="stroke:#181818;stroke-width:0.6;stroke-dasharray:2.0,2.0;" x1="865.5" x2="865.5" y1="464.816" y2="472.616"/><line style="stroke:#181818;stroke-width:0.6;stroke-dasharray:2.0,2.0;" x1="837.3" x2="865.5" y1="472.616" y2="472.616"/><polygon fill="#181818" points="843.3,470.216,837.3,472.616,843.3,475.016,840.9,472.616" style="stroke:#181818;stroke-width:0.6;"/><text fill="#000000" font-family="sans-serif" font-size="7.8" font-weight="bold" lengthAdjust="spacing" textLength="8.4" x="844.5" y="461.6584">15</text><text fill="#000000" font-family="sans-serif" font-size="7.8" lengthAdjust="spacing" textLength="18.6" x="855.3" y="461.6584">email</text><polygon fill="#181818" points="957.3,485.9906,963.3,488.3906,957.3,490.7906,959.7,488.3906" style="stroke:#181818;stroke-width:0.6;"/><line style="stroke:#181818;stroke-width:0.6;" x1="837.3" x2="960.9" y1="488.3906" y2="488.3906"/><text fill="#000000" font-family="sans-serif" font-size="7.8" font-weight="bold" lengthAdjust="spacing" textLength="8.4" x="841.5" y="485.233">16</text><text fill="#000000" font-family="sans-serif" font-size="7.8" lengthAdjust="spacing" textLength="45" x="852.3" y="485.233">getInstance()</text><polygon fill="#181818" points="843.9,504.7652,837.9,507.1652,843.9,509.5652,841.5,507.1652" style="stroke:#181818;stroke-width:0.6;"/><line style="stroke:#181818;stroke-width:0.6;stroke-dasharray:2.0,2.0;" x1="840.3" x2="966.9" y1="507.1652" y2="507.1652"/><text fill="#000000" font-family="sans-serif" font-size="7.8" font-weight="bold" lengthAdjust="spacing" textLength="8.4" x="847.5" y="504.0076">17</text><text fill="#000000" font-family="sans-serif" font-size="7.8" lengthAdjust="spacing" textLength="40.2" x="858.3" y="504.0076">repositories</text><polygon fill="#181818" points="1021.5,523.5398,1027.5,525.9398,1021.5,528.3398,1023.9,525.9398" style="stroke:#181818;stroke-width:0.6;"/><line style="stroke:#181818;stroke-width:0.6;" x1="837.3" x2="1025.1" y1="525.9398" y2="525.9398"/><text fill="#000000" font-family="sans-serif" font-size="7.8" font-weight="bold" lengthAdjust="spacing" textLength="8.4" x="841.5" y="522.7822">18</text><text fill="#000000" font-family="sans-serif" font-size="7.8" lengthAdjust="spacing" textLength="46.2" x="852.3" y="522.7822">getToDoList()</text><polygon fill="#181818" points="843.9,542.3145,837.9,544.7145,843.9,547.1145,841.5,544.7145" style="stroke:#181818;stroke-width:0.6;"/><line style="stroke:#181818;stroke-width:0.6;stroke-dasharray:2.0,2.0;" x1="840.3" x2="1031.1" y1="544.7145" y2="544.7145"/><text fill="#000000" font-family="sans-serif" font-size="7.8" font-weight="bold" lengthAdjust="spacing" textLength="8.4" x="847.5" y="541.5568">19</text><text fill="#000000" font-family="sans-serif" font-size="7.8" lengthAdjust="spacing" textLength="28.8" x="858.3" y="541.5568">toDoList</text><polygon fill="#181818" points="1225.5,561.0891,1231.5,563.4891,1225.5,565.8891,1227.9,563.4891" style="stroke:#181818;stroke-width:0.6;"/><line style="stroke:#181818;stroke-width:0.6;" x1="837.3" x2="1229.1" y1="563.4891" y2="563.4891"/><text fill="#000000" font-family="sans-serif" font-size="7.8" font-weight="bold" lengthAdjust="spacing" textLength="8.4" x="841.5" y="560.3314">20</text><text fill="#000000" font-family="sans-serif" font-size="7.8" lengthAdjust="spacing" textLength="373.2" x="852.3" y="560.3314">addTaskToDoList(title, description, degreeOfUrgency, expectedDurationTime, taskType, greenSpace, email)</text><rect fill="none" height="25.9512" style="stroke:#000000;stroke-width:0.8999999999999999;" width="46.2" x="1212.6" y="568.2891"/><path d="M1212.6,568.2891 L1249.8,568.2891 L1249.8,573.6891 L1243.8,579.6891 L1212.6,579.6891 L1212.6,568.2891 " fill="#EEEEEE" style="stroke:#000000;stroke-width:1.2;"/><text fill="#000000" font-family="sans-serif" font-size="7.8" font-weight="bold" lengthAdjust="spacing" textLength="10.2" x="1220.4" y="577.9061">ref</text><text fill="#000000" font-family="sans-serif" font-size="7.2" lengthAdjust="spacing" textLength="40.2" x="1215.6" y="589.8586">Create Task</text><polygon fill="#181818" points="843.9,608.8148,837.9,611.2148,843.9,613.6148,841.5,611.2148" style="stroke:#181818;stroke-width:0.6;"/><line style="stroke:#181818;stroke-width:0.6;stroke-dasharray:2.0,2.0;" x1="840.3" x2="1235.1" y1="611.2148" y2="611.2148"/><text fill="#000000" font-family="sans-serif" font-size="7.8" font-weight="bold" lengthAdjust="spacing" textLength="8.4" x="847.5" y="608.0572">21</text><text fill="#000000" font-family="sans-serif" font-size="7.8" lengthAdjust="spacing" textLength="15" x="858.3" y="608.0572">task</text><polygon fill="#181818" points="465.9,627.5895,459.9,629.9895,465.9,632.3895,463.5,629.9895" style="stroke:#181818;stroke-width:0.6;"/><line style="stroke:#181818;stroke-width:0.6;stroke-dasharray:2.0,2.0;" x1="462.3" x2="833.7" y1="629.9895" y2="629.9895"/><text fill="#000000" font-family="sans-serif" font-size="7.8" font-weight="bold" lengthAdjust="spacing" textLength="8.4" x="469.5" y="626.8318">22</text><text fill="#000000" font-family="sans-serif" font-size="7.8" lengthAdjust="spacing" textLength="15" x="480.3" y="626.8318">task</text><polygon fill="#181818" points="38.7,646.3641,32.7,648.7641,38.7,651.1641,36.3,648.7641" style="stroke:#181818;stroke-width:0.6;"/><line style="stroke:#181818;stroke-width:0.6;stroke-dasharray:2.0,2.0;" x1="35.1" x2="455.7" y1="648.7641" y2="648.7641"/><text fill="#000000" font-family="sans-serif" font-size="7.8" font-weight="bold" lengthAdjust="spacing" textLength="8.4" x="42.3" y="645.6064">23</text><text fill="#000000" font-family="sans-serif" font-size="7.8" lengthAdjust="spacing" textLength="94.8" x="53.1" y="645.6064">displays operation success</text><!--SRC=[jLPDR-8m4BtdLunwMLgrVm2jAh6bHTMMRKN2hHSt6S0YiREsQSk_tx4JWfqFocgrFa1iptj-CvwnhRTSb4on0WefPBfHia0mQeUHRcPAbcxP6cEppn4KfeQ9TUuRw0tBv0SNQrYnN6CKiPsHObUyeOgYRnkU8QoaD6_oCsAfaGekPWfHG4pCg5_5d0dYLnV0DCpYUKIiXgUyPCB0nNYIPGdJsqHEvHFNPldex9QFfytkf31AvdbUyzubYwSMOe6br9pqSDJEPd7_4feep-9Lz0BY467gvSUlug34MHx6Mn9S75mOvgmiQwdhu-3avUL-4MAEaAcH92hej_3Jv7a8hAsQYi5-VRUne-vjYw4oQzCSvvkGxCdZMSzmYwyJOagL3GhgCyEb2EWc0rEECiITudnWASkmvgiw3KFL3T4xZOgib_GNezR4uCpjy50m0zzR7Wz5JjTPVy3MrG1-CIpZzkuRsYRQChjRpYAPn3yZMrNydHbqrHC1DVg0crkg4XZ3H6zj0WBBCc0Wy0CiYnsXC44YRwOIN6vQO4D51UO6R2CQ8hCbT7L5XAb2ikYRfiar6Y_BA7L6burXG-wgiHbsJU4Av3kgQWvQROO6WZ1HhXv5Dmr5PecEr4xKpI4IwqxwDuOPzeYpZX7M1dCCyKP-QCW91t9LKO5sN56Bu10wVnCqvdHoKjRvoFw81wig_Br3JS2C6GQZHTWrtEHuJMlhL75JKgxQZbtXURLKQnJf_XhmiwIbCPlkb2k8X1U4iJcGx4lwEaRbyl8SLmoXz44OPaxA6Pve5p-MvvLsvhQgzYQLOiLLKTNo6H9gUtrYxJ0nnpRx_ViX35rf_ZbqvoHvbOq7HK6b_DZ_OWME1FrS1fXJDVDbsVIK3hpjmIxLiUtKJb0_jUJZiUPRzHRFiDFn_87U6VNXEZhVtJEE2CeHB1ZFexzshGixookwq9nJZqBJkoZ58NVinHVCq82tkl_I61BHeV0qn4v4azp38kAEYjYJqJnJXYN4_HgQXy__BhJhQgS6F6mSw9P2apszJZR-kBiDh0VT-TuyEj3vOMoZlH1s5NftL0lwnQKqXephCcTx3P8UZovme7SfNKczTvBNjG-5Fm00]--></g></svg>