<?xml version="1.0" encoding="us-ascii" standalone="no"?><svg xmlns="http://www.w3.org/2000/svg" xmlns:xlink="http://www.w3.org/1999/xlink" contentStyleType="text/css" height="1127px" preserveAspectRatio="none" style="width:1691px;height:1127px;background:#FFFFFF;" version="1.1" viewBox="0 0 1691 1127" width="1691px" zoomAndPan="magnify"><defs/><g><!--class AddTaskToDoListUI--><g id="elem_AddTaskToDoListUI"><rect codeLine="11" fill="#F1F1F1" height="48" id="AddTaskToDoListUI" rx="2.5" ry="2.5" style="stroke:#181818;stroke-width:0.5;" width="157" x="855" y="7"/><ellipse cx="870" cy="23" fill="#ADD1B2" rx="11" ry="11" style="stroke:#181818;stroke-width:1.0;"/><path d="M872.7656,18.875 Q872.9219,18.6563 873.1094,18.5469 Q873.2969,18.4375 873.5156,18.4375 Q873.8906,18.4375 874.125,18.7031 Q874.3594,18.9531 874.3594,19.5625 L874.3594,21.0156 Q874.3594,21.625 874.125,21.8906 Q873.8906,22.1563 873.5156,22.1563 Q873.1719,22.1563 872.9688,21.9531 Q872.7656,21.7656 872.6563,21.25 Q872.6094,20.8906 872.4219,20.7031 Q872.0938,20.3281 871.4844,20.1094 Q870.875,19.8906 870.25,19.8906 Q869.4844,19.8906 868.8438,20.2188 Q868.2188,20.5469 867.7188,21.2969 Q867.2344,22.0469 867.2344,23.0781 L867.2344,24.1719 Q867.2344,25.4063 868.125,26.2344 Q869.0156,27.0469 870.6094,27.0469 Q871.5469,27.0469 872.2031,26.7969 Q872.5938,26.6406 873.0156,26.2031 Q873.2813,25.9375 873.4219,25.8594 Q873.5781,25.7813 873.7813,25.7813 Q874.1094,25.7813 874.3594,26.0469 Q874.625,26.2969 874.625,26.6406 Q874.625,26.9844 874.2813,27.3906 Q873.7813,27.9688 872.9844,28.2969 Q871.9063,28.75 870.6094,28.75 Q869.0938,28.75 867.8906,28.125 Q866.9063,27.625 866.2188,26.5625 Q865.5313,25.4844 865.5313,24.2031 L865.5313,23.0469 Q865.5313,21.7188 866.1406,20.5781 Q866.7656,19.4219 867.8594,18.8125 Q868.9531,18.1875 870.1875,18.1875 Q870.9219,18.1875 871.5625,18.3594 Q872.2188,18.5156 872.7656,18.875 Z " fill="#000000"/><text fill="#000000" font-family="sans-serif" font-size="14" lengthAdjust="spacing" textLength="125" x="884" y="28.7969">AddTaskToDoListUI</text><line style="stroke:#181818;stroke-width:0.5;" x1="856" x2="1011" y1="39" y2="39"/><line style="stroke:#181818;stroke-width:0.5;" x1="856" x2="1011" y1="47" y2="47"/></g><!--class AddTaskToDoListController--><g id="elem_AddTaskToDoListController"><rect codeLine="14" fill="#F1F1F1" height="141.1055" id="AddTaskToDoListController" rx="2.5" ry="2.5" style="stroke:#181818;stroke-width:0.5;" width="631" x="618" y="116"/><ellipse cx="841.75" cy="132" fill="#ADD1B2" rx="11" ry="11" style="stroke:#181818;stroke-width:1.0;"/><path d="M844.5156,127.875 Q844.6719,127.6563 844.8594,127.5469 Q845.0469,127.4375 845.2656,127.4375 Q845.6406,127.4375 845.875,127.7031 Q846.1094,127.9531 846.1094,128.5625 L846.1094,130.0156 Q846.1094,130.625 845.875,130.8906 Q845.6406,131.1563 845.2656,131.1563 Q844.9219,131.1563 844.7188,130.9531 Q844.5156,130.7656 844.4063,130.25 Q844.3594,129.8906 844.1719,129.7031 Q843.8438,129.3281 843.2344,129.1094 Q842.625,128.8906 842,128.8906 Q841.2344,128.8906 840.5938,129.2188 Q839.9688,129.5469 839.4688,130.2969 Q838.9844,131.0469 838.9844,132.0781 L838.9844,133.1719 Q838.9844,134.4063 839.875,135.2344 Q840.7656,136.0469 842.3594,136.0469 Q843.2969,136.0469 843.9531,135.7969 Q844.3438,135.6406 844.7656,135.2031 Q845.0313,134.9375 845.1719,134.8594 Q845.3281,134.7813 845.5313,134.7813 Q845.8594,134.7813 846.1094,135.0469 Q846.375,135.2969 846.375,135.6406 Q846.375,135.9844 846.0313,136.3906 Q845.5313,136.9688 844.7344,137.2969 Q843.6563,137.75 842.3594,137.75 Q840.8438,137.75 839.6406,137.125 Q838.6563,136.625 837.9688,135.5625 Q837.2813,134.4844 837.2813,133.2031 L837.2813,132.0469 Q837.2813,130.7188 837.8906,129.5781 Q838.5156,128.4219 839.6094,127.8125 Q840.7031,127.1875 841.9375,127.1875 Q842.6719,127.1875 843.3125,127.3594 Q843.9688,127.5156 844.5156,127.875 Z " fill="#000000"/><text fill="#000000" font-family="sans-serif" font-size="14" lengthAdjust="spacing" textLength="175" x="862.25" y="137.7969">AddTaskToDoListController</text><line style="stroke:#181818;stroke-width:0.5;" x1="619" x2="1248" y1="148" y2="148"/><line style="stroke:#181818;stroke-width:0.5;" x1="619" x2="1248" y1="156" y2="156"/><text fill="#000000" font-family="sans-serif" font-size="14" lengthAdjust="spacing" textLength="563" x="624" y="175.1074">+AddTaskToDoListController(greenSpaceRepository, toDoList, authenticationRepository)</text><text fill="#000000" font-family="sans-serif" font-size="14" lengthAdjust="spacing" textLength="619" x="624" y="193.7285">+addTaskToDoList(title, description, degreeOfUrgency, expectedDuration, taskType, greenSpace)</text><text fill="#000000" font-family="sans-serif" font-size="14" lengthAdjust="spacing" textLength="202" x="624" y="212.3496">-getGreenSpaceByName(name)</text><text fill="#000000" font-family="sans-serif" font-size="14" lengthAdjust="spacing" textLength="149" x="624" y="230.9707">-getGSMFromSession()</text><text fill="#000000" font-family="sans-serif" font-size="14" lengthAdjust="spacing" textLength="177" x="624" y="249.5918">+getGreenSpacesListDTO()</text></g><!--class ToDoList--><g id="elem_ToDoList"><rect codeLine="22" fill="#F1F1F1" height="66.6211" id="ToDoList" rx="2.5" ry="2.5" style="stroke:#181818;stroke-width:0.5;" width="163" x="410" y="584.5"/><ellipse cx="458.75" cy="600.5" fill="#ADD1B2" rx="11" ry="11" style="stroke:#181818;stroke-width:1.0;"/><path d="M461.5156,596.375 Q461.6719,596.1563 461.8594,596.0469 Q462.0469,595.9375 462.2656,595.9375 Q462.6406,595.9375 462.875,596.2031 Q463.1094,596.4531 463.1094,597.0625 L463.1094,598.5156 Q463.1094,599.125 462.875,599.3906 Q462.6406,599.6563 462.2656,599.6563 Q461.9219,599.6563 461.7188,599.4531 Q461.5156,599.2656 461.4063,598.75 Q461.3594,598.3906 461.1719,598.2031 Q460.8438,597.8281 460.2344,597.6094 Q459.625,597.3906 459,597.3906 Q458.2344,597.3906 457.5938,597.7188 Q456.9688,598.0469 456.4688,598.7969 Q455.9844,599.5469 455.9844,600.5781 L455.9844,601.6719 Q455.9844,602.9063 456.875,603.7344 Q457.7656,604.5469 459.3594,604.5469 Q460.2969,604.5469 460.9531,604.2969 Q461.3438,604.1406 461.7656,603.7031 Q462.0313,603.4375 462.1719,603.3594 Q462.3281,603.2813 462.5313,603.2813 Q462.8594,603.2813 463.1094,603.5469 Q463.375,603.7969 463.375,604.1406 Q463.375,604.4844 463.0313,604.8906 Q462.5313,605.4688 461.7344,605.7969 Q460.6563,606.25 459.3594,606.25 Q457.8438,606.25 456.6406,605.625 Q455.6563,605.125 454.9688,604.0625 Q454.2813,602.9844 454.2813,601.7031 L454.2813,600.5469 Q454.2813,599.2188 454.8906,598.0781 Q455.5156,596.9219 456.6094,596.3125 Q457.7031,595.6875 458.9375,595.6875 Q459.6719,595.6875 460.3125,595.8594 Q460.9688,596.0156 461.5156,596.375 Z " fill="#000000"/><text fill="#000000" font-family="sans-serif" font-size="14" lengthAdjust="spacing" textLength="57" x="479.25" y="606.2969">ToDoList</text><line style="stroke:#181818;stroke-width:0.5;" x1="411" x2="572" y1="616.5" y2="616.5"/><line style="stroke:#181818;stroke-width:0.5;" x1="411" x2="572" y1="624.5" y2="624.5"/><text fill="#000000" font-family="sans-serif" font-size="14" lengthAdjust="spacing" textLength="151" x="416" y="643.6074">+getTaskByIndex(index)</text></g><!--class GreenSpace--><g id="elem_GreenSpace"><rect codeLine="26" fill="#F1F1F1" height="159.7266" id="GreenSpace" rx="2.5" ry="2.5" style="stroke:#181818;stroke-width:0.5;" width="416" x="631.5" y="777.5"/><ellipse cx="795.25" cy="793.5" fill="#ADD1B2" rx="11" ry="11" style="stroke:#181818;stroke-width:1.0;"/><path d="M798.0156,789.375 Q798.1719,789.1563 798.3594,789.0469 Q798.5469,788.9375 798.7656,788.9375 Q799.1406,788.9375 799.375,789.2031 Q799.6094,789.4531 799.6094,790.0625 L799.6094,791.5156 Q799.6094,792.125 799.375,792.3906 Q799.1406,792.6563 798.7656,792.6563 Q798.4219,792.6563 798.2188,792.4531 Q798.0156,792.2656 797.9063,791.75 Q797.8594,791.3906 797.6719,791.2031 Q797.3438,790.8281 796.7344,790.6094 Q796.125,790.3906 795.5,790.3906 Q794.7344,790.3906 794.0938,790.7188 Q793.4688,791.0469 792.9688,791.7969 Q792.4844,792.5469 792.4844,793.5781 L792.4844,794.6719 Q792.4844,795.9063 793.375,796.7344 Q794.2656,797.5469 795.8594,797.5469 Q796.7969,797.5469 797.4531,797.2969 Q797.8438,797.1406 798.2656,796.7031 Q798.5313,796.4375 798.6719,796.3594 Q798.8281,796.2813 799.0313,796.2813 Q799.3594,796.2813 799.6094,796.5469 Q799.875,796.7969 799.875,797.1406 Q799.875,797.4844 799.5313,797.8906 Q799.0313,798.4688 798.2344,798.7969 Q797.1563,799.25 795.8594,799.25 Q794.3438,799.25 793.1406,798.625 Q792.1563,798.125 791.4688,797.0625 Q790.7813,795.9844 790.7813,794.7031 L790.7813,793.5469 Q790.7813,792.2188 791.3906,791.0781 Q792.0156,789.9219 793.1094,789.3125 Q794.2031,788.6875 795.4375,788.6875 Q796.1719,788.6875 796.8125,788.8594 Q797.4688,789.0156 798.0156,789.375 Z " fill="#000000"/><text fill="#000000" font-family="sans-serif" font-size="14" lengthAdjust="spacing" textLength="80" x="815.75" y="799.2969">GreenSpace</text><line style="stroke:#181818;stroke-width:0.5;" x1="632.5" x2="1046.5" y1="809.5" y2="809.5"/><text fill="#000000" font-family="sans-serif" font-size="14" lengthAdjust="spacing" textLength="81" x="637.5" y="828.6074">-String name</text><text fill="#000000" font-family="sans-serif" font-size="14" lengthAdjust="spacing" textLength="96" x="637.5" y="847.2285">-Adress adress</text><text fill="#000000" font-family="sans-serif" font-size="14" lengthAdjust="spacing" textLength="148" x="637.5" y="865.8496">-GreenSpaceType type</text><text fill="#000000" font-family="sans-serif" font-size="14" lengthAdjust="spacing" textLength="81" x="637.5" y="884.4707">-double area</text><text fill="#000000" font-family="sans-serif" font-size="14" lengthAdjust="spacing" textLength="292" x="637.5" y="903.0918">-GreenSpacesManager greenSpacesManager</text><line style="stroke:#181818;stroke-width:0.5;" x1="632.5" x2="1046.5" y1="910.6055" y2="910.6055"/><text fill="#000000" font-family="sans-serif" font-size="14" lengthAdjust="spacing" textLength="404" x="637.5" y="929.7129">+GreenSpace(name, adress, type, area, greenSpacesManager)</text></g><!--class Repositories--><g id="elem_Repositories"><rect codeLine="35" fill="#F1F1F1" height="141.1055" id="Repositories" rx="2.5" ry="2.5" style="stroke:#181818;stroke-width:0.5;" width="208" x="576.5" y="336"/><ellipse cx="636.75" cy="352" fill="#ADD1B2" rx="11" ry="11" style="stroke:#181818;stroke-width:1.0;"/><path d="M639.5156,347.875 Q639.6719,347.6563 639.8594,347.5469 Q640.0469,347.4375 640.2656,347.4375 Q640.6406,347.4375 640.875,347.7031 Q641.1094,347.9531 641.1094,348.5625 L641.1094,350.0156 Q641.1094,350.625 640.875,350.8906 Q640.6406,351.1563 640.2656,351.1563 Q639.9219,351.1563 639.7188,350.9531 Q639.5156,350.7656 639.4063,350.25 Q639.3594,349.8906 639.1719,349.7031 Q638.8438,349.3281 638.2344,349.1094 Q637.625,348.8906 637,348.8906 Q636.2344,348.8906 635.5938,349.2188 Q634.9688,349.5469 634.4688,350.2969 Q633.9844,351.0469 633.9844,352.0781 L633.9844,353.1719 Q633.9844,354.4063 634.875,355.2344 Q635.7656,356.0469 637.3594,356.0469 Q638.2969,356.0469 638.9531,355.7969 Q639.3438,355.6406 639.7656,355.2031 Q640.0313,354.9375 640.1719,354.8594 Q640.3281,354.7813 640.5313,354.7813 Q640.8594,354.7813 641.1094,355.0469 Q641.375,355.2969 641.375,355.6406 Q641.375,355.9844 641.0313,356.3906 Q640.5313,356.9688 639.7344,357.2969 Q638.6563,357.75 637.3594,357.75 Q635.8438,357.75 634.6406,357.125 Q633.6563,356.625 632.9688,355.5625 Q632.2813,354.4844 632.2813,353.2031 L632.2813,352.0469 Q632.2813,350.7188 632.8906,349.5781 Q633.5156,348.4219 634.6094,347.8125 Q635.7031,347.1875 636.9375,347.1875 Q637.6719,347.1875 638.3125,347.3594 Q638.9688,347.5156 639.5156,347.875 Z " fill="#000000"/><text fill="#000000" font-family="sans-serif" font-size="14" lengthAdjust="spacing" textLength="79" x="657.25" y="357.7969">Repositories</text><line style="stroke:#181818;stroke-width:0.5;" x1="577.5" x2="783.5" y1="368" y2="368"/><line style="stroke:#181818;stroke-width:0.5;" x1="577.5" x2="783.5" y1="376" y2="376"/><text fill="#000000" font-family="sans-serif" font-size="14" lengthAdjust="spacing" textLength="94" x="582.5" y="395.1074">-Repositories()</text><text fill="#000000" font-family="sans-serif" font-size="14" lengthAdjust="spacing" textLength="182" x="582.5" y="413.7285">+getInstance() : Repositories</text><text fill="#000000" font-family="sans-serif" font-size="14" lengthAdjust="spacing" textLength="95" x="582.5" y="432.3496">+getToDoList()</text><text fill="#000000" font-family="sans-serif" font-size="14" lengthAdjust="spacing" textLength="186" x="582.5" y="450.9707">+getGreenSpaceRepository()</text><text fill="#000000" font-family="sans-serif" font-size="14" lengthAdjust="spacing" textLength="196" x="582.5" y="469.5918">+getAuthenticationRepository()</text></g><!--class TaskStatus--><g id="elem_TaskStatus"><rect codeLine="43" fill="#F1F1F1" height="85.2422" id="TaskStatus" rx="2.5" ry="2.5" style="stroke:#181818;stroke-width:0.5;" width="103" x="7" y="1026.5"/><ellipse cx="22" cy="1042.5" fill="#EB937F" rx="11" ry="11" style="stroke:#181818;stroke-width:1.0;"/><path d="M20.8594,1043.2969 L20.8594,1045.7969 L25.1875,1045.7969 L25.1875,1044.875 Q25.1875,1044.2656 25.4219,1044 Q25.6719,1043.7344 26.0469,1043.7344 Q26.4219,1043.7344 26.6563,1044 Q26.8906,1044.2656 26.8906,1044.875 L26.8906,1047.5 L18.8906,1047.5 Q18.2656,1047.5 18,1047.2656 Q17.75,1047.0313 17.75,1046.6406 Q17.75,1046.2656 18.0156,1046.0313 Q18.2813,1045.7969 18.8906,1045.7969 L19.1563,1045.7969 L19.1563,1039.1406 L18.8906,1039.1406 Q18.2656,1039.1406 18,1038.9063 Q17.75,1038.6719 17.75,1038.2813 Q17.75,1037.9063 18,1037.6719 Q18.2656,1037.4375 18.8906,1037.4375 L26.5156,1037.4375 L26.5156,1040.0313 Q26.5156,1040.6406 26.2813,1040.9063 Q26.0625,1041.1563 25.6719,1041.1563 Q25.2969,1041.1563 25.0625,1040.9063 Q24.8281,1040.6406 24.8281,1040.0313 L24.8281,1039.1406 L20.8594,1039.1406 L20.8594,1041.5938 L22.3438,1041.5938 Q22.3438,1040.9375 22.4688,1040.75 Q22.7344,1040.3438 23.2031,1040.3438 Q23.5781,1040.3438 23.8125,1040.6094 Q24.0469,1040.8594 24.0469,1041.4688 L24.0469,1043.4375 Q24.0469,1043.9844 23.9219,1044.1719 Q23.6563,1044.5625 23.2031,1044.5625 Q22.7344,1044.5625 22.4688,1044.1563 Q22.3438,1043.9688 22.3438,1043.2969 L20.8594,1043.2969 Z " fill="#000000"/><text fill="#000000" font-family="sans-serif" font-size="14" lengthAdjust="spacing" textLength="71" x="36" y="1048.2969">TaskStatus</text><line style="stroke:#181818;stroke-width:0.5;" x1="8" x2="109" y1="1058.5" y2="1058.5"/><text fill="#000000" font-family="sans-serif" font-size="14" lengthAdjust="spacing" textLength="60" x="13" y="1077.6074">PENDING</text><text fill="#000000" font-family="sans-serif" font-size="14" lengthAdjust="spacing" textLength="86" x="13" y="1096.2285">PROCESSED</text><line style="stroke:#181818;stroke-width:0.5;" x1="8" x2="109" y1="1103.7422" y2="1103.7422"/></g><!--class Task--><g id="elem_Task"><rect codeLine="48" fill="#F1F1F1" height="196.9688" id="Task" rx="2.5" ry="2.5" style="stroke:#181818;stroke-width:0.5;" width="519" x="77" y="759"/><ellipse cx="316.75" cy="775" fill="#ADD1B2" rx="11" ry="11" style="stroke:#181818;stroke-width:1.0;"/><path d="M319.5156,770.875 Q319.6719,770.6563 319.8594,770.5469 Q320.0469,770.4375 320.2656,770.4375 Q320.6406,770.4375 320.875,770.7031 Q321.1094,770.9531 321.1094,771.5625 L321.1094,773.0156 Q321.1094,773.625 320.875,773.8906 Q320.6406,774.1563 320.2656,774.1563 Q319.9219,774.1563 319.7188,773.9531 Q319.5156,773.7656 319.4063,773.25 Q319.3594,772.8906 319.1719,772.7031 Q318.8438,772.3281 318.2344,772.1094 Q317.625,771.8906 317,771.8906 Q316.2344,771.8906 315.5938,772.2188 Q314.9688,772.5469 314.4688,773.2969 Q313.9844,774.0469 313.9844,775.0781 L313.9844,776.1719 Q313.9844,777.4063 314.875,778.2344 Q315.7656,779.0469 317.3594,779.0469 Q318.2969,779.0469 318.9531,778.7969 Q319.3438,778.6406 319.7656,778.2031 Q320.0313,777.9375 320.1719,777.8594 Q320.3281,777.7813 320.5313,777.7813 Q320.8594,777.7813 321.1094,778.0469 Q321.375,778.2969 321.375,778.6406 Q321.375,778.9844 321.0313,779.3906 Q320.5313,779.9688 319.7344,780.2969 Q318.6563,780.75 317.3594,780.75 Q315.8438,780.75 314.6406,780.125 Q313.6563,779.625 312.9688,778.5625 Q312.2813,777.4844 312.2813,776.2031 L312.2813,775.0469 Q312.2813,773.7188 312.8906,772.5781 Q313.5156,771.4219 314.6094,770.8125 Q315.7031,770.1875 316.9375,770.1875 Q317.6719,770.1875 318.3125,770.3594 Q318.9688,770.5156 319.5156,770.875 Z " fill="#000000"/><text fill="#000000" font-family="sans-serif" font-size="14" lengthAdjust="spacing" textLength="31" x="337.25" y="780.7969">Task</text><line style="stroke:#181818;stroke-width:0.5;" x1="78" x2="595" y1="791" y2="791"/><text fill="#000000" font-family="sans-serif" font-size="14" lengthAdjust="spacing" textLength="68" x="83" y="810.1074">-String title</text><text fill="#000000" font-family="sans-serif" font-size="14" lengthAdjust="spacing" textLength="115" x="83" y="828.7285">-String description</text><text fill="#000000" font-family="sans-serif" font-size="14" lengthAdjust="spacing" textLength="239" x="83" y="847.3496">-EmergencyDegree degreeOfUrgency</text><text fill="#000000" font-family="sans-serif" font-size="14" lengthAdjust="spacing" textLength="135" x="83" y="865.9707">-int expectedDuration</text><text fill="#000000" font-family="sans-serif" font-size="14" lengthAdjust="spacing" textLength="99" x="83" y="884.5918">-TaskType type</text><text fill="#000000" font-family="sans-serif" font-size="14" lengthAdjust="spacing" textLength="166" x="83" y="903.2129">-GreenSpace greenSpace</text><line style="stroke:#181818;stroke-width:0.5;" x1="78" x2="595" y1="910.7266" y2="910.7266"/><text fill="#000000" font-family="sans-serif" font-size="14" lengthAdjust="spacing" textLength="507" x="83" y="929.834">+Task(title, description, degreeOfUrgency, expectedDuration, type, greenSpace)</text><text fill="#000000" font-family="sans-serif" font-size="14" lengthAdjust="spacing" textLength="143" x="83" y="948.4551">+changeStatus(status)</text></g><!--class GreenSpaceRepository--><g id="elem_GreenSpaceRepository"><rect codeLine="59" fill="#F1F1F1" height="85.2422" id="GreenSpaceRepository" rx="2.5" ry="2.5" style="stroke:#181818;stroke-width:0.5;" width="217" x="731" y="575.5"/><ellipse cx="762.65" cy="591.5" fill="#ADD1B2" rx="11" ry="11" style="stroke:#181818;stroke-width:1.0;"/><path d="M765.4156,587.375 Q765.5719,587.1563 765.7594,587.0469 Q765.9469,586.9375 766.1656,586.9375 Q766.5406,586.9375 766.775,587.2031 Q767.0094,587.4531 767.0094,588.0625 L767.0094,589.5156 Q767.0094,590.125 766.775,590.3906 Q766.5406,590.6563 766.1656,590.6563 Q765.8219,590.6563 765.6188,590.4531 Q765.4156,590.2656 765.3063,589.75 Q765.2594,589.3906 765.0719,589.2031 Q764.7438,588.8281 764.1344,588.6094 Q763.525,588.3906 762.9,588.3906 Q762.1344,588.3906 761.4938,588.7188 Q760.8688,589.0469 760.3688,589.7969 Q759.8844,590.5469 759.8844,591.5781 L759.8844,592.6719 Q759.8844,593.9063 760.775,594.7344 Q761.6656,595.5469 763.2594,595.5469 Q764.1969,595.5469 764.8531,595.2969 Q765.2438,595.1406 765.6656,594.7031 Q765.9313,594.4375 766.0719,594.3594 Q766.2281,594.2813 766.4313,594.2813 Q766.7594,594.2813 767.0094,594.5469 Q767.275,594.7969 767.275,595.1406 Q767.275,595.4844 766.9313,595.8906 Q766.4313,596.4688 765.6344,596.7969 Q764.5563,597.25 763.2594,597.25 Q761.7438,597.25 760.5406,596.625 Q759.5563,596.125 758.8688,595.0625 Q758.1813,593.9844 758.1813,592.7031 L758.1813,591.5469 Q758.1813,590.2188 758.7906,589.0781 Q759.4156,587.9219 760.5094,587.3125 Q761.6031,586.6875 762.8375,586.6875 Q763.5719,586.6875 764.2125,586.8594 Q764.8688,587.0156 765.4156,587.375 Z " fill="#000000"/><text fill="#000000" font-family="sans-serif" font-size="14" lengthAdjust="spacing" textLength="148" x="780.35" y="597.2969">GreenSpaceRepository</text><line style="stroke:#181818;stroke-width:0.5;" x1="732" x2="947" y1="607.5" y2="607.5"/><line style="stroke:#181818;stroke-width:0.5;" x1="732" x2="947" y1="615.5" y2="615.5"/><text fill="#000000" font-family="sans-serif" font-size="14" lengthAdjust="spacing" textLength="147" x="737" y="634.6074">+getGreenSpacesList()</text><text fill="#000000" font-family="sans-serif" font-size="14" lengthAdjust="spacing" textLength="205" x="737" y="653.2285">+getGreenSpaceByName(name)</text></g><!--class AuthenticationRepository--><g id="elem_AuthenticationRepository"><rect codeLine="64" fill="#F1F1F1" height="66.6211" id="AuthenticationRepository" rx="2.5" ry="2.5" style="stroke:#181818;stroke-width:0.5;" width="190" x="1013.5" y="584.5"/><ellipse cx="1028.5" cy="600.5" fill="#ADD1B2" rx="11" ry="11" style="stroke:#181818;stroke-width:1.0;"/><path d="M1031.2656,596.375 Q1031.4219,596.1563 1031.6094,596.0469 Q1031.7969,595.9375 1032.0156,595.9375 Q1032.3906,595.9375 1032.625,596.2031 Q1032.8594,596.4531 1032.8594,597.0625 L1032.8594,598.5156 Q1032.8594,599.125 1032.625,599.3906 Q1032.3906,599.6563 1032.0156,599.6563 Q1031.6719,599.6563 1031.4688,599.4531 Q1031.2656,599.2656 1031.1563,598.75 Q1031.1094,598.3906 1030.9219,598.2031 Q1030.5938,597.8281 1029.9844,597.6094 Q1029.375,597.3906 1028.75,597.3906 Q1027.9844,597.3906 1027.3438,597.7188 Q1026.7188,598.0469 1026.2188,598.7969 Q1025.7344,599.5469 1025.7344,600.5781 L1025.7344,601.6719 Q1025.7344,602.9063 1026.625,603.7344 Q1027.5156,604.5469 1029.1094,604.5469 Q1030.0469,604.5469 1030.7031,604.2969 Q1031.0938,604.1406 1031.5156,603.7031 Q1031.7813,603.4375 1031.9219,603.3594 Q1032.0781,603.2813 1032.2813,603.2813 Q1032.6094,603.2813 1032.8594,603.5469 Q1033.125,603.7969 1033.125,604.1406 Q1033.125,604.4844 1032.7813,604.8906 Q1032.2813,605.4688 1031.4844,605.7969 Q1030.4063,606.25 1029.1094,606.25 Q1027.5938,606.25 1026.3906,605.625 Q1025.4063,605.125 1024.7188,604.0625 Q1024.0313,602.9844 1024.0313,601.7031 L1024.0313,600.5469 Q1024.0313,599.2188 1024.6406,598.0781 Q1025.2656,596.9219 1026.3594,596.3125 Q1027.4531,595.6875 1028.6875,595.6875 Q1029.4219,595.6875 1030.0625,595.8594 Q1030.7188,596.0156 1031.2656,596.375 Z " fill="#000000"/><text fill="#000000" font-family="sans-serif" font-size="14" lengthAdjust="spacing" textLength="158" x="1042.5" y="606.2969">AuthenticationRepository</text><line style="stroke:#181818;stroke-width:0.5;" x1="1014.5" x2="1202.5" y1="616.5" y2="616.5"/><line style="stroke:#181818;stroke-width:0.5;" x1="1014.5" x2="1202.5" y1="624.5" y2="624.5"/><text fill="#000000" font-family="sans-serif" font-size="14" lengthAdjust="spacing" textLength="165" x="1019.5" y="643.6074">+getCurrentUserSession()</text></g><!--class UserSession--><g id="elem_UserSession"><rect codeLine="68" fill="#F1F1F1" height="66.6211" id="UserSession" rx="2.5" ry="2.5" style="stroke:#181818;stroke-width:0.5;" width="111" x="1083" y="824"/><ellipse cx="1098" cy="840" fill="#ADD1B2" rx="11" ry="11" style="stroke:#181818;stroke-width:1.0;"/><path d="M1100.7656,835.875 Q1100.9219,835.6563 1101.1094,835.5469 Q1101.2969,835.4375 1101.5156,835.4375 Q1101.8906,835.4375 1102.125,835.7031 Q1102.3594,835.9531 1102.3594,836.5625 L1102.3594,838.0156 Q1102.3594,838.625 1102.125,838.8906 Q1101.8906,839.1563 1101.5156,839.1563 Q1101.1719,839.1563 1100.9688,838.9531 Q1100.7656,838.7656 1100.6563,838.25 Q1100.6094,837.8906 1100.4219,837.7031 Q1100.0938,837.3281 1099.4844,837.1094 Q1098.875,836.8906 1098.25,836.8906 Q1097.4844,836.8906 1096.8438,837.2188 Q1096.2188,837.5469 1095.7188,838.2969 Q1095.2344,839.0469 1095.2344,840.0781 L1095.2344,841.1719 Q1095.2344,842.4063 1096.125,843.2344 Q1097.0156,844.0469 1098.6094,844.0469 Q1099.5469,844.0469 1100.2031,843.7969 Q1100.5938,843.6406 1101.0156,843.2031 Q1101.2813,842.9375 1101.4219,842.8594 Q1101.5781,842.7813 1101.7813,842.7813 Q1102.1094,842.7813 1102.3594,843.0469 Q1102.625,843.2969 1102.625,843.6406 Q1102.625,843.9844 1102.2813,844.3906 Q1101.7813,844.9688 1100.9844,845.2969 Q1099.9063,845.75 1098.6094,845.75 Q1097.0938,845.75 1095.8906,845.125 Q1094.9063,844.625 1094.2188,843.5625 Q1093.5313,842.4844 1093.5313,841.2031 L1093.5313,840.0469 Q1093.5313,838.7188 1094.1406,837.5781 Q1094.7656,836.4219 1095.8594,835.8125 Q1096.9531,835.1875 1098.1875,835.1875 Q1098.9219,835.1875 1099.5625,835.3594 Q1100.2188,835.5156 1100.7656,835.875 Z " fill="#000000"/><text fill="#000000" font-family="sans-serif" font-size="14" lengthAdjust="spacing" textLength="79" x="1112" y="845.7969">UserSession</text><line style="stroke:#181818;stroke-width:0.5;" x1="1084" x2="1193" y1="856" y2="856"/><line style="stroke:#181818;stroke-width:0.5;" x1="1084" x2="1193" y1="864" y2="864"/><text fill="#000000" font-family="sans-serif" font-size="14" lengthAdjust="spacing" textLength="78" x="1089" y="883.1074">+getUserId()</text></g><!--class GreenSpaceManager--><g id="elem_GreenSpaceManager"><rect codeLine="72" fill="#F1F1F1" height="85.2422" id="GreenSpaceManager" rx="2.5" ry="2.5" style="stroke:#181818;stroke-width:0.5;" width="199" x="145" y="1026.5"/><ellipse cx="173.95" cy="1042.5" fill="#ADD1B2" rx="11" ry="11" style="stroke:#181818;stroke-width:1.0;"/><path d="M176.7156,1038.375 Q176.8719,1038.1563 177.0594,1038.0469 Q177.2469,1037.9375 177.4656,1037.9375 Q177.8406,1037.9375 178.075,1038.2031 Q178.3094,1038.4531 178.3094,1039.0625 L178.3094,1040.5156 Q178.3094,1041.125 178.075,1041.3906 Q177.8406,1041.6563 177.4656,1041.6563 Q177.1219,1041.6563 176.9188,1041.4531 Q176.7156,1041.2656 176.6063,1040.75 Q176.5594,1040.3906 176.3719,1040.2031 Q176.0438,1039.8281 175.4344,1039.6094 Q174.825,1039.3906 174.2,1039.3906 Q173.4344,1039.3906 172.7938,1039.7188 Q172.1688,1040.0469 171.6688,1040.7969 Q171.1844,1041.5469 171.1844,1042.5781 L171.1844,1043.6719 Q171.1844,1044.9063 172.075,1045.7344 Q172.9656,1046.5469 174.5594,1046.5469 Q175.4969,1046.5469 176.1531,1046.2969 Q176.5438,1046.1406 176.9656,1045.7031 Q177.2313,1045.4375 177.3719,1045.3594 Q177.5281,1045.2813 177.7313,1045.2813 Q178.0594,1045.2813 178.3094,1045.5469 Q178.575,1045.7969 178.575,1046.1406 Q178.575,1046.4844 178.2313,1046.8906 Q177.7313,1047.4688 176.9344,1047.7969 Q175.8563,1048.25 174.5594,1048.25 Q173.0438,1048.25 171.8406,1047.625 Q170.8563,1047.125 170.1688,1046.0625 Q169.4813,1044.9844 169.4813,1043.7031 L169.4813,1042.5469 Q169.4813,1041.2188 170.0906,1040.0781 Q170.7156,1038.9219 171.8094,1038.3125 Q172.9031,1037.6875 174.1375,1037.6875 Q174.8719,1037.6875 175.5125,1037.8594 Q176.1688,1038.0156 176.7156,1038.375 Z " fill="#000000"/><text fill="#000000" font-family="sans-serif" font-size="14" lengthAdjust="spacing" textLength="136" x="191.05" y="1048.2969">GreenSpaceManager</text><line style="stroke:#181818;stroke-width:0.5;" x1="146" x2="343" y1="1058.5" y2="1058.5"/><text fill="#000000" font-family="sans-serif" font-size="14" lengthAdjust="spacing" textLength="79" x="151" y="1077.6074">-String email</text><line style="stroke:#181818;stroke-width:0.5;" x1="146" x2="343" y1="1085.1211" y2="1085.1211"/><text fill="#000000" font-family="sans-serif" font-size="14" lengthAdjust="spacing" textLength="187" x="151" y="1104.2285">+GreenSpaceManager(email)</text></g><!--class TaskType--><g id="elem_TaskType"><rect codeLine="77" fill="#F1F1F1" height="85.2422" id="TaskType" rx="2.5" ry="2.5" style="stroke:#181818;stroke-width:0.5;" width="101" x="379" y="1026.5"/><ellipse cx="396.7" cy="1042.5" fill="#EB937F" rx="11" ry="11" style="stroke:#181818;stroke-width:1.0;"/><path d="M395.5594,1043.2969 L395.5594,1045.7969 L399.8875,1045.7969 L399.8875,1044.875 Q399.8875,1044.2656 400.1219,1044 Q400.3719,1043.7344 400.7469,1043.7344 Q401.1219,1043.7344 401.3563,1044 Q401.5906,1044.2656 401.5906,1044.875 L401.5906,1047.5 L393.5906,1047.5 Q392.9656,1047.5 392.7,1047.2656 Q392.45,1047.0313 392.45,1046.6406 Q392.45,1046.2656 392.7156,1046.0313 Q392.9813,1045.7969 393.5906,1045.7969 L393.8563,1045.7969 L393.8563,1039.1406 L393.5906,1039.1406 Q392.9656,1039.1406 392.7,1038.9063 Q392.45,1038.6719 392.45,1038.2813 Q392.45,1037.9063 392.7,1037.6719 Q392.9656,1037.4375 393.5906,1037.4375 L401.2156,1037.4375 L401.2156,1040.0313 Q401.2156,1040.6406 400.9813,1040.9063 Q400.7625,1041.1563 400.3719,1041.1563 Q399.9969,1041.1563 399.7625,1040.9063 Q399.5281,1040.6406 399.5281,1040.0313 L399.5281,1039.1406 L395.5594,1039.1406 L395.5594,1041.5938 L397.0438,1041.5938 Q397.0438,1040.9375 397.1688,1040.75 Q397.4344,1040.3438 397.9031,1040.3438 Q398.2781,1040.3438 398.5125,1040.6094 Q398.7469,1040.8594 398.7469,1041.4688 L398.7469,1043.4375 Q398.7469,1043.9844 398.6219,1044.1719 Q398.3563,1044.5625 397.9031,1044.5625 Q397.4344,1044.5625 397.1688,1044.1563 Q397.0438,1043.9688 397.0438,1043.2969 L395.5594,1043.2969 Z " fill="#000000"/><text fill="#000000" font-family="sans-serif" font-size="14" lengthAdjust="spacing" textLength="63" x="411.3" y="1048.2969">TaskType</text><line style="stroke:#181818;stroke-width:0.5;" x1="380" x2="479" y1="1058.5" y2="1058.5"/><text fill="#000000" font-family="sans-serif" font-size="14" lengthAdjust="spacing" textLength="66" x="385" y="1077.6074">REGULAR</text><text fill="#000000" font-family="sans-serif" font-size="14" lengthAdjust="spacing" textLength="89" x="385" y="1096.2285">OCCASIONAL</text><line style="stroke:#181818;stroke-width:0.5;" x1="380" x2="479" y1="1103.7422" y2="1103.7422"/></g><!--class EmergencyDegree--><g id="elem_EmergencyDegree"><rect codeLine="82" fill="#F1F1F1" height="103.8633" id="EmergencyDegree" rx="2.5" ry="2.5" style="stroke:#181818;stroke-width:0.5;" width="150" x="515.5" y="1017"/><ellipse cx="530.5" cy="1033" fill="#EB937F" rx="11" ry="11" style="stroke:#181818;stroke-width:1.0;"/><path d="M529.3594,1033.7969 L529.3594,1036.2969 L533.6875,1036.2969 L533.6875,1035.375 Q533.6875,1034.7656 533.9219,1034.5 Q534.1719,1034.2344 534.5469,1034.2344 Q534.9219,1034.2344 535.1563,1034.5 Q535.3906,1034.7656 535.3906,1035.375 L535.3906,1038 L527.3906,1038 Q526.7656,1038 526.5,1037.7656 Q526.25,1037.5313 526.25,1037.1406 Q526.25,1036.7656 526.5156,1036.5313 Q526.7813,1036.2969 527.3906,1036.2969 L527.6563,1036.2969 L527.6563,1029.6406 L527.3906,1029.6406 Q526.7656,1029.6406 526.5,1029.4063 Q526.25,1029.1719 526.25,1028.7813 Q526.25,1028.4063 526.5,1028.1719 Q526.7656,1027.9375 527.3906,1027.9375 L535.0156,1027.9375 L535.0156,1030.5313 Q535.0156,1031.1406 534.7813,1031.4063 Q534.5625,1031.6563 534.1719,1031.6563 Q533.7969,1031.6563 533.5625,1031.4063 Q533.3281,1031.1406 533.3281,1030.5313 L533.3281,1029.6406 L529.3594,1029.6406 L529.3594,1032.0938 L530.8438,1032.0938 Q530.8438,1031.4375 530.9688,1031.25 Q531.2344,1030.8438 531.7031,1030.8438 Q532.0781,1030.8438 532.3125,1031.1094 Q532.5469,1031.3594 532.5469,1031.9688 L532.5469,1033.9375 Q532.5469,1034.4844 532.4219,1034.6719 Q532.1563,1035.0625 531.7031,1035.0625 Q531.2344,1035.0625 530.9688,1034.6563 Q530.8438,1034.4688 530.8438,1033.7969 L529.3594,1033.7969 Z " fill="#000000"/><text fill="#000000" font-family="sans-serif" font-size="14" lengthAdjust="spacing" textLength="118" x="544.5" y="1038.7969">EmergencyDegree</text><line style="stroke:#181818;stroke-width:0.5;" x1="516.5" x2="664.5" y1="1049" y2="1049"/><text fill="#000000" font-family="sans-serif" font-size="14" lengthAdjust="spacing" textLength="32" x="521.5" y="1068.1074">HIGH</text><text fill="#000000" font-family="sans-serif" font-size="14" lengthAdjust="spacing" textLength="53" x="521.5" y="1086.7285">MEDIUM</text><text fill="#000000" font-family="sans-serif" font-size="14" lengthAdjust="spacing" textLength="32" x="521.5" y="1105.3496">LOW</text><line style="stroke:#181818;stroke-width:0.5;" x1="516.5" x2="664.5" y1="1112.8633" y2="1112.8633"/></g><!--class GreenSpaceDTO--><g id="elem_GreenSpaceDTO"><rect codeLine="88" fill="#F1F1F1" height="159.7266" id="GreenSpaceDTO" rx="2.5" ry="2.5" style="stroke:#181818;stroke-width:0.5;" width="446" x="1238.5" y="538"/><ellipse cx="1402.25" cy="554" fill="#ADD1B2" rx="11" ry="11" style="stroke:#181818;stroke-width:1.0;"/><path d="M1405.0156,549.875 Q1405.1719,549.6563 1405.3594,549.5469 Q1405.5469,549.4375 1405.7656,549.4375 Q1406.1406,549.4375 1406.375,549.7031 Q1406.6094,549.9531 1406.6094,550.5625 L1406.6094,552.0156 Q1406.6094,552.625 1406.375,552.8906 Q1406.1406,553.1563 1405.7656,553.1563 Q1405.4219,553.1563 1405.2188,552.9531 Q1405.0156,552.7656 1404.9063,552.25 Q1404.8594,551.8906 1404.6719,551.7031 Q1404.3438,551.3281 1403.7344,551.1094 Q1403.125,550.8906 1402.5,550.8906 Q1401.7344,550.8906 1401.0938,551.2188 Q1400.4688,551.5469 1399.9688,552.2969 Q1399.4844,553.0469 1399.4844,554.0781 L1399.4844,555.1719 Q1399.4844,556.4063 1400.375,557.2344 Q1401.2656,558.0469 1402.8594,558.0469 Q1403.7969,558.0469 1404.4531,557.7969 Q1404.8438,557.6406 1405.2656,557.2031 Q1405.5313,556.9375 1405.6719,556.8594 Q1405.8281,556.7813 1406.0313,556.7813 Q1406.3594,556.7813 1406.6094,557.0469 Q1406.875,557.2969 1406.875,557.6406 Q1406.875,557.9844 1406.5313,558.3906 Q1406.0313,558.9688 1405.2344,559.2969 Q1404.1563,559.75 1402.8594,559.75 Q1401.3438,559.75 1400.1406,559.125 Q1399.1563,558.625 1398.4688,557.5625 Q1397.7813,556.4844 1397.7813,555.2031 L1397.7813,554.0469 Q1397.7813,552.7188 1398.3906,551.5781 Q1399.0156,550.4219 1400.1094,549.8125 Q1401.2031,549.1875 1402.4375,549.1875 Q1403.1719,549.1875 1403.8125,549.3594 Q1404.4688,549.5156 1405.0156,549.875 Z " fill="#000000"/><text fill="#000000" font-family="sans-serif" font-size="14" lengthAdjust="spacing" textLength="110" x="1422.75" y="559.7969">GreenSpaceDTO</text><line style="stroke:#181818;stroke-width:0.5;" x1="1239.5" x2="1683.5" y1="570" y2="570"/><text fill="#000000" font-family="sans-serif" font-size="14" lengthAdjust="spacing" textLength="81" x="1244.5" y="589.1074">-String name</text><text fill="#000000" font-family="sans-serif" font-size="14" lengthAdjust="spacing" textLength="96" x="1244.5" y="607.7285">-Adress adress</text><text fill="#000000" font-family="sans-serif" font-size="14" lengthAdjust="spacing" textLength="148" x="1244.5" y="626.3496">-GreenSpaceType type</text><text fill="#000000" font-family="sans-serif" font-size="14" lengthAdjust="spacing" textLength="81" x="1244.5" y="644.9707">-double area</text><text fill="#000000" font-family="sans-serif" font-size="14" lengthAdjust="spacing" textLength="292" x="1244.5" y="663.5918">-GreenSpacesManager greenSpacesManager</text><line style="stroke:#181818;stroke-width:0.5;" x1="1239.5" x2="1683.5" y1="671.1055" y2="671.1055"/><text fill="#000000" font-family="sans-serif" font-size="14" lengthAdjust="spacing" textLength="434" x="1244.5" y="690.2129">+GreenSpaceDTO(name, adress, type, area, greenSpacesManager)</text></g><!--class GreenSpaceMapper--><g id="elem_GreenSpaceMapper"><rect codeLine="97" fill="#F1F1F1" height="85.2422" id="GreenSpaceMapper" rx="2.5" ry="2.5" style="stroke:#181818;stroke-width:0.5;" width="231" x="1332" y="364"/><ellipse cx="1379.25" cy="380" fill="#ADD1B2" rx="11" ry="11" style="stroke:#181818;stroke-width:1.0;"/><path d="M1382.0156,375.875 Q1382.1719,375.6563 1382.3594,375.5469 Q1382.5469,375.4375 1382.7656,375.4375 Q1383.1406,375.4375 1383.375,375.7031 Q1383.6094,375.9531 1383.6094,376.5625 L1383.6094,378.0156 Q1383.6094,378.625 1383.375,378.8906 Q1383.1406,379.1563 1382.7656,379.1563 Q1382.4219,379.1563 1382.2188,378.9531 Q1382.0156,378.7656 1381.9063,378.25 Q1381.8594,377.8906 1381.6719,377.7031 Q1381.3438,377.3281 1380.7344,377.1094 Q1380.125,376.8906 1379.5,376.8906 Q1378.7344,376.8906 1378.0938,377.2188 Q1377.4688,377.5469 1376.9688,378.2969 Q1376.4844,379.0469 1376.4844,380.0781 L1376.4844,381.1719 Q1376.4844,382.4063 1377.375,383.2344 Q1378.2656,384.0469 1379.8594,384.0469 Q1380.7969,384.0469 1381.4531,383.7969 Q1381.8438,383.6406 1382.2656,383.2031 Q1382.5313,382.9375 1382.6719,382.8594 Q1382.8281,382.7813 1383.0313,382.7813 Q1383.3594,382.7813 1383.6094,383.0469 Q1383.875,383.2969 1383.875,383.6406 Q1383.875,383.9844 1383.5313,384.3906 Q1383.0313,384.9688 1382.2344,385.2969 Q1381.1563,385.75 1379.8594,385.75 Q1378.3438,385.75 1377.1406,385.125 Q1376.1563,384.625 1375.4688,383.5625 Q1374.7813,382.4844 1374.7813,381.2031 L1374.7813,380.0469 Q1374.7813,378.7188 1375.3906,377.5781 Q1376.0156,376.4219 1377.1094,375.8125 Q1378.2031,375.1875 1379.4375,375.1875 Q1380.1719,375.1875 1380.8125,375.3594 Q1381.4688,375.5156 1382.0156,375.875 Z " fill="#000000"/><text fill="#000000" font-family="sans-serif" font-size="14" lengthAdjust="spacing" textLength="128" x="1399.75" y="385.7969">GreenSpaceMapper</text><line style="stroke:#181818;stroke-width:0.5;" x1="1333" x2="1562" y1="396" y2="396"/><line style="stroke:#181818;stroke-width:0.5;" x1="1333" x2="1562" y1="404" y2="404"/><text fill="#000000" font-family="sans-serif" font-size="14" lengthAdjust="spacing" textLength="188" x="1338" y="423.1074">+toDTOList(greenSpacesList)</text><text fill="#000000" font-family="sans-serif" font-size="14" lengthAdjust="spacing" textLength="219" x="1338" y="441.7285">+greenSpaceToDTO(greenSpace)</text></g><!--link AddTaskToDoListUI to AddTaskToDoListController--><g id="link_AddTaskToDoListUI_AddTaskToDoListController"><path codeLine="102" d="M933.5,55.31 C933.5,71.5 933.5,87.98 933.5,109.71 " fill="none" id="AddTaskToDoListUI-to-AddTaskToDoListController" style="stroke:#181818;stroke-width:1.0;stroke-dasharray:7.0,7.0;"/><polygon fill="#181818" points="933.5,115.71,937.5,106.71,933.5,110.71,929.5,106.71,933.5,115.71" style="stroke:#181818;stroke-width:1.0;"/></g><!--link AddTaskToDoListController to Repositories--><g id="link_AddTaskToDoListController_Repositories"><path codeLine="103" d="M852.75,257.08 C823.54,282.25 795.1152,306.7432 765.8952,331.9232 " fill="none" id="AddTaskToDoListController-to-Repositories" style="stroke:#181818;stroke-width:1.0;stroke-dasharray:7.0,7.0;"/><polygon fill="#181818" points="761.35,335.84,770.779,332.995,765.1377,332.576,765.5566,326.9347,761.35,335.84" style="stroke:#181818;stroke-width:1.0;"/><text fill="#000000" font-family="sans-serif" font-size="13" lengthAdjust="spacing" textLength="67" x="816.5" y="302.0283">repositories</text></g><!--link AddTaskToDoListController to ToDoList--><g id="link_AddTaskToDoListController_ToDoList"><path codeLine="104" d="M734.38,257.08 C623.86,295.69 508.5,336 508.5,336 C508.5,336 498.3019,504.5309 493.8319,578.5009 " fill="none" id="AddTaskToDoListController-to-ToDoList" style="stroke:#181818;stroke-width:1.0;stroke-dasharray:7.0,7.0;"/><polygon fill="#181818" points="493.47,584.49,498.0056,575.7477,493.7716,579.4991,490.0202,575.2651,493.47,584.49" style="stroke:#181818;stroke-width:1.0;"/><text fill="#000000" font-family="sans-serif" font-size="13" lengthAdjust="spacing" textLength="48" x="509.5" y="412.0283">toDoList</text></g><!--link AddTaskToDoListController to AuthenticationRepository--><g id="link_AddTaskToDoListController_AuthenticationRepository"><path codeLine="105" d="M987.16,257.4 C1016.73,295.92 1047.5,336 1047.5,336 C1047.5,336 1084.1177,504.6564 1100.1677,578.6264 " fill="none" id="AddTaskToDoListController-to-AuthenticationRepository" style="stroke:#181818;stroke-width:1.0;stroke-dasharray:7.0,7.0;"/><polygon fill="#181818" points="1101.44,584.49,1103.4406,574.8465,1100.3798,579.6037,1095.6225,576.5428,1101.44,584.49" style="stroke:#181818;stroke-width:1.0;"/><text fill="#000000" font-family="sans-serif" font-size="13" lengthAdjust="spacing" textLength="143" x="1079.5" y="412.0283">authenticationRepository</text></g><!--link AddTaskToDoListController to GreenSpaceRepository--><g id="link_AddTaskToDoListController_GreenSpaceRepository"><path codeLine="106" d="M920.74,257.21 C905.06,342.87 880.5,477 880.5,477 C880.5,477 865.4672,528.3521 853.3772,569.6121 " fill="none" id="AddTaskToDoListController-to-GreenSpaceRepository" style="stroke:#181818;stroke-width:1.0;stroke-dasharray:7.0,7.0;"/><polygon fill="#181818" points="851.69,575.37,858.0594,567.8579,853.096,570.5717,850.3822,565.6084,851.69,575.37" style="stroke:#181818;stroke-width:1.0;"/><text fill="#000000" font-family="sans-serif" font-size="13" lengthAdjust="spacing" textLength="131" x="907.5" y="412.0283">greenSpaceRepository</text></g><!--link GreenSpaceRepository to GreenSpace--><g id="link_GreenSpaceRepository_GreenSpace"><path codeLine="107" d="M839.5,660.64 C839.5,692.84 839.5,732.35 839.5,771.4 " fill="none" id="GreenSpaceRepository-to-GreenSpace" style="stroke:#181818;stroke-width:1.0;stroke-dasharray:7.0,7.0;"/><polygon fill="#181818" points="839.5,777.4,843.5,768.4,839.5,772.4,835.5,768.4,839.5,777.4" style="stroke:#181818;stroke-width:1.0;"/></g><!--link ToDoList to Task--><g id="link_ToDoList_Task"><path codeLine="108" d="M470.27,651.53 C452.2,679.22 428.5386,715.465 403.5686,753.735 " fill="none" id="ToDoList-to-Task" style="stroke:#181818;stroke-width:1.0;stroke-dasharray:7.0,7.0;"/><polygon fill="#181818" points="400.29,758.76,408.558,753.4083,403.0222,754.5725,401.858,749.0368,400.29,758.76" style="stroke:#181818;stroke-width:1.0;"/></g><!--link AuthenticationRepository to UserSession--><g id="link_AuthenticationRepository_UserSession"><path codeLine="109" d="M1112.61,651.53 C1118.34,696.88 1127.9192,772.6872 1133.6392,818.0372 " fill="none" id="AuthenticationRepository-to-UserSession" style="stroke:#181818;stroke-width:1.0;stroke-dasharray:7.0,7.0;"/><polygon fill="#181818" points="1134.39,823.99,1137.2323,814.5602,1133.7643,819.0293,1129.2952,815.5613,1134.39,823.99" style="stroke:#181818;stroke-width:1.0;"/></g><!--link Repositories to Repositories--><g id="link_Repositories_Repositories"><path codeLine="110" d="M784.76,388.58 C805.08,390.66 819.5,396.64 819.5,406.5 C819.5,416.36 811.0488,421.729 790.7288,423.809 " fill="none" id="Repositories-to-Repositories" style="stroke:#181818;stroke-width:1.0;"/><polygon fill="#181818" points="784.76,424.42,794.1205,427.4827,789.734,423.9108,793.3059,419.5243,784.76,424.42" style="stroke:#181818;stroke-width:1.0;"/><text fill="#000000" font-family="sans-serif" font-size="13" lengthAdjust="spacing" textLength="49" x="825.5" y="412.0283">instance</text></g><!--link Repositories to ToDoList--><g id="link_Repositories_ToDoList"><path codeLine="111" d="M617.57,477.26 C584.92,513.45 550.6185,551.4645 524.8685,580.0145 " fill="none" id="Repositories-to-ToDoList" style="stroke:#181818;stroke-width:1.0;"/><polygon fill="#181818" points="520.85,584.47,529.8481,580.4658,524.1988,580.7571,523.9075,575.1077,520.85,584.47" style="stroke:#181818;stroke-width:1.0;"/><text fill="#000000" font-family="sans-serif" font-size="13" lengthAdjust="spacing" textLength="7" x="518.9392" y="573.2896">1</text></g><!--link Repositories to AuthenticationRepository--><g id="link_Repositories_AuthenticationRepository"><path codeLine="112" d="M784.6,455.17 C866.02,492.45 965.5,538 965.5,538 C965.5,538 1004.8681,559.7487 1044.2581,581.5087 " fill="none" id="Repositories-to-AuthenticationRepository" style="stroke:#181818;stroke-width:1.0;"/><polygon fill="#181818" points="1049.51,584.41,1043.5663,576.5568,1045.1334,581.9923,1039.6979,583.5593,1049.51,584.41" style="stroke:#181818;stroke-width:1.0;"/><text fill="#000000" font-family="sans-serif" font-size="13" lengthAdjust="spacing" textLength="7" x="1030.2073" y="573.2178">1</text></g><!--link Repositories to GreenSpaceRepository--><g id="link_Repositories_GreenSpaceRepository"><path codeLine="113" d="M733.44,477.26 C758.11,509.76 782.9919,542.5512 804.2419,570.5412 " fill="none" id="Repositories-to-GreenSpaceRepository" style="stroke:#181818;stroke-width:1.0;"/><polygon fill="#181818" points="807.87,575.32,805.6138,565.7331,804.8466,571.3377,799.242,570.5705,807.87,575.32" style="stroke:#181818;stroke-width:1.0;"/><text fill="#000000" font-family="sans-serif" font-size="13" lengthAdjust="spacing" textLength="7" x="795.2712" y="564.1954">1</text></g><!--link Task to EmergencyDegree--><g id="link_Task_EmergencyDegree"><path codeLine="114" d="M454.95,956.2 C480.43,977.21 501.7415,994.792 524.0115,1013.162 " fill="none" id="Task-to-EmergencyDegree" style="stroke:#181818;stroke-width:1.0;"/><polygon fill="#181818" points="528.64,1016.98,524.2425,1008.1674,524.7829,1013.7984,519.1519,1014.3387,528.64,1016.98" style="stroke:#181818;stroke-width:1.0;"/><text fill="#000000" font-family="sans-serif" font-size="13" lengthAdjust="spacing" textLength="7" x="512.8573" y="1005.9047">1</text></g><!--link Task to TaskStatus--><g id="link_Task_TaskStatus"><path codeLine="115" d="M206.86,956.2 C172.6,982.01 142.3822,1004.7897 114.9722,1025.4397 " fill="none" id="Task-to-TaskStatus" style="stroke:#181818;stroke-width:1.0;"/><polygon fill="#181818" points="110.18,1029.05,119.7752,1026.8293,114.1735,1026.0414,114.9614,1020.4397,110.18,1029.05" style="stroke:#181818;stroke-width:1.0;"/><text fill="#000000" font-family="sans-serif" font-size="13" lengthAdjust="spacing" textLength="7" x="117.9397" y="1019.2685">1</text></g><!--link Task to GreenSpaceManager--><g id="link_Task_GreenSpaceManager"><path codeLine="116" d="M293.6,956.2 C282.73,980.94 274.0429,1000.7266 265.1529,1020.9666 " fill="none" id="Task-to-GreenSpaceManager" style="stroke:#181818;stroke-width:1.0;"/><polygon fill="#181818" points="262.74,1026.46,270.0216,1019.8284,264.7507,1021.8821,262.697,1016.6112,262.74,1026.46" style="stroke:#181818;stroke-width:1.0;"/><text fill="#000000" font-family="sans-serif" font-size="13" lengthAdjust="spacing" textLength="7" x="258.0892" y="1015.3577">1</text></g><!--link Task to TaskType--><g id="link_Task_TaskType"><path codeLine="117" d="M379.87,956.2 C390.86,980.94 399.6467,1000.7356 408.6267,1020.9756 " fill="none" id="Task-to-TaskType" style="stroke:#181818;stroke-width:1.0;"/><polygon fill="#181818" points="411.06,1026.46,411.0663,1016.6111,409.0322,1021.8896,403.7537,1019.8556,411.06,1026.46" style="stroke:#181818;stroke-width:1.0;"/><text fill="#000000" font-family="sans-serif" font-size="13" lengthAdjust="spacing" textLength="7" x="400.5633" y="1015.3577">1</text></g><!--link AddTaskToDoListController to GreenSpaceMapper--><g id="link_AddTaskToDoListController_GreenSpaceMapper"><path codeLine="118" d="M1100.29,257.08 C1192.87,295.69 1289.5,336 1289.5,336 C1289.5,336 1313.7077,346.6544 1347.3577,361.4544 " fill="none" id="AddTaskToDoListController-to-GreenSpaceMapper" style="stroke:#181818;stroke-width:1.0;stroke-dasharray:7.0,7.0;"/><polygon fill="#181818" points="1352.85,363.87,1346.222,356.5851,1348.2731,361.857,1343.0012,363.9081,1352.85,363.87" style="stroke:#181818;stroke-width:1.0;"/></g><!--link GreenSpaceMapper to GreenSpaceDTO--><g id="link_GreenSpaceMapper_GreenSpaceDTO"><path codeLine="119" d="M1450.28,449.14 C1451.97,474.44 1453.7906,501.5833 1455.8006,531.7133 " fill="none" id="GreenSpaceMapper-to-GreenSpaceDTO" style="stroke:#181818;stroke-width:1.0;stroke-dasharray:7.0,7.0;"/><polygon fill="#181818" points="1456.2,537.7,1459.5921,528.4537,1455.8672,532.7111,1451.6098,528.9862,1456.2,537.7" style="stroke:#181818;stroke-width:1.0;"/></g><!--SRC=[dLLBRzim3BxhLmYzr4MSOhlcC21DijH07aETO6VLPXsXZcH82jPis7-V93ya9_AwDOV48J_IV7maR-KhPHKHv8YFdF7i8FWHi18dG4vJaUoL592gSmbOGAO8AqeV80yavpyeA_0BAQMlAIa3TQu0Lxmycp_eDg3aGd7aMMKbaNAgbA3F9mL9nbbAVmB-XD1j2IyAAuu5BGuAvzI4Gpb3oDhWQPxlY7pTyJbVKQds2Vw5VWyePvmfmSiIX0PX_HaD0g920B1K5mAUeEAIAYxEiOwZ1iQOdDG1cA8PCT4up5tjcFGTHugg4cASWym4hOo9-MDUidtPYm9Ofht3MwMJWtn-4gI6AED35op6Bfxw3UC2rBAJFPmtv0WHqr-UEbr_rTrDGKhjB6eYwzb94znyjzNAhcXjp6sDj859vU6Si1pU8cg-FRXprXYCKzr6pGmJZ1LOuJGNEWvCx8yJEskJ9ZRaSCgSdvur0Oa04hAGQy8qIuLNcrRKmKSERgiJDn74zbMnzHq777W9Thsb89iCUxAsi5WNAc5Ipuf-rnsUz40Eqb72Cri6oERhfmDagzi6x7J4faMf8keacpPyMspcoMPPFpzjPuiqNSozBclyHSCiHtiIZwwrV764cgnpozrB2jSWojGLbMlDhg6pwxFNJgyBTUO6_U712GxDA3leJGPrdI9fVu9KTYNsfk1YR883rHj4juS6-kSvdvs4q92z1E46jdFWYJqR8qtoA9X1Enlz5iEHq19T34O3ZQoopoZRhDh5qsAvNqsVxFDsDfkcoNOpNNNeIsRKHe_9yj4-h1VpPB-sZwljzr30UWiDBP30yXXS75TBupyMngWNpKVtXL_OgdAtHj-EtTOIf-WJgUMHoyWW8v-ysldreRk__p9yuT3mxJDs_cwQw1FlRQg_6xRYINSBtp4Oulvay8I-up0qfHCSkjSeED1z7wWxTpOx_LeqEAq6uKqYyek8n-FBgjBc65pZRZxVT8KCQuTY2AD3UIAxuLl4nNZsbUvszELNA-BQp0pVF_UhdWTqDI1zbEO- -WC0]--></g></svg>