<?xml version="1.0" encoding="us-ascii" standalone="no"?><svg xmlns="http://www.w3.org/2000/svg" xmlns:xlink="http://www.w3.org/1999/xlink" contentStyleType="text/css" height="638px" preserveAspectRatio="none" style="width:864px;height:638px;background:#FFFFFF;" version="1.1" viewBox="0 0 864 638" width="864px" zoomAndPan="magnify"><defs/><g><rect fill="#FFFFFF" height="482.4434" style="stroke:#181818;stroke-width:1.0;" width="10" x="217" y="90.5332"/><rect fill="#FFFFFF" height="345.6191" style="stroke:#181818;stroke-width:1.0;" width="10" x="222" y="218.3574"/><rect fill="#FFFFFF" height="42.291" style="stroke:#181818;stroke-width:1.0;" width="10" x="227" y="262.6484"/><rect fill="#FFFFFF" height="167.4551" style="stroke:#181818;stroke-width:1.0;" width="10" x="227" y="351.2305"/><rect fill="#FFFFFF" height="31.291" style="stroke:#181818;stroke-width:1.0;" width="10" x="562.5" y="450.1035"/><rect fill="#FFFFFF" height="31.291" style="stroke:#181818;stroke-width:1.0;" width="10" x="818.5" y="387.5215"/><rect fill="none" height="428.1523" style="stroke:#000000;stroke-width:1.5;" width="681.5" x="176.5" y="105.5332"/><line style="stroke:#181818;stroke-width:0.5;stroke-dasharray:5.0,5.0;" x1="221.5" x2="221.5" y1="57.2422" y2="581.9766"/><line style="stroke:#181818;stroke-width:0.5;stroke-dasharray:5.0,5.0;" x1="426" x2="426" y1="57.2422" y2="581.9766"/><line style="stroke:#181818;stroke-width:0.5;stroke-dasharray:5.0,5.0;" x1="567" x2="567" y1="57.2422" y2="581.9766"/><line style="stroke:#181818;stroke-width:0.5;stroke-dasharray:5.0,5.0;" x1="823" x2="823" y1="165.9453" y2="581.9766"/><rect fill="#E3E3E3" height="51.2422" rx="2.5" ry="2.5" style="stroke:#181818;stroke-width:0.5;" width="71" x="186.5" y="5"/><text fill="#000000" font-family="sans-serif" font-size="14" lengthAdjust="spacing" textLength="56" x="194" y="27.1074">toDoList:</text><text fill="#000000" font-family="sans-serif" font-size="14" lengthAdjust="spacing" textLength="57" x="193.5" y="45.7285">ToDoList</text><rect fill="#E3E3E3" height="51.2422" rx="2.5" ry="2.5" style="stroke:#181818;stroke-width:0.5;" width="71" x="186.5" y="580.9766"/><text fill="#000000" font-family="sans-serif" font-size="14" lengthAdjust="spacing" textLength="56" x="194" y="603.084">toDoList:</text><text fill="#000000" font-family="sans-serif" font-size="14" lengthAdjust="spacing" textLength="57" x="193.5" y="621.7051">ToDoList</text><rect fill="#E3E3E3" height="51.2422" rx="2.5" ry="2.5" style="stroke:#181818;stroke-width:0.5;" width="98" x="377" y="5"/><text fill="#000000" font-family="sans-serif" font-size="14" lengthAdjust="spacing" textLength="84" x="384" y="27.1074">GreenSpace:</text><text fill="#000000" font-family="sans-serif" font-size="14" lengthAdjust="spacing" textLength="80" x="386" y="45.7285">GreenSpace</text><rect fill="#E3E3E3" height="51.2422" rx="2.5" ry="2.5" style="stroke:#181818;stroke-width:0.5;" width="98" x="377" y="580.9766"/><text fill="#000000" font-family="sans-serif" font-size="14" lengthAdjust="spacing" textLength="84" x="384" y="603.084">GreenSpace:</text><text fill="#000000" font-family="sans-serif" font-size="14" lengthAdjust="spacing" textLength="80" x="386" y="621.7051">GreenSpace</text><rect fill="#E3E3E3" height="51.2422" rx="2.5" ry="2.5" style="stroke:#181818;stroke-width:0.5;" width="165" x="485" y="5"/><text fill="#000000" font-family="sans-serif" font-size="14" lengthAdjust="spacing" textLength="144" x="495.5" y="27.1074">greenSpacesManager:</text><text fill="#000000" font-family="sans-serif" font-size="14" lengthAdjust="spacing" textLength="151" x="492" y="45.7285">Green Spaces Manager</text><rect fill="#E3E3E3" height="51.2422" rx="2.5" ry="2.5" style="stroke:#181818;stroke-width:0.5;" width="165" x="485" y="580.9766"/><text fill="#000000" font-family="sans-serif" font-size="14" lengthAdjust="spacing" textLength="144" x="495.5" y="603.084">greenSpacesManager:</text><text fill="#000000" font-family="sans-serif" font-size="14" lengthAdjust="spacing" textLength="151" x="492" y="621.7051">Green Spaces Manager</text><rect fill="#E3E3E3" height="51.2422" rx="2.5" ry="2.5" style="stroke:#181818;stroke-width:0.5;" width="49" x="799" y="580.9766"/><text fill="#000000" font-family="sans-serif" font-size="14" lengthAdjust="spacing" textLength="26" x="810.5" y="603.084">task</text><text fill="#000000" font-family="sans-serif" font-size="14" lengthAdjust="spacing" textLength="35" x="806" y="621.7051">:Task</text><rect fill="#FFFFFF" height="482.4434" style="stroke:#181818;stroke-width:1.0;" width="10" x="217" y="90.5332"/><rect fill="#FFFFFF" height="345.6191" style="stroke:#181818;stroke-width:1.0;" width="10" x="222" y="218.3574"/><rect fill="#FFFFFF" height="42.291" style="stroke:#181818;stroke-width:1.0;" width="10" x="227" y="262.6484"/><rect fill="#FFFFFF" height="167.4551" style="stroke:#181818;stroke-width:1.0;" width="10" x="227" y="351.2305"/><rect fill="#FFFFFF" height="31.291" style="stroke:#181818;stroke-width:1.0;" width="10" x="562.5" y="450.1035"/><rect fill="#FFFFFF" height="31.291" style="stroke:#181818;stroke-width:1.0;" width="10" x="818.5" y="387.5215"/><polygon fill="#181818" points="205,86.5332,215,90.5332,205,94.5332,209,90.5332" style="stroke:#181818;stroke-width:1.0;"/><line style="stroke:#181818;stroke-width:1.0;" x1="0" x2="211" y1="90.5332" y2="90.5332"/><text fill="#000000" font-family="sans-serif" font-size="13" font-weight="bold" lengthAdjust="spacing" textLength="14" x="7" y="85.2705">20</text><text fill="#000000" font-family="sans-serif" font-size="13" lengthAdjust="spacing" textLength="180" x="25" y="85.2705">getGreenSpaceByName(name)</text><path d="M176.5,105.5332 L296.5,105.5332 L296.5,114.8242 L286.5,124.8242 L176.5,124.8242 L176.5,105.5332 " fill="#EEEEEE" style="stroke:#000000;stroke-width:1.5;"/><rect fill="none" height="428.1523" style="stroke:#000000;stroke-width:1.5;" width="681.5" x="176.5" y="105.5332"/><text fill="#000000" font-family="sans-serif" font-size="13" font-weight="bold" lengthAdjust="spacing" textLength="75" x="191.5" y="120.5615">Create Task</text><polygon fill="#181818" points="787,144.1152,797,148.1152,787,152.1152,791,148.1152" style="stroke:#181818;stroke-width:1.0;"/><line style="stroke:#181818;stroke-width:1.0;" x1="227" x2="793" y1="148.1152" y2="148.1152"/><text fill="#000000" font-family="sans-serif" font-size="13" font-weight="bold" lengthAdjust="spacing" textLength="25" x="234" y="142.8525">20.1</text><text fill="#000000" font-family="sans-serif" font-size="13" lengthAdjust="spacing" textLength="519" x="263" y="142.8525">create(title, description, degreeOfUrgency, expectedDurationTime, taskType, greenSpace)</text><rect fill="#E3E3E3" height="51.2422" rx="2.5" ry="2.5" style="stroke:#181818;stroke-width:0.5;" width="49" x="799" y="124.8242"/><text fill="#000000" font-family="sans-serif" font-size="14" lengthAdjust="spacing" textLength="26" x="810.5" y="146.9316">task</text><text fill="#000000" font-family="sans-serif" font-size="14" lengthAdjust="spacing" textLength="35" x="806" y="165.5527">:Task</text><line style="stroke:#181818;stroke-width:1.0;" x1="227" x2="274" y1="205.3574" y2="205.3574"/><line style="stroke:#181818;stroke-width:1.0;" x1="274" x2="274" y1="205.3574" y2="218.3574"/><line style="stroke:#181818;stroke-width:1.0;" x1="233" x2="274" y1="218.3574" y2="218.3574"/><polygon fill="#181818" points="243,214.3574,233,218.3574,243,222.3574,239,218.3574" style="stroke:#181818;stroke-width:1.0;"/><text fill="#000000" font-family="sans-serif" font-size="13" font-weight="bold" lengthAdjust="spacing" textLength="25" x="239" y="200.0947">20.2</text><text fill="#000000" font-family="sans-serif" font-size="13" lengthAdjust="spacing" textLength="125" x="268" y="200.0947">addTask (email, task)</text><line style="stroke:#181818;stroke-width:1.0;" x1="232" x2="279" y1="249.6484" y2="249.6484"/><line style="stroke:#181818;stroke-width:1.0;" x1="279" x2="279" y1="249.6484" y2="262.6484"/><line style="stroke:#181818;stroke-width:1.0;" x1="238" x2="279" y1="262.6484" y2="262.6484"/><polygon fill="#181818" points="248,258.6484,238,262.6484,248,266.6484,244,262.6484" style="stroke:#181818;stroke-width:1.0;"/><text fill="#000000" font-family="sans-serif" font-size="13" font-weight="bold" lengthAdjust="spacing" textLength="25" x="244" y="244.3857">20.3</text><text fill="#000000" font-family="sans-serif" font-size="13" lengthAdjust="spacing" textLength="111" x="273" y="244.3857">validateEntry (task)</text><line style="stroke:#181818;stroke-width:1.0;stroke-dasharray:2.0,2.0;" x1="237" x2="279" y1="303.9395" y2="303.9395"/><line style="stroke:#181818;stroke-width:1.0;stroke-dasharray:2.0,2.0;" x1="279" x2="279" y1="303.9395" y2="316.9395"/><line style="stroke:#181818;stroke-width:1.0;stroke-dasharray:2.0,2.0;" x1="232" x2="279" y1="316.9395" y2="316.9395"/><polygon fill="#181818" points="242,312.9395,232,316.9395,242,320.9395,238,316.9395" style="stroke:#181818;stroke-width:1.0;"/><text fill="#000000" font-family="sans-serif" font-size="13" font-weight="bold" lengthAdjust="spacing" textLength="25" x="244" y="298.6768">20.4</text><text fill="#000000" font-family="sans-serif" font-size="13" lengthAdjust="spacing" textLength="4" x="273" y="298.6768">&#160;</text><line style="stroke:#181818;stroke-width:1.0;" x1="232" x2="279" y1="338.2305" y2="338.2305"/><line style="stroke:#181818;stroke-width:1.0;" x1="279" x2="279" y1="338.2305" y2="351.2305"/><line style="stroke:#181818;stroke-width:1.0;" x1="238" x2="279" y1="351.2305" y2="351.2305"/><polygon fill="#181818" points="248,347.2305,238,351.2305,248,355.2305,244,351.2305" style="stroke:#181818;stroke-width:1.0;"/><text fill="#000000" font-family="sans-serif" font-size="13" font-weight="bold" lengthAdjust="spacing" textLength="25" x="244" y="332.9678">20.5</text><text fill="#000000" font-family="sans-serif" font-size="13" lengthAdjust="spacing" textLength="146" x="273" y="332.9678">validateUser (email, task)</text><polygon fill="#181818" points="806.5,383.5215,816.5,387.5215,806.5,391.5215,810.5,387.5215" style="stroke:#181818;stroke-width:1.0;"/><line style="stroke:#181818;stroke-width:1.0;" x1="237" x2="812.5" y1="387.5215" y2="387.5215"/><text fill="#000000" font-family="sans-serif" font-size="13" font-weight="bold" lengthAdjust="spacing" textLength="25" x="244" y="382.2588">20.6</text><text fill="#000000" font-family="sans-serif" font-size="13" lengthAdjust="spacing" textLength="155" x="273" y="382.2588">getGreenSpacesManager()</text><polygon fill="#181818" points="248,414.8125,238,418.8125,248,422.8125,244,418.8125" style="stroke:#181818;stroke-width:1.0;"/><line style="stroke:#181818;stroke-width:1.0;stroke-dasharray:2.0,2.0;" x1="242" x2="822.5" y1="418.8125" y2="418.8125"/><text fill="#000000" font-family="sans-serif" font-size="13" font-weight="bold" lengthAdjust="spacing" textLength="25" x="254" y="413.5498">20.7</text><text fill="#000000" font-family="sans-serif" font-size="13" lengthAdjust="spacing" textLength="126" x="283" y="413.5498">greenSpacesManager</text><polygon fill="#181818" points="550.5,446.1035,560.5,450.1035,550.5,454.1035,554.5,450.1035" style="stroke:#181818;stroke-width:1.0;"/><line style="stroke:#181818;stroke-width:1.0;" x1="237" x2="556.5" y1="450.1035" y2="450.1035"/><text fill="#000000" font-family="sans-serif" font-size="13" font-weight="bold" lengthAdjust="spacing" textLength="25" x="244" y="444.8408">20.8</text><text fill="#000000" font-family="sans-serif" font-size="13" lengthAdjust="spacing" textLength="59" x="273" y="444.8408">getEmail()</text><polygon fill="#181818" points="248,477.3945,238,481.3945,248,485.3945,244,481.3945" style="stroke:#181818;stroke-width:1.0;"/><line style="stroke:#181818;stroke-width:1.0;stroke-dasharray:2.0,2.0;" x1="242" x2="566.5" y1="481.3945" y2="481.3945"/><text fill="#000000" font-family="sans-serif" font-size="13" font-weight="bold" lengthAdjust="spacing" textLength="25" x="254" y="476.1318">20.9</text><text fill="#000000" font-family="sans-serif" font-size="13" lengthAdjust="spacing" textLength="31" x="283" y="476.1318">email</text><line style="stroke:#181818;stroke-width:1.0;stroke-dasharray:2.0,2.0;" x1="237" x2="279" y1="517.6855" y2="517.6855"/><line style="stroke:#181818;stroke-width:1.0;stroke-dasharray:2.0,2.0;" x1="279" x2="279" y1="517.6855" y2="530.6855"/><line style="stroke:#181818;stroke-width:1.0;stroke-dasharray:2.0,2.0;" x1="232" x2="279" y1="530.6855" y2="530.6855"/><polygon fill="#181818" points="242,526.6855,232,530.6855,242,534.6855,238,530.6855" style="stroke:#181818;stroke-width:1.0;"/><text fill="#000000" font-family="sans-serif" font-size="13" font-weight="bold" lengthAdjust="spacing" textLength="32" x="244" y="512.4229">20.10</text><text fill="#000000" font-family="sans-serif" font-size="13" lengthAdjust="spacing" textLength="4" x="280" y="512.4229">&#160;</text><polygon fill="#181818" points="11,559.9766,1,563.9766,11,567.9766,7,563.9766" style="stroke:#181818;stroke-width:1.0;"/><line style="stroke:#181818;stroke-width:1.0;stroke-dasharray:2.0,2.0;" x1="5" x2="216" y1="563.9766" y2="563.9766"/><text fill="#000000" font-family="sans-serif" font-size="13" font-weight="bold" lengthAdjust="spacing" textLength="14" x="17" y="558.7139">21</text><text fill="#000000" font-family="sans-serif" font-size="13" lengthAdjust="spacing" textLength="25" x="35" y="558.7139">task</text><!--SRC=[jLHBJyCm3BxdLrXSw2Q6WEE4a7XC77X9hBjnCOtNHMkJAabX_VSasTR7G1JGoA5DdC_-_3bEp5B80ZNca2kfaeLMEO7L9J5JxnIOB36bgQqo0as9HPbcRO1P85VlGgOmnymGOrXQ9SlybJHZXml12UPAsLUrOinvM9680gM50wjkrBqmTlmYuytq0D30rjv5tseYENNPaCCtY-2HrikkJsCt3oYT2htrXRKLDkOGPJQTFEzaY6Rv8iUn-mL4V3czQ-k3inF6O7HHfmnZICassLrLZvXJ9DrdqFKxFcMOMF66bXh1u4QgLLd0jIQ_uvbPC6z7pUHOVJh3eUDC0ZgomcPq19nCeaLXXP9-uOlmD9_fb6HI7G6j2dU8n6zAZHuIYzpvUALnLRXPKxD1btbtj3EfZnAGSvyqH9IZoDQ11z_6-Lo6Fz2-OIQu2pAHLbSG_IDhY_PR3qvx5JOphct-hQXVTTPEAszlK3JeZLIJh-zB7zoZEdKTm-UBsnkbLU-VqRRr-giVz4vyWNyZCJmQlN2Fsf4OZl8tglgPzjYa97dujz-iqs0v7uqQ8lVs-5vaNyNv0000]--></g></svg>