<?xml version="1.0" encoding="us-ascii" standalone="no"?><svg xmlns="http://www.w3.org/2000/svg" xmlns:xlink="http://www.w3.org/1999/xlink" contentStyleType="text/css" height="841.6px" preserveAspectRatio="none" style="width:1367px;height:841px;background:#FFFFFF;" version="1.1" viewBox="0 0 1367 841" width="1367.2px" zoomAndPan="magnify"><defs/><g><!--class AssignTeamUI--><g id="elem_AssignTeamUI"><rect codeLine="11" fill="#F1F1F1" height="38.4" id="AssignTeamUI" rx="2" ry="2" style="stroke:#181818;stroke-width:0.4000000000000001;" width="97.6" x="365.2" y="5.6"/><ellipse cx="377.2" cy="18.4" fill="#ADD1B2" rx="8.8" ry="8.8" style="stroke:#181818;stroke-width:0.8000000000000002;"/><path d="M379.4125,15.1 Q379.5375,14.925 379.6875,14.8375 Q379.8375,14.75 380.0125,14.75 Q380.3125,14.75 380.5,14.9625 Q380.6875,15.1625 380.6875,15.65 L380.6875,16.8125 Q380.6875,17.3 380.5,17.5125 Q380.3125,17.725 380.0125,17.725 Q379.7375,17.725 379.575,17.5625 Q379.4125,17.4125 379.325,17 Q379.2875,16.7125 379.1375,16.5625 Q378.875,16.2625 378.3875,16.0875 Q377.9,15.9125 377.4,15.9125 Q376.7875,15.9125 376.275,16.175 Q375.775,16.4375 375.375,17.0375 Q374.9875,17.6375 374.9875,18.4625 L374.9875,19.3375 Q374.9875,20.325 375.7,20.9875 Q376.4125,21.6375 377.6875,21.6375 Q378.4375,21.6375 378.9625,21.4375 Q379.275,21.3125 379.6125,20.9625 Q379.825,20.75 379.9375,20.6875 Q380.0625,20.625 380.225,20.625 Q380.4875,20.625 380.6875,20.8375 Q380.9,21.0375 380.9,21.3125 Q380.9,21.5875 380.625,21.9125 Q380.225,22.375 379.5875,22.6375 Q378.725,23 377.6875,23 Q376.475,23 375.5125,22.5 Q374.725,22.1 374.175,21.25 Q373.625,20.3875 373.625,19.3625 L373.625,18.4375 Q373.625,17.375 374.1125,16.4625 Q374.6125,15.5375 375.4875,15.05 Q376.3625,14.55 377.35,14.55 Q377.9375,14.55 378.45,14.6875 Q378.975,14.8125 379.4125,15.1 Z " fill="#000000"/><text fill="#000000" font-family="sans-serif" font-size="11.2" lengthAdjust="spacing" textLength="72" x="388.4" y="23.0375">AssignTeamUI</text><line style="stroke:#181818;stroke-width:0.4000000000000001;" x1="366" x2="462" y1="31.2" y2="31.2"/><line style="stroke:#181818;stroke-width:0.4000000000000001;" x1="366" x2="462" y1="37.6" y2="37.6"/></g><!--class AssignTeamController--><g id="elem_AssignTeamController"><rect codeLine="14" fill="#F1F1F1" height="157.575" id="AssignTeamController" rx="2" ry="2" style="stroke:#181818;stroke-width:0.4000000000000001;" width="354.4" x="236.8" y="92.8"/><ellipse cx="354.6" cy="105.6" fill="#ADD1B2" rx="8.8" ry="8.8" style="stroke:#181818;stroke-width:0.8000000000000002;"/><path d="M356.8125,102.3 Q356.9375,102.125 357.0875,102.0375 Q357.2375,101.95 357.4125,101.95 Q357.7125,101.95 357.9,102.1625 Q358.0875,102.3625 358.0875,102.85 L358.0875,104.0125 Q358.0875,104.5 357.9,104.7125 Q357.7125,104.925 357.4125,104.925 Q357.1375,104.925 356.975,104.7625 Q356.8125,104.6125 356.725,104.2 Q356.6875,103.9125 356.5375,103.7625 Q356.275,103.4625 355.7875,103.2875 Q355.3,103.1125 354.8,103.1125 Q354.1875,103.1125 353.675,103.375 Q353.175,103.6375 352.775,104.2375 Q352.3875,104.8375 352.3875,105.6625 L352.3875,106.5375 Q352.3875,107.525 353.1,108.1875 Q353.8125,108.8375 355.0875,108.8375 Q355.8375,108.8375 356.3625,108.6375 Q356.675,108.5125 357.0125,108.1625 Q357.225,107.95 357.3375,107.8875 Q357.4625,107.825 357.625,107.825 Q357.8875,107.825 358.0875,108.0375 Q358.3,108.2375 358.3,108.5125 Q358.3,108.7875 358.025,109.1125 Q357.625,109.575 356.9875,109.8375 Q356.125,110.2 355.0875,110.2 Q353.875,110.2 352.9125,109.7 Q352.125,109.3 351.575,108.45 Q351.025,107.5875 351.025,106.5625 L351.025,105.6375 Q351.025,104.575 351.5125,103.6625 Q352.0125,102.7375 352.8875,102.25 Q353.7625,101.75 354.75,101.75 Q355.3375,101.75 355.85,101.8875 Q356.375,102.0125 356.8125,102.3 Z " fill="#000000"/><text fill="#000000" font-family="sans-serif" font-size="11.2" lengthAdjust="spacing" textLength="112" x="371" y="110.2375">AssignTeamController</text><line style="stroke:#181818;stroke-width:0.4000000000000001;" x1="237.6" x2="590.4" y1="118.4" y2="118.4"/><line style="stroke:#181818;stroke-width:0.4000000000000001;" x1="237.6" x2="590.4" y1="124.8" y2="124.8"/><text fill="#000000" font-family="sans-serif" font-size="11.2" lengthAdjust="spacing" textLength="344.8" x="241.6" y="140.0859">+AssignTeamController(agenda, toDoList, authenticationRepository)</text><text fill="#000000" font-family="sans-serif" font-size="11.2" lengthAdjust="spacing" textLength="238.4" x="241.6" y="154.9828">+assignTeamToEntry(agendaIndex, teamIndex)</text><text fill="#000000" font-family="sans-serif" font-size="11.2" lengthAdjust="spacing" textLength="158.4" x="241.6" y="169.8797">-getEntryByIndex(agendaIndex)</text><text fill="#000000" font-family="sans-serif" font-size="11.2" lengthAdjust="spacing" textLength="147.2" x="241.6" y="184.7766">-getTeamByIndex(teamIndex)</text><text fill="#000000" font-family="sans-serif" font-size="11.2" lengthAdjust="spacing" textLength="83.2" x="241.6" y="199.6734">+getEntriesList()</text><text fill="#000000" font-family="sans-serif" font-size="11.2" lengthAdjust="spacing" textLength="82.4" x="241.6" y="214.5703">+getTeamsList()</text><text fill="#000000" font-family="sans-serif" font-size="11.2" lengthAdjust="spacing" textLength="293.6" x="241.6" y="229.4672">-sendTheEmailToTeam(from, to, nameCollaborator, entry)</text><text fill="#000000" font-family="sans-serif" font-size="11.2" lengthAdjust="spacing" textLength="119.2" x="241.6" y="244.3641">-getGSMFromSession()</text></g><!--class Agenda--><g id="elem_Agenda"><rect codeLine="25" fill="#F1F1F1" height="53.2969" id="Agenda" rx="2" ry="2" style="stroke:#181818;stroke-width:0.4000000000000001;" width="170.4" x="5.6" y="482.4"/><ellipse cx="67.8" cy="495.2" fill="#ADD1B2" rx="8.8" ry="8.8" style="stroke:#181818;stroke-width:0.8000000000000002;"/><path d="M70.0125,491.9 Q70.1375,491.725 70.2875,491.6375 Q70.4375,491.55 70.6125,491.55 Q70.9125,491.55 71.1,491.7625 Q71.2875,491.9625 71.2875,492.45 L71.2875,493.6125 Q71.2875,494.1 71.1,494.3125 Q70.9125,494.525 70.6125,494.525 Q70.3375,494.525 70.175,494.3625 Q70.0125,494.2125 69.925,493.8 Q69.8875,493.5125 69.7375,493.3625 Q69.475,493.0625 68.9875,492.8875 Q68.5,492.7125 68,492.7125 Q67.3875,492.7125 66.875,492.975 Q66.375,493.2375 65.975,493.8375 Q65.5875,494.4375 65.5875,495.2625 L65.5875,496.1375 Q65.5875,497.125 66.3,497.7875 Q67.0125,498.4375 68.2875,498.4375 Q69.0375,498.4375 69.5625,498.2375 Q69.875,498.1125 70.2125,497.7625 Q70.425,497.55 70.5375,497.4875 Q70.6625,497.425 70.825,497.425 Q71.0875,497.425 71.2875,497.6375 Q71.5,497.8375 71.5,498.1125 Q71.5,498.3875 71.225,498.7125 Q70.825,499.175 70.1875,499.4375 Q69.325,499.8 68.2875,499.8 Q67.075,499.8 66.1125,499.3 Q65.325,498.9 64.775,498.05 Q64.225,497.1875 64.225,496.1625 L64.225,495.2375 Q64.225,494.175 64.7125,493.2625 Q65.2125,492.3375 66.0875,491.85 Q66.9625,491.35 67.95,491.35 Q68.5375,491.35 69.05,491.4875 Q69.575,491.6125 70.0125,491.9 Z " fill="#000000"/><text fill="#000000" font-family="sans-serif" font-size="11.2" lengthAdjust="spacing" textLength="39.2" x="84.2" y="499.8375">Agenda</text><line style="stroke:#181818;stroke-width:0.4000000000000001;" x1="6.4" x2="175.2" y1="508" y2="508"/><line style="stroke:#181818;stroke-width:0.4000000000000001;" x1="6.4" x2="175.2" y1="514.4" y2="514.4"/><text fill="#000000" font-family="sans-serif" font-size="11.2" lengthAdjust="spacing" textLength="160.8" x="10.4" y="529.6859">+getEntryByIndex(agendaIndex)</text></g><!--class Entry--><g id="elem_Entry"><rect codeLine="29" fill="#F1F1F1" height="112.8844" id="Entry" rx="2" ry="2" style="stroke:#181818;stroke-width:0.4000000000000001;" width="144" x="48.4" y="606.4"/><ellipse cx="103.8" cy="619.2" fill="#ADD1B2" rx="8.8" ry="8.8" style="stroke:#181818;stroke-width:0.8000000000000002;"/><path d="M106.0125,615.9 Q106.1375,615.725 106.2875,615.6375 Q106.4375,615.55 106.6125,615.55 Q106.9125,615.55 107.1,615.7625 Q107.2875,615.9625 107.2875,616.45 L107.2875,617.6125 Q107.2875,618.1 107.1,618.3125 Q106.9125,618.525 106.6125,618.525 Q106.3375,618.525 106.175,618.3625 Q106.0125,618.2125 105.925,617.8 Q105.8875,617.5125 105.7375,617.3625 Q105.475,617.0625 104.9875,616.8875 Q104.5,616.7125 104,616.7125 Q103.3875,616.7125 102.875,616.975 Q102.375,617.2375 101.975,617.8375 Q101.5875,618.4375 101.5875,619.2625 L101.5875,620.1375 Q101.5875,621.125 102.3,621.7875 Q103.0125,622.4375 104.2875,622.4375 Q105.0375,622.4375 105.5625,622.2375 Q105.875,622.1125 106.2125,621.7625 Q106.425,621.55 106.5375,621.4875 Q106.6625,621.425 106.825,621.425 Q107.0875,621.425 107.2875,621.6375 Q107.5,621.8375 107.5,622.1125 Q107.5,622.3875 107.225,622.7125 Q106.825,623.175 106.1875,623.4375 Q105.325,623.8 104.2875,623.8 Q103.075,623.8 102.1125,623.3 Q101.325,622.9 100.775,622.05 Q100.225,621.1875 100.225,620.1625 L100.225,619.2375 Q100.225,618.175 100.7125,617.2625 Q101.2125,616.3375 102.0875,615.85 Q102.9625,615.35 103.95,615.35 Q104.5375,615.35 105.05,615.4875 Q105.575,615.6125 106.0125,615.9 Z " fill="#000000"/><text fill="#000000" font-family="sans-serif" font-size="11.2" lengthAdjust="spacing" textLength="26.4" x="120.2" y="623.8375">Entry</text><line style="stroke:#181818;stroke-width:0.4000000000000001;" x1="49.2" x2="191.6" y1="632" y2="632"/><text fill="#000000" font-family="sans-serif" font-size="11.2" lengthAdjust="spacing" textLength="92.8" x="53.2" y="647.2859">-Date startingDate</text><text fill="#000000" font-family="sans-serif" font-size="11.2" lengthAdjust="spacing" textLength="108.8" x="53.2" y="662.1828">-AgendaStatus status</text><text fill="#000000" font-family="sans-serif" font-size="11.2" lengthAdjust="spacing" textLength="52.8" x="53.2" y="677.0797">-Task task</text><line style="stroke:#181818;stroke-width:0.4000000000000001;" x1="49.2" x2="191.6" y1="683.0906" y2="683.0906"/><text fill="#000000" font-family="sans-serif" font-size="11.2" lengthAdjust="spacing" textLength="129.6" x="53.2" y="698.3766">+Entry(startingDate, task)</text><text fill="#000000" font-family="sans-serif" font-size="11.2" lengthAdjust="spacing" textLength="134.4" x="53.2" y="713.2734">+assignTeam(teamAssign)</text></g><!--class TeamRepository--><g id="elem_TeamRepository"><rect codeLine="37" fill="#F1F1F1" height="53.2969" id="TeamRepository" rx="2" ry="2" style="stroke:#181818;stroke-width:0.4000000000000001;" width="159.2" x="204" y="482.4"/><ellipse cx="238.68" cy="495.2" fill="#ADD1B2" rx="8.8" ry="8.8" style="stroke:#181818;stroke-width:0.8000000000000002;"/><path d="M240.8925,491.9 Q241.0175,491.725 241.1675,491.6375 Q241.3175,491.55 241.4925,491.55 Q241.7925,491.55 241.98,491.7625 Q242.1675,491.9625 242.1675,492.45 L242.1675,493.6125 Q242.1675,494.1 241.98,494.3125 Q241.7925,494.525 241.4925,494.525 Q241.2175,494.525 241.055,494.3625 Q240.8925,494.2125 240.805,493.8 Q240.7675,493.5125 240.6175,493.3625 Q240.355,493.0625 239.8675,492.8875 Q239.38,492.7125 238.88,492.7125 Q238.2675,492.7125 237.755,492.975 Q237.255,493.2375 236.855,493.8375 Q236.4675,494.4375 236.4675,495.2625 L236.4675,496.1375 Q236.4675,497.125 237.18,497.7875 Q237.8925,498.4375 239.1675,498.4375 Q239.9175,498.4375 240.4425,498.2375 Q240.755,498.1125 241.0925,497.7625 Q241.305,497.55 241.4175,497.4875 Q241.5425,497.425 241.705,497.425 Q241.9675,497.425 242.1675,497.6375 Q242.38,497.8375 242.38,498.1125 Q242.38,498.3875 242.105,498.7125 Q241.705,499.175 241.0675,499.4375 Q240.205,499.8 239.1675,499.8 Q237.955,499.8 236.9925,499.3 Q236.205,498.9 235.655,498.05 Q235.105,497.1875 235.105,496.1625 L235.105,495.2375 Q235.105,494.175 235.5925,493.2625 Q236.0925,492.3375 236.9675,491.85 Q237.8425,491.35 238.83,491.35 Q239.4175,491.35 239.93,491.4875 Q240.455,491.6125 240.8925,491.9 Z " fill="#000000"/><text fill="#000000" font-family="sans-serif" font-size="11.2" lengthAdjust="spacing" textLength="83.2" x="254.92" y="499.8375">TeamRepository</text><line style="stroke:#181818;stroke-width:0.4000000000000001;" x1="204.8" x2="362.4" y1="508" y2="508"/><line style="stroke:#181818;stroke-width:0.4000000000000001;" x1="204.8" x2="362.4" y1="514.4" y2="514.4"/><text fill="#000000" font-family="sans-serif" font-size="11.2" lengthAdjust="spacing" textLength="149.6" x="208.8" y="529.6859">+getTeamByIndex(teamIndex)</text></g><!--class Team--><g id="elem_Team"><rect codeLine="41" fill="#F1F1F1" height="68.1938" id="Team" rx="2" ry="2" style="stroke:#181818;stroke-width:0.4000000000000001;" width="175.2" x="99.2" y="768"/><ellipse cx="169" cy="780.8" fill="#ADD1B2" rx="8.8" ry="8.8" style="stroke:#181818;stroke-width:0.8000000000000002;"/><path d="M171.2125,777.5 Q171.3375,777.325 171.4875,777.2375 Q171.6375,777.15 171.8125,777.15 Q172.1125,777.15 172.3,777.3625 Q172.4875,777.5625 172.4875,778.05 L172.4875,779.2125 Q172.4875,779.7 172.3,779.9125 Q172.1125,780.125 171.8125,780.125 Q171.5375,780.125 171.375,779.9625 Q171.2125,779.8125 171.125,779.4 Q171.0875,779.1125 170.9375,778.9625 Q170.675,778.6625 170.1875,778.4875 Q169.7,778.3125 169.2,778.3125 Q168.5875,778.3125 168.075,778.575 Q167.575,778.8375 167.175,779.4375 Q166.7875,780.0375 166.7875,780.8625 L166.7875,781.7375 Q166.7875,782.725 167.5,783.3875 Q168.2125,784.0375 169.4875,784.0375 Q170.2375,784.0375 170.7625,783.8375 Q171.075,783.7125 171.4125,783.3625 Q171.625,783.15 171.7375,783.0875 Q171.8625,783.025 172.025,783.025 Q172.2875,783.025 172.4875,783.2375 Q172.7,783.4375 172.7,783.7125 Q172.7,783.9875 172.425,784.3125 Q172.025,784.775 171.3875,785.0375 Q170.525,785.4 169.4875,785.4 Q168.275,785.4 167.3125,784.9 Q166.525,784.5 165.975,783.65 Q165.425,782.7875 165.425,781.7625 L165.425,780.8375 Q165.425,779.775 165.9125,778.8625 Q166.4125,777.9375 167.2875,777.45 Q168.1625,776.95 169.15,776.95 Q169.7375,776.95 170.25,777.0875 Q170.775,777.2125 171.2125,777.5 Z " fill="#000000"/><text fill="#000000" font-family="sans-serif" font-size="11.2" lengthAdjust="spacing" textLength="28.8" x="185.4" y="785.4375">Team</text><line style="stroke:#181818;stroke-width:0.4000000000000001;" x1="100" x2="273.6" y1="793.6" y2="793.6"/><text fill="#000000" font-family="sans-serif" font-size="11.2" lengthAdjust="spacing" textLength="165.6" x="104" y="808.8859">-List&lt;Collaborator&gt; collaborators</text><line style="stroke:#181818;stroke-width:0.4000000000000001;" x1="100" x2="273.6" y1="814.8969" y2="814.8969"/><text fill="#000000" font-family="sans-serif" font-size="11.2" lengthAdjust="spacing" textLength="102.4" x="104" y="830.1828">Team(collaborators)</text></g><!--class Repositories--><g id="elem_Repositories"><rect codeLine="46" fill="#F1F1F1" height="112.8844" id="Repositories" rx="2" ry="2" style="stroke:#181818;stroke-width:0.4000000000000001;" width="166.4" x="128.4" y="313.6"/><ellipse cx="176.6" cy="326.4" fill="#ADD1B2" rx="8.8" ry="8.8" style="stroke:#181818;stroke-width:0.8000000000000002;"/><path d="M178.8125,323.1 Q178.9375,322.925 179.0875,322.8375 Q179.2375,322.75 179.4125,322.75 Q179.7125,322.75 179.9,322.9625 Q180.0875,323.1625 180.0875,323.65 L180.0875,324.8125 Q180.0875,325.3 179.9,325.5125 Q179.7125,325.725 179.4125,325.725 Q179.1375,325.725 178.975,325.5625 Q178.8125,325.4125 178.725,325 Q178.6875,324.7125 178.5375,324.5625 Q178.275,324.2625 177.7875,324.0875 Q177.3,323.9125 176.8,323.9125 Q176.1875,323.9125 175.675,324.175 Q175.175,324.4375 174.775,325.0375 Q174.3875,325.6375 174.3875,326.4625 L174.3875,327.3375 Q174.3875,328.325 175.1,328.9875 Q175.8125,329.6375 177.0875,329.6375 Q177.8375,329.6375 178.3625,329.4375 Q178.675,329.3125 179.0125,328.9625 Q179.225,328.75 179.3375,328.6875 Q179.4625,328.625 179.625,328.625 Q179.8875,328.625 180.0875,328.8375 Q180.3,329.0375 180.3,329.3125 Q180.3,329.5875 180.025,329.9125 Q179.625,330.375 178.9875,330.6375 Q178.125,331 177.0875,331 Q175.875,331 174.9125,330.5 Q174.125,330.1 173.575,329.25 Q173.025,328.3875 173.025,327.3625 L173.025,326.4375 Q173.025,325.375 173.5125,324.4625 Q174.0125,323.5375 174.8875,323.05 Q175.7625,322.55 176.75,322.55 Q177.3375,322.55 177.85,322.6875 Q178.375,322.8125 178.8125,323.1 Z " fill="#000000"/><text fill="#000000" font-family="sans-serif" font-size="11.2" lengthAdjust="spacing" textLength="63.2" x="193" y="331.0375">Repositories</text><line style="stroke:#181818;stroke-width:0.4000000000000001;" x1="129.2" x2="294" y1="339.2" y2="339.2"/><line style="stroke:#181818;stroke-width:0.4000000000000001;" x1="129.2" x2="294" y1="345.6" y2="345.6"/><text fill="#000000" font-family="sans-serif" font-size="11.2" lengthAdjust="spacing" textLength="75.2" x="133.2" y="360.8859">-Repositories()</text><text fill="#000000" font-family="sans-serif" font-size="11.2" lengthAdjust="spacing" textLength="145.6" x="133.2" y="375.7828">+getInstance() : Repositories</text><text fill="#000000" font-family="sans-serif" font-size="11.2" lengthAdjust="spacing" textLength="69.6" x="133.2" y="390.6797">+getAgenda()</text><text fill="#000000" font-family="sans-serif" font-size="11.2" lengthAdjust="spacing" textLength="113.6" x="133.2" y="405.5766">+getTeamRepository()</text><text fill="#000000" font-family="sans-serif" font-size="11.2" lengthAdjust="spacing" textLength="156.8" x="133.2" y="420.4734">+getAuthenticationRepository()</text></g><!--class AuthenticationRepository--><g id="elem_AuthenticationRepository"><rect codeLine="54" fill="#F1F1F1" height="53.2969" id="AuthenticationRepository" rx="2" ry="2" style="stroke:#181818;stroke-width:0.4000000000000001;" width="152" x="417.2" y="482.4"/><ellipse cx="429.2" cy="495.2" fill="#ADD1B2" rx="8.8" ry="8.8" style="stroke:#181818;stroke-width:0.8000000000000002;"/><path d="M431.4125,491.9 Q431.5375,491.725 431.6875,491.6375 Q431.8375,491.55 432.0125,491.55 Q432.3125,491.55 432.5,491.7625 Q432.6875,491.9625 432.6875,492.45 L432.6875,493.6125 Q432.6875,494.1 432.5,494.3125 Q432.3125,494.525 432.0125,494.525 Q431.7375,494.525 431.575,494.3625 Q431.4125,494.2125 431.325,493.8 Q431.2875,493.5125 431.1375,493.3625 Q430.875,493.0625 430.3875,492.8875 Q429.9,492.7125 429.4,492.7125 Q428.7875,492.7125 428.275,492.975 Q427.775,493.2375 427.375,493.8375 Q426.9875,494.4375 426.9875,495.2625 L426.9875,496.1375 Q426.9875,497.125 427.7,497.7875 Q428.4125,498.4375 429.6875,498.4375 Q430.4375,498.4375 430.9625,498.2375 Q431.275,498.1125 431.6125,497.7625 Q431.825,497.55 431.9375,497.4875 Q432.0625,497.425 432.225,497.425 Q432.4875,497.425 432.6875,497.6375 Q432.9,497.8375 432.9,498.1125 Q432.9,498.3875 432.625,498.7125 Q432.225,499.175 431.5875,499.4375 Q430.725,499.8 429.6875,499.8 Q428.475,499.8 427.5125,499.3 Q426.725,498.9 426.175,498.05 Q425.625,497.1875 425.625,496.1625 L425.625,495.2375 Q425.625,494.175 426.1125,493.2625 Q426.6125,492.3375 427.4875,491.85 Q428.3625,491.35 429.35,491.35 Q429.9375,491.35 430.45,491.4875 Q430.975,491.6125 431.4125,491.9 Z " fill="#000000"/><text fill="#000000" font-family="sans-serif" font-size="11.2" lengthAdjust="spacing" textLength="126.4" x="440.4" y="499.8375">AuthenticationRepository</text><line style="stroke:#181818;stroke-width:0.4000000000000001;" x1="418" x2="568.4" y1="508" y2="508"/><line style="stroke:#181818;stroke-width:0.4000000000000001;" x1="418" x2="568.4" y1="514.4" y2="514.4"/><text fill="#000000" font-family="sans-serif" font-size="11.2" lengthAdjust="spacing" textLength="132" x="422" y="529.6859">+getCurrentUserSession()</text></g><!--class UserSession--><g id="elem_UserSession"><rect codeLine="58" fill="#F1F1F1" height="53.2969" id="UserSession" rx="2" ry="2" style="stroke:#181818;stroke-width:0.4000000000000001;" width="88.8" x="448.8" y="636"/><ellipse cx="460.8" cy="648.8" fill="#ADD1B2" rx="8.8" ry="8.8" style="stroke:#181818;stroke-width:0.8000000000000002;"/><path d="M463.0125,645.5 Q463.1375,645.325 463.2875,645.2375 Q463.4375,645.15 463.6125,645.15 Q463.9125,645.15 464.1,645.3625 Q464.2875,645.5625 464.2875,646.05 L464.2875,647.2125 Q464.2875,647.7 464.1,647.9125 Q463.9125,648.125 463.6125,648.125 Q463.3375,648.125 463.175,647.9625 Q463.0125,647.8125 462.925,647.4 Q462.8875,647.1125 462.7375,646.9625 Q462.475,646.6625 461.9875,646.4875 Q461.5,646.3125 461,646.3125 Q460.3875,646.3125 459.875,646.575 Q459.375,646.8375 458.975,647.4375 Q458.5875,648.0375 458.5875,648.8625 L458.5875,649.7375 Q458.5875,650.725 459.3,651.3875 Q460.0125,652.0375 461.2875,652.0375 Q462.0375,652.0375 462.5625,651.8375 Q462.875,651.7125 463.2125,651.3625 Q463.425,651.15 463.5375,651.0875 Q463.6625,651.025 463.825,651.025 Q464.0875,651.025 464.2875,651.2375 Q464.5,651.4375 464.5,651.7125 Q464.5,651.9875 464.225,652.3125 Q463.825,652.775 463.1875,653.0375 Q462.325,653.4 461.2875,653.4 Q460.075,653.4 459.1125,652.9 Q458.325,652.5 457.775,651.65 Q457.225,650.7875 457.225,649.7625 L457.225,648.8375 Q457.225,647.775 457.7125,646.8625 Q458.2125,645.9375 459.0875,645.45 Q459.9625,644.95 460.95,644.95 Q461.5375,644.95 462.05,645.0875 Q462.575,645.2125 463.0125,645.5 Z " fill="#000000"/><text fill="#000000" font-family="sans-serif" font-size="11.2" lengthAdjust="spacing" textLength="63.2" x="472" y="653.4375">UserSession</text><line style="stroke:#181818;stroke-width:0.4000000000000001;" x1="449.6" x2="536.8" y1="661.6" y2="661.6"/><line style="stroke:#181818;stroke-width:0.4000000000000001;" x1="449.6" x2="536.8" y1="668" y2="668"/><text fill="#000000" font-family="sans-serif" font-size="11.2" lengthAdjust="spacing" textLength="62.4" x="453.6" y="683.2859">+getUserId()</text></g><!--class EmailService--><g id="elem_EmailService"><rect codeLine="62" fill="#F1F1F1" height="53.2969" id="EmailService" rx="2" ry="2" style="stroke:#181818;stroke-width:0.4000000000000001;" width="275.2" x="688.4" y="343.2"/><ellipse cx="790.2" cy="356" fill="#ADD1B2" rx="8.8" ry="8.8" style="stroke:#181818;stroke-width:0.8000000000000002;"/><path d="M792.4125,352.7 Q792.5375,352.525 792.6875,352.4375 Q792.8375,352.35 793.0125,352.35 Q793.3125,352.35 793.5,352.5625 Q793.6875,352.7625 793.6875,353.25 L793.6875,354.4125 Q793.6875,354.9 793.5,355.1125 Q793.3125,355.325 793.0125,355.325 Q792.7375,355.325 792.575,355.1625 Q792.4125,355.0125 792.325,354.6 Q792.2875,354.3125 792.1375,354.1625 Q791.875,353.8625 791.3875,353.6875 Q790.9,353.5125 790.4,353.5125 Q789.7875,353.5125 789.275,353.775 Q788.775,354.0375 788.375,354.6375 Q787.9875,355.2375 787.9875,356.0625 L787.9875,356.9375 Q787.9875,357.925 788.7,358.5875 Q789.4125,359.2375 790.6875,359.2375 Q791.4375,359.2375 791.9625,359.0375 Q792.275,358.9125 792.6125,358.5625 Q792.825,358.35 792.9375,358.2875 Q793.0625,358.225 793.225,358.225 Q793.4875,358.225 793.6875,358.4375 Q793.9,358.6375 793.9,358.9125 Q793.9,359.1875 793.625,359.5125 Q793.225,359.975 792.5875,360.2375 Q791.725,360.6 790.6875,360.6 Q789.475,360.6 788.5125,360.1 Q787.725,359.7 787.175,358.85 Q786.625,357.9875 786.625,356.9625 L786.625,356.0375 Q786.625,354.975 787.1125,354.0625 Q787.6125,353.1375 788.4875,352.65 Q789.3625,352.15 790.35,352.15 Q790.9375,352.15 791.45,352.2875 Q791.975,352.4125 792.4125,352.7 Z " fill="#000000"/><text fill="#000000" font-family="sans-serif" font-size="11.2" lengthAdjust="spacing" textLength="64.8" x="806.6" y="360.6375">EmailService</text><line style="stroke:#181818;stroke-width:0.4000000000000001;" x1="689.2" x2="962.8" y1="368.8" y2="368.8"/><line style="stroke:#181818;stroke-width:0.4000000000000001;" x1="689.2" x2="962.8" y1="375.2" y2="375.2"/><text fill="#000000" font-family="sans-serif" font-size="11.2" lengthAdjust="spacing" textLength="265.6" x="693.2" y="390.4859">+sendToEmailFile(from, to, nameCollaborator, entry)</text></g><!--class ApplicationSession--><g id="elem_ApplicationSession"><rect codeLine="66" fill="#F1F1F1" height="68.1938" id="ApplicationSession" rx="2" ry="2" style="stroke:#181818;stroke-width:0.4000000000000001;" width="120.8" x="765.6" y="475.2"/><ellipse cx="777.6" cy="488" fill="#ADD1B2" rx="8.8" ry="8.8" style="stroke:#181818;stroke-width:0.8000000000000002;"/><path d="M779.8125,484.7 Q779.9375,484.525 780.0875,484.4375 Q780.2375,484.35 780.4125,484.35 Q780.7125,484.35 780.9,484.5625 Q781.0875,484.7625 781.0875,485.25 L781.0875,486.4125 Q781.0875,486.9 780.9,487.1125 Q780.7125,487.325 780.4125,487.325 Q780.1375,487.325 779.975,487.1625 Q779.8125,487.0125 779.725,486.6 Q779.6875,486.3125 779.5375,486.1625 Q779.275,485.8625 778.7875,485.6875 Q778.3,485.5125 777.8,485.5125 Q777.1875,485.5125 776.675,485.775 Q776.175,486.0375 775.775,486.6375 Q775.3875,487.2375 775.3875,488.0625 L775.3875,488.9375 Q775.3875,489.925 776.1,490.5875 Q776.8125,491.2375 778.0875,491.2375 Q778.8375,491.2375 779.3625,491.0375 Q779.675,490.9125 780.0125,490.5625 Q780.225,490.35 780.3375,490.2875 Q780.4625,490.225 780.625,490.225 Q780.8875,490.225 781.0875,490.4375 Q781.3,490.6375 781.3,490.9125 Q781.3,491.1875 781.025,491.5125 Q780.625,491.975 779.9875,492.2375 Q779.125,492.6 778.0875,492.6 Q776.875,492.6 775.9125,492.1 Q775.125,491.7 774.575,490.85 Q774.025,489.9875 774.025,488.9625 L774.025,488.0375 Q774.025,486.975 774.5125,486.0625 Q775.0125,485.1375 775.8875,484.65 Q776.7625,484.15 777.75,484.15 Q778.3375,484.15 778.85,484.2875 Q779.375,484.4125 779.8125,484.7 Z " fill="#000000"/><text fill="#000000" font-family="sans-serif" font-size="11.2" lengthAdjust="spacing" textLength="95.2" x="788.8" y="492.6375">ApplicationSession</text><line style="stroke:#181818;stroke-width:0.4000000000000001;" x1="766.4" x2="885.6" y1="500.8" y2="500.8"/><line style="stroke:#181818;stroke-width:0.4000000000000001;" x1="766.4" x2="885.6" y1="507.2" y2="507.2"/><text fill="#000000" font-family="sans-serif" font-size="11.2" lengthAdjust="spacing" textLength="55.2" x="770.4" y="522.4859">-getEmail()</text><text fill="#000000" font-family="sans-serif" font-size="11.2" lengthAdjust="spacing" textLength="95.2" x="770.4" y="537.3828">+getEmailService()</text></g><!--class Email--><g id="elem_Email"><rect codeLine="71" fill="#F1F1F1" height="53.2969" id="Email" rx="2" ry="2" style="stroke:#181818;stroke-width:0.4000000000000001;" width="188" x="925.6" y="636"/><ellipse cx="1002.6" cy="648.8" fill="#B4A7E5" rx="8.8" ry="8.8" style="stroke:#181818;stroke-width:0.8000000000000002;"/><path d="M1003.3625,646.1125 L1003.3625,651.4375 L1004.7375,651.4375 Q1005.225,651.4375 1005.4375,651.625 Q1005.65,651.8125 1005.65,652.125 Q1005.65,652.425 1005.4375,652.6125 Q1005.225,652.8 1004.7375,652.8 L1000.625,652.8 Q1000.1375,652.8 999.925,652.6125 Q999.7125,652.425 999.7125,652.1125 Q999.7125,651.8125 999.925,651.625 Q1000.1375,651.4375 1000.625,651.4375 L1002,651.4375 L1002,646.1125 L1000.625,646.1125 Q1000.1375,646.1125 999.925,645.925 Q999.7125,645.7375 999.7125,645.425 Q999.7125,645.125 999.925,644.9375 Q1000.1375,644.75 1000.625,644.75 L1004.7375,644.75 Q1005.225,644.75 1005.4375,644.9375 Q1005.65,645.125 1005.65,645.425 Q1005.65,645.7375 1005.4375,645.925 Q1005.225,646.1125 1004.7375,646.1125 L1003.3625,646.1125 Z " fill="#000000"/><text fill="#000000" font-family="sans-serif" font-size="11.2" font-style="italic" lengthAdjust="spacing" textLength="27.2" x="1019" y="653.4375">Email</text><line style="stroke:#181818;stroke-width:0.4000000000000001;" x1="926.4" x2="1112.8" y1="661.6" y2="661.6"/><line style="stroke:#181818;stroke-width:0.4000000000000001;" x1="926.4" x2="1112.8" y1="668" y2="668"/><text fill="#000000" font-family="sans-serif" font-size="11.2" lengthAdjust="spacing" textLength="178.4" x="930.4" y="683.2859">+sendEmail(from, to, subject, body)</text></g><!--class DeiService--><g id="elem_DeiService"><rect codeLine="75" fill="#F1F1F1" height="68.1938" id="DeiService" rx="2" ry="2" style="stroke:#181818;stroke-width:0.4000000000000001;" width="209.6" x="914.8" y="475.2"/><ellipse cx="989" cy="488" fill="#ADD1B2" rx="8.8" ry="8.8" style="stroke:#181818;stroke-width:0.8000000000000002;"/><path d="M991.2125,484.7 Q991.3375,484.525 991.4875,484.4375 Q991.6375,484.35 991.8125,484.35 Q992.1125,484.35 992.3,484.5625 Q992.4875,484.7625 992.4875,485.25 L992.4875,486.4125 Q992.4875,486.9 992.3,487.1125 Q992.1125,487.325 991.8125,487.325 Q991.5375,487.325 991.375,487.1625 Q991.2125,487.0125 991.125,486.6 Q991.0875,486.3125 990.9375,486.1625 Q990.675,485.8625 990.1875,485.6875 Q989.7,485.5125 989.2,485.5125 Q988.5875,485.5125 988.075,485.775 Q987.575,486.0375 987.175,486.6375 Q986.7875,487.2375 986.7875,488.0625 L986.7875,488.9375 Q986.7875,489.925 987.5,490.5875 Q988.2125,491.2375 989.4875,491.2375 Q990.2375,491.2375 990.7625,491.0375 Q991.075,490.9125 991.4125,490.5625 Q991.625,490.35 991.7375,490.2875 Q991.8625,490.225 992.025,490.225 Q992.2875,490.225 992.4875,490.4375 Q992.7,490.6375 992.7,490.9125 Q992.7,491.1875 992.425,491.5125 Q992.025,491.975 991.3875,492.2375 Q990.525,492.6 989.4875,492.6 Q988.275,492.6 987.3125,492.1 Q986.525,491.7 985.975,490.85 Q985.425,489.9875 985.425,488.9625 L985.425,488.0375 Q985.425,486.975 985.9125,486.0625 Q986.4125,485.1375 987.2875,484.65 Q988.1625,484.15 989.15,484.15 Q989.7375,484.15 990.25,484.2875 Q990.775,484.4125 991.2125,484.7 Z " fill="#000000"/><text fill="#000000" font-family="sans-serif" font-size="11.2" lengthAdjust="spacing" textLength="54.4" x="1005.4" y="492.6375">DeiService</text><line style="stroke:#181818;stroke-width:0.4000000000000001;" x1="915.6" x2="1123.6" y1="500.8" y2="500.8"/><line style="stroke:#181818;stroke-width:0.4000000000000001;" x1="915.6" x2="1123.6" y1="507.2" y2="507.2"/><text fill="#000000" font-family="sans-serif" font-size="11.2" lengthAdjust="spacing" textLength="178.4" x="919.6" y="522.4859">+sendEmail(from, to, subject, body)</text><text fill="#000000" font-family="sans-serif" font-size="11.2" lengthAdjust="spacing" textLength="200" x="919.6" y="537.3828">-writeToFile(file, from, to, subject, body)</text></g><!--class GmailService--><g id="elem_GmailService"><rect codeLine="80" fill="#F1F1F1" height="68.1938" id="GmailService" rx="2" ry="2" style="stroke:#181818;stroke-width:0.4000000000000001;" width="209.6" x="1152.4" y="475.2"/><ellipse cx="1220.6" cy="488" fill="#ADD1B2" rx="8.8" ry="8.8" style="stroke:#181818;stroke-width:0.8000000000000002;"/><path d="M1222.8125,484.7 Q1222.9375,484.525 1223.0875,484.4375 Q1223.2375,484.35 1223.4125,484.35 Q1223.7125,484.35 1223.9,484.5625 Q1224.0875,484.7625 1224.0875,485.25 L1224.0875,486.4125 Q1224.0875,486.9 1223.9,487.1125 Q1223.7125,487.325 1223.4125,487.325 Q1223.1375,487.325 1222.975,487.1625 Q1222.8125,487.0125 1222.725,486.6 Q1222.6875,486.3125 1222.5375,486.1625 Q1222.275,485.8625 1221.7875,485.6875 Q1221.3,485.5125 1220.8,485.5125 Q1220.1875,485.5125 1219.675,485.775 Q1219.175,486.0375 1218.775,486.6375 Q1218.3875,487.2375 1218.3875,488.0625 L1218.3875,488.9375 Q1218.3875,489.925 1219.1,490.5875 Q1219.8125,491.2375 1221.0875,491.2375 Q1221.8375,491.2375 1222.3625,491.0375 Q1222.675,490.9125 1223.0125,490.5625 Q1223.225,490.35 1223.3375,490.2875 Q1223.4625,490.225 1223.625,490.225 Q1223.8875,490.225 1224.0875,490.4375 Q1224.3,490.6375 1224.3,490.9125 Q1224.3,491.1875 1224.025,491.5125 Q1223.625,491.975 1222.9875,492.2375 Q1222.125,492.6 1221.0875,492.6 Q1219.875,492.6 1218.9125,492.1 Q1218.125,491.7 1217.575,490.85 Q1217.025,489.9875 1217.025,488.9625 L1217.025,488.0375 Q1217.025,486.975 1217.5125,486.0625 Q1218.0125,485.1375 1218.8875,484.65 Q1219.7625,484.15 1220.75,484.15 Q1221.3375,484.15 1221.85,484.2875 Q1222.375,484.4125 1222.8125,484.7 Z " fill="#000000"/><text fill="#000000" font-family="sans-serif" font-size="11.2" lengthAdjust="spacing" textLength="66.4" x="1237" y="492.6375">GmailService</text><line style="stroke:#181818;stroke-width:0.4000000000000001;" x1="1153.2" x2="1361.2" y1="500.8" y2="500.8"/><line style="stroke:#181818;stroke-width:0.4000000000000001;" x1="1153.2" x2="1361.2" y1="507.2" y2="507.2"/><text fill="#000000" font-family="sans-serif" font-size="11.2" lengthAdjust="spacing" textLength="178.4" x="1157.2" y="522.4859">+sendEmail(from, to, subject, body)</text><text fill="#000000" font-family="sans-serif" font-size="11.2" lengthAdjust="spacing" textLength="200" x="1157.2" y="537.3828">-writeToFile(file, from, to, subject, body)</text></g><!--link AssignTeamUI to AssignTeamController--><g id="link_AssignTeamUI_AssignTeamController"><path codeLine="86" d="M414,44.288 C414,56.92 414,69.752 414,87.848 " fill="none" id="AssignTeamUI-to-AssignTeamController" style="stroke:#181818;stroke-width:0.8000000000000002;stroke-dasharray:7.0,7.0;"/><polygon fill="#181818" points="414,92.648,417.2,85.448,414,88.648,410.8,85.448,414,92.648" style="stroke:#181818;stroke-width:0.8000000000000002;"/></g><!--link AssignTeamController to Repositories--><g id="link_AssignTeamController_Repositories"><path codeLine="87" d="M333.712,250.464 C312.08,271.496 292.5617,290.4781 272.4497,310.0301 " fill="none" id="AssignTeamController-to-Repositories" style="stroke:#181818;stroke-width:0.8000000000000002;stroke-dasharray:7.0,7.0;"/><polygon fill="#181818" points="269.008,313.376,276.4011,310.6517,271.8761,310.5878,271.94,306.0628,269.008,313.376" style="stroke:#181818;stroke-width:0.8000000000000002;"/><text fill="#000000" font-family="sans-serif" font-size="10.4" lengthAdjust="spacing" textLength="53.6" x="307.6" y="286.4227">repositories</text></g><!--link AssignTeamController to Agenda--><g id="link_AssignTeamController_Agenda"><path codeLine="88" d="M236.584,247.136 C156.184,281 78.8,313.6 78.8,313.6 C78.8,313.6 78.8,426.4 78.8,426.4 C78.8,426.4 82.761,453.4826 86.273,477.4826 " fill="none" id="AssignTeamController-to-Agenda" style="stroke:#181818;stroke-width:0.8000000000000002;stroke-dasharray:7.0,7.0;"/><polygon fill="#181818" points="86.968,482.232,89.0918,474.6445,86.3888,478.2742,82.7592,475.5712,86.968,482.232" style="stroke:#181818;stroke-width:0.8000000000000002;"/><text fill="#000000" font-family="sans-serif" font-size="10.4" lengthAdjust="spacing" textLength="33.6" x="79.6" y="374.4227">agenda</text></g><!--link AssignTeamController to TeamRepository--><g id="link_AssignTeamController_TeamRepository"><path codeLine="89" d="M400.936,250.68 C388.472,325.312 371.6,426.4 371.6,426.4 C371.6,426.4 340.9515,454.9594 315.1995,478.9594 " fill="none" id="AssignTeamController-to-TeamRepository" style="stroke:#181818;stroke-width:0.8000000000000002;stroke-dasharray:7.0,7.0;"/><polygon fill="#181818" points="311.688,482.232,319.1369,479.6641,314.6142,479.5049,314.7735,474.9822,311.688,482.232" style="stroke:#181818;stroke-width:0.8000000000000002;"/><text fill="#000000" font-family="sans-serif" font-size="10.4" lengthAdjust="spacing" textLength="72.8" x="391.6" y="374.4227">teamRepository</text></g><!--link AssignTeamController to AuthenticationRepository--><g id="link_AssignTeamController_AuthenticationRepository"><path codeLine="90" d="M458.656,250.432 C477.344,283.088 494.8,313.6 494.8,313.6 C494.8,313.6 494.8,426.4 494.8,426.4 C494.8,426.4 494.2688,453.4329 493.8048,477.4329 " fill="none" id="AssignTeamController-to-AuthenticationRepository" style="stroke:#181818;stroke-width:0.8000000000000002;stroke-dasharray:7.0,7.0;"/><polygon fill="#181818" points="493.712,482.232,497.0506,475.0952,493.7893,478.2327,490.6518,474.9715,493.712,482.232" style="stroke:#181818;stroke-width:0.8000000000000002;"/><text fill="#000000" font-family="sans-serif" font-size="10.4" lengthAdjust="spacing" textLength="114.4" x="495.6" y="374.4227">authenticationRepository</text></g><!--link AuthenticationRepository to UserSession--><g id="link_AuthenticationRepository_UserSession"><path codeLine="91" d="M493.2,536.128 C493.2,564.056 493.2,603.264 493.2,631.16 " fill="none" id="AuthenticationRepository-to-UserSession" style="stroke:#181818;stroke-width:0.8000000000000002;stroke-dasharray:7.0,7.0;"/><polygon fill="#181818" points="493.2,635.96,496.4,628.76,493.2,631.96,490,628.76,493.2,635.96" style="stroke:#181818;stroke-width:0.8000000000000002;"/></g><!--link Repositories to Repositories--><g id="link_Repositories_Repositories"><path codeLine="92" d="M295.008,355.664 C311.264,357.328 322.8,362.112 322.8,370 C322.8,377.888 316.039,382.1832 299.783,383.8472 " fill="none" id="Repositories-to-Repositories" style="stroke:#181818;stroke-width:0.8000000000000002;"/><polygon fill="#181818" points="295.008,384.336,302.4964,386.7862,298.9872,383.9287,301.8447,380.4195,295.008,384.336" style="stroke:#181818;stroke-width:0.8000000000000002;"/><text fill="#000000" font-family="sans-serif" font-size="10.4" lengthAdjust="spacing" textLength="39.2" x="327.6" y="374.4227">instance</text></g><!--link Repositories to Agenda--><g id="link_Repositories_Agenda"><path codeLine="93" d="M162.464,426.768 C145.616,445.96 130.7112,462.9372 116.9352,478.6252 " fill="none" id="Repositories-to-Agenda" style="stroke:#181818;stroke-width:0.8000000000000002;"/><polygon fill="#181818" points="113.768,482.232,120.9233,478.9333,116.4073,479.2264,116.1143,474.7104,113.768,482.232" style="stroke:#181818;stroke-width:0.8000000000000002;"/><text fill="#000000" font-family="sans-serif" font-size="10.4" lengthAdjust="spacing" textLength="5.6" x="112.0125" y="473.4687">1</text></g><!--link Repositories to TeamRepository--><g id="link_Repositories_TeamRepository"><path codeLine="94" d="M240.888,426.768 C250.928,445.96 259.4691,462.2918 267.6851,477.9798 " fill="none" id="Repositories-to-TeamRepository" style="stroke:#181818;stroke-width:0.8000000000000002;"/><polygon fill="#181818" points="269.912,482.232,269.4064,474.3692,268.0562,478.6885,263.7369,477.3384,269.912,482.232" style="stroke:#181818;stroke-width:0.8000000000000002;"/><text fill="#000000" font-family="sans-serif" font-size="10.4" lengthAdjust="spacing" textLength="5.6" x="261.169" y="473.4687">1</text></g><!--link Repositories to AuthenticationRepository--><g id="link_Repositories_AuthenticationRepository"><path codeLine="95" d="M294.944,411.528 C341.816,434.432 394.6232,460.237 435.4952,480.205 " fill="none" id="Repositories-to-AuthenticationRepository" style="stroke:#181818;stroke-width:0.8000000000000002;"/><polygon fill="#181818" points="439.808,482.312,434.7435,476.2762,436.214,480.5561,431.9341,482.0267,439.808,482.312" style="stroke:#181818;stroke-width:0.8000000000000002;"/><text fill="#000000" font-family="sans-serif" font-size="10.4" lengthAdjust="spacing" textLength="5.6" x="423.1452" y="473.3551">1</text></g><!--link Agenda to Entry--><g id="link_Agenda_Entry"><path codeLine="96" d="M95.888,536.128 C99.64,555.4 103.9616,577.6087 108.6416,601.6167 " fill="none" id="Agenda-to-Entry" style="stroke:#181818;stroke-width:0.8000000000000002;"/><polygon fill="#181818" points="109.56,606.328,111.3233,598.6488,108.7947,602.4019,105.0415,599.8733,109.56,606.328" style="stroke:#181818;stroke-width:0.8000000000000002;"/><text fill="#000000" font-family="sans-serif" font-size="10.4" lengthAdjust="spacing" textLength="4" x="104.2359" y="597.4334">*</text></g><!--link TeamRepository to Team--><g id="link_TeamRepository_Team"><path codeLine="97" d="M274.928,536.096 C257.312,589.08 218.906,704.605 199.426,763.213 " fill="none" id="TeamRepository-to-Team" style="stroke:#181818;stroke-width:0.8000000000000002;"/><polygon fill="#181818" points="197.912,767.768,203.2196,761.9448,199.1736,763.9722,197.1463,759.9262,197.912,767.768" style="stroke:#181818;stroke-width:0.8000000000000002;"/><text fill="#000000" font-family="sans-serif" font-size="10.4" lengthAdjust="spacing" textLength="4" x="195.3073" y="759.1106">*</text></g><!--link Entry to Team--><g id="link_Entry_Team"><path codeLine="98" d="M147.408,719.568 C155.304,735.936 161.5998,748.99 168.5998,763.478 " fill="none" id="Entry-to-Team" style="stroke:#181818;stroke-width:0.8000000000000002;"/><polygon fill="#181818" points="170.688,767.8,170.437,759.9249,168.9478,764.1984,164.6744,762.7092,170.688,767.8" style="stroke:#181818;stroke-width:0.8000000000000002;"/><text fill="#000000" font-family="sans-serif" font-size="10.4" lengthAdjust="spacing" textLength="5.6" x="162.0739" y="758.8914">1</text></g><!--link AssignTeamController to EmailService--><g id="link_AssignTeamController_EmailService"><path codeLine="99" d="M577.424,250.464 C646.4,283.408 717.6927,317.4673 767.2047,341.1153 " fill="none" id="AssignTeamController-to-EmailService" style="stroke:#181818;stroke-width:0.8000000000000002;stroke-dasharray:7.0,7.0;"/><polygon fill="#181818" points="771.536,343.184,766.4182,337.1934,767.9266,341.4601,763.6599,342.9684,771.536,343.184" style="stroke:#181818;stroke-width:0.8000000000000002;"/></g><!--link EmailService to ApplicationSession--><g id="link_EmailService_ApplicationSession"><path codeLine="100" d="M826,397.008 C826,419.152 826,446.2 826,470.176 " fill="none" id="EmailService-to-ApplicationSession" style="stroke:#181818;stroke-width:0.8000000000000002;stroke-dasharray:7.0,7.0;"/><polygon fill="#181818" points="826,474.976,829.2,467.776,826,470.976,822.8,467.776,826,474.976" style="stroke:#181818;stroke-width:0.8000000000000002;"/></g><!--link ApplicationSession to Email--><g id="link_ApplicationSession_Email"><path codeLine="101" d="M868.488,543.36 C903.88,571.144 949.8244,607.2201 982.4244,632.8121 " fill="none" id="ApplicationSession-to-Email" style="stroke:#181818;stroke-width:0.8000000000000002;"/><polygon fill="#181818" points="986.2,635.776,982.5126,628.813,983.0537,633.306,978.5607,633.8471,986.2,635.776" style="stroke:#181818;stroke-width:0.8000000000000002;"/><text fill="#000000" font-family="sans-serif" font-size="10.4" lengthAdjust="spacing" textLength="39.2" x="918" y="579.2227">instance</text></g><!--link DeiService to Email--><g id="link_DeiService_Email"><path codeLine="102" d="M1019.6,543.36 C1019.6,571.144 1019.6,605.384 1019.6,630.976 " fill="none" id="DeiService-to-Email" style="stroke:#181818;stroke-width:0.8000000000000002;stroke-dasharray:7.0,7.0;"/><polygon fill="#181818" points="1019.6,635.776,1022.8,628.576,1019.6,631.776,1016.4,628.576,1019.6,635.776" style="stroke:#181818;stroke-width:0.8000000000000002;"/></g><!--link GmailService to Email--><g id="link_GmailService_Email"><path codeLine="103" d="M1205.056,543.36 C1161.616,571.144 1104.6435,607.5975 1064.6355,633.1895 " fill="none" id="GmailService-to-Email" style="stroke:#181818;stroke-width:0.8000000000000002;stroke-dasharray:7.0,7.0;"/><polygon fill="#181818" points="1060.592,635.776,1068.3816,634.5919,1063.9616,633.6206,1064.9329,629.2006,1060.592,635.776" style="stroke:#181818;stroke-width:0.8000000000000002;"/></g><!--SRC=[hLNDRjf04BxlKwnoWJGcQg-eYaGXGKZjfP07MCm0MyokjJiqfLNVlREx68_1Jd8e1uDdlfdvvfUUtsbJAgVsSc-DpRVExa6YEu2eDQNATse3SpmM81tagCocu02_LIlxeir6hbNXkQRG1l1OWYnjSGmlejUYj0wjO5PveRmV8JgzF23CSclc-ZV8ZqBq2bYZH2kTtcnHhdIWewqH8jh8aVTwOnQWziyp-KVylPQFhK5dYm8SwILzxjfqVShNh5H6eIRsg_QOINN0BHZKkGe1lqDflKRhZhV9YpfxMTX7SdCykPYP5VmYFwI8FnDyi06Cg2_7AENW6X6yLO0B1tSd1nfyeDUlfS68omQUF2-syBXNkbZOeEwlgSqXjqmQjOSnfQoMrYbA9vCGQDKSflDlJuIU0-Ld3VciQnefLrLyDQ6pJOISJ0OJXI0zAeSqEk4bYPFVEIey-A2chwHOAB-JI8yKCLMPssTHUzMGMBlKPKObQEekiZGwgjumh588TVxCw_SWS_QMY4SE3J7pTgP0dQoyDeHLQoLHcnbAr-JGlvN31gY6fEfnesQYN3Fg6Eb6bpimh63ZWtC4UVRWMiQ4YPbDaCvM71VdSmxkfywX0iRHjL7pf0jupzpMnCkoEB5kXe-x5roofU714obj4DnQ4PUeuuoISSt57vO_w0nbScbNdC44T4i-RrX7XYzE8oniofaUcNmxshIZVly_dcXSsVlxXzRpAbflRa3pmHtI7meRuqwRDDP3cSvADwuvxCDuT-ltL_ntZFcmy-wBpiq8_jZKYyQA3mQN1T2dfRx6tNowEINUhcicss7VIJ-TxuZxS9CkixWuYfKoY4MwtJnsTpdvFed6PiTYNwscQDdM42cQiXAnbJg74TDB_qdy3m00]--></g></svg>