<?xml version="1.0" encoding="us-ascii" standalone="no"?><svg xmlns="http://www.w3.org/2000/svg" xmlns:xlink="http://www.w3.org/1999/xlink" contentStyleType="text/css" height="864px" preserveAspectRatio="none" style="width:436px;height:864px;background:#FFFFFF;" version="1.1" viewBox="0 0 436 864" width="436.5px" zoomAndPan="magnify"><defs/><g><!--class AssignTeamUI--><g id="elem_AssignTeamUI"><rect codeLine="11" fill="#F1F1F1" height="43.2" id="AssignTeamUI" rx="2.25" ry="2.25" style="stroke:#181818;stroke-width:0.45;" width="109.8" x="93.6" y="6.3"/><ellipse cx="107.1" cy="20.7" fill="#ADD1B2" rx="9.9" ry="9.9" style="stroke:#181818;stroke-width:0.9;"/><path d="M109.5891,16.9875 Q109.7297,16.7906 109.8984,16.6922 Q110.0672,16.5938 110.2641,16.5938 Q110.6016,16.5938 110.8125,16.8328 Q111.0234,17.0578 111.0234,17.6063 L111.0234,18.9141 Q111.0234,19.4625 110.8125,19.7016 Q110.6016,19.9406 110.2641,19.9406 Q109.9547,19.9406 109.7719,19.7578 Q109.5891,19.5891 109.4906,19.125 Q109.4484,18.8016 109.2797,18.6328 Q108.9844,18.2953 108.4359,18.0984 Q107.8875,17.9016 107.325,17.9016 Q106.6359,17.9016 106.0594,18.1969 Q105.4969,18.4922 105.0469,19.1672 Q104.6109,19.8422 104.6109,20.7703 L104.6109,21.7547 Q104.6109,22.8656 105.4125,23.6109 Q106.2141,24.3422 107.6484,24.3422 Q108.4922,24.3422 109.0828,24.1172 Q109.4344,23.9766 109.8141,23.5828 Q110.0531,23.3438 110.1797,23.2734 Q110.3203,23.2031 110.5031,23.2031 Q110.7984,23.2031 111.0234,23.4422 Q111.2625,23.6672 111.2625,23.9766 Q111.2625,24.2859 110.9531,24.6516 Q110.5031,25.1719 109.7859,25.4672 Q108.8156,25.875 107.6484,25.875 Q106.2844,25.875 105.2016,25.3125 Q104.3156,24.8625 103.6969,23.9063 Q103.0781,22.9359 103.0781,21.7828 L103.0781,20.7422 Q103.0781,19.5469 103.6266,18.5203 Q104.1891,17.4797 105.1734,16.9313 Q106.1578,16.3688 107.2688,16.3688 Q107.9297,16.3688 108.5063,16.5234 Q109.0969,16.6641 109.5891,16.9875 Z " fill="#000000"/><text fill="#000000" font-family="sans-serif" font-size="12.6" lengthAdjust="spacing" textLength="81" x="119.7" y="25.9172">AssignTeamUI</text><line style="stroke:#181818;stroke-width:0.45;" x1="94.5" x2="202.5" y1="35.1" y2="35.1"/><line style="stroke:#181818;stroke-width:0.45;" x1="94.5" x2="202.5" y1="42.3" y2="42.3"/></g><!--class AssignTeamController--><g id="elem_AssignTeamController"><rect codeLine="14" fill="#F1F1F1" height="143.7539" id="AssignTeamController" rx="2.25" ry="2.25" style="stroke:#181818;stroke-width:0.45;" width="279" x="9" y="104.4"/><ellipse cx="81.675" cy="118.8" fill="#ADD1B2" rx="9.9" ry="9.9" style="stroke:#181818;stroke-width:0.9;"/><path d="M84.1641,115.0875 Q84.3047,114.8906 84.4734,114.7922 Q84.6422,114.6938 84.8391,114.6938 Q85.1766,114.6938 85.3875,114.9328 Q85.5984,115.1578 85.5984,115.7063 L85.5984,117.0141 Q85.5984,117.5625 85.3875,117.8016 Q85.1766,118.0406 84.8391,118.0406 Q84.5297,118.0406 84.3469,117.8578 Q84.1641,117.6891 84.0656,117.225 Q84.0234,116.9016 83.8547,116.7328 Q83.5594,116.3953 83.0109,116.1984 Q82.4625,116.0016 81.9,116.0016 Q81.2109,116.0016 80.6344,116.2969 Q80.0719,116.5922 79.6219,117.2672 Q79.1859,117.9422 79.1859,118.8703 L79.1859,119.8547 Q79.1859,120.9656 79.9875,121.7109 Q80.7891,122.4422 82.2234,122.4422 Q83.0672,122.4422 83.6578,122.2172 Q84.0094,122.0766 84.3891,121.6828 Q84.6281,121.4438 84.7547,121.3734 Q84.8953,121.3031 85.0781,121.3031 Q85.3734,121.3031 85.5984,121.5422 Q85.8375,121.7672 85.8375,122.0766 Q85.8375,122.3859 85.5281,122.7516 Q85.0781,123.2719 84.3609,123.5672 Q83.3906,123.975 82.2234,123.975 Q80.8594,123.975 79.7766,123.4125 Q78.8906,122.9625 78.2719,122.0063 Q77.6531,121.0359 77.6531,119.8828 L77.6531,118.8422 Q77.6531,117.6469 78.2016,116.6203 Q78.7641,115.5797 79.7484,115.0313 Q80.7328,114.4688 81.8438,114.4688 Q82.5047,114.4688 83.0813,114.6234 Q83.6719,114.7641 84.1641,115.0875 Z " fill="#000000"/><text fill="#000000" font-family="sans-serif" font-size="12.6" lengthAdjust="spacing" textLength="126" x="100.125" y="124.0172">AssignTeamController</text><line style="stroke:#181818;stroke-width:0.45;" x1="9.9" x2="287.1" y1="133.2" y2="133.2"/><line style="stroke:#181818;stroke-width:0.45;" x1="9.9" x2="287.1" y1="140.4" y2="140.4"/><text fill="#000000" font-family="sans-serif" font-size="12.6" lengthAdjust="spacing" textLength="239.4" x="14.4" y="157.5967">+AssignTeamController(agenda, toDoList)</text><text fill="#000000" font-family="sans-serif" font-size="12.6" lengthAdjust="spacing" textLength="268.2" x="14.4" y="174.3557">+assignTeamToEntry(agendaIndex, teamIndex)</text><text fill="#000000" font-family="sans-serif" font-size="12.6" lengthAdjust="spacing" textLength="178.2" x="14.4" y="191.1146">-getEntryByIndex(agendaIndex)</text><text fill="#000000" font-family="sans-serif" font-size="12.6" lengthAdjust="spacing" textLength="165.6" x="14.4" y="207.8736">-getTeamByIndex(teamIndex)</text><text fill="#000000" font-family="sans-serif" font-size="12.6" lengthAdjust="spacing" textLength="93.6" x="14.4" y="224.6326">+getEntriesList()</text><text fill="#000000" font-family="sans-serif" font-size="12.6" lengthAdjust="spacing" textLength="92.7" x="14.4" y="241.3916">+getTeamsList()</text></g><!--class Agenda--><g id="elem_Agenda"><rect codeLine="23" fill="#F1F1F1" height="59.959" id="Agenda" rx="2.25" ry="2.25" style="stroke:#181818;stroke-width:0.45;" width="191.7" x="28.35" y="484.2"/><ellipse cx="98.325" cy="498.6" fill="#ADD1B2" rx="9.9" ry="9.9" style="stroke:#181818;stroke-width:0.9;"/><path d="M100.8141,494.8875 Q100.9547,494.6906 101.1234,494.5922 Q101.2922,494.4938 101.4891,494.4938 Q101.8266,494.4938 102.0375,494.7328 Q102.2484,494.9578 102.2484,495.5063 L102.2484,496.8141 Q102.2484,497.3625 102.0375,497.6016 Q101.8266,497.8406 101.4891,497.8406 Q101.1797,497.8406 100.9969,497.6578 Q100.8141,497.4891 100.7156,497.025 Q100.6734,496.7016 100.5047,496.5328 Q100.2094,496.1953 99.6609,495.9984 Q99.1125,495.8016 98.55,495.8016 Q97.8609,495.8016 97.2844,496.0969 Q96.7219,496.3922 96.2719,497.0672 Q95.8359,497.7422 95.8359,498.6703 L95.8359,499.6547 Q95.8359,500.7656 96.6375,501.5109 Q97.4391,502.2422 98.8734,502.2422 Q99.7172,502.2422 100.3078,502.0172 Q100.6594,501.8766 101.0391,501.4828 Q101.2781,501.2438 101.4047,501.1734 Q101.5453,501.1031 101.7281,501.1031 Q102.0234,501.1031 102.2484,501.3422 Q102.4875,501.5672 102.4875,501.8766 Q102.4875,502.1859 102.1781,502.5516 Q101.7281,503.0719 101.0109,503.3672 Q100.0406,503.775 98.8734,503.775 Q97.5094,503.775 96.4266,503.2125 Q95.5406,502.7625 94.9219,501.8063 Q94.3031,500.8359 94.3031,499.6828 L94.3031,498.6422 Q94.3031,497.4469 94.8516,496.4203 Q95.4141,495.3797 96.3984,494.8313 Q97.3828,494.2688 98.4938,494.2688 Q99.1547,494.2688 99.7313,494.4234 Q100.3219,494.5641 100.8141,494.8875 Z " fill="#000000"/><text fill="#000000" font-family="sans-serif" font-size="12.6" lengthAdjust="spacing" textLength="44.1" x="116.775" y="503.8172">Agenda</text><line style="stroke:#181818;stroke-width:0.45;" x1="29.25" x2="219.15" y1="513" y2="513"/><line style="stroke:#181818;stroke-width:0.45;" x1="29.25" x2="219.15" y1="520.2" y2="520.2"/><text fill="#000000" font-family="sans-serif" font-size="12.6" lengthAdjust="spacing" textLength="180.9" x="33.75" y="537.3967">+getEntryByIndex(agendaIndex)</text></g><!--class Entry--><g id="elem_Entry"><rect codeLine="27" fill="#F1F1F1" height="126.9949" id="Entry" rx="2.25" ry="2.25" style="stroke:#181818;stroke-width:0.45;" width="162" x="108.9" y="599.4"/><ellipse cx="171.225" cy="613.8" fill="#ADD1B2" rx="9.9" ry="9.9" style="stroke:#181818;stroke-width:0.9;"/><path d="M173.7141,610.0875 Q173.8547,609.8906 174.0234,609.7922 Q174.1922,609.6938 174.3891,609.6938 Q174.7266,609.6938 174.9375,609.9328 Q175.1484,610.1578 175.1484,610.7063 L175.1484,612.0141 Q175.1484,612.5625 174.9375,612.8016 Q174.7266,613.0406 174.3891,613.0406 Q174.0797,613.0406 173.8969,612.8578 Q173.7141,612.6891 173.6156,612.225 Q173.5734,611.9016 173.4047,611.7328 Q173.1094,611.3953 172.5609,611.1984 Q172.0125,611.0016 171.45,611.0016 Q170.7609,611.0016 170.1844,611.2969 Q169.6219,611.5922 169.1719,612.2672 Q168.7359,612.9422 168.7359,613.8703 L168.7359,614.8547 Q168.7359,615.9656 169.5375,616.7109 Q170.3391,617.4422 171.7734,617.4422 Q172.6172,617.4422 173.2078,617.2172 Q173.5594,617.0766 173.9391,616.6828 Q174.1781,616.4438 174.3047,616.3734 Q174.4453,616.3031 174.6281,616.3031 Q174.9234,616.3031 175.1484,616.5422 Q175.3875,616.7672 175.3875,617.0766 Q175.3875,617.3859 175.0781,617.7516 Q174.6281,618.2719 173.9109,618.5672 Q172.9406,618.975 171.7734,618.975 Q170.4094,618.975 169.3266,618.4125 Q168.4406,617.9625 167.8219,617.0063 Q167.2031,616.0359 167.2031,614.8828 L167.2031,613.8422 Q167.2031,612.6469 167.7516,611.6203 Q168.3141,610.5797 169.2984,610.0313 Q170.2828,609.4688 171.3938,609.4688 Q172.0547,609.4688 172.6313,609.6234 Q173.2219,609.7641 173.7141,610.0875 Z " fill="#000000"/><text fill="#000000" font-family="sans-serif" font-size="12.6" lengthAdjust="spacing" textLength="29.7" x="189.675" y="619.0172">Entry</text><line style="stroke:#181818;stroke-width:0.45;" x1="109.8" x2="270" y1="628.2" y2="628.2"/><text fill="#000000" font-family="sans-serif" font-size="12.6" lengthAdjust="spacing" textLength="104.4" x="114.3" y="645.3967">-Date startingDate</text><text fill="#000000" font-family="sans-serif" font-size="12.6" lengthAdjust="spacing" textLength="122.4" x="114.3" y="662.1557">-AgendaStatus status</text><text fill="#000000" font-family="sans-serif" font-size="12.6" lengthAdjust="spacing" textLength="59.4" x="114.3" y="678.9146">-Task task</text><line style="stroke:#181818;stroke-width:0.45;" x1="109.8" x2="270" y1="685.677" y2="685.677"/><text fill="#000000" font-family="sans-serif" font-size="12.6" lengthAdjust="spacing" textLength="145.8" x="114.3" y="702.8736">+Entry(startingDate, task)</text><text fill="#000000" font-family="sans-serif" font-size="12.6" lengthAdjust="spacing" textLength="151.2" x="114.3" y="719.6326">+assignTeam(teamAssign)</text></g><!--class TeamRepository--><g id="elem_TeamRepository"><rect codeLine="35" fill="#F1F1F1" height="59.959" id="TeamRepository" rx="2.25" ry="2.25" style="stroke:#181818;stroke-width:0.45;" width="179.1" x="251.55" y="484.2"/><ellipse cx="290.565" cy="498.6" fill="#ADD1B2" rx="9.9" ry="9.9" style="stroke:#181818;stroke-width:0.9;"/><path d="M293.0541,494.8875 Q293.1947,494.6906 293.3634,494.5922 Q293.5322,494.4938 293.7291,494.4938 Q294.0666,494.4938 294.2775,494.7328 Q294.4884,494.9578 294.4884,495.5063 L294.4884,496.8141 Q294.4884,497.3625 294.2775,497.6016 Q294.0666,497.8406 293.7291,497.8406 Q293.4197,497.8406 293.2369,497.6578 Q293.0541,497.4891 292.9556,497.025 Q292.9134,496.7016 292.7447,496.5328 Q292.4494,496.1953 291.9009,495.9984 Q291.3525,495.8016 290.79,495.8016 Q290.1009,495.8016 289.5244,496.0969 Q288.9619,496.3922 288.5119,497.0672 Q288.0759,497.7422 288.0759,498.6703 L288.0759,499.6547 Q288.0759,500.7656 288.8775,501.5109 Q289.6791,502.2422 291.1134,502.2422 Q291.9572,502.2422 292.5478,502.0172 Q292.8994,501.8766 293.2791,501.4828 Q293.5181,501.2438 293.6447,501.1734 Q293.7853,501.1031 293.9681,501.1031 Q294.2634,501.1031 294.4884,501.3422 Q294.7275,501.5672 294.7275,501.8766 Q294.7275,502.1859 294.4181,502.5516 Q293.9681,503.0719 293.2509,503.3672 Q292.2806,503.775 291.1134,503.775 Q289.7494,503.775 288.6666,503.2125 Q287.7806,502.7625 287.1619,501.8063 Q286.5431,500.8359 286.5431,499.6828 L286.5431,498.6422 Q286.5431,497.4469 287.0916,496.4203 Q287.6541,495.3797 288.6384,494.8313 Q289.6228,494.2688 290.7338,494.2688 Q291.3947,494.2688 291.9713,494.4234 Q292.5619,494.5641 293.0541,494.8875 Z " fill="#000000"/><text fill="#000000" font-family="sans-serif" font-size="12.6" lengthAdjust="spacing" textLength="93.6" x="308.835" y="503.8172">TeamRepository</text><line style="stroke:#181818;stroke-width:0.45;" x1="252.45" x2="429.75" y1="513" y2="513"/><line style="stroke:#181818;stroke-width:0.45;" x1="252.45" x2="429.75" y1="520.2" y2="520.2"/><text fill="#000000" font-family="sans-serif" font-size="12.6" lengthAdjust="spacing" textLength="168.3" x="256.95" y="537.3967">+getTeamByIndex(teamIndex)</text></g><!--class Team--><g id="elem_Team"><rect codeLine="39" fill="#F1F1F1" height="76.718" id="Team" rx="2.25" ry="2.25" style="stroke:#181818;stroke-width:0.45;" width="197.1" x="166.05" y="781.2"/><ellipse cx="244.575" cy="795.6" fill="#ADD1B2" rx="9.9" ry="9.9" style="stroke:#181818;stroke-width:0.9;"/><path d="M247.0641,791.8875 Q247.2047,791.6906 247.3734,791.5922 Q247.5422,791.4938 247.7391,791.4938 Q248.0766,791.4938 248.2875,791.7328 Q248.4984,791.9578 248.4984,792.5063 L248.4984,793.8141 Q248.4984,794.3625 248.2875,794.6016 Q248.0766,794.8406 247.7391,794.8406 Q247.4297,794.8406 247.2469,794.6578 Q247.0641,794.4891 246.9656,794.025 Q246.9234,793.7016 246.7547,793.5328 Q246.4594,793.1953 245.9109,792.9984 Q245.3625,792.8016 244.8,792.8016 Q244.1109,792.8016 243.5344,793.0969 Q242.9719,793.3922 242.5219,794.0672 Q242.0859,794.7422 242.0859,795.6703 L242.0859,796.6547 Q242.0859,797.7656 242.8875,798.5109 Q243.6891,799.2422 245.1234,799.2422 Q245.9672,799.2422 246.5578,799.0172 Q246.9094,798.8766 247.2891,798.4828 Q247.5281,798.2438 247.6547,798.1734 Q247.7953,798.1031 247.9781,798.1031 Q248.2734,798.1031 248.4984,798.3422 Q248.7375,798.5672 248.7375,798.8766 Q248.7375,799.1859 248.4281,799.5516 Q247.9781,800.0719 247.2609,800.3672 Q246.2906,800.775 245.1234,800.775 Q243.7594,800.775 242.6766,800.2125 Q241.7906,799.7625 241.1719,798.8063 Q240.5531,797.8359 240.5531,796.6828 L240.5531,795.6422 Q240.5531,794.4469 241.1016,793.4203 Q241.6641,792.3797 242.6484,791.8313 Q243.6328,791.2688 244.7438,791.2688 Q245.4047,791.2688 245.9813,791.4234 Q246.5719,791.5641 247.0641,791.8875 Z " fill="#000000"/><text fill="#000000" font-family="sans-serif" font-size="12.6" lengthAdjust="spacing" textLength="32.4" x="263.025" y="800.8172">Team</text><line style="stroke:#181818;stroke-width:0.45;" x1="166.95" x2="362.25" y1="810" y2="810"/><text fill="#000000" font-family="sans-serif" font-size="12.6" lengthAdjust="spacing" textLength="186.3" x="171.45" y="827.1967">-List&lt;Collaborator&gt; collaborators</text><line style="stroke:#181818;stroke-width:0.45;" x1="166.95" x2="362.25" y1="833.959" y2="833.959"/><text fill="#000000" font-family="sans-serif" font-size="12.6" lengthAdjust="spacing" textLength="115.2" x="171.45" y="851.1557">Team(collaborators)</text></g><!--class Repositories--><g id="elem_Repositories"><rect codeLine="44" fill="#F1F1F1" height="110.2359" id="Repositories" rx="2.25" ry="2.25" style="stroke:#181818;stroke-width:0.45;" width="174.6" x="61.2" y="319.5"/><ellipse cx="109.125" cy="333.9" fill="#ADD1B2" rx="9.9" ry="9.9" style="stroke:#181818;stroke-width:0.9;"/><path d="M111.6141,330.1875 Q111.7547,329.9906 111.9234,329.8922 Q112.0922,329.7938 112.2891,329.7938 Q112.6266,329.7938 112.8375,330.0328 Q113.0484,330.2578 113.0484,330.8063 L113.0484,332.1141 Q113.0484,332.6625 112.8375,332.9016 Q112.6266,333.1406 112.2891,333.1406 Q111.9797,333.1406 111.7969,332.9578 Q111.6141,332.7891 111.5156,332.325 Q111.4734,332.0016 111.3047,331.8328 Q111.0094,331.4953 110.4609,331.2984 Q109.9125,331.1016 109.35,331.1016 Q108.6609,331.1016 108.0844,331.3969 Q107.5219,331.6922 107.0719,332.3672 Q106.6359,333.0422 106.6359,333.9703 L106.6359,334.9547 Q106.6359,336.0656 107.4375,336.8109 Q108.2391,337.5422 109.6734,337.5422 Q110.5172,337.5422 111.1078,337.3172 Q111.4594,337.1766 111.8391,336.7828 Q112.0781,336.5438 112.2047,336.4734 Q112.3453,336.4031 112.5281,336.4031 Q112.8234,336.4031 113.0484,336.6422 Q113.2875,336.8672 113.2875,337.1766 Q113.2875,337.4859 112.9781,337.8516 Q112.5281,338.3719 111.8109,338.6672 Q110.8406,339.075 109.6734,339.075 Q108.3094,339.075 107.2266,338.5125 Q106.3406,338.0625 105.7219,337.1063 Q105.1031,336.1359 105.1031,334.9828 L105.1031,333.9422 Q105.1031,332.7469 105.6516,331.7203 Q106.2141,330.6797 107.1984,330.1313 Q108.1828,329.5688 109.2938,329.5688 Q109.9547,329.5688 110.5313,329.7234 Q111.1219,329.8641 111.6141,330.1875 Z " fill="#000000"/><text fill="#000000" font-family="sans-serif" font-size="12.6" lengthAdjust="spacing" textLength="71.1" x="127.575" y="339.1172">Repositories</text><line style="stroke:#181818;stroke-width:0.45;" x1="62.1" x2="234.9" y1="348.3" y2="348.3"/><line style="stroke:#181818;stroke-width:0.45;" x1="62.1" x2="234.9" y1="355.5" y2="355.5"/><text fill="#000000" font-family="sans-serif" font-size="12.6" lengthAdjust="spacing" textLength="84.6" x="66.6" y="372.6967">-Repositories()</text><text fill="#000000" font-family="sans-serif" font-size="12.6" lengthAdjust="spacing" textLength="163.8" x="66.6" y="389.4557">+getInstance() : Repositories</text><text fill="#000000" font-family="sans-serif" font-size="12.6" lengthAdjust="spacing" textLength="78.3" x="66.6" y="406.2146">+getAgenda()</text><text fill="#000000" font-family="sans-serif" font-size="12.6" lengthAdjust="spacing" textLength="127.8" x="66.6" y="422.9736">+getTeamRepository()</text></g><!--link AssignTeamUI to AssignTeamController--><g id="link_AssignTeamUI_AssignTeamController"><path codeLine="51" d="M148.5,49.509 C148.5,63.963 148.5,78.777 148.5,98.793 " fill="none" id="AssignTeamUI-to-AssignTeamController" style="stroke:#181818;stroke-width:0.9;stroke-dasharray:7.0,7.0;"/><polygon fill="#181818" points="148.5,104.193,152.1,96.093,148.5,99.693,144.9,96.093,148.5,104.193" style="stroke:#181818;stroke-width:0.9;"/></g><!--link AssignTeamController to Repositories--><g id="link_AssignTeamController_Repositories"><path codeLine="52" d="M148.5,248.409 C148.5,271.773 148.5,291.942 148.5,313.848 " fill="none" id="AssignTeamController-to-Repositories" style="stroke:#181818;stroke-width:0.9;stroke-dasharray:7.0,7.0;"/><polygon fill="#181818" points="148.5,319.248,152.1,311.148,148.5,314.748,144.9,311.148,148.5,319.248" style="stroke:#181818;stroke-width:0.9;"/><text fill="#000000" font-family="sans-serif" font-size="11.7" lengthAdjust="spacing" textLength="60.3" x="149.4" y="288.9255">repositories</text></g><!--link AssignTeamController to Agenda--><g id="link_AssignTeamController_Agenda"><path codeLine="53" d="M76.527,248.814 C40.896,284.229 5.4,319.5 5.4,319.5 C5.4,319.5 5.4,429.3 5.4,429.3 C5.4,429.3 43.9865,456.6346 78.2405,480.8986 " fill="none" id="AssignTeamController-to-Agenda" style="stroke:#181818;stroke-width:0.9;stroke-dasharray:7.0,7.0;"/><polygon fill="#181818" points="82.647,484.02,78.1182,476.4003,78.9749,481.4189,73.9564,482.2756,82.647,484.02" style="stroke:#181818;stroke-width:0.9;"/><text fill="#000000" font-family="sans-serif" font-size="11.7" lengthAdjust="spacing" textLength="37.8" x="6.3" y="379.3755">agenda</text></g><!--link AssignTeamController to TeamRepository--><g id="link_AssignTeamController_TeamRepository"><path codeLine="54" d="M236.052,248.607 C279.621,284.085 323.1,319.5 323.1,319.5 C323.1,319.5 332.8345,424.3551 337.8655,478.6161 " fill="none" id="AssignTeamController-to-TeamRepository" style="stroke:#181818;stroke-width:0.9;stroke-dasharray:7.0,7.0;"/><polygon fill="#181818" points="338.364,483.993,341.2008,475.5952,337.9485,479.5122,334.0316,476.26,338.364,483.993" style="stroke:#181818;stroke-width:0.9;"/><text fill="#000000" font-family="sans-serif" font-size="11.7" lengthAdjust="spacing" textLength="81.9" x="333.9" y="379.3755">teamRepository</text></g><!--link Repositories to Repositories--><g id="link_Repositories_Repositories"><path codeLine="55" d="M236.052,359.748 C254.232,361.287 267.3,366.174 267.3,374.4 C267.3,382.626 259.6128,387.0575 241.4328,388.5965 " fill="none" id="Repositories-to-Repositories" style="stroke:#181818;stroke-width:0.9;"/><polygon fill="#181818" points="236.052,389.052,244.4268,391.9559,240.536,388.6724,243.8195,384.7816,236.052,389.052" style="stroke:#181818;stroke-width:0.9;"/><text fill="#000000" font-family="sans-serif" font-size="11.7" lengthAdjust="spacing" textLength="44.1" x="272.7" y="379.3755">instance</text></g><!--link Repositories to Agenda--><g id="link_Repositories_Agenda"><path codeLine="56" d="M138.969,429.507 C135.693,448.101 133.0912,462.8886 130.3012,478.7556 " fill="none" id="Repositories-to-Agenda" style="stroke:#181818;stroke-width:0.9;"/><polygon fill="#181818" points="129.366,484.074,134.3144,476.7198,130.1453,479.642,127.2232,475.4729,129.366,484.074" style="stroke:#181818;stroke-width:0.9;"/><text fill="#000000" font-family="sans-serif" font-size="11.7" lengthAdjust="spacing" textLength="6.3" x="123.4629" y="473.9922">1</text></g><!--link Repositories to TeamRepository--><g id="link_Repositories_TeamRepository"><path codeLine="57" d="M223.794,429.309 C249.849,448.002 273.6859,465.0854 295.9069,481.0334 " fill="none" id="Repositories-to-TeamRepository" style="stroke:#181818;stroke-width:0.9;"/><polygon fill="#181818" points="300.294,484.182,295.8125,476.5344,296.6381,481.5582,291.6143,482.3838,300.294,484.182" style="stroke:#181818;stroke-width:0.9;"/><text fill="#000000" font-family="sans-serif" font-size="11.7" lengthAdjust="spacing" textLength="6.3" x="285.3402" y="474.1214">1</text></g><!--link Agenda to Entry--><g id="link_Agenda_Entry"><path codeLine="58" d="M137.34,544.581 C144.378,560.304 151.1264,575.3734 159.6404,594.3904 " fill="none" id="Agenda-to-Entry" style="stroke:#181818;stroke-width:0.9;"/><polygon fill="#181818" points="161.847,599.319,161.8229,590.4551,160.0082,595.2118,155.2514,593.3971,161.847,599.319" style="stroke:#181818;stroke-width:0.9;"/><text fill="#000000" font-family="sans-serif" font-size="11.7" lengthAdjust="spacing" textLength="4.5" x="154.222" y="589.3126">*</text></g><!--link TeamRepository to Team--><g id="link_TeamRepository_Team"><path codeLine="59" d="M333.693,544.608 C319.725,599.985 290.8324,714.5479 275.4064,775.7209 " fill="none" id="TeamRepository-to-Team" style="stroke:#181818;stroke-width:0.9;"/><polygon fill="#181818" points="274.086,780.957,279.5573,773.9831,275.1863,776.5936,272.5759,772.2226,274.086,780.957" style="stroke:#181818;stroke-width:0.9;"/><text fill="#000000" font-family="sans-serif" font-size="11.7" lengthAdjust="spacing" textLength="4.5" x="270.7392" y="770.9319">*</text></g><!--link Entry to Team--><g id="link_Entry_Team"><path codeLine="60" d="M220.284,726.714 C229.167,745.128 236.2498,759.8138 244.1248,776.1128 " fill="none" id="Entry-to-Team" style="stroke:#181818;stroke-width:0.9;"/><polygon fill="#181818" points="246.474,780.975,246.1916,772.1155,244.5163,776.9232,239.7087,775.2478,246.474,780.975" style="stroke:#181818;stroke-width:0.9;"/><text fill="#000000" font-family="sans-serif" font-size="11.7" lengthAdjust="spacing" textLength="6.3" x="236.7831" y="770.9528">1</text></g><!--SRC=[VLDDRzim3BthLn2v95sQOhi6Gu6kxI50Jqls0rY7TOGeaY4nQBsX_xtwi6CfSUP37F4zae_KyzJjfMxGuW4EHfjgPys1WEsHn80qMEsnfZMtYi1InQXhbHFS3hVcNUeQtb2v755I4xSDGMDK6mvYEW8QoqPaMPL2vnwOhNmzCgqgezVoBy5t8QQAtXZOW9NrZc4hWnnfj10n1nwSaxNU41x-hE2V-BoCFnhDrYX5rkFWd_aODlFpwYtU-bPFvaKwlabSF74tvjcJsuwuqblwy6mFnB-9lgY98-jN6wCvUM24QZtXhC2yAo391H6p8HgI-jWmPIpVp_NVvgUSIEbI5a_818xHih_CS4ZXL7VDo4SNOFzAm0RT7jZ_f8vf8td-RKGlbXVdJ7lFf0JaDpN6IJOdJVFh6oeI-n72Jdu- -al4LsFH5xg7AZibuL534SwgdIJuhVTLYs1_3U2bhRGVLrSqku5bGHeeQNjvKZbeki72kNTtzwEM5QC-3koyzT9_f9cGgpb9s1AICQxpIhdBwFBXB8fzBHRdMcIteKlUvCUaqp2EbNr5v-w8Vfiauuepp_HW28jaxRoQ-080]--></g></svg>