<?xml version="1.0" encoding="us-ascii" standalone="no"?><svg xmlns="http://www.w3.org/2000/svg" xmlns:xlink="http://www.w3.org/1999/xlink" contentStyleType="text/css" height="420.8px" preserveAspectRatio="none" style="width:683px;height:420px;background:#FFFFFF;" version="1.1" viewBox="0 0 683 420" width="683.6px" zoomAndPan="magnify"><defs/><g><!--class AssignTeamUI--><g id="elem_AssignTeamUI"><rect codeLine="11" fill="#F1F1F1" height="19.2" id="AssignTeamUI" rx="1" ry="1" style="stroke:#181818;stroke-width:0.20000000000000004;" width="48.8" x="182.6" y="2.8"/><ellipse cx="188.6" cy="9.2" fill="#ADD1B2" rx="4.4" ry="4.4" style="stroke:#181818;stroke-width:0.4000000000000001;"/><path d="M189.7063,7.55 Q189.7688,7.4625 189.8438,7.4188 Q189.9188,7.375 190.0063,7.375 Q190.1563,7.375 190.25,7.4813 Q190.3438,7.5813 190.3438,7.825 L190.3438,8.4063 Q190.3438,8.65 190.25,8.7563 Q190.1563,8.8625 190.0063,8.8625 Q189.8688,8.8625 189.7875,8.7813 Q189.7063,8.7063 189.6625,8.5 Q189.6438,8.3563 189.5688,8.2813 Q189.4375,8.1313 189.1938,8.0438 Q188.95,7.9563 188.7,7.9563 Q188.3938,7.9563 188.1375,8.0875 Q187.8875,8.2188 187.6875,8.5188 Q187.4938,8.8188 187.4938,9.2313 L187.4938,9.6688 Q187.4938,10.1625 187.85,10.4938 Q188.2063,10.8188 188.8438,10.8188 Q189.2188,10.8188 189.4813,10.7188 Q189.6375,10.6563 189.8063,10.4813 Q189.9125,10.375 189.9688,10.3438 Q190.0313,10.3125 190.1125,10.3125 Q190.2438,10.3125 190.3438,10.4188 Q190.45,10.5188 190.45,10.6563 Q190.45,10.7938 190.3125,10.9563 Q190.1125,11.1875 189.7938,11.3188 Q189.3625,11.5 188.8438,11.5 Q188.2375,11.5 187.7563,11.25 Q187.3625,11.05 187.0875,10.625 Q186.8125,10.1938 186.8125,9.6813 L186.8125,9.2188 Q186.8125,8.6875 187.0563,8.2313 Q187.3063,7.7688 187.7438,7.525 Q188.1813,7.275 188.675,7.275 Q188.9688,7.275 189.225,7.3438 Q189.4875,7.4063 189.7063,7.55 Z " fill="#000000"/><text fill="#000000" font-family="sans-serif" font-size="5.6" lengthAdjust="spacing" textLength="36" x="194.2" y="11.5188">AssignTeamUI</text><line style="stroke:#181818;stroke-width:0.20000000000000004;" x1="183" x2="231" y1="15.6" y2="15.6"/><line style="stroke:#181818;stroke-width:0.20000000000000004;" x1="183" x2="231" y1="18.8" y2="18.8"/></g><!--class AssignTeamController--><g id="elem_AssignTeamController"><rect codeLine="14" fill="#F1F1F1" height="78.7875" id="AssignTeamController" rx="1" ry="1" style="stroke:#181818;stroke-width:0.20000000000000004;" width="177.2" x="118.4" y="46.4"/><ellipse cx="177.3" cy="52.8" fill="#ADD1B2" rx="4.4" ry="4.4" style="stroke:#181818;stroke-width:0.4000000000000001;"/><path d="M178.4063,51.15 Q178.4688,51.0625 178.5438,51.0188 Q178.6188,50.975 178.7063,50.975 Q178.8563,50.975 178.95,51.0813 Q179.0438,51.1813 179.0438,51.425 L179.0438,52.0063 Q179.0438,52.25 178.95,52.3563 Q178.8563,52.4625 178.7063,52.4625 Q178.5688,52.4625 178.4875,52.3813 Q178.4063,52.3063 178.3625,52.1 Q178.3438,51.9563 178.2688,51.8813 Q178.1375,51.7313 177.8938,51.6438 Q177.65,51.5563 177.4,51.5563 Q177.0938,51.5563 176.8375,51.6875 Q176.5875,51.8188 176.3875,52.1188 Q176.1938,52.4188 176.1938,52.8313 L176.1938,53.2688 Q176.1938,53.7625 176.55,54.0938 Q176.9063,54.4188 177.5438,54.4188 Q177.9188,54.4188 178.1813,54.3188 Q178.3375,54.2563 178.5063,54.0813 Q178.6125,53.975 178.6688,53.9438 Q178.7313,53.9125 178.8125,53.9125 Q178.9438,53.9125 179.0438,54.0188 Q179.15,54.1188 179.15,54.2563 Q179.15,54.3938 179.0125,54.5563 Q178.8125,54.7875 178.4938,54.9188 Q178.0625,55.1 177.5438,55.1 Q176.9375,55.1 176.4563,54.85 Q176.0625,54.65 175.7875,54.225 Q175.5125,53.7938 175.5125,53.2813 L175.5125,52.8188 Q175.5125,52.2875 175.7563,51.8313 Q176.0063,51.3688 176.4438,51.125 Q176.8813,50.875 177.375,50.875 Q177.6688,50.875 177.925,50.9438 Q178.1875,51.0063 178.4063,51.15 Z " fill="#000000"/><text fill="#000000" font-family="sans-serif" font-size="5.6" lengthAdjust="spacing" textLength="56" x="185.5" y="55.1188">AssignTeamController</text><line style="stroke:#181818;stroke-width:0.20000000000000004;" x1="118.8" x2="295.2" y1="59.2" y2="59.2"/><line style="stroke:#181818;stroke-width:0.20000000000000004;" x1="118.8" x2="295.2" y1="62.4" y2="62.4"/><text fill="#000000" font-family="sans-serif" font-size="5.6" lengthAdjust="spacing" textLength="172.4" x="120.8" y="70.043">+AssignTeamController(agenda, toDoList, authenticationRepository)</text><text fill="#000000" font-family="sans-serif" font-size="5.6" lengthAdjust="spacing" textLength="119.2" x="120.8" y="77.4914">+assignTeamToEntry(agendaIndex, teamIndex)</text><text fill="#000000" font-family="sans-serif" font-size="5.6" lengthAdjust="spacing" textLength="79.2" x="120.8" y="84.9398">-getEntryByIndex(agendaIndex)</text><text fill="#000000" font-family="sans-serif" font-size="5.6" lengthAdjust="spacing" textLength="73.6" x="120.8" y="92.3883">-getTeamByIndex(teamIndex)</text><text fill="#000000" font-family="sans-serif" font-size="5.6" lengthAdjust="spacing" textLength="41.6" x="120.8" y="99.8367">+getEntriesList()</text><text fill="#000000" font-family="sans-serif" font-size="5.6" lengthAdjust="spacing" textLength="41.2" x="120.8" y="107.2852">+getTeamsList()</text><text fill="#000000" font-family="sans-serif" font-size="5.6" lengthAdjust="spacing" textLength="146.8" x="120.8" y="114.7336">-sendTheEmailToTeam(from, to, nameCollaborator, entry)</text><text fill="#000000" font-family="sans-serif" font-size="5.6" lengthAdjust="spacing" textLength="59.6" x="120.8" y="122.182">-getGSMFromSession()</text></g><!--class Agenda--><g id="elem_Agenda"><rect codeLine="25" fill="#F1F1F1" height="26.6484" id="Agenda" rx="1" ry="1" style="stroke:#181818;stroke-width:0.20000000000000004;" width="85.2" x="2.8" y="241.2"/><ellipse cx="33.9" cy="247.6" fill="#ADD1B2" rx="4.4" ry="4.4" style="stroke:#181818;stroke-width:0.4000000000000001;"/><path d="M35.0063,245.95 Q35.0688,245.8625 35.1438,245.8188 Q35.2188,245.775 35.3063,245.775 Q35.4563,245.775 35.55,245.8813 Q35.6438,245.9813 35.6438,246.225 L35.6438,246.8063 Q35.6438,247.05 35.55,247.1563 Q35.4563,247.2625 35.3063,247.2625 Q35.1688,247.2625 35.0875,247.1813 Q35.0063,247.1063 34.9625,246.9 Q34.9438,246.7563 34.8688,246.6813 Q34.7375,246.5313 34.4938,246.4438 Q34.25,246.3563 34,246.3563 Q33.6938,246.3563 33.4375,246.4875 Q33.1875,246.6188 32.9875,246.9188 Q32.7938,247.2188 32.7938,247.6313 L32.7938,248.0688 Q32.7938,248.5625 33.15,248.8938 Q33.5063,249.2188 34.1438,249.2188 Q34.5188,249.2188 34.7813,249.1188 Q34.9375,249.0563 35.1063,248.8813 Q35.2125,248.775 35.2688,248.7438 Q35.3313,248.7125 35.4125,248.7125 Q35.5438,248.7125 35.6438,248.8188 Q35.75,248.9188 35.75,249.0563 Q35.75,249.1938 35.6125,249.3563 Q35.4125,249.5875 35.0938,249.7188 Q34.6625,249.9 34.1438,249.9 Q33.5375,249.9 33.0563,249.65 Q32.6625,249.45 32.3875,249.025 Q32.1125,248.5938 32.1125,248.0813 L32.1125,247.6188 Q32.1125,247.0875 32.3563,246.6313 Q32.6063,246.1688 33.0438,245.925 Q33.4813,245.675 33.975,245.675 Q34.2688,245.675 34.525,245.7438 Q34.7875,245.8063 35.0063,245.95 Z " fill="#000000"/><text fill="#000000" font-family="sans-serif" font-size="5.6" lengthAdjust="spacing" textLength="19.6" x="42.1" y="249.9188">Agenda</text><line style="stroke:#181818;stroke-width:0.20000000000000004;" x1="3.2" x2="87.6" y1="254" y2="254"/><line style="stroke:#181818;stroke-width:0.20000000000000004;" x1="3.2" x2="87.6" y1="257.2" y2="257.2"/><text fill="#000000" font-family="sans-serif" font-size="5.6" lengthAdjust="spacing" textLength="80.4" x="5.2" y="264.843">+getEntryByIndex(agendaIndex)</text></g><!--class Entry--><g id="elem_Entry"><rect codeLine="29" fill="#F1F1F1" height="56.4422" id="Entry" rx="1" ry="1" style="stroke:#181818;stroke-width:0.20000000000000004;" width="72" x="24.2" y="303.2"/><ellipse cx="51.9" cy="309.6" fill="#ADD1B2" rx="4.4" ry="4.4" style="stroke:#181818;stroke-width:0.4000000000000001;"/><path d="M53.0063,307.95 Q53.0688,307.8625 53.1438,307.8188 Q53.2188,307.775 53.3063,307.775 Q53.4563,307.775 53.55,307.8813 Q53.6438,307.9813 53.6438,308.225 L53.6438,308.8063 Q53.6438,309.05 53.55,309.1563 Q53.4563,309.2625 53.3063,309.2625 Q53.1688,309.2625 53.0875,309.1813 Q53.0063,309.1063 52.9625,308.9 Q52.9438,308.7563 52.8688,308.6813 Q52.7375,308.5313 52.4938,308.4438 Q52.25,308.3563 52,308.3563 Q51.6938,308.3563 51.4375,308.4875 Q51.1875,308.6188 50.9875,308.9188 Q50.7938,309.2188 50.7938,309.6313 L50.7938,310.0688 Q50.7938,310.5625 51.15,310.8938 Q51.5063,311.2188 52.1438,311.2188 Q52.5188,311.2188 52.7813,311.1188 Q52.9375,311.0563 53.1063,310.8813 Q53.2125,310.775 53.2688,310.7438 Q53.3313,310.7125 53.4125,310.7125 Q53.5438,310.7125 53.6438,310.8188 Q53.75,310.9188 53.75,311.0563 Q53.75,311.1938 53.6125,311.3563 Q53.4125,311.5875 53.0938,311.7188 Q52.6625,311.9 52.1438,311.9 Q51.5375,311.9 51.0563,311.65 Q50.6625,311.45 50.3875,311.025 Q50.1125,310.5938 50.1125,310.0813 L50.1125,309.6188 Q50.1125,309.0875 50.3563,308.6313 Q50.6063,308.1688 51.0438,307.925 Q51.4813,307.675 51.975,307.675 Q52.2688,307.675 52.525,307.7438 Q52.7875,307.8063 53.0063,307.95 Z " fill="#000000"/><text fill="#000000" font-family="sans-serif" font-size="5.6" lengthAdjust="spacing" textLength="13.2" x="60.1" y="311.9188">Entry</text><line style="stroke:#181818;stroke-width:0.20000000000000004;" x1="24.6" x2="95.8" y1="316" y2="316"/><text fill="#000000" font-family="sans-serif" font-size="5.6" lengthAdjust="spacing" textLength="46.4" x="26.6" y="323.643">-Date startingDate</text><text fill="#000000" font-family="sans-serif" font-size="5.6" lengthAdjust="spacing" textLength="54.4" x="26.6" y="331.0914">-AgendaStatus status</text><text fill="#000000" font-family="sans-serif" font-size="5.6" lengthAdjust="spacing" textLength="26.4" x="26.6" y="338.5398">-Task task</text><line style="stroke:#181818;stroke-width:0.20000000000000004;" x1="24.6" x2="95.8" y1="341.5453" y2="341.5453"/><text fill="#000000" font-family="sans-serif" font-size="5.6" lengthAdjust="spacing" textLength="64.8" x="26.6" y="349.1883">+Entry(startingDate, task)</text><text fill="#000000" font-family="sans-serif" font-size="5.6" lengthAdjust="spacing" textLength="67.2" x="26.6" y="356.6367">+assignTeam(teamAssign)</text></g><!--class TeamRepository--><g id="elem_TeamRepository"><rect codeLine="37" fill="#F1F1F1" height="26.6484" id="TeamRepository" rx="1" ry="1" style="stroke:#181818;stroke-width:0.20000000000000004;" width="79.6" x="102" y="241.2"/><ellipse cx="119.34" cy="247.6" fill="#ADD1B2" rx="4.4" ry="4.4" style="stroke:#181818;stroke-width:0.4000000000000001;"/><path d="M120.4463,245.95 Q120.5088,245.8625 120.5838,245.8188 Q120.6588,245.775 120.7463,245.775 Q120.8963,245.775 120.99,245.8813 Q121.0838,245.9813 121.0838,246.225 L121.0838,246.8063 Q121.0838,247.05 120.99,247.1563 Q120.8963,247.2625 120.7463,247.2625 Q120.6088,247.2625 120.5275,247.1813 Q120.4463,247.1063 120.4025,246.9 Q120.3838,246.7563 120.3088,246.6813 Q120.1775,246.5313 119.9338,246.4438 Q119.69,246.3563 119.44,246.3563 Q119.1338,246.3563 118.8775,246.4875 Q118.6275,246.6188 118.4275,246.9188 Q118.2338,247.2188 118.2338,247.6313 L118.2338,248.0688 Q118.2338,248.5625 118.59,248.8938 Q118.9463,249.2188 119.5838,249.2188 Q119.9588,249.2188 120.2213,249.1188 Q120.3775,249.0563 120.5463,248.8813 Q120.6525,248.775 120.7088,248.7438 Q120.7713,248.7125 120.8525,248.7125 Q120.9838,248.7125 121.0838,248.8188 Q121.19,248.9188 121.19,249.0563 Q121.19,249.1938 121.0525,249.3563 Q120.8525,249.5875 120.5338,249.7188 Q120.1025,249.9 119.5838,249.9 Q118.9775,249.9 118.4963,249.65 Q118.1025,249.45 117.8275,249.025 Q117.5525,248.5938 117.5525,248.0813 L117.5525,247.6188 Q117.5525,247.0875 117.7963,246.6313 Q118.0463,246.1688 118.4838,245.925 Q118.9213,245.675 119.415,245.675 Q119.7088,245.675 119.965,245.7438 Q120.2275,245.8063 120.4463,245.95 Z " fill="#000000"/><text fill="#000000" font-family="sans-serif" font-size="5.6" lengthAdjust="spacing" textLength="41.6" x="127.46" y="249.9188">TeamRepository</text><line style="stroke:#181818;stroke-width:0.20000000000000004;" x1="102.4" x2="181.2" y1="254" y2="254"/><line style="stroke:#181818;stroke-width:0.20000000000000004;" x1="102.4" x2="181.2" y1="257.2" y2="257.2"/><text fill="#000000" font-family="sans-serif" font-size="5.6" lengthAdjust="spacing" textLength="74.8" x="104.4" y="264.843">+getTeamByIndex(teamIndex)</text></g><!--class Team--><g id="elem_Team"><rect codeLine="41" fill="#F1F1F1" height="34.0969" id="Team" rx="1" ry="1" style="stroke:#181818;stroke-width:0.20000000000000004;" width="87.6" x="49.6" y="384"/><ellipse cx="84.5" cy="390.4" fill="#ADD1B2" rx="4.4" ry="4.4" style="stroke:#181818;stroke-width:0.4000000000000001;"/><path d="M85.6063,388.75 Q85.6688,388.6625 85.7438,388.6188 Q85.8188,388.575 85.9063,388.575 Q86.0563,388.575 86.15,388.6813 Q86.2438,388.7813 86.2438,389.025 L86.2438,389.6063 Q86.2438,389.85 86.15,389.9563 Q86.0563,390.0625 85.9063,390.0625 Q85.7688,390.0625 85.6875,389.9813 Q85.6063,389.9063 85.5625,389.7 Q85.5438,389.5563 85.4688,389.4813 Q85.3375,389.3313 85.0938,389.2438 Q84.85,389.1563 84.6,389.1563 Q84.2938,389.1563 84.0375,389.2875 Q83.7875,389.4188 83.5875,389.7188 Q83.3938,390.0188 83.3938,390.4313 L83.3938,390.8688 Q83.3938,391.3625 83.75,391.6938 Q84.1063,392.0188 84.7438,392.0188 Q85.1188,392.0188 85.3813,391.9188 Q85.5375,391.8563 85.7063,391.6813 Q85.8125,391.575 85.8688,391.5438 Q85.9313,391.5125 86.0125,391.5125 Q86.1438,391.5125 86.2438,391.6188 Q86.35,391.7188 86.35,391.8563 Q86.35,391.9938 86.2125,392.1563 Q86.0125,392.3875 85.6938,392.5188 Q85.2625,392.7 84.7438,392.7 Q84.1375,392.7 83.6563,392.45 Q83.2625,392.25 82.9875,391.825 Q82.7125,391.3938 82.7125,390.8813 L82.7125,390.4188 Q82.7125,389.8875 82.9563,389.4313 Q83.2063,388.9688 83.6438,388.725 Q84.0813,388.475 84.575,388.475 Q84.8688,388.475 85.125,388.5438 Q85.3875,388.6063 85.6063,388.75 Z " fill="#000000"/><text fill="#000000" font-family="sans-serif" font-size="5.6" lengthAdjust="spacing" textLength="14.4" x="92.7" y="392.7188">Team</text><line style="stroke:#181818;stroke-width:0.20000000000000004;" x1="50" x2="136.8" y1="396.8" y2="396.8"/><text fill="#000000" font-family="sans-serif" font-size="5.6" lengthAdjust="spacing" textLength="82.8" x="52" y="404.443">-List&lt;Collaborator&gt; collaborators</text><line style="stroke:#181818;stroke-width:0.20000000000000004;" x1="50" x2="136.8" y1="407.4484" y2="407.4484"/><text fill="#000000" font-family="sans-serif" font-size="5.6" lengthAdjust="spacing" textLength="51.2" x="52" y="415.0914">Team(collaborators)</text></g><!--class Repositories--><g id="elem_Repositories"><rect codeLine="46" fill="#F1F1F1" height="56.4422" id="Repositories" rx="1" ry="1" style="stroke:#181818;stroke-width:0.20000000000000004;" width="83.2" x="64.2" y="156.8"/><ellipse cx="88.3" cy="163.2" fill="#ADD1B2" rx="4.4" ry="4.4" style="stroke:#181818;stroke-width:0.4000000000000001;"/><path d="M89.4063,161.55 Q89.4688,161.4625 89.5438,161.4188 Q89.6188,161.375 89.7063,161.375 Q89.8563,161.375 89.95,161.4813 Q90.0438,161.5813 90.0438,161.825 L90.0438,162.4063 Q90.0438,162.65 89.95,162.7563 Q89.8563,162.8625 89.7063,162.8625 Q89.5688,162.8625 89.4875,162.7813 Q89.4063,162.7063 89.3625,162.5 Q89.3438,162.3563 89.2688,162.2813 Q89.1375,162.1313 88.8938,162.0438 Q88.65,161.9563 88.4,161.9563 Q88.0938,161.9563 87.8375,162.0875 Q87.5875,162.2188 87.3875,162.5188 Q87.1938,162.8188 87.1938,163.2313 L87.1938,163.6688 Q87.1938,164.1625 87.55,164.4938 Q87.9063,164.8188 88.5438,164.8188 Q88.9188,164.8188 89.1813,164.7188 Q89.3375,164.6563 89.5063,164.4813 Q89.6125,164.375 89.6688,164.3438 Q89.7313,164.3125 89.8125,164.3125 Q89.9438,164.3125 90.0438,164.4188 Q90.15,164.5188 90.15,164.6563 Q90.15,164.7938 90.0125,164.9563 Q89.8125,165.1875 89.4938,165.3188 Q89.0625,165.5 88.5438,165.5 Q87.9375,165.5 87.4563,165.25 Q87.0625,165.05 86.7875,164.625 Q86.5125,164.1938 86.5125,163.6813 L86.5125,163.2188 Q86.5125,162.6875 86.7563,162.2313 Q87.0063,161.7688 87.4438,161.525 Q87.8813,161.275 88.375,161.275 Q88.6688,161.275 88.925,161.3438 Q89.1875,161.4063 89.4063,161.55 Z " fill="#000000"/><text fill="#000000" font-family="sans-serif" font-size="5.6" lengthAdjust="spacing" textLength="31.6" x="96.5" y="165.5188">Repositories</text><line style="stroke:#181818;stroke-width:0.20000000000000004;" x1="64.6" x2="147" y1="169.6" y2="169.6"/><line style="stroke:#181818;stroke-width:0.20000000000000004;" x1="64.6" x2="147" y1="172.8" y2="172.8"/><text fill="#000000" font-family="sans-serif" font-size="5.6" lengthAdjust="spacing" textLength="37.6" x="66.6" y="180.443">-Repositories()</text><text fill="#000000" font-family="sans-serif" font-size="5.6" lengthAdjust="spacing" textLength="72.8" x="66.6" y="187.8914">+getInstance() : Repositories</text><text fill="#000000" font-family="sans-serif" font-size="5.6" lengthAdjust="spacing" textLength="34.8" x="66.6" y="195.3398">+getAgenda()</text><text fill="#000000" font-family="sans-serif" font-size="5.6" lengthAdjust="spacing" textLength="56.8" x="66.6" y="202.7883">+getTeamRepository()</text><text fill="#000000" font-family="sans-serif" font-size="5.6" lengthAdjust="spacing" textLength="78.4" x="66.6" y="210.2367">+getAuthenticationRepository()</text></g><!--class AuthenticationRepository--><g id="elem_AuthenticationRepository"><rect codeLine="54" fill="#F1F1F1" height="26.6484" id="AuthenticationRepository" rx="1" ry="1" style="stroke:#181818;stroke-width:0.20000000000000004;" width="76" x="208.6" y="241.2"/><ellipse cx="214.6" cy="247.6" fill="#ADD1B2" rx="4.4" ry="4.4" style="stroke:#181818;stroke-width:0.4000000000000001;"/><path d="M215.7063,245.95 Q215.7688,245.8625 215.8438,245.8188 Q215.9188,245.775 216.0063,245.775 Q216.1563,245.775 216.25,245.8813 Q216.3438,245.9813 216.3438,246.225 L216.3438,246.8063 Q216.3438,247.05 216.25,247.1563 Q216.1563,247.2625 216.0063,247.2625 Q215.8688,247.2625 215.7875,247.1813 Q215.7063,247.1063 215.6625,246.9 Q215.6438,246.7563 215.5688,246.6813 Q215.4375,246.5313 215.1938,246.4438 Q214.95,246.3563 214.7,246.3563 Q214.3938,246.3563 214.1375,246.4875 Q213.8875,246.6188 213.6875,246.9188 Q213.4938,247.2188 213.4938,247.6313 L213.4938,248.0688 Q213.4938,248.5625 213.85,248.8938 Q214.2063,249.2188 214.8438,249.2188 Q215.2188,249.2188 215.4813,249.1188 Q215.6375,249.0563 215.8063,248.8813 Q215.9125,248.775 215.9688,248.7438 Q216.0313,248.7125 216.1125,248.7125 Q216.2438,248.7125 216.3438,248.8188 Q216.45,248.9188 216.45,249.0563 Q216.45,249.1938 216.3125,249.3563 Q216.1125,249.5875 215.7938,249.7188 Q215.3625,249.9 214.8438,249.9 Q214.2375,249.9 213.7563,249.65 Q213.3625,249.45 213.0875,249.025 Q212.8125,248.5938 212.8125,248.0813 L212.8125,247.6188 Q212.8125,247.0875 213.0563,246.6313 Q213.3063,246.1688 213.7438,245.925 Q214.1813,245.675 214.675,245.675 Q214.9688,245.675 215.225,245.7438 Q215.4875,245.8063 215.7063,245.95 Z " fill="#000000"/><text fill="#000000" font-family="sans-serif" font-size="5.6" lengthAdjust="spacing" textLength="63.2" x="220.2" y="249.9188">AuthenticationRepository</text><line style="stroke:#181818;stroke-width:0.20000000000000004;" x1="209" x2="284.2" y1="254" y2="254"/><line style="stroke:#181818;stroke-width:0.20000000000000004;" x1="209" x2="284.2" y1="257.2" y2="257.2"/><text fill="#000000" font-family="sans-serif" font-size="5.6" lengthAdjust="spacing" textLength="66" x="211" y="264.843">+getCurrentUserSession()</text></g><!--class UserSession--><g id="elem_UserSession"><rect codeLine="58" fill="#F1F1F1" height="26.6484" id="UserSession" rx="1" ry="1" style="stroke:#181818;stroke-width:0.20000000000000004;" width="70.8" x="211.2" y="318"/><ellipse cx="229.1" cy="324.4" fill="#ADD1B2" rx="4.4" ry="4.4" style="stroke:#181818;stroke-width:0.4000000000000001;"/><path d="M230.2063,322.75 Q230.2688,322.6625 230.3438,322.6188 Q230.4188,322.575 230.5063,322.575 Q230.6563,322.575 230.75,322.6813 Q230.8438,322.7813 230.8438,323.025 L230.8438,323.6063 Q230.8438,323.85 230.75,323.9563 Q230.6563,324.0625 230.5063,324.0625 Q230.3688,324.0625 230.2875,323.9813 Q230.2063,323.9063 230.1625,323.7 Q230.1438,323.5563 230.0688,323.4813 Q229.9375,323.3313 229.6938,323.2438 Q229.45,323.1563 229.2,323.1563 Q228.8938,323.1563 228.6375,323.2875 Q228.3875,323.4188 228.1875,323.7188 Q227.9938,324.0188 227.9938,324.4313 L227.9938,324.8688 Q227.9938,325.3625 228.35,325.6938 Q228.7063,326.0188 229.3438,326.0188 Q229.7188,326.0188 229.9813,325.9188 Q230.1375,325.8563 230.3063,325.6813 Q230.4125,325.575 230.4688,325.5438 Q230.5313,325.5125 230.6125,325.5125 Q230.7438,325.5125 230.8438,325.6188 Q230.95,325.7188 230.95,325.8563 Q230.95,325.9938 230.8125,326.1563 Q230.6125,326.3875 230.2938,326.5188 Q229.8625,326.7 229.3438,326.7 Q228.7375,326.7 228.2563,326.45 Q227.8625,326.25 227.5875,325.825 Q227.3125,325.3938 227.3125,324.8813 L227.3125,324.4188 Q227.3125,323.8875 227.5563,323.4313 Q227.8063,322.9688 228.2438,322.725 Q228.6813,322.475 229.175,322.475 Q229.4688,322.475 229.725,322.5438 Q229.9875,322.6063 230.2063,322.75 Z " fill="#000000"/><text fill="#000000" font-family="sans-serif" font-size="5.6" lengthAdjust="spacing" textLength="31.6" x="237.3" y="326.7188">UserSession</text><line style="stroke:#181818;stroke-width:0.20000000000000004;" x1="211.6" x2="281.6" y1="330.8" y2="330.8"/><line style="stroke:#181818;stroke-width:0.20000000000000004;" x1="211.6" x2="281.6" y1="334" y2="334"/><text fill="#000000" font-family="sans-serif" font-size="5.6" lengthAdjust="spacing" textLength="66" x="213.6" y="341.643">+getCurrentUserSession()</text></g><!--class EmailService--><g id="elem_EmailService"><rect codeLine="62" fill="#F1F1F1" height="26.6484" id="EmailService" rx="1" ry="1" style="stroke:#181818;stroke-width:0.20000000000000004;" width="137.6" x="344.2" y="171.6"/><ellipse cx="395.1" cy="178" fill="#ADD1B2" rx="4.4" ry="4.4" style="stroke:#181818;stroke-width:0.4000000000000001;"/><path d="M396.2063,176.35 Q396.2688,176.2625 396.3438,176.2188 Q396.4188,176.175 396.5063,176.175 Q396.6563,176.175 396.75,176.2813 Q396.8438,176.3813 396.8438,176.625 L396.8438,177.2063 Q396.8438,177.45 396.75,177.5563 Q396.6563,177.6625 396.5063,177.6625 Q396.3688,177.6625 396.2875,177.5813 Q396.2063,177.5063 396.1625,177.3 Q396.1438,177.1563 396.0688,177.0813 Q395.9375,176.9313 395.6938,176.8438 Q395.45,176.7563 395.2,176.7563 Q394.8938,176.7563 394.6375,176.8875 Q394.3875,177.0188 394.1875,177.3188 Q393.9938,177.6188 393.9938,178.0313 L393.9938,178.4688 Q393.9938,178.9625 394.35,179.2938 Q394.7063,179.6188 395.3438,179.6188 Q395.7188,179.6188 395.9813,179.5188 Q396.1375,179.4563 396.3063,179.2813 Q396.4125,179.175 396.4688,179.1438 Q396.5313,179.1125 396.6125,179.1125 Q396.7438,179.1125 396.8438,179.2188 Q396.95,179.3188 396.95,179.4563 Q396.95,179.5938 396.8125,179.7563 Q396.6125,179.9875 396.2938,180.1188 Q395.8625,180.3 395.3438,180.3 Q394.7375,180.3 394.2563,180.05 Q393.8625,179.85 393.5875,179.425 Q393.3125,178.9938 393.3125,178.4813 L393.3125,178.0188 Q393.3125,177.4875 393.5563,177.0313 Q393.8063,176.5688 394.2438,176.325 Q394.6813,176.075 395.175,176.075 Q395.4688,176.075 395.725,176.1438 Q395.9875,176.2063 396.2063,176.35 Z " fill="#000000"/><text fill="#000000" font-family="sans-serif" font-size="5.6" lengthAdjust="spacing" textLength="32.4" x="403.3" y="180.3188">EmailService</text><line style="stroke:#181818;stroke-width:0.20000000000000004;" x1="344.6" x2="481.4" y1="184.4" y2="184.4"/><line style="stroke:#181818;stroke-width:0.20000000000000004;" x1="344.6" x2="481.4" y1="187.6" y2="187.6"/><text fill="#000000" font-family="sans-serif" font-size="5.6" lengthAdjust="spacing" textLength="132.8" x="346.6" y="195.243">+sendToEmailFile(from, to, nameCollaborator, entry)</text></g><!--class ApplicationSession--><g id="elem_ApplicationSession"><rect codeLine="66" fill="#F1F1F1" height="34.0969" id="ApplicationSession" rx="1" ry="1" style="stroke:#181818;stroke-width:0.20000000000000004;" width="60.4" x="382.8" y="237.6"/><ellipse cx="388.8" cy="244" fill="#ADD1B2" rx="4.4" ry="4.4" style="stroke:#181818;stroke-width:0.4000000000000001;"/><path d="M389.9063,242.35 Q389.9688,242.2625 390.0438,242.2188 Q390.1188,242.175 390.2063,242.175 Q390.3563,242.175 390.45,242.2813 Q390.5438,242.3813 390.5438,242.625 L390.5438,243.2063 Q390.5438,243.45 390.45,243.5563 Q390.3563,243.6625 390.2063,243.6625 Q390.0688,243.6625 389.9875,243.5813 Q389.9063,243.5063 389.8625,243.3 Q389.8438,243.1563 389.7688,243.0813 Q389.6375,242.9313 389.3938,242.8438 Q389.15,242.7563 388.9,242.7563 Q388.5938,242.7563 388.3375,242.8875 Q388.0875,243.0188 387.8875,243.3188 Q387.6938,243.6188 387.6938,244.0313 L387.6938,244.4688 Q387.6938,244.9625 388.05,245.2938 Q388.4063,245.6188 389.0438,245.6188 Q389.4188,245.6188 389.6813,245.5188 Q389.8375,245.4563 390.0063,245.2813 Q390.1125,245.175 390.1688,245.1438 Q390.2313,245.1125 390.3125,245.1125 Q390.4438,245.1125 390.5438,245.2188 Q390.65,245.3188 390.65,245.4563 Q390.65,245.5938 390.5125,245.7563 Q390.3125,245.9875 389.9938,246.1188 Q389.5625,246.3 389.0438,246.3 Q388.4375,246.3 387.9563,246.05 Q387.5625,245.85 387.2875,245.425 Q387.0125,244.9938 387.0125,244.4813 L387.0125,244.0188 Q387.0125,243.4875 387.2563,243.0313 Q387.5063,242.5688 387.9438,242.325 Q388.3813,242.075 388.875,242.075 Q389.1688,242.075 389.425,242.1438 Q389.6875,242.2063 389.9063,242.35 Z " fill="#000000"/><text fill="#000000" font-family="sans-serif" font-size="5.6" lengthAdjust="spacing" textLength="47.6" x="394.4" y="246.3188">ApplicationSession</text><line style="stroke:#181818;stroke-width:0.20000000000000004;" x1="383.2" x2="442.8" y1="250.4" y2="250.4"/><line style="stroke:#181818;stroke-width:0.20000000000000004;" x1="383.2" x2="442.8" y1="253.6" y2="253.6"/><text fill="#000000" font-family="sans-serif" font-size="5.6" lengthAdjust="spacing" textLength="27.6" x="385.2" y="261.243">-getEmail()</text><text fill="#000000" font-family="sans-serif" font-size="5.6" lengthAdjust="spacing" textLength="47.6" x="385.2" y="268.6914">+getEmailService()</text></g><!--class Email--><g id="elem_Email"><rect codeLine="71" fill="#F1F1F1" height="26.6484" id="Email" rx="1" ry="1" style="stroke:#181818;stroke-width:0.20000000000000004;" width="94" x="462.8" y="318"/><ellipse cx="501.3" cy="324.4" fill="#B4A7E5" rx="4.4" ry="4.4" style="stroke:#181818;stroke-width:0.4000000000000001;"/><path d="M501.6813,323.0563 L501.6813,325.7188 L502.3688,325.7188 Q502.6125,325.7188 502.7188,325.8125 Q502.825,325.9063 502.825,326.0625 Q502.825,326.2125 502.7188,326.3063 Q502.6125,326.4 502.3688,326.4 L500.3125,326.4 Q500.0688,326.4 499.9625,326.3063 Q499.8563,326.2125 499.8563,326.0563 Q499.8563,325.9063 499.9625,325.8125 Q500.0688,325.7188 500.3125,325.7188 L501,325.7188 L501,323.0563 L500.3125,323.0563 Q500.0688,323.0563 499.9625,322.9625 Q499.8563,322.8688 499.8563,322.7125 Q499.8563,322.5625 499.9625,322.4688 Q500.0688,322.375 500.3125,322.375 L502.3688,322.375 Q502.6125,322.375 502.7188,322.4688 Q502.825,322.5625 502.825,322.7125 Q502.825,322.8688 502.7188,322.9625 Q502.6125,323.0563 502.3688,323.0563 L501.6813,323.0563 Z " fill="#000000"/><text fill="#000000" font-family="sans-serif" font-size="5.6" font-style="italic" lengthAdjust="spacing" textLength="13.6" x="509.5" y="326.7188">Email</text><line style="stroke:#181818;stroke-width:0.20000000000000004;" x1="463.2" x2="556.4" y1="330.8" y2="330.8"/><line style="stroke:#181818;stroke-width:0.20000000000000004;" x1="463.2" x2="556.4" y1="334" y2="334"/><text fill="#000000" font-family="sans-serif" font-size="5.6" lengthAdjust="spacing" textLength="89.2" x="465.2" y="341.643">+sendEmail(from, to, subject, body)</text></g><!--class DeiService--><g id="elem_DeiService"><rect codeLine="75" fill="#F1F1F1" height="34.0969" id="DeiService" rx="1" ry="1" style="stroke:#181818;stroke-width:0.20000000000000004;" width="104.8" x="457.4" y="237.6"/><ellipse cx="494.5" cy="244" fill="#ADD1B2" rx="4.4" ry="4.4" style="stroke:#181818;stroke-width:0.4000000000000001;"/><path d="M495.6063,242.35 Q495.6688,242.2625 495.7438,242.2188 Q495.8188,242.175 495.9063,242.175 Q496.0563,242.175 496.15,242.2813 Q496.2438,242.3813 496.2438,242.625 L496.2438,243.2063 Q496.2438,243.45 496.15,243.5563 Q496.0563,243.6625 495.9063,243.6625 Q495.7688,243.6625 495.6875,243.5813 Q495.6063,243.5063 495.5625,243.3 Q495.5438,243.1563 495.4688,243.0813 Q495.3375,242.9313 495.0938,242.8438 Q494.85,242.7563 494.6,242.7563 Q494.2938,242.7563 494.0375,242.8875 Q493.7875,243.0188 493.5875,243.3188 Q493.3938,243.6188 493.3938,244.0313 L493.3938,244.4688 Q493.3938,244.9625 493.75,245.2938 Q494.1063,245.6188 494.7438,245.6188 Q495.1188,245.6188 495.3813,245.5188 Q495.5375,245.4563 495.7063,245.2813 Q495.8125,245.175 495.8688,245.1438 Q495.9313,245.1125 496.0125,245.1125 Q496.1438,245.1125 496.2438,245.2188 Q496.35,245.3188 496.35,245.4563 Q496.35,245.5938 496.2125,245.7563 Q496.0125,245.9875 495.6938,246.1188 Q495.2625,246.3 494.7438,246.3 Q494.1375,246.3 493.6563,246.05 Q493.2625,245.85 492.9875,245.425 Q492.7125,244.9938 492.7125,244.4813 L492.7125,244.0188 Q492.7125,243.4875 492.9563,243.0313 Q493.2063,242.5688 493.6438,242.325 Q494.0813,242.075 494.575,242.075 Q494.8688,242.075 495.125,242.1438 Q495.3875,242.2063 495.6063,242.35 Z " fill="#000000"/><text fill="#000000" font-family="sans-serif" font-size="5.6" lengthAdjust="spacing" textLength="27.2" x="502.7" y="246.3188">DeiService</text><line style="stroke:#181818;stroke-width:0.20000000000000004;" x1="457.8" x2="561.8" y1="250.4" y2="250.4"/><line style="stroke:#181818;stroke-width:0.20000000000000004;" x1="457.8" x2="561.8" y1="253.6" y2="253.6"/><text fill="#000000" font-family="sans-serif" font-size="5.6" lengthAdjust="spacing" textLength="89.2" x="459.8" y="261.243">+sendEmail(from, to, subject, body)</text><text fill="#000000" font-family="sans-serif" font-size="5.6" lengthAdjust="spacing" textLength="100" x="459.8" y="268.6914">-writeToFile(file, from, to, subject, body)</text></g><!--class GmailService--><g id="elem_GmailService"><rect codeLine="80" fill="#F1F1F1" height="34.0969" id="GmailService" rx="1" ry="1" style="stroke:#181818;stroke-width:0.20000000000000004;" width="104.8" x="576.2" y="237.6"/><ellipse cx="610.3" cy="244" fill="#ADD1B2" rx="4.4" ry="4.4" style="stroke:#181818;stroke-width:0.4000000000000001;"/><path d="M611.4063,242.35 Q611.4688,242.2625 611.5438,242.2188 Q611.6188,242.175 611.7063,242.175 Q611.8563,242.175 611.95,242.2813 Q612.0438,242.3813 612.0438,242.625 L612.0438,243.2063 Q612.0438,243.45 611.95,243.5563 Q611.8563,243.6625 611.7063,243.6625 Q611.5688,243.6625 611.4875,243.5813 Q611.4063,243.5063 611.3625,243.3 Q611.3438,243.1563 611.2688,243.0813 Q611.1375,242.9313 610.8938,242.8438 Q610.65,242.7563 610.4,242.7563 Q610.0938,242.7563 609.8375,242.8875 Q609.5875,243.0188 609.3875,243.3188 Q609.1938,243.6188 609.1938,244.0313 L609.1938,244.4688 Q609.1938,244.9625 609.55,245.2938 Q609.9063,245.6188 610.5438,245.6188 Q610.9188,245.6188 611.1813,245.5188 Q611.3375,245.4563 611.5063,245.2813 Q611.6125,245.175 611.6688,245.1438 Q611.7313,245.1125 611.8125,245.1125 Q611.9438,245.1125 612.0438,245.2188 Q612.15,245.3188 612.15,245.4563 Q612.15,245.5938 612.0125,245.7563 Q611.8125,245.9875 611.4938,246.1188 Q611.0625,246.3 610.5438,246.3 Q609.9375,246.3 609.4563,246.05 Q609.0625,245.85 608.7875,245.425 Q608.5125,244.9938 608.5125,244.4813 L608.5125,244.0188 Q608.5125,243.4875 608.7563,243.0313 Q609.0063,242.5688 609.4438,242.325 Q609.8813,242.075 610.375,242.075 Q610.6688,242.075 610.925,242.1438 Q611.1875,242.2063 611.4063,242.35 Z " fill="#000000"/><text fill="#000000" font-family="sans-serif" font-size="5.6" lengthAdjust="spacing" textLength="33.2" x="618.5" y="246.3188">GmailService</text><line style="stroke:#181818;stroke-width:0.20000000000000004;" x1="576.6" x2="680.6" y1="250.4" y2="250.4"/><line style="stroke:#181818;stroke-width:0.20000000000000004;" x1="576.6" x2="680.6" y1="253.6" y2="253.6"/><text fill="#000000" font-family="sans-serif" font-size="5.6" lengthAdjust="spacing" textLength="89.2" x="578.6" y="261.243">+sendEmail(from, to, subject, body)</text><text fill="#000000" font-family="sans-serif" font-size="5.6" lengthAdjust="spacing" textLength="100" x="578.6" y="268.6914">-writeToFile(file, from, to, subject, body)</text></g><!--link AssignTeamUI to AssignTeamController--><g id="link_AssignTeamUI_AssignTeamController"><path codeLine="86" d="M207,22.144 C207,28.46 207,34.876 207,43.924 " fill="none" id="AssignTeamUI-to-AssignTeamController" style="stroke:#181818;stroke-width:0.4000000000000001;stroke-dasharray:7.0,7.0;"/><polygon fill="#181818" points="207,46.324,208.6,42.724,207,44.324,205.4,42.724,207,46.324" style="stroke:#181818;stroke-width:0.4000000000000001;"/></g><!--link AssignTeamController to Repositories--><g id="link_AssignTeamController_Repositories"><path codeLine="87" d="M166.856,125.232 C156.04,135.748 146.2808,145.2391 136.2248,155.0151 " fill="none" id="AssignTeamController-to-Repositories" style="stroke:#181818;stroke-width:0.4000000000000001;stroke-dasharray:7.0,7.0;"/><polygon fill="#181818" points="134.504,156.688,138.2006,155.3258,135.938,155.2939,135.97,153.0314,134.504,156.688" style="stroke:#181818;stroke-width:0.4000000000000001;"/><text fill="#000000" font-family="sans-serif" font-size="5.2" lengthAdjust="spacing" textLength="26.8" x="153.8" y="143.2113">repositories</text></g><!--link AssignTeamController to Agenda--><g id="link_AssignTeamController_Agenda"><path codeLine="88" d="M118.292,123.568 C78.092,140.5 39.4,156.8 39.4,156.8 C39.4,156.8 39.4,213.2 39.4,213.2 C39.4,213.2 41.3805,226.7413 43.1365,238.7413 " fill="none" id="AssignTeamController-to-Agenda" style="stroke:#181818;stroke-width:0.4000000000000001;stroke-dasharray:7.0,7.0;"/><polygon fill="#181818" points="43.484,241.116,44.5459,237.3223,43.1944,239.1371,41.3796,237.7856,43.484,241.116" style="stroke:#181818;stroke-width:0.4000000000000001;"/><text fill="#000000" font-family="sans-serif" font-size="5.2" lengthAdjust="spacing" textLength="16.8" x="39.8" y="187.2113">agenda</text></g><!--link AssignTeamController to TeamRepository--><g id="link_AssignTeamController_TeamRepository"><path codeLine="89" d="M200.468,125.34 C194.236,162.656 185.8,213.2 185.8,213.2 C185.8,213.2 170.4757,227.4797 157.5997,239.4797 " fill="none" id="AssignTeamController-to-TeamRepository" style="stroke:#181818;stroke-width:0.4000000000000001;stroke-dasharray:7.0,7.0;"/><polygon fill="#181818" points="155.844,241.116,159.5684,239.8321,157.3071,239.7524,157.3867,237.4911,155.844,241.116" style="stroke:#181818;stroke-width:0.4000000000000001;"/><text fill="#000000" font-family="sans-serif" font-size="5.2" lengthAdjust="spacing" textLength="36.4" x="195.8" y="187.2113">teamRepository</text></g><!--link AssignTeamController to AuthenticationRepository--><g id="link_AssignTeamController_AuthenticationRepository"><path codeLine="90" d="M229.328,125.216 C238.672,141.544 247.4,156.8 247.4,156.8 C247.4,156.8 247.4,213.2 247.4,213.2 C247.4,213.2 247.1344,226.7164 246.9024,238.7164 " fill="none" id="AssignTeamController-to-AuthenticationRepository" style="stroke:#181818;stroke-width:0.4000000000000001;stroke-dasharray:7.0,7.0;"/><polygon fill="#181818" points="246.856,241.116,248.5253,237.5476,246.8947,239.1164,245.3259,237.4857,246.856,241.116" style="stroke:#181818;stroke-width:0.4000000000000001;"/><text fill="#000000" font-family="sans-serif" font-size="5.2" lengthAdjust="spacing" textLength="57.2" x="247.8" y="187.2113">authenticationRepository</text></g><!--link AuthenticationRepository to UserSession--><g id="link_AuthenticationRepository_UserSession"><path codeLine="91" d="M246.6,268.064 C246.6,282.028 246.6,301.632 246.6,315.58 " fill="none" id="AuthenticationRepository-to-UserSession" style="stroke:#181818;stroke-width:0.4000000000000001;stroke-dasharray:7.0,7.0;"/><polygon fill="#181818" points="246.6,317.98,248.2,314.38,246.6,315.98,245,314.38,246.6,317.98" style="stroke:#181818;stroke-width:0.4000000000000001;"/></g><!--link Repositories to Repositories--><g id="link_Repositories_Repositories"><path codeLine="92" d="M147.504,177.832 C155.632,178.664 161.4,181.056 161.4,185 C161.4,188.944 158.0195,191.0916 149.8915,191.9236 " fill="none" id="Repositories-to-Repositories" style="stroke:#181818;stroke-width:0.4000000000000001;"/><polygon fill="#181818" points="147.504,192.168,151.2482,193.3931,149.4936,191.9643,150.9224,190.2097,147.504,192.168" style="stroke:#181818;stroke-width:0.4000000000000001;"/><text fill="#000000" font-family="sans-serif" font-size="5.2" lengthAdjust="spacing" textLength="19.6" x="163.8" y="187.2113">instance</text></g><!--link Repositories to Agenda--><g id="link_Repositories_Agenda"><path codeLine="93" d="M81.232,213.384 C72.808,222.98 65.3556,231.4686 58.4676,239.3126 " fill="none" id="Repositories-to-Agenda" style="stroke:#181818;stroke-width:0.4000000000000001;"/><polygon fill="#181818" points="56.884,241.116,60.4617,239.4666,58.2037,239.6132,58.0571,237.3552,56.884,241.116" style="stroke:#181818;stroke-width:0.4000000000000001;"/><text fill="#000000" font-family="sans-serif" font-size="5.2" lengthAdjust="spacing" textLength="2.8" x="56.0063" y="236.7344">1</text></g><!--link Repositories to TeamRepository--><g id="link_Repositories_TeamRepository"><path codeLine="94" d="M120.444,213.384 C125.464,222.98 129.7345,231.1459 133.8425,238.9899 " fill="none" id="Repositories-to-TeamRepository" style="stroke:#181818;stroke-width:0.4000000000000001;"/><polygon fill="#181818" points="134.956,241.116,134.7032,237.1846,134.0281,239.3443,131.8684,238.6692,134.956,241.116" style="stroke:#181818;stroke-width:0.4000000000000001;"/><text fill="#000000" font-family="sans-serif" font-size="5.2" lengthAdjust="spacing" textLength="2.8" x="130.5845" y="236.7344">1</text></g><!--link Repositories to AuthenticationRepository--><g id="link_Repositories_AuthenticationRepository"><path codeLine="95" d="M147.472,205.764 C170.908,217.216 197.3116,230.1185 217.7476,240.1025 " fill="none" id="Repositories-to-AuthenticationRepository" style="stroke:#181818;stroke-width:0.4000000000000001;"/><polygon fill="#181818" points="219.904,241.156,217.3717,238.1381,218.107,240.2781,215.967,241.0133,219.904,241.156" style="stroke:#181818;stroke-width:0.4000000000000001;"/><text fill="#000000" font-family="sans-serif" font-size="5.2" lengthAdjust="spacing" textLength="2.8" x="211.5726" y="236.6775">1</text></g><!--link Agenda to Entry--><g id="link_Agenda_Entry"><path codeLine="96" d="M47.944,268.064 C49.82,277.7 51.9808,288.8043 54.3208,300.8083 " fill="none" id="Agenda-to-Entry" style="stroke:#181818;stroke-width:0.4000000000000001;"/><polygon fill="#181818" points="54.78,303.164,55.6616,299.3244,54.3973,301.2009,52.5208,299.9366,54.78,303.164" style="stroke:#181818;stroke-width:0.4000000000000001;"/><text fill="#000000" font-family="sans-serif" font-size="5.2" lengthAdjust="spacing" textLength="2" x="52.1179" y="298.7167">*</text></g><!--link TeamRepository to Team--><g id="link_TeamRepository_Team"><path codeLine="97" d="M137.464,268.048 C128.656,294.54 109.453,352.3025 99.713,381.6065 " fill="none" id="TeamRepository-to-Team" style="stroke:#181818;stroke-width:0.4000000000000001;"/><polygon fill="#181818" points="98.956,383.884,101.6098,380.9724,99.5868,381.9861,98.5732,379.9631,98.956,383.884" style="stroke:#181818;stroke-width:0.4000000000000001;"/><text fill="#000000" font-family="sans-serif" font-size="5.2" lengthAdjust="spacing" textLength="2" x="97.6536" y="379.5553">*</text></g><!--link Entry to Team--><g id="link_Entry_Team"><path codeLine="98" d="M73.704,359.784 C77.652,367.968 80.7999,374.495 84.2999,381.739 " fill="none" id="Entry-to-Team" style="stroke:#181818;stroke-width:0.4000000000000001;"/><polygon fill="#181818" points="85.344,383.9,85.2185,379.9625,84.4739,382.0992,82.3372,381.3546,85.344,383.9" style="stroke:#181818;stroke-width:0.4000000000000001;"/><text fill="#000000" font-family="sans-serif" font-size="5.2" lengthAdjust="spacing" textLength="2.8" x="81.037" y="379.4457">1</text></g><!--link AssignTeamController to EmailService--><g id="link_AssignTeamController_EmailService"><path codeLine="99" d="M288.712,125.232 C323.2,141.704 358.8463,158.7336 383.6023,170.5576 " fill="none" id="AssignTeamController-to-EmailService" style="stroke:#181818;stroke-width:0.4000000000000001;stroke-dasharray:7.0,7.0;"/><polygon fill="#181818" points="385.768,171.592,383.2091,168.5967,383.9633,170.73,381.8299,171.4842,385.768,171.592" style="stroke:#181818;stroke-width:0.4000000000000001;"/></g><!--link EmailService to ApplicationSession--><g id="link_EmailService_ApplicationSession"><path codeLine="100" d="M413,198.504 C413,209.576 413,223.1 413,235.088 " fill="none" id="EmailService-to-ApplicationSession" style="stroke:#181818;stroke-width:0.4000000000000001;stroke-dasharray:7.0,7.0;"/><polygon fill="#181818" points="413,237.488,414.6,233.888,413,235.488,411.4,233.888,413,237.488" style="stroke:#181818;stroke-width:0.4000000000000001;"/></g><!--link ApplicationSession to Email--><g id="link_ApplicationSession_Email"><path codeLine="101" d="M434.244,271.68 C451.94,285.572 474.9122,303.61 491.2122,316.406 " fill="none" id="ApplicationSession-to-Email" style="stroke:#181818;stroke-width:0.4000000000000001;"/><polygon fill="#181818" points="493.1,317.888,491.2563,314.4065,491.5268,316.653,489.2803,316.9236,493.1,317.888" style="stroke:#181818;stroke-width:0.4000000000000001;"/><text fill="#000000" font-family="sans-serif" font-size="5.2" lengthAdjust="spacing" textLength="19.6" x="459" y="289.6113">instance</text></g><!--link DeiService to Email--><g id="link_DeiService_Email"><path codeLine="102" d="M509.8,271.68 C509.8,285.572 509.8,302.692 509.8,315.488 " fill="none" id="DeiService-to-Email" style="stroke:#181818;stroke-width:0.4000000000000001;stroke-dasharray:7.0,7.0;"/><polygon fill="#181818" points="509.8,317.888,511.4,314.288,509.8,315.888,508.2,314.288,509.8,317.888" style="stroke:#181818;stroke-width:0.4000000000000001;"/></g><!--link GmailService to Email--><g id="link_GmailService_Email"><path codeLine="103" d="M602.528,271.68 C580.808,285.572 552.3218,303.7987 532.3178,316.5947 " fill="none" id="GmailService-to-Email" style="stroke:#181818;stroke-width:0.4000000000000001;stroke-dasharray:7.0,7.0;"/><polygon fill="#181818" points="530.296,317.888,534.1908,317.2959,531.9808,316.8103,532.4665,314.6003,530.296,317.888" style="stroke:#181818;stroke-width:0.4000000000000001;"/></g><!--SRC=[hLNDSjem4BxhAJIvG1gJQQzC9pCK4eQPzbB80mYpW8gHFDBIb7Rwxbr96A_1Jd8e1sFjpxVVhdRNFR_JfbHExUNU6fjldTs3H7S0KMjAbU_K1kPuB40wo56PJS4D_5Qjx8is6xbMXUUQGXl0OmcojCKn74IlHMaTMi6yya9vFq9qUdb0cENMpFLla1-5w1MmHebMEhtPebpfG4TR8qJqaIFlzSOiGEsVP_AF-7ij7rk3pXO5ED9B-jsrwVgKhrcfZ49Dx5VjCPFgW5img7CL0dw7qdgDrXrl4ueweopi8y4SJn0piu9VX4EA-9hC1nl0QFNb6ANSkBO8Q9N11S3T2K233_JwjJGuSTd04_9Y2uzxfOk53Uh-cguvv9P9e_OmffJLqZf5wMGI0gsQmtJ-xOcivq3vMKEOTKqZvQgAhoPqzeac9vV1H258ZyeXjKuu9772dQF2Wmzg-akAXV8xYVH84LELkNyMjLSN4ckNRfbH2Phw5baQ7LLlE5OfX3f_vlLxa3ax9UAHGqFCqCuKw2Ohr8Qmkbf9r6Q6qZKvz6_bi65KcwJgSQTcebmpwcZfnYrtsB22ZG_EaScp1zVI9apyRf_OgtDmFtKEbLDiOnirJxg0z_HmdKHP5gSCcbJY70P8Da0yU2Ab3O9RA-8ITPnHSgwv-CFo1wsaJ2xjYZEOW6x9vmtloF35QOI5JJdJ8vDlHvjsrE__nnEDZNj__z2wQaNh_WtMl8c7z75XBTtfarfyADEAwRPhDlumxk3w_0f-HyiFExy1edDA0XvhSj4Ozy7WiW3wDE3NTZUVRaw9j-kQoNRuTz9FgppQVRX9MrfSBCXA6SGYxN4UkxkSV9v4Ox9ZiQz6KxHCQuWKNLc9s4YTmuZf9NuI_mC0]--></g></svg>