<?xml version="1.0" encoding="us-ascii" standalone="no"?><svg xmlns="http://www.w3.org/2000/svg" xmlns:xlink="http://www.w3.org/1999/xlink" contentStyleType="text/css" height="597.6px" preserveAspectRatio="none" style="width:225px;height:597px;background:#FFFFFF;" version="1.1" viewBox="0 0 225 597" width="225px" zoomAndPan="magnify"><defs/><g><text fill="#000000" font-family="sans-serif" font-size="12.6" font-weight="bold" lengthAdjust="spacing" textLength="140.4" x="36.225" y="22.5967">Domain Model - US023</text><!--class Organization--><g id="elem_Organization"><rect codeLine="12" fill="#F1F1F1" height="32.959" id="Organization" rx="2.25" ry="2.25" style="stroke:#181818;stroke-width:0.45;" width="77.4" x="92.25" y="41.959"/><text fill="#000000" font-family="sans-serif" font-size="12.6" lengthAdjust="spacing" textLength="72" x="94.95" y="60.0557">Organization</text><line style="stroke:#181818;stroke-width:0.45;" x1="93.15" x2="168.75" y1="67.718" y2="67.718"/></g><!--class GreenSpacesManager--><g id="elem_GreenSpacesManager"><rect codeLine="15" fill="#F1F1F1" height="49.718" id="GreenSpacesManager" rx="2.25" ry="2.25" style="stroke:#181818;stroke-width:0.45;" width="134.1" x="6.3" y="146.359"/><text fill="#000000" font-family="sans-serif" font-size="12.6" lengthAdjust="spacing" textLength="128.7" x="9" y="164.4557">GreenSpacesManager</text><line style="stroke:#181818;stroke-width:0.45;" x1="7.2" x2="139.5" y1="172.118" y2="172.118"/><text fill="#000000" font-family="sans-serif" font-size="12.6" lengthAdjust="spacing" textLength="29.7" x="11.7" y="189.3146">email</text></g><!--class Agenda--><g id="elem_Agenda"><rect codeLine="19" fill="#F1F1F1" height="32.959" id="Agenda" rx="2.25" ry="2.25" style="stroke:#181818;stroke-width:0.45;" width="49.5" x="163.8" y="222.859"/><text fill="#000000" font-family="sans-serif" font-size="12.6" lengthAdjust="spacing" textLength="44.1" x="166.5" y="240.9557">Agenda</text><line style="stroke:#181818;stroke-width:0.45;" x1="164.7" x2="212.4" y1="248.618" y2="248.618"/></g><!--class Entry--><g id="elem_Entry"><rect codeLine="22" fill="#F1F1F1" height="83.2359" id="Entry" rx="2.25" ry="2.25" style="stroke:#181818;stroke-width:0.45;" width="80.1" x="100.8" y="508.159"/><text fill="#000000" font-family="sans-serif" font-size="12.6" lengthAdjust="spacing" textLength="29.7" x="126" y="526.2557">Entry</text><line style="stroke:#181818;stroke-width:0.45;" x1="101.7" x2="180" y1="533.918" y2="533.918"/><text fill="#000000" font-family="sans-serif" font-size="12.6" lengthAdjust="spacing" textLength="69.3" x="106.2" y="551.1146">startingDate</text><text fill="#000000" font-family="sans-serif" font-size="12.6" lengthAdjust="spacing" textLength="34.2" x="106.2" y="567.8736">status</text><text fill="#000000" font-family="sans-serif" font-size="12.6" lengthAdjust="spacing" textLength="23.4" x="106.2" y="584.6326">task</text></g><!--class Team--><g id="elem_Team"><rect codeLine="28" fill="#F1F1F1" height="49.718" id="Team" rx="2.25" ry="2.25" style="stroke:#181818;stroke-width:0.45;" width="84.6" x="51.75" y="387.559"/><text fill="#000000" font-family="sans-serif" font-size="12.6" lengthAdjust="spacing" textLength="32.4" x="77.85" y="405.6557">Team</text><line style="stroke:#181818;stroke-width:0.45;" x1="52.65" x2="135.45" y1="413.318" y2="413.318"/><text fill="#000000" font-family="sans-serif" font-size="12.6" lengthAdjust="spacing" textLength="73.8" x="57.15" y="430.5146">collaborators</text></g><!--class Email--><g id="elem_Email"><rect codeLine="32" fill="#F1F1F1" height="32.959" id="Email" rx="2.25" ry="2.25" style="stroke:#181818;stroke-width:0.45;" width="36" x="94.95" y="283.159"/><text fill="#000000" font-family="sans-serif" font-size="12.6" lengthAdjust="spacing" textLength="30.6" x="97.65" y="301.2557">Email</text><line style="stroke:#181818;stroke-width:0.45;" x1="95.85" x2="130.05" y1="308.918" y2="308.918"/></g><!--link Organization to GreenSpacesManager--><g id="link_Organization_GreenSpacesManager"><path codeLine="35" d="M122.697,75.367 C113.058,93.907 97.002,124.759 85.833,146.224 " fill="none" id="Organization-GreenSpacesManager" style="stroke:#181818;stroke-width:0.9;"/><polygon fill="#000000" points="109.0731,114.932,115.1767,108.9311,110.4838,106.4895,109.0731,114.932" style="stroke:#000000;stroke-width:0.9;"/><text fill="#000000" font-family="sans-serif" font-size="11.7" lengthAdjust="spacing" textLength="18.9" x="119.25" y="115.7845">has</text><text fill="#000000" font-family="sans-serif" font-size="11.7" lengthAdjust="spacing" textLength="6.3" x="113.3324" y="94.6331">1</text><text fill="#000000" font-family="sans-serif" font-size="11.7" lengthAdjust="spacing" textLength="18" x="68.6384" y="136.0308">1..*</text></g><!--link Organization to Agenda--><g id="link_Organization_Agenda"><path codeLine="36" d="M136.782,75.286 C139.707,83.332 143.253,93.286 146.25,102.259 C160.695,145.513 176.229,197.029 183.825,222.58 " fill="none" id="Organization-Agenda" style="stroke:#181818;stroke-width:0.9;"/><polygon fill="#000000" points="156.6191,115.2266,156.662,106.6672,151.6227,108.2767,156.6191,115.2266" style="stroke:#000000;stroke-width:0.9;"/><text fill="#000000" font-family="sans-serif" font-size="11.7" lengthAdjust="spacing" textLength="18.9" x="163.35" y="115.7845">has</text><text fill="#000000" font-family="sans-serif" font-size="11.7" lengthAdjust="spacing" textLength="6.3" x="131.2363" y="94.8382">1</text><text fill="#000000" font-family="sans-serif" font-size="11.7" lengthAdjust="spacing" textLength="6.3" x="175.2117" y="212.7739">1</text></g><!--link GreenSpacesManager to Team--><g id="link_GreenSpacesManager_Team"><path codeLine="37" d="M56.412,196.03 C38.349,224.686 14.058,274.051 27.45,316.459 C36,343.531 55.332,369.586 70.983,387.532 " fill="none" id="GreenSpacesManager-Team" style="stroke:#181818;stroke-width:0.9;"/><polygon fill="#000000" points="32.2914,304.427,34.3112,296.1092,29.0364,296.5105,32.2914,304.427" style="stroke:#000000;stroke-width:0.9;"/><text fill="#000000" font-family="sans-serif" font-size="11.7" lengthAdjust="spacing" textLength="37.8" x="40.05" y="304.7845">selects</text><text fill="#000000" font-family="sans-serif" font-size="11.7" lengthAdjust="spacing" textLength="6.3" x="45.7178" y="215.7852">1</text><text fill="#000000" font-family="sans-serif" font-size="11.7" lengthAdjust="spacing" textLength="6.3" x="58.6203" y="377.3638">1</text></g><!--link Agenda to Entry--><g id="link_Agenda_Entry"><path codeLine="38" d="M188.919,256.168 C189.477,295.003 188.784,398.197 168.75,481.159 C166.608,490.033 163.458,499.258 160.047,507.925 " fill="none" id="Agenda-Entry" style="stroke:#181818;stroke-width:0.9;"/><polygon fill="#000000" points="190.7373,356.6106,194.2926,348.8244,189.037,348.2217,190.7373,356.6106" style="stroke:#000000;stroke-width:0.9;"/><text fill="#000000" font-family="sans-serif" font-size="11.7" lengthAdjust="spacing" textLength="18.9" x="199.35" y="356.9845">has</text><text fill="#000000" font-family="sans-serif" font-size="11.7" lengthAdjust="spacing" textLength="6.3" x="181.8368" y="275.7152">1</text><text fill="#000000" font-family="sans-serif" font-size="11.7" lengthAdjust="spacing" textLength="18" x="143.5447" y="497.9991">0..*</text></g><!--link Team to Entry--><g id="link_Team_Entry"><path codeLine="39" d="M89.046,437.356 C87.291,450.604 86.76,467.137 91.35,481.159 C94.428,490.546 99.36,499.717 104.949,508.114 " fill="none" id="Team-Entry" style="stroke:#181818;stroke-width:0.9;"/><polygon fill="#000000" points="96.8368,477.1304,97.6323,468.608,92.471,469.768,96.8368,477.1304" style="stroke:#000000;stroke-width:0.9;"/><text fill="#000000" font-family="sans-serif" font-size="11.7" lengthAdjust="spacing" textLength="60.3" x="103.95" y="477.5845">assigned to</text><text fill="#000000" font-family="sans-serif" font-size="11.7" lengthAdjust="spacing" textLength="6.3" x="80.9623" y="457.1387">1</text><text fill="#000000" font-family="sans-serif" font-size="11.7" lengthAdjust="spacing" textLength="18" x="80.0735" y="497.9085">1..*</text></g><!--link GreenSpacesManager to Email--><g id="link_GreenSpacesManager_Email"><path codeLine="40" d="M80.802,195.877 C88.731,221.293 101.061,260.821 107.919,282.79 " fill="none" id="GreenSpacesManager-Email" style="stroke:#181818;stroke-width:0.9;"/><polygon fill="#000000" points="104.3903,243.9357,104.4907,235.3768,99.4407,236.9524,104.3903,243.9357" style="stroke:#000000;stroke-width:0.9;"/><text fill="#000000" font-family="sans-serif" font-size="11.7" lengthAdjust="spacing" textLength="31.5" x="111.15" y="244.4845">sends</text><text fill="#000000" font-family="sans-serif" font-size="11.7" lengthAdjust="spacing" textLength="6.3" x="75.4968" y="216.0042">1</text><text fill="#000000" font-family="sans-serif" font-size="11.7" lengthAdjust="spacing" textLength="6.3" x="99.2158" y="272.9575">1</text></g><!--link Email to Team--><g id="link_Email_Team"><path codeLine="41" d="M107.415,316.765 C104.886,324.712 102.069,334.495 100.35,343.459 C97.578,357.886 96.021,374.284 95.139,387.352 " fill="none" id="Email-Team" style="stroke:#181818;stroke-width:0.9;"/><polygon fill="#000000" points="104.079,356.5734,108.0797,349.0064,102.8679,348.1,104.079,356.5734" style="stroke:#000000;stroke-width:0.9;"/><text fill="#000000" font-family="sans-serif" font-size="11.7" lengthAdjust="spacing" textLength="36" x="112.95" y="356.9845">sent to</text><text fill="#000000" font-family="sans-serif" font-size="11.7" lengthAdjust="spacing" textLength="6.3" x="98.7809" y="336.0844">1</text><text fill="#000000" font-family="sans-serif" font-size="11.7" lengthAdjust="spacing" textLength="6.3" x="88.3882" y="377.5495">1</text></g><!--SRC=[XL7DQW8n4BxdAOOz5XJRtZmK18lq83ri-m1ZCjqDPYUI6IbQ-kwDkwQkO6akIMQ-lqbawtc72Jle8aVRfjWHQDgJaT_E3kqM6whr40WIMKLkmXWWBRhuwRc13mn2PjIo0KKMgiblzaelDdBjZmGpOrhl2AnFDalrvuwqZKwCKQ_PQ1axz0phw2Z01DxhsSEZCRqUlAO6sHzHVMJuCj-blaf4NEUy96lad3dbBkH5MIjSS8k6sE6O-SoQ3cUmA2RDqonHgHHqB_rHKRONrXlb4GUIZI7W9YRKc6IaUp8UZAv2L_SLJ2Pvcqxlgbkvvz2YmDCVhAgCK60t54RWFkSSX4B-FO6CFzCBPjR761wXIFQawvm5a2Vp3PC3ZVzw3ozmCcTtaXtkjyAn3de_]--></g></svg>