<?xml version="1.0" encoding="us-ascii" standalone="no"?><svg xmlns="http://www.w3.org/2000/svg" xmlns:xlink="http://www.w3.org/1999/xlink" contentStyleType="text/css" height="566px" preserveAspectRatio="none" style="width:254px;height:566px;background:#FFFFFF;" version="1.1" viewBox="0 0 254 566" width="254px" zoomAndPan="magnify"><defs/><g><text fill="#000000" font-family="sans-serif" font-size="14" font-weight="bold" lengthAdjust="spacing" textLength="156" x="42" y="25.1074">Domain Model - US023</text><!--class Organization--><g id="elem_Organization"><rect codeLine="12" fill="#F1F1F1" height="36.6211" id="Organization" rx="2.5" ry="2.5" style="stroke:#181818;stroke-width:0.5;" width="86" x="102.5" y="46.6211"/><text fill="#000000" font-family="sans-serif" font-size="14" lengthAdjust="spacing" textLength="80" x="105.5" y="66.7285">Organization</text><line style="stroke:#181818;stroke-width:0.5;" x1="103.5" x2="187.5" y1="75.2422" y2="75.2422"/></g><!--class GreenSpacesManager--><g id="elem_GreenSpacesManager"><rect codeLine="15" fill="#F1F1F1" height="55.2422" id="GreenSpacesManager" rx="2.5" ry="2.5" style="stroke:#181818;stroke-width:0.5;" width="149" x="7" y="162.6211"/><text fill="#000000" font-family="sans-serif" font-size="14" lengthAdjust="spacing" textLength="143" x="10" y="182.7285">GreenSpacesManager</text><line style="stroke:#181818;stroke-width:0.5;" x1="8" x2="155" y1="191.2422" y2="191.2422"/><text fill="#000000" font-family="sans-serif" font-size="14" lengthAdjust="spacing" textLength="35" x="13" y="210.3496">name</text></g><!--class Agenda--><g id="elem_Agenda"><rect codeLine="19" fill="#F1F1F1" height="55.2422" id="Agenda" rx="2.5" ry="2.5" style="stroke:#181818;stroke-width:0.5;" width="77" x="170" y="247.6211"/><text fill="#000000" font-family="sans-serif" font-size="14" lengthAdjust="spacing" textLength="49" x="184" y="267.7285">Agenda</text><line style="stroke:#181818;stroke-width:0.5;" x1="171" x2="246" y1="276.2422" y2="276.2422"/><text fill="#000000" font-family="sans-serif" font-size="14" lengthAdjust="spacing" textLength="65" x="176" y="295.3496">entriesList</text></g><!--class Entry--><g id="elem_Entry"><rect codeLine="23" fill="#F1F1F1" height="92.4844" id="Entry" rx="2.5" ry="2.5" style="stroke:#181818;stroke-width:0.5;" width="100" x="98.5" y="466.6211"/><text fill="#000000" font-family="sans-serif" font-size="14" lengthAdjust="spacing" textLength="33" x="132" y="486.7285">Entry</text><line style="stroke:#181818;stroke-width:0.5;" x1="99.5" x2="197.5" y1="495.2422" y2="495.2422"/><text fill="#000000" font-family="sans-serif" font-size="14" lengthAdjust="spacing" textLength="77" x="104.5" y="514.3496">startingDate</text><text fill="#000000" font-family="sans-serif" font-size="14" lengthAdjust="spacing" textLength="88" x="104.5" y="532.9707">agendaStatus</text><text fill="#000000" font-family="sans-serif" font-size="14" lengthAdjust="spacing" textLength="26" x="104.5" y="551.5918">task</text></g><!--class Team--><g id="elem_Team"><rect codeLine="29" fill="#F1F1F1" height="55.2422" id="Team" rx="2.5" ry="2.5" style="stroke:#181818;stroke-width:0.5;" width="94" x="42.5" y="332.6211"/><text fill="#000000" font-family="sans-serif" font-size="14" lengthAdjust="spacing" textLength="36" x="71.5" y="352.7285">Team</text><line style="stroke:#181818;stroke-width:0.5;" x1="43.5" x2="135.5" y1="361.2422" y2="361.2422"/><text fill="#000000" font-family="sans-serif" font-size="14" lengthAdjust="spacing" textLength="82" x="48.5" y="380.3496">collaborators</text></g><!--link Organization to GreenSpacesManager--><g id="link_Organization_GreenSpacesManager"><path codeLine="33" d="M136.33,83.7411 C125.62,104.3411 107.78,138.6211 95.37,162.4711 " fill="none" id="Organization-GreenSpacesManager" style="stroke:#181818;stroke-width:1.0;"/><polygon fill="#000000" points="122.1923,127.7022,128.9741,121.0345,123.7598,118.3217,122.1923,127.7022" style="stroke:#000000;stroke-width:1.0;"/><text fill="#000000" font-family="sans-serif" font-size="13" lengthAdjust="spacing" textLength="21" x="133.5" y="128.6494">has</text><text fill="#000000" font-family="sans-serif" font-size="13" lengthAdjust="spacing" textLength="7" x="125.9249" y="105.1479">1</text><text fill="#000000" font-family="sans-serif" font-size="13" lengthAdjust="spacing" textLength="20" x="76.2649" y="151.1454">1..*</text></g><!--link Organization to Agenda--><g id="link_Organization_Agenda"><path codeLine="34" d="M152.72,84.0311 C156.17,92.8711 160.25,103.7311 163.5,113.6211 C178.83,160.2211 193.59,215.4711 201.81,247.4911 " fill="none" id="Organization-Agenda" style="stroke:#181818;stroke-width:1.0;"/><polygon fill="#000000" points="175.9381,128.0553,176.1513,118.5471,170.5218,120.2378,175.9381,128.0553" style="stroke:#000000;stroke-width:1.0;"/><text fill="#000000" font-family="sans-serif" font-size="13" lengthAdjust="spacing" textLength="21" x="183.5" y="128.6494">has</text><text fill="#000000" font-family="sans-serif" font-size="13" lengthAdjust="spacing" textLength="7" x="146.6733" y="105.1691">1</text><text fill="#000000" font-family="sans-serif" font-size="13" lengthAdjust="spacing" textLength="7" x="192.4536" y="236.17">1</text></g><!--link GreenSpacesManager to Team--><g id="link_GreenSpacesManager_Team"><path codeLine="35" d="M82.77,217.7411 C84.26,249.1111 86.73,300.9211 88.23,332.3511 " fill="none" id="GreenSpacesManager-Team" style="stroke:#181818;stroke-width:1.0;"/><polygon fill="#000000" points="92.7379,280.2609,95.2431,271.0862,89.3719,271.366,92.7379,280.2609" style="stroke:#000000;stroke-width:1.0;"/><text fill="#000000" font-family="sans-serif" font-size="13" lengthAdjust="spacing" textLength="42" x="101.5" y="280.6494">selects</text><text fill="#000000" font-family="sans-serif" font-size="13" lengthAdjust="spacing" textLength="7" x="75.2822" y="239.676">1</text><text fill="#000000" font-family="sans-serif" font-size="13" lengthAdjust="spacing" textLength="7" x="80.1866" y="321.4507">1</text></g><!--link Agenda to Entry--><g id="link_Agenda_Entry"><path codeLine="36" d="M207.25,302.8111 C205.15,335.1311 199.66,390.9111 185.5,436.6211 C182.41,446.6111 178.13,456.9111 173.57,466.5611 " fill="none" id="Agenda-Entry" style="stroke:#181818;stroke-width:1.0;"/><polygon fill="#000000" points="209.4927,365.1641,214.1936,356.8965,208.4363,355.7124,209.4927,365.1641" style="stroke:#000000;stroke-width:1.0;"/><text fill="#000000" font-family="sans-serif" font-size="13" lengthAdjust="spacing" textLength="21" x="219.5" y="365.6494">has</text><text fill="#000000" font-family="sans-serif" font-size="13" lengthAdjust="spacing" textLength="7" x="199.2109" y="324.7613">1</text><text fill="#000000" font-family="sans-serif" font-size="13" lengthAdjust="spacing" textLength="20" x="155.8776" y="455.2201">0..*</text></g><!--link Team to Entry--><g id="link_Team_Entry"><path codeLine="37" d="M90.13,387.6711 C91.19,402.4711 93.71,421.0011 99.5,436.6211 C103.29,446.8311 108.67,457.0611 114.48,466.5411 " fill="none" id="Team-Entry" style="stroke:#181818;stroke-width:1.0;"/><polygon fill="#000000" points="105.975,432.0441,106.1149,422.5346,100.4986,424.2685,105.975,432.0441" style="stroke:#000000;stroke-width:1.0;"/><text fill="#000000" font-family="sans-serif" font-size="13" lengthAdjust="spacing" textLength="67" x="113.5" y="432.6494">assigned to</text><text fill="#000000" font-family="sans-serif" font-size="13" lengthAdjust="spacing" textLength="7" x="82.4663" y="410.0416">1</text><text fill="#000000" font-family="sans-serif" font-size="13" lengthAdjust="spacing" textLength="7" x="101.7348" y="455.197">1</text></g><!--SRC=[TP51ImCn48Nl-HN37eMMghSUX4Ab21OFgpzWcXrtGxEJafaYhVZV7TEkNQ7k9SkyxqtU8x8DlCECFVI9a-zowWaqxyd9hx93lyMMQZr4WanUaTiu1gJ39dq4Rk4Tev0RIJwYo48rXyrUwSadhiEHOEPS5ne27xAtLUM_9-rI8yvfKBjecNeC3ElKK8G9lDMpktldoZvuoIroEAA6nF3fleRvAXDnRNb9riYMEPiAzZ7sTC4MBN63PudOmf4y1z4ByMZ3mnaGnQnMRebAPO35NYlgNif0KRONxojPxvFLfnXnap9gol93_0bUtLOmcTWndTvKrxBFeKE1XtzSrT1ZmAvi6C4brXo4ehsWWF5d-y3CIenJys5bCOsM3Ahr32rJ0vgC-WO0]--></g></svg>