<?xml version="1.0" encoding="us-ascii" standalone="no"?><svg xmlns="http://www.w3.org/2000/svg" xmlns:xlink="http://www.w3.org/1999/xlink" contentStyleType="text/css" height="605px" preserveAspectRatio="none" style="width:443px;height:605px;background:#FFFFFF;" version="1.1" viewBox="0 0 443 605" width="443px" zoomAndPan="magnify"><defs/><g><text fill="#000000" font-family="sans-serif" font-size="14" font-weight="bold" lengthAdjust="spacing" textLength="156" x="136.5" y="25.1074">Domain Model - US003</text><!--class Organization--><g id="elem_Organization"><rect codeLine="12" fill="#F1F1F1" height="36.6211" id="Organization" rx="2.5" ry="2.5" style="stroke:#181818;stroke-width:0.5;" width="86" x="243" y="46.6211"/><text fill="#000000" font-family="sans-serif" font-size="14" lengthAdjust="spacing" textLength="80" x="246" y="66.7285">Organization</text><line style="stroke:#181818;stroke-width:0.5;" x1="244" x2="328" y1="75.2422" y2="75.2422"/></g><!--class Collaborator--><g id="elem_Collaborator"><rect codeLine="15" fill="#F1F1F1" height="185.5898" id="Collaborator" rx="2.5" ry="2.5" style="stroke:#181818;stroke-width:0.5;" width="105" x="119.5" y="278.6211"/><text fill="#000000" font-family="sans-serif" font-size="14" lengthAdjust="spacing" textLength="78" x="133" y="298.7285">Collaborator</text><line style="stroke:#181818;stroke-width:0.5;" x1="120.5" x2="223.5" y1="307.2422" y2="307.2422"/><text fill="#000000" font-family="sans-serif" font-size="14" lengthAdjust="spacing" textLength="35" x="125.5" y="326.3496">name</text><text fill="#000000" font-family="sans-serif" font-size="14" lengthAdjust="spacing" textLength="51" x="125.5" y="344.9707">birthday</text><text fill="#000000" font-family="sans-serif" font-size="14" lengthAdjust="spacing" textLength="93" x="125.5" y="363.5918">admissionDate</text><text fill="#000000" font-family="sans-serif" font-size="14" lengthAdjust="spacing" textLength="51" x="125.5" y="382.2129">address</text><text fill="#000000" font-family="sans-serif" font-size="14" lengthAdjust="spacing" textLength="89" x="125.5" y="400.834">phoneNumber</text><text fill="#000000" font-family="sans-serif" font-size="14" lengthAdjust="spacing" textLength="33" x="125.5" y="419.4551">email</text><text fill="#000000" font-family="sans-serif" font-size="14" lengthAdjust="spacing" textLength="70" x="125.5" y="438.0762">IDDocType</text><text fill="#000000" font-family="sans-serif" font-size="14" lengthAdjust="spacing" textLength="62" x="125.5" y="456.6973">IDNumber</text></g><!--class HRM--><g id="elem_HRM"><rect codeLine="26" fill="#F1F1F1" height="36.6211" id="HRM" rx="2.5" ry="2.5" style="stroke:#181818;stroke-width:0.5;" width="36" x="268" y="162.6211"/><text fill="#000000" font-family="sans-serif" font-size="14" lengthAdjust="spacing" textLength="30" x="271" y="182.7285">HRM</text><line style="stroke:#181818;stroke-width:0.5;" x1="269" x2="303" y1="191.2422" y2="191.2422"/></g><!--class Job--><g id="elem_Job"><rect codeLine="29" fill="#F1F1F1" height="55.2422" id="Job" rx="2.5" ry="2.5" style="stroke:#181818;stroke-width:0.5;" width="47" x="234.5" y="543.6211"/><text fill="#000000" font-family="sans-serif" font-size="14" lengthAdjust="spacing" textLength="22" x="247" y="563.7285">Job</text><line style="stroke:#181818;stroke-width:0.5;" x1="235.5" x2="280.5" y1="572.2422" y2="572.2422"/><text fill="#000000" font-family="sans-serif" font-size="14" lengthAdjust="spacing" textLength="35" x="240.5" y="591.3496">name</text></g><!--class IDDocType--><g id="elem_IDDocType"><rect codeLine="33" fill="#F1F1F1" height="55.2422" id="IDDocType" rx="2.5" ry="2.5" style="stroke:#181818;stroke-width:0.5;" width="76" x="7" y="543.6211"/><text fill="#000000" font-family="sans-serif" font-size="14" lengthAdjust="spacing" textLength="70" x="10" y="563.7285">IDDocType</text><line style="stroke:#181818;stroke-width:0.5;" x1="8" x2="82" y1="572.2422" y2="572.2422"/><text fill="#000000" font-family="sans-serif" font-size="14" lengthAdjust="spacing" textLength="62" x="13" y="591.3496">document</text></g><!--link Organization to HRM--><g id="link_Organization_HRM"><path codeLine="37" d="M286,83.9311 C286,105.3511 286,141.0711 286,162.4311 " fill="none" id="Organization-HRM" style="stroke:#181818;stroke-width:1.0;"/><polygon fill="#000000" points="291,128.2666,293.9389,119.2215,288.0611,119.2215,291,128.2666" style="stroke:#000000;stroke-width:1.0;"/><text fill="#000000" font-family="sans-serif" font-size="13" lengthAdjust="spacing" textLength="21" x="300" y="128.6494">has</text><text fill="#000000" font-family="sans-serif" font-size="13" lengthAdjust="spacing" textLength="7" x="278.0594" y="105.389">1</text><text fill="#000000" font-family="sans-serif" font-size="13" lengthAdjust="spacing" textLength="7" x="277.9281" y="151.2351">1</text></g><!--link Organization to Collaborator--><g id="link_Organization_Collaborator"><path codeLine="38" d="M269.25,83.8311 C252.89,102.1311 228.54,132.2211 215,162.6211 C198.87,198.8311 188.7,241.3111 182.34,278.4011 " fill="none" id="Organization-Collaborator" style="stroke:#181818;stroke-width:1.0;"/><polygon fill="#000000" points="217.9608,185.8319,224.3331,178.7718,218.9664,176.3746,217.9608,185.8319" style="stroke:#000000;stroke-width:1.0;"/><text fill="#000000" font-family="sans-serif" font-size="13" lengthAdjust="spacing" textLength="21" x="229" y="186.6494">has</text><text fill="#000000" font-family="sans-serif" font-size="13" lengthAdjust="spacing" textLength="7" x="256.8078" y="105.2621">1</text><text fill="#000000" font-family="sans-serif" font-size="13" lengthAdjust="spacing" textLength="20" x="162.3671" y="267.3515">1..*</text></g><!--link Organization to Job--><g id="link_Organization_Job"><path codeLine="39" d="M306.48,83.7511 C314.92,92.0311 324.08,102.5111 330,113.6211 C403.82,252.1411 430.9,320.3811 369,464.6211 C351.28,505.9111 308.58,538.6611 281.61,556.1511 " fill="none" id="Organization-Job" style="stroke:#181818;stroke-width:1.0;"/><polygon fill="#000000" points="395.7371,244.2597,399.1475,235.3816,393.2778,235.0726,395.7371,244.2597" style="stroke:#000000;stroke-width:1.0;"/><text fill="#000000" font-family="sans-serif" font-size="13" lengthAdjust="spacing" textLength="30" x="405" y="244.6494">owns</text><text fill="#000000" font-family="sans-serif" font-size="13" lengthAdjust="spacing" textLength="7" x="304.0434" y="105.1606">1</text><text fill="#000000" font-family="sans-serif" font-size="13" lengthAdjust="spacing" textLength="20" x="289.3823" y="547.7576">1..*</text></g><!--link HRM to Job--><g id="link_HRM_Job"><path codeLine="40" d="M289.29,199.7611 C297.97,249.8811 318.87,397.1011 289,513.6211 C286.36,523.9211 281.41,534.3511 276.23,543.4011 " fill="none" id="HRM-Job" style="stroke:#181818;stroke-width:1.0;"/><polygon fill="#000000" points="308.8101,376.763,312.0904,367.836,306.2168,367.6128,308.8101,376.763" style="stroke:#000000;stroke-width:1.0;"/><text fill="#000000" font-family="sans-serif" font-size="13" lengthAdjust="spacing" textLength="42" x="318" y="377.1494">selects</text><text fill="#000000" font-family="sans-serif" font-size="13" lengthAdjust="spacing" textLength="7" x="282.2336" y="221.1733">1</text><text fill="#000000" font-family="sans-serif" font-size="13" lengthAdjust="spacing" textLength="7" x="272.4522" y="532.5116">1</text></g><!--link Job to Collaborator--><g id="link_Job_Collaborator"><path codeLine="41" d="M234.24,551.2211 C223.15,541.1811 210.73,527.9611 203,513.6211 C194.92,498.6211 188.94,481.6311 184.52,464.7811 " fill="none" id="Job-Collaborator" style="stroke:#181818;stroke-width:1.0;"/><polygon fill="#000000" points="205.507,499.9324,207.4693,509.2384,212.5644,506.3077,205.507,499.9324" style="stroke:#000000;stroke-width:1.0;"/><text fill="#000000" font-family="sans-serif" font-size="13" lengthAdjust="spacing" textLength="67" x="217" y="509.6494">assigned to</text><text fill="#000000" font-family="sans-serif" font-size="13" lengthAdjust="spacing" textLength="7" x="219.5731" y="540.2688">1</text><text fill="#000000" font-family="sans-serif" font-size="13" lengthAdjust="spacing" textLength="20" x="164.7051" y="486.3008">0..*</text></g><!--link Collaborator to Job--><g id="link_Collaborator_Job"><path codeLine="44" d="M139.79,464.6311 C138.63,481.7711 141.08,498.8911 150,513.6211 C168.19,543.6711 208.2,558.5011 234.09,565.2211 " fill="none" id="Collaborator-Job" style="stroke:#181818;stroke-width:1.0;"/><polygon fill="#000000" points="158.4196,507.9143,154.3775,499.3055,150.0894,503.3255,158.4196,507.9143" style="stroke:#000000;stroke-width:1.0;"/><text fill="#000000" font-family="sans-serif" font-size="13" lengthAdjust="spacing" textLength="21" x="164" y="509.6494">has</text><text fill="#000000" font-family="sans-serif" font-size="13" lengthAdjust="spacing" textLength="20" x="116.6902" y="486.1398">0..*</text><text fill="#000000" font-family="sans-serif" font-size="13" lengthAdjust="spacing" textLength="7" x="219.3809" y="558.2063">1</text></g><!--link HRM to Collaborator--><g id="link_HRM_Collaborator"><path codeLine="42" d="M267.89,193.0311 C254.98,201.5911 238.04,214.5611 227,229.6211 C216.21,244.3511 207.22,261.4711 199.85,278.6111 " fill="none" id="HRM-Collaborator" style="stroke:#181818;stroke-width:1.0;"/><polygon fill="#000000" points="228.8884,243.1804,236.8178,237.9293,232.2169,234.2713,228.8884,243.1804" style="stroke:#000000;stroke-width:1.0;"/><text fill="#000000" font-family="sans-serif" font-size="13" lengthAdjust="spacing" textLength="43" x="241" y="244.6494">register</text><text fill="#000000" font-family="sans-serif" font-size="13" lengthAdjust="spacing" textLength="7" x="252.9213" y="191.4404">1</text><text fill="#000000" font-family="sans-serif" font-size="13" lengthAdjust="spacing" textLength="20" x="202.9845" y="267.2622">0..*</text></g><!--link Collaborator to IDDocType--><g id="link_Collaborator_IDDocType"><path codeLine="43" d="M119.37,448.2211 C109.1,463.4611 98.56,479.4511 89,494.6211 C78.97,510.5311 68.33,528.7411 60.03,543.2911 " fill="none" id="Collaborator-IDDocType" style="stroke:#181818;stroke-width:1.0;"/><polygon fill="#000000" points="91.3525,508.5082,98.635,502.3912,93.6487,499.279,91.3525,508.5082" style="stroke:#000000;stroke-width:1.0;"/><text fill="#000000" font-family="sans-serif" font-size="13" lengthAdjust="spacing" textLength="30" x="103" y="509.6494">owns</text><text fill="#000000" font-family="sans-serif" font-size="13" lengthAdjust="spacing" textLength="20" x="91.3455" y="454.0196">0..*</text><text fill="#000000" font-family="sans-serif" font-size="13" lengthAdjust="spacing" textLength="7" x="55.5522" y="532.3776">1</text></g><!--SRC=[ZL51JiCm4Bpx5QiUaLe5SUi12P43HIf851wmiPV4gksDR4TLY_WxZfk651M4BzcTcSpEsc6hNOiUBLXsB1lFbY3wZaGOcHRb5clQnBqXy2GZkjfC1Q51nJljQdX74qXCA6amXBiOlQwwI2l9RgCF18KGZLO4KdkPh79jAJQiWX1HnpIeP8lQmPeL6PZ3swOeReJ8Vl3iQtJwW56pWm_nUSBlsHYis6Dadt18nw6bN5JQnqRXFZUeh0uX_LrYf05HdaB8TTkmewVELkHpJoc9oTMgB5c-xbiQka4q1dXuMK_pF78rZJ7Yeyt0AfQT9HTxnTbki-iPpEVvqrileS40jxze5ekhsVaL_4FVHrm2xrolwsTCHXwvG2QzUO34zy29BowDIylfsf62o3_iBiezrJf4yabxnWpg8SRtROr1_r0VGn_t_W80]--></g></svg>