<?xml version="1.0" encoding="us-ascii" standalone="no"?><svg xmlns="http://www.w3.org/2000/svg" xmlns:xlink="http://www.w3.org/1999/xlink" contentStyleType="text/css" height="623px" preserveAspectRatio="none" style="width:449px;height:623px;background:#FFFFFF;" version="1.1" viewBox="0 0 449 623" width="449px" zoomAndPan="magnify"><defs/><g><text fill="#000000" font-family="sans-serif" font-size="14" font-weight="bold" lengthAdjust="spacing" textLength="156" x="139.5" y="25.1074">Domain Model - US003</text><!--class Organization--><g id="elem_Organization"><rect codeLine="12" fill="#F1F1F1" height="36.6211" id="Organization" rx="2.5" ry="2.5" style="stroke:#181818;stroke-width:0.5;" width="86" x="246" y="46.6211"/><text fill="#000000" font-family="sans-serif" font-size="14" lengthAdjust="spacing" textLength="80" x="249" y="66.7285">Organization</text><line style="stroke:#181818;stroke-width:0.5;" x1="247" x2="331" y1="75.2422" y2="75.2422"/></g><!--class Collaborator--><g id="elem_Collaborator"><rect codeLine="15" fill="#F1F1F1" height="185.5898" id="Collaborator" rx="2.5" ry="2.5" style="stroke:#181818;stroke-width:0.5;" width="105" x="119.5" y="296.6211"/><text fill="#000000" font-family="sans-serif" font-size="14" lengthAdjust="spacing" textLength="78" x="133" y="316.7285">Collaborator</text><line style="stroke:#181818;stroke-width:0.5;" x1="120.5" x2="223.5" y1="325.2422" y2="325.2422"/><text fill="#000000" font-family="sans-serif" font-size="14" lengthAdjust="spacing" textLength="35" x="125.5" y="344.3496">name</text><text fill="#000000" font-family="sans-serif" font-size="14" lengthAdjust="spacing" textLength="51" x="125.5" y="362.9707">birthday</text><text fill="#000000" font-family="sans-serif" font-size="14" lengthAdjust="spacing" textLength="93" x="125.5" y="381.5918">admissionDate</text><text fill="#000000" font-family="sans-serif" font-size="14" lengthAdjust="spacing" textLength="51" x="125.5" y="400.2129">address</text><text fill="#000000" font-family="sans-serif" font-size="14" lengthAdjust="spacing" textLength="89" x="125.5" y="418.834">phoneNumber</text><text fill="#000000" font-family="sans-serif" font-size="14" lengthAdjust="spacing" textLength="33" x="125.5" y="437.4551">email</text><text fill="#000000" font-family="sans-serif" font-size="14" lengthAdjust="spacing" textLength="70" x="125.5" y="456.0762">IDDocType</text><text fill="#000000" font-family="sans-serif" font-size="14" lengthAdjust="spacing" textLength="62" x="125.5" y="474.6973">IDNumber</text></g><!--class HRM--><g id="elem_HRM"><rect codeLine="26" fill="#F1F1F1" height="55.2422" id="HRM" rx="2.5" ry="2.5" style="stroke:#181818;stroke-width:0.5;" width="47" x="265.5" y="162.6211"/><text fill="#000000" font-family="sans-serif" font-size="14" lengthAdjust="spacing" textLength="30" x="274" y="182.7285">HRM</text><line style="stroke:#181818;stroke-width:0.5;" x1="266.5" x2="311.5" y1="191.2422" y2="191.2422"/><text fill="#000000" font-family="sans-serif" font-size="14" lengthAdjust="spacing" textLength="35" x="271.5" y="210.3496">name</text></g><!--class Job--><g id="elem_Job"><rect codeLine="30" fill="#F1F1F1" height="55.2422" id="Job" rx="2.5" ry="2.5" style="stroke:#181818;stroke-width:0.5;" width="47" x="234.5" y="561.6211"/><text fill="#000000" font-family="sans-serif" font-size="14" lengthAdjust="spacing" textLength="22" x="247" y="581.7285">Job</text><line style="stroke:#181818;stroke-width:0.5;" x1="235.5" x2="280.5" y1="590.2422" y2="590.2422"/><text fill="#000000" font-family="sans-serif" font-size="14" lengthAdjust="spacing" textLength="35" x="240.5" y="609.3496">name</text></g><!--class IDDocType--><g id="elem_IDDocType"><rect codeLine="34" fill="#F1F1F1" height="55.2422" id="IDDocType" rx="2.5" ry="2.5" style="stroke:#181818;stroke-width:0.5;" width="76" x="7" y="561.6211"/><text fill="#000000" font-family="sans-serif" font-size="14" lengthAdjust="spacing" textLength="70" x="10" y="581.7285">IDDocType</text><line style="stroke:#181818;stroke-width:0.5;" x1="8" x2="82" y1="590.2422" y2="590.2422"/><text fill="#000000" font-family="sans-serif" font-size="14" lengthAdjust="spacing" textLength="62" x="13" y="609.3496">document</text></g><!--link Organization to HRM--><g id="link_Organization_HRM"><path codeLine="38" d="M289,83.7411 C289,104.3411 289,138.6211 289,162.4711 " fill="none" id="Organization-HRM" style="stroke:#181818;stroke-width:1.0;"/><polygon fill="#000000" points="294,128.2666,296.9389,119.2215,291.0611,119.2215,294,128.2666" style="stroke:#000000;stroke-width:1.0;"/><text fill="#000000" font-family="sans-serif" font-size="13" lengthAdjust="spacing" textLength="21" x="303" y="128.6494">has</text><text fill="#000000" font-family="sans-serif" font-size="13" lengthAdjust="spacing" textLength="7" x="281.0594" y="105.1479">1</text><text fill="#000000" font-family="sans-serif" font-size="13" lengthAdjust="spacing" textLength="7" x="281.1906" y="151.1454">1</text></g><!--link Organization to Collaborator--><g id="link_Organization_Collaborator"><path codeLine="39" d="M270.26,83.8111 C252.34,101.8611 226.03,131.5611 212,162.6211 C193.13,204.3811 183.15,254.2311 177.87,296.4711 " fill="none" id="Organization-Collaborator" style="stroke:#181818;stroke-width:1.0;"/><polygon fill="#000000" points="215.0077,194.8525,221.3074,187.7276,215.9163,185.3855,215.0077,194.8525" style="stroke:#000000;stroke-width:1.0;"/><text fill="#000000" font-family="sans-serif" font-size="13" lengthAdjust="spacing" textLength="21" x="226" y="195.6494">has</text><text fill="#000000" font-family="sans-serif" font-size="13" lengthAdjust="spacing" textLength="7" x="257.283" y="105.2367">1</text><text fill="#000000" font-family="sans-serif" font-size="13" lengthAdjust="spacing" textLength="20" x="157.5409" y="285.4271">1..*</text></g><!--link Organization to Job--><g id="link_Organization_Job"><path codeLine="40" d="M309.66,83.6611 C318.12,91.9211 327.26,102.4111 333,113.6211 C408.13,260.3211 435.34,331.3011 370,482.6211 C352.1,524.0711 309.03,556.7711 281.81,574.2111 " fill="none" id="Organization-Job" style="stroke:#181818;stroke-width:1.0;"/><polygon fill="#000000" points="401.7166,262.2586,405.1635,253.3946,399.2951,253.0614,401.7166,262.2586" style="stroke:#000000;stroke-width:1.0;"/><text fill="#000000" font-family="sans-serif" font-size="13" lengthAdjust="spacing" textLength="30" x="411" y="262.6494">owns</text><text fill="#000000" font-family="sans-serif" font-size="13" lengthAdjust="spacing" textLength="7" x="307.4863" y="105.3886">1</text><text fill="#000000" font-family="sans-serif" font-size="13" lengthAdjust="spacing" textLength="20" x="289.6286" y="565.8315">1..*</text></g><!--link HRM to Job--><g id="link_HRM_Job"><path codeLine="41" d="M293.41,217.7311 C302.09,275.8411 318.13,417.9511 289,531.6211 C286.36,541.9211 281.41,552.3511 276.23,561.4011 " fill="none" id="HRM-Job" style="stroke:#181818;stroke-width:1.0;"/><polygon fill="#000000" points="309.7504,394.7604,313.1372,385.8733,307.2667,385.5798,309.7504,394.7604" style="stroke:#000000;stroke-width:1.0;"/><text fill="#000000" font-family="sans-serif" font-size="13" lengthAdjust="spacing" textLength="42" x="319" y="395.1494">selects</text><text fill="#000000" font-family="sans-serif" font-size="13" lengthAdjust="spacing" textLength="7" x="286.6204" y="240.1155">1</text><text fill="#000000" font-family="sans-serif" font-size="13" lengthAdjust="spacing" textLength="7" x="272.4522" y="550.5116">1</text></g><!--link Job to Collaborator--><g id="link_Job_Collaborator"><path codeLine="42" d="M234.24,569.2211 C223.15,559.1811 210.73,545.9611 203,531.6211 C194.92,516.6211 188.94,499.6311 184.52,482.7811 " fill="none" id="Job-Collaborator" style="stroke:#181818;stroke-width:1.0;"/><polygon fill="#000000" points="205.507,517.9324,207.4693,527.2384,212.5644,524.3077,205.507,517.9324" style="stroke:#000000;stroke-width:1.0;"/><text fill="#000000" font-family="sans-serif" font-size="13" lengthAdjust="spacing" textLength="67" x="217" y="527.6494">assigned to</text><text fill="#000000" font-family="sans-serif" font-size="13" lengthAdjust="spacing" textLength="7" x="219.5731" y="558.2688">1</text><text fill="#000000" font-family="sans-serif" font-size="13" lengthAdjust="spacing" textLength="20" x="164.7051" y="504.3008">0..*</text></g><!--link Collaborator to Job--><g id="link_Collaborator_Job"><path codeLine="45" d="M139.79,482.6311 C138.63,499.7711 141.08,516.8911 150,531.6211 C168.19,561.6711 208.2,576.5011 234.09,583.2211 " fill="none" id="Collaborator-Job" style="stroke:#181818;stroke-width:1.0;"/><polygon fill="#000000" points="158.4196,525.9143,154.3775,517.3055,150.0894,521.3255,158.4196,525.9143" style="stroke:#000000;stroke-width:1.0;"/><text fill="#000000" font-family="sans-serif" font-size="13" lengthAdjust="spacing" textLength="21" x="164" y="527.6494">has</text><text fill="#000000" font-family="sans-serif" font-size="13" lengthAdjust="spacing" textLength="20" x="116.6902" y="504.1398">0..*</text><text fill="#000000" font-family="sans-serif" font-size="13" lengthAdjust="spacing" textLength="7" x="219.3809" y="576.2063">1</text></g><!--link HRM to Collaborator--><g id="link_HRM_Collaborator"><path codeLine="43" d="M265.31,208.3311 C252.57,218.5711 237.39,232.4911 227,247.6211 C216.81,262.4611 208.13,279.4511 200.89,296.3811 " fill="none" id="HRM-Collaborator" style="stroke:#181818;stroke-width:1.0;"/><polygon fill="#000000" points="229.0477,261.3019,236.7604,255.7373,232.0166,252.2666,229.0477,261.3019" style="stroke:#000000;stroke-width:1.0;"/><text fill="#000000" font-family="sans-serif" font-size="13" lengthAdjust="spacing" textLength="43" x="241" y="262.6494">register</text><text fill="#000000" font-family="sans-serif" font-size="13" lengthAdjust="spacing" textLength="7" x="250.6628" y="208.0972">1</text><text fill="#000000" font-family="sans-serif" font-size="13" lengthAdjust="spacing" textLength="20" x="182.3953" y="285.3299">0..*</text></g><!--link Collaborator to IDDocType--><g id="link_Collaborator_IDDocType"><path codeLine="44" d="M119.37,466.2211 C109.1,481.4611 98.56,497.4511 89,512.6211 C78.97,528.5311 68.33,546.7411 60.03,561.2911 " fill="none" id="Collaborator-IDDocType" style="stroke:#181818;stroke-width:1.0;"/><polygon fill="#000000" points="91.3525,526.5082,98.635,520.3912,93.6487,517.279,91.3525,526.5082" style="stroke:#000000;stroke-width:1.0;"/><text fill="#000000" font-family="sans-serif" font-size="13" lengthAdjust="spacing" textLength="30" x="103" y="527.6494">owns</text><text fill="#000000" font-family="sans-serif" font-size="13" lengthAdjust="spacing" textLength="20" x="91.3455" y="472.0196">0..*</text><text fill="#000000" font-family="sans-serif" font-size="13" lengthAdjust="spacing" textLength="7" x="55.5522" y="550.3776">1</text></g><!--SRC=[ZL51JiCm4Bpx5QiUaLe5SUi12P43HIf851wmiPV4gksDR4TLY_WxZfk651M4BzcTcUpCsc6hNOiUBLXsB1lFbY3wZaGOcHRb5clQnBqXy2GZkjfC1Q51nJljQdX74qXCA6amXBiOlQwwI2l9RgCF18KGZLO4KdkPHkNQKcnO1I6YZiceP8lQmPeL6PZ3swOeReJ8y-3Pr-Zq0QDc1n_YyuJVip5OiSV8Fk6GZaDBkQYqZut2VMvGMHr2-hl4I0EYF8MGwxPXHq-ThSZddb8IawjLMR9ytRSqT8De3F3mifxwZlWZLnVnSTx0AfQT9HTxnTcIi-iPpEVvqtiieS40jxze5ekhsVbT_4FVHrm2xrolwpqcbaSka4cF7o3nFN3YYqjsQJbTEr8G-SUuYt9FjGwHVDAUCODwYF5zMsFGFzJ7qCUzlm00]--></g></svg>