<?xml version="1.0" encoding="us-ascii" standalone="no"?><svg xmlns="http://www.w3.org/2000/svg" xmlns:xlink="http://www.w3.org/1999/xlink" contentStyleType="text/css" height="289px" preserveAspectRatio="none" style="width:932px;height:289px;background:#FFFFFF;" version="1.1" viewBox="0 0 932 289" width="932px" zoomAndPan="magnify"><defs/><g><!--class Organization--><g id="elem_Organization"><rect codeLine="12" fill="#F1F1F1" height="36.6211" id="Organization" rx="2.5" ry="2.5" style="stroke:#181818;stroke-width:0.5;" width="86" x="7" y="162.04"/><text fill="#000000" font-family="sans-serif" font-size="14" lengthAdjust="spacing" textLength="80" x="10" y="182.1474">Organization</text><line style="stroke:#181818;stroke-width:0.5;" x1="8" x2="92" y1="190.6611" y2="190.6611"/></g><!--class Collaborator--><g id="elem_Collaborator"><rect codeLine="15" fill="#F1F1F1" height="204.2109" id="Collaborator" rx="2.5" ry="2.5" style="stroke:#181818;stroke-width:0.5;" width="105" x="472.5" y="78.54"/><text fill="#000000" font-family="sans-serif" font-size="14" lengthAdjust="spacing" textLength="78" x="486" y="98.6474">Collaborator</text><line style="stroke:#181818;stroke-width:0.5;" x1="473.5" x2="576.5" y1="107.1611" y2="107.1611"/><text fill="#000000" font-family="sans-serif" font-size="14" lengthAdjust="spacing" textLength="35" x="478.5" y="126.2685">name</text><text fill="#000000" font-family="sans-serif" font-size="14" lengthAdjust="spacing" textLength="51" x="478.5" y="144.8896">birthday</text><text fill="#000000" font-family="sans-serif" font-size="14" lengthAdjust="spacing" textLength="93" x="478.5" y="163.5107">admissionDate</text><text fill="#000000" font-family="sans-serif" font-size="14" lengthAdjust="spacing" textLength="51" x="478.5" y="182.1318">address</text><text fill="#000000" font-family="sans-serif" font-size="14" lengthAdjust="spacing" textLength="89" x="478.5" y="200.7529">phoneNumber</text><text fill="#000000" font-family="sans-serif" font-size="14" lengthAdjust="spacing" textLength="33" x="478.5" y="219.374">email</text><text fill="#000000" font-family="sans-serif" font-size="14" lengthAdjust="spacing" textLength="70" x="478.5" y="237.9951">IDDocType</text><text fill="#000000" font-family="sans-serif" font-size="14" lengthAdjust="spacing" textLength="62" x="478.5" y="256.6162">IDNumber</text><text fill="#000000" font-family="sans-serif" font-size="14" lengthAdjust="spacing" textLength="19" x="478.5" y="275.2373">job</text></g><!--class HRM--><g id="elem_HRM"><rect codeLine="27" fill="#F1F1F1" height="36.6211" id="HRM" rx="2.5" ry="2.5" style="stroke:#181818;stroke-width:0.5;" width="36" x="164" y="162.04"/><text fill="#000000" font-family="sans-serif" font-size="14" lengthAdjust="spacing" textLength="30" x="167" y="182.1474">HRM</text><line style="stroke:#181818;stroke-width:0.5;" x1="165" x2="199" y1="190.6611" y2="190.6611"/></g><!--class Job--><g id="elem_Job"><rect codeLine="30" fill="#F1F1F1" height="55.2422" id="Job" rx="2.5" ry="2.5" style="stroke:#181818;stroke-width:0.5;" width="47" x="308.5" y="153.04"/><text fill="#000000" font-family="sans-serif" font-size="14" lengthAdjust="spacing" textLength="22" x="321" y="173.1474">Job</text><line style="stroke:#181818;stroke-width:0.5;" x1="309.5" x2="354.5" y1="181.6611" y2="181.6611"/><text fill="#000000" font-family="sans-serif" font-size="14" lengthAdjust="spacing" textLength="35" x="314.5" y="200.7685">name</text></g><!--class IDDocType--><g id="elem_IDDocType"><rect codeLine="34" fill="#F1F1F1" height="55.2422" id="IDDocType" rx="2.5" ry="2.5" style="stroke:#181818;stroke-width:0.5;" width="268" x="657" y="153.04"/><text fill="#000000" font-family="sans-serif" font-size="14" lengthAdjust="spacing" textLength="70" x="756" y="173.1474">IDDocType</text><line style="stroke:#181818;stroke-width:0.5;" x1="658" x2="924" y1="181.6611" y2="181.6611"/><text fill="#000000" font-family="sans-serif" font-size="14" lengthAdjust="spacing" textLength="256" x="663" y="200.7685">taxpayer number / citizen card / passport</text></g><!--link Organization to HRM--><g id="link_Organization_HRM"><path codeLine="38" d="M93.22,180.54 C117.13,180.54 145.59,180.54 163.72,180.54 " fill="none" id="Organization-HRM" style="stroke:#181818;stroke-width:1.0;"/><polygon fill="#000000" points="120.5,168.1855,111.4549,165.2466,111.4549,171.1244,120.5,168.1855" style="stroke:#000000;stroke-width:1.0;"/><text fill="#000000" font-family="sans-serif" font-size="13" lengthAdjust="spacing" textLength="21" x="124.5" y="173.5683">has</text><text fill="#000000" font-family="sans-serif" font-size="13" lengthAdjust="spacing" textLength="7" x="100.958" y="176.216">1</text><text fill="#000000" font-family="sans-serif" font-size="13" lengthAdjust="spacing" textLength="7" x="148.9609" y="174.6595">1</text></g><!--link Organization to Job--><g id="link_Organization_Job"><path codeLine="39" d="M62.38,161.89 C78.84,138.62 110.21,99.36 147,78.54 C210.27,42.73 252.64,6 308.5,52.54 C337.23,76.47 338.63,122.96 336.04,152.83 " fill="none" id="Organization-Job" style="stroke:#181818;stroke-width:1.0;"/><polygon fill="#000000" points="273.4973,39.0201,264.3599,36.382,264.5544,42.2567,273.4973,39.0201" style="stroke:#000000;stroke-width:1.0;"/><text fill="#000000" font-family="sans-serif" font-size="13" lengthAdjust="spacing" textLength="30" x="277.5" y="44.5683">owns</text><text fill="#000000" font-family="sans-serif" font-size="13" lengthAdjust="spacing" textLength="5" x="60.4058" y="150.7062">*</text><text fill="#000000" font-family="sans-serif" font-size="13" lengthAdjust="spacing" textLength="20" x="314.7363" y="141.9427">0..*</text></g><!--link HRM to Job--><g id="link_HRM_Job"><path codeLine="40" d="M200.09,180.54 C227.21,180.54 278.4,180.54 308.42,180.54 " fill="none" id="HRM-Job" style="stroke:#181818;stroke-width:1.0;"/><polygon fill="#000000" points="235.75,168.1855,226.7049,165.2466,226.7049,171.1244,235.75,168.1855" style="stroke:#000000;stroke-width:1.0;"/><text fill="#000000" font-family="sans-serif" font-size="13" lengthAdjust="spacing" textLength="42" x="239.75" y="173.5683">selects</text><text fill="#000000" font-family="sans-serif" font-size="13" lengthAdjust="spacing" textLength="7" x="208.0513" y="174.5575">1</text><text fill="#000000" font-family="sans-serif" font-size="13" lengthAdjust="spacing" textLength="7" x="293.4653" y="175.0786">1</text></g><!--link HRM to Collaborator--><g id="link_HRM_Collaborator"><path codeLine="41" d="M178,161.82 C173.13,133.31 169.01,79.48 200,52.54 C229.16,27.19 347.04,67.36 373,78.54 C408.32,93.75 444.21,117.37 472.24,138.05 " fill="none" id="HRM-Collaborator" style="stroke:#181818;stroke-width:1.0;"/><polygon fill="#000000" points="209.9838,38.7829,200.7314,36.5818,201.2047,42.4406,209.9838,38.7829" style="stroke:#000000;stroke-width:1.0;"/><text fill="#000000" font-family="sans-serif" font-size="13" lengthAdjust="spacing" textLength="43" x="214" y="44.5683">register</text><text fill="#000000" font-family="sans-serif" font-size="13" lengthAdjust="spacing" textLength="7" x="168.7031" y="150.6148">1</text><text fill="#000000" font-family="sans-serif" font-size="13" lengthAdjust="spacing" textLength="20" x="444.5911" y="128.8688">0..*</text></g><!--link Collaborator to IDDocType--><g id="link_Collaborator_IDDocType"><path codeLine="42" d="M577.55,180.54 C600.57,180.54 628.73,180.54 656.95,180.54 " fill="none" id="Collaborator-IDDocType" style="stroke:#181818;stroke-width:1.0;"/><polygon fill="#000000" points="604.75,168.1855,595.7049,165.2466,595.7049,171.1244,604.75,168.1855" style="stroke:#000000;stroke-width:1.0;"/><text fill="#000000" font-family="sans-serif" font-size="13" lengthAdjust="spacing" textLength="30" x="608.75" y="173.5683">owns</text><text fill="#000000" font-family="sans-serif" font-size="13" lengthAdjust="spacing" textLength="20" x="585.5642" y="195.6625">1..*</text><text fill="#000000" font-family="sans-serif" font-size="13" lengthAdjust="spacing" textLength="7" x="641.9979" y="177.0783">1</text></g><!--link Job to Collaborator--><g id="link_Job_Collaborator"><path codeLine="43" d="M355.67,180.54 C384.55,180.54 434.26,180.54 472.37,180.54 " fill="none" id="Job-Collaborator" style="stroke:#181818;stroke-width:1.0;"/><polygon fill="#000000" points="383,168.1855,373.9549,165.2466,373.9549,171.1244,383,168.1855" style="stroke:#000000;stroke-width:1.0;"/><text fill="#000000" font-family="sans-serif" font-size="13" lengthAdjust="spacing" textLength="67" x="387" y="173.5683">assigned to</text><text fill="#000000" font-family="sans-serif" font-size="13" lengthAdjust="spacing" textLength="7" x="363.6512" y="175.0786">1</text><text fill="#000000" font-family="sans-serif" font-size="13" lengthAdjust="spacing" textLength="20" x="444.3455" y="195.6625">0..*</text></g><!--link Collaborator to Job--><g id="link_Collaborator_Job"><path codeLine="44" d="M472.29,197.57 C448.93,203.05 421.1,206.73 396,202.54 C382.21,200.24 367.41,195.32 355.52,190.72 " fill="none" id="Collaborator-Job" style="stroke:#181818;stroke-width:1.0;"/><polygon fill="#000000" points="396.0086,192.8927,404.866,196.3563,405.2103,190.4885,396.0086,192.8927" style="stroke:#000000;stroke-width:1.0;"/><text fill="#000000" font-family="sans-serif" font-size="13" lengthAdjust="spacing" textLength="21" x="410" y="198.5683">has</text><text fill="#000000" font-family="sans-serif" font-size="13" lengthAdjust="spacing" textLength="20" x="444.6472" y="214.7147">0..*</text><text fill="#000000" font-family="sans-serif" font-size="13" lengthAdjust="spacing" textLength="7" x="363.4571" y="210.2427">1</text></g><!--SRC=[VL9DJm8n4BttLqouc9Y8SEL0OkGW9ceY_e7PTjYjT3kRTWY2yR_RTX4M3kwXcO_tthpEDcwixp1W2orxratWba32bbGyTJhK6wnf9Nj744WB-jeD0R51mplhQrYZYwJKZQErW304MpS2ncQMPQy69EqmnWUHOAkjq5ApNza3mKIfnXe2RODEGqhSaZHiebA50s-XHcyFc1NXM_tyrH_PEQmue718TKYVnvPAKDaWZS5zIT2qDiR4Ng3GiM82nLZYhc5Fhzkseb1oQj6w4YqN2zOV-uwEsG3qoTNPoDFxoz3NCrT3EwVwIUxO5VpgS4y1VD65-xG4IJlne36Ob7Q9rN6GB76nXD5q17VbpADdq624-HNaja0cut4AigCPyCvdMAQS1VfM99V-M8JBTa- -MFCiFOZQHabsv-gYCveMTAzwlkffR1xqdswwgwqzcVoChgKd0-dUS7_ZNm00]--></g></svg>