<?xml version="1.0" encoding="us-ascii" standalone="no"?><svg xmlns="http://www.w3.org/2000/svg" xmlns:xlink="http://www.w3.org/1999/xlink" contentStyleType="text/css" height="623px" preserveAspectRatio="none" style="width:443px;height:623px;background:#FFFFFF;" version="1.1" viewBox="0 0 443 623" width="443px" zoomAndPan="magnify"><defs/><g><text fill="#000000" font-family="sans-serif" font-size="14" font-weight="bold" lengthAdjust="spacing" textLength="156" x="136.5" y="25.1074">Domain Model - US003</text><!--class Organization--><g id="elem_Organization"><rect codeLine="12" fill="#F1F1F1" height="36.6211" id="Organization" rx="2.5" ry="2.5" style="stroke:#181818;stroke-width:0.5;" width="86" x="243" y="46.6211"/><text fill="#000000" font-family="sans-serif" font-size="14" lengthAdjust="spacing" textLength="80" x="246" y="66.7285">Organization</text><line style="stroke:#181818;stroke-width:0.5;" x1="244" x2="328" y1="75.2422" y2="75.2422"/></g><!--class Collaborator--><g id="elem_Collaborator"><rect codeLine="15" fill="#F1F1F1" height="204.2109" id="Collaborator" rx="2.5" ry="2.5" style="stroke:#181818;stroke-width:0.5;" width="105" x="119.5" y="278.6211"/><text fill="#000000" font-family="sans-serif" font-size="14" lengthAdjust="spacing" textLength="78" x="133" y="298.7285">Collaborator</text><line style="stroke:#181818;stroke-width:0.5;" x1="120.5" x2="223.5" y1="307.2422" y2="307.2422"/><text fill="#000000" font-family="sans-serif" font-size="14" lengthAdjust="spacing" textLength="35" x="125.5" y="326.3496">name</text><text fill="#000000" font-family="sans-serif" font-size="14" lengthAdjust="spacing" textLength="51" x="125.5" y="344.9707">birthday</text><text fill="#000000" font-family="sans-serif" font-size="14" lengthAdjust="spacing" textLength="93" x="125.5" y="363.5918">admissionDate</text><text fill="#000000" font-family="sans-serif" font-size="14" lengthAdjust="spacing" textLength="51" x="125.5" y="382.2129">address</text><text fill="#000000" font-family="sans-serif" font-size="14" lengthAdjust="spacing" textLength="89" x="125.5" y="400.834">phoneNumber</text><text fill="#000000" font-family="sans-serif" font-size="14" lengthAdjust="spacing" textLength="33" x="125.5" y="419.4551">email</text><text fill="#000000" font-family="sans-serif" font-size="14" lengthAdjust="spacing" textLength="70" x="125.5" y="438.0762">IDDocType</text><text fill="#000000" font-family="sans-serif" font-size="14" lengthAdjust="spacing" textLength="62" x="125.5" y="456.6973">IDNumber</text><text fill="#000000" font-family="sans-serif" font-size="14" lengthAdjust="spacing" textLength="19" x="125.5" y="475.3184">job</text></g><!--class HRM--><g id="elem_HRM"><rect codeLine="27" fill="#F1F1F1" height="36.6211" id="HRM" rx="2.5" ry="2.5" style="stroke:#181818;stroke-width:0.5;" width="36" x="268" y="162.6211"/><text fill="#000000" font-family="sans-serif" font-size="14" lengthAdjust="spacing" textLength="30" x="271" y="182.7285">HRM</text><line style="stroke:#181818;stroke-width:0.5;" x1="269" x2="303" y1="191.2422" y2="191.2422"/></g><!--class Job--><g id="elem_Job"><rect codeLine="30" fill="#F1F1F1" height="55.2422" id="Job" rx="2.5" ry="2.5" style="stroke:#181818;stroke-width:0.5;" width="47" x="234.5" y="561.6211"/><text fill="#000000" font-family="sans-serif" font-size="14" lengthAdjust="spacing" textLength="22" x="247" y="581.7285">Job</text><line style="stroke:#181818;stroke-width:0.5;" x1="235.5" x2="280.5" y1="590.2422" y2="590.2422"/><text fill="#000000" font-family="sans-serif" font-size="14" lengthAdjust="spacing" textLength="35" x="240.5" y="609.3496">name</text></g><!--class IDDocType--><g id="elem_IDDocType"><rect codeLine="34" fill="#F1F1F1" height="55.2422" id="IDDocType" rx="2.5" ry="2.5" style="stroke:#181818;stroke-width:0.5;" width="76" x="7" y="561.6211"/><text fill="#000000" font-family="sans-serif" font-size="14" lengthAdjust="spacing" textLength="70" x="10" y="581.7285">IDDocType</text><line style="stroke:#181818;stroke-width:0.5;" x1="8" x2="82" y1="590.2422" y2="590.2422"/><text fill="#000000" font-family="sans-serif" font-size="14" lengthAdjust="spacing" textLength="62" x="13" y="609.3496">document</text></g><!--link Organization to HRM--><g id="link_Organization_HRM"><path codeLine="38" d="M286,83.9311 C286,105.3511 286,141.0711 286,162.4311 " fill="none" id="Organization-HRM" style="stroke:#181818;stroke-width:1.0;"/><polygon fill="#000000" points="291,128.2666,293.9389,119.2215,288.0611,119.2215,291,128.2666" style="stroke:#000000;stroke-width:1.0;"/><text fill="#000000" font-family="sans-serif" font-size="13" lengthAdjust="spacing" textLength="21" x="300" y="128.6494">has</text><text fill="#000000" font-family="sans-serif" font-size="13" lengthAdjust="spacing" textLength="7" x="278.0594" y="105.389">1</text><text fill="#000000" font-family="sans-serif" font-size="13" lengthAdjust="spacing" textLength="7" x="277.9281" y="151.2351">1</text></g><!--link Organization to Collaborator--><g id="link_Organization_Collaborator"><path codeLine="39" d="M269.2,83.8111 C252.8,102.0811 228.42,132.1711 215,162.6211 C199.05,198.8211 188.98,241.0211 182.63,278.5311 " fill="none" id="Organization-Collaborator" style="stroke:#181818;stroke-width:1.0;"/><polygon fill="#000000" points="217.9688,185.8354,224.3288,178.7643,218.9578,176.3764,217.9688,185.8354" style="stroke:#000000;stroke-width:1.0;"/><text fill="#000000" font-family="sans-serif" font-size="13" lengthAdjust="spacing" textLength="21" x="229" y="186.6494">has</text><text fill="#000000" font-family="sans-serif" font-size="13" lengthAdjust="spacing" textLength="7" x="256.7444" y="105.2367">1</text><text fill="#000000" font-family="sans-serif" font-size="13" lengthAdjust="spacing" textLength="20" x="162.6763" y="267.4409">1..*</text></g><!--link Organization to Job--><g id="link_Organization_Job"><path codeLine="40" d="M306.45,83.7711 C314.88,92.0511 324.05,102.5311 330,113.6211 C408,258.9811 435.4,331.1811 370,482.6211 C352.1,524.0711 309.03,556.7711 281.81,574.2111 " fill="none" id="Organization-Job" style="stroke:#181818;stroke-width:1.0;"/><polygon fill="#000000" points="395.7491,244.2603,399.1382,235.3741,393.2677,235.0791,395.7491,244.2603" style="stroke:#000000;stroke-width:1.0;"/><text fill="#000000" font-family="sans-serif" font-size="13" lengthAdjust="spacing" textLength="30" x="405" y="244.6494">owns</text><text fill="#000000" font-family="sans-serif" font-size="13" lengthAdjust="spacing" textLength="7" x="304.0053" y="105.186">1</text><text fill="#000000" font-family="sans-serif" font-size="13" lengthAdjust="spacing" textLength="20" x="289.6286" y="565.8315">1..*</text></g><!--link HRM to Job--><g id="link_HRM_Job"><path codeLine="41" d="M289.32,199.9611 C298.35,252.0811 320.64,408.1811 289,531.6211 C286.36,541.9211 281.41,552.3511 276.23,561.4011 " fill="none" id="HRM-Job" style="stroke:#181818;stroke-width:1.0;"/><polygon fill="#000000" points="309.819,385.7633,313.0834,376.8305,307.2094,376.6178,309.819,385.7633" style="stroke:#000000;stroke-width:1.0;"/><text fill="#000000" font-family="sans-serif" font-size="13" lengthAdjust="spacing" textLength="42" x="319" y="386.1494">selects</text><text fill="#000000" font-family="sans-serif" font-size="13" lengthAdjust="spacing" textLength="7" x="282.2716" y="221.4271">1</text><text fill="#000000" font-family="sans-serif" font-size="13" lengthAdjust="spacing" textLength="7" x="272.4522" y="550.5116">1</text></g><!--link Job to Collaborator--><g id="link_Job_Collaborator"><path codeLine="42" d="M234.44,569.5111 C223.27,559.4511 210.7,546.1311 203,531.6211 C195.02,516.5911 189.1,499.7011 184.69,482.8111 " fill="none" id="Job-Collaborator" style="stroke:#181818;stroke-width:1.0;"/><polygon fill="#000000" points="205.5115,517.9299,207.4642,527.2378,212.5623,524.3124,205.5115,517.9299" style="stroke:#000000;stroke-width:1.0;"/><text fill="#000000" font-family="sans-serif" font-size="13" lengthAdjust="spacing" textLength="67" x="217" y="527.6494">assigned to</text><text fill="#000000" font-family="sans-serif" font-size="13" lengthAdjust="spacing" textLength="7" x="219.4911" y="558.2893">1</text><text fill="#000000" font-family="sans-serif" font-size="13" lengthAdjust="spacing" textLength="20" x="164.8875" y="504.9712">0..*</text></g><!--link Collaborator to Job--><g id="link_Collaborator_Job"><path codeLine="45" d="M138.75,482.6911 C138.15,499.8511 141.07,516.8711 150,531.6211 C168.19,561.6711 208.2,576.5011 234.09,583.2211 " fill="none" id="Collaborator-Job" style="stroke:#181818;stroke-width:1.0;"/><polygon fill="#000000" points="158.4406,525.8945,154.3489,517.3092,150.084,521.3539,158.4406,525.8945" style="stroke:#000000;stroke-width:1.0;"/><text fill="#000000" font-family="sans-serif" font-size="13" lengthAdjust="spacing" textLength="21" x="164" y="527.6494">has</text><text fill="#000000" font-family="sans-serif" font-size="13" lengthAdjust="spacing" textLength="20" x="115.5738" y="504.8423">0..*</text><text fill="#000000" font-family="sans-serif" font-size="13" lengthAdjust="spacing" textLength="7" x="219.3809" y="576.2063">1</text></g><!--link HRM to Collaborator--><g id="link_HRM_Collaborator"><path codeLine="43" d="M267.8,192.9611 C254.85,201.4911 237.88,214.4511 227,229.6211 C216.41,244.3811 207.64,261.4111 200.45,278.5811 " fill="none" id="HRM-Collaborator" style="stroke:#181818;stroke-width:1.0;"/><polygon fill="#000000" points="228.9087,243.1965,236.8108,237.9043,232.191,234.2703,228.9087,243.1965" style="stroke:#000000;stroke-width:1.0;"/><text fill="#000000" font-family="sans-serif" font-size="13" lengthAdjust="spacing" textLength="43" x="241" y="244.6494">register</text><text fill="#000000" font-family="sans-serif" font-size="13" lengthAdjust="spacing" textLength="7" x="253.0694" y="191.2986">1</text><text fill="#000000" font-family="sans-serif" font-size="13" lengthAdjust="spacing" textLength="20" x="203.2737" y="267.4946">0..*</text></g><!--link Collaborator to IDDocType--><g id="link_Collaborator_IDDocType"><path codeLine="44" d="M119.29,463.7911 C109.13,479.9111 98.65,496.7511 89,512.6211 C79.23,528.7011 68.6,546.9111 60.24,561.4211 " fill="none" id="Collaborator-IDDocType" style="stroke:#181818;stroke-width:1.0;"/><polygon fill="#000000" points="91.4123,526.5449,98.6082,520.3264,93.5787,517.2844,91.4123,526.5449" style="stroke:#000000;stroke-width:1.0;"/><text fill="#000000" font-family="sans-serif" font-size="13" lengthAdjust="spacing" textLength="30" x="103" y="527.6494">owns</text><text fill="#000000" font-family="sans-serif" font-size="13" lengthAdjust="spacing" textLength="20" x="91.6472" y="469.9247">0..*</text><text fill="#000000" font-family="sans-serif" font-size="13" lengthAdjust="spacing" textLength="7" x="55.8081" y="550.536">1</text></g><!--SRC=[ZL51JiCm4Bpx5QiUaLeLSUi12P43HIf851wmiPV4rFP6jgEgHVmTnqtJ51M4BzcTcSpEsc6ZNOCUBLXsB6lFbY3wbaGOc0Rb1YjQnvqXy2GZkigC1Q56nLljAdX74qYCA6amXBiOlIxRI4l9Rgtt17CXQgq8fFOoMUNQKgnP1I6YZcbGmHQrWnKhCZ25j_LyVYD4zeDdNw7JUuoQ7NoAhoD-pyPWoHuZ-uH3EWujvQBKFjOATxb1PNK8wUy28_M8yXH2hfkQ7JsrjYIVUqf9JAwMHS7oTTTGtur47roUWZoyhCQv7haSnndmmQvd5SlMaekTucp7oVK4fjFywQmNK6E0sryqizdLvFmg_g7l8Yw0jwxJTJD68mzS89FUFa3YE-38po-DIylfof62o3_iBiezLJf4yabxnlJgFiRfjeQWVwWFeGzxVmC0]--></g></svg>