<?xml version="1.0" encoding="us-ascii" standalone="no"?><svg xmlns="http://www.w3.org/2000/svg" xmlns:xlink="http://www.w3.org/1999/xlink" contentStyleType="text/css" height="603px" preserveAspectRatio="none" style="width:226px;height:603px;background:#FFFFFF;" version="1.1" viewBox="0 0 226 603" width="226.2px" zoomAndPan="magnify"><defs/><g><!--cluster actors--><g id="cluster_actors"><rect fill="none" height="429.6" rx="1.5" ry="1.5" style="stroke:#FFFF00;stroke-width:0.6;" width="198" x="4.2" y="4.2"/><text fill="#000000" font-family="sans-serif" font-size="8.4" font-weight="bold" lengthAdjust="spacing" textLength="59.4" x="73.5" y="14.4645">System Actors</text></g><!--cluster usecases--><g id="cluster_usecases"><rect fill="none" height="55.8" rx="1.5" ry="1.5" style="stroke:#FFFF00;stroke-width:0.6;" width="125.4" x="97.5" y="543.6"/><text fill="#000000" font-family="sans-serif" font-size="8.4" font-weight="bold" lengthAdjust="spacing" textLength="44.4" x="138" y="553.8645">Use Cases</text></g><!--entity Freelancer--><g id="elem_Freelancer"><ellipse cx="42.6" cy="286.2" fill="#F1F1F1" rx="4.8" ry="4.8" style="stroke:#181818;stroke-width:0.3;"/><path d="M42.6,291 L42.6,307.2 M34.8,295.8 L50.4,295.8 M42.6,307.2 L34.8,316.2 M42.6,307.2 L50.4,316.2 " fill="none" style="stroke:#181818;stroke-width:0.3;"/><text fill="#000000" font-family="sans-serif" font-size="8.4" lengthAdjust="spacing" textLength="41.4" x="21.9" y="326.1645">Freelancer</text></g><!--entity Collaborator--><g id="elem_Collaborator"><ellipse cx="42.6" cy="217.8" fill="#F1F1F1" rx="4.8" ry="4.8" style="stroke:#181818;stroke-width:0.3;"/><path d="M42.6,222.6 L42.6,238.8 M34.8,227.4 L50.4,227.4 M42.6,238.8 L34.8,247.8 M42.6,238.8 L50.4,247.8 " fill="none" style="stroke:#181818;stroke-width:0.3;"/><text fill="#000000" font-family="sans-serif" font-size="8.4" lengthAdjust="spacing" textLength="46.8" x="19.2" y="257.7645">Collaborator</text></g><!--entity GSM--><g id="elem_GSM"><ellipse cx="42.6" cy="126.9" fill="#F1F1F1" rx="4.8" ry="4.8" style="stroke:#181818;stroke-width:0.3;"/><path d="M42.6,131.7 L42.6,147.9 M34.8,136.5 L50.4,136.5 M42.6,147.9 L34.8,156.9 M42.6,147.9 L50.4,156.9 " fill="none" style="stroke:#181818;stroke-width:0.3;"/><text fill="#000000" font-family="sans-serif" font-size="8.4" lengthAdjust="spacing" textLength="24" x="25.8" y="166.8645">Green</text><text fill="#000000" font-family="sans-serif" font-size="8.4" lengthAdjust="spacing" textLength="28.2" x="25.8" y="178.0371">Spaces</text><text fill="#000000" font-family="sans-serif" font-size="8.4" lengthAdjust="spacing" textLength="33.6" x="25.8" y="189.2098">Manager</text></g><!--entity GSU--><g id="elem_GSU"><ellipse cx="42.6" cy="36.3" fill="#F1F1F1" rx="4.8" ry="4.8" style="stroke:#181818;stroke-width:0.3;"/><path d="M42.6,41.1 L42.6,57.3 M34.8,45.9 L50.4,45.9 M42.6,57.3 L34.8,66.3 M42.6,57.3 L50.4,66.3 " fill="none" style="stroke:#181818;stroke-width:0.3;"/><text fill="#000000" font-family="sans-serif" font-size="8.4" lengthAdjust="spacing" textLength="24" x="28.5" y="76.2645">Green</text><text fill="#000000" font-family="sans-serif" font-size="8.4" lengthAdjust="spacing" textLength="28.2" x="28.5" y="87.4371">Spaces</text><text fill="#000000" font-family="sans-serif" font-size="8.4" lengthAdjust="spacing" textLength="17.4" x="28.5" y="98.6098">User</text></g><!--entity HRM--><g id="elem_HRM"><ellipse cx="160.2" cy="206.7" fill="#F1F1F1" rx="4.8" ry="4.8" style="stroke:#181818;stroke-width:0.3;"/><path d="M160.2,211.5 L160.2,227.7 M152.4,216.3 L168,216.3 M160.2,227.7 L152.4,236.7 M160.2,227.7 L168,236.7 " fill="none" style="stroke:#181818;stroke-width:0.3;"/><text fill="#000000" font-family="sans-serif" font-size="8.4" lengthAdjust="spacing" textLength="26.4" x="139.8" y="246.6645">Human</text><text fill="#000000" font-family="sans-serif" font-size="8.4" lengthAdjust="spacing" textLength="40.8" x="139.8" y="257.8371">Resources</text><text fill="#000000" font-family="sans-serif" font-size="8.4" lengthAdjust="spacing" textLength="33.6" x="139.8" y="269.0098">Manager</text></g><!--entity FM--><g id="elem_FM"><ellipse cx="160.2" cy="138" fill="#F1F1F1" rx="4.8" ry="4.8" style="stroke:#181818;stroke-width:0.3;"/><path d="M160.2,142.8 L160.2,159 M152.4,147.6 L168,147.6 M160.2,159 L152.4,168 M160.2,159 L168,168 " fill="none" style="stroke:#181818;stroke-width:0.3;"/><text fill="#000000" font-family="sans-serif" font-size="8.4" lengthAdjust="spacing" textLength="55.2" x="132.6" y="177.9645">Fleet Manager</text></g><!--entity Employee--><g id="elem_Employee"><ellipse cx="42.6" cy="354.6" fill="#F1F1F1" rx="4.8" ry="4.8" style="stroke:#181818;stroke-width:0.3;"/><path d="M42.6,359.4 L42.6,375.6 M34.8,364.2 L50.4,364.2 M42.6,375.6 L34.8,384.6 M42.6,375.6 L50.4,384.6 " fill="none" style="stroke:#181818;stroke-width:0.3;"/><text fill="#000000" font-family="sans-serif" font-size="8.4" lengthAdjust="spacing" textLength="48" x="18.6" y="394.5645">Organization</text><text fill="#000000" font-family="sans-serif" font-size="8.4" lengthAdjust="spacing" textLength="37.2" x="18.6" y="405.7371">Employee</text></g><g id="elem_UC6"><ellipse cx="160.1121" cy="577.8424" fill="#F1F1F1" rx="53.0121" ry="12.0424" style="stroke:#181818;stroke-width:0.3;"/><text fill="#000000" font-family="sans-serif" font-size="8.4" lengthAdjust="spacing" textLength="78" x="119.3121" y="580.7246">UC6 - Create a Task</text></g><g id="elem_GMN10"><path d="M114.3,448.5 L114.3,475.2492 L206.1,475.2492 L206.1,454.5 L200.1,448.5 L114.3,448.5 " fill="#FEFFDD" style="stroke:#181818;stroke-width:0.3;"/><path d="M200.1,448.5 L200.1,454.5 L206.1,454.5 L200.1,448.5 " fill="#FEFFDD" style="stroke:#181818;stroke-width:0.6;"/><text fill="#000000" font-family="sans-serif" font-size="7.8" lengthAdjust="spacing" textLength="79.2" x="117.9" y="459.917">Actor identified but still</text><text fill="#000000" font-family="sans-serif" font-size="7.8" lengthAdjust="spacing" textLength="79.2" x="117.9" y="470.2916">no concrete use cases</text></g><g id="elem_GMN16"><path d="M102.6,496.8 L102.6,533.9238 L217.8,533.9238 L217.8,502.8 L211.8,496.8 L102.6,496.8 " fill="#FEFFDD" style="stroke:#181818;stroke-width:0.3;"/><path d="M211.8,496.8 L211.8,502.8 L217.8,502.8 L211.8,496.8 " fill="#FEFFDD" style="stroke:#181818;stroke-width:0.6;"/><text fill="#000000" font-family="sans-serif" font-size="7.8" lengthAdjust="spacing" textLength="99" x="106.2" y="508.217">Rectangles and Titles are for</text><text fill="#000000" font-family="sans-serif" font-size="7.8" lengthAdjust="spacing" textLength="102.6" x="106.2" y="518.5916">demonstration purposes only.</text><text fill="#000000" font-family="sans-serif" font-size="7.8" lengthAdjust="spacing" textLength="84" x="106.2" y="528.9662">Omitt on your diagrams.</text></g><!--link Freelancer to GMN10--><g id="link_Freelancer_GMN10"><path d="M60.69,328.578 C62.838,331.986 64.872,335.52 66.6,339 C82.95,371.976 70.344,388.356 92.7,417.6 C102.606,430.554 117.432,440.946 130.608,448.404 " fill="none" id="Freelancer-GMN10" style="stroke:#181818;stroke-width:0.6;stroke-dasharray:7.0,7.0;"/></g><!--link Employee to UC6--><g id="link_Employee_UC6"><path d="M65.646,407.76 C65.982,408.438 66.3,409.122 66.6,409.8 C91.362,465.666 55.632,496.218 92.7,544.8 C101.106,555.816 110.8445,562.019 123.2045,567.101 " fill="none" id="Employee-to-UC6" style="stroke:#181818;stroke-width:0.6;"/><polygon fill="#181818" points="126.534,568.47,122.4523,564.1968,123.7594,567.3292,120.627,568.6362,126.534,568.47" style="stroke:#181818;stroke-width:0.6;"/></g><!--link actors to GMN16--><g id="link_actors_GMN16"><path d="M46.3629,433.9433 C46.4332,434.0499 46.5046,434.158 46.5771,434.2675 C46.8671,434.7057 47.1744,435.167 47.4986,435.6501 C50.0921,439.5143 53.763,444.7643 58.2435,450.591 C67.2045,462.2445 79.404,476.205 92.7,486 C98.112,489.99 104.154,493.584 110.328,496.782 " fill="none" id="actors-GMN16" style="stroke:#181818;stroke-width:0.6;stroke-dasharray:7.0,7.0;"/></g><!--SRC=[VPB1JiCm38RlUGfhbvt6aICI30ONXBJ1RHVJkbsqrAwSL50GxuwRhQm3YHwgsFdon_djUTnxRb6nWKPOYfrAGv2q8tVQQR7OOqsRr0S2fI8Xru7S_4J47PRovhc62aCaDpdymtywiEz6j2HTIX25daAGD_Vbt3pvPDelaM29zhlrM0-7xzwnQUqg5wXAa0JKrxi4fHzKlR1pF_8ms_GnKGFNHHADCy08c9Tmk3a7i5AYW5oGJf9MJi1NKRHWafxT6ynRtfW15BVyY6msQ9Q-tpp-Gzf3HknbYZrq3HgsfYYT_j5yM9zfhW9HWYcmEjj_qXhPV-1Wn9Rlp2ZfYJ8u1eEtZYNHqJYfVXkGtG9V4YTVUIhXjKiGamyXRxD08LmecKHdZIciEz4Hbp2edja_DkzWlS6PFNX_Z0nQNi82bafeWWZF6FSPjtm6ny9XiRZAoQzVvHzQcjdrUBSrsWfw7aR8bafG7TjOaWrrJ9ejWhRJLgma40xzHGQU6fzCbg6tVjXOvQcB5wS7VWC0]--></g></svg>