<?xml version="1.0" encoding="us-ascii" standalone="no"?><svg xmlns="http://www.w3.org/2000/svg" xmlns:xlink="http://www.w3.org/1999/xlink" contentStyleType="text/css" height="583.2px" preserveAspectRatio="none" style="width:261px;height:583px;background:#FFFFFF;" version="1.1" viewBox="0 0 261 583" width="261.2px" zoomAndPan="magnify"><defs/><g><!--cluster actors--><g id="cluster_actors"><rect fill="none" height="258" rx="1" ry="1" style="stroke:#FFFF00;stroke-width:0.4000000000000001;" width="176" x="2.8" y="2.8"/><text fill="#000000" font-family="sans-serif" font-size="5.6" font-weight="bold" lengthAdjust="spacing" textLength="39.6" x="71" y="9.643">System Actors</text></g><!--cluster usecases--><g id="cluster_usecases"><rect fill="none" height="310.4" rx="1" ry="1" style="stroke:#FFFF00;stroke-width:0.4000000000000001;" width="195.2" x="63.6" y="270.4"/><text fill="#000000" font-family="sans-serif" font-size="5.6" font-weight="bold" lengthAdjust="spacing" textLength="29.6" x="146.4" y="277.243">Use Cases</text></g><!--entity Freelancer--><g id="elem_Freelancer"><ellipse cx="27.6" cy="66.8" fill="#F1F1F1" rx="3.2" ry="3.2" style="stroke:#181818;stroke-width:0.20000000000000004;"/><path d="M27.6,70 L27.6,80.8 M22.4,73.2 L32.8,73.2 M27.6,80.8 L22.4,86.8 M27.6,80.8 L32.8,86.8 " fill="none" style="stroke:#181818;stroke-width:0.20000000000000004;"/><text fill="#000000" font-family="sans-serif" font-size="5.6" lengthAdjust="spacing" textLength="27.6" x="13.8" y="93.443">Freelancer</text></g><!--entity Collaborator--><g id="elem_Collaborator"><ellipse cx="27.6" cy="21.2" fill="#F1F1F1" rx="3.2" ry="3.2" style="stroke:#181818;stroke-width:0.20000000000000004;"/><path d="M27.6,24.4 L27.6,35.2 M22.4,27.6 L32.8,27.6 M27.6,35.2 L22.4,41.2 M27.6,35.2 L32.8,41.2 " fill="none" style="stroke:#181818;stroke-width:0.20000000000000004;"/><text fill="#000000" font-family="sans-serif" font-size="5.6" lengthAdjust="spacing" textLength="31.2" x="12" y="47.843">Collaborator</text></g><!--entity GSM--><g id="elem_GSM"><ellipse cx="161.2" cy="81.4" fill="#F1F1F1" rx="3.2" ry="3.2" style="stroke:#181818;stroke-width:0.20000000000000004;"/><path d="M161.2,84.6 L161.2,95.4 M156,87.8 L166.4,87.8 M161.2,95.4 L156,101.4 M161.2,95.4 L166.4,101.4 " fill="none" style="stroke:#181818;stroke-width:0.20000000000000004;"/><text fill="#000000" font-family="sans-serif" font-size="5.6" lengthAdjust="spacing" textLength="16" x="150" y="108.043">Green</text><text fill="#000000" font-family="sans-serif" font-size="5.6" lengthAdjust="spacing" textLength="18.8" x="150" y="115.4914">Spaces</text><text fill="#000000" font-family="sans-serif" font-size="5.6" lengthAdjust="spacing" textLength="22.4" x="150" y="122.9398">Manager</text></g><!--entity GSU--><g id="elem_GSU"><ellipse cx="161.2" cy="21" fill="#F1F1F1" rx="3.2" ry="3.2" style="stroke:#181818;stroke-width:0.20000000000000004;"/><path d="M161.2,24.2 L161.2,35 M156,27.4 L166.4,27.4 M161.2,35 L156,41 M161.2,35 L166.4,41 " fill="none" style="stroke:#181818;stroke-width:0.20000000000000004;"/><text fill="#000000" font-family="sans-serif" font-size="5.6" lengthAdjust="spacing" textLength="16" x="151.8" y="47.643">Green</text><text fill="#000000" font-family="sans-serif" font-size="5.6" lengthAdjust="spacing" textLength="18.8" x="151.8" y="55.0914">Spaces</text><text fill="#000000" font-family="sans-serif" font-size="5.6" lengthAdjust="spacing" textLength="11.6" x="151.8" y="62.5398">User</text></g><!--entity HRM--><g id="elem_HRM"><ellipse cx="27.6" cy="112.6" fill="#F1F1F1" rx="3.2" ry="3.2" style="stroke:#181818;stroke-width:0.20000000000000004;"/><path d="M27.6,115.8 L27.6,126.6 M22.4,119 L32.8,119 M27.6,126.6 L22.4,132.6 M27.6,126.6 L32.8,132.6 " fill="none" style="stroke:#181818;stroke-width:0.20000000000000004;"/><text fill="#000000" font-family="sans-serif" font-size="5.6" lengthAdjust="spacing" textLength="17.6" x="14" y="139.243">Human</text><text fill="#000000" font-family="sans-serif" font-size="5.6" lengthAdjust="spacing" textLength="27.2" x="14" y="146.6914">Resources</text><text fill="#000000" font-family="sans-serif" font-size="5.6" lengthAdjust="spacing" textLength="22.4" x="14" y="154.1398">Manager</text></g><!--entity FM--><g id="elem_FM"><ellipse cx="27.6" cy="173.2" fill="#F1F1F1" rx="3.2" ry="3.2" style="stroke:#181818;stroke-width:0.20000000000000004;"/><path d="M27.6,176.4 L27.6,187.2 M22.4,179.6 L32.8,179.6 M27.6,187.2 L22.4,193.2 M27.6,187.2 L32.8,193.2 " fill="none" style="stroke:#181818;stroke-width:0.20000000000000004;"/><text fill="#000000" font-family="sans-serif" font-size="5.6" lengthAdjust="spacing" textLength="36.8" x="9.2" y="199.843">Fleet Manager</text></g><!--entity Employee--><g id="elem_Employee"><ellipse cx="27.6" cy="218.8" fill="#F1F1F1" rx="3.2" ry="3.2" style="stroke:#181818;stroke-width:0.20000000000000004;"/><path d="M27.6,222 L27.6,232.8 M22.4,225.2 L32.8,225.2 M27.6,232.8 L22.4,238.8 M27.6,232.8 L32.8,238.8 " fill="none" style="stroke:#181818;stroke-width:0.20000000000000004;"/><text fill="#000000" font-family="sans-serif" font-size="5.6" lengthAdjust="spacing" textLength="32" x="11.6" y="245.443">Organization</text><text fill="#000000" font-family="sans-serif" font-size="5.6" lengthAdjust="spacing" textLength="24.8" x="11.6" y="252.8914">Employee</text></g><g id="elem_UC66"><ellipse cx="161.1414" cy="566.4283" fill="#F1F1F1" rx="35.3414" ry="8.0283" style="stroke:#181818;stroke-width:0.20000000000000004;"/><text fill="#000000" font-family="sans-serif" font-size="5.6" lengthAdjust="spacing" textLength="52" x="133.9414" y="568.3498">UC6 - Create a Task</text></g><g id="elem_UC1"><ellipse cx="161.1424" cy="434.3085" fill="#F1F1F1" rx="54.7424" ry="11.9085" style="stroke:#181818;stroke-width:0.20000000000000004;"/><text fill="#000000" font-family="sans-serif" font-size="5.6" lengthAdjust="spacing" textLength="95.6" x="113.3424" y="435.8272">UC1 - Register Skills of a Collaborator</text></g><g id="elem_UC2"><ellipse cx="161.1009" cy="293.2602" fill="#F1F1F1" rx="35.5009" ry="8.0602" style="stroke:#181818;stroke-width:0.20000000000000004;"/><text fill="#000000" font-family="sans-serif" font-size="5.6" lengthAdjust="spacing" textLength="52.4" x="133.7009" y="295.1817">UC2 - Register a Job</text></g><g id="elem_UC3"><ellipse cx="161.1486" cy="334.3897" fill="#F1F1F1" rx="91.1486" ry="19.1897" style="stroke:#181818;stroke-width:0.20000000000000004;"/><text fill="#000000" font-family="sans-serif" font-size="5.6" lengthAdjust="spacing" textLength="171.2" x="75.5486" y="335.9085">UC3 - Register collaborator with job and fundamental characteristics</text></g><g id="elem_UC4"><ellipse cx="161.1235" cy="374.3313" fill="#F1F1F1" rx="19.5235" ry="6.5313" style="stroke:#181818;stroke-width:0.20000000000000004;"/><text fill="#000000" font-family="sans-serif" font-size="5.6" lengthAdjust="spacing" textLength="20.8" x="149.5235" y="376.2528">UC4 - ...</text></g><g id="elem_UC5"><ellipse cx="161.1235" cy="401.5313" fill="#F1F1F1" rx="19.5235" ry="6.5313" style="stroke:#181818;stroke-width:0.20000000000000004;"/><text fill="#000000" font-family="sans-serif" font-size="5.6" lengthAdjust="spacing" textLength="20.8" x="149.5235" y="403.4528">UC5 - ...</text></g><g id="elem_UC6"><ellipse cx="161.1189" cy="469.1838" fill="#F1F1F1" rx="39.1189" ry="8.7838" style="stroke:#181818;stroke-width:0.20000000000000004;"/><text fill="#000000" font-family="sans-serif" font-size="5.6" lengthAdjust="spacing" textLength="61.2" x="129.8076" y="470.9546">UC6 - Register a vehicle</text></g><g id="elem_UC7"><ellipse cx="161.2261" cy="503.1252" fill="#F1F1F1" rx="50.8261" ry="11.1252" style="stroke:#181818;stroke-width:0.20000000000000004;"/><text fill="#000000" font-family="sans-serif" font-size="5.6" lengthAdjust="spacing" textLength="87.2" x="117.6261" y="504.644">UC7 - Register Vehicle's Check-up</text></g><g id="elem_UC8"><ellipse cx="161.1414" cy="536.4283" fill="#F1F1F1" rx="35.3414" ry="8.0283" style="stroke:#181818;stroke-width:0.20000000000000004;"/><text fill="#000000" font-family="sans-serif" font-size="5.6" lengthAdjust="spacing" textLength="52" x="133.9414" y="538.3498">UC8 - Create a Task</text></g><!--link Employee to UC66--><g id="link_Employee_UC66"><path d="M28.628,254.204 C30.928,319.692 39.852,529.64 60.4,551.2 C78.248,569.928 106.2291,572.3371 128.9091,570.8491 " fill="none" id="Employee-to-UC66" style="stroke:#181818;stroke-width:0.4000000000000001;"/><polygon fill="#181818" points="131.304,570.692,127.607,569.3311,129.3083,570.8229,127.8165,572.5243,131.304,570.692" style="stroke:#181818;stroke-width:0.4000000000000001;"/></g><!--link HRM to UC1--><g id="link_HRM_UC1"><path d="M41.256,151.712 C43.16,155.268 44.856,159.044 46,162.8 C54.188,189.672 41.892,394.072 60.4,415.2 C72.064,428.516 87.5027,434.0686 104.9067,436.2566 " fill="none" id="HRM-to-UC1" style="stroke:#181818;stroke-width:0.4000000000000001;"/><polygon fill="#181818" points="107.288,436.556,103.9157,434.5194,105.3036,436.3065,103.5165,437.6945,107.288,436.556" style="stroke:#181818;stroke-width:0.4000000000000001;"/></g><!--link HRM to UC2--><g id="link_HRM_UC2"><path d="M41.248,152.304 C43.076,155.7 44.752,159.272 46,162.8 C60.692,204.3 31.964,227.192 60.4,260.8 C76.696,280.06 102.1485,287.6297 124.3805,290.8337 " fill="none" id="HRM-to-UC2" style="stroke:#181818;stroke-width:0.4000000000000001;"/><polygon fill="#181818" points="126.756,291.176,123.421,289.0788,124.7765,290.8907,122.9646,292.2461,126.756,291.176" style="stroke:#181818;stroke-width:0.4000000000000001;"/></g><!--link HRM to UC3--><g id="link_HRM_UC3"><path d="M41.216,151.92 C43.096,155.424 44.796,159.128 46,162.8 C56.1,193.612 39.356,283.332 60.4,308 C66.54,315.2 72.2051,319.5497 80.7971,323.5177 " fill="none" id="HRM-to-UC3" style="stroke:#181818;stroke-width:0.4000000000000001;"/><polygon fill="#181818" points="82.976,324.524,80.3785,321.562,81.1603,323.6855,79.0369,324.4672,82.976,324.524" style="stroke:#181818;stroke-width:0.4000000000000001;"/></g><!--link HRM to UC4--><g id="link_HRM_UC4"><path d="M41.208,151.728 C43.116,155.28 44.828,159.056 46,162.8 C59.164,204.812 30.308,328.26 60.4,360.4 C81.692,383.14 119.1629,381.4864 141.7269,378.0784 " fill="none" id="HRM-to-UC4" style="stroke:#181818;stroke-width:0.4000000000000001;"/><polygon fill="#181818" points="144.1,377.72,140.3014,376.6756,142.1224,378.0187,140.7793,379.8397,144.1,377.72" style="stroke:#181818;stroke-width:0.4000000000000001;"/></g><!--link HRM to UC5--><g id="link_HRM_UC5"><path d="M41.236,151.72 C43.14,155.272 44.844,159.048 46,162.8 C53.392,186.76 43.308,369.656 60.4,388 C81.684,410.844 119.3493,408.9218 141.9013,405.3658 " fill="none" id="HRM-to-UC5" style="stroke:#181818;stroke-width:0.4000000000000001;"/><polygon fill="#181818" points="144.272,404.992,140.4667,403.9722,142.2964,405.3035,140.9651,407.1332,144.272,404.992" style="stroke:#181818;stroke-width:0.4000000000000001;"/></g><!--link FM to UC6--><g id="link_FM_UC6"><path d="M42.384,201.42 C43.82,203.644 45.084,205.996 46,208.4 C55.688,233.868 42.112,433 60.4,453.2 C76.836,471.356 102.55,474.6288 124.854,473.7288 " fill="none" id="FM-to-UC6" style="stroke:#181818;stroke-width:0.4000000000000001;"/><polygon fill="#181818" points="127.252,473.632,123.5904,472.1784,125.2536,473.7126,123.7194,475.3758,127.252,473.632" style="stroke:#181818;stroke-width:0.4000000000000001;"/></g><!--link FM to UC7--><g id="link_FM_UC7"><path d="M42.396,201.416 C43.832,203.64 45.092,205.992 46,208.4 C56.84,237.18 40.104,461.696 60.4,484.8 C73.208,499.38 91.0354,504.6641 109.9834,506.1521 " fill="none" id="FM-to-UC7" style="stroke:#181818;stroke-width:0.4000000000000001;"/><polygon fill="#181818" points="112.376,506.34,108.9123,504.4631,110.3821,506.1834,108.6618,507.6532,112.376,506.34" style="stroke:#181818;stroke-width:0.4000000000000001;"/></g><!--link FM to UC8--><g id="link_FM_UC8"><path d="M42.412,201.412 C43.844,203.636 45.1,205.992 46,208.4 C58.164,240.996 37.112,495.348 60.4,521.2 C77.92,540.652 106.507,542.8349 129.431,541.0829 " fill="none" id="FM-to-UC8" style="stroke:#181818;stroke-width:0.4000000000000001;"/><polygon fill="#181818" points="131.824,540.9,128.1125,539.579,129.8298,541.0524,128.3564,542.7697,131.824,540.9" style="stroke:#181818;stroke-width:0.4000000000000001;"/></g><!--SRC=[VP9FZvim4CNlV8fHBZabKlvjSghKifjTLLfL2jsUSfcO2RWOEx9DqxJgT-z0O6FOTZaWPlnxR_2pnwwG-eGMIoYDDYAtfYJmjgBejd92KM16YRye0al2eyuKHUCRuN9CpLdg38we74M1-9N_7G4_dunDoSP66GiNKigSepzHDFRIi_UB8uYHN_SIirhyy1FB4u-A51qzU0DMPhc7LDQkqkWeUhM7KN9ndahuABonRWJe09jFk4vk2jXQ8eLQa0sQ_3iA3yOY5q5xzCYmtkk40o2try-eEGRRM3ycp- -Gl94EUmcnfwf4ndRaJ6NVU3xjUfvRHUGX1BQzzIysGor_OHt4NZzmKEP2r81TKMSR9DJbUqsdSYJguXfFMp4Kty44Oale2H2-eYiQdFjt3TcPmsJouTODz3FMxoYJV1mMaa8gvS0SsIlCkVMSDMBUUUis6vhDGpE4p-RGAkS3vNoeN8HA4Oo6i_GvV3S7G9t2iT8fbgGzAX0vtrd1F8kaSEsanM3IOZXfoPEcqscBBmVuSeYlUlXgWA_-THn10Zyebq9HToODlUt4RyvY7Og_NQLZ1t5EefXKfzPbtNTP3rqs_xaHcxvkm_VjBm00]--></g></svg>