<?xml version="1.0" encoding="us-ascii" standalone="no"?><svg xmlns="http://www.w3.org/2000/svg" xmlns:xlink="http://www.w3.org/1999/xlink" contentStyleType="text/css" height="796px" preserveAspectRatio="none" style="width:653px;height:796px;background:#FFFFFF;" version="1.1" viewBox="0 0 653 796" width="653px" zoomAndPan="magnify"><defs/><g><!--cluster actors--><g id="cluster_actors"><rect fill="none" height="701" rx="2.5" ry="2.5" style="stroke:#FFFF00;stroke-width:1.0;" width="124" x="7" y="7"/><text fill="#000000" font-family="sans-serif" font-size="14" font-weight="bold" lengthAdjust="spacing" textLength="99" x="19.5" y="24.1074">System Actors</text></g><!--cluster usecases--><g id="cluster_usecases"><rect fill="none" height="699" rx="2.5" ry="2.5" style="stroke:#FFFF00;stroke-width:1.0;" width="488" x="159" y="91"/><text fill="#000000" font-family="sans-serif" font-size="14" font-weight="bold" lengthAdjust="spacing" textLength="74" x="366" y="108.1074">Use Cases</text></g><!--entity Collaborator--><g id="elem_Collaborator"><ellipse cx="69" cy="53" fill="#F1F1F1" rx="8" ry="8" style="stroke:#181818;stroke-width:0.5;"/><path d="M69,61 L69,88 M56,69 L82,69 M69,88 L56,103 M69,88 L82,103 " fill="none" style="stroke:#181818;stroke-width:0.5;"/><text fill="#000000" font-family="sans-serif" font-size="14" lengthAdjust="spacing" textLength="78" x="30" y="119.6074">Collaborator</text></g><!--entity GSM--><g id="elem_GSM"><ellipse cx="69" cy="167.5" fill="#F1F1F1" rx="8" ry="8" style="stroke:#181818;stroke-width:0.5;"/><path d="M69,175.5 L69,202.5 M56,183.5 L82,183.5 M69,202.5 L56,217.5 M69,202.5 L82,217.5 " fill="none" style="stroke:#181818;stroke-width:0.5;"/><text fill="#000000" font-family="sans-serif" font-size="14" lengthAdjust="spacing" textLength="40" x="41" y="234.1074">Green</text><text fill="#000000" font-family="sans-serif" font-size="14" lengthAdjust="spacing" textLength="47" x="41" y="252.7285">Spaces</text><text fill="#000000" font-family="sans-serif" font-size="14" lengthAdjust="spacing" textLength="56" x="41" y="271.3496">Manager</text></g><!--entity GSU--><g id="elem_GSU"><ellipse cx="69" cy="318.5" fill="#F1F1F1" rx="8" ry="8" style="stroke:#181818;stroke-width:0.5;"/><path d="M69,326.5 L69,353.5 M56,334.5 L82,334.5 M69,353.5 L56,368.5 M69,353.5 L82,368.5 " fill="none" style="stroke:#181818;stroke-width:0.5;"/><text fill="#000000" font-family="sans-serif" font-size="14" lengthAdjust="spacing" textLength="40" x="45.5" y="385.1074">Green</text><text fill="#000000" font-family="sans-serif" font-size="14" lengthAdjust="spacing" textLength="47" x="45.5" y="403.7285">Spaces</text><text fill="#000000" font-family="sans-serif" font-size="14" lengthAdjust="spacing" textLength="29" x="45.5" y="422.3496">User</text></g><!--entity HRM--><g id="elem_HRM"><ellipse cx="69" cy="469.5" fill="#F1F1F1" rx="8" ry="8" style="stroke:#181818;stroke-width:0.5;"/><path d="M69,477.5 L69,504.5 M56,485.5 L82,485.5 M69,504.5 L56,519.5 M69,504.5 L82,519.5 " fill="none" style="stroke:#181818;stroke-width:0.5;"/><text fill="#000000" font-family="sans-serif" font-size="14" lengthAdjust="spacing" textLength="44" x="35" y="536.1074">Human</text><text fill="#000000" font-family="sans-serif" font-size="14" lengthAdjust="spacing" textLength="68" x="35" y="554.7285">Resources</text><text fill="#000000" font-family="sans-serif" font-size="14" lengthAdjust="spacing" textLength="56" x="35" y="573.3496">Manager</text></g><!--entity FM--><g id="elem_FM"><ellipse cx="69" cy="621" fill="#F1F1F1" rx="8" ry="8" style="stroke:#181818;stroke-width:0.5;"/><path d="M69,629 L69,656 M56,637 L82,637 M69,656 L56,671 M69,656 L82,671 " fill="none" style="stroke:#181818;stroke-width:0.5;"/><text fill="#000000" font-family="sans-serif" font-size="14" lengthAdjust="spacing" textLength="92" x="23" y="687.6074">Fleet Manager</text></g><g id="elem_UC1"><ellipse cx="402.8559" cy="157.7712" fill="#F1F1F1" rx="136.8559" ry="29.7712" style="stroke:#181818;stroke-width:0.5;"/><text fill="#000000" font-family="sans-serif" font-size="14" lengthAdjust="spacing" textLength="239" x="283.3559" y="161.5681">UC1 - Register Skills of a Collaborator</text></g><g id="elem_UC2"><ellipse cx="402.7523" cy="447.1505" fill="#F1F1F1" rx="88.7523" ry="20.1505" style="stroke:#181818;stroke-width:0.5;"/><text fill="#000000" font-family="sans-serif" font-size="14" lengthAdjust="spacing" textLength="131" x="334.2523" y="451.9542">UC2 - Register a Job</text></g><g id="elem_UC3"><ellipse cx="402.8714" cy="270.9743" fill="#F1F1F1" rx="227.8714" ry="47.9743" style="stroke:#181818;stroke-width:0.5;"/><text fill="#000000" font-family="sans-serif" font-size="14" lengthAdjust="spacing" textLength="428" x="188.8714" y="274.7712">UC3 - Register collaborator with job and fundamental characteristics</text></g><g id="elem_UC4"><ellipse cx="403.1549" cy="373.131" fill="#F1F1F1" rx="83.6549" ry="19.131" style="stroke:#181818;stroke-width:0.5;"/><text fill="#000000" font-family="sans-serif" font-size="14" lengthAdjust="spacing" textLength="118" x="341.1549" y="377.9347">UC4 - Assign Skills</text></g><g id="elem_UC5"><ellipse cx="402.8088" cy="518.8283" fill="#F1F1F1" rx="48.8088" ry="16.3283" style="stroke:#181818;stroke-width:0.5;"/><text fill="#000000" font-family="sans-serif" font-size="14" lengthAdjust="spacing" textLength="52" x="373.8088" y="523.632">UC5 - ...</text></g><g id="elem_UC6"><ellipse cx="402.7971" cy="660.9594" fill="#F1F1F1" rx="97.7971" ry="21.9594" style="stroke:#181818;stroke-width:0.5;"/><text fill="#000000" font-family="sans-serif" font-size="14" lengthAdjust="spacing" textLength="153" x="324.519" y="665.3865">UC6 - Register a vehicle</text></g><g id="elem_UC7"><ellipse cx="403.0651" cy="745.813" fill="#F1F1F1" rx="127.0651" ry="27.813" style="stroke:#181818;stroke-width:0.5;"/><text fill="#000000" font-family="sans-serif" font-size="14" lengthAdjust="spacing" textLength="218" x="294.0651" y="749.6099">UC7 - Register Vehicle's Check-up</text></g><g id="elem_UC8"><ellipse cx="402.8088" cy="586.8283" fill="#F1F1F1" rx="48.8088" ry="16.3283" style="stroke:#181818;stroke-width:0.5;"/><text fill="#000000" font-family="sans-serif" font-size="14" lengthAdjust="spacing" textLength="52" x="373.8088" y="591.632">UC8 - ...</text></g><!--link HRM to UC1--><g id="link_HRM_UC1"><path d="M103.3,491.76 C116.92,478.58 131.27,461.6 139,443 C149.16,418.55 133.58,224.94 151,205 C180.24,171.53 219.1121,157.7698 262.8421,152.5598 " fill="none" id="HRM-to-UC1" style="stroke:#181818;stroke-width:1.0;"/><polygon fill="#181818" points="268.8,151.85,259.39,148.9428,263.8351,152.4415,260.3364,156.8866,268.8,151.85" style="stroke:#181818;stroke-width:1.0;"/></g><!--link UC1 to Collaborator--><g id="link_UC1_Collaborator"><path d="M306.43,136.7 C240.4,121.98 161.9765,104.4944 113.9365,93.7944 " fill="none" id="UC1-to-Collaborator" style="stroke:#181818;stroke-width:1.0;"/><polygon fill="#181818" points="108.08,92.49,115.9951,98.351,112.9604,93.577,117.7344,90.5423,108.08,92.49" style="stroke:#181818;stroke-width:1.0;"/></g><!--link HRM to UC2--><g id="link_HRM_UC2"><path d="M103.23,502.86 C117.62,496.45 134.85,489.54 151,485 C206.27,469.48 264.3086,460.5899 313.8486,454.9399 " fill="none" id="HRM-to-UC2" style="stroke:#181818;stroke-width:1.0;"/><polygon fill="#181818" points="319.81,454.26,310.4147,451.3056,314.8422,454.8266,311.3212,459.2541,319.81,454.26" style="stroke:#181818;stroke-width:1.0;"/></g><!--link HRM to UC3--><g id="link_HRM_UC3"><path d="M103.13,491.18 C116.55,478.01 130.78,461.19 139,443 C148.85,421.2 135.32,354.07 151,336 C166.26,318.4 180.1616,307.773 201.3216,298.013 " fill="none" id="HRM-to-UC3" style="stroke:#181818;stroke-width:1.0;"/><polygon fill="#181818" points="206.77,295.5,196.9221,295.6373,202.2297,297.5942,200.2728,302.9018,206.77,295.5" style="stroke:#181818;stroke-width:1.0;"/></g><!--link UC3 to Collaborator--><g id="link_UC3_Collaborator"><path d="M209.82,245.43 C187.75,235.68 167.35,222.56 151,205 C131.28,183.82 153.7,165.93 139,141 C131.42,128.15 124.5593,120.6124 113.0193,111.6024 " fill="none" id="UC3-to-Collaborator" style="stroke:#181818;stroke-width:1.0;"/><polygon fill="#181818" points="108.29,107.91,112.9223,116.6015,112.2311,110.987,117.8455,110.2958,108.29,107.91" style="stroke:#181818;stroke-width:1.0;"/></g><!--link HRM to UC4--><g id="link_HRM_UC4"><path d="M103.33,488.01 C115.82,475.04 129.32,459.22 139,443 C147.21,429.24 138.61,419.16 151,409 C200.01,368.8 267.3045,362.1968 322.0545,364.3268 " fill="none" id="HRM-to-UC4" style="stroke:#181818;stroke-width:1.0;"/><polygon fill="#181818" points="328.05,364.56,319.2123,360.2132,323.0538,364.3656,318.9013,368.2071,328.05,364.56" style="stroke:#181818;stroke-width:1.0;"/></g><!--link UC4 to Collaborator--><g id="link_UC4_Collaborator"><path d="M334.66,383.98 C277.08,389.14 196.51,385.55 151,336 C121.63,304.03 158.7,179.69 139,141 C132.02,127.29 124.8945,119.2937 112.9245,110.1837 " fill="none" id="UC4-to-Collaborator" style="stroke:#181818;stroke-width:1.0;"/><polygon fill="#181818" points="108.15,106.55,112.8893,115.1836,112.1288,109.5781,117.7343,108.8176,108.15,106.55" style="stroke:#181818;stroke-width:1.0;"/></g><!--link HRM to UC5--><g id="link_HRM_UC5"><path d="M103.05,519 C162.01,519 279.56,519 347.93,519 " fill="none" id="HRM-to-UC5" style="stroke:#181818;stroke-width:1.0;"/><polygon fill="#181818" points="353.93,519,344.93,515,348.93,519,344.93,523,353.93,519" style="stroke:#181818;stroke-width:1.0;"/></g><!--link FM to UC6--><g id="link_FM_UC6"><path d="M115.12,653.22 C163.79,654.54 236.7322,656.5176 299.5022,658.2176 " fill="none" id="FM-to-UC6" style="stroke:#181818;stroke-width:1.0;"/><polygon fill="#181818" points="305.5,658.38,296.6116,654.1378,300.5018,658.2446,296.395,662.1349,305.5,658.38" style="stroke:#181818;stroke-width:1.0;"/></g><!--link FM to UC7--><g id="link_FM_UC7"><path d="M115.2,683.31 C126.49,690 138.85,696.42 151,701 C194.08,717.25 237.6498,726.8074 281.2498,733.5174 " fill="none" id="FM-to-UC7" style="stroke:#181818;stroke-width:1.0;"/><polygon fill="#181818" points="287.18,734.43,278.8932,729.1076,282.2382,733.6695,277.6763,737.0145,287.18,734.43" style="stroke:#181818;stroke-width:1.0;"/></g><!--link FM to UC8--><g id="link_FM_UC8"><path d="M115.24,632.58 C126.73,628.23 139.18,624.02 151,621 C220.66,603.21 297.7396,594.7549 348.6796,590.6249 " fill="none" id="FM-to-UC8" style="stroke:#181818;stroke-width:1.0;"/><polygon fill="#181818" points="354.66,590.14,345.3662,586.8804,349.6764,590.5441,346.0127,594.8542,354.66,590.14" style="stroke:#181818;stroke-width:1.0;"/></g><!--SRC=[XP9FR-8m4CNl_XGZBfn0MlwVLkhIqgeI5wBkgPV16H8NnqQsioog-jrt28OwgRJD8Seux_tUpCXzlrVcW0uhgAonidIs8WYk9l7vvu1oZmLbuQG97Cc0fj0a-fyANs9kZyeKi4FjIIJcc_vT03-_hCl9BQss3awajJsA3o7wGGLcltY29VBhNc5nDZ_ynUh0KKBJBa2mu5HH1iZLcQgi4UA6Xrvsye4gk9F1Ejy3z83D9roIcm8uMUFMEkGYEUuzEYBpQZAUbVohMQFXYLr3USpM_r5oprVPIofxgYjasOQyhTqNvjEcnLnfeW2fOBK-xoMPxhgRosIr9takBgF5YaNB7p203HMAL-4WsokjFTWTO6lm1i7Qniojm63myrOt3Aw_R2f96QKf2Czs6v6Z3dBKTOvJfqmYuAX22Mzs2sXosDKcnufCG0sov8iaMSyc9NrC6dUInh7vyRVDJxY5E-zLOUA28d7I8KuYSV8jSSh4uN0OETCEPzgLpzhR-qEbafgYUzQeLrVph6kUf-RV5slVmx8akH_KXqYPjodpBcNHwdZHLY_uwlq3]--></g></svg>