<?xml version="1.0" encoding="us-ascii" standalone="no"?><svg xmlns="http://www.w3.org/2000/svg" xmlns:xlink="http://www.w3.org/1999/xlink" contentStyleType="text/css" height="451px" preserveAspectRatio="none" style="width:382px;height:451px;background:#FFFFFF;" version="1.1" viewBox="0 0 382 451" width="382px" zoomAndPan="magnify"><defs/><g><text fill="#000000" font-family="sans-serif" font-size="14" font-weight="bold" lengthAdjust="spacing" textLength="351" x="13.5" y="30.1074">System Sequence Diagram (SSD) - Alternative One</text><rect fill="#FFFFFF" height="188.7461" style="stroke:#181818;stroke-width:1.0;" width="10" x="45" y="151.8633"/><rect fill="#FFFFFF" height="31.291" style="stroke:#181818;stroke-width:1.0;" width="10" x="337" y="175.1543"/><rect fill="#FFFFFF" height="31.291" style="stroke:#181818;stroke-width:1.0;" width="10" x="337" y="237.7363"/><rect fill="#FFFFFF" height="31.291" style="stroke:#181818;stroke-width:1.0;" width="10" x="337" y="300.3184"/><line style="stroke:#181818;stroke-width:0.5;stroke-dasharray:5.0,5.0;" x1="50" x2="50" y1="141.8633" y2="349.6094"/><line style="stroke:#181818;stroke-width:0.5;stroke-dasharray:5.0,5.0;" x1="342" x2="342" y1="141.8633" y2="349.6094"/><text fill="#000000" font-family="sans-serif" font-size="14" lengthAdjust="spacing" textLength="84" x="5" y="119.7285">Green Space</text><text fill="#000000" font-family="sans-serif" font-size="14" lengthAdjust="spacing" textLength="56" x="19" y="138.3496">Manager</text><ellipse cx="50" cy="53.1211" fill="#E3E3E3" rx="8" ry="8" style="stroke:#181818;stroke-width:0.5;"/><path d="M50,61.1211 L50,88.1211 M37,69.1211 L63,69.1211 M50,88.1211 L37,103.1211 M50,88.1211 L63,103.1211 " fill="none" style="stroke:#181818;stroke-width:0.5;"/><text fill="#000000" font-family="sans-serif" font-size="14" lengthAdjust="spacing" textLength="84" x="5" y="363.7168">Green Space</text><text fill="#000000" font-family="sans-serif" font-size="14" lengthAdjust="spacing" textLength="56" x="19" y="382.3379">Manager</text><ellipse cx="50" cy="394.3516" fill="#E3E3E3" rx="8" ry="8" style="stroke:#181818;stroke-width:0.5;"/><path d="M50,402.3516 L50,429.3516 M37,410.3516 L63,410.3516 M50,429.3516 L37,444.3516 M50,429.3516 L63,444.3516 " fill="none" style="stroke:#181818;stroke-width:0.5;"/><rect fill="#E3E3E3" height="32.6211" rx="2.5" ry="2.5" style="stroke:#181818;stroke-width:0.5;" width="64" x="310" y="108.2422"/><text fill="#000000" font-family="sans-serif" font-size="14" lengthAdjust="spacing" textLength="50" x="317" y="130.3496">:System</text><rect fill="#E3E3E3" height="32.6211" rx="2.5" ry="2.5" style="stroke:#181818;stroke-width:0.5;" width="64" x="310" y="348.6094"/><text fill="#000000" font-family="sans-serif" font-size="14" lengthAdjust="spacing" textLength="50" x="317" y="370.7168">:System</text><rect fill="#FFFFFF" height="188.7461" style="stroke:#181818;stroke-width:1.0;" width="10" x="45" y="151.8633"/><rect fill="#FFFFFF" height="31.291" style="stroke:#181818;stroke-width:1.0;" width="10" x="337" y="175.1543"/><rect fill="#FFFFFF" height="31.291" style="stroke:#181818;stroke-width:1.0;" width="10" x="337" y="237.7363"/><rect fill="#FFFFFF" height="31.291" style="stroke:#181818;stroke-width:1.0;" width="10" x="337" y="300.3184"/><polygon fill="#181818" points="325,171.1543,335,175.1543,325,179.1543,329,175.1543" style="stroke:#181818;stroke-width:1.0;"/><line style="stroke:#181818;stroke-width:1.0;" x1="55" x2="331" y1="175.1543" y2="175.1543"/><text fill="#000000" font-family="sans-serif" font-size="13" font-weight="bold" lengthAdjust="spacing" textLength="7" x="62" y="169.8916">1</text><text fill="#000000" font-family="sans-serif" font-size="13" lengthAdjust="spacing" textLength="215" x="73" y="169.8916">Asks to cancel a entry in the Agenda</text><polygon fill="#181818" points="66,202.4453,56,206.4453,66,210.4453,62,206.4453" style="stroke:#181818;stroke-width:1.0;"/><line style="stroke:#181818;stroke-width:1.0;stroke-dasharray:2.0,2.0;" x1="60" x2="341" y1="206.4453" y2="206.4453"/><text fill="#000000" font-family="sans-serif" font-size="13" font-weight="bold" lengthAdjust="spacing" textLength="7" x="72" y="201.1826">2</text><text fill="#000000" font-family="sans-serif" font-size="13" lengthAdjust="spacing" textLength="247" x="83" y="201.1826">Shows list of existing entrys in the Agenda</text><polygon fill="#181818" points="325,233.7363,335,237.7363,325,241.7363,329,237.7363" style="stroke:#181818;stroke-width:1.0;"/><line style="stroke:#181818;stroke-width:1.0;" x1="55" x2="331" y1="237.7363" y2="237.7363"/><text fill="#000000" font-family="sans-serif" font-size="13" font-weight="bold" lengthAdjust="spacing" textLength="7" x="62" y="232.4736">3</text><text fill="#000000" font-family="sans-serif" font-size="13" lengthAdjust="spacing" textLength="88" x="73" y="232.4736">Selects a entry</text><polygon fill="#181818" points="66,265.0273,56,269.0273,66,273.0273,62,269.0273" style="stroke:#181818;stroke-width:1.0;"/><line style="stroke:#181818;stroke-width:1.0;stroke-dasharray:2.0,2.0;" x1="60" x2="341" y1="269.0273" y2="269.0273"/><text fill="#000000" font-family="sans-serif" font-size="13" font-weight="bold" lengthAdjust="spacing" textLength="7" x="72" y="263.7646">4</text><text fill="#000000" font-family="sans-serif" font-size="13" lengthAdjust="spacing" textLength="238" x="83" y="263.7646">Shows all data and requests confirmation</text><polygon fill="#181818" points="325,296.3184,335,300.3184,325,304.3184,329,300.3184" style="stroke:#181818;stroke-width:1.0;"/><line style="stroke:#181818;stroke-width:1.0;" x1="55" x2="331" y1="300.3184" y2="300.3184"/><text fill="#000000" font-family="sans-serif" font-size="13" font-weight="bold" lengthAdjust="spacing" textLength="7" x="62" y="295.0557">5</text><text fill="#000000" font-family="sans-serif" font-size="13" lengthAdjust="spacing" textLength="80" x="73" y="295.0557">Confirms data</text><polygon fill="#181818" points="66,327.6094,56,331.6094,66,335.6094,62,331.6094" style="stroke:#181818;stroke-width:1.0;"/><line style="stroke:#181818;stroke-width:1.0;stroke-dasharray:2.0,2.0;" x1="60" x2="341" y1="331.6094" y2="331.6094"/><text fill="#000000" font-family="sans-serif" font-size="13" font-weight="bold" lengthAdjust="spacing" textLength="7" x="72" y="326.3467">6</text><text fill="#000000" font-family="sans-serif" font-size="13" lengthAdjust="spacing" textLength="160" x="83" y="326.3467">Displays operation success</text><!--SRC=[dP4zJWD134RxFSMdL53a0YcG8YAbYYYcfJ6ppcQKMSyozWAvFSxcHmY58hYoPFlvoTPzae4gzUYBbBYhfMTO7RdHQsMWkAUEWnqoet8qaYx_RD0TjUKpIOSjPUMciMJU6Wvgt2Fm-yWI6Qj4tR7z8OJL8-POPkCgPEc3yI8-HgCL6Vithfv7AnMpTMKM15VWLzcGk4UTWHJhi6bykwMO1XB3R75QDnLFwGH97sGyTJVmy0JpfulQ0alTAwmWaXjc45Yi7f04jcCiEvQMfi4hwiB6ESwekLEFy0N2hdmgSb93sOA_F3cUPWBh3NBBDzc_JGDdFxrU5FybHJcZ9IEGjFv9_uiwCHRPfjhx8uhSO_HycjC9UQVFAkcGoUzH1gxJPkWO8wl-OV0D]--></g></svg>