<?xml version="1.0" encoding="us-ascii" standalone="no"?><svg xmlns="http://www.w3.org/2000/svg" xmlns:xlink="http://www.w3.org/1999/xlink" contentStyleType="text/css" height="605.5px" preserveAspectRatio="none" style="width:798px;height:605px;background:#FFFFFF;" version="1.1" viewBox="0 0 798 605" width="798.7px" zoomAndPan="magnify"><defs/><g><rect fill="#FFFFFF" height="469.5742" style="stroke:#181818;stroke-width:0.6999999999999998;" width="7" x="12.6" y="65.5348"/><rect fill="#FFFFFF" height="205.7645" style="stroke:#181818;stroke-width:0.6999999999999998;" width="7" x="293.3" y="81.8385"/><rect fill="#FFFFFF" height="43.8074" style="stroke:#181818;stroke-width:0.6999999999999998;" width="7" x="293.3" y="491.3016"/><rect fill="#FFFFFF" height="407.132" style="stroke:#181818;stroke-width:0.6999999999999998;" width="7" x="448.7" y="134.277"/><rect fill="#FFFFFF" height="45.4385" style="stroke:#181818;stroke-width:0.6999999999999998;" width="7" x="603.4" y="110.7422"/><rect fill="#FFFFFF" height="21" style="stroke:#181818;stroke-width:0.6999999999999998;" width="7" x="603.4" y="414.6215"/><rect fill="#FFFFFF" height="50.1074" style="stroke:#181818;stroke-width:0.6999999999999998;" width="7" x="603.4" y="491.3016"/><rect fill="#FFFFFF" height="21.9037" style="stroke:#181818;stroke-width:0.6999999999999998;" width="7" x="682.15" y="309.5066"/><rect fill="#FFFFFF" height="21.9037" style="stroke:#181818;stroke-width:0.6999999999999998;" width="7" x="757.05" y="353.3141"/><line style="stroke:#181818;stroke-width:0.3499999999999999;stroke-dasharray:5.0,5.0;" x1="16.1" x2="16.1" y1="58.5348" y2="547.709"/><line style="stroke:#181818;stroke-width:0.3499999999999999;stroke-dasharray:5.0,5.0;" x1="296.45" x2="296.45" y1="58.5348" y2="547.709"/><line style="stroke:#181818;stroke-width:0.3499999999999999;stroke-dasharray:5.0,5.0;" x1="451.85" x2="451.85" y1="109.7059" y2="547.709"/><line style="stroke:#181818;stroke-width:0.3499999999999999;stroke-dasharray:5.0,5.0;" x1="606.9" x2="606.9" y1="58.5348" y2="547.709"/><line style="stroke:#181818;stroke-width:0.3499999999999999;stroke-dasharray:5.0,5.0;" x1="685.3" x2="685.3" y1="58.5348" y2="547.709"/><line style="stroke:#181818;stroke-width:0.3499999999999999;stroke-dasharray:5.0,5.0;" x1="760.2" x2="760.2" y1="58.5348" y2="547.709"/><text fill="#000000" font-family="sans-serif" font-size="9.8" lengthAdjust="spacing" textLength="21" x="3.5" y="56.0752">HRM</text><ellipse cx="16.1" cy="9.45" fill="#E3E3E3" rx="5.6" ry="5.6" style="stroke:#181818;stroke-width:0.3499999999999999;"/><path d="M16.1,15.05 L16.1,33.95 M7,20.65 L25.2,20.65 M16.1,33.95 L7,44.45 M16.1,33.95 L25.2,44.45 " fill="none" style="stroke:#181818;stroke-width:0.3499999999999999;"/><text fill="#000000" font-family="sans-serif" font-size="9.8" lengthAdjust="spacing" textLength="21" x="3.5" y="557.5842">HRM</text><ellipse cx="16.1" cy="565.9937" fill="#E3E3E3" rx="5.6" ry="5.6" style="stroke:#181818;stroke-width:0.3499999999999999;"/><path d="M16.1,571.5937 L16.1,590.4937 M7,577.1937 L25.2,577.1937 M16.1,590.4937 L7,600.9937 M16.1,590.4937 L25.2,600.9937 " fill="none" style="stroke:#181818;stroke-width:0.3499999999999999;"/><rect fill="#E3E3E3" height="22.8348" rx="1.75" ry="1.75" style="stroke:#181818;stroke-width:0.3499999999999999;" width="73.5" x="260.05" y="35"/><text fill="#000000" font-family="sans-serif" font-size="9.8" lengthAdjust="spacing" textLength="63.7" x="264.95" y="50.4752">:RegisterJobUI</text><rect fill="#E3E3E3" height="22.8348" rx="1.75" ry="1.75" style="stroke:#181818;stroke-width:0.3499999999999999;" width="73.5" x="260.05" y="547.009"/><text fill="#000000" font-family="sans-serif" font-size="9.8" lengthAdjust="spacing" textLength="63.7" x="264.95" y="562.4842">:RegisterJobUI</text><rect fill="#E3E3E3" height="22.8348" rx="1.75" ry="1.75" style="stroke:#181818;stroke-width:0.3499999999999999;" width="108.5" x="397.95" y="547.009"/><text fill="#000000" font-family="sans-serif" font-size="9.8" lengthAdjust="spacing" textLength="98.7" x="402.85" y="562.4842">:RegisterJobController</text><rect fill="#E3E3E3" height="22.8348" rx="1.75" ry="1.75" style="stroke:#181818;stroke-width:0.3499999999999999;" width="75.6" x="569.1" y="35"/><text fill="#000000" font-family="sans-serif" font-size="9.8" lengthAdjust="spacing" textLength="65.8" x="574" y="50.4752">:JobRepository</text><rect fill="#E3E3E3" height="22.8348" rx="1.75" ry="1.75" style="stroke:#181818;stroke-width:0.3499999999999999;" width="75.6" x="569.1" y="547.009"/><text fill="#000000" font-family="sans-serif" font-size="9.8" lengthAdjust="spacing" textLength="65.8" x="574" y="562.4842">:JobRepository</text><rect fill="#E3E3E3" height="22.8348" rx="1.75" ry="1.75" style="stroke:#181818;stroke-width:0.3499999999999999;" width="67.9" x="651.7" y="35"/><text fill="#000000" font-family="sans-serif" font-size="9.8" lengthAdjust="spacing" textLength="58.1" x="656.6" y="50.4752">:Repositories</text><rect fill="#E3E3E3" height="22.8348" rx="1.75" ry="1.75" style="stroke:#181818;stroke-width:0.3499999999999999;" width="67.9" x="651.7" y="547.009"/><text fill="#000000" font-family="sans-serif" font-size="9.8" lengthAdjust="spacing" textLength="58.1" x="656.6" y="562.4842">:Repositories</text><rect fill="#E3E3E3" height="35.8695" rx="1.75" ry="1.75" style="stroke:#181818;stroke-width:0.3499999999999999;" width="67.9" x="726.6" y="21.9652"/><text fill="#000000" font-family="sans-serif" font-size="9.8" lengthAdjust="spacing" textLength="51.8" x="734.65" y="37.4404">repositories</text><text fill="#000000" font-family="sans-serif" font-size="9.8" lengthAdjust="spacing" textLength="58.1" x="731.5" y="50.4752">:Repositories</text><rect fill="#E3E3E3" height="35.8695" rx="1.75" ry="1.75" style="stroke:#181818;stroke-width:0.3499999999999999;" width="67.9" x="726.6" y="547.009"/><text fill="#000000" font-family="sans-serif" font-size="9.8" lengthAdjust="spacing" textLength="51.8" x="734.65" y="562.4842">repositories</text><text fill="#000000" font-family="sans-serif" font-size="9.8" lengthAdjust="spacing" textLength="58.1" x="731.5" y="575.5189">:Repositories</text><rect fill="#FFFFFF" height="469.5742" style="stroke:#181818;stroke-width:0.6999999999999998;" width="7" x="12.6" y="65.5348"/><rect fill="#FFFFFF" height="205.7645" style="stroke:#181818;stroke-width:0.6999999999999998;" width="7" x="293.3" y="81.8385"/><rect fill="#FFFFFF" height="43.8074" style="stroke:#181818;stroke-width:0.6999999999999998;" width="7" x="293.3" y="491.3016"/><rect fill="#FFFFFF" height="407.132" style="stroke:#181818;stroke-width:0.6999999999999998;" width="7" x="448.7" y="134.277"/><rect fill="#FFFFFF" height="45.4385" style="stroke:#181818;stroke-width:0.6999999999999998;" width="7" x="603.4" y="110.7422"/><rect fill="#FFFFFF" height="21" style="stroke:#181818;stroke-width:0.6999999999999998;" width="7" x="603.4" y="414.6215"/><rect fill="#FFFFFF" height="50.1074" style="stroke:#181818;stroke-width:0.6999999999999998;" width="7" x="603.4" y="491.3016"/><rect fill="#FFFFFF" height="21.9037" style="stroke:#181818;stroke-width:0.6999999999999998;" width="7" x="682.15" y="309.5066"/><rect fill="#FFFFFF" height="21.9037" style="stroke:#181818;stroke-width:0.6999999999999998;" width="7" x="757.05" y="353.3141"/><polygon fill="#181818" points="284.9,79.0385,291.9,81.8385,284.9,84.6385,287.7,81.8385" style="stroke:#181818;stroke-width:0.6999999999999998;"/><line style="stroke:#181818;stroke-width:0.6999999999999998;" x1="19.6" x2="289.1" y1="81.8385" y2="81.8385"/><text fill="#000000" font-family="sans-serif" font-size="9.1" font-weight="bold" lengthAdjust="spacing" textLength="4.9" x="24.5" y="78.1546">1</text><text fill="#000000" font-family="sans-serif" font-size="9.1" lengthAdjust="spacing" textLength="99.4" x="32.2" y="78.1546">asks to create a new job</text><polygon fill="#181818" points="389.55,100.9422,396.55,103.7422,389.55,106.5422,392.35,103.7422" style="stroke:#181818;stroke-width:0.6999999999999998;"/><line style="stroke:#181818;stroke-width:0.6999999999999998;" x1="300.3" x2="393.75" y1="103.7422" y2="103.7422"/><text fill="#000000" font-family="sans-serif" font-size="9.1" font-weight="bold" lengthAdjust="spacing" textLength="4.9" x="305.2" y="100.0583">2</text><text fill="#000000" font-family="sans-serif" font-size="9.1" lengthAdjust="spacing" textLength="25.2" x="312.9" y="100.0583">create</text><rect fill="#E3E3E3" height="22.8348" rx="1.75" ry="1.75" style="stroke:#181818;stroke-width:0.3499999999999999;" width="108.5" x="397.95" y="87.4385"/><text fill="#000000" font-family="sans-serif" font-size="9.8" lengthAdjust="spacing" textLength="98.7" x="402.85" y="102.9137">:RegisterJobController</text><polygon fill="#181818" points="595,131.477,602,134.277,595,137.077,597.8,134.277" style="stroke:#181818;stroke-width:0.6999999999999998;"/><line style="stroke:#181818;stroke-width:0.6999999999999998;" x1="455.7" x2="599.2" y1="134.277" y2="134.277"/><text fill="#000000" font-family="sans-serif" font-size="9.1" font-weight="bold" lengthAdjust="spacing" textLength="4.9" x="460.6" y="130.5931">3</text><text fill="#000000" font-family="sans-serif" font-size="9.1" lengthAdjust="spacing" textLength="70" x="468.3" y="130.5931">getJobRepository</text><polygon fill="#181818" points="463.4,153.3807,456.4,156.1807,463.4,158.9807,460.6,156.1807" style="stroke:#181818;stroke-width:0.6999999999999998;"/><line style="stroke:#181818;stroke-width:0.6999999999999998;" x1="459.2" x2="606.2" y1="156.1807" y2="156.1807"/><text fill="#000000" font-family="sans-serif" font-size="9.1" font-weight="bold" lengthAdjust="spacing" textLength="4.9" x="467.6" y="152.4968">4</text><text fill="#000000" font-family="sans-serif" font-size="9.1" lengthAdjust="spacing" textLength="55.3" x="475.3" y="152.4968">jobRepository</text><polygon fill="#181818" points="27.3,175.2844,20.3,178.0844,27.3,180.8844,24.5,178.0844" style="stroke:#181818;stroke-width:0.6999999999999998;"/><line style="stroke:#181818;stroke-width:0.6999999999999998;stroke-dasharray:2.0,2.0;" x1="23.1" x2="292.6" y1="178.0844" y2="178.0844"/><text fill="#000000" font-family="sans-serif" font-size="9.1" font-weight="bold" lengthAdjust="spacing" textLength="4.9" x="31.5" y="174.4005">5</text><text fill="#000000" font-family="sans-serif" font-size="9.1" lengthAdjust="spacing" textLength="249.2" x="39.2" y="174.4005">shows all jobs category existing to date or asks to create one</text><polygon fill="#181818" points="284.9,197.1881,291.9,199.9881,284.9,202.7881,287.7,199.9881" style="stroke:#181818;stroke-width:0.6999999999999998;"/><line style="stroke:#181818;stroke-width:0.6999999999999998;stroke-dasharray:2.0,2.0;" x1="19.6" x2="289.1" y1="199.9881" y2="199.9881"/><text fill="#000000" font-family="sans-serif" font-size="9.1" font-weight="bold" lengthAdjust="spacing" textLength="4.9" x="24.5" y="196.3042">6</text><text fill="#000000" font-family="sans-serif" font-size="9.1" lengthAdjust="spacing" textLength="69.3" x="32.2" y="196.3042">selects an option</text><polygon fill="#181818" points="27.3,219.0918,20.3,221.8918,27.3,224.6918,24.5,221.8918" style="stroke:#181818;stroke-width:0.6999999999999998;"/><line style="stroke:#181818;stroke-width:0.6999999999999998;stroke-dasharray:2.0,2.0;" x1="23.1" x2="292.6" y1="221.8918" y2="221.8918"/><text fill="#000000" font-family="sans-serif" font-size="9.1" font-weight="bold" lengthAdjust="spacing" textLength="4.9" x="31.5" y="218.2079">7</text><text fill="#000000" font-family="sans-serif" font-size="9.1" lengthAdjust="spacing" textLength="135.8" x="39.2" y="218.2079">requests data (name, description)</text><polygon fill="#181818" points="284.9,240.9955,291.9,243.7955,284.9,246.5955,287.7,243.7955" style="stroke:#181818;stroke-width:0.6999999999999998;"/><line style="stroke:#181818;stroke-width:0.6999999999999998;" x1="19.6" x2="289.1" y1="243.7955" y2="243.7955"/><text fill="#000000" font-family="sans-serif" font-size="9.1" font-weight="bold" lengthAdjust="spacing" textLength="4.9" x="24.5" y="240.1116">8</text><text fill="#000000" font-family="sans-serif" font-size="9.1" lengthAdjust="spacing" textLength="165.9" x="32.2" y="240.1116">types requested data (name, description)</text><polygon fill="#181818" points="284.9,262.8992,291.9,265.6992,284.9,268.4992,287.7,265.6992" style="stroke:#181818;stroke-width:0.6999999999999998;"/><line style="stroke:#181818;stroke-width:0.6999999999999998;" x1="19.6" x2="289.1" y1="265.6992" y2="265.6992"/><text fill="#000000" font-family="sans-serif" font-size="9.1" font-weight="bold" lengthAdjust="spacing" textLength="4.9" x="24.5" y="262.0153">9</text><text fill="#000000" font-family="sans-serif" font-size="9.1" lengthAdjust="spacing" textLength="52.5" x="32.2" y="262.0153">submits data</text><polygon fill="#181818" points="440.3,284.8029,447.3,287.6029,440.3,290.4029,443.1,287.6029" style="stroke:#181818;stroke-width:0.6999999999999998;"/><line style="stroke:#181818;stroke-width:0.6999999999999998;" x1="296.8" x2="444.5" y1="287.6029" y2="287.6029"/><text fill="#000000" font-family="sans-serif" font-size="9.1" font-weight="bold" lengthAdjust="spacing" textLength="9.8" x="301.7" y="283.919">10</text><text fill="#000000" font-family="sans-serif" font-size="9.1" lengthAdjust="spacing" textLength="119" x="314.3" y="283.919">registerJob(name,description)</text><polygon fill="#181818" points="673.75,306.7066,680.75,309.5066,673.75,312.3066,676.55,309.5066" style="stroke:#181818;stroke-width:0.6999999999999998;"/><line style="stroke:#181818;stroke-width:0.6999999999999998;" x1="455.7" x2="677.95" y1="309.5066" y2="309.5066"/><text fill="#000000" font-family="sans-serif" font-size="9.1" font-weight="bold" lengthAdjust="spacing" textLength="9.8" x="460.6" y="305.8228">11</text><text fill="#000000" font-family="sans-serif" font-size="9.1" lengthAdjust="spacing" textLength="52.5" x="473.2" y="305.8228">getInstance()</text><polygon fill="#181818" points="463.4,328.6104,456.4,331.4104,463.4,334.2104,460.6,331.4104" style="stroke:#181818;stroke-width:0.6999999999999998;"/><line style="stroke:#181818;stroke-width:0.6999999999999998;stroke-dasharray:2.0,2.0;" x1="459.2" x2="684.95" y1="331.4104" y2="331.4104"/><text fill="#000000" font-family="sans-serif" font-size="9.1" font-weight="bold" lengthAdjust="spacing" textLength="9.8" x="467.6" y="327.7265">12</text><text fill="#000000" font-family="sans-serif" font-size="9.1" lengthAdjust="spacing" textLength="46.9" x="480.2" y="327.7265">repositories</text><polygon fill="#181818" points="748.65,350.5141,755.65,353.3141,748.65,356.1141,751.45,353.3141" style="stroke:#181818;stroke-width:0.6999999999999998;"/><line style="stroke:#181818;stroke-width:0.6999999999999998;" x1="455.7" x2="752.85" y1="353.3141" y2="353.3141"/><text fill="#000000" font-family="sans-serif" font-size="9.1" font-weight="bold" lengthAdjust="spacing" textLength="9.8" x="460.6" y="349.6302">13</text><text fill="#000000" font-family="sans-serif" font-size="9.1" lengthAdjust="spacing" textLength="75.6" x="473.2" y="349.6302">getJobRepository()</text><polygon fill="#181818" points="463.4,372.4178,456.4,375.2178,463.4,378.0178,460.6,375.2178" style="stroke:#181818;stroke-width:0.6999999999999998;"/><line style="stroke:#181818;stroke-width:0.6999999999999998;stroke-dasharray:2.0,2.0;" x1="459.2" x2="759.85" y1="375.2178" y2="375.2178"/><text fill="#000000" font-family="sans-serif" font-size="9.1" font-weight="bold" lengthAdjust="spacing" textLength="9.8" x="467.6" y="371.5339">14</text><text fill="#000000" font-family="sans-serif" font-size="9.1" lengthAdjust="spacing" textLength="55.3" x="480.2" y="371.5339">jobRepository</text><polygon fill="#181818" points="595,411.8215,602,414.6215,595,417.4215,597.8,414.6215" style="stroke:#181818;stroke-width:0.6999999999999998;"/><line style="stroke:#181818;stroke-width:0.6999999999999998;" x1="455.7" x2="599.2" y1="414.6215" y2="414.6215"/><text fill="#000000" font-family="sans-serif" font-size="9.1" font-weight="bold" lengthAdjust="spacing" textLength="9.8" x="460.6" y="410.9376">15</text><text fill="#000000" font-family="sans-serif" font-size="9.1" lengthAdjust="spacing" textLength="121.8" x="473.2" y="410.9376">registerJob(name, description)</text><rect fill="none" height="30.2764" style="stroke:#000000;stroke-width:1.0499999999999998;" width="79.8" x="567" y="441.2215"/><path d="M567,441.2215 L610.4,441.2215 L610.4,447.5215 L603.4,454.5215 L567,454.5215 L567,441.2215 " fill="#EEEEEE" style="stroke:#000000;stroke-width:1.3999999999999997;"/><text fill="#000000" font-family="sans-serif" font-size="9.1" font-weight="bold" lengthAdjust="spacing" textLength="11.9" x="576.1" y="452.4413">ref</text><text fill="#000000" font-family="sans-serif" font-size="8.4" lengthAdjust="spacing" textLength="49" x="582.4" y="466.3859">Register Job</text><polygon fill="#181818" points="463.4,488.5016,456.4,491.3016,463.4,494.1016,460.6,491.3016" style="stroke:#181818;stroke-width:0.6999999999999998;"/><line style="stroke:#181818;stroke-width:0.6999999999999998;stroke-dasharray:2.0,2.0;" x1="459.2" x2="602.7" y1="491.3016" y2="491.3016"/><text fill="#000000" font-family="sans-serif" font-size="9.1" font-weight="bold" lengthAdjust="spacing" textLength="9.8" x="467.6" y="487.6177">16</text><text fill="#000000" font-family="sans-serif" font-size="9.1" lengthAdjust="spacing" textLength="11.9" x="480.2" y="487.6177">job</text><polygon fill="#181818" points="308,510.4053,301,513.2053,308,516.0053,305.2,513.2053" style="stroke:#181818;stroke-width:0.6999999999999998;"/><line style="stroke:#181818;stroke-width:0.6999999999999998;stroke-dasharray:2.0,2.0;" x1="303.8" x2="448" y1="513.2053" y2="513.2053"/><text fill="#000000" font-family="sans-serif" font-size="9.1" font-weight="bold" lengthAdjust="spacing" textLength="9.8" x="312.2" y="509.5214">17</text><text fill="#000000" font-family="sans-serif" font-size="9.1" lengthAdjust="spacing" textLength="11.9" x="324.8" y="509.5214">job</text><polygon fill="#181818" points="23.8,532.309,16.8,535.109,23.8,537.909,21,535.109" style="stroke:#181818;stroke-width:0.6999999999999998;"/><line style="stroke:#181818;stroke-width:0.6999999999999998;stroke-dasharray:2.0,2.0;" x1="19.6" x2="296.1" y1="535.109" y2="535.109"/><text fill="#000000" font-family="sans-serif" font-size="9.1" font-weight="bold" lengthAdjust="spacing" textLength="9.8" x="28" y="531.4251">18</text><text fill="#000000" font-family="sans-serif" font-size="9.1" lengthAdjust="spacing" textLength="110.6" x="40.6" y="531.4251">displays operation success</text><!--SRC=[dLJ1Rjim3BthAuXSrXRh3-GmO2i6D4M75MvxsqMH6KUDBNcYt3H0FdwKx3YsN7V3T0aiFZu-Ke-XdJQrTBA2oXghjivM2DurAAYFr5BjP86F_b0YE5HUcg8S0cWhSxlNfe2DB0c54BBnrZJL6fqGdxOwHzXOwzVsZKFAMmUBs-p70YG1_mfcyLhfMXeFYsM6XIQFxiwkdrSHyxoQXznOuvqjItGHUlEKtITW1cLOMz9Szn11Tp-_FKuOEuH6YfZi-yCOuWQ8NsQQy73_zIbsfr-bnzYNWExm1rn_uJvWoT0TWRUW70QS18DxUB7hCxhduBxxot2wbDZZy9vvcJrSNrrnXHOsJkqvO-_3I4WBwI70oGNwqS1cQ2OQOdgdWcbUHXn3uEWZntbXanQPFGnooNwpUm9Pbg4CWUBqWii0lh4hWWrvl7dWPACbuxOc6KnycjFR49PiRwOsO6klhH7p8Xp-Rf0Op9KaN1XPuMVkXvJJCVMIrq2aZ-yFDT8f5VEFSjDKQjQLxigTPPsVFahgrwBb757-xG7ORP2SapTu6Lfhh0pnzYkyk9nWUvwmEPDeE87bkbCRn9uNQ08Vo0fqQNXMQ5Z2gOTPxRpSTc_JSBWTY9stSw9soZRwE1wFiyltplibdlYtXNQu0VkARXg9Zz3L02uo2gB9G-h_hMUx_SDnVI3s_L1YltOoqVmjdvZRnINackfI7eYN5fqCm-9jKGgfDTROusBm6Vwa_m00]--></g></svg>