<?xml version="1.0" encoding="us-ascii" standalone="no"?><svg xmlns="http://www.w3.org/2000/svg" xmlns:xlink="http://www.w3.org/1999/xlink" contentStyleType="text/css" height="770px" preserveAspectRatio="none" style="width:863px;height:769px;background:#FFFFFF;" version="1.1" viewBox="0 0 863 769" width="863.8px" zoomAndPan="magnify"><defs/><g><rect fill="#FFFFFF" height="623.6822" style="stroke:#181818;stroke-width:0.6999999999999998;" width="7" x="33.25" y="81.8385"/><rect fill="#FFFFFF" height="417.9178" style="stroke:#181818;stroke-width:0.6999999999999998;" width="7" x="36.75" y="287.6029"/><rect fill="#FFFFFF" height="389.7141" style="stroke:#181818;stroke-width:0.6999999999999998;" width="7" x="40.25" y="309.5066"/><rect fill="#FFFFFF" height="483.6289" style="stroke:#181818;stroke-width:0.6999999999999998;" width="7" x="230.65" y="221.8918"/><rect fill="#FFFFFF" height="43.8074" style="stroke:#181818;stroke-width:0.6999999999999998;" width="7" x="234.15" y="331.4104"/><rect fill="#FFFFFF" height="257.0955" style="stroke:#181818;stroke-width:0.6999999999999998;" width="7" x="234.15" y="420.2215"/><rect fill="#FFFFFF" height="21.9037" style="stroke:#181818;stroke-width:0.6999999999999998;" width="7" x="372.75" y="243.7955"/><rect fill="#FFFFFF" height="21.9037" style="stroke:#181818;stroke-width:0.6999999999999998;" width="7" x="372.75" y="353.3141"/><rect fill="#FFFFFF" height="21.9037" style="stroke:#181818;stroke-width:0.6999999999999998;" width="7" x="447.65" y="445.6252"/><rect fill="#FFFFFF" height="633.6859" style="stroke:#181818;stroke-width:0.6999999999999998;" width="7" x="622.3" y="65.5348"/><rect fill="#FFFFFF" height="148.4807" style="stroke:#181818;stroke-width:0.6999999999999998;" width="7" x="625.8" y="506.9326"/><rect fill="#FFFFFF" height="50.6037" style="stroke:#181818;stroke-width:0.6999999999999998;" width="7" x="629.3" y="578.0059"/><rect fill="#FFFFFF" height="19.6" style="stroke:#181818;stroke-width:0.6999999999999998;" width="7" x="632.8" y="609.0096"/><line style="stroke:#181818;stroke-width:0.3499999999999999;stroke-dasharray:5.0,5.0;" x1="36.4" x2="36.4" y1="58.5348" y2="711.8207"/><line style="stroke:#181818;stroke-width:0.3499999999999999;stroke-dasharray:5.0,5.0;" x1="233.8" x2="233.8" y1="109.7059" y2="711.8207"/><line style="stroke:#181818;stroke-width:0.3499999999999999;stroke-dasharray:5.0,5.0;" x1="375.9" x2="375.9" y1="58.5348" y2="711.8207"/><line style="stroke:#181818;stroke-width:0.3499999999999999;stroke-dasharray:5.0,5.0;" x1="450.8" x2="450.8" y1="58.5348" y2="711.8207"/><line style="stroke:#181818;stroke-width:0.3499999999999999;stroke-dasharray:5.0,5.0;" x1="548.8" x2="548.8" y1="58.5348" y2="711.8207"/><line style="stroke:#181818;stroke-width:0.3499999999999999;stroke-dasharray:5.0,5.0;" x1="625.8" x2="625.8" y1="58.5348" y2="711.8207"/><line style="stroke:#181818;stroke-width:0.3499999999999999;stroke-dasharray:5.0,5.0;" x1="845.6" x2="845.6" y1="541.3174" y2="711.8207"/><rect fill="#E3E3E3" height="22.8348" rx="1.75" ry="1.75" style="stroke:#181818;stroke-width:0.3499999999999999;" width="66.5" x="3.5" y="35"/><text fill="#000000" font-family="sans-serif" font-size="9.8" lengthAdjust="spacing" textLength="56.7" x="8.4" y="50.4752">:CreateJobUI</text><rect fill="#E3E3E3" height="22.8348" rx="1.75" ry="1.75" style="stroke:#181818;stroke-width:0.3499999999999999;" width="66.5" x="3.5" y="711.1207"/><text fill="#000000" font-family="sans-serif" font-size="9.8" lengthAdjust="spacing" textLength="56.7" x="8.4" y="726.5959">:CreateJobUI</text><rect fill="#E3E3E3" height="22.8348" rx="1.75" ry="1.75" style="stroke:#181818;stroke-width:0.3499999999999999;" width="101.5" x="183.4" y="711.1207"/><text fill="#000000" font-family="sans-serif" font-size="9.8" lengthAdjust="spacing" textLength="91.7" x="188.3" y="726.5959">:CreateJobController</text><rect fill="#E3E3E3" height="22.8348" rx="1.75" ry="1.75" style="stroke:#181818;stroke-width:0.3499999999999999;" width="67.9" x="342.3" y="35"/><text fill="#000000" font-family="sans-serif" font-size="9.8" lengthAdjust="spacing" textLength="58.1" x="347.2" y="50.4752">:Repositories</text><rect fill="#E3E3E3" height="22.8348" rx="1.75" ry="1.75" style="stroke:#181818;stroke-width:0.3499999999999999;" width="67.9" x="342.3" y="711.1207"/><text fill="#000000" font-family="sans-serif" font-size="9.8" lengthAdjust="spacing" textLength="58.1" x="347.2" y="726.5959">:Repositories</text><rect fill="#E3E3E3" height="35.8695" rx="1.75" ry="1.75" style="stroke:#181818;stroke-width:0.3499999999999999;" width="67.9" x="417.2" y="21.9652"/><text fill="#000000" font-family="sans-serif" font-size="9.8" lengthAdjust="spacing" textLength="51.8" x="425.25" y="37.4404">repositories</text><text fill="#000000" font-family="sans-serif" font-size="9.8" lengthAdjust="spacing" textLength="58.1" x="422.1" y="50.4752">:Repositories</text><rect fill="#E3E3E3" height="35.8695" rx="1.75" ry="1.75" style="stroke:#181818;stroke-width:0.3499999999999999;" width="67.9" x="417.2" y="711.1207"/><text fill="#000000" font-family="sans-serif" font-size="9.8" lengthAdjust="spacing" textLength="51.8" x="425.25" y="726.5959">repositories</text><text fill="#000000" font-family="sans-serif" font-size="9.8" lengthAdjust="spacing" textLength="58.1" x="422.1" y="739.6307">:Repositories</text><rect fill="#E3E3E3" height="35.8695" rx="1.75" ry="1.75" style="stroke:#181818;stroke-width:0.3499999999999999;" width="114.1" x="492.1" y="21.9652"/><text fill="#000000" font-family="sans-serif" font-size="9.8" lengthAdjust="spacing" textLength="104.3" x="497" y="37.4404">organizationRepository:</text><text fill="#000000" font-family="sans-serif" font-size="9.8" lengthAdjust="spacing" textLength="103.6" x="497.35" y="50.4752">OrganizationRepository</text><rect fill="#E3E3E3" height="35.8695" rx="1.75" ry="1.75" style="stroke:#181818;stroke-width:0.3499999999999999;" width="114.1" x="492.1" y="711.1207"/><text fill="#000000" font-family="sans-serif" font-size="9.8" lengthAdjust="spacing" textLength="104.3" x="497" y="726.5959">organizationRepository:</text><text fill="#000000" font-family="sans-serif" font-size="9.8" lengthAdjust="spacing" textLength="103.6" x="497.35" y="739.6307">OrganizationRepository</text><text fill="#000000" font-family="sans-serif" font-size="9.8" lengthAdjust="spacing" textLength="21" x="613.2" y="56.0752">HRM</text><ellipse cx="625.8" cy="9.45" fill="#E3E3E3" rx="5.6" ry="5.6" style="stroke:#181818;stroke-width:0.3499999999999999;"/><path d="M625.8,15.05 L625.8,33.95 M616.7,20.65 L634.9,20.65 M625.8,33.95 L616.7,44.45 M625.8,33.95 L634.9,44.45 " fill="none" style="stroke:#181818;stroke-width:0.3499999999999999;"/><text fill="#000000" font-family="sans-serif" font-size="9.8" lengthAdjust="spacing" textLength="21" x="613.2" y="721.6959">HRM</text><ellipse cx="625.8" cy="730.1055" fill="#E3E3E3" rx="5.6" ry="5.6" style="stroke:#181818;stroke-width:0.3499999999999999;"/><path d="M625.8,735.7055 L625.8,754.6055 M616.7,741.3055 L634.9,741.3055 M625.8,754.6055 L616.7,765.1055 M625.8,754.6055 L634.9,765.1055 " fill="none" style="stroke:#181818;stroke-width:0.3499999999999999;"/><rect fill="#E3E3E3" height="35.8695" rx="1.75" ry="1.75" style="stroke:#181818;stroke-width:0.3499999999999999;" width="28" x="831.6" y="711.1207"/><text fill="#000000" font-family="sans-serif" font-size="9.8" lengthAdjust="spacing" textLength="13.3" x="838.95" y="726.5959">job</text><text fill="#000000" font-family="sans-serif" font-size="9.8" lengthAdjust="spacing" textLength="18.2" x="836.5" y="739.6307">:Job</text><rect fill="#FFFFFF" height="623.6822" style="stroke:#181818;stroke-width:0.6999999999999998;" width="7" x="33.25" y="81.8385"/><rect fill="#FFFFFF" height="417.9178" style="stroke:#181818;stroke-width:0.6999999999999998;" width="7" x="36.75" y="287.6029"/><rect fill="#FFFFFF" height="389.7141" style="stroke:#181818;stroke-width:0.6999999999999998;" width="7" x="40.25" y="309.5066"/><rect fill="#FFFFFF" height="483.6289" style="stroke:#181818;stroke-width:0.6999999999999998;" width="7" x="230.65" y="221.8918"/><rect fill="#FFFFFF" height="43.8074" style="stroke:#181818;stroke-width:0.6999999999999998;" width="7" x="234.15" y="331.4104"/><rect fill="#FFFFFF" height="257.0955" style="stroke:#181818;stroke-width:0.6999999999999998;" width="7" x="234.15" y="420.2215"/><rect fill="#FFFFFF" height="21.9037" style="stroke:#181818;stroke-width:0.6999999999999998;" width="7" x="372.75" y="243.7955"/><rect fill="#FFFFFF" height="21.9037" style="stroke:#181818;stroke-width:0.6999999999999998;" width="7" x="372.75" y="353.3141"/><rect fill="#FFFFFF" height="21.9037" style="stroke:#181818;stroke-width:0.6999999999999998;" width="7" x="447.65" y="445.6252"/><rect fill="#FFFFFF" height="633.6859" style="stroke:#181818;stroke-width:0.6999999999999998;" width="7" x="622.3" y="65.5348"/><rect fill="#FFFFFF" height="148.4807" style="stroke:#181818;stroke-width:0.6999999999999998;" width="7" x="625.8" y="506.9326"/><rect fill="#FFFFFF" height="50.6037" style="stroke:#181818;stroke-width:0.6999999999999998;" width="7" x="629.3" y="578.0059"/><rect fill="#FFFFFF" height="19.6" style="stroke:#181818;stroke-width:0.6999999999999998;" width="7" x="632.8" y="609.0096"/><polygon fill="#181818" points="47.95,79.0385,40.95,81.8385,47.95,84.6385,45.15,81.8385" style="stroke:#181818;stroke-width:0.6999999999999998;"/><line style="stroke:#181818;stroke-width:0.6999999999999998;" x1="43.75" x2="621.6" y1="81.8385" y2="81.8385"/><text fill="#000000" font-family="sans-serif" font-size="9.1" font-weight="bold" lengthAdjust="spacing" textLength="4.9" x="52.15" y="78.1546">1</text><text fill="#000000" font-family="sans-serif" font-size="9.1" lengthAdjust="spacing" textLength="99.4" x="59.85" y="78.1546">asks to create a new job</text><polygon fill="#181818" points="175,100.9422,182,103.7422,175,106.5422,177.8,103.7422" style="stroke:#181818;stroke-width:0.6999999999999998;"/><line style="stroke:#181818;stroke-width:0.6999999999999998;" x1="40.25" x2="179.2" y1="103.7422" y2="103.7422"/><text fill="#000000" font-family="sans-serif" font-size="9.1" font-weight="bold" lengthAdjust="spacing" textLength="4.9" x="45.15" y="100.0583">2</text><text fill="#000000" font-family="sans-serif" font-size="9.1" lengthAdjust="spacing" textLength="25.2" x="52.85" y="100.0583">create</text><rect fill="#E3E3E3" height="22.8348" rx="1.75" ry="1.75" style="stroke:#181818;stroke-width:0.3499999999999999;" width="101.5" x="183.4" y="87.4385"/><text fill="#000000" font-family="sans-serif" font-size="9.8" lengthAdjust="spacing" textLength="91.7" x="188.3" y="102.9137">:CreateJobController</text><polygon fill="#181818" points="225.75,131.477,232.75,134.277,225.75,137.077,228.55,134.277" style="stroke:#181818;stroke-width:0.6999999999999998;"/><line style="stroke:#181818;stroke-width:0.6999999999999998;" x1="40.25" x2="229.95" y1="134.277" y2="134.277"/><text fill="#000000" font-family="sans-serif" font-size="9.1" font-weight="bold" lengthAdjust="spacing" textLength="4.9" x="45.15" y="130.5931">3</text><text fill="#000000" font-family="sans-serif" font-size="9.1" lengthAdjust="spacing" textLength="41.3" x="52.85" y="130.5931">getJobList</text><polygon fill="#181818" points="47.95,153.3807,40.95,156.1807,47.95,158.9807,45.15,156.1807" style="stroke:#181818;stroke-width:0.6999999999999998;"/><line style="stroke:#181818;stroke-width:0.6999999999999998;" x1="43.75" x2="233.45" y1="156.1807" y2="156.1807"/><text fill="#000000" font-family="sans-serif" font-size="9.1" font-weight="bold" lengthAdjust="spacing" textLength="4.9" x="52.15" y="152.4968">4</text><text fill="#000000" font-family="sans-serif" font-size="9.1" lengthAdjust="spacing" textLength="26.6" x="59.85" y="152.4968">jobList</text><polygon fill="#181818" points="613.9,175.2844,620.9,178.0844,613.9,180.8844,616.7,178.0844" style="stroke:#181818;stroke-width:0.6999999999999998;"/><line style="stroke:#181818;stroke-width:0.6999999999999998;stroke-dasharray:2.0,2.0;" x1="40.25" x2="618.1" y1="178.0844" y2="178.0844"/><text fill="#000000" font-family="sans-serif" font-size="9.1" font-weight="bold" lengthAdjust="spacing" textLength="4.9" x="45.15" y="174.4005">5</text><text fill="#000000" font-family="sans-serif" font-size="9.1" lengthAdjust="spacing" textLength="249.2" x="52.85" y="174.4005">shows all jobs category existing to date or asks to create one</text><polygon fill="#181818" points="47.95,197.1881,40.95,199.9881,47.95,202.7881,45.15,199.9881" style="stroke:#181818;stroke-width:0.6999999999999998;"/><line style="stroke:#181818;stroke-width:0.6999999999999998;stroke-dasharray:2.0,2.0;" x1="43.75" x2="621.6" y1="199.9881" y2="199.9881"/><text fill="#000000" font-family="sans-serif" font-size="9.1" font-weight="bold" lengthAdjust="spacing" textLength="4.9" x="52.15" y="196.3042">6</text><text fill="#000000" font-family="sans-serif" font-size="9.1" lengthAdjust="spacing" textLength="69.3" x="59.85" y="196.3042">selects an option</text><polygon fill="#181818" points="613.9,219.0918,620.9,221.8918,613.9,224.6918,616.7,221.8918" style="stroke:#181818;stroke-width:0.6999999999999998;"/><line style="stroke:#181818;stroke-width:0.6999999999999998;stroke-dasharray:2.0,2.0;" x1="40.25" x2="618.1" y1="221.8918" y2="221.8918"/><text fill="#000000" font-family="sans-serif" font-size="9.1" font-weight="bold" lengthAdjust="spacing" textLength="4.9" x="45.15" y="218.2079">7</text><text fill="#000000" font-family="sans-serif" font-size="9.1" lengthAdjust="spacing" textLength="135.8" x="52.85" y="218.2079">requests data (name, description)</text><polygon fill="#181818" points="364.35,240.9955,371.35,243.7955,364.35,246.5955,367.15,243.7955" style="stroke:#181818;stroke-width:0.6999999999999998;"/><line style="stroke:#181818;stroke-width:0.6999999999999998;" x1="237.65" x2="368.55" y1="243.7955" y2="243.7955"/><text fill="#000000" font-family="sans-serif" font-size="9.1" font-weight="bold" lengthAdjust="spacing" textLength="4.9" x="242.55" y="240.1116">8</text><text fill="#000000" font-family="sans-serif" font-size="9.1" lengthAdjust="spacing" textLength="52.5" x="250.25" y="240.1116">getInstance()</text><polygon fill="#181818" points="245.35,262.8992,238.35,265.6992,245.35,268.4992,242.55,265.6992" style="stroke:#181818;stroke-width:0.6999999999999998;"/><line style="stroke:#181818;stroke-width:0.6999999999999998;stroke-dasharray:2.0,2.0;" x1="241.15" x2="375.55" y1="265.6992" y2="265.6992"/><text fill="#000000" font-family="sans-serif" font-size="9.1" font-weight="bold" lengthAdjust="spacing" textLength="4.9" x="249.55" y="262.0153">9</text><text fill="#000000" font-family="sans-serif" font-size="9.1" lengthAdjust="spacing" textLength="46.9" x="257.25" y="262.0153">repositories</text><polygon fill="#181818" points="51.45,284.8029,44.45,287.6029,51.45,290.4029,48.65,287.6029" style="stroke:#181818;stroke-width:0.6999999999999998;"/><line style="stroke:#181818;stroke-width:0.6999999999999998;" x1="47.25" x2="621.6" y1="287.6029" y2="287.6029"/><text fill="#000000" font-family="sans-serif" font-size="9.1" font-weight="bold" lengthAdjust="spacing" textLength="9.8" x="55.65" y="283.919">10</text><text fill="#000000" font-family="sans-serif" font-size="9.1" lengthAdjust="spacing" textLength="165.9" x="68.25" y="283.919">types requested data (name, description)</text><polygon fill="#181818" points="54.95,306.7066,47.95,309.5066,54.95,312.3066,52.15,309.5066" style="stroke:#181818;stroke-width:0.6999999999999998;"/><line style="stroke:#181818;stroke-width:0.6999999999999998;" x1="50.75" x2="621.6" y1="309.5066" y2="309.5066"/><text fill="#000000" font-family="sans-serif" font-size="9.1" font-weight="bold" lengthAdjust="spacing" textLength="9.8" x="59.15" y="305.8228">11</text><text fill="#000000" font-family="sans-serif" font-size="9.1" lengthAdjust="spacing" textLength="52.5" x="71.75" y="305.8228">submits data</text><polygon fill="#181818" points="225.75,328.6104,232.75,331.4104,225.75,334.2104,228.55,331.4104" style="stroke:#181818;stroke-width:0.6999999999999998;"/><line style="stroke:#181818;stroke-width:0.6999999999999998;" x1="47.25" x2="229.95" y1="331.4104" y2="331.4104"/><text fill="#000000" font-family="sans-serif" font-size="9.1" font-weight="bold" lengthAdjust="spacing" textLength="9.8" x="52.15" y="327.7265">12</text><text fill="#000000" font-family="sans-serif" font-size="9.1" lengthAdjust="spacing" textLength="154" x="64.75" y="327.7265">createJob(name,description,reference)</text><polygon fill="#181818" points="364.35,350.5141,371.35,353.3141,364.35,356.1141,367.15,353.3141" style="stroke:#181818;stroke-width:0.6999999999999998;"/><line style="stroke:#181818;stroke-width:0.6999999999999998;" x1="241.15" x2="368.55" y1="353.3141" y2="353.3141"/><text fill="#000000" font-family="sans-serif" font-size="9.1" font-weight="bold" lengthAdjust="spacing" textLength="9.8" x="246.05" y="349.6302">13</text><text fill="#000000" font-family="sans-serif" font-size="9.1" lengthAdjust="spacing" textLength="52.5" x="258.65" y="349.6302">getInstance()</text><polygon fill="#181818" points="245.35,372.4178,238.35,375.2178,245.35,378.0178,242.55,375.2178" style="stroke:#181818;stroke-width:0.6999999999999998;"/><line style="stroke:#181818;stroke-width:0.6999999999999998;stroke-dasharray:2.0,2.0;" x1="241.15" x2="375.55" y1="375.2178" y2="375.2178"/><text fill="#000000" font-family="sans-serif" font-size="9.1" font-weight="bold" lengthAdjust="spacing" textLength="9.8" x="249.55" y="371.5339">14</text><text fill="#000000" font-family="sans-serif" font-size="9.1" lengthAdjust="spacing" textLength="46.9" x="262.15" y="371.5339">repositories</text><line style="stroke:#181818;stroke-width:0.6999999999999998;" x1="237.65" x2="270.55" y1="411.1215" y2="411.1215"/><line style="stroke:#181818;stroke-width:0.6999999999999998;" x1="270.55" x2="270.55" y1="411.1215" y2="420.2215"/><line style="stroke:#181818;stroke-width:0.6999999999999998;" x1="241.85" x2="270.55" y1="420.2215" y2="420.2215"/><polygon fill="#181818" points="248.85,417.4215,241.85,420.2215,248.85,423.0215,246.05,420.2215" style="stroke:#181818;stroke-width:0.6999999999999998;"/><text fill="#000000" font-family="sans-serif" font-size="9.1" font-weight="bold" lengthAdjust="spacing" textLength="9.8" x="246.05" y="407.4376">15</text><text fill="#000000" font-family="sans-serif" font-size="9.1" lengthAdjust="spacing" textLength="112.7" x="258.65" y="407.4376">getEmployeeFromSession()</text><polygon fill="#181818" points="439.25,442.8252,446.25,445.6252,439.25,448.4252,442.05,445.6252" style="stroke:#181818;stroke-width:0.6999999999999998;"/><line style="stroke:#181818;stroke-width:0.6999999999999998;" x1="241.15" x2="443.45" y1="445.6252" y2="445.6252"/><text fill="#000000" font-family="sans-serif" font-size="9.1" font-weight="bold" lengthAdjust="spacing" textLength="9.8" x="246.05" y="441.9413">16</text><text fill="#000000" font-family="sans-serif" font-size="9.1" lengthAdjust="spacing" textLength="134.4" x="258.65" y="441.9413">getOrganizationRepository(email)</text><polygon fill="#181818" points="248.85,464.7289,241.85,467.5289,248.85,470.3289,246.05,467.5289" style="stroke:#181818;stroke-width:0.6999999999999998;"/><line style="stroke:#181818;stroke-width:0.6999999999999998;stroke-dasharray:2.0,2.0;" x1="244.65" x2="450.45" y1="467.5289" y2="467.5289"/><text fill="#000000" font-family="sans-serif" font-size="9.1" font-weight="bold" lengthAdjust="spacing" textLength="9.8" x="253.05" y="463.845">17</text><text fill="#000000" font-family="sans-serif" font-size="9.1" lengthAdjust="spacing" textLength="92.4" x="265.65" y="463.845">organizationRepository</text><polygon fill="#181818" points="617.4,504.1326,624.4,506.9326,617.4,509.7326,620.2,506.9326" style="stroke:#181818;stroke-width:0.6999999999999998;"/><line style="stroke:#181818;stroke-width:0.6999999999999998;" x1="241.15" x2="621.6" y1="506.9326" y2="506.9326"/><text fill="#000000" font-family="sans-serif" font-size="9.1" font-weight="bold" lengthAdjust="spacing" textLength="9.8" x="246.05" y="503.2487">18</text><text fill="#000000" font-family="sans-serif" font-size="9.1" lengthAdjust="spacing" textLength="183.4" x="258.65" y="503.2487">createJob(name, description,reference ,  hrm)</text><polygon fill="#181818" points="823.2,526.0363,830.2,528.8363,823.2,531.6363,826,528.8363" style="stroke:#181818;stroke-width:0.6999999999999998;"/><line style="stroke:#181818;stroke-width:0.6999999999999998;" x1="632.8" x2="827.4" y1="528.8363" y2="528.8363"/><text fill="#000000" font-family="sans-serif" font-size="9.1" font-weight="bold" lengthAdjust="spacing" textLength="9.8" x="637.7" y="525.1524">19</text><text fill="#000000" font-family="sans-serif" font-size="9.1" lengthAdjust="spacing" textLength="169.4" x="650.3" y="525.1524">create(name, reference, description,  hrm)</text><rect fill="#E3E3E3" height="35.8695" rx="1.75" ry="1.75" style="stroke:#181818;stroke-width:0.3499999999999999;" width="28" x="831.6" y="512.5326"/><text fill="#000000" font-family="sans-serif" font-size="9.8" lengthAdjust="spacing" textLength="13.3" x="838.95" y="528.0078">job</text><text fill="#000000" font-family="sans-serif" font-size="9.8" lengthAdjust="spacing" textLength="18.2" x="836.5" y="541.0426">:Job</text><line style="stroke:#181818;stroke-width:0.6999999999999998;" x1="632.8" x2="665.7" y1="568.9059" y2="568.9059"/><line style="stroke:#181818;stroke-width:0.6999999999999998;" x1="665.7" x2="665.7" y1="568.9059" y2="578.0059"/><line style="stroke:#181818;stroke-width:0.6999999999999998;" x1="637" x2="665.7" y1="578.0059" y2="578.0059"/><polygon fill="#181818" points="644,575.2059,637,578.0059,644,580.8059,641.2,578.0059" style="stroke:#181818;stroke-width:0.6999999999999998;"/><text fill="#000000" font-family="sans-serif" font-size="9.1" font-weight="bold" lengthAdjust="spacing" textLength="9.8" x="641.2" y="565.222">20</text><text fill="#000000" font-family="sans-serif" font-size="9.1" lengthAdjust="spacing" textLength="49" x="653.8" y="565.222">addJob (job)</text><line style="stroke:#181818;stroke-width:0.6999999999999998;" x1="639.8" x2="669.2" y1="603.4096" y2="603.4096"/><line style="stroke:#181818;stroke-width:0.6999999999999998;" x1="669.2" x2="669.2" y1="603.4096" y2="612.5096"/><line style="stroke:#181818;stroke-width:0.6999999999999998;" x1="640.5" x2="669.2" y1="612.5096" y2="612.5096"/><polygon fill="#181818" points="647.5,609.7096,640.5,612.5096,647.5,615.3096,644.7,612.5096" style="stroke:#181818;stroke-width:0.6999999999999998;"/><text fill="#000000" font-family="sans-serif" font-size="9.1" font-weight="bold" lengthAdjust="spacing" textLength="9.8" x="644.7" y="599.7257">21</text><text fill="#000000" font-family="sans-serif" font-size="9.1" lengthAdjust="spacing" textLength="61.6" x="657.3" y="599.7257">validateJob(job)</text><polygon fill="#181818" points="248.85,652.6133,241.85,655.4133,248.85,658.2133,246.05,655.4133" style="stroke:#181818;stroke-width:0.6999999999999998;"/><line style="stroke:#181818;stroke-width:0.6999999999999998;stroke-dasharray:2.0,2.0;" x1="244.65" x2="621.6" y1="655.4133" y2="655.4133"/><text fill="#000000" font-family="sans-serif" font-size="9.1" font-weight="bold" lengthAdjust="spacing" textLength="9.8" x="253.05" y="651.7294">22</text><text fill="#000000" font-family="sans-serif" font-size="9.1" lengthAdjust="spacing" textLength="11.9" x="265.65" y="651.7294">job</text><polygon fill="#181818" points="54.95,674.517,47.95,677.317,54.95,680.117,52.15,677.317" style="stroke:#181818;stroke-width:0.6999999999999998;"/><line style="stroke:#181818;stroke-width:0.6999999999999998;stroke-dasharray:2.0,2.0;" x1="50.75" x2="229.95" y1="677.317" y2="677.317"/><text fill="#000000" font-family="sans-serif" font-size="9.1" font-weight="bold" lengthAdjust="spacing" textLength="9.8" x="59.15" y="673.6331">23</text><text fill="#000000" font-family="sans-serif" font-size="9.1" lengthAdjust="spacing" textLength="11.9" x="71.75" y="673.6331">job</text><polygon fill="#181818" points="617.4,696.4207,624.4,699.2207,617.4,702.0207,620.2,699.2207" style="stroke:#181818;stroke-width:0.6999999999999998;"/><line style="stroke:#181818;stroke-width:0.6999999999999998;stroke-dasharray:2.0,2.0;" x1="43.75" x2="621.6" y1="699.2207" y2="699.2207"/><text fill="#000000" font-family="sans-serif" font-size="9.1" font-weight="bold" lengthAdjust="spacing" textLength="9.8" x="48.65" y="695.5368">24</text><text fill="#000000" font-family="sans-serif" font-size="9.1" lengthAdjust="spacing" textLength="110.6" x="61.25" y="695.5368">displays operation success</text><!--SRC=[xLZVJ-Cu47xFNs7nae90zrxfLWAMrO8uWIWy7TBAJORMaDWvEmMwue-_iVFBJcotGgjzshnKZMU- -MOyC_P4lJ1UKKbBKWekihKK9P1QRY1H_Kf5inUwWaMzBO18o6hALuKjeDOq5s-ChyWJBHGaIK8tjU2RSWaoIT8rou4y2L4lnJikPRMGvE3xtJy7X2g2lmcYr2nZ5UKrEPYVIw0rN8dbmwMHUBWC2PmBNajH522DuFdztVL8z0ugeHWQPA2CJFzYks3Q2wJfgaXBuv5F0MwlJ- -Jr55vHYP8Q8MW0_pyaL_vtXkGUwfUfaiZsFbfLHKiepKJV05AuOzH_d5wUpiIfLNLIY3bWDfKAzj82RmUD1yKI5jbSR5OdDwuyH5oHJdxQU0TRs-y2mR7l-JYhcM9389PWJ76POoeMRwwEJE9n5unY4Ou8Us3VyZ95qmQCaV95qLgGJAJC8GI3cy4aGRf7WEJh7-fdrR5f9Jz7d4HNRy-Ea8BZLWI44615TH8-fgfsXKoontFPv-4Xa41xSySAqoyAKABGiigahMvG-0TzNJXePUv9eobDV9Qy14_4w7Ej8822ngXEH6Ltfy82Gd_RK2XC5gYPCPf2SSa1vL9PbGFiTPZWR2o7gjfTkXOwdV2XDnPikFbgTy6_98hx4iPZ60TQ5_nJwJruxDoqlgYup3qX8bw3d5pQSWptLWcSRAw0pgM1ZqpNMcwhX-3Ev2l0wqduaS0l2FkfnlOyh0BWPxeTofWysJ8DzjFKrmn3_UstVZS5K_SXeNVv7Iwexmrt53Q1G8-SYpClAzeLG0Mgwder6D5zx1qt0Fx0dVX6y6fQhpe6vcHoR75Ubk1wlGW3tUBFHaqmMdyGBW-G3eohfMzwAdDicITFy4pmEbTMNVXQBomd3YMy0HuY6Pmc0GwMUgh6UTqw5BeRFjrG9xPoVNL3blwfst-qhQPnlgcjv_yrhxvgRJuNPtrCrtLQxPlh3uZqQvgBtvyV2JnShiegq9i0RxXeDDUTUCNaU3swMluk8J2Uz1SsdsUwnNI5ybmau-6ri15o7NSpfqhVfIXGVGoD0HxXkxK46NfX-muDjF5d419MK7-rdJr07AX_qQPjcE9dsopQF4ry56Q7LuIwp4cdFv1PcPCH1feqmZsk9pvXwjaPuy91zdFUEBCsROhZ2RyhKVXFGYCTFuzAOIeoBzFE9iWyRNZfLz1FtuBfByMKDvp_avLdFQ4lXuPqx2SCoS5YCpDPvA_cYyUGIHhgunDdmpmtByG2i7GqUAXj8pllLzTuY1Rfs7g3DahCoAXxIBQaeSMEaey03S-B_nOdpeiZEUZAn_ntld8CI5hMGRE3-UpnEZpnDNDsT5HPwKrqSEwrZmcB213bkOvCYMpPx4yzBGnXr5mNrgiLrgml7NTuEskerq5538xskLuplX0nW0xyitvyhDBtvhq6irONla7kpd9cQeAkbL4L21DxU7uaMLuT2QUIML4vty0]--></g></svg>