<?xml version="1.0" encoding="us-ascii" standalone="no"?><svg xmlns="http://www.w3.org/2000/svg" xmlns:xlink="http://www.w3.org/1999/xlink" contentStyleType="text/css" height="308.8px" preserveAspectRatio="none" style="width:816px;height:308px;background:#FFFFFF;" version="1.1" viewBox="0 0 816 308" width="816.8px" zoomAndPan="magnify"><defs/><g><!--class JobRepository--><g id="elem_JobRepository"><rect codeLine="22" fill="#F1F1F1" height="97.9875" id="JobRepository" rx="2" ry="2" style="stroke:#181818;stroke-width:0.4000000000000001;" width="165.6" x="294.4" y="136"/><ellipse cx="337.8" cy="148.8" fill="#ADD1B2" rx="8.8" ry="8.8" style="stroke:#181818;stroke-width:0.8000000000000002;"/><path d="M340.0125,145.5 Q340.1375,145.325 340.2875,145.2375 Q340.4375,145.15 340.6125,145.15 Q340.9125,145.15 341.1,145.3625 Q341.2875,145.5625 341.2875,146.05 L341.2875,147.2125 Q341.2875,147.7 341.1,147.9125 Q340.9125,148.125 340.6125,148.125 Q340.3375,148.125 340.175,147.9625 Q340.0125,147.8125 339.925,147.4 Q339.8875,147.1125 339.7375,146.9625 Q339.475,146.6625 338.9875,146.4875 Q338.5,146.3125 338,146.3125 Q337.3875,146.3125 336.875,146.575 Q336.375,146.8375 335.975,147.4375 Q335.5875,148.0375 335.5875,148.8625 L335.5875,149.7375 Q335.5875,150.725 336.3,151.3875 Q337.0125,152.0375 338.2875,152.0375 Q339.0375,152.0375 339.5625,151.8375 Q339.875,151.7125 340.2125,151.3625 Q340.425,151.15 340.5375,151.0875 Q340.6625,151.025 340.825,151.025 Q341.0875,151.025 341.2875,151.2375 Q341.5,151.4375 341.5,151.7125 Q341.5,151.9875 341.225,152.3125 Q340.825,152.775 340.1875,153.0375 Q339.325,153.4 338.2875,153.4 Q337.075,153.4 336.1125,152.9 Q335.325,152.5 334.775,151.65 Q334.225,150.7875 334.225,149.7625 L334.225,148.8375 Q334.225,147.775 334.7125,146.8625 Q335.2125,145.9375 336.0875,145.45 Q336.9625,144.95 337.95,144.95 Q338.5375,144.95 339.05,145.0875 Q339.575,145.2125 340.0125,145.5 Z " fill="#000000"/><text fill="#000000" font-family="sans-serif" font-size="11.2" lengthAdjust="spacing" textLength="72" x="354.2" y="153.4375">JobRepository</text><line style="stroke:#181818;stroke-width:0.4000000000000001;" x1="295.2" x2="459.2" y1="161.6" y2="161.6"/><line style="stroke:#181818;stroke-width:0.4000000000000001;" x1="295.2" x2="459.2" y1="168" y2="168"/><text fill="#000000" font-family="sans-serif" font-size="11.2" lengthAdjust="spacing" textLength="64" x="299.2" y="183.2859">-addJob(job)</text><text fill="#000000" font-family="sans-serif" font-size="11.2" lengthAdjust="spacing" textLength="84" x="299.2" y="198.1828">-validateJob(job)</text><text fill="#000000" font-family="sans-serif" font-size="11.2" lengthAdjust="spacing" textLength="3.2" x="299.2" y="213.0797">&#160;</text><text fill="#000000" font-family="sans-serif" font-size="11.2" lengthAdjust="spacing" textLength="156" x="299.2" y="227.9766">+CreateJob(name, description)</text></g><!--class HRM--><g id="elem_HRM"><rect codeLine="29" fill="#F1F1F1" height="53.2969" id="HRM" rx="2" ry="2" style="stroke:#181818;stroke-width:0.4000000000000001;" width="74.4" x="736.8" y="158"/><ellipse cx="759.96" cy="170.8" fill="#ADD1B2" rx="8.8" ry="8.8" style="stroke:#181818;stroke-width:0.8000000000000002;"/><path d="M762.1725,167.5 Q762.2975,167.325 762.4475,167.2375 Q762.5975,167.15 762.7725,167.15 Q763.0725,167.15 763.26,167.3625 Q763.4475,167.5625 763.4475,168.05 L763.4475,169.2125 Q763.4475,169.7 763.26,169.9125 Q763.0725,170.125 762.7725,170.125 Q762.4975,170.125 762.335,169.9625 Q762.1725,169.8125 762.085,169.4 Q762.0475,169.1125 761.8975,168.9625 Q761.635,168.6625 761.1475,168.4875 Q760.66,168.3125 760.16,168.3125 Q759.5475,168.3125 759.035,168.575 Q758.535,168.8375 758.135,169.4375 Q757.7475,170.0375 757.7475,170.8625 L757.7475,171.7375 Q757.7475,172.725 758.46,173.3875 Q759.1725,174.0375 760.4475,174.0375 Q761.1975,174.0375 761.7225,173.8375 Q762.035,173.7125 762.3725,173.3625 Q762.585,173.15 762.6975,173.0875 Q762.8225,173.025 762.985,173.025 Q763.2475,173.025 763.4475,173.2375 Q763.66,173.4375 763.66,173.7125 Q763.66,173.9875 763.385,174.3125 Q762.985,174.775 762.3475,175.0375 Q761.485,175.4 760.4475,175.4 Q759.235,175.4 758.2725,174.9 Q757.485,174.5 756.935,173.65 Q756.385,172.7875 756.385,171.7625 L756.385,170.8375 Q756.385,169.775 756.8725,168.8625 Q757.3725,167.9375 758.2475,167.45 Q759.1225,166.95 760.11,166.95 Q760.6975,166.95 761.21,167.0875 Q761.735,167.2125 762.1725,167.5 Z " fill="#000000"/><text fill="#000000" font-family="sans-serif" font-size="11.2" lengthAdjust="spacing" textLength="24" x="773.64" y="175.4375">HRM</text><line style="stroke:#181818;stroke-width:0.4000000000000001;" x1="737.6" x2="810.4" y1="183.6" y2="183.6"/><text fill="#000000" font-family="sans-serif" font-size="11.2" lengthAdjust="spacing" textLength="64.8" x="741.6" y="198.8859">-String name</text><line style="stroke:#181818;stroke-width:0.4000000000000001;" x1="737.6" x2="810.4" y1="204.8969" y2="204.8969"/></g><!--class Job--><g id="elem_Job"><rect codeLine="33" fill="#F1F1F1" height="83.0906" id="Job" rx="2" ry="2" style="stroke:#181818;stroke-width:0.4000000000000001;" width="131.2" x="508.8" y="143.2"/><ellipse cx="562.2" cy="156" fill="#ADD1B2" rx="8.8" ry="8.8" style="stroke:#181818;stroke-width:0.8000000000000002;"/><path d="M564.4125,152.7 Q564.5375,152.525 564.6875,152.4375 Q564.8375,152.35 565.0125,152.35 Q565.3125,152.35 565.5,152.5625 Q565.6875,152.7625 565.6875,153.25 L565.6875,154.4125 Q565.6875,154.9 565.5,155.1125 Q565.3125,155.325 565.0125,155.325 Q564.7375,155.325 564.575,155.1625 Q564.4125,155.0125 564.325,154.6 Q564.2875,154.3125 564.1375,154.1625 Q563.875,153.8625 563.3875,153.6875 Q562.9,153.5125 562.4,153.5125 Q561.7875,153.5125 561.275,153.775 Q560.775,154.0375 560.375,154.6375 Q559.9875,155.2375 559.9875,156.0625 L559.9875,156.9375 Q559.9875,157.925 560.7,158.5875 Q561.4125,159.2375 562.6875,159.2375 Q563.4375,159.2375 563.9625,159.0375 Q564.275,158.9125 564.6125,158.5625 Q564.825,158.35 564.9375,158.2875 Q565.0625,158.225 565.225,158.225 Q565.4875,158.225 565.6875,158.4375 Q565.9,158.6375 565.9,158.9125 Q565.9,159.1875 565.625,159.5125 Q565.225,159.975 564.5875,160.2375 Q563.725,160.6 562.6875,160.6 Q561.475,160.6 560.5125,160.1 Q559.725,159.7 559.175,158.85 Q558.625,157.9875 558.625,156.9625 L558.625,156.0375 Q558.625,154.975 559.1125,154.0625 Q559.6125,153.1375 560.4875,152.65 Q561.3625,152.15 562.35,152.15 Q562.9375,152.15 563.45,152.2875 Q563.975,152.4125 564.4125,152.7 Z " fill="#000000"/><text fill="#000000" font-family="sans-serif" font-size="11.2" lengthAdjust="spacing" textLength="17.6" x="578.6" y="160.6375">Job</text><line style="stroke:#181818;stroke-width:0.4000000000000001;" x1="509.6" x2="639.2" y1="168.8" y2="168.8"/><text fill="#000000" font-family="sans-serif" font-size="11.2" lengthAdjust="spacing" textLength="64.8" x="513.6" y="184.0859">-String name</text><text fill="#000000" font-family="sans-serif" font-size="11.2" lengthAdjust="spacing" textLength="92" x="513.6" y="198.9828">-String description</text><line style="stroke:#181818;stroke-width:0.4000000000000001;" x1="509.6" x2="639.2" y1="204.9938" y2="204.9938"/><text fill="#000000" font-family="sans-serif" font-size="11.2" lengthAdjust="spacing" textLength="121.6" x="513.6" y="220.2797">+Job(name, description)</text></g><!--class Repositories--><g id="elem_Repositories"><rect codeLine="40" fill="#F1F1F1" height="83.0906" id="Repositories" rx="2" ry="2" style="stroke:#181818;stroke-width:0.4000000000000001;" width="155.2" x="14.8" y="220.8"/><ellipse cx="57.4" cy="233.6" fill="#ADD1B2" rx="8.8" ry="8.8" style="stroke:#181818;stroke-width:0.8000000000000002;"/><path d="M59.6125,230.3 Q59.7375,230.125 59.8875,230.0375 Q60.0375,229.95 60.2125,229.95 Q60.5125,229.95 60.7,230.1625 Q60.8875,230.3625 60.8875,230.85 L60.8875,232.0125 Q60.8875,232.5 60.7,232.7125 Q60.5125,232.925 60.2125,232.925 Q59.9375,232.925 59.775,232.7625 Q59.6125,232.6125 59.525,232.2 Q59.4875,231.9125 59.3375,231.7625 Q59.075,231.4625 58.5875,231.2875 Q58.1,231.1125 57.6,231.1125 Q56.9875,231.1125 56.475,231.375 Q55.975,231.6375 55.575,232.2375 Q55.1875,232.8375 55.1875,233.6625 L55.1875,234.5375 Q55.1875,235.525 55.9,236.1875 Q56.6125,236.8375 57.8875,236.8375 Q58.6375,236.8375 59.1625,236.6375 Q59.475,236.5125 59.8125,236.1625 Q60.025,235.95 60.1375,235.8875 Q60.2625,235.825 60.425,235.825 Q60.6875,235.825 60.8875,236.0375 Q61.1,236.2375 61.1,236.5125 Q61.1,236.7875 60.825,237.1125 Q60.425,237.575 59.7875,237.8375 Q58.925,238.2 57.8875,238.2 Q56.675,238.2 55.7125,237.7 Q54.925,237.3 54.375,236.45 Q53.825,235.5875 53.825,234.5625 L53.825,233.6375 Q53.825,232.575 54.3125,231.6625 Q54.8125,230.7375 55.6875,230.25 Q56.5625,229.75 57.55,229.75 Q58.1375,229.75 58.65,229.8875 Q59.175,230.0125 59.6125,230.3 Z " fill="#000000"/><text fill="#000000" font-family="sans-serif" font-size="11.2" lengthAdjust="spacing" textLength="63.2" x="73.8" y="238.2375">Repositories</text><line style="stroke:#181818;stroke-width:0.4000000000000001;" x1="15.6" x2="169.2" y1="246.4" y2="246.4"/><line style="stroke:#181818;stroke-width:0.4000000000000001;" x1="15.6" x2="169.2" y1="252.8" y2="252.8"/><text fill="#000000" font-family="sans-serif" font-size="11.2" lengthAdjust="spacing" textLength="75.2" x="19.6" y="268.0859">-Repositories()</text><text fill="#000000" font-family="sans-serif" font-size="11.2" lengthAdjust="spacing" textLength="145.6" x="19.6" y="282.9828">+getInstance() : Repositories</text><text fill="#000000" font-family="sans-serif" font-size="11.2" lengthAdjust="spacing" textLength="102.4" x="19.6" y="297.8797">+getJobRepository()</text></g><!--class RegisterJobController--><g id="elem_RegisterJobController"><rect codeLine="46" fill="#F1F1F1" height="68.1938" id="RegisterJobController" rx="2" ry="2" style="stroke:#181818;stroke-width:0.4000000000000001;" width="173.6" x="5.6" y="72.4"/><ellipse cx="34.88" cy="85.2" fill="#ADD1B2" rx="8.8" ry="8.8" style="stroke:#181818;stroke-width:0.8000000000000002;"/><path d="M37.0925,81.9 Q37.2175,81.725 37.3675,81.6375 Q37.5175,81.55 37.6925,81.55 Q37.9925,81.55 38.18,81.7625 Q38.3675,81.9625 38.3675,82.45 L38.3675,83.6125 Q38.3675,84.1 38.18,84.3125 Q37.9925,84.525 37.6925,84.525 Q37.4175,84.525 37.255,84.3625 Q37.0925,84.2125 37.005,83.8 Q36.9675,83.5125 36.8175,83.3625 Q36.555,83.0625 36.0675,82.8875 Q35.58,82.7125 35.08,82.7125 Q34.4675,82.7125 33.955,82.975 Q33.455,83.2375 33.055,83.8375 Q32.6675,84.4375 32.6675,85.2625 L32.6675,86.1375 Q32.6675,87.125 33.38,87.7875 Q34.0925,88.4375 35.3675,88.4375 Q36.1175,88.4375 36.6425,88.2375 Q36.955,88.1125 37.2925,87.7625 Q37.505,87.55 37.6175,87.4875 Q37.7425,87.425 37.905,87.425 Q38.1675,87.425 38.3675,87.6375 Q38.58,87.8375 38.58,88.1125 Q38.58,88.3875 38.305,88.7125 Q37.905,89.175 37.2675,89.4375 Q36.405,89.8 35.3675,89.8 Q34.155,89.8 33.1925,89.3 Q32.405,88.9 31.855,88.05 Q31.305,87.1875 31.305,86.1625 L31.305,85.2375 Q31.305,84.175 31.7925,83.2625 Q32.2925,82.3375 33.1675,81.85 Q34.0425,81.35 35.03,81.35 Q35.6175,81.35 36.13,81.4875 Q36.655,81.6125 37.0925,81.9 Z " fill="#000000"/><text fill="#000000" font-family="sans-serif" font-size="11.2" lengthAdjust="spacing" textLength="109.6" x="49.92" y="89.8375">RegisterJobController</text><line style="stroke:#181818;stroke-width:0.4000000000000001;" x1="6.4" x2="178.4" y1="98" y2="98"/><line style="stroke:#181818;stroke-width:0.4000000000000001;" x1="6.4" x2="178.4" y1="104.4" y2="104.4"/><text fill="#000000" font-family="sans-serif" font-size="11.2" lengthAdjust="spacing" textLength="124" x="10.4" y="119.6859">+RegisterJobController()</text><text fill="#000000" font-family="sans-serif" font-size="11.2" lengthAdjust="spacing" textLength="164" x="10.4" y="134.5828">+RegisterJob(name, description)</text></g><!--class RegisterJobUI--><g id="elem_RegisterJobUI"><rect codeLine="52" fill="#F1F1F1" height="38.4" id="RegisterJobUI" rx="2" ry="2" style="stroke:#181818;stroke-width:0.4000000000000001;" width="95.2" x="44.8" y="5.6"/><ellipse cx="56.8" cy="18.4" fill="#ADD1B2" rx="8.8" ry="8.8" style="stroke:#181818;stroke-width:0.8000000000000002;"/><path d="M59.0125,15.1 Q59.1375,14.925 59.2875,14.8375 Q59.4375,14.75 59.6125,14.75 Q59.9125,14.75 60.1,14.9625 Q60.2875,15.1625 60.2875,15.65 L60.2875,16.8125 Q60.2875,17.3 60.1,17.5125 Q59.9125,17.725 59.6125,17.725 Q59.3375,17.725 59.175,17.5625 Q59.0125,17.4125 58.925,17 Q58.8875,16.7125 58.7375,16.5625 Q58.475,16.2625 57.9875,16.0875 Q57.5,15.9125 57,15.9125 Q56.3875,15.9125 55.875,16.175 Q55.375,16.4375 54.975,17.0375 Q54.5875,17.6375 54.5875,18.4625 L54.5875,19.3375 Q54.5875,20.325 55.3,20.9875 Q56.0125,21.6375 57.2875,21.6375 Q58.0375,21.6375 58.5625,21.4375 Q58.875,21.3125 59.2125,20.9625 Q59.425,20.75 59.5375,20.6875 Q59.6625,20.625 59.825,20.625 Q60.0875,20.625 60.2875,20.8375 Q60.5,21.0375 60.5,21.3125 Q60.5,21.5875 60.225,21.9125 Q59.825,22.375 59.1875,22.6375 Q58.325,23 57.2875,23 Q56.075,23 55.1125,22.5 Q54.325,22.1 53.775,21.25 Q53.225,20.3875 53.225,19.3625 L53.225,18.4375 Q53.225,17.375 53.7125,16.4625 Q54.2125,15.5375 55.0875,15.05 Q55.9625,14.55 56.95,14.55 Q57.5375,14.55 58.05,14.6875 Q58.575,14.8125 59.0125,15.1 Z " fill="#000000"/><text fill="#000000" font-family="sans-serif" font-size="11.2" lengthAdjust="spacing" textLength="69.6" x="68" y="23.0375">RegisterJobUI</text><line style="stroke:#181818;stroke-width:0.4000000000000001;" x1="45.6" x2="139.2" y1="31.2" y2="31.2"/><line style="stroke:#181818;stroke-width:0.4000000000000001;" x1="45.6" x2="139.2" y1="37.6" y2="37.6"/></g><!--link Repositories to Repositories--><g id="link_Repositories_Repositories"><path codeLine="55" d="M65.44,220.608 C64.712,205.32 73.696,192.8 92.4,192.8 C111.104,192.8 120.3163,200.5254 119.5883,215.8134 " fill="none" id="Repositories-to-Repositories" style="stroke:#181818;stroke-width:0.8000000000000002;"/><polygon fill="#181818" points="119.36,220.608,122.8988,213.5684,119.5503,216.6125,116.5061,213.2639,119.36,220.608" style="stroke:#181818;stroke-width:0.8000000000000002;"/><text fill="#000000" font-family="sans-serif" font-size="10.4" lengthAdjust="spacing" textLength="39.2" x="72.8" y="185.6227">instance</text></g><!--link RegisterJobUI to RegisterJobController--><g id="link_RegisterJobUI_RegisterJobController"><path codeLine="57" d="M92.4,44.28 C92.4,48.64 92.4,52 92.4,52 C92.4,52 92.4,59.48 92.4,67.536 " fill="none" id="RegisterJobUI-to-RegisterJobController" style="stroke:#181818;stroke-width:0.8000000000000002;stroke-dasharray:7.0,7.0;"/><polygon fill="#181818" points="92.4,72.336,95.6,65.136,92.4,68.336,89.2,65.136,92.4,72.336" style="stroke:#181818;stroke-width:0.8000000000000002;"/></g><!--link RegisterJobController to Repositories--><g id="link_RegisterJobController_Repositories"><path codeLine="59" d="M92.4,140.52 C92.4,164.136 92.4,190.904 92.4,216 " fill="none" id="RegisterJobController-to-Repositories" style="stroke:#181818;stroke-width:0.8000000000000002;stroke-dasharray:7.0,7.0;"/><polygon fill="#181818" points="92.4,220.8,95.6,213.6,92.4,216.8,89.2,213.6,92.4,220.8" style="stroke:#181818;stroke-width:0.8000000000000002;"/><text fill="#000000" font-family="sans-serif" font-size="10.4" lengthAdjust="spacing" textLength="53.6" x="55.6" y="185.0227">repositories</text></g><!--link RegisterJobController to JobRepository--><g id="link_RegisterJobController_JobRepository"><path codeLine="61" d="M179.32,130.24 C215.856,140.352 253.6141,150.8069 289.6941,160.7989 " fill="none" id="RegisterJobController-to-JobRepository" style="stroke:#181818;stroke-width:0.8000000000000002;stroke-dasharray:7.0,7.0;"/><polygon fill="#181818" points="294.32,162.08,288.2352,157.0744,290.4651,161.0124,286.5271,163.2423,294.32,162.08" style="stroke:#181818;stroke-width:0.8000000000000002;"/><text fill="#000000" font-family="sans-serif" font-size="10.4" lengthAdjust="spacing" textLength="65.6" x="204" y="136.0227">JobRepository</text></g><!--link Repositories to JobRepository--><g id="link_Repositories_JobRepository"><path codeLine="62" d="M170.208,241.296 C208.624,230.776 250.4666,219.3082 289.5706,208.5962 " fill="none" id="Repositories-to-JobRepository" style="stroke:#181818;stroke-width:0.8000000000000002;"/><polygon fill="#181818" points="294.2,207.328,286.4104,206.144,290.3421,208.3848,288.1013,212.3166,294.2,207.328" style="stroke:#181818;stroke-width:0.8000000000000002;"/><text fill="#000000" font-family="sans-serif" font-size="10.4" lengthAdjust="spacing" textLength="5.6" x="282.2991" y="220.6988">1</text></g><!--link Job to HRM--><g id="link_Job_HRM"><path codeLine="64" d="M640.032,184.8 C672.064,184.8 704.736,184.8 731.752,184.8 " fill="none" id="Job-to-HRM" style="stroke:#181818;stroke-width:0.8000000000000002;"/><polygon fill="#181818" points="736.552,184.8,729.352,181.6,732.552,184.8,729.352,188,736.552,184.8" style="stroke:#181818;stroke-width:0.8000000000000002;"/><text fill="#000000" font-family="sans-serif" font-size="10.4" lengthAdjust="spacing" textLength="47.2" x="664.8" y="181.6227">createdBy</text></g><!--link JobRepository to Job--><g id="link_JobRepository_Job"><path codeLine="65" d="M460.104,184.8 C476.304,184.8 488.304,184.8 503.848,184.8 " fill="none" id="JobRepository-to-Job" style="stroke:#181818;stroke-width:0.8000000000000002;"/><polygon fill="#181818" points="508.648,184.8,501.448,181.6,504.648,184.8,501.448,188,508.648,184.8" style="stroke:#181818;stroke-width:0.8000000000000002;"/><text fill="#000000" font-family="sans-serif" font-size="10.4" lengthAdjust="spacing" textLength="4" x="498.4021" y="196.6653">*</text></g><!--SRC=[XLBDJkCm4BxFKuouf5r-n5vxG68h98gq5oeUm7McgS6ne_6KLK3xxckt8RKXQ7jglj-PaQlmObodMBNOUkVrZdrBABmdE36TqY-geRNqbf19YtADpGLXfsh_nxW6jyg6dB76aVGTOUTjdpwWcY0zYuVCfQqAuLQ4pMOljDBUhSqRuJM0fQsWU6JJx0HhawOntW5K1m_UTfqrMYLiJI4agdg72kFl78D4GcD3idBnlzCqctzm4LpkcSd9u4lKtp7tAH1_3OocHDorojX1VvG_-CqZTJuOyTo_Gr9VghgEyEpPR-P7u5LPKokX4OLZwf9fG9rgwG9h2ffDbtQQmrXn__WRXsHSnql5uoSvv3DC2Weao_we_r_nk9YXC1Rau6mEutbEXyP58Jf9YblDYgB6126EWgLtmjvQug7nV9eTgpDsQfd9agTL38z4iU3bJRdm0ismKXBctgkRwPaANRR8rPTapk_pdIlQYej5N_7zQVmu_zdFiqyII6yZKUaHBL0V7bpzguSo-M3-SJ03_0C0]--></g></svg>