<?xml version="1.0" encoding="us-ascii" standalone="no"?><svg xmlns="http://www.w3.org/2000/svg" xmlns:xlink="http://www.w3.org/1999/xlink" contentStyleType="text/css" height="807.8px" preserveAspectRatio="none" style="width:539px;height:807px;background:#FFFFFF;" version="1.1" viewBox="0 0 539 807" width="539.7px" zoomAndPan="magnify"><defs/><g><rect fill="#FFFFFF" height="141.1949" style="stroke:#181818;stroke-width:0.6999999999999998;" width="7" x="43.75" y="81.8385"/><rect fill="#FFFFFF" height="67.1111" style="stroke:#181818;stroke-width:0.6999999999999998;" width="7" x="43.75" y="244.9371"/><rect fill="#FFFFFF" height="21.9037" style="stroke:#181818;stroke-width:0.6999999999999998;" width="7" x="43.75" y="333.952"/><rect fill="#FFFFFF" height="359.2805" style="stroke:#181818;stroke-width:0.6999999999999998;" width="7" x="43.75" y="377.7594"/><rect fill="#FFFFFF" height="66.8527" style="stroke:#181818;stroke-width:0.6999999999999998;" width="7" x="233.45" y="134.277"/><rect fill="#FFFFFF" height="315.473" style="stroke:#181818;stroke-width:0.6999999999999998;" width="7" x="236.95" y="399.6631"/><rect fill="#FFFFFF" height="71.0527" style="stroke:#181818;stroke-width:0.6999999999999998;" width="7" x="236.95" y="399.6631"/><rect fill="#FFFFFF" height="74.5527" style="stroke:#181818;stroke-width:0.6999999999999998;" width="7" x="236.95" y="503.1195"/><rect fill="#FFFFFF" height="671.5051" style="stroke:#181818;stroke-width:0.6999999999999998;" width="7" x="474.25" y="65.5348"/><rect fill="#FFFFFF" height="66.8527" style="stroke:#181818;stroke-width:0.6999999999999998;" width="7" x="477.75" y="626.3797"/><rect fill="none" height="35.4074" style="stroke:#000000;stroke-width:1.0499999999999998;" width="490.35" x="7" y="255.4371"/><line style="stroke:#181818;stroke-width:0.3499999999999999;stroke-dasharray:5.0,5.0;" x1="46.9" x2="46.9" y1="58.5348" y2="749.6398"/><line style="stroke:#181818;stroke-width:0.3499999999999999;stroke-dasharray:5.0,5.0;" x1="236.6" x2="236.6" y1="109.7059" y2="749.6398"/><line style="stroke:#181818;stroke-width:0.3499999999999999;stroke-dasharray:5.0,5.0;" x1="477.75" x2="477.75" y1="58.5348" y2="749.6398"/><line style="stroke:#181818;stroke-width:0.3499999999999999;stroke-dasharray:5.0,5.0;" x1="516.25" x2="516.25" y1="58.5348" y2="749.6398"/><rect fill="#E3E3E3" height="22.8348" rx="1.75" ry="1.75" style="stroke:#181818;stroke-width:0.3499999999999999;" width="66.5" x="14" y="35"/><text fill="#000000" font-family="sans-serif" font-size="9.8" lengthAdjust="spacing" textLength="56.7" x="18.9" y="50.4752">:CreateJobUI</text><rect fill="#E3E3E3" height="22.8348" rx="1.75" ry="1.75" style="stroke:#181818;stroke-width:0.3499999999999999;" width="66.5" x="14" y="748.9398"/><text fill="#000000" font-family="sans-serif" font-size="9.8" lengthAdjust="spacing" textLength="56.7" x="18.9" y="764.415">:CreateJobUI</text><rect fill="#E3E3E3" height="22.8348" rx="1.75" ry="1.75" style="stroke:#181818;stroke-width:0.3499999999999999;" width="101.5" x="186.2" y="748.9398"/><text fill="#000000" font-family="sans-serif" font-size="9.8" lengthAdjust="spacing" textLength="91.7" x="191.1" y="764.415">:CreateJobController</text><text fill="#000000" font-family="sans-serif" font-size="9.8" lengthAdjust="spacing" textLength="21" x="465.15" y="56.0752">HRM</text><ellipse cx="477.75" cy="9.45" fill="#E3E3E3" rx="5.6" ry="5.6" style="stroke:#181818;stroke-width:0.3499999999999999;"/><path d="M477.75,15.05 L477.75,33.95 M468.65,20.65 L486.85,20.65 M477.75,33.95 L468.65,44.45 M477.75,33.95 L486.85,44.45 " fill="none" style="stroke:#181818;stroke-width:0.3499999999999999;"/><text fill="#000000" font-family="sans-serif" font-size="9.8" lengthAdjust="spacing" textLength="21" x="465.15" y="759.515">HRM</text><ellipse cx="477.75" cy="767.9246" fill="#E3E3E3" rx="5.6" ry="5.6" style="stroke:#181818;stroke-width:0.3499999999999999;"/><path d="M477.75,773.5246 L477.75,792.4246 M468.65,779.1246 L486.85,779.1246 M477.75,792.4246 L468.65,802.9246 M477.75,792.4246 L486.85,802.9246 " fill="none" style="stroke:#181818;stroke-width:0.3499999999999999;"/><rect fill="#E3E3E3" height="22.8348" rx="1.75" ry="1.75" style="stroke:#181818;stroke-width:0.3499999999999999;" width="38.5" x="497.35" y="35"/><text fill="#000000" font-family="sans-serif" font-size="9.8" lengthAdjust="spacing" textLength="28.7" x="502.25" y="50.4752">jobList</text><rect fill="#E3E3E3" height="22.8348" rx="1.75" ry="1.75" style="stroke:#181818;stroke-width:0.3499999999999999;" width="38.5" x="497.35" y="748.9398"/><text fill="#000000" font-family="sans-serif" font-size="9.8" lengthAdjust="spacing" textLength="28.7" x="502.25" y="764.415">jobList</text><rect fill="#FFFFFF" height="141.1949" style="stroke:#181818;stroke-width:0.6999999999999998;" width="7" x="43.75" y="81.8385"/><rect fill="#FFFFFF" height="67.1111" style="stroke:#181818;stroke-width:0.6999999999999998;" width="7" x="43.75" y="244.9371"/><rect fill="#FFFFFF" height="21.9037" style="stroke:#181818;stroke-width:0.6999999999999998;" width="7" x="43.75" y="333.952"/><rect fill="#FFFFFF" height="359.2805" style="stroke:#181818;stroke-width:0.6999999999999998;" width="7" x="43.75" y="377.7594"/><rect fill="#FFFFFF" height="66.8527" style="stroke:#181818;stroke-width:0.6999999999999998;" width="7" x="233.45" y="134.277"/><rect fill="#FFFFFF" height="315.473" style="stroke:#181818;stroke-width:0.6999999999999998;" width="7" x="236.95" y="399.6631"/><rect fill="#FFFFFF" height="71.0527" style="stroke:#181818;stroke-width:0.6999999999999998;" width="7" x="236.95" y="399.6631"/><rect fill="#FFFFFF" height="74.5527" style="stroke:#181818;stroke-width:0.6999999999999998;" width="7" x="236.95" y="503.1195"/><rect fill="#FFFFFF" height="671.5051" style="stroke:#181818;stroke-width:0.6999999999999998;" width="7" x="474.25" y="65.5348"/><rect fill="#FFFFFF" height="66.8527" style="stroke:#181818;stroke-width:0.6999999999999998;" width="7" x="477.75" y="626.3797"/><polygon fill="#181818" points="58.45,79.0385,51.45,81.8385,58.45,84.6385,55.65,81.8385" style="stroke:#181818;stroke-width:0.6999999999999998;"/><line style="stroke:#181818;stroke-width:0.6999999999999998;" x1="54.25" x2="473.55" y1="81.8385" y2="81.8385"/><text fill="#000000" font-family="sans-serif" font-size="9.1" font-weight="bold" lengthAdjust="spacing" textLength="4.9" x="62.65" y="78.1546">1</text><text fill="#000000" font-family="sans-serif" font-size="9.1" lengthAdjust="spacing" textLength="99.4" x="70.35" y="78.1546">asks to create a new job</text><polygon fill="#181818" points="177.8,100.9422,184.8,103.7422,177.8,106.5422,180.6,103.7422" style="stroke:#181818;stroke-width:0.6999999999999998;"/><line style="stroke:#181818;stroke-width:0.6999999999999998;" x1="50.75" x2="182" y1="103.7422" y2="103.7422"/><text fill="#000000" font-family="sans-serif" font-size="9.1" font-weight="bold" lengthAdjust="spacing" textLength="4.9" x="55.65" y="100.0583">2</text><text fill="#000000" font-family="sans-serif" font-size="9.1" lengthAdjust="spacing" textLength="25.2" x="63.35" y="100.0583">create</text><rect fill="#E3E3E3" height="22.8348" rx="1.75" ry="1.75" style="stroke:#181818;stroke-width:0.3499999999999999;" width="101.5" x="186.2" y="87.4385"/><text fill="#000000" font-family="sans-serif" font-size="9.8" lengthAdjust="spacing" textLength="91.7" x="191.1" y="102.9137">:CreateJobController</text><polygon fill="#181818" points="225.05,131.477,232.05,134.277,225.05,137.077,227.85,134.277" style="stroke:#181818;stroke-width:0.6999999999999998;"/><line style="stroke:#181818;stroke-width:0.6999999999999998;" x1="50.75" x2="229.25" y1="134.277" y2="134.277"/><text fill="#000000" font-family="sans-serif" font-size="9.1" font-weight="bold" lengthAdjust="spacing" textLength="4.9" x="55.65" y="130.5931">3</text><text fill="#000000" font-family="sans-serif" font-size="9.1" lengthAdjust="spacing" textLength="46.9" x="63.35" y="130.5931">getJobList()</text><rect fill="none" height="41.449" style="stroke:#000000;stroke-width:1.0499999999999998;" width="105.7" x="184.1" y="139.877"/><path d="M184.1,139.877 L227.5,139.877 L227.5,146.177 L220.5,153.177 L184.1,153.177 L184.1,139.877 " fill="#EEEEEE" style="stroke:#000000;stroke-width:1.3999999999999997;"/><text fill="#000000" font-family="sans-serif" font-size="9.1" font-weight="bold" lengthAdjust="spacing" textLength="11.9" x="193.2" y="151.0968">ref</text><text fill="#000000" font-family="sans-serif" font-size="8.4" lengthAdjust="spacing" textLength="45.5" x="214.2" y="165.0414">Get Job List</text><text fill="#000000" font-family="sans-serif" font-size="8.4" lengthAdjust="spacing" textLength="2.1" x="235.9" y="176.2141">&#160;</text><polygon fill="#181818" points="58.45,198.3297,51.45,201.1297,58.45,203.9297,55.65,201.1297" style="stroke:#181818;stroke-width:0.6999999999999998;"/><line style="stroke:#181818;stroke-width:0.6999999999999998;stroke-dasharray:2.0,2.0;" x1="54.25" x2="236.25" y1="201.1297" y2="201.1297"/><text fill="#000000" font-family="sans-serif" font-size="9.1" font-weight="bold" lengthAdjust="spacing" textLength="4.9" x="62.65" y="197.4458">4</text><text fill="#000000" font-family="sans-serif" font-size="9.1" lengthAdjust="spacing" textLength="26.6" x="70.35" y="197.4458">jobList</text><polygon fill="#181818" points="465.85,220.2334,472.85,223.0334,465.85,225.8334,468.65,223.0334" style="stroke:#181818;stroke-width:0.6999999999999998;"/><line style="stroke:#181818;stroke-width:0.6999999999999998;stroke-dasharray:2.0,2.0;" x1="47.25" x2="470.05" y1="223.0334" y2="223.0334"/><text fill="#000000" font-family="sans-serif" font-size="9.1" font-weight="bold" lengthAdjust="spacing" textLength="4.9" x="52.15" y="219.3495">5</text><text fill="#000000" font-family="sans-serif" font-size="9.1" lengthAdjust="spacing" textLength="157.5" x="59.85" y="219.3495">shows the list of all jobs inserted so far</text><polygon fill="#181818" points="58.45,242.1371,51.45,244.9371,58.45,247.7371,55.65,244.9371" style="stroke:#181818;stroke-width:0.6999999999999998;"/><line style="stroke:#181818;stroke-width:0.6999999999999998;" x1="54.25" x2="473.55" y1="244.9371" y2="244.9371"/><text fill="#000000" font-family="sans-serif" font-size="9.1" font-weight="bold" lengthAdjust="spacing" textLength="4.9" x="62.65" y="241.2532">6</text><text fill="#000000" font-family="sans-serif" font-size="9.1" lengthAdjust="spacing" textLength="69.3" x="70.35" y="241.2532">selects an option</text><path d="M7,255.4371 L49.7,255.4371 L49.7,261.9408 L42.7,268.9408 L7,268.9408 L7,255.4371 " fill="#EEEEEE" style="stroke:#000000;stroke-width:1.0499999999999998;"/><rect fill="none" height="35.4074" style="stroke:#000000;stroke-width:1.0499999999999998;" width="490.35" x="7" y="255.4371"/><text fill="#000000" font-family="sans-serif" font-size="9.1" font-weight="bold" lengthAdjust="spacing" textLength="11.2" x="17.5" y="265.9569">alt</text><text fill="#000000" font-family="sans-serif" font-size="7.7" font-weight="bold" lengthAdjust="spacing" textLength="145.6" x="60.2" y="265.1462">[HRM decides not to create a new job]</text><polygon fill="#181818" points="465.85,282.4445,472.85,285.2445,465.85,288.0445,468.65,285.2445" style="stroke:#181818;stroke-width:0.6999999999999998;"/><line style="stroke:#181818;stroke-width:0.6999999999999998;stroke-dasharray:2.0,2.0;" x1="50.75" x2="470.05" y1="285.2445" y2="285.2445"/><text fill="#000000" font-family="sans-serif" font-size="9.1" font-weight="bold" lengthAdjust="spacing" textLength="4.9" x="55.65" y="281.5606">7</text><text fill="#000000" font-family="sans-serif" font-size="9.1" lengthAdjust="spacing" textLength="105.7" x="63.35" y="281.5606">display operation success</text><polygon fill="#181818" points="465.85,309.2482,472.85,312.0482,465.85,314.8482,468.65,312.0482" style="stroke:#181818;stroke-width:0.6999999999999998;"/><line style="stroke:#181818;stroke-width:0.6999999999999998;stroke-dasharray:2.0,2.0;" x1="47.25" x2="470.05" y1="312.0482" y2="312.0482"/><text fill="#000000" font-family="sans-serif" font-size="9.1" font-weight="bold" lengthAdjust="spacing" textLength="4.9" x="52.15" y="308.3644">8</text><text fill="#000000" font-family="sans-serif" font-size="9.1" lengthAdjust="spacing" textLength="55.3" x="59.85" y="308.3644">requests data</text><polygon fill="#181818" points="58.45,331.152,51.45,333.952,58.45,336.752,55.65,333.952" style="stroke:#181818;stroke-width:0.6999999999999998;"/><line style="stroke:#181818;stroke-width:0.6999999999999998;" x1="54.25" x2="473.55" y1="333.952" y2="333.952"/><text fill="#000000" font-family="sans-serif" font-size="9.1" font-weight="bold" lengthAdjust="spacing" textLength="4.9" x="62.65" y="330.2681">9</text><text fill="#000000" font-family="sans-serif" font-size="9.1" lengthAdjust="spacing" textLength="165.9" x="70.35" y="330.2681">types requested data (name, description)</text><polygon fill="#181818" points="465.85,353.0557,472.85,355.8557,465.85,358.6557,468.65,355.8557" style="stroke:#181818;stroke-width:0.6999999999999998;"/><line style="stroke:#181818;stroke-width:0.6999999999999998;stroke-dasharray:2.0,2.0;" x1="47.25" x2="470.05" y1="355.8557" y2="355.8557"/><text fill="#000000" font-family="sans-serif" font-size="9.1" font-weight="bold" lengthAdjust="spacing" textLength="9.8" x="52.15" y="352.1718">10</text><text fill="#000000" font-family="sans-serif" font-size="9.1" lengthAdjust="spacing" textLength="158.9" x="64.75" y="352.1718">shows inserted data and ask to confirm</text><polygon fill="#181818" points="58.45,374.9594,51.45,377.7594,58.45,380.5594,55.65,377.7594" style="stroke:#181818;stroke-width:0.6999999999999998;"/><line style="stroke:#181818;stroke-width:0.6999999999999998;" x1="54.25" x2="473.55" y1="377.7594" y2="377.7594"/><text fill="#000000" font-family="sans-serif" font-size="9.1" font-weight="bold" lengthAdjust="spacing" textLength="9.8" x="62.65" y="374.0755">11</text><text fill="#000000" font-family="sans-serif" font-size="9.1" lengthAdjust="spacing" textLength="49.7" x="75.25" y="374.0755">confirm data</text><polygon fill="#181818" points="228.55,396.8631,235.55,399.6631,228.55,402.4631,231.35,399.6631" style="stroke:#181818;stroke-width:0.6999999999999998;"/><line style="stroke:#181818;stroke-width:0.6999999999999998;" x1="50.75" x2="232.75" y1="399.6631" y2="399.6631"/><text fill="#000000" font-family="sans-serif" font-size="9.1" font-weight="bold" lengthAdjust="spacing" textLength="9.8" x="55.65" y="395.9792">12</text><text fill="#000000" font-family="sans-serif" font-size="9.1" lengthAdjust="spacing" textLength="156.8" x="68.25" y="395.9792">createJob(name, description,reference)</text><rect fill="none" height="41.449" style="stroke:#000000;stroke-width:1.0499999999999998;" width="105.7" x="184.1" y="405.2631"/><path d="M184.1,405.2631 L227.5,405.2631 L227.5,411.5631 L220.5,418.5631 L184.1,418.5631 L184.1,405.2631 " fill="#EEEEEE" style="stroke:#000000;stroke-width:1.3999999999999997;"/><text fill="#000000" font-family="sans-serif" font-size="9.1" font-weight="bold" lengthAdjust="spacing" textLength="11.9" x="193.2" y="416.4829">ref</text><text fill="#000000" font-family="sans-serif" font-size="8.4" lengthAdjust="spacing" textLength="45.5" x="214.2" y="430.4275">Get Job List</text><text fill="#000000" font-family="sans-serif" font-size="8.4" lengthAdjust="spacing" textLength="2.1" x="235.9" y="441.6002">&#160;</text><line style="stroke:#181818;stroke-width:0.6999999999999998;stroke-dasharray:2.0,2.0;" x1="243.95" x2="273.35" y1="470.0158" y2="470.0158"/><line style="stroke:#181818;stroke-width:0.6999999999999998;stroke-dasharray:2.0,2.0;" x1="273.35" x2="273.35" y1="470.0158" y2="479.1158"/><line style="stroke:#181818;stroke-width:0.6999999999999998;stroke-dasharray:2.0,2.0;" x1="240.45" x2="273.35" y1="479.1158" y2="479.1158"/><polygon fill="#181818" points="247.45,476.3158,240.45,479.1158,247.45,481.9158,244.65,479.1158" style="stroke:#181818;stroke-width:0.6999999999999998;"/><text fill="#000000" font-family="sans-serif" font-size="9.1" font-weight="bold" lengthAdjust="spacing" textLength="9.8" x="248.85" y="466.3319">13</text><text fill="#000000" font-family="sans-serif" font-size="9.1" lengthAdjust="spacing" textLength="26.6" x="261.45" y="466.3319">jobList</text><line style="stroke:#181818;stroke-width:0.6999999999999998;" x1="240.45" x2="273.35" y1="494.0195" y2="494.0195"/><line style="stroke:#181818;stroke-width:0.6999999999999998;" x1="273.35" x2="273.35" y1="494.0195" y2="503.1195"/><line style="stroke:#181818;stroke-width:0.6999999999999998;" x1="244.65" x2="273.35" y1="503.1195" y2="503.1195"/><polygon fill="#181818" points="251.65,500.3195,244.65,503.1195,251.65,505.9195,248.85,503.1195" style="stroke:#181818;stroke-width:0.6999999999999998;"/><text fill="#000000" font-family="sans-serif" font-size="9.1" font-weight="bold" lengthAdjust="spacing" textLength="9.8" x="248.85" y="490.3356">14</text><text fill="#000000" font-family="sans-serif" font-size="9.1" lengthAdjust="spacing" textLength="112.7" x="261.45" y="490.3356">getEmployeeFromSession()</text><rect fill="none" height="41.449" style="stroke:#000000;stroke-width:1.0499999999999998;" width="105.7" x="184.1" y="512.2195"/><path d="M184.1,512.2195 L227.5,512.2195 L227.5,518.5195 L220.5,525.5195 L184.1,525.5195 L184.1,512.2195 " fill="#EEEEEE" style="stroke:#000000;stroke-width:1.3999999999999997;"/><text fill="#000000" font-family="sans-serif" font-size="9.1" font-weight="bold" lengthAdjust="spacing" textLength="11.9" x="193.2" y="523.4394">ref</text><text fill="#000000" font-family="sans-serif" font-size="8.4" lengthAdjust="spacing" textLength="53.9" x="210" y="537.384">Get Employee</text><text fill="#000000" font-family="sans-serif" font-size="8.4" lengthAdjust="spacing" textLength="2.1" x="235.9" y="548.5566">&#160;</text><line style="stroke:#181818;stroke-width:0.6999999999999998;" x1="243.95" x2="273.35" y1="576.9723" y2="576.9723"/><line style="stroke:#181818;stroke-width:0.6999999999999998;" x1="273.35" x2="273.35" y1="576.9723" y2="586.0723"/><line style="stroke:#181818;stroke-width:0.6999999999999998;" x1="240.45" x2="273.35" y1="586.0723" y2="586.0723"/><polygon fill="#181818" points="247.45,583.2723,240.45,586.0723,247.45,588.8723,244.65,586.0723" style="stroke:#181818;stroke-width:0.6999999999999998;"/><text fill="#000000" font-family="sans-serif" font-size="9.1" font-weight="bold" lengthAdjust="spacing" textLength="9.8" x="248.85" y="573.2884">15</text><text fill="#000000" font-family="sans-serif" font-size="9.1" lengthAdjust="spacing" textLength="39.2" x="261.45" y="573.2884">employee</text><polygon fill="#181818" points="465.85,601.676,472.85,604.476,465.85,607.276,468.65,604.476" style="stroke:#181818;stroke-width:0.6999999999999998;"/><line style="stroke:#181818;stroke-width:0.6999999999999998;" x1="240.45" x2="470.05" y1="604.476" y2="604.476"/><text fill="#000000" font-family="sans-serif" font-size="9.1" font-weight="bold" lengthAdjust="spacing" textLength="9.8" x="245.35" y="600.7921">16</text><text fill="#000000" font-family="sans-serif" font-size="9.1" lengthAdjust="spacing" textLength="204.4" x="257.95" y="600.7921">createJob(name, description,reference,jobList,hrm)</text><polygon fill="#181818" points="508.2,623.5797,515.2,626.3797,508.2,629.1797,511,626.3797" style="stroke:#181818;stroke-width:0.6999999999999998;"/><line style="stroke:#181818;stroke-width:0.6999999999999998;" x1="240.45" x2="512.4" y1="626.3797" y2="626.3797"/><text fill="#000000" font-family="sans-serif" font-size="9.1" font-weight="bold" lengthAdjust="spacing" textLength="9.8" x="245.35" y="622.6958">17</text><text fill="#000000" font-family="sans-serif" font-size="9.1" lengthAdjust="spacing" textLength="32.2" x="257.95" y="622.6958">saveJob</text><rect fill="none" height="41.449" style="stroke:#000000;stroke-width:1.0499999999999998;" width="47.6" x="463.05" y="631.9797"/><path d="M463.05,631.9797 L506.45,631.9797 L506.45,638.2797 L499.45,645.2797 L463.05,645.2797 L463.05,631.9797 " fill="#EEEEEE" style="stroke:#000000;stroke-width:1.3999999999999997;"/><text fill="#000000" font-family="sans-serif" font-size="9.1" font-weight="bold" lengthAdjust="spacing" textLength="11.9" x="472.15" y="643.1995">ref</text><text fill="#000000" font-family="sans-serif" font-size="8.4" lengthAdjust="spacing" textLength="42" x="465.85" y="657.1441">Create Job</text><text fill="#000000" font-family="sans-serif" font-size="8.4" lengthAdjust="spacing" textLength="2.1" x="485.8" y="668.3168">&#160;</text><polygon fill="#181818" points="248.15,690.4324,241.15,693.2324,248.15,696.0324,245.35,693.2324" style="stroke:#181818;stroke-width:0.6999999999999998;"/><line style="stroke:#181818;stroke-width:0.6999999999999998;stroke-dasharray:2.0,2.0;" x1="243.95" x2="473.55" y1="693.2324" y2="693.2324"/><text fill="#000000" font-family="sans-serif" font-size="9.1" font-weight="bold" lengthAdjust="spacing" textLength="9.8" x="252.35" y="689.5485">18</text><text fill="#000000" font-family="sans-serif" font-size="9.1" lengthAdjust="spacing" textLength="11.9" x="264.95" y="689.5485">job</text><polygon fill="#181818" points="58.45,712.3361,51.45,715.1361,58.45,717.9361,55.65,715.1361" style="stroke:#181818;stroke-width:0.6999999999999998;"/><line style="stroke:#181818;stroke-width:0.6999999999999998;stroke-dasharray:2.0,2.0;" x1="54.25" x2="236.25" y1="715.1361" y2="715.1361"/><text fill="#000000" font-family="sans-serif" font-size="9.1" font-weight="bold" lengthAdjust="spacing" textLength="9.8" x="62.65" y="711.4522">19</text><text fill="#000000" font-family="sans-serif" font-size="9.1" lengthAdjust="spacing" textLength="11.9" x="75.25" y="711.4522">job</text><polygon fill="#181818" points="469.35,734.2398,476.35,737.0398,469.35,739.8398,472.15,737.0398" style="stroke:#181818;stroke-width:0.6999999999999998;"/><line style="stroke:#181818;stroke-width:0.6999999999999998;stroke-dasharray:2.0,2.0;" x1="47.25" x2="473.55" y1="737.0398" y2="737.0398"/><text fill="#000000" font-family="sans-serif" font-size="9.1" font-weight="bold" lengthAdjust="spacing" textLength="9.8" x="52.15" y="733.356">20</text><text fill="#000000" font-family="sans-serif" font-size="9.1" lengthAdjust="spacing" textLength="110.6" x="64.75" y="733.356">displays operation success</text><!--SRC=[jLNBTXen3DtxAtJO17B83x3eegHfoA6RG7RTc1a13XvhQXle_7rbCmp3F2XTr1iuMBgwkhuIRgTCBgtC82D3oTPIXk3j7eMhRdAPxEG65xxG21OJByr6rmFSLgPqL6O3QwaT2Y7tdim-Mw4Luc6hKeGraL_HRo4JJnO6h-y_1Y0TyATW3AyIbKlZOJ2PMfGUtsZrCOiH7xE-W2aPRqbhj35mkdoVNuTkRVRJJ7fBVT9ghfoFb_FPOYa2ENLWy1WhW0z_WQSlJ08c7BPpu0cII00a63m2WvmYgrmc77y8X_CuEp1xV6I4KsR7BTzjqB-T20r7LOJ5DT01xQavg9tlw87Z8IHSwg59GyxbXufL1BX2Y7MVpisLObGHAVQa1jAS58IPyCFJaJNP8cXE1bg3r3fWEL36eVMOWYDsXHKDqBDATO4TQZQN0sc0Sg_8T0ihjOzfAIRiB0U6VEUpT39EbSkrBBW0MXbgWDid2JedIlrwEhNuQu-EoQNIotkQyKNEtCeqbY7amT383CUSwXAhOekZs-PfA5s96j4alpQRCZPFPgriTW-nClJIo5-SM_cMxTRcFsQxeKMJuAZFT0zjrzLTl-GMfXoz8LjyBPulq4DVktbkIdQ7mszFqEr9wfserlYKdJG7wEOGTIlnBSir5OWll8GNRCcWmNzezboclzdkNYkgU0RuvrxPXtUwQLpgEUObFke62pixJ8Oy133HBLIroJjr2hTTCft-Ow05szeHvnC7xCeCVUAq2DNsyCt4rfjUzaErrbpFNckiX0QTFm00]--></g></svg>