<?xml version="1.0" encoding="us-ascii" standalone="no"?><svg xmlns="http://www.w3.org/2000/svg" xmlns:xlink="http://www.w3.org/1999/xlink" contentStyleType="text/css" height="380px" preserveAspectRatio="none" style="width:648px;height:380px;background:#FFFFFF;" version="1.1" viewBox="0 0 648 380" width="648px" zoomAndPan="magnify"><defs/><g><rect fill="#FFFFFF" height="224.4063" style="stroke:#181818;stroke-width:1.0;" width="10" x="295" y="90.5332"/><rect fill="#FFFFFF" height="87.582" style="stroke:#181818;stroke-width:1.0;" width="10" x="300" y="218.3574"/><rect fill="none" height="170.1152" style="stroke:#000000;stroke-width:1.5;" width="376" x="266" y="105.5332"/><line style="stroke:#181818;stroke-width:0.5;stroke-dasharray:5.0,5.0;" x1="300" x2="300" y1="57.2422" y2="323.9395"/><line style="stroke:#181818;stroke-width:0.5;stroke-dasharray:5.0,5.0;" x1="612" x2="612" y1="165.9453" y2="323.9395"/><rect fill="#E3E3E3" height="51.2422" rx="2.5" ry="2.5" style="stroke:#181818;stroke-width:0.5;" width="48" x="276" y="5"/><text fill="#000000" font-family="sans-serif" font-size="14" lengthAdjust="spacing" textLength="24" x="288" y="27.1074">hrm</text><text fill="#000000" font-family="sans-serif" font-size="14" lengthAdjust="spacing" textLength="34" x="283" y="45.7285">:HRM</text><rect fill="#E3E3E3" height="51.2422" rx="2.5" ry="2.5" style="stroke:#181818;stroke-width:0.5;" width="48" x="276" y="322.9395"/><text fill="#000000" font-family="sans-serif" font-size="14" lengthAdjust="spacing" textLength="24" x="288" y="345.0469">hrm</text><text fill="#000000" font-family="sans-serif" font-size="14" lengthAdjust="spacing" textLength="34" x="283" y="363.668">:HRM</text><rect fill="#E3E3E3" height="51.2422" rx="2.5" ry="2.5" style="stroke:#181818;stroke-width:0.5;" width="40" x="592" y="322.9395"/><text fill="#000000" font-family="sans-serif" font-size="14" lengthAdjust="spacing" textLength="19" x="602.5" y="345.0469">job</text><text fill="#000000" font-family="sans-serif" font-size="14" lengthAdjust="spacing" textLength="26" x="599" y="363.668">:Job</text><rect fill="#FFFFFF" height="224.4063" style="stroke:#181818;stroke-width:1.0;" width="10" x="295" y="90.5332"/><rect fill="#FFFFFF" height="87.582" style="stroke:#181818;stroke-width:1.0;" width="10" x="300" y="218.3574"/><polygon fill="#181818" points="283,86.5332,293,90.5332,283,94.5332,287,90.5332" style="stroke:#181818;stroke-width:1.0;"/><line style="stroke:#181818;stroke-width:1.0;" x1="0" x2="289" y1="90.5332" y2="90.5332"/><text fill="#000000" font-family="sans-serif" font-size="13" font-weight="bold" lengthAdjust="spacing" textLength="14" x="7" y="85.2705">16</text><text fill="#000000" font-family="sans-serif" font-size="13" lengthAdjust="spacing" textLength="258" x="25" y="85.2705">createJob(name, description,reference, hrm )</text><path d="M266,105.5332 L380,105.5332 L380,114.8242 L370,124.8242 L266,124.8242 L266,105.5332 " fill="#EEEEEE" style="stroke:#000000;stroke-width:1.5;"/><rect fill="none" height="170.1152" style="stroke:#000000;stroke-width:1.5;" width="376" x="266" y="105.5332"/><text fill="#000000" font-family="sans-serif" font-size="13" font-weight="bold" lengthAdjust="spacing" textLength="69" x="281" y="120.5615">Create Job</text><polygon fill="#181818" points="580,144.1152,590,148.1152,580,152.1152,584,148.1152" style="stroke:#181818;stroke-width:1.0;"/><line style="stroke:#181818;stroke-width:1.0;" x1="305" x2="586" y1="148.1152" y2="148.1152"/><text fill="#000000" font-family="sans-serif" font-size="13" font-weight="bold" lengthAdjust="spacing" textLength="25" x="312" y="142.8525">16.1</text><text fill="#000000" font-family="sans-serif" font-size="13" lengthAdjust="spacing" textLength="234" x="341" y="142.8525">create(name, description,reference, hrm)</text><rect fill="#E3E3E3" height="51.2422" rx="2.5" ry="2.5" style="stroke:#181818;stroke-width:0.5;" width="40" x="592" y="124.8242"/><text fill="#000000" font-family="sans-serif" font-size="14" lengthAdjust="spacing" textLength="19" x="602.5" y="146.9316">job</text><text fill="#000000" font-family="sans-serif" font-size="14" lengthAdjust="spacing" textLength="26" x="599" y="165.5527">:Job</text><line style="stroke:#181818;stroke-width:1.0;" x1="305" x2="352" y1="205.3574" y2="205.3574"/><line style="stroke:#181818;stroke-width:1.0;" x1="352" x2="352" y1="205.3574" y2="218.3574"/><line style="stroke:#181818;stroke-width:1.0;" x1="311" x2="352" y1="218.3574" y2="218.3574"/><polygon fill="#181818" points="321,214.3574,311,218.3574,321,222.3574,317,218.3574" style="stroke:#181818;stroke-width:1.0;"/><text fill="#000000" font-family="sans-serif" font-size="13" font-weight="bold" lengthAdjust="spacing" textLength="25" x="317" y="200.0947">16.2</text><text fill="#000000" font-family="sans-serif" font-size="13" lengthAdjust="spacing" textLength="70" x="346" y="200.0947">addJob (job)</text><line style="stroke:#181818;stroke-width:1.0;" x1="310" x2="352" y1="254.6484" y2="254.6484"/><line style="stroke:#181818;stroke-width:1.0;" x1="352" x2="352" y1="254.6484" y2="267.6484"/><line style="stroke:#181818;stroke-width:1.0;" x1="311" x2="352" y1="267.6484" y2="267.6484"/><polygon fill="#181818" points="321,263.6484,311,267.6484,321,271.6484,317,267.6484" style="stroke:#181818;stroke-width:1.0;"/><text fill="#000000" font-family="sans-serif" font-size="13" font-weight="bold" lengthAdjust="spacing" textLength="25" x="317" y="249.3857">16.3</text><text fill="#000000" font-family="sans-serif" font-size="13" lengthAdjust="spacing" textLength="104" x="346" y="249.3857">validateTask(task)</text><polygon fill="#181818" points="11,301.9395,1,305.9395,11,309.9395,7,305.9395" style="stroke:#181818;stroke-width:1.0;"/><line style="stroke:#181818;stroke-width:1.0;stroke-dasharray:2.0,2.0;" x1="5" x2="294" y1="305.9395" y2="305.9395"/><text fill="#000000" font-family="sans-serif" font-size="13" font-weight="bold" lengthAdjust="spacing" textLength="14" x="17" y="300.6768">17</text><text fill="#000000" font-family="sans-serif" font-size="13" lengthAdjust="spacing" textLength="25" x="35" y="300.6768">task</text><!--SRC=[XL1FIyCm5B_dKpnsiHshi8j2aHtq8WCHrAENr-IjZMsIagGJlxsl6Sws3imXXT__DBJQzkZHW77MoSOxGn3zG2AScHvbYpMzng-Em9ECQEjkAWWDAlUfRGq7x089mN3KKlTe8wmQRzvj-VZoj08CmDyv_U4gflUkIlJ- -Lu87AApWwd8m_P65BlHL8BqX95Oc5aqj055GNhTH-tinjE1F5d9CDT1liYutWgKKH_PdmO0dzgxeOU750gSAX8w7bO0b_AKzVgdzj_EV6bFcr4fZeQC7vd_5lpPSibwn4uh5hrXQBF8LowkfjfPo8mv9vsYvgIYcN5ENdGj72D4LfrUC_tBjmcvAueKKyAuMIphlW40]--></g></svg>