<?xml version="1.0" encoding="us-ascii" standalone="no"?><svg xmlns="http://www.w3.org/2000/svg" xmlns:xlink="http://www.w3.org/1999/xlink" contentStyleType="text/css" height="801.5px" preserveAspectRatio="none" style="width:845px;height:801px;background:#FFFFFF;" version="1.1" viewBox="0 0 845 801" width="845.6px" zoomAndPan="magnify"><defs/><g><rect fill="#FFFFFF" height="665.7164" style="stroke:#181818;stroke-width:0.6999999999999998;" width="7" x="12.6" y="65.5348"/><rect fill="#FFFFFF" height="205.7645" style="stroke:#181818;stroke-width:0.6999999999999998;" width="7" x="293.3" y="81.8385"/><rect fill="#FFFFFF" height="43.8074" style="stroke:#181818;stroke-width:0.6999999999999998;" width="7" x="293.3" y="687.4437"/><rect fill="#FFFFFF" height="603.2742" style="stroke:#181818;stroke-width:0.6999999999999998;" width="7" x="448.7" y="134.277"/><rect fill="#FFFFFF" height="45.4385" style="stroke:#181818;stroke-width:0.6999999999999998;" width="7" x="603.4" y="110.7422"/><rect fill="#FFFFFF" height="294.726" style="stroke:#181818;stroke-width:0.6999999999999998;" width="7" x="603.4" y="414.6215"/><rect fill="#FFFFFF" height="21.9037" style="stroke:#181818;stroke-width:0.6999999999999998;" width="7" x="694.4" y="309.5066"/><rect fill="#FFFFFF" height="21.9037" style="stroke:#181818;stroke-width:0.6999999999999998;" width="7" x="769.3" y="353.3141"/><rect fill="#FFFFFF" height="83.0074" style="stroke:#181818;stroke-width:0.6999999999999998;" width="7" x="824.25" y="414.6215"/><line style="stroke:#181818;stroke-width:0.3499999999999999;stroke-dasharray:5.0,5.0;" x1="16.1" x2="16.1" y1="58.5348" y2="743.8512"/><line style="stroke:#181818;stroke-width:0.3499999999999999;stroke-dasharray:5.0,5.0;" x1="296.45" x2="296.45" y1="58.5348" y2="743.8512"/><line style="stroke:#181818;stroke-width:0.3499999999999999;stroke-dasharray:5.0,5.0;" x1="451.85" x2="451.85" y1="109.7059" y2="743.8512"/><line style="stroke:#181818;stroke-width:0.3499999999999999;stroke-dasharray:5.0,5.0;" x1="606.9" x2="606.9" y1="58.5348" y2="743.8512"/><line style="stroke:#181818;stroke-width:0.3499999999999999;stroke-dasharray:5.0,5.0;" x1="697.55" x2="697.55" y1="58.5348" y2="743.8512"/><line style="stroke:#181818;stroke-width:0.3499999999999999;stroke-dasharray:5.0,5.0;" x1="772.45" x2="772.45" y1="58.5348" y2="743.8512"/><line style="stroke:#181818;stroke-width:0.3499999999999999;stroke-dasharray:5.0,5.0;" x1="827.75" x2="827.75" y1="58.5348" y2="743.8512"/><text fill="#000000" font-family="sans-serif" font-size="9.8" lengthAdjust="spacing" textLength="21" x="3.5" y="56.0752">HRM</text><ellipse cx="16.1" cy="9.45" fill="#E3E3E3" rx="5.6" ry="5.6" style="stroke:#181818;stroke-width:0.3499999999999999;"/><path d="M16.1,15.05 L16.1,33.95 M7,20.65 L25.2,20.65 M16.1,33.95 L7,44.45 M16.1,33.95 L25.2,44.45 " fill="none" style="stroke:#181818;stroke-width:0.3499999999999999;"/><text fill="#000000" font-family="sans-serif" font-size="9.8" lengthAdjust="spacing" textLength="21" x="3.5" y="753.7264">HRM</text><ellipse cx="16.1" cy="762.1359" fill="#E3E3E3" rx="5.6" ry="5.6" style="stroke:#181818;stroke-width:0.3499999999999999;"/><path d="M16.1,767.7359 L16.1,786.6359 M7,773.3359 L25.2,773.3359 M16.1,786.6359 L7,797.1359 M16.1,786.6359 L25.2,797.1359 " fill="none" style="stroke:#181818;stroke-width:0.3499999999999999;"/><rect fill="#E3E3E3" height="22.8348" rx="1.75" ry="1.75" style="stroke:#181818;stroke-width:0.3499999999999999;" width="73.5" x="260.05" y="35"/><text fill="#000000" font-family="sans-serif" font-size="9.8" lengthAdjust="spacing" textLength="63.7" x="264.95" y="50.4752">:RegisterJobUI</text><rect fill="#E3E3E3" height="22.8348" rx="1.75" ry="1.75" style="stroke:#181818;stroke-width:0.3499999999999999;" width="73.5" x="260.05" y="743.1512"/><text fill="#000000" font-family="sans-serif" font-size="9.8" lengthAdjust="spacing" textLength="63.7" x="264.95" y="758.6264">:RegisterJobUI</text><rect fill="#E3E3E3" height="22.8348" rx="1.75" ry="1.75" style="stroke:#181818;stroke-width:0.3499999999999999;" width="108.5" x="397.95" y="743.1512"/><text fill="#000000" font-family="sans-serif" font-size="9.8" lengthAdjust="spacing" textLength="98.7" x="402.85" y="758.6264">:RegisterJobController</text><rect fill="#E3E3E3" height="22.8348" rx="1.75" ry="1.75" style="stroke:#181818;stroke-width:0.3499999999999999;" width="75.6" x="569.1" y="35"/><text fill="#000000" font-family="sans-serif" font-size="9.8" lengthAdjust="spacing" textLength="65.8" x="574" y="50.4752">:JobRepository</text><rect fill="#E3E3E3" height="22.8348" rx="1.75" ry="1.75" style="stroke:#181818;stroke-width:0.3499999999999999;" width="75.6" x="569.1" y="743.1512"/><text fill="#000000" font-family="sans-serif" font-size="9.8" lengthAdjust="spacing" textLength="65.8" x="574" y="758.6264">:JobRepository</text><rect fill="#E3E3E3" height="22.8348" rx="1.75" ry="1.75" style="stroke:#181818;stroke-width:0.3499999999999999;" width="67.9" x="663.95" y="35"/><text fill="#000000" font-family="sans-serif" font-size="9.8" lengthAdjust="spacing" textLength="58.1" x="668.85" y="50.4752">:Repositories</text><rect fill="#E3E3E3" height="22.8348" rx="1.75" ry="1.75" style="stroke:#181818;stroke-width:0.3499999999999999;" width="67.9" x="663.95" y="743.1512"/><text fill="#000000" font-family="sans-serif" font-size="9.8" lengthAdjust="spacing" textLength="58.1" x="668.85" y="758.6264">:Repositories</text><rect fill="#E3E3E3" height="35.8695" rx="1.75" ry="1.75" style="stroke:#181818;stroke-width:0.3499999999999999;" width="67.9" x="738.85" y="21.9652"/><text fill="#000000" font-family="sans-serif" font-size="9.8" lengthAdjust="spacing" textLength="51.8" x="746.9" y="37.4404">repositories</text><text fill="#000000" font-family="sans-serif" font-size="9.8" lengthAdjust="spacing" textLength="58.1" x="743.75" y="50.4752">:Repositories</text><rect fill="#E3E3E3" height="35.8695" rx="1.75" ry="1.75" style="stroke:#181818;stroke-width:0.3499999999999999;" width="67.9" x="738.85" y="743.1512"/><text fill="#000000" font-family="sans-serif" font-size="9.8" lengthAdjust="spacing" textLength="51.8" x="746.9" y="758.6264">repositories</text><text fill="#000000" font-family="sans-serif" font-size="9.8" lengthAdjust="spacing" textLength="58.1" x="743.75" y="771.6611">:Repositories</text><rect fill="#E3E3E3" height="35.8695" rx="1.75" ry="1.75" style="stroke:#181818;stroke-width:0.3499999999999999;" width="28" x="813.75" y="21.9652"/><text fill="#000000" font-family="sans-serif" font-size="9.8" lengthAdjust="spacing" textLength="13.3" x="821.1" y="37.4404">job</text><text fill="#000000" font-family="sans-serif" font-size="9.8" lengthAdjust="spacing" textLength="18.2" x="818.65" y="50.4752">:Job</text><rect fill="#E3E3E3" height="35.8695" rx="1.75" ry="1.75" style="stroke:#181818;stroke-width:0.3499999999999999;" width="28" x="813.75" y="743.1512"/><text fill="#000000" font-family="sans-serif" font-size="9.8" lengthAdjust="spacing" textLength="13.3" x="821.1" y="758.6264">job</text><text fill="#000000" font-family="sans-serif" font-size="9.8" lengthAdjust="spacing" textLength="18.2" x="818.65" y="771.6611">:Job</text><rect fill="#FFFFFF" height="665.7164" style="stroke:#181818;stroke-width:0.6999999999999998;" width="7" x="12.6" y="65.5348"/><rect fill="#FFFFFF" height="205.7645" style="stroke:#181818;stroke-width:0.6999999999999998;" width="7" x="293.3" y="81.8385"/><rect fill="#FFFFFF" height="43.8074" style="stroke:#181818;stroke-width:0.6999999999999998;" width="7" x="293.3" y="687.4437"/><rect fill="#FFFFFF" height="603.2742" style="stroke:#181818;stroke-width:0.6999999999999998;" width="7" x="448.7" y="134.277"/><rect fill="#FFFFFF" height="45.4385" style="stroke:#181818;stroke-width:0.6999999999999998;" width="7" x="603.4" y="110.7422"/><rect fill="#FFFFFF" height="294.726" style="stroke:#181818;stroke-width:0.6999999999999998;" width="7" x="603.4" y="414.6215"/><rect fill="#FFFFFF" height="21.9037" style="stroke:#181818;stroke-width:0.6999999999999998;" width="7" x="694.4" y="309.5066"/><rect fill="#FFFFFF" height="21.9037" style="stroke:#181818;stroke-width:0.6999999999999998;" width="7" x="769.3" y="353.3141"/><rect fill="#FFFFFF" height="83.0074" style="stroke:#181818;stroke-width:0.6999999999999998;" width="7" x="824.25" y="414.6215"/><polygon fill="#181818" points="284.9,79.0385,291.9,81.8385,284.9,84.6385,287.7,81.8385" style="stroke:#181818;stroke-width:0.6999999999999998;"/><line style="stroke:#181818;stroke-width:0.6999999999999998;" x1="19.6" x2="289.1" y1="81.8385" y2="81.8385"/><text fill="#000000" font-family="sans-serif" font-size="9.1" font-weight="bold" lengthAdjust="spacing" textLength="4.9" x="24.5" y="78.1546">1</text><text fill="#000000" font-family="sans-serif" font-size="9.1" lengthAdjust="spacing" textLength="99.4" x="32.2" y="78.1546">asks to create a new job</text><polygon fill="#181818" points="389.55,100.9422,396.55,103.7422,389.55,106.5422,392.35,103.7422" style="stroke:#181818;stroke-width:0.6999999999999998;"/><line style="stroke:#181818;stroke-width:0.6999999999999998;" x1="300.3" x2="393.75" y1="103.7422" y2="103.7422"/><text fill="#000000" font-family="sans-serif" font-size="9.1" font-weight="bold" lengthAdjust="spacing" textLength="4.9" x="305.2" y="100.0583">2</text><text fill="#000000" font-family="sans-serif" font-size="9.1" lengthAdjust="spacing" textLength="25.2" x="312.9" y="100.0583">create</text><rect fill="#E3E3E3" height="22.8348" rx="1.75" ry="1.75" style="stroke:#181818;stroke-width:0.3499999999999999;" width="108.5" x="397.95" y="87.4385"/><text fill="#000000" font-family="sans-serif" font-size="9.8" lengthAdjust="spacing" textLength="98.7" x="402.85" y="102.9137">:RegisterJobController</text><polygon fill="#181818" points="595,131.477,602,134.277,595,137.077,597.8,134.277" style="stroke:#181818;stroke-width:0.6999999999999998;"/><line style="stroke:#181818;stroke-width:0.6999999999999998;" x1="455.7" x2="599.2" y1="134.277" y2="134.277"/><text fill="#000000" font-family="sans-serif" font-size="9.1" font-weight="bold" lengthAdjust="spacing" textLength="4.9" x="460.6" y="130.5931">3</text><text fill="#000000" font-family="sans-serif" font-size="9.1" lengthAdjust="spacing" textLength="70" x="468.3" y="130.5931">getJobRepository</text><polygon fill="#181818" points="463.4,153.3807,456.4,156.1807,463.4,158.9807,460.6,156.1807" style="stroke:#181818;stroke-width:0.6999999999999998;"/><line style="stroke:#181818;stroke-width:0.6999999999999998;" x1="459.2" x2="606.2" y1="156.1807" y2="156.1807"/><text fill="#000000" font-family="sans-serif" font-size="9.1" font-weight="bold" lengthAdjust="spacing" textLength="4.9" x="467.6" y="152.4968">4</text><text fill="#000000" font-family="sans-serif" font-size="9.1" lengthAdjust="spacing" textLength="55.3" x="475.3" y="152.4968">jobRepository</text><polygon fill="#181818" points="27.3,175.2844,20.3,178.0844,27.3,180.8844,24.5,178.0844" style="stroke:#181818;stroke-width:0.6999999999999998;"/><line style="stroke:#181818;stroke-width:0.6999999999999998;stroke-dasharray:2.0,2.0;" x1="23.1" x2="292.6" y1="178.0844" y2="178.0844"/><text fill="#000000" font-family="sans-serif" font-size="9.1" font-weight="bold" lengthAdjust="spacing" textLength="4.9" x="31.5" y="174.4005">5</text><text fill="#000000" font-family="sans-serif" font-size="9.1" lengthAdjust="spacing" textLength="249.2" x="39.2" y="174.4005">shows all jobs category existing to date or asks to create one</text><polygon fill="#181818" points="284.9,197.1881,291.9,199.9881,284.9,202.7881,287.7,199.9881" style="stroke:#181818;stroke-width:0.6999999999999998;"/><line style="stroke:#181818;stroke-width:0.6999999999999998;stroke-dasharray:2.0,2.0;" x1="19.6" x2="289.1" y1="199.9881" y2="199.9881"/><text fill="#000000" font-family="sans-serif" font-size="9.1" font-weight="bold" lengthAdjust="spacing" textLength="4.9" x="24.5" y="196.3042">6</text><text fill="#000000" font-family="sans-serif" font-size="9.1" lengthAdjust="spacing" textLength="69.3" x="32.2" y="196.3042">selects an option</text><polygon fill="#181818" points="27.3,219.0918,20.3,221.8918,27.3,224.6918,24.5,221.8918" style="stroke:#181818;stroke-width:0.6999999999999998;"/><line style="stroke:#181818;stroke-width:0.6999999999999998;stroke-dasharray:2.0,2.0;" x1="23.1" x2="292.6" y1="221.8918" y2="221.8918"/><text fill="#000000" font-family="sans-serif" font-size="9.1" font-weight="bold" lengthAdjust="spacing" textLength="4.9" x="31.5" y="218.2079">7</text><text fill="#000000" font-family="sans-serif" font-size="9.1" lengthAdjust="spacing" textLength="135.8" x="39.2" y="218.2079">requests data (name, description)</text><polygon fill="#181818" points="284.9,240.9955,291.9,243.7955,284.9,246.5955,287.7,243.7955" style="stroke:#181818;stroke-width:0.6999999999999998;"/><line style="stroke:#181818;stroke-width:0.6999999999999998;" x1="19.6" x2="289.1" y1="243.7955" y2="243.7955"/><text fill="#000000" font-family="sans-serif" font-size="9.1" font-weight="bold" lengthAdjust="spacing" textLength="4.9" x="24.5" y="240.1116">8</text><text fill="#000000" font-family="sans-serif" font-size="9.1" lengthAdjust="spacing" textLength="165.9" x="32.2" y="240.1116">types requested data (name, description)</text><polygon fill="#181818" points="284.9,262.8992,291.9,265.6992,284.9,268.4992,287.7,265.6992" style="stroke:#181818;stroke-width:0.6999999999999998;"/><line style="stroke:#181818;stroke-width:0.6999999999999998;" x1="19.6" x2="289.1" y1="265.6992" y2="265.6992"/><text fill="#000000" font-family="sans-serif" font-size="9.1" font-weight="bold" lengthAdjust="spacing" textLength="4.9" x="24.5" y="262.0153">9</text><text fill="#000000" font-family="sans-serif" font-size="9.1" lengthAdjust="spacing" textLength="52.5" x="32.2" y="262.0153">submits data</text><polygon fill="#181818" points="440.3,284.8029,447.3,287.6029,440.3,290.4029,443.1,287.6029" style="stroke:#181818;stroke-width:0.6999999999999998;"/><line style="stroke:#181818;stroke-width:0.6999999999999998;" x1="296.8" x2="444.5" y1="287.6029" y2="287.6029"/><text fill="#000000" font-family="sans-serif" font-size="9.1" font-weight="bold" lengthAdjust="spacing" textLength="9.8" x="301.7" y="283.919">10</text><text fill="#000000" font-family="sans-serif" font-size="9.1" lengthAdjust="spacing" textLength="119" x="314.3" y="283.919">registerJob(name,description)</text><polygon fill="#181818" points="686,306.7066,693,309.5066,686,312.3066,688.8,309.5066" style="stroke:#181818;stroke-width:0.6999999999999998;"/><line style="stroke:#181818;stroke-width:0.6999999999999998;" x1="455.7" x2="690.2" y1="309.5066" y2="309.5066"/><text fill="#000000" font-family="sans-serif" font-size="9.1" font-weight="bold" lengthAdjust="spacing" textLength="9.8" x="460.6" y="305.8228">11</text><text fill="#000000" font-family="sans-serif" font-size="9.1" lengthAdjust="spacing" textLength="52.5" x="473.2" y="305.8228">getInstance()</text><polygon fill="#181818" points="463.4,328.6104,456.4,331.4104,463.4,334.2104,460.6,331.4104" style="stroke:#181818;stroke-width:0.6999999999999998;"/><line style="stroke:#181818;stroke-width:0.6999999999999998;stroke-dasharray:2.0,2.0;" x1="459.2" x2="697.2" y1="331.4104" y2="331.4104"/><text fill="#000000" font-family="sans-serif" font-size="9.1" font-weight="bold" lengthAdjust="spacing" textLength="9.8" x="467.6" y="327.7265">12</text><text fill="#000000" font-family="sans-serif" font-size="9.1" lengthAdjust="spacing" textLength="46.9" x="480.2" y="327.7265">repositories</text><polygon fill="#181818" points="760.9,350.5141,767.9,353.3141,760.9,356.1141,763.7,353.3141" style="stroke:#181818;stroke-width:0.6999999999999998;"/><line style="stroke:#181818;stroke-width:0.6999999999999998;" x1="455.7" x2="765.1" y1="353.3141" y2="353.3141"/><text fill="#000000" font-family="sans-serif" font-size="9.1" font-weight="bold" lengthAdjust="spacing" textLength="9.8" x="460.6" y="349.6302">13</text><text fill="#000000" font-family="sans-serif" font-size="9.1" lengthAdjust="spacing" textLength="75.6" x="473.2" y="349.6302">getJobRepository()</text><polygon fill="#181818" points="463.4,372.4178,456.4,375.2178,463.4,378.0178,460.6,375.2178" style="stroke:#181818;stroke-width:0.6999999999999998;"/><line style="stroke:#181818;stroke-width:0.6999999999999998;stroke-dasharray:2.0,2.0;" x1="459.2" x2="772.1" y1="375.2178" y2="375.2178"/><text fill="#000000" font-family="sans-serif" font-size="9.1" font-weight="bold" lengthAdjust="spacing" textLength="9.8" x="467.6" y="371.5339">14</text><text fill="#000000" font-family="sans-serif" font-size="9.1" lengthAdjust="spacing" textLength="55.3" x="480.2" y="371.5339">jobRepository</text><polygon fill="#181818" points="595,411.8215,602,414.6215,595,417.4215,597.8,414.6215" style="stroke:#181818;stroke-width:0.6999999999999998;"/><line style="stroke:#181818;stroke-width:0.6999999999999998;" x1="455.7" x2="599.2" y1="414.6215" y2="414.6215"/><text fill="#000000" font-family="sans-serif" font-size="9.1" font-weight="bold" lengthAdjust="spacing" textLength="9.8" x="460.6" y="410.9376">15</text><text fill="#000000" font-family="sans-serif" font-size="9.1" lengthAdjust="spacing" textLength="121.8" x="473.2" y="410.9376">registerJob(name, description)</text><polygon fill="#181818" points="815.85,451.2252,822.85,454.0252,815.85,456.8252,818.65,454.0252" style="stroke:#181818;stroke-width:0.6999999999999998;"/><line style="stroke:#181818;stroke-width:0.6999999999999998;" x1="610.4" x2="820.05" y1="454.0252" y2="454.0252"/><text fill="#000000" font-family="sans-serif" font-size="9.1" font-weight="bold" lengthAdjust="spacing" textLength="9.8" x="615.3" y="450.3413">16</text><text fill="#000000" font-family="sans-serif" font-size="9.1" lengthAdjust="spacing" textLength="119" x="627.9" y="450.3413">registerJob(name,description)</text><line style="stroke:#181818;stroke-width:0.6999999999999998;" x1="610.4" x2="639.8" y1="496.9289" y2="496.9289"/><line style="stroke:#181818;stroke-width:0.6999999999999998;" x1="639.8" x2="639.8" y1="496.9289" y2="506.0289"/><line style="stroke:#181818;stroke-width:0.6999999999999998;" x1="606.9" x2="639.8" y1="506.0289" y2="506.0289"/><polygon fill="#181818" points="613.9,503.2289,606.9,506.0289,613.9,508.8289,611.1,506.0289" style="stroke:#181818;stroke-width:0.6999999999999998;"/><text fill="#000000" font-family="sans-serif" font-size="9.1" font-weight="bold" lengthAdjust="spacing" textLength="9.8" x="615.3" y="493.245">17</text><text fill="#000000" font-family="sans-serif" font-size="9.1" lengthAdjust="spacing" textLength="46.2" x="627.9" y="493.245">addJob(job)</text><line style="stroke:#181818;stroke-width:0.6999999999999998;" x1="610.4" x2="639.8" y1="541.9326" y2="541.9326"/><line style="stroke:#181818;stroke-width:0.6999999999999998;" x1="639.8" x2="639.8" y1="541.9326" y2="551.0326"/><line style="stroke:#181818;stroke-width:0.6999999999999998;" x1="611.1" x2="639.8" y1="551.0326" y2="551.0326"/><polygon fill="#181818" points="618.1,548.2326,611.1,551.0326,618.1,553.8326,615.3,551.0326" style="stroke:#181818;stroke-width:0.6999999999999998;"/><text fill="#000000" font-family="sans-serif" font-size="9.1" font-weight="bold" lengthAdjust="spacing" textLength="9.8" x="615.3" y="538.2487">18</text><text fill="#000000" font-family="sans-serif" font-size="9.1" lengthAdjust="spacing" textLength="61.6" x="627.9" y="538.2487">validateJob(job)</text><line style="stroke:#181818;stroke-width:0.6999999999999998;" x1="610.4" x2="639.8" y1="590.4363" y2="590.4363"/><line style="stroke:#181818;stroke-width:0.6999999999999998;" x1="639.8" x2="639.8" y1="590.4363" y2="599.5363"/><line style="stroke:#181818;stroke-width:0.6999999999999998;" x1="611.1" x2="639.8" y1="599.5363" y2="599.5363"/><polygon fill="#181818" points="618.1,596.7363,611.1,599.5363,618.1,602.3363,615.3,599.5363" style="stroke:#181818;stroke-width:0.6999999999999998;"/><text fill="#000000" font-family="sans-serif" font-size="9.1" font-weight="bold" lengthAdjust="spacing" textLength="9.8" x="615.3" y="586.7524">19</text><text fill="#000000" font-family="sans-serif" font-size="9.1" lengthAdjust="spacing" textLength="2.8" x="627.9" y="586.7524">&#160;</text><line style="stroke:#181818;stroke-width:0.6999999999999998;" x1="610.4" x2="639.8" y1="638.94" y2="638.94"/><line style="stroke:#181818;stroke-width:0.6999999999999998;" x1="639.8" x2="639.8" y1="638.94" y2="648.04"/><line style="stroke:#181818;stroke-width:0.6999999999999998;" x1="611.1" x2="639.8" y1="648.04" y2="648.04"/><polygon fill="#181818" points="618.1,645.24,611.1,648.04,618.1,650.84,615.3,648.04" style="stroke:#181818;stroke-width:0.6999999999999998;"/><text fill="#000000" font-family="sans-serif" font-size="9.1" font-weight="bold" lengthAdjust="spacing" textLength="9.8" x="615.3" y="635.2562">20</text><text fill="#000000" font-family="sans-serif" font-size="9.1" lengthAdjust="spacing" textLength="2.8" x="627.9" y="635.2562">&#160;</text><polygon fill="#181818" points="463.4,684.6437,456.4,687.4437,463.4,690.2437,460.6,687.4437" style="stroke:#181818;stroke-width:0.6999999999999998;"/><line style="stroke:#181818;stroke-width:0.6999999999999998;stroke-dasharray:2.0,2.0;" x1="459.2" x2="602.7" y1="687.4437" y2="687.4437"/><text fill="#000000" font-family="sans-serif" font-size="9.1" font-weight="bold" lengthAdjust="spacing" textLength="9.8" x="467.6" y="683.7599">21</text><text fill="#000000" font-family="sans-serif" font-size="9.1" lengthAdjust="spacing" textLength="11.9" x="480.2" y="683.7599">job</text><polygon fill="#181818" points="308,706.5475,301,709.3475,308,712.1475,305.2,709.3475" style="stroke:#181818;stroke-width:0.6999999999999998;"/><line style="stroke:#181818;stroke-width:0.6999999999999998;stroke-dasharray:2.0,2.0;" x1="303.8" x2="448" y1="709.3475" y2="709.3475"/><text fill="#000000" font-family="sans-serif" font-size="9.1" font-weight="bold" lengthAdjust="spacing" textLength="9.8" x="312.2" y="705.6636">22</text><text fill="#000000" font-family="sans-serif" font-size="9.1" lengthAdjust="spacing" textLength="11.9" x="324.8" y="705.6636">job</text><polygon fill="#181818" points="23.8,728.4512,16.8,731.2512,23.8,734.0512,21,731.2512" style="stroke:#181818;stroke-width:0.6999999999999998;"/><line style="stroke:#181818;stroke-width:0.6999999999999998;stroke-dasharray:2.0,2.0;" x1="19.6" x2="296.1" y1="731.2512" y2="731.2512"/><text fill="#000000" font-family="sans-serif" font-size="9.1" font-weight="bold" lengthAdjust="spacing" textLength="9.8" x="28" y="727.5673">23</text><text fill="#000000" font-family="sans-serif" font-size="9.1" lengthAdjust="spacing" textLength="110.6" x="40.6" y="727.5673">displays operation success</text><!--SRC=[fLNBRjim4BppAnQ-r0wQ7_2XG1iKY8CK2PparWj5RMJ64gcGT1m3_lWkgOSbKH8Gb1T1vCpiSdT7idkfIcvu0OLMMkoCBX2SEI2pxKd9nPvd-EHEEO91uRZAyYx0xdYgZr9byCfpYumnVd1Q7Oe43MFVTZ95UDNQ9VgJZeJJ1XQtspyBu1ReoKZ5II5BhXmirblCf7LexdJoiWcObyqqv4OhPtIUemdGc-Vj_G1Ce2sMsagAUmgWkuTVJv5YZP1e0sRx-x4FCHt4NnKJ7kz_FlSPRpeX88LlWh9mU_d17OPxCwWNlS3r3xedh0cwj-0q28CUnq7X4KZgWcurg2xjfbyr9TIWkq-wfEwthwueGWNhKrlDK9lkYQTvkZyWSeQkLz09cIY7GA-p89ctQOqK-yb4Lo4LNx0rpPq-Mk1vxkKi2A9a90VuITFXnv7Ac7eT6hX1MRKQ522qeEc1nPp6dAGLwD99hMQICFX-G4jWYiHXgNY1t-aELXWPg2lgEXissPrAj0qLqpdka6eFII7hS9UqBYqEARNsg3JxaXF5fcc2mMfwJsQeMhzHbjmlSBcAiAsETqvqwfTNkQwpz4bU31J1EscDoZM9UTF5CxbSiUdqWa-ZOx_RIQu_dZFPLMeznFbydZJGI6_w_PxtP1Hd4Z_gFNf-QJYY21qXkWfFKoz2jLhD6FWhYXyybzwmexAptFz1Za2xWp1Hv85TgYu7auwmec_QnFTa3QcqPSvFbZuyQBXl2ZbU2BILIVf-PPrN_qFv1m00]--></g></svg>