<?xml version="1.0" encoding="us-ascii" standalone="no"?><svg xmlns="http://www.w3.org/2000/svg" xmlns:xlink="http://www.w3.org/1999/xlink" contentStyleType="text/css" height="380px" preserveAspectRatio="none" style="width:470px;height:380px;background:#FFFFFF;" version="1.1" viewBox="0 0 470 380" width="470px" zoomAndPan="magnify"><defs/><g><rect fill="#FFFFFF" height="224.4063" style="stroke:#181818;stroke-width:1.0;" width="10" x="204" y="90.5332"/><rect fill="#FFFFFF" height="87.582" style="stroke:#181818;stroke-width:1.0;" width="10" x="209" y="218.3574"/><rect fill="none" height="170.1152" style="stroke:#000000;stroke-width:1.5;" width="289" x="175" y="105.5332"/><line style="stroke:#181818;stroke-width:0.5;stroke-dasharray:5.0,5.0;" x1="209" x2="209" y1="57.2422" y2="323.9395"/><line style="stroke:#181818;stroke-width:0.5;stroke-dasharray:5.0,5.0;" x1="434" x2="434" y1="165.9453" y2="323.9395"/><rect fill="#E3E3E3" height="51.2422" rx="2.5" ry="2.5" style="stroke:#181818;stroke-width:0.5;" width="48" x="185" y="5"/><text fill="#000000" font-family="sans-serif" font-size="14" lengthAdjust="spacing" textLength="24" x="197" y="27.1074">hrm</text><text fill="#000000" font-family="sans-serif" font-size="14" lengthAdjust="spacing" textLength="34" x="192" y="45.7285">:HRM</text><rect fill="#E3E3E3" height="51.2422" rx="2.5" ry="2.5" style="stroke:#181818;stroke-width:0.5;" width="48" x="185" y="322.9395"/><text fill="#000000" font-family="sans-serif" font-size="14" lengthAdjust="spacing" textLength="24" x="197" y="345.0469">hrm</text><text fill="#000000" font-family="sans-serif" font-size="14" lengthAdjust="spacing" textLength="34" x="192" y="363.668">:HRM</text><rect fill="#E3E3E3" height="51.2422" rx="2.5" ry="2.5" style="stroke:#181818;stroke-width:0.5;" width="40" x="414" y="322.9395"/><text fill="#000000" font-family="sans-serif" font-size="14" lengthAdjust="spacing" textLength="19" x="424.5" y="345.0469">job</text><text fill="#000000" font-family="sans-serif" font-size="14" lengthAdjust="spacing" textLength="26" x="421" y="363.668">:Job</text><rect fill="#FFFFFF" height="224.4063" style="stroke:#181818;stroke-width:1.0;" width="10" x="204" y="90.5332"/><rect fill="#FFFFFF" height="87.582" style="stroke:#181818;stroke-width:1.0;" width="10" x="209" y="218.3574"/><polygon fill="#181818" points="192,86.5332,202,90.5332,192,94.5332,196,90.5332" style="stroke:#181818;stroke-width:1.0;"/><line style="stroke:#181818;stroke-width:1.0;" x1="0" x2="198" y1="90.5332" y2="90.5332"/><text fill="#000000" font-family="sans-serif" font-size="13" font-weight="bold" lengthAdjust="spacing" textLength="14" x="7" y="85.2705">16</text><text fill="#000000" font-family="sans-serif" font-size="13" lengthAdjust="spacing" textLength="167" x="25" y="85.2705">createJob(name, description)</text><path d="M175,105.5332 L289,105.5332 L289,114.8242 L279,124.8242 L175,124.8242 L175,105.5332 " fill="#EEEEEE" style="stroke:#000000;stroke-width:1.5;"/><rect fill="none" height="170.1152" style="stroke:#000000;stroke-width:1.5;" width="289" x="175" y="105.5332"/><text fill="#000000" font-family="sans-serif" font-size="13" font-weight="bold" lengthAdjust="spacing" textLength="69" x="190" y="120.5615">Create Job</text><polygon fill="#181818" points="402,144.1152,412,148.1152,402,152.1152,406,148.1152" style="stroke:#181818;stroke-width:1.0;"/><line style="stroke:#181818;stroke-width:1.0;" x1="214" x2="408" y1="148.1152" y2="148.1152"/><text fill="#000000" font-family="sans-serif" font-size="13" font-weight="bold" lengthAdjust="spacing" textLength="25" x="221" y="142.8525">16.1</text><text fill="#000000" font-family="sans-serif" font-size="13" lengthAdjust="spacing" textLength="147" x="250" y="142.8525">create(name, description)</text><rect fill="#E3E3E3" height="51.2422" rx="2.5" ry="2.5" style="stroke:#181818;stroke-width:0.5;" width="40" x="414" y="124.8242"/><text fill="#000000" font-family="sans-serif" font-size="14" lengthAdjust="spacing" textLength="19" x="424.5" y="146.9316">job</text><text fill="#000000" font-family="sans-serif" font-size="14" lengthAdjust="spacing" textLength="26" x="421" y="165.5527">:Job</text><line style="stroke:#181818;stroke-width:1.0;" x1="214" x2="261" y1="205.3574" y2="205.3574"/><line style="stroke:#181818;stroke-width:1.0;" x1="261" x2="261" y1="205.3574" y2="218.3574"/><line style="stroke:#181818;stroke-width:1.0;" x1="220" x2="261" y1="218.3574" y2="218.3574"/><polygon fill="#181818" points="230,214.3574,220,218.3574,230,222.3574,226,218.3574" style="stroke:#181818;stroke-width:1.0;"/><text fill="#000000" font-family="sans-serif" font-size="13" font-weight="bold" lengthAdjust="spacing" textLength="25" x="226" y="200.0947">16.2</text><text fill="#000000" font-family="sans-serif" font-size="13" lengthAdjust="spacing" textLength="70" x="255" y="200.0947">addJob (job)</text><line style="stroke:#181818;stroke-width:1.0;" x1="219" x2="261" y1="254.6484" y2="254.6484"/><line style="stroke:#181818;stroke-width:1.0;" x1="261" x2="261" y1="254.6484" y2="267.6484"/><line style="stroke:#181818;stroke-width:1.0;" x1="220" x2="261" y1="267.6484" y2="267.6484"/><polygon fill="#181818" points="230,263.6484,220,267.6484,230,271.6484,226,267.6484" style="stroke:#181818;stroke-width:1.0;"/><text fill="#000000" font-family="sans-serif" font-size="13" font-weight="bold" lengthAdjust="spacing" textLength="25" x="226" y="249.3857">16.3</text><text fill="#000000" font-family="sans-serif" font-size="13" lengthAdjust="spacing" textLength="88" x="255" y="249.3857">validateJob(job)</text><polygon fill="#181818" points="11,301.9395,1,305.9395,11,309.9395,7,305.9395" style="stroke:#181818;stroke-width:1.0;"/><line style="stroke:#181818;stroke-width:1.0;stroke-dasharray:2.0,2.0;" x1="5" x2="203" y1="305.9395" y2="305.9395"/><text fill="#000000" font-family="sans-serif" font-size="13" font-weight="bold" lengthAdjust="spacing" textLength="14" x="17" y="300.6768">17</text><text fill="#000000" font-family="sans-serif" font-size="13" lengthAdjust="spacing" textLength="17" x="35" y="300.6768">job</text><!--SRC=[RL0xJyCm4DxzAqvTQ2k2r0Ma2370WYeX95XPBlQHcCOFsKuH_vwB2oKEkSNIzxnpF6ZhCQ01uwoJNN2688M1H3mp7kK1MtfDNpr189dGjlrK43jKxbFR5jwnZoG4mqbBxT4cM7N1lDdwyULf1HY1tvB-S0tJUzTaUlzyBmGEoTd1D1HWTosgkz5KWmo4YLYujcZe4XH56RHFsjdDp7Er4oYJFh8-5m9F6zpWuI670AU8Z8x32k0IhjvkVskMEcRwl1GgnLcmvYisVud_ofUiH-or-haeso-coYAYOCuvfw2IL5GOItBHDNEC45brkcNwgJSPkQsg75C3hopcRTy0]--></g></svg>