<?xml version="1.0" encoding="us-ascii" standalone="no"?><svg xmlns="http://www.w3.org/2000/svg" xmlns:xlink="http://www.w3.org/1999/xlink" contentStyleType="text/css" height="308.8px" preserveAspectRatio="none" style="width:758px;height:308px;background:#FFFFFF;" version="1.1" viewBox="0 0 758 308" width="758.4px" zoomAndPan="magnify"><defs/><g><!--class JobList--><g id="elem_JobList"><rect codeLine="22" fill="#F1F1F1" height="53.2969" id="JobList" rx="2" ry="2" style="stroke:#181818;stroke-width:0.4000000000000001;" width="95.2" x="251.2" y="158"/><ellipse cx="278.68" cy="170.8" fill="#ADD1B2" rx="8.8" ry="8.8" style="stroke:#181818;stroke-width:0.8000000000000002;"/><path d="M280.8925,167.5 Q281.0175,167.325 281.1675,167.2375 Q281.3175,167.15 281.4925,167.15 Q281.7925,167.15 281.98,167.3625 Q282.1675,167.5625 282.1675,168.05 L282.1675,169.2125 Q282.1675,169.7 281.98,169.9125 Q281.7925,170.125 281.4925,170.125 Q281.2175,170.125 281.055,169.9625 Q280.8925,169.8125 280.805,169.4 Q280.7675,169.1125 280.6175,168.9625 Q280.355,168.6625 279.8675,168.4875 Q279.38,168.3125 278.88,168.3125 Q278.2675,168.3125 277.755,168.575 Q277.255,168.8375 276.855,169.4375 Q276.4675,170.0375 276.4675,170.8625 L276.4675,171.7375 Q276.4675,172.725 277.18,173.3875 Q277.8925,174.0375 279.1675,174.0375 Q279.9175,174.0375 280.4425,173.8375 Q280.755,173.7125 281.0925,173.3625 Q281.305,173.15 281.4175,173.0875 Q281.5425,173.025 281.705,173.025 Q281.9675,173.025 282.1675,173.2375 Q282.38,173.4375 282.38,173.7125 Q282.38,173.9875 282.105,174.3125 Q281.705,174.775 281.0675,175.0375 Q280.205,175.4 279.1675,175.4 Q277.955,175.4 276.9925,174.9 Q276.205,174.5 275.655,173.65 Q275.105,172.7875 275.105,171.7625 L275.105,170.8375 Q275.105,169.775 275.5925,168.8625 Q276.0925,167.9375 276.9675,167.45 Q277.8425,166.95 278.83,166.95 Q279.4175,166.95 279.93,167.0875 Q280.455,167.2125 280.8925,167.5 Z " fill="#000000"/><text fill="#000000" font-family="sans-serif" font-size="11.2" lengthAdjust="spacing" textLength="35.2" x="293.32" y="175.4375">JobList</text><line style="stroke:#181818;stroke-width:0.4000000000000001;" x1="252" x2="345.6" y1="183.6" y2="183.6"/><text fill="#000000" font-family="sans-serif" font-size="11.2" lengthAdjust="spacing" textLength="85.6" x="256" y="198.8859">-String reference</text><line style="stroke:#181818;stroke-width:0.4000000000000001;" x1="252" x2="345.6" y1="204.8969" y2="204.8969"/></g><!--class HRM--><g id="elem_HRM"><rect codeLine="25" fill="#F1F1F1" height="53.2969" id="HRM" rx="2" ry="2" style="stroke:#181818;stroke-width:0.4000000000000001;" width="74.4" x="678.4" y="158"/><ellipse cx="701.56" cy="170.8" fill="#ADD1B2" rx="8.8" ry="8.8" style="stroke:#181818;stroke-width:0.8000000000000002;"/><path d="M703.7725,167.5 Q703.8975,167.325 704.0475,167.2375 Q704.1975,167.15 704.3725,167.15 Q704.6725,167.15 704.86,167.3625 Q705.0475,167.5625 705.0475,168.05 L705.0475,169.2125 Q705.0475,169.7 704.86,169.9125 Q704.6725,170.125 704.3725,170.125 Q704.0975,170.125 703.935,169.9625 Q703.7725,169.8125 703.685,169.4 Q703.6475,169.1125 703.4975,168.9625 Q703.235,168.6625 702.7475,168.4875 Q702.26,168.3125 701.76,168.3125 Q701.1475,168.3125 700.635,168.575 Q700.135,168.8375 699.735,169.4375 Q699.3475,170.0375 699.3475,170.8625 L699.3475,171.7375 Q699.3475,172.725 700.06,173.3875 Q700.7725,174.0375 702.0475,174.0375 Q702.7975,174.0375 703.3225,173.8375 Q703.635,173.7125 703.9725,173.3625 Q704.185,173.15 704.2975,173.0875 Q704.4225,173.025 704.585,173.025 Q704.8475,173.025 705.0475,173.2375 Q705.26,173.4375 705.26,173.7125 Q705.26,173.9875 704.985,174.3125 Q704.585,174.775 703.9475,175.0375 Q703.085,175.4 702.0475,175.4 Q700.835,175.4 699.8725,174.9 Q699.085,174.5 698.535,173.65 Q697.985,172.7875 697.985,171.7625 L697.985,170.8375 Q697.985,169.775 698.4725,168.8625 Q698.9725,167.9375 699.8475,167.45 Q700.7225,166.95 701.71,166.95 Q702.2975,166.95 702.81,167.0875 Q703.335,167.2125 703.7725,167.5 Z " fill="#000000"/><text fill="#000000" font-family="sans-serif" font-size="11.2" lengthAdjust="spacing" textLength="24" x="715.24" y="175.4375">HRM</text><line style="stroke:#181818;stroke-width:0.4000000000000001;" x1="679.2" x2="752" y1="183.6" y2="183.6"/><text fill="#000000" font-family="sans-serif" font-size="11.2" lengthAdjust="spacing" textLength="64.8" x="683.2" y="198.8859">-String name</text><line style="stroke:#181818;stroke-width:0.4000000000000001;" x1="679.2" x2="752" y1="204.8969" y2="204.8969"/></g><!--class Job--><g id="elem_Job"><rect codeLine="29" fill="#F1F1F1" height="97.9875" id="Job" rx="2" ry="2" style="stroke:#181818;stroke-width:0.4000000000000001;" width="186.4" x="395.2" y="136"/><ellipse cx="476.2" cy="148.8" fill="#ADD1B2" rx="8.8" ry="8.8" style="stroke:#181818;stroke-width:0.8000000000000002;"/><path d="M478.4125,145.5 Q478.5375,145.325 478.6875,145.2375 Q478.8375,145.15 479.0125,145.15 Q479.3125,145.15 479.5,145.3625 Q479.6875,145.5625 479.6875,146.05 L479.6875,147.2125 Q479.6875,147.7 479.5,147.9125 Q479.3125,148.125 479.0125,148.125 Q478.7375,148.125 478.575,147.9625 Q478.4125,147.8125 478.325,147.4 Q478.2875,147.1125 478.1375,146.9625 Q477.875,146.6625 477.3875,146.4875 Q476.9,146.3125 476.4,146.3125 Q475.7875,146.3125 475.275,146.575 Q474.775,146.8375 474.375,147.4375 Q473.9875,148.0375 473.9875,148.8625 L473.9875,149.7375 Q473.9875,150.725 474.7,151.3875 Q475.4125,152.0375 476.6875,152.0375 Q477.4375,152.0375 477.9625,151.8375 Q478.275,151.7125 478.6125,151.3625 Q478.825,151.15 478.9375,151.0875 Q479.0625,151.025 479.225,151.025 Q479.4875,151.025 479.6875,151.2375 Q479.9,151.4375 479.9,151.7125 Q479.9,151.9875 479.625,152.3125 Q479.225,152.775 478.5875,153.0375 Q477.725,153.4 476.6875,153.4 Q475.475,153.4 474.5125,152.9 Q473.725,152.5 473.175,151.65 Q472.625,150.7875 472.625,149.7625 L472.625,148.8375 Q472.625,147.775 473.1125,146.8625 Q473.6125,145.9375 474.4875,145.45 Q475.3625,144.95 476.35,144.95 Q476.9375,144.95 477.45,145.0875 Q477.975,145.2125 478.4125,145.5 Z " fill="#000000"/><text fill="#000000" font-family="sans-serif" font-size="11.2" lengthAdjust="spacing" textLength="17.6" x="492.6" y="153.4375">Job</text><line style="stroke:#181818;stroke-width:0.4000000000000001;" x1="396" x2="580.8" y1="161.6" y2="161.6"/><text fill="#000000" font-family="sans-serif" font-size="11.2" lengthAdjust="spacing" textLength="64.8" x="400" y="176.8859">-String name</text><text fill="#000000" font-family="sans-serif" font-size="11.2" lengthAdjust="spacing" textLength="92" x="400" y="191.7828">-String description</text><text fill="#000000" font-family="sans-serif" font-size="11.2" lengthAdjust="spacing" textLength="85.6" x="400" y="206.6797">-String reference</text><line style="stroke:#181818;stroke-width:0.4000000000000001;" x1="396" x2="580.8" y1="212.6906" y2="212.6906"/><text fill="#000000" font-family="sans-serif" font-size="11.2" lengthAdjust="spacing" textLength="176.8" x="400" y="227.9766">+Job(name, description, reference)</text></g><!--class Repositories--><g id="elem_Repositories"><rect codeLine="68" fill="#F1F1F1" height="83.0906" id="Repositories" rx="2" ry="2" style="stroke:#181818;stroke-width:0.4000000000000001;" width="155.2" x="9.6" y="220.8"/><ellipse cx="52.2" cy="233.6" fill="#ADD1B2" rx="8.8" ry="8.8" style="stroke:#181818;stroke-width:0.8000000000000002;"/><path d="M54.4125,230.3 Q54.5375,230.125 54.6875,230.0375 Q54.8375,229.95 55.0125,229.95 Q55.3125,229.95 55.5,230.1625 Q55.6875,230.3625 55.6875,230.85 L55.6875,232.0125 Q55.6875,232.5 55.5,232.7125 Q55.3125,232.925 55.0125,232.925 Q54.7375,232.925 54.575,232.7625 Q54.4125,232.6125 54.325,232.2 Q54.2875,231.9125 54.1375,231.7625 Q53.875,231.4625 53.3875,231.2875 Q52.9,231.1125 52.4,231.1125 Q51.7875,231.1125 51.275,231.375 Q50.775,231.6375 50.375,232.2375 Q49.9875,232.8375 49.9875,233.6625 L49.9875,234.5375 Q49.9875,235.525 50.7,236.1875 Q51.4125,236.8375 52.6875,236.8375 Q53.4375,236.8375 53.9625,236.6375 Q54.275,236.5125 54.6125,236.1625 Q54.825,235.95 54.9375,235.8875 Q55.0625,235.825 55.225,235.825 Q55.4875,235.825 55.6875,236.0375 Q55.9,236.2375 55.9,236.5125 Q55.9,236.7875 55.625,237.1125 Q55.225,237.575 54.5875,237.8375 Q53.725,238.2 52.6875,238.2 Q51.475,238.2 50.5125,237.7 Q49.725,237.3 49.175,236.45 Q48.625,235.5875 48.625,234.5625 L48.625,233.6375 Q48.625,232.575 49.1125,231.6625 Q49.6125,230.7375 50.4875,230.25 Q51.3625,229.75 52.35,229.75 Q52.9375,229.75 53.45,229.8875 Q53.975,230.0125 54.4125,230.3 Z " fill="#000000"/><text fill="#000000" font-family="sans-serif" font-size="11.2" lengthAdjust="spacing" textLength="63.2" x="68.6" y="238.2375">Repositories</text><line style="stroke:#181818;stroke-width:0.4000000000000001;" x1="10.4" x2="164" y1="246.4" y2="246.4"/><line style="stroke:#181818;stroke-width:0.4000000000000001;" x1="10.4" x2="164" y1="252.8" y2="252.8"/><text fill="#000000" font-family="sans-serif" font-size="11.2" lengthAdjust="spacing" textLength="75.2" x="14.4" y="268.0859">-Repositories()</text><text fill="#000000" font-family="sans-serif" font-size="11.2" lengthAdjust="spacing" textLength="145.6" x="14.4" y="282.9828">+getInstance() : Repositories</text><text fill="#000000" font-family="sans-serif" font-size="11.2" lengthAdjust="spacing" textLength="65.6" x="14.4" y="297.8797">+getJobList()</text></g><!--class CreateJobController--><g id="elem_CreateJobController"><rect codeLine="75" fill="#F1F1F1" height="68.1938" id="CreateJobController" rx="2" ry="2" style="stroke:#181818;stroke-width:0.4000000000000001;" width="163.2" x="5.6" y="72.4"/><ellipse cx="33.8" cy="85.2" fill="#ADD1B2" rx="8.8" ry="8.8" style="stroke:#181818;stroke-width:0.8000000000000002;"/><path d="M36.0125,81.9 Q36.1375,81.725 36.2875,81.6375 Q36.4375,81.55 36.6125,81.55 Q36.9125,81.55 37.1,81.7625 Q37.2875,81.9625 37.2875,82.45 L37.2875,83.6125 Q37.2875,84.1 37.1,84.3125 Q36.9125,84.525 36.6125,84.525 Q36.3375,84.525 36.175,84.3625 Q36.0125,84.2125 35.925,83.8 Q35.8875,83.5125 35.7375,83.3625 Q35.475,83.0625 34.9875,82.8875 Q34.5,82.7125 34,82.7125 Q33.3875,82.7125 32.875,82.975 Q32.375,83.2375 31.975,83.8375 Q31.5875,84.4375 31.5875,85.2625 L31.5875,86.1375 Q31.5875,87.125 32.3,87.7875 Q33.0125,88.4375 34.2875,88.4375 Q35.0375,88.4375 35.5625,88.2375 Q35.875,88.1125 36.2125,87.7625 Q36.425,87.55 36.5375,87.4875 Q36.6625,87.425 36.825,87.425 Q37.0875,87.425 37.2875,87.6375 Q37.5,87.8375 37.5,88.1125 Q37.5,88.3875 37.225,88.7125 Q36.825,89.175 36.1875,89.4375 Q35.325,89.8 34.2875,89.8 Q33.075,89.8 32.1125,89.3 Q31.325,88.9 30.775,88.05 Q30.225,87.1875 30.225,86.1625 L30.225,85.2375 Q30.225,84.175 30.7125,83.2625 Q31.2125,82.3375 32.0875,81.85 Q32.9625,81.35 33.95,81.35 Q34.5375,81.35 35.05,81.4875 Q35.575,81.6125 36.0125,81.9 Z " fill="#000000"/><text fill="#000000" font-family="sans-serif" font-size="11.2" lengthAdjust="spacing" textLength="101.6" x="48.6" y="89.8375">CreateJobController</text><line style="stroke:#181818;stroke-width:0.4000000000000001;" x1="6.4" x2="168" y1="98" y2="98"/><line style="stroke:#181818;stroke-width:0.4000000000000001;" x1="6.4" x2="168" y1="104.4" y2="104.4"/><text fill="#000000" font-family="sans-serif" font-size="11.2" lengthAdjust="spacing" textLength="116" x="10.4" y="119.6859">+CreateJobController()</text><text fill="#000000" font-family="sans-serif" font-size="11.2" lengthAdjust="spacing" textLength="153.6" x="10.4" y="134.5828">+createJob(name, description)</text></g><!--class CreateJobUI--><g id="elem_CreateJobUI"><rect codeLine="93" fill="#F1F1F1" height="38.4" id="CreateJobUI" rx="2" ry="2" style="stroke:#181818;stroke-width:0.4000000000000001;" width="87.2" x="43.6" y="5.6"/><ellipse cx="55.6" cy="18.4" fill="#ADD1B2" rx="8.8" ry="8.8" style="stroke:#181818;stroke-width:0.8000000000000002;"/><path d="M57.8125,15.1 Q57.9375,14.925 58.0875,14.8375 Q58.2375,14.75 58.4125,14.75 Q58.7125,14.75 58.9,14.9625 Q59.0875,15.1625 59.0875,15.65 L59.0875,16.8125 Q59.0875,17.3 58.9,17.5125 Q58.7125,17.725 58.4125,17.725 Q58.1375,17.725 57.975,17.5625 Q57.8125,17.4125 57.725,17 Q57.6875,16.7125 57.5375,16.5625 Q57.275,16.2625 56.7875,16.0875 Q56.3,15.9125 55.8,15.9125 Q55.1875,15.9125 54.675,16.175 Q54.175,16.4375 53.775,17.0375 Q53.3875,17.6375 53.3875,18.4625 L53.3875,19.3375 Q53.3875,20.325 54.1,20.9875 Q54.8125,21.6375 56.0875,21.6375 Q56.8375,21.6375 57.3625,21.4375 Q57.675,21.3125 58.0125,20.9625 Q58.225,20.75 58.3375,20.6875 Q58.4625,20.625 58.625,20.625 Q58.8875,20.625 59.0875,20.8375 Q59.3,21.0375 59.3,21.3125 Q59.3,21.5875 59.025,21.9125 Q58.625,22.375 57.9875,22.6375 Q57.125,23 56.0875,23 Q54.875,23 53.9125,22.5 Q53.125,22.1 52.575,21.25 Q52.025,20.3875 52.025,19.3625 L52.025,18.4375 Q52.025,17.375 52.5125,16.4625 Q53.0125,15.5375 53.8875,15.05 Q54.7625,14.55 55.75,14.55 Q56.3375,14.55 56.85,14.6875 Q57.375,14.8125 57.8125,15.1 Z " fill="#000000"/><text fill="#000000" font-family="sans-serif" font-size="11.2" lengthAdjust="spacing" textLength="61.6" x="66.8" y="23.0375">CreateJobUI</text><line style="stroke:#181818;stroke-width:0.4000000000000001;" x1="44.4" x2="130" y1="31.2" y2="31.2"/><line style="stroke:#181818;stroke-width:0.4000000000000001;" x1="44.4" x2="130" y1="37.6" y2="37.6"/></g><!--link Repositories to Repositories--><g id="link_Repositories_Repositories"><path codeLine="96" d="M64.432,220.608 C63.816,205.32 71.408,192.8 87.2,192.8 C102.992,192.8 110.7772,200.5239 110.1612,215.8119 " fill="none" id="Repositories-to-Repositories" style="stroke:#181818;stroke-width:0.8000000000000002;"/><polygon fill="#181818" points="109.968,220.608,113.4553,213.5427,110.129,216.6112,107.0605,213.285,109.968,220.608" style="stroke:#181818;stroke-width:0.8000000000000002;"/><text fill="#000000" font-family="sans-serif" font-size="10.4" lengthAdjust="spacing" textLength="39.2" x="67.6" y="185.6227">instance</text></g><!--link CreateJobUI to CreateJobController--><g id="link_CreateJobUI_CreateJobController"><path codeLine="98" d="M87.2,44.28 C87.2,48.64 87.2,52 87.2,52 C87.2,52 87.2,59.48 87.2,67.536 " fill="none" id="CreateJobUI-to-CreateJobController" style="stroke:#181818;stroke-width:0.8000000000000002;stroke-dasharray:7.0,7.0;"/><polygon fill="#181818" points="87.2,72.336,90.4,65.136,87.2,68.336,84,65.136,87.2,72.336" style="stroke:#181818;stroke-width:0.8000000000000002;"/></g><!--link CreateJobController to Repositories--><g id="link_CreateJobController_Repositories"><path codeLine="100" d="M87.2,140.52 C87.2,164.136 87.2,190.904 87.2,216 " fill="none" id="CreateJobController-to-Repositories" style="stroke:#181818;stroke-width:0.8000000000000002;stroke-dasharray:7.0,7.0;"/><polygon fill="#181818" points="87.2,220.8,90.4,213.6,87.2,216.8,84,213.6,87.2,220.8" style="stroke:#181818;stroke-width:0.8000000000000002;"/><text fill="#000000" font-family="sans-serif" font-size="10.4" lengthAdjust="spacing" textLength="53.6" x="50.4" y="185.0227">repositories</text></g><!--link CreateJobController to JobList--><g id="link_CreateJobController_JobList"><path codeLine="115" d="M168.888,136.6 C196.736,146.992 222.4793,156.6008 246.6873,165.6408 " fill="none" id="CreateJobController-to-JobList" style="stroke:#181818;stroke-width:0.8000000000000002;stroke-dasharray:7.0,7.0;"/><polygon fill="#181818" points="251.184,167.32,245.5584,161.8034,247.4368,165.9207,243.3195,167.799,251.184,167.32" style="stroke:#181818;stroke-width:0.8000000000000002;"/><text fill="#000000" font-family="sans-serif" font-size="10.4" lengthAdjust="spacing" textLength="32.8" x="193.6" y="142.4227">JobList</text></g><!--link Repositories to JobList--><g id="link_Repositories_JobList"><path codeLine="116" d="M165,233.944 C193.8,223.304 221.1217,213.208 246.4257,203.856 " fill="none" id="Repositories-to-JobList" style="stroke:#181818;stroke-width:0.8000000000000002;"/><polygon fill="#181818" points="250.928,202.192,243.0651,201.6864,247.176,203.5787,245.2838,207.6896,250.928,202.192" style="stroke:#181818;stroke-width:0.8000000000000002;"/><text fill="#000000" font-family="sans-serif" font-size="10.4" lengthAdjust="spacing" textLength="5.6" x="239.1524" y="216.3957">1</text></g><!--link Job to HRM--><g id="link_Job_HRM"><path codeLine="121" d="M581.608,184.8 C615.56,184.8 647.256,184.8 673.448,184.8 " fill="none" id="Job-to-HRM" style="stroke:#181818;stroke-width:0.8000000000000002;"/><polygon fill="#181818" points="678.248,184.8,671.048,181.6,674.248,184.8,671.048,188,678.248,184.8" style="stroke:#181818;stroke-width:0.8000000000000002;"/><text fill="#000000" font-family="sans-serif" font-size="10.4" lengthAdjust="spacing" textLength="47.2" x="606.4" y="181.6227">createdBy</text></g><!--link JobList to Job--><g id="link_JobList_Job"><path codeLine="122" d="M346.552,184.8 C361.344,184.8 373.432,184.8 390.256,184.8 " fill="none" id="JobList-to-Job" style="stroke:#181818;stroke-width:0.8000000000000002;"/><polygon fill="#181818" points="395.056,184.8,387.856,181.6,391.056,184.8,387.856,188,395.056,184.8" style="stroke:#181818;stroke-width:0.8000000000000002;"/><text fill="#000000" font-family="sans-serif" font-size="10.4" lengthAdjust="spacing" textLength="4" x="384.948" y="196.4533">*</text></g><!--SRC=[ZLOxRzim4DxvAuWkicixQDSC0MAdG5Bq0SJDreMIpZ8RYXH8se4IvB_tA54K9Kj5FHZItNV7xvvKOfwvh9Xc9IsLLDbHgnAerISWlQPYsJChO6zh0LH3PfaiH0mmHvQh5ouBUc32n1h19TYw0befKRiNaamebRQAH5QPOCRSMgjvUhBma2cvvwz0Fn4Yu62fLLJpucXfpXqRhYGXIMD3RwjAy8mvsHwCSQhaZIGKVojgB2eoMe1zaFWiCrWiEnqAToUjGLflvrJlmU-J0Ntf48sSual9kF3u5lvLfT-uiM_4uJPx30Hpe-40U406vDt3xX-_Ku-X7YHPwVIzdqd0G9A3oJIlcZmC5Fs1fEMBxXREVXtRh7lSalGH_sBcUSSi54hNr4SyUMJIPIEsM4I89Z59v_UdBfZahqs9BlmsmGr5PsP_dCeKz4Z-0gdXTeokZagEPU3Aqz7SK9RdBWz_LBhiH6ScU8xCX_8LPRB64jqpqrQuSHIKSI0-gu7hsj7R8xrrosZTai0tXOqdRlDSOpEjQSaa3fOEFZCDdaQeoQXMN1wKBfcuGs6G_fOMigF4nc_a0PoVD6kVCZntJKF0sBWOsBOUnaKILAyCEuChvSBYts08uW8_0eR2RTGSpJZ4a6qTaRbeYAb-c74QGxQk8aFQOLg2EGSJnYOMuem6f_qAeDS3q4mqFRVOYn_qnRAVsLrNmvsILYiXG7iogobTyDRN_c94buGq4oIL1R_wr67AMLVVKxULA3TKfPRXfirRvG4tFBL7Q33KT3kjjSjyi7VnV3iLkj60umHdo5iN1WJkNdp3mM4a0PbJHo_GJ9Mr24EUqrcCgA97fN6Pcqgm6YUsLJcE7H-yAeoD3Xcd-ka1KumL67J0vcRO4TSuF6tD2OajhsucKqcc2dbruLF7hKEICOCFdp_C9O0axGcDEZe2puWjEjY82A9cHkSQxzCfnN-UD_0qItqOfmzqcX2YPvWsTX-7TYIvlCF30T4rZEHEqQKydwKniL5-vWqdlYNce7uDe6l_H2Rpqob9ulBQXBwPw15qOmSDC5CUPzUby9_sW_37LXvjYFlOS0htLNBjrr6-hKaNN6VaS1Y2WqqL46rJ44eM1Z_Ko5y0]--></g></svg>