<?xml version="1.0" encoding="us-ascii" standalone="no"?><svg xmlns="http://www.w3.org/2000/svg" xmlns:xlink="http://www.w3.org/1999/xlink" contentStyleType="text/css" height="606.2px" preserveAspectRatio="none" style="width:797px;height:606px;background:#FFFFFF;" version="1.1" viewBox="0 0 797 606" width="797.3px" zoomAndPan="magnify"><defs/><g><rect fill="#FFFFFF" height="404.5289" style="stroke:#181818;stroke-width:0.6999999999999998;" width="7" x="12.6" y="65.5348"/><rect fill="#FFFFFF" height="432.0326" style="stroke:#181818;stroke-width:0.6999999999999998;" width="7" x="293.3" y="81.8385"/><rect fill="#FFFFFF" height="248.1719" style="stroke:#181818;stroke-width:0.6999999999999998;" width="7" x="296.8" y="243.7955"/><rect fill="#FFFFFF" height="21.9037" style="stroke:#181818;stroke-width:0.6999999999999998;" width="7" x="300.3" y="265.6992"/><rect fill="#FFFFFF" height="320.183" style="stroke:#181818;stroke-width:0.6999999999999998;" width="7" x="455.7" y="221.8918"/><rect fill="#FFFFFF" height="43.8074" style="stroke:#181818;stroke-width:0.6999999999999998;" width="7" x="459.2" y="287.6029"/><rect fill="#FFFFFF" height="142.357" style="stroke:#181818;stroke-width:0.6999999999999998;" width="7" x="610.4" y="399.7178"/><rect fill="#FFFFFF" height="21.9037" style="stroke:#181818;stroke-width:0.6999999999999998;" width="7" x="689.15" y="309.5066"/><line style="stroke:#181818;stroke-width:0.3499999999999999;stroke-dasharray:5.0,5.0;" x1="16.1" x2="16.1" y1="58.5348" y2="548.3748"/><line style="stroke:#181818;stroke-width:0.3499999999999999;stroke-dasharray:5.0,5.0;" x1="296.45" x2="296.45" y1="58.5348" y2="548.3748"/><line style="stroke:#181818;stroke-width:0.3499999999999999;stroke-dasharray:5.0,5.0;" x1="458.85" x2="458.85" y1="109.7059" y2="548.3748"/><line style="stroke:#181818;stroke-width:0.3499999999999999;stroke-dasharray:5.0,5.0;" x1="613.9" x2="613.9" y1="58.5348" y2="548.3748"/><line style="stroke:#181818;stroke-width:0.3499999999999999;stroke-dasharray:5.0,5.0;" x1="692.3" x2="692.3" y1="58.5348" y2="548.3748"/><line style="stroke:#181818;stroke-width:0.3499999999999999;stroke-dasharray:5.0,5.0;" x1="779.1" x2="779.1" y1="405.1988" y2="548.3748"/><text fill="#000000" font-family="sans-serif" font-size="9.8" lengthAdjust="spacing" textLength="21" x="3.5" y="56.0752">HRM</text><ellipse cx="16.1" cy="9.45" fill="#E3E3E3" rx="5.6" ry="5.6" style="stroke:#181818;stroke-width:0.3499999999999999;"/><path d="M16.1,15.05 L16.1,33.95 M7,20.65 L25.2,20.65 M16.1,33.95 L7,44.45 M16.1,33.95 L25.2,44.45 " fill="none" style="stroke:#181818;stroke-width:0.3499999999999999;"/><text fill="#000000" font-family="sans-serif" font-size="9.8" lengthAdjust="spacing" textLength="21" x="3.5" y="558.25">HRM</text><ellipse cx="16.1" cy="566.6596" fill="#E3E3E3" rx="5.6" ry="5.6" style="stroke:#181818;stroke-width:0.3499999999999999;"/><path d="M16.1,572.2596 L16.1,591.1596 M7,577.8596 L25.2,577.8596 M16.1,591.1596 L7,601.6596 M16.1,591.1596 L25.2,601.6596 " fill="none" style="stroke:#181818;stroke-width:0.3499999999999999;"/><rect fill="#E3E3E3" height="22.8348" rx="1.75" ry="1.75" style="stroke:#181818;stroke-width:0.3499999999999999;" width="73.5" x="260.05" y="35"/><text fill="#000000" font-family="sans-serif" font-size="9.8" lengthAdjust="spacing" textLength="63.7" x="264.95" y="50.4752">:RegisterJobUI</text><rect fill="#E3E3E3" height="22.8348" rx="1.75" ry="1.75" style="stroke:#181818;stroke-width:0.3499999999999999;" width="73.5" x="260.05" y="547.6748"/><text fill="#000000" font-family="sans-serif" font-size="9.8" lengthAdjust="spacing" textLength="63.7" x="264.95" y="563.15">:RegisterJobUI</text><rect fill="#E3E3E3" height="22.8348" rx="1.75" ry="1.75" style="stroke:#181818;stroke-width:0.3499999999999999;" width="108.5" x="404.95" y="547.6748"/><text fill="#000000" font-family="sans-serif" font-size="9.8" lengthAdjust="spacing" textLength="98.7" x="409.85" y="563.15">:RegisterJobController</text><rect fill="#E3E3E3" height="22.8348" rx="1.75" ry="1.75" style="stroke:#181818;stroke-width:0.3499999999999999;" width="75.6" x="576.1" y="35"/><text fill="#000000" font-family="sans-serif" font-size="9.8" lengthAdjust="spacing" textLength="65.8" x="581" y="50.4752">:JobRepository</text><rect fill="#E3E3E3" height="22.8348" rx="1.75" ry="1.75" style="stroke:#181818;stroke-width:0.3499999999999999;" width="75.6" x="576.1" y="547.6748"/><text fill="#000000" font-family="sans-serif" font-size="9.8" lengthAdjust="spacing" textLength="65.8" x="581" y="563.15">:JobRepository</text><rect fill="#E3E3E3" height="35.8695" rx="1.75" ry="1.75" style="stroke:#181818;stroke-width:0.3499999999999999;" width="67.9" x="658.7" y="21.9652"/><text fill="#000000" font-family="sans-serif" font-size="9.8" lengthAdjust="spacing" textLength="51.8" x="666.75" y="37.4404">repositories</text><text fill="#000000" font-family="sans-serif" font-size="9.8" lengthAdjust="spacing" textLength="58.1" x="663.6" y="50.4752">:Repositories</text><rect fill="#E3E3E3" height="35.8695" rx="1.75" ry="1.75" style="stroke:#181818;stroke-width:0.3499999999999999;" width="67.9" x="658.7" y="547.6748"/><text fill="#000000" font-family="sans-serif" font-size="9.8" lengthAdjust="spacing" textLength="51.8" x="666.75" y="563.15">repositories</text><text fill="#000000" font-family="sans-serif" font-size="9.8" lengthAdjust="spacing" textLength="58.1" x="663.6" y="576.1848">:Repositories</text><rect fill="#E3E3E3" height="35.8695" rx="1.75" ry="1.75" style="stroke:#181818;stroke-width:0.3499999999999999;" width="28" x="765.1" y="547.6748"/><text fill="#000000" font-family="sans-serif" font-size="9.8" lengthAdjust="spacing" textLength="13.3" x="772.45" y="563.15">job</text><text fill="#000000" font-family="sans-serif" font-size="9.8" lengthAdjust="spacing" textLength="18.2" x="770" y="576.1848">:Job</text><rect fill="#FFFFFF" height="404.5289" style="stroke:#181818;stroke-width:0.6999999999999998;" width="7" x="12.6" y="65.5348"/><rect fill="#FFFFFF" height="432.0326" style="stroke:#181818;stroke-width:0.6999999999999998;" width="7" x="293.3" y="81.8385"/><rect fill="#FFFFFF" height="248.1719" style="stroke:#181818;stroke-width:0.6999999999999998;" width="7" x="296.8" y="243.7955"/><rect fill="#FFFFFF" height="21.9037" style="stroke:#181818;stroke-width:0.6999999999999998;" width="7" x="300.3" y="265.6992"/><rect fill="#FFFFFF" height="320.183" style="stroke:#181818;stroke-width:0.6999999999999998;" width="7" x="455.7" y="221.8918"/><rect fill="#FFFFFF" height="43.8074" style="stroke:#181818;stroke-width:0.6999999999999998;" width="7" x="459.2" y="287.6029"/><rect fill="#FFFFFF" height="142.357" style="stroke:#181818;stroke-width:0.6999999999999998;" width="7" x="610.4" y="399.7178"/><rect fill="#FFFFFF" height="21.9037" style="stroke:#181818;stroke-width:0.6999999999999998;" width="7" x="689.15" y="309.5066"/><polygon fill="#181818" points="284.9,79.0385,291.9,81.8385,284.9,84.6385,287.7,81.8385" style="stroke:#181818;stroke-width:0.6999999999999998;"/><line style="stroke:#181818;stroke-width:0.6999999999999998;" x1="19.6" x2="289.1" y1="81.8385" y2="81.8385"/><text fill="#000000" font-family="sans-serif" font-size="9.1" font-weight="bold" lengthAdjust="spacing" textLength="4.9" x="24.5" y="78.1546">1</text><text fill="#000000" font-family="sans-serif" font-size="9.1" lengthAdjust="spacing" textLength="99.4" x="32.2" y="78.1546">asks to create a new job</text><polygon fill="#181818" points="396.55,100.9422,403.55,103.7422,396.55,106.5422,399.35,103.7422" style="stroke:#181818;stroke-width:0.6999999999999998;"/><line style="stroke:#181818;stroke-width:0.6999999999999998;" x1="300.3" x2="400.75" y1="103.7422" y2="103.7422"/><text fill="#000000" font-family="sans-serif" font-size="9.1" font-weight="bold" lengthAdjust="spacing" textLength="4.9" x="305.2" y="100.0583">2</text><text fill="#000000" font-family="sans-serif" font-size="9.1" lengthAdjust="spacing" textLength="25.2" x="312.9" y="100.0583">create</text><rect fill="#E3E3E3" height="22.8348" rx="1.75" ry="1.75" style="stroke:#181818;stroke-width:0.3499999999999999;" width="108.5" x="404.95" y="87.4385"/><text fill="#000000" font-family="sans-serif" font-size="9.8" lengthAdjust="spacing" textLength="98.7" x="409.85" y="102.9137">:RegisterJobController</text><polygon fill="#181818" points="605.5,131.477,612.5,134.277,605.5,137.077,608.3,134.277" style="stroke:#181818;stroke-width:0.6999999999999998;"/><line style="stroke:#181818;stroke-width:0.6999999999999998;" x1="459.2" x2="609.7" y1="134.277" y2="134.277"/><text fill="#000000" font-family="sans-serif" font-size="9.1" font-weight="bold" lengthAdjust="spacing" textLength="4.9" x="464.1" y="130.5931">3</text><text fill="#000000" font-family="sans-serif" font-size="9.1" lengthAdjust="spacing" textLength="70" x="471.8" y="130.5931">getJobRepository</text><polygon fill="#181818" points="466.9,153.3807,459.9,156.1807,466.9,158.9807,464.1,156.1807" style="stroke:#181818;stroke-width:0.6999999999999998;"/><line style="stroke:#181818;stroke-width:0.6999999999999998;" x1="462.7" x2="613.2" y1="156.1807" y2="156.1807"/><text fill="#000000" font-family="sans-serif" font-size="9.1" font-weight="bold" lengthAdjust="spacing" textLength="4.9" x="471.1" y="152.4968">4</text><text fill="#000000" font-family="sans-serif" font-size="9.1" lengthAdjust="spacing" textLength="55.3" x="478.8" y="152.4968">jobRepository</text><polygon fill="#181818" points="27.3,175.2844,20.3,178.0844,27.3,180.8844,24.5,178.0844" style="stroke:#181818;stroke-width:0.6999999999999998;"/><line style="stroke:#181818;stroke-width:0.6999999999999998;stroke-dasharray:2.0,2.0;" x1="23.1" x2="292.6" y1="178.0844" y2="178.0844"/><text fill="#000000" font-family="sans-serif" font-size="9.1" font-weight="bold" lengthAdjust="spacing" textLength="4.9" x="31.5" y="174.4005">5</text><text fill="#000000" font-family="sans-serif" font-size="9.1" lengthAdjust="spacing" textLength="249.2" x="39.2" y="174.4005">shows all jobs category existing to date or asks to create one</text><polygon fill="#181818" points="284.9,197.1881,291.9,199.9881,284.9,202.7881,287.7,199.9881" style="stroke:#181818;stroke-width:0.6999999999999998;"/><line style="stroke:#181818;stroke-width:0.6999999999999998;stroke-dasharray:2.0,2.0;" x1="19.6" x2="289.1" y1="199.9881" y2="199.9881"/><text fill="#000000" font-family="sans-serif" font-size="9.1" font-weight="bold" lengthAdjust="spacing" textLength="4.9" x="24.5" y="196.3042">6</text><text fill="#000000" font-family="sans-serif" font-size="9.1" lengthAdjust="spacing" textLength="69.3" x="32.2" y="196.3042">selects an option</text><polygon fill="#181818" points="27.3,219.0918,20.3,221.8918,27.3,224.6918,24.5,221.8918" style="stroke:#181818;stroke-width:0.6999999999999998;"/><line style="stroke:#181818;stroke-width:0.6999999999999998;stroke-dasharray:2.0,2.0;" x1="23.1" x2="292.6" y1="221.8918" y2="221.8918"/><text fill="#000000" font-family="sans-serif" font-size="9.1" font-weight="bold" lengthAdjust="spacing" textLength="4.9" x="31.5" y="218.2079">7</text><text fill="#000000" font-family="sans-serif" font-size="9.1" lengthAdjust="spacing" textLength="135.8" x="39.2" y="218.2079">requests data (name, description)</text><polygon fill="#181818" points="288.4,240.9955,295.4,243.7955,288.4,246.5955,291.2,243.7955" style="stroke:#181818;stroke-width:0.6999999999999998;"/><line style="stroke:#181818;stroke-width:0.6999999999999998;" x1="19.6" x2="292.6" y1="243.7955" y2="243.7955"/><text fill="#000000" font-family="sans-serif" font-size="9.1" font-weight="bold" lengthAdjust="spacing" textLength="4.9" x="24.5" y="240.1116">8</text><text fill="#000000" font-family="sans-serif" font-size="9.1" lengthAdjust="spacing" textLength="165.9" x="32.2" y="240.1116">types requested data (name, description)</text><polygon fill="#181818" points="291.9,262.8992,298.9,265.6992,291.9,268.4992,294.7,265.6992" style="stroke:#181818;stroke-width:0.6999999999999998;"/><line style="stroke:#181818;stroke-width:0.6999999999999998;" x1="19.6" x2="296.1" y1="265.6992" y2="265.6992"/><text fill="#000000" font-family="sans-serif" font-size="9.1" font-weight="bold" lengthAdjust="spacing" textLength="4.9" x="24.5" y="262.0153">9</text><text fill="#000000" font-family="sans-serif" font-size="9.1" lengthAdjust="spacing" textLength="52.5" x="32.2" y="262.0153">submits data</text><polygon fill="#181818" points="450.8,284.8029,457.8,287.6029,450.8,290.4029,453.6,287.6029" style="stroke:#181818;stroke-width:0.6999999999999998;"/><line style="stroke:#181818;stroke-width:0.6999999999999998;" x1="303.8" x2="455" y1="287.6029" y2="287.6029"/><text fill="#000000" font-family="sans-serif" font-size="9.1" font-weight="bold" lengthAdjust="spacing" textLength="9.8" x="308.7" y="283.919">10</text><text fill="#000000" font-family="sans-serif" font-size="9.1" lengthAdjust="spacing" textLength="119" x="321.3" y="283.919">registerJob(name,description)</text><polygon fill="#181818" points="680.75,306.7066,687.75,309.5066,680.75,312.3066,683.55,309.5066" style="stroke:#181818;stroke-width:0.6999999999999998;"/><line style="stroke:#181818;stroke-width:0.6999999999999998;" x1="466.2" x2="684.95" y1="309.5066" y2="309.5066"/><text fill="#000000" font-family="sans-serif" font-size="9.1" font-weight="bold" lengthAdjust="spacing" textLength="9.8" x="471.1" y="305.8228">11</text><text fill="#000000" font-family="sans-serif" font-size="9.1" lengthAdjust="spacing" textLength="52.5" x="483.7" y="305.8228">getInstance()</text><polygon fill="#181818" points="470.4,328.6104,463.4,331.4104,470.4,334.2104,467.6,331.4104" style="stroke:#181818;stroke-width:0.6999999999999998;"/><line style="stroke:#181818;stroke-width:0.6999999999999998;stroke-dasharray:2.0,2.0;" x1="466.2" x2="691.95" y1="331.4104" y2="331.4104"/><text fill="#000000" font-family="sans-serif" font-size="9.1" font-weight="bold" lengthAdjust="spacing" textLength="9.8" x="474.6" y="327.7265">12</text><text fill="#000000" font-family="sans-serif" font-size="9.1" lengthAdjust="spacing" textLength="46.9" x="487.2" y="327.7265">repositories</text><polygon fill="#181818" points="605.5,368.0141,612.5,370.8141,605.5,373.6141,608.3,370.8141" style="stroke:#181818;stroke-width:0.6999999999999998;"/><line style="stroke:#181818;stroke-width:0.6999999999999998;" x1="462.7" x2="609.7" y1="370.8141" y2="370.8141"/><text fill="#000000" font-family="sans-serif" font-size="9.1" font-weight="bold" lengthAdjust="spacing" textLength="9.8" x="467.6" y="367.1302">13</text><text fill="#000000" font-family="sans-serif" font-size="9.1" lengthAdjust="spacing" textLength="121.8" x="480.2" y="367.1302">registerJob(name, description)</text><polygon fill="#181818" points="756.7,389.9178,763.7,392.7178,756.7,395.5178,759.5,392.7178" style="stroke:#181818;stroke-width:0.6999999999999998;"/><line style="stroke:#181818;stroke-width:0.6999999999999998;" x1="613.9" x2="760.9" y1="392.7178" y2="392.7178"/><text fill="#000000" font-family="sans-serif" font-size="9.1" font-weight="bold" lengthAdjust="spacing" textLength="9.8" x="618.8" y="389.0339">14</text><text fill="#000000" font-family="sans-serif" font-size="9.1" lengthAdjust="spacing" textLength="121.8" x="631.4" y="389.0339">registerJob(name, description)</text><rect fill="#E3E3E3" height="35.8695" rx="1.75" ry="1.75" style="stroke:#181818;stroke-width:0.3499999999999999;" width="28" x="765.1" y="376.4141"/><text fill="#000000" font-family="sans-serif" font-size="9.8" lengthAdjust="spacing" textLength="13.3" x="772.45" y="391.8893">job</text><text fill="#000000" font-family="sans-serif" font-size="9.8" lengthAdjust="spacing" textLength="18.2" x="770" y="404.924">:Job</text><rect fill="none" height="30.2764" style="stroke:#000000;stroke-width:1.0499999999999998;" width="79.8" x="574" y="419.9836"/><path d="M574,419.9836 L617.4,419.9836 L617.4,426.2836 L610.4,433.2836 L574,433.2836 L574,419.9836 " fill="#EEEEEE" style="stroke:#000000;stroke-width:1.3999999999999997;"/><text fill="#000000" font-family="sans-serif" font-size="9.1" font-weight="bold" lengthAdjust="spacing" textLength="11.9" x="583.1" y="431.2034">ref</text><text fill="#000000" font-family="sans-serif" font-size="8.4" lengthAdjust="spacing" textLength="49" x="589.4" y="445.148">Register Job</text><polygon fill="#181818" points="447.3,467.2637,454.3,470.0637,447.3,472.8637,450.1,470.0637" style="stroke:#181818;stroke-width:0.6999999999999998;"/><line style="stroke:#181818;stroke-width:0.6999999999999998;stroke-dasharray:2.0,2.0;" x1="16.1" x2="451.5" y1="470.0637" y2="470.0637"/><text fill="#000000" font-family="sans-serif" font-size="9.1" font-weight="bold" lengthAdjust="spacing" textLength="9.8" x="21" y="466.3798">15</text><text fill="#000000" font-family="sans-serif" font-size="9.1" lengthAdjust="spacing" textLength="11.9" x="33.6" y="466.3798">job</text><polygon fill="#181818" points="470.4,489.1674,463.4,491.9674,470.4,494.7674,467.6,491.9674" style="stroke:#181818;stroke-width:0.6999999999999998;"/><line style="stroke:#181818;stroke-width:0.6999999999999998;stroke-dasharray:2.0,2.0;" x1="466.2" x2="609.7" y1="491.9674" y2="491.9674"/><text fill="#000000" font-family="sans-serif" font-size="9.1" font-weight="bold" lengthAdjust="spacing" textLength="9.8" x="474.6" y="488.2835">16</text><text fill="#000000" font-family="sans-serif" font-size="9.1" lengthAdjust="spacing" textLength="11.9" x="487.2" y="488.2835">job</text><polygon fill="#181818" points="23.8,511.0711,16.8,513.8711,23.8,516.6711,21,513.8711" style="stroke:#181818;stroke-width:0.6999999999999998;"/><line style="stroke:#181818;stroke-width:0.6999999999999998;stroke-dasharray:2.0,2.0;" x1="19.6" x2="455" y1="513.8711" y2="513.8711"/><text fill="#000000" font-family="sans-serif" font-size="9.1" font-weight="bold" lengthAdjust="spacing" textLength="9.8" x="28" y="510.1872">17</text><text fill="#000000" font-family="sans-serif" font-size="9.1" lengthAdjust="spacing" textLength="11.9" x="40.6" y="510.1872">job</text><polygon fill="#181818" points="23.8,532.9748,16.8,535.7748,23.8,538.5748,21,535.7748" style="stroke:#181818;stroke-width:0.6999999999999998;"/><line style="stroke:#181818;stroke-width:0.6999999999999998;stroke-dasharray:2.0,2.0;" x1="19.6" x2="296.1" y1="535.7748" y2="535.7748"/><text fill="#000000" font-family="sans-serif" font-size="9.1" font-weight="bold" lengthAdjust="spacing" textLength="9.8" x="28" y="532.0909">18</text><text fill="#000000" font-family="sans-serif" font-size="9.1" lengthAdjust="spacing" textLength="110.6" x="40.6" y="532.0909">displays operation success</text><!--SRC=[bLHDR-8m4BtxLuouGD7s3t1OQKiFfMhL5MrlUp7E40o9dRMTqaZy-1qxtmb1shb4yRnvupSVjYUfCcvu2gbMMXoCJX6SoP7PnfDnSU8nlhiYGJ0e75TnqWNO0u_qMQeOzZono1ZZkTCgJtTe69iVP8Imrzhjz3UvXDC6Pa_Rrnbm2_HbnEAaa1bN3cQhBSRIEZJFUlUv2PZFpJHahPKpEadG1EZwO_io01DeYvcsal8M0VJyzl3U1vaQ8D7-KQjjvpT4_7xvzT6FEEeT0OcxPWpAv1Tt63Gng8n-uFudQO0L8KyMd0PXqECuA3m3CRNeXeCqDuVUgf2WhtjElCJkZvTBob32-g7UwK5UDa5YTBsIzC41L34I-3YDz9a9wFMjQ0JqsG9F4XzXGT0bOee0_AP6-SaWrP4NGBqVL46hmNr3nUgIMKneueXQWSwSrEh69Gp-pT4Ic39nM2YUuW-8q0eZG-XTFxQfTIXgwUjsonKPsfeKesdMKUD6L3RVfRAw69liSzlB8AQPyJBdAAMt2BjC4yhcrwQXIbDEmxhgrqFns6PPEEfKxNdiPf_VA2CChCxdLwZCjr6MdX21YxiHkE4A2pToUmiyzvK0NwPsLKVuJdLAmZcRS7T6eBRBvJAvHbVQSsFGkdj5t-No_yARIuPtg-ink0VzXMRiyLQ_aa19UavKaGyTNxBUl7RvsLJ1UczSAx3fot6Gip-eLmfRRl4uy0R9n4kmWaZQBE65fIS33VSbfGqK0cqv8WEQWQf_]--></g></svg>