<?xml version="1.0" encoding="us-ascii" standalone="no"?><svg xmlns="http://www.w3.org/2000/svg" xmlns:xlink="http://www.w3.org/1999/xlink" contentStyleType="text/css" height="468px" preserveAspectRatio="none" style="width:648px;height:468px;background:#FFFFFF;" version="1.1" viewBox="0 0 648 468" width="648px" zoomAndPan="magnify"><defs/><g><rect fill="#FFFFFF" height="303.9883" style="stroke:#181818;stroke-width:1.0;" width="10" x="295" y="90.5332"/><rect fill="#FFFFFF" height="130.873" style="stroke:#181818;stroke-width:1.0;" width="10" x="300" y="218.3574"/><rect fill="#FFFFFF" height="42.291" style="stroke:#181818;stroke-width:1.0;" width="10" x="305" y="262.6484"/><rect fill="none" height="258.6973" style="stroke:#000000;stroke-width:1.5;" width="376" x="266" y="105.5332"/><line style="stroke:#181818;stroke-width:0.5;stroke-dasharray:5.0,5.0;" x1="300" x2="300" y1="57.2422" y2="412.5215"/><line style="stroke:#181818;stroke-width:0.5;stroke-dasharray:5.0,5.0;" x1="612" x2="612" y1="165.9453" y2="412.5215"/><rect fill="#E3E3E3" height="51.2422" rx="2.5" ry="2.5" style="stroke:#181818;stroke-width:0.5;" width="48" x="276" y="5"/><text fill="#000000" font-family="sans-serif" font-size="14" lengthAdjust="spacing" textLength="24" x="288" y="27.1074">hrm</text><text fill="#000000" font-family="sans-serif" font-size="14" lengthAdjust="spacing" textLength="34" x="283" y="45.7285">:HRM</text><rect fill="#E3E3E3" height="51.2422" rx="2.5" ry="2.5" style="stroke:#181818;stroke-width:0.5;" width="48" x="276" y="411.5215"/><text fill="#000000" font-family="sans-serif" font-size="14" lengthAdjust="spacing" textLength="24" x="288" y="433.6289">hrm</text><text fill="#000000" font-family="sans-serif" font-size="14" lengthAdjust="spacing" textLength="34" x="283" y="452.25">:HRM</text><rect fill="#E3E3E3" height="51.2422" rx="2.5" ry="2.5" style="stroke:#181818;stroke-width:0.5;" width="40" x="592" y="411.5215"/><text fill="#000000" font-family="sans-serif" font-size="14" lengthAdjust="spacing" textLength="19" x="602.5" y="433.6289">job</text><text fill="#000000" font-family="sans-serif" font-size="14" lengthAdjust="spacing" textLength="26" x="599" y="452.25">:Job</text><rect fill="#FFFFFF" height="303.9883" style="stroke:#181818;stroke-width:1.0;" width="10" x="295" y="90.5332"/><rect fill="#FFFFFF" height="130.873" style="stroke:#181818;stroke-width:1.0;" width="10" x="300" y="218.3574"/><rect fill="#FFFFFF" height="42.291" style="stroke:#181818;stroke-width:1.0;" width="10" x="305" y="262.6484"/><polygon fill="#181818" points="283,86.5332,293,90.5332,283,94.5332,287,90.5332" style="stroke:#181818;stroke-width:1.0;"/><line style="stroke:#181818;stroke-width:1.0;" x1="0" x2="289" y1="90.5332" y2="90.5332"/><text fill="#000000" font-family="sans-serif" font-size="13" font-weight="bold" lengthAdjust="spacing" textLength="14" x="7" y="85.2705">16</text><text fill="#000000" font-family="sans-serif" font-size="13" lengthAdjust="spacing" textLength="258" x="25" y="85.2705">createJob(name, description,reference, hrm )</text><path d="M266,105.5332 L380,105.5332 L380,114.8242 L370,124.8242 L266,124.8242 L266,105.5332 " fill="#EEEEEE" style="stroke:#000000;stroke-width:1.5;"/><rect fill="none" height="258.6973" style="stroke:#000000;stroke-width:1.5;" width="376" x="266" y="105.5332"/><text fill="#000000" font-family="sans-serif" font-size="13" font-weight="bold" lengthAdjust="spacing" textLength="69" x="281" y="120.5615">Create Job</text><polygon fill="#181818" points="580,144.1152,590,148.1152,580,152.1152,584,148.1152" style="stroke:#181818;stroke-width:1.0;"/><line style="stroke:#181818;stroke-width:1.0;" x1="305" x2="586" y1="148.1152" y2="148.1152"/><text fill="#000000" font-family="sans-serif" font-size="13" font-weight="bold" lengthAdjust="spacing" textLength="25" x="312" y="142.8525">16.1</text><text fill="#000000" font-family="sans-serif" font-size="13" lengthAdjust="spacing" textLength="234" x="341" y="142.8525">create(name, description,reference, hrm)</text><rect fill="#E3E3E3" height="51.2422" rx="2.5" ry="2.5" style="stroke:#181818;stroke-width:0.5;" width="40" x="592" y="124.8242"/><text fill="#000000" font-family="sans-serif" font-size="14" lengthAdjust="spacing" textLength="19" x="602.5" y="146.9316">job</text><text fill="#000000" font-family="sans-serif" font-size="14" lengthAdjust="spacing" textLength="26" x="599" y="165.5527">:Job</text><line style="stroke:#181818;stroke-width:1.0;" x1="305" x2="352" y1="205.3574" y2="205.3574"/><line style="stroke:#181818;stroke-width:1.0;" x1="352" x2="352" y1="205.3574" y2="218.3574"/><line style="stroke:#181818;stroke-width:1.0;" x1="311" x2="352" y1="218.3574" y2="218.3574"/><polygon fill="#181818" points="321,214.3574,311,218.3574,321,222.3574,317,218.3574" style="stroke:#181818;stroke-width:1.0;"/><text fill="#000000" font-family="sans-serif" font-size="13" font-weight="bold" lengthAdjust="spacing" textLength="25" x="317" y="200.0947">16.2</text><text fill="#000000" font-family="sans-serif" font-size="13" lengthAdjust="spacing" textLength="70" x="346" y="200.0947">addJob (job)</text><line style="stroke:#181818;stroke-width:1.0;" x1="310" x2="357" y1="249.6484" y2="249.6484"/><line style="stroke:#181818;stroke-width:1.0;" x1="357" x2="357" y1="249.6484" y2="262.6484"/><line style="stroke:#181818;stroke-width:1.0;" x1="316" x2="357" y1="262.6484" y2="262.6484"/><polygon fill="#181818" points="326,258.6484,316,262.6484,326,266.6484,322,262.6484" style="stroke:#181818;stroke-width:1.0;"/><text fill="#000000" font-family="sans-serif" font-size="13" font-weight="bold" lengthAdjust="spacing" textLength="25" x="322" y="244.3857">16.3</text><text fill="#000000" font-family="sans-serif" font-size="13" lengthAdjust="spacing" textLength="104" x="351" y="244.3857">validateTask(task)</text><line style="stroke:#181818;stroke-width:1.0;stroke-dasharray:2.0,2.0;" x1="315" x2="357" y1="303.9395" y2="303.9395"/><line style="stroke:#181818;stroke-width:1.0;stroke-dasharray:2.0,2.0;" x1="357" x2="357" y1="303.9395" y2="316.9395"/><line style="stroke:#181818;stroke-width:1.0;stroke-dasharray:2.0,2.0;" x1="310" x2="357" y1="316.9395" y2="316.9395"/><polygon fill="#181818" points="320,312.9395,310,316.9395,320,320.9395,316,316.9395" style="stroke:#181818;stroke-width:1.0;"/><text fill="#000000" font-family="sans-serif" font-size="13" font-weight="bold" lengthAdjust="spacing" textLength="25" x="322" y="298.6768">16.4</text><text fill="#000000" font-family="sans-serif" font-size="13" lengthAdjust="spacing" textLength="4" x="351" y="298.6768">&#160;</text><line style="stroke:#181818;stroke-width:1.0;stroke-dasharray:2.0,2.0;" x1="310" x2="352" y1="348.2305" y2="348.2305"/><line style="stroke:#181818;stroke-width:1.0;stroke-dasharray:2.0,2.0;" x1="352" x2="352" y1="348.2305" y2="361.2305"/><line style="stroke:#181818;stroke-width:1.0;stroke-dasharray:2.0,2.0;" x1="305" x2="352" y1="361.2305" y2="361.2305"/><polygon fill="#181818" points="315,357.2305,305,361.2305,315,365.2305,311,361.2305" style="stroke:#181818;stroke-width:1.0;"/><text fill="#000000" font-family="sans-serif" font-size="13" font-weight="bold" lengthAdjust="spacing" textLength="25" x="317" y="342.9678">16.5</text><text fill="#000000" font-family="sans-serif" font-size="13" lengthAdjust="spacing" textLength="4" x="346" y="342.9678">&#160;</text><polygon fill="#181818" points="11,390.5215,1,394.5215,11,398.5215,7,394.5215" style="stroke:#181818;stroke-width:1.0;"/><line style="stroke:#181818;stroke-width:1.0;stroke-dasharray:2.0,2.0;" x1="5" x2="299" y1="394.5215" y2="394.5215"/><text fill="#000000" font-family="sans-serif" font-size="13" font-weight="bold" lengthAdjust="spacing" textLength="14" x="17" y="389.2588">17</text><text fill="#000000" font-family="sans-serif" font-size="13" lengthAdjust="spacing" textLength="25" x="35" y="389.2588">task</text><!--SRC=[XL1FIyCm5B_dKpnsQiSgxA9GnCEyo60CrAENr-IjZMsIagGJlxsl6SwrAikXWT__9hJQzkZHW77MoSOxGn3zG2AScHvbYpMznC-Em9ECQElkKX0QLEv3sneEs0KIWk6efUxHHbWqthpPykbvjm0CmFUKVdSLqrjN9NgxtmY1GtHsC1LvMD-Auc4qbI0zOIGMPXODhK1Ha5xtKJkxydGWJrOop7MGpp9krW9br4Vsfm70f_PkwE4nXGAdYeIEXnN0fJnbkVoklTgPp-rfCoh5qP3nJ-O_1R-s_6KzOgSLYrunj5daJpwH_fjnpZa5JJX54vkuvfdfHuYiElak7_Wk8VT5aL9A6EUAUTaN]--></g></svg>