<?xml version="1.0" encoding="us-ascii" standalone="no"?><svg xmlns="http://www.w3.org/2000/svg" xmlns:xlink="http://www.w3.org/1999/xlink" contentStyleType="text/css" height="270.2px" preserveAspectRatio="none" style="width:705px;height:270px;background:#FFFFFF;" version="1.1" viewBox="0 0 705 270" width="705.6px" zoomAndPan="magnify"><defs/><g><!--class JobRepository--><g id="elem_JobRepository"><rect codeLine="22" fill="#F1F1F1" height="85.7391" id="JobRepository" rx="1.75" ry="1.75" style="stroke:#181818;stroke-width:0.3499999999999999;" width="144.9" x="248.5" y="119"/><ellipse cx="286.475" cy="130.2" fill="#ADD1B2" rx="7.7" ry="7.7" style="stroke:#181818;stroke-width:0.6999999999999998;"/><path d="M288.4109,127.3125 Q288.5203,127.1594 288.6516,127.0828 Q288.7828,127.0062 288.9359,127.0062 Q289.1984,127.0062 289.3625,127.1922 Q289.5266,127.3672 289.5266,127.7937 L289.5266,128.8109 Q289.5266,129.2375 289.3625,129.4234 Q289.1984,129.6094 288.9359,129.6094 Q288.6953,129.6094 288.5531,129.4672 Q288.4109,129.3359 288.3344,128.975 Q288.3016,128.7234 288.1703,128.5922 Q287.9406,128.3297 287.5141,128.1766 Q287.0875,128.0234 286.65,128.0234 Q286.1141,128.0234 285.6656,128.2531 Q285.2281,128.4828 284.8781,129.0078 Q284.5391,129.5328 284.5391,130.2547 L284.5391,131.0203 Q284.5391,131.8844 285.1625,132.4641 Q285.7859,133.0328 286.9016,133.0328 Q287.5578,133.0328 288.0172,132.8578 Q288.2906,132.7484 288.5859,132.4422 Q288.7719,132.2562 288.8703,132.2016 Q288.9797,132.1469 289.1219,132.1469 Q289.3516,132.1469 289.5266,132.3328 Q289.7125,132.5078 289.7125,132.7484 Q289.7125,132.9891 289.4719,133.2734 Q289.1219,133.6781 288.5641,133.9078 Q287.8094,134.225 286.9016,134.225 Q285.8406,134.225 284.9984,133.7875 Q284.3094,133.4375 283.8281,132.6937 Q283.3469,131.9391 283.3469,131.0422 L283.3469,130.2328 Q283.3469,129.3031 283.7734,128.5047 Q284.2109,127.6953 284.9766,127.2687 Q285.7422,126.8312 286.6062,126.8312 Q287.1203,126.8312 287.5687,126.9516 Q288.0281,127.0609 288.4109,127.3125 Z " fill="#000000"/><text fill="#000000" font-family="sans-serif" font-size="9.8" lengthAdjust="spacing" textLength="63" x="300.825" y="134.2578">JobRepository</text><line style="stroke:#181818;stroke-width:0.3499999999999999;" x1="249.2" x2="392.7" y1="141.4" y2="141.4"/><line style="stroke:#181818;stroke-width:0.3499999999999999;" x1="249.2" x2="392.7" y1="147" y2="147"/><text fill="#000000" font-family="sans-serif" font-size="9.8" lengthAdjust="spacing" textLength="56" x="252.7" y="160.3752">-addJob(job)</text><text fill="#000000" font-family="sans-serif" font-size="9.8" lengthAdjust="spacing" textLength="73.5" x="252.7" y="173.41">-validateJob(job)</text><text fill="#000000" font-family="sans-serif" font-size="9.8" lengthAdjust="spacing" textLength="2.8" x="252.7" y="186.4447">&#160;</text><text fill="#000000" font-family="sans-serif" font-size="9.8" lengthAdjust="spacing" textLength="136.5" x="252.7" y="199.4795">+CreateJob(name, description)</text></g><!--class HRM--><g id="elem_HRM"><rect codeLine="29" fill="#F1F1F1" height="46.6348" id="HRM" rx="1.75" ry="1.75" style="stroke:#181818;stroke-width:0.3499999999999999;" width="65.1" x="635.6" y="138.25"/><ellipse cx="655.865" cy="149.45" fill="#ADD1B2" rx="7.7" ry="7.7" style="stroke:#181818;stroke-width:0.6999999999999998;"/><path d="M657.8009,146.5625 Q657.9103,146.4094 658.0416,146.3328 Q658.1728,146.2562 658.3259,146.2562 Q658.5884,146.2562 658.7525,146.4422 Q658.9166,146.6172 658.9166,147.0437 L658.9166,148.0609 Q658.9166,148.4875 658.7525,148.6734 Q658.5884,148.8594 658.3259,148.8594 Q658.0853,148.8594 657.9431,148.7172 Q657.8009,148.5859 657.7244,148.225 Q657.6916,147.9734 657.5603,147.8422 Q657.3306,147.5797 656.9041,147.4266 Q656.4775,147.2734 656.04,147.2734 Q655.5041,147.2734 655.0556,147.5031 Q654.6181,147.7328 654.2681,148.2578 Q653.9291,148.7828 653.9291,149.5047 L653.9291,150.2703 Q653.9291,151.1344 654.5525,151.7141 Q655.1759,152.2828 656.2916,152.2828 Q656.9478,152.2828 657.4072,152.1078 Q657.6806,151.9984 657.9759,151.6922 Q658.1619,151.5062 658.2603,151.4516 Q658.3697,151.3969 658.5119,151.3969 Q658.7416,151.3969 658.9166,151.5828 Q659.1025,151.7578 659.1025,151.9984 Q659.1025,152.2391 658.8619,152.5234 Q658.5119,152.9281 657.9541,153.1578 Q657.1994,153.475 656.2916,153.475 Q655.2306,153.475 654.3884,153.0375 Q653.6994,152.6875 653.2181,151.9437 Q652.7369,151.1891 652.7369,150.2922 L652.7369,149.4828 Q652.7369,148.5531 653.1634,147.7547 Q653.6009,146.9453 654.3666,146.5187 Q655.1322,146.0812 655.9962,146.0812 Q656.5103,146.0812 656.9587,146.2016 Q657.4181,146.3109 657.8009,146.5625 Z " fill="#000000"/><text fill="#000000" font-family="sans-serif" font-size="9.8" lengthAdjust="spacing" textLength="21" x="667.835" y="153.5078">HRM</text><line style="stroke:#181818;stroke-width:0.3499999999999999;" x1="636.3" x2="700" y1="160.65" y2="160.65"/><text fill="#000000" font-family="sans-serif" font-size="9.8" lengthAdjust="spacing" textLength="56.7" x="639.8" y="174.0252">-String name</text><line style="stroke:#181818;stroke-width:0.3499999999999999;" x1="636.3" x2="700" y1="179.2848" y2="179.2848"/></g><!--class Job--><g id="elem_Job"><rect codeLine="33" fill="#F1F1F1" height="72.7043" id="Job" rx="1.75" ry="1.75" style="stroke:#181818;stroke-width:0.3499999999999999;" width="114.8" x="436.1" y="125.3"/><ellipse cx="482.825" cy="136.5" fill="#ADD1B2" rx="7.7" ry="7.7" style="stroke:#181818;stroke-width:0.6999999999999998;"/><path d="M484.7609,133.6125 Q484.8703,133.4594 485.0016,133.3828 Q485.1328,133.3062 485.2859,133.3062 Q485.5484,133.3062 485.7125,133.4922 Q485.8766,133.6672 485.8766,134.0937 L485.8766,135.1109 Q485.8766,135.5375 485.7125,135.7234 Q485.5484,135.9094 485.2859,135.9094 Q485.0453,135.9094 484.9031,135.7672 Q484.7609,135.6359 484.6844,135.275 Q484.6516,135.0234 484.5203,134.8922 Q484.2906,134.6297 483.8641,134.4766 Q483.4375,134.3234 483,134.3234 Q482.4641,134.3234 482.0156,134.5531 Q481.5781,134.7828 481.2281,135.3078 Q480.8891,135.8328 480.8891,136.5547 L480.8891,137.3203 Q480.8891,138.1844 481.5125,138.7641 Q482.1359,139.3328 483.2516,139.3328 Q483.9078,139.3328 484.3672,139.1578 Q484.6406,139.0484 484.9359,138.7422 Q485.1219,138.5562 485.2203,138.5016 Q485.3297,138.4469 485.4719,138.4469 Q485.7016,138.4469 485.8766,138.6328 Q486.0625,138.8078 486.0625,139.0484 Q486.0625,139.2891 485.8219,139.5734 Q485.4719,139.9781 484.9141,140.2078 Q484.1594,140.525 483.2516,140.525 Q482.1906,140.525 481.3484,140.0875 Q480.6594,139.7375 480.1781,138.9937 Q479.6969,138.2391 479.6969,137.3422 L479.6969,136.5328 Q479.6969,135.6031 480.1234,134.8047 Q480.5609,133.9953 481.3266,133.5687 Q482.0922,133.1312 482.9562,133.1312 Q483.4703,133.1312 483.9187,133.2516 Q484.3781,133.3609 484.7609,133.6125 Z " fill="#000000"/><text fill="#000000" font-family="sans-serif" font-size="9.8" lengthAdjust="spacing" textLength="15.4" x="497.175" y="140.5578">Job</text><line style="stroke:#181818;stroke-width:0.3499999999999999;" x1="436.8" x2="550.2" y1="147.7" y2="147.7"/><text fill="#000000" font-family="sans-serif" font-size="9.8" lengthAdjust="spacing" textLength="56.7" x="440.3" y="161.0752">-String name</text><text fill="#000000" font-family="sans-serif" font-size="9.8" lengthAdjust="spacing" textLength="80.5" x="440.3" y="174.11">-String description</text><line style="stroke:#181818;stroke-width:0.3499999999999999;" x1="436.8" x2="550.2" y1="179.3695" y2="179.3695"/><text fill="#000000" font-family="sans-serif" font-size="9.8" lengthAdjust="spacing" textLength="106.4" x="440.3" y="192.7447">+Job(name, description)</text></g><!--class Repositories--><g id="elem_Repositories"><rect codeLine="71" fill="#F1F1F1" height="72.7043" id="Repositories" rx="1.75" ry="1.75" style="stroke:#181818;stroke-width:0.3499999999999999;" width="135.8" x="8.4" y="193.2"/><ellipse cx="45.675" cy="204.4" fill="#ADD1B2" rx="7.7" ry="7.7" style="stroke:#181818;stroke-width:0.6999999999999998;"/><path d="M47.6109,201.5125 Q47.7203,201.3594 47.8516,201.2828 Q47.9828,201.2062 48.1359,201.2062 Q48.3984,201.2062 48.5625,201.3922 Q48.7266,201.5672 48.7266,201.9937 L48.7266,203.0109 Q48.7266,203.4375 48.5625,203.6234 Q48.3984,203.8094 48.1359,203.8094 Q47.8953,203.8094 47.7531,203.6672 Q47.6109,203.5359 47.5344,203.175 Q47.5016,202.9234 47.3703,202.7922 Q47.1406,202.5297 46.7141,202.3766 Q46.2875,202.2234 45.85,202.2234 Q45.3141,202.2234 44.8656,202.4531 Q44.4281,202.6828 44.0781,203.2078 Q43.7391,203.7328 43.7391,204.4547 L43.7391,205.2203 Q43.7391,206.0844 44.3625,206.6641 Q44.9859,207.2328 46.1016,207.2328 Q46.7578,207.2328 47.2172,207.0578 Q47.4906,206.9484 47.7859,206.6422 Q47.9719,206.4562 48.0703,206.4016 Q48.1797,206.3469 48.3219,206.3469 Q48.5516,206.3469 48.7266,206.5328 Q48.9125,206.7078 48.9125,206.9484 Q48.9125,207.1891 48.6719,207.4734 Q48.3219,207.8781 47.7641,208.1078 Q47.0094,208.425 46.1016,208.425 Q45.0406,208.425 44.1984,207.9875 Q43.5094,207.6375 43.0281,206.8937 Q42.5469,206.1391 42.5469,205.2422 L42.5469,204.4328 Q42.5469,203.5031 42.9734,202.7047 Q43.4109,201.8953 44.1766,201.4687 Q44.9422,201.0312 45.8062,201.0312 Q46.3203,201.0312 46.7687,201.1516 Q47.2281,201.2609 47.6109,201.5125 Z " fill="#000000"/><text fill="#000000" font-family="sans-serif" font-size="9.8" lengthAdjust="spacing" textLength="55.3" x="60.025" y="208.4578">Repositories</text><line style="stroke:#181818;stroke-width:0.3499999999999999;" x1="9.1" x2="143.5" y1="215.6" y2="215.6"/><line style="stroke:#181818;stroke-width:0.3499999999999999;" x1="9.1" x2="143.5" y1="221.2" y2="221.2"/><text fill="#000000" font-family="sans-serif" font-size="9.8" lengthAdjust="spacing" textLength="65.8" x="12.6" y="234.5752">-Repositories()</text><text fill="#000000" font-family="sans-serif" font-size="9.8" lengthAdjust="spacing" textLength="127.4" x="12.6" y="247.61">+getInstance() : Repositories</text><text fill="#000000" font-family="sans-serif" font-size="9.8" lengthAdjust="spacing" textLength="57.4" x="12.6" y="260.6447">+getJobList()</text></g><!--class CreateJobController--><g id="elem_CreateJobController"><rect codeLine="78" fill="#F1F1F1" height="59.6695" id="CreateJobController" rx="1.75" ry="1.75" style="stroke:#181818;stroke-width:0.3499999999999999;" width="142.8" x="4.9" y="63.35"/><ellipse cx="29.575" cy="74.55" fill="#ADD1B2" rx="7.7" ry="7.7" style="stroke:#181818;stroke-width:0.6999999999999998;"/><path d="M31.5109,71.6625 Q31.6203,71.5094 31.7516,71.4328 Q31.8828,71.3562 32.0359,71.3562 Q32.2984,71.3562 32.4625,71.5422 Q32.6266,71.7172 32.6266,72.1437 L32.6266,73.1609 Q32.6266,73.5875 32.4625,73.7734 Q32.2984,73.9594 32.0359,73.9594 Q31.7953,73.9594 31.6531,73.8172 Q31.5109,73.6859 31.4344,73.325 Q31.4016,73.0734 31.2703,72.9422 Q31.0406,72.6797 30.6141,72.5266 Q30.1875,72.3734 29.75,72.3734 Q29.2141,72.3734 28.7656,72.6031 Q28.3281,72.8328 27.9781,73.3578 Q27.6391,73.8828 27.6391,74.6047 L27.6391,75.3703 Q27.6391,76.2344 28.2625,76.8141 Q28.8859,77.3828 30.0016,77.3828 Q30.6578,77.3828 31.1172,77.2078 Q31.3906,77.0984 31.6859,76.7922 Q31.8719,76.6062 31.9703,76.5516 Q32.0797,76.4969 32.2219,76.4969 Q32.4516,76.4969 32.6266,76.6828 Q32.8125,76.8578 32.8125,77.0984 Q32.8125,77.3391 32.5719,77.6234 Q32.2219,78.0281 31.6641,78.2578 Q30.9094,78.575 30.0016,78.575 Q28.9406,78.575 28.0984,78.1375 Q27.4094,77.7875 26.9281,77.0437 Q26.4469,76.2891 26.4469,75.3922 L26.4469,74.5828 Q26.4469,73.6531 26.8734,72.8547 Q27.3109,72.0453 28.0766,71.6187 Q28.8422,71.1812 29.7062,71.1812 Q30.2203,71.1812 30.6687,71.3016 Q31.1281,71.4109 31.5109,71.6625 Z " fill="#000000"/><text fill="#000000" font-family="sans-serif" font-size="9.8" lengthAdjust="spacing" textLength="88.9" x="42.525" y="78.6078">CreateJobController</text><line style="stroke:#181818;stroke-width:0.3499999999999999;" x1="5.6" x2="147" y1="85.75" y2="85.75"/><line style="stroke:#181818;stroke-width:0.3499999999999999;" x1="5.6" x2="147" y1="91.35" y2="91.35"/><text fill="#000000" font-family="sans-serif" font-size="9.8" lengthAdjust="spacing" textLength="101.5" x="9.1" y="104.7252">+CreateJobController()</text><text fill="#000000" font-family="sans-serif" font-size="9.8" lengthAdjust="spacing" textLength="134.4" x="9.1" y="117.76">+createJob(name, description)</text></g><!--class CreateJobUI--><g id="elem_CreateJobUI"><rect codeLine="96" fill="#F1F1F1" height="33.6" id="CreateJobUI" rx="1.75" ry="1.75" style="stroke:#181818;stroke-width:0.3499999999999999;" width="76.3" x="38.15" y="4.9"/><ellipse cx="48.65" cy="16.1" fill="#ADD1B2" rx="7.7" ry="7.7" style="stroke:#181818;stroke-width:0.6999999999999998;"/><path d="M50.5859,13.2125 Q50.6953,13.0594 50.8266,12.9828 Q50.9578,12.9062 51.1109,12.9062 Q51.3734,12.9062 51.5375,13.0922 Q51.7016,13.2672 51.7016,13.6937 L51.7016,14.7109 Q51.7016,15.1375 51.5375,15.3234 Q51.3734,15.5094 51.1109,15.5094 Q50.8703,15.5094 50.7281,15.3672 Q50.5859,15.2359 50.5094,14.875 Q50.4766,14.6234 50.3453,14.4922 Q50.1156,14.2297 49.6891,14.0766 Q49.2625,13.9234 48.825,13.9234 Q48.2891,13.9234 47.8406,14.1531 Q47.4031,14.3828 47.0531,14.9078 Q46.7141,15.4328 46.7141,16.1547 L46.7141,16.9203 Q46.7141,17.7844 47.3375,18.3641 Q47.9609,18.9328 49.0766,18.9328 Q49.7328,18.9328 50.1922,18.7578 Q50.4656,18.6484 50.7609,18.3422 Q50.9469,18.1562 51.0453,18.1016 Q51.1547,18.0469 51.2969,18.0469 Q51.5266,18.0469 51.7016,18.2328 Q51.8875,18.4078 51.8875,18.6484 Q51.8875,18.8891 51.6469,19.1734 Q51.2969,19.5781 50.7391,19.8078 Q49.9844,20.125 49.0766,20.125 Q48.0156,20.125 47.1734,19.6875 Q46.4844,19.3375 46.0031,18.5937 Q45.5219,17.8391 45.5219,16.9422 L45.5219,16.1328 Q45.5219,15.2031 45.9484,14.4047 Q46.3859,13.5953 47.1516,13.1687 Q47.9172,12.7312 48.7812,12.7312 Q49.2953,12.7312 49.7437,12.8516 Q50.2031,12.9609 50.5859,13.2125 Z " fill="#000000"/><text fill="#000000" font-family="sans-serif" font-size="9.8" lengthAdjust="spacing" textLength="53.9" x="58.45" y="20.1578">CreateJobUI</text><line style="stroke:#181818;stroke-width:0.3499999999999999;" x1="38.85" x2="113.75" y1="27.3" y2="27.3"/><line style="stroke:#181818;stroke-width:0.3499999999999999;" x1="38.85" x2="113.75" y1="32.9" y2="32.9"/></g><!--link Repositories to Repositories--><g id="link_Repositories_Repositories"><path codeLine="99" d="M53.494,193.032 C52.878,179.655 60.48,168.7 76.3,168.7 C92.12,168.7 99.9152,175.4594 99.2992,188.8364 " fill="none" id="Repositories-to-Repositories" style="stroke:#181818;stroke-width:0.6999999999999998;"/><polygon fill="#181818" points="99.106,193.032,102.1928,186.8675,99.267,189.5357,96.5988,186.6099,99.106,193.032" style="stroke:#181818;stroke-width:0.6999999999999998;"/><text fill="#000000" font-family="sans-serif" font-size="9.1" lengthAdjust="spacing" textLength="34.3" x="59.15" y="162.4198">instance</text></g><!--link CreateJobUI to CreateJobController--><g id="link_CreateJobUI_CreateJobController"><path codeLine="101" d="M76.3,38.745 C76.3,42.56 76.3,45.5 76.3,45.5 C76.3,45.5 76.3,52.045 76.3,59.094 " fill="none" id="CreateJobUI-to-CreateJobController" style="stroke:#181818;stroke-width:0.6999999999999998;stroke-dasharray:7.0,7.0;"/><polygon fill="#181818" points="76.3,63.294,79.1,56.994,76.3,59.794,73.5,56.994,76.3,63.294" style="stroke:#181818;stroke-width:0.6999999999999998;"/></g><!--link CreateJobController to Repositories--><g id="link_CreateJobController_Repositories"><path codeLine="103" d="M76.3,122.955 C76.3,143.619 76.3,167.041 76.3,189 " fill="none" id="CreateJobController-to-Repositories" style="stroke:#181818;stroke-width:0.6999999999999998;stroke-dasharray:7.0,7.0;"/><polygon fill="#181818" points="76.3,193.2,79.1,186.9,76.3,189.7,73.5,186.9,76.3,193.2" style="stroke:#181818;stroke-width:0.6999999999999998;"/><text fill="#000000" font-family="sans-serif" font-size="9.1" lengthAdjust="spacing" textLength="46.9" x="44.1" y="161.8948">repositories</text></g><!--link CreateJobController to JobRepository--><g id="link_CreateJobController_JobRepository"><path codeLine="118" d="M148.015,113.127 C179.564,122.024 212.6078,131.3414 244.2618,140.2734 " fill="none" id="CreateJobController-to-JobRepository" style="stroke:#181818;stroke-width:0.6999999999999998;stroke-dasharray:7.0,7.0;"/><polygon fill="#181818" points="248.304,141.414,243.0012,137.0083,244.9355,140.4635,241.4804,142.3979,248.304,141.414" style="stroke:#181818;stroke-width:0.6999999999999998;"/><text fill="#000000" font-family="sans-serif" font-size="9.1" lengthAdjust="spacing" textLength="57.4" x="169.4" y="116.9198">JobRepository</text></g><!--link Repositories to JobRepository--><g id="link_Repositories_JobRepository"><path codeLine="119" d="M144.438,210.777 C176.771,201.747 211.4917,192.0615 244.3847,182.8775 " fill="none" id="Repositories-to-JobRepository" style="stroke:#181818;stroke-width:0.6999999999999998;"/><polygon fill="#181818" points="248.43,181.748,241.6091,180.7454,245.0589,182.6892,243.1151,186.1391,248.43,181.748" style="stroke:#181818;stroke-width:0.6999999999999998;"/><text fill="#000000" font-family="sans-serif" font-size="9.1" lengthAdjust="spacing" textLength="4.9" x="238.0244" y="193.4721">1</text></g><!--link Job to HRM--><g id="link_Job_HRM"><path codeLine="124" d="M550.928,161.7 C578.956,161.7 607.544,161.7 631.183,161.7 " fill="none" id="Job-to-HRM" style="stroke:#181818;stroke-width:0.6999999999999998;"/><polygon fill="#181818" points="635.383,161.7,629.083,158.9,631.883,161.7,629.083,164.5,635.383,161.7" style="stroke:#181818;stroke-width:0.6999999999999998;"/><text fill="#000000" font-family="sans-serif" font-size="9.1" lengthAdjust="spacing" textLength="41.3" x="572.6" y="158.9198">createdBy</text></g><!--link JobRepository to Job--><g id="link_JobRepository_Job"><path codeLine="125" d="M393.491,161.7 C407.666,161.7 418.166,161.7 431.767,161.7 " fill="none" id="JobRepository-to-Job" style="stroke:#181818;stroke-width:0.6999999999999998;"/><polygon fill="#181818" points="435.967,161.7,429.667,158.9,432.467,161.7,429.667,164.5,435.967,161.7" style="stroke:#181818;stroke-width:0.6999999999999998;"/><text fill="#000000" font-family="sans-serif" font-size="9.1" lengthAdjust="spacing" textLength="3.5" x="427.0018" y="172.0821">*</text></g><!--SRC=[ZLR9Rjim4BtpAuXUP3Toq5vz210x1PAY2n0tjrueQIopeKY1f1qeGV-zGoqqAKj1SmYiMTwysKWcvfdBccbMqKf9bH-qge1QVGHorjGiVsObx6mZW6h8BPEb20tCWHNgXSkIxfameKPm2RQfWTPADEw391DAfQqYWLSkc36trcgU7Iqyv4hk-2lGJuG8s5jg5TMyF5XQSCU6Aqb8qlhGsxeMF6TEjWDZd2fv8md5lojgB2foMe9zaFXRvh1O3ZeKRezQWxIzdrFzzRXF1lGb83evnPUAST7RT-PVLVO8jJBSAjsy4MUzOaM1uiKVbIqxmOa9NZ0BNaewrAs6NYfP1IajmEIQrowd9V4XxX-_qnwPxh1IM7ndJa8EamQH9C0Umiy7xclnYvddBJ8iCJVQrs8IC1dg57ei8bGiMJBW_jGba_orRTu5Raiz5fsO_N6iCj0Z-GjaMFYnTNrGSYm3rxY1veg67Uf55ptgCsAomGRSCzFrlWNooZ2HlfIUQ-hexP1UsZ5AEnBufN0anMrHQ1opb5PCuiffZvdxeT2m1vpJF6vGIhdSArqnSOT2B_qjBUG7YIlHohrnSTIi-vLZt9JwX76aCR5D4-T54bHV6NO2ryg5nN_HUeGDFWy-3HSbDDaq0PcBWPYQXndGq6JZEXBJzhlWtJaOlnIXSB4a7lHyED1rP3IJpPbRY8Aj-iQDNGGhwnTxgwJLIWZGFPchAPr7ozyx44YxGL9Pw0z5jPy26_fx7CuhoWrLcMLu1XUTSezdFxK7Q6se6KwxpY_laxqBzzkf44O3hXESeEWW30WybV4B5uUH16H17JrFCrFMeXdodAvYG1KHbSPZtjI2DRYndSfn7FZW9M9i46HSwgS7B35s89g0rKqy4MjSdgxdX8IUrpUJfIHJZRo-mDJXw91apE33vmzp1I195w5L1o4mHkWnc8s8eDNCwgpnffrI_6Uy26cMUfndd-Wq8RIUOThwVOpzI79vk_i0mGMDv8x1TJrVfJ6nKNtc7ITU6NEcqKi00qJVPB9MiGb9NANROgmcfWOXRJGICmrpVaDHt_MF2ZBswgqDSOyBft2la7L_G1MRXiJf3guenJoSxLHV4I03eMHfy6L7_W40]--></g></svg>