<?xml version="1.0" encoding="us-ascii" standalone="no"?><svg xmlns="http://www.w3.org/2000/svg" xmlns:xlink="http://www.w3.org/1999/xlink" contentStyleType="text/css" height="561.6px" preserveAspectRatio="none" style="width:683px;height:561px;background:#FFFFFF;" version="1.1" viewBox="0 0 683 561" width="683.4px" zoomAndPan="magnify"><defs/><g><rect fill="#FFFFFF" height="450.6609" style="stroke:#181818;stroke-width:0.6;" width="6" x="10.8" y="56.1727"/><rect fill="#FFFFFF" height="183.593" style="stroke:#181818;stroke-width:0.6;" width="6" x="13.8" y="317.8406"/><rect fill="#FFFFFF" height="66.3492" style="stroke:#181818;stroke-width:0.6;" width="6" x="16.8" y="378.7605"/><rect fill="#FFFFFF" height="16.8" style="stroke:#181818;stroke-width:0.6;" width="6" x="19.8" y="405.3352"/><rect fill="#FFFFFF" height="412.5117" style="stroke:#181818;stroke-width:0.6;" width="6" x="251.4" y="70.1473"/><rect fill="#FFFFFF" height="254.9168" style="stroke:#181818;stroke-width:0.6;" width="6" x="254.4" y="208.9676"/><rect fill="#FFFFFF" height="18.7746" style="stroke:#181818;stroke-width:0.6;" width="6" x="257.4" y="227.7422"/><rect fill="#FFFFFF" height="316.6406" style="stroke:#181818;stroke-width:0.6;" width="6" x="390.6" y="190.193"/><rect fill="#FFFFFF" height="37.5492" style="stroke:#181818;stroke-width:0.6;" width="6" x="393.6" y="246.5168"/><rect fill="#FFFFFF" height="18.7746" style="stroke:#181818;stroke-width:0.6;" width="6" x="590.7" y="265.2914"/><line style="stroke:#181818;stroke-width:0.3;stroke-dasharray:5.0,5.0;" x1="13.8" x2="13.8" y1="50.1727" y2="512.2336"/><line style="stroke:#181818;stroke-width:0.3;stroke-dasharray:5.0,5.0;" x1="254.1" x2="254.1" y1="50.1727" y2="512.2336"/><line style="stroke:#181818;stroke-width:0.3;stroke-dasharray:5.0,5.0;" x1="393.3" x2="393.3" y1="94.0336" y2="512.2336"/><line style="stroke:#181818;stroke-width:0.3;stroke-dasharray:5.0,5.0;" x1="526.2" x2="526.2" y1="50.1727" y2="512.2336"/><line style="stroke:#181818;stroke-width:0.3;stroke-dasharray:5.0,5.0;" x1="593.4" x2="593.4" y1="50.1727" y2="512.2336"/><line style="stroke:#181818;stroke-width:0.3;stroke-dasharray:5.0,5.0;" x1="667.8" x2="667.8" y1="347.3133" y2="512.2336"/><text fill="#000000" font-family="sans-serif" font-size="8.4" lengthAdjust="spacing" textLength="18" x="3" y="48.0645">HRM</text><ellipse cx="13.8" cy="8.1" fill="#E3E3E3" rx="4.8" ry="4.8" style="stroke:#181818;stroke-width:0.3;"/><path d="M13.8,12.9 L13.8,29.1 M6,17.7 L21.6,17.7 M13.8,29.1 L6,38.1 M13.8,29.1 L21.6,38.1 " fill="none" style="stroke:#181818;stroke-width:0.3;"/><text fill="#000000" font-family="sans-serif" font-size="8.4" lengthAdjust="spacing" textLength="18" x="3" y="520.698">HRM</text><ellipse cx="13.8" cy="527.9063" fill="#E3E3E3" rx="4.8" ry="4.8" style="stroke:#181818;stroke-width:0.3;"/><path d="M13.8,532.7063 L13.8,548.9063 M6,537.5063 L21.6,537.5063 M13.8,548.9063 L6,557.9063 M13.8,548.9063 L21.6,557.9063 " fill="none" style="stroke:#181818;stroke-width:0.3;"/><rect fill="#E3E3E3" height="19.5727" rx="1.5" ry="1.5" style="stroke:#181818;stroke-width:0.3;" width="63" x="222.9" y="30"/><text fill="#000000" font-family="sans-serif" font-size="8.4" lengthAdjust="spacing" textLength="54.6" x="227.1" y="43.2645">:RegisterJobUI</text><rect fill="#E3E3E3" height="19.5727" rx="1.5" ry="1.5" style="stroke:#181818;stroke-width:0.3;" width="63" x="222.9" y="511.6336"/><text fill="#000000" font-family="sans-serif" font-size="8.4" lengthAdjust="spacing" textLength="54.6" x="227.1" y="524.898">:RegisterJobUI</text><rect fill="#E3E3E3" height="19.5727" rx="1.5" ry="1.5" style="stroke:#181818;stroke-width:0.3;" width="93" x="347.1" y="511.6336"/><text fill="#000000" font-family="sans-serif" font-size="8.4" lengthAdjust="spacing" textLength="84.6" x="351.3" y="524.898">:RegisterJobController</text><rect fill="#E3E3E3" height="19.5727" rx="1.5" ry="1.5" style="stroke:#181818;stroke-width:0.3;" width="64.8" x="493.8" y="30"/><text fill="#000000" font-family="sans-serif" font-size="8.4" lengthAdjust="spacing" textLength="56.4" x="498" y="43.2645">:JobRepository</text><rect fill="#E3E3E3" height="19.5727" rx="1.5" ry="1.5" style="stroke:#181818;stroke-width:0.3;" width="64.8" x="493.8" y="511.6336"/><text fill="#000000" font-family="sans-serif" font-size="8.4" lengthAdjust="spacing" textLength="56.4" x="498" y="524.898">:JobRepository</text><rect fill="#E3E3E3" height="30.7453" rx="1.5" ry="1.5" style="stroke:#181818;stroke-width:0.3;" width="58.2" x="564.6" y="18.8273"/><text fill="#000000" font-family="sans-serif" font-size="8.4" lengthAdjust="spacing" textLength="44.4" x="571.5" y="32.0918">repositories</text><text fill="#000000" font-family="sans-serif" font-size="8.4" lengthAdjust="spacing" textLength="49.8" x="568.8" y="43.2645">:Repositories</text><rect fill="#E3E3E3" height="30.7453" rx="1.5" ry="1.5" style="stroke:#181818;stroke-width:0.3;" width="58.2" x="564.6" y="511.6336"/><text fill="#000000" font-family="sans-serif" font-size="8.4" lengthAdjust="spacing" textLength="44.4" x="571.5" y="524.898">repositories</text><text fill="#000000" font-family="sans-serif" font-size="8.4" lengthAdjust="spacing" textLength="49.8" x="568.8" y="536.0707">:Repositories</text><rect fill="#E3E3E3" height="30.7453" rx="1.5" ry="1.5" style="stroke:#181818;stroke-width:0.3;" width="24" x="655.8" y="511.6336"/><text fill="#000000" font-family="sans-serif" font-size="8.4" lengthAdjust="spacing" textLength="11.4" x="662.1" y="524.898">job</text><text fill="#000000" font-family="sans-serif" font-size="8.4" lengthAdjust="spacing" textLength="15.6" x="660" y="536.0707">:Job</text><rect fill="#FFFFFF" height="450.6609" style="stroke:#181818;stroke-width:0.6;" width="6" x="10.8" y="56.1727"/><rect fill="#FFFFFF" height="183.593" style="stroke:#181818;stroke-width:0.6;" width="6" x="13.8" y="317.8406"/><rect fill="#FFFFFF" height="66.3492" style="stroke:#181818;stroke-width:0.6;" width="6" x="16.8" y="378.7605"/><rect fill="#FFFFFF" height="16.8" style="stroke:#181818;stroke-width:0.6;" width="6" x="19.8" y="405.3352"/><rect fill="#FFFFFF" height="412.5117" style="stroke:#181818;stroke-width:0.6;" width="6" x="251.4" y="70.1473"/><rect fill="#FFFFFF" height="254.9168" style="stroke:#181818;stroke-width:0.6;" width="6" x="254.4" y="208.9676"/><rect fill="#FFFFFF" height="18.7746" style="stroke:#181818;stroke-width:0.6;" width="6" x="257.4" y="227.7422"/><rect fill="#FFFFFF" height="316.6406" style="stroke:#181818;stroke-width:0.6;" width="6" x="390.6" y="190.193"/><rect fill="#FFFFFF" height="37.5492" style="stroke:#181818;stroke-width:0.6;" width="6" x="393.6" y="246.5168"/><rect fill="#FFFFFF" height="18.7746" style="stroke:#181818;stroke-width:0.6;" width="6" x="590.7" y="265.2914"/><polygon fill="#181818" points="244.2,67.7473,250.2,70.1473,244.2,72.5473,246.6,70.1473" style="stroke:#181818;stroke-width:0.6;"/><line style="stroke:#181818;stroke-width:0.6;" x1="16.8" x2="247.8" y1="70.1473" y2="70.1473"/><text fill="#000000" font-family="sans-serif" font-size="7.8" font-weight="bold" lengthAdjust="spacing" textLength="4.2" x="21" y="66.9896">1</text><text fill="#000000" font-family="sans-serif" font-size="7.8" lengthAdjust="spacing" textLength="85.2" x="27.6" y="66.9896">asks to create a new job</text><polygon fill="#181818" points="339.9,86.5219,345.9,88.9219,339.9,91.3219,342.3,88.9219" style="stroke:#181818;stroke-width:0.6;"/><line style="stroke:#181818;stroke-width:0.6;" x1="257.4" x2="343.5" y1="88.9219" y2="88.9219"/><text fill="#000000" font-family="sans-serif" font-size="7.8" font-weight="bold" lengthAdjust="spacing" textLength="4.2" x="261.6" y="85.7643">2</text><text fill="#000000" font-family="sans-serif" font-size="7.8" lengthAdjust="spacing" textLength="21.6" x="268.2" y="85.7643">create</text><rect fill="#E3E3E3" height="19.5727" rx="1.5" ry="1.5" style="stroke:#181818;stroke-width:0.3;" width="93" x="347.1" y="74.9473"/><text fill="#000000" font-family="sans-serif" font-size="8.4" lengthAdjust="spacing" textLength="84.6" x="351.3" y="88.2117">:RegisterJobController</text><polygon fill="#181818" points="519,112.6945,525,115.0945,519,117.4945,521.4,115.0945" style="stroke:#181818;stroke-width:0.6;"/><line style="stroke:#181818;stroke-width:0.6;" x1="393.6" x2="522.6" y1="115.0945" y2="115.0945"/><text fill="#000000" font-family="sans-serif" font-size="7.8" font-weight="bold" lengthAdjust="spacing" textLength="4.2" x="397.8" y="111.9369">3</text><text fill="#000000" font-family="sans-serif" font-size="7.8" lengthAdjust="spacing" textLength="60" x="404.4" y="111.9369">getJobRepository</text><polygon fill="#181818" points="400.2,131.4691,394.2,133.8691,400.2,136.2691,397.8,133.8691" style="stroke:#181818;stroke-width:0.6;"/><line style="stroke:#181818;stroke-width:0.6;" x1="396.6" x2="525.6" y1="133.8691" y2="133.8691"/><text fill="#000000" font-family="sans-serif" font-size="7.8" font-weight="bold" lengthAdjust="spacing" textLength="4.2" x="403.8" y="130.7115">4</text><text fill="#000000" font-family="sans-serif" font-size="7.8" lengthAdjust="spacing" textLength="47.4" x="410.4" y="130.7115">jobRepository</text><polygon fill="#181818" points="23.4,150.2438,17.4,152.6437,23.4,155.0438,21,152.6437" style="stroke:#181818;stroke-width:0.6;"/><line style="stroke:#181818;stroke-width:0.6;stroke-dasharray:2.0,2.0;" x1="19.8" x2="250.8" y1="152.6437" y2="152.6437"/><text fill="#000000" font-family="sans-serif" font-size="7.8" font-weight="bold" lengthAdjust="spacing" textLength="4.2" x="27" y="149.4861">5</text><text fill="#000000" font-family="sans-serif" font-size="7.8" lengthAdjust="spacing" textLength="213.6" x="33.6" y="149.4861">shows all jobs category existing to date or asks to create one</text><polygon fill="#181818" points="244.2,169.0184,250.2,171.4184,244.2,173.8184,246.6,171.4184" style="stroke:#181818;stroke-width:0.6;"/><line style="stroke:#181818;stroke-width:0.6;stroke-dasharray:2.0,2.0;" x1="16.8" x2="247.8" y1="171.4184" y2="171.4184"/><text fill="#000000" font-family="sans-serif" font-size="7.8" font-weight="bold" lengthAdjust="spacing" textLength="4.2" x="21" y="168.2607">6</text><text fill="#000000" font-family="sans-serif" font-size="7.8" lengthAdjust="spacing" textLength="59.4" x="27.6" y="168.2607">selects an option</text><polygon fill="#181818" points="23.4,187.793,17.4,190.193,23.4,192.593,21,190.193" style="stroke:#181818;stroke-width:0.6;"/><line style="stroke:#181818;stroke-width:0.6;stroke-dasharray:2.0,2.0;" x1="19.8" x2="250.8" y1="190.193" y2="190.193"/><text fill="#000000" font-family="sans-serif" font-size="7.8" font-weight="bold" lengthAdjust="spacing" textLength="4.2" x="27" y="187.0354">7</text><text fill="#000000" font-family="sans-serif" font-size="7.8" lengthAdjust="spacing" textLength="116.4" x="33.6" y="187.0354">requests data (name, description)</text><polygon fill="#181818" points="247.2,206.5676,253.2,208.9676,247.2,211.3676,249.6,208.9676" style="stroke:#181818;stroke-width:0.6;"/><line style="stroke:#181818;stroke-width:0.6;" x1="16.8" x2="250.8" y1="208.9676" y2="208.9676"/><text fill="#000000" font-family="sans-serif" font-size="7.8" font-weight="bold" lengthAdjust="spacing" textLength="4.2" x="21" y="205.81">8</text><text fill="#000000" font-family="sans-serif" font-size="7.8" lengthAdjust="spacing" textLength="142.2" x="27.6" y="205.81">types requested data (name, description)</text><polygon fill="#181818" points="250.2,225.3422,256.2,227.7422,250.2,230.1422,252.6,227.7422" style="stroke:#181818;stroke-width:0.6;"/><line style="stroke:#181818;stroke-width:0.6;" x1="16.8" x2="253.8" y1="227.7422" y2="227.7422"/><text fill="#000000" font-family="sans-serif" font-size="7.8" font-weight="bold" lengthAdjust="spacing" textLength="4.2" x="21" y="224.5846">9</text><text fill="#000000" font-family="sans-serif" font-size="7.8" lengthAdjust="spacing" textLength="45" x="27.6" y="224.5846">submits data</text><polygon fill="#181818" points="386.4,244.1168,392.4,246.5168,386.4,248.9168,388.8,246.5168" style="stroke:#181818;stroke-width:0.6;"/><line style="stroke:#181818;stroke-width:0.6;" x1="260.4" x2="390" y1="246.5168" y2="246.5168"/><text fill="#000000" font-family="sans-serif" font-size="7.8" font-weight="bold" lengthAdjust="spacing" textLength="8.4" x="264.6" y="243.3592">10</text><text fill="#000000" font-family="sans-serif" font-size="7.8" lengthAdjust="spacing" textLength="102" x="275.4" y="243.3592">registerJob(name,description)</text><polygon fill="#181818" points="583.5,262.8914,589.5,265.2914,583.5,267.6914,585.9,265.2914" style="stroke:#181818;stroke-width:0.6;"/><line style="stroke:#181818;stroke-width:0.6;" x1="399.6" x2="587.1" y1="265.2914" y2="265.2914"/><text fill="#000000" font-family="sans-serif" font-size="7.8" font-weight="bold" lengthAdjust="spacing" textLength="8.4" x="403.8" y="262.1338">11</text><text fill="#000000" font-family="sans-serif" font-size="7.8" lengthAdjust="spacing" textLength="45" x="414.6" y="262.1338">getInstance()</text><polygon fill="#181818" points="403.2,281.666,397.2,284.066,403.2,286.466,400.8,284.066" style="stroke:#181818;stroke-width:0.6;"/><line style="stroke:#181818;stroke-width:0.6;stroke-dasharray:2.0,2.0;" x1="399.6" x2="593.1" y1="284.066" y2="284.066"/><text fill="#000000" font-family="sans-serif" font-size="7.8" font-weight="bold" lengthAdjust="spacing" textLength="8.4" x="406.8" y="280.9084">12</text><text fill="#000000" font-family="sans-serif" font-size="7.8" lengthAdjust="spacing" textLength="40.2" x="417.6" y="280.9084">repositories</text><polygon fill="#181818" points="519,315.4406,525,317.8406,519,320.2406,521.4,317.8406" style="stroke:#181818;stroke-width:0.6;"/><line style="stroke:#181818;stroke-width:0.6;" x1="396.6" x2="522.6" y1="317.8406" y2="317.8406"/><text fill="#000000" font-family="sans-serif" font-size="7.8" font-weight="bold" lengthAdjust="spacing" textLength="8.4" x="400.8" y="314.683">13</text><text fill="#000000" font-family="sans-serif" font-size="7.8" lengthAdjust="spacing" textLength="104.4" x="411.6" y="314.683">registerJob(name, description)</text><polygon fill="#181818" points="648.6,334.2152,654.6,336.6152,648.6,339.0152,651,336.6152" style="stroke:#181818;stroke-width:0.6;"/><line style="stroke:#181818;stroke-width:0.6;" x1="526.2" x2="652.2" y1="336.6152" y2="336.6152"/><text fill="#000000" font-family="sans-serif" font-size="7.8" font-weight="bold" lengthAdjust="spacing" textLength="8.4" x="530.4" y="333.4576">14</text><text fill="#000000" font-family="sans-serif" font-size="7.8" lengthAdjust="spacing" textLength="104.4" x="541.2" y="333.4576">registerJob(name, description)</text><rect fill="#E3E3E3" height="30.7453" rx="1.5" ry="1.5" style="stroke:#181818;stroke-width:0.3;" width="24" x="655.8" y="322.6406"/><text fill="#000000" font-family="sans-serif" font-size="8.4" lengthAdjust="spacing" textLength="11.4" x="662.1" y="335.9051">job</text><text fill="#000000" font-family="sans-serif" font-size="8.4" lengthAdjust="spacing" textLength="15.6" x="660" y="347.0777">:Job</text><line style="stroke:#181818;stroke-width:0.6;" x1="526.2" x2="554.4" y1="370.9605" y2="370.9605"/><line style="stroke:#181818;stroke-width:0.6;" x1="554.4" x2="554.4" y1="370.9605" y2="378.7605"/><line style="stroke:#181818;stroke-width:0.6;" x1="529.8" x2="554.4" y1="378.7605" y2="378.7605"/><polygon fill="#181818" points="535.8,376.3605,529.8,378.7605,535.8,381.1605,533.4,378.7605" style="stroke:#181818;stroke-width:0.6;"/><text fill="#000000" font-family="sans-serif" font-size="7.8" font-weight="bold" lengthAdjust="spacing" textLength="8.4" x="533.4" y="367.8029">15</text><text fill="#000000" font-family="sans-serif" font-size="7.8" lengthAdjust="spacing" textLength="2.4" x="544.2" y="367.8029">&#160;</text><line style="stroke:#181818;stroke-width:0.6;" x1="529.2" x2="554.4" y1="400.5352" y2="400.5352"/><line style="stroke:#181818;stroke-width:0.6;" x1="554.4" x2="554.4" y1="400.5352" y2="408.3352"/><line style="stroke:#181818;stroke-width:0.6;" x1="529.8" x2="554.4" y1="408.3352" y2="408.3352"/><polygon fill="#181818" points="535.8,405.9352,529.8,408.3352,535.8,410.7352,533.4,408.3352" style="stroke:#181818;stroke-width:0.6;"/><text fill="#000000" font-family="sans-serif" font-size="7.8" font-weight="bold" lengthAdjust="spacing" textLength="8.4" x="533.4" y="397.3775">16</text><text fill="#000000" font-family="sans-serif" font-size="7.8" lengthAdjust="spacing" textLength="2.4" x="544.2" y="397.3775">&#160;</text><polygon fill="#181818" points="383.4,442.7098,389.4,445.1098,383.4,447.5098,385.8,445.1098" style="stroke:#181818;stroke-width:0.6;"/><line style="stroke:#181818;stroke-width:0.6;stroke-dasharray:2.0,2.0;" x1="19.8" x2="387" y1="445.1098" y2="445.1098"/><text fill="#000000" font-family="sans-serif" font-size="7.8" font-weight="bold" lengthAdjust="spacing" textLength="8.4" x="24" y="441.9521">17</text><text fill="#000000" font-family="sans-serif" font-size="7.8" lengthAdjust="spacing" textLength="10.2" x="34.8" y="441.9521">job</text><polygon fill="#181818" points="403.2,461.4844,397.2,463.8844,403.2,466.2844,400.8,463.8844" style="stroke:#181818;stroke-width:0.6;"/><line style="stroke:#181818;stroke-width:0.6;stroke-dasharray:2.0,2.0;" x1="399.6" x2="525.6" y1="463.8844" y2="463.8844"/><text fill="#000000" font-family="sans-serif" font-size="7.8" font-weight="bold" lengthAdjust="spacing" textLength="8.4" x="406.8" y="460.7268">18</text><text fill="#000000" font-family="sans-serif" font-size="7.8" lengthAdjust="spacing" textLength="10.2" x="417.6" y="460.7268">job</text><polygon fill="#181818" points="26.4,480.259,20.4,482.659,26.4,485.059,24,482.659" style="stroke:#181818;stroke-width:0.6;"/><line style="stroke:#181818;stroke-width:0.6;stroke-dasharray:2.0,2.0;" x1="22.8" x2="390" y1="482.659" y2="482.659"/><text fill="#000000" font-family="sans-serif" font-size="7.8" font-weight="bold" lengthAdjust="spacing" textLength="8.4" x="30" y="479.5014">19</text><text fill="#000000" font-family="sans-serif" font-size="7.8" lengthAdjust="spacing" textLength="10.2" x="40.8" y="479.5014">job</text><polygon fill="#181818" points="23.4,499.0336,17.4,501.4336,23.4,503.8336,21,501.4336" style="stroke:#181818;stroke-width:0.6;"/><line style="stroke:#181818;stroke-width:0.6;stroke-dasharray:2.0,2.0;" x1="19.8" x2="253.8" y1="501.4336" y2="501.4336"/><text fill="#000000" font-family="sans-serif" font-size="7.8" font-weight="bold" lengthAdjust="spacing" textLength="8.4" x="27" y="498.276">20</text><text fill="#000000" font-family="sans-serif" font-size="7.8" lengthAdjust="spacing" textLength="94.8" x="37.8" y="498.276">displays operation success</text><!--SRC=[bLHDRzim3BthLn2v90tQF-33W3KzD4MB3MvxsqMHMKUDBNcIl3H0Vlme-IF-33PT38kFZtmaHNkGgk26vv1hfSNUw1p1cHAPRIq55mUUugixPGW6XUCgpRe0k-U9FagLmWVFB3B6UEcqAlCT6iQMUvaWV6ZjTlgBJC9f0ul7-6K1t09z6R4uAMJ1bOD556CghKFpf7Vlsu1vtyv3DbevexCCJO1ktkBd0PX0CHRQIefx2g2d7_UlVP1f01BjBnN5dT_WyVFv-rlVurFl24ZS3MDG9lzmXq4JW_hG3znz8mqG4V9WmMaG1ZsEWy8Z4DC5tNAGvlRIdzebwElU4o-n- -lrcY9KiBwhDtgGbqsG55sl97rm0DMC1FwSH_h81FJw8Xe1VRJ0iynxM12KH4eUW5_KA3yPf3hn0gZtWofeDSWtLAmfcSMC9ewe5UZ2IQsk967mTucMm1I9mqhn76yXGIkC3AutVT-srg6ebQtRBNSgq3QacCopZXetehBbBfTrOcospvTU1Z7jZ5SnHo7zIR3BDADiEJKDTPXg6ZPrl-vF3vSeAqUTQYmFtUZBAsM4mMdY-ITKnTigIoj4uEfc16wvmeCRcVq9F7Ur05-corCTuJlLgGYNRCRS6O7cdC_dsMSqqHwOx4zFL6yl31ySVTVh_-8TU5DIZCrNr0UVgcUNOH9mFVrE3IVjpME-x1F6_jM_IgrjjVUTSHrkowfNrM8OEruXcLak4IJI5Xa_MTf2QBXl1Zrg8T1MKpUW6QZw2m00]--></g></svg>