<?xml version="1.0" encoding="us-ascii" standalone="no"?><svg xmlns="http://www.w3.org/2000/svg" xmlns:xlink="http://www.w3.org/1999/xlink" contentStyleType="text/css" height="377.4px" preserveAspectRatio="none" style="width:961px;height:377px;background:#FFFFFF;" version="1.1" viewBox="0 0 961 377" width="961.8px" zoomAndPan="magnify"><defs/><g><!--class ApplicationSession--><g id="elem_ApplicationSession"><rect codeLine="11" fill="#F1F1F1" height="51.1453" id="ApplicationSession" rx="1.5" ry="1.5" style="stroke:#181818;stroke-width:0.3;" width="90.6" x="329.4" y="42"/><ellipse cx="338.4" cy="51.6" fill="#ADD1B2" rx="6.6" ry="6.6" style="stroke:#181818;stroke-width:0.6;"/><path d="M340.0594,49.125 Q340.1531,48.9938 340.2656,48.9281 Q340.3781,48.8625 340.5094,48.8625 Q340.7344,48.8625 340.875,49.0219 Q341.0156,49.1719 341.0156,49.5375 L341.0156,50.4094 Q341.0156,50.775 340.875,50.9344 Q340.7344,51.0938 340.5094,51.0938 Q340.3031,51.0938 340.1813,50.9719 Q340.0594,50.8594 339.9938,50.55 Q339.9656,50.3344 339.8531,50.2219 Q339.6563,49.9969 339.2906,49.8656 Q338.925,49.7344 338.55,49.7344 Q338.0906,49.7344 337.7063,49.9313 Q337.3313,50.1281 337.0313,50.5781 Q336.7406,51.0281 336.7406,51.6469 L336.7406,52.3031 Q336.7406,53.0437 337.275,53.5406 Q337.8094,54.0281 338.7656,54.0281 Q339.3281,54.0281 339.7219,53.8781 Q339.9563,53.7844 340.2094,53.5219 Q340.3688,53.3625 340.4531,53.3156 Q340.5469,53.2688 340.6688,53.2688 Q340.8656,53.2688 341.0156,53.4281 Q341.175,53.5781 341.175,53.7844 Q341.175,53.9906 340.9688,54.2344 Q340.6688,54.5813 340.1906,54.7781 Q339.5438,55.05 338.7656,55.05 Q337.8563,55.05 337.1344,54.675 Q336.5438,54.375 336.1312,53.7375 Q335.7188,53.0906 335.7188,52.3219 L335.7188,51.6281 Q335.7188,50.8313 336.0844,50.1469 Q336.4594,49.4531 337.1156,49.0875 Q337.7719,48.7125 338.5125,48.7125 Q338.9531,48.7125 339.3375,48.8156 Q339.7313,48.9094 340.0594,49.125 Z " fill="#000000"/><text fill="#000000" font-family="sans-serif" font-size="8.4" lengthAdjust="spacing" textLength="71.4" x="346.8" y="55.0781">ApplicationSession</text><line style="stroke:#181818;stroke-width:0.3;" x1="330" x2="419.4" y1="61.2" y2="61.2"/><line style="stroke:#181818;stroke-width:0.3;" x1="330" x2="419.4" y1="66" y2="66"/><text fill="#000000" font-family="sans-serif" font-size="8.4" lengthAdjust="spacing" textLength="76.8" x="333" y="77.4645">+static getInstance()</text><text fill="#000000" font-family="sans-serif" font-size="8.4" lengthAdjust="spacing" textLength="81.6" x="333" y="88.6371">+getCurrentSession()</text></g><!--class UserSession--><g id="elem_UserSession"><rect codeLine="17" fill="#F1F1F1" height="39.9727" id="UserSession" rx="1.5" ry="1.5" style="stroke:#181818;stroke-width:0.3;" width="67.8" x="652.8" y="51"/><ellipse cx="662.34" cy="60.6" fill="#ADD1B2" rx="6.6" ry="6.6" style="stroke:#181818;stroke-width:0.6;"/><path d="M663.9994,58.125 Q664.0931,57.9938 664.2056,57.9281 Q664.3181,57.8625 664.4494,57.8625 Q664.6744,57.8625 664.815,58.0219 Q664.9556,58.1719 664.9556,58.5375 L664.9556,59.4094 Q664.9556,59.775 664.815,59.9344 Q664.6744,60.0938 664.4494,60.0938 Q664.2431,60.0938 664.1213,59.9719 Q663.9994,59.8594 663.9338,59.55 Q663.9056,59.3344 663.7931,59.2219 Q663.5963,58.9969 663.2306,58.8656 Q662.865,58.7344 662.49,58.7344 Q662.0306,58.7344 661.6463,58.9313 Q661.2713,59.1281 660.9713,59.5781 Q660.6806,60.0281 660.6806,60.6469 L660.6806,61.3031 Q660.6806,62.0437 661.215,62.5406 Q661.7494,63.0281 662.7056,63.0281 Q663.2681,63.0281 663.6619,62.8781 Q663.8963,62.7844 664.1494,62.5219 Q664.3088,62.3625 664.3931,62.3156 Q664.4869,62.2688 664.6088,62.2688 Q664.8056,62.2688 664.9556,62.4281 Q665.115,62.5781 665.115,62.7844 Q665.115,62.9906 664.9088,63.2344 Q664.6088,63.5813 664.1306,63.7781 Q663.4838,64.05 662.7056,64.05 Q661.7963,64.05 661.0744,63.675 Q660.4838,63.375 660.0713,62.7375 Q659.6588,62.0906 659.6588,61.3219 L659.6588,60.6281 Q659.6588,59.8313 660.0244,59.1469 Q660.3994,58.4531 661.0556,58.0875 Q661.7119,57.7125 662.4525,57.7125 Q662.8931,57.7125 663.2775,57.8156 Q663.6713,57.9094 663.9994,58.125 Z " fill="#000000"/><text fill="#000000" font-family="sans-serif" font-size="8.4" lengthAdjust="spacing" textLength="47.4" x="670.86" y="64.0781">UserSession</text><line style="stroke:#181818;stroke-width:0.3;" x1="653.4" x2="720" y1="70.2" y2="70.2"/><line style="stroke:#181818;stroke-width:0.3;" x1="653.4" x2="720" y1="75" y2="75"/><text fill="#000000" font-family="sans-serif" font-size="8.4" lengthAdjust="spacing" textLength="60.6" x="656.4" y="86.4645">+getUserEmail()</text></g><!--class HRM--><g id="elem_HRM"><rect codeLine="22" fill="#F1F1F1" height="73.4906" id="HRM" rx="1.5" ry="1.5" style="stroke:#181818;stroke-width:0.3;" width="39.6" x="918" y="185.7"/><ellipse cx="928.08" cy="195.3" fill="#ADD1B2" rx="6.6" ry="6.6" style="stroke:#181818;stroke-width:0.6;"/><path d="M929.7394,192.825 Q929.8331,192.6938 929.9456,192.6281 Q930.0581,192.5625 930.1894,192.5625 Q930.4144,192.5625 930.555,192.7219 Q930.6956,192.8719 930.6956,193.2375 L930.6956,194.1094 Q930.6956,194.475 930.555,194.6344 Q930.4144,194.7938 930.1894,194.7938 Q929.9831,194.7938 929.8612,194.6719 Q929.7394,194.5594 929.6737,194.25 Q929.6456,194.0344 929.5331,193.9219 Q929.3363,193.6969 928.9706,193.5656 Q928.605,193.4344 928.23,193.4344 Q927.7706,193.4344 927.3862,193.6313 Q927.0112,193.8281 926.7113,194.2781 Q926.4206,194.7281 926.4206,195.3469 L926.4206,196.0031 Q926.4206,196.7438 926.955,197.2406 Q927.4894,197.7281 928.4456,197.7281 Q929.0081,197.7281 929.4019,197.5781 Q929.6362,197.4844 929.8894,197.2219 Q930.0487,197.0625 930.1331,197.0156 Q930.2269,196.9688 930.3487,196.9688 Q930.5456,196.9688 930.6956,197.1281 Q930.855,197.2781 930.855,197.4844 Q930.855,197.6906 930.6488,197.9344 Q930.3487,198.2813 929.8706,198.4781 Q929.2237,198.75 928.4456,198.75 Q927.5362,198.75 926.8144,198.375 Q926.2237,198.075 925.8113,197.4375 Q925.3988,196.7906 925.3988,196.0219 L925.3988,195.3281 Q925.3988,194.5313 925.7644,193.8469 Q926.1394,193.1531 926.7956,192.7875 Q927.4519,192.4125 928.1925,192.4125 Q928.6331,192.4125 929.0175,192.5156 Q929.4112,192.6094 929.7394,192.825 Z " fill="#000000"/><text fill="#000000" font-family="sans-serif" font-size="8.4" lengthAdjust="spacing" textLength="18" x="936.72" y="198.7781">HRM</text><line style="stroke:#181818;stroke-width:0.3;" x1="918.6" x2="957" y1="204.9" y2="204.9"/><text fill="#000000" font-family="sans-serif" font-size="8.4" lengthAdjust="spacing" textLength="24" x="921.6" y="216.3645">-name</text><text fill="#000000" font-family="sans-serif" font-size="8.4" lengthAdjust="spacing" textLength="22.8" x="921.6" y="227.5371">-email</text><text fill="#000000" font-family="sans-serif" font-size="8.4" lengthAdjust="spacing" textLength="32.4" x="921.6" y="238.7098">-position</text><text fill="#000000" font-family="sans-serif" font-size="8.4" lengthAdjust="spacing" textLength="27" x="921.6" y="249.8824">-phone</text><line style="stroke:#181818;stroke-width:0.3;" x1="918.6" x2="957" y1="254.3906" y2="254.3906"/></g><!--class Job--><g id="elem_Job"><rect codeLine="29" fill="#F1F1F1" height="73.4906" id="Job" rx="1.5" ry="1.5" style="stroke:#181818;stroke-width:0.3;" width="139.8" x="616.8" y="116.1"/><ellipse cx="677.55" cy="125.7" fill="#ADD1B2" rx="6.6" ry="6.6" style="stroke:#181818;stroke-width:0.6;"/><path d="M679.2094,123.225 Q679.3031,123.0938 679.4156,123.0281 Q679.5281,122.9625 679.6594,122.9625 Q679.8844,122.9625 680.025,123.1219 Q680.1656,123.2719 680.1656,123.6375 L680.1656,124.5094 Q680.1656,124.875 680.025,125.0344 Q679.8844,125.1938 679.6594,125.1938 Q679.4531,125.1938 679.3313,125.0719 Q679.2094,124.9594 679.1438,124.65 Q679.1156,124.4344 679.0031,124.3219 Q678.8063,124.0969 678.4406,123.9656 Q678.075,123.8344 677.7,123.8344 Q677.2406,123.8344 676.8562,124.0313 Q676.4812,124.2281 676.1813,124.6781 Q675.8906,125.1281 675.8906,125.7469 L675.8906,126.4031 Q675.8906,127.1438 676.425,127.6406 Q676.9594,128.1281 677.9156,128.1281 Q678.4781,128.1281 678.8719,127.9781 Q679.1062,127.8844 679.3594,127.6219 Q679.5188,127.4625 679.6031,127.4156 Q679.6969,127.3687 679.8188,127.3687 Q680.0156,127.3687 680.1656,127.5281 Q680.325,127.6781 680.325,127.8844 Q680.325,128.0906 680.1188,128.3344 Q679.8188,128.6813 679.3406,128.8781 Q678.6938,129.15 677.9156,129.15 Q677.0063,129.15 676.2844,128.775 Q675.6938,128.475 675.2813,127.8375 Q674.8688,127.1906 674.8688,126.4219 L674.8688,125.7281 Q674.8688,124.9312 675.2344,124.2469 Q675.6094,123.5531 676.2656,123.1875 Q676.9219,122.8125 677.6625,122.8125 Q678.1031,122.8125 678.4875,122.9156 Q678.8813,123.0094 679.2094,123.225 Z " fill="#000000"/><text fill="#000000" font-family="sans-serif" font-size="8.4" lengthAdjust="spacing" textLength="13.2" x="689.85" y="129.1781">Job</text><line style="stroke:#181818;stroke-width:0.3;" x1="617.4" x2="756" y1="135.3" y2="135.3"/><text fill="#000000" font-family="sans-serif" font-size="8.4" lengthAdjust="spacing" textLength="48.6" x="620.4" y="146.7645">-String name</text><text fill="#000000" font-family="sans-serif" font-size="8.4" lengthAdjust="spacing" textLength="69" x="620.4" y="157.9371">-String description</text><text fill="#000000" font-family="sans-serif" font-size="8.4" lengthAdjust="spacing" textLength="64.2" x="620.4" y="169.1098">-String reference</text><line style="stroke:#181818;stroke-width:0.3;" x1="617.4" x2="756" y1="173.618" y2="173.618"/><text fill="#000000" font-family="sans-serif" font-size="8.4" lengthAdjust="spacing" textLength="132.6" x="620.4" y="185.0824">+Job(name, description, reference)</text></g><!--class Organization--><g id="elem_Organization"><rect codeLine="43" fill="#F1F1F1" height="162.8719" id="Organization" rx="1.5" ry="1.5" style="stroke:#181818;stroke-width:0.3;" width="317.4" x="528" y="210.6"/><ellipse cx="660.15" cy="220.2" fill="#ADD1B2" rx="6.6" ry="6.6" style="stroke:#181818;stroke-width:0.6;"/><path d="M661.8094,217.725 Q661.9031,217.5938 662.0156,217.5281 Q662.1281,217.4625 662.2594,217.4625 Q662.4844,217.4625 662.625,217.6219 Q662.7656,217.7719 662.7656,218.1375 L662.7656,219.0094 Q662.7656,219.375 662.625,219.5344 Q662.4844,219.6938 662.2594,219.6938 Q662.0531,219.6938 661.9313,219.5719 Q661.8094,219.4594 661.7438,219.15 Q661.7156,218.9344 661.6031,218.8219 Q661.4063,218.5969 661.0406,218.4656 Q660.675,218.3344 660.3,218.3344 Q659.8406,218.3344 659.4563,218.5313 Q659.0813,218.7281 658.7813,219.1781 Q658.4906,219.6281 658.4906,220.2469 L658.4906,220.9031 Q658.4906,221.6437 659.025,222.1406 Q659.5594,222.6281 660.5156,222.6281 Q661.0781,222.6281 661.4719,222.4781 Q661.7063,222.3844 661.9594,222.1219 Q662.1188,221.9625 662.2031,221.9156 Q662.2969,221.8688 662.4187,221.8688 Q662.6156,221.8688 662.7656,222.0281 Q662.925,222.1781 662.925,222.3844 Q662.925,222.5906 662.7188,222.8344 Q662.4187,223.1813 661.9406,223.3781 Q661.2937,223.65 660.5156,223.65 Q659.6062,223.65 658.8844,223.275 Q658.2937,222.975 657.8813,222.3375 Q657.4688,221.6906 657.4688,220.9219 L657.4688,220.2281 Q657.4688,219.4313 657.8344,218.7469 Q658.2094,218.0531 658.8656,217.6875 Q659.5219,217.3125 660.2625,217.3125 Q660.7031,217.3125 661.0875,217.4156 Q661.4812,217.5094 661.8094,217.725 Z " fill="#000000"/><text fill="#000000" font-family="sans-serif" font-size="8.4" lengthAdjust="spacing" textLength="48" x="672.45" y="223.6781">Organization</text><line style="stroke:#181818;stroke-width:0.3;" x1="528.6" x2="844.8" y1="229.8" y2="229.8"/><text fill="#000000" font-family="sans-serif" font-size="8.4" lengthAdjust="spacing" textLength="48.6" x="531.6" y="241.2645">-String name</text><text fill="#000000" font-family="sans-serif" font-size="8.4" lengthAdjust="spacing" textLength="68.4" x="531.6" y="252.4371">-String vatNumber</text><text fill="#000000" font-family="sans-serif" font-size="8.4" lengthAdjust="spacing" textLength="55.8" x="531.6" y="263.6098">-String website</text><text fill="#000000" font-family="sans-serif" font-size="8.4" lengthAdjust="spacing" textLength="51.6" x="531.6" y="274.7824">-String phone</text><text fill="#000000" font-family="sans-serif" font-size="8.4" lengthAdjust="spacing" textLength="47.4" x="531.6" y="285.9551">-String email</text><line style="stroke:#181818;stroke-width:0.3;" x1="528.6" x2="844.8" y1="290.4633" y2="290.4633"/><text fill="#000000" font-family="sans-serif" font-size="8.4" lengthAdjust="spacing" textLength="48" x="531.6" y="301.9277">-addJob(job)</text><text fill="#000000" font-family="sans-serif" font-size="8.4" lengthAdjust="spacing" textLength="63" x="531.6" y="313.1004">-validateJob(job)</text><text fill="#000000" font-family="sans-serif" font-size="8.4" lengthAdjust="spacing" textLength="97.2" x="531.6" y="324.273">+anyHRMHasEmail(email)</text><text fill="#000000" font-family="sans-serif" font-size="8.4" lengthAdjust="spacing" textLength="310.2" x="531.6" y="335.4457">+Organization(name, vatNumber, webSite, phone, email, postalAddress, manager)</text><text fill="#000000" font-family="sans-serif" font-size="8.4" lengthAdjust="spacing" textLength="211.8" x="531.6" y="346.6184">+createJob(reference, description, informalDesccription,</text><text fill="#000000" font-family="sans-serif" font-size="8.4" lengthAdjust="spacing" textLength="140.4" x="531.6" y="357.791">technicalDescription, duration, cost, )</text><text fill="#000000" font-family="sans-serif" font-size="8.4" lengthAdjust="spacing" textLength="88.8" x="531.6" y="368.9637">-getHRMByEmail(email)</text></g><!--class OrganizationRepository--><g id="elem_OrganizationRepository"><rect codeLine="64" fill="#F1F1F1" height="39.9727" id="OrganizationRepository" rx="1.5" ry="1.5" style="stroke:#181818;stroke-width:0.3;" width="145.8" x="301.8" y="225.6"/><ellipse cx="327.81" cy="235.2" fill="#ADD1B2" rx="6.6" ry="6.6" style="stroke:#181818;stroke-width:0.6;"/><path d="M329.4694,232.725 Q329.5631,232.5938 329.6756,232.5281 Q329.7881,232.4625 329.9194,232.4625 Q330.1444,232.4625 330.285,232.6219 Q330.4256,232.7719 330.4256,233.1375 L330.4256,234.0094 Q330.4256,234.375 330.285,234.5344 Q330.1444,234.6938 329.9194,234.6938 Q329.7131,234.6938 329.5913,234.5719 Q329.4694,234.4594 329.4038,234.15 Q329.3756,233.9344 329.2631,233.8219 Q329.0663,233.5969 328.7006,233.4656 Q328.335,233.3344 327.96,233.3344 Q327.5006,233.3344 327.1163,233.5313 Q326.7413,233.7281 326.4413,234.1781 Q326.1506,234.6281 326.1506,235.2469 L326.1506,235.9031 Q326.1506,236.6437 326.685,237.1406 Q327.2194,237.6281 328.1756,237.6281 Q328.7381,237.6281 329.1319,237.4781 Q329.3663,237.3844 329.6194,237.1219 Q329.7788,236.9625 329.8631,236.9156 Q329.9569,236.8687 330.0788,236.8687 Q330.2756,236.8687 330.4256,237.0281 Q330.585,237.1781 330.585,237.3844 Q330.585,237.5906 330.3788,237.8344 Q330.0788,238.1812 329.6006,238.3781 Q328.9538,238.65 328.1756,238.65 Q327.2663,238.65 326.5444,238.275 Q325.9538,237.975 325.5413,237.3375 Q325.1288,236.6906 325.1288,235.9219 L325.1288,235.2281 Q325.1288,234.4312 325.4944,233.7469 Q325.8694,233.0531 326.5256,232.6875 Q327.1819,232.3125 327.9225,232.3125 Q328.3631,232.3125 328.7475,232.4156 Q329.1413,232.5094 329.4694,232.725 Z " fill="#000000"/><text fill="#000000" font-family="sans-serif" font-size="8.4" lengthAdjust="spacing" textLength="88.8" x="339.99" y="238.6781">OrganizationRepository</text><line style="stroke:#181818;stroke-width:0.3;" x1="302.4" x2="447" y1="244.8" y2="244.8"/><line style="stroke:#181818;stroke-width:0.3;" x1="302.4" x2="447" y1="249.6" y2="249.6"/><text fill="#000000" font-family="sans-serif" font-size="8.4" lengthAdjust="spacing" textLength="138.6" x="305.4" y="261.0645">+getOrganizationByHRMEmail(email)</text></g><!--class Repositories--><g id="elem_Repositories"><rect codeLine="68" fill="#F1F1F1" height="62.318" id="Repositories" rx="1.5" ry="1.5" style="stroke:#181818;stroke-width:0.3;" width="118.8" x="35.4" y="289.5"/><ellipse cx="68.55" cy="299.1" fill="#ADD1B2" rx="6.6" ry="6.6" style="stroke:#181818;stroke-width:0.6;"/><path d="M70.2094,296.625 Q70.3031,296.4938 70.4156,296.4281 Q70.5281,296.3625 70.6594,296.3625 Q70.8844,296.3625 71.025,296.5219 Q71.1656,296.6719 71.1656,297.0375 L71.1656,297.9094 Q71.1656,298.275 71.025,298.4344 Q70.8844,298.5938 70.6594,298.5938 Q70.4531,298.5938 70.3313,298.4719 Q70.2094,298.3594 70.1438,298.05 Q70.1156,297.8344 70.0031,297.7219 Q69.8062,297.4969 69.4406,297.3656 Q69.075,297.2344 68.7,297.2344 Q68.2406,297.2344 67.8563,297.4313 Q67.4813,297.6281 67.1812,298.0781 Q66.8906,298.5281 66.8906,299.1469 L66.8906,299.8031 Q66.8906,300.5438 67.425,301.0406 Q67.9594,301.5281 68.9156,301.5281 Q69.4781,301.5281 69.8719,301.3781 Q70.1063,301.2844 70.3594,301.0219 Q70.5188,300.8625 70.6031,300.8156 Q70.6969,300.7688 70.8188,300.7688 Q71.0156,300.7688 71.1656,300.9281 Q71.325,301.0781 71.325,301.2844 Q71.325,301.4906 71.1187,301.7344 Q70.8188,302.0813 70.3406,302.2781 Q69.6938,302.55 68.9156,302.55 Q68.0063,302.55 67.2844,302.175 Q66.6938,301.875 66.2813,301.2375 Q65.8687,300.5906 65.8687,299.8219 L65.8687,299.1281 Q65.8687,298.3313 66.2344,297.6469 Q66.6094,296.9531 67.2656,296.5875 Q67.9219,296.2125 68.6625,296.2125 Q69.1031,296.2125 69.4875,296.3156 Q69.8813,296.4094 70.2094,296.625 Z " fill="#000000"/><text fill="#000000" font-family="sans-serif" font-size="8.4" lengthAdjust="spacing" textLength="47.4" x="80.85" y="302.5781">Repositories</text><line style="stroke:#181818;stroke-width:0.3;" x1="36" x2="153.6" y1="308.7" y2="308.7"/><line style="stroke:#181818;stroke-width:0.3;" x1="36" x2="153.6" y1="313.5" y2="313.5"/><text fill="#000000" font-family="sans-serif" font-size="8.4" lengthAdjust="spacing" textLength="56.4" x="39" y="324.9645">-Repositories()</text><text fill="#000000" font-family="sans-serif" font-size="8.4" lengthAdjust="spacing" textLength="109.2" x="39" y="336.1371">+getInstance() : Repositories</text><text fill="#000000" font-family="sans-serif" font-size="8.4" lengthAdjust="spacing" textLength="111.6" x="39" y="347.3098">+getOrganizationRepository()</text></g><!--class CreateJobController--><g id="elem_CreateJobController"><rect codeLine="75" fill="#F1F1F1" height="84.6633" id="CreateJobController" rx="1.5" ry="1.5" style="stroke:#181818;stroke-width:0.3;" width="181.2" x="4.2" y="140.4"/><ellipse cx="54.15" cy="150" fill="#ADD1B2" rx="6.6" ry="6.6" style="stroke:#181818;stroke-width:0.6;"/><path d="M55.8094,147.525 Q55.9031,147.3937 56.0156,147.3281 Q56.1281,147.2625 56.2594,147.2625 Q56.4844,147.2625 56.625,147.4219 Q56.7656,147.5719 56.7656,147.9375 L56.7656,148.8094 Q56.7656,149.175 56.625,149.3344 Q56.4844,149.4938 56.2594,149.4938 Q56.0531,149.4938 55.9313,149.3719 Q55.8094,149.2594 55.7438,148.95 Q55.7156,148.7344 55.6031,148.6219 Q55.4063,148.3969 55.0406,148.2656 Q54.675,148.1344 54.3,148.1344 Q53.8406,148.1344 53.4563,148.3312 Q53.0813,148.5281 52.7813,148.9781 Q52.4906,149.4281 52.4906,150.0469 L52.4906,150.7031 Q52.4906,151.4438 53.025,151.9406 Q53.5594,152.4281 54.5156,152.4281 Q55.0781,152.4281 55.4719,152.2781 Q55.7063,152.1844 55.9594,151.9219 Q56.1188,151.7625 56.2031,151.7156 Q56.2969,151.6688 56.4187,151.6688 Q56.6156,151.6688 56.7656,151.8281 Q56.925,151.9781 56.925,152.1844 Q56.925,152.3906 56.7188,152.6344 Q56.4187,152.9813 55.9406,153.1781 Q55.2937,153.45 54.5156,153.45 Q53.6062,153.45 52.8844,153.075 Q52.2937,152.775 51.8813,152.1375 Q51.4688,151.4906 51.4688,150.7219 L51.4688,150.0281 Q51.4688,149.2313 51.8344,148.5469 Q52.2094,147.8531 52.8656,147.4875 Q53.5219,147.1125 54.2625,147.1125 Q54.7031,147.1125 55.0875,147.2156 Q55.4812,147.3094 55.8094,147.525 Z " fill="#000000"/><text fill="#000000" font-family="sans-serif" font-size="8.4" lengthAdjust="spacing" textLength="76.2" x="66.45" y="153.4781">CreateJobController</text><line style="stroke:#181818;stroke-width:0.3;" x1="4.8" x2="184.8" y1="159.6" y2="159.6"/><line style="stroke:#181818;stroke-width:0.3;" x1="4.8" x2="184.8" y1="164.4" y2="164.4"/><text fill="#000000" font-family="sans-serif" font-size="8.4" lengthAdjust="spacing" textLength="174" x="7.8" y="175.8645">+CreateJobController(organizationRepository)</text><text fill="#000000" font-family="sans-serif" font-size="8.4" lengthAdjust="spacing" textLength="172.2" x="7.8" y="187.0371">+createJob(userEmail, reference, description,</text><text fill="#000000" font-family="sans-serif" font-size="8.4" lengthAdjust="spacing" textLength="156" x="7.8" y="198.2098">informalDescription, technicalDescription,</text><text fill="#000000" font-family="sans-serif" font-size="8.4" lengthAdjust="spacing" textLength="135" x="7.8" y="209.3824">duration, cost, categoryDescription)</text><text fill="#000000" font-family="sans-serif" font-size="8.4" lengthAdjust="spacing" textLength="88.8" x="7.8" y="220.5551">-getHRMFromSession()</text></g><g id="elem_GMN10"><path d="M316.5,157.2 L316.5,178.872 L185.502,182.118 L316.5,183.672 L316.5,204.6984 A0,0 0 0 0 316.5,204.6984 L432.9,204.6984 A0,0 0 0 0 432.9,204.6984 L432.9,163.2 L426.9,157.2 L316.5,157.2 A0,0 0 0 0 316.5,157.2 " fill="#FEFFDD" style="stroke:#181818;stroke-width:0.3;"/><path d="M426.9,157.2 L426.9,163.2 L432.9,163.2 L426.9,157.2 " fill="#FEFFDD" style="stroke:#181818;stroke-width:0.3;"/><text fill="#000000" font-family="sans-serif" font-size="7.8" lengthAdjust="spacing" textLength="79.8" x="320.1" y="168.617">- userEmail is obtained</text><text fill="#000000" font-family="sans-serif" font-size="7.8" lengthAdjust="spacing" textLength="75" x="320.1" y="178.9916">from the user session</text><text fill="#000000" font-family="sans-serif" font-size="7.8" lengthAdjust="spacing" textLength="73.8" x="320.1" y="189.3662">- categoryDescription</text><text fill="#000000" font-family="sans-serif" font-size="7.8" lengthAdjust="spacing" textLength="103.8" x="320.1" y="199.7408">is retrieved from selected data</text></g><!--class CreateJobUI--><g id="elem_CreateJobUI"><rect codeLine="95" fill="#F1F1F1" height="28.8" id="CreateJobUI" rx="1.5" ry="1.5" style="stroke:#181818;stroke-width:0.3;" width="65.4" x="62.1" y="90.3"/><ellipse cx="71.1" cy="99.9" fill="#ADD1B2" rx="6.6" ry="6.6" style="stroke:#181818;stroke-width:0.6;"/><path d="M72.7594,97.425 Q72.8531,97.2938 72.9656,97.2281 Q73.0781,97.1625 73.2094,97.1625 Q73.4344,97.1625 73.575,97.3219 Q73.7156,97.4719 73.7156,97.8375 L73.7156,98.7094 Q73.7156,99.075 73.575,99.2344 Q73.4344,99.3938 73.2094,99.3938 Q73.0031,99.3938 72.8813,99.2719 Q72.7594,99.1594 72.6938,98.85 Q72.6656,98.6344 72.5531,98.5219 Q72.3563,98.2969 71.9906,98.1656 Q71.625,98.0344 71.25,98.0344 Q70.7906,98.0344 70.4063,98.2313 Q70.0313,98.4281 69.7313,98.8781 Q69.4406,99.3281 69.4406,99.9469 L69.4406,100.6031 Q69.4406,101.3438 69.975,101.8406 Q70.5094,102.3281 71.4656,102.3281 Q72.0281,102.3281 72.4219,102.1781 Q72.6563,102.0844 72.9094,101.8219 Q73.0688,101.6625 73.1531,101.6156 Q73.2469,101.5688 73.3687,101.5688 Q73.5656,101.5688 73.7156,101.7281 Q73.875,101.8781 73.875,102.0844 Q73.875,102.2906 73.6688,102.5344 Q73.3687,102.8813 72.8906,103.0781 Q72.2437,103.35 71.4656,103.35 Q70.5562,103.35 69.8344,102.975 Q69.2437,102.675 68.8313,102.0375 Q68.4188,101.3906 68.4188,100.6219 L68.4188,99.9281 Q68.4188,99.1313 68.7844,98.4469 Q69.1594,97.7531 69.8156,97.3875 Q70.4719,97.0125 71.2125,97.0125 Q71.6531,97.0125 72.0375,97.1156 Q72.4312,97.2094 72.7594,97.425 Z " fill="#000000"/><text fill="#000000" font-family="sans-serif" font-size="8.4" lengthAdjust="spacing" textLength="46.2" x="79.5" y="103.3781">CreateJobUI</text><line style="stroke:#181818;stroke-width:0.3;" x1="62.7" x2="126.9" y1="109.5" y2="109.5"/><line style="stroke:#181818;stroke-width:0.3;" x1="62.7" x2="126.9" y1="114.3" y2="114.3"/></g><!--link Repositories to Repositories--><g id="link_Repositories_Repositories"><path codeLine="98" d="M66.942,289.356 C66.186,277.89 75.474,268.5 94.8,268.5 C114.126,268.5 123.6508,274.2978 122.8948,285.7638 " fill="none" id="Repositories-to-Repositories" style="stroke:#181818;stroke-width:0.6;"/><polygon fill="#181818" points="122.658,289.356,125.4081,284.1256,122.8554,286.3625,120.6185,283.8098,122.658,289.356" style="stroke:#181818;stroke-width:0.6;"/><text fill="#000000" font-family="sans-serif" font-size="7.8" lengthAdjust="spacing" textLength="29.4" x="80.1" y="263.117">instance</text></g><!--link ApplicationSession to ApplicationSession--><g id="link_ApplicationSession_ApplicationSession"><path codeLine="99" d="M353.838,41.916 C351.996,30.672 358.95,21 374.7,21 C390.45,21 397.986,27.1194 396.144,38.3634 " fill="none" id="ApplicationSession-to-ApplicationSession" style="stroke:#181818;stroke-width:0.6;"/><polygon fill="#181818" points="395.562,41.916,398.8034,36.975,396.047,38.9555,394.0666,36.199,395.562,41.916" style="stroke:#181818;stroke-width:0.6;"/><text fill="#000000" font-family="sans-serif" font-size="7.8" lengthAdjust="spacing" textLength="29.4" x="360" y="15.617">instance</text></g><!--link CreateJobUI to CreateJobController--><g id="link_CreateJobUI_CreateJobController"><path codeLine="101" d="M94.8,119.22 C94.8,125.178 94.8,130.698 94.8,130.698 C94.8,130.698 94.8,131.556 94.8,136.782 " fill="none" id="CreateJobUI-to-CreateJobController" style="stroke:#181818;stroke-width:0.6;stroke-dasharray:7.0,7.0;"/><polygon fill="#181818" points="94.8,140.382,97.2,134.982,94.8,137.382,92.4,134.982,94.8,140.382" style="stroke:#181818;stroke-width:0.6;"/></g><!--link CreateJobController to Repositories--><g id="link_CreateJobController_Repositories"><path codeLine="103" d="M94.8,225.138 C94.8,245.868 94.8,266.778 94.8,285.786 " fill="none" id="CreateJobController-to-Repositories" style="stroke:#181818;stroke-width:0.6;stroke-dasharray:7.0,7.0;"/><polygon fill="#181818" points="94.8,289.386,97.2,283.986,94.8,286.386,92.4,283.986,94.8,289.386" style="stroke:#181818;stroke-width:0.6;"/><text fill="#000000" font-family="sans-serif" font-size="7.8" lengthAdjust="spacing" textLength="40.2" x="67.2" y="260.567">repositories</text></g><!--link CreateJobController to OrganizationRepository--><g id="link_CreateJobController_OrganizationRepository"><path codeLine="108" d="M185.502,203.07 C223.11,211.572 262.7086,220.5224 298.2046,228.5444 " fill="none" id="CreateJobController-to-OrganizationRepository" style="stroke:#181818;stroke-width:0.6;stroke-dasharray:7.0,7.0;"/><polygon fill="#181818" points="301.716,229.338,296.9779,225.8067,298.7898,228.6767,295.9198,230.4886,301.716,229.338" style="stroke:#181818;stroke-width:0.6;"/><text fill="#000000" font-family="sans-serif" font-size="7.8" lengthAdjust="spacing" textLength="79.2" x="204" y="206.117">organizationRepository</text></g><!--link Repositories to OrganizationRepository--><g id="link_Repositories_OrganizationRepository"><path codeLine="111" d="M154.332,304.842 C197.304,293.274 252.3096,278.4712 298.1436,266.1412 " fill="none" id="Repositories-to-OrganizationRepository" style="stroke:#181818;stroke-width:0.6;"/><polygon fill="#181818" points="301.62,265.206,295.7819,264.2912,298.723,265.9853,297.0289,268.9264,301.62,265.206" style="stroke:#181818;stroke-width:0.6;"/><text fill="#000000" font-family="sans-serif" font-size="7.8" lengthAdjust="spacing" textLength="4.2" x="292.8387" y="275.1347">1</text></g><!--link OrganizationRepository to Organization--><g id="link_OrganizationRepository_Organization"><path codeLine="113" d="M447.774,256.476 C471.948,260.064 496.3412,263.6923 524.4152,267.8683 " fill="none" id="OrganizationRepository-to-Organization" style="stroke:#181818;stroke-width:0.6;"/><polygon fill="#181818" points="527.976,268.398,522.9879,265.2296,525.0086,267.9566,522.2817,269.9774,527.976,268.398" style="stroke:#181818;stroke-width:0.6;"/><text fill="#000000" font-family="sans-serif" font-size="7.8" lengthAdjust="spacing" textLength="3" x="520.2194" y="276.2672">*</text></g><!--link ApplicationSession to UserSession--><g id="link_ApplicationSession_UserSession"><path codeLine="114" d="M420.162,68.022 C483.198,68.748 592.9562,70.0201 649.1102,70.6741 " fill="none" id="ApplicationSession-to-UserSession" style="stroke:#181818;stroke-width:0.6;"/><polygon fill="#181818" points="652.71,70.716,647.3383,68.2533,649.7102,70.6811,647.2824,73.053,652.71,70.716" style="stroke:#181818;stroke-width:0.6;"/><text fill="#000000" font-family="sans-serif" font-size="7.8" lengthAdjust="spacing" textLength="43.2" x="466.2" y="66.317">userSession</text><text fill="#000000" font-family="sans-serif" font-size="7.8" lengthAdjust="spacing" textLength="4.2" x="643.886" y="79.763">1</text></g><!--link CreateJobController to Organization--><g id="link_CreateJobController_Organization"><path codeLine="116" d="M178.758,225.102 C236.04,254.244 301.8,287.7 301.8,287.7 C301.8,287.7 418.3202,288.9746 524.2502,290.1326 " fill="none" id="CreateJobController-to-Organization" style="stroke:#181818;stroke-width:0.6;stroke-dasharray:7.0,7.0;"/><polygon fill="#181818" points="527.85,290.172,522.4766,287.7131,524.8502,290.1392,522.4241,292.5128,527.85,290.172" style="stroke:#181818;stroke-width:0.6;"/><text fill="#000000" font-family="sans-serif" font-size="7.8" lengthAdjust="spacing" textLength="42" x="353.7" y="285.317">organization</text><text fill="#000000" font-family="sans-serif" font-size="7.8" lengthAdjust="spacing" textLength="4.2" x="518.8718" y="298.6877">1</text></g><!--link CreateJobController to ApplicationSession--><g id="link_CreateJobController_ApplicationSession"><path codeLine="117" d="M166.752,140.364 C177.678,133.884 185.4,129.3 185.4,129.3 C185.4,129.3 203.4,109.5 203.4,109.5 C203.4,109.5 275.1803,91.8381 325.7543,79.3941 " fill="none" id="CreateJobController-to-ApplicationSession" style="stroke:#181818;stroke-width:0.6;stroke-dasharray:7.0,7.0;"/><polygon fill="#181818" points="329.25,78.534,323.433,77.4937,326.3369,79.2508,324.5798,82.1547,329.25,78.534" style="stroke:#181818;stroke-width:0.6;"/></g><!--link CreateJobController to UserSession--><g id="link_CreateJobController_UserSession"><path codeLine="118" d="M185.436,165.69 C319.146,140.43 560.4326,94.8444 649.2506,78.0624 " fill="none" id="CreateJobController-to-UserSession" style="stroke:#181818;stroke-width:0.6;stroke-dasharray:7.0,7.0;"/><polygon fill="#181818" points="652.788,77.394,647.0363,76.0383,649.8402,77.951,647.9275,80.7549,652.788,77.394" style="stroke:#181818;stroke-width:0.6;"/></g><!--link Job to HRM--><g id="link_Job_HRM"><path codeLine="122" d="M756.744,172.044 C811.344,187.248 880.212,206.4302 914.34,215.9342 " fill="none" id="Job-to-HRM" style="stroke:#181818;stroke-width:0.6;"/><polygon fill="#181818" points="917.808,216.9,913.2498,213.1393,914.918,216.0952,911.9621,217.7634,917.808,216.9" style="stroke:#181818;stroke-width:0.6;"/><text fill="#000000" font-family="sans-serif" font-size="7.8" lengthAdjust="spacing" textLength="35.4" x="864" y="201.317">createdBy</text></g><!--link Organization to HRM--><g id="link_Organization_HRM"><path codeLine="124" d="M845.568,247.824 C874.53,239.754 897.4438,233.3693 914.3878,228.6533 " fill="none" id="Organization-to-HRM" style="stroke:#181818;stroke-width:0.6;"/><polygon fill="#181818" points="917.856,227.688,912.0102,226.8238,914.9659,228.4924,913.2973,231.4481,917.856,227.688" style="stroke:#181818;stroke-width:0.6;"/><text fill="#000000" font-family="sans-serif" font-size="7.8" lengthAdjust="spacing" textLength="12.6" x="875.4" y="231.317">has</text><text fill="#000000" font-family="sans-serif" font-size="7.8" lengthAdjust="spacing" textLength="3" x="910.1651" y="238.3866">*</text></g><!--SRC=[ZLOzRzim4DtvAuWiicibQ5SF0MAdHLAWBH0tMnPQEjji958WQGTAqV_UeqZ9f4AroH38z_dkxl78J3zpqJ35QbfB8Ok3aZLGeuv0pfg65Szi3nlJLa0L58Q9VHKQw0ChvGiNUxfZbGur5HTWsWPe8wlM_Y1PGYcLaIJmAYgczOqnYc-F1kuBAJRy5UX7GYhO6MeaLNn_CBJa5WsNWf3EXTuqJSKBPaKRqDfgVXEAVmkg3OeBkWTpB_1R532RUnNAraUbG1ZlX9e_VSX73MeS2nsi-7FDU1NQtZryeyxcaWfMW_y4Q-U_6wbvXzZ_F4ZioH3WgzmE0JPOFdOqYECb9UX2yIQ8uXKATe1L540yJWmti_vvw9EVxJhecKlza-ddDJEmbwf53Dbaoipf5f77BB2Oasmew8VQCy5Vkudylx8JCz-FzHPKB7w1BJPjPEiw5ubSdxsCbQKj_vVSphtan2fU8jv8lA1Cj3YtEwRTEBiWlIw4xpivOCmjhWtYoXsMtENFxOWDgsxAKY5jSbepWOT7zI4B1Hx3C8RHUBZOILMpwXQ5W_H962WE0idToGVZygYO-oemRKxxOf6YMDMgZOgoarjeTW8xkfd1VrCCU82Eg04NEjQ79gis0FAU-KSnXv2XnSfE8a8y11gSEUY1IA4mFCtd4qwNaT54AMTaOPGqzl2yh_jPhgKmIbOLgA6qX6ucan7dQLHXJMVI7Fkz4npZc3zF8YJGG9GaVPx4c3-5RybjDC-1KzC4C84cSWxv-0MlbsZ72cd0BtEvI_NCkmzbKwwft1g6LqVPwNOOafe3T2PK-qtjl1B5T1gCeG1t1foWT04qL7YJu2zS48o0AAb5XaUZ0xYLng0H8aopfcyGGi1uKk75f9kAjRYKdChYwy7WjQSDoSuvHbnwl4SEOMiYnbzUnoTWYLl2SPoylVEiTK8Q-90mszLril4anUwhDpXKUBn8DaPzyUbYgcaaSnawTP02SuGUQHneDB5RbZHzpDwPBeeqXJokqfUPnaF81CxExKFibXoc3nyyH13PCNYMJ7PeZ6hKcqc_n3DgoZHy7cMsNLrDbud9O_9mHpZhHDUjNz-RV_f7bOszlBKczabb5VPjjlIBj5oDnZAuEgi3q-Gl]--></g></svg>