<?xml version="1.0" encoding="us-ascii" standalone="no"?><svg xmlns="http://www.w3.org/2000/svg" xmlns:xlink="http://www.w3.org/1999/xlink" contentStyleType="text/css" height="515px" preserveAspectRatio="none" style="width:774px;height:515px;background:#FFFFFF;" version="1.1" viewBox="0 0 774 515" width="774px" zoomAndPan="magnify"><defs/><g><text fill="#000000" font-family="sans-serif" font-size="14" font-weight="bold" lengthAdjust="spacing" textLength="351" x="213.25" y="30.1074">System Sequence Diagram (SSD) - Alternative One</text><rect fill="#FFFFFF" height="253.3281" style="stroke:#181818;stroke-width:1.0;" width="10" x="92.5" y="151.8633"/><rect fill="#FFFFFF" height="31.291" style="stroke:#181818;stroke-width:1.0;" width="10" x="721.5" y="175.1543"/><rect fill="#FFFFFF" height="158.4551" style="stroke:#181818;stroke-width:1.0;" width="10" x="721.5" y="237.7363"/><rect fill="none" height="81.873" style="stroke:#000000;stroke-width:1.5;" width="758.5" x="10" y="284.0273"/><line style="stroke:#181818;stroke-width:0.5;stroke-dasharray:5.0,5.0;" x1="97" x2="97" y1="141.8633" y2="414.1914"/><line style="stroke:#181818;stroke-width:0.5;stroke-dasharray:5.0,5.0;" x1="726.5" x2="726.5" y1="141.8633" y2="414.1914"/><text fill="#000000" font-family="sans-serif" font-size="14" lengthAdjust="spacing" textLength="145" x="20" y="119.7285">Vehicle and Equipment</text><text fill="#000000" font-family="sans-serif" font-size="14" lengthAdjust="spacing" textLength="92" x="48.5" y="138.3496">Fleet Manager</text><ellipse cx="97.5" cy="53.1211" fill="#E3E3E3" rx="8" ry="8" style="stroke:#181818;stroke-width:0.5;"/><path d="M97.5,61.1211 L97.5,88.1211 M84.5,69.1211 L110.5,69.1211 M97.5,88.1211 L84.5,103.1211 M97.5,88.1211 L110.5,103.1211 " fill="none" style="stroke:#181818;stroke-width:0.5;"/><text fill="#000000" font-family="sans-serif" font-size="14" lengthAdjust="spacing" textLength="145" x="20" y="428.2988">Vehicle and Equipment</text><text fill="#000000" font-family="sans-serif" font-size="14" lengthAdjust="spacing" textLength="92" x="48.5" y="446.9199">Fleet Manager</text><ellipse cx="97.5" cy="458.9336" fill="#E3E3E3" rx="8" ry="8" style="stroke:#181818;stroke-width:0.5;"/><path d="M97.5,466.9336 L97.5,493.9336 M84.5,474.9336 L110.5,474.9336 M97.5,493.9336 L84.5,508.9336 M97.5,493.9336 L110.5,508.9336 " fill="none" style="stroke:#181818;stroke-width:0.5;"/><rect fill="#E3E3E3" height="32.6211" rx="2.5" ry="2.5" style="stroke:#181818;stroke-width:0.5;" width="64" x="694.5" y="108.2422"/><text fill="#000000" font-family="sans-serif" font-size="14" lengthAdjust="spacing" textLength="50" x="701.5" y="130.3496">:System</text><rect fill="#E3E3E3" height="32.6211" rx="2.5" ry="2.5" style="stroke:#181818;stroke-width:0.5;" width="64" x="694.5" y="413.1914"/><text fill="#000000" font-family="sans-serif" font-size="14" lengthAdjust="spacing" textLength="50" x="701.5" y="435.2988">:System</text><rect fill="#FFFFFF" height="253.3281" style="stroke:#181818;stroke-width:1.0;" width="10" x="92.5" y="151.8633"/><rect fill="#FFFFFF" height="31.291" style="stroke:#181818;stroke-width:1.0;" width="10" x="721.5" y="175.1543"/><rect fill="#FFFFFF" height="158.4551" style="stroke:#181818;stroke-width:1.0;" width="10" x="721.5" y="237.7363"/><polygon fill="#181818" points="709.5,171.1543,719.5,175.1543,709.5,179.1543,713.5,175.1543" style="stroke:#181818;stroke-width:1.0;"/><line style="stroke:#181818;stroke-width:1.0;" x1="102.5" x2="715.5" y1="175.1543" y2="175.1543"/><text fill="#000000" font-family="sans-serif" font-size="13" font-weight="bold" lengthAdjust="spacing" textLength="7" x="109.5" y="169.8916">1</text><text fill="#000000" font-family="sans-serif" font-size="13" lengthAdjust="spacing" textLength="213" x="120.5" y="169.8916">ask to list vehicles needing check-up</text><polygon fill="#181818" points="113.5,202.4453,103.5,206.4453,113.5,210.4453,109.5,206.4453" style="stroke:#181818;stroke-width:1.0;"/><line style="stroke:#181818;stroke-width:1.0;stroke-dasharray:2.0,2.0;" x1="107.5" x2="725.5" y1="206.4453" y2="206.4453"/><text fill="#000000" font-family="sans-serif" font-size="13" font-weight="bold" lengthAdjust="spacing" textLength="7" x="119.5" y="201.1826">2</text><text fill="#000000" font-family="sans-serif" font-size="13" lengthAdjust="spacing" textLength="452" x="130.5" y="201.1826">requests data about the vehicle (such as check-up frequency, current kms, ...)</text><polygon fill="#181818" points="709.5,233.7363,719.5,237.7363,709.5,241.7363,713.5,237.7363" style="stroke:#181818;stroke-width:1.0;"/><line style="stroke:#181818;stroke-width:1.0;" x1="102.5" x2="715.5" y1="237.7363" y2="237.7363"/><text fill="#000000" font-family="sans-serif" font-size="13" font-weight="bold" lengthAdjust="spacing" textLength="7" x="109.5" y="232.4736">3</text><text fill="#000000" font-family="sans-serif" font-size="13" lengthAdjust="spacing" textLength="165" x="120.5" y="232.4736">inputs data about the vehicle</text><polygon fill="#181818" points="113.5,265.0273,103.5,269.0273,113.5,273.0273,109.5,269.0273" style="stroke:#181818;stroke-width:1.0;"/><line style="stroke:#181818;stroke-width:1.0;stroke-dasharray:2.0,2.0;" x1="107.5" x2="720.5" y1="269.0273" y2="269.0273"/><text fill="#000000" font-family="sans-serif" font-size="13" font-weight="bold" lengthAdjust="spacing" textLength="7" x="119.5" y="263.7646">4</text><text fill="#000000" font-family="sans-serif" font-size="13" lengthAdjust="spacing" textLength="306" x="130.5" y="263.7646">displays whether the vehicle needs a check-up or not</text><path d="M10,284.0273 L71,284.0273 L71,293.3184 L61,303.3184 L10,303.3184 L10,284.0273 " fill="#EEEEEE" style="stroke:#000000;stroke-width:1.5;"/><rect fill="none" height="81.873" style="stroke:#000000;stroke-width:1.5;" width="758.5" x="10" y="284.0273"/><text fill="#000000" font-family="sans-serif" font-size="13" font-weight="bold" lengthAdjust="spacing" textLength="16" x="25" y="299.0557">alt</text><text fill="#000000" font-family="sans-serif" font-size="11" font-weight="bold" lengthAdjust="spacing" textLength="114" x="86" y="297.8975">[Check-up Required]</text><polygon fill="#181818" points="113.5,322.6094,103.5,326.6094,113.5,330.6094,109.5,326.6094" style="stroke:#181818;stroke-width:1.0;"/><line style="stroke:#181818;stroke-width:1.0;stroke-dasharray:2.0,2.0;" x1="107.5" x2="720.5" y1="326.6094" y2="326.6094"/><text fill="#000000" font-family="sans-serif" font-size="13" font-weight="bold" lengthAdjust="spacing" textLength="7" x="119.5" y="321.3467">5</text><text fill="#000000" font-family="sans-serif" font-size="13" lengthAdjust="spacing" textLength="246" x="130.5" y="321.3467">displays that the vehicle needs a check-up</text><polygon fill="#181818" points="113.5,353.9004,103.5,357.9004,113.5,361.9004,109.5,357.9004" style="stroke:#181818;stroke-width:1.0;"/><line style="stroke:#181818;stroke-width:1.0;stroke-dasharray:2.0,2.0;" x1="107.5" x2="720.5" y1="357.9004" y2="357.9004"/><text fill="#000000" font-family="sans-serif" font-size="13" font-weight="bold" lengthAdjust="spacing" textLength="7" x="119.5" y="352.6377">6</text><text fill="#000000" font-family="sans-serif" font-size="13" lengthAdjust="spacing" textLength="584" x="130.5" y="352.6377">sends reason for check-up and vehicle characteristics (such as license plate, brand, model, color, ...)</text><polygon fill="#181818" points="113.5,392.1914,103.5,396.1914,113.5,400.1914,109.5,396.1914" style="stroke:#181818;stroke-width:1.0;"/><line style="stroke:#181818;stroke-width:1.0;stroke-dasharray:2.0,2.0;" x1="107.5" x2="725.5" y1="396.1914" y2="396.1914"/><text fill="#000000" font-family="sans-serif" font-size="13" font-weight="bold" lengthAdjust="spacing" textLength="7" x="119.5" y="390.9287">7</text><text fill="#000000" font-family="sans-serif" font-size="13" lengthAdjust="spacing" textLength="158" x="130.5" y="390.9287">displays operation success</text><!--SRC=[ZLFDRjim3BxxAOYSMY390-GmO5YxMp5W1dhgXP6PIB0ikIILmcy_EewT3KY6w2I1vFT3KjA6r2DZ1rrEsNdE7O5oeKgMI8-knIFLEaG29gUOZl7l1F7OvA-GZd30A5HL6jHIwq6KEgZfir1o12y1ZsFwKrs_FCC6laSbJgZXHF0hMHaMpQbqUsAxEyqCgtVomHaMfWPUFqleEqeA7-bd959umsJ2U0KeyDhrCGz4bMdIu4AFbhZQJIBE6TFr31rEg7GjgS3E_8BDjrdwpifQq0mnYC9fqYAGY9hHhVFasatfp-KBwam3btF1sXZiGh6pFbfNH0KQL0JSvwAWdcOIU9BY_AXw9e43JuqSrk0AyzY7jfCrRBVRvucjePiYRXgpsPMxxFSDtJRJ1EaZ3W9VdWo6_t4oTai0hqPihYdhqX-C2Z_cs6_p69YQ9Ve0gNhK_p8-02QKh8G99ISucC95xRXvCx3pjk_EjjRM8JYv3Ya6Hqa8J93I6lPiLMlxKWr5crQEcIzpcbKONVMWlTmJsoSnNSRcIEJUiFy0]--></g></svg>