<?xml version="1.0" encoding="us-ascii" standalone="no"?><svg xmlns="http://www.w3.org/2000/svg" xmlns:xlink="http://www.w3.org/1999/xlink" contentStyleType="text/css" height="578.7px" preserveAspectRatio="none" style="width:402px;height:578px;background:#FFFFFF;" version="1.1" viewBox="0 0 402 578" width="402.3px" zoomAndPan="magnify"><defs/><g><!--class Skill--><g id="elem_Skill"><rect codeLine="9" fill="#F1F1F1" height="76.718" id="Skill" rx="2.25" ry="2.25" style="stroke:#181818;stroke-width:0.45;" width="83.7" x="67.95" y="495.9"/><ellipse cx="96.03" cy="510.3" fill="#ADD1B2" rx="9.9" ry="9.9" style="stroke:#181818;stroke-width:0.9;"/><path d="M98.5191,506.5875 Q98.6597,506.3906 98.8284,506.2922 Q98.9972,506.1938 99.1941,506.1938 Q99.5316,506.1938 99.7425,506.4328 Q99.9534,506.6578 99.9534,507.2063 L99.9534,508.5141 Q99.9534,509.0625 99.7425,509.3016 Q99.5316,509.5406 99.1941,509.5406 Q98.8847,509.5406 98.7019,509.3578 Q98.5191,509.1891 98.4206,508.725 Q98.3784,508.4016 98.2097,508.2328 Q97.9144,507.8953 97.3659,507.6984 Q96.8175,507.5016 96.255,507.5016 Q95.5659,507.5016 94.9894,507.7969 Q94.4269,508.0922 93.9769,508.7672 Q93.5409,509.4422 93.5409,510.3703 L93.5409,511.3547 Q93.5409,512.4656 94.3425,513.2109 Q95.1441,513.9422 96.5784,513.9422 Q97.4222,513.9422 98.0128,513.7172 Q98.3644,513.5766 98.7441,513.1828 Q98.9831,512.9438 99.1097,512.8734 Q99.2503,512.8031 99.4331,512.8031 Q99.7284,512.8031 99.9534,513.0422 Q100.1925,513.2672 100.1925,513.5766 Q100.1925,513.8859 99.8831,514.2516 Q99.4331,514.7719 98.7159,515.0672 Q97.7456,515.475 96.5784,515.475 Q95.2144,515.475 94.1316,514.9125 Q93.2456,514.4625 92.6269,513.5063 Q92.0081,512.5359 92.0081,511.3828 L92.0081,510.3422 Q92.0081,509.1469 92.5566,508.1203 Q93.1191,507.0797 94.1034,506.5313 Q95.0878,505.9688 96.1988,505.9688 Q96.8597,505.9688 97.4363,506.1234 Q98.0269,506.2641 98.5191,506.5875 Z " fill="#000000"/><text fill="#000000" font-family="sans-serif" font-size="12.6" lengthAdjust="spacing" textLength="22.5" x="111.87" y="515.5172">Skill</text><line style="stroke:#181818;stroke-width:0.45;" x1="68.85" x2="150.75" y1="524.7" y2="524.7"/><text fill="#000000" font-family="sans-serif" font-size="12.6" lengthAdjust="spacing" textLength="72.9" x="73.35" y="541.8967">-String name</text><line style="stroke:#181818;stroke-width:0.45;" x1="68.85" x2="150.75" y1="548.659" y2="548.659"/><text fill="#000000" font-family="sans-serif" font-size="12.6" lengthAdjust="spacing" textLength="70.2" x="73.35" y="565.8557">+Skill(name)</text></g><!--class HRM--><g id="elem_HRM"><rect codeLine="15" fill="#F1F1F1" height="59.959" id="HRM" rx="2.25" ry="2.25" style="stroke:#181818;stroke-width:0.45;" width="55.8" x="6.3" y="381.6"/><ellipse cx="19.8" cy="396" fill="#ADD1B2" rx="9.9" ry="9.9" style="stroke:#181818;stroke-width:0.9;"/><path d="M22.2891,392.2875 Q22.4297,392.0906 22.5984,391.9922 Q22.7672,391.8938 22.9641,391.8938 Q23.3016,391.8938 23.5125,392.1328 Q23.7234,392.3578 23.7234,392.9063 L23.7234,394.2141 Q23.7234,394.7625 23.5125,395.0016 Q23.3016,395.2406 22.9641,395.2406 Q22.6547,395.2406 22.4719,395.0578 Q22.2891,394.8891 22.1906,394.425 Q22.1484,394.1016 21.9797,393.9328 Q21.6844,393.5953 21.1359,393.3984 Q20.5875,393.2016 20.025,393.2016 Q19.3359,393.2016 18.7594,393.4969 Q18.1969,393.7922 17.7469,394.4672 Q17.3109,395.1422 17.3109,396.0703 L17.3109,397.0547 Q17.3109,398.1656 18.1125,398.9109 Q18.9141,399.6422 20.3484,399.6422 Q21.1922,399.6422 21.7828,399.4172 Q22.1344,399.2766 22.5141,398.8828 Q22.7531,398.6438 22.8797,398.5734 Q23.0203,398.5031 23.2031,398.5031 Q23.4984,398.5031 23.7234,398.7422 Q23.9625,398.9672 23.9625,399.2766 Q23.9625,399.5859 23.6531,399.9516 Q23.2031,400.4719 22.4859,400.7672 Q21.5156,401.175 20.3484,401.175 Q18.9844,401.175 17.9016,400.6125 Q17.0156,400.1625 16.3969,399.2063 Q15.7781,398.2359 15.7781,397.0828 L15.7781,396.0422 Q15.7781,394.8469 16.3266,393.8203 Q16.8891,392.7797 17.8734,392.2313 Q18.8578,391.6688 19.9688,391.6688 Q20.6297,391.6688 21.2063,391.8234 Q21.7969,391.9641 22.2891,392.2875 Z " fill="#000000"/><text fill="#000000" font-family="sans-serif" font-size="12.6" lengthAdjust="spacing" textLength="27" x="32.4" y="401.2172">HRM</text><line style="stroke:#181818;stroke-width:0.45;" x1="7.2" x2="61.2" y1="410.4" y2="410.4"/><text fill="#000000" font-family="sans-serif" font-size="12.6" lengthAdjust="spacing" textLength="36" x="11.7" y="427.5967">-name</text><line style="stroke:#181818;stroke-width:0.45;" x1="7.2" x2="61.2" y1="434.359" y2="434.359"/></g><!--class SkillRepository--><g id="elem_SkillRepository"><rect codeLine="19" fill="#F1F1F1" height="59.959" id="SkillRepository" rx="2.25" ry="2.25" style="stroke:#181818;stroke-width:0.45;" width="124.2" x="157.5" y="381.6"/><ellipse cx="176.265" cy="396" fill="#ADD1B2" rx="9.9" ry="9.9" style="stroke:#181818;stroke-width:0.9;"/><path d="M178.7541,392.2875 Q178.8947,392.0906 179.0634,391.9922 Q179.2322,391.8938 179.4291,391.8938 Q179.7666,391.8938 179.9775,392.1328 Q180.1884,392.3578 180.1884,392.9063 L180.1884,394.2141 Q180.1884,394.7625 179.9775,395.0016 Q179.7666,395.2406 179.4291,395.2406 Q179.1197,395.2406 178.9369,395.0578 Q178.7541,394.8891 178.6556,394.425 Q178.6134,394.1016 178.4447,393.9328 Q178.1494,393.5953 177.6009,393.3984 Q177.0525,393.2016 176.49,393.2016 Q175.8009,393.2016 175.2244,393.4969 Q174.6619,393.7922 174.2119,394.4672 Q173.7759,395.1422 173.7759,396.0703 L173.7759,397.0547 Q173.7759,398.1656 174.5775,398.9109 Q175.3791,399.6422 176.8134,399.6422 Q177.6572,399.6422 178.2478,399.4172 Q178.5994,399.2766 178.9791,398.8828 Q179.2181,398.6438 179.3447,398.5734 Q179.4853,398.5031 179.6681,398.5031 Q179.9634,398.5031 180.1884,398.7422 Q180.4275,398.9672 180.4275,399.2766 Q180.4275,399.5859 180.1181,399.9516 Q179.6681,400.4719 178.9509,400.7672 Q177.9806,401.175 176.8134,401.175 Q175.4494,401.175 174.3666,400.6125 Q173.4806,400.1625 172.8619,399.2063 Q172.2431,398.2359 172.2431,397.0828 L172.2431,396.0422 Q172.2431,394.8469 172.7916,393.8203 Q173.3541,392.7797 174.3384,392.2313 Q175.3228,391.6688 176.4338,391.6688 Q177.0947,391.6688 177.6713,391.8234 Q178.2619,391.9641 178.7541,392.2875 Z " fill="#000000"/><text fill="#000000" font-family="sans-serif" font-size="12.6" lengthAdjust="spacing" textLength="83.7" x="190.035" y="401.2172">SkillRepository</text><line style="stroke:#181818;stroke-width:0.45;" x1="158.4" x2="280.8" y1="410.4" y2="410.4"/><line style="stroke:#181818;stroke-width:0.45;" x1="158.4" x2="280.8" y1="417.6" y2="417.6"/><text fill="#000000" font-family="sans-serif" font-size="12.6" lengthAdjust="spacing" textLength="113.4" x="162.9" y="434.7967">+registerSkill(name)</text></g><!--class Repositories--><g id="elem_Repositories"><rect codeLine="23" fill="#F1F1F1" height="93.477" id="Repositories" rx="2.25" ry="2.25" style="stroke:#181818;stroke-width:0.45;" width="174.6" x="221.4" y="234"/><ellipse cx="269.325" cy="248.4" fill="#ADD1B2" rx="9.9" ry="9.9" style="stroke:#181818;stroke-width:0.9;"/><path d="M271.8141,244.6875 Q271.9547,244.4906 272.1234,244.3922 Q272.2922,244.2938 272.4891,244.2938 Q272.8266,244.2938 273.0375,244.5328 Q273.2484,244.7578 273.2484,245.3063 L273.2484,246.6141 Q273.2484,247.1625 273.0375,247.4016 Q272.8266,247.6406 272.4891,247.6406 Q272.1797,247.6406 271.9969,247.4578 Q271.8141,247.2891 271.7156,246.825 Q271.6734,246.5016 271.5047,246.3328 Q271.2094,245.9953 270.6609,245.7984 Q270.1125,245.6016 269.55,245.6016 Q268.8609,245.6016 268.2844,245.8969 Q267.7219,246.1922 267.2719,246.8672 Q266.8359,247.5422 266.8359,248.4703 L266.8359,249.4547 Q266.8359,250.5656 267.6375,251.3109 Q268.4391,252.0422 269.8734,252.0422 Q270.7172,252.0422 271.3078,251.8172 Q271.6594,251.6766 272.0391,251.2828 Q272.2781,251.0438 272.4047,250.9734 Q272.5453,250.9031 272.7281,250.9031 Q273.0234,250.9031 273.2484,251.1422 Q273.4875,251.3672 273.4875,251.6766 Q273.4875,251.9859 273.1781,252.3516 Q272.7281,252.8719 272.0109,253.1672 Q271.0406,253.575 269.8734,253.575 Q268.5094,253.575 267.4266,253.0125 Q266.5406,252.5625 265.9219,251.6063 Q265.3031,250.6359 265.3031,249.4828 L265.3031,248.4422 Q265.3031,247.2469 265.8516,246.2203 Q266.4141,245.1797 267.3984,244.6313 Q268.3828,244.0688 269.4938,244.0688 Q270.1547,244.0688 270.7313,244.2234 Q271.3219,244.3641 271.8141,244.6875 Z " fill="#000000"/><text fill="#000000" font-family="sans-serif" font-size="12.6" lengthAdjust="spacing" textLength="71.1" x="287.775" y="253.6172">Repositories</text><line style="stroke:#181818;stroke-width:0.45;" x1="222.3" x2="395.1" y1="262.8" y2="262.8"/><line style="stroke:#181818;stroke-width:0.45;" x1="222.3" x2="395.1" y1="270" y2="270"/><text fill="#000000" font-family="sans-serif" font-size="12.6" lengthAdjust="spacing" textLength="84.6" x="226.8" y="287.1967">-Repositories()</text><text fill="#000000" font-family="sans-serif" font-size="12.6" lengthAdjust="spacing" textLength="163.8" x="226.8" y="303.9557">+getInstance() : Repositories</text><text fill="#000000" font-family="sans-serif" font-size="12.6" lengthAdjust="spacing" textLength="117.9" x="226.8" y="320.7146">+getSkillRepository()</text></g><!--class RegisterSkillController--><g id="elem_RegisterSkillController"><rect codeLine="29" fill="#F1F1F1" height="76.718" id="RegisterSkillController" rx="2.25" ry="2.25" style="stroke:#181818;stroke-width:0.45;" width="154.8" x="96.3" y="103.5"/><ellipse cx="109.8" cy="117.9" fill="#ADD1B2" rx="9.9" ry="9.9" style="stroke:#181818;stroke-width:0.9;"/><path d="M112.2891,114.1875 Q112.4297,113.9906 112.5984,113.8922 Q112.7672,113.7938 112.9641,113.7938 Q113.3016,113.7938 113.5125,114.0328 Q113.7234,114.2578 113.7234,114.8063 L113.7234,116.1141 Q113.7234,116.6625 113.5125,116.9016 Q113.3016,117.1406 112.9641,117.1406 Q112.6547,117.1406 112.4719,116.9578 Q112.2891,116.7891 112.1906,116.325 Q112.1484,116.0016 111.9797,115.8328 Q111.6844,115.4953 111.1359,115.2984 Q110.5875,115.1016 110.025,115.1016 Q109.3359,115.1016 108.7594,115.3969 Q108.1969,115.6922 107.7469,116.3672 Q107.3109,117.0422 107.3109,117.9703 L107.3109,118.9547 Q107.3109,120.0656 108.1125,120.8109 Q108.9141,121.5422 110.3484,121.5422 Q111.1922,121.5422 111.7828,121.3172 Q112.1344,121.1766 112.5141,120.7828 Q112.7531,120.5438 112.8797,120.4734 Q113.0203,120.4031 113.2031,120.4031 Q113.4984,120.4031 113.7234,120.6422 Q113.9625,120.8672 113.9625,121.1766 Q113.9625,121.4859 113.6531,121.8516 Q113.2031,122.3719 112.4859,122.6672 Q111.5156,123.075 110.3484,123.075 Q108.9844,123.075 107.9016,122.5125 Q107.0156,122.0625 106.3969,121.1063 Q105.7781,120.1359 105.7781,118.9828 L105.7781,117.9422 Q105.7781,116.7469 106.3266,115.7203 Q106.8891,114.6797 107.8734,114.1313 Q108.8578,113.5688 109.9688,113.5688 Q110.6297,113.5688 111.2063,113.7234 Q111.7969,113.8641 112.2891,114.1875 Z " fill="#000000"/><text fill="#000000" font-family="sans-serif" font-size="12.6" lengthAdjust="spacing" textLength="126" x="122.4" y="123.1172">RegisterSkillController</text><line style="stroke:#181818;stroke-width:0.45;" x1="97.2" x2="250.2" y1="132.3" y2="132.3"/><line style="stroke:#181818;stroke-width:0.45;" x1="97.2" x2="250.2" y1="139.5" y2="139.5"/><text fill="#000000" font-family="sans-serif" font-size="12.6" lengthAdjust="spacing" textLength="142.2" x="101.7" y="156.6967">+RegisterSkillController()</text><text fill="#000000" font-family="sans-serif" font-size="12.6" lengthAdjust="spacing" textLength="113.4" x="101.7" y="173.4557">+registerSkill(name)</text></g><!--class RegisterSkillUI--><g id="elem_RegisterSkillUI"><rect codeLine="34" fill="#F1F1F1" height="43.2" id="RegisterSkillUI" rx="2.25" ry="2.25" style="stroke:#181818;stroke-width:0.45;" width="109.8" x="118.8" y="6.3"/><ellipse cx="132.3" cy="20.7" fill="#ADD1B2" rx="9.9" ry="9.9" style="stroke:#181818;stroke-width:0.9;"/><path d="M134.7891,16.9875 Q134.9297,16.7906 135.0984,16.6922 Q135.2672,16.5938 135.4641,16.5938 Q135.8016,16.5938 136.0125,16.8328 Q136.2234,17.0578 136.2234,17.6063 L136.2234,18.9141 Q136.2234,19.4625 136.0125,19.7016 Q135.8016,19.9406 135.4641,19.9406 Q135.1547,19.9406 134.9719,19.7578 Q134.7891,19.5891 134.6906,19.125 Q134.6484,18.8016 134.4797,18.6328 Q134.1844,18.2953 133.6359,18.0984 Q133.0875,17.9016 132.525,17.9016 Q131.8359,17.9016 131.2594,18.1969 Q130.6969,18.4922 130.2469,19.1672 Q129.8109,19.8422 129.8109,20.7703 L129.8109,21.7547 Q129.8109,22.8656 130.6125,23.6109 Q131.4141,24.3422 132.8484,24.3422 Q133.6922,24.3422 134.2828,24.1172 Q134.6344,23.9766 135.0141,23.5828 Q135.2531,23.3438 135.3797,23.2734 Q135.5203,23.2031 135.7031,23.2031 Q135.9984,23.2031 136.2234,23.4422 Q136.4625,23.6672 136.4625,23.9766 Q136.4625,24.2859 136.1531,24.6516 Q135.7031,25.1719 134.9859,25.4672 Q134.0156,25.875 132.8484,25.875 Q131.4844,25.875 130.4016,25.3125 Q129.5156,24.8625 128.8969,23.9063 Q128.2781,22.9359 128.2781,21.7828 L128.2781,20.7422 Q128.2781,19.5469 128.8266,18.5203 Q129.3891,17.4797 130.3734,16.9313 Q131.3578,16.3688 132.4688,16.3688 Q133.1297,16.3688 133.7063,16.5234 Q134.2969,16.6641 134.7891,16.9875 Z " fill="#000000"/><text fill="#000000" font-family="sans-serif" font-size="12.6" lengthAdjust="spacing" textLength="81" x="144.9" y="25.9172">RegisterSkillUI</text><line style="stroke:#181818;stroke-width:0.45;" x1="119.7" x2="227.7" y1="35.1" y2="35.1"/><line style="stroke:#181818;stroke-width:0.45;" x1="119.7" x2="227.7" y1="42.3" y2="42.3"/></g><!--link RegisterSkillUI to RegisterSkillController--><g id="link_RegisterSkillUI_RegisterSkillController"><path codeLine="37" d="M173.7,49.617 C173.7,64.674 173.7,80.046 173.7,97.974 " fill="none" id="RegisterSkillUI-to-RegisterSkillController" style="stroke:#181818;stroke-width:0.9;stroke-dasharray:7.0,7.0;"/><polygon fill="#181818" points="173.7,103.374,177.3,95.274,173.7,98.874,170.1,95.274,173.7,103.374" style="stroke:#181818;stroke-width:0.9;"/></g><!--link RegisterSkillController to Repositories--><g id="link_RegisterSkillController_Repositories"><path codeLine="38" d="M210.591,180.153 C226.908,196.74 242.4625,212.555 259.6435,230.024 " fill="none" id="RegisterSkillController-to-Repositories" style="stroke:#181818;stroke-width:0.9;stroke-dasharray:7.0,7.0;"/><polygon fill="#181818" points="263.43,233.874,260.3169,225.5747,260.2746,230.6657,255.1836,230.6234,263.43,233.874" style="stroke:#181818;stroke-width:0.9;"/></g><!--link RegisterSkillController to SkillRepository--><g id="link_RegisterSkillController_SkillRepository"><path codeLine="39" d="M180.135,180.225 C189.36,234.144 205.2521,327.0294 213.6401,376.0434 " fill="none" id="RegisterSkillController-to-SkillRepository" style="stroke:#181818;stroke-width:0.9;stroke-dasharray:7.0,7.0;"/><polygon fill="#181818" points="214.551,381.366,216.7331,372.7748,213.7919,376.9305,209.6363,373.9893,214.551,381.366" style="stroke:#181818;stroke-width:0.9;"/></g><!--link RegisterSkillController to Skill--><g id="link_RegisterSkillController_Skill"><path codeLine="40" d="M167.571,180.099 C155.376,254.664 129.0499,415.5919 116.8279,490.2919 " fill="none" id="RegisterSkillController-to-Skill" style="stroke:#181818;stroke-width:0.9;stroke-dasharray:7.0,7.0;"/><polygon fill="#181818" points="115.956,495.621,120.8166,488.2086,116.6826,491.18,113.7111,487.046,115.956,495.621" style="stroke:#181818;stroke-width:0.9;"/></g><!--link Repositories to SkillRepository--><g id="link_Repositories_SkillRepository"><path codeLine="41" d="M276.786,327.96 C264.501,345.771 253.8879,361.1534 242.9889,376.9484 " fill="none" id="Repositories-to-SkillRepository" style="stroke:#181818;stroke-width:0.9;"/><polygon fill="#181818" points="239.922,381.393,247.4854,376.7707,242.4777,377.6892,241.5593,372.6816,239.922,381.393" style="stroke:#181818;stroke-width:0.9;"/></g><!--link HRM to Skill--><g id="link_HRM_Skill"><path codeLine="42" d="M52.695,442.152 C62.838,458.334 72.6412,473.9731 83.4772,491.2531 " fill="none" id="HRM-to-Skill" style="stroke:#181818;stroke-width:0.9;"/><polygon fill="#181818" points="86.346,495.828,85.0927,487.0531,83.9553,492.0156,78.9928,490.8782,86.346,495.828" style="stroke:#181818;stroke-width:0.9;"/></g><!--link SkillRepository to Skill--><g id="link_SkillRepository_Skill"><path codeLine="43" d="M192.744,442.152 C178.011,458.334 163.2323,474.555 147.5003,491.835 " fill="none" id="SkillRepository-to-Skill" style="stroke:#181818;stroke-width:0.9;"/><polygon fill="#181818" points="143.865,495.828,151.98,492.262,146.8944,492.5005,146.656,487.4149,143.865,495.828" style="stroke:#181818;stroke-width:0.9;"/></g><!--SRC=[XL71JiCm3BtxAtoZrTI9CmSan8KTTbd51uJEowncIPKOeOBsxwJRoD92MMvvx_dvsGujsqvvTS1EDQtIL4jl23qregms1249mbvjtGTRZJjbGiuOjYHzHzWvqmyVoCZ6g12UH3o_lGkj6cTh_YIy1xWpj1CKXvxrNd3BGrTs5k1KWtNBnk0NO7mLrj4XzhRg4Eq7Q74M50DIml6dwcMpJZKdyN7ajw7E1HRd-ujg4OVL78JydtP9pnIIRmuMvSL6awniY6jhg2ZnOIIwIYOXYb6hBCUpi-ATCUHJpXa-1RWnHqQ-hg9ffARWSlaurmNcqfrhib7_4qwclws5qVwhwhV5SE-4m_J6LmRW6m00]--></g></svg>