<?xml version="1.0" encoding="us-ascii" standalone="no"?><svg xmlns="http://www.w3.org/2000/svg" xmlns:xlink="http://www.w3.org/1999/xlink" contentStyleType="text/css" height="266px" preserveAspectRatio="none" style="width:253px;height:265px;background:#FFFFFF;" version="1.1" viewBox="0 0 253 265" width="253.4px" zoomAndPan="magnify"><defs/><g><rect fill="#FFFFFF" height="150.7844" style="stroke:#181818;stroke-width:0.6999999999999998;" width="7" x="107.1" y="63.3732"/><rect fill="none" height="119.0807" style="stroke:#000000;stroke-width:1.0499999999999998;" width="184.45" x="64.75" y="73.8732"/><line style="stroke:#181818;stroke-width:0.3499999999999999;stroke-dasharray:5.0,5.0;" x1="110.25" x2="110.25" y1="40.0695" y2="226.7576"/><line style="stroke:#181818;stroke-width:0.3499999999999999;stroke-dasharray:5.0,5.0;" x1="226.8" x2="226.8" y1="116.1617" y2="226.7576"/><rect fill="#E3E3E3" height="35.8695" rx="1.75" ry="1.75" style="stroke:#181818;stroke-width:0.3499999999999999;" width="77.7" x="71.75" y="3.5"/><text fill="#000000" font-family="sans-serif" font-size="9.8" lengthAdjust="spacing" textLength="67.9" x="76.65" y="18.9752">SkillRepository:</text><text fill="#000000" font-family="sans-serif" font-size="9.8" lengthAdjust="spacing" textLength="65.1" x="78.05" y="32.01">SkillRepository</text><rect fill="#E3E3E3" height="35.8695" rx="1.75" ry="1.75" style="stroke:#181818;stroke-width:0.3499999999999999;" width="77.7" x="71.75" y="226.0576"/><text fill="#000000" font-family="sans-serif" font-size="9.8" lengthAdjust="spacing" textLength="67.9" x="76.65" y="241.5328">SkillRepository:</text><text fill="#000000" font-family="sans-serif" font-size="9.8" lengthAdjust="spacing" textLength="65.1" x="78.05" y="254.5676">SkillRepository</text><rect fill="#E3E3E3" height="35.8695" rx="1.75" ry="1.75" style="stroke:#181818;stroke-width:0.3499999999999999;" width="30.1" x="212.1" y="226.0576"/><text fill="#000000" font-family="sans-serif" font-size="9.8" lengthAdjust="spacing" textLength="20.3" x="217" y="241.5328">Skill:</text><text fill="#000000" font-family="sans-serif" font-size="9.8" lengthAdjust="spacing" textLength="18.9" x="217.7" y="254.5676">SKill</text><rect fill="#FFFFFF" height="150.7844" style="stroke:#181818;stroke-width:0.6999999999999998;" width="7" x="107.1" y="63.3732"/><polygon fill="#181818" points="98.7,60.5732,105.7,63.3732,98.7,66.1732,101.5,63.3732" style="stroke:#181818;stroke-width:0.6999999999999998;"/><line style="stroke:#181818;stroke-width:0.6999999999999998;" x1="0" x2="102.9" y1="63.3732" y2="63.3732"/><text fill="#000000" font-family="sans-serif" font-size="9.1" font-weight="bold" lengthAdjust="spacing" textLength="9.8" x="4.9" y="59.6894">12</text><text fill="#000000" font-family="sans-serif" font-size="9.1" lengthAdjust="spacing" textLength="81.2" x="17.5" y="59.6894">getTaskCategories()</text><path d="M64.75,73.8732 L152.25,73.8732 L152.25,80.377 L145.25,87.377 L64.75,87.377 L64.75,73.8732 " fill="#EEEEEE" style="stroke:#000000;stroke-width:1.0499999999999998;"/><rect fill="none" height="119.0807" style="stroke:#000000;stroke-width:1.0499999999999998;" width="184.45" x="64.75" y="73.8732"/><text fill="#000000" font-family="sans-serif" font-size="9.1" font-weight="bold" lengthAdjust="spacing" textLength="56" x="75.25" y="84.3931">register Skill</text><polygon fill="#181818" points="203.7,100.8807,210.7,103.6807,203.7,106.4807,206.5,103.6807" style="stroke:#181818;stroke-width:0.6999999999999998;"/><line style="stroke:#181818;stroke-width:0.6999999999999998;" x1="114.1" x2="207.9" y1="103.6807" y2="103.6807"/><text fill="#000000" font-family="sans-serif" font-size="9.1" font-weight="bold" lengthAdjust="spacing" textLength="17.5" x="119" y="99.9968">12.1</text><text fill="#000000" font-family="sans-serif" font-size="9.1" lengthAdjust="spacing" textLength="60.9" x="139.3" y="99.9968">register (name)</text><rect fill="#E3E3E3" height="35.8695" rx="1.75" ry="1.75" style="stroke:#181818;stroke-width:0.3499999999999999;" width="30.1" x="212.1" y="87.377"/><text fill="#000000" font-family="sans-serif" font-size="9.8" lengthAdjust="spacing" textLength="20.3" x="217" y="102.8521">Skill:</text><text fill="#000000" font-family="sans-serif" font-size="9.8" lengthAdjust="spacing" textLength="18.9" x="217.7" y="115.8869">SKill</text><line style="stroke:#181818;stroke-width:0.6999999999999998;" x1="114.1" x2="143.5" y1="147.2502" y2="147.2502"/><line style="stroke:#181818;stroke-width:0.6999999999999998;" x1="143.5" x2="143.5" y1="147.2502" y2="156.3502"/><line style="stroke:#181818;stroke-width:0.6999999999999998;" x1="114.8" x2="143.5" y1="156.3502" y2="156.3502"/><polygon fill="#181818" points="121.8,153.5502,114.8,156.3502,121.8,159.1502,119,156.3502" style="stroke:#181818;stroke-width:0.6999999999999998;"/><text fill="#000000" font-family="sans-serif" font-size="9.1" font-weight="bold" lengthAdjust="spacing" textLength="17.5" x="119" y="143.5663">12.2</text><text fill="#000000" font-family="sans-serif" font-size="9.1" lengthAdjust="spacing" textLength="56.7" x="139.3" y="143.5663">addSkill (skill)</text><line style="stroke:#181818;stroke-width:0.6999999999999998;" x1="114.1" x2="143.5" y1="178.2539" y2="178.2539"/><line style="stroke:#181818;stroke-width:0.6999999999999998;" x1="143.5" x2="143.5" y1="178.2539" y2="187.3539"/><line style="stroke:#181818;stroke-width:0.6999999999999998;" x1="114.8" x2="143.5" y1="187.3539" y2="187.3539"/><polygon fill="#181818" points="121.8,184.5539,114.8,187.3539,121.8,190.1539,119,187.3539" style="stroke:#181818;stroke-width:0.6999999999999998;"/><text fill="#000000" font-family="sans-serif" font-size="9.1" font-weight="bold" lengthAdjust="spacing" textLength="17.5" x="119" y="174.57">12.3</text><text fill="#000000" font-family="sans-serif" font-size="9.1" lengthAdjust="spacing" textLength="72.1" x="139.3" y="174.57">validateSkill (skill)</text><polygon fill="#181818" points="7.7,211.3576,0.7,214.1576,7.7,216.9576,4.9,214.1576" style="stroke:#181818;stroke-width:0.6999999999999998;"/><line style="stroke:#181818;stroke-width:0.6999999999999998;stroke-dasharray:2.0,2.0;" x1="3.5" x2="109.9" y1="214.1576" y2="214.1576"/><text fill="#000000" font-family="sans-serif" font-size="9.1" font-weight="bold" lengthAdjust="spacing" textLength="9.8" x="11.9" y="210.4737">13</text><text fill="#000000" font-family="sans-serif" font-size="9.1" lengthAdjust="spacing" textLength="16.1" x="24.5" y="210.4737">skill</text><!--SRC=[ZP31JiCm38RlVWfh5xf9HHhS9iG5SK3R0J6ENBp6IwEcIPMuWxqzQIRQ3H325ols__ct4nlZEWhKOkkTh-hWMqO9FKCSEnrL3MdUoj4o1gw4dBRdWbYJyk_6QToJZGn0lNZNjpiE05UrKOnxxsNdFm0I8QOo7Jd1sROnrhvmvwCH7uwhD_UjCaEAUAezFl_23iGwvPDk_RJPd9lZyWO0o_jn0gvGixnIR1v8MFjWE1RpI-9w2LI9EIJ1v8mfTF1zb-xN9afIvXxapbUCDeFbiCnYaHn7ed3KylmFPDgIbCelBEAG_WSTo1gLrhua1u2ToldyqDjSkIlBQKIQaI5G_FCBu1C0]--></g></svg>