<?xml version="1.0" encoding="us-ascii" standalone="no"?><svg xmlns="http://www.w3.org/2000/svg" xmlns:xlink="http://www.w3.org/1999/xlink" contentStyleType="text/css" height="886px" preserveAspectRatio="none" style="width:405px;height:886px;background:#FFFFFF;" version="1.1" viewBox="0 0 405 886" width="405px" zoomAndPan="magnify"><defs/><g><!--class CancelEntryAgendaUI--><g id="elem_CancelEntryAgendaUI"><rect codeLine="8" fill="#F1F1F1" height="48" id="CancelEntryAgendaUI" rx="2.5" ry="2.5" style="stroke:#181818;stroke-width:0.5;" width="170" x="203" y="7"/><ellipse cx="218" cy="23" fill="#ADD1B2" rx="11" ry="11" style="stroke:#181818;stroke-width:1.0;"/><path d="M220.7656,18.875 Q220.9219,18.6563 221.1094,18.5469 Q221.2969,18.4375 221.5156,18.4375 Q221.8906,18.4375 222.125,18.7031 Q222.3594,18.9531 222.3594,19.5625 L222.3594,21.0156 Q222.3594,21.625 222.125,21.8906 Q221.8906,22.1563 221.5156,22.1563 Q221.1719,22.1563 220.9688,21.9531 Q220.7656,21.7656 220.6563,21.25 Q220.6094,20.8906 220.4219,20.7031 Q220.0938,20.3281 219.4844,20.1094 Q218.875,19.8906 218.25,19.8906 Q217.4844,19.8906 216.8438,20.2188 Q216.2188,20.5469 215.7188,21.2969 Q215.2344,22.0469 215.2344,23.0781 L215.2344,24.1719 Q215.2344,25.4063 216.125,26.2344 Q217.0156,27.0469 218.6094,27.0469 Q219.5469,27.0469 220.2031,26.7969 Q220.5938,26.6406 221.0156,26.2031 Q221.2813,25.9375 221.4219,25.8594 Q221.5781,25.7813 221.7813,25.7813 Q222.1094,25.7813 222.3594,26.0469 Q222.625,26.2969 222.625,26.6406 Q222.625,26.9844 222.2813,27.3906 Q221.7813,27.9688 220.9844,28.2969 Q219.9063,28.75 218.6094,28.75 Q217.0938,28.75 215.8906,28.125 Q214.9063,27.625 214.2188,26.5625 Q213.5313,25.4844 213.5313,24.2031 L213.5313,23.0469 Q213.5313,21.7188 214.1406,20.5781 Q214.7656,19.4219 215.8594,18.8125 Q216.9531,18.1875 218.1875,18.1875 Q218.9219,18.1875 219.5625,18.3594 Q220.2188,18.5156 220.7656,18.875 Z " fill="#000000"/><text fill="#000000" font-family="sans-serif" font-size="14" lengthAdjust="spacing" textLength="138" x="232" y="28.7969">CancelEntryAgendaUI</text><line style="stroke:#181818;stroke-width:0.5;" x1="204" x2="372" y1="39" y2="39"/><line style="stroke:#181818;stroke-width:0.5;" x1="204" x2="372" y1="47" y2="47"/></g><!--class CancelEntryAgendaController--><g id="elem_CancelEntryAgendaController"><rect codeLine="10" fill="#F1F1F1" height="103.8633" id="CancelEntryAgendaController" rx="2.5" ry="2.5" style="stroke:#181818;stroke-width:0.5;" width="220" x="178" y="116"/><ellipse cx="193" cy="132" fill="#ADD1B2" rx="11" ry="11" style="stroke:#181818;stroke-width:1.0;"/><path d="M195.7656,127.875 Q195.9219,127.6563 196.1094,127.5469 Q196.2969,127.4375 196.5156,127.4375 Q196.8906,127.4375 197.125,127.7031 Q197.3594,127.9531 197.3594,128.5625 L197.3594,130.0156 Q197.3594,130.625 197.125,130.8906 Q196.8906,131.1563 196.5156,131.1563 Q196.1719,131.1563 195.9688,130.9531 Q195.7656,130.7656 195.6563,130.25 Q195.6094,129.8906 195.4219,129.7031 Q195.0938,129.3281 194.4844,129.1094 Q193.875,128.8906 193.25,128.8906 Q192.4844,128.8906 191.8438,129.2188 Q191.2188,129.5469 190.7188,130.2969 Q190.2344,131.0469 190.2344,132.0781 L190.2344,133.1719 Q190.2344,134.4063 191.125,135.2344 Q192.0156,136.0469 193.6094,136.0469 Q194.5469,136.0469 195.2031,135.7969 Q195.5938,135.6406 196.0156,135.2031 Q196.2813,134.9375 196.4219,134.8594 Q196.5781,134.7813 196.7813,134.7813 Q197.1094,134.7813 197.3594,135.0469 Q197.625,135.2969 197.625,135.6406 Q197.625,135.9844 197.2813,136.3906 Q196.7813,136.9688 195.9844,137.2969 Q194.9063,137.75 193.6094,137.75 Q192.0938,137.75 190.8906,137.125 Q189.9063,136.625 189.2188,135.5625 Q188.5313,134.4844 188.5313,133.2031 L188.5313,132.0469 Q188.5313,130.7188 189.1406,129.5781 Q189.7656,128.4219 190.8594,127.8125 Q191.9531,127.1875 193.1875,127.1875 Q193.9219,127.1875 194.5625,127.3594 Q195.2188,127.5156 195.7656,127.875 Z " fill="#000000"/><text fill="#000000" font-family="sans-serif" font-size="14" lengthAdjust="spacing" textLength="188" x="207" y="137.7969">CancelEntryAgendaController</text><line style="stroke:#181818;stroke-width:0.5;" x1="179" x2="397" y1="148" y2="148"/><line style="stroke:#181818;stroke-width:0.5;" x1="179" x2="397" y1="156" y2="156"/><text fill="#000000" font-family="sans-serif" font-size="14" lengthAdjust="spacing" textLength="150" x="184" y="175.1074">-getEntryByIndex(index)</text><text fill="#000000" font-family="sans-serif" font-size="14" lengthAdjust="spacing" textLength="157" x="184" y="193.7285">+cancelEntry(entryIndex)</text><text fill="#000000" font-family="sans-serif" font-size="14" lengthAdjust="spacing" textLength="104" x="184" y="212.3496">+getEntriesList()</text></g><!--class Repositories--><g id="elem_Repositories"><rect codeLine="17" fill="#F1F1F1" height="103.8633" id="Repositories" rx="2.5" ry="2.5" style="stroke:#181818;stroke-width:0.5;" width="194" x="7" y="281"/><ellipse cx="60.25" cy="297" fill="#ADD1B2" rx="11" ry="11" style="stroke:#181818;stroke-width:1.0;"/><path d="M63.0156,292.875 Q63.1719,292.6563 63.3594,292.5469 Q63.5469,292.4375 63.7656,292.4375 Q64.1406,292.4375 64.375,292.7031 Q64.6094,292.9531 64.6094,293.5625 L64.6094,295.0156 Q64.6094,295.625 64.375,295.8906 Q64.1406,296.1563 63.7656,296.1563 Q63.4219,296.1563 63.2188,295.9531 Q63.0156,295.7656 62.9063,295.25 Q62.8594,294.8906 62.6719,294.7031 Q62.3438,294.3281 61.7344,294.1094 Q61.125,293.8906 60.5,293.8906 Q59.7344,293.8906 59.0938,294.2188 Q58.4688,294.5469 57.9688,295.2969 Q57.4844,296.0469 57.4844,297.0781 L57.4844,298.1719 Q57.4844,299.4063 58.375,300.2344 Q59.2656,301.0469 60.8594,301.0469 Q61.7969,301.0469 62.4531,300.7969 Q62.8438,300.6406 63.2656,300.2031 Q63.5313,299.9375 63.6719,299.8594 Q63.8281,299.7813 64.0313,299.7813 Q64.3594,299.7813 64.6094,300.0469 Q64.875,300.2969 64.875,300.6406 Q64.875,300.9844 64.5313,301.3906 Q64.0313,301.9688 63.2344,302.2969 Q62.1563,302.75 60.8594,302.75 Q59.3438,302.75 58.1406,302.125 Q57.1563,301.625 56.4688,300.5625 Q55.7813,299.4844 55.7813,298.2031 L55.7813,297.0469 Q55.7813,295.7188 56.3906,294.5781 Q57.0156,293.4219 58.1094,292.8125 Q59.2031,292.1875 60.4375,292.1875 Q61.1719,292.1875 61.8125,292.3594 Q62.4688,292.5156 63.0156,292.875 Z " fill="#000000"/><text fill="#000000" font-family="sans-serif" font-size="14" lengthAdjust="spacing" textLength="79" x="80.75" y="302.7969">Repositories</text><line style="stroke:#181818;stroke-width:0.5;" x1="8" x2="200" y1="313" y2="313"/><line style="stroke:#181818;stroke-width:0.5;" x1="8" x2="200" y1="321" y2="321"/><text fill="#000000" font-family="sans-serif" font-size="14" lengthAdjust="spacing" textLength="94" x="13" y="340.1074">-Repositories()</text><text fill="#000000" font-family="sans-serif" font-size="14" lengthAdjust="spacing" textLength="182" x="13" y="358.7285">+getInstance() : Repositories</text><text fill="#000000" font-family="sans-serif" font-size="14" lengthAdjust="spacing" textLength="87" x="13" y="377.3496">+getAgenda()</text></g><!--class Agenda--><g id="elem_Agenda"><rect codeLine="23" fill="#F1F1F1" height="103.8633" id="Agenda" rx="2.5" ry="2.5" style="stroke:#181818;stroke-width:0.5;" width="141" x="156.5" y="446"/><ellipse cx="198.5" cy="462" fill="#ADD1B2" rx="11" ry="11" style="stroke:#181818;stroke-width:1.0;"/><path d="M201.2656,457.875 Q201.4219,457.6563 201.6094,457.5469 Q201.7969,457.4375 202.0156,457.4375 Q202.3906,457.4375 202.625,457.7031 Q202.8594,457.9531 202.8594,458.5625 L202.8594,460.0156 Q202.8594,460.625 202.625,460.8906 Q202.3906,461.1563 202.0156,461.1563 Q201.6719,461.1563 201.4688,460.9531 Q201.2656,460.7656 201.1563,460.25 Q201.1094,459.8906 200.9219,459.7031 Q200.5938,459.3281 199.9844,459.1094 Q199.375,458.8906 198.75,458.8906 Q197.9844,458.8906 197.3438,459.2188 Q196.7188,459.5469 196.2188,460.2969 Q195.7344,461.0469 195.7344,462.0781 L195.7344,463.1719 Q195.7344,464.4063 196.625,465.2344 Q197.5156,466.0469 199.1094,466.0469 Q200.0469,466.0469 200.7031,465.7969 Q201.0938,465.6406 201.5156,465.2031 Q201.7813,464.9375 201.9219,464.8594 Q202.0781,464.7813 202.2813,464.7813 Q202.6094,464.7813 202.8594,465.0469 Q203.125,465.2969 203.125,465.6406 Q203.125,465.9844 202.7813,466.3906 Q202.2813,466.9688 201.4844,467.2969 Q200.4063,467.75 199.1094,467.75 Q197.5938,467.75 196.3906,467.125 Q195.4063,466.625 194.7188,465.5625 Q194.0313,464.4844 194.0313,463.2031 L194.0313,462.0469 Q194.0313,460.7188 194.6406,459.5781 Q195.2656,458.4219 196.3594,457.8125 Q197.4531,457.1875 198.6875,457.1875 Q199.4219,457.1875 200.0625,457.3594 Q200.7188,457.5156 201.2656,457.875 Z " fill="#000000"/><text fill="#000000" font-family="sans-serif" font-size="14" lengthAdjust="spacing" textLength="49" x="218.5" y="467.7969">Agenda</text><line style="stroke:#181818;stroke-width:0.5;" x1="157.5" x2="296.5" y1="478" y2="478"/><line style="stroke:#181818;stroke-width:0.5;" x1="157.5" x2="296.5" y1="486" y2="486"/><text fill="#000000" font-family="sans-serif" font-size="14" lengthAdjust="spacing" textLength="129" x="162.5" y="505.1074">-validateEntry(entry)</text><text fill="#000000" font-family="sans-serif" font-size="14" lengthAdjust="spacing" textLength="104" x="162.5" y="523.7285">+getEntriesList()</text><text fill="#000000" font-family="sans-serif" font-size="14" lengthAdjust="spacing" textLength="124" x="162.5" y="542.3496">+cancelEntry(entry)</text></g><!--class Entry--><g id="elem_Entry"><rect codeLine="29" fill="#F1F1F1" height="85.2422" id="Entry" rx="2.5" ry="2.5" style="stroke:#181818;stroke-width:0.5;" width="174" x="140" y="611"/><ellipse cx="206.25" cy="627" fill="#ADD1B2" rx="11" ry="11" style="stroke:#181818;stroke-width:1.0;"/><path d="M209.0156,622.875 Q209.1719,622.6563 209.3594,622.5469 Q209.5469,622.4375 209.7656,622.4375 Q210.1406,622.4375 210.375,622.7031 Q210.6094,622.9531 210.6094,623.5625 L210.6094,625.0156 Q210.6094,625.625 210.375,625.8906 Q210.1406,626.1563 209.7656,626.1563 Q209.4219,626.1563 209.2188,625.9531 Q209.0156,625.7656 208.9063,625.25 Q208.8594,624.8906 208.6719,624.7031 Q208.3438,624.3281 207.7344,624.1094 Q207.125,623.8906 206.5,623.8906 Q205.7344,623.8906 205.0938,624.2188 Q204.4688,624.5469 203.9688,625.2969 Q203.4844,626.0469 203.4844,627.0781 L203.4844,628.1719 Q203.4844,629.4063 204.375,630.2344 Q205.2656,631.0469 206.8594,631.0469 Q207.7969,631.0469 208.4531,630.7969 Q208.8438,630.6406 209.2656,630.2031 Q209.5313,629.9375 209.6719,629.8594 Q209.8281,629.7813 210.0313,629.7813 Q210.3594,629.7813 210.6094,630.0469 Q210.875,630.2969 210.875,630.6406 Q210.875,630.9844 210.5313,631.3906 Q210.0313,631.9688 209.2344,632.2969 Q208.1563,632.75 206.8594,632.75 Q205.3438,632.75 204.1406,632.125 Q203.1563,631.625 202.4688,630.5625 Q201.7813,629.4844 201.7813,628.2031 L201.7813,627.0469 Q201.7813,625.7188 202.3906,624.5781 Q203.0156,623.4219 204.1094,622.8125 Q205.2031,622.1875 206.4375,622.1875 Q207.1719,622.1875 207.8125,622.3594 Q208.4688,622.5156 209.0156,622.875 Z " fill="#000000"/><text fill="#000000" font-family="sans-serif" font-size="14" lengthAdjust="spacing" textLength="33" x="226.75" y="632.7969">Entry</text><line style="stroke:#181818;stroke-width:0.5;" x1="141" x2="313" y1="643" y2="643"/><text fill="#000000" font-family="sans-serif" font-size="14" lengthAdjust="spacing" textLength="116" x="146" y="662.1074">-Date startingDate</text><line style="stroke:#181818;stroke-width:0.5;" x1="141" x2="313" y1="669.6211" y2="669.6211"/><text fill="#000000" font-family="sans-serif" font-size="14" lengthAdjust="spacing" textLength="162" x="146" y="688.7285">+Entry(startingDate, task)</text></g><!--class AgendaStatus--><g id="elem_AgendaStatus"><rect codeLine="34" fill="#F1F1F1" height="122.4844" id="AgendaStatus" rx="2.5" ry="2.5" style="stroke:#181818;stroke-width:0.5;" width="121" x="166.5" y="757"/><ellipse cx="181.5" cy="773" fill="#EB937F" rx="11" ry="11" style="stroke:#181818;stroke-width:1.0;"/><path d="M180.3594,773.7969 L180.3594,776.2969 L184.6875,776.2969 L184.6875,775.375 Q184.6875,774.7656 184.9219,774.5 Q185.1719,774.2344 185.5469,774.2344 Q185.9219,774.2344 186.1563,774.5 Q186.3906,774.7656 186.3906,775.375 L186.3906,778 L178.3906,778 Q177.7656,778 177.5,777.7656 Q177.25,777.5313 177.25,777.1406 Q177.25,776.7656 177.5156,776.5313 Q177.7813,776.2969 178.3906,776.2969 L178.6563,776.2969 L178.6563,769.6406 L178.3906,769.6406 Q177.7656,769.6406 177.5,769.4063 Q177.25,769.1719 177.25,768.7813 Q177.25,768.4063 177.5,768.1719 Q177.7656,767.9375 178.3906,767.9375 L186.0156,767.9375 L186.0156,770.5313 Q186.0156,771.1406 185.7813,771.4063 Q185.5625,771.6563 185.1719,771.6563 Q184.7969,771.6563 184.5625,771.4063 Q184.3281,771.1406 184.3281,770.5313 L184.3281,769.6406 L180.3594,769.6406 L180.3594,772.0938 L181.8438,772.0938 Q181.8438,771.4375 181.9688,771.25 Q182.2344,770.8438 182.7031,770.8438 Q183.0781,770.8438 183.3125,771.1094 Q183.5469,771.3594 183.5469,771.9688 L183.5469,773.9375 Q183.5469,774.4844 183.4219,774.6719 Q183.1563,775.0625 182.7031,775.0625 Q182.2344,775.0625 181.9688,774.6563 Q181.8438,774.4688 181.8438,773.7969 L180.3594,773.7969 Z " fill="#000000"/><text fill="#000000" font-family="sans-serif" font-size="14" lengthAdjust="spacing" textLength="89" x="195.5" y="778.7969">AgendaStatus</text><line style="stroke:#181818;stroke-width:0.5;" x1="167.5" x2="286.5" y1="789" y2="789"/><text fill="#000000" font-family="sans-serif" font-size="14" lengthAdjust="spacing" textLength="63" x="172.5" y="808.1074">PLANNED</text><text fill="#000000" font-family="sans-serif" font-size="14" lengthAdjust="spacing" textLength="86" x="172.5" y="826.7285">POSTPONED</text><text fill="#000000" font-family="sans-serif" font-size="14" lengthAdjust="spacing" textLength="74" x="172.5" y="845.3496">CANCELED</text><text fill="#000000" font-family="sans-serif" font-size="14" lengthAdjust="spacing" textLength="39" x="172.5" y="863.9707">DONE</text><line style="stroke:#181818;stroke-width:0.5;" x1="167.5" x2="286.5" y1="871.4844" y2="871.4844"/></g><!--link CancelEntryAgendaUI to CancelEntryAgendaController--><g id="link_CancelEntryAgendaUI_CancelEntryAgendaController"><path codeLine="41" d="M288,55.21 C288,71.87 288,88.97 288,109.86 " fill="none" id="CancelEntryAgendaUI-to-CancelEntryAgendaController" style="stroke:#181818;stroke-width:1.0;stroke-dasharray:7.0,7.0;"/><polygon fill="#181818" points="288,115.86,292,106.86,288,110.86,284,106.86,288,115.86" style="stroke:#181818;stroke-width:1.0;"/></g><!--link CancelEntryAgendaController to Repositories--><g id="link_CancelEntryAgendaController_Repositories"><path codeLine="43" d="M230.29,220.13 C208.47,239.45 188.1411,257.4614 166.3211,276.7914 " fill="none" id="CancelEntryAgendaController-to-Repositories" style="stroke:#181818;stroke-width:1.0;stroke-dasharray:7.0,7.0;"/><polygon fill="#181818" points="161.83,280.77,171.2192,277.7961,165.5726,277.4545,165.9143,271.8079,161.83,280.77" style="stroke:#181818;stroke-width:1.0;"/></g><!--link CancelEntryAgendaController to Agenda--><g id="link_CancelEntryAgendaController_Agenda"><path codeLine="45" d="M292.1,220.08 C294.48,249.62 297,281 297,281 C297,281 297,385 297,385 C297,385 280.5697,411.2918 262.1097,440.8318 " fill="none" id="CancelEntryAgendaController-to-Agenda" style="stroke:#181818;stroke-width:1.0;stroke-dasharray:7.0,7.0;"/><polygon fill="#181818" points="258.93,445.92,267.0916,440.4075,261.5797,441.6798,260.3074,436.1679,258.93,445.92" style="stroke:#181818;stroke-width:1.0;"/><text fill="#000000" font-family="sans-serif" font-size="13" lengthAdjust="spacing" textLength="42" x="298" y="338.5283">agenda</text></g><!--link Repositories to Repositories--><g id="link_Repositories_Repositories"><path codeLine="47" d="M201.28,318.17 C221.48,319.73 236,324.67 236,333 C236,341.33 227.4622,345.808 207.2622,347.368 " fill="none" id="Repositories-to-Repositories" style="stroke:#181818;stroke-width:1.0;"/><polygon fill="#181818" points="201.28,347.83,210.5613,351.1251,206.2652,347.445,209.9453,343.1489,201.28,347.83" style="stroke:#181818;stroke-width:1.0;"/><text fill="#000000" font-family="sans-serif" font-size="13" lengthAdjust="spacing" textLength="49" x="242" y="338.5283">instance</text></g><!--link Repositories to Agenda--><g id="link_Repositories_Agenda"><path codeLine="49" d="M142.58,385.13 C157.16,404.45 170.1338,421.6522 184.7338,440.9822 " fill="none" id="Repositories-to-Agenda" style="stroke:#181818;stroke-width:1.0;"/><polygon fill="#181818" points="188.35,445.77,186.1175,436.1775,185.3365,441.7802,179.7338,440.9991,188.35,445.77" style="stroke:#181818;stroke-width:1.0;"/><text fill="#000000" font-family="sans-serif" font-size="13" lengthAdjust="spacing" textLength="7" x="175.6861" y="434.6665">1</text></g><!--link Agenda to Entry--><g id="link_Agenda_Entry"><path codeLine="51" d="M227,550.11 C227,569.82 227,586.08 227,604.8 " fill="none" id="Agenda-to-Entry" style="stroke:#181818;stroke-width:1.0;"/><polygon fill="#181818" points="227,610.8,231,601.8,227,605.8,223,601.8,227,610.8" style="stroke:#181818;stroke-width:1.0;"/><text fill="#000000" font-family="sans-serif" font-size="13" lengthAdjust="spacing" textLength="5" x="221.6016" y="599.6722">*</text></g><!--link Entry to AgendaStatus--><g id="link_Entry_AgendaStatus"><path codeLine="53" d="M227,696.35 C227,714.78 227,730.78 227,750.92 " fill="none" id="Entry-to-AgendaStatus" style="stroke:#181818;stroke-width:1.0;"/><polygon fill="#181818" points="227,756.92,231,747.92,227,751.92,223,747.92,227,756.92" style="stroke:#181818;stroke-width:1.0;"/><text fill="#000000" font-family="sans-serif" font-size="13" lengthAdjust="spacing" textLength="7" x="219.5953" y="745.892">1</text></g><!--SRC=[XL71JiCm3BtxAwATEc0JN7T0AjqEbQPjel01fZKbMfPMZGUKYN-dJSAMeG8znF5xVizkRBPIrzZWJjIORx6aZ5j5eg6SKPUAm1mBp0iMrPlKfNX6PK96IKtSrYJgIhLz0X2mkK9ZOkP6FksPqhpIcVmWSGrW6P6WpaajD3TjN98ky34zVFvA9bLthvIYvW2Y-oObiQNlsbGNz1x9_XnRxZ8_gIFgppGWlL2IMKh3qHZWsFMUwif8hdhIjmcXwEIGQiDzasWiPcUoOuKRkvCStHtYVLzHoGAPWY5_cs_ubm9ZYthVUUSfkjaQxZRM9qxkX25-9HZDrhgGtk_yT1aZxurmPfjbl5ejvkw-pXusw-yiYLV9OkcJUGVtDWCB5TFfxL-x712TI2i-Uzj_gnqu4sWZGAWMaycvtKn8lyM1mj7DoBi1kEZWYv5xRW0RVjIwvmFu0W00]--></g></svg>