<?xml version="1.0" encoding="us-ascii" standalone="no"?><svg xmlns="http://www.w3.org/2000/svg" xmlns:xlink="http://www.w3.org/1999/xlink" contentStyleType="text/css" height="413.6px" preserveAspectRatio="none" style="width:472px;height:413px;background:#FFFFFF;" version="1.1" viewBox="0 0 472 413" width="472px" zoomAndPan="magnify"><defs/><g><!--class RegisterVehicleUI--><g id="elem_RegisterVehicleUI"><rect codeLine="11" fill="#F1F1F1" height="19.2" id="RegisterVehicleUI" rx="1" ry="1" style="stroke:#181818;stroke-width:0.20000000000000004;" width="57.2" x="181.4" y="2.8"/><ellipse cx="187.4" cy="9.2" fill="#ADD1B2" rx="4.4" ry="4.4" style="stroke:#181818;stroke-width:0.4000000000000001;"/><path d="M188.5063,7.55 Q188.5688,7.4625 188.6438,7.4188 Q188.7188,7.375 188.8063,7.375 Q188.9563,7.375 189.05,7.4813 Q189.1438,7.5813 189.1438,7.825 L189.1438,8.4063 Q189.1438,8.65 189.05,8.7563 Q188.9563,8.8625 188.8063,8.8625 Q188.6688,8.8625 188.5875,8.7813 Q188.5063,8.7063 188.4625,8.5 Q188.4438,8.3563 188.3688,8.2813 Q188.2375,8.1313 187.9938,8.0438 Q187.75,7.9563 187.5,7.9563 Q187.1938,7.9563 186.9375,8.0875 Q186.6875,8.2188 186.4875,8.5188 Q186.2938,8.8188 186.2938,9.2313 L186.2938,9.6688 Q186.2938,10.1625 186.65,10.4938 Q187.0063,10.8188 187.6438,10.8188 Q188.0188,10.8188 188.2813,10.7188 Q188.4375,10.6563 188.6063,10.4813 Q188.7125,10.375 188.7688,10.3438 Q188.8313,10.3125 188.9125,10.3125 Q189.0438,10.3125 189.1438,10.4188 Q189.25,10.5188 189.25,10.6563 Q189.25,10.7938 189.1125,10.9563 Q188.9125,11.1875 188.5938,11.3188 Q188.1625,11.5 187.6438,11.5 Q187.0375,11.5 186.5563,11.25 Q186.1625,11.05 185.8875,10.625 Q185.6125,10.1938 185.6125,9.6813 L185.6125,9.2188 Q185.6125,8.6875 185.8563,8.2313 Q186.1063,7.7688 186.5438,7.525 Q186.9813,7.275 187.475,7.275 Q187.7688,7.275 188.025,7.3438 Q188.2875,7.4063 188.5063,7.55 Z " fill="#000000"/><text fill="#000000" font-family="sans-serif" font-size="5.6" lengthAdjust="spacing" textLength="44.4" x="193" y="11.5188">RegisterVehicleUI</text><line style="stroke:#181818;stroke-width:0.20000000000000004;" x1="181.8" x2="238.2" y1="15.6" y2="15.6"/><line style="stroke:#181818;stroke-width:0.20000000000000004;" x1="181.8" x2="238.2" y1="18.8" y2="18.8"/></g><!--class RegisterVehicleControlller--><g id="elem_RegisterVehicleControlller"><rect codeLine="15" fill="#F1F1F1" height="34.0969" id="RegisterVehicleControlller" rx="1" ry="1" style="stroke:#181818;stroke-width:0.20000000000000004;" width="371.2" x="24.4" y="46.4"/><ellipse cx="175.5" cy="52.8" fill="#ADD1B2" rx="4.4" ry="4.4" style="stroke:#181818;stroke-width:0.4000000000000001;"/><path d="M176.6063,51.15 Q176.6688,51.0625 176.7438,51.0188 Q176.8188,50.975 176.9063,50.975 Q177.0563,50.975 177.15,51.0813 Q177.2438,51.1813 177.2438,51.425 L177.2438,52.0063 Q177.2438,52.25 177.15,52.3563 Q177.0563,52.4625 176.9063,52.4625 Q176.7688,52.4625 176.6875,52.3813 Q176.6063,52.3063 176.5625,52.1 Q176.5438,51.9563 176.4688,51.8813 Q176.3375,51.7313 176.0938,51.6438 Q175.85,51.5563 175.6,51.5563 Q175.2938,51.5563 175.0375,51.6875 Q174.7875,51.8188 174.5875,52.1188 Q174.3938,52.4188 174.3938,52.8313 L174.3938,53.2688 Q174.3938,53.7625 174.75,54.0938 Q175.1063,54.4188 175.7438,54.4188 Q176.1188,54.4188 176.3813,54.3188 Q176.5375,54.2563 176.7063,54.0813 Q176.8125,53.975 176.8688,53.9438 Q176.9313,53.9125 177.0125,53.9125 Q177.1438,53.9125 177.2438,54.0188 Q177.35,54.1188 177.35,54.2563 Q177.35,54.3938 177.2125,54.5563 Q177.0125,54.7875 176.6938,54.9188 Q176.2625,55.1 175.7438,55.1 Q175.1375,55.1 174.6563,54.85 Q174.2625,54.65 173.9875,54.225 Q173.7125,53.7938 173.7125,53.2813 L173.7125,52.8188 Q173.7125,52.2875 173.9563,51.8313 Q174.2063,51.3688 174.6438,51.125 Q175.0813,50.875 175.575,50.875 Q175.8688,50.875 176.125,50.9438 Q176.3875,51.0063 176.6063,51.15 Z " fill="#000000"/><text fill="#000000" font-family="sans-serif" font-size="5.6" lengthAdjust="spacing" textLength="65.6" x="183.7" y="55.1188">RegisterVehicleControlller</text><line style="stroke:#181818;stroke-width:0.20000000000000004;" x1="24.8" x2="395.2" y1="59.2" y2="59.2"/><line style="stroke:#181818;stroke-width:0.20000000000000004;" x1="24.8" x2="395.2" y1="62.4" y2="62.4"/><text fill="#000000" font-family="sans-serif" font-size="5.6" lengthAdjust="spacing" textLength="71.6" x="26.8" y="70.043">+RegisterVehicleController()</text><text fill="#000000" font-family="sans-serif" font-size="5.6" lengthAdjust="spacing" textLength="366.4" x="26.8" y="77.4914">+registerVehicle(brand, model, tare, grossWeight, currentKm, registerDate, acquisitionDate, maintenanceCheckUpFrequency, plateNumber, type)</text></g><!--class VehicleRepository--><g id="elem_VehicleRepository"><rect codeLine="20" fill="#F1F1F1" height="41.5453" id="VehicleRepository" rx="1" ry="1" style="stroke:#181818;stroke-width:0.20000000000000004;" width="371.2" x="2.8" y="178"/><ellipse cx="163.9" cy="184.4" fill="#ADD1B2" rx="4.4" ry="4.4" style="stroke:#181818;stroke-width:0.4000000000000001;"/><path d="M165.0063,182.75 Q165.0688,182.6625 165.1438,182.6188 Q165.2188,182.575 165.3063,182.575 Q165.4563,182.575 165.55,182.6813 Q165.6438,182.7813 165.6438,183.025 L165.6438,183.6063 Q165.6438,183.85 165.55,183.9563 Q165.4563,184.0625 165.3063,184.0625 Q165.1688,184.0625 165.0875,183.9813 Q165.0063,183.9063 164.9625,183.7 Q164.9438,183.5563 164.8688,183.4813 Q164.7375,183.3313 164.4938,183.2438 Q164.25,183.1563 164,183.1563 Q163.6938,183.1563 163.4375,183.2875 Q163.1875,183.4188 162.9875,183.7188 Q162.7938,184.0188 162.7938,184.4313 L162.7938,184.8688 Q162.7938,185.3625 163.15,185.6938 Q163.5063,186.0188 164.1438,186.0188 Q164.5188,186.0188 164.7813,185.9188 Q164.9375,185.8563 165.1063,185.6813 Q165.2125,185.575 165.2688,185.5438 Q165.3313,185.5125 165.4125,185.5125 Q165.5438,185.5125 165.6438,185.6188 Q165.75,185.7188 165.75,185.8563 Q165.75,185.9938 165.6125,186.1563 Q165.4125,186.3875 165.0938,186.5188 Q164.6625,186.7 164.1438,186.7 Q163.5375,186.7 163.0563,186.45 Q162.6625,186.25 162.3875,185.825 Q162.1125,185.3938 162.1125,184.8813 L162.1125,184.4188 Q162.1125,183.8875 162.3563,183.4313 Q162.6063,182.9688 163.0438,182.725 Q163.4813,182.475 163.975,182.475 Q164.2688,182.475 164.525,182.5438 Q164.7875,182.6063 165.0063,182.75 Z " fill="#000000"/><text fill="#000000" font-family="sans-serif" font-size="5.6" lengthAdjust="spacing" textLength="45.6" x="172.1" y="186.7188">VehicleRepository</text><line style="stroke:#181818;stroke-width:0.20000000000000004;" x1="3.2" x2="373.6" y1="190.8" y2="190.8"/><line style="stroke:#181818;stroke-width:0.20000000000000004;" x1="3.2" x2="373.6" y1="194" y2="194"/><text fill="#000000" font-family="sans-serif" font-size="5.6" lengthAdjust="spacing" textLength="51.6" x="5.2" y="201.643">-addVehicle(vehicle)</text><text fill="#000000" font-family="sans-serif" font-size="5.6" lengthAdjust="spacing" textLength="61.6" x="5.2" y="209.0914">-validateVehicle(vehicle)</text><text fill="#000000" font-family="sans-serif" font-size="5.6" lengthAdjust="spacing" textLength="366.4" x="5.2" y="216.5398">+registerVehicle(brand, model, tare, grossWeight, currentKm, registerDate, acquisitionDate, maintenanceCheckUpFrequency, plateNumber, type)</text></g><!--class Vehicle--><g id="elem_Vehicle"><rect codeLine="26" fill="#F1F1F1" height="93.6844" id="Vehicle" rx="1" ry="1" style="stroke:#181818;stroke-width:0.20000000000000004;" width="352" x="117.2" y="244"/><ellipse cx="282.3" cy="250.4" fill="#ADD1B2" rx="4.4" ry="4.4" style="stroke:#181818;stroke-width:0.4000000000000001;"/><path d="M283.4063,248.75 Q283.4688,248.6625 283.5438,248.6188 Q283.6188,248.575 283.7063,248.575 Q283.8563,248.575 283.95,248.6813 Q284.0438,248.7813 284.0438,249.025 L284.0438,249.6063 Q284.0438,249.85 283.95,249.9563 Q283.8563,250.0625 283.7063,250.0625 Q283.5688,250.0625 283.4875,249.9813 Q283.4063,249.9063 283.3625,249.7 Q283.3438,249.5563 283.2688,249.4813 Q283.1375,249.3313 282.8938,249.2438 Q282.65,249.1563 282.4,249.1563 Q282.0938,249.1563 281.8375,249.2875 Q281.5875,249.4188 281.3875,249.7188 Q281.1938,250.0188 281.1938,250.4313 L281.1938,250.8688 Q281.1938,251.3625 281.55,251.6938 Q281.9063,252.0188 282.5438,252.0188 Q282.9188,252.0188 283.1813,251.9188 Q283.3375,251.8563 283.5063,251.6813 Q283.6125,251.575 283.6688,251.5438 Q283.7313,251.5125 283.8125,251.5125 Q283.9438,251.5125 284.0438,251.6188 Q284.15,251.7188 284.15,251.8563 Q284.15,251.9938 284.0125,252.1563 Q283.8125,252.3875 283.4938,252.5188 Q283.0625,252.7 282.5438,252.7 Q281.9375,252.7 281.4563,252.45 Q281.0625,252.25 280.7875,251.825 Q280.5125,251.3938 280.5125,250.8813 L280.5125,250.4188 Q280.5125,249.8875 280.7563,249.4313 Q281.0063,248.9688 281.4438,248.725 Q281.8813,248.475 282.375,248.475 Q282.6688,248.475 282.925,248.5438 Q283.1875,248.6063 283.4063,248.75 Z " fill="#000000"/><text fill="#000000" font-family="sans-serif" font-size="5.6" lengthAdjust="spacing" textLength="18.4" x="290.5" y="252.7188">Vehicle</text><line style="stroke:#181818;stroke-width:0.20000000000000004;" x1="117.6" x2="468.8" y1="256.8" y2="256.8"/><text fill="#000000" font-family="sans-serif" font-size="5.6" lengthAdjust="spacing" textLength="33.2" x="119.6" y="264.443">-String brand</text><text fill="#000000" font-family="sans-serif" font-size="5.6" lengthAdjust="spacing" textLength="33.6" x="119.6" y="271.8914">-String model</text><text fill="#000000" font-family="sans-serif" font-size="5.6" lengthAdjust="spacing" textLength="19.6" x="119.6" y="279.3398">-int tare</text><text fill="#000000" font-family="sans-serif" font-size="5.6" lengthAdjust="spacing" textLength="41.2" x="119.6" y="286.7883">-int grossWeight</text><text fill="#000000" font-family="sans-serif" font-size="5.6" lengthAdjust="spacing" textLength="35.6" x="119.6" y="294.2367">-int currentKm</text><text fill="#000000" font-family="sans-serif" font-size="5.6" lengthAdjust="spacing" textLength="49.6" x="119.6" y="301.6852">-String registerDate</text><text fill="#000000" font-family="sans-serif" font-size="5.6" lengthAdjust="spacing" textLength="57.2" x="119.6" y="309.1336">-String acquisitionDate</text><text fill="#000000" font-family="sans-serif" font-size="5.6" lengthAdjust="spacing" textLength="92" x="119.6" y="316.582">-int maintenanceCheckUpFrequency</text><text fill="#000000" font-family="sans-serif" font-size="5.6" lengthAdjust="spacing" textLength="42.4" x="119.6" y="324.0305">-String idNumber</text><line style="stroke:#181818;stroke-width:0.20000000000000004;" x1="117.6" x2="468.8" y1="327.0359" y2="327.0359"/><text fill="#000000" font-family="sans-serif" font-size="5.6" lengthAdjust="spacing" textLength="347.2" x="119.6" y="334.6789">+Vehicle(brand, model, tare, grossWeight, currentKm, registerDate, acquisitionDate, maintenanceCheckUpFrequency, plateNumber, type)</text></g><!--class VehicleType--><g id="elem_VehicleType"><rect codeLine="40" fill="#F1F1F1" height="48.9938" id="VehicleType" rx="1" ry="1" style="stroke:#181818;stroke-width:0.20000000000000004;" width="214.8" x="185.8" y="362"/><ellipse cx="275.9" cy="368.4" fill="#ADD1B2" rx="4.4" ry="4.4" style="stroke:#181818;stroke-width:0.4000000000000001;"/><path d="M277.0063,366.75 Q277.0688,366.6625 277.1438,366.6188 Q277.2188,366.575 277.3063,366.575 Q277.4563,366.575 277.55,366.6813 Q277.6438,366.7813 277.6438,367.025 L277.6438,367.6063 Q277.6438,367.85 277.55,367.9563 Q277.4563,368.0625 277.3063,368.0625 Q277.1688,368.0625 277.0875,367.9813 Q277.0063,367.9063 276.9625,367.7 Q276.9438,367.5563 276.8688,367.4813 Q276.7375,367.3313 276.4938,367.2438 Q276.25,367.1563 276,367.1563 Q275.6938,367.1563 275.4375,367.2875 Q275.1875,367.4188 274.9875,367.7188 Q274.7938,368.0188 274.7938,368.4313 L274.7938,368.8688 Q274.7938,369.3625 275.15,369.6938 Q275.5063,370.0188 276.1438,370.0188 Q276.5188,370.0188 276.7813,369.9188 Q276.9375,369.8563 277.1063,369.6813 Q277.2125,369.575 277.2688,369.5438 Q277.3313,369.5125 277.4125,369.5125 Q277.5438,369.5125 277.6438,369.6188 Q277.75,369.7188 277.75,369.8563 Q277.75,369.9938 277.6125,370.1563 Q277.4125,370.3875 277.0938,370.5188 Q276.6625,370.7 276.1438,370.7 Q275.5375,370.7 275.0563,370.45 Q274.6625,370.25 274.3875,369.825 Q274.1125,369.3938 274.1125,368.8813 L274.1125,368.4188 Q274.1125,367.8875 274.3563,367.4313 Q274.6063,366.9688 275.0438,366.725 Q275.4813,366.475 275.975,366.475 Q276.2688,366.475 276.525,366.5438 Q276.7875,366.6063 277.0063,366.75 Z " fill="#000000"/><text fill="#000000" font-family="sans-serif" font-size="5.6" lengthAdjust="spacing" textLength="31.2" x="284.1" y="370.7188">VehicleType</text><line style="stroke:#181818;stroke-width:0.20000000000000004;" x1="186.2" x2="400.2" y1="374.8" y2="374.8"/><text fill="#000000" font-family="sans-serif" font-size="5.6" lengthAdjust="spacing" textLength="68.8" x="188.2" y="382.443">-String passengersOrMixed</text><text fill="#000000" font-family="sans-serif" font-size="5.6" lengthAdjust="spacing" textLength="50.8" x="188.2" y="389.8914">-String lightOrHeavy</text><text fill="#000000" font-family="sans-serif" font-size="5.6" lengthAdjust="spacing" textLength="100.8" x="188.2" y="397.3398">-String openBoxOrClosedVansOrTrucks</text><line style="stroke:#181818;stroke-width:0.20000000000000004;" x1="186.2" x2="400.2" y1="400.3453" y2="400.3453"/><text fill="#000000" font-family="sans-serif" font-size="5.6" lengthAdjust="spacing" textLength="210" x="188.2" y="407.9883">+VehicleType(passengersOrMixed, lightOrHeavy, openBoxOrClosedVansOrTrucks)</text></g><!--class FM--><g id="elem_FM"><rect codeLine="47" fill="#F1F1F1" height="26.6484" id="FM" rx="1" ry="1" style="stroke:#181818;stroke-width:0.20000000000000004;" width="20.8" x="388" y="185.4"/><ellipse cx="394" cy="191.8" fill="#ADD1B2" rx="4.4" ry="4.4" style="stroke:#181818;stroke-width:0.4000000000000001;"/><path d="M395.1063,190.15 Q395.1688,190.0625 395.2438,190.0188 Q395.3188,189.975 395.4063,189.975 Q395.5563,189.975 395.65,190.0813 Q395.7438,190.1813 395.7438,190.425 L395.7438,191.0063 Q395.7438,191.25 395.65,191.3563 Q395.5563,191.4625 395.4063,191.4625 Q395.2688,191.4625 395.1875,191.3813 Q395.1063,191.3063 395.0625,191.1 Q395.0438,190.9563 394.9688,190.8813 Q394.8375,190.7313 394.5938,190.6438 Q394.35,190.5563 394.1,190.5563 Q393.7938,190.5563 393.5375,190.6875 Q393.2875,190.8188 393.0875,191.1188 Q392.8938,191.4188 392.8938,191.8313 L392.8938,192.2688 Q392.8938,192.7625 393.25,193.0938 Q393.6063,193.4188 394.2438,193.4188 Q394.6188,193.4188 394.8813,193.3188 Q395.0375,193.2563 395.2063,193.0813 Q395.3125,192.975 395.3688,192.9438 Q395.4313,192.9125 395.5125,192.9125 Q395.6438,192.9125 395.7438,193.0188 Q395.85,193.1188 395.85,193.2563 Q395.85,193.3938 395.7125,193.5563 Q395.5125,193.7875 395.1938,193.9188 Q394.7625,194.1 394.2438,194.1 Q393.6375,194.1 393.1563,193.85 Q392.7625,193.65 392.4875,193.225 Q392.2125,192.7938 392.2125,192.2813 L392.2125,191.8188 Q392.2125,191.2875 392.4563,190.8313 Q392.7063,190.3688 393.1438,190.125 Q393.5813,189.875 394.075,189.875 Q394.3688,189.875 394.625,189.9438 Q394.8875,190.0063 395.1063,190.15 Z " fill="#000000"/><text fill="#000000" font-family="sans-serif" font-size="5.6" lengthAdjust="spacing" textLength="8" x="399.6" y="194.1188">FM</text><line style="stroke:#181818;stroke-width:0.20000000000000004;" x1="388.4" x2="408.4" y1="198.2" y2="198.2"/><text fill="#000000" font-family="sans-serif" font-size="5.6" lengthAdjust="spacing" textLength="16" x="390.4" y="205.843">-name</text><line style="stroke:#181818;stroke-width:0.20000000000000004;" x1="388.4" x2="408.4" y1="208.8484" y2="208.8484"/></g><!--class Repositories--><g id="elem_Repositories"><rect codeLine="51" fill="#F1F1F1" height="41.5453" id="Repositories" rx="1" ry="1" style="stroke:#181818;stroke-width:0.20000000000000004;" width="77.6" x="237.2" y="112"/><ellipse cx="258.5" cy="118.4" fill="#ADD1B2" rx="4.4" ry="4.4" style="stroke:#181818;stroke-width:0.4000000000000001;"/><path d="M259.6063,116.75 Q259.6688,116.6625 259.7438,116.6188 Q259.8188,116.575 259.9063,116.575 Q260.0563,116.575 260.15,116.6813 Q260.2438,116.7813 260.2438,117.025 L260.2438,117.6063 Q260.2438,117.85 260.15,117.9563 Q260.0563,118.0625 259.9063,118.0625 Q259.7688,118.0625 259.6875,117.9813 Q259.6063,117.9063 259.5625,117.7 Q259.5438,117.5563 259.4688,117.4813 Q259.3375,117.3313 259.0938,117.2438 Q258.85,117.1563 258.6,117.1563 Q258.2938,117.1563 258.0375,117.2875 Q257.7875,117.4188 257.5875,117.7188 Q257.3938,118.0188 257.3938,118.4313 L257.3938,118.8688 Q257.3938,119.3625 257.75,119.6938 Q258.1063,120.0188 258.7438,120.0188 Q259.1188,120.0188 259.3813,119.9188 Q259.5375,119.8563 259.7063,119.6813 Q259.8125,119.575 259.8688,119.5438 Q259.9313,119.5125 260.0125,119.5125 Q260.1438,119.5125 260.2438,119.6188 Q260.35,119.7188 260.35,119.8563 Q260.35,119.9938 260.2125,120.1563 Q260.0125,120.3875 259.6938,120.5188 Q259.2625,120.7 258.7438,120.7 Q258.1375,120.7 257.6563,120.45 Q257.2625,120.25 256.9875,119.825 Q256.7125,119.3938 256.7125,118.8813 L256.7125,118.4188 Q256.7125,117.8875 256.9563,117.4313 Q257.2063,116.9688 257.6438,116.725 Q258.0813,116.475 258.575,116.475 Q258.8688,116.475 259.125,116.5438 Q259.3875,116.6063 259.6063,116.75 Z " fill="#000000"/><text fill="#000000" font-family="sans-serif" font-size="5.6" lengthAdjust="spacing" textLength="31.6" x="266.7" y="120.7188">Repositories</text><line style="stroke:#181818;stroke-width:0.20000000000000004;" x1="237.6" x2="314.4" y1="124.8" y2="124.8"/><line style="stroke:#181818;stroke-width:0.20000000000000004;" x1="237.6" x2="314.4" y1="128" y2="128"/><text fill="#000000" font-family="sans-serif" font-size="5.6" lengthAdjust="spacing" textLength="37.6" x="239.6" y="135.643">-Repositories()</text><text fill="#000000" font-family="sans-serif" font-size="5.6" lengthAdjust="spacing" textLength="72.8" x="239.6" y="143.0914">+getInstance() : Repositories</text><text fill="#000000" font-family="sans-serif" font-size="5.6" lengthAdjust="spacing" textLength="60.8" x="239.6" y="150.5398">+getVehicleRepository()</text></g><!--link RegisterVehicleUI to RegisterVehicleControlller--><g id="link_RegisterVehicleUI_RegisterVehicleControlller"><path codeLine="57" d="M210,22.008 C210,28.8 210,35.832 210,43.936 " fill="none" id="RegisterVehicleUI-to-RegisterVehicleControlller" style="stroke:#181818;stroke-width:0.4000000000000001;stroke-dasharray:7.0,7.0;"/><polygon fill="#181818" points="210,46.336,211.6,42.736,210,44.336,208.4,42.736,210,46.336" style="stroke:#181818;stroke-width:0.4000000000000001;"/></g><!--link RegisterVehicleControlller to Repositories--><g id="link_RegisterVehicleControlller_Repositories"><path codeLine="58" d="M225.976,80.408 C235.096,89.884 244.9363,100.1103 254.6123,110.1703 " fill="none" id="RegisterVehicleControlller-to-Repositories" style="stroke:#181818;stroke-width:0.4000000000000001;stroke-dasharray:7.0,7.0;"/><polygon fill="#181818" points="256.276,111.9,254.9336,108.1962,254.8896,110.4585,252.6273,110.4145,256.276,111.9" style="stroke:#181818;stroke-width:0.4000000000000001;"/><text fill="#000000" font-family="sans-serif" font-size="5.2" lengthAdjust="spacing" textLength="26.8" x="243.2" y="98.4113">repositories</text></g><!--link RegisterVehicleControlller to VehicleRepository--><g id="link_RegisterVehicleControlller_VehicleRepository"><path codeLine="59" d="M202.228,80.524 C195.76,94.444 187.6,112 187.6,112 C187.6,112 187.6,153.6 187.6,153.6 C187.6,153.6 187.7809,163.7524 187.9929,175.5684 " fill="none" id="RegisterVehicleControlller-to-VehicleRepository" style="stroke:#181818;stroke-width:0.4000000000000001;stroke-dasharray:7.0,7.0;"/><polygon fill="#181818" points="188.036,177.968,189.5712,174.3399,188.0001,175.9683,186.3717,174.3973,188.036,177.968" style="stroke:#181818;stroke-width:0.4000000000000001;"/><text fill="#000000" font-family="sans-serif" font-size="5.2" lengthAdjust="spacing" textLength="42" x="188" y="135.0113">VehicleRepository</text></g><!--link Repositories to Repositories--><g id="link_Repositories_Repositories"><path codeLine="60" d="M314.912,126.868 C322.992,127.492 328.8,129.468 328.8,132.8 C328.8,136.132 325.3849,137.9232 317.3049,138.5472 " fill="none" id="Repositories-to-Repositories" style="stroke:#181818;stroke-width:0.4000000000000001;"/><polygon fill="#181818" points="314.912,138.732,318.6245,140.0501,316.9061,138.578,318.3781,136.8596,314.912,138.732" style="stroke:#181818;stroke-width:0.4000000000000001;"/><text fill="#000000" font-family="sans-serif" font-size="5.2" lengthAdjust="spacing" textLength="19.6" x="331.2" y="135.0113">instance</text></g><!--link Repositories to VehicleRepository--><g id="link_Repositories_VehicleRepository"><path codeLine="61" d="M248.524,153.652 C238.136,161.38 228.2455,168.7434 217.8535,176.4754 " fill="none" id="Repositories-to-VehicleRepository" style="stroke:#181818;stroke-width:0.4000000000000001;"/><polygon fill="#181818" points="215.928,177.908,219.7713,177.0427,217.5326,176.7141,217.8612,174.4754,215.928,177.908" style="stroke:#181818;stroke-width:0.4000000000000001;"/><text fill="#000000" font-family="sans-serif" font-size="5.2" lengthAdjust="spacing" textLength="2.8" x="216.639" y="173.4666">1</text></g><!--link VehicleRepository to Vehicle--><g id="link_VehicleRepository_Vehicle"><path codeLine="62" d="M211.92,219.668 C220.248,226.916 228.1817,233.8163 237.9697,242.3363 " fill="none" id="VehicleRepository-to-Vehicle" style="stroke:#181818;stroke-width:0.4000000000000001;"/><polygon fill="#181818" points="239.78,243.912,238.1151,240.3415,238.2715,242.5989,236.0141,242.7552,239.78,243.912" style="stroke:#181818;stroke-width:0.4000000000000001;"/><text fill="#000000" font-family="sans-serif" font-size="5.2" lengthAdjust="spacing" textLength="2" x="234.2937" y="239.5028">*</text></g><!--link Vehicle to VehicleType--><g id="link_Vehicle_VehicleType"><path codeLine="63" d="M293.2,337.628 C293.2,346.024 293.2,352.064 293.2,359.488 " fill="none" id="Vehicle-to-VehicleType" style="stroke:#181818;stroke-width:0.4000000000000001;"/><polygon fill="#181818" points="293.2,361.888,294.8,358.288,293.2,359.888,291.6,358.288,293.2,361.888" style="stroke:#181818;stroke-width:0.4000000000000001;"/><text fill="#000000" font-family="sans-serif" font-size="5.2" lengthAdjust="spacing" textLength="2.8" x="290.2381" y="357.4675">1</text></g><!--link FM to Vehicle--><g id="link_FM_Vehicle"><path codeLine="64" d="M387.996,211.536 C384.376,215.832 381.2,219.6 381.2,219.6 C381.2,219.6 369.374,229.1157 352.786,242.4597 " fill="none" id="FM-to-Vehicle" style="stroke:#181818;stroke-width:0.4000000000000001;"/><polygon fill="#181818" points="350.916,243.964,354.7239,242.9542,352.4744,242.7104,352.7182,240.4608,350.916,243.964" style="stroke:#181818;stroke-width:0.4000000000000001;"/></g><!--SRC=[pLJ1Rjim3BthAuXUucnEiLrp6B1bA1OCNO2cxSwApDf2PCcbvApPi7-VPCUn5QVPjRuO9X_9zvv5JUnMweeJBw4qseY2J8dWg4RMPoekjZp7jTih14BXkCxL460BdfbVKkVmn9KTPfJKwFOLGcNKFdomoPca8MVOe4eeRkrdvqXkQeTBOVHQ_aRumDX4uPC3Pu1aNZZ8PA0ZZMQigO4xpALrI8zOIA7mOGb_6FlxIdPXj2EZb4BoCF3F-rSGICcq1L0CI3R4TPPwyp9KAJXEc49EnjgV61Yc86eYrEvxcK9N-vKxZ-BYkPPM1lPjeEHIEzHS2rmKABOFrGtXSurQx5EebCVygCiDaX_ZJPlsiWvSxh0olf-X_K7DZ6TPntFNlbiLinrNClCDpsRViiPEsTgV3N_S6cPHf27PHloaXcp_DI3T1u_aepv37L7YH5BVvuAqg87CMecjrs_0uv79zs4dOwChdqQT8zaLtSeNZ4rNWUAAlY7VnLfDXVgBULdHGXcBsIFNllwUQh6raVmmCHdDIAF6wQLkWvDoSzjn1yrB76x_OJyasYDa6Ens779qIsrTS32PmZm2zP3HsYKDY_4LT7tzwSBLmoxSIcrbFtpk__s0odygHmJdun2BN9dDJkV9WmzZtDN7gpFjndTHWtrtn7Q8qnxX233_xqAuW_u3]--></g></svg>