<?xml version="1.0" encoding="us-ascii" standalone="no"?><svg xmlns="http://www.w3.org/2000/svg" xmlns:xlink="http://www.w3.org/1999/xlink" contentStyleType="text/css" height="634.5px" preserveAspectRatio="none" style="width:1077px;height:634px;background:#FFFFFF;" version="1.1" viewBox="0 0 1077 634" width="1077.3px" zoomAndPan="magnify"><defs/><g><rect fill="#FFFFFF" height="426.3258" style="stroke:#181818;stroke-width:0.9;" width="9" x="27.9" y="101.018"/><rect fill="#FFFFFF" height="292.7162" style="stroke:#181818;stroke-width:0.9;" width="9" x="287.1" y="121.9799"/><rect fill="#FFFFFF" height="28.1619" style="stroke:#181818;stroke-width:0.9;" width="9" x="287.1" y="442.858"/><rect fill="#FFFFFF" height="28.1619" style="stroke:#181818;stroke-width:0.9;" width="9" x="287.1" y="499.1818"/><rect fill="#FFFFFF" height="197.1334" style="stroke:#181818;stroke-width:0.9;" width="9" x="437.4" y="189.4008"/><rect fill="#FFFFFF" height="28.1619" style="stroke:#181818;stroke-width:0.9;" width="9" x="571.95" y="217.5627"/><rect fill="#FFFFFF" height="28.1619" style="stroke:#181818;stroke-width:0.9;" width="9" x="668.25" y="273.8865"/><rect fill="#FFFFFF" height="28.1619" style="stroke:#181818;stroke-width:0.9;" width="9" x="990.45" y="330.2104"/><line style="stroke:#181818;stroke-width:0.45;stroke-dasharray:5.0,5.0;" x1="32.4" x2="32.4" y1="92.018" y2="543.5438"/><line style="stroke:#181818;stroke-width:0.45;stroke-dasharray:5.0,5.0;" x1="291.15" x2="291.15" y1="92.018" y2="543.5438"/><line style="stroke:#181818;stroke-width:0.45;stroke-dasharray:5.0,5.0;" x1="441.9" x2="441.9" y1="157.8094" y2="543.5438"/><line style="stroke:#181818;stroke-width:0.45;stroke-dasharray:5.0,5.0;" x1="576" x2="576" y1="92.018" y2="543.5438"/><line style="stroke:#181818;stroke-width:0.45;stroke-dasharray:5.0,5.0;" x1="672.3" x2="672.3" y1="92.018" y2="543.5438"/><line style="stroke:#181818;stroke-width:0.45;stroke-dasharray:5.0,5.0;" x1="783.9" x2="783.9" y1="92.018" y2="543.5438"/><line style="stroke:#181818;stroke-width:0.45;stroke-dasharray:5.0,5.0;" x1="880.2" x2="880.2" y1="92.018" y2="543.5438"/><line style="stroke:#181818;stroke-width:0.45;stroke-dasharray:5.0,5.0;" x1="994.5" x2="994.5" y1="92.018" y2="543.5438"/><text fill="#000000" font-family="sans-serif" font-size="12.6" lengthAdjust="spacing" textLength="28.8" x="15.3" y="72.0967">Fleet</text><text fill="#000000" font-family="sans-serif" font-size="12.6" lengthAdjust="spacing" textLength="50.4" x="4.5" y="88.8557">Manager</text><ellipse cx="32.4" cy="12.15" fill="#E3E3E3" rx="7.2" ry="7.2" style="stroke:#181818;stroke-width:0.45;"/><path d="M32.4,19.35 L32.4,43.65 M20.7,26.55 L44.1,26.55 M32.4,43.65 L20.7,57.15 M32.4,43.65 L44.1,57.15 " fill="none" style="stroke:#181818;stroke-width:0.45;"/><text fill="#000000" font-family="sans-serif" font-size="12.6" lengthAdjust="spacing" textLength="28.8" x="15.3" y="556.2404">Fleet</text><text fill="#000000" font-family="sans-serif" font-size="12.6" lengthAdjust="spacing" textLength="50.4" x="4.5" y="572.9994">Manager</text><ellipse cx="32.4" cy="583.8117" fill="#E3E3E3" rx="7.2" ry="7.2" style="stroke:#181818;stroke-width:0.45;"/><path d="M32.4,591.0117 L32.4,615.3117 M20.7,598.2117 L44.1,598.2117 M32.4,615.3117 L20.7,628.8117 M32.4,615.3117 L44.1,628.8117 " fill="none" style="stroke:#181818;stroke-width:0.45;"/><rect fill="#E3E3E3" height="29.359" rx="2.25" ry="2.25" style="stroke:#181818;stroke-width:0.45;" width="116.1" x="233.55" y="61.759"/><text fill="#000000" font-family="sans-serif" font-size="12.6" lengthAdjust="spacing" textLength="103.5" x="239.85" y="81.6557">:RegisterVehicleUI</text><rect fill="#E3E3E3" height="29.359" rx="2.25" ry="2.25" style="stroke:#181818;stroke-width:0.45;" width="116.1" x="233.55" y="542.6438"/><text fill="#000000" font-family="sans-serif" font-size="12.6" lengthAdjust="spacing" textLength="103.5" x="239.85" y="562.5404">:RegisterVehicleUI</text><rect fill="#E3E3E3" height="29.359" rx="2.25" ry="2.25" style="stroke:#181818;stroke-width:0.45;" width="163.8" x="360" y="542.6438"/><text fill="#000000" font-family="sans-serif" font-size="12.6" lengthAdjust="spacing" textLength="151.2" x="366.3" y="562.5404">:RegisterVehicleControlller</text><rect fill="#E3E3E3" height="29.359" rx="2.25" ry="2.25" style="stroke:#181818;stroke-width:0.45;" width="87.3" x="532.8" y="61.759"/><text fill="#000000" font-family="sans-serif" font-size="12.6" lengthAdjust="spacing" textLength="74.7" x="539.1" y="81.6557">:Repositories</text><rect fill="#E3E3E3" height="29.359" rx="2.25" ry="2.25" style="stroke:#181818;stroke-width:0.45;" width="87.3" x="532.8" y="542.6438"/><text fill="#000000" font-family="sans-serif" font-size="12.6" lengthAdjust="spacing" textLength="74.7" x="539.1" y="562.5404">:Repositories</text><rect fill="#E3E3E3" height="46.118" rx="2.25" ry="2.25" style="stroke:#181818;stroke-width:0.45;" width="87.3" x="629.1" y="45"/><text fill="#000000" font-family="sans-serif" font-size="12.6" lengthAdjust="spacing" textLength="66.6" x="639.45" y="64.8967">repositories</text><text fill="#000000" font-family="sans-serif" font-size="12.6" lengthAdjust="spacing" textLength="74.7" x="635.4" y="81.6557">:Repositories</text><rect fill="#E3E3E3" height="46.118" rx="2.25" ry="2.25" style="stroke:#181818;stroke-width:0.45;" width="87.3" x="629.1" y="542.6438"/><text fill="#000000" font-family="sans-serif" font-size="12.6" lengthAdjust="spacing" textLength="66.6" x="639.45" y="562.5404">repositories</text><text fill="#000000" font-family="sans-serif" font-size="12.6" lengthAdjust="spacing" textLength="74.7" x="635.4" y="579.2994">:Repositories</text><rect fill="#E3E3E3" height="46.118" rx="2.25" ry="2.25" style="stroke:#181818;stroke-width:0.45;" width="117" x="725.4" y="45"/><text fill="#000000" font-family="sans-serif" font-size="12.6" lengthAdjust="spacing" textLength="104.4" x="731.7" y="64.8967">vehicleRepository:</text><text fill="#000000" font-family="sans-serif" font-size="12.6" lengthAdjust="spacing" textLength="100.8" x="733.5" y="81.6557">vehicleRepository</text><rect fill="#E3E3E3" height="46.118" rx="2.25" ry="2.25" style="stroke:#181818;stroke-width:0.45;" width="117" x="725.4" y="542.6438"/><text fill="#000000" font-family="sans-serif" font-size="12.6" lengthAdjust="spacing" textLength="104.4" x="731.7" y="562.5404">vehicleRepository:</text><text fill="#000000" font-family="sans-serif" font-size="12.6" lengthAdjust="spacing" textLength="100.8" x="733.5" y="579.2994">vehicleRepository</text><rect fill="#E3E3E3" height="46.118" rx="2.25" ry="2.25" style="stroke:#181818;stroke-width:0.45;" width="57.6" x="851.4" y="45"/><text fill="#000000" font-family="sans-serif" font-size="12.6" lengthAdjust="spacing" textLength="39.6" x="860.4" y="64.8967">vehicle</text><text fill="#000000" font-family="sans-serif" font-size="12.6" lengthAdjust="spacing" textLength="45" x="857.7" y="81.6557">:Vehicle</text><rect fill="#E3E3E3" height="46.118" rx="2.25" ry="2.25" style="stroke:#181818;stroke-width:0.45;" width="57.6" x="851.4" y="542.6438"/><text fill="#000000" font-family="sans-serif" font-size="12.6" lengthAdjust="spacing" textLength="39.6" x="860.4" y="562.5404">vehicle</text><text fill="#000000" font-family="sans-serif" font-size="12.6" lengthAdjust="spacing" textLength="45" x="857.7" y="579.2994">:Vehicle</text><rect fill="#E3E3E3" height="29.359" rx="2.25" ry="2.25" style="stroke:#181818;stroke-width:0.45;" width="153.9" x="918" y="61.759"/><text fill="#000000" font-family="sans-serif" font-size="12.6" lengthAdjust="spacing" textLength="141.3" x="924.3" y="81.6557">TaskCategoryRepository</text><rect fill="#E3E3E3" height="29.359" rx="2.25" ry="2.25" style="stroke:#181818;stroke-width:0.45;" width="153.9" x="918" y="542.6438"/><text fill="#000000" font-family="sans-serif" font-size="12.6" lengthAdjust="spacing" textLength="141.3" x="924.3" y="562.5404">TaskCategoryRepository</text><rect fill="#FFFFFF" height="426.3258" style="stroke:#181818;stroke-width:0.9;" width="9" x="27.9" y="101.018"/><rect fill="#FFFFFF" height="292.7162" style="stroke:#181818;stroke-width:0.9;" width="9" x="287.1" y="121.9799"/><rect fill="#FFFFFF" height="28.1619" style="stroke:#181818;stroke-width:0.9;" width="9" x="287.1" y="442.858"/><rect fill="#FFFFFF" height="28.1619" style="stroke:#181818;stroke-width:0.9;" width="9" x="287.1" y="499.1818"/><rect fill="#FFFFFF" height="197.1334" style="stroke:#181818;stroke-width:0.9;" width="9" x="437.4" y="189.4008"/><rect fill="#FFFFFF" height="28.1619" style="stroke:#181818;stroke-width:0.9;" width="9" x="571.95" y="217.5627"/><rect fill="#FFFFFF" height="28.1619" style="stroke:#181818;stroke-width:0.9;" width="9" x="668.25" y="273.8865"/><rect fill="#FFFFFF" height="28.1619" style="stroke:#181818;stroke-width:0.9;" width="9" x="990.45" y="330.2104"/><polygon fill="#181818" points="276.3,118.3799,285.3,121.9799,276.3,125.5799,279.9,121.9799" style="stroke:#181818;stroke-width:0.9;"/><line style="stroke:#181818;stroke-width:0.9;" x1="36.9" x2="281.7" y1="121.9799" y2="121.9799"/><text fill="#000000" font-family="sans-serif" font-size="11.7" font-weight="bold" lengthAdjust="spacing" textLength="6.3" x="43.2" y="117.2435">1</text><text fill="#000000" font-family="sans-serif" font-size="11.7" lengthAdjust="spacing" textLength="153.9" x="53.1" y="117.2435">asks to register a new vehicle</text><polygon fill="#181818" points="349.2,146.5418,358.2,150.1418,349.2,153.7418,352.8,150.1418" style="stroke:#181818;stroke-width:0.9;"/><line style="stroke:#181818;stroke-width:0.9;" x1="296.1" x2="354.6" y1="150.1418" y2="150.1418"/><text fill="#000000" font-family="sans-serif" font-size="11.7" font-weight="bold" lengthAdjust="spacing" textLength="6.3" x="302.4" y="145.4054">2</text><text fill="#000000" font-family="sans-serif" font-size="11.7" lengthAdjust="spacing" textLength="32.4" x="312.3" y="145.4054">create</text><rect fill="#E3E3E3" height="29.359" rx="2.25" ry="2.25" style="stroke:#181818;stroke-width:0.45;" width="163.8" x="360" y="129.1799"/><text fill="#000000" font-family="sans-serif" font-size="12.6" lengthAdjust="spacing" textLength="151.2" x="366.3" y="149.0766">:RegisterVehicleControlller</text><polygon fill="#181818" points="426.6,185.8008,435.6,189.4008,426.6,193.0008,430.2,189.4008" style="stroke:#181818;stroke-width:0.9;"/><line style="stroke:#181818;stroke-width:0.9;" x1="296.1" x2="432" y1="189.4008" y2="189.4008"/><text fill="#000000" font-family="sans-serif" font-size="11.7" font-weight="bold" lengthAdjust="spacing" textLength="6.3" x="302.4" y="184.6644">3</text><text fill="#000000" font-family="sans-serif" font-size="11.7" lengthAdjust="spacing" textLength="104.4" x="312.3" y="184.6644">getTaskCategories()</text><polygon fill="#181818" points="561.15,213.9627,570.15,217.5627,561.15,221.1627,564.75,217.5627" style="stroke:#181818;stroke-width:0.9;"/><line style="stroke:#181818;stroke-width:0.9;" x1="446.4" x2="566.55" y1="217.5627" y2="217.5627"/><text fill="#000000" font-family="sans-serif" font-size="11.7" font-weight="bold" lengthAdjust="spacing" textLength="6.3" x="452.7" y="212.8263">4</text><text fill="#000000" font-family="sans-serif" font-size="11.7" lengthAdjust="spacing" textLength="67.5" x="462.6" y="212.8263">getInstance()</text><polygon fill="#181818" points="456.3,242.1246,447.3,245.7246,456.3,249.3246,452.7,245.7246" style="stroke:#181818;stroke-width:0.9;"/><line style="stroke:#181818;stroke-width:0.9;stroke-dasharray:2.0,2.0;" x1="450.9" x2="575.55" y1="245.7246" y2="245.7246"/><text fill="#000000" font-family="sans-serif" font-size="11.7" font-weight="bold" lengthAdjust="spacing" textLength="6.3" x="461.7" y="240.9882">5</text><text fill="#000000" font-family="sans-serif" font-size="11.7" lengthAdjust="spacing" textLength="60.3" x="471.6" y="240.9882">repositories</text><polygon fill="#181818" points="657.45,270.2865,666.45,273.8865,657.45,277.4865,661.05,273.8865" style="stroke:#181818;stroke-width:0.9;"/><line style="stroke:#181818;stroke-width:0.9;" x1="446.4" x2="662.85" y1="273.8865" y2="273.8865"/><text fill="#000000" font-family="sans-serif" font-size="11.7" font-weight="bold" lengthAdjust="spacing" textLength="6.3" x="452.7" y="269.1501">6</text><text fill="#000000" font-family="sans-serif" font-size="11.7" lengthAdjust="spacing" textLength="151.2" x="462.6" y="269.1501">getTaskCategoryRepository()</text><polygon fill="#181818" points="456.3,298.4484,447.3,302.0484,456.3,305.6484,452.7,302.0484" style="stroke:#181818;stroke-width:0.9;"/><line style="stroke:#181818;stroke-width:0.9;stroke-dasharray:2.0,2.0;" x1="450.9" x2="671.85" y1="302.0484" y2="302.0484"/><text fill="#000000" font-family="sans-serif" font-size="11.7" font-weight="bold" lengthAdjust="spacing" textLength="6.3" x="461.7" y="297.312">7</text><text fill="#000000" font-family="sans-serif" font-size="11.7" lengthAdjust="spacing" textLength="125.1" x="471.6" y="297.312">taskCategoryRepository</text><polygon fill="#181818" points="979.65,326.6104,988.65,330.2104,979.65,333.8104,983.25,330.2104" style="stroke:#181818;stroke-width:0.9;"/><line style="stroke:#181818;stroke-width:0.9;" x1="446.4" x2="985.05" y1="330.2104" y2="330.2104"/><text fill="#000000" font-family="sans-serif" font-size="11.7" font-weight="bold" lengthAdjust="spacing" textLength="6.3" x="452.7" y="325.4739">8</text><text fill="#000000" font-family="sans-serif" font-size="11.7" lengthAdjust="spacing" textLength="104.4" x="462.6" y="325.4739">getTaskCategories()</text><polygon fill="#181818" points="456.3,354.7723,447.3,358.3723,456.3,361.9723,452.7,358.3723" style="stroke:#181818;stroke-width:0.9;"/><line style="stroke:#181818;stroke-width:0.9;stroke-dasharray:2.0,2.0;" x1="450.9" x2="994.05" y1="358.3723" y2="358.3723"/><text fill="#000000" font-family="sans-serif" font-size="11.7" font-weight="bold" lengthAdjust="spacing" textLength="6.3" x="461.7" y="353.6358">9</text><text fill="#000000" font-family="sans-serif" font-size="11.7" lengthAdjust="spacing" textLength="88.2" x="471.6" y="353.6358">taskCategoryList</text><polygon fill="#181818" points="306,382.9342,297,386.5342,306,390.1342,302.4,386.5342" style="stroke:#181818;stroke-width:0.9;"/><line style="stroke:#181818;stroke-width:0.9;stroke-dasharray:2.0,2.0;" x1="300.6" x2="441" y1="386.5342" y2="386.5342"/><text fill="#000000" font-family="sans-serif" font-size="11.7" font-weight="bold" lengthAdjust="spacing" textLength="12.6" x="311.4" y="381.7978">10</text><text fill="#000000" font-family="sans-serif" font-size="11.7" lengthAdjust="spacing" textLength="88.2" x="327.6" y="381.7978">taskCategoryList</text><polygon fill="#181818" points="46.8,411.0961,37.8,414.6961,46.8,418.2961,43.2,414.6961" style="stroke:#181818;stroke-width:0.9;"/><line style="stroke:#181818;stroke-width:0.9;stroke-dasharray:2.0,2.0;" x1="41.4" x2="290.7" y1="414.6961" y2="414.6961"/><text fill="#000000" font-family="sans-serif" font-size="11.7" font-weight="bold" lengthAdjust="spacing" textLength="12.6" x="52.2" y="409.9597">11</text><text fill="#000000" font-family="sans-serif" font-size="11.7" lengthAdjust="spacing" textLength="71.1" x="68.4" y="409.9597">requests data</text><polygon fill="#181818" points="276.3,439.258,285.3,442.858,276.3,446.458,279.9,442.858" style="stroke:#181818;stroke-width:0.9;"/><line style="stroke:#181818;stroke-width:0.9;" x1="36.9" x2="281.7" y1="442.858" y2="442.858"/><text fill="#000000" font-family="sans-serif" font-size="11.7" font-weight="bold" lengthAdjust="spacing" textLength="12.6" x="43.2" y="438.1216">12</text><text fill="#000000" font-family="sans-serif" font-size="11.7" lengthAdjust="spacing" textLength="151.2" x="59.4" y="438.1216">types/selects requested data</text><polygon fill="#181818" points="46.8,467.4199,37.8,471.0199,46.8,474.6199,43.2,471.0199" style="stroke:#181818;stroke-width:0.9;"/><line style="stroke:#181818;stroke-width:0.9;stroke-dasharray:2.0,2.0;" x1="41.4" x2="290.7" y1="471.0199" y2="471.0199"/><text fill="#000000" font-family="sans-serif" font-size="11.7" font-weight="bold" lengthAdjust="spacing" textLength="12.6" x="52.2" y="466.2835">13</text><text fill="#000000" font-family="sans-serif" font-size="11.7" lengthAdjust="spacing" textLength="212.4" x="68.4" y="466.2835">shows all data and requests confirmation</text><polygon fill="#181818" points="276.3,495.5818,285.3,499.1818,276.3,502.7818,279.9,499.1818" style="stroke:#181818;stroke-width:0.9;"/><line style="stroke:#181818;stroke-width:0.9;" x1="36.9" x2="281.7" y1="499.1818" y2="499.1818"/><text fill="#000000" font-family="sans-serif" font-size="11.7" font-weight="bold" lengthAdjust="spacing" textLength="12.6" x="43.2" y="494.4454">14</text><text fill="#000000" font-family="sans-serif" font-size="11.7" lengthAdjust="spacing" textLength="70.2" x="59.4" y="494.4454">confirms data</text><polygon fill="#181818" points="42.3,523.7438,33.3,527.3438,42.3,530.9438,38.7,527.3438" style="stroke:#181818;stroke-width:0.9;"/><line style="stroke:#181818;stroke-width:0.9;stroke-dasharray:2.0,2.0;" x1="36.9" x2="290.7" y1="527.3438" y2="527.3438"/><text fill="#000000" font-family="sans-serif" font-size="11.7" font-weight="bold" lengthAdjust="spacing" textLength="12.6" x="47.7" y="522.6073">15</text><text fill="#000000" font-family="sans-serif" font-size="11.7" lengthAdjust="spacing" textLength="142.2" x="63.9" y="522.6073">displays operation success</text><!--SRC=[bLLDRo8n3BtdLrXSw5P5U-TGgMAB5WcaLKjxuf9cp4n4I6RZJ5d-_Ne-O6QObBOvWME_z-pO7jffcqilzx1trgdCkpr2y0KAEj_aKkraYi_XQ10ygY1jQheEbCd47RHDOIiDeH2o2CuM-pVqGempdI1idGjlxf-GAZWFexb131kxafQ1_GWamNmb62refNDf0uocJvXg2kXVCTFAuCkYSdjPN7UREHkyCyOqiBFrqt8GaJlIh4CZLJvdm_5Pbwcn-7w8xqHix13Wp_9XtOzuhzMqoDED7TYgs84r2iIiJO9LqElZxyLi-IZAUkft6R0idu3cp5SmkUTAmPHzTmJ1yRFLLG895WydqZRaZCFr5MFe78QPCDh3hnN3UVnR80M2H0O9DnwtwD4gl8C4INcT1-ti7O2sM-Vtqi36zcy2gingnJSzSr9uMVzIZi8FqHKmLXvBPTLBNYgxhyotjwojTXCVkB13Yc7DzPYnLrgztKsVw5o3YgbtLPuAXT4YtLA3BopnQ2YyWEr1nrfju5sU6CkaoQLyXxO31-49Ve_kb5ZPnOCo7Lk8QtbL4n1Df49jbOSezBKSuj0dqN6fNtZjdlmuIZoX3nWdRQDrSrpos5tBxglCTRwdiRxAq44VTd8pplF1D8j8UBaCBXPAEEP8FmaDVmVeX8192p48lcIbp1q8f37r4f4sQOKePxUQ5qUv2yJdOXft-WPxeYatyaZWSgnt3b2X51B5-3f_US7-1m00]--></g></svg>