<?xml version="1.0" encoding="us-ascii" standalone="no"?><svg xmlns="http://www.w3.org/2000/svg" xmlns:xlink="http://www.w3.org/1999/xlink" contentStyleType="text/css" height="788.9px" preserveAspectRatio="none" style="width:697px;height:788px;background:#FFFFFF;" version="1.1" viewBox="0 0 697 788" width="697.2px" zoomAndPan="magnify"><defs/><g><!--class RegisterVehicleUI--><g id="elem_RegisterVehicleUI"><rect codeLine="11" fill="#F1F1F1" height="33.6" id="RegisterVehicleUI" rx="1.75" ry="1.75" style="stroke:#181818;stroke-width:0.3499999999999999;" width="100.1" x="317.45" y="17.85"/><ellipse cx="327.95" cy="29.05" fill="#ADD1B2" rx="7.7" ry="7.7" style="stroke:#181818;stroke-width:0.6999999999999998;"/><path d="M329.8859,26.1625 Q329.9953,26.0094 330.1266,25.9328 Q330.2578,25.8562 330.4109,25.8562 Q330.6734,25.8562 330.8375,26.0422 Q331.0016,26.2172 331.0016,26.6437 L331.0016,27.6609 Q331.0016,28.0875 330.8375,28.2734 Q330.6734,28.4594 330.4109,28.4594 Q330.1703,28.4594 330.0281,28.3172 Q329.8859,28.1859 329.8094,27.825 Q329.7766,27.5734 329.6453,27.4422 Q329.4156,27.1797 328.9891,27.0266 Q328.5625,26.8734 328.125,26.8734 Q327.5891,26.8734 327.1406,27.1031 Q326.7031,27.3328 326.3531,27.8578 Q326.0141,28.3828 326.0141,29.1047 L326.0141,29.8703 Q326.0141,30.7344 326.6375,31.3141 Q327.2609,31.8828 328.3766,31.8828 Q329.0328,31.8828 329.4922,31.7078 Q329.7656,31.5984 330.0609,31.2922 Q330.2469,31.1062 330.3453,31.0516 Q330.4547,30.9969 330.5969,30.9969 Q330.8266,30.9969 331.0016,31.1828 Q331.1875,31.3578 331.1875,31.5984 Q331.1875,31.8391 330.9469,32.1234 Q330.5969,32.5281 330.0391,32.7578 Q329.2844,33.075 328.3766,33.075 Q327.3156,33.075 326.4734,32.6375 Q325.7844,32.2875 325.3031,31.5437 Q324.8219,30.7891 324.8219,29.8922 L324.8219,29.0828 Q324.8219,28.1531 325.2484,27.3547 Q325.6859,26.5453 326.4516,26.1187 Q327.2172,25.6812 328.0812,25.6812 Q328.5953,25.6812 329.0437,25.8016 Q329.5031,25.9109 329.8859,26.1625 Z " fill="#000000"/><text fill="#000000" font-family="sans-serif" font-size="9.8" lengthAdjust="spacing" textLength="77.7" x="337.75" y="33.1078">RegisterVehicleUI</text><line style="stroke:#181818;stroke-width:0.3499999999999999;" x1="318.15" x2="416.85" y1="40.25" y2="40.25"/><line style="stroke:#181818;stroke-width:0.3499999999999999;" x1="318.15" x2="416.85" y1="45.85" y2="45.85"/></g><!--class RegisterVehicleControlller--><g id="elem_RegisterVehicleControlller"><rect codeLine="15" fill="#F1F1F1" height="59.6695" id="RegisterVehicleControlller" rx="1.75" ry="1.75" style="stroke:#181818;stroke-width:0.3499999999999999;" width="649.6" x="42.7" y="107.1"/><ellipse cx="307.125" cy="118.3" fill="#ADD1B2" rx="7.7" ry="7.7" style="stroke:#181818;stroke-width:0.6999999999999998;"/><path d="M309.0609,115.4125 Q309.1703,115.2594 309.3016,115.1828 Q309.4328,115.1062 309.5859,115.1062 Q309.8484,115.1062 310.0125,115.2922 Q310.1766,115.4672 310.1766,115.8937 L310.1766,116.9109 Q310.1766,117.3375 310.0125,117.5234 Q309.8484,117.7094 309.5859,117.7094 Q309.3453,117.7094 309.2031,117.5672 Q309.0609,117.4359 308.9844,117.075 Q308.9516,116.8234 308.8203,116.6922 Q308.5906,116.4297 308.1641,116.2766 Q307.7375,116.1234 307.3,116.1234 Q306.7641,116.1234 306.3156,116.3531 Q305.8781,116.5828 305.5281,117.1078 Q305.1891,117.6328 305.1891,118.3547 L305.1891,119.1203 Q305.1891,119.9844 305.8125,120.5641 Q306.4359,121.1328 307.5516,121.1328 Q308.2078,121.1328 308.6672,120.9578 Q308.9406,120.8484 309.2359,120.5422 Q309.4219,120.3562 309.5203,120.3016 Q309.6297,120.2469 309.7719,120.2469 Q310.0016,120.2469 310.1766,120.4328 Q310.3625,120.6078 310.3625,120.8484 Q310.3625,121.0891 310.1219,121.3734 Q309.7719,121.7781 309.2141,122.0078 Q308.4594,122.325 307.5516,122.325 Q306.4906,122.325 305.6484,121.8875 Q304.9594,121.5375 304.4781,120.7937 Q303.9969,120.0391 303.9969,119.1422 L303.9969,118.3328 Q303.9969,117.4031 304.4234,116.6047 Q304.8609,115.7953 305.6266,115.3687 Q306.3922,114.9312 307.2562,114.9312 Q307.7703,114.9312 308.2187,115.0516 Q308.6781,115.1609 309.0609,115.4125 Z " fill="#000000"/><text fill="#000000" font-family="sans-serif" font-size="9.8" lengthAdjust="spacing" textLength="114.8" x="321.475" y="122.3578">RegisterVehicleControlller</text><line style="stroke:#181818;stroke-width:0.3499999999999999;" x1="43.4" x2="691.6" y1="129.5" y2="129.5"/><line style="stroke:#181818;stroke-width:0.3499999999999999;" x1="43.4" x2="691.6" y1="135.1" y2="135.1"/><text fill="#000000" font-family="sans-serif" font-size="9.8" lengthAdjust="spacing" textLength="203.7" x="46.9" y="148.4752">+RegisterVehicleController(vehicleRepository)</text><text fill="#000000" font-family="sans-serif" font-size="9.8" lengthAdjust="spacing" textLength="641.2" x="46.9" y="161.51">+registerVehicle(brand, model, tare, grossWeight, currentKm, registerDate, acquisitionDate, maintenanceCheckUpFrequency, plateNumber, type)</text></g><!--class VehicleRepository--><g id="elem_VehicleRepository"><rect codeLine="20" fill="#F1F1F1" height="72.7043" id="VehicleRepository" rx="1.75" ry="1.75" style="stroke:#181818;stroke-width:0.3499999999999999;" width="649.6" x="4.9" y="337.4"/><ellipse cx="286.825" cy="348.6" fill="#ADD1B2" rx="7.7" ry="7.7" style="stroke:#181818;stroke-width:0.6999999999999998;"/><path d="M288.7609,345.7125 Q288.8703,345.5594 289.0016,345.4828 Q289.1328,345.4062 289.2859,345.4062 Q289.5484,345.4062 289.7125,345.5922 Q289.8766,345.7672 289.8766,346.1937 L289.8766,347.2109 Q289.8766,347.6375 289.7125,347.8234 Q289.5484,348.0094 289.2859,348.0094 Q289.0453,348.0094 288.9031,347.8672 Q288.7609,347.7359 288.6844,347.375 Q288.6516,347.1234 288.5203,346.9922 Q288.2906,346.7297 287.8641,346.5766 Q287.4375,346.4234 287,346.4234 Q286.4641,346.4234 286.0156,346.6531 Q285.5781,346.8828 285.2281,347.4078 Q284.8891,347.9328 284.8891,348.6547 L284.8891,349.4203 Q284.8891,350.2844 285.5125,350.8641 Q286.1359,351.4328 287.2516,351.4328 Q287.9078,351.4328 288.3672,351.2578 Q288.6406,351.1484 288.9359,350.8422 Q289.1219,350.6562 289.2203,350.6016 Q289.3297,350.5469 289.4719,350.5469 Q289.7016,350.5469 289.8766,350.7328 Q290.0625,350.9078 290.0625,351.1484 Q290.0625,351.3891 289.8219,351.6734 Q289.4719,352.0781 288.9141,352.3078 Q288.1594,352.625 287.2516,352.625 Q286.1906,352.625 285.3484,352.1875 Q284.6594,351.8375 284.1781,351.0937 Q283.6969,350.3391 283.6969,349.4422 L283.6969,348.6328 Q283.6969,347.7031 284.1234,346.9047 Q284.5609,346.0953 285.3266,345.6687 Q286.0922,345.2312 286.9562,345.2312 Q287.4703,345.2312 287.9187,345.3516 Q288.3781,345.4609 288.7609,345.7125 Z " fill="#000000"/><text fill="#000000" font-family="sans-serif" font-size="9.8" lengthAdjust="spacing" textLength="79.8" x="301.175" y="352.6578">VehicleRepository</text><line style="stroke:#181818;stroke-width:0.3499999999999999;" x1="5.6" x2="653.8" y1="359.8" y2="359.8"/><line style="stroke:#181818;stroke-width:0.3499999999999999;" x1="5.6" x2="653.8" y1="365.4" y2="365.4"/><text fill="#000000" font-family="sans-serif" font-size="9.8" lengthAdjust="spacing" textLength="90.3" x="9.1" y="378.7752">-addVehicle(vehicle)</text><text fill="#000000" font-family="sans-serif" font-size="9.8" lengthAdjust="spacing" textLength="107.8" x="9.1" y="391.81">-validateVehicle(vehicle)</text><text fill="#000000" font-family="sans-serif" font-size="9.8" lengthAdjust="spacing" textLength="641.2" x="9.1" y="404.8447">+registerVehicle(brand, model, tare, grossWeight, currentKm, registerDate, acquisitionDate, maintenanceCheckUpFrequency, plateNumber, type)</text></g><!--class Vehicle--><g id="elem_Vehicle"><rect codeLine="26" fill="#F1F1F1" height="163.9477" id="Vehicle" rx="1.75" ry="1.75" style="stroke:#181818;stroke-width:0.3499999999999999;" width="616" x="21.7" y="452.9"/><ellipse cx="310.625" cy="464.1" fill="#ADD1B2" rx="7.7" ry="7.7" style="stroke:#181818;stroke-width:0.6999999999999998;"/><path d="M312.5609,461.2125 Q312.6703,461.0594 312.8016,460.9828 Q312.9328,460.9062 313.0859,460.9062 Q313.3484,460.9062 313.5125,461.0922 Q313.6766,461.2672 313.6766,461.6937 L313.6766,462.7109 Q313.6766,463.1375 313.5125,463.3234 Q313.3484,463.5094 313.0859,463.5094 Q312.8453,463.5094 312.7031,463.3672 Q312.5609,463.2359 312.4844,462.875 Q312.4516,462.6234 312.3203,462.4922 Q312.0906,462.2297 311.6641,462.0766 Q311.2375,461.9234 310.8,461.9234 Q310.2641,461.9234 309.8156,462.1531 Q309.3781,462.3828 309.0281,462.9078 Q308.6891,463.4328 308.6891,464.1547 L308.6891,464.9203 Q308.6891,465.7844 309.3125,466.3641 Q309.9359,466.9328 311.0516,466.9328 Q311.7078,466.9328 312.1672,466.7578 Q312.4406,466.6484 312.7359,466.3422 Q312.9219,466.1562 313.0203,466.1016 Q313.1297,466.0469 313.2719,466.0469 Q313.5016,466.0469 313.6766,466.2328 Q313.8625,466.4078 313.8625,466.6484 Q313.8625,466.8891 313.6219,467.1734 Q313.2719,467.5781 312.7141,467.8078 Q311.9594,468.125 311.0516,468.125 Q309.9906,468.125 309.1484,467.6875 Q308.4594,467.3375 307.9781,466.5937 Q307.4969,465.8391 307.4969,464.9422 L307.4969,464.1328 Q307.4969,463.2031 307.9234,462.4047 Q308.3609,461.5953 309.1266,461.1687 Q309.8922,460.7312 310.7562,460.7312 Q311.2703,460.7312 311.7187,460.8516 Q312.1781,460.9609 312.5609,461.2125 Z " fill="#000000"/><text fill="#000000" font-family="sans-serif" font-size="9.8" lengthAdjust="spacing" textLength="32.2" x="324.975" y="468.1578">Vehicle</text><line style="stroke:#181818;stroke-width:0.3499999999999999;" x1="22.4" x2="637" y1="475.3" y2="475.3"/><text fill="#000000" font-family="sans-serif" font-size="9.8" lengthAdjust="spacing" textLength="58.1" x="25.9" y="488.6752">-String brand</text><text fill="#000000" font-family="sans-serif" font-size="9.8" lengthAdjust="spacing" textLength="58.8" x="25.9" y="501.71">-String model</text><text fill="#000000" font-family="sans-serif" font-size="9.8" lengthAdjust="spacing" textLength="34.3" x="25.9" y="514.7447">-int tare</text><text fill="#000000" font-family="sans-serif" font-size="9.8" lengthAdjust="spacing" textLength="72.1" x="25.9" y="527.7795">-int grossWeight</text><text fill="#000000" font-family="sans-serif" font-size="9.8" lengthAdjust="spacing" textLength="62.3" x="25.9" y="540.8143">-int currentKm</text><text fill="#000000" font-family="sans-serif" font-size="9.8" lengthAdjust="spacing" textLength="86.8" x="25.9" y="553.849">-String registerDate</text><text fill="#000000" font-family="sans-serif" font-size="9.8" lengthAdjust="spacing" textLength="100.1" x="25.9" y="566.8838">-String acquisitionDate</text><text fill="#000000" font-family="sans-serif" font-size="9.8" lengthAdjust="spacing" textLength="161" x="25.9" y="579.9186">-int maintenanceCheckUpFrequency</text><text fill="#000000" font-family="sans-serif" font-size="9.8" lengthAdjust="spacing" textLength="88.2" x="25.9" y="592.9533">-String plateNumber</text><line style="stroke:#181818;stroke-width:0.3499999999999999;" x1="22.4" x2="637" y1="598.2129" y2="598.2129"/><text fill="#000000" font-family="sans-serif" font-size="9.8" lengthAdjust="spacing" textLength="607.6" x="25.9" y="611.5881">+Vehicle(brand, model, tare, grossWeight, currentKm, registerDate, acquisitionDate, maintenanceCheckUpFrequency, plateNumber, type)</text></g><!--class VehicleType--><g id="elem_VehicleType"><rect codeLine="40" fill="#F1F1F1" height="124.8434" id="VehicleType" rx="1.75" ry="1.75" style="stroke:#181818;stroke-width:0.3499999999999999;" width="257.6" x="200.9" y="659.4"/><ellipse cx="299.425" cy="670.6" fill="#ADD1B2" rx="7.7" ry="7.7" style="stroke:#181818;stroke-width:0.6999999999999998;"/><path d="M301.3609,667.7125 Q301.4703,667.5594 301.6016,667.4828 Q301.7328,667.4062 301.8859,667.4062 Q302.1484,667.4062 302.3125,667.5922 Q302.4766,667.7672 302.4766,668.1937 L302.4766,669.2109 Q302.4766,669.6375 302.3125,669.8234 Q302.1484,670.0094 301.8859,670.0094 Q301.6453,670.0094 301.5031,669.8672 Q301.3609,669.7359 301.2844,669.375 Q301.2516,669.1234 301.1203,668.9922 Q300.8906,668.7297 300.4641,668.5766 Q300.0375,668.4234 299.6,668.4234 Q299.0641,668.4234 298.6156,668.6531 Q298.1781,668.8828 297.8281,669.4078 Q297.4891,669.9328 297.4891,670.6547 L297.4891,671.4203 Q297.4891,672.2844 298.1125,672.8641 Q298.7359,673.4328 299.8516,673.4328 Q300.5078,673.4328 300.9672,673.2578 Q301.2406,673.1484 301.5359,672.8422 Q301.7219,672.6562 301.8203,672.6016 Q301.9297,672.5469 302.0719,672.5469 Q302.3016,672.5469 302.4766,672.7328 Q302.6625,672.9078 302.6625,673.1484 Q302.6625,673.3891 302.4219,673.6734 Q302.0719,674.0781 301.5141,674.3078 Q300.7594,674.625 299.8516,674.625 Q298.7906,674.625 297.9484,674.1875 Q297.2594,673.8375 296.7781,673.0937 Q296.2969,672.3391 296.2969,671.4422 L296.2969,670.6328 Q296.2969,669.7031 296.7234,668.9047 Q297.1609,668.0953 297.9266,667.6687 Q298.6922,667.2312 299.5562,667.2312 Q300.0703,667.2312 300.5187,667.3516 Q300.9781,667.4609 301.3609,667.7125 Z " fill="#000000"/><text fill="#000000" font-family="sans-serif" font-size="9.8" lengthAdjust="spacing" textLength="54.6" x="313.775" y="674.6578">VehicleType</text><line style="stroke:#181818;stroke-width:0.3499999999999999;" x1="201.6" x2="457.8" y1="681.8" y2="681.8"/><text fill="#000000" font-family="sans-serif" font-size="9.8" lengthAdjust="spacing" textLength="180.6" x="205.1" y="695.1752">+TypeTransport {PASSENGERS, MIXED}</text><text fill="#000000" font-family="sans-serif" font-size="9.8" lengthAdjust="spacing" textLength="149.8" x="205.1" y="708.21">+PackageWeight {LIGHT, HEAVY}</text><text fill="#000000" font-family="sans-serif" font-size="9.8" lengthAdjust="spacing" textLength="231.7" x="205.1" y="721.2447">+Transport {OPEN_BOX, CLOSED_VANS, TRUCKS}</text><text fill="#000000" font-family="sans-serif" font-size="9.8" lengthAdjust="spacing" textLength="134.4" x="205.1" y="734.2795">-TypeTransport typeTransport</text><text fill="#000000" font-family="sans-serif" font-size="9.8" lengthAdjust="spacing" textLength="144.2" x="205.1" y="747.3143">-PackageWeight packageWeight</text><text fill="#000000" font-family="sans-serif" font-size="9.8" lengthAdjust="spacing" textLength="89.6" x="205.1" y="760.349">-Transport transport</text><line style="stroke:#181818;stroke-width:0.3499999999999999;" x1="201.6" x2="457.8" y1="765.6086" y2="765.6086"/><text fill="#000000" font-family="sans-serif" font-size="9.8" lengthAdjust="spacing" textLength="249.2" x="205.1" y="778.9838">+VehicleType(typeTransport, packageWeight, transport)</text></g><!--class FM--><g id="elem_FM"><rect codeLine="50" fill="#F1F1F1" height="59.6695" id="FM" rx="1.75" ry="1.75" style="stroke:#181818;stroke-width:0.3499999999999999;" width="59.5" x="442.05" y="4.9"/><ellipse cx="462.945" cy="16.1" fill="#ADD1B2" rx="7.7" ry="7.7" style="stroke:#181818;stroke-width:0.6999999999999998;"/><path d="M464.8809,13.2125 Q464.9903,13.0594 465.1216,12.9828 Q465.2528,12.9062 465.4059,12.9062 Q465.6684,12.9062 465.8325,13.0922 Q465.9966,13.2672 465.9966,13.6937 L465.9966,14.7109 Q465.9966,15.1375 465.8325,15.3234 Q465.6684,15.5094 465.4059,15.5094 Q465.1653,15.5094 465.0231,15.3672 Q464.8809,15.2359 464.8044,14.875 Q464.7716,14.6234 464.6403,14.4922 Q464.4106,14.2297 463.9841,14.0766 Q463.5575,13.9234 463.12,13.9234 Q462.5841,13.9234 462.1356,14.1531 Q461.6981,14.3828 461.3481,14.9078 Q461.0091,15.4328 461.0091,16.1547 L461.0091,16.9203 Q461.0091,17.7844 461.6325,18.3641 Q462.2559,18.9328 463.3716,18.9328 Q464.0278,18.9328 464.4872,18.7578 Q464.7606,18.6484 465.0559,18.3422 Q465.2419,18.1562 465.3403,18.1016 Q465.4497,18.0469 465.5919,18.0469 Q465.8216,18.0469 465.9966,18.2328 Q466.1825,18.4078 466.1825,18.6484 Q466.1825,18.8891 465.9419,19.1734 Q465.5919,19.5781 465.0341,19.8078 Q464.2794,20.125 463.3716,20.125 Q462.3106,20.125 461.4684,19.6875 Q460.7794,19.3375 460.2981,18.5937 Q459.8169,17.8391 459.8169,16.9422 L459.8169,16.1328 Q459.8169,15.2031 460.2434,14.4047 Q460.6809,13.5953 461.4466,13.1687 Q462.2122,12.7312 463.0762,12.7312 Q463.5903,12.7312 464.0387,12.8516 Q464.4981,12.9609 464.8809,13.2125 Z " fill="#000000"/><text fill="#000000" font-family="sans-serif" font-size="9.8" lengthAdjust="spacing" textLength="14" x="475.055" y="20.1578">FM</text><line style="stroke:#181818;stroke-width:0.3499999999999999;" x1="442.75" x2="500.85" y1="27.3" y2="27.3"/><text fill="#000000" font-family="sans-serif" font-size="9.8" lengthAdjust="spacing" textLength="28" x="446.25" y="40.6752">-name</text><line style="stroke:#181818;stroke-width:0.3499999999999999;" x1="442.75" x2="500.85" y1="45.9348" y2="45.9348"/><text fill="#000000" font-family="sans-serif" font-size="9.8" lengthAdjust="spacing" textLength="51.1" x="446.25" y="59.31">+FM(name)</text></g><!--class Repositories--><g id="elem_Repositories"><rect codeLine="55" fill="#F1F1F1" height="72.7043" id="Repositories" rx="1.75" ry="1.75" style="stroke:#181818;stroke-width:0.3499999999999999;" width="135.8" x="415.1" y="221.9"/><ellipse cx="452.375" cy="233.1" fill="#ADD1B2" rx="7.7" ry="7.7" style="stroke:#181818;stroke-width:0.6999999999999998;"/><path d="M454.3109,230.2125 Q454.4203,230.0594 454.5516,229.9828 Q454.6828,229.9062 454.8359,229.9062 Q455.0984,229.9062 455.2625,230.0922 Q455.4266,230.2672 455.4266,230.6937 L455.4266,231.7109 Q455.4266,232.1375 455.2625,232.3234 Q455.0984,232.5094 454.8359,232.5094 Q454.5953,232.5094 454.4531,232.3672 Q454.3109,232.2359 454.2344,231.875 Q454.2016,231.6234 454.0703,231.4922 Q453.8406,231.2297 453.4141,231.0766 Q452.9875,230.9234 452.55,230.9234 Q452.0141,230.9234 451.5656,231.1531 Q451.1281,231.3828 450.7781,231.9078 Q450.4391,232.4328 450.4391,233.1547 L450.4391,233.9203 Q450.4391,234.7844 451.0625,235.3641 Q451.6859,235.9328 452.8016,235.9328 Q453.4578,235.9328 453.9172,235.7578 Q454.1906,235.6484 454.4859,235.3422 Q454.6719,235.1562 454.7703,235.1016 Q454.8797,235.0469 455.0219,235.0469 Q455.2516,235.0469 455.4266,235.2328 Q455.6125,235.4078 455.6125,235.6484 Q455.6125,235.8891 455.3719,236.1734 Q455.0219,236.5781 454.4641,236.8078 Q453.7094,237.125 452.8016,237.125 Q451.7406,237.125 450.8984,236.6875 Q450.2094,236.3375 449.7281,235.5937 Q449.2469,234.8391 449.2469,233.9422 L449.2469,233.1328 Q449.2469,232.2031 449.6734,231.4047 Q450.1109,230.5953 450.8766,230.1687 Q451.6422,229.7312 452.5062,229.7312 Q453.0203,229.7312 453.4687,229.8516 Q453.9281,229.9609 454.3109,230.2125 Z " fill="#000000"/><text fill="#000000" font-family="sans-serif" font-size="9.8" lengthAdjust="spacing" textLength="55.3" x="466.725" y="237.1578">Repositories</text><line style="stroke:#181818;stroke-width:0.3499999999999999;" x1="415.8" x2="550.2" y1="244.3" y2="244.3"/><line style="stroke:#181818;stroke-width:0.3499999999999999;" x1="415.8" x2="550.2" y1="249.9" y2="249.9"/><text fill="#000000" font-family="sans-serif" font-size="9.8" lengthAdjust="spacing" textLength="65.8" x="419.3" y="263.2752">-Repositories()</text><text fill="#000000" font-family="sans-serif" font-size="9.8" lengthAdjust="spacing" textLength="127.4" x="419.3" y="276.31">+getInstance() : Repositories</text><text fill="#000000" font-family="sans-serif" font-size="9.8" lengthAdjust="spacing" textLength="106.4" x="419.3" y="289.3447">+getVehicleRepository()</text></g><!--link RegisterVehicleUI to RegisterVehicleControlller--><g id="link_RegisterVehicleUI_RegisterVehicleControlller"><path codeLine="61" d="M367.5,51.548 C367.5,66.458 367.5,84.742 367.5,102.781 " fill="none" id="RegisterVehicleUI-to-RegisterVehicleControlller" style="stroke:#181818;stroke-width:0.6999999999999998;stroke-dasharray:7.0,7.0;"/><polygon fill="#181818" points="367.5,106.981,370.3,100.681,367.5,103.481,364.7,100.681,367.5,106.981" style="stroke:#181818;stroke-width:0.6999999999999998;"/></g><!--link RegisterVehicleControlller to Repositories--><g id="link_RegisterVehicleControlller_Repositories"><path codeLine="62" d="M395.458,166.614 C411.418,183.197 428.6385,201.0929 445.5715,218.6979 " fill="none" id="RegisterVehicleControlller-to-Repositories" style="stroke:#181818;stroke-width:0.6999999999999998;stroke-dasharray:7.0,7.0;"/><polygon fill="#181818" points="448.483,221.725,446.1338,215.2434,446.0567,219.2025,442.0977,219.1254,448.483,221.725" style="stroke:#181818;stroke-width:0.6999999999999998;"/><text fill="#000000" font-family="sans-serif" font-size="9.1" lengthAdjust="spacing" textLength="46.9" x="425.6" y="198.1198">repositories</text></g><!--link RegisterVehicleControlller to VehicleRepository--><g id="link_RegisterVehicleControlller_VehicleRepository"><path codeLine="63" d="M353.899,166.817 C342.58,191.177 328.3,221.9 328.3,221.9 C328.3,221.9 328.3,294.7 328.3,294.7 C328.3,294.7 328.6167,312.4667 328.9877,333.1447 " fill="none" id="RegisterVehicleControlller-to-VehicleRepository" style="stroke:#181818;stroke-width:0.6999999999999998;stroke-dasharray:7.0,7.0;"/><polygon fill="#181818" points="329.063,337.344,331.7495,330.9948,329.0002,333.8446,326.1504,331.0952,329.063,337.344" style="stroke:#181818;stroke-width:0.6999999999999998;"/><text fill="#000000" font-family="sans-serif" font-size="9.1" lengthAdjust="spacing" textLength="73.5" x="329" y="262.1698">VehicleRepository</text></g><!--link Repositories to Repositories--><g id="link_Repositories_Repositories"><path codeLine="64" d="M551.096,247.919 C565.236,249.011 575.4,252.469 575.4,258.3 C575.4,264.131 569.4235,267.2656 555.2835,268.3576 " fill="none" id="Repositories-to-Repositories" style="stroke:#181818;stroke-width:0.6999999999999998;"/><polygon fill="#181818" points="551.096,268.681,557.5929,270.9876,554.5856,268.4115,557.1617,265.4042,551.096,268.681" style="stroke:#181818;stroke-width:0.6999999999999998;"/><text fill="#000000" font-family="sans-serif" font-size="9.1" lengthAdjust="spacing" textLength="34.3" x="579.6" y="262.1698">instance</text></g><!--link Repositories to VehicleRepository--><g id="link_Repositories_VehicleRepository"><path codeLine="65" d="M434.917,294.791 C416.738,308.315 399.4296,321.2009 381.2436,334.7319 " fill="none" id="Repositories-to-VehicleRepository" style="stroke:#181818;stroke-width:0.6999999999999998;"/><polygon fill="#181818" points="377.874,337.239,384.5998,335.7247,380.682,335.1497,381.257,331.2319,377.874,337.239" style="stroke:#181818;stroke-width:0.6999999999999998;"/><text fill="#000000" font-family="sans-serif" font-size="9.1" lengthAdjust="spacing" textLength="4.9" x="379.1182" y="329.4665">1</text></g><!--link VehicleRepository to Vehicle--><g id="link_VehicleRepository_Vehicle"><path codeLine="66" d="M329.7,410.319 C329.7,423.003 329.7,433.636 329.7,448.546 " fill="none" id="VehicleRepository-to-Vehicle" style="stroke:#181818;stroke-width:0.6999999999999998;"/><polygon fill="#181818" points="329.7,452.746,332.5,446.446,329.7,449.246,326.9,446.446,329.7,452.746" style="stroke:#181818;stroke-width:0.6999999999999998;"/><text fill="#000000" font-family="sans-serif" font-size="9.1" lengthAdjust="spacing" textLength="3.5" x="326.0879" y="445.0299">*</text></g><!--link Vehicle to VehicleType--><g id="link_Vehicle_VehicleType"><path codeLine="67" d="M329.7,616.861 C329.7,631.078 329.7,641.452 329.7,655.025 " fill="none" id="Vehicle-to-VehicleType" style="stroke:#181818;stroke-width:0.6999999999999998;"/><polygon fill="#181818" points="329.7,659.225,332.5,652.925,329.7,655.725,326.9,652.925,329.7,659.225" style="stroke:#181818;stroke-width:0.6999999999999998;"/><text fill="#000000" font-family="sans-serif" font-size="9.1" lengthAdjust="spacing" textLength="4.9" x="324.5971" y="651.4767">1</text></g><!--SRC=[pLJ1Sk8m3BtdApIz49RGsRros1aMqfPf2mm1jdlgc4GD7XmxTKntMAR_NYSEn26KlPOJbfwaznH9hMn3UKeaII0HN8HhAH849RVeL9wKX1iIOw1s345Yg0YFcGt8rYGIVocFuOMmpFOmob7jKeHKi5t-S5fdd48guLXH8IDPrbTAqjLMuIWKFA3_4BuxJelXYm8bGD9uhI2YEHqgkECKCJ33c6OAvHBND6Iu6C7USTu_yGu4Lr8mnb1g6EXVvnC4IlVDM6QOYemg8NTj4o7h4UvA4XvvkfiHCWyKaUX1B4MM_SQSiWVXLahawZxnu10x94gZIFYwfJgtbcCC2Q5S8ISynC4QmyqYlP7ukaKUxZn8cSQCjyaAfIwZkzYkT2vFkPRokYIA3ZnBFKP5zuqm6kc4PxrVMUD1MQ27HSzVmQncAKWQYwvKaArU5kdAU2HVosFhg3bE95LvBaYh9R1KcdP_WJOt-ZpFzxHSalp_N7FBKhsui9_sWy0Vt_gpm8F7qPC_V3UmgJaRXYpi7qQtTtCFxlp-ya-9i99Cflxu-TVaoOF1moJmXy_B_bZdcyyMW_l0mBlrkif-6K2zOcg_oWnLT2soOwbqQuczUXgl2hHcyURnC8R0IM96eAEjRlvgs_UdN4YAsJ72Dhhbma6CQiGpbNyljmsz6gY2DFRSBOerZ-3rzSyBny-vS1TDP5MyfoVDelAVo0R1NjFarBhIxPxMesKVchYh7rTdqZMFNu7zTiGU4ASvye_lV000]--></g></svg>