<?xml version="1.0" encoding="us-ascii" standalone="no"?><svg xmlns="http://www.w3.org/2000/svg" xmlns:xlink="http://www.w3.org/1999/xlink" contentStyleType="text/css" height="1034px" preserveAspectRatio="none" style="width:1180px;height:1034px;background:#FFFFFF;" version="1.1" viewBox="0 0 1180 1034" width="1180px" zoomAndPan="magnify"><defs/><g><!--class RegisterVehicleUI--><g id="elem_RegisterVehicleUI"><rect codeLine="11" fill="#F1F1F1" height="48" id="RegisterVehicleUI" rx="2.5" ry="2.5" style="stroke:#181818;stroke-width:0.5;" width="143" x="453.5" y="7"/><ellipse cx="468.5" cy="23" fill="#ADD1B2" rx="11" ry="11" style="stroke:#181818;stroke-width:1.0;"/><path d="M471.2656,18.875 Q471.4219,18.6563 471.6094,18.5469 Q471.7969,18.4375 472.0156,18.4375 Q472.3906,18.4375 472.625,18.7031 Q472.8594,18.9531 472.8594,19.5625 L472.8594,21.0156 Q472.8594,21.625 472.625,21.8906 Q472.3906,22.1563 472.0156,22.1563 Q471.6719,22.1563 471.4688,21.9531 Q471.2656,21.7656 471.1563,21.25 Q471.1094,20.8906 470.9219,20.7031 Q470.5938,20.3281 469.9844,20.1094 Q469.375,19.8906 468.75,19.8906 Q467.9844,19.8906 467.3438,20.2188 Q466.7188,20.5469 466.2188,21.2969 Q465.7344,22.0469 465.7344,23.0781 L465.7344,24.1719 Q465.7344,25.4063 466.625,26.2344 Q467.5156,27.0469 469.1094,27.0469 Q470.0469,27.0469 470.7031,26.7969 Q471.0938,26.6406 471.5156,26.2031 Q471.7813,25.9375 471.9219,25.8594 Q472.0781,25.7813 472.2813,25.7813 Q472.6094,25.7813 472.8594,26.0469 Q473.125,26.2969 473.125,26.6406 Q473.125,26.9844 472.7813,27.3906 Q472.2813,27.9688 471.4844,28.2969 Q470.4063,28.75 469.1094,28.75 Q467.5938,28.75 466.3906,28.125 Q465.4063,27.625 464.7188,26.5625 Q464.0313,25.4844 464.0313,24.2031 L464.0313,23.0469 Q464.0313,21.7188 464.6406,20.5781 Q465.2656,19.4219 466.3594,18.8125 Q467.4531,18.1875 468.6875,18.1875 Q469.4219,18.1875 470.0625,18.3594 Q470.7188,18.5156 471.2656,18.875 Z " fill="#000000"/><text fill="#000000" font-family="sans-serif" font-size="14" lengthAdjust="spacing" textLength="111" x="482.5" y="28.7969">RegisterVehicleUI</text><line style="stroke:#181818;stroke-width:0.5;" x1="454.5" x2="595.5" y1="39" y2="39"/><line style="stroke:#181818;stroke-width:0.5;" x1="454.5" x2="595.5" y1="47" y2="47"/></g><!--class RegisterVehicleControlller--><g id="elem_RegisterVehicleControlller"><rect codeLine="15" fill="#F1F1F1" height="85.2422" id="RegisterVehicleControlller" rx="2.5" ry="2.5" style="stroke:#181818;stroke-width:0.5;" width="928" x="61" y="116"/><ellipse cx="438.75" cy="132" fill="#ADD1B2" rx="11" ry="11" style="stroke:#181818;stroke-width:1.0;"/><path d="M441.5156,127.875 Q441.6719,127.6563 441.8594,127.5469 Q442.0469,127.4375 442.2656,127.4375 Q442.6406,127.4375 442.875,127.7031 Q443.1094,127.9531 443.1094,128.5625 L443.1094,130.0156 Q443.1094,130.625 442.875,130.8906 Q442.6406,131.1563 442.2656,131.1563 Q441.9219,131.1563 441.7188,130.9531 Q441.5156,130.7656 441.4063,130.25 Q441.3594,129.8906 441.1719,129.7031 Q440.8438,129.3281 440.2344,129.1094 Q439.625,128.8906 439,128.8906 Q438.2344,128.8906 437.5938,129.2188 Q436.9688,129.5469 436.4688,130.2969 Q435.9844,131.0469 435.9844,132.0781 L435.9844,133.1719 Q435.9844,134.4063 436.875,135.2344 Q437.7656,136.0469 439.3594,136.0469 Q440.2969,136.0469 440.9531,135.7969 Q441.3438,135.6406 441.7656,135.2031 Q442.0313,134.9375 442.1719,134.8594 Q442.3281,134.7813 442.5313,134.7813 Q442.8594,134.7813 443.1094,135.0469 Q443.375,135.2969 443.375,135.6406 Q443.375,135.9844 443.0313,136.3906 Q442.5313,136.9688 441.7344,137.2969 Q440.6563,137.75 439.3594,137.75 Q437.8438,137.75 436.6406,137.125 Q435.6563,136.625 434.9688,135.5625 Q434.2813,134.4844 434.2813,133.2031 L434.2813,132.0469 Q434.2813,130.7188 434.8906,129.5781 Q435.5156,128.4219 436.6094,127.8125 Q437.7031,127.1875 438.9375,127.1875 Q439.6719,127.1875 440.3125,127.3594 Q440.9688,127.5156 441.5156,127.875 Z " fill="#000000"/><text fill="#000000" font-family="sans-serif" font-size="14" lengthAdjust="spacing" textLength="164" x="459.25" y="137.7969">RegisterVehicleControlller</text><line style="stroke:#181818;stroke-width:0.5;" x1="62" x2="988" y1="148" y2="148"/><line style="stroke:#181818;stroke-width:0.5;" x1="62" x2="988" y1="156" y2="156"/><text fill="#000000" font-family="sans-serif" font-size="14" lengthAdjust="spacing" textLength="179" x="67" y="175.1074">+RegisterVehicleController()</text><text fill="#000000" font-family="sans-serif" font-size="14" lengthAdjust="spacing" textLength="916" x="67" y="193.7285">+registerVehicle(brand, model, tare, grossWeight, currentKm, registerDate, acquisitionDate, maintenanceCheckUpFrequency, plateNumber, type)</text></g><!--class VehicleRepository--><g id="elem_VehicleRepository"><rect codeLine="20" fill="#F1F1F1" height="103.8633" id="VehicleRepository" rx="2.5" ry="2.5" style="stroke:#181818;stroke-width:0.5;" width="928" x="7" y="445"/><ellipse cx="409.75" cy="461" fill="#ADD1B2" rx="11" ry="11" style="stroke:#181818;stroke-width:1.0;"/><path d="M412.5156,456.875 Q412.6719,456.6563 412.8594,456.5469 Q413.0469,456.4375 413.2656,456.4375 Q413.6406,456.4375 413.875,456.7031 Q414.1094,456.9531 414.1094,457.5625 L414.1094,459.0156 Q414.1094,459.625 413.875,459.8906 Q413.6406,460.1563 413.2656,460.1563 Q412.9219,460.1563 412.7188,459.9531 Q412.5156,459.7656 412.4063,459.25 Q412.3594,458.8906 412.1719,458.7031 Q411.8438,458.3281 411.2344,458.1094 Q410.625,457.8906 410,457.8906 Q409.2344,457.8906 408.5938,458.2188 Q407.9688,458.5469 407.4688,459.2969 Q406.9844,460.0469 406.9844,461.0781 L406.9844,462.1719 Q406.9844,463.4063 407.875,464.2344 Q408.7656,465.0469 410.3594,465.0469 Q411.2969,465.0469 411.9531,464.7969 Q412.3438,464.6406 412.7656,464.2031 Q413.0313,463.9375 413.1719,463.8594 Q413.3281,463.7813 413.5313,463.7813 Q413.8594,463.7813 414.1094,464.0469 Q414.375,464.2969 414.375,464.6406 Q414.375,464.9844 414.0313,465.3906 Q413.5313,465.9688 412.7344,466.2969 Q411.6563,466.75 410.3594,466.75 Q408.8438,466.75 407.6406,466.125 Q406.6563,465.625 405.9688,464.5625 Q405.2813,463.4844 405.2813,462.2031 L405.2813,461.0469 Q405.2813,459.7188 405.8906,458.5781 Q406.5156,457.4219 407.6094,456.8125 Q408.7031,456.1875 409.9375,456.1875 Q410.6719,456.1875 411.3125,456.3594 Q411.9688,456.5156 412.5156,456.875 Z " fill="#000000"/><text fill="#000000" font-family="sans-serif" font-size="14" lengthAdjust="spacing" textLength="114" x="430.25" y="466.7969">VehicleRepository</text><line style="stroke:#181818;stroke-width:0.5;" x1="8" x2="934" y1="477" y2="477"/><line style="stroke:#181818;stroke-width:0.5;" x1="8" x2="934" y1="485" y2="485"/><text fill="#000000" font-family="sans-serif" font-size="14" lengthAdjust="spacing" textLength="129" x="13" y="504.1074">-addVehicle(vehicle)</text><text fill="#000000" font-family="sans-serif" font-size="14" lengthAdjust="spacing" textLength="154" x="13" y="522.7285">-validateVehicle(vehicle)</text><text fill="#000000" font-family="sans-serif" font-size="14" lengthAdjust="spacing" textLength="916" x="13" y="541.3496">+registerVehicle(brand, model, tare, grossWeight, currentKm, registerDate, acquisitionDate, maintenanceCheckUpFrequency, plateNumber, type)</text></g><!--class Vehicle--><g id="elem_Vehicle"><rect codeLine="26" fill="#F1F1F1" height="234.2109" id="Vehicle" rx="2.5" ry="2.5" style="stroke:#181818;stroke-width:0.5;" width="880" x="293" y="610"/><ellipse cx="705.75" cy="626" fill="#ADD1B2" rx="11" ry="11" style="stroke:#181818;stroke-width:1.0;"/><path d="M708.5156,621.875 Q708.6719,621.6563 708.8594,621.5469 Q709.0469,621.4375 709.2656,621.4375 Q709.6406,621.4375 709.875,621.7031 Q710.1094,621.9531 710.1094,622.5625 L710.1094,624.0156 Q710.1094,624.625 709.875,624.8906 Q709.6406,625.1563 709.2656,625.1563 Q708.9219,625.1563 708.7188,624.9531 Q708.5156,624.7656 708.4063,624.25 Q708.3594,623.8906 708.1719,623.7031 Q707.8438,623.3281 707.2344,623.1094 Q706.625,622.8906 706,622.8906 Q705.2344,622.8906 704.5938,623.2188 Q703.9688,623.5469 703.4688,624.2969 Q702.9844,625.0469 702.9844,626.0781 L702.9844,627.1719 Q702.9844,628.4063 703.875,629.2344 Q704.7656,630.0469 706.3594,630.0469 Q707.2969,630.0469 707.9531,629.7969 Q708.3438,629.6406 708.7656,629.2031 Q709.0313,628.9375 709.1719,628.8594 Q709.3281,628.7813 709.5313,628.7813 Q709.8594,628.7813 710.1094,629.0469 Q710.375,629.2969 710.375,629.6406 Q710.375,629.9844 710.0313,630.3906 Q709.5313,630.9688 708.7344,631.2969 Q707.6563,631.75 706.3594,631.75 Q704.8438,631.75 703.6406,631.125 Q702.6563,630.625 701.9688,629.5625 Q701.2813,628.4844 701.2813,627.2031 L701.2813,626.0469 Q701.2813,624.7188 701.8906,623.5781 Q702.5156,622.4219 703.6094,621.8125 Q704.7031,621.1875 705.9375,621.1875 Q706.6719,621.1875 707.3125,621.3594 Q707.9688,621.5156 708.5156,621.875 Z " fill="#000000"/><text fill="#000000" font-family="sans-serif" font-size="14" lengthAdjust="spacing" textLength="46" x="726.25" y="631.7969">Vehicle</text><line style="stroke:#181818;stroke-width:0.5;" x1="294" x2="1172" y1="642" y2="642"/><text fill="#000000" font-family="sans-serif" font-size="14" lengthAdjust="spacing" textLength="83" x="299" y="661.1074">-String brand</text><text fill="#000000" font-family="sans-serif" font-size="14" lengthAdjust="spacing" textLength="84" x="299" y="679.7285">-String model</text><text fill="#000000" font-family="sans-serif" font-size="14" lengthAdjust="spacing" textLength="49" x="299" y="698.3496">-int tare</text><text fill="#000000" font-family="sans-serif" font-size="14" lengthAdjust="spacing" textLength="103" x="299" y="716.9707">-int grossWeight</text><text fill="#000000" font-family="sans-serif" font-size="14" lengthAdjust="spacing" textLength="89" x="299" y="735.5918">-int currentKm</text><text fill="#000000" font-family="sans-serif" font-size="14" lengthAdjust="spacing" textLength="124" x="299" y="754.2129">-String registerDate</text><text fill="#000000" font-family="sans-serif" font-size="14" lengthAdjust="spacing" textLength="143" x="299" y="772.834">-String acquisitionDate</text><text fill="#000000" font-family="sans-serif" font-size="14" lengthAdjust="spacing" textLength="230" x="299" y="791.4551">-int maintenanceCheckUpFrequency</text><text fill="#000000" font-family="sans-serif" font-size="14" lengthAdjust="spacing" textLength="126" x="299" y="810.0762">-String plateNumber</text><line style="stroke:#181818;stroke-width:0.5;" x1="294" x2="1172" y1="817.5898" y2="817.5898"/><text fill="#000000" font-family="sans-serif" font-size="14" lengthAdjust="spacing" textLength="868" x="299" y="836.6973">+Vehicle(brand, model, tare, grossWeight, currentKm, registerDate, acquisitionDate, maintenanceCheckUpFrequency, plateNumber, type)</text></g><!--class VehicleType--><g id="elem_VehicleType"><rect codeLine="40" fill="#F1F1F1" height="122.4844" id="VehicleType" rx="2.5" ry="2.5" style="stroke:#181818;stroke-width:0.5;" width="537" x="464.5" y="905"/><ellipse cx="689.75" cy="921" fill="#ADD1B2" rx="11" ry="11" style="stroke:#181818;stroke-width:1.0;"/><path d="M692.5156,916.875 Q692.6719,916.6563 692.8594,916.5469 Q693.0469,916.4375 693.2656,916.4375 Q693.6406,916.4375 693.875,916.7031 Q694.1094,916.9531 694.1094,917.5625 L694.1094,919.0156 Q694.1094,919.625 693.875,919.8906 Q693.6406,920.1563 693.2656,920.1563 Q692.9219,920.1563 692.7188,919.9531 Q692.5156,919.7656 692.4063,919.25 Q692.3594,918.8906 692.1719,918.7031 Q691.8438,918.3281 691.2344,918.1094 Q690.625,917.8906 690,917.8906 Q689.2344,917.8906 688.5938,918.2188 Q687.9688,918.5469 687.4688,919.2969 Q686.9844,920.0469 686.9844,921.0781 L686.9844,922.1719 Q686.9844,923.4063 687.875,924.2344 Q688.7656,925.0469 690.3594,925.0469 Q691.2969,925.0469 691.9531,924.7969 Q692.3438,924.6406 692.7656,924.2031 Q693.0313,923.9375 693.1719,923.8594 Q693.3281,923.7813 693.5313,923.7813 Q693.8594,923.7813 694.1094,924.0469 Q694.375,924.2969 694.375,924.6406 Q694.375,924.9844 694.0313,925.3906 Q693.5313,925.9688 692.7344,926.2969 Q691.6563,926.75 690.3594,926.75 Q688.8438,926.75 687.6406,926.125 Q686.6563,925.625 685.9688,924.5625 Q685.2813,923.4844 685.2813,922.2031 L685.2813,921.0469 Q685.2813,919.7188 685.8906,918.5781 Q686.5156,917.4219 687.6094,916.8125 Q688.7031,916.1875 689.9375,916.1875 Q690.6719,916.1875 691.3125,916.3594 Q691.9688,916.5156 692.5156,916.875 Z " fill="#000000"/><text fill="#000000" font-family="sans-serif" font-size="14" lengthAdjust="spacing" textLength="78" x="710.25" y="926.7969">VehicleType</text><line style="stroke:#181818;stroke-width:0.5;" x1="465.5" x2="1000.5" y1="937" y2="937"/><text fill="#000000" font-family="sans-serif" font-size="14" lengthAdjust="spacing" textLength="172" x="470.5" y="956.1074">-String passengersOrMixed</text><text fill="#000000" font-family="sans-serif" font-size="14" lengthAdjust="spacing" textLength="127" x="470.5" y="974.7285">-String lightOrHeavy</text><text fill="#000000" font-family="sans-serif" font-size="14" lengthAdjust="spacing" textLength="252" x="470.5" y="993.3496">-String openBoxOrClosedVansOrTrucks</text><line style="stroke:#181818;stroke-width:0.5;" x1="465.5" x2="1000.5" y1="1000.8633" y2="1000.8633"/><text fill="#000000" font-family="sans-serif" font-size="14" lengthAdjust="spacing" textLength="525" x="470.5" y="1019.9707">+VehicleType(passengersOrMixed, lightOrHeavy, openBoxOrClosedVansOrTrucks)</text></g><!--class FM--><g id="elem_FM"><rect codeLine="47" fill="#F1F1F1" height="66.6211" id="FM" rx="2.5" ry="2.5" style="stroke:#181818;stroke-width:0.5;" width="52" x="970" y="463.5"/><ellipse cx="985" cy="479.5" fill="#ADD1B2" rx="11" ry="11" style="stroke:#181818;stroke-width:1.0;"/><path d="M987.7656,475.375 Q987.9219,475.1563 988.1094,475.0469 Q988.2969,474.9375 988.5156,474.9375 Q988.8906,474.9375 989.125,475.2031 Q989.3594,475.4531 989.3594,476.0625 L989.3594,477.5156 Q989.3594,478.125 989.125,478.3906 Q988.8906,478.6563 988.5156,478.6563 Q988.1719,478.6563 987.9688,478.4531 Q987.7656,478.2656 987.6563,477.75 Q987.6094,477.3906 987.4219,477.2031 Q987.0938,476.8281 986.4844,476.6094 Q985.875,476.3906 985.25,476.3906 Q984.4844,476.3906 983.8438,476.7188 Q983.2188,477.0469 982.7188,477.7969 Q982.2344,478.5469 982.2344,479.5781 L982.2344,480.6719 Q982.2344,481.9063 983.125,482.7344 Q984.0156,483.5469 985.6094,483.5469 Q986.5469,483.5469 987.2031,483.2969 Q987.5938,483.1406 988.0156,482.7031 Q988.2813,482.4375 988.4219,482.3594 Q988.5781,482.2813 988.7813,482.2813 Q989.1094,482.2813 989.3594,482.5469 Q989.625,482.7969 989.625,483.1406 Q989.625,483.4844 989.2813,483.8906 Q988.7813,484.4688 987.9844,484.7969 Q986.9063,485.25 985.6094,485.25 Q984.0938,485.25 982.8906,484.625 Q981.9063,484.125 981.2188,483.0625 Q980.5313,481.9844 980.5313,480.7031 L980.5313,479.5469 Q980.5313,478.2188 981.1406,477.0781 Q981.7656,475.9219 982.8594,475.3125 Q983.9531,474.6875 985.1875,474.6875 Q985.9219,474.6875 986.5625,474.8594 Q987.2188,475.0156 987.7656,475.375 Z " fill="#000000"/><text fill="#000000" font-family="sans-serif" font-size="14" lengthAdjust="spacing" textLength="20" x="999" y="485.2969">FM</text><line style="stroke:#181818;stroke-width:0.5;" x1="971" x2="1021" y1="495.5" y2="495.5"/><text fill="#000000" font-family="sans-serif" font-size="14" lengthAdjust="spacing" textLength="40" x="976" y="514.6074">-name</text><line style="stroke:#181818;stroke-width:0.5;" x1="971" x2="1021" y1="522.1211" y2="522.1211"/></g><!--class Repositories--><g id="elem_Repositories"><rect codeLine="51" fill="#F1F1F1" height="103.8633" id="Repositories" rx="2.5" ry="2.5" style="stroke:#181818;stroke-width:0.5;" width="194" x="593" y="280"/><ellipse cx="646.25" cy="296" fill="#ADD1B2" rx="11" ry="11" style="stroke:#181818;stroke-width:1.0;"/><path d="M649.0156,291.875 Q649.1719,291.6563 649.3594,291.5469 Q649.5469,291.4375 649.7656,291.4375 Q650.1406,291.4375 650.375,291.7031 Q650.6094,291.9531 650.6094,292.5625 L650.6094,294.0156 Q650.6094,294.625 650.375,294.8906 Q650.1406,295.1563 649.7656,295.1563 Q649.4219,295.1563 649.2188,294.9531 Q649.0156,294.7656 648.9063,294.25 Q648.8594,293.8906 648.6719,293.7031 Q648.3438,293.3281 647.7344,293.1094 Q647.125,292.8906 646.5,292.8906 Q645.7344,292.8906 645.0938,293.2188 Q644.4688,293.5469 643.9688,294.2969 Q643.4844,295.0469 643.4844,296.0781 L643.4844,297.1719 Q643.4844,298.4063 644.375,299.2344 Q645.2656,300.0469 646.8594,300.0469 Q647.7969,300.0469 648.4531,299.7969 Q648.8438,299.6406 649.2656,299.2031 Q649.5313,298.9375 649.6719,298.8594 Q649.8281,298.7813 650.0313,298.7813 Q650.3594,298.7813 650.6094,299.0469 Q650.875,299.2969 650.875,299.6406 Q650.875,299.9844 650.5313,300.3906 Q650.0313,300.9688 649.2344,301.2969 Q648.1563,301.75 646.8594,301.75 Q645.3438,301.75 644.1406,301.125 Q643.1563,300.625 642.4688,299.5625 Q641.7813,298.4844 641.7813,297.2031 L641.7813,296.0469 Q641.7813,294.7188 642.3906,293.5781 Q643.0156,292.4219 644.1094,291.8125 Q645.2031,291.1875 646.4375,291.1875 Q647.1719,291.1875 647.8125,291.3594 Q648.4688,291.5156 649.0156,291.875 Z " fill="#000000"/><text fill="#000000" font-family="sans-serif" font-size="14" lengthAdjust="spacing" textLength="79" x="666.75" y="301.7969">Repositories</text><line style="stroke:#181818;stroke-width:0.5;" x1="594" x2="786" y1="312" y2="312"/><line style="stroke:#181818;stroke-width:0.5;" x1="594" x2="786" y1="320" y2="320"/><text fill="#000000" font-family="sans-serif" font-size="14" lengthAdjust="spacing" textLength="94" x="599" y="339.1074">-Repositories()</text><text fill="#000000" font-family="sans-serif" font-size="14" lengthAdjust="spacing" textLength="182" x="599" y="357.7285">+getInstance() : Repositories</text><text fill="#000000" font-family="sans-serif" font-size="14" lengthAdjust="spacing" textLength="152" x="599" y="376.3496">+getVehicleRepository()</text></g><!--link RegisterVehicleUI to RegisterVehicleControlller--><g id="link_RegisterVehicleUI_RegisterVehicleControlller"><path codeLine="57" d="M525,55.02 C525,72 525,89.58 525,109.84 " fill="none" id="RegisterVehicleUI-to-RegisterVehicleControlller" style="stroke:#181818;stroke-width:1.0;stroke-dasharray:7.0,7.0;"/><polygon fill="#181818" points="525,115.84,529,106.84,525,110.84,521,106.84,525,115.84" style="stroke:#181818;stroke-width:1.0;"/></g><!--link RegisterVehicleControlller to Repositories--><g id="link_RegisterVehicleControlller_Repositories"><path codeLine="58" d="M564.94,201.02 C587.74,224.71 612.3407,250.2756 636.5307,275.4256 " fill="none" id="RegisterVehicleControlller-to-Repositories" style="stroke:#181818;stroke-width:1.0;stroke-dasharray:7.0,7.0;"/><polygon fill="#181818" points="640.69,279.75,637.334,270.4906,637.2239,276.1464,631.5681,276.0363,640.69,279.75" style="stroke:#181818;stroke-width:1.0;"/><text fill="#000000" font-family="sans-serif" font-size="13" lengthAdjust="spacing" textLength="67" x="608" y="246.0283">repositories</text></g><!--link RegisterVehicleControlller to VehicleRepository--><g id="link_RegisterVehicleControlller_VehicleRepository"><path codeLine="59" d="M505.57,201.31 C489.4,236.11 469,280 469,280 C469,280 469,384 469,384 C469,384 469.4524,409.381 469.9824,438.921 " fill="none" id="RegisterVehicleControlller-to-VehicleRepository" style="stroke:#181818;stroke-width:1.0;stroke-dasharray:7.0,7.0;"/><polygon fill="#181818" points="470.09,444.92,473.9279,435.8497,470.0003,439.9208,465.9292,435.9932,470.09,444.92" style="stroke:#181818;stroke-width:1.0;"/><text fill="#000000" font-family="sans-serif" font-size="13" lengthAdjust="spacing" textLength="105" x="470" y="337.5283">VehicleRepository</text></g><!--link Repositories to Repositories--><g id="link_Repositories_Repositories"><path codeLine="60" d="M787.28,317.17 C807.48,318.73 822,323.67 822,332 C822,340.33 813.4622,344.808 793.2622,346.368 " fill="none" id="Repositories-to-Repositories" style="stroke:#181818;stroke-width:1.0;"/><polygon fill="#181818" points="787.28,346.83,796.5613,350.1251,792.2652,346.445,795.9453,342.1489,787.28,346.83" style="stroke:#181818;stroke-width:1.0;"/><text fill="#000000" font-family="sans-serif" font-size="13" lengthAdjust="spacing" textLength="49" x="828" y="337.5283">instance</text></g><!--link Repositories to VehicleRepository--><g id="link_Repositories_VehicleRepository"><path codeLine="61" d="M621.31,384.13 C595.34,403.45 570.6138,421.8584 544.6338,441.1884 " fill="none" id="Repositories-to-VehicleRepository" style="stroke:#181818;stroke-width:1.0;"/><polygon fill="#181818" points="539.82,444.77,549.4284,442.6068,543.8315,441.7853,544.6529,436.1884,539.82,444.77" style="stroke:#181818;stroke-width:1.0;"/><text fill="#000000" font-family="sans-serif" font-size="13" lengthAdjust="spacing" textLength="7" x="541.5974" y="433.6665">1</text></g><!--link VehicleRepository to Vehicle--><g id="link_VehicleRepository_Vehicle"><path codeLine="62" d="M529.8,549.17 C550.62,567.29 570.4544,584.5406 594.9244,605.8406 " fill="none" id="VehicleRepository-to-Vehicle" style="stroke:#181818;stroke-width:1.0;"/><polygon fill="#181818" points="599.45,609.78,595.2878,600.8539,595.6786,606.4972,590.0353,606.8881,599.45,609.78" style="stroke:#181818;stroke-width:1.0;"/><text fill="#000000" font-family="sans-serif" font-size="13" lengthAdjust="spacing" textLength="5" x="585.7343" y="598.7569">*</text></g><!--link Vehicle to VehicleType--><g id="link_Vehicle_VehicleType"><path codeLine="63" d="M733,844.07 C733,865.06 733,880.16 733,898.72 " fill="none" id="Vehicle-to-VehicleType" style="stroke:#181818;stroke-width:1.0;"/><polygon fill="#181818" points="733,904.72,737,895.72,733,899.72,729,895.72,733,904.72" style="stroke:#181818;stroke-width:1.0;"/><text fill="#000000" font-family="sans-serif" font-size="13" lengthAdjust="spacing" textLength="7" x="725.5953" y="893.6688">1</text></g><!--link FM to Vehicle--><g id="link_FM_Vehicle"><path codeLine="64" d="M969.99,528.84 C960.94,539.58 953,549 953,549 C953,549 923.4351,572.7892 881.9651,606.1492 " fill="none" id="FM-to-Vehicle" style="stroke:#181818;stroke-width:1.0;"/><polygon fill="#181818" points="877.29,609.91,886.8098,607.3855,881.1859,606.776,881.7954,601.1521,877.29,609.91" style="stroke:#181818;stroke-width:1.0;"/></g><!--SRC=[pLJ1Rjim3BthAuXUucnEiLrp6B1bA1OCNO2cxSwApDf2PCcbvApPi7-VPCUn5QVPjRuO9X_9zvubJknMweeJBw4qseY2J8dWg4RMPoekjZp7jTih14BXkCxL460BdfbVKkVmn9KTPfJKwFOLGcNKFdomoPca8MVOe4eeRkrdvqXkQeTBOVHQ_aRumDX4uPC3Pu1aNZZ8PA0ZZMQigO4xpALrI8zOIA7mOGb_6FlxIdPXj2EZb4BoCF3F-rSGICcq1L0CI3R4TPPwyp9KAJXEc49EnjgV61Yc86eYrEvxcK9N-vKxZ-BYkPPM1lPjeEHIEzHS2rmKABOFrGtXSurQx5EebCVygCiDaX_ZJPlsiWvSxh0olf-X_K7DZ6TPntFNlbiLinrNClCDpsRViiPEsTgV3N_S6cPHf27PHloaXcp_DI3T1u_aepv37L7YH5BVvuAqgC50PMlt6x1vvFDzk9QnrvLFeywHx8fkvGl6lgj0SKNVaEzYkQP2_SMyh6YXZCNiaMjVVq-rsDf8VfYOZ6QaKUFqKhV1ORcvxRY3vYKE5y3XYaYqHyWms5rpoD4jjNN1mMGAymZKGqOtBsbOZBVGzVMd2zk7NLXCRMK_VEx__O3AVof71EVZ48jScSrEvyc33sFSrSUhC-t6wwZ1lZjYEyHfZt04cFzt8Tn1_m40]--></g></svg>