<?xml version="1.0" encoding="us-ascii" standalone="no"?><svg xmlns="http://www.w3.org/2000/svg" xmlns:xlink="http://www.w3.org/1999/xlink" contentStyleType="text/css" height="1127px" preserveAspectRatio="none" style="width:996px;height:1127px;background:#FFFFFF;" version="1.1" viewBox="0 0 996 1127" width="996px" zoomAndPan="magnify"><defs/><g><!--class RegisterVehicleUI--><g id="elem_RegisterVehicleUI"><rect codeLine="11" fill="#F1F1F1" height="48" id="RegisterVehicleUI" rx="2.5" ry="2.5" style="stroke:#181818;stroke-width:0.5;" width="143" x="453.5" y="25.5"/><ellipse cx="468.5" cy="41.5" fill="#ADD1B2" rx="11" ry="11" style="stroke:#181818;stroke-width:1.0;"/><path d="M471.2656,37.375 Q471.4219,37.1563 471.6094,37.0469 Q471.7969,36.9375 472.0156,36.9375 Q472.3906,36.9375 472.625,37.2031 Q472.8594,37.4531 472.8594,38.0625 L472.8594,39.5156 Q472.8594,40.125 472.625,40.3906 Q472.3906,40.6563 472.0156,40.6563 Q471.6719,40.6563 471.4688,40.4531 Q471.2656,40.2656 471.1563,39.75 Q471.1094,39.3906 470.9219,39.2031 Q470.5938,38.8281 469.9844,38.6094 Q469.375,38.3906 468.75,38.3906 Q467.9844,38.3906 467.3438,38.7188 Q466.7188,39.0469 466.2188,39.7969 Q465.7344,40.5469 465.7344,41.5781 L465.7344,42.6719 Q465.7344,43.9063 466.625,44.7344 Q467.5156,45.5469 469.1094,45.5469 Q470.0469,45.5469 470.7031,45.2969 Q471.0938,45.1406 471.5156,44.7031 Q471.7813,44.4375 471.9219,44.3594 Q472.0781,44.2813 472.2813,44.2813 Q472.6094,44.2813 472.8594,44.5469 Q473.125,44.7969 473.125,45.1406 Q473.125,45.4844 472.7813,45.8906 Q472.2813,46.4688 471.4844,46.7969 Q470.4063,47.25 469.1094,47.25 Q467.5938,47.25 466.3906,46.625 Q465.4063,46.125 464.7188,45.0625 Q464.0313,43.9844 464.0313,42.7031 L464.0313,41.5469 Q464.0313,40.2188 464.6406,39.0781 Q465.2656,37.9219 466.3594,37.3125 Q467.4531,36.6875 468.6875,36.6875 Q469.4219,36.6875 470.0625,36.8594 Q470.7188,37.0156 471.2656,37.375 Z " fill="#000000"/><text fill="#000000" font-family="sans-serif" font-size="14" lengthAdjust="spacing" textLength="111" x="482.5" y="47.2969">RegisterVehicleUI</text><line style="stroke:#181818;stroke-width:0.5;" x1="454.5" x2="595.5" y1="57.5" y2="57.5"/><line style="stroke:#181818;stroke-width:0.5;" x1="454.5" x2="595.5" y1="65.5" y2="65.5"/></g><!--class RegisterVehicleControlller--><g id="elem_RegisterVehicleControlller"><rect codeLine="15" fill="#F1F1F1" height="85.2422" id="RegisterVehicleControlller" rx="2.5" ry="2.5" style="stroke:#181818;stroke-width:0.5;" width="928" x="61" y="153"/><ellipse cx="438.75" cy="169" fill="#ADD1B2" rx="11" ry="11" style="stroke:#181818;stroke-width:1.0;"/><path d="M441.5156,164.875 Q441.6719,164.6563 441.8594,164.5469 Q442.0469,164.4375 442.2656,164.4375 Q442.6406,164.4375 442.875,164.7031 Q443.1094,164.9531 443.1094,165.5625 L443.1094,167.0156 Q443.1094,167.625 442.875,167.8906 Q442.6406,168.1563 442.2656,168.1563 Q441.9219,168.1563 441.7188,167.9531 Q441.5156,167.7656 441.4063,167.25 Q441.3594,166.8906 441.1719,166.7031 Q440.8438,166.3281 440.2344,166.1094 Q439.625,165.8906 439,165.8906 Q438.2344,165.8906 437.5938,166.2188 Q436.9688,166.5469 436.4688,167.2969 Q435.9844,168.0469 435.9844,169.0781 L435.9844,170.1719 Q435.9844,171.4063 436.875,172.2344 Q437.7656,173.0469 439.3594,173.0469 Q440.2969,173.0469 440.9531,172.7969 Q441.3438,172.6406 441.7656,172.2031 Q442.0313,171.9375 442.1719,171.8594 Q442.3281,171.7813 442.5313,171.7813 Q442.8594,171.7813 443.1094,172.0469 Q443.375,172.2969 443.375,172.6406 Q443.375,172.9844 443.0313,173.3906 Q442.5313,173.9688 441.7344,174.2969 Q440.6563,174.75 439.3594,174.75 Q437.8438,174.75 436.6406,174.125 Q435.6563,173.625 434.9688,172.5625 Q434.2813,171.4844 434.2813,170.2031 L434.2813,169.0469 Q434.2813,167.7188 434.8906,166.5781 Q435.5156,165.4219 436.6094,164.8125 Q437.7031,164.1875 438.9375,164.1875 Q439.6719,164.1875 440.3125,164.3594 Q440.9688,164.5156 441.5156,164.875 Z " fill="#000000"/><text fill="#000000" font-family="sans-serif" font-size="14" lengthAdjust="spacing" textLength="164" x="459.25" y="174.7969">RegisterVehicleControlller</text><line style="stroke:#181818;stroke-width:0.5;" x1="62" x2="988" y1="185" y2="185"/><line style="stroke:#181818;stroke-width:0.5;" x1="62" x2="988" y1="193" y2="193"/><text fill="#000000" font-family="sans-serif" font-size="14" lengthAdjust="spacing" textLength="291" x="67" y="212.1074">+RegisterVehicleController(vehicleRepository)</text><text fill="#000000" font-family="sans-serif" font-size="14" lengthAdjust="spacing" textLength="916" x="67" y="230.7285">+registerVehicle(brand, model, tare, grossWeight, currentKm, registerDate, acquisitionDate, maintenanceCheckUpFrequency, plateNumber, type)</text></g><!--class VehicleRepository--><g id="elem_VehicleRepository"><rect codeLine="20" fill="#F1F1F1" height="103.8633" id="VehicleRepository" rx="2.5" ry="2.5" style="stroke:#181818;stroke-width:0.5;" width="928" x="7" y="482"/><ellipse cx="409.75" cy="498" fill="#ADD1B2" rx="11" ry="11" style="stroke:#181818;stroke-width:1.0;"/><path d="M412.5156,493.875 Q412.6719,493.6563 412.8594,493.5469 Q413.0469,493.4375 413.2656,493.4375 Q413.6406,493.4375 413.875,493.7031 Q414.1094,493.9531 414.1094,494.5625 L414.1094,496.0156 Q414.1094,496.625 413.875,496.8906 Q413.6406,497.1563 413.2656,497.1563 Q412.9219,497.1563 412.7188,496.9531 Q412.5156,496.7656 412.4063,496.25 Q412.3594,495.8906 412.1719,495.7031 Q411.8438,495.3281 411.2344,495.1094 Q410.625,494.8906 410,494.8906 Q409.2344,494.8906 408.5938,495.2188 Q407.9688,495.5469 407.4688,496.2969 Q406.9844,497.0469 406.9844,498.0781 L406.9844,499.1719 Q406.9844,500.4063 407.875,501.2344 Q408.7656,502.0469 410.3594,502.0469 Q411.2969,502.0469 411.9531,501.7969 Q412.3438,501.6406 412.7656,501.2031 Q413.0313,500.9375 413.1719,500.8594 Q413.3281,500.7813 413.5313,500.7813 Q413.8594,500.7813 414.1094,501.0469 Q414.375,501.2969 414.375,501.6406 Q414.375,501.9844 414.0313,502.3906 Q413.5313,502.9688 412.7344,503.2969 Q411.6563,503.75 410.3594,503.75 Q408.8438,503.75 407.6406,503.125 Q406.6563,502.625 405.9688,501.5625 Q405.2813,500.4844 405.2813,499.2031 L405.2813,498.0469 Q405.2813,496.7188 405.8906,495.5781 Q406.5156,494.4219 407.6094,493.8125 Q408.7031,493.1875 409.9375,493.1875 Q410.6719,493.1875 411.3125,493.3594 Q411.9688,493.5156 412.5156,493.875 Z " fill="#000000"/><text fill="#000000" font-family="sans-serif" font-size="14" lengthAdjust="spacing" textLength="114" x="430.25" y="503.7969">VehicleRepository</text><line style="stroke:#181818;stroke-width:0.5;" x1="8" x2="934" y1="514" y2="514"/><line style="stroke:#181818;stroke-width:0.5;" x1="8" x2="934" y1="522" y2="522"/><text fill="#000000" font-family="sans-serif" font-size="14" lengthAdjust="spacing" textLength="129" x="13" y="541.1074">-addVehicle(vehicle)</text><text fill="#000000" font-family="sans-serif" font-size="14" lengthAdjust="spacing" textLength="154" x="13" y="559.7285">-validateVehicle(vehicle)</text><text fill="#000000" font-family="sans-serif" font-size="14" lengthAdjust="spacing" textLength="916" x="13" y="578.3496">+registerVehicle(brand, model, tare, grossWeight, currentKm, registerDate, acquisitionDate, maintenanceCheckUpFrequency, plateNumber, type)</text></g><!--class Vehicle--><g id="elem_Vehicle"><rect codeLine="26" fill="#F1F1F1" height="234.2109" id="Vehicle" rx="2.5" ry="2.5" style="stroke:#181818;stroke-width:0.5;" width="880" x="31" y="647"/><ellipse cx="443.75" cy="663" fill="#ADD1B2" rx="11" ry="11" style="stroke:#181818;stroke-width:1.0;"/><path d="M446.5156,658.875 Q446.6719,658.6563 446.8594,658.5469 Q447.0469,658.4375 447.2656,658.4375 Q447.6406,658.4375 447.875,658.7031 Q448.1094,658.9531 448.1094,659.5625 L448.1094,661.0156 Q448.1094,661.625 447.875,661.8906 Q447.6406,662.1563 447.2656,662.1563 Q446.9219,662.1563 446.7188,661.9531 Q446.5156,661.7656 446.4063,661.25 Q446.3594,660.8906 446.1719,660.7031 Q445.8438,660.3281 445.2344,660.1094 Q444.625,659.8906 444,659.8906 Q443.2344,659.8906 442.5938,660.2188 Q441.9688,660.5469 441.4688,661.2969 Q440.9844,662.0469 440.9844,663.0781 L440.9844,664.1719 Q440.9844,665.4063 441.875,666.2344 Q442.7656,667.0469 444.3594,667.0469 Q445.2969,667.0469 445.9531,666.7969 Q446.3438,666.6406 446.7656,666.2031 Q447.0313,665.9375 447.1719,665.8594 Q447.3281,665.7813 447.5313,665.7813 Q447.8594,665.7813 448.1094,666.0469 Q448.375,666.2969 448.375,666.6406 Q448.375,666.9844 448.0313,667.3906 Q447.5313,667.9688 446.7344,668.2969 Q445.6563,668.75 444.3594,668.75 Q442.8438,668.75 441.6406,668.125 Q440.6563,667.625 439.9688,666.5625 Q439.2813,665.4844 439.2813,664.2031 L439.2813,663.0469 Q439.2813,661.7188 439.8906,660.5781 Q440.5156,659.4219 441.6094,658.8125 Q442.7031,658.1875 443.9375,658.1875 Q444.6719,658.1875 445.3125,658.3594 Q445.9688,658.5156 446.5156,658.875 Z " fill="#000000"/><text fill="#000000" font-family="sans-serif" font-size="14" lengthAdjust="spacing" textLength="46" x="464.25" y="668.7969">Vehicle</text><line style="stroke:#181818;stroke-width:0.5;" x1="32" x2="910" y1="679" y2="679"/><text fill="#000000" font-family="sans-serif" font-size="14" lengthAdjust="spacing" textLength="83" x="37" y="698.1074">-String brand</text><text fill="#000000" font-family="sans-serif" font-size="14" lengthAdjust="spacing" textLength="84" x="37" y="716.7285">-String model</text><text fill="#000000" font-family="sans-serif" font-size="14" lengthAdjust="spacing" textLength="49" x="37" y="735.3496">-int tare</text><text fill="#000000" font-family="sans-serif" font-size="14" lengthAdjust="spacing" textLength="103" x="37" y="753.9707">-int grossWeight</text><text fill="#000000" font-family="sans-serif" font-size="14" lengthAdjust="spacing" textLength="89" x="37" y="772.5918">-int currentKm</text><text fill="#000000" font-family="sans-serif" font-size="14" lengthAdjust="spacing" textLength="117" x="37" y="791.2129">-Date registerDate</text><text fill="#000000" font-family="sans-serif" font-size="14" lengthAdjust="spacing" textLength="136" x="37" y="809.834">-Date acquisitionDate</text><text fill="#000000" font-family="sans-serif" font-size="14" lengthAdjust="spacing" textLength="230" x="37" y="828.4551">-int maintenanceCheckUpFrequency</text><text fill="#000000" font-family="sans-serif" font-size="14" lengthAdjust="spacing" textLength="126" x="37" y="847.0762">-String plateNumber</text><line style="stroke:#181818;stroke-width:0.5;" x1="32" x2="910" y1="854.5898" y2="854.5898"/><text fill="#000000" font-family="sans-serif" font-size="14" lengthAdjust="spacing" textLength="868" x="37" y="873.6973">+Vehicle(brand, model, tare, grossWeight, currentKm, registerDate, acquisitionDate, maintenanceCheckUpFrequency, plateNumber, type)</text></g><!--class VehicleType--><g id="elem_VehicleType"><rect codeLine="40" fill="#F1F1F1" height="178.3477" id="VehicleType" rx="2.5" ry="2.5" style="stroke:#181818;stroke-width:0.5;" width="368" x="287" y="942"/><ellipse cx="427.75" cy="958" fill="#ADD1B2" rx="11" ry="11" style="stroke:#181818;stroke-width:1.0;"/><path d="M430.5156,953.875 Q430.6719,953.6563 430.8594,953.5469 Q431.0469,953.4375 431.2656,953.4375 Q431.6406,953.4375 431.875,953.7031 Q432.1094,953.9531 432.1094,954.5625 L432.1094,956.0156 Q432.1094,956.625 431.875,956.8906 Q431.6406,957.1563 431.2656,957.1563 Q430.9219,957.1563 430.7188,956.9531 Q430.5156,956.7656 430.4063,956.25 Q430.3594,955.8906 430.1719,955.7031 Q429.8438,955.3281 429.2344,955.1094 Q428.625,954.8906 428,954.8906 Q427.2344,954.8906 426.5938,955.2188 Q425.9688,955.5469 425.4688,956.2969 Q424.9844,957.0469 424.9844,958.0781 L424.9844,959.1719 Q424.9844,960.4063 425.875,961.2344 Q426.7656,962.0469 428.3594,962.0469 Q429.2969,962.0469 429.9531,961.7969 Q430.3438,961.6406 430.7656,961.2031 Q431.0313,960.9375 431.1719,960.8594 Q431.3281,960.7813 431.5313,960.7813 Q431.8594,960.7813 432.1094,961.0469 Q432.375,961.2969 432.375,961.6406 Q432.375,961.9844 432.0313,962.3906 Q431.5313,962.9688 430.7344,963.2969 Q429.6563,963.75 428.3594,963.75 Q426.8438,963.75 425.6406,963.125 Q424.6563,962.625 423.9688,961.5625 Q423.2813,960.4844 423.2813,959.2031 L423.2813,958.0469 Q423.2813,956.7188 423.8906,955.5781 Q424.5156,954.4219 425.6094,953.8125 Q426.7031,953.1875 427.9375,953.1875 Q428.6719,953.1875 429.3125,953.3594 Q429.9688,953.5156 430.5156,953.875 Z " fill="#000000"/><text fill="#000000" font-family="sans-serif" font-size="14" lengthAdjust="spacing" textLength="78" x="448.25" y="963.7969">VehicleType</text><line style="stroke:#181818;stroke-width:0.5;" x1="288" x2="654" y1="974" y2="974"/><text fill="#000000" font-family="sans-serif" font-size="14" lengthAdjust="spacing" textLength="258" x="293" y="993.1074">+TypeTransport {PASSENGERS, MIXED}</text><text fill="#000000" font-family="sans-serif" font-size="14" lengthAdjust="spacing" textLength="214" x="293" y="1011.7285">+PackageWeight {LIGHT, HEAVY}</text><text fill="#000000" font-family="sans-serif" font-size="14" lengthAdjust="spacing" textLength="331" x="293" y="1030.3496">+Transport {OPEN_BOX, CLOSED_VANS, TRUCKS}</text><text fill="#000000" font-family="sans-serif" font-size="14" lengthAdjust="spacing" textLength="192" x="293" y="1048.9707">-TypeTransport typeTransport</text><text fill="#000000" font-family="sans-serif" font-size="14" lengthAdjust="spacing" textLength="206" x="293" y="1067.5918">-PackageWeight packageWeight</text><text fill="#000000" font-family="sans-serif" font-size="14" lengthAdjust="spacing" textLength="128" x="293" y="1086.2129">-Transport transport</text><line style="stroke:#181818;stroke-width:0.5;" x1="288" x2="654" y1="1093.7266" y2="1093.7266"/><text fill="#000000" font-family="sans-serif" font-size="14" lengthAdjust="spacing" textLength="356" x="293" y="1112.834">+VehicleType(typeTransport, packageWeight, transport)</text></g><!--class FleetManager--><g id="elem_FleetManager"><rect codeLine="50" fill="#F1F1F1" height="85.2422" id="FleetManager" rx="2.5" ry="2.5" style="stroke:#181818;stroke-width:0.5;" width="153" x="631.5" y="7"/><ellipse cx="661.35" cy="23" fill="#ADD1B2" rx="11" ry="11" style="stroke:#181818;stroke-width:1.0;"/><path d="M664.1156,18.875 Q664.2719,18.6563 664.4594,18.5469 Q664.6469,18.4375 664.8656,18.4375 Q665.2406,18.4375 665.475,18.7031 Q665.7094,18.9531 665.7094,19.5625 L665.7094,21.0156 Q665.7094,21.625 665.475,21.8906 Q665.2406,22.1563 664.8656,22.1563 Q664.5219,22.1563 664.3188,21.9531 Q664.1156,21.7656 664.0063,21.25 Q663.9594,20.8906 663.7719,20.7031 Q663.4438,20.3281 662.8344,20.1094 Q662.225,19.8906 661.6,19.8906 Q660.8344,19.8906 660.1938,20.2188 Q659.5688,20.5469 659.0688,21.2969 Q658.5844,22.0469 658.5844,23.0781 L658.5844,24.1719 Q658.5844,25.4063 659.475,26.2344 Q660.3656,27.0469 661.9594,27.0469 Q662.8969,27.0469 663.5531,26.7969 Q663.9438,26.6406 664.3656,26.2031 Q664.6313,25.9375 664.7719,25.8594 Q664.9281,25.7813 665.1313,25.7813 Q665.4594,25.7813 665.7094,26.0469 Q665.975,26.2969 665.975,26.6406 Q665.975,26.9844 665.6313,27.3906 Q665.1313,27.9688 664.3344,28.2969 Q663.2563,28.75 661.9594,28.75 Q660.4438,28.75 659.2406,28.125 Q658.2563,27.625 657.5688,26.5625 Q656.8813,25.4844 656.8813,24.2031 L656.8813,23.0469 Q656.8813,21.7188 657.4906,20.5781 Q658.1156,19.4219 659.2094,18.8125 Q660.3031,18.1875 661.5375,18.1875 Q662.2719,18.1875 662.9125,18.3594 Q663.5688,18.5156 664.1156,18.875 Z " fill="#000000"/><text fill="#000000" font-family="sans-serif" font-size="14" lengthAdjust="spacing" textLength="88" x="678.65" y="28.7969">FleetManager</text><line style="stroke:#181818;stroke-width:0.5;" x1="632.5" x2="783.5" y1="39" y2="39"/><text fill="#000000" font-family="sans-serif" font-size="14" lengthAdjust="spacing" textLength="40" x="637.5" y="58.1074">-name</text><line style="stroke:#181818;stroke-width:0.5;" x1="632.5" x2="783.5" y1="65.6211" y2="65.6211"/><text fill="#000000" font-family="sans-serif" font-size="14" lengthAdjust="spacing" textLength="141" x="637.5" y="84.7285">+FleetManager(name)</text></g><!--class Repositories--><g id="elem_Repositories"><rect codeLine="55" fill="#F1F1F1" height="103.8633" id="Repositories" rx="2.5" ry="2.5" style="stroke:#181818;stroke-width:0.5;" width="194" x="593" y="317"/><ellipse cx="646.25" cy="333" fill="#ADD1B2" rx="11" ry="11" style="stroke:#181818;stroke-width:1.0;"/><path d="M649.0156,328.875 Q649.1719,328.6563 649.3594,328.5469 Q649.5469,328.4375 649.7656,328.4375 Q650.1406,328.4375 650.375,328.7031 Q650.6094,328.9531 650.6094,329.5625 L650.6094,331.0156 Q650.6094,331.625 650.375,331.8906 Q650.1406,332.1563 649.7656,332.1563 Q649.4219,332.1563 649.2188,331.9531 Q649.0156,331.7656 648.9063,331.25 Q648.8594,330.8906 648.6719,330.7031 Q648.3438,330.3281 647.7344,330.1094 Q647.125,329.8906 646.5,329.8906 Q645.7344,329.8906 645.0938,330.2188 Q644.4688,330.5469 643.9688,331.2969 Q643.4844,332.0469 643.4844,333.0781 L643.4844,334.1719 Q643.4844,335.4063 644.375,336.2344 Q645.2656,337.0469 646.8594,337.0469 Q647.7969,337.0469 648.4531,336.7969 Q648.8438,336.6406 649.2656,336.2031 Q649.5313,335.9375 649.6719,335.8594 Q649.8281,335.7813 650.0313,335.7813 Q650.3594,335.7813 650.6094,336.0469 Q650.875,336.2969 650.875,336.6406 Q650.875,336.9844 650.5313,337.3906 Q650.0313,337.9688 649.2344,338.2969 Q648.1563,338.75 646.8594,338.75 Q645.3438,338.75 644.1406,338.125 Q643.1563,337.625 642.4688,336.5625 Q641.7813,335.4844 641.7813,334.2031 L641.7813,333.0469 Q641.7813,331.7188 642.3906,330.5781 Q643.0156,329.4219 644.1094,328.8125 Q645.2031,328.1875 646.4375,328.1875 Q647.1719,328.1875 647.8125,328.3594 Q648.4688,328.5156 649.0156,328.875 Z " fill="#000000"/><text fill="#000000" font-family="sans-serif" font-size="14" lengthAdjust="spacing" textLength="79" x="666.75" y="338.7969">Repositories</text><line style="stroke:#181818;stroke-width:0.5;" x1="594" x2="786" y1="349" y2="349"/><line style="stroke:#181818;stroke-width:0.5;" x1="594" x2="786" y1="357" y2="357"/><text fill="#000000" font-family="sans-serif" font-size="14" lengthAdjust="spacing" textLength="94" x="599" y="376.1074">-Repositories()</text><text fill="#000000" font-family="sans-serif" font-size="14" lengthAdjust="spacing" textLength="182" x="599" y="394.7285">+getInstance() : Repositories</text><text fill="#000000" font-family="sans-serif" font-size="14" lengthAdjust="spacing" textLength="152" x="599" y="413.3496">+getVehicleRepository()</text></g><!--link RegisterVehicleUI to RegisterVehicleControlller--><g id="link_RegisterVehicleUI_RegisterVehicleControlller"><path codeLine="61" d="M525,73.64 C525,94.94 525,121.06 525,146.83 " fill="none" id="RegisterVehicleUI-to-RegisterVehicleControlller" style="stroke:#181818;stroke-width:1.0;stroke-dasharray:7.0,7.0;"/><polygon fill="#181818" points="525,152.83,529,143.83,525,147.83,521,143.83,525,152.83" style="stroke:#181818;stroke-width:1.0;"/></g><!--link RegisterVehicleControlller to Repositories--><g id="link_RegisterVehicleControlller_Repositories"><path codeLine="62" d="M564.94,238.02 C587.74,261.71 612.3407,287.2756 636.5307,312.4256 " fill="none" id="RegisterVehicleControlller-to-Repositories" style="stroke:#181818;stroke-width:1.0;stroke-dasharray:7.0,7.0;"/><polygon fill="#181818" points="640.69,316.75,637.334,307.4906,637.2239,313.1464,631.5681,313.0363,640.69,316.75" style="stroke:#181818;stroke-width:1.0;"/><text fill="#000000" font-family="sans-serif" font-size="13" lengthAdjust="spacing" textLength="67" x="608" y="283.0283">repositories</text></g><!--link RegisterVehicleControlller to VehicleRepository--><g id="link_RegisterVehicleControlller_VehicleRepository"><path codeLine="63" d="M505.57,238.31 C489.4,273.11 469,317 469,317 C469,317 469,421 469,421 C469,421 469.4524,446.381 469.9824,475.921 " fill="none" id="RegisterVehicleControlller-to-VehicleRepository" style="stroke:#181818;stroke-width:1.0;stroke-dasharray:7.0,7.0;"/><polygon fill="#181818" points="470.09,481.92,473.9279,472.8497,470.0003,476.9208,465.9292,472.9932,470.09,481.92" style="stroke:#181818;stroke-width:1.0;"/><text fill="#000000" font-family="sans-serif" font-size="13" lengthAdjust="spacing" textLength="105" x="470" y="374.5283">VehicleRepository</text></g><!--link Repositories to Repositories--><g id="link_Repositories_Repositories"><path codeLine="64" d="M787.28,354.17 C807.48,355.73 822,360.67 822,369 C822,377.33 813.4622,381.808 793.2622,383.368 " fill="none" id="Repositories-to-Repositories" style="stroke:#181818;stroke-width:1.0;"/><polygon fill="#181818" points="787.28,383.83,796.5613,387.1251,792.2652,383.445,795.9453,379.1489,787.28,383.83" style="stroke:#181818;stroke-width:1.0;"/><text fill="#000000" font-family="sans-serif" font-size="13" lengthAdjust="spacing" textLength="49" x="828" y="374.5283">instance</text></g><!--link Repositories to VehicleRepository--><g id="link_Repositories_VehicleRepository"><path codeLine="65" d="M621.31,421.13 C595.34,440.45 570.6138,458.8584 544.6338,478.1884 " fill="none" id="Repositories-to-VehicleRepository" style="stroke:#181818;stroke-width:1.0;"/><polygon fill="#181818" points="539.82,481.77,549.4284,479.6068,543.8315,478.7853,544.6529,473.1884,539.82,481.77" style="stroke:#181818;stroke-width:1.0;"/><text fill="#000000" font-family="sans-serif" font-size="13" lengthAdjust="spacing" textLength="7" x="541.5974" y="470.6665">1</text></g><!--link VehicleRepository to Vehicle--><g id="link_VehicleRepository_Vehicle"><path codeLine="66" d="M471,586.17 C471,604.29 471,619.48 471,640.78 " fill="none" id="VehicleRepository-to-Vehicle" style="stroke:#181818;stroke-width:1.0;"/><polygon fill="#181818" points="471,646.78,475,637.78,471,641.78,467,637.78,471,646.78" style="stroke:#181818;stroke-width:1.0;"/><text fill="#000000" font-family="sans-serif" font-size="13" lengthAdjust="spacing" textLength="5" x="465.8398" y="635.7569">*</text></g><!--link Vehicle to VehicleType--><g id="link_Vehicle_VehicleType"><path codeLine="67" d="M471,881.23 C471,901.54 471,916.36 471,935.75 " fill="none" id="Vehicle-to-VehicleType" style="stroke:#181818;stroke-width:1.0;"/><polygon fill="#181818" points="471,941.75,475,932.75,471,936.75,467,932.75,471,941.75" style="stroke:#181818;stroke-width:1.0;"/><text fill="#000000" font-family="sans-serif" font-size="13" lengthAdjust="spacing" textLength="7" x="463.7102" y="930.6811">1</text></g><!--SRC=[pLJ1Sk8m3BtdApIz49Qaitlbi3Ciq9Pf2mm1jdlgc4GD7XmxTPpki4p_lGuEn26KlPPJB3r9xmb9hMn3UKeaII0HN8HhAH849NDqAazAmWs9CL1RXY0nL8J7p0PaQnA9lvJ7y49OPdiOvQYsAK8gsBPuEAqpJY6LSAoea94iwoabwIfNE0e53-W_XE-EqsBuea09a3HUAuXeGOSAxZZx69XXJ3E5Sebh6Z9SZ63dEE-VUFk2AoaOOoWr3FIlyma2fVjcB3DCHKQLaDksYP3r27Sb2OyytSq8cGUAIFGWbYBBVcD1sOCmbnAvkayyECGEYD8e4hxcLEVMSemX8PGhv8I7s5zZk5caDn9VS-JXreEKQSmuJrOeTHdTnNQbStdAjPJdaoWwy2pr61N-6s4qqWdFUh-oneEoG0-BdhyzivfbJz9OTAKzsUfbaQwCH_B6LF2igR3C9tAg71TarTXP2ashlq2B6psU5pjQBaZnFTVSibGlBUoclI0OZc-7iy23nz7JSF1kO5DpCWnPs3sCRk_c7jmDUyi_9S9ACfaEny-_9ayUz1ycmN3mlEoDTRxvRD6_3mpShzTLzii0wXLJ-rLcgA9haHrBfLjBxDNJU5MWDOSt354z4gvXXolY0oU96OPEpUyMzhPzZye5fPWTOssZMouWnAX6F5F5V-YseLi3LP36thlxOisZU7tzyy8nT2xSIHDP5U_gwREe_2UoGR3RD3crhlZ-QJrQzg69k_fnTIPTynZkiT-Es0FYD4Sn4Cu7]--></g></svg>