<?xml version="1.0" encoding="us-ascii" standalone="no"?><svg xmlns="http://www.w3.org/2000/svg" xmlns:xlink="http://www.w3.org/1999/xlink" contentStyleType="text/css" height="497.4px" preserveAspectRatio="none" style="width:708px;height:497px;background:#FFFFFF;" version="1.1" viewBox="0 0 708 497" width="708px" zoomAndPan="magnify"><defs/><g><!--class RegisterVehicleUI--><g id="elem_RegisterVehicleUI"><rect codeLine="11" fill="#F1F1F1" height="28.8" id="RegisterVehicleUI" rx="1.5" ry="1.5" style="stroke:#181818;stroke-width:0.3;" width="85.8" x="239.7" y="4.2"/><ellipse cx="248.7" cy="13.8" fill="#ADD1B2" rx="6.6" ry="6.6" style="stroke:#181818;stroke-width:0.6;"/><path d="M250.3594,11.325 Q250.4531,11.1938 250.5656,11.1281 Q250.6781,11.0625 250.8094,11.0625 Q251.0344,11.0625 251.175,11.2219 Q251.3156,11.3719 251.3156,11.7375 L251.3156,12.6094 Q251.3156,12.975 251.175,13.1344 Q251.0344,13.2938 250.8094,13.2938 Q250.6031,13.2938 250.4813,13.1719 Q250.3594,13.0594 250.2938,12.75 Q250.2656,12.5344 250.1531,12.4219 Q249.9562,12.1969 249.5906,12.0656 Q249.225,11.9344 248.85,11.9344 Q248.3906,11.9344 248.0063,12.1313 Q247.6313,12.3281 247.3312,12.7781 Q247.0406,13.2281 247.0406,13.8469 L247.0406,14.5031 Q247.0406,15.2437 247.575,15.7406 Q248.1094,16.2281 249.0656,16.2281 Q249.6281,16.2281 250.0219,16.0781 Q250.2563,15.9844 250.5094,15.7219 Q250.6688,15.5625 250.7531,15.5156 Q250.8469,15.4688 250.9688,15.4688 Q251.1656,15.4688 251.3156,15.6281 Q251.475,15.7781 251.475,15.9844 Q251.475,16.1906 251.2687,16.4344 Q250.9688,16.7813 250.4906,16.9781 Q249.8438,17.25 249.0656,17.25 Q248.1563,17.25 247.4344,16.875 Q246.8438,16.575 246.4312,15.9375 Q246.0187,15.2906 246.0187,14.5219 L246.0187,13.8281 Q246.0187,13.0313 246.3844,12.3469 Q246.7594,11.6531 247.4156,11.2875 Q248.0719,10.9125 248.8125,10.9125 Q249.2531,10.9125 249.6375,11.0156 Q250.0313,11.1094 250.3594,11.325 Z " fill="#000000"/><text fill="#000000" font-family="sans-serif" font-size="8.4" lengthAdjust="spacing" textLength="66.6" x="257.1" y="17.2781">RegisterVehicleUI</text><line style="stroke:#181818;stroke-width:0.3;" x1="240.3" x2="324.9" y1="23.4" y2="23.4"/><line style="stroke:#181818;stroke-width:0.3;" x1="240.3" x2="324.9" y1="28.2" y2="28.2"/></g><!--class RegisterVehicleControlller--><g id="elem_RegisterVehicleControlller"><rect codeLine="15" fill="#F1F1F1" height="51.1453" id="RegisterVehicleControlller" rx="1.5" ry="1.5" style="stroke:#181818;stroke-width:0.3;" width="556.8" x="4.2" y="69"/><ellipse cx="230.85" cy="78.6" fill="#ADD1B2" rx="6.6" ry="6.6" style="stroke:#181818;stroke-width:0.6;"/><path d="M232.5094,76.125 Q232.6031,75.9937 232.7156,75.9281 Q232.8281,75.8625 232.9594,75.8625 Q233.1844,75.8625 233.325,76.0219 Q233.4656,76.1719 233.4656,76.5375 L233.4656,77.4094 Q233.4656,77.775 233.325,77.9344 Q233.1844,78.0938 232.9594,78.0938 Q232.7531,78.0938 232.6313,77.9719 Q232.5094,77.8594 232.4438,77.55 Q232.4156,77.3344 232.3031,77.2219 Q232.1063,76.9969 231.7406,76.8656 Q231.375,76.7344 231,76.7344 Q230.5406,76.7344 230.1563,76.9312 Q229.7813,77.1281 229.4813,77.5781 Q229.1906,78.0281 229.1906,78.6469 L229.1906,79.3031 Q229.1906,80.0438 229.725,80.5406 Q230.2594,81.0281 231.2156,81.0281 Q231.7781,81.0281 232.1719,80.8781 Q232.4063,80.7844 232.6594,80.5219 Q232.8188,80.3625 232.9031,80.3156 Q232.9969,80.2688 233.1187,80.2688 Q233.3156,80.2688 233.4656,80.4281 Q233.625,80.5781 233.625,80.7844 Q233.625,80.9906 233.4188,81.2344 Q233.1187,81.5813 232.6406,81.7781 Q231.9937,82.05 231.2156,82.05 Q230.3063,82.05 229.5844,81.675 Q228.9938,81.375 228.5812,80.7375 Q228.1688,80.0906 228.1688,79.3219 L228.1688,78.6281 Q228.1688,77.8313 228.5344,77.1469 Q228.9094,76.4531 229.5656,76.0875 Q230.2219,75.7125 230.9625,75.7125 Q231.4031,75.7125 231.7875,75.8156 Q232.1812,75.9094 232.5094,76.125 Z " fill="#000000"/><text fill="#000000" font-family="sans-serif" font-size="8.4" lengthAdjust="spacing" textLength="98.4" x="243.15" y="82.0781">RegisterVehicleControlller</text><line style="stroke:#181818;stroke-width:0.3;" x1="4.8" x2="560.4" y1="88.2" y2="88.2"/><line style="stroke:#181818;stroke-width:0.3;" x1="4.8" x2="560.4" y1="93" y2="93"/><text fill="#000000" font-family="sans-serif" font-size="8.4" lengthAdjust="spacing" textLength="107.4" x="7.8" y="104.4645">+RegisterVehicleController()</text><text fill="#000000" font-family="sans-serif" font-size="8.4" lengthAdjust="spacing" textLength="549.6" x="7.8" y="115.6371">+registerVehicle(brand, model, tare, grossWeight, currentKm, registerDate, acquisitionDate, maintenanceCheckUpFrequency, plateNumber, type)</text></g><!--class VehicleRepository--><g id="elem_VehicleRepository"><rect codeLine="20" fill="#F1F1F1" height="62.318" id="VehicleRepository" rx="1.5" ry="1.5" style="stroke:#181818;stroke-width:0.3;" width="556.8" x="4.2" y="254.4"/><ellipse cx="245.85" cy="264" fill="#ADD1B2" rx="6.6" ry="6.6" style="stroke:#181818;stroke-width:0.6;"/><path d="M247.5094,261.525 Q247.6031,261.3938 247.7156,261.3281 Q247.8281,261.2625 247.9594,261.2625 Q248.1844,261.2625 248.325,261.4219 Q248.4656,261.5719 248.4656,261.9375 L248.4656,262.8094 Q248.4656,263.175 248.325,263.3344 Q248.1844,263.4938 247.9594,263.4938 Q247.7531,263.4938 247.6313,263.3719 Q247.5094,263.2594 247.4438,262.95 Q247.4156,262.7344 247.3031,262.6219 Q247.1063,262.3969 246.7406,262.2656 Q246.375,262.1344 246,262.1344 Q245.5406,262.1344 245.1563,262.3313 Q244.7813,262.5281 244.4813,262.9781 Q244.1906,263.4281 244.1906,264.0469 L244.1906,264.7031 Q244.1906,265.4437 244.725,265.9406 Q245.2594,266.4281 246.2156,266.4281 Q246.7781,266.4281 247.1719,266.2781 Q247.4063,266.1844 247.6594,265.9219 Q247.8188,265.7625 247.9031,265.7156 Q247.9969,265.6688 248.1187,265.6688 Q248.3156,265.6688 248.4656,265.8281 Q248.625,265.9781 248.625,266.1844 Q248.625,266.3906 248.4188,266.6344 Q248.1187,266.9813 247.6406,267.1781 Q246.9937,267.45 246.2156,267.45 Q245.3062,267.45 244.5844,267.075 Q243.9937,266.775 243.5812,266.1375 Q243.1688,265.4906 243.1688,264.7219 L243.1688,264.0281 Q243.1688,263.2313 243.5344,262.5469 Q243.9094,261.8531 244.5656,261.4875 Q245.2219,261.1125 245.9625,261.1125 Q246.4031,261.1125 246.7875,261.2156 Q247.1812,261.3094 247.5094,261.525 Z " fill="#000000"/><text fill="#000000" font-family="sans-serif" font-size="8.4" lengthAdjust="spacing" textLength="68.4" x="258.15" y="267.4781">VehicleRepository</text><line style="stroke:#181818;stroke-width:0.3;" x1="4.8" x2="560.4" y1="273.6" y2="273.6"/><line style="stroke:#181818;stroke-width:0.3;" x1="4.8" x2="560.4" y1="278.4" y2="278.4"/><text fill="#000000" font-family="sans-serif" font-size="8.4" lengthAdjust="spacing" textLength="77.4" x="7.8" y="289.8645">-addVehicle(vehicle)</text><text fill="#000000" font-family="sans-serif" font-size="8.4" lengthAdjust="spacing" textLength="92.4" x="7.8" y="301.0371">-validateVehicle(vehicle)</text><text fill="#000000" font-family="sans-serif" font-size="8.4" lengthAdjust="spacing" textLength="549.6" x="7.8" y="312.2098">+registerVehicle(brand, model, tare, grossWeight, currentKm, registerDate, acquisitionDate, maintenanceCheckUpFrequency, plateNumber, type)</text></g><!--class Vehicle--><g id="elem_Vehicle"><rect codeLine="26" fill="#F1F1F1" height="140.5266" id="Vehicle" rx="1.5" ry="1.5" style="stroke:#181818;stroke-width:0.3;" width="528" x="175.8" y="352.8"/><ellipse cx="423.45" cy="362.4" fill="#ADD1B2" rx="6.6" ry="6.6" style="stroke:#181818;stroke-width:0.6;"/><path d="M425.1094,359.925 Q425.2031,359.7938 425.3156,359.7281 Q425.4281,359.6625 425.5594,359.6625 Q425.7844,359.6625 425.925,359.8219 Q426.0656,359.9719 426.0656,360.3375 L426.0656,361.2094 Q426.0656,361.575 425.925,361.7344 Q425.7844,361.8938 425.5594,361.8938 Q425.3531,361.8938 425.2313,361.7719 Q425.1094,361.6594 425.0438,361.35 Q425.0156,361.1344 424.9031,361.0219 Q424.7063,360.7969 424.3406,360.6656 Q423.975,360.5344 423.6,360.5344 Q423.1406,360.5344 422.7562,360.7313 Q422.3812,360.9281 422.0813,361.3781 Q421.7906,361.8281 421.7906,362.4469 L421.7906,363.1031 Q421.7906,363.8438 422.325,364.3406 Q422.8594,364.8281 423.8156,364.8281 Q424.3781,364.8281 424.7719,364.6781 Q425.0062,364.5844 425.2594,364.3219 Q425.4188,364.1625 425.5031,364.1156 Q425.5969,364.0687 425.7188,364.0687 Q425.9156,364.0687 426.0656,364.2281 Q426.225,364.3781 426.225,364.5844 Q426.225,364.7906 426.0188,365.0344 Q425.7188,365.3812 425.2406,365.5781 Q424.5938,365.85 423.8156,365.85 Q422.9063,365.85 422.1844,365.475 Q421.5938,365.175 421.1813,364.5375 Q420.7688,363.8906 420.7688,363.1219 L420.7688,362.4281 Q420.7688,361.6312 421.1344,360.9469 Q421.5094,360.2531 422.1656,359.8875 Q422.8219,359.5125 423.5625,359.5125 Q424.0031,359.5125 424.3875,359.6156 Q424.7813,359.7094 425.1094,359.925 Z " fill="#000000"/><text fill="#000000" font-family="sans-serif" font-size="8.4" lengthAdjust="spacing" textLength="27.6" x="435.75" y="365.8781">Vehicle</text><line style="stroke:#181818;stroke-width:0.3;" x1="176.4" x2="703.2" y1="372" y2="372"/><text fill="#000000" font-family="sans-serif" font-size="8.4" lengthAdjust="spacing" textLength="49.8" x="179.4" y="383.4645">-String brand</text><text fill="#000000" font-family="sans-serif" font-size="8.4" lengthAdjust="spacing" textLength="50.4" x="179.4" y="394.6371">-String model</text><text fill="#000000" font-family="sans-serif" font-size="8.4" lengthAdjust="spacing" textLength="29.4" x="179.4" y="405.8098">-int tare</text><text fill="#000000" font-family="sans-serif" font-size="8.4" lengthAdjust="spacing" textLength="61.8" x="179.4" y="416.9824">-int grossWeight</text><text fill="#000000" font-family="sans-serif" font-size="8.4" lengthAdjust="spacing" textLength="53.4" x="179.4" y="428.1551">-int currentKm</text><text fill="#000000" font-family="sans-serif" font-size="8.4" lengthAdjust="spacing" textLength="74.4" x="179.4" y="439.3277">-String registerDate</text><text fill="#000000" font-family="sans-serif" font-size="8.4" lengthAdjust="spacing" textLength="85.8" x="179.4" y="450.5004">-String acquisitionDate</text><text fill="#000000" font-family="sans-serif" font-size="8.4" lengthAdjust="spacing" textLength="138" x="179.4" y="461.673">-int maintenanceCheckUpFrequency</text><text fill="#000000" font-family="sans-serif" font-size="8.4" lengthAdjust="spacing" textLength="63.6" x="179.4" y="472.8457">-String idNumber</text><line style="stroke:#181818;stroke-width:0.3;" x1="176.4" x2="703.2" y1="477.3539" y2="477.3539"/><text fill="#000000" font-family="sans-serif" font-size="8.4" lengthAdjust="spacing" textLength="520.8" x="179.4" y="488.8184">+Vehicle(brand, model, tare, grossWeight, currentKm, registerDate, acquisitionDate, maintenanceCheckUpFrequency, plateNumber, type)</text></g><!--class FM--><g id="elem_FM"><rect codeLine="40" fill="#F1F1F1" height="39.9727" id="FM" rx="1.5" ry="1.5" style="stroke:#181818;stroke-width:0.3;" width="31.2" x="582" y="265.5"/><ellipse cx="591" cy="275.1" fill="#ADD1B2" rx="6.6" ry="6.6" style="stroke:#181818;stroke-width:0.6;"/><path d="M592.6594,272.625 Q592.7531,272.4938 592.8656,272.4281 Q592.9781,272.3625 593.1094,272.3625 Q593.3344,272.3625 593.475,272.5219 Q593.6156,272.6719 593.6156,273.0375 L593.6156,273.9094 Q593.6156,274.275 593.475,274.4344 Q593.3344,274.5938 593.1094,274.5938 Q592.9031,274.5938 592.7813,274.4719 Q592.6594,274.3594 592.5938,274.05 Q592.5656,273.8344 592.4531,273.7219 Q592.2563,273.4969 591.8906,273.3656 Q591.525,273.2344 591.15,273.2344 Q590.6906,273.2344 590.3063,273.4313 Q589.9313,273.6281 589.6313,274.0781 Q589.3406,274.5281 589.3406,275.1469 L589.3406,275.8031 Q589.3406,276.5438 589.875,277.0406 Q590.4094,277.5281 591.3656,277.5281 Q591.9281,277.5281 592.3219,277.3781 Q592.5563,277.2844 592.8094,277.0219 Q592.9688,276.8625 593.0531,276.8156 Q593.1469,276.7688 593.2688,276.7688 Q593.4656,276.7688 593.6156,276.9281 Q593.775,277.0781 593.775,277.2844 Q593.775,277.4906 593.5688,277.7344 Q593.2688,278.0813 592.7906,278.2781 Q592.1438,278.55 591.3656,278.55 Q590.4563,278.55 589.7344,278.175 Q589.1438,277.875 588.7312,277.2375 Q588.3188,276.5906 588.3188,275.8219 L588.3188,275.1281 Q588.3188,274.3313 588.6844,273.6469 Q589.0594,272.9531 589.7156,272.5875 Q590.3719,272.2125 591.1125,272.2125 Q591.5531,272.2125 591.9375,272.3156 Q592.3313,272.4094 592.6594,272.625 Z " fill="#000000"/><text fill="#000000" font-family="sans-serif" font-size="8.4" lengthAdjust="spacing" textLength="12" x="599.4" y="278.5781">FM</text><line style="stroke:#181818;stroke-width:0.3;" x1="582.6" x2="612.6" y1="284.7" y2="284.7"/><text fill="#000000" font-family="sans-serif" font-size="8.4" lengthAdjust="spacing" textLength="24" x="585.6" y="296.1645">-name</text><line style="stroke:#181818;stroke-width:0.3;" x1="582.6" x2="612.6" y1="300.6727" y2="300.6727"/></g><!--class Repositories--><g id="elem_Repositories"><rect codeLine="44" fill="#F1F1F1" height="62.318" id="Repositories" rx="1.5" ry="1.5" style="stroke:#181818;stroke-width:0.3;" width="116.4" x="269.4" y="156"/><ellipse cx="301.35" cy="165.6" fill="#ADD1B2" rx="6.6" ry="6.6" style="stroke:#181818;stroke-width:0.6;"/><path d="M303.0094,163.125 Q303.1031,162.9938 303.2156,162.9281 Q303.3281,162.8625 303.4594,162.8625 Q303.6844,162.8625 303.825,163.0219 Q303.9656,163.1719 303.9656,163.5375 L303.9656,164.4094 Q303.9656,164.775 303.825,164.9344 Q303.6844,165.0938 303.4594,165.0938 Q303.2531,165.0938 303.1312,164.9719 Q303.0094,164.8594 302.9437,164.55 Q302.9156,164.3344 302.8031,164.2219 Q302.6063,163.9969 302.2406,163.8656 Q301.875,163.7344 301.5,163.7344 Q301.0406,163.7344 300.6563,163.9313 Q300.2813,164.1281 299.9813,164.5781 Q299.6906,165.0281 299.6906,165.6469 L299.6906,166.3031 Q299.6906,167.0438 300.225,167.5406 Q300.7594,168.0281 301.7156,168.0281 Q302.2781,168.0281 302.6719,167.8781 Q302.9063,167.7844 303.1594,167.5219 Q303.3187,167.3625 303.4031,167.3156 Q303.4969,167.2687 303.6188,167.2687 Q303.8156,167.2687 303.9656,167.4281 Q304.125,167.5781 304.125,167.7844 Q304.125,167.9906 303.9188,168.2344 Q303.6188,168.5812 303.1406,168.7781 Q302.4938,169.05 301.7156,169.05 Q300.8063,169.05 300.0844,168.675 Q299.4938,168.375 299.0813,167.7375 Q298.6688,167.0906 298.6688,166.3219 L298.6688,165.6281 Q298.6688,164.8312 299.0344,164.1469 Q299.4094,163.4531 300.0656,163.0875 Q300.7219,162.7125 301.4625,162.7125 Q301.9031,162.7125 302.2875,162.8156 Q302.6813,162.9094 303.0094,163.125 Z " fill="#000000"/><text fill="#000000" font-family="sans-serif" font-size="8.4" lengthAdjust="spacing" textLength="47.4" x="313.65" y="169.0781">Repositories</text><line style="stroke:#181818;stroke-width:0.3;" x1="270" x2="385.2" y1="175.2" y2="175.2"/><line style="stroke:#181818;stroke-width:0.3;" x1="270" x2="385.2" y1="180" y2="180"/><text fill="#000000" font-family="sans-serif" font-size="8.4" lengthAdjust="spacing" textLength="56.4" x="273" y="191.4645">-Repositories()</text><text fill="#000000" font-family="sans-serif" font-size="8.4" lengthAdjust="spacing" textLength="109.2" x="273" y="202.6371">+getInstance() : Repositories</text><text fill="#000000" font-family="sans-serif" font-size="8.4" lengthAdjust="spacing" textLength="91.2" x="273" y="213.8098">+getVehicleRepository()</text></g><!--link RegisterVehicleUI to RegisterVehicleControlller--><g id="link_RegisterVehicleUI_RegisterVehicleControlller"><path codeLine="50" d="M282.6,33.078 C282.6,43.116 282.6,53.364 282.6,65.316 " fill="none" id="RegisterVehicleUI-to-RegisterVehicleControlller" style="stroke:#181818;stroke-width:0.6;stroke-dasharray:7.0,7.0;"/><polygon fill="#181818" points="282.6,68.916,285,63.516,282.6,65.916,280.2,63.516,282.6,68.916" style="stroke:#181818;stroke-width:0.6;"/></g><!--link RegisterVehicleControlller to Repositories--><g id="link_RegisterVehicleControlller_Repositories"><path codeLine="51" d="M294.894,120.102 C300.336,131.16 305.198,141.0392 310.922,152.6852 " fill="none" id="RegisterVehicleControlller-to-Repositories" style="stroke:#181818;stroke-width:0.6;stroke-dasharray:7.0,7.0;"/><polygon fill="#181818" points="312.51,155.916,312.282,150.0111,311.1867,153.2236,307.9742,152.1284,312.51,155.916" style="stroke:#181818;stroke-width:0.6;"/></g><!--link RegisterVehicleControlller to VehicleRepository--><g id="link_RegisterVehicleControlller_VehicleRepository"><path codeLine="52" d="M272.772,120.048 C266.142,136.866 258.6,156 258.6,156 C258.6,156 258.6,218.4 258.6,218.4 C258.6,218.4 264.0035,233.3972 270.2915,250.8452 " fill="none" id="RegisterVehicleControlller-to-VehicleRepository" style="stroke:#181818;stroke-width:0.6;stroke-dasharray:7.0,7.0;"/><polygon fill="#181818" points="271.512,254.232,271.939,248.3381,270.4949,251.4097,267.4233,249.9655,271.512,254.232" style="stroke:#181818;stroke-width:0.6;"/></g><!--link VehicleRepository to Vehicle--><g id="link_VehicleRepository_Vehicle"><path codeLine="53" d="M318.072,316.938 C330.438,327.648 342.1352,337.7826 356.6432,350.3526 " fill="none" id="VehicleRepository-to-Vehicle" style="stroke:#181818;stroke-width:0.6;"/><polygon fill="#181818" points="359.364,352.71,356.8544,347.3601,357.0967,350.7455,353.7112,350.9878,359.364,352.71" style="stroke:#181818;stroke-width:0.6;"/></g><!--link FM to Vehicle--><g id="link_FM_Vehicle"><path codeLine="54" d="M581.994,304.704 C576.564,311.148 571.8,316.8 571.8,316.8 C571.8,316.8 554.3671,330.7451 529.7371,350.4491 " fill="none" id="FM-to-Vehicle" style="stroke:#181818;stroke-width:0.6;"/><polygon fill="#181818" points="526.926,352.698,532.642,351.1987,529.2686,350.8239,529.6434,347.4506,526.926,352.698" style="stroke:#181818;stroke-width:0.6;"/></g><!--link Repositories to VehicleRepository--><g id="link_Repositories_VehicleRepository"><path codeLine="55" d="M313.362,218.556 C308.082,229.956 303.613,239.6134 298.333,251.0134 " fill="none" id="Repositories-to-VehicleRepository" style="stroke:#181818;stroke-width:0.6;"/><polygon fill="#181818" points="296.82,254.28,301.2672,250.3887,298.0808,251.5578,296.9117,248.3714,296.82,254.28" style="stroke:#181818;stroke-width:0.6;"/></g><!--SRC=[pLF1Rjim3BthAtXBWZd5pZqK65eK28RjqA3TcP5PMuWikHJTmItsxvNjE9QRDhis5qFa8_dU2xa8U-DgPAoWyixhadr58DoGcZ8rwZqMj9NM4Z1fGLVO511ApFrVumfuH1lIZ3MEfAq9Qc_Rxg4M7oGzYrT9bROOmWyHDhj6QAEzsveNWkzABImz2eW7DaKfa9kEZl5EgRu6xgWmGOWVg3JQqlq6NfNwzqdssZjXRwqbZZ28ls-V88YNgm70Sy1on-ZoB9gNayr0a2c3Wdq8VwXZc85kcCd9pog3iVO69Q9GFpKcc8xz4AZGE267JjDrINf_NzyoFJNaT9j1RIFcTrFjYEEOQDfgadNWSaUrZ_qyjmSrQyppaUVpy1rKh9_HcZms_33xbJMEohPnD-AwzSncaPxa48cJUhBJAo4z1O_aPtrI7RF4EqbJdpFIPWrCFaWSlFu27ayct_uQ_GM75QM7SrWjG-48IOFZUK11id51kk7B5LpEG1FaP6EN_LzzUhqN5rTdhbQTEUYXCXd-7-m99NLwLklr4QUYL-bpvb2IIFgz0G00]--></g></svg>