<?xml version="1.0" encoding="us-ascii" standalone="no"?><svg xmlns="http://www.w3.org/2000/svg" xmlns:xlink="http://www.w3.org/1999/xlink" contentStyleType="text/css" height="494px" preserveAspectRatio="none" style="width:272px;height:494px;background:#FFFFFF;" version="1.1" viewBox="0 0 272 494" width="272px" zoomAndPan="magnify"><defs/><g><!--class RegisterVehicleUI--><g id="elem_RegisterVehicleUI"><rect codeLine="11" fill="#F1F1F1" height="48" id="RegisterVehicleUI" rx="2.5" ry="2.5" style="stroke:#181818;stroke-width:0.5;" width="143" x="33.5" y="7"/><ellipse cx="48.5" cy="23" fill="#ADD1B2" rx="11" ry="11" style="stroke:#181818;stroke-width:1.0;"/><path d="M51.2656,18.875 Q51.4219,18.6563 51.6094,18.5469 Q51.7969,18.4375 52.0156,18.4375 Q52.3906,18.4375 52.625,18.7031 Q52.8594,18.9531 52.8594,19.5625 L52.8594,21.0156 Q52.8594,21.625 52.625,21.8906 Q52.3906,22.1563 52.0156,22.1563 Q51.6719,22.1563 51.4688,21.9531 Q51.2656,21.7656 51.1563,21.25 Q51.1094,20.8906 50.9219,20.7031 Q50.5938,20.3281 49.9844,20.1094 Q49.375,19.8906 48.75,19.8906 Q47.9844,19.8906 47.3438,20.2188 Q46.7188,20.5469 46.2188,21.2969 Q45.7344,22.0469 45.7344,23.0781 L45.7344,24.1719 Q45.7344,25.4063 46.625,26.2344 Q47.5156,27.0469 49.1094,27.0469 Q50.0469,27.0469 50.7031,26.7969 Q51.0938,26.6406 51.5156,26.2031 Q51.7813,25.9375 51.9219,25.8594 Q52.0781,25.7813 52.2813,25.7813 Q52.6094,25.7813 52.8594,26.0469 Q53.125,26.2969 53.125,26.6406 Q53.125,26.9844 52.7813,27.3906 Q52.2813,27.9688 51.4844,28.2969 Q50.4063,28.75 49.1094,28.75 Q47.5938,28.75 46.3906,28.125 Q45.4063,27.625 44.7188,26.5625 Q44.0313,25.4844 44.0313,24.2031 L44.0313,23.0469 Q44.0313,21.7188 44.6406,20.5781 Q45.2656,19.4219 46.3594,18.8125 Q47.4531,18.1875 48.6875,18.1875 Q49.4219,18.1875 50.0625,18.3594 Q50.7188,18.5156 51.2656,18.875 Z " fill="#000000"/><text fill="#000000" font-family="sans-serif" font-size="14" lengthAdjust="spacing" textLength="111" x="62.5" y="28.7969">RegisterVehicleUI</text><line style="stroke:#181818;stroke-width:0.5;" x1="34.5" x2="175.5" y1="39" y2="39"/><line style="stroke:#181818;stroke-width:0.5;" x1="34.5" x2="175.5" y1="47" y2="47"/></g><!--class RegisterVehicleControlller--><g id="elem_RegisterVehicleControlller"><rect codeLine="15" fill="#F1F1F1" height="48" id="RegisterVehicleControlller" rx="2.5" ry="2.5" style="stroke:#181818;stroke-width:0.5;" width="196" x="7" y="115"/><ellipse cx="22" cy="131" fill="#ADD1B2" rx="11" ry="11" style="stroke:#181818;stroke-width:1.0;"/><path d="M24.7656,126.875 Q24.9219,126.6563 25.1094,126.5469 Q25.2969,126.4375 25.5156,126.4375 Q25.8906,126.4375 26.125,126.7031 Q26.3594,126.9531 26.3594,127.5625 L26.3594,129.0156 Q26.3594,129.625 26.125,129.8906 Q25.8906,130.1563 25.5156,130.1563 Q25.1719,130.1563 24.9688,129.9531 Q24.7656,129.7656 24.6563,129.25 Q24.6094,128.8906 24.4219,128.7031 Q24.0938,128.3281 23.4844,128.1094 Q22.875,127.8906 22.25,127.8906 Q21.4844,127.8906 20.8438,128.2188 Q20.2188,128.5469 19.7188,129.2969 Q19.2344,130.0469 19.2344,131.0781 L19.2344,132.1719 Q19.2344,133.4063 20.125,134.2344 Q21.0156,135.0469 22.6094,135.0469 Q23.5469,135.0469 24.2031,134.7969 Q24.5938,134.6406 25.0156,134.2031 Q25.2813,133.9375 25.4219,133.8594 Q25.5781,133.7813 25.7813,133.7813 Q26.1094,133.7813 26.3594,134.0469 Q26.625,134.2969 26.625,134.6406 Q26.625,134.9844 26.2813,135.3906 Q25.7813,135.9688 24.9844,136.2969 Q23.9063,136.75 22.6094,136.75 Q21.0938,136.75 19.8906,136.125 Q18.9063,135.625 18.2188,134.5625 Q17.5313,133.4844 17.5313,132.2031 L17.5313,131.0469 Q17.5313,129.7188 18.1406,128.5781 Q18.7656,127.4219 19.8594,126.8125 Q20.9531,126.1875 22.1875,126.1875 Q22.9219,126.1875 23.5625,126.3594 Q24.2188,126.5156 24.7656,126.875 Z " fill="#000000"/><text fill="#000000" font-family="sans-serif" font-size="14" lengthAdjust="spacing" textLength="164" x="36" y="136.7969">RegisterVehicleControlller</text><line style="stroke:#181818;stroke-width:0.5;" x1="8" x2="202" y1="147" y2="147"/><line style="stroke:#181818;stroke-width:0.5;" x1="8" x2="202" y1="155" y2="155"/></g><!--class VehicleRepository--><g id="elem_VehicleRepository"><rect codeLine="19" fill="#F1F1F1" height="48" id="VehicleRepository" rx="2.5" ry="2.5" style="stroke:#181818;stroke-width:0.5;" width="146" x="32" y="331"/><ellipse cx="47" cy="347" fill="#ADD1B2" rx="11" ry="11" style="stroke:#181818;stroke-width:1.0;"/><path d="M49.7656,342.875 Q49.9219,342.6563 50.1094,342.5469 Q50.2969,342.4375 50.5156,342.4375 Q50.8906,342.4375 51.125,342.7031 Q51.3594,342.9531 51.3594,343.5625 L51.3594,345.0156 Q51.3594,345.625 51.125,345.8906 Q50.8906,346.1563 50.5156,346.1563 Q50.1719,346.1563 49.9688,345.9531 Q49.7656,345.7656 49.6563,345.25 Q49.6094,344.8906 49.4219,344.7031 Q49.0938,344.3281 48.4844,344.1094 Q47.875,343.8906 47.25,343.8906 Q46.4844,343.8906 45.8438,344.2188 Q45.2188,344.5469 44.7188,345.2969 Q44.2344,346.0469 44.2344,347.0781 L44.2344,348.1719 Q44.2344,349.4063 45.125,350.2344 Q46.0156,351.0469 47.6094,351.0469 Q48.5469,351.0469 49.2031,350.7969 Q49.5938,350.6406 50.0156,350.2031 Q50.2813,349.9375 50.4219,349.8594 Q50.5781,349.7813 50.7813,349.7813 Q51.1094,349.7813 51.3594,350.0469 Q51.625,350.2969 51.625,350.6406 Q51.625,350.9844 51.2813,351.3906 Q50.7813,351.9688 49.9844,352.2969 Q48.9063,352.75 47.6094,352.75 Q46.0938,352.75 44.8906,352.125 Q43.9063,351.625 43.2188,350.5625 Q42.5313,349.4844 42.5313,348.2031 L42.5313,347.0469 Q42.5313,345.7188 43.1406,344.5781 Q43.7656,343.4219 44.8594,342.8125 Q45.9531,342.1875 47.1875,342.1875 Q47.9219,342.1875 48.5625,342.3594 Q49.2188,342.5156 49.7656,342.875 Z " fill="#000000"/><text fill="#000000" font-family="sans-serif" font-size="14" lengthAdjust="spacing" textLength="114" x="61" y="352.7969">VehicleRepository</text><line style="stroke:#181818;stroke-width:0.5;" x1="33" x2="177" y1="363" y2="363"/><line style="stroke:#181818;stroke-width:0.5;" x1="33" x2="177" y1="371" y2="371"/></g><!--class Vehicle--><g id="elem_Vehicle"><rect codeLine="23" fill="#F1F1F1" height="48" id="Vehicle" rx="2.5" ry="2.5" style="stroke:#181818;stroke-width:0.5;" width="78" x="133" y="439"/><ellipse cx="148" cy="455" fill="#ADD1B2" rx="11" ry="11" style="stroke:#181818;stroke-width:1.0;"/><path d="M150.7656,450.875 Q150.9219,450.6563 151.1094,450.5469 Q151.2969,450.4375 151.5156,450.4375 Q151.8906,450.4375 152.125,450.7031 Q152.3594,450.9531 152.3594,451.5625 L152.3594,453.0156 Q152.3594,453.625 152.125,453.8906 Q151.8906,454.1563 151.5156,454.1563 Q151.1719,454.1563 150.9688,453.9531 Q150.7656,453.7656 150.6563,453.25 Q150.6094,452.8906 150.4219,452.7031 Q150.0938,452.3281 149.4844,452.1094 Q148.875,451.8906 148.25,451.8906 Q147.4844,451.8906 146.8438,452.2188 Q146.2188,452.5469 145.7188,453.2969 Q145.2344,454.0469 145.2344,455.0781 L145.2344,456.1719 Q145.2344,457.4063 146.125,458.2344 Q147.0156,459.0469 148.6094,459.0469 Q149.5469,459.0469 150.2031,458.7969 Q150.5938,458.6406 151.0156,458.2031 Q151.2813,457.9375 151.4219,457.8594 Q151.5781,457.7813 151.7813,457.7813 Q152.1094,457.7813 152.3594,458.0469 Q152.625,458.2969 152.625,458.6406 Q152.625,458.9844 152.2813,459.3906 Q151.7813,459.9688 150.9844,460.2969 Q149.9063,460.75 148.6094,460.75 Q147.0938,460.75 145.8906,460.125 Q144.9063,459.625 144.2188,458.5625 Q143.5313,457.4844 143.5313,456.2031 L143.5313,455.0469 Q143.5313,453.7188 144.1406,452.5781 Q144.7656,451.4219 145.8594,450.8125 Q146.9531,450.1875 148.1875,450.1875 Q148.9219,450.1875 149.5625,450.3594 Q150.2188,450.5156 150.7656,450.875 Z " fill="#000000"/><text fill="#000000" font-family="sans-serif" font-size="14" lengthAdjust="spacing" textLength="46" x="162" y="460.7969">Vehicle</text><line style="stroke:#181818;stroke-width:0.5;" x1="134" x2="210" y1="471" y2="471"/><line style="stroke:#181818;stroke-width:0.5;" x1="134" x2="210" y1="479" y2="479"/></g><!--class FM--><g id="elem_FM"><rect codeLine="27" fill="#F1F1F1" height="48" id="FM" rx="2.5" ry="2.5" style="stroke:#181818;stroke-width:0.5;" width="52" x="213" y="331"/><ellipse cx="228" cy="347" fill="#ADD1B2" rx="11" ry="11" style="stroke:#181818;stroke-width:1.0;"/><path d="M230.7656,342.875 Q230.9219,342.6563 231.1094,342.5469 Q231.2969,342.4375 231.5156,342.4375 Q231.8906,342.4375 232.125,342.7031 Q232.3594,342.9531 232.3594,343.5625 L232.3594,345.0156 Q232.3594,345.625 232.125,345.8906 Q231.8906,346.1563 231.5156,346.1563 Q231.1719,346.1563 230.9688,345.9531 Q230.7656,345.7656 230.6563,345.25 Q230.6094,344.8906 230.4219,344.7031 Q230.0938,344.3281 229.4844,344.1094 Q228.875,343.8906 228.25,343.8906 Q227.4844,343.8906 226.8438,344.2188 Q226.2188,344.5469 225.7188,345.2969 Q225.2344,346.0469 225.2344,347.0781 L225.2344,348.1719 Q225.2344,349.4063 226.125,350.2344 Q227.0156,351.0469 228.6094,351.0469 Q229.5469,351.0469 230.2031,350.7969 Q230.5938,350.6406 231.0156,350.2031 Q231.2813,349.9375 231.4219,349.8594 Q231.5781,349.7813 231.7813,349.7813 Q232.1094,349.7813 232.3594,350.0469 Q232.625,350.2969 232.625,350.6406 Q232.625,350.9844 232.2813,351.3906 Q231.7813,351.9688 230.9844,352.2969 Q229.9063,352.75 228.6094,352.75 Q227.0938,352.75 225.8906,352.125 Q224.9063,351.625 224.2188,350.5625 Q223.5313,349.4844 223.5313,348.2031 L223.5313,347.0469 Q223.5313,345.7188 224.1406,344.5781 Q224.7656,343.4219 225.8594,342.8125 Q226.9531,342.1875 228.1875,342.1875 Q228.9219,342.1875 229.5625,342.3594 Q230.2188,342.5156 230.7656,342.875 Z " fill="#000000"/><text fill="#000000" font-family="sans-serif" font-size="14" lengthAdjust="spacing" textLength="20" x="242" y="352.7969">FM</text><line style="stroke:#181818;stroke-width:0.5;" x1="214" x2="264" y1="363" y2="363"/><line style="stroke:#181818;stroke-width:0.5;" x1="214" x2="264" y1="371" y2="371"/></g><!--class Repositories--><g id="elem_Repositories"><rect codeLine="31" fill="#F1F1F1" height="48" id="Repositories" rx="2.5" ry="2.5" style="stroke:#181818;stroke-width:0.5;" width="111" x="104.5" y="223"/><ellipse cx="119.5" cy="239" fill="#ADD1B2" rx="11" ry="11" style="stroke:#181818;stroke-width:1.0;"/><path d="M122.2656,234.875 Q122.4219,234.6563 122.6094,234.5469 Q122.7969,234.4375 123.0156,234.4375 Q123.3906,234.4375 123.625,234.7031 Q123.8594,234.9531 123.8594,235.5625 L123.8594,237.0156 Q123.8594,237.625 123.625,237.8906 Q123.3906,238.1563 123.0156,238.1563 Q122.6719,238.1563 122.4688,237.9531 Q122.2656,237.7656 122.1563,237.25 Q122.1094,236.8906 121.9219,236.7031 Q121.5938,236.3281 120.9844,236.1094 Q120.375,235.8906 119.75,235.8906 Q118.9844,235.8906 118.3438,236.2188 Q117.7188,236.5469 117.2188,237.2969 Q116.7344,238.0469 116.7344,239.0781 L116.7344,240.1719 Q116.7344,241.4063 117.625,242.2344 Q118.5156,243.0469 120.1094,243.0469 Q121.0469,243.0469 121.7031,242.7969 Q122.0938,242.6406 122.5156,242.2031 Q122.7813,241.9375 122.9219,241.8594 Q123.0781,241.7813 123.2813,241.7813 Q123.6094,241.7813 123.8594,242.0469 Q124.125,242.2969 124.125,242.6406 Q124.125,242.9844 123.7813,243.3906 Q123.2813,243.9688 122.4844,244.2969 Q121.4063,244.75 120.1094,244.75 Q118.5938,244.75 117.3906,244.125 Q116.4063,243.625 115.7188,242.5625 Q115.0313,241.4844 115.0313,240.2031 L115.0313,239.0469 Q115.0313,237.7188 115.6406,236.5781 Q116.2656,235.4219 117.3594,234.8125 Q118.4531,234.1875 119.6875,234.1875 Q120.4219,234.1875 121.0625,234.3594 Q121.7188,234.5156 122.2656,234.875 Z " fill="#000000"/><text fill="#000000" font-family="sans-serif" font-size="14" lengthAdjust="spacing" textLength="79" x="133.5" y="244.7969">Repositories</text><line style="stroke:#181818;stroke-width:0.5;" x1="105.5" x2="214.5" y1="255" y2="255"/><line style="stroke:#181818;stroke-width:0.5;" x1="105.5" x2="214.5" y1="263" y2="263"/></g><!--link RegisterVehicleUI to RegisterVehicleControlller--><g id="link_RegisterVehicleUI_RegisterVehicleControlller"><path codeLine="35" d="M105,55 C105,72.66 105,90.94 105,108.68 " fill="none" id="RegisterVehicleUI-to-RegisterVehicleControlller" style="stroke:#181818;stroke-width:1.0;stroke-dasharray:7.0,7.0;"/><polygon fill="#181818" points="105,114.68,109,105.68,105,109.68,101,105.68,105,114.68" style="stroke:#181818;stroke-width:1.0;"/></g><!--link RegisterVehicleControlller to Repositories--><g id="link_RegisterVehicleControlller_Repositories"><path codeLine="36" d="M116.93,163 C126.1,180.66 135.9377,199.6137 145.1377,217.3537 " fill="none" id="RegisterVehicleControlller-to-Repositories" style="stroke:#181818;stroke-width:1.0;stroke-dasharray:7.0,7.0;"/><polygon fill="#181818" points="147.9,222.68,147.3075,212.849,145.5981,218.2414,140.2057,216.532,147.9,222.68" style="stroke:#181818;stroke-width:1.0;"/></g><!--link RegisterVehicleControlller to VehicleRepository--><g id="link_RegisterVehicleControlller_VehicleRepository"><path codeLine="37" d="M99.99,163.12 C94.66,187.68 87,223 87,223 C87,223 87,271 87,271 C87,271 93.3875,300.4565 98.7175,325.0165 " fill="none" id="RegisterVehicleControlller-to-VehicleRepository" style="stroke:#181818;stroke-width:1.0;stroke-dasharray:7.0,7.0;"/><polygon fill="#181818" points="99.99,330.88,101.9903,321.2364,98.9296,325.9937,94.1722,322.9331,99.99,330.88" style="stroke:#181818;stroke-width:1.0;"/></g><!--link VehicleRepository to Vehicle--><g id="link_VehicleRepository_Vehicle"><path codeLine="38" d="M119.54,379 C130.7,396.66 142.8449,415.8678 154.0549,433.6078 " fill="none" id="VehicleRepository-to-Vehicle" style="stroke:#181818;stroke-width:1.0;"/><polygon fill="#181818" points="157.26,438.68,155.8337,428.935,154.589,434.4532,149.0708,433.2085,157.26,438.68" style="stroke:#181818;stroke-width:1.0;"/></g><!--link FM to Vehicle--><g id="link_FM_Vehicle"><path codeLine="39" d="M224.46,379 C213.3,396.66 201.1551,415.8678 189.9451,433.6078 " fill="none" id="FM-to-Vehicle" style="stroke:#181818;stroke-width:1.0;"/><polygon fill="#181818" points="186.74,438.68,194.9292,433.2085,189.411,434.4532,188.1663,428.935,186.74,438.68" style="stroke:#181818;stroke-width:1.0;"/></g><!--link Repositories to VehicleRepository--><g id="link_Repositories_VehicleRepository"><path codeLine="40" d="M148.07,271 C138.9,288.66 129.0623,307.6137 119.8623,325.3537 " fill="none" id="Repositories-to-VehicleRepository" style="stroke:#181818;stroke-width:1.0;"/><polygon fill="#181818" points="117.1,330.68,124.7943,324.532,119.4019,326.2414,117.6925,320.849,117.1,330.68" style="stroke:#181818;stroke-width:1.0;"/></g><!--SRC=[XO_1JiD034Jl_WhVSch55o0X9AGUkBIYzsNhRgmwwyZh2WN4lqCXeXjIoj5-C_PCKmwS-s2XmqwpnjQq8tGx4fn97-8X9Dhu88H6qKDEKWjA6tRwmZdXFaYfYN0c7th2NcKu3T1SW6gkKBcYX5Bkt8sVZqwhg7d3huGt08tGtj4LZLFhkEDJ7DOCyEN1DIKkJhQbbgFGqmhV0Dx_eFUQtLH4o2Qo4Q-fryAkDboYazt3uwy_evEfZ60URBcylH88hcJzTfvV_AUTzO5vmyNYHmUVRUfnqgO2rRqF]--></g></svg>