<?xml version="1.0" encoding="us-ascii" standalone="no"?><svg xmlns="http://www.w3.org/2000/svg" xmlns:xlink="http://www.w3.org/1999/xlink" contentStyleType="text/css" height="901.6px" preserveAspectRatio="none" style="width:796px;height:901px;background:#FFFFFF;" version="1.1" viewBox="0 0 796 901" width="796.8px" zoomAndPan="magnify"><defs/><g><!--class RegisterVehicleUI--><g id="elem_RegisterVehicleUI"><rect codeLine="11" fill="#F1F1F1" height="38.4" id="RegisterVehicleUI" rx="2" ry="2" style="stroke:#181818;stroke-width:0.4000000000000001;" width="114.4" x="362.8" y="20.4"/><ellipse cx="374.8" cy="33.2" fill="#ADD1B2" rx="8.8" ry="8.8" style="stroke:#181818;stroke-width:0.8000000000000002;"/><path d="M377.0125,29.9 Q377.1375,29.725 377.2875,29.6375 Q377.4375,29.55 377.6125,29.55 Q377.9125,29.55 378.1,29.7625 Q378.2875,29.9625 378.2875,30.45 L378.2875,31.6125 Q378.2875,32.1 378.1,32.3125 Q377.9125,32.525 377.6125,32.525 Q377.3375,32.525 377.175,32.3625 Q377.0125,32.2125 376.925,31.8 Q376.8875,31.5125 376.7375,31.3625 Q376.475,31.0625 375.9875,30.8875 Q375.5,30.7125 375,30.7125 Q374.3875,30.7125 373.875,30.975 Q373.375,31.2375 372.975,31.8375 Q372.5875,32.4375 372.5875,33.2625 L372.5875,34.1375 Q372.5875,35.125 373.3,35.7875 Q374.0125,36.4375 375.2875,36.4375 Q376.0375,36.4375 376.5625,36.2375 Q376.875,36.1125 377.2125,35.7625 Q377.425,35.55 377.5375,35.4875 Q377.6625,35.425 377.825,35.425 Q378.0875,35.425 378.2875,35.6375 Q378.5,35.8375 378.5,36.1125 Q378.5,36.3875 378.225,36.7125 Q377.825,37.175 377.1875,37.4375 Q376.325,37.8 375.2875,37.8 Q374.075,37.8 373.1125,37.3 Q372.325,36.9 371.775,36.05 Q371.225,35.1875 371.225,34.1625 L371.225,33.2375 Q371.225,32.175 371.7125,31.2625 Q372.2125,30.3375 373.0875,29.85 Q373.9625,29.35 374.95,29.35 Q375.5375,29.35 376.05,29.4875 Q376.575,29.6125 377.0125,29.9 Z " fill="#000000"/><text fill="#000000" font-family="sans-serif" font-size="11.2" lengthAdjust="spacing" textLength="88.8" x="386" y="37.8375">RegisterVehicleUI</text><line style="stroke:#181818;stroke-width:0.4000000000000001;" x1="363.6" x2="476.4" y1="46" y2="46"/><line style="stroke:#181818;stroke-width:0.4000000000000001;" x1="363.6" x2="476.4" y1="52.4" y2="52.4"/></g><!--class RegisterVehicleControlller--><g id="elem_RegisterVehicleControlller"><rect codeLine="15" fill="#F1F1F1" height="68.1938" id="RegisterVehicleControlller" rx="2" ry="2" style="stroke:#181818;stroke-width:0.4000000000000001;" width="742.4" x="48.8" y="122.4"/><ellipse cx="351" cy="135.2" fill="#ADD1B2" rx="8.8" ry="8.8" style="stroke:#181818;stroke-width:0.8000000000000002;"/><path d="M353.2125,131.9 Q353.3375,131.725 353.4875,131.6375 Q353.6375,131.55 353.8125,131.55 Q354.1125,131.55 354.3,131.7625 Q354.4875,131.9625 354.4875,132.45 L354.4875,133.6125 Q354.4875,134.1 354.3,134.3125 Q354.1125,134.525 353.8125,134.525 Q353.5375,134.525 353.375,134.3625 Q353.2125,134.2125 353.125,133.8 Q353.0875,133.5125 352.9375,133.3625 Q352.675,133.0625 352.1875,132.8875 Q351.7,132.7125 351.2,132.7125 Q350.5875,132.7125 350.075,132.975 Q349.575,133.2375 349.175,133.8375 Q348.7875,134.4375 348.7875,135.2625 L348.7875,136.1375 Q348.7875,137.125 349.5,137.7875 Q350.2125,138.4375 351.4875,138.4375 Q352.2375,138.4375 352.7625,138.2375 Q353.075,138.1125 353.4125,137.7625 Q353.625,137.55 353.7375,137.4875 Q353.8625,137.425 354.025,137.425 Q354.2875,137.425 354.4875,137.6375 Q354.7,137.8375 354.7,138.1125 Q354.7,138.3875 354.425,138.7125 Q354.025,139.175 353.3875,139.4375 Q352.525,139.8 351.4875,139.8 Q350.275,139.8 349.3125,139.3 Q348.525,138.9 347.975,138.05 Q347.425,137.1875 347.425,136.1625 L347.425,135.2375 Q347.425,134.175 347.9125,133.2625 Q348.4125,132.3375 349.2875,131.85 Q350.1625,131.35 351.15,131.35 Q351.7375,131.35 352.25,131.4875 Q352.775,131.6125 353.2125,131.9 Z " fill="#000000"/><text fill="#000000" font-family="sans-serif" font-size="11.2" lengthAdjust="spacing" textLength="131.2" x="367.4" y="139.8375">RegisterVehicleControlller</text><line style="stroke:#181818;stroke-width:0.4000000000000001;" x1="49.6" x2="790.4" y1="148" y2="148"/><line style="stroke:#181818;stroke-width:0.4000000000000001;" x1="49.6" x2="790.4" y1="154.4" y2="154.4"/><text fill="#000000" font-family="sans-serif" font-size="11.2" lengthAdjust="spacing" textLength="232.8" x="53.6" y="169.6859">+RegisterVehicleController(vehicleRepository)</text><text fill="#000000" font-family="sans-serif" font-size="11.2" lengthAdjust="spacing" textLength="732.8" x="53.6" y="184.5828">+registerVehicle(brand, model, tare, grossWeight, currentKm, registerDate, acquisitionDate, maintenanceCheckUpFrequency, plateNumber, type)</text></g><!--class VehicleRepository--><g id="elem_VehicleRepository"><rect codeLine="20" fill="#F1F1F1" height="83.0906" id="VehicleRepository" rx="2" ry="2" style="stroke:#181818;stroke-width:0.4000000000000001;" width="742.4" x="5.6" y="385.6"/><ellipse cx="327.8" cy="398.4" fill="#ADD1B2" rx="8.8" ry="8.8" style="stroke:#181818;stroke-width:0.8000000000000002;"/><path d="M330.0125,395.1 Q330.1375,394.925 330.2875,394.8375 Q330.4375,394.75 330.6125,394.75 Q330.9125,394.75 331.1,394.9625 Q331.2875,395.1625 331.2875,395.65 L331.2875,396.8125 Q331.2875,397.3 331.1,397.5125 Q330.9125,397.725 330.6125,397.725 Q330.3375,397.725 330.175,397.5625 Q330.0125,397.4125 329.925,397 Q329.8875,396.7125 329.7375,396.5625 Q329.475,396.2625 328.9875,396.0875 Q328.5,395.9125 328,395.9125 Q327.3875,395.9125 326.875,396.175 Q326.375,396.4375 325.975,397.0375 Q325.5875,397.6375 325.5875,398.4625 L325.5875,399.3375 Q325.5875,400.325 326.3,400.9875 Q327.0125,401.6375 328.2875,401.6375 Q329.0375,401.6375 329.5625,401.4375 Q329.875,401.3125 330.2125,400.9625 Q330.425,400.75 330.5375,400.6875 Q330.6625,400.625 330.825,400.625 Q331.0875,400.625 331.2875,400.8375 Q331.5,401.0375 331.5,401.3125 Q331.5,401.5875 331.225,401.9125 Q330.825,402.375 330.1875,402.6375 Q329.325,403 328.2875,403 Q327.075,403 326.1125,402.5 Q325.325,402.1 324.775,401.25 Q324.225,400.3875 324.225,399.3625 L324.225,398.4375 Q324.225,397.375 324.7125,396.4625 Q325.2125,395.5375 326.0875,395.05 Q326.9625,394.55 327.95,394.55 Q328.5375,394.55 329.05,394.6875 Q329.575,394.8125 330.0125,395.1 Z " fill="#000000"/><text fill="#000000" font-family="sans-serif" font-size="11.2" lengthAdjust="spacing" textLength="91.2" x="344.2" y="403.0375">VehicleRepository</text><line style="stroke:#181818;stroke-width:0.4000000000000001;" x1="6.4" x2="747.2" y1="411.2" y2="411.2"/><line style="stroke:#181818;stroke-width:0.4000000000000001;" x1="6.4" x2="747.2" y1="417.6" y2="417.6"/><text fill="#000000" font-family="sans-serif" font-size="11.2" lengthAdjust="spacing" textLength="103.2" x="10.4" y="432.8859">-addVehicle(vehicle)</text><text fill="#000000" font-family="sans-serif" font-size="11.2" lengthAdjust="spacing" textLength="123.2" x="10.4" y="447.7828">-validateVehicle(vehicle)</text><text fill="#000000" font-family="sans-serif" font-size="11.2" lengthAdjust="spacing" textLength="732.8" x="10.4" y="462.6797">+registerVehicle(brand, model, tare, grossWeight, currentKm, registerDate, acquisitionDate, maintenanceCheckUpFrequency, plateNumber, type)</text></g><!--class Vehicle--><g id="elem_Vehicle"><rect codeLine="26" fill="#F1F1F1" height="187.3688" id="Vehicle" rx="2" ry="2" style="stroke:#181818;stroke-width:0.4000000000000001;" width="704" x="24.8" y="517.6"/><ellipse cx="355" cy="530.4" fill="#ADD1B2" rx="8.8" ry="8.8" style="stroke:#181818;stroke-width:0.8000000000000002;"/><path d="M357.2125,527.1 Q357.3375,526.925 357.4875,526.8375 Q357.6375,526.75 357.8125,526.75 Q358.1125,526.75 358.3,526.9625 Q358.4875,527.1625 358.4875,527.65 L358.4875,528.8125 Q358.4875,529.3 358.3,529.5125 Q358.1125,529.725 357.8125,529.725 Q357.5375,529.725 357.375,529.5625 Q357.2125,529.4125 357.125,529 Q357.0875,528.7125 356.9375,528.5625 Q356.675,528.2625 356.1875,528.0875 Q355.7,527.9125 355.2,527.9125 Q354.5875,527.9125 354.075,528.175 Q353.575,528.4375 353.175,529.0375 Q352.7875,529.6375 352.7875,530.4625 L352.7875,531.3375 Q352.7875,532.325 353.5,532.9875 Q354.2125,533.6375 355.4875,533.6375 Q356.2375,533.6375 356.7625,533.4375 Q357.075,533.3125 357.4125,532.9625 Q357.625,532.75 357.7375,532.6875 Q357.8625,532.625 358.025,532.625 Q358.2875,532.625 358.4875,532.8375 Q358.7,533.0375 358.7,533.3125 Q358.7,533.5875 358.425,533.9125 Q358.025,534.375 357.3875,534.6375 Q356.525,535 355.4875,535 Q354.275,535 353.3125,534.5 Q352.525,534.1 351.975,533.25 Q351.425,532.3875 351.425,531.3625 L351.425,530.4375 Q351.425,529.375 351.9125,528.4625 Q352.4125,527.5375 353.2875,527.05 Q354.1625,526.55 355.15,526.55 Q355.7375,526.55 356.25,526.6875 Q356.775,526.8125 357.2125,527.1 Z " fill="#000000"/><text fill="#000000" font-family="sans-serif" font-size="11.2" lengthAdjust="spacing" textLength="36.8" x="371.4" y="535.0375">Vehicle</text><line style="stroke:#181818;stroke-width:0.4000000000000001;" x1="25.6" x2="728" y1="543.2" y2="543.2"/><text fill="#000000" font-family="sans-serif" font-size="11.2" lengthAdjust="spacing" textLength="66.4" x="29.6" y="558.4859">-String brand</text><text fill="#000000" font-family="sans-serif" font-size="11.2" lengthAdjust="spacing" textLength="67.2" x="29.6" y="573.3828">-String model</text><text fill="#000000" font-family="sans-serif" font-size="11.2" lengthAdjust="spacing" textLength="39.2" x="29.6" y="588.2797">-int tare</text><text fill="#000000" font-family="sans-serif" font-size="11.2" lengthAdjust="spacing" textLength="82.4" x="29.6" y="603.1766">-int grossWeight</text><text fill="#000000" font-family="sans-serif" font-size="11.2" lengthAdjust="spacing" textLength="71.2" x="29.6" y="618.0734">-int currentKm</text><text fill="#000000" font-family="sans-serif" font-size="11.2" lengthAdjust="spacing" textLength="99.2" x="29.6" y="632.9703">-String registerDate</text><text fill="#000000" font-family="sans-serif" font-size="11.2" lengthAdjust="spacing" textLength="114.4" x="29.6" y="647.8672">-String acquisitionDate</text><text fill="#000000" font-family="sans-serif" font-size="11.2" lengthAdjust="spacing" textLength="184" x="29.6" y="662.7641">-int maintenanceCheckUpFrequency</text><text fill="#000000" font-family="sans-serif" font-size="11.2" lengthAdjust="spacing" textLength="100.8" x="29.6" y="677.6609">-String plateNumber</text><line style="stroke:#181818;stroke-width:0.4000000000000001;" x1="25.6" x2="728" y1="683.6719" y2="683.6719"/><text fill="#000000" font-family="sans-serif" font-size="11.2" lengthAdjust="spacing" textLength="694.4" x="29.6" y="698.9578">+Vehicle(brand, model, tare, grossWeight, currentKm, registerDate, acquisitionDate, maintenanceCheckUpFrequency, plateNumber, type)</text></g><!--class VehicleType--><g id="elem_VehicleType"><rect codeLine="40" fill="#F1F1F1" height="142.6781" id="VehicleType" rx="2" ry="2" style="stroke:#181818;stroke-width:0.4000000000000001;" width="294.4" x="229.6" y="753.6"/><ellipse cx="342.2" cy="766.4" fill="#ADD1B2" rx="8.8" ry="8.8" style="stroke:#181818;stroke-width:0.8000000000000002;"/><path d="M344.4125,763.1 Q344.5375,762.925 344.6875,762.8375 Q344.8375,762.75 345.0125,762.75 Q345.3125,762.75 345.5,762.9625 Q345.6875,763.1625 345.6875,763.65 L345.6875,764.8125 Q345.6875,765.3 345.5,765.5125 Q345.3125,765.725 345.0125,765.725 Q344.7375,765.725 344.575,765.5625 Q344.4125,765.4125 344.325,765 Q344.2875,764.7125 344.1375,764.5625 Q343.875,764.2625 343.3875,764.0875 Q342.9,763.9125 342.4,763.9125 Q341.7875,763.9125 341.275,764.175 Q340.775,764.4375 340.375,765.0375 Q339.9875,765.6375 339.9875,766.4625 L339.9875,767.3375 Q339.9875,768.325 340.7,768.9875 Q341.4125,769.6375 342.6875,769.6375 Q343.4375,769.6375 343.9625,769.4375 Q344.275,769.3125 344.6125,768.9625 Q344.825,768.75 344.9375,768.6875 Q345.0625,768.625 345.225,768.625 Q345.4875,768.625 345.6875,768.8375 Q345.9,769.0375 345.9,769.3125 Q345.9,769.5875 345.625,769.9125 Q345.225,770.375 344.5875,770.6375 Q343.725,771 342.6875,771 Q341.475,771 340.5125,770.5 Q339.725,770.1 339.175,769.25 Q338.625,768.3875 338.625,767.3625 L338.625,766.4375 Q338.625,765.375 339.1125,764.4625 Q339.6125,763.5375 340.4875,763.05 Q341.3625,762.55 342.35,762.55 Q342.9375,762.55 343.45,762.6875 Q343.975,762.8125 344.4125,763.1 Z " fill="#000000"/><text fill="#000000" font-family="sans-serif" font-size="11.2" lengthAdjust="spacing" textLength="62.4" x="358.6" y="771.0375">VehicleType</text><line style="stroke:#181818;stroke-width:0.4000000000000001;" x1="230.4" x2="523.2" y1="779.2" y2="779.2"/><text fill="#000000" font-family="sans-serif" font-size="11.2" lengthAdjust="spacing" textLength="206.4" x="234.4" y="794.4859">+TypeTransport {PASSENGERS, MIXED}</text><text fill="#000000" font-family="sans-serif" font-size="11.2" lengthAdjust="spacing" textLength="171.2" x="234.4" y="809.3828">+PackageWeight {LIGHT, HEAVY}</text><text fill="#000000" font-family="sans-serif" font-size="11.2" lengthAdjust="spacing" textLength="264.8" x="234.4" y="824.2797">+Transport {OPEN_BOX, CLOSED_VANS, TRUCKS}</text><text fill="#000000" font-family="sans-serif" font-size="11.2" lengthAdjust="spacing" textLength="153.6" x="234.4" y="839.1766">-TypeTransport typeTransport</text><text fill="#000000" font-family="sans-serif" font-size="11.2" lengthAdjust="spacing" textLength="164.8" x="234.4" y="854.0734">-PackageWeight packageWeight</text><text fill="#000000" font-family="sans-serif" font-size="11.2" lengthAdjust="spacing" textLength="102.4" x="234.4" y="868.9703">-Transport transport</text><line style="stroke:#181818;stroke-width:0.4000000000000001;" x1="230.4" x2="523.2" y1="874.9813" y2="874.9813"/><text fill="#000000" font-family="sans-serif" font-size="11.2" lengthAdjust="spacing" textLength="284.8" x="234.4" y="890.2672">+VehicleType(typeTransport, packageWeight, transport)</text></g><!--class FleetManager--><g id="elem_FleetManager"><rect codeLine="50" fill="#F1F1F1" height="68.1938" id="FleetManager" rx="2" ry="2" style="stroke:#181818;stroke-width:0.4000000000000001;" width="122.4" x="505.2" y="5.6"/><ellipse cx="529.08" cy="18.4" fill="#ADD1B2" rx="8.8" ry="8.8" style="stroke:#181818;stroke-width:0.8000000000000002;"/><path d="M531.2925,15.1 Q531.4175,14.925 531.5675,14.8375 Q531.7175,14.75 531.8925,14.75 Q532.1925,14.75 532.38,14.9625 Q532.5675,15.1625 532.5675,15.65 L532.5675,16.8125 Q532.5675,17.3 532.38,17.5125 Q532.1925,17.725 531.8925,17.725 Q531.6175,17.725 531.455,17.5625 Q531.2925,17.4125 531.205,17 Q531.1675,16.7125 531.0175,16.5625 Q530.755,16.2625 530.2675,16.0875 Q529.78,15.9125 529.28,15.9125 Q528.6675,15.9125 528.155,16.175 Q527.655,16.4375 527.255,17.0375 Q526.8675,17.6375 526.8675,18.4625 L526.8675,19.3375 Q526.8675,20.325 527.58,20.9875 Q528.2925,21.6375 529.5675,21.6375 Q530.3175,21.6375 530.8425,21.4375 Q531.155,21.3125 531.4925,20.9625 Q531.705,20.75 531.8175,20.6875 Q531.9425,20.625 532.105,20.625 Q532.3675,20.625 532.5675,20.8375 Q532.78,21.0375 532.78,21.3125 Q532.78,21.5875 532.505,21.9125 Q532.105,22.375 531.4675,22.6375 Q530.605,23 529.5675,23 Q528.355,23 527.3925,22.5 Q526.605,22.1 526.055,21.25 Q525.505,20.3875 525.505,19.3625 L525.505,18.4375 Q525.505,17.375 525.9925,16.4625 Q526.4925,15.5375 527.3675,15.05 Q528.2425,14.55 529.23,14.55 Q529.8175,14.55 530.33,14.6875 Q530.855,14.8125 531.2925,15.1 Z " fill="#000000"/><text fill="#000000" font-family="sans-serif" font-size="11.2" lengthAdjust="spacing" textLength="70.4" x="542.92" y="23.0375">FleetManager</text><line style="stroke:#181818;stroke-width:0.4000000000000001;" x1="506" x2="626.8" y1="31.2" y2="31.2"/><text fill="#000000" font-family="sans-serif" font-size="11.2" lengthAdjust="spacing" textLength="32" x="510" y="46.4859">-name</text><line style="stroke:#181818;stroke-width:0.4000000000000001;" x1="506" x2="626.8" y1="52.4969" y2="52.4969"/><text fill="#000000" font-family="sans-serif" font-size="11.2" lengthAdjust="spacing" textLength="112.8" x="510" y="67.7828">+FleetManager(name)</text></g><!--class Repositories--><g id="elem_Repositories"><rect codeLine="55" fill="#F1F1F1" height="83.0906" id="Repositories" rx="2" ry="2" style="stroke:#181818;stroke-width:0.4000000000000001;" width="155.2" x="474.4" y="253.6"/><ellipse cx="517" cy="266.4" fill="#ADD1B2" rx="8.8" ry="8.8" style="stroke:#181818;stroke-width:0.8000000000000002;"/><path d="M519.2125,263.1 Q519.3375,262.925 519.4875,262.8375 Q519.6375,262.75 519.8125,262.75 Q520.1125,262.75 520.3,262.9625 Q520.4875,263.1625 520.4875,263.65 L520.4875,264.8125 Q520.4875,265.3 520.3,265.5125 Q520.1125,265.725 519.8125,265.725 Q519.5375,265.725 519.375,265.5625 Q519.2125,265.4125 519.125,265 Q519.0875,264.7125 518.9375,264.5625 Q518.675,264.2625 518.1875,264.0875 Q517.7,263.9125 517.2,263.9125 Q516.5875,263.9125 516.075,264.175 Q515.575,264.4375 515.175,265.0375 Q514.7875,265.6375 514.7875,266.4625 L514.7875,267.3375 Q514.7875,268.325 515.5,268.9875 Q516.2125,269.6375 517.4875,269.6375 Q518.2375,269.6375 518.7625,269.4375 Q519.075,269.3125 519.4125,268.9625 Q519.625,268.75 519.7375,268.6875 Q519.8625,268.625 520.025,268.625 Q520.2875,268.625 520.4875,268.8375 Q520.7,269.0375 520.7,269.3125 Q520.7,269.5875 520.425,269.9125 Q520.025,270.375 519.3875,270.6375 Q518.525,271 517.4875,271 Q516.275,271 515.3125,270.5 Q514.525,270.1 513.975,269.25 Q513.425,268.3875 513.425,267.3625 L513.425,266.4375 Q513.425,265.375 513.9125,264.4625 Q514.4125,263.5375 515.2875,263.05 Q516.1625,262.55 517.15,262.55 Q517.7375,262.55 518.25,262.6875 Q518.775,262.8125 519.2125,263.1 Z " fill="#000000"/><text fill="#000000" font-family="sans-serif" font-size="11.2" lengthAdjust="spacing" textLength="63.2" x="533.4" y="271.0375">Repositories</text><line style="stroke:#181818;stroke-width:0.4000000000000001;" x1="475.2" x2="628.8" y1="279.2" y2="279.2"/><line style="stroke:#181818;stroke-width:0.4000000000000001;" x1="475.2" x2="628.8" y1="285.6" y2="285.6"/><text fill="#000000" font-family="sans-serif" font-size="11.2" lengthAdjust="spacing" textLength="75.2" x="479.2" y="300.8859">-Repositories()</text><text fill="#000000" font-family="sans-serif" font-size="11.2" lengthAdjust="spacing" textLength="145.6" x="479.2" y="315.7828">+getInstance() : Repositories</text><text fill="#000000" font-family="sans-serif" font-size="11.2" lengthAdjust="spacing" textLength="121.6" x="479.2" y="330.6797">+getVehicleRepository()</text></g><!--link RegisterVehicleUI to RegisterVehicleControlller--><g id="link_RegisterVehicleUI_RegisterVehicleControlller"><path codeLine="61" d="M420,58.912 C420,75.952 420,96.848 420,117.464 " fill="none" id="RegisterVehicleUI-to-RegisterVehicleControlller" style="stroke:#181818;stroke-width:0.8000000000000002;stroke-dasharray:7.0,7.0;"/><polygon fill="#181818" points="420,122.264,423.2,115.064,420,118.264,416.8,115.064,420,122.264" style="stroke:#181818;stroke-width:0.8000000000000002;"/></g><!--link RegisterVehicleControlller to Repositories--><g id="link_RegisterVehicleControlller_Repositories"><path codeLine="62" d="M451.952,190.416 C470.192,209.368 489.8726,229.8205 509.2246,249.9405 " fill="none" id="RegisterVehicleControlller-to-Repositories" style="stroke:#181818;stroke-width:0.8000000000000002;stroke-dasharray:7.0,7.0;"/><polygon fill="#181818" points="512.552,253.4,509.8672,245.9925,509.7791,250.5171,505.2545,250.4291,512.552,253.4" style="stroke:#181818;stroke-width:0.8000000000000002;"/><text fill="#000000" font-family="sans-serif" font-size="10.4" lengthAdjust="spacing" textLength="53.6" x="486.4" y="226.4227">repositories</text></g><!--link RegisterVehicleControlller to VehicleRepository--><g id="link_RegisterVehicleControlller_VehicleRepository"><path codeLine="63" d="M404.456,190.648 C391.52,218.488 375.2,253.6 375.2,253.6 C375.2,253.6 375.2,336.8 375.2,336.8 C375.2,336.8 375.5619,357.1048 375.9859,380.7368 " fill="none" id="RegisterVehicleControlller-to-VehicleRepository" style="stroke:#181818;stroke-width:0.8000000000000002;stroke-dasharray:7.0,7.0;"/><polygon fill="#181818" points="376.072,385.536,379.1423,378.2798,376.0002,381.5366,372.7434,378.3946,376.072,385.536" style="stroke:#181818;stroke-width:0.8000000000000002;"/><text fill="#000000" font-family="sans-serif" font-size="10.4" lengthAdjust="spacing" textLength="84" x="376" y="299.6227">VehicleRepository</text></g><!--link Repositories to Repositories--><g id="link_Repositories_Repositories"><path codeLine="64" d="M629.824,283.336 C645.984,284.584 657.6,288.536 657.6,295.2 C657.6,301.864 650.7697,305.4464 634.6097,306.6944 " fill="none" id="Repositories-to-Repositories" style="stroke:#181818;stroke-width:0.8000000000000002;"/><polygon fill="#181818" points="629.824,307.064,637.249,309.7001,633.8121,306.756,636.7562,303.3191,629.824,307.064" style="stroke:#181818;stroke-width:0.8000000000000002;"/><text fill="#000000" font-family="sans-serif" font-size="10.4" lengthAdjust="spacing" textLength="39.2" x="662.4" y="299.6227">instance</text></g><!--link Repositories to VehicleRepository--><g id="link_Repositories_VehicleRepository"><path codeLine="65" d="M497.048,336.904 C476.272,352.36 456.491,367.0867 435.707,382.5507 " fill="none" id="Repositories-to-VehicleRepository" style="stroke:#181818;stroke-width:0.8000000000000002;"/><polygon fill="#181818" points="431.856,385.416,439.5427,383.6854,435.0652,383.0283,435.7223,378.5508,431.856,385.416" style="stroke:#181818;stroke-width:0.8000000000000002;"/><text fill="#000000" font-family="sans-serif" font-size="10.4" lengthAdjust="spacing" textLength="5.6" x="433.2779" y="376.5332">1</text></g><!--link VehicleRepository to Vehicle--><g id="link_VehicleRepository_Vehicle"><path codeLine="66" d="M376.8,468.936 C376.8,483.432 376.8,495.584 376.8,512.624 " fill="none" id="VehicleRepository-to-Vehicle" style="stroke:#181818;stroke-width:0.8000000000000002;"/><polygon fill="#181818" points="376.8,517.424,380,510.224,376.8,513.424,373.6,510.224,376.8,517.424" style="stroke:#181818;stroke-width:0.8000000000000002;"/><text fill="#000000" font-family="sans-serif" font-size="10.4" lengthAdjust="spacing" textLength="4" x="372.6719" y="508.6056">*</text></g><!--link Vehicle to VehicleType--><g id="link_Vehicle_VehicleType"><path codeLine="67" d="M376.8,704.984 C376.8,721.232 376.8,733.088 376.8,748.6 " fill="none" id="Vehicle-to-VehicleType" style="stroke:#181818;stroke-width:0.8000000000000002;"/><polygon fill="#181818" points="376.8,753.4,380,746.2,376.8,749.4,373.6,746.2,376.8,753.4" style="stroke:#181818;stroke-width:0.8000000000000002;"/><text fill="#000000" font-family="sans-serif" font-size="10.4" lengthAdjust="spacing" textLength="5.6" x="370.9681" y="744.5448">1</text></g><!--SRC=[pLJ1Sk8m3BtdApIz49RGsRros1aMQCkq1OO0sprrJA863uwTEgOxBDD_huC3iGbbh-KKIq_IUq9I8rzJdX59KaW55z5AYXH1oGrwbISZqPea6AejGv0OAS8JPWFo5Od5NyeJU24ijpsCSbJR324JR5iylCOPfv1AU5PKn4YUTvMITBbHE8m43-a_XE-Urs3uea09a3HPAOXfGOSAxddx69XYGdE5Se4h6Z6S3s7dUU-VU7k2AoaOOoWr3FIlzGa2fVzcB5FCH4wLaDkcYP1kXB-KXCU1xcQCB01590QGI97dlx6W742qaHAvkay3ECJsYT8e4hrkgCwjvHX3IYXNo0cFiBV2Q3tFRYI-Rf17sm0ofZ6ZJRf4gSleBZOhdOjJhgMyDedZ0yzIZr7HVYECnZhXMUzNrdXG5kfXqVEtP-POzYIDHLVQawrU5kdAU2JlvB5rE8uJILMU2zAS19PAq-ulqEPQdsV5dfPBKdpFDBSyquiBkqat30UZsy4q3E1n-3JelnlOn9mDGnPs3yFRkra0TuFkua-9i9AC9uFHyw_nKm2zXt4uw3ylkYETRpQTz-v30s-xTPNzCW2tOcQ_oWnLj1FPibJwJkB0JHDKWTOitZ14zKYuXXqkIHiuISqmj1o_NzYRzaqgbvHYVeorZNwvX92W6l9S5V-XtuIE0weWjTttzyNgX_7w-kU5W-XTk9KciYhUqTDdKVbFP8rWfsxodAwqswVrQDc7EkxgnzMPTFM3kCT-Es8FYDCSnK1u7m00]--></g></svg>