<?xml version="1.0" encoding="us-ascii" standalone="no"?><svg xmlns="http://www.w3.org/2000/svg" xmlns:xlink="http://www.w3.org/1999/xlink" contentStyleType="text/css" height="623px" preserveAspectRatio="none" style="width:441px;height:623px;background:#FFFFFF;" version="1.1" viewBox="0 0 441 623" width="441px" zoomAndPan="magnify"><defs/><g><text fill="#000000" font-family="sans-serif" font-size="14" font-weight="bold" lengthAdjust="spacing" textLength="156" x="135.5" y="25.1074">Domain Model - US003</text><!--class Organization--><g id="elem_Organization"><rect codeLine="12" fill="#F1F1F1" height="36.6211" id="Organization" rx="2.5" ry="2.5" style="stroke:#181818;stroke-width:0.5;" width="86" x="241" y="46.6211"/><text fill="#000000" font-family="sans-serif" font-size="14" lengthAdjust="spacing" textLength="80" x="244" y="66.7285">Organization</text><line style="stroke:#181818;stroke-width:0.5;" x1="242" x2="326" y1="75.2422" y2="75.2422"/></g><!--class Collaborator--><g id="elem_Collaborator"><rect codeLine="15" fill="#F1F1F1" height="185.5898" id="Collaborator" rx="2.5" ry="2.5" style="stroke:#181818;stroke-width:0.5;" width="105" x="77.5" y="296.6211"/><text fill="#000000" font-family="sans-serif" font-size="14" lengthAdjust="spacing" textLength="78" x="91" y="316.7285">Collaborator</text><line style="stroke:#181818;stroke-width:0.5;" x1="78.5" x2="181.5" y1="325.2422" y2="325.2422"/><text fill="#000000" font-family="sans-serif" font-size="14" lengthAdjust="spacing" textLength="35" x="83.5" y="344.3496">name</text><text fill="#000000" font-family="sans-serif" font-size="14" lengthAdjust="spacing" textLength="51" x="83.5" y="362.9707">birthday</text><text fill="#000000" font-family="sans-serif" font-size="14" lengthAdjust="spacing" textLength="93" x="83.5" y="381.5918">admissionDate</text><text fill="#000000" font-family="sans-serif" font-size="14" lengthAdjust="spacing" textLength="51" x="83.5" y="400.2129">address</text><text fill="#000000" font-family="sans-serif" font-size="14" lengthAdjust="spacing" textLength="89" x="83.5" y="418.834">phoneNumber</text><text fill="#000000" font-family="sans-serif" font-size="14" lengthAdjust="spacing" textLength="33" x="83.5" y="437.4551">email</text><text fill="#000000" font-family="sans-serif" font-size="14" lengthAdjust="spacing" textLength="70" x="83.5" y="456.0762">IDDocType</text><text fill="#000000" font-family="sans-serif" font-size="14" lengthAdjust="spacing" textLength="62" x="83.5" y="474.6973">IDNumber</text></g><!--class HumanResourcesManager--><g id="elem_HumanResourcesManager"><rect codeLine="26" fill="#F1F1F1" height="55.2422" id="HumanResourcesManager" rx="2.5" ry="2.5" style="stroke:#181818;stroke-width:0.5;" width="174" x="197" y="162.6211"/><text fill="#000000" font-family="sans-serif" font-size="14" lengthAdjust="spacing" textLength="168" x="200" y="182.7285">HumanResourcesManager</text><line style="stroke:#181818;stroke-width:0.5;" x1="198" x2="370" y1="191.2422" y2="191.2422"/><text fill="#000000" font-family="sans-serif" font-size="14" lengthAdjust="spacing" textLength="35" x="203" y="210.3496">name</text></g><!--class Job--><g id="elem_Job"><rect codeLine="30" fill="#F1F1F1" height="55.2422" id="Job" rx="2.5" ry="2.5" style="stroke:#181818;stroke-width:0.5;" width="47" x="234.5" y="561.6211"/><text fill="#000000" font-family="sans-serif" font-size="14" lengthAdjust="spacing" textLength="22" x="247" y="581.7285">Job</text><line style="stroke:#181818;stroke-width:0.5;" x1="235.5" x2="280.5" y1="590.2422" y2="590.2422"/><text fill="#000000" font-family="sans-serif" font-size="14" lengthAdjust="spacing" textLength="35" x="240.5" y="609.3496">name</text></g><!--class IDDocType--><g id="elem_IDDocType"><rect codeLine="34" fill="#F1F1F1" height="55.2422" id="IDDocType" rx="2.5" ry="2.5" style="stroke:#181818;stroke-width:0.5;" width="76" x="7" y="561.6211"/><text fill="#000000" font-family="sans-serif" font-size="14" lengthAdjust="spacing" textLength="70" x="10" y="581.7285">IDDocType</text><line style="stroke:#181818;stroke-width:0.5;" x1="8" x2="82" y1="590.2422" y2="590.2422"/><text fill="#000000" font-family="sans-serif" font-size="14" lengthAdjust="spacing" textLength="62" x="13" y="609.3496">document</text></g><!--link Organization to HumanResourcesManager--><g id="link_Organization_HumanResourcesManager"><path codeLine="38" d="M284,83.7411 C284,104.3411 284,138.6211 284,162.4711 " fill="none" id="Organization-HumanResourcesManager" style="stroke:#181818;stroke-width:1.0;"/><polygon fill="#000000" points="289,128.2666,291.9389,119.2215,286.0611,119.2215,289,128.2666" style="stroke:#000000;stroke-width:1.0;"/><text fill="#000000" font-family="sans-serif" font-size="13" lengthAdjust="spacing" textLength="21" x="298" y="128.6494">has</text><text fill="#000000" font-family="sans-serif" font-size="13" lengthAdjust="spacing" textLength="7" x="276.0594" y="105.1479">1</text><text fill="#000000" font-family="sans-serif" font-size="13" lengthAdjust="spacing" textLength="7" x="276.1906" y="151.1454">1</text></g><!--link Organization to Collaborator--><g id="link_Organization_Collaborator"><path codeLine="39" d="M240.75,83.3211 C208.06,98.8111 165.28,124.9711 144,162.6211 C121.36,202.6611 116.49,253.3011 117.88,296.5011 " fill="none" id="Organization-Collaborator" style="stroke:#181818;stroke-width:1.0;"/><polygon fill="#000000" points="146.5032,194.5986,153.5662,188.2296,148.4737,185.2944,146.5032,194.5986" style="stroke:#000000;stroke-width:1.0;"/><text fill="#000000" font-family="sans-serif" font-size="13" lengthAdjust="spacing" textLength="21" x="158" y="195.6494">has</text><text fill="#000000" font-family="sans-serif" font-size="13" lengthAdjust="spacing" textLength="7" x="226.007" y="82.0115">1</text><text fill="#000000" font-family="sans-serif" font-size="13" lengthAdjust="spacing" textLength="20" x="96.1173" y="285.4595">1..*</text></g><!--link Organization to Job--><g id="link_Organization_Job"><path codeLine="40" d="M314.42,83.9011 C339.69,100.6011 373.87,128.1611 389,162.6211 C398.83,185.0011 389.92,193.1911 389,217.6211 C384.55,335.6511 419.64,375.9111 369,482.6211 C349.85,522.9711 308.03,555.8011 281.54,573.6011 " fill="none" id="Organization-Job" style="stroke:#181818;stroke-width:1.0;"/><polygon fill="#000000" points="393.665,262.2554,397.2033,253.4275,391.3387,253.0337,393.665,262.2554" style="stroke:#000000;stroke-width:1.0;"/><text fill="#000000" font-family="sans-serif" font-size="13" lengthAdjust="spacing" textLength="30" x="403" y="262.6494">owns</text><text fill="#000000" font-family="sans-serif" font-size="13" lengthAdjust="spacing" textLength="7" x="314.6548" y="105.3509">1</text><text fill="#000000" font-family="sans-serif" font-size="13" lengthAdjust="spacing" textLength="20" x="289.2961" y="565.0804">1..*</text></g><!--link HumanResourcesManager to Job--><g id="link_HumanResourcesManager_Job"><path codeLine="41" d="M289.05,217.7311 C299.08,275.8311 318.14,417.9411 289,531.6211 C286.36,541.9211 281.41,552.3511 276.23,561.4011 " fill="none" id="HumanResourcesManager-Job" style="stroke:#181818;stroke-width:1.0;"/><polygon fill="#000000" points="308.8136,394.7631,312.0877,385.8339,306.2139,385.6148,308.8136,394.7631" style="stroke:#000000;stroke-width:1.0;"/><text fill="#000000" font-family="sans-serif" font-size="13" lengthAdjust="spacing" textLength="42" x="318" y="395.1494">selects</text><text fill="#000000" font-family="sans-serif" font-size="13" lengthAdjust="spacing" textLength="7" x="282.4084" y="240.1155">1</text><text fill="#000000" font-family="sans-serif" font-size="13" lengthAdjust="spacing" textLength="7" x="272.4522" y="550.5116">1</text></g><!--link Job to Collaborator--><g id="link_Job_Collaborator"><path codeLine="42" d="M234.43,566.9411 C224.03,556.8711 212.13,544.2811 203,531.6211 C192.12,516.5311 181.9,499.5911 172.75,482.8411 " fill="none" id="Job-Collaborator" style="stroke:#181818;stroke-width:1.0;"/><polygon fill="#000000" points="205.043,518.2347,208.0224,527.2666,212.7622,523.7904,205.043,518.2347" style="stroke:#000000;stroke-width:1.0;"/><text fill="#000000" font-family="sans-serif" font-size="13" lengthAdjust="spacing" textLength="67" x="217" y="527.6494">assigned to</text><text fill="#000000" font-family="sans-serif" font-size="13" lengthAdjust="spacing" textLength="7" x="219.4782" y="554.9643">1</text><text fill="#000000" font-family="sans-serif" font-size="13" lengthAdjust="spacing" textLength="20" x="155.1551" y="504.3652">0..*</text></g><!--link Collaborator to Job--><g id="link_Collaborator_Job"><path codeLine="45" d="M127.39,482.9811 C130.4,500.2711 136.07,517.3711 146,531.6211 C166.78,561.4711 208.11,576.4211 234.34,583.2011 " fill="none" id="Collaborator-Job" style="stroke:#181818;stroke-width:1.0;"/><polygon fill="#000000" points="154.6485,525.6855,150.0579,517.3562,146.0388,521.6452,154.6485,525.6855" style="stroke:#000000;stroke-width:1.0;"/><text fill="#000000" font-family="sans-serif" font-size="13" lengthAdjust="spacing" textLength="21" x="160" y="527.6494">has</text><text fill="#000000" font-family="sans-serif" font-size="13" lengthAdjust="spacing" textLength="20" x="106.5034" y="504.1961">0..*</text><text fill="#000000" font-family="sans-serif" font-size="13" lengthAdjust="spacing" textLength="7" x="219.3618" y="576.0007">1</text></g><!--link HumanResourcesManager to Collaborator--><g id="link_HumanResourcesManager_Collaborator"><path codeLine="43" d="M255.09,217.7211 C245.74,226.8511 235.58,237.3611 227,247.6211 C211.66,265.9711 196.38,286.7211 182.63,306.5511 " fill="none" id="HumanResourcesManager-Collaborator" style="stroke:#181818;stroke-width:1.0;"/><polygon fill="#000000" points="228.8395,261.1411,236.8342,255.9898,232.2795,252.2744,228.8395,261.1411" style="stroke:#000000;stroke-width:1.0;"/><text fill="#000000" font-family="sans-serif" font-size="13" lengthAdjust="spacing" textLength="43" x="241" y="262.6494">register</text><text fill="#000000" font-family="sans-serif" font-size="13" lengthAdjust="spacing" textLength="7" x="240.5952" y="240.1032">1</text><text fill="#000000" font-family="sans-serif" font-size="13" lengthAdjust="spacing" textLength="20" x="190.6545" y="291.8919">1..*</text></g><!--link Collaborator to IDDocType--><g id="link_Collaborator_IDDocType"><path codeLine="44" d="M77.48,447.9111 C63.12,467.0911 49.47,489.5111 42,512.6211 C36.96,528.2211 37.56,546.5911 39.49,561.3011 " fill="none" id="Collaborator-IDDocType" style="stroke:#181818;stroke-width:1.0;"/><polygon fill="#000000" points="45.4116,527.0076,51.0717,519.3647,45.4984,517.4974,45.4116,527.0076" style="stroke:#000000;stroke-width:1.0;"/><text fill="#000000" font-family="sans-serif" font-size="13" lengthAdjust="spacing" textLength="30" x="56" y="527.6494">owns</text><text fill="#000000" font-family="sans-serif" font-size="13" lengthAdjust="spacing" textLength="20" x="49.4696" y="451.3637">0..*</text><text fill="#000000" font-family="sans-serif" font-size="13" lengthAdjust="spacing" textLength="7" x="30.5191" y="550.3898">1</text></g><!--SRC=[ZL9DQyCm3BtxLuWU1nqPk_LG6EjX7NI3TVi1YgqbfhOLB8VIZlttkMcQjP1zv699xqdlIKGsDZGOqOFdmBgEx0bIR4d9W3IeDrZHEkqSGIITC5Jkd20r6jxQKC4xEY5r1cc78dSfHLksYPQQmzhk2GgbQci8j8qwZ-fYJwbc8qebcxBGWZtQ02isv60AR-kYk5MgcmVFiS9WzvWi1_XGdwVwFJk79KTC77CTyXVGKnUKDgRQuAvBq7WhahiNcAYlc4WYNTpK7EYfzIN5BgVin7NHSh5W_RfhgCzwqc3WeVKONaYuZPfaXI7VxSB9m7paShG-AFIeOTrw2kd0k5XxSZE1wRHxnbLdKAF0_8Ukw-khoUMz_i4_c9u1RyE1DwvwPkl85dBvbn787OV22I_63EG3s2gGWSH_2umDY5HPIParLnT8BzSR-xxniCmlxECQnzjy0G00]--></g></svg>