<?xml version="1.0" encoding="us-ascii" standalone="no"?><svg xmlns="http://www.w3.org/2000/svg" xmlns:xlink="http://www.w3.org/1999/xlink" contentStyleType="text/css" height="623px" preserveAspectRatio="none" style="width:423px;height:623px;background:#FFFFFF;" version="1.1" viewBox="0 0 423 623" width="423px" zoomAndPan="magnify"><defs/><g><text fill="#000000" font-family="sans-serif" font-size="14" font-weight="bold" lengthAdjust="spacing" textLength="156" x="126.5" y="25.1074">Domain Model - US003</text><!--class Organization--><g id="elem_Organization"><rect codeLine="12" fill="#F1F1F1" height="36.6211" id="Organization" rx="2.5" ry="2.5" style="stroke:#181818;stroke-width:0.5;" width="86" x="232" y="46.6211"/><text fill="#000000" font-family="sans-serif" font-size="14" lengthAdjust="spacing" textLength="80" x="235" y="66.7285">Organization</text><line style="stroke:#181818;stroke-width:0.5;" x1="233" x2="317" y1="75.2422" y2="75.2422"/></g><!--class Collaborator--><g id="elem_Collaborator"><rect codeLine="15" fill="#F1F1F1" height="185.5898" id="Collaborator" rx="2.5" ry="2.5" style="stroke:#181818;stroke-width:0.5;" width="105" x="68.5" y="296.6211"/><text fill="#000000" font-family="sans-serif" font-size="14" lengthAdjust="spacing" textLength="78" x="82" y="316.7285">Collaborator</text><line style="stroke:#181818;stroke-width:0.5;" x1="69.5" x2="172.5" y1="325.2422" y2="325.2422"/><text fill="#000000" font-family="sans-serif" font-size="14" lengthAdjust="spacing" textLength="35" x="74.5" y="344.3496">name</text><text fill="#000000" font-family="sans-serif" font-size="14" lengthAdjust="spacing" textLength="51" x="74.5" y="362.9707">birthday</text><text fill="#000000" font-family="sans-serif" font-size="14" lengthAdjust="spacing" textLength="93" x="74.5" y="381.5918">admissionDate</text><text fill="#000000" font-family="sans-serif" font-size="14" lengthAdjust="spacing" textLength="51" x="74.5" y="400.2129">address</text><text fill="#000000" font-family="sans-serif" font-size="14" lengthAdjust="spacing" textLength="89" x="74.5" y="418.834">phoneNumber</text><text fill="#000000" font-family="sans-serif" font-size="14" lengthAdjust="spacing" textLength="33" x="74.5" y="437.4551">email</text><text fill="#000000" font-family="sans-serif" font-size="14" lengthAdjust="spacing" textLength="70" x="74.5" y="456.0762">IDDocType</text><text fill="#000000" font-family="sans-serif" font-size="14" lengthAdjust="spacing" textLength="62" x="74.5" y="474.6973">IDNumber</text></g><!--class HumanResourcesManager--><g id="elem_HumanResourcesManager"><rect codeLine="26" fill="#F1F1F1" height="55.2422" id="HumanResourcesManager" rx="2.5" ry="2.5" style="stroke:#181818;stroke-width:0.5;" width="174" x="188" y="162.6211"/><text fill="#000000" font-family="sans-serif" font-size="14" lengthAdjust="spacing" textLength="168" x="191" y="182.7285">HumanResourcesManager</text><line style="stroke:#181818;stroke-width:0.5;" x1="189" x2="361" y1="191.2422" y2="191.2422"/><text fill="#000000" font-family="sans-serif" font-size="14" lengthAdjust="spacing" textLength="35" x="194" y="210.3496">name</text></g><!--class Job--><g id="elem_Job"><rect codeLine="30" fill="#F1F1F1" height="55.2422" id="Job" rx="2.5" ry="2.5" style="stroke:#181818;stroke-width:0.5;" width="47" x="225.5" y="561.6211"/><text fill="#000000" font-family="sans-serif" font-size="14" lengthAdjust="spacing" textLength="22" x="238" y="581.7285">Job</text><line style="stroke:#181818;stroke-width:0.5;" x1="226.5" x2="271.5" y1="590.2422" y2="590.2422"/><text fill="#000000" font-family="sans-serif" font-size="14" lengthAdjust="spacing" textLength="35" x="231.5" y="609.3496">name</text></g><!--class IDDocType--><g id="elem_IDDocType"><rect codeLine="34" fill="#F1F1F1" height="55.2422" id="IDDocType" rx="2.5" ry="2.5" style="stroke:#181818;stroke-width:0.5;" width="76" x="7" y="561.6211"/><text fill="#000000" font-family="sans-serif" font-size="14" lengthAdjust="spacing" textLength="70" x="10" y="581.7285">IDDocType</text><line style="stroke:#181818;stroke-width:0.5;" x1="8" x2="82" y1="590.2422" y2="590.2422"/><text fill="#000000" font-family="sans-serif" font-size="14" lengthAdjust="spacing" textLength="27" x="13" y="609.3496">type</text></g><!--link Organization to HumanResourcesManager--><g id="link_Organization_HumanResourcesManager"><path codeLine="38" d="M275,83.7411 C275,104.3411 275,138.6211 275,162.4711 " fill="none" id="Organization-HumanResourcesManager" style="stroke:#181818;stroke-width:1.0;"/><polygon fill="#000000" points="280,128.2666,282.9389,119.2215,277.0611,119.2215,280,128.2666" style="stroke:#000000;stroke-width:1.0;"/><text fill="#000000" font-family="sans-serif" font-size="13" lengthAdjust="spacing" textLength="21" x="289" y="128.6494">has</text><text fill="#000000" font-family="sans-serif" font-size="13" lengthAdjust="spacing" textLength="7" x="267.0594" y="105.1479">1</text><text fill="#000000" font-family="sans-serif" font-size="13" lengthAdjust="spacing" textLength="20" x="252.6875" y="151.1454">1..*</text></g><!--link Organization to Collaborator--><g id="link_Organization_Collaborator"><path codeLine="39" d="M231.75,83.3211 C199.06,98.8111 156.28,124.9711 135,162.6211 C112.36,202.6611 107.49,253.3011 108.88,296.5011 " fill="none" id="Organization-Collaborator" style="stroke:#181818;stroke-width:1.0;"/><polygon fill="#000000" points="137.5032,194.5986,144.5662,188.2296,139.4737,185.2944,137.5032,194.5986" style="stroke:#000000;stroke-width:1.0;"/><text fill="#000000" font-family="sans-serif" font-size="13" lengthAdjust="spacing" textLength="21" x="149" y="195.6494">has</text><text fill="#000000" font-family="sans-serif" font-size="13" lengthAdjust="spacing" textLength="7" x="217.007" y="82.0115">1</text><text fill="#000000" font-family="sans-serif" font-size="13" lengthAdjust="spacing" textLength="20" x="87.1173" y="285.4595">1..*</text></g><!--link Organization to Job--><g id="link_Organization_Job"><path codeLine="40" d="M305.42,83.9011 C330.69,100.6011 364.87,128.1611 380,162.6211 C389.83,185.0011 380.92,193.1911 380,217.6211 C375.55,335.6511 410.64,375.9111 360,482.6211 C340.85,522.9711 299.03,555.8011 272.54,573.6011 " fill="none" id="Organization-Job" style="stroke:#181818;stroke-width:1.0;"/><polygon fill="#000000" points="384.665,262.2554,388.2033,253.4275,382.3387,253.0337,384.665,262.2554" style="stroke:#000000;stroke-width:1.0;"/><text fill="#000000" font-family="sans-serif" font-size="13" lengthAdjust="spacing" textLength="21" x="394" y="262.6494">has</text><text fill="#000000" font-family="sans-serif" font-size="13" lengthAdjust="spacing" textLength="7" x="305.6548" y="105.3509">1</text><text fill="#000000" font-family="sans-serif" font-size="13" lengthAdjust="spacing" textLength="20" x="280.2961" y="565.0804">1..*</text></g><!--link HumanResourcesManager to Job--><g id="link_HumanResourcesManager_Job"><path codeLine="41" d="M280.05,217.7311 C290.08,275.8311 309.14,417.9411 280,531.6211 C277.36,541.9211 272.41,552.3511 267.23,561.4011 " fill="none" id="HumanResourcesManager-Job" style="stroke:#181818;stroke-width:1.0;"/><polygon fill="#000000" points="299.8136,394.7631,303.0877,385.8339,297.2139,385.6148,299.8136,394.7631" style="stroke:#000000;stroke-width:1.0;"/><text fill="#000000" font-family="sans-serif" font-size="13" lengthAdjust="spacing" textLength="42" x="309" y="395.1494">selects</text><text fill="#000000" font-family="sans-serif" font-size="13" lengthAdjust="spacing" textLength="7" x="273.4084" y="240.1155">1</text><text fill="#000000" font-family="sans-serif" font-size="13" lengthAdjust="spacing" textLength="7" x="263.4522" y="550.5116">1</text></g><!--link Job to Collaborator--><g id="link_Job_Collaborator"><path codeLine="42" d="M225.43,566.9411 C215.03,556.8711 203.13,544.2811 194,531.6211 C183.12,516.5311 172.9,499.5911 163.75,482.8411 " fill="none" id="Job-Collaborator" style="stroke:#181818;stroke-width:1.0;"/><polygon fill="#000000" points="196.043,518.2347,199.0224,527.2666,203.7622,523.7904,196.043,518.2347" style="stroke:#000000;stroke-width:1.0;"/><text fill="#000000" font-family="sans-serif" font-size="13" lengthAdjust="spacing" textLength="67" x="208" y="527.6494">assigned to</text><text fill="#000000" font-family="sans-serif" font-size="13" lengthAdjust="spacing" textLength="7" x="210.4782" y="554.9643">1</text><text fill="#000000" font-family="sans-serif" font-size="13" lengthAdjust="spacing" textLength="20" x="146.1551" y="504.3652">0..*</text></g><!--link Collaborator to Job--><g id="link_Collaborator_Job"><path codeLine="44" d="M118.39,482.9811 C121.4,500.2711 127.07,517.3711 137,531.6211 C157.78,561.4711 199.11,576.4211 225.34,583.2011 " fill="none" id="Collaborator-Job" style="stroke:#181818;stroke-width:1.0;"/><polygon fill="#000000" points="145.6485,525.6855,141.0579,517.3562,137.0388,521.6452,145.6485,525.6855" style="stroke:#000000;stroke-width:1.0;"/><text fill="#000000" font-family="sans-serif" font-size="13" lengthAdjust="spacing" textLength="21" x="151" y="527.6494">has</text><text fill="#000000" font-family="sans-serif" font-size="13" lengthAdjust="spacing" textLength="20" x="97.5034" y="504.1961">0..*</text><text fill="#000000" font-family="sans-serif" font-size="13" lengthAdjust="spacing" textLength="7" x="210.3618" y="576.0007">1</text></g><!--link HumanResourcesManager to Collaborator--><g id="link_HumanResourcesManager_Collaborator"><path codeLine="43" d="M246.09,217.7211 C236.74,226.8511 226.58,237.3611 218,247.6211 C202.66,265.9711 187.38,286.7211 173.63,306.5511 " fill="none" id="HumanResourcesManager-Collaborator" style="stroke:#181818;stroke-width:1.0;"/><polygon fill="#000000" points="219.8395,261.1411,227.8342,255.9898,223.2795,252.2744,219.8395,261.1411" style="stroke:#000000;stroke-width:1.0;"/><text fill="#000000" font-family="sans-serif" font-size="13" lengthAdjust="spacing" textLength="43" x="232" y="262.6494">register</text><text fill="#000000" font-family="sans-serif" font-size="13" lengthAdjust="spacing" textLength="7" x="231.5952" y="240.1032">1</text><text fill="#000000" font-family="sans-serif" font-size="13" lengthAdjust="spacing" textLength="20" x="181.6545" y="291.8919">1..*</text></g><!--link Collaborator to IDDocType--><g id="link_Collaborator_IDDocType"><path codeLine="45" d="M68.43,456.8711 C57.58,474.0911 47.72,493.2611 42,512.6211 C37.35,528.3511 37.96,546.7111 39.8,561.4011 " fill="none" id="Collaborator-IDDocType" style="stroke:#181818;stroke-width:1.0;"/><polygon fill="#000000" points="45.6792,527.089,50.9031,519.1416,45.234,517.5888,45.6792,527.089" style="stroke:#000000;stroke-width:1.0;"/><text fill="#000000" font-family="sans-serif" font-size="13" lengthAdjust="spacing" textLength="21" x="56" y="527.6494">has</text><text fill="#000000" font-family="sans-serif" font-size="13" lengthAdjust="spacing" textLength="20" x="40.4132" y="461.4717">0..*</text><text fill="#000000" font-family="sans-serif" font-size="13" lengthAdjust="spacing" textLength="7" x="30.8969" y="550.5116">1</text></g><!--SRC=[ZL9DJyCm3BtdLrWx8cqguiPX4g87XZIG6Fm0DpLjj2IkubHeG_ntij9sAneVkTJsU_PxSIDRuniCwC2nPrq7TWGnjAHaH1hKMwne4tUM892Ew2jxIf0QItuple9Nj4Bg1D8MHMvY3APe8wqq-utP4sHArQOaq2ReDAgB7SMQIr4gcfY4SdPeFAov90jpUDbasPLItJnu31LwiyTesCEx-XZgjsmj5XmmSaXrICUZeoueJ8XrYRikmT8PaTITOwI-KWOIwUAcPayFhIieT3ab9xQBLddE-ddNK9_rfD70NUlGFv5m6pJ96dtQsyJ9oBpdubkTVEkE0ZqO3re9dDnuTZc3-Jnz5ekBsG-Qrr2ZmFAtnics_i4_M1vevqL7_a0Mikcz2AIEGs70itFwQIkcybH2vBy5pWq8L1c9YRLK4wINcnZxkiKljEEF6CYV]--></g></svg>