<?xml version="1.0" encoding="us-ascii" standalone="no"?><svg xmlns="http://www.w3.org/2000/svg" xmlns:xlink="http://www.w3.org/1999/xlink" contentStyleType="text/css" height="623px" preserveAspectRatio="none" style="width:340px;height:623px;background:#FFFFFF;" version="1.1" viewBox="0 0 340 623" width="340px" zoomAndPan="magnify"><defs/><g><text fill="#000000" font-family="sans-serif" font-size="14" font-weight="bold" lengthAdjust="spacing" textLength="156" x="85.25" y="25.1074">Domain Model - US003</text><!--class Organization--><g id="elem_Organization"><rect codeLine="12" fill="#F1F1F1" height="36.6211" id="Organization" rx="2.5" ry="2.5" style="stroke:#181818;stroke-width:0.5;" width="86" x="141.5" y="46.6211"/><text fill="#000000" font-family="sans-serif" font-size="14" lengthAdjust="spacing" textLength="80" x="144.5" y="66.7285">Organization</text><line style="stroke:#181818;stroke-width:0.5;" x1="142.5" x2="226.5" y1="75.2422" y2="75.2422"/></g><!--class Collaborator--><g id="elem_Collaborator"><rect codeLine="15" fill="#F1F1F1" height="185.5898" id="Collaborator" rx="2.5" ry="2.5" style="stroke:#181818;stroke-width:0.5;" width="105" x="7" y="296.6211"/><text fill="#000000" font-family="sans-serif" font-size="14" lengthAdjust="spacing" textLength="78" x="20.5" y="316.7285">Collaborator</text><line style="stroke:#181818;stroke-width:0.5;" x1="8" x2="111" y1="325.2422" y2="325.2422"/><text fill="#000000" font-family="sans-serif" font-size="14" lengthAdjust="spacing" textLength="35" x="13" y="344.3496">name</text><text fill="#000000" font-family="sans-serif" font-size="14" lengthAdjust="spacing" textLength="51" x="13" y="362.9707">birthday</text><text fill="#000000" font-family="sans-serif" font-size="14" lengthAdjust="spacing" textLength="93" x="13" y="381.5918">admissionDate</text><text fill="#000000" font-family="sans-serif" font-size="14" lengthAdjust="spacing" textLength="51" x="13" y="400.2129">address</text><text fill="#000000" font-family="sans-serif" font-size="14" lengthAdjust="spacing" textLength="89" x="13" y="418.834">phoneNumber</text><text fill="#000000" font-family="sans-serif" font-size="14" lengthAdjust="spacing" textLength="33" x="13" y="437.4551">email</text><text fill="#000000" font-family="sans-serif" font-size="14" lengthAdjust="spacing" textLength="70" x="13" y="456.0762">IDDocType</text><text fill="#000000" font-family="sans-serif" font-size="14" lengthAdjust="spacing" textLength="62" x="13" y="474.6973">IDNumber</text></g><!--class HumanResourcesManager--><g id="elem_HumanResourcesManager"><rect codeLine="26" fill="#F1F1F1" height="55.2422" id="HumanResourcesManager" rx="2.5" ry="2.5" style="stroke:#181818;stroke-width:0.5;" width="174" x="97.5" y="162.6211"/><text fill="#000000" font-family="sans-serif" font-size="14" lengthAdjust="spacing" textLength="168" x="100.5" y="182.7285">HumanResourcesManager</text><line style="stroke:#181818;stroke-width:0.5;" x1="98.5" x2="270.5" y1="191.2422" y2="191.2422"/><text fill="#000000" font-family="sans-serif" font-size="14" lengthAdjust="spacing" textLength="35" x="103.5" y="210.3496">name</text></g><!--class Job--><g id="elem_Job"><rect codeLine="30" fill="#F1F1F1" height="55.2422" id="Job" rx="2.5" ry="2.5" style="stroke:#181818;stroke-width:0.5;" width="47" x="123" y="561.6211"/><text fill="#000000" font-family="sans-serif" font-size="14" lengthAdjust="spacing" textLength="22" x="135.5" y="581.7285">Job</text><line style="stroke:#181818;stroke-width:0.5;" x1="124" x2="169" y1="590.2422" y2="590.2422"/><text fill="#000000" font-family="sans-serif" font-size="14" lengthAdjust="spacing" textLength="35" x="129" y="609.3496">name</text></g><!--link Organization to HumanResourcesManager--><g id="link_Organization_HumanResourcesManager"><path codeLine="34" d="M184.5,83.7411 C184.5,104.3411 184.5,138.6211 184.5,162.4711 " fill="none" id="Organization-HumanResourcesManager" style="stroke:#181818;stroke-width:1.0;"/><polygon fill="#000000" points="189.5,128.2666,192.4389,119.2215,186.5611,119.2215,189.5,128.2666" style="stroke:#000000;stroke-width:1.0;"/><text fill="#000000" font-family="sans-serif" font-size="13" lengthAdjust="spacing" textLength="21" x="198.5" y="128.6494">has</text><text fill="#000000" font-family="sans-serif" font-size="13" lengthAdjust="spacing" textLength="7" x="176.5594" y="105.1479">1</text><text fill="#000000" font-family="sans-serif" font-size="13" lengthAdjust="spacing" textLength="7" x="176.6906" y="151.1454">1</text></g><!--link Organization to Collaborator--><g id="link_Organization_Collaborator"><path codeLine="35" d="M141.32,82.4211 C107.91,97.6011 63.98,123.7911 43.5,162.6211 C22.12,203.1511 23.52,253.6011 31.38,296.5411 " fill="none" id="Organization-Collaborator" style="stroke:#181818;stroke-width:1.0;"/><polygon fill="#000000" points="46.2162,194.7146,52.9621,188.0105,47.7332,185.3258,46.2162,194.7146" style="stroke:#000000;stroke-width:1.0;"/><text fill="#000000" font-family="sans-serif" font-size="13" lengthAdjust="spacing" textLength="21" x="57.5" y="195.6494">has</text><text fill="#000000" font-family="sans-serif" font-size="13" lengthAdjust="spacing" textLength="7" x="126.5886" y="80.9624">1</text><text fill="#000000" font-family="sans-serif" font-size="13" lengthAdjust="spacing" textLength="20" x="8.3423" y="285.5027">1..*</text></g><!--link Organization to Job--><g id="link_Organization_Job"><path codeLine="36" d="M214.92,83.9011 C240.19,100.6011 274.37,128.1611 289.5,162.6211 C299.33,185.0011 290.79,193.2111 289.5,217.6211 C283.27,335.8911 314.81,376.8611 261.5,482.6211 C240.89,523.5111 197.37,556.3911 170.18,574.0211 " fill="none" id="Organization-Job" style="stroke:#181818;stroke-width:1.0;"/><polygon fill="#000000" points="293.0455,262.2459,296.7945,253.5054,290.941,252.9711,293.0455,262.2459" style="stroke:#000000;stroke-width:1.0;"/><text fill="#000000" font-family="sans-serif" font-size="13" lengthAdjust="spacing" textLength="30" x="302.5" y="262.6494">owns</text><text fill="#000000" font-family="sans-serif" font-size="13" lengthAdjust="spacing" textLength="7" x="215.1547" y="105.3509">1</text><text fill="#000000" font-family="sans-serif" font-size="13" lengthAdjust="spacing" textLength="20" x="177.9685" y="565.5976">1..*</text></g><!--link HumanResourcesManager to Job--><g id="link_HumanResourcesManager_Job"><path codeLine="37" d="M188.19,217.7811 C195.32,275.9711 207.81,418.2311 177.5,531.6211 C174.76,541.8911 169.78,552.3211 164.6,561.3711 " fill="none" id="HumanResourcesManager-Job" style="stroke:#181818;stroke-width:1.0;"/><polygon fill="#000000" points="201.1575,394.7549,204.7091,385.9323,198.845,385.5297,201.1575,394.7549" style="stroke:#000000;stroke-width:1.0;"/><text fill="#000000" font-family="sans-serif" font-size="13" lengthAdjust="spacing" textLength="42" x="210.5" y="395.1494">selects</text><text fill="#000000" font-family="sans-serif" font-size="13" lengthAdjust="spacing" textLength="7" x="181.2316" y="239.7248">1</text><text fill="#000000" font-family="sans-serif" font-size="13" lengthAdjust="spacing" textLength="7" x="160.7938" y="550.4751">1</text></g><!--link Job to Collaborator--><g id="link_Job_Collaborator"><path codeLine="38" d="M122.78,569.1911 C111.71,559.1511 99.27,545.9311 91.5,531.6211 C83.35,516.6211 77.28,499.6411 72.75,482.7911 " fill="none" id="Job-Collaborator" style="stroke:#181818;stroke-width:1.0;"/><polygon fill="#000000" points="93.9945,517.9397,95.9837,527.2399,101.0703,524.2945,93.9945,517.9397" style="stroke:#000000;stroke-width:1.0;"/><text fill="#000000" font-family="sans-serif" font-size="13" lengthAdjust="spacing" textLength="67" x="105.5" y="527.6494">assigned to</text><text fill="#000000" font-family="sans-serif" font-size="13" lengthAdjust="spacing" textLength="7" x="108.1244" y="558.2303">1</text><text fill="#000000" font-family="sans-serif" font-size="13" lengthAdjust="spacing" textLength="20" x="52.9887" y="504.3116">0..*</text></g><!--link Collaborator to Job--><g id="link_Collaborator_Job"><path codeLine="40" d="M29,482.6511 C28.05,499.7911 30.63,516.9011 39.5,531.6211 C57.5,561.4911 97.15,576.3811 122.8,583.1511 " fill="none" id="Collaborator-Job" style="stroke:#181818;stroke-width:1.0;"/><polygon fill="#000000" points="47.9116,525.9219,43.8885,517.3041,39.5914,521.3147,47.9116,525.9219" style="stroke:#000000;stroke-width:1.0;"/><text fill="#000000" font-family="sans-serif" font-size="13" lengthAdjust="spacing" textLength="21" x="53.5" y="527.6494">has</text><text fill="#000000" font-family="sans-serif" font-size="13" lengthAdjust="spacing" textLength="20" x="6.0258" y="504.1613">0..*</text><text fill="#000000" font-family="sans-serif" font-size="13" lengthAdjust="spacing" textLength="7" x="108.15" y="597.8978">1</text></g><!--link HumanResourcesManager to Collaborator--><g id="link_HumanResourcesManager_Collaborator"><path codeLine="39" d="M145.1,217.6811 C134.45,226.2811 123.63,236.5011 115.5,247.6211 C104.77,262.2911 95.76,279.3011 88.32,296.3111 " fill="none" id="HumanResourcesManager-Collaborator" style="stroke:#181818;stroke-width:1.0;"/><polygon fill="#000000" points="117.5728,261.3202,125.2508,255.7077,120.4855,252.2666,117.5728,261.3202" style="stroke:#000000;stroke-width:1.0;"/><text fill="#000000" font-family="sans-serif" font-size="13" lengthAdjust="spacing" textLength="43" x="129.5" y="262.6494">register</text><text fill="#000000" font-family="sans-serif" font-size="13" lengthAdjust="spacing" textLength="7" x="128.1794" y="240.0539">1</text><text fill="#000000" font-family="sans-serif" font-size="13" lengthAdjust="spacing" textLength="20" x="69.8197" y="285.2544">1..*</text></g><!--SRC=[ZLB1QiCm3BtxAqIFWvQCtNeeZEMm3hh1kds0ucY9gMq5ow6qO_y-rqrBCpesNomzFJqz6Sl6-0u3Ed3iMRU17K4CFIavLphK6sne7NUM892Ew1jxIP0MQzuQty07MY5rKT8MHUvZ3ARg8oqr-xNP4nHAjQOcq2Re99LZHx7bMfIA9gP19Jiq7bPSauKflA-Buawfh0SleK5lzXWDU_XKNoVyWQt5YWD63Wc7T3mwoa5bGcnhtEK4QsT4KdU9aGQa3YIIuwvbJy-zgoZad98JcwDbMR9-stKqP0FfRE2nT-XVIRWFccI5FhtRoCcP-SJL3toqrEHs0jDflgvhpg55WSKlNRFPpMJy6l_W7opDWRV-mBi-zSBMaIraquSGI1q7u5GlhXb8Qvl6KmsH_nvmJI1GOoGcraADAiEuaR7Zjjy0]--></g></svg>