<?xml version="1.0" encoding="us-ascii" standalone="no"?><svg xmlns="http://www.w3.org/2000/svg" xmlns:xlink="http://www.w3.org/1999/xlink" contentStyleType="text/css" height="705px" preserveAspectRatio="none" style="width:330px;height:705px;background:#FFFFFF;" version="1.1" viewBox="0 0 330 705" width="330.5px" zoomAndPan="magnify"><defs/><g><text fill="#000000" font-family="sans-serif" font-size="7" font-weight="bold" lengthAdjust="spacing" textLength="63.5" x="130" y="12.5537">Use Case Diagram</text><!--cluster actors--><g id="cluster_actors"><rect fill="none" height="275" rx="1.25" ry="1.25" style="stroke:#FFFF00;stroke-width:0.5;" width="219.75" x="3.5" y="23.3105"/><text fill="#000000" font-family="sans-serif" font-size="7" font-weight="bold" lengthAdjust="spacing" textLength="49.5" x="88.625" y="31.8643">System Actors</text></g><!--cluster usecases--><g id="cluster_usecases"><rect fill="none" height="392" rx="1.25" ry="1.25" style="stroke:#FFFF00;stroke-width:0.5;" width="248" x="79.5" y="310.3105"/><text fill="#000000" font-family="sans-serif" font-size="7" font-weight="bold" lengthAdjust="spacing" textLength="37" x="185" y="318.8643">Use Cases</text></g><!--entity Collaborator--><g id="elem_Collaborator"><ellipse cx="34.5" cy="121.8105" fill="#F1F1F1" rx="4" ry="4" style="stroke:#181818;stroke-width:0.25;"/><path d="M34.5,125.8105 L34.5,139.3105 M28,129.8105 L41,129.8105 M34.5,139.3105 L28,146.8105 M34.5,139.3105 L41,146.8105 " fill="none" style="stroke:#181818;stroke-width:0.25;"/><text fill="#000000" font-family="sans-serif" font-size="7" lengthAdjust="spacing" textLength="39" x="15" y="155.1143">Collaborator</text></g><!--entity GSM--><g id="elem_GSM"><ellipse cx="34.5" cy="46.0605" fill="#F1F1F1" rx="4" ry="4" style="stroke:#181818;stroke-width:0.25;"/><path d="M34.5,50.0605 L34.5,63.5605 M28,54.0605 L41,54.0605 M34.5,63.5605 L28,71.0605 M34.5,63.5605 L41,71.0605 " fill="none" style="stroke:#181818;stroke-width:0.25;"/><text fill="#000000" font-family="sans-serif" font-size="7" lengthAdjust="spacing" textLength="20" x="20.5" y="79.3643">Green</text><text fill="#000000" font-family="sans-serif" font-size="7" lengthAdjust="spacing" textLength="23.5" x="20.5" y="88.6748">Spaces</text><text fill="#000000" font-family="sans-serif" font-size="7" lengthAdjust="spacing" textLength="28" x="20.5" y="97.9854">Manager</text></g><!--entity GSU--><g id="elem_GSU"><ellipse cx="203.5" cy="112.5605" fill="#F1F1F1" rx="4" ry="4" style="stroke:#181818;stroke-width:0.25;"/><path d="M203.5,116.5605 L203.5,130.0605 M197,120.5605 L210,120.5605 M203.5,130.0605 L197,137.5605 M203.5,130.0605 L210,137.5605 " fill="none" style="stroke:#181818;stroke-width:0.25;"/><text fill="#000000" font-family="sans-serif" font-size="7" lengthAdjust="spacing" textLength="20" x="191.75" y="145.8643">Green</text><text fill="#000000" font-family="sans-serif" font-size="7" lengthAdjust="spacing" textLength="23.5" x="191.75" y="155.1748">Spaces</text><text fill="#000000" font-family="sans-serif" font-size="7" lengthAdjust="spacing" textLength="14.5" x="191.75" y="164.4854">User</text></g><!--entity HRM--><g id="elem_HRM"><ellipse cx="34.5" cy="179.0605" fill="#F1F1F1" rx="4" ry="4" style="stroke:#181818;stroke-width:0.25;"/><path d="M34.5,183.0605 L34.5,196.5605 M28,187.0605 L41,187.0605 M34.5,196.5605 L28,204.0605 M34.5,196.5605 L41,204.0605 " fill="none" style="stroke:#181818;stroke-width:0.25;"/><text fill="#000000" font-family="sans-serif" font-size="7" lengthAdjust="spacing" textLength="22" x="17.5" y="212.3643">Human</text><text fill="#000000" font-family="sans-serif" font-size="7" lengthAdjust="spacing" textLength="34" x="17.5" y="221.6748">Resources</text><text fill="#000000" font-family="sans-serif" font-size="7" lengthAdjust="spacing" textLength="28" x="17.5" y="230.9854">Manager</text></g><!--entity FM--><g id="elem_FM"><ellipse cx="34.5" cy="254.8105" fill="#F1F1F1" rx="4" ry="4" style="stroke:#181818;stroke-width:0.25;"/><path d="M34.5,258.8105 L34.5,272.3105 M28,262.8105 L41,262.8105 M34.5,272.3105 L28,279.8105 M34.5,272.3105 L41,279.8105 " fill="none" style="stroke:#181818;stroke-width:0.25;"/><text fill="#000000" font-family="sans-serif" font-size="7" lengthAdjust="spacing" textLength="46" x="11.5" y="288.1143">Fleet Manager</text></g><g id="elem_UC01"><ellipse cx="203.5566" cy="344.3219" fill="#F1F1F1" rx="70.3066" ry="15.2613" style="stroke:#181818;stroke-width:0.25;"/><text fill="#000000" font-family="sans-serif" font-size="7" lengthAdjust="spacing" textLength="123.5" x="141.8066" y="346.2203">UC01 - Register Skills of a Collaborator</text></g><g id="elem_UC02"><ellipse cx="203.4901" cy="387.7086" fill="#F1F1F1" rx="45.9901" ry="10.398" style="stroke:#181818;stroke-width:0.25;"/><text fill="#000000" font-family="sans-serif" font-size="7" lengthAdjust="spacing" textLength="69.5" x="167.2401" y="390.1104">UC02 - Register a Job</text></g><g id="elem_UC03"><ellipse cx="203.3931" cy="440.1892" fill="#F1F1F1" rx="115.8931" ry="24.3786" style="stroke:#181818;stroke-width:0.25;"/><text fill="#000000" font-family="sans-serif" font-size="7" lengthAdjust="spacing" textLength="218" x="94.3931" y="442.0876">UC03 - Register collaborator with job and fundamental characteristics</text></g><g id="elem_UC04"><ellipse cx="203.3844" cy="492.1874" fill="#F1F1F1" rx="43.3844" ry="9.8769" style="stroke:#181818;stroke-width:0.25;"/><text fill="#000000" font-family="sans-serif" font-size="7" lengthAdjust="spacing" textLength="63" x="170.3844" y="494.5893">UC04 - Assign Skills</text></g><g id="elem_UC05"><ellipse cx="203.6077" cy="537.7821" fill="#F1F1F1" rx="83.8577" ry="17.9715" style="stroke:#181818;stroke-width:0.25;"/><text fill="#000000" font-family="sans-serif" font-size="7" lengthAdjust="spacing" textLength="150" x="127.6077" y="539.6805">UC05 - Generate a team proposal automatically</text></g><g id="elem_UC06"><ellipse cx="203.622" cy="584.8849" fill="#F1F1F1" rx="50.622" ry="11.3244" style="stroke:#181818;stroke-width:0.25;"/><text fill="#000000" font-family="sans-serif" font-size="7" lengthAdjust="spacing" textLength="80.5" x="162.9997" y="586.9217">UC06 - Register a vehicle</text></g><g id="elem_UC07"><ellipse cx="203.3908" cy="627.8387" fill="#F1F1F1" rx="65.3908" ry="14.2782" style="stroke:#181818;stroke-width:0.25;"/><text fill="#000000" font-family="sans-serif" font-size="7" lengthAdjust="spacing" textLength="113" x="146.8908" y="629.7372">UC07 - Register Vehicle's Check-up</text></g><g id="elem_UC08"><ellipse cx="203.5066" cy="676.8619" fill="#F1F1F1" rx="80.5066" ry="17.3013" style="stroke:#181818;stroke-width:0.25;"/><text fill="#000000" font-family="sans-serif" font-size="7" lengthAdjust="spacing" textLength="145" x="131.0066" y="678.7603">UC08 - List the vehicles needing the check-up</text></g><!--link HRM to UC01--><g id="link_HRM_UC01"><path d="M51.525,229.9755 C53.68,233.8705 55.745,237.8905 57.5,241.8105 C68.285,265.8605 57.22,279.3255 75.5,298.3105 C94.15,317.6755 118.6446,328.1538 143.2696,334.6638 " fill="none" id="HRM-to-UC01" style="stroke:#181818;stroke-width:0.5;"/><polygon fill="#181818" points="146.17,335.4305,142.3306,332.3468,143.753,334.7916,141.3083,336.214,146.17,335.4305" style="stroke:#181818;stroke-width:0.5;"/></g><!--link HRM to UC02--><g id="link_HRM_UC02"><path d="M51.575,228.6855 C53.86,232.9305 55.95,237.4005 57.5,241.8105 C66.915,268.6005 55.525,348.1305 75.5,368.3105 C98.025,391.0705 132.1737,394.6404 160.5737,393.2204 " fill="none" id="HRM-to-UC02" style="stroke:#181818;stroke-width:0.5;"/><polygon fill="#181818" points="163.57,393.0705,158.9757,391.2978,161.0731,393.1954,159.1755,395.2928,163.57,393.0705" style="stroke:#181818;stroke-width:0.5;"/></g><!--link HRM to UC03--><g id="link_HRM_UC03"><path d="M51.59,228.4355 C53.905,232.7455 55.995,237.3005 57.5,241.8105 C69.16,276.8055 51.42,378.8705 75.5,406.8105 C83.305,415.8705 90.5112,421.3683 101.3762,426.3833 " fill="none" id="HRM-to-UC03" style="stroke:#181818;stroke-width:0.5;"/><polygon fill="#181818" points="104.1,427.6405,100.8524,423.9388,101.8301,426.5928,99.1761,427.5706,104.1,427.6405" style="stroke:#181818;stroke-width:0.5;"/></g><!--link HRM to UC04--><g id="link_HRM_UC04"><path d="M51.6,228.1855 C53.945,232.5655 56.045,237.2055 57.5,241.8105 C73.05,291.0105 40.32,435.5655 75.5,473.3105 C98.39,497.8655 135.2394,500.4077 164.3044,498.1027 " fill="none" id="HRM-to-UC04" style="stroke:#181818;stroke-width:0.5;"/><polygon fill="#181818" points="167.295,497.8655,162.651,496.2276,164.8028,498.0632,162.9672,500.215,167.295,497.8655" style="stroke:#181818;stroke-width:0.5;"/></g><!--link HRM to UC05--><g id="link_HRM_UC05"><path d="M51.53,227.9655 C53.915,232.4055 56.045,237.1255 57.5,241.8105 C66.375,270.4205 55.875,488.1805 75.5,510.8105 C86.95,524.0155 100.1971,530.9729 117.1671,535.2779 " fill="none" id="HRM-to-UC05" style="stroke:#181818;stroke-width:0.5;"/><polygon fill="#181818" points="120.075,536.0155,116.205,532.9704,117.6518,535.4008,115.2214,536.8476,120.075,536.0155" style="stroke:#181818;stroke-width:0.5;"/></g><!--link FM to UC06--><g id="link_FM_UC06"><path d="M34.795,290.1305 C34.605,349.6805 37.365,525.3055 75.5,564.3105 C96.58,585.8705 127.7055,590.4925 155.3455,589.9675 " fill="none" id="FM-to-UC06" style="stroke:#181818;stroke-width:0.5;"/><polygon fill="#181818" points="158.345,589.9105,153.8078,587.9964,155.8455,589.958,153.8838,591.9956,158.345,589.9105" style="stroke:#181818;stroke-width:0.5;"/></g><!--link FM to UC07--><g id="link_FM_UC07"><path d="M36.045,290.1005 C39.83,358.4655 53.77,581.7805 75.5,604.8105 C91.865,622.1505 113.5478,628.7986 136.8428,630.9586 " fill="none" id="FM-to-UC07" style="stroke:#181818;stroke-width:0.5;"/><polygon fill="#181818" points="139.83,631.2355,135.5339,628.8286,137.3407,631.0047,135.1646,632.8115,139.83,631.2355" style="stroke:#181818;stroke-width:0.5;"/></g><!--link FM to UC08--><g id="link_FM_UC08"><path d="M35.76,290.1705 C38.79,364.5705 51.035,623.9005 75.5,650.8105 C87.81,664.3505 102.1685,671.2657 120.0435,675.2957 " fill="none" id="FM-to-UC08" style="stroke:#181818;stroke-width:0.5;"/><polygon fill="#181818" points="122.97,675.9555,119.0201,673.0148,120.5312,675.4057,118.1403,676.9169,122.97,675.9555" style="stroke:#181818;stroke-width:0.5;"/></g><!--SRC=[VPDFZzem4CNl_XGZBfoGMlwVAcsfO5ML2sXxsilW38cBuq6sKuIgVlTEmWPC8fL3n3Zl_MRUo1c6at5dz5X2oOvruRaaYBuYzNXpHdt2dFRnQWaywOWkjwI63qKeCEEBSJaSqGPIYVck_wD0Vb_PP-HNRDd3bQpbY_ghL3HHq6-1O8No-6Om5wzIbeuH8eCtUH4XCpNCi5FgJeN1_XeYbV2Y8_im00o0pL-uDMmAa8OM3-nHYkHuiF54xjtj9IA5TxT59q5zGzdij_zHogojx2sLlLObYcn7WIlVOxxkdfXhInGX5QotzJgITErERicgGBekRj4-AX6jFds64UmeDx8B3_kJiJO07m6VaZUCMjpOPHWOZRuy3bBUEEKXVET3QnvtpUEUUPAQTJ80N4miu1SV05q6nyfbM9ABQ44NSbkqwCLaT6YRJRhD9hrcKsds4eB9tKVkrZljUgSzxqoy6t8amv6aZ5JVTizd3Z8ILf5Bb6dGsYkqr5cNEkjHvy-x-qs5qPPQmBpHh-_-US-_IFq_R-vXW5L1-ZIgpYreqG4jUg2bW7u81c91xHW1755MVwhreUumbntcKgxZFm00]--></g></svg>