<?xml version="1.0" encoding="us-ascii" standalone="no"?><svg xmlns="http://www.w3.org/2000/svg" xmlns:xlink="http://www.w3.org/1999/xlink" contentStyleType="text/css" height="1459.2px" preserveAspectRatio="none" style="width:528px;height:1459px;background:#FFFFFF;" version="1.1" viewBox="0 0 528 1459" width="528.8px" zoomAndPan="magnify"><defs/><g><text fill="#000000" font-family="sans-serif" font-size="11.2" font-weight="bold" lengthAdjust="spacing" textLength="101.6" x="208" y="20.0859">Use Case Diagram</text><!--cluster actors--><g id="cluster_actors"><rect fill="none" height="560.8" rx="2" ry="2" style="stroke:#FFFF00;stroke-width:0.8000000000000002;" width="99.2" x="5.6" y="518.8969"/><text fill="#000000" font-family="sans-serif" font-size="11.2" font-weight="bold" lengthAdjust="spacing" textLength="79.2" x="15.6" y="532.5828">System Actors</text></g><!--cluster usecases--><g id="cluster_usecases"><rect fill="none" height="1417.6" rx="2" ry="2" style="stroke:#FFFF00;stroke-width:0.8000000000000002;" width="396.8" x="127.2" y="37.2969"/><text fill="#000000" font-family="sans-serif" font-size="11.2" font-weight="bold" lengthAdjust="spacing" textLength="59.2" x="296" y="50.9828">Use Cases</text></g><!--entity Collaborator--><g id="elem_Collaborator"><ellipse cx="55.2" cy="555.6969" fill="#F1F1F1" rx="6.4" ry="6.4" style="stroke:#181818;stroke-width:0.4000000000000001;"/><path d="M55.2,562.0969 L55.2,583.6969 M44.8,568.4969 L65.6,568.4969 M55.2,583.6969 L44.8,595.6969 M55.2,583.6969 L65.6,595.6969 " fill="none" style="stroke:#181818;stroke-width:0.4000000000000001;"/><text fill="#000000" font-family="sans-serif" font-size="11.2" lengthAdjust="spacing" textLength="62.4" x="24" y="608.9828">Collaborator</text></g><!--entity GSM--><g id="elem_GSM"><ellipse cx="55.2" cy="647.2969" fill="#F1F1F1" rx="6.4" ry="6.4" style="stroke:#181818;stroke-width:0.4000000000000001;"/><path d="M55.2,653.6969 L55.2,675.2969 M44.8,660.0969 L65.6,660.0969 M55.2,675.2969 L44.8,687.2969 M55.2,675.2969 L65.6,687.2969 " fill="none" style="stroke:#181818;stroke-width:0.4000000000000001;"/><text fill="#000000" font-family="sans-serif" font-size="11.2" lengthAdjust="spacing" textLength="32" x="32.8" y="700.5828">Green</text><text fill="#000000" font-family="sans-serif" font-size="11.2" lengthAdjust="spacing" textLength="37.6" x="32.8" y="715.4797">Spaces</text><text fill="#000000" font-family="sans-serif" font-size="11.2" lengthAdjust="spacing" textLength="44.8" x="32.8" y="730.3766">Manager</text></g><!--entity GSU--><g id="elem_GSU"><ellipse cx="55.2" cy="768.0969" fill="#F1F1F1" rx="6.4" ry="6.4" style="stroke:#181818;stroke-width:0.4000000000000001;"/><path d="M55.2,774.4969 L55.2,796.0969 M44.8,780.8969 L65.6,780.8969 M55.2,796.0969 L44.8,808.0969 M55.2,796.0969 L65.6,808.0969 " fill="none" style="stroke:#181818;stroke-width:0.4000000000000001;"/><text fill="#000000" font-family="sans-serif" font-size="11.2" lengthAdjust="spacing" textLength="32" x="36.4" y="821.3828">Green</text><text fill="#000000" font-family="sans-serif" font-size="11.2" lengthAdjust="spacing" textLength="37.6" x="36.4" y="836.2797">Spaces</text><text fill="#000000" font-family="sans-serif" font-size="11.2" lengthAdjust="spacing" textLength="23.2" x="36.4" y="851.1766">User</text></g><!--entity HRM--><g id="elem_HRM"><ellipse cx="55.2" cy="888.8969" fill="#F1F1F1" rx="6.4" ry="6.4" style="stroke:#181818;stroke-width:0.4000000000000001;"/><path d="M55.2,895.2969 L55.2,916.8969 M44.8,901.6969 L65.6,901.6969 M55.2,916.8969 L44.8,928.8969 M55.2,916.8969 L65.6,928.8969 " fill="none" style="stroke:#181818;stroke-width:0.4000000000000001;"/><text fill="#000000" font-family="sans-serif" font-size="11.2" lengthAdjust="spacing" textLength="35.2" x="28" y="942.1828">Human</text><text fill="#000000" font-family="sans-serif" font-size="11.2" lengthAdjust="spacing" textLength="54.4" x="28" y="957.0797">Resources</text><text fill="#000000" font-family="sans-serif" font-size="11.2" lengthAdjust="spacing" textLength="44.8" x="28" y="971.9766">Manager</text></g><!--entity FM--><g id="elem_FM"><ellipse cx="55.2" cy="1010.0969" fill="#F1F1F1" rx="6.4" ry="6.4" style="stroke:#181818;stroke-width:0.4000000000000001;"/><path d="M55.2,1016.4969 L55.2,1038.0969 M44.8,1022.8969 L65.6,1022.8969 M55.2,1038.0969 L44.8,1050.0969 M55.2,1038.0969 L65.6,1050.0969 " fill="none" style="stroke:#181818;stroke-width:0.4000000000000001;"/><text fill="#000000" font-family="sans-serif" font-size="11.2" lengthAdjust="spacing" textLength="73.6" x="18.4" y="1063.3828">Fleet Manager</text></g><g id="elem_UC01"><ellipse cx="325.6906" cy="1134.115" fill="#F1F1F1" rx="112.4906" ry="24.4181" style="stroke:#181818;stroke-width:0.4000000000000001;"/><text fill="#000000" font-family="sans-serif" font-size="11.2" lengthAdjust="spacing" textLength="197.6" x="226.8906" y="1137.1525">UC01 - Register Skills of a Collaborator</text></g><g id="elem_UC02"><ellipse cx="325.5841" cy="1203.5337" fill="#F1F1F1" rx="73.5841" ry="16.6368" style="stroke:#181818;stroke-width:0.4000000000000001;"/><text fill="#000000" font-family="sans-serif" font-size="11.2" lengthAdjust="spacing" textLength="111.2" x="267.5841" y="1207.3767">UC02 - Register a Job</text></g><g id="elem_UC03"><ellipse cx="325.429" cy="896.3027" fill="#F1F1F1" rx="185.429" ry="39.0058" style="stroke:#181818;stroke-width:0.4000000000000001;"/><text fill="#000000" font-family="sans-serif" font-size="11.2" lengthAdjust="spacing" textLength="348.8" x="151.029" y="899.3402">UC03 - Register collaborator with job and fundamental characteristics</text></g><g id="elem_UC04"><ellipse cx="325.415" cy="979.4999" fill="#F1F1F1" rx="69.415" ry="15.803" style="stroke:#181818;stroke-width:0.4000000000000001;"/><text fill="#000000" font-family="sans-serif" font-size="11.2" lengthAdjust="spacing" textLength="100.8" x="272.615" y="983.3428">UC04 - Assign Skills</text></g><g id="elem_UC05"><ellipse cx="325.7723" cy="1052.4513" fill="#F1F1F1" rx="134.1723" ry="28.7545" style="stroke:#181818;stroke-width:0.4000000000000001;"/><text fill="#000000" font-family="sans-serif" font-size="11.2" lengthAdjust="spacing" textLength="240" x="204.1723" y="1055.4888">UC05 - Generate a team proposal automatically</text></g><g id="elem_UC06"><ellipse cx="325.7952" cy="1423.8159" fill="#F1F1F1" rx="80.9952" ry="18.119" style="stroke:#181818;stroke-width:0.4000000000000001;"/><text fill="#000000" font-family="sans-serif" font-size="11.2" lengthAdjust="spacing" textLength="128.8" x="260.7996" y="1427.0748">UC06 - Register a vehicle</text></g><g id="elem_UC07"><ellipse cx="325.4253" cy="1271.7419" fill="#F1F1F1" rx="104.6253" ry="22.8451" style="stroke:#181818;stroke-width:0.4000000000000001;"/><text fill="#000000" font-family="sans-serif" font-size="11.2" lengthAdjust="spacing" textLength="180.8" x="235.0253" y="1274.7794">UC07 - Register Vehicle's Check-up</text></g><g id="elem_UC08"><ellipse cx="325.6105" cy="1350.179" fill="#F1F1F1" rx="128.8105" ry="27.6821" style="stroke:#181818;stroke-width:0.4000000000000001;"/><text fill="#000000" font-family="sans-serif" font-size="11.2" lengthAdjust="spacing" textLength="232" x="209.6105" y="1353.2165">UC08 - List the vehicles needing the check-up</text></g><g id="elem_UC20"><ellipse cx="325.784" cy="247.8937" fill="#F1F1F1" rx="95.384" ry="20.9968" style="stroke:#181818;stroke-width:0.4000000000000001;"/><text fill="#000000" font-family="sans-serif" font-size="11.2" lengthAdjust="spacing" textLength="160.8" x="245.384" y="250.9312">UC20 - Register a Green Space</text></g><g id="elem_UC21"><ellipse cx="325.7975" cy="322.2964" fill="#F1F1F1" rx="117.3975" ry="25.3995" style="stroke:#181818;stroke-width:0.4000000000000001;"/><text fill="#000000" font-family="sans-serif" font-size="11.2" lengthAdjust="spacing" textLength="208" x="221.7975" y="325.3339">UC21 - Add a new entry to the To-Do List</text></g><g id="elem_UC22"><ellipse cx="325.4011" cy="397.1771" fill="#F1F1F1" rx="99.8011" ry="21.8802" style="stroke:#181818;stroke-width:0.4000000000000001;"/><text fill="#000000" font-family="sans-serif" font-size="11.2" lengthAdjust="spacing" textLength="170.4" x="240.2011" y="400.2146">UC22 - Add a entry in the Agenda</text></g><g id="elem_UC23"><ellipse cx="325.7399" cy="476.6049" fill="#F1F1F1" rx="134.9399" ry="28.908" style="stroke:#181818;stroke-width:0.4000000000000001;"/><text fill="#000000" font-family="sans-serif" font-size="11.2" lengthAdjust="spacing" textLength="244.8" x="203.3399" y="479.6424">UC23 - Assign a Team to an entry in the Agenda</text></g><g id="elem_UC24"><ellipse cx="325.4849" cy="558.7939" fill="#F1F1F1" rx="115.8849" ry="25.097" style="stroke:#181818;stroke-width:0.4000000000000001;"/><text fill="#000000" font-family="sans-serif" font-size="11.2" lengthAdjust="spacing" textLength="204.8" x="223.0849" y="561.8314">UC24 - Postpone an entry in the Agenda</text></g><g id="elem_UC25"><ellipse cx="325.4599" cy="636.3888" fill="#F1F1F1" rx="109.8599" ry="23.892" style="stroke:#181818;stroke-width:0.4000000000000001;"/><text fill="#000000" font-family="sans-serif" font-size="11.2" lengthAdjust="spacing" textLength="192" x="229.4599" y="639.4263">UC25 - Cancel an entry in the Agenda</text></g><g id="elem_UC26"><ellipse cx="325.6605" cy="718.189" fill="#F1F1F1" rx="136.8605" ry="29.2921" style="stroke:#181818;stroke-width:0.4000000000000001;"/><text fill="#000000" font-family="sans-serif" font-size="11.2" lengthAdjust="spacing" textLength="248.8" x="201.2605" y="721.2265">UC26 - Assign Vehicles to an entry in the Agenda</text></g><g id="elem_UC27"><ellipse cx="325.7749" cy="802.2919" fill="#F1F1F1" rx="125.3749" ry="26.995" style="stroke:#181818;stroke-width:0.4000000000000001;"/><text fill="#000000" font-family="sans-serif" font-size="11.2" lengthAdjust="spacing" textLength="224.8" x="213.3749" y="805.3294">UC27 - List of green spaces managed by me</text></g><g id="elem_UC28"><ellipse cx="325.7191" cy="94.1207" fill="#F1F1F1" rx="126.5191" ry="27.2238" style="stroke:#181818;stroke-width:0.4000000000000001;"/><text fill="#000000" font-family="sans-serif" font-size="11.2" lengthAdjust="spacing" textLength="227.2" x="212.1191" y="97.1582">UC28 - Consult the Task Between Two Dates</text></g><g id="elem_UC29"><ellipse cx="325.6671" cy="174.1903" fill="#F1F1F1" rx="112.8671" ry="24.4934" style="stroke:#181818;stroke-width:0.4000000000000001;"/><text fill="#000000" font-family="sans-serif" font-size="11.2" lengthAdjust="spacing" textLength="198.4" x="226.4671" y="177.2278">UC29 - Record the completion of a task</text></g><!--link HRM to UC01--><g id="link_HRM_UC01"><path d="M82.656,950.6889 C93.408,961.2089 104.776,974.6809 111.2,989.2969 C120.68,1010.8729 104.984,1077.4329 120.8,1094.8969 C144.4,1120.9609 174.8606,1132.2041 209.4206,1136.9481 " fill="none" id="HRM-to-UC01" style="stroke:#181818;stroke-width:0.8000000000000002;"/><polygon fill="#181818" points="214.176,1137.6009,207.4781,1133.4515,210.2132,1137.0569,206.6077,1139.792,214.176,1137.6009" style="stroke:#181818;stroke-width:0.8000000000000002;"/></g><!--link HRM to UC02--><g id="link_HRM_UC02"><path d="M82.632,950.2969 C93.52,960.8329 105.008,974.4249 111.2,989.2969 C119.04,1008.1129 107.12,1157.3849 120.8,1172.4969 C155.904,1211.2809 212.5309,1216.2916 258.8269,1213.1716 " fill="none" id="HRM-to-UC02" style="stroke:#181818;stroke-width:0.8000000000000002;"/><polygon fill="#181818" points="263.616,1212.8489,256.2171,1210.1402,259.6251,1213.1178,256.6475,1216.5258,263.616,1212.8489" style="stroke:#181818;stroke-width:0.8000000000000002;"/></g><!--link HRM to UC03--><g id="link_HRM_UC03"><path d="M82.512,925.3449 C102.576,922.9529 127.2176,920.0162 158.6736,916.2722 " fill="none" id="HRM-to-UC03" style="stroke:#181818;stroke-width:0.8000000000000002;"/><polygon fill="#181818" points="163.44,915.7049,155.9123,913.3783,159.468,916.1776,156.6687,919.7334,163.44,915.7049" style="stroke:#181818;stroke-width:0.8000000000000002;"/></g><!--link HRM to UC04--><g id="link_HRM_UC04"><path d="M82.528,938.0889 C94.152,942.0089 108.032,946.3129 120.8,949.2969 C167.704,960.2409 216.8675,967.4982 257.4915,972.4662 " fill="none" id="HRM-to-UC04" style="stroke:#181818;stroke-width:0.8000000000000002;"/><polygon fill="#181818" points="262.256,973.0489,255.4977,968.9985,258.2856,972.5633,254.7208,975.3512,262.256,973.0489" style="stroke:#181818;stroke-width:0.8000000000000002;"/></g><!--link HRM to UC05--><g id="link_HRM_UC05"><path d="M82.52,954.3369 C92.256,964.6569 102.92,976.9929 111.2,989.2969 C116.704,997.4809 113.048,1003.2089 120.8,1009.2969 C142.792,1026.5769 165.4228,1036.2314 192.8148,1042.8634 " fill="none" id="HRM-to-UC05" style="stroke:#181818;stroke-width:0.8000000000000002;"/><polygon fill="#181818" points="197.48,1043.9929,191.2352,1039.1885,193.5923,1043.0516,189.7292,1045.4087,197.48,1043.9929" style="stroke:#181818;stroke-width:0.8000000000000002;"/></g><!--link FM to UC06--><g id="link_FM_UC06"><path d="M57.208,1066.6569 C60.88,1145.4329 74.68,1346.6729 120.8,1391.6969 C155.112,1425.1929 204.4567,1432.5054 248.3447,1431.7694 " fill="none" id="FM-to-UC06" style="stroke:#181818;stroke-width:0.8000000000000002;"/><polygon fill="#181818" points="253.144,1431.6889,245.8914,1428.6101,249.1446,1431.7559,245.9987,1435.0092,253.144,1431.6889" style="stroke:#181818;stroke-width:0.8000000000000002;"/></g><!--link FM to UC07--><g id="link_FM_UC07"><path d="M56.792,1066.8569 C59.728,1111.3529 71.968,1191.3289 120.8,1234.0969 C148.096,1258.0009 180.7416,1268.3133 216.0696,1272.7613 " fill="none" id="FM-to-UC07" style="stroke:#181818;stroke-width:0.8000000000000002;"/><polygon fill="#181818" points="220.832,1273.3609,214.0881,1269.2865,216.8633,1272.8612,213.2887,1275.6364,220.832,1273.3609" style="stroke:#181818;stroke-width:0.8000000000000002;"/></g><!--link FM to UC08--><g id="link_FM_UC08"><path d="M59.264,1066.7129 C66.56,1131.4169 86.312,1275.0809 120.8,1308.4969 C141.568,1328.6169 164.592,1339.1661 192.88,1345.6141 " fill="none" id="FM-to-UC08" style="stroke:#181818;stroke-width:0.8000000000000002;"/><polygon fill="#181818" points="197.56,1346.6809,191.2512,1341.9608,193.66,1345.7919,189.8289,1348.2007,197.56,1346.6809" style="stroke:#181818;stroke-width:0.8000000000000002;"/></g><!--link GSM to UC20--><g id="link_GSM_UC20"><path d="M77.64,669.9609 C89.936,658.9369 104.232,643.4249 111.2,626.0969 C118.32,608.4009 108.312,297.3129 120.8,282.8969 C149.336,249.9609 191.8014,240.4454 233.6574,239.4294 " fill="none" id="GSM-to-UC20" style="stroke:#181818;stroke-width:0.8000000000000002;"/><polygon fill="#181818" points="238.456,239.3129,231.1805,236.2885,234.4572,239.4099,231.3358,242.6867,238.456,239.3129" style="stroke:#181818;stroke-width:0.8000000000000002;"/></g><!--link GSM to UC21--><g id="link_GSM_UC21"><path d="M77.872,669.6809 C90.088,658.6729 104.208,643.2649 111.2,626.0969 C122.304,598.8329 101.64,383.6489 120.8,361.2969 C142.864,335.5529 171.4776,324.1481 204.8696,319.1161 " fill="none" id="GSM-to-UC21" style="stroke:#181818;stroke-width:0.8000000000000002;"/><polygon fill="#181818" points="209.616,318.4009,202.0195,316.3095,205.6607,318.9969,202.9732,322.638,209.616,318.4009" style="stroke:#181818;stroke-width:0.8000000000000002;"/></g><!--link GSM to UC22--><g id="link_GSM_UC22"><path d="M77.792,669.6489 C89.968,658.6249 104.096,643.2169 111.2,626.0969 C119.424,606.2889 106.608,449.3769 120.8,433.2969 C147.984,402.4889 186.743,392.2684 226.639,390.1084 " fill="none" id="GSM-to-UC22" style="stroke:#181818;stroke-width:0.8000000000000002;"/><polygon fill="#181818" points="231.432,389.8489,224.0695,387.0428,227.4378,390.0651,224.4155,393.4334,231.432,389.8489" style="stroke:#181818;stroke-width:0.8000000000000002;"/></g><!--link GSM to UC23--><g id="link_GSM_UC23"><path d="M77.816,669.2889 C89.848,658.2409 103.808,642.9369 111.2,626.0969 C120.744,604.3609 105.04,537.4489 120.8,519.6969 C139.184,498.9849 160.1512,487.9883 187.0312,481.0763 " fill="none" id="GSM-to-UC23" style="stroke:#181818;stroke-width:0.8000000000000002;"/><polygon fill="#181818" points="191.68,479.8809,183.9099,478.5748,187.806,480.877,185.5038,484.7731,191.68,479.8809" style="stroke:#181818;stroke-width:0.8000000000000002;"/></g><!--link GSM to UC24--><g id="link_GSM_UC24"><path d="M77.72,667.2089 C88.976,656.0569 102.208,641.3129 111.2,626.0969 C117.896,614.7689 110.864,606.7209 120.8,598.0969 C145.304,576.8089 173.0628,566.4702 204.8948,560.9422 " fill="none" id="GSM-to-UC24" style="stroke:#181818;stroke-width:0.8000000000000002;"/><polygon fill="#181818" points="209.624,560.1209,201.9827,558.2,205.683,560.8053,203.0777,564.5056,209.624,560.1209" style="stroke:#181818;stroke-width:0.8000000000000002;"/></g><!--link GSM to UC25--><g id="link_GSM_UC25"><path d="M77.768,682.8169 C113.08,676.1929 179.9062,663.6613 236.9622,652.9653 " fill="none" id="GSM-to-UC25" style="stroke:#181818;stroke-width:0.8000000000000002;"/><polygon fill="#181818" points="241.68,652.0809,234.0137,650.2623,237.7485,652.8179,235.1929,656.5527,241.68,652.0809" style="stroke:#181818;stroke-width:0.8000000000000002;"/></g><!--link GSM to UC26--><g id="link_GSM_UC26"><path d="M77.768,689.4249 C105.832,692.6809 152.008,698.0393 200.376,703.6553 " fill="none" id="GSM-to-UC26" style="stroke:#181818;stroke-width:0.8000000000000002;"/><polygon fill="#181818" points="205.144,704.2089,198.3611,700.1998,201.1707,703.7475,197.623,706.5571,205.144,704.2089" style="stroke:#181818;stroke-width:0.8000000000000002;"/></g><!--link GSM to UC27--><g id="link_GSM_UC27"><path d="M77.832,708.9529 C88.352,719.9849 100.88,733.7609 111.2,746.8969 C115.952,752.9449 114.408,757.0169 120.8,761.2969 C145.784,778.0249 171.3871,787.2224 200.9151,793.3184 " fill="none" id="GSM-to-UC27" style="stroke:#181818;stroke-width:0.8000000000000002;"/><polygon fill="#181818" points="205.616,794.2889,199.2117,789.6992,201.6986,793.4801,197.9177,795.9671,205.616,794.2889" style="stroke:#181818;stroke-width:0.8000000000000002;"/></g><!--link Collaborator to UC28--><g id="link_Collaborator_UC28"><path d="M56.072,548.6729 C56.952,457.0329 64.456,195.3209 120.8,135.6969 C141.344,113.9609 165.2284,102.9431 194.5004,96.6151 " fill="none" id="Collaborator-to-UC28" style="stroke:#181818;stroke-width:0.8000000000000002;"/><polygon fill="#181818" points="199.192,95.6009,191.4784,93.9945,195.2823,96.4461,192.8307,100.25,199.192,95.6009" style="stroke:#181818;stroke-width:0.8000000000000002;"/></g><!--link Collaborator to UC29--><g id="link_Collaborator_UC29"><path d="M57.104,548.7209 C60.56,468.3369 73.944,259.9049 120.8,212.4969 C144.992,188.0169 174.7771,177.142 208.5611,172.27 " fill="none" id="Collaborator-to-UC29" style="stroke:#181818;stroke-width:0.8000000000000002;"/><polygon fill="#181818" points="213.312,171.5849,205.729,169.4453,209.353,172.1558,206.6425,175.7798,213.312,171.5849" style="stroke:#181818;stroke-width:0.8000000000000002;"/></g><!--SRC=[XPLDRzim38Rl_XL4Bpq5Q9NFNWQaATfYM86XINlgHR4Psuii1PAy81ZstqV9KU98M9k34Sby7vB2I_dQR6kvuvetq2Yfyagh1i7g5hFpcntFjxp4fJq818svvR8Kc5sV8qp52xMlPGaRBWncFV4f_ay6zBjNka2zK49fEA0GQf_zpJ9RMqA_6OG5fyT3pKlIPfd0ZGMhGDTbPQ6e7QnMCijELBXQ7ep51kQvLTfS0JV0_L_e4le5K4B1rqfpMlIshvuqeloGIseHpOTyuP8QrPxoj7pv999g3M5l_R3djk4Kzef6jJfXFhzUC1y5eeL-mEEBEuvUT-5CkivQWxbRTAqTLnIqkBc50RnYMTDPQ5XkQo4Cg0tmYyuzmmLxEHK3Wy6tyqQVn_ey3j_LEeXPB6Q9UDWNvxq2O5_R2dwfDN1PmAQL1MzGMYuWhyWjESMJgCvDI3QCamsJP2DADZUcBkMnxw0TnTfHeXsJzWabKd58NLfqRjTgfmoLn5kh6axLS24E4AZZc3fEg9FBi_kDLPqB3829ZtyywIU9VjhNltVgQmEB2lFjeDq5q3G2JHFGZ40_20Esmb260ObOk55rctd4d4NCMHP3sSrbTtukm8_54S9kl8RcvqWvRlGXpgxpeY2zn3sG1VJ1pRahQQK63ygN7NYtCI-nAsCdNiUgfMVDIoIB1GwBEObpsV1i9WuhPmUgYilFgCEOcbYKEOl-LCRkbCGlQAEObfYMETCkkCnHVC4Qnwp4gcnoxlSz-EFBZYSnDx4mcmRdqHrKUeSOVt52uo-x0jO7Q4w6cSR0nChCMNcXf6b5v-OLDrkuHxjtxDLUmGEDS1XzrjcuV_K5yYmXtta_v_HTwYP2DJk1xYlJtP-M4WNitN-nTndTs_y0]--></g></svg>