<?xml version="1.0" encoding="us-ascii" standalone="no"?><svg xmlns="http://www.w3.org/2000/svg" xmlns:xlink="http://www.w3.org/1999/xlink" contentStyleType="text/css" height="1053px" preserveAspectRatio="none" style="width:396px;height:1053px;background:#FFFFFF;" version="1.1" viewBox="0 0 396 1053" width="396.6px" zoomAndPan="magnify"><defs/><g><text fill="#000000" font-family="sans-serif" font-size="8.4" font-weight="bold" lengthAdjust="spacing" textLength="76.2" x="156" y="15.0645">Use Case Diagram</text><!--cluster actors--><g id="cluster_actors"><rect fill="none" height="420.6" rx="1.5" ry="1.5" style="stroke:#FFFF00;stroke-width:0.6;" width="74.4" x="4.2" y="347.1727"/><text fill="#000000" font-family="sans-serif" font-size="8.4" font-weight="bold" lengthAdjust="spacing" textLength="59.4" x="11.7" y="357.4371">System Actors</text></g><!--cluster usecases--><g id="cluster_usecases"><rect fill="none" height="1021.8" rx="1.5" ry="1.5" style="stroke:#FFFF00;stroke-width:0.6;" width="297.6" x="95.4" y="27.9727"/><text fill="#000000" font-family="sans-serif" font-size="8.4" font-weight="bold" lengthAdjust="spacing" textLength="44.4" x="222" y="38.2371">Use Cases</text></g><!--entity Collaborator--><g id="elem_Collaborator"><ellipse cx="41.4" cy="374.7727" fill="#F1F1F1" rx="4.8" ry="4.8" style="stroke:#181818;stroke-width:0.3;"/><path d="M41.4,379.5727 L41.4,395.7727 M33.6,384.3727 L49.2,384.3727 M41.4,395.7727 L33.6,404.7727 M41.4,395.7727 L49.2,404.7727 " fill="none" style="stroke:#181818;stroke-width:0.3;"/><text fill="#000000" font-family="sans-serif" font-size="8.4" lengthAdjust="spacing" textLength="46.8" x="18" y="414.7371">Collaborator</text></g><!--entity GSM--><g id="elem_GSM"><ellipse cx="41.4" cy="443.4727" fill="#F1F1F1" rx="4.8" ry="4.8" style="stroke:#181818;stroke-width:0.3;"/><path d="M41.4,448.2727 L41.4,464.4727 M33.6,453.0727 L49.2,453.0727 M41.4,464.4727 L33.6,473.4727 M41.4,464.4727 L49.2,473.4727 " fill="none" style="stroke:#181818;stroke-width:0.3;"/><text fill="#000000" font-family="sans-serif" font-size="8.4" lengthAdjust="spacing" textLength="24" x="24.6" y="483.4371">Green</text><text fill="#000000" font-family="sans-serif" font-size="8.4" lengthAdjust="spacing" textLength="28.2" x="24.6" y="494.6098">Spaces</text><text fill="#000000" font-family="sans-serif" font-size="8.4" lengthAdjust="spacing" textLength="33.6" x="24.6" y="505.7824">Manager</text></g><!--entity GSU--><g id="elem_GSU"><ellipse cx="41.4" cy="534.0727" fill="#F1F1F1" rx="4.8" ry="4.8" style="stroke:#181818;stroke-width:0.3;"/><path d="M41.4,538.8727 L41.4,555.0727 M33.6,543.6727 L49.2,543.6727 M41.4,555.0727 L33.6,564.0727 M41.4,555.0727 L49.2,564.0727 " fill="none" style="stroke:#181818;stroke-width:0.3;"/><text fill="#000000" font-family="sans-serif" font-size="8.4" lengthAdjust="spacing" textLength="24" x="27.3" y="574.0371">Green</text><text fill="#000000" font-family="sans-serif" font-size="8.4" lengthAdjust="spacing" textLength="28.2" x="27.3" y="585.2098">Spaces</text><text fill="#000000" font-family="sans-serif" font-size="8.4" lengthAdjust="spacing" textLength="17.4" x="27.3" y="596.3824">User</text></g><!--entity HRM--><g id="elem_HRM"><ellipse cx="41.4" cy="624.6727" fill="#F1F1F1" rx="4.8" ry="4.8" style="stroke:#181818;stroke-width:0.3;"/><path d="M41.4,629.4727 L41.4,645.6727 M33.6,634.2727 L49.2,634.2727 M41.4,645.6727 L33.6,654.6727 M41.4,645.6727 L49.2,654.6727 " fill="none" style="stroke:#181818;stroke-width:0.3;"/><text fill="#000000" font-family="sans-serif" font-size="8.4" lengthAdjust="spacing" textLength="26.4" x="21" y="664.6371">Human</text><text fill="#000000" font-family="sans-serif" font-size="8.4" lengthAdjust="spacing" textLength="40.8" x="21" y="675.8098">Resources</text><text fill="#000000" font-family="sans-serif" font-size="8.4" lengthAdjust="spacing" textLength="33.6" x="21" y="686.9824">Manager</text></g><!--entity FM--><g id="elem_FM"><ellipse cx="41.4" cy="715.5727" fill="#F1F1F1" rx="4.8" ry="4.8" style="stroke:#181818;stroke-width:0.3;"/><path d="M41.4,720.3727 L41.4,736.5727 M33.6,725.1727 L49.2,725.1727 M41.4,736.5727 L33.6,745.5727 M41.4,736.5727 L49.2,745.5727 " fill="none" style="stroke:#181818;stroke-width:0.3;"/><text fill="#000000" font-family="sans-serif" font-size="8.4" lengthAdjust="spacing" textLength="55.2" x="13.8" y="755.5371">Fleet Manager</text></g><g id="elem_UC01"><ellipse cx="244.268" cy="809.1862" fill="#F1F1F1" rx="84.368" ry="18.3136" style="stroke:#181818;stroke-width:0.3;"/><text fill="#000000" font-family="sans-serif" font-size="8.4" lengthAdjust="spacing" textLength="148.2" x="170.168" y="811.4644">UC01 - Register Skills of a Collaborator</text></g><g id="elem_UC02"><ellipse cx="244.1881" cy="861.2503" fill="#F1F1F1" rx="55.1881" ry="12.4776" style="stroke:#181818;stroke-width:0.3;"/><text fill="#000000" font-family="sans-serif" font-size="8.4" lengthAdjust="spacing" textLength="83.4" x="200.6881" y="864.1325">UC02 - Register a Job</text></g><g id="elem_UC03"><ellipse cx="244.0718" cy="630.827" fill="#F1F1F1" rx="139.0718" ry="29.2544" style="stroke:#181818;stroke-width:0.3;"/><text fill="#000000" font-family="sans-serif" font-size="8.4" lengthAdjust="spacing" textLength="261.6" x="113.2718" y="633.1051">UC03 - Register collaborator with job and fundamental characteristics</text></g><g id="elem_UC04"><ellipse cx="244.0613" cy="693.2249" fill="#F1F1F1" rx="52.0613" ry="11.8523" style="stroke:#181818;stroke-width:0.3;"/><text fill="#000000" font-family="sans-serif" font-size="8.4" lengthAdjust="spacing" textLength="75.6" x="204.4613" y="696.1071">UC04 - Assign Skills</text></g><g id="elem_UC05"><ellipse cx="244.3292" cy="747.9385" fill="#F1F1F1" rx="100.6292" ry="21.5658" style="stroke:#181818;stroke-width:0.3;"/><text fill="#000000" font-family="sans-serif" font-size="8.4" lengthAdjust="spacing" textLength="180" x="153.1292" y="750.2166">UC05 - Generate a team proposal automatically</text></g><g id="elem_UC06"><ellipse cx="244.3464" cy="1026.4619" fill="#F1F1F1" rx="60.7464" ry="13.5893" style="stroke:#181818;stroke-width:0.3;"/><text fill="#000000" font-family="sans-serif" font-size="8.4" lengthAdjust="spacing" textLength="96.6" x="195.5997" y="1028.9061">UC06 - Register a vehicle</text></g><g id="elem_UC07"><ellipse cx="244.069" cy="912.4065" fill="#F1F1F1" rx="78.469" ry="17.1338" style="stroke:#181818;stroke-width:0.3;"/><text fill="#000000" font-family="sans-serif" font-size="8.4" lengthAdjust="spacing" textLength="135.6" x="176.269" y="914.6846">UC07 - Register Vehicle's Check-up</text></g><g id="elem_UC08"><ellipse cx="244.2079" cy="971.2342" fill="#F1F1F1" rx="96.6079" ry="20.7616" style="stroke:#181818;stroke-width:0.3;"/><text fill="#000000" font-family="sans-serif" font-size="8.4" lengthAdjust="spacing" textLength="174" x="157.2079" y="973.5124">UC08 - List the vehicles needing the check-up</text></g><g id="elem_UC20"><ellipse cx="244.0639" cy="185.1066" fill="#F1F1F1" rx="32.8639" ry="9.8339" style="stroke:#181818;stroke-width:0.3;"/><text fill="#000000" font-family="sans-serif" font-size="8.4" lengthAdjust="spacing" textLength="36" x="224.2639" y="187.9888">UC20 - ...</text></g><g id="elem_UC21"><ellipse cx="244.0639" cy="225.9066" fill="#F1F1F1" rx="32.8639" ry="9.8339" style="stroke:#181818;stroke-width:0.3;"/><text fill="#000000" font-family="sans-serif" font-size="8.4" lengthAdjust="spacing" textLength="36" x="224.2639" y="228.7888">UC21 - ...</text></g><g id="elem_UC22"><ellipse cx="244.0508" cy="273.2828" fill="#F1F1F1" rx="74.8508" ry="16.4102" style="stroke:#181818;stroke-width:0.3;"/><text fill="#000000" font-family="sans-serif" font-size="8.4" lengthAdjust="spacing" textLength="127.8" x="180.1508" y="275.561">UC22 - Add a entry in the Agenda</text></g><g id="elem_UC23"><ellipse cx="244.3049" cy="332.8536" fill="#F1F1F1" rx="101.2049" ry="21.681" style="stroke:#181818;stroke-width:0.3;"/><text fill="#000000" font-family="sans-serif" font-size="8.4" lengthAdjust="spacing" textLength="183.6" x="152.5049" y="335.1318">UC23 - Assign a Team to an entry in the Agenda</text></g><g id="elem_UC24"><ellipse cx="244.0639" cy="385.5066" fill="#F1F1F1" rx="32.8639" ry="9.8339" style="stroke:#181818;stroke-width:0.3;"/><text fill="#000000" font-family="sans-serif" font-size="8.4" lengthAdjust="spacing" textLength="36" x="224.2639" y="388.3888">UC24 - ...</text></g><g id="elem_UC25"><ellipse cx="244.0949" cy="434.6916" fill="#F1F1F1" rx="82.3949" ry="17.919" style="stroke:#181818;stroke-width:0.3;"/><text fill="#000000" font-family="sans-serif" font-size="8.4" lengthAdjust="spacing" textLength="144" x="172.0949" y="436.9698">UC25 - Cancel an entry in the Agenda</text></g><g id="elem_UC26"><ellipse cx="244.2454" cy="496.0417" fill="#F1F1F1" rx="102.6454" ry="21.9691" style="stroke:#181818;stroke-width:0.3;"/><text fill="#000000" font-family="sans-serif" font-size="8.4" lengthAdjust="spacing" textLength="186.6" x="150.9454" y="498.3199">UC26 - Assign Vehicles to an entry in the Agenda</text></g><g id="elem_UC27"><ellipse cx="244.2079" cy="559.6342" fill="#F1F1F1" rx="96.6079" ry="20.7616" style="stroke:#181818;stroke-width:0.3;"/><text fill="#000000" font-family="sans-serif" font-size="8.4" lengthAdjust="spacing" textLength="174" x="157.2079" y="561.9124">UC27 - List the vehicles needing the check-up</text></g><g id="elem_UC28"><ellipse cx="244.2079" cy="71.2342" fill="#F1F1F1" rx="96.6079" ry="20.7616" style="stroke:#181818;stroke-width:0.3;"/><text fill="#000000" font-family="sans-serif" font-size="8.4" lengthAdjust="spacing" textLength="174" x="157.2079" y="73.5124">UC28 - List the vehicles needing the check-up</text></g><g id="elem_UC29"><ellipse cx="244.2079" cy="133.6342" fill="#F1F1F1" rx="96.6079" ry="20.7616" style="stroke:#181818;stroke-width:0.3;"/><text fill="#000000" font-family="sans-serif" font-size="8.4" lengthAdjust="spacing" textLength="174" x="157.2079" y="135.9124">UC29 - List the vehicles needing the check-up</text></g><!--link HRM to UC01--><g id="link_HRM_UC01"><path d="M61.992,671.0167 C70.062,678.9067 78.588,689.0047 83.4,699.9727 C90.558,716.2747 78.654,766.5727 90.6,779.7727 C108.294,799.3267 131.1393,807.7658 157.0533,811.3178 " fill="none" id="HRM-to-UC01" style="stroke:#181818;stroke-width:0.6;"/><polygon fill="#181818" points="160.62,811.8067,155.5959,808.6956,157.6478,811.3993,154.9441,813.4511,160.62,811.8067" style="stroke:#181818;stroke-width:0.6;"/></g><!--link HRM to UC02--><g id="link_HRM_UC02"><path d="M61.974,670.7227 C70.146,678.6247 78.756,688.8187 83.4,699.9727 C89.304,714.1447 80.298,826.5907 90.6,837.9727 C116.928,867.0607 159.3982,870.8253 194.1202,868.4793 " fill="none" id="HRM-to-UC02" style="stroke:#181818;stroke-width:0.6;"/><polygon fill="#181818" points="197.712,868.2367,192.1625,866.2061,194.7188,868.4389,192.4861,870.9952,197.712,868.2367" style="stroke:#181818;stroke-width:0.6;"/></g><!--link HRM to UC03--><g id="link_HRM_UC03"><path d="M61.884,652.0627 C76.782,650.3347 94.974,648.2235 118.302,645.5175 " fill="none" id="HRM-to-UC03" style="stroke:#181818;stroke-width:0.6;"/><polygon fill="#181818" points="121.878,645.1027,116.2374,643.3409,118.898,645.4483,116.7905,648.1089,121.878,645.1027" style="stroke:#181818;stroke-width:0.6;"/></g><!--link HRM to UC04--><g id="link_HRM_UC04"><path d="M61.872,661.8667 C70.584,664.9267 81,668.2747 90.6,670.5727 C125.664,678.9607 162.4519,684.3912 192.9199,688.0692 " fill="none" id="HRM-to-UC04" style="stroke:#181818;stroke-width:0.6;"/><polygon fill="#181818" points="196.494,688.5007,191.4206,685.4708,193.5156,688.1411,190.8453,690.2362,196.494,688.5007" style="stroke:#181818;stroke-width:0.6;"/></g><!--link HRM to UC05--><g id="link_HRM_UC05"><path d="M61.962,673.7047 C69.276,681.4387 77.262,690.7027 83.4,699.9727 C87.618,706.3387 84.63,710.8087 90.6,715.5727 C106.944,728.6107 123.7985,735.8878 144.2705,740.8798 " fill="none" id="HRM-to-UC05" style="stroke:#181818;stroke-width:0.6;"/><polygon fill="#181818" points="147.768,741.7327,143.0903,738.1217,144.8534,741.0219,141.9532,742.7851,147.768,741.7327" style="stroke:#181818;stroke-width:0.6;"/></g><!--link FM to UC06--><g id="link_FM_UC06"><path d="M42.894,758.0467 C45.636,817.2547 55.944,968.5267 90.6,1002.3727 C116.328,1027.5007 153.3365,1032.9784 186.2525,1032.4324 " fill="none" id="FM-to-UC06" style="stroke:#181818;stroke-width:0.6;"/><polygon fill="#181818" points="189.852,1032.3727,184.4129,1030.0625,186.8524,1032.4224,184.4925,1034.8619,189.852,1032.3727" style="stroke:#181818;stroke-width:0.6;"/></g><!--link FM to UC07--><g id="link_FM_UC07"><path d="M42.546,757.9507 C44.676,791.4007 53.76,851.8687 90.6,884.1727 C111.114,902.1607 135.6818,909.8923 162.2378,913.2103 " fill="none" id="FM-to-UC07" style="stroke:#181818;stroke-width:0.6;"/><polygon fill="#181818" points="165.81,913.6567,160.7492,910.6057,162.8331,913.2847,160.1541,915.3687,165.81,913.6567" style="stroke:#181818;stroke-width:0.6;"/></g><!--link FM to UC08--><g id="link_FM_UC08"><path d="M44.418,757.9147 C49.854,806.4967 64.638,914.7967 90.6,939.9727 C106.17,955.0687 123.438,962.9806 144.654,967.8166 " fill="none" id="FM-to-UC08" style="stroke:#181818;stroke-width:0.6;"/><polygon fill="#181818" points="148.164,968.6167,143.4324,965.0766,145.239,967.9499,142.3657,969.7565,148.164,968.6167" style="stroke:#181818;stroke-width:0.6;"/></g><!--link GSM to UC20--><g id="link_GSM_UC20"><path d="M58.212,460.4587 C67.422,452.1907 78.144,440.5567 83.4,427.5727 C92.664,404.7007 74.046,223.8727 90.6,205.5727 C122.058,170.7967 178.4487,173.4653 213.2367,178.9973 " fill="none" id="GSM-to-UC20" style="stroke:#181818;stroke-width:0.6;"/><polygon fill="#181818" points="216.792,179.5627,211.8359,176.3444,213.8292,179.0915,211.0821,181.0848,216.792,179.5627" style="stroke:#181818;stroke-width:0.6;"/></g><!--link GSM to UC21--><g id="link_GSM_UC21"><path d="M58.386,460.2547 C67.542,451.9927 78.138,440.4367 83.4,427.5727 C91.032,408.9247 77.028,261.2647 90.6,246.3727 C122.184,211.7107 178.5262,214.3402 213.2722,219.8362 " fill="none" id="GSM-to-UC21" style="stroke:#181818;stroke-width:0.6;"/><polygon fill="#181818" points="216.828,220.3987,211.8693,217.1845,213.8648,219.93,211.1193,221.9255,216.828,220.3987" style="stroke:#181818;stroke-width:0.6;"/></g><!--link GSM to UC22--><g id="link_GSM_UC22"><path d="M58.308,460.2247 C67.434,451.9507 78.03,440.3947 83.4,427.5727 C88.872,414.5167 81.198,310.9567 90.6,300.3727 C111.024,277.3867 140.0035,269.7141 169.8535,268.0581 " fill="none" id="GSM-to-UC22" style="stroke:#181818;stroke-width:0.6;"/><polygon fill="#181818" points="173.448,267.8587,167.9233,265.7615,170.4526,268.0248,168.1892,270.5541,173.448,267.8587" style="stroke:#181818;stroke-width:0.6;"/></g><!--link GSM to UC23--><g id="link_GSM_UC23"><path d="M58.248,459.9127 C67.23,451.6147 77.7,440.1307 83.4,427.5727 C89.166,414.8587 81.204,375.4927 90.6,365.1727 C104.538,349.8607 120.258,341.6995 140.364,336.5155 " fill="none" id="GSM-to-UC23" style="stroke:#181818;stroke-width:0.6;"/><polygon fill="#181818" points="143.85,335.6167,138.0218,334.6409,140.945,336.3657,139.2202,339.2889,143.85,335.6167" style="stroke:#181818;stroke-width:0.6;"/></g><!--link GSM to UC24--><g id="link_GSM_UC24"><path d="M58.326,458.4307 C66.78,450.0727 76.704,439.0147 83.4,427.5727 C88.512,418.8367 82.8,412.4227 90.6,405.9727 C125.508,377.1187 177.4221,377.0867 211.1121,380.6627 " fill="none" id="GSM-to-UC24" style="stroke:#181818;stroke-width:0.6;"/><polygon fill="#181818" points="214.692,381.0427,209.5755,378.0861,211.7088,380.726,209.0688,382.8593,214.692,381.0427" style="stroke:#181818;stroke-width:0.6;"/></g><!--link GSM to UC25--><g id="link_GSM_UC25"><path d="M58.416,469.8907 C67.83,468.0187 79.872,465.6427 90.6,463.5727 C120.324,457.8367 149.7855,452.2712 177.5055,447.0812 " fill="none" id="GSM-to-UC25" style="stroke:#181818;stroke-width:0.6;"/><polygon fill="#181818" points="181.044,446.4187,175.2946,445.0534,178.0952,446.9708,176.1779,449.7714,181.044,446.4187" style="stroke:#181818;stroke-width:0.6;"/></g><!--link GSM to UC26--><g id="link_GSM_UC26"><path d="M58.326,475.0207 C79.278,477.3907 113.6628,481.2761 149.7948,485.3621 " fill="none" id="GSM-to-UC26" style="stroke:#181818;stroke-width:0.6;"/><polygon fill="#181818" points="153.372,485.7667,148.2759,482.7751,150.391,485.4295,147.7365,487.5447,153.372,485.7667" style="stroke:#181818;stroke-width:0.6;"/></g><!--link GSM to UC27--><g id="link_GSM_UC27"><path d="M58.26,489.8047 C66.12,498.1027 75.534,508.4287 83.4,518.1727 C86.886,522.4927 85.956,525.3367 90.6,528.3727 C109.098,540.4567 127.8031,547.245 149.5111,551.931 " fill="none" id="GSM-to-UC27" style="stroke:#181818;stroke-width:0.6;"/><polygon fill="#181818" points="153.03,552.6907,148.258,549.2053,150.0975,552.0576,147.2452,553.8972,153.03,552.6907" style="stroke:#181818;stroke-width:0.6;"/></g><!--link Collaborator to UC28--><g id="link_Collaborator_UC28"><path d="M42.612,369.6607 C44.73,307.2367 53.79,140.5207 90.6,102.3727 C105.756,86.6707 122.9931,78.5507 144.3231,73.7147 " fill="none" id="Collaborator-to-UC28" style="stroke:#181818;stroke-width:0.6;"/><polygon fill="#181818" points="147.834,72.9187,142.037,71.7721,144.9083,73.582,143.0983,76.4533,147.834,72.9187" style="stroke:#181818;stroke-width:0.6;"/></g><!--link Collaborator to UC29--><g id="link_Collaborator_UC29"><path d="M43.806,369.6427 C48.3,317.1067 61.752,193.3807 90.6,164.7727 C106.05,149.4547 123.3355,141.4686 144.6115,136.6326 " fill="none" id="Collaborator-to-UC29" style="stroke:#181818;stroke-width:0.6;"/><polygon fill="#181818" points="148.122,135.8347,142.3244,134.6912,145.1966,136.4996,143.3883,139.3718,148.122,135.8347" style="stroke:#181818;stroke-width:0.6;"/></g><!--SRC=[bPG_Rzim4CLtVef35ayE4lflbWAk2oSecYLkCcMvI6U9DKKQ9DN0AFhTUvAjM2RH1F5WcFHxlxkZdZZmMsLswB22oXgRbSvM1C7L94x_x33ROa7hiDS4ZhA0fj0a1YU5Bp6thyeKi47jIVJCR_e_0lZprRgStD9gws1FMjjNyLU8e0AZ7pt14ldhcyA2lK9esWG85fmgoW2vQc3A6Y7Ug72ntlj05IooO9s_0FI0xKyu56mNm0KrlbY7lEXjNzmw8lDirZmY-MTpZuO7TItbTdt_Zf9xxMIFVTbTNI7B7iZRsYNCkuSpvaeJ1UWBLlVDSVIcwyxaC5djAMiMXz6EAnOjhwvX20zKA3uB1-kjqjg3tG2UJTuo6d5hvsPWEFnoskZpP9-7yDs-T6OPcsLY7lNDMQy1U5MXX5_s1T3aiAbDZXMPW1goajEIiPvDAlDTiL5SR9GK6tEnXVUgCCUvE-yuzeuJxuIzjsI8coEUCb2JTcTtrdDBM0TR8NU3Mk-XeqvYwYIXJi_FxZULAjFK0QQjVlNcdoR-MT__T70FF2nBohR3UjU1PX5ebe3c3Fh160WbTMruC4Hvywescrd4d4VCkOYXyegXbvUNHuUyQWNyiXmjnus-u_hSSHqxalJ99dsBFEV3utIuFIZJThieY1FJSMJCIO8eHwTi8FnidYvV9cZUeuvYQf8uEJwVPnmxafp99cTBD1df3wfFObQIBZazpVJKFT8Ffvh6t2HrSlRPiCXP34qIA3-TG7b8OF_MwkZpX7xpQVhDV-atWc_UVm00]--></g></svg>