<?xml version="1.0" encoding="us-ascii" standalone="no"?><svg xmlns="http://www.w3.org/2000/svg" xmlns:xlink="http://www.w3.org/1999/xlink" contentStyleType="text/css" height="710px" preserveAspectRatio="none" style="width:889px;height:710px;background:#FFFFFF;" version="1.1" viewBox="0 0 889 710" width="889px" zoomAndPan="magnify"><defs/><g><rect fill="#FFFFFF" height="594.3838" style="stroke:#181818;stroke-width:0.5;" width="5" x="30.5" y="56.1211"/><rect fill="#FFFFFF" height="140.8096" style="stroke:#181818;stroke-width:0.5;" width="5" x="205" y="67.7666"/><rect fill="#FFFFFF" height="140.8096" style="stroke:#181818;stroke-width:0.5;" width="5" x="205" y="224.2217"/><rect fill="#FFFFFF" height="15.6455" style="stroke:#181818;stroke-width:0.5;" width="5" x="205" y="380.6768"/><rect fill="#FFFFFF" height="238.5371" style="stroke:#181818;stroke-width:0.5;" width="5" x="205" y="411.9678"/><rect fill="#FFFFFF" height="109.5186" style="stroke:#181818;stroke-width:0.5;" width="5" x="387" y="83.4121"/><rect fill="#FFFFFF" height="109.5186" style="stroke:#181818;stroke-width:0.5;" width="5" x="387" y="239.8672"/><rect fill="#FFFFFF" height="207.2461" style="stroke:#181818;stroke-width:0.5;" width="5" x="387" y="427.6133"/><rect fill="#FFFFFF" height="115.0186" style="stroke:#181818;stroke-width:0.5;" width="5" x="389.5" y="447.2588"/><rect fill="#FFFFFF" height="15.6455" style="stroke:#181818;stroke-width:0.5;" width="5" x="533" y="99.0576"/><rect fill="#FFFFFF" height="15.6455" style="stroke:#181818;stroke-width:0.5;" width="5" x="533" y="255.5127"/><rect fill="#FFFFFF" height="15.6455" style="stroke:#181818;stroke-width:0.5;" width="5" x="533" y="465.4043"/><rect fill="#FFFFFF" height="15.6455" style="stroke:#181818;stroke-width:0.5;" width="5" x="586.5" y="130.3486"/><rect fill="#FFFFFF" height="15.6455" style="stroke:#181818;stroke-width:0.5;" width="5" x="586.5" y="286.8037"/><rect fill="#FFFFFF" height="15.6455" style="stroke:#181818;stroke-width:0.5;" width="5" x="586.5" y="496.6953"/><rect fill="#FFFFFF" height="15.6455" style="stroke:#181818;stroke-width:0.5;" width="5" x="644.75" y="318.0947"/><rect fill="#FFFFFF" height="15.6455" style="stroke:#181818;stroke-width:0.5;" width="5" x="722.5" y="161.6396"/><rect fill="#FFFFFF" height="15.6455" style="stroke:#181818;stroke-width:0.5;" width="5" x="722.5" y="527.9863"/><rect fill="#FFFFFF" height="37.791" style="stroke:#181818;stroke-width:0.5;" width="5" x="795.25" y="581.4229"/><line style="stroke:#181818;stroke-width:0.25;stroke-dasharray:5.0,5.0;" x1="33" x2="33" y1="51.1211" y2="659.5049"/><line style="stroke:#181818;stroke-width:0.25;stroke-dasharray:5.0,5.0;" x1="207.25" x2="207.25" y1="51.1211" y2="659.5049"/><line style="stroke:#181818;stroke-width:0.25;stroke-dasharray:5.0,5.0;" x1="389.5" x2="389.5" y1="51.1211" y2="659.5049"/><line style="stroke:#181818;stroke-width:0.25;stroke-dasharray:5.0,5.0;" x1="535.25" x2="535.25" y1="51.1211" y2="659.5049"/><line style="stroke:#181818;stroke-width:0.25;stroke-dasharray:5.0,5.0;" x1="588.75" x2="588.75" y1="51.1211" y2="659.5049"/><line style="stroke:#181818;stroke-width:0.25;stroke-dasharray:5.0,5.0;" x1="647.25" x2="647.25" y1="51.1211" y2="659.5049"/><line style="stroke:#181818;stroke-width:0.25;stroke-dasharray:5.0,5.0;" x1="724.75" x2="724.75" y1="51.1211" y2="659.5049"/><line style="stroke:#181818;stroke-width:0.25;stroke-dasharray:5.0,5.0;" x1="797.75" x2="797.75" y1="51.1211" y2="659.5049"/><text fill="#000000" font-family="sans-serif" font-size="7" lengthAdjust="spacing" textLength="58" x="2.5" y="40.0537">Human Resources</text><text fill="#000000" font-family="sans-serif" font-size="7" lengthAdjust="spacing" textLength="28" x="18.5" y="49.3643">Manager</text><ellipse cx="33" cy="6.75" fill="#E3E3E3" rx="4" ry="4" style="stroke:#181818;stroke-width:0.25;"/><path d="M33,10.75 L33,24.25 M26.5,14.75 L39.5,14.75 M33,24.25 L26.5,31.75 M33,24.25 L39.5,31.75 " fill="none" style="stroke:#181818;stroke-width:0.25;"/><text fill="#000000" font-family="sans-serif" font-size="7" lengthAdjust="spacing" textLength="58" x="2.5" y="666.5586">Human Resources</text><text fill="#000000" font-family="sans-serif" font-size="7" lengthAdjust="spacing" textLength="28" x="18.5" y="675.8691">Manager</text><ellipse cx="33" cy="681.876" fill="#E3E3E3" rx="4" ry="4" style="stroke:#181818;stroke-width:0.25;"/><path d="M33,685.876 L33,699.376 M26.5,689.876 L39.5,689.876 M33,699.376 L26.5,706.876 M33,699.376 L39.5,706.876 " fill="none" style="stroke:#181818;stroke-width:0.25;"/><rect fill="#E3E3E3" height="16.3105" rx="1.25" ry="1.25" style="stroke:#181818;stroke-width:0.25;" width="48.5" x="183.25" y="34.3105"/><text fill="#000000" font-family="sans-serif" font-size="7" lengthAdjust="spacing" textLength="41.5" x="186.75" y="45.3643">:AssignSkillUI</text><rect fill="#E3E3E3" height="16.3105" rx="1.25" ry="1.25" style="stroke:#181818;stroke-width:0.25;" width="48.5" x="183.25" y="659.0049"/><text fill="#000000" font-family="sans-serif" font-size="7" lengthAdjust="spacing" textLength="41.5" x="186.75" y="670.0586">:AssignSkillUI</text><rect fill="#E3E3E3" height="16.3105" rx="1.25" ry="1.25" style="stroke:#181818;stroke-width:0.25;" width="75" x="352" y="34.3105"/><text fill="#000000" font-family="sans-serif" font-size="7" lengthAdjust="spacing" textLength="68" x="355.5" y="45.3643">:AssignSkillControlller</text><rect fill="#E3E3E3" height="16.3105" rx="1.25" ry="1.25" style="stroke:#181818;stroke-width:0.25;" width="75" x="352" y="659.0049"/><text fill="#000000" font-family="sans-serif" font-size="7" lengthAdjust="spacing" textLength="68" x="355.5" y="670.0586">:AssignSkillControlller</text><rect fill="#E3E3E3" height="16.3105" rx="1.25" ry="1.25" style="stroke:#181818;stroke-width:0.25;" width="48.5" x="511.25" y="34.3105"/><text fill="#000000" font-family="sans-serif" font-size="7" lengthAdjust="spacing" textLength="41.5" x="514.75" y="45.3643">:Repositories</text><rect fill="#E3E3E3" height="16.3105" rx="1.25" ry="1.25" style="stroke:#181818;stroke-width:0.25;" width="48.5" x="511.25" y="659.0049"/><text fill="#000000" font-family="sans-serif" font-size="7" lengthAdjust="spacing" textLength="41.5" x="514.75" y="670.0586">:Repositories</text><rect fill="#E3E3E3" height="25.6211" rx="1.25" ry="1.25" style="stroke:#181818;stroke-width:0.25;" width="48.5" x="564.75" y="25"/><text fill="#000000" font-family="sans-serif" font-size="7" lengthAdjust="spacing" textLength="37" x="570.5" y="36.0537">repositories</text><text fill="#000000" font-family="sans-serif" font-size="7" lengthAdjust="spacing" textLength="41.5" x="568.25" y="45.3643">:Repositories</text><rect fill="#E3E3E3" height="25.6211" rx="1.25" ry="1.25" style="stroke:#181818;stroke-width:0.25;" width="48.5" x="564.75" y="659.0049"/><text fill="#000000" font-family="sans-serif" font-size="7" lengthAdjust="spacing" textLength="37" x="570.5" y="670.0586">repositories</text><text fill="#000000" font-family="sans-serif" font-size="7" lengthAdjust="spacing" textLength="41.5" x="568.25" y="679.3691">:Repositories</text><rect fill="#E3E3E3" height="25.6211" rx="1.25" ry="1.25" style="stroke:#181818;stroke-width:0.25;" width="58" x="618.25" y="25"/><text fill="#000000" font-family="sans-serif" font-size="7" lengthAdjust="spacing" textLength="51" x="621.75" y="36.0537">skillsRepository:</text><text fill="#000000" font-family="sans-serif" font-size="7" lengthAdjust="spacing" textLength="50" x="622.25" y="45.3643">SkillsRepository</text><rect fill="#E3E3E3" height="25.6211" rx="1.25" ry="1.25" style="stroke:#181818;stroke-width:0.25;" width="58" x="618.25" y="659.0049"/><text fill="#000000" font-family="sans-serif" font-size="7" lengthAdjust="spacing" textLength="51" x="621.75" y="670.0586">skillsRepository:</text><text fill="#000000" font-family="sans-serif" font-size="7" lengthAdjust="spacing" textLength="50" x="622.25" y="679.3691">SkillsRepository</text><rect fill="#E3E3E3" height="25.6211" rx="1.25" ry="1.25" style="stroke:#181818;stroke-width:0.25;" width="87.5" x="681.25" y="25"/><text fill="#000000" font-family="sans-serif" font-size="7" lengthAdjust="spacing" textLength="77" x="686.5" y="36.0537">collaboratorsRepository:</text><text fill="#000000" font-family="sans-serif" font-size="7" lengthAdjust="spacing" textLength="80.5" x="684.75" y="45.3643">&#171;CollaboratorsRepository</text><rect fill="#E3E3E3" height="25.6211" rx="1.25" ry="1.25" style="stroke:#181818;stroke-width:0.25;" width="87.5" x="681.25" y="659.0049"/><text fill="#000000" font-family="sans-serif" font-size="7" lengthAdjust="spacing" textLength="77" x="686.5" y="670.0586">collaboratorsRepository:</text><text fill="#000000" font-family="sans-serif" font-size="7" lengthAdjust="spacing" textLength="80.5" x="684.75" y="679.3691">&#171;CollaboratorsRepository</text><rect fill="#E3E3E3" height="25.6211" rx="1.25" ry="1.25" style="stroke:#181818;stroke-width:0.25;" width="48" x="773.75" y="25"/><text fill="#000000" font-family="sans-serif" font-size="7" lengthAdjust="spacing" textLength="37.5" x="779" y="36.0537">collaborator</text><text fill="#000000" font-family="sans-serif" font-size="7" lengthAdjust="spacing" textLength="41" x="777.25" y="45.3643">:Collaborator</text><rect fill="#E3E3E3" height="25.6211" rx="1.25" ry="1.25" style="stroke:#181818;stroke-width:0.25;" width="48" x="773.75" y="659.0049"/><text fill="#000000" font-family="sans-serif" font-size="7" lengthAdjust="spacing" textLength="37.5" x="779" y="670.0586">collaborator</text><text fill="#000000" font-family="sans-serif" font-size="7" lengthAdjust="spacing" textLength="41" x="777.25" y="679.3691">:Collaborator</text><rect fill="#FFFFFF" height="594.3838" style="stroke:#181818;stroke-width:0.5;" width="5" x="30.5" y="56.1211"/><rect fill="#FFFFFF" height="140.8096" style="stroke:#181818;stroke-width:0.5;" width="5" x="205" y="67.7666"/><rect fill="#FFFFFF" height="140.8096" style="stroke:#181818;stroke-width:0.5;" width="5" x="205" y="224.2217"/><rect fill="#FFFFFF" height="15.6455" style="stroke:#181818;stroke-width:0.5;" width="5" x="205" y="380.6768"/><rect fill="#FFFFFF" height="238.5371" style="stroke:#181818;stroke-width:0.5;" width="5" x="205" y="411.9678"/><rect fill="#FFFFFF" height="109.5186" style="stroke:#181818;stroke-width:0.5;" width="5" x="387" y="83.4121"/><rect fill="#FFFFFF" height="109.5186" style="stroke:#181818;stroke-width:0.5;" width="5" x="387" y="239.8672"/><rect fill="#FFFFFF" height="207.2461" style="stroke:#181818;stroke-width:0.5;" width="5" x="387" y="427.6133"/><rect fill="#FFFFFF" height="115.0186" style="stroke:#181818;stroke-width:0.5;" width="5" x="389.5" y="447.2588"/><rect fill="#FFFFFF" height="15.6455" style="stroke:#181818;stroke-width:0.5;" width="5" x="533" y="99.0576"/><rect fill="#FFFFFF" height="15.6455" style="stroke:#181818;stroke-width:0.5;" width="5" x="533" y="255.5127"/><rect fill="#FFFFFF" height="15.6455" style="stroke:#181818;stroke-width:0.5;" width="5" x="533" y="465.4043"/><rect fill="#FFFFFF" height="15.6455" style="stroke:#181818;stroke-width:0.5;" width="5" x="586.5" y="130.3486"/><rect fill="#FFFFFF" height="15.6455" style="stroke:#181818;stroke-width:0.5;" width="5" x="586.5" y="286.8037"/><rect fill="#FFFFFF" height="15.6455" style="stroke:#181818;stroke-width:0.5;" width="5" x="586.5" y="496.6953"/><rect fill="#FFFFFF" height="15.6455" style="stroke:#181818;stroke-width:0.5;" width="5" x="644.75" y="318.0947"/><rect fill="#FFFFFF" height="15.6455" style="stroke:#181818;stroke-width:0.5;" width="5" x="722.5" y="161.6396"/><rect fill="#FFFFFF" height="15.6455" style="stroke:#181818;stroke-width:0.5;" width="5" x="722.5" y="527.9863"/><rect fill="#FFFFFF" height="37.791" style="stroke:#181818;stroke-width:0.5;" width="5" x="795.25" y="581.4229"/><polygon fill="#181818" points="199,65.7666,204,67.7666,199,69.7666,201,67.7666" style="stroke:#181818;stroke-width:0.5;"/><line style="stroke:#181818;stroke-width:0.5;" x1="35.5" x2="202" y1="67.7666" y2="67.7666"/><text fill="#000000" font-family="sans-serif" font-size="6.5" font-weight="bold" lengthAdjust="spacing" textLength="3.5" x="39" y="65.1353">1</text><text fill="#000000" font-family="sans-serif" font-size="6.5" lengthAdjust="spacing" textLength="108" x="44.5" y="65.1353">asks to assign skills to a collaborator</text><polygon fill="#181818" points="381,81.4121,386,83.4121,381,85.4121,383,83.4121" style="stroke:#181818;stroke-width:0.5;"/><line style="stroke:#181818;stroke-width:0.5;" x1="210" x2="384" y1="83.4121" y2="83.4121"/><text fill="#000000" font-family="sans-serif" font-size="6.5" font-weight="bold" lengthAdjust="spacing" textLength="3.5" x="213.5" y="80.7808">2</text><text fill="#000000" font-family="sans-serif" font-size="6.5" lengthAdjust="spacing" textLength="61.5" x="219" y="80.7808">getCollaboratorsList()</text><polygon fill="#181818" points="527,97.0576,532,99.0576,527,101.0576,529,99.0576" style="stroke:#181818;stroke-width:0.5;"/><line style="stroke:#181818;stroke-width:0.5;" x1="392" x2="530" y1="99.0576" y2="99.0576"/><text fill="#000000" font-family="sans-serif" font-size="6.5" font-weight="bold" lengthAdjust="spacing" textLength="3.5" x="395.5" y="96.4263">3</text><text fill="#000000" font-family="sans-serif" font-size="6.5" lengthAdjust="spacing" textLength="37.5" x="401" y="96.4263">getInstance()</text><polygon fill="#181818" points="397.5,112.7031,392.5,114.7031,397.5,116.7031,395.5,114.7031" style="stroke:#181818;stroke-width:0.5;"/><line style="stroke:#181818;stroke-width:0.5;stroke-dasharray:2.0,2.0;" x1="394.5" x2="535" y1="114.7031" y2="114.7031"/><text fill="#000000" font-family="sans-serif" font-size="6.5" font-weight="bold" lengthAdjust="spacing" textLength="3.5" x="400.5" y="112.0718">4</text><text fill="#000000" font-family="sans-serif" font-size="6.5" lengthAdjust="spacing" textLength="33.5" x="406" y="112.0718">repositories</text><polygon fill="#181818" points="580.5,128.3486,585.5,130.3486,580.5,132.3486,582.5,130.3486" style="stroke:#181818;stroke-width:0.5;"/><line style="stroke:#181818;stroke-width:0.5;" x1="392" x2="583.5" y1="130.3486" y2="130.3486"/><text fill="#000000" font-family="sans-serif" font-size="6.5" font-weight="bold" lengthAdjust="spacing" textLength="3.5" x="395.5" y="127.7173">5</text><text fill="#000000" font-family="sans-serif" font-size="6.5" lengthAdjust="spacing" textLength="82" x="401" y="127.7173">getCollaboratorsRepository()</text><polygon fill="#181818" points="397.5,143.9941,392.5,145.9941,397.5,147.9941,395.5,145.9941" style="stroke:#181818;stroke-width:0.5;"/><line style="stroke:#181818;stroke-width:0.5;stroke-dasharray:2.0,2.0;" x1="394.5" x2="588.5" y1="145.9941" y2="145.9941"/><text fill="#000000" font-family="sans-serif" font-size="6.5" font-weight="bold" lengthAdjust="spacing" textLength="3.5" x="400.5" y="143.3628">6</text><text fill="#000000" font-family="sans-serif" font-size="6.5" lengthAdjust="spacing" textLength="69" x="406" y="143.3628">CollaboratorsRepository</text><polygon fill="#181818" points="716.5,159.6396,721.5,161.6396,716.5,163.6396,718.5,161.6396" style="stroke:#181818;stroke-width:0.5;"/><line style="stroke:#181818;stroke-width:0.5;" x1="392" x2="719.5" y1="161.6396" y2="161.6396"/><text fill="#000000" font-family="sans-serif" font-size="6.5" font-weight="bold" lengthAdjust="spacing" textLength="3.5" x="395.5" y="159.0083">7</text><text fill="#000000" font-family="sans-serif" font-size="6.5" lengthAdjust="spacing" textLength="61.5" x="401" y="159.0083">getCollaboratorsList()</text><polygon fill="#181818" points="397.5,175.2852,392.5,177.2852,397.5,179.2852,395.5,177.2852" style="stroke:#181818;stroke-width:0.5;"/><line style="stroke:#181818;stroke-width:0.5;stroke-dasharray:2.0,2.0;" x1="394.5" x2="724.5" y1="177.2852" y2="177.2852"/><text fill="#000000" font-family="sans-serif" font-size="6.5" font-weight="bold" lengthAdjust="spacing" textLength="3.5" x="400.5" y="174.6538">8</text><text fill="#000000" font-family="sans-serif" font-size="6.5" lengthAdjust="spacing" textLength="48.5" x="406" y="174.6538">CollaboratorsList</text><polygon fill="#181818" points="215.5,190.9307,210.5,192.9307,215.5,194.9307,213.5,192.9307" style="stroke:#181818;stroke-width:0.5;"/><line style="stroke:#181818;stroke-width:0.5;stroke-dasharray:2.0,2.0;" x1="212.5" x2="389" y1="192.9307" y2="192.9307"/><text fill="#000000" font-family="sans-serif" font-size="6.5" font-weight="bold" lengthAdjust="spacing" textLength="3.5" x="218.5" y="190.2993">9</text><text fill="#000000" font-family="sans-serif" font-size="6.5" lengthAdjust="spacing" textLength="48.5" x="224" y="190.2993">CollaboratorsList</text><polygon fill="#181818" points="41,206.5762,36,208.5762,41,210.5762,39,208.5762" style="stroke:#181818;stroke-width:0.5;"/><line style="stroke:#181818;stroke-width:0.5;stroke-dasharray:2.0,2.0;" x1="38" x2="207" y1="208.5762" y2="208.5762"/><text fill="#000000" font-family="sans-serif" font-size="6.5" font-weight="bold" lengthAdjust="spacing" textLength="7" x="44" y="205.9448">10</text><text fill="#000000" font-family="sans-serif" font-size="6.5" lengthAdjust="spacing" textLength="148.5" x="53" y="205.9448">displays list of collaborators and asks to select one</text><polygon fill="#181818" points="199,222.2217,204,224.2217,199,226.2217,201,224.2217" style="stroke:#181818;stroke-width:0.5;"/><line style="stroke:#181818;stroke-width:0.5;" x1="35.5" x2="202" y1="224.2217" y2="224.2217"/><text fill="#000000" font-family="sans-serif" font-size="6.5" font-weight="bold" lengthAdjust="spacing" textLength="7" x="39" y="221.5903">11</text><text fill="#000000" font-family="sans-serif" font-size="6.5" lengthAdjust="spacing" textLength="67.5" x="48" y="221.5903">selects the collaborator</text><polygon fill="#181818" points="381,237.8672,386,239.8672,381,241.8672,383,239.8672" style="stroke:#181818;stroke-width:0.5;"/><line style="stroke:#181818;stroke-width:0.5;" x1="210" x2="384" y1="239.8672" y2="239.8672"/><text fill="#000000" font-family="sans-serif" font-size="6.5" font-weight="bold" lengthAdjust="spacing" textLength="7" x="213.5" y="237.2358">12</text><text fill="#000000" font-family="sans-serif" font-size="6.5" lengthAdjust="spacing" textLength="39.5" x="222.5" y="237.2358">getSkillsList()</text><polygon fill="#181818" points="527,253.5127,532,255.5127,527,257.5127,529,255.5127" style="stroke:#181818;stroke-width:0.5;"/><line style="stroke:#181818;stroke-width:0.5;" x1="392" x2="530" y1="255.5127" y2="255.5127"/><text fill="#000000" font-family="sans-serif" font-size="6.5" font-weight="bold" lengthAdjust="spacing" textLength="7" x="395.5" y="252.8813">13</text><text fill="#000000" font-family="sans-serif" font-size="6.5" lengthAdjust="spacing" textLength="37.5" x="404.5" y="252.8813">getInstance()</text><polygon fill="#181818" points="397.5,269.1582,392.5,271.1582,397.5,273.1582,395.5,271.1582" style="stroke:#181818;stroke-width:0.5;"/><line style="stroke:#181818;stroke-width:0.5;stroke-dasharray:2.0,2.0;" x1="394.5" x2="535" y1="271.1582" y2="271.1582"/><text fill="#000000" font-family="sans-serif" font-size="6.5" font-weight="bold" lengthAdjust="spacing" textLength="7" x="400.5" y="268.5269">14</text><text fill="#000000" font-family="sans-serif" font-size="6.5" lengthAdjust="spacing" textLength="33.5" x="409.5" y="268.5269">repositories</text><polygon fill="#181818" points="580.5,284.8037,585.5,286.8037,580.5,288.8037,582.5,286.8037" style="stroke:#181818;stroke-width:0.5;"/><line style="stroke:#181818;stroke-width:0.5;" x1="392" x2="583.5" y1="286.8037" y2="286.8037"/><text fill="#000000" font-family="sans-serif" font-size="6.5" font-weight="bold" lengthAdjust="spacing" textLength="7" x="395.5" y="284.1724">15</text><text fill="#000000" font-family="sans-serif" font-size="6.5" lengthAdjust="spacing" textLength="60" x="404.5" y="284.1724">getSkillsRepository()</text><polygon fill="#181818" points="397.5,300.4492,392.5,302.4492,397.5,304.4492,395.5,302.4492" style="stroke:#181818;stroke-width:0.5;"/><line style="stroke:#181818;stroke-width:0.5;stroke-dasharray:2.0,2.0;" x1="394.5" x2="588.5" y1="302.4492" y2="302.4492"/><text fill="#000000" font-family="sans-serif" font-size="6.5" font-weight="bold" lengthAdjust="spacing" textLength="7" x="400.5" y="299.8179">16</text><text fill="#000000" font-family="sans-serif" font-size="6.5" lengthAdjust="spacing" textLength="47" x="409.5" y="299.8179">SkillsRepository</text><polygon fill="#181818" points="638.75,316.0947,643.75,318.0947,638.75,320.0947,640.75,318.0947" style="stroke:#181818;stroke-width:0.5;"/><line style="stroke:#181818;stroke-width:0.5;" x1="392" x2="641.75" y1="318.0947" y2="318.0947"/><text fill="#000000" font-family="sans-serif" font-size="6.5" font-weight="bold" lengthAdjust="spacing" textLength="7" x="395.5" y="315.4634">17</text><text fill="#000000" font-family="sans-serif" font-size="6.5" lengthAdjust="spacing" textLength="39.5" x="404.5" y="315.4634">getSkillsList()</text><polygon fill="#181818" points="397.5,331.7402,392.5,333.7402,397.5,335.7402,395.5,333.7402" style="stroke:#181818;stroke-width:0.5;"/><line style="stroke:#181818;stroke-width:0.5;stroke-dasharray:2.0,2.0;" x1="394.5" x2="646.75" y1="333.7402" y2="333.7402"/><text fill="#000000" font-family="sans-serif" font-size="6.5" font-weight="bold" lengthAdjust="spacing" textLength="7" x="400.5" y="331.1089">18</text><text fill="#000000" font-family="sans-serif" font-size="6.5" lengthAdjust="spacing" textLength="26.5" x="409.5" y="331.1089">SkillsList</text><polygon fill="#181818" points="215.5,347.3857,210.5,349.3857,215.5,351.3857,213.5,349.3857" style="stroke:#181818;stroke-width:0.5;"/><line style="stroke:#181818;stroke-width:0.5;stroke-dasharray:2.0,2.0;" x1="212.5" x2="389" y1="349.3857" y2="349.3857"/><text fill="#000000" font-family="sans-serif" font-size="6.5" font-weight="bold" lengthAdjust="spacing" textLength="7" x="218.5" y="346.7544">19</text><text fill="#000000" font-family="sans-serif" font-size="6.5" lengthAdjust="spacing" textLength="26.5" x="227.5" y="346.7544">SkillsList</text><polygon fill="#181818" points="41,363.0313,36,365.0313,41,367.0313,39,365.0313" style="stroke:#181818;stroke-width:0.5;"/><line style="stroke:#181818;stroke-width:0.5;stroke-dasharray:2.0,2.0;" x1="38" x2="207" y1="365.0313" y2="365.0313"/><text fill="#000000" font-family="sans-serif" font-size="6.5" font-weight="bold" lengthAdjust="spacing" textLength="7" x="44" y="362.3999">20</text><text fill="#000000" font-family="sans-serif" font-size="6.5" lengthAdjust="spacing" textLength="58.5" x="53" y="362.3999">displays list of skills</text><polygon fill="#181818" points="199,378.6768,204,380.6768,199,382.6768,201,380.6768" style="stroke:#181818;stroke-width:0.5;"/><line style="stroke:#181818;stroke-width:0.5;" x1="35.5" x2="202" y1="380.6768" y2="380.6768"/><text fill="#000000" font-family="sans-serif" font-size="6.5" font-weight="bold" lengthAdjust="spacing" textLength="7" x="39" y="378.0454">21</text><text fill="#000000" font-family="sans-serif" font-size="6.5" lengthAdjust="spacing" textLength="125.5" x="48" y="378.0454">selects skills and assign to the collaborator</text><polygon fill="#181818" points="41,394.3223,36,396.3223,41,398.3223,39,396.3223" style="stroke:#181818;stroke-width:0.5;"/><line style="stroke:#181818;stroke-width:0.5;stroke-dasharray:2.0,2.0;" x1="38" x2="207" y1="396.3223" y2="396.3223"/><text fill="#000000" font-family="sans-serif" font-size="6.5" font-weight="bold" lengthAdjust="spacing" textLength="7" x="44" y="393.6909">22</text><text fill="#000000" font-family="sans-serif" font-size="6.5" lengthAdjust="spacing" textLength="118" x="53" y="393.6909">shows all data and requests confirmation</text><polygon fill="#181818" points="199,409.9678,204,411.9678,199,413.9678,201,411.9678" style="stroke:#181818;stroke-width:0.5;"/><line style="stroke:#181818;stroke-width:0.5;" x1="35.5" x2="202" y1="411.9678" y2="411.9678"/><text fill="#000000" font-family="sans-serif" font-size="6.5" font-weight="bold" lengthAdjust="spacing" textLength="7" x="39" y="409.3364">23</text><text fill="#000000" font-family="sans-serif" font-size="6.5" lengthAdjust="spacing" textLength="39" x="48" y="409.3364">confirms data</text><polygon fill="#181818" points="381,425.6133,386,427.6133,381,429.6133,383,427.6133" style="stroke:#181818;stroke-width:0.5;"/><line style="stroke:#181818;stroke-width:0.5;" x1="210" x2="384" y1="427.6133" y2="427.6133"/><text fill="#000000" font-family="sans-serif" font-size="6.5" font-weight="bold" lengthAdjust="spacing" textLength="7" x="213.5" y="424.9819">24</text><text fill="#000000" font-family="sans-serif" font-size="6.5" lengthAdjust="spacing" textLength="158.5" x="222.5" y="424.9819">assignSkillToCollaborator (collaborator, skillsToAssign)</text><line style="stroke:#181818;stroke-width:0.5;" x1="392" x2="415.5" y1="440.7588" y2="440.7588"/><line style="stroke:#181818;stroke-width:0.5;" x1="415.5" x2="415.5" y1="440.7588" y2="447.2588"/><line style="stroke:#181818;stroke-width:0.5;" x1="395" x2="415.5" y1="447.2588" y2="447.2588"/><polygon fill="#181818" points="400,445.2588,395,447.2588,400,449.2588,398,447.2588" style="stroke:#181818;stroke-width:0.5;"/><text fill="#000000" font-family="sans-serif" font-size="6.5" font-weight="bold" lengthAdjust="spacing" textLength="7" x="398" y="438.1274">25</text><text fill="#000000" font-family="sans-serif" font-size="6.5" lengthAdjust="spacing" textLength="125" x="407" y="438.1274">getCollaboratorByName (collaboratorName)</text><polygon fill="#181818" points="527,463.4043,532,465.4043,527,467.4043,529,465.4043" style="stroke:#181818;stroke-width:0.5;"/><line style="stroke:#181818;stroke-width:0.5;" x1="394.5" x2="530" y1="465.4043" y2="465.4043"/><text fill="#000000" font-family="sans-serif" font-size="6.5" font-weight="bold" lengthAdjust="spacing" textLength="7" x="398" y="462.7729">26</text><text fill="#000000" font-family="sans-serif" font-size="6.5" lengthAdjust="spacing" textLength="37.5" x="407" y="462.7729">getInstance()</text><polygon fill="#181818" points="400,479.0498,395,481.0498,400,483.0498,398,481.0498" style="stroke:#181818;stroke-width:0.5;"/><line style="stroke:#181818;stroke-width:0.5;stroke-dasharray:2.0,2.0;" x1="397" x2="535" y1="481.0498" y2="481.0498"/><text fill="#000000" font-family="sans-serif" font-size="6.5" font-weight="bold" lengthAdjust="spacing" textLength="7" x="403" y="478.4185">27</text><text fill="#000000" font-family="sans-serif" font-size="6.5" lengthAdjust="spacing" textLength="33.5" x="412" y="478.4185">repositories</text><polygon fill="#181818" points="580.5,494.6953,585.5,496.6953,580.5,498.6953,582.5,496.6953" style="stroke:#181818;stroke-width:0.5;"/><line style="stroke:#181818;stroke-width:0.5;" x1="394.5" x2="583.5" y1="496.6953" y2="496.6953"/><text fill="#000000" font-family="sans-serif" font-size="6.5" font-weight="bold" lengthAdjust="spacing" textLength="7" x="398" y="494.064">28</text><text fill="#000000" font-family="sans-serif" font-size="6.5" lengthAdjust="spacing" textLength="78.5" x="407" y="494.064">getCollaboratorRepository()</text><polygon fill="#181818" points="400,510.3408,395,512.3408,400,514.3408,398,512.3408" style="stroke:#181818;stroke-width:0.5;"/><line style="stroke:#181818;stroke-width:0.5;stroke-dasharray:2.0,2.0;" x1="397" x2="588.5" y1="512.3408" y2="512.3408"/><text fill="#000000" font-family="sans-serif" font-size="6.5" font-weight="bold" lengthAdjust="spacing" textLength="7" x="403" y="509.7095">29</text><text fill="#000000" font-family="sans-serif" font-size="6.5" lengthAdjust="spacing" textLength="68" x="412" y="509.7095">collaboratorsRepository</text><polygon fill="#181818" points="716.5,525.9863,721.5,527.9863,716.5,529.9863,718.5,527.9863" style="stroke:#181818;stroke-width:0.5;"/><line style="stroke:#181818;stroke-width:0.5;" x1="394.5" x2="719.5" y1="527.9863" y2="527.9863"/><text fill="#000000" font-family="sans-serif" font-size="6.5" font-weight="bold" lengthAdjust="spacing" textLength="7" x="398" y="525.355">30</text><text fill="#000000" font-family="sans-serif" font-size="6.5" lengthAdjust="spacing" textLength="125" x="407" y="525.355">getCollaboratorByName (collaboratorName)</text><polygon fill="#181818" points="400,541.6318,395,543.6318,400,545.6318,398,543.6318" style="stroke:#181818;stroke-width:0.5;"/><line style="stroke:#181818;stroke-width:0.5;stroke-dasharray:2.0,2.0;" x1="397" x2="724.5" y1="543.6318" y2="543.6318"/><text fill="#000000" font-family="sans-serif" font-size="6.5" font-weight="bold" lengthAdjust="spacing" textLength="7" x="403" y="541.0005">31</text><text fill="#000000" font-family="sans-serif" font-size="6.5" lengthAdjust="spacing" textLength="33.5" x="412" y="541.0005">collaborator</text><line style="stroke:#181818;stroke-width:0.5;stroke-dasharray:2.0,2.0;" x1="394.5" x2="415.5" y1="561.7773" y2="561.7773"/><line style="stroke:#181818;stroke-width:0.5;stroke-dasharray:2.0,2.0;" x1="415.5" x2="415.5" y1="561.7773" y2="568.2773"/><line style="stroke:#181818;stroke-width:0.5;stroke-dasharray:2.0,2.0;" x1="392" x2="415.5" y1="568.2773" y2="568.2773"/><polygon fill="#181818" points="397,566.2773,392,568.2773,397,570.2773,395,568.2773" style="stroke:#181818;stroke-width:0.5;"/><text fill="#000000" font-family="sans-serif" font-size="6.5" font-weight="bold" lengthAdjust="spacing" textLength="7" x="398" y="559.146">32</text><text fill="#000000" font-family="sans-serif" font-size="6.5" lengthAdjust="spacing" textLength="33.5" x="407" y="559.146">collaborator</text><polygon fill="#181818" points="789.25,579.4229,794.25,581.4229,789.25,583.4229,791.25,581.4229" style="stroke:#181818;stroke-width:0.5;"/><line style="stroke:#181818;stroke-width:0.5;" x1="392" x2="792.25" y1="581.4229" y2="581.4229"/><text fill="#000000" font-family="sans-serif" font-size="6.5" font-weight="bold" lengthAdjust="spacing" textLength="7" x="395.5" y="578.7915">33</text><text fill="#000000" font-family="sans-serif" font-size="6.5" lengthAdjust="spacing" textLength="158.5" x="404.5" y="578.7915">assignSkillToCollaborator (collaborator, skillsToAssign)</text><line style="stroke:#181818;stroke-width:0.5;" x1="800.25" x2="821.25" y1="597.0684" y2="597.0684"/><line style="stroke:#181818;stroke-width:0.5;" x1="821.25" x2="821.25" y1="597.0684" y2="603.5684"/><line style="stroke:#181818;stroke-width:0.5;" x1="800.75" x2="821.25" y1="603.5684" y2="603.5684"/><polygon fill="#181818" points="805.75,601.5684,800.75,603.5684,805.75,605.5684,803.75,603.5684" style="stroke:#181818;stroke-width:0.5;"/><text fill="#000000" font-family="sans-serif" font-size="6.5" font-weight="bold" lengthAdjust="spacing" textLength="7" x="803.75" y="594.437">34</text><text fill="#000000" font-family="sans-serif" font-size="6.5" lengthAdjust="spacing" textLength="73" x="812.75" y="594.437">assignSkillToCollaborator</text><polygon fill="#181818" points="397.5,617.2139,392.5,619.2139,397.5,621.2139,395.5,619.2139" style="stroke:#181818;stroke-width:0.5;"/><line style="stroke:#181818;stroke-width:0.5;stroke-dasharray:2.0,2.0;" x1="394.5" x2="797.25" y1="619.2139" y2="619.2139"/><text fill="#000000" font-family="sans-serif" font-size="6.5" font-weight="bold" lengthAdjust="spacing" textLength="7" x="400.5" y="616.5825">35</text><text fill="#000000" font-family="sans-serif" font-size="6.5" lengthAdjust="spacing" textLength="33.5" x="409.5" y="616.5825">collaborator</text><polygon fill="#181818" points="215.5,632.8594,210.5,634.8594,215.5,636.8594,213.5,634.8594" style="stroke:#181818;stroke-width:0.5;"/><line style="stroke:#181818;stroke-width:0.5;stroke-dasharray:2.0,2.0;" x1="212.5" x2="389" y1="634.8594" y2="634.8594"/><text fill="#000000" font-family="sans-serif" font-size="6.5" font-weight="bold" lengthAdjust="spacing" textLength="7" x="218.5" y="632.228">36</text><text fill="#000000" font-family="sans-serif" font-size="6.5" lengthAdjust="spacing" textLength="33.5" x="227.5" y="632.228">collaborator</text><polygon fill="#181818" points="38.5,648.5049,33.5,650.5049,38.5,652.5049,36.5,650.5049" style="stroke:#181818;stroke-width:0.5;"/><line style="stroke:#181818;stroke-width:0.5;stroke-dasharray:2.0,2.0;" x1="35.5" x2="207" y1="650.5049" y2="650.5049"/><text fill="#000000" font-family="sans-serif" font-size="6.5" font-weight="bold" lengthAdjust="spacing" textLength="7" x="41.5" y="647.8735">37</text><text fill="#000000" font-family="sans-serif" font-size="6.5" lengthAdjust="spacing" textLength="79" x="50.5" y="647.8735">displays operation success</text><!--SRC=[rLV1ZjiW4Btp5QEzT5Vg_e0FbRAhIXifsrHsSjiBwv04XK0AkDjyK_-YNrR0NWTiu-3jgRb4WU7D6sRc3L47oazOuYCS1HVbNeeZ0IqhWbIxSyBb0Uz8eS-CW2Ibndp7V0ErnnlnHlaEjfWfWX2kjE3LyPL8X3xjwOR0LWZzAduXN6eXuUQfEc8EEL6YaYLHBnoUCJS-v0rW1K_vCpB8cfRqXBc6csoc5Dtnua0PMy-TpNeUDtaKN4l166lm7bVvecETavDGr72XH3cR_Eltq4Hw5Yzyy40Hdb3MjseDpzbBJSTRSYUxYo5AQOZZLo6nsGh1_ln-7Dvpg95pSN0Jb8zNtzHoiPWzBFFPQfaZcopw4slY4eAW-PWVSF_5900oS-IWG0lpRIyVwXjm2m6Vo-4MqkIlNJHG1j1coK3kY0x2N52bR-_w02wfxRBzE003P39JuyovChLQ4kzu065p7kpOa_SDbGpy2WZCDYGEuP4e1gAv96Q4LD5ZLNYq8dWZ38jXYh5AkvQ2W6wix0BhY54R57IYiWvZyIGvh4Dyhz9ax7vDsT8qCBRcCzXGTMBuh80P313Ra0jWlcaRGX5cX1849sZ0ptln-wrKdp27zs6CQB1jkYrJQyf_tojTQVnma_GqTd9tT17YrnmmwpaEpBgxVWTSi6Danx73ch-E5XR5UA7Nmeucb74p2kgUSCF1T4LQRVVegBruCr2CmGPhx30b-L4HfUtOurigZrXJmLFuDVRAGQ64aPGr_Ds5heIl9N3h1_EvYNabwgV8NPYUAmtPBR_QTKU97yxVi7cV1MxjojqWr0HlfWt6LE2w6anKXHHr65A9ter4fI91CYBIKIRCroGb-UYy_M2MamPZwaJE-dqw4liarwrEJVUJq3RU0_OVEdUydO97yY0RpwBB2aPefQ1T1iQacmiuesXErlChkDri33-Ml14YJaGwTGPLbUQ_tk0KyNxQ_nf_0G00]--></g></svg>