<?xml version="1.0" encoding="us-ascii" standalone="no"?><svg xmlns="http://www.w3.org/2000/svg" xmlns:xlink="http://www.w3.org/1999/xlink" contentStyleType="text/css" height="291.9px" preserveAspectRatio="none" style="width:448px;height:291px;background:#FFFFFF;" version="1.1" viewBox="0 0 448 291" width="448.7px" zoomAndPan="magnify"><defs/><g><rect fill="#FFFFFF" height="176.6297" style="stroke:#181818;stroke-width:0.6999999999999998;" width="7" x="107.1" y="63.3732"/><rect fill="#FFFFFF" height="21.9037" style="stroke:#181818;stroke-width:0.6999999999999998;" width="7" x="200.55" y="103.6807"/><rect fill="#FFFFFF" height="21.9037" style="stroke:#181818;stroke-width:0.6999999999999998;" width="7" x="275.45" y="147.4881"/><rect fill="#FFFFFF" height="21.9037" style="stroke:#181818;stroke-width:0.6999999999999998;" width="7" x="375.2" y="191.2955"/><rect fill="none" height="144.926" style="stroke:#000000;stroke-width:1.0499999999999998;" width="393.4" x="51.1" y="73.8732"/><line style="stroke:#181818;stroke-width:0.3499999999999999;stroke-dasharray:5.0,5.0;" x1="110.6" x2="110.6" y1="40.0695" y2="252.6029"/><line style="stroke:#181818;stroke-width:0.3499999999999999;stroke-dasharray:5.0,5.0;" x1="203.7" x2="203.7" y1="40.0695" y2="252.6029"/><line style="stroke:#181818;stroke-width:0.3499999999999999;stroke-dasharray:5.0,5.0;" x1="278.6" x2="278.6" y1="40.0695" y2="252.6029"/><line style="stroke:#181818;stroke-width:0.3499999999999999;stroke-dasharray:5.0,5.0;" x1="378.7" x2="378.7" y1="40.0695" y2="252.6029"/><rect fill="#E3E3E3" height="22.8348" rx="1.75" ry="1.75" style="stroke:#181818;stroke-width:0.3499999999999999;" width="105" x="58.1" y="16.5348"/><text fill="#000000" font-family="sans-serif" font-size="9.8" lengthAdjust="spacing" textLength="95.2" x="63" y="32.01">:AssignSkillControlller</text><rect fill="#E3E3E3" height="22.8348" rx="1.75" ry="1.75" style="stroke:#181818;stroke-width:0.3499999999999999;" width="105" x="58.1" y="251.9029"/><text fill="#000000" font-family="sans-serif" font-size="9.8" lengthAdjust="spacing" textLength="95.2" x="63" y="267.3781">:AssignSkillControlller</text><rect fill="#E3E3E3" height="22.8348" rx="1.75" ry="1.75" style="stroke:#181818;stroke-width:0.3499999999999999;" width="67.9" x="170.1" y="16.5348"/><text fill="#000000" font-family="sans-serif" font-size="9.8" lengthAdjust="spacing" textLength="58.1" x="175" y="32.01">:Repositories</text><rect fill="#E3E3E3" height="22.8348" rx="1.75" ry="1.75" style="stroke:#181818;stroke-width:0.3499999999999999;" width="67.9" x="170.1" y="251.9029"/><text fill="#000000" font-family="sans-serif" font-size="9.8" lengthAdjust="spacing" textLength="58.1" x="175" y="267.3781">:Repositories</text><rect fill="#E3E3E3" height="35.8695" rx="1.75" ry="1.75" style="stroke:#181818;stroke-width:0.3499999999999999;" width="67.9" x="245" y="3.5"/><text fill="#000000" font-family="sans-serif" font-size="9.8" lengthAdjust="spacing" textLength="51.8" x="253.05" y="18.9752">repositories</text><text fill="#000000" font-family="sans-serif" font-size="9.8" lengthAdjust="spacing" textLength="58.1" x="249.9" y="32.01">:Repositories</text><rect fill="#E3E3E3" height="35.8695" rx="1.75" ry="1.75" style="stroke:#181818;stroke-width:0.3499999999999999;" width="67.9" x="245" y="251.9029"/><text fill="#000000" font-family="sans-serif" font-size="9.8" lengthAdjust="spacing" textLength="51.8" x="253.05" y="267.3781">repositories</text><text fill="#000000" font-family="sans-serif" font-size="9.8" lengthAdjust="spacing" textLength="58.1" x="249.9" y="280.4129">:Repositories</text><rect fill="#E3E3E3" height="35.8695" rx="1.75" ry="1.75" style="stroke:#181818;stroke-width:0.3499999999999999;" width="117.6" x="319.9" y="3.5"/><text fill="#000000" font-family="sans-serif" font-size="9.8" lengthAdjust="spacing" textLength="107.8" x="324.8" y="18.9752">collaboratorsRepository:</text><text fill="#000000" font-family="sans-serif" font-size="9.8" lengthAdjust="spacing" textLength="107.1" x="325.15" y="32.01">CollaboratorsRepository</text><rect fill="#E3E3E3" height="35.8695" rx="1.75" ry="1.75" style="stroke:#181818;stroke-width:0.3499999999999999;" width="117.6" x="319.9" y="251.9029"/><text fill="#000000" font-family="sans-serif" font-size="9.8" lengthAdjust="spacing" textLength="107.8" x="324.8" y="267.3781">collaboratorsRepository:</text><text fill="#000000" font-family="sans-serif" font-size="9.8" lengthAdjust="spacing" textLength="107.1" x="325.15" y="280.4129">CollaboratorsRepository</text><rect fill="#FFFFFF" height="176.6297" style="stroke:#181818;stroke-width:0.6999999999999998;" width="7" x="107.1" y="63.3732"/><rect fill="#FFFFFF" height="21.9037" style="stroke:#181818;stroke-width:0.6999999999999998;" width="7" x="200.55" y="103.6807"/><rect fill="#FFFFFF" height="21.9037" style="stroke:#181818;stroke-width:0.6999999999999998;" width="7" x="275.45" y="147.4881"/><rect fill="#FFFFFF" height="21.9037" style="stroke:#181818;stroke-width:0.6999999999999998;" width="7" x="375.2" y="191.2955"/><polygon fill="#181818" points="98.7,60.5732,105.7,63.3732,98.7,66.1732,101.5,63.3732" style="stroke:#181818;stroke-width:0.6999999999999998;"/><line style="stroke:#181818;stroke-width:0.6999999999999998;" x1="0" x2="102.9" y1="63.3732" y2="63.3732"/><text fill="#000000" font-family="sans-serif" font-size="9.1" font-weight="bold" lengthAdjust="spacing" textLength="4.9" x="4.9" y="59.6894">2</text><text fill="#000000" font-family="sans-serif" font-size="9.1" lengthAdjust="spacing" textLength="86.1" x="12.6" y="59.6894">getCollaboratorsList()</text><path d="M51.1,73.8732 L187.6,73.8732 L187.6,80.377 L180.6,87.377 L51.1,87.377 L51.1,73.8732 " fill="#EEEEEE" style="stroke:#000000;stroke-width:1.0499999999999998;"/><rect fill="none" height="144.926" style="stroke:#000000;stroke-width:1.0499999999999998;" width="393.4" x="51.1" y="73.8732"/><text fill="#000000" font-family="sans-serif" font-size="9.1" font-weight="bold" lengthAdjust="spacing" textLength="105" x="61.6" y="84.3931">Get Collaborator Object</text><polygon fill="#181818" points="192.15,100.8807,199.15,103.6807,192.15,106.4807,194.95,103.6807" style="stroke:#181818;stroke-width:0.6999999999999998;"/><line style="stroke:#181818;stroke-width:0.6999999999999998;" x1="114.1" x2="196.35" y1="103.6807" y2="103.6807"/><text fill="#000000" font-family="sans-serif" font-size="9.1" font-weight="bold" lengthAdjust="spacing" textLength="12.6" x="119" y="99.9968">2.1</text><text fill="#000000" font-family="sans-serif" font-size="9.1" lengthAdjust="spacing" textLength="52.5" x="134.4" y="99.9968">getInstance()</text><polygon fill="#181818" points="121.8,122.7844,114.8,125.5844,121.8,128.3844,119,125.5844" style="stroke:#181818;stroke-width:0.6999999999999998;"/><line style="stroke:#181818;stroke-width:0.6999999999999998;stroke-dasharray:2.0,2.0;" x1="117.6" x2="203.35" y1="125.5844" y2="125.5844"/><text fill="#000000" font-family="sans-serif" font-size="9.1" font-weight="bold" lengthAdjust="spacing" textLength="12.6" x="126" y="121.9005">2.2</text><text fill="#000000" font-family="sans-serif" font-size="9.1" lengthAdjust="spacing" textLength="46.9" x="141.4" y="121.9005">repositories</text><polygon fill="#181818" points="267.05,144.6881,274.05,147.4881,267.05,150.2881,269.85,147.4881" style="stroke:#181818;stroke-width:0.6999999999999998;"/><line style="stroke:#181818;stroke-width:0.6999999999999998;" x1="114.1" x2="271.25" y1="147.4881" y2="147.4881"/><text fill="#000000" font-family="sans-serif" font-size="9.1" font-weight="bold" lengthAdjust="spacing" textLength="12.6" x="119" y="143.8042">2.3</text><text fill="#000000" font-family="sans-serif" font-size="9.1" lengthAdjust="spacing" textLength="114.8" x="134.4" y="143.8042">getCollaboratorsRepository()</text><polygon fill="#181818" points="121.8,166.5918,114.8,169.3918,121.8,172.1918,119,169.3918" style="stroke:#181818;stroke-width:0.6999999999999998;"/><line style="stroke:#181818;stroke-width:0.6999999999999998;stroke-dasharray:2.0,2.0;" x1="117.6" x2="278.25" y1="169.3918" y2="169.3918"/><text fill="#000000" font-family="sans-serif" font-size="9.1" font-weight="bold" lengthAdjust="spacing" textLength="12.6" x="126" y="165.7079">2.4</text><text fill="#000000" font-family="sans-serif" font-size="9.1" lengthAdjust="spacing" textLength="96.6" x="141.4" y="165.7079">CollaboratorsRepository</text><polygon fill="#181818" points="366.8,188.4955,373.8,191.2955,366.8,194.0955,369.6,191.2955" style="stroke:#181818;stroke-width:0.6999999999999998;"/><line style="stroke:#181818;stroke-width:0.6999999999999998;" x1="114.1" x2="371" y1="191.2955" y2="191.2955"/><text fill="#000000" font-family="sans-serif" font-size="9.1" font-weight="bold" lengthAdjust="spacing" textLength="12.6" x="119" y="187.6116">2.5</text><text fill="#000000" font-family="sans-serif" font-size="9.1" lengthAdjust="spacing" textLength="86.1" x="134.4" y="187.6116">getCollabboratorList()</text><polygon fill="#181818" points="121.8,210.3992,114.8,213.1992,121.8,215.9992,119,213.1992" style="stroke:#181818;stroke-width:0.6999999999999998;"/><line style="stroke:#181818;stroke-width:0.6999999999999998;stroke-dasharray:2.0,2.0;" x1="117.6" x2="378" y1="213.1992" y2="213.1992"/><text fill="#000000" font-family="sans-serif" font-size="9.1" font-weight="bold" lengthAdjust="spacing" textLength="12.6" x="126" y="209.5153">2.6</text><text fill="#000000" font-family="sans-serif" font-size="9.1" lengthAdjust="spacing" textLength="63" x="141.4" y="209.5153">CollaboratorList</text><polygon fill="#181818" points="7.7,237.2029,0.7,240.0029,7.7,242.8029,4.9,240.0029" style="stroke:#181818;stroke-width:0.6999999999999998;"/><line style="stroke:#181818;stroke-width:0.6999999999999998;stroke-dasharray:2.0,2.0;" x1="3.5" x2="109.9" y1="240.0029" y2="240.0029"/><text fill="#000000" font-family="sans-serif" font-size="9.1" font-weight="bold" lengthAdjust="spacing" textLength="4.9" x="11.9" y="236.319">3</text><text fill="#000000" font-family="sans-serif" font-size="9.1" lengthAdjust="spacing" textLength="63" x="19.6" y="236.319">CollaboratorList</text><!--SRC=[ZP91JyCm38Nl_HNMBi2XIC2jGaXeGWXf4cZXk8kRUbrOcbI92-pVatQZIwTsMYwHwiz-xyNrMsLgT5X1POsL6sSh0dOD9Rwlr2YtM9BWdIPm91bDgMF0Rx2mFygKi4RjAS66hMcgd5nojL45mTfQpkrl4d1MKjLe66RPi_UgD6Ahj9vRmyvghSdD03tCFvUB4tf9jVMAhLFaEsRvyZ54N4Iip6Y367R888cvTHWet_ExR6NcuvLkpaHN51lk4qYVkXIGGKay6BTGdgzl1lZjNOAIrJSoxRD3EAMpJGsln12tmtl-5NRG4V-d4mg28U5Uxytui2L9GIRcUetsxU92svWU76SGF-G0AsXoGcH1Z6G-FjCPI-BKauXCJOmxuq-C6fpQ-T7oeNXOqwXPUO6P2QQF1CDChTnKc7DoP8hkZdwdX-x3OvhkTSQ4ek4jymS0]--></g></svg>