<?xml version="1.0" encoding="us-ascii" standalone="no"?><svg xmlns="http://www.w3.org/2000/svg" xmlns:xlink="http://www.w3.org/1999/xlink" contentStyleType="text/css" height="438px" preserveAspectRatio="none" style="width:1453px;height:438px;background:#FFFFFF;" version="1.1" viewBox="0 0 1453 438" width="1453px" zoomAndPan="magnify"><defs/><g><text fill="#000000" font-family="sans-serif" font-size="14" font-weight="bold" lengthAdjust="spacing" textLength="100" x="669.85" y="25.1074">Domain Model</text><!--class Job--><g id="elem_Job"><rect codeLine="11" fill="#F1F1F1" height="36.6211" id="Job" rx="2.5" ry="2.5" style="stroke:#181818;stroke-width:0.5;" width="28" x="465.7" y="162.6211"/><text fill="#000000" font-family="sans-serif" font-size="14" lengthAdjust="spacing" textLength="22" x="468.7" y="182.7285">Job</text><line style="stroke:#181818;stroke-width:0.5;" x1="466.7" x2="492.7" y1="191.2422" y2="191.2422"/></g><!--class Skill--><g id="elem_Skill"><rect codeLine="14" fill="#F1F1F1" height="36.6211" id="Skill" rx="2.5" ry="2.5" style="stroke:#181818;stroke-width:0.5;" width="31" x="663.2" y="394.6211"/><text fill="#000000" font-family="sans-serif" font-size="14" lengthAdjust="spacing" textLength="25" x="666.2" y="414.7285">Skill</text><line style="stroke:#181818;stroke-width:0.5;" x1="664.2" x2="693.2" y1="423.2422" y2="423.2422"/></g><!--class Vehicle--><g id="elem_Vehicle"><rect codeLine="17" fill="#F1F1F1" height="36.6211" id="Vehicle" rx="2.5" ry="2.5" style="stroke:#181818;stroke-width:0.5;" width="52" x="102.7" y="162.6211"/><text fill="#000000" font-family="sans-serif" font-size="14" lengthAdjust="spacing" textLength="46" x="105.7" y="182.7285">Vehicle</text><line style="stroke:#181818;stroke-width:0.5;" x1="103.7" x2="153.7" y1="191.2422" y2="191.2422"/></g><!--class Collaborator--><g id="elem_Collaborator"><rect codeLine="20" fill="#F1F1F1" height="36.6211" id="Collaborator" rx="2.5" ry="2.5" style="stroke:#181818;stroke-width:0.5;" width="84" x="508.7" y="278.6211"/><text fill="#000000" font-family="sans-serif" font-size="14" lengthAdjust="spacing" textLength="78" x="511.7" y="298.7285">Collaborator</text><line style="stroke:#181818;stroke-width:0.5;" x1="509.7" x2="591.7" y1="307.2422" y2="307.2422"/></g><!--class FleetManager--><g id="elem_FleetManager"><rect codeLine="23" fill="#F1F1F1" height="36.6211" id="FleetManager" rx="2.5" ry="2.5" style="stroke:#181818;stroke-width:0.5;" width="94" x="130.7" y="46.6211"/><text fill="#000000" font-family="sans-serif" font-size="14" lengthAdjust="spacing" textLength="88" x="133.7" y="66.7285">FleetManager</text><line style="stroke:#181818;stroke-width:0.5;" x1="131.7" x2="223.7" y1="75.2422" y2="75.2422"/></g><!--class HumanResourcesManager--><g id="elem_HumanResourcesManager"><rect codeLine="26" fill="#F1F1F1" height="36.6211" id="HumanResourcesManager" rx="2.5" ry="2.5" style="stroke:#181818;stroke-width:0.5;" width="174" x="588.7" y="46.6211"/><text fill="#000000" font-family="sans-serif" font-size="14" lengthAdjust="spacing" textLength="168" x="591.7" y="66.7285">HumanResourcesManager</text><line style="stroke:#181818;stroke-width:0.5;" x1="589.7" x2="761.7" y1="75.2422" y2="75.2422"/></g><!--class MusgoSublime--><g id="elem_MusgoSublime"><rect fill="#F1F1F1" height="36.6211" id="MusgoSublime" rx="2.5" ry="2.5" style="stroke:#181818;stroke-width:0.5;" width="98" x="965.7" y="46.6211"/><text fill="#000000" font-family="sans-serif" font-size="14" lengthAdjust="spacing" textLength="92" x="968.7" y="66.7285">MusgoSublime</text><line style="stroke:#181818;stroke-width:0.5;" x1="966.7" x2="1062.7" y1="75.2422" y2="75.2422"/></g><!--class GreenSpace--><g id="elem_GreenSpace"><rect fill="#F1F1F1" height="36.6211" id="GreenSpace" rx="2.5" ry="2.5" style="stroke:#181818;stroke-width:0.5;" width="86" x="1174.7" y="162.6211"/><text fill="#000000" font-family="sans-serif" font-size="14" lengthAdjust="spacing" textLength="80" x="1177.7" y="182.7285">GreenSpace</text><line style="stroke:#181818;stroke-width:0.5;" x1="1175.7" x2="1259.7" y1="191.2422" y2="191.2422"/></g><!--class MediumSizedPark--><g id="elem_MediumSizedPark"><rect fill="#F1F1F1" height="36.6211" id="MediumSizedPark" rx="2.5" ry="2.5" style="stroke:#181818;stroke-width:0.5;" width="118" x="1098.7" y="46.6211"/><text fill="#000000" font-family="sans-serif" font-size="14" lengthAdjust="spacing" textLength="112" x="1101.7" y="66.7285">MediumSizedPark</text><line style="stroke:#181818;stroke-width:0.5;" x1="1099.7" x2="1215.7" y1="75.2422" y2="75.2422"/></g><!--class Garden--><g id="elem_Garden"><rect fill="#F1F1F1" height="36.6211" id="Garden" rx="2.5" ry="2.5" style="stroke:#181818;stroke-width:0.5;" width="54" x="1251.7" y="46.6211"/><text fill="#000000" font-family="sans-serif" font-size="14" lengthAdjust="spacing" textLength="48" x="1254.7" y="66.7285">Garden</text><line style="stroke:#181818;stroke-width:0.5;" x1="1252.7" x2="1304.7" y1="75.2422" y2="75.2422"/></g><!--class LargeSizedPark--><g id="elem_LargeSizedPark"><rect fill="#F1F1F1" height="36.6211" id="LargeSizedPark" rx="2.5" ry="2.5" style="stroke:#181818;stroke-width:0.5;" width="106" x="1340.7" y="46.6211"/><text fill="#000000" font-family="sans-serif" font-size="14" lengthAdjust="spacing" textLength="100" x="1343.7" y="66.7285">LargeSizedPark</text><line style="stroke:#181818;stroke-width:0.5;" x1="1341.7" x2="1445.7" y1="75.2422" y2="75.2422"/></g><!--class Team--><g id="elem_Team"><rect fill="#F1F1F1" height="36.6211" id="Team" rx="2.5" ry="2.5" style="stroke:#181818;stroke-width:0.5;" width="42" x="881.7" y="162.6211"/><text fill="#000000" font-family="sans-serif" font-size="14" lengthAdjust="spacing" textLength="36" x="884.7" y="182.7285">Team</text><line style="stroke:#181818;stroke-width:0.5;" x1="882.7" x2="922.7" y1="191.2422" y2="191.2422"/></g><!--class Equipment--><g id="elem_Equipment"><rect fill="#F1F1F1" height="36.6211" id="Equipment" rx="2.5" ry="2.5" style="stroke:#181818;stroke-width:0.5;" width="73" x="190.2" y="162.6211"/><text fill="#000000" font-family="sans-serif" font-size="14" lengthAdjust="spacing" textLength="67" x="193.2" y="182.7285">Equipment</text><line style="stroke:#181818;stroke-width:0.5;" x1="191.2" x2="262.2" y1="191.2422" y2="191.2422"/></g><!--class Machine--><g id="elem_Machine"><rect fill="#F1F1F1" height="36.6211" id="Machine" rx="2.5" ry="2.5" style="stroke:#181818;stroke-width:0.5;" width="59" x="305.2" y="162.6211"/><text fill="#000000" font-family="sans-serif" font-size="14" lengthAdjust="spacing" textLength="53" x="308.2" y="182.7285">Machine</text><line style="stroke:#181818;stroke-width:0.5;" x1="306.2" x2="363.2" y1="191.2422" y2="191.2422"/></g><!--class Checkup--><g id="elem_Checkup"><rect fill="#F1F1F1" height="36.6211" id="Checkup" rx="2.5" ry="2.5" style="stroke:#181818;stroke-width:0.5;" width="62" x="23.7" y="278.6211"/><text fill="#000000" font-family="sans-serif" font-size="14" lengthAdjust="spacing" textLength="56" x="26.7" y="298.7285">Checkup</text><line style="stroke:#181818;stroke-width:0.5;" x1="24.7" x2="84.7" y1="307.2422" y2="307.2422"/></g><!--link MusgoSublime to GreenSpace--><g id="link_MusgoSublime_GreenSpace"><path codeLine="29" d="M1039.38,83.8411 C1059.45,97.8911 1088.75,117.5811 1115.7,132.6211 C1135.15,143.4711 1157.5,154.0811 1176.32,162.5111 " fill="none" id="MusgoSublime-GreenSpace" style="stroke:#181818;stroke-width:1.0;"/><polygon fill="#000000" points="1125.0355,125.7573,1118.6565,118.7033,1115.7285,123.7999,1125.0355,125.7573" style="stroke:#000000;stroke-width:1.0;"/><text fill="#000000" font-family="sans-serif" font-size="13" lengthAdjust="spacing" textLength="46" x="1129.7" y="128.6494">manage</text><text fill="#000000" font-family="sans-serif" font-size="13" lengthAdjust="spacing" textLength="20" x="1023.3253" y="105.2748">0..*</text><text fill="#000000" font-family="sans-serif" font-size="13" lengthAdjust="spacing" textLength="7" x="1159.5025" y="153.6824">1</text></g><!--link MediumSizedPark to GreenSpace--><g id="link_MediumSizedPark_GreenSpace"><path codeLine="30" d="M1167.08,83.9311 C1178.35,105.3511 1197.15,141.0711 1208.39,162.4311 " fill="none" id="MediumSizedPark-GreenSpace" style="stroke:#181818;stroke-width:1.0;"/><polygon fill="#000000" points="1199.0285,127.6913,1197.417,118.3183,1192.2154,121.0556,1199.0285,127.6913" style="stroke:#000000;stroke-width:1.0;"/><text fill="#000000" font-family="sans-serif" font-size="13" lengthAdjust="spacing" textLength="21" x="1205.7" y="128.6494">is a</text><text fill="#000000" font-family="sans-serif" font-size="13" lengthAdjust="spacing" textLength="20" x="1146.9134" y="105.389">0..*</text><text fill="#000000" font-family="sans-serif" font-size="13" lengthAdjust="spacing" textLength="7" x="1197.4669" y="151.2351">1</text></g><!--link Garden to GreenSpace--><g id="link_Garden_GreenSpace"><path codeLine="31" d="M1269.17,83.9311 C1257.71,105.3511 1238.6,141.0711 1227.17,162.4311 " fill="none" id="Garden-GreenSpace" style="stroke:#181818;stroke-width:1.0;"/><polygon fill="#000000" points="1255.3412,127.6753,1262.1996,121.0864,1257.0169,118.3135,1255.3412,127.6753" style="stroke:#000000;stroke-width:1.0;"/><text fill="#000000" font-family="sans-serif" font-size="13" lengthAdjust="spacing" textLength="21" x="1266.7" y="128.6494">is a</text><text fill="#000000" font-family="sans-serif" font-size="13" lengthAdjust="spacing" textLength="20" x="1243.9213" y="105.389">0..*</text><text fill="#000000" font-family="sans-serif" font-size="13" lengthAdjust="spacing" textLength="7" x="1221.9983" y="151.2351">1</text></g><!--link LargeSizedPark to GreenSpace--><g id="link_LargeSizedPark_GreenSpace"><path codeLine="32" d="M1368.85,83.7611 C1349.42,97.4111 1321.61,116.6111 1296.7,132.6211 C1280.81,142.8311 1262.79,153.7211 1247.97,162.4911 " fill="none" id="LargeSizedPark-GreenSpace" style="stroke:#181818;stroke-width:1.0;"/><polygon fill="#000000" points="1324.5103,125.9954,1333.6935,123.5216,1330.4856,118.5963,1324.5103,125.9954" style="stroke:#000000;stroke-width:1.0;"/><text fill="#000000" font-family="sans-serif" font-size="13" lengthAdjust="spacing" textLength="21" x="1337.7" y="128.6494">is a</text><text fill="#000000" font-family="sans-serif" font-size="13" lengthAdjust="spacing" textLength="20" x="1339.4841" y="105.1733">0..*</text><text fill="#000000" font-family="sans-serif" font-size="13" lengthAdjust="spacing" textLength="7" x="1249.1683" y="151.3134">1</text></g><!--link Collaborator to Job--><g id="link_Collaborator_Job"><path codeLine="33" d="M508.57,290.3311 C483.13,284.4211 452.64,272.5311 436.7,248.6211 C423.36,228.6011 448.35,204.8811 465.5,191.8711 " fill="none" id="Collaborator-Job" style="stroke:#181818;stroke-width:1.0;"/><polygon fill="#000000" points="439.6961,234.6857,440.6286,244.1505,446.0137,241.7948,439.6961,234.6857" style="stroke:#000000;stroke-width:1.0;"/><text fill="#000000" font-family="sans-serif" font-size="13" lengthAdjust="spacing" textLength="21" x="450.7" y="244.6494">has</text><text fill="#000000" font-family="sans-serif" font-size="13" lengthAdjust="spacing" textLength="20" x="480.5876" y="285.0694">0..*</text><text fill="#000000" font-family="sans-serif" font-size="13" lengthAdjust="spacing" textLength="7" x="450.7563" y="190.0303">1</text></g><!--link Job to Collaborator--><g id="link_Job_Collaborator"><path codeLine="38" d="M487.27,199.9011 C493.4,213.6211 502.65,232.8611 512.7,248.6211 C519.29,258.9511 527.71,269.6711 534.95,278.3111 " fill="none" id="Job-Collaborator" style="stroke:#181818;stroke-width:1.0;"/><polygon fill="#000000" points="520.2978,243.5388,518.1094,234.2834,513.0872,237.3373,520.2978,243.5388" style="stroke:#000000;stroke-width:1.0;"/><text fill="#000000" font-family="sans-serif" font-size="13" lengthAdjust="spacing" textLength="67" x="526.7" y="244.6494">assigned to</text><text fill="#000000" font-family="sans-serif" font-size="13" lengthAdjust="spacing" textLength="7" x="481.3638" y="221.3509">1</text><text fill="#000000" font-family="sans-serif" font-size="13" lengthAdjust="spacing" textLength="20" x="507.3859" y="267.4155">0..*</text></g><!--link Collaborator to Skill--><g id="link_Collaborator_Skill"><path codeLine="34" d="M544.39,315.8711 C540.45,330.3111 537.82,350.5211 547.7,364.6211 C574.23,402.4511 634.09,410.2711 662.78,411.8111 " fill="none" id="Collaborator-Skill" style="stroke:#181818;stroke-width:1.0;"/><polygon fill="#000000" points="556.5846,358.4146,551.4076,350.4365,547.7069,355.0031,556.5846,358.4146" style="stroke:#000000;stroke-width:1.0;"/><text fill="#000000" font-family="sans-serif" font-size="13" lengthAdjust="spacing" textLength="21" x="561.7" y="360.6494">has</text><text fill="#000000" font-family="sans-serif" font-size="13" lengthAdjust="spacing" textLength="20" x="520.0067" y="337.3129">0..*</text><text fill="#000000" font-family="sans-serif" font-size="13" lengthAdjust="spacing" textLength="7" x="648.1334" y="428.8024">1</text></g><!--link Skill to Collaborator--><g id="link_Skill_Collaborator"><path codeLine="39" d="M663.2,398.9211 C652.13,389.4511 636.92,376.3411 623.7,364.6211 C605.23,348.2411 584.44,329.2411 569.79,315.7611 " fill="none" id="Skill-Collaborator" style="stroke:#181818;stroke-width:1.0;"/><polygon fill="#000000" points="624.9655,351.9419,629.7671,360.1514,633.6755,355.7613,624.9655,351.9419" style="stroke:#000000;stroke-width:1.0;"/><text fill="#000000" font-family="sans-serif" font-size="13" lengthAdjust="spacing" textLength="67" x="637.7" y="360.6494">assigned to</text><text fill="#000000" font-family="sans-serif" font-size="13" lengthAdjust="spacing" textLength="7" x="648.3625" y="386.7238">1</text><text fill="#000000" font-family="sans-serif" font-size="13" lengthAdjust="spacing" textLength="20" x="552.2329" y="337.1733">0..*</text></g><!--link HumanResourcesManager to Job--><g id="link_HumanResourcesManager_Job"><path codeLine="35" d="M588.48,72.3011 C529.3,78.5111 458.53,90.6211 439.7,113.6211 C424.85,131.7611 448.67,155.9611 465.45,169.6111 " fill="none" id="HumanResourcesManager-Job" style="stroke:#181818;stroke-width:1.0;"/><polygon fill="#000000" points="440.7784,126.3684,449.6958,123.0623,446.0495,118.4522,440.7784,126.3684" style="stroke:#000000;stroke-width:1.0;"/><text fill="#000000" font-family="sans-serif" font-size="13" lengthAdjust="spacing" textLength="42" x="453.7" y="128.6494">selects</text><text fill="#000000" font-family="sans-serif" font-size="13" lengthAdjust="spacing" textLength="7" x="573.6838" y="69.2448">1</text><text fill="#000000" font-family="sans-serif" font-size="13" lengthAdjust="spacing" textLength="7" x="450.6844" y="158.0316">1</text></g><!--link HumanResourcesManager to Job--><g id="link_HumanResourcesManager_Job"><path codeLine="37" d="M600.85,83.6511 C579.03,90.8311 555.91,100.6011 536.7,113.6211 C517.57,126.5911 501.06,147.6011 490.81,162.5311 " fill="none" id="HumanResourcesManager-Job-1" style="stroke:#181818;stroke-width:1.0;"/><polygon fill="#000000" points="537.6362,126.1796,546.6999,123.2985,543.2754,118.5213,537.6362,126.1796" style="stroke:#000000;stroke-width:1.0;"/><text fill="#000000" font-family="sans-serif" font-size="13" lengthAdjust="spacing" textLength="43" x="550.7" y="128.6494">register</text><text fill="#000000" font-family="sans-serif" font-size="13" lengthAdjust="spacing" textLength="7" x="573.7728" y="104.6917">1</text><text fill="#000000" font-family="sans-serif" font-size="13" lengthAdjust="spacing" textLength="7" x="486.1406" y="151.3657">1</text></g><!--link HumanResourcesManager to Skill--><g id="link_HumanResourcesManager_Skill"><path codeLine="36" d="M683.97,83.7711 C692.37,102.7611 704.82,134.0811 709.7,162.6211 C724.84,251.1111 735.3,278.5711 709.7,364.6211 C706.5,375.3811 700,385.9811 693.78,394.4211 " fill="none" id="HumanResourcesManager-Skill" style="stroke:#181818;stroke-width:1.0;"/><polygon fill="#000000" points="729.8578,244.2641,732.5098,235.1308,726.6349,235.3163,729.8578,244.2641" style="stroke:#000000;stroke-width:1.0;"/><text fill="#000000" font-family="sans-serif" font-size="13" lengthAdjust="spacing" textLength="42" x="738.7" y="244.6494">selects</text><text fill="#000000" font-family="sans-serif" font-size="13" lengthAdjust="spacing" textLength="7" x="678.2519" y="105.186">1</text><text fill="#000000" font-family="sans-serif" font-size="13" lengthAdjust="spacing" textLength="7" x="690.3264" y="383.222">1</text></g><!--link HumanResourcesManager to Skill--><g id="link_HumanResourcesManager_Skill"><path codeLine="41" d="M697.09,83.7811 C706.53,92.2211 717.36,102.8211 725.7,113.6211 C761.69,160.2211 775.02,172.6011 789.7,229.6211 C803.45,282.9911 758.97,338.3811 738.7,364.6211 C726.36,380.6011 707.52,394.3511 694.25,402.8811 " fill="none" id="HumanResourcesManager-Skill-1" style="stroke:#181818;stroke-width:1.0;"/><polygon fill="#000000" points="797.6555,244.2664,800.6748,235.2478,794.7972,235.1955,797.6555,244.2664" style="stroke:#000000;stroke-width:1.0;"/><text fill="#000000" font-family="sans-serif" font-size="13" lengthAdjust="spacing" textLength="43" x="806.7" y="244.6494">register</text><text fill="#000000" font-family="sans-serif" font-size="13" lengthAdjust="spacing" textLength="7" x="694.8979" y="105.1987">1</text><text fill="#000000" font-family="sans-serif" font-size="13" lengthAdjust="spacing" textLength="20" x="702.0747" y="394.2729">0..*</text></g><!--link HumanResourcesManager to Collaborator--><g id="link_HumanResourcesManager_Collaborator"><path codeLine="40" d="M670.77,83.8511 C660.77,117.8411 635.9,193.6511 598.7,248.6211 C591.34,259.4911 581.23,269.9511 572.19,278.2611 " fill="none" id="HumanResourcesManager-Collaborator" style="stroke:#181818;stroke-width:1.0;"/><polygon fill="#000000" points="646.4387,185.7261,653.1506,178.988,647.9082,176.3297,646.4387,185.7261" style="stroke:#000000;stroke-width:1.0;"/><text fill="#000000" font-family="sans-serif" font-size="13" lengthAdjust="spacing" textLength="43" x="657.7" y="186.6494">register</text><text fill="#000000" font-family="sans-serif" font-size="13" lengthAdjust="spacing" textLength="7" x="661.5044" y="105.2875">1</text><text fill="#000000" font-family="sans-serif" font-size="13" lengthAdjust="spacing" textLength="20" x="555.5652" y="267.3508">0..*</text></g><!--link HumanResourcesManager to Team--><g id="link_HumanResourcesManager_Team"><path codeLine="42" d="M762.76,76.8311 C793.78,83.7211 827.68,95.0411 854.7,113.6211 C872.65,125.9711 886.29,147.3111 894.36,162.4811 " fill="none" id="HumanResourcesManager-Team" style="stroke:#181818;stroke-width:1.0;"/><polygon fill="#000000" points="883.8906,125.994,877.9128,118.5969,874.7066,123.5233,883.8906,125.994" style="stroke:#000000;stroke-width:1.0;"/><text fill="#000000" font-family="sans-serif" font-size="13" lengthAdjust="spacing" textLength="57" x="888.7" y="128.6494">generates</text><text fill="#000000" font-family="sans-serif" font-size="13" lengthAdjust="spacing" textLength="7" x="770.8255" y="74.1751">1</text><text fill="#000000" font-family="sans-serif" font-size="13" lengthAdjust="spacing" textLength="7" x="883.734" y="151.3004">1</text></g><!--link FleetManager to Vehicle--><g id="link_FleetManager_Vehicle"><path codeLine="43" d="M150.45,83.7211 C140.74,91.5811 130.93,101.7611 125.7,113.6211 C118.89,129.0611 120.83,148.5211 123.75,162.3911 " fill="none" id="FleetManager-Vehicle" style="stroke:#181818;stroke-width:1.0;"/><polygon fill="#000000" points="129.0931,128.0013,134.783,120.3806,129.217,118.4916,129.0931,128.0013" style="stroke:#000000;stroke-width:1.0;"/><text fill="#000000" font-family="sans-serif" font-size="13" lengthAdjust="spacing" textLength="43" x="139.7" y="128.6494">register</text><text fill="#000000" font-family="sans-serif" font-size="13" lengthAdjust="spacing" textLength="7" x="135.1859" y="105.1226">1</text><text fill="#000000" font-family="sans-serif" font-size="13" lengthAdjust="spacing" textLength="20" x="99.3584" y="151.519">0..*</text></g><!--link FleetManager to Equipment--><g id="link_FleetManager_Equipment"><path codeLine="44" d="M185.36,83.9311 C194.56,105.3511 209.92,141.0711 219.1,162.4311 " fill="none" id="FleetManager-Equipment" style="stroke:#181818;stroke-width:1.0;"/><polygon fill="#000000" points="212.6744,127.8603,211.8028,118.3897,206.4026,120.7108,212.6744,127.8603" style="stroke:#000000;stroke-width:1.0;"/><text fill="#000000" font-family="sans-serif" font-size="13" lengthAdjust="spacing" textLength="53" x="219.7" y="128.6494">manages</text><text fill="#000000" font-family="sans-serif" font-size="13" lengthAdjust="spacing" textLength="7" x="179.478" y="105.389">1</text><text fill="#000000" font-family="sans-serif" font-size="13" lengthAdjust="spacing" textLength="20" x="193.71" y="151.2351">0..*</text></g><!--link FleetManager to Machine--><g id="link_FleetManager_Machine"><path codeLine="45" d="M224.85,82.1611 C243.66,89.9111 264.81,100.4211 281.7,113.6211 C299.15,127.2511 314.35,147.7411 323.94,162.3711 " fill="none" id="FleetManager-Machine" style="stroke:#181818;stroke-width:1.0;"/><polygon fill="#000000" points="309.5863,126.4125,304.405,118.4372,300.7068,123.0059,309.5863,126.4125" style="stroke:#000000;stroke-width:1.0;"/><text fill="#000000" font-family="sans-serif" font-size="13" lengthAdjust="spacing" textLength="53" x="314.7" y="128.6494">manages</text><text fill="#000000" font-family="sans-serif" font-size="13" lengthAdjust="spacing" textLength="7" x="232.6058" y="80.5484">1</text><text fill="#000000" font-family="sans-serif" font-size="13" lengthAdjust="spacing" textLength="20" x="297.8418" y="151.4931">0..*</text></g><!--link FleetManager to Checkup--><g id="link_FleetManager_Checkup"><path codeLine="46" d="M130.47,82.0411 C94.88,96.8211 48.6,122.6411 26.7,162.6211 C6,200.4211 28.88,251.9511 43.85,278.5811 " fill="none" id="FleetManager-Checkup" style="stroke:#181818;stroke-width:1.0;"/><polygon fill="#000000" points="29.6835,185.842,36.0207,178.7503,30.642,176.3798,29.6835,185.842" style="stroke:#000000;stroke-width:1.0;"/><text fill="#000000" font-family="sans-serif" font-size="13" lengthAdjust="spacing" textLength="43" x="40.7" y="186.6494">register</text><text fill="#000000" font-family="sans-serif" font-size="13" lengthAdjust="spacing" textLength="7" x="115.702" y="80.41">1</text><text fill="#000000" font-family="sans-serif" font-size="13" lengthAdjust="spacing" textLength="20" x="17.4647" y="267.431">0..*</text></g><!--link Vehicle to Checkup--><g id="link_Vehicle_Checkup"><path codeLine="47" d="M117.14,199.9311 C103.24,221.3511 80.05,257.0711 66.18,278.4311 " fill="none" id="Vehicle-Checkup" style="stroke:#181818;stroke-width:1.0;"/><polygon fill="#000000" points="98.9775,243.4604,106.3676,237.474,101.4375,234.2735,98.9775,243.4604" style="stroke:#000000;stroke-width:1.0;"/><text fill="#000000" font-family="sans-serif" font-size="13" lengthAdjust="spacing" textLength="30" x="110.7" y="244.6494">owns</text><text fill="#000000" font-family="sans-serif" font-size="13" lengthAdjust="spacing" textLength="7" x="106.0926" y="221.389">1</text><text fill="#000000" font-family="sans-serif" font-size="13" lengthAdjust="spacing" textLength="5" x="63.9301" y="267.2351">*</text></g><!--SRC=[bLDBIyGm4BxdLmnx57RHwnu4yR4g5iIAzsawjaFpMFDWKV6_c-xIqi2oZrFJoVUO-PBuZiqQ7MhGrbZPEgi9Weia_BYpHjbXGsNuLWIEP43Jg2d0jrZR3Pi6Fb5v4fCjgT3xcn0SLp7GaxIcv1-2Iz5oJI3PoQIqNMiAhQsz4853yhcp6jb0OMjIGcnbuDbMy2l-Xj-oOwMcXGzgEUbDIxTMAQoims3TjFwWY4A19isLrH-ZHlD6taOdoMU08lh6bh5Id2AQNIuM5pEOps5sDOEL8p9boebW2NfBWcjHKCrHz_FMh-YwGnpsW8cnGbUJEG7uWYuTo1dAMGuvl4zr2Itwmx1TsWDmVquzBbFrfD9zyN0AOp0uXxDpSTIm3sadKVhA0DZrdysqX7JAt1Yg8TW4tvcUGJZSqbw1iRtJs4CE9zFIvvtIMrj2GuQIA_KdbDtmt65u9vd70VpzL-Ir9XF6stt4e43Pig4Zy36kbcGNrtaxGu-3S8Qp6zDB_WC0]--></g></svg>