<?xml version="1.0" encoding="us-ascii" standalone="no"?><svg xmlns="http://www.w3.org/2000/svg" xmlns:xlink="http://www.w3.org/1999/xlink" contentStyleType="text/css" height="724.8px" preserveAspectRatio="none" style="width:1680px;height:724px;background:#FFFFFF;" version="1.1" viewBox="0 0 1680 724" width="1680.8px" zoomAndPan="magnify"><defs/><g><text fill="#000000" font-family="sans-serif" font-size="11.2" font-weight="bold" lengthAdjust="spacing" textLength="80" x="795" y="20.0859">Domain Model</text><!--class Job--><g id="elem_Job"><rect codeLine="11" fill="#F1F1F1" height="59.0906" id="Job" rx="2" ry="2" style="stroke:#181818;stroke-width:0.4000000000000001;" width="64.8" x="499.2" y="326.4969"/><text fill="#000000" font-family="sans-serif" font-size="11.2" lengthAdjust="spacing" textLength="17.6" x="522.8" y="342.5828">Job</text><line style="stroke:#181818;stroke-width:0.4000000000000001;" x1="500" x2="563.2" y1="349.3938" y2="349.3938"/><text fill="#000000" font-family="sans-serif" font-size="11.2" lengthAdjust="spacing" textLength="28" x="504" y="364.6797">name</text><text fill="#000000" font-family="sans-serif" font-size="11.2" lengthAdjust="spacing" textLength="55.2" x="504" y="379.5766">description</text></g><!--class Skill--><g id="elem_Skill"><rect codeLine="16" fill="#F1F1F1" height="73.9875" id="Skill" rx="2" ry="2" style="stroke:#181818;stroke-width:0.4000000000000001;" width="64.8" x="730.4" y="645.2969"/><text fill="#000000" font-family="sans-serif" font-size="11.2" lengthAdjust="spacing" textLength="20" x="752.8" y="661.3828">Skill</text><line style="stroke:#181818;stroke-width:0.4000000000000001;" x1="731.2" x2="794.4" y1="668.1938" y2="668.1938"/><text fill="#000000" font-family="sans-serif" font-size="11.2" lengthAdjust="spacing" textLength="28" x="735.2" y="683.4797">name</text><text fill="#000000" font-family="sans-serif" font-size="11.2" lengthAdjust="spacing" textLength="55.2" x="735.2" y="698.3766">description</text><text fill="#000000" font-family="sans-serif" font-size="11.2" lengthAdjust="spacing" textLength="44" x="735.2" y="713.2734">category</text></g><!--class Vehicle--><g id="elem_Vehicle"><rect codeLine="22" fill="#F1F1F1" height="178.2656" id="Vehicle" rx="2" ry="2" style="stroke:#181818;stroke-width:0.4000000000000001;" width="128.8" x="80.8" y="266.8969"/><text fill="#000000" font-family="sans-serif" font-size="11.2" lengthAdjust="spacing" textLength="36.8" x="126.8" y="282.9828">Vehicle</text><line style="stroke:#181818;stroke-width:0.4000000000000001;" x1="81.6" x2="208.8" y1="289.7938" y2="289.7938"/><text fill="#000000" font-family="sans-serif" font-size="11.2" lengthAdjust="spacing" textLength="10.4" x="85.6" y="305.0797">ID</text><text fill="#000000" font-family="sans-serif" font-size="11.2" lengthAdjust="spacing" textLength="30.4" x="85.6" y="319.9766">Brand</text><text fill="#000000" font-family="sans-serif" font-size="11.2" lengthAdjust="spacing" textLength="30.4" x="85.6" y="334.8734">Model</text><text fill="#000000" font-family="sans-serif" font-size="11.2" lengthAdjust="spacing" textLength="25.6" x="85.6" y="349.7703">Type</text><text fill="#000000" font-family="sans-serif" font-size="11.2" lengthAdjust="spacing" textLength="59.2" x="85.6" y="364.6672">TareWeight</text><text fill="#000000" font-family="sans-serif" font-size="11.2" lengthAdjust="spacing" textLength="65.6" x="85.6" y="379.5641">GrossWeight</text><text fill="#000000" font-family="sans-serif" font-size="11.2" lengthAdjust="spacing" textLength="61.6" x="85.6" y="394.4609">CurrentKMS</text><text fill="#000000" font-family="sans-serif" font-size="11.2" lengthAdjust="spacing" textLength="66.4" x="85.6" y="409.3578">RegisterDate</text><text fill="#000000" font-family="sans-serif" font-size="11.2" lengthAdjust="spacing" textLength="78.4" x="85.6" y="424.2547">AcquisitionDate</text><text fill="#000000" font-family="sans-serif" font-size="11.2" lengthAdjust="spacing" textLength="119.2" x="85.6" y="439.1516">MaintenanceFrequency</text></g><!--class CheckUp--><g id="elem_CheckUp"><rect codeLine="36" fill="#F1F1F1" height="73.9875" id="CheckUp" rx="2" ry="2" style="stroke:#181818;stroke-width:0.4000000000000001;" width="79.2" x="183.2" y="508.4969"/><text fill="#000000" font-family="sans-serif" font-size="11.2" lengthAdjust="spacing" textLength="45.6" x="200" y="524.5828">CheckUp</text><line style="stroke:#181818;stroke-width:0.4000000000000001;" x1="184" x2="261.6" y1="531.3938" y2="531.3938"/><text fill="#000000" font-family="sans-serif" font-size="11.2" lengthAdjust="spacing" textLength="61.6" x="188" y="546.6797">CurrentKMS</text><text fill="#000000" font-family="sans-serif" font-size="11.2" lengthAdjust="spacing" textLength="10.4" x="188" y="561.5766">ID</text><text fill="#000000" font-family="sans-serif" font-size="11.2" lengthAdjust="spacing" textLength="69.6" x="188" y="576.4734">CheckUpDate</text></g><!--class Collaborator--><g id="elem_Collaborator"><rect codeLine="42" fill="#F1F1F1" height="73.9875" id="Collaborator" rx="2" ry="2" style="stroke:#181818;stroke-width:0.4000000000000001;" width="67.2" x="631.6" y="508.4969"/><text fill="#000000" font-family="sans-serif" font-size="11.2" lengthAdjust="spacing" textLength="62.4" x="634" y="524.5828">Collaborator</text><line style="stroke:#181818;stroke-width:0.4000000000000001;" x1="632.4" x2="698" y1="531.3938" y2="531.3938"/><text fill="#000000" font-family="sans-serif" font-size="11.2" lengthAdjust="spacing" textLength="28" x="636.4" y="546.6797">name</text><text fill="#000000" font-family="sans-serif" font-size="11.2" lengthAdjust="spacing" textLength="26.4" x="636.4" y="561.5766">email</text><text fill="#000000" font-family="sans-serif" font-size="11.2" lengthAdjust="spacing" textLength="18.4" x="636.4" y="576.4734">skill</text></g><!--class FleetManager--><g id="elem_FleetManager"><rect codeLine="49" fill="#F1F1F1" height="73.9875" id="FleetManager" rx="2" ry="2" style="stroke:#181818;stroke-width:0.4000000000000001;" width="75.2" x="228.4" y="130.0969"/><text fill="#000000" font-family="sans-serif" font-size="11.2" lengthAdjust="spacing" textLength="70.4" x="230.8" y="146.1828">FleetManager</text><line style="stroke:#181818;stroke-width:0.4000000000000001;" x1="229.2" x2="302.8" y1="152.9938" y2="152.9938"/><text fill="#000000" font-family="sans-serif" font-size="11.2" lengthAdjust="spacing" textLength="28" x="233.2" y="168.2797">name</text><text fill="#000000" font-family="sans-serif" font-size="11.2" lengthAdjust="spacing" textLength="26.4" x="233.2" y="183.1766">email</text><text fill="#000000" font-family="sans-serif" font-size="11.2" lengthAdjust="spacing" textLength="32" x="233.2" y="198.0734">phone</text></g><!--class HumanResourcesManager--><g id="elem_HumanResourcesManager"><rect codeLine="55" fill="#F1F1F1" height="73.9875" id="HumanResourcesManager" rx="2" ry="2" style="stroke:#181818;stroke-width:0.4000000000000001;" width="139.2" x="561.2" y="130.0969"/><text fill="#000000" font-family="sans-serif" font-size="11.2" lengthAdjust="spacing" textLength="134.4" x="563.6" y="146.1828">HumanResourcesManager</text><line style="stroke:#181818;stroke-width:0.4000000000000001;" x1="562" x2="699.6" y1="152.9938" y2="152.9938"/><text fill="#000000" font-family="sans-serif" font-size="11.2" lengthAdjust="spacing" textLength="28" x="566" y="168.2797">name</text><text fill="#000000" font-family="sans-serif" font-size="11.2" lengthAdjust="spacing" textLength="26.4" x="566" y="183.1766">email</text><text fill="#000000" font-family="sans-serif" font-size="11.2" lengthAdjust="spacing" textLength="32" x="566" y="198.0734">phone</text></g><!--class MusgoSublime--><g id="elem_MusgoSublime"><rect fill="#F1F1F1" height="29.2969" id="MusgoSublime" rx="2" ry="2" style="stroke:#181818;stroke-width:0.4000000000000001;" width="78.4" x="1289.2" y="152.0969"/><text fill="#000000" font-family="sans-serif" font-size="11.2" lengthAdjust="spacing" textLength="73.6" x="1291.6" y="168.1828">MusgoSublime</text><line style="stroke:#181818;stroke-width:0.4000000000000001;" x1="1290" x2="1366.8" y1="174.9938" y2="174.9938"/></g><!--class Organization--><g id="elem_Organization"><rect fill="#F1F1F1" height="29.2969" id="Organization" rx="2" ry="2" style="stroke:#181818;stroke-width:0.4000000000000001;" width="68.8" x="1068.4" y="341.2969"/><text fill="#000000" font-family="sans-serif" font-size="11.2" lengthAdjust="spacing" textLength="64" x="1070.8" y="357.3828">Organization</text><line style="stroke:#181818;stroke-width:0.4000000000000001;" x1="1069.2" x2="1136.4" y1="364.1938" y2="364.1938"/></g><!--class GreenSpace--><g id="elem_GreenSpace"><rect fill="#F1F1F1" height="29.2969" id="GreenSpace" rx="2" ry="2" style="stroke:#181818;stroke-width:0.4000000000000001;" width="68.8" x="1458.8" y="341.2969"/><text fill="#000000" font-family="sans-serif" font-size="11.2" lengthAdjust="spacing" textLength="64" x="1461.2" y="357.3828">GreenSpace</text><line style="stroke:#181818;stroke-width:0.4000000000000001;" x1="1459.6" x2="1526.8" y1="364.1938" y2="364.1938"/></g><!--class MediumSizedPark--><g id="elem_MediumSizedPark"><rect fill="#F1F1F1" height="29.2969" id="MediumSizedPark" rx="2" ry="2" style="stroke:#181818;stroke-width:0.4000000000000001;" width="94.4" x="1397.2" y="152.0969"/><text fill="#000000" font-family="sans-serif" font-size="11.2" lengthAdjust="spacing" textLength="89.6" x="1399.6" y="168.1828">MediumSizedPark</text><line style="stroke:#181818;stroke-width:0.4000000000000001;" x1="1398" x2="1490.8" y1="174.9938" y2="174.9938"/></g><!--class Garden--><g id="elem_Garden"><rect fill="#F1F1F1" height="29.2969" id="Garden" rx="2" ry="2" style="stroke:#181818;stroke-width:0.4000000000000001;" width="43.2" x="1519.6" y="152.0969"/><text fill="#000000" font-family="sans-serif" font-size="11.2" lengthAdjust="spacing" textLength="38.4" x="1522" y="168.1828">Garden</text><line style="stroke:#181818;stroke-width:0.4000000000000001;" x1="1520.4" x2="1562" y1="174.9938" y2="174.9938"/></g><!--class LargeSizedPark--><g id="elem_LargeSizedPark"><rect fill="#F1F1F1" height="29.2969" id="LargeSizedPark" rx="2" ry="2" style="stroke:#181818;stroke-width:0.4000000000000001;" width="84.8" x="1590.8" y="152.0969"/><text fill="#000000" font-family="sans-serif" font-size="11.2" lengthAdjust="spacing" textLength="80" x="1593.2" y="168.1828">LargeSizedPark</text><line style="stroke:#181818;stroke-width:0.4000000000000001;" x1="1591.6" x2="1674.8" y1="174.9938" y2="174.9938"/></g><!--class GreenSpaceManager--><g id="elem_GreenSpaceManager"><rect fill="#F1F1F1" height="29.2969" id="GreenSpaceManager" rx="2" ry="2" style="stroke:#181818;stroke-width:0.4000000000000001;" width="113.6" x="1024.4" y="152.0969"/><text fill="#000000" font-family="sans-serif" font-size="11.2" lengthAdjust="spacing" textLength="108.8" x="1026.8" y="168.1828">GreenSpaceManager</text><line style="stroke:#181818;stroke-width:0.4000000000000001;" x1="1025.2" x2="1137.2" y1="174.9938" y2="174.9938"/></g><!--class GreenSpaceUser--><g id="elem_GreenSpaceUser"><rect fill="#F1F1F1" height="29.2969" id="GreenSpaceUser" rx="2" ry="2" style="stroke:#181818;stroke-width:0.4000000000000001;" width="92" x="1166.4" y="152.0969"/><text fill="#000000" font-family="sans-serif" font-size="11.2" lengthAdjust="spacing" textLength="87.2" x="1168.8" y="168.1828">GreenSpaceUser</text><line style="stroke:#181818;stroke-width:0.4000000000000001;" x1="1167.2" x2="1257.6" y1="174.9938" y2="174.9938"/></g><!--class Team--><g id="elem_Team"><rect fill="#F1F1F1" height="29.2969" id="Team" rx="2" ry="2" style="stroke:#181818;stroke-width:0.4000000000000001;" width="33.6" x="705.2" y="341.2969"/><text fill="#000000" font-family="sans-serif" font-size="11.2" lengthAdjust="spacing" textLength="28.8" x="707.6" y="357.3828">Team</text><line style="stroke:#181818;stroke-width:0.4000000000000001;" x1="706" x2="738" y1="364.1938" y2="364.1938"/></g><!--class Equipment--><g id="elem_Equipment"><rect fill="#F1F1F1" height="29.2969" id="Equipment" rx="2" ry="2" style="stroke:#181818;stroke-width:0.4000000000000001;" width="58.4" x="340.8" y="341.2969"/><text fill="#000000" font-family="sans-serif" font-size="11.2" lengthAdjust="spacing" textLength="53.6" x="343.2" y="357.3828">Equipment</text><line style="stroke:#181818;stroke-width:0.4000000000000001;" x1="341.6" x2="398.4" y1="364.1938" y2="364.1938"/></g><!--class Machine--><g id="elem_Machine"><rect fill="#F1F1F1" height="29.2969" id="Machine" rx="2" ry="2" style="stroke:#181818;stroke-width:0.4000000000000001;" width="47.2" x="5.6" y="341.2969"/><text fill="#000000" font-family="sans-serif" font-size="11.2" lengthAdjust="spacing" textLength="42.4" x="8" y="357.3828">Machine</text><line style="stroke:#181818;stroke-width:0.4000000000000001;" x1="6.4" x2="52" y1="364.1938" y2="364.1938"/></g><!--class Task--><g id="elem_Task"><rect fill="#F1F1F1" height="29.2969" id="Task" rx="2" ry="2" style="stroke:#181818;stroke-width:0.4000000000000001;" width="29.6" x="853.6" y="152.0969"/><text fill="#000000" font-family="sans-serif" font-size="11.2" lengthAdjust="spacing" textLength="24.8" x="856" y="168.1828">Task</text><line style="stroke:#181818;stroke-width:0.4000000000000001;" x1="854.4" x2="882.4" y1="174.9938" y2="174.9938"/></g><!--class Agenda--><g id="elem_Agenda"><rect fill="#F1F1F1" height="29.2969" id="Agenda" rx="2" ry="2" style="stroke:#181818;stroke-width:0.4000000000000001;" width="44" x="846.4" y="37.2969"/><text fill="#000000" font-family="sans-serif" font-size="11.2" lengthAdjust="spacing" textLength="39.2" x="848.8" y="53.3828">Agenda</text><line style="stroke:#181818;stroke-width:0.4000000000000001;" x1="847.2" x2="889.6" y1="60.1938" y2="60.1938"/></g><!--link MusgoSublime to Organization--><g id="link_MusgoSublime_Organization"><path codeLine="61" d="M1311.44,181.8009 C1269.536,216.6489 1161.44,306.5369 1119.648,341.2889 " fill="none" id="MusgoSublime-Organization" style="stroke:#181818;stroke-width:0.8000000000000002;"/><polygon fill="#000000" points="1255.7244,237.9708,1262.7915,235.152,1259.7849,231.5364,1255.7244,237.9708" style="stroke:#000000;stroke-width:0.8000000000000002;"/><text fill="#000000" font-family="sans-serif" font-size="10.4" lengthAdjust="spacing" textLength="16.8" x="1266" y="239.7195">is a</text><text fill="#000000" font-family="sans-serif" font-size="10.4" lengthAdjust="spacing" textLength="16" x="1288.732" y="198.9285">0..*</text><text fill="#000000" font-family="sans-serif" font-size="10.4" lengthAdjust="spacing" textLength="5.6" x="1118.3502" y="332.3761">1</text></g><!--link MusgoSublime to GreenSpace--><g id="link_MusgoSublime_GreenSpace"><path codeLine="62" d="M1340.784,181.8009 C1371.4,216.6489 1450.36,306.5369 1480.896,341.2889 " fill="none" id="MusgoSublime-GreenSpace" style="stroke:#181818;stroke-width:0.8000000000000002;"/><polygon fill="#000000" points="1397.44,238.4184,1394.4305,231.4304,1390.8979,234.5339,1397.44,238.4184" style="stroke:#000000;stroke-width:0.8000000000000002;"/><text fill="#000000" font-family="sans-serif" font-size="10.4" lengthAdjust="spacing" textLength="42.4" x="1402" y="239.7195">manages</text><text fill="#000000" font-family="sans-serif" font-size="10.4" lengthAdjust="spacing" textLength="16" x="1325.9622" y="198.9285">0..*</text><text fill="#000000" font-family="sans-serif" font-size="10.4" lengthAdjust="spacing" textLength="5.6" x="1470.6704" y="332.3761">1</text></g><!--link MediumSizedPark to GreenSpace--><g id="link_MediumSizedPark_GreenSpace"><path codeLine="63" d="M1448.064,181.8009 C1457.136,216.6489 1480.512,306.5369 1489.56,341.2889 " fill="none" id="MediumSizedPark-GreenSpace" style="stroke:#181818;stroke-width:0.8000000000000002;"/><polygon fill="#000000" points="1467.8072,239.2844,1468.2605,231.6895,1463.7098,232.8735,1467.8072,239.2844" style="stroke:#000000;stroke-width:0.8000000000000002;"/><text fill="#000000" font-family="sans-serif" font-size="10.4" lengthAdjust="spacing" textLength="16.8" x="1474" y="239.7195">is a</text><text fill="#000000" font-family="sans-serif" font-size="10.4" lengthAdjust="spacing" textLength="16" x="1430.8987" y="198.9285">0..*</text><text fill="#000000" font-family="sans-serif" font-size="10.4" lengthAdjust="spacing" textLength="5.6" x="1481.9878" y="332.3761">1</text></g><!--link Garden to GreenSpace--><g id="link_Garden_GreenSpace"><path codeLine="64" d="M1537.592,181.8009 C1528.672,216.6489 1505.68,306.5369 1496.784,341.2889 " fill="none" id="Garden-GreenSpace" style="stroke:#181818;stroke-width:0.8000000000000002;"/><polygon fill="#000000" points="1528.2085,239.2884,1532.2799,232.861,1527.7244,231.6954,1528.2085,239.2884" style="stroke:#000000;stroke-width:0.8000000000000002;"/><text fill="#000000" font-family="sans-serif" font-size="10.4" lengthAdjust="spacing" textLength="16.8" x="1536.4" y="239.7195">is a</text><text fill="#000000" font-family="sans-serif" font-size="10.4" lengthAdjust="spacing" textLength="16" x="1518.4724" y="198.9285">0..*</text><text fill="#000000" font-family="sans-serif" font-size="10.4" lengthAdjust="spacing" textLength="5.6" x="1491.4241" y="332.3761">1</text></g><!--link LargeSizedPark to GreenSpace--><g id="link_LargeSizedPark_GreenSpace"><path codeLine="65" d="M1622.68,181.8009 C1596.672,216.6489 1529.592,306.5369 1503.656,341.2889 " fill="none" id="LargeSizedPark-GreenSpace" style="stroke:#181818;stroke-width:0.8000000000000002;"/><polygon fill="#000000" points="1589.2076,238.619,1595.4197,234.226,1591.6512,231.4136,1589.2076,238.619" style="stroke:#000000;stroke-width:0.8000000000000002;"/><text fill="#000000" font-family="sans-serif" font-size="10.4" lengthAdjust="spacing" textLength="16.8" x="1598.8" y="239.7195">is a</text><text fill="#000000" font-family="sans-serif" font-size="10.4" lengthAdjust="spacing" textLength="16" x="1601.7028" y="198.9285">0..*</text><text fill="#000000" font-family="sans-serif" font-size="10.4" lengthAdjust="spacing" textLength="5.6" x="1500.4007" y="332.3761">1</text></g><!--link Collaborator to Job--><g id="link_Collaborator_Job"><path codeLine="66" d="M631.296,541.3209 C596.232,536.0329 543.176,521.9449 518,484.4969 C498.36,455.2809 508.144,413.5289 518.512,385.8329 " fill="none" id="Collaborator-Job" style="stroke:#181818;stroke-width:0.8000000000000002;"/><polygon fill="#000000" points="519.6514,473.7754,521.9969,481.0133,525.8033,478.2523,519.6514,473.7754" style="stroke:#000000;stroke-width:0.8000000000000002;"/><text fill="#000000" font-family="sans-serif" font-size="10.4" lengthAdjust="spacing" textLength="16.8" x="529.2" y="481.3195">has</text><text fill="#000000" font-family="sans-serif" font-size="10.4" lengthAdjust="spacing" textLength="16" x="609.1414" y="537.3494">0..*</text><text fill="#000000" font-family="sans-serif" font-size="10.4" lengthAdjust="spacing" textLength="5.6" x="510.2806" y="403.1351">1</text></g><!--link Job to Collaborator--><g id="link_Job_Collaborator"><path codeLine="75" d="M537.008,385.7049 C543.32,413.3049 555.944,454.9929 578.8,484.4969 C592.776,502.5449 613.704,517.2729 631.464,527.6169 " fill="none" id="Job-Collaborator" style="stroke:#181818;stroke-width:0.8000000000000002;"/><polygon fill="#000000" points="585.0163,480.3431,582.9642,473.0167,579.0497,475.6221,585.0163,480.3431" style="stroke:#000000;stroke-width:0.8000000000000002;"/><text fill="#000000" font-family="sans-serif" font-size="10.4" lengthAdjust="spacing" textLength="53.6" x="590" y="481.3195">assigned to</text><text fill="#000000" font-family="sans-serif" font-size="10.4" lengthAdjust="spacing" textLength="5.6" x="531.8563" y="403.2146">1</text><text fill="#000000" font-family="sans-serif" font-size="10.4" lengthAdjust="spacing" textLength="16" x="609.0732" y="521.4792">0..*</text></g><!--link Collaborator to Skill--><g id="link_Collaborator_Skill"><path codeLine="67" d="M699.136,571.6409 C710.552,581.4729 722.64,593.4009 731.6,606.0969 C739.912,617.8729 746.552,632.2089 751.536,645.1849 " fill="none" id="Collaborator-Skill" style="stroke:#181818;stroke-width:0.8000000000000002;"/><polygon fill="#000000" points="746.7211,617.071,744.437,609.8135,740.6074,612.5421,746.7211,617.071" style="stroke:#000000;stroke-width:0.8000000000000002;"/><text fill="#000000" font-family="sans-serif" font-size="10.4" lengthAdjust="spacing" textLength="16.8" x="751.6" y="618.1195">has</text><text fill="#000000" font-family="sans-serif" font-size="10.4" lengthAdjust="spacing" textLength="16" x="705.2954" y="572.1227">0..*</text><text fill="#000000" font-family="sans-serif" font-size="10.4" lengthAdjust="spacing" textLength="5.6" x="743.8704" y="636.376">1</text></g><!--link Skill to Collaborator--><g id="link_Skill_Collaborator"><path codeLine="76" d="M730.368,672.1129 C706.136,663.3529 674.688,647.5209 659.6,621.2969 C652.944,609.7209 652.48,595.4329 654.328,582.4329 " fill="none" id="Skill-Collaborator" style="stroke:#181818;stroke-width:0.8000000000000002;"/><polygon fill="#000000" points="661.0131,610.7624,663.8995,617.802,667.4861,614.761,661.0131,610.7624" style="stroke:#000000;stroke-width:0.8000000000000002;"/><text fill="#000000" font-family="sans-serif" font-size="10.4" lengthAdjust="spacing" textLength="53.6" x="670.8" y="618.1195">assigned to</text><text fill="#000000" font-family="sans-serif" font-size="10.4" lengthAdjust="spacing" textLength="5.6" x="718.4923" y="666.7321">1</text><text fill="#000000" font-family="sans-serif" font-size="10.4" lengthAdjust="spacing" textLength="16" x="635.5562" y="600.0973">0..*</text></g><!--link FleetManager to Organization--><g id="link_FleetManager_Organization"><path codeLine="68" d="M303.744,173.0489 C357.72,180.5849 460.112,194.4329 547.6,203.6969 C674.272,217.1129 710.2,194.5849 833.2,227.6969 C930.456,253.8729 1035.552,313.9289 1080.44,341.2729 " fill="none" id="FleetManager-Organization" style="stroke:#181818;stroke-width:0.8000000000000002;"/><polygon fill="#000000" points="887.5094,236.26,880.935,232.4304,879.9396,237.0261,887.5094,236.26" style="stroke:#000000;stroke-width:0.8000000000000002;"/><text fill="#000000" font-family="sans-serif" font-size="10.4" lengthAdjust="spacing" textLength="42.4" x="890.8" y="239.7195">manages</text><text fill="#000000" font-family="sans-serif" font-size="10.4" lengthAdjust="spacing" textLength="5.6" x="309.9523" y="170.5605">1</text><text fill="#000000" font-family="sans-serif" font-size="10.4" lengthAdjust="spacing" textLength="5.6" x="1067.1348" y="332.3552">1</text></g><!--link HumanResourcesManager to Organization--><g id="link_HumanResourcesManager_Organization"><path codeLine="69" d="M700.584,179.5209 C793.2,195.3449 946.456,222.0969 958,227.6969 C1016.328,256.0089 1069.208,314.4169 1091.552,341.2569 " fill="none" id="HumanResourcesManager-Organization" style="stroke:#181818;stroke-width:0.8000000000000002;"/><polygon fill="#000000" points="988.0962,236.9423,982.3085,232.0037,980.5109,236.3488,988.0962,236.9423" style="stroke:#000000;stroke-width:0.8000000000000002;"/><text fill="#000000" font-family="sans-serif" font-size="10.4" lengthAdjust="spacing" textLength="42.4" x="991.6" y="239.7195">manages</text><text fill="#000000" font-family="sans-serif" font-size="10.4" lengthAdjust="spacing" textLength="5.6" x="706.8217" y="192.4061">1</text><text fill="#000000" font-family="sans-serif" font-size="10.4" lengthAdjust="spacing" textLength="5.6" x="1081.6498" y="332.3343">1</text></g><!--link GreenSpaceManager to Organization--><g id="link_GreenSpaceManager_Organization"><path codeLine="70" d="M1082.824,181.8009 C1086.84,216.6489 1097.184,306.5369 1101.184,341.2889 " fill="none" id="GreenSpaceManager-Organization" style="stroke:#181818;stroke-width:0.8000000000000002;"/><polygon fill="#000000" points="1093.6575,239.387,1095.1656,231.9296,1090.4942,232.4673,1093.6575,239.387" style="stroke:#000000;stroke-width:0.8000000000000002;"/><text fill="#000000" font-family="sans-serif" font-size="10.4" lengthAdjust="spacing" textLength="42.4" x="1100.4" y="239.7195">manages</text><text fill="#000000" font-family="sans-serif" font-size="10.4" lengthAdjust="spacing" textLength="5.6" x="1076.908" y="198.9285">1</text><text fill="#000000" font-family="sans-serif" font-size="10.4" lengthAdjust="spacing" textLength="5.6" x="1094.2316" y="332.3761">1</text></g><!--link GreenSpaceUser to Organization--><g id="link_GreenSpaceUser_Organization"><path codeLine="71" d="M1204.16,181.8009 C1183.8,216.6489 1131.288,306.5369 1110.984,341.2889 " fill="none" id="GreenSpaceUser-Organization" style="stroke:#181818;stroke-width:0.8000000000000002;"/><polygon fill="#000000" points="1178.3822,238.8671,1184.0625,233.8051,1180.0023,231.4331,1178.3822,238.8671" style="stroke:#000000;stroke-width:0.8000000000000002;"/><text fill="#000000" font-family="sans-serif" font-size="10.4" lengthAdjust="spacing" textLength="42.4" x="1187.6" y="239.7195">manages</text><text fill="#000000" font-family="sans-serif" font-size="10.4" lengthAdjust="spacing" textLength="5.6" x="1195.593" y="198.9285">1</text><text fill="#000000" font-family="sans-serif" font-size="10.4" lengthAdjust="spacing" textLength="5.6" x="1107.0329" y="332.3761">1</text></g><!--link HumanResourcesManager to Job--><g id="link_HumanResourcesManager_Job"><path codeLine="72" d="M560.968,179.2409 C532.76,187.7049 502.928,202.3529 486,227.6969 C465.544,258.3129 487.144,299.1769 507.024,326.3289 " fill="none" id="HumanResourcesManager-Job" style="stroke:#181818;stroke-width:0.8000000000000002;"/><polygon fill="#000000" points="488.6227,239.1687,493.3216,233.1846,488.9069,231.5655,488.6227,239.1687" style="stroke:#000000;stroke-width:0.8000000000000002;"/><text fill="#000000" font-family="sans-serif" font-size="10.4" lengthAdjust="spacing" textLength="33.6" x="497.2" y="239.7195">selects</text><text fill="#000000" font-family="sans-serif" font-size="10.4" lengthAdjust="spacing" textLength="5.6" x="549.1262" y="177.3333">1</text><text fill="#000000" font-family="sans-serif" font-size="10.4" lengthAdjust="spacing" textLength="5.6" x="496.5477" y="317.4683">1</text></g><!--link HumanResourcesManager to Job--><g id="link_HumanResourcesManager_Job"><path codeLine="74" d="M582.84,203.8649 C575.568,211.0969 568.776,219.1289 563.6,227.6969 C545.104,258.2809 537.264,299.1609 533.96,326.3129 " fill="none" id="HumanResourcesManager-Job-1" style="stroke:#181818;stroke-width:0.8000000000000002;"/><polygon fill="#000000" points="566.117,239.1282,570.9833,233.2795,566.6162,231.5362,566.117,239.1282" style="stroke:#000000;stroke-width:0.8000000000000002;"/><text fill="#000000" font-family="sans-serif" font-size="10.4" lengthAdjust="spacing" textLength="34.4" x="574.8" y="239.7195">register</text><text fill="#000000" font-family="sans-serif" font-size="10.4" lengthAdjust="spacing" textLength="5.6" x="569.4674" y="221.7777">1</text><text fill="#000000" font-family="sans-serif" font-size="10.4" lengthAdjust="spacing" textLength="5.6" x="528.2816" y="317.4495">1</text></g><!--link HumanResourcesManager to Skill--><g id="link_HumanResourcesManager_Skill"><path codeLine="73" d="M700.704,179.9529 C783.928,194.8649 912.632,219.1289 919.6,227.6969 C1025.688,358.0969 867.176,564.6809 795.232,646.3849 " fill="none" id="HumanResourcesManager-Skill" style="stroke:#181818;stroke-width:0.8000000000000002;"/><polygon fill="#000000" points="920.3945,480.9336,921.2615,473.3747,916.6529,474.3087,920.3945,480.9336" style="stroke:#000000;stroke-width:0.8000000000000002;"/><text fill="#000000" font-family="sans-serif" font-size="10.4" lengthAdjust="spacing" textLength="33.6" x="926.8" y="481.3195">selects</text><text fill="#000000" font-family="sans-serif" font-size="10.4" lengthAdjust="spacing" textLength="5.6" x="706.7248" y="178.0872">1</text><text fill="#000000" font-family="sans-serif" font-size="10.4" lengthAdjust="spacing" textLength="5.6" x="801.5077" y="636.4213">1</text></g><!--link HumanResourcesManager to Skill--><g id="link_HumanResourcesManager_Skill"><path codeLine="78" d="M561.096,176.8889 C529.12,184.8729 493.824,199.8009 473.2,227.6969 C405.224,319.6569 405.016,382.7449 457.2,484.4969 C513.856,594.9769 663.936,651.8809 730.376,672.3049 " fill="none" id="HumanResourcesManager-Skill-1" style="stroke:#181818;stroke-width:0.8000000000000002;"/><polygon fill="#000000" points="462.4934,480.7984,462.3785,473.1908,457.9288,474.7113,462.4934,480.7984" style="stroke:#000000;stroke-width:0.8000000000000002;"/><text fill="#000000" font-family="sans-serif" font-size="10.4" lengthAdjust="spacing" textLength="34.4" x="468.4" y="481.3195">register</text><text fill="#000000" font-family="sans-serif" font-size="10.4" lengthAdjust="spacing" textLength="5.6" x="549.2652" y="189.5479">1</text><text fill="#000000" font-family="sans-serif" font-size="10.4" lengthAdjust="spacing" textLength="16" x="707.9334" y="683.0384">0..*</text></g><!--link HumanResourcesManager to Collaborator--><g id="link_HumanResourcesManager_Collaborator"><path codeLine="77" d="M630.984,203.7849 C631.632,256.8809 634.336,359.1129 645.2,445.2969 C647.856,466.3849 652.472,489.7049 656.6,508.4249 " fill="none" id="HumanResourcesManager-Collaborator" style="stroke:#181818;stroke-width:0.8000000000000002;"/><polygon fill="#000000" points="649.5352,360.1992,651.2717,352.7916,646.586,353.1856,649.5352,360.1992" style="stroke:#000000;stroke-width:0.8000000000000002;"/><text fill="#000000" font-family="sans-serif" font-size="10.4" lengthAdjust="spacing" textLength="34.4" x="656.4" y="360.5195">register</text><text fill="#000000" font-family="sans-serif" font-size="10.4" lengthAdjust="spacing" textLength="5.6" x="624.9834" y="221.6854">1</text><text fill="#000000" font-family="sans-serif" font-size="10.4" lengthAdjust="spacing" textLength="16" x="638.1619" y="499.6218">0..*</text></g><!--link HumanResourcesManager to Team--><g id="link_HumanResourcesManager_Team"><path codeLine="79" d="M650.936,203.8569 C661.088,222.5049 673.384,245.7209 683.6,266.8969 C696.032,292.6649 708.992,323.4569 716.224,341.0569 " fill="none" id="HumanResourcesManager-Team" style="stroke:#181818;stroke-width:0.8000000000000002;"/><polygon fill="#000000" points="676.5188,239.0252,675.5325,231.4809,671.2865,233.5015,676.5188,239.0252" style="stroke:#000000;stroke-width:0.8000000000000002;"/><text fill="#000000" font-family="sans-serif" font-size="10.4" lengthAdjust="spacing" textLength="45.6" x="682" y="239.7195">generates</text><text fill="#000000" font-family="sans-serif" font-size="10.4" lengthAdjust="spacing" textLength="5.6" x="647.9906" y="221.7684">1</text><text fill="#000000" font-family="sans-serif" font-size="10.4" lengthAdjust="spacing" textLength="5.6" x="708.1048" y="332.3427">1</text></g><!--link FleetManager to Vehicle--><g id="link_FleetManager_Vehicle"><path codeLine="80" d="M228.192,196.2089 C217.712,205.4249 206.976,216.2409 198.8,227.6969 C190.288,239.6249 182.784,253.1209 176.304,266.7449 " fill="none" id="FleetManager-Vehicle" style="stroke:#181818;stroke-width:0.8000000000000002;"/><polygon fill="#000000" points="200.4297,238.6354,206.6115,234.1998,202.8237,231.4134,200.4297,238.6354" style="stroke:#000000;stroke-width:0.8000000000000002;"/><text fill="#000000" font-family="sans-serif" font-size="10.4" lengthAdjust="spacing" textLength="34.4" x="210" y="239.7195">register</text><text fill="#000000" font-family="sans-serif" font-size="10.4" lengthAdjust="spacing" textLength="5.6" x="216.3739" y="197.2668">1</text><text fill="#000000" font-family="sans-serif" font-size="10.4" lengthAdjust="spacing" textLength="16" x="161.8563" y="257.9197">0..*</text></g><!--link FleetManager to Equipment--><g id="link_FleetManager_Equipment"><path codeLine="81" d="M286.056,203.8649 C309.192,245.6089 346.104,312.2009 362.144,341.1209 " fill="none" id="FleetManager-Equipment" style="stroke:#181818;stroke-width:0.8000000000000002;"/><polygon fill="#000000" points="311.1394,238.9117,309.6873,231.4431,305.5747,233.7229,311.1394,238.9117" style="stroke:#000000;stroke-width:0.8000000000000002;"/><text fill="#000000" font-family="sans-serif" font-size="10.4" lengthAdjust="spacing" textLength="42.4" x="316.4" y="239.7195">manages</text><text fill="#000000" font-family="sans-serif" font-size="10.4" lengthAdjust="spacing" textLength="5.6" x="283.0983" y="221.7777">1</text><text fill="#000000" font-family="sans-serif" font-size="10.4" lengthAdjust="spacing" textLength="16" x="341.2881" y="332.1567">0..*</text></g><!--link FleetManager to Machine--><g id="link_FleetManager_Machine"><path codeLine="82" d="M228.136,176.8809 C183.368,189.6569 109.552,217.0409 66.8,266.8969 C47.8,289.0489 37.208,322.2249 32.408,341.0009 " fill="none" id="FleetManager-Machine" style="stroke:#181818;stroke-width:0.8000000000000002;"/><polygon fill="#000000" points="113.3349,237.9834,120.3904,235.1356,117.369,231.5324,113.3349,237.9834" style="stroke:#000000;stroke-width:0.8000000000000002;"/><text fill="#000000" font-family="sans-serif" font-size="10.4" lengthAdjust="spacing" textLength="42.4" x="123.6" y="239.7195">manages</text><text fill="#000000" font-family="sans-serif" font-size="10.4" lengthAdjust="spacing" textLength="5.6" x="216.3093" y="174.9792">1</text><text fill="#000000" font-family="sans-serif" font-size="10.4" lengthAdjust="spacing" textLength="16" x="15.0004" y="332.2703">0..*</text></g><!--link FleetManager to CheckUp--><g id="link_FleetManager_CheckUp"><path codeLine="83" d="M265.48,203.8809 C264.088,263.0489 259,383.9849 240.4,484.4969 C238.96,492.2889 236.904,500.5129 234.712,508.2969 " fill="none" id="FleetManager-CheckUp" style="stroke:#181818;stroke-width:0.8000000000000002;"/><polygon fill="#000000" points="266.3978,360.193,269.4646,353.23,264.7862,352.7572,266.3978,360.193" style="stroke:#000000;stroke-width:0.8000000000000002;"/><text fill="#000000" font-family="sans-serif" font-size="10.4" lengthAdjust="spacing" textLength="34.4" x="274" y="360.5195">register</text><text fill="#000000" font-family="sans-serif" font-size="10.4" lengthAdjust="spacing" textLength="5.6" x="259.3716" y="221.7961">1</text><text fill="#000000" font-family="sans-serif" font-size="10.4" lengthAdjust="spacing" textLength="16" x="219.2866" y="499.475">0..*</text></g><!--link Vehicle to CheckUp--><g id="link_Vehicle_CheckUp"><path codeLine="84" d="M181.84,445.4809 C191.064,467.7689 200.448,490.4649 207.904,508.4889 " fill="none" id="Vehicle-CheckUp" style="stroke:#181818;stroke-width:0.8000000000000002;"/><polygon fill="#000000" points="203.529,480.7095,202.9356,473.1242,198.5904,474.9217,203.529,480.7095" style="stroke:#000000;stroke-width:0.8000000000000002;"/><text fill="#000000" font-family="sans-serif" font-size="10.4" lengthAdjust="spacing" textLength="24" x="209.2" y="481.3195">owns</text><text fill="#000000" font-family="sans-serif" font-size="10.4" lengthAdjust="spacing" textLength="5.6" x="178.4079" y="462.8771">1</text><text fill="#000000" font-family="sans-serif" font-size="10.4" lengthAdjust="spacing" textLength="4" x="201.3168" y="499.4222">*</text></g><!--link Team to Collaborator--><g id="link_Team_Collaborator"><path codeLine="85" d="M718.272,371.1369 C712.024,394.8009 698.832,443.6489 686,484.4969 C683.552,492.2809 680.784,500.5769 678.08,508.4409 " fill="none" id="Team-Collaborator" style="stroke:#181818;stroke-width:0.8000000000000002;"/><polygon fill="#000000" points="692.8763,480.8522,697.1656,474.5681,692.6527,473.247,692.8763,480.8522" style="stroke:#000000;stroke-width:0.8000000000000002;"/><text fill="#000000" font-family="sans-serif" font-size="10.4" lengthAdjust="spacing" textLength="24" x="701.2" y="481.3195">owns</text><text fill="#000000" font-family="sans-serif" font-size="10.4" lengthAdjust="spacing" textLength="5.6" x="710.9176" y="388.301">1</text><text fill="#000000" font-family="sans-serif" font-size="10.4" lengthAdjust="spacing" textLength="4" x="675.746" y="499.3669">*</text></g><!--link Task to Skill--><g id="link_Task_Skill"><path codeLine="86" d="M883.312,173.2569 C903.288,181.6089 937.888,199.4889 952.4,227.6969 C1032.84,384.0089 1024.848,485.4969 913.2,621.2969 C883.832,657.0169 830.104,671.6089 795.448,677.4729 " fill="none" id="Task-Skill" style="stroke:#181818;stroke-width:0.8000000000000002;"/><polygon fill="#000000" points="1000.5133,480.9539,1004.0718,474.2289,999.4393,473.4216,1000.5133,480.9539" style="stroke:#000000;stroke-width:0.8000000000000002;"/><text fill="#000000" font-family="sans-serif" font-size="10.4" lengthAdjust="spacing" textLength="22.4" x="1008.4" y="481.3195">need</text><text fill="#000000" font-family="sans-serif" font-size="10.4" lengthAdjust="spacing" textLength="5.6" x="889.6219" y="170.8182">1</text><text fill="#000000" font-family="sans-serif" font-size="10.4" lengthAdjust="spacing" textLength="4" x="801.6197" y="673.0469">*</text></g><!--link Agenda to Task--><g id="link_Agenda_Task"><path codeLine="87" d="M868.4,67.0009 C868.4,88.6969 868.4,130.0089 868.4,151.8089 " fill="none" id="Agenda-Task" style="stroke:#181818;stroke-width:0.8000000000000002;"/><polygon fill="#000000" points="872.4,102.6133,874.7511,95.3772,870.0489,95.3772,872.4,102.6133" style="stroke:#000000;stroke-width:0.8000000000000002;"/><text fill="#000000" font-family="sans-serif" font-size="10.4" lengthAdjust="spacing" textLength="16.8" x="879.6" y="102.9195">has</text><text fill="#000000" font-family="sans-serif" font-size="10.4" lengthAdjust="spacing" textLength="5.6" x="862.0475" y="84.1285">1</text><text fill="#000000" font-family="sans-serif" font-size="10.4" lengthAdjust="spacing" textLength="4" x="863.8125" y="143.0806">*</text></g><!--link Task to Team--><g id="link_Task_Team"><path codeLine="88" d="M853.368,172.4729 C830.824,180.3769 788.376,198.2969 764.4,227.6969 C736.368,262.0649 726.592,315.7049 723.408,341.0809 " fill="none" id="Task-Team" style="stroke:#181818;stroke-width:0.8000000000000002;"/><polygon fill="#000000" points="765.9581,238.5814,772.2377,234.2855,768.5134,231.4149,765.9581,238.5814" style="stroke:#000000;stroke-width:0.8000000000000002;"/><text fill="#000000" font-family="sans-serif" font-size="10.4" lengthAdjust="spacing" textLength="53.6" x="775.6" y="239.7195">assigned to</text><text fill="#000000" font-family="sans-serif" font-size="10.4" lengthAdjust="spacing" textLength="5.6" x="841.6383" y="169.7669">1</text><text fill="#000000" font-family="sans-serif" font-size="10.4" lengthAdjust="spacing" textLength="4" x="719.2341" y="332.3738">*</text></g><!--SRC=[hLHDZzCm4BtdLrWz8krgkVQmKcdPia04skp2UUeCYHN7peuThRg8_uxjn6rIbP0YSea_tfjvVZEsgOHgWA1cjLQQbwHhP9PQJCnXfm5UGO6PtKjaXDo2AkGGO4h8zOjG1Vi1qc0osE8IZ5bPIsBNMhpdMcNY5TbDKeeS6HV4NQGmhj6MEZT9OeLrUJQw1g5OgdEKIHB2i8zwntucp7qAQWo370qdqLYXLV8huh9AI3c5z7CE5WjD-oFj6vR2oUc9zvlmUqUWyZ3gfFZHuxxfOZu2uNSKHMd3T4lQcC5ytHAXif_IB4mVi1368crSvh2mui-jCC9BEgobxjGM5IYETuJFBIeU9FOQroNowgdfDPuaw2Ntc13oSBYrbX9sci1gEhK6dTNToOntBZcoxYIYJK6vylUiI3fmcbAhGPuFRGtg0OrkYQEPIKrRK-YitKdXkcznSttzPi6khjZYxO9zeGAKU0Ll4bioOHYmsod2bX1LvdeM7RmE-OrdO2xQsZTV_XMecYBrERP0EQePmCz0xdPS47bKYp7Sj_YIbM2cOLs7H-2eIdxxl7T7CyuNQGxpU9n_OpsP_oMnSygWT0-IONCOqRHBE5qMwc-kf_YL2EXgCghJahbR80g5ERFQmRka5n2c9PqDS90tZnrzc4rplqTqZ_cI5QZGPSK_TbsN8RwaenmJ-FVk7MngzvADMc22a08lXSA_m0zszO_cI4xK60EFSFf5-P3Xr4F0sFU80bCDKT5VXQwcjydAcPR34108yVAUidkdnqtn6m00]--></g></svg>