<?xml version="1.0" encoding="us-ascii" standalone="no"?><svg xmlns="http://www.w3.org/2000/svg" xmlns:xlink="http://www.w3.org/1999/xlink" contentStyleType="text/css" height="1543px" preserveAspectRatio="none" style="width:1197px;height:1543px;background:#FFFFFF;" version="1.1" viewBox="0 0 1197 1543" width="1197px" zoomAndPan="magnify"><defs/><g><text fill="#000000" font-family="sans-serif" font-size="14" font-weight="bold" lengthAdjust="spacing" textLength="100" x="541.795" y="25.1074">Domain Model</text><!--class MusgoSublime--><g id="elem_MusgoSublime"><rect codeLine="11" fill="#F1F1F1" height="36.6211" id="MusgoSublime" rx="2.5" ry="2.5" style="stroke:#181818;stroke-width:0.5;" width="98" x="703.59" y="46.6211"/><text fill="#000000" font-family="sans-serif" font-size="14" lengthAdjust="spacing" textLength="92" x="706.59" y="66.7285">MusgoSublime</text><line style="stroke:#181818;stroke-width:0.5;" x1="704.59" x2="800.59" y1="75.2422" y2="75.2422"/></g><!--class MediumSizedPark--><g id="elem_MediumSizedPark"><rect codeLine="13" fill="#F1F1F1" height="36.6211" id="MediumSizedPark" rx="2.5" ry="2.5" style="stroke:#181818;stroke-width:0.5;" width="118" x="842.59" y="46.6211"/><text fill="#000000" font-family="sans-serif" font-size="14" lengthAdjust="spacing" textLength="112" x="845.59" y="66.7285">MediumSizedPark</text><line style="stroke:#181818;stroke-width:0.5;" x1="843.59" x2="959.59" y1="75.2422" y2="75.2422"/></g><!--class LargeSizedPark--><g id="elem_LargeSizedPark"><rect codeLine="15" fill="#F1F1F1" height="36.6211" id="LargeSizedPark" rx="2.5" ry="2.5" style="stroke:#181818;stroke-width:0.5;" width="106" x="995.59" y="46.6211"/><text fill="#000000" font-family="sans-serif" font-size="14" lengthAdjust="spacing" textLength="100" x="998.59" y="66.7285">LargeSizedPark</text><line style="stroke:#181818;stroke-width:0.5;" x1="996.59" x2="1100.59" y1="75.2422" y2="75.2422"/></g><!--class Garden--><g id="elem_Garden"><rect codeLine="17" fill="#F1F1F1" height="36.6211" id="Garden" rx="2.5" ry="2.5" style="stroke:#181818;stroke-width:0.5;" width="54" x="1136.59" y="46.6211"/><text fill="#000000" font-family="sans-serif" font-size="14" lengthAdjust="spacing" textLength="48" x="1139.59" y="66.7285">Garden</text><line style="stroke:#181818;stroke-width:0.5;" x1="1137.59" x2="1189.59" y1="75.2422" y2="75.2422"/></g><!--class GreenSpace--><g id="elem_GreenSpace"><rect codeLine="19" fill="#F1F1F1" height="36.6211" id="GreenSpace" rx="2.5" ry="2.5" style="stroke:#181818;stroke-width:0.5;" width="86" x="934.59" y="162.6211"/><text fill="#000000" font-family="sans-serif" font-size="14" lengthAdjust="spacing" textLength="80" x="937.59" y="182.7285">GreenSpace</text><line style="stroke:#181818;stroke-width:0.5;" x1="935.59" x2="1019.59" y1="191.2422" y2="191.2422"/></g><!--class Organization--><g id="elem_Organization"><rect codeLine="22" fill="#F1F1F1" height="36.6211" id="Organization" rx="2.5" ry="2.5" style="stroke:#181818;stroke-width:0.5;" width="86" x="698.59" y="340.6211"/><text fill="#000000" font-family="sans-serif" font-size="14" lengthAdjust="spacing" textLength="80" x="701.59" y="360.7285">Organization</text><line style="stroke:#181818;stroke-width:0.5;" x1="699.59" x2="783.59" y1="369.2422" y2="369.2422"/></g><!--class FleetManager--><g id="elem_FleetManager"><rect codeLine="25" fill="#F1F1F1" height="36.6211" id="FleetManager" rx="2.5" ry="2.5" style="stroke:#181818;stroke-width:0.5;" width="94" x="390.59" y="456.6211"/><text fill="#000000" font-family="sans-serif" font-size="14" lengthAdjust="spacing" textLength="88" x="393.59" y="476.7285">FleetManager</text><line style="stroke:#181818;stroke-width:0.5;" x1="391.59" x2="483.59" y1="485.2422" y2="485.2422"/></g><!--class HumanResourcesManager--><g id="elem_HumanResourcesManager"><rect codeLine="27" fill="#F1F1F1" height="55.2422" id="HumanResourcesManager" rx="2.5" ry="2.5" style="stroke:#181818;stroke-width:0.5;" width="174" x="511.59" y="893.1211"/><text fill="#000000" font-family="sans-serif" font-size="14" lengthAdjust="spacing" textLength="168" x="514.59" y="913.2285">HumanResourcesManager</text><line style="stroke:#181818;stroke-width:0.5;" x1="512.59" x2="684.59" y1="921.7422" y2="921.7422"/><text fill="#000000" font-family="sans-serif" font-size="14" lengthAdjust="spacing" textLength="35" x="517.59" y="940.8496">name</text></g><!--class GreenSpaceManager--><g id="elem_GreenSpaceManager"><rect codeLine="30" fill="#F1F1F1" height="36.6211" id="GreenSpaceManager" rx="2.5" ry="2.5" style="stroke:#181818;stroke-width:0.5;" width="142" x="821.59" y="456.6211"/><text fill="#000000" font-family="sans-serif" font-size="14" lengthAdjust="spacing" textLength="136" x="824.59" y="476.7285">GreenSpaceManager</text><line style="stroke:#181818;stroke-width:0.5;" x1="822.59" x2="962.59" y1="485.2422" y2="485.2422"/></g><!--class GreenSpaceUser--><g id="elem_GreenSpaceUser"><rect codeLine="32" fill="#F1F1F1" height="36.6211" id="GreenSpaceUser" rx="2.5" ry="2.5" style="stroke:#181818;stroke-width:0.5;" width="115" x="999.09" y="456.6211"/><text fill="#000000" font-family="sans-serif" font-size="14" lengthAdjust="spacing" textLength="109" x="1002.09" y="476.7285">GreenSpaceUser</text><line style="stroke:#181818;stroke-width:0.5;" x1="1000.09" x2="1113.09" y1="485.2422" y2="485.2422"/></g><!--class Equipment--><g id="elem_Equipment"><rect codeLine="35" fill="#F1F1F1" height="36.6211" id="Equipment" rx="2.5" ry="2.5" style="stroke:#181818;stroke-width:0.5;" width="73" x="405.09" y="665.6211"/><text fill="#000000" font-family="sans-serif" font-size="14" lengthAdjust="spacing" textLength="67" x="408.09" y="685.7285">Equipment</text><line style="stroke:#181818;stroke-width:0.5;" x1="406.09" x2="477.09" y1="694.2422" y2="694.2422"/></g><!--class Machine--><g id="elem_Machine"><rect codeLine="37" fill="#F1F1F1" height="36.6211" id="Machine" rx="2.5" ry="2.5" style="stroke:#181818;stroke-width:0.5;" width="59" x="516.09" y="665.6211"/><text fill="#000000" font-family="sans-serif" font-size="14" lengthAdjust="spacing" textLength="53" x="519.09" y="685.7285">Machine</text><line style="stroke:#181818;stroke-width:0.5;" x1="517.09" x2="574.09" y1="694.2422" y2="694.2422"/></g><!--class Vehicle--><g id="elem_Vehicle"><rect codeLine="39" fill="#F1F1F1" height="222.832" id="Vehicle" rx="2.5" ry="2.5" style="stroke:#181818;stroke-width:0.5;" width="218" x="151.59" y="572.6211"/><text fill="#000000" font-family="sans-serif" font-size="14" lengthAdjust="spacing" textLength="46" x="237.59" y="592.7285">Vehicle</text><line style="stroke:#181818;stroke-width:0.5;" x1="152.59" x2="368.59" y1="601.2422" y2="601.2422"/><text fill="#000000" font-family="sans-serif" font-size="14" lengthAdjust="spacing" textLength="37" x="157.59" y="620.3496">brand</text><text fill="#000000" font-family="sans-serif" font-size="14" lengthAdjust="spacing" textLength="38" x="157.59" y="638.9707">model</text><text fill="#000000" font-family="sans-serif" font-size="14" lengthAdjust="spacing" textLength="25" x="157.59" y="657.5918">tare</text><text fill="#000000" font-family="sans-serif" font-size="14" lengthAdjust="spacing" textLength="79" x="157.59" y="676.2129">grossWeight</text><text fill="#000000" font-family="sans-serif" font-size="14" lengthAdjust="spacing" textLength="65" x="157.59" y="694.834">currentKm</text><text fill="#000000" font-family="sans-serif" font-size="14" lengthAdjust="spacing" textLength="78" x="157.59" y="713.4551">registerDate</text><text fill="#000000" font-family="sans-serif" font-size="14" lengthAdjust="spacing" textLength="97" x="157.59" y="732.0762">acquisitionDate</text><text fill="#000000" font-family="sans-serif" font-size="14" lengthAdjust="spacing" textLength="206" x="157.59" y="750.6973">maintenanceCheckUpFrequency</text><text fill="#000000" font-family="sans-serif" font-size="14" lengthAdjust="spacing" textLength="80" x="157.59" y="769.3184">plateNumber</text><text fill="#000000" font-family="sans-serif" font-size="14" lengthAdjust="spacing" textLength="27" x="157.59" y="787.9395">type</text></g><!--class CheckUp--><g id="elem_CheckUp"><rect codeLine="51" fill="#F1F1F1" height="92.4844" id="CheckUp" rx="2.5" ry="2.5" style="stroke:#181818;stroke-width:0.5;" width="99" x="13.09" y="874.6211"/><text fill="#000000" font-family="sans-serif" font-size="14" lengthAdjust="spacing" textLength="57" x="34.09" y="894.7285">CheckUp</text><line style="stroke:#181818;stroke-width:0.5;" x1="14.09" x2="111.09" y1="903.2422" y2="903.2422"/><text fill="#000000" font-family="sans-serif" font-size="14" lengthAdjust="spacing" textLength="77" x="19.09" y="922.3496">CurrentKMS</text><text fill="#000000" font-family="sans-serif" font-size="14" lengthAdjust="spacing" textLength="13" x="19.09" y="940.9707">ID</text><text fill="#000000" font-family="sans-serif" font-size="14" lengthAdjust="spacing" textLength="87" x="19.09" y="959.5918">CheckUpDate</text></g><!--class Type--><g id="elem_Type"><rect codeLine="56" fill="#F1F1F1" height="92.4844" id="Type" rx="2.5" ry="2.5" style="stroke:#181818;stroke-width:0.5;" width="218" x="151.59" y="874.6211"/><text fill="#000000" font-family="sans-serif" font-size="14" lengthAdjust="spacing" textLength="32" x="244.59" y="894.7285">Type</text><line style="stroke:#181818;stroke-width:0.5;" x1="152.59" x2="368.59" y1="903.2422" y2="903.2422"/><text fill="#000000" font-family="sans-serif" font-size="14" lengthAdjust="spacing" textLength="126" x="157.59" y="922.3496">passengersOrMixed</text><text fill="#000000" font-family="sans-serif" font-size="14" lengthAdjust="spacing" textLength="81" x="157.59" y="940.9707">lightOrHeavy</text><text fill="#000000" font-family="sans-serif" font-size="14" lengthAdjust="spacing" textLength="206" x="157.59" y="959.5918">openBoxOrClosedVansOrTrucks</text></g><!--class Job--><g id="elem_Job"><rect codeLine="62" fill="#F1F1F1" height="55.2422" id="Job" rx="2.5" ry="2.5" style="stroke:#181818;stroke-width:0.5;" width="47" x="634.09" y="1064.1211"/><text fill="#000000" font-family="sans-serif" font-size="14" lengthAdjust="spacing" textLength="22" x="646.59" y="1084.2285">Job</text><line style="stroke:#181818;stroke-width:0.5;" x1="635.09" x2="680.09" y1="1092.7422" y2="1092.7422"/><text fill="#000000" font-family="sans-serif" font-size="14" lengthAdjust="spacing" textLength="35" x="640.09" y="1111.8496">name</text></g><!--class Collaborator--><g id="elem_Collaborator"><rect codeLine="65" fill="#F1F1F1" height="185.5898" id="Collaborator" rx="2.5" ry="2.5" style="stroke:#181818;stroke-width:0.5;" width="105" x="546.09" y="1216.6211"/><text fill="#000000" font-family="sans-serif" font-size="14" lengthAdjust="spacing" textLength="78" x="559.59" y="1236.7285">Collaborator</text><line style="stroke:#181818;stroke-width:0.5;" x1="547.09" x2="650.09" y1="1245.2422" y2="1245.2422"/><text fill="#000000" font-family="sans-serif" font-size="14" lengthAdjust="spacing" textLength="35" x="552.09" y="1264.3496">name</text><text fill="#000000" font-family="sans-serif" font-size="14" lengthAdjust="spacing" textLength="51" x="552.09" y="1282.9707">birthday</text><text fill="#000000" font-family="sans-serif" font-size="14" lengthAdjust="spacing" textLength="93" x="552.09" y="1301.5918">admissionDate</text><text fill="#000000" font-family="sans-serif" font-size="14" lengthAdjust="spacing" textLength="51" x="552.09" y="1320.2129">address</text><text fill="#000000" font-family="sans-serif" font-size="14" lengthAdjust="spacing" textLength="89" x="552.09" y="1338.834">phoneNumber</text><text fill="#000000" font-family="sans-serif" font-size="14" lengthAdjust="spacing" textLength="33" x="552.09" y="1357.4551">email</text><text fill="#000000" font-family="sans-serif" font-size="14" lengthAdjust="spacing" textLength="70" x="552.09" y="1376.0762">IDDocType</text><text fill="#000000" font-family="sans-serif" font-size="14" lengthAdjust="spacing" textLength="62" x="552.09" y="1394.6973">IDNumber</text></g><!--class Skill--><g id="elem_Skill"><rect codeLine="75" fill="#F1F1F1" height="55.2422" id="Skill" rx="2.5" ry="2.5" style="stroke:#181818;stroke-width:0.5;" width="47" x="499.09" y="1481.6211"/><text fill="#000000" font-family="sans-serif" font-size="14" lengthAdjust="spacing" textLength="25" x="510.09" y="1501.7285">Skill</text><line style="stroke:#181818;stroke-width:0.5;" x1="500.09" x2="545.09" y1="1510.2422" y2="1510.2422"/><text fill="#000000" font-family="sans-serif" font-size="14" lengthAdjust="spacing" textLength="35" x="505.09" y="1529.3496">name</text></g><!--class Team--><g id="elem_Team"><rect codeLine="78" fill="#F1F1F1" height="92.4844" id="Team" rx="2.5" ry="2.5" style="stroke:#181818;stroke-width:0.5;" width="160" x="716.59" y="1045.6211"/><text fill="#000000" font-family="sans-serif" font-size="14" lengthAdjust="spacing" textLength="36" x="778.59" y="1065.7285">Team</text><line style="stroke:#181818;stroke-width:0.5;" x1="717.59" x2="875.59" y1="1074.2422" y2="1074.2422"/><text fill="#000000" font-family="sans-serif" font-size="14" lengthAdjust="spacing" textLength="51" x="722.59" y="1093.3496">maxSize</text><text fill="#000000" font-family="sans-serif" font-size="14" lengthAdjust="spacing" textLength="148" x="722.59" y="1111.9707">numberOfCollaborators</text><text fill="#000000" font-family="sans-serif" font-size="14" lengthAdjust="spacing" textLength="79" x="722.59" y="1130.5918">skillsNeeded</text></g><!--class Agenda--><g id="elem_Agenda"><rect codeLine="84" fill="#F1F1F1" height="36.6211" id="Agenda" rx="2.5" ry="2.5" style="stroke:#181818;stroke-width:0.5;" width="55" x="823.09" y="665.6211"/><text fill="#000000" font-family="sans-serif" font-size="14" lengthAdjust="spacing" textLength="49" x="826.09" y="685.7285">Agenda</text><line style="stroke:#181818;stroke-width:0.5;" x1="824.09" x2="877.09" y1="694.2422" y2="694.2422"/></g><!--class Task--><g id="elem_Task"><rect codeLine="86" fill="#F1F1F1" height="36.6211" id="Task" rx="2.5" ry="2.5" style="stroke:#181818;stroke-width:0.5;" width="37" x="887.09" y="902.1211"/><text fill="#000000" font-family="sans-serif" font-size="14" lengthAdjust="spacing" textLength="31" x="890.09" y="922.2285">Task</text><line style="stroke:#181818;stroke-width:0.5;" x1="888.09" x2="923.09" y1="930.7422" y2="930.7422"/></g><!--link MusgoSublime to Organization--><g id="link_MusgoSublime_Organization"><path codeLine="89" d="M751.92,83.9511 C749.95,136.2011 744.21,288.5711 742.25,340.5311 " fill="none" id="MusgoSublime-Organization" style="stroke:#181818;stroke-width:1.0;"/><polygon fill="#000000" points="751.4017,244.2631,754.6792,235.3351,748.8055,235.1137,751.4017,244.2631" style="stroke:#000000;stroke-width:1.0;"/><text fill="#000000" font-family="sans-serif" font-size="13" lengthAdjust="spacing" textLength="21" x="760.59" y="244.6494">is a</text><text fill="#000000" font-family="sans-serif" font-size="13" lengthAdjust="spacing" textLength="7" x="743.7993" y="105.4144">1</text><text fill="#000000" font-family="sans-serif" font-size="13" lengthAdjust="spacing" textLength="7" x="734.3803" y="329.3657">1</text></g><!--link MusgoSublime to GreenSpace--><g id="link_MusgoSublime_GreenSpace"><path codeLine="90" d="M778.24,83.8211 C799.47,98.0411 830.72,117.9811 859.59,132.6211 C883.72,144.8611 911.77,156.2611 934.47,164.8211 " fill="none" id="MusgoSublime-GreenSpace" style="stroke:#181818;stroke-width:1.0;"/><polygon fill="#000000" points="869.0289,125.568,862.3516,118.7956,859.6461,124.0138,869.0289,125.568" style="stroke:#000000;stroke-width:1.0;"/><text fill="#000000" font-family="sans-serif" font-size="13" lengthAdjust="spacing" textLength="53" x="873.59" y="128.6494">manages</text><text fill="#000000" font-family="sans-serif" font-size="13" lengthAdjust="spacing" textLength="7" x="777.1928" y="105.2494">1</text><text fill="#000000" font-family="sans-serif" font-size="13" lengthAdjust="spacing" textLength="20" x="906.668" y="158.2561">1..*</text></g><!--link MediumSizedPark to GreenSpace--><g id="link_MediumSizedPark_GreenSpace"><path codeLine="91" d="M913.47,83.9311 C927.74,105.3511 951.56,141.0711 965.8,162.4311 " fill="none" id="MediumSizedPark-GreenSpace" style="stroke:#181818;stroke-width:1.0;"/><polygon fill="#000000" points="951.3634,127.4269,948.7917,118.2707,943.9009,121.531,951.3634,127.4269" style="stroke:#000000;stroke-width:1.0;"/><text fill="#000000" font-family="sans-serif" font-size="13" lengthAdjust="spacing" textLength="21" x="957.59" y="128.6494">is a</text><text fill="#000000" font-family="sans-serif" font-size="13" lengthAdjust="spacing" textLength="7" x="908.7221" y="105.389">1</text><text fill="#000000" font-family="sans-serif" font-size="13" lengthAdjust="spacing" textLength="7" x="954.1174" y="151.2351">1</text></g><!--link Garden to GreenSpace--><g id="link_Garden_GreenSpace"><path codeLine="92" d="M1137.16,83.7411 C1116.5,97.3811 1086.96,116.5811 1060.59,132.6211 C1043.85,142.8011 1024.91,153.6911 1009.35,162.4711 " fill="none" id="Garden-GreenSpace" style="stroke:#181818;stroke-width:1.0;"/><polygon fill="#000000" points="1089.3329,125.889,1098.5755,123.6473,1095.4927,118.6428,1089.3329,125.889" style="stroke:#000000;stroke-width:1.0;"/><text fill="#000000" font-family="sans-serif" font-size="13" lengthAdjust="spacing" textLength="21" x="1102.59" y="128.6494">is a</text><text fill="#000000" font-family="sans-serif" font-size="13" lengthAdjust="spacing" textLength="7" x="1121.7422" y="83.7099">1</text><text fill="#000000" font-family="sans-serif" font-size="13" lengthAdjust="spacing" textLength="7" x="1011.0046" y="151.2873">1</text></g><!--link LargeSizedPark to GreenSpace--><g id="link_LargeSizedPark_GreenSpace"><path codeLine="93" d="M1037.5,83.9311 C1024.16,105.3511 1001.91,141.0711 988.61,162.4311 " fill="none" id="LargeSizedPark-GreenSpace" style="stroke:#181818;stroke-width:1.0;"/><polygon fill="#000000" points="1018.9467,127.5108,1026.2231,121.3867,1021.2338,118.2793,1018.9467,127.5108" style="stroke:#000000;stroke-width:1.0;"/><text fill="#000000" font-family="sans-serif" font-size="13" lengthAdjust="spacing" textLength="21" x="1030.59" y="128.6494">is a</text><text fill="#000000" font-family="sans-serif" font-size="13" lengthAdjust="spacing" textLength="7" x="1026.5789" y="105.389">1</text><text fill="#000000" font-family="sans-serif" font-size="13" lengthAdjust="spacing" textLength="7" x="983.913" y="151.2351">1</text></g><!--link Organization to FleetManager--><g id="link_Organization_FleetManager"><path codeLine="94" d="M698.53,372.5011 C668.33,381.4811 627.16,394.3511 591.59,407.6211 C551.35,422.6411 506.35,442.4311 475.44,456.5011 " fill="none" id="Organization-FleetManager" style="stroke:#181818;stroke-width:1.0;"/><polygon fill="#000000" points="591.9107,419.0285,601.4112,418.5916,599.34,413.0908,591.9107,419.0285" style="stroke:#000000;stroke-width:1.0;"/><text fill="#000000" font-family="sans-serif" font-size="13" lengthAdjust="spacing" textLength="21" x="605.59" y="422.6494">has</text><text fill="#000000" font-family="sans-serif" font-size="13" lengthAdjust="spacing" textLength="7" x="683.5275" y="370.4257">1</text><text fill="#000000" font-family="sans-serif" font-size="13" lengthAdjust="spacing" textLength="7" x="478.9597" y="445.3265">1</text></g><!--link Organization to HumanResourcesManager--><g id="link_Organization_HumanResourcesManager"><path codeLine="95" d="M737.07,377.7911 C716.35,458.8711 630.31,795.5211 605.38,893.0411 " fill="none" id="Organization-HumanResourcesManager" style="stroke:#181818;stroke-width:1.0;"/><polygon fill="#000000" points="703.3519,538.1109,708.4391,530.0752,702.7443,528.6197,703.3519,538.1109" style="stroke:#000000;stroke-width:1.0;"/><text fill="#000000" font-family="sans-serif" font-size="13" lengthAdjust="spacing" textLength="21" x="713.59" y="538.6494">has</text><text fill="#000000" font-family="sans-serif" font-size="13" lengthAdjust="spacing" textLength="7" x="727.9146" y="399.2114">1</text><text fill="#000000" font-family="sans-serif" font-size="13" lengthAdjust="spacing" textLength="7" x="599.1408" y="881.7316">1</text></g><!--link Organization to GreenSpaceManager--><g id="link_Organization_GreenSpaceManager"><path codeLine="96" d="M764.85,377.6811 C793.23,399.1111 840.91,435.1111 869.3,456.5411 " fill="none" id="Organization-GreenSpaceManager" style="stroke:#181818;stroke-width:1.0;"/><polygon fill="#000000" points="835.5804,420.2794,830.1326,412.4837,826.5908,417.1747,835.5804,420.2794" style="stroke:#000000;stroke-width:1.0;"/><text fill="#000000" font-family="sans-serif" font-size="13" lengthAdjust="spacing" textLength="21" x="840.59" y="422.6494">has</text><text fill="#000000" font-family="sans-serif" font-size="13" lengthAdjust="spacing" textLength="7" x="763.4075" y="399.4142">1</text><text fill="#000000" font-family="sans-serif" font-size="13" lengthAdjust="spacing" textLength="7" x="854.0956" y="445.3787">1</text></g><!--link Organization to GreenSpaceUser--><g id="link_Organization_GreenSpaceUser"><path codeLine="97" d="M784.73,375.7311 C843.11,396.8611 946.99,434.4511 1008.04,456.5511 " fill="none" id="Organization-GreenSpaceUser" style="stroke:#181818;stroke-width:1.0;"/><polygon fill="#000000" points="928.2916,418.9682,920.7865,413.1265,918.7862,418.6535,928.2916,418.9682" style="stroke:#000000;stroke-width:1.0;"/><text fill="#000000" font-family="sans-serif" font-size="13" lengthAdjust="spacing" textLength="21" x="932.59" y="422.6494">has</text><text fill="#000000" font-family="sans-serif" font-size="13" lengthAdjust="spacing" textLength="7" x="792.4548" y="374.1581">1</text><text fill="#000000" font-family="sans-serif" font-size="13" lengthAdjust="spacing" textLength="7" x="985.0997" y="445.3918">1</text></g><!--link Organization to Agenda--><g id="link_Organization_Agenda"><path codeLine="98" d="M742.02,377.7711 C743.06,403.6911 746.59,453.3111 758.59,493.6211 C778.47,560.3911 819.71,632.7211 839.51,665.3711 " fill="none" id="Organization-Agenda" style="stroke:#181818;stroke-width:1.0;"/><polygon fill="#000000" points="765.1952,480.0019,765.0747,470.4921,759.508,472.3791,765.1952,480.0019" style="stroke:#000000;stroke-width:1.0;"/><text fill="#000000" font-family="sans-serif" font-size="13" lengthAdjust="spacing" textLength="30" x="772.59" y="480.6494">owns</text><text fill="#000000" font-family="sans-serif" font-size="13" lengthAdjust="spacing" textLength="7" x="743.0762" y="399.186">1</text><text fill="#000000" font-family="sans-serif" font-size="13" lengthAdjust="spacing" textLength="7" x="828.2271" y="654.4931">1</text></g><!--link Collaborator to Job--><g id="link_Collaborator_Job"><path codeLine="99" d="M651.21,1246.5311 C663.61,1228.3511 675.11,1207.6811 681.59,1186.6211 C688.53,1164.0811 680.7,1138.0811 672.18,1119.1511 " fill="none" id="Collaborator-Job" style="stroke:#181818;stroke-width:1.0;"/><polygon fill="#000000" points="690.4022,1172.333,686.033,1180.7806,691.8328,1181.7354,690.4022,1172.333" style="stroke:#000000;stroke-width:1.0;"/><text fill="#000000" font-family="sans-serif" font-size="13" lengthAdjust="spacing" textLength="21" x="698.59" y="1182.6494">has</text><text fill="#000000" font-family="sans-serif" font-size="13" lengthAdjust="spacing" textLength="20" x="659.2332" y="1234.4319">0..*</text><text fill="#000000" font-family="sans-serif" font-size="13" lengthAdjust="spacing" textLength="7" x="667.7446" y="1141.517">1</text></g><!--link Job to Collaborator--><g id="link_Job_Collaborator"><path codeLine="104" d="M633.84,1111.4611 C618.56,1125.1811 600.04,1145.2311 591.59,1167.6211 C585.84,1182.8711 583.54,1199.7111 583.3,1216.2911 " fill="none" id="Job-Collaborator" style="stroke:#181818;stroke-width:1.0;"/><polygon fill="#000000" points="594.4186,1181.7705,600.994,1174.8992,595.6994,1172.3466,594.4186,1181.7705" style="stroke:#000000;stroke-width:1.0;"/><text fill="#000000" font-family="sans-serif" font-size="13" lengthAdjust="spacing" textLength="67" x="605.59" y="1182.6494">assigned to</text><text fill="#000000" font-family="sans-serif" font-size="13" lengthAdjust="spacing" textLength="7" x="619.1759" y="1111.6857">1</text><text fill="#000000" font-family="sans-serif" font-size="13" lengthAdjust="spacing" textLength="20" x="582.8785" y="1205.2328">0..*</text></g><!--link Collaborator to Skill--><g id="link_Collaborator_Skill"><path codeLine="100" d="M546.02,1376.8711 C535.17,1394.0911 525.31,1413.2611 519.59,1432.6211 C514.94,1448.3511 515.55,1466.7111 517.39,1481.4011 " fill="none" id="Collaborator-Skill" style="stroke:#181818;stroke-width:1.0;"/><polygon fill="#000000" points="523.2692,1447.089,528.4931,1439.1416,522.824,1437.5888,523.2692,1447.089" style="stroke:#000000;stroke-width:1.0;"/><text fill="#000000" font-family="sans-serif" font-size="13" lengthAdjust="spacing" textLength="21" x="533.59" y="1447.6494">has</text><text fill="#000000" font-family="sans-serif" font-size="13" lengthAdjust="spacing" textLength="7" x="531.1352" y="1382.2104">1</text><text fill="#000000" font-family="sans-serif" font-size="13" lengthAdjust="spacing" textLength="20" x="518.44" y="1470.5116">1..*</text></g><!--link Skill to Collaborator--><g id="link_Skill_Collaborator"><path codeLine="105" d="M542.45,1481.5211 C548.59,1472.3811 554.95,1461.8811 559.59,1451.6211 C566.55,1436.2311 572.53,1419.3211 577.56,1402.7211 " fill="none" id="Skill-Collaborator" style="stroke:#181818;stroke-width:1.0;"/><polygon fill="#000000" points="574.6249,1437.6994,568.2592,1444.7654,573.6282,1447.1576,574.6249,1437.6994" style="stroke:#000000;stroke-width:1.0;"/><text fill="#000000" font-family="sans-serif" font-size="13" lengthAdjust="spacing" textLength="67" x="581.59" y="1447.6494">assigned to</text><text fill="#000000" font-family="sans-serif" font-size="13" lengthAdjust="spacing" textLength="7" x="547.852" y="1470.2069">1</text><text fill="#000000" font-family="sans-serif" font-size="13" lengthAdjust="spacing" textLength="20" x="555.2812" y="1424.2364">0..*</text></g><!--link HumanResourcesManager to Job--><g id="link_HumanResourcesManager_Job"><path codeLine="101" d="M592.6,948.3711 C589.5,967.6411 587.8,993.9611 595.59,1015.6211 C603.25,1036.9211 619.88,1056.4711 633.99,1070.2711 " fill="none" id="HumanResourcesManager-Job" style="stroke:#181818;stroke-width:1.0;"/><polygon fill="#000000" points="602.1976,1011.0011,602.0723,1001.4914,596.5066,1003.3812,602.1976,1011.0011" style="stroke:#000000;stroke-width:1.0;"/><text fill="#000000" font-family="sans-serif" font-size="13" lengthAdjust="spacing" textLength="42" x="609.59" y="1011.6494">selects</text><text fill="#000000" font-family="sans-serif" font-size="13" lengthAdjust="spacing" textLength="7" x="583.5241" y="970.3344">1</text><text fill="#000000" font-family="sans-serif" font-size="13" lengthAdjust="spacing" textLength="7" x="619.0294" y="1058.5381">1</text></g><!--link HumanResourcesManager to Job--><g id="link_HumanResourcesManager_Job"><path codeLine="103" d="M626.03,948.2011 C637.83,961.4911 650.32,978.5811 656.59,996.6211 C664.14,1018.3611 663.68,1044.6611 661.74,1063.9111 " fill="none" id="HumanResourcesManager-Job-1" style="stroke:#181818;stroke-width:1.0;"/><polygon fill="#000000" points="668.0645,1011.0443,668.2054,1001.5347,662.5889,1003.2681,668.0645,1011.0443" style="stroke:#000000;stroke-width:1.0;"/><text fill="#000000" font-family="sans-serif" font-size="13" lengthAdjust="spacing" textLength="43" x="675.59" y="1011.6494">register</text><text fill="#000000" font-family="sans-serif" font-size="13" lengthAdjust="spacing" textLength="7" x="624.5661" y="970.5786">1</text><text fill="#000000" font-family="sans-serif" font-size="13" lengthAdjust="spacing" textLength="20" x="640.4603" y="1053.0238">1..*</text></g><!--link HumanResourcesManager to Skill--><g id="link_HumanResourcesManager_Skill"><path codeLine="102" d="M511.33,945.1911 C481.5,956.7311 449.82,973.3211 426.59,996.6211 C368.11,1055.2611 369.38,1086.5311 352.59,1167.6211 C331.1,1271.3911 216.32,1178.2011 426.59,1451.6211 C445.1,1475.6911 477.01,1491.4911 498.93,1500.1011 " fill="none" id="HumanResourcesManager-Skill" style="stroke:#181818;stroke-width:1.0;"/><polygon fill="#000000" points="357.4783,1182.2654,360.6186,1173.2882,354.7422,1173.1569,357.4783,1182.2654" style="stroke:#000000;stroke-width:1.0;"/><text fill="#000000" font-family="sans-serif" font-size="13" lengthAdjust="spacing" textLength="42" x="366.59" y="1182.6494">selects</text><text fill="#000000" font-family="sans-serif" font-size="13" lengthAdjust="spacing" textLength="7" x="496.5303" y="943.6025">1</text><text fill="#000000" font-family="sans-serif" font-size="13" lengthAdjust="spacing" textLength="20" x="471.1461" y="1493.0836">1..*</text></g><!--link HumanResourcesManager to Skill--><g id="link_HumanResourcesManager_Skill"><path codeLine="107" d="M582.64,948.4211 C557.6,992.3611 510.41,1083.2611 495.59,1167.6211 C473.73,1292.0711 490.21,1326.6111 508.59,1451.6211 C510.05,1461.5211 512.47,1472.2111 514.89,1481.6011 " fill="none" id="HumanResourcesManager-Skill-1" style="stroke:#181818;stroke-width:1.0;"/><polygon fill="#000000" points="499.9597,1182.2267,504.0154,1173.6242,498.1844,1172.8833,499.9597,1182.2267" style="stroke:#000000;stroke-width:1.0;"/><text fill="#000000" font-family="sans-serif" font-size="13" lengthAdjust="spacing" textLength="43" x="509.59" y="1182.6494">register</text><text fill="#000000" font-family="sans-serif" font-size="13" lengthAdjust="spacing" textLength="7" x="571.3853" y="970.3954">1</text><text fill="#000000" font-family="sans-serif" font-size="13" lengthAdjust="spacing" textLength="20" x="490.7969" y="1470.3054">1..*</text></g><!--link HumanResourcesManager to Collaborator--><g id="link_HumanResourcesManager_Collaborator"><path codeLine="106" d="M587.37,948.1211 C577.55,972.8311 564.04,1010.9811 558.59,1045.6211 C549.67,1102.3111 558.83,1165.9211 570.63,1216.3911 " fill="none" id="HumanResourcesManager-Collaborator" style="stroke:#181818;stroke-width:1.0;"/><polygon fill="#000000" points="563.2786,1096.7569,566.7751,1087.9124,560.9087,1087.5463,563.2786,1096.7569" style="stroke:#000000;stroke-width:1.0;"/><text fill="#000000" font-family="sans-serif" font-size="13" lengthAdjust="spacing" textLength="43" x="572.59" y="1097.1494">register</text><text fill="#000000" font-family="sans-serif" font-size="13" lengthAdjust="spacing" textLength="7" x="576.966" y="970.4801">1</text><text fill="#000000" font-family="sans-serif" font-size="13" lengthAdjust="spacing" textLength="20" x="547.6051" y="1205.3407">1..*</text></g><!--link HumanResourcesManager to Team--><g id="link_HumanResourcesManager_Team"><path codeLine="108" d="M655.6,948.2211 C679.35,960.9011 706.3,977.4911 727.59,996.6211 C743.25,1010.6911 757.57,1028.8511 769.06,1045.4411 " fill="none" id="HumanResourcesManager-Team" style="stroke:#181818;stroke-width:1.0;"/><polygon fill="#000000" points="754.3868,1009.52,749.4306,1001.4029,745.6061,1005.8663,754.3868,1009.52" style="stroke:#000000;stroke-width:1.0;"/><text fill="#000000" font-family="sans-serif" font-size="13" lengthAdjust="spacing" textLength="57" x="759.59" y="1011.6494">generates</text><text fill="#000000" font-family="sans-serif" font-size="13" lengthAdjust="spacing" textLength="7" x="660.9742" y="970.6032">1</text><text fill="#000000" font-family="sans-serif" font-size="13" lengthAdjust="spacing" textLength="20" x="743.5478" y="1034.4241">1..*</text></g><!--link FleetManager to Vehicle--><g id="link_FleetManager_Vehicle"><path codeLine="109" d="M406.86,493.7711 C394.18,501.9011 379.86,512.2611 368.59,523.6211 C353.99,538.3411 340.12,555.2811 327.49,572.5111 " fill="none" id="FleetManager-Vehicle" style="stroke:#181818;stroke-width:1.0;"/><polygon fill="#000000" points="370.0404,536.788,378.5315,532.5041,374.3918,528.3313,370.0404,536.788" style="stroke:#000000;stroke-width:1.0;"/><text fill="#000000" font-family="sans-serif" font-size="13" lengthAdjust="spacing" textLength="43" x="382.59" y="538.6494">register</text><text fill="#000000" font-family="sans-serif" font-size="13" lengthAdjust="spacing" textLength="7" x="390.6607" y="515.186">1</text><text fill="#000000" font-family="sans-serif" font-size="13" lengthAdjust="spacing" textLength="20" x="311.313" y="561.4849">0..*</text></g><!--link FleetManager to Equipment--><g id="link_FleetManager_Equipment"><path codeLine="110" d="M436.21,493.7011 C435.58,502.6511 434.9,513.7111 434.59,523.6211 C432.96,575.1511 437.4,636.0011 439.94,665.4211 " fill="none" id="FleetManager-Equipment" style="stroke:#181818;stroke-width:1.0;"/><polygon fill="#000000" points="439.6986,538.2654,442.4404,529.1586,436.5639,529.2863,439.6986,538.2654" style="stroke:#000000;stroke-width:1.0;"/><text fill="#000000" font-family="sans-serif" font-size="13" lengthAdjust="spacing" textLength="53" x="448.59" y="538.6494">manages</text><text fill="#000000" font-family="sans-serif" font-size="13" lengthAdjust="spacing" textLength="7" x="427.8375" y="515.4399">1</text><text fill="#000000" font-family="sans-serif" font-size="13" lengthAdjust="spacing" textLength="20" x="416.3722" y="654.222">0..*</text></g><!--link FleetManager to Machine--><g id="link_FleetManager_Machine"><path codeLine="111" d="M473.31,493.7511 C485.5,501.3911 498.17,511.4111 506.59,523.6211 C537.18,567.9711 543.86,633.7711 545.26,665.1811 " fill="none" id="FleetManager-Machine" style="stroke:#181818;stroke-width:1.0;"/><polygon fill="#000000" points="523.525,537.877,522.7345,528.3993,517.3146,530.6741,523.525,537.877" style="stroke:#000000;stroke-width:1.0;"/><text fill="#000000" font-family="sans-serif" font-size="13" lengthAdjust="spacing" textLength="53" x="530.59" y="538.6494">manages</text><text fill="#000000" font-family="sans-serif" font-size="13" lengthAdjust="spacing" textLength="7" x="474.9691" y="515.1606">1</text><text fill="#000000" font-family="sans-serif" font-size="13" lengthAdjust="spacing" textLength="20" x="522.2256" y="654.2473">0..*</text></g><!--link FleetManager to CheckUp--><g id="link_FleetManager_CheckUp"><path codeLine="112" d="M390.42,481.7711 C301.58,493.4811 114.86,523.4511 75.59,572.6211 C6,659.7711 30.2,802.1811 48.98,874.4611 " fill="none" id="FleetManager-CheckUp" style="stroke:#181818;stroke-width:1.0;"/><polygon fill="#000000" points="77.3093,688.0398,85.462,683.1424,81.0264,679.2857,77.3093,688.0398" style="stroke:#000000;stroke-width:1.0;"/><text fill="#000000" font-family="sans-serif" font-size="13" lengthAdjust="spacing" textLength="43" x="89.59" y="689.6494">register</text><text fill="#000000" font-family="sans-serif" font-size="13" lengthAdjust="spacing" textLength="7" x="375.6612" y="478.5674">1</text><text fill="#000000" font-family="sans-serif" font-size="13" lengthAdjust="spacing" textLength="20" x="25.5123" y="863.447">0..*</text></g><!--link Vehicle to CheckUp--><g id="link_Vehicle_CheckUp"><path codeLine="113" d="M167.1,795.8511 C143.57,823.7111 119.62,852.0811 100.6,874.6111 " fill="none" id="Vehicle-CheckUp" style="stroke:#181818;stroke-width:1.0;"/><polygon fill="#000000" points="140.3643,839.087,148.4452,834.0719,143.9541,830.2799,140.3643,839.087" style="stroke:#000000;stroke-width:1.0;"/><text fill="#000000" font-family="sans-serif" font-size="13" lengthAdjust="spacing" textLength="30" x="152.59" y="840.6494">owns</text><text fill="#000000" font-family="sans-serif" font-size="13" lengthAdjust="spacing" textLength="20" x="140.4702" y="817.5964">0..*</text><text fill="#000000" font-family="sans-serif" font-size="13" lengthAdjust="spacing" textLength="7" x="98.8843" y="863.2778">1</text></g><!--link Vehicle to Type--><g id="link_Vehicle_Type"><path codeLine="114" d="M260.59,795.8511 C260.59,823.7111 260.59,852.0811 260.59,874.6111 " fill="none" id="Vehicle-Type" style="stroke:#181818;stroke-width:1.0;"/><polygon fill="#000000" points="265.59,840.2666,268.5289,831.2215,262.6511,831.2215,265.59,840.2666" style="stroke:#000000;stroke-width:1.0;"/><text fill="#000000" font-family="sans-serif" font-size="13" lengthAdjust="spacing" textLength="74" x="274.59" y="840.6494">cataloged as</text><text fill="#000000" font-family="sans-serif" font-size="13" lengthAdjust="spacing" textLength="20" x="239.9494" y="817.5964">0..*</text><text fill="#000000" font-family="sans-serif" font-size="13" lengthAdjust="spacing" textLength="7" x="253.0541" y="863.2778">1</text></g><!--link Team to Collaborator--><g id="link_Team_Collaborator"><path codeLine="115" d="M766.44,1137.9511 C755.18,1153.8511 741.9,1171.5011 728.59,1186.6211 C704.77,1213.6911 675.7,1241.3911 651.1,1263.5311 " fill="none" id="Team-Collaborator" style="stroke:#181818;stroke-width:1.0;"/><polygon fill="#000000" points="745.2078,1180.9491,753.4908,1176.2754,749.1618,1172.2994,745.2078,1180.9491" style="stroke:#000000;stroke-width:1.0;"/><text fill="#000000" font-family="sans-serif" font-size="13" lengthAdjust="spacing" textLength="21" x="757.59" y="1182.6494">has</text><text fill="#000000" font-family="sans-serif" font-size="13" lengthAdjust="spacing" textLength="7" x="754.4977" y="1160.0184">1</text><text fill="#000000" font-family="sans-serif" font-size="13" lengthAdjust="spacing" textLength="20" x="659.1091" y="1253.61">2..*</text></g><!--link Task to Skill--><g id="link_Task_Skill"><path codeLine="116" d="M924.26,937.6211 C938.93,951.5111 958.22,973.0611 966.59,996.6211 C986.59,1052.9011 941.55,1066.2711 893.59,1137.6211 C796.19,1282.5011 795.36,1344.4011 657.59,1451.6211 C623.4,1478.2311 574.87,1494.4511 546.27,1502.3311 " fill="none" id="Task-Skill" style="stroke:#181818;stroke-width:1.0;"/><polygon fill="#000000" points="875.8088,1181.4217,883.2824,1175.5398,878.3978,1172.2703,875.8088,1181.4217" style="stroke:#000000;stroke-width:1.0;"/><text fill="#000000" font-family="sans-serif" font-size="13" lengthAdjust="spacing" textLength="28" x="887.59" y="1182.6494">need</text><text fill="#000000" font-family="sans-serif" font-size="13" lengthAdjust="spacing" textLength="7" x="932.1581" y="937.7969">1</text><text fill="#000000" font-family="sans-serif" font-size="13" lengthAdjust="spacing" textLength="20" x="554.0585" y="1495.8292">1..*</text></g><!--link Agenda to Task--><g id="link_Agenda_Task"><path codeLine="117" d="M854.72,702.7511 C864.94,746.3111 891.29,858.6711 901.48,902.1111 " fill="none" id="Agenda-Task" style="stroke:#181818;stroke-width:1.0;"/><polygon fill="#000000" points="894.7318,840.1345,895.5276,830.6573,889.805,831.9995,894.7318,840.1345" style="stroke:#000000;stroke-width:1.0;"/><text fill="#000000" font-family="sans-serif" font-size="13" lengthAdjust="spacing" textLength="21" x="902.59" y="840.6494">has</text><text fill="#000000" font-family="sans-serif" font-size="13" lengthAdjust="spacing" textLength="7" x="847.8893" y="724.1606">1</text><text fill="#000000" font-family="sans-serif" font-size="13" lengthAdjust="spacing" textLength="20" x="877.1588" y="890.9702">0..*</text></g><!--link Task to Team--><g id="link_Task_Team"><path codeLine="118" d="M900.41,939.1611 C894.15,958.7611 882.47,990.9611 866.59,1015.6211 C859.94,1025.9511 851.78,1036.1611 843.42,1045.5711 " fill="none" id="Task-Team" style="stroke:#181818;stroke-width:1.0;"/><polygon fill="#000000" points="879.2294,1010.6743,886.0905,1004.0883,880.909,1001.3132,879.2294,1010.6743" style="stroke:#000000;stroke-width:1.0;"/><text fill="#000000" font-family="sans-serif" font-size="13" lengthAdjust="spacing" textLength="67" x="890.59" y="1011.6494">assigned to</text><text fill="#000000" font-family="sans-serif" font-size="13" lengthAdjust="spacing" textLength="7" x="890.9688" y="960.8886">1</text><text fill="#000000" font-family="sans-serif" font-size="13" lengthAdjust="spacing" textLength="7" x="843.0549" y="1034.2316">1</text></g><!--SRC=[bLLBSziW4BxhLp0-TgQPj4STEfFQJPEsZZkrcvxNi94O8r00DQ_fVoy2P8EZiMDT1Eotkz- -m6ouR453Gneb5QsrQf1OtM5Xjf8Mw0OgNDedWKGZjI0haG9C3KmzS5cHEn06YqH41HXpOQtcwyxYDLLooP-Hd1SrPqWerzHPyki6RQsOAGhBhVCpKmrmIUQAeIWARuRCErEfPRSMt95yAVuDnyXur_HssK_GcqJo0xJZFIBu2fgXJ0yqebowI8FXUBhG5KZ-39OhcPvV2aGx1-coeXCZLrq3yXSQrMcAPYSdxfFGu8YtrqPsijyc2gBaott7smQbJMC7MdEPPkCMQ-wI6jskDKZcLutFPB-oeD4lAgsC-OEyggtVqqvhP_vxutSQAsuiwXdO00Vg21ZU9sDxrXV9eWH9SLeZtVnkBpNUToZfavUtmY5lkcQDElX-QdTfY1gHwZHwdo_zzdeMJWF6EnpqLiv8L6hT7gNBe5deEN_44AleGrheAuI_WOPgKNvMZmiz5SeWkmNfy2lTqOtPvVURMeyLQwg4WBNIO5LMJ9zUhctD83W1rd1Zqkm0OngD2Knh9TDCe4kTY97E5ErZYhi86lmlDro8CM8hT0Fs4ilmsBTvm7ZrnLtAEr0mlILpWyXSdhPXNrGe6IGTj08JPgN81cxoOKBUkyyliiae2JS4oASnlFkTdRsRf0DMEhfzrvjUOszsjqfx6j51dDiZgBsnFuBEGacmsP2Nf0Pp03m- -iUqNjy3RzVmjyC1UC37ufP4FSWUc3NpvDoN9aBxzX_ivR2iaA4T1-1ut0dXODMWSE-68SSrCXydgWLVmxtLQ_Kd0oO4cqLM4jVll9B8Y5KE7loUeF0MLdi6jlHEIyM9QlvkA8chFZh7VjIoVivZ7DwCpCq1_EubIcVvWCBmJ1s6RrCUtuMCpi0nRzeTD3RuECo_62MXO46eobNFDwzFqa3qurYnGfFx2t6yBD9TfWuHnomFsgkDszWMA6-d_m00]--></g></svg>