<?xml version="1.0" encoding="us-ascii" standalone="no"?><svg xmlns="http://www.w3.org/2000/svg" xmlns:xlink="http://www.w3.org/1999/xlink" contentStyleType="text/css" height="1234.4px" preserveAspectRatio="none" style="width:956px;height:1234px;background:#FFFFFF;" version="1.1" viewBox="0 0 956 1234" width="956.8px" zoomAndPan="magnify"><defs/><g><text fill="#000000" font-family="sans-serif" font-size="11.2" font-weight="bold" lengthAdjust="spacing" textLength="80" x="432.948" y="20.0859">Domain Model</text><!--class MusgoSublime--><g id="elem_MusgoSublime"><rect codeLine="11" fill="#F1F1F1" height="29.2969" id="MusgoSublime" rx="2" ry="2" style="stroke:#181818;stroke-width:0.4000000000000001;" width="78.4" x="561.896" y="37.2969"/><text fill="#000000" font-family="sans-serif" font-size="11.2" lengthAdjust="spacing" textLength="73.6" x="564.296" y="53.3828">MusgoSublime</text><line style="stroke:#181818;stroke-width:0.4000000000000001;" x1="562.696" x2="639.496" y1="60.1938" y2="60.1938"/></g><!--class MediumSizedPark--><g id="elem_MediumSizedPark"><rect codeLine="13" fill="#F1F1F1" height="29.2969" id="MediumSizedPark" rx="2" ry="2" style="stroke:#181818;stroke-width:0.4000000000000001;" width="94.4" x="673.096" y="37.2969"/><text fill="#000000" font-family="sans-serif" font-size="11.2" lengthAdjust="spacing" textLength="89.6" x="675.496" y="53.3828">MediumSizedPark</text><line style="stroke:#181818;stroke-width:0.4000000000000001;" x1="673.896" x2="766.696" y1="60.1938" y2="60.1938"/></g><!--class LargeSizedPark--><g id="elem_LargeSizedPark"><rect codeLine="15" fill="#F1F1F1" height="29.2969" id="LargeSizedPark" rx="2" ry="2" style="stroke:#181818;stroke-width:0.4000000000000001;" width="84.8" x="795.496" y="37.2969"/><text fill="#000000" font-family="sans-serif" font-size="11.2" lengthAdjust="spacing" textLength="80" x="797.896" y="53.3828">LargeSizedPark</text><line style="stroke:#181818;stroke-width:0.4000000000000001;" x1="796.296" x2="879.496" y1="60.1938" y2="60.1938"/></g><!--class Garden--><g id="elem_Garden"><rect codeLine="17" fill="#F1F1F1" height="29.2969" id="Garden" rx="2" ry="2" style="stroke:#181818;stroke-width:0.4000000000000001;" width="43.2" x="908.296" y="37.2969"/><text fill="#000000" font-family="sans-serif" font-size="11.2" lengthAdjust="spacing" textLength="38.4" x="910.696" y="53.3828">Garden</text><line style="stroke:#181818;stroke-width:0.4000000000000001;" x1="909.096" x2="950.696" y1="60.1938" y2="60.1938"/></g><!--class GreenSpace--><g id="elem_GreenSpace"><rect codeLine="19" fill="#F1F1F1" height="29.2969" id="GreenSpace" rx="2" ry="2" style="stroke:#181818;stroke-width:0.4000000000000001;" width="68.8" x="746.696" y="130.0969"/><text fill="#000000" font-family="sans-serif" font-size="11.2" lengthAdjust="spacing" textLength="64" x="749.096" y="146.1828">GreenSpace</text><line style="stroke:#181818;stroke-width:0.4000000000000001;" x1="747.496" x2="814.696" y1="152.9938" y2="152.9938"/></g><!--class Organization--><g id="elem_Organization"><rect codeLine="22" fill="#F1F1F1" height="29.2969" id="Organization" rx="2" ry="2" style="stroke:#181818;stroke-width:0.4000000000000001;" width="68.8" x="557.896" y="272.4969"/><text fill="#000000" font-family="sans-serif" font-size="11.2" lengthAdjust="spacing" textLength="64" x="560.296" y="288.5828">Organization</text><line style="stroke:#181818;stroke-width:0.4000000000000001;" x1="558.696" x2="625.896" y1="295.3938" y2="295.3938"/></g><!--class FleetManager--><g id="elem_FleetManager"><rect codeLine="25" fill="#F1F1F1" height="29.2969" id="FleetManager" rx="2" ry="2" style="stroke:#181818;stroke-width:0.4000000000000001;" width="75.2" x="311.496" y="365.2969"/><text fill="#000000" font-family="sans-serif" font-size="11.2" lengthAdjust="spacing" textLength="70.4" x="313.896" y="381.3828">FleetManager</text><line style="stroke:#181818;stroke-width:0.4000000000000001;" x1="312.296" x2="385.896" y1="388.1938" y2="388.1938"/></g><!--class HumanResourcesManager--><g id="elem_HumanResourcesManager"><rect codeLine="27" fill="#F1F1F1" height="29.2969" id="HumanResourcesManager" rx="2" ry="2" style="stroke:#181818;stroke-width:0.4000000000000001;" width="139.2" x="408.296" y="721.6969"/><text fill="#000000" font-family="sans-serif" font-size="11.2" lengthAdjust="spacing" textLength="134.4" x="410.696" y="737.7828">HumanResourcesManager</text><line style="stroke:#181818;stroke-width:0.4000000000000001;" x1="409.096" x2="546.696" y1="744.5938" y2="744.5938"/></g><!--class GreenSpaceManager--><g id="elem_GreenSpaceManager"><rect codeLine="29" fill="#F1F1F1" height="29.2969" id="GreenSpaceManager" rx="2" ry="2" style="stroke:#181818;stroke-width:0.4000000000000001;" width="113.6" x="656.296" y="365.2969"/><text fill="#000000" font-family="sans-serif" font-size="11.2" lengthAdjust="spacing" textLength="108.8" x="658.696" y="381.3828">GreenSpaceManager</text><line style="stroke:#181818;stroke-width:0.4000000000000001;" x1="657.096" x2="769.096" y1="388.1938" y2="388.1938"/></g><!--class GreenSpaceUser--><g id="elem_GreenSpaceUser"><rect codeLine="31" fill="#F1F1F1" height="29.2969" id="GreenSpaceUser" rx="2" ry="2" style="stroke:#181818;stroke-width:0.4000000000000001;" width="92" x="798.296" y="365.2969"/><text fill="#000000" font-family="sans-serif" font-size="11.2" lengthAdjust="spacing" textLength="87.2" x="800.696" y="381.3828">GreenSpaceUser</text><line style="stroke:#181818;stroke-width:0.4000000000000001;" x1="799.096" x2="889.496" y1="388.1938" y2="388.1938"/></g><!--class Equipment--><g id="elem_Equipment"><rect codeLine="34" fill="#F1F1F1" height="29.2969" id="Equipment" rx="2" ry="2" style="stroke:#181818;stroke-width:0.4000000000000001;" width="58.4" x="323.096" y="532.4969"/><text fill="#000000" font-family="sans-serif" font-size="11.2" lengthAdjust="spacing" textLength="53.6" x="325.496" y="548.5828">Equipment</text><line style="stroke:#181818;stroke-width:0.4000000000000001;" x1="323.896" x2="380.696" y1="555.3938" y2="555.3938"/></g><!--class Machine--><g id="elem_Machine"><rect codeLine="36" fill="#F1F1F1" height="29.2969" id="Machine" rx="2" ry="2" style="stroke:#181818;stroke-width:0.4000000000000001;" width="47.2" x="411.896" y="532.4969"/><text fill="#000000" font-family="sans-serif" font-size="11.2" lengthAdjust="spacing" textLength="42.4" x="414.296" y="548.5828">Machine</text><line style="stroke:#181818;stroke-width:0.4000000000000001;" x1="412.696" x2="458.296" y1="555.3938" y2="555.3938"/></g><!--class Vehicle--><g id="elem_Vehicle"><rect codeLine="38" fill="#F1F1F1" height="178.2656" id="Vehicle" rx="2" ry="2" style="stroke:#181818;stroke-width:0.4000000000000001;" width="174.4" x="120.296" y="458.0969"/><text fill="#000000" font-family="sans-serif" font-size="11.2" lengthAdjust="spacing" textLength="36.8" x="189.096" y="474.1828">Vehicle</text><line style="stroke:#181818;stroke-width:0.4000000000000001;" x1="121.096" x2="293.896" y1="480.9938" y2="480.9938"/><text fill="#000000" font-family="sans-serif" font-size="11.2" lengthAdjust="spacing" textLength="29.6" x="125.096" y="496.2797">brand</text><text fill="#000000" font-family="sans-serif" font-size="11.2" lengthAdjust="spacing" textLength="30.4" x="125.096" y="511.1766">model</text><text fill="#000000" font-family="sans-serif" font-size="11.2" lengthAdjust="spacing" textLength="20" x="125.096" y="526.0734">tare</text><text fill="#000000" font-family="sans-serif" font-size="11.2" lengthAdjust="spacing" textLength="63.2" x="125.096" y="540.9703">grossWeight</text><text fill="#000000" font-family="sans-serif" font-size="11.2" lengthAdjust="spacing" textLength="52" x="125.096" y="555.8672">currentKm</text><text fill="#000000" font-family="sans-serif" font-size="11.2" lengthAdjust="spacing" textLength="62.4" x="125.096" y="570.7641">registerDate</text><text fill="#000000" font-family="sans-serif" font-size="11.2" lengthAdjust="spacing" textLength="77.6" x="125.096" y="585.6609">acquisitionDate</text><text fill="#000000" font-family="sans-serif" font-size="11.2" lengthAdjust="spacing" textLength="164.8" x="125.096" y="600.5578">maintenanceCheckUpFrequency</text><text fill="#000000" font-family="sans-serif" font-size="11.2" lengthAdjust="spacing" textLength="64" x="125.096" y="615.4547">plateNumber</text><text fill="#000000" font-family="sans-serif" font-size="11.2" lengthAdjust="spacing" textLength="21.6" x="125.096" y="630.3516">type</text></g><!--class CheckUp--><g id="elem_CheckUp"><rect codeLine="50" fill="#F1F1F1" height="73.9875" id="CheckUp" rx="2" ry="2" style="stroke:#181818;stroke-width:0.4000000000000001;" width="79.2" x="58.296" y="699.6969"/><text fill="#000000" font-family="sans-serif" font-size="11.2" lengthAdjust="spacing" textLength="45.6" x="75.096" y="715.7828">CheckUp</text><line style="stroke:#181818;stroke-width:0.4000000000000001;" x1="59.096" x2="136.696" y1="722.5938" y2="722.5938"/><text fill="#000000" font-family="sans-serif" font-size="11.2" lengthAdjust="spacing" textLength="61.6" x="63.096" y="737.8797">CurrentKMS</text><text fill="#000000" font-family="sans-serif" font-size="11.2" lengthAdjust="spacing" textLength="10.4" x="63.096" y="752.7766">ID</text><text fill="#000000" font-family="sans-serif" font-size="11.2" lengthAdjust="spacing" textLength="69.6" x="63.096" y="767.6734">CheckUpDate</text></g><!--class Job--><g id="elem_Job"><rect codeLine="56" fill="#F1F1F1" height="44.1938" id="Job" rx="2" ry="2" style="stroke:#181818;stroke-width:0.4000000000000001;" width="37.6" x="506.296" y="851.2969"/><text fill="#000000" font-family="sans-serif" font-size="11.2" lengthAdjust="spacing" textLength="17.6" x="516.296" y="867.3828">Job</text><line style="stroke:#181818;stroke-width:0.4000000000000001;" x1="507.096" x2="543.096" y1="874.1938" y2="874.1938"/><text fill="#000000" font-family="sans-serif" font-size="11.2" lengthAdjust="spacing" textLength="28" x="511.096" y="889.4797">name</text></g><!--class Collaborator--><g id="elem_Collaborator"><rect codeLine="59" fill="#F1F1F1" height="148.4719" id="Collaborator" rx="2" ry="2" style="stroke:#181818;stroke-width:0.4000000000000001;" width="84" x="435.896" y="973.2969"/><text fill="#000000" font-family="sans-serif" font-size="11.2" lengthAdjust="spacing" textLength="62.4" x="446.696" y="989.3828">Collaborator</text><line style="stroke:#181818;stroke-width:0.4000000000000001;" x1="436.696" x2="519.096" y1="996.1938" y2="996.1938"/><text fill="#000000" font-family="sans-serif" font-size="11.2" lengthAdjust="spacing" textLength="28" x="440.696" y="1011.4797">name</text><text fill="#000000" font-family="sans-serif" font-size="11.2" lengthAdjust="spacing" textLength="40.8" x="440.696" y="1026.3766">birthday</text><text fill="#000000" font-family="sans-serif" font-size="11.2" lengthAdjust="spacing" textLength="74.4" x="440.696" y="1041.2734">admissionDate</text><text fill="#000000" font-family="sans-serif" font-size="11.2" lengthAdjust="spacing" textLength="40.8" x="440.696" y="1056.1703">address</text><text fill="#000000" font-family="sans-serif" font-size="11.2" lengthAdjust="spacing" textLength="71.2" x="440.696" y="1071.0672">phoneNumber</text><text fill="#000000" font-family="sans-serif" font-size="11.2" lengthAdjust="spacing" textLength="26.4" x="440.696" y="1085.9641">email</text><text fill="#000000" font-family="sans-serif" font-size="11.2" lengthAdjust="spacing" textLength="56" x="440.696" y="1100.8609">IDDocType</text><text fill="#000000" font-family="sans-serif" font-size="11.2" lengthAdjust="spacing" textLength="49.6" x="440.696" y="1115.7578">IDNumber</text></g><!--class Skill--><g id="elem_Skill"><rect codeLine="69" fill="#F1F1F1" height="44.1938" id="Skill" rx="2" ry="2" style="stroke:#181818;stroke-width:0.4000000000000001;" width="37.6" x="398.296" y="1185.2969"/><text fill="#000000" font-family="sans-serif" font-size="11.2" lengthAdjust="spacing" textLength="20" x="407.096" y="1201.3828">Skill</text><line style="stroke:#181818;stroke-width:0.4000000000000001;" x1="399.096" x2="435.096" y1="1208.1938" y2="1208.1938"/><text fill="#000000" font-family="sans-serif" font-size="11.2" lengthAdjust="spacing" textLength="28" x="403.096" y="1223.4797">name</text></g><!--class Team--><g id="elem_Team"><rect codeLine="72" fill="#F1F1F1" height="73.9875" id="Team" rx="2" ry="2" style="stroke:#181818;stroke-width:0.4000000000000001;" width="128" x="572.296" y="836.4969"/><text fill="#000000" font-family="sans-serif" font-size="11.2" lengthAdjust="spacing" textLength="28.8" x="621.896" y="852.5828">Team</text><line style="stroke:#181818;stroke-width:0.4000000000000001;" x1="573.096" x2="699.496" y1="859.3938" y2="859.3938"/><text fill="#000000" font-family="sans-serif" font-size="11.2" lengthAdjust="spacing" textLength="40.8" x="577.096" y="874.6797">maxSize</text><text fill="#000000" font-family="sans-serif" font-size="11.2" lengthAdjust="spacing" textLength="118.4" x="577.096" y="889.5766">numberOfCollaborators</text><text fill="#000000" font-family="sans-serif" font-size="11.2" lengthAdjust="spacing" textLength="63.2" x="577.096" y="904.4734">skillsNeeded</text></g><!--class Agenda--><g id="elem_Agenda"><rect codeLine="78" fill="#F1F1F1" height="29.2969" id="Agenda" rx="2" ry="2" style="stroke:#181818;stroke-width:0.4000000000000001;" width="44" x="657.496" y="532.4969"/><text fill="#000000" font-family="sans-serif" font-size="11.2" lengthAdjust="spacing" textLength="39.2" x="659.896" y="548.5828">Agenda</text><line style="stroke:#181818;stroke-width:0.4000000000000001;" x1="658.296" x2="700.696" y1="555.3938" y2="555.3938"/></g><!--class Task--><g id="elem_Task"><rect codeLine="80" fill="#F1F1F1" height="29.2969" id="Task" rx="2" ry="2" style="stroke:#181818;stroke-width:0.4000000000000001;" width="29.6" x="708.696" y="721.6969"/><text fill="#000000" font-family="sans-serif" font-size="11.2" lengthAdjust="spacing" textLength="24.8" x="711.096" y="737.7828">Task</text><line style="stroke:#181818;stroke-width:0.4000000000000001;" x1="709.496" x2="737.496" y1="744.5938" y2="744.5938"/></g><!--link MusgoSublime to Organization--><g id="link_MusgoSublime_Organization"><path codeLine="83" d="M600.56,67.1609 C598.984,108.9609 594.392,230.8569 592.824,272.4249 " fill="none" id="MusgoSublime-Organization" style="stroke:#181818;stroke-width:0.8000000000000002;"/><polygon fill="#000000" points="600.1454,195.4104,602.7673,188.2681,598.0684,188.091,600.1454,195.4104" style="stroke:#000000;stroke-width:0.8000000000000002;"/><text fill="#000000" font-family="sans-serif" font-size="10.4" lengthAdjust="spacing" textLength="16.8" x="607.496" y="195.7195">is a</text><text fill="#000000" font-family="sans-serif" font-size="10.4" lengthAdjust="spacing" textLength="5.6" x="594.0635" y="84.3315">1</text><text fill="#000000" font-family="sans-serif" font-size="10.4" lengthAdjust="spacing" textLength="5.6" x="586.5282" y="263.4925">1</text></g><!--link MusgoSublime to GreenSpace--><g id="link_MusgoSublime_GreenSpace"><path codeLine="84" d="M621.616,67.0569 C638.6,78.4329 663.6,94.3849 686.696,106.0969 C705.992,115.8889 728.44,125.0089 746.6,131.8569 " fill="none" id="MusgoSublime-GreenSpace" style="stroke:#181818;stroke-width:0.8000000000000002;"/><polygon fill="#000000" points="694.2471,100.4544,688.9053,95.0365,686.7409,99.2111,694.2471,100.4544" style="stroke:#000000;stroke-width:0.8000000000000002;"/><text fill="#000000" font-family="sans-serif" font-size="10.4" lengthAdjust="spacing" textLength="42.4" x="697.896" y="102.9195">manages</text><text fill="#000000" font-family="sans-serif" font-size="10.4" lengthAdjust="spacing" textLength="5.6" x="620.7783" y="84.1995">1</text><text fill="#000000" font-family="sans-serif" font-size="10.4" lengthAdjust="spacing" textLength="16" x="724.3584" y="126.6049">1..*</text></g><!--link MediumSizedPark to GreenSpace--><g id="link_MediumSizedPark_GreenSpace"><path codeLine="85" d="M729.792,67.1449 C741.216,84.2809 760.272,112.8569 771.664,129.9449 " fill="none" id="MediumSizedPark-GreenSpace" style="stroke:#181818;stroke-width:0.8000000000000002;"/><polygon fill="#000000" points="760.115,101.9414,758.057,94.6165,754.1446,97.2251,760.115,101.9414" style="stroke:#000000;stroke-width:0.8000000000000002;"/><text fill="#000000" font-family="sans-serif" font-size="10.4" lengthAdjust="spacing" textLength="16.8" x="765.096" y="102.9195">is a</text><text fill="#000000" font-family="sans-serif" font-size="10.4" lengthAdjust="spacing" textLength="5.6" x="725.9916" y="84.3112">1</text><text fill="#000000" font-family="sans-serif" font-size="10.4" lengthAdjust="spacing" textLength="5.6" x="762.318" y="120.988">1</text></g><!--link Garden to GreenSpace--><g id="link_Garden_GreenSpace"><path codeLine="86" d="M908.752,66.9929 C892.224,77.9049 868.592,93.2649 847.496,106.0969 C834.104,114.2409 818.952,122.9529 806.504,129.9769 " fill="none" id="Garden-GreenSpace" style="stroke:#181818;stroke-width:0.8000000000000002;"/><polygon fill="#000000" points="870.4903,100.7112,877.8844,98.9179,875.4182,94.9142,870.4903,100.7112" style="stroke:#000000;stroke-width:0.8000000000000002;"/><text fill="#000000" font-family="sans-serif" font-size="10.4" lengthAdjust="spacing" textLength="16.8" x="881.096" y="102.9195">is a</text><text fill="#000000" font-family="sans-serif" font-size="10.4" lengthAdjust="spacing" textLength="5.6" x="896.4178" y="66.9679">1</text><text fill="#000000" font-family="sans-serif" font-size="10.4" lengthAdjust="spacing" textLength="5.6" x="807.8277" y="121.0298">1</text></g><!--link LargeSizedPark to GreenSpace--><g id="link_LargeSizedPark_GreenSpace"><path codeLine="87" d="M829.016,67.1449 C818.352,84.2809 800.552,112.8569 789.904,129.9449 " fill="none" id="LargeSizedPark-GreenSpace" style="stroke:#181818;stroke-width:0.8000000000000002;"/><polygon fill="#000000" points="814.1814,102.0086,820.0025,97.1093,816.011,94.6234,814.1814,102.0086" style="stroke:#000000;stroke-width:0.8000000000000002;"/><text fill="#000000" font-family="sans-serif" font-size="10.4" lengthAdjust="spacing" textLength="16.8" x="823.496" y="102.9195">is a</text><text fill="#000000" font-family="sans-serif" font-size="10.4" lengthAdjust="spacing" textLength="5.6" x="820.277" y="84.3112">1</text><text fill="#000000" font-family="sans-serif" font-size="10.4" lengthAdjust="spacing" textLength="5.6" x="786.144" y="120.988">1</text></g><!--link Organization to FleetManager--><g id="link_Organization_FleetManager"><path codeLine="88" d="M557.84,298.0009 C533.688,305.1849 500.752,315.4809 472.296,326.0969 C440.096,338.1129 404.104,353.9449 379.376,365.2009 " fill="none" id="Organization-FleetManager" style="stroke:#181818;stroke-width:0.8000000000000002;"/><polygon fill="#000000" points="472.5526,335.2228,480.153,334.8732,478.496,330.4726,472.5526,335.2228" style="stroke:#000000;stroke-width:0.8000000000000002;"/><text fill="#000000" font-family="sans-serif" font-size="10.4" lengthAdjust="spacing" textLength="16.8" x="483.496" y="338.1195">has</text><text fill="#000000" font-family="sans-serif" font-size="10.4" lengthAdjust="spacing" textLength="5.6" x="545.8366" y="296.3406">1</text><text fill="#000000" font-family="sans-serif" font-size="10.4" lengthAdjust="spacing" textLength="5.6" x="382.1918" y="356.2612">1</text></g><!--link Organization to HumanResourcesManager--><g id="link_Organization_HumanResourcesManager"><path codeLine="89" d="M588.68,302.2329 C571.552,369.2489 498.64,654.5289 481.512,721.5609 " fill="none" id="Organization-HumanResourcesManager" style="stroke:#181818;stroke-width:0.8000000000000002;"/><polygon fill="#000000" points="561.7056,430.4887,565.7752,424.0602,561.2194,422.8958,561.7056,430.4887" style="stroke:#000000;stroke-width:0.8000000000000002;"/><text fill="#000000" font-family="sans-serif" font-size="10.4" lengthAdjust="spacing" textLength="16.8" x="569.896" y="430.9195">has</text><text fill="#000000" font-family="sans-serif" font-size="10.4" lengthAdjust="spacing" textLength="5.6" x="581.3557" y="319.3691">1</text><text fill="#000000" font-family="sans-serif" font-size="10.4" lengthAdjust="spacing" textLength="5.6" x="476.1619" y="712.6089">1</text></g><!--link Organization to GreenSpaceManager--><g id="link_Organization_GreenSpaceManager"><path codeLine="90" d="M610.904,302.1449 C633.608,319.2889 671.752,348.0889 694.464,365.2329 " fill="none" id="Organization-GreenSpaceManager" style="stroke:#181818;stroke-width:0.8000000000000002;"/><polygon fill="#000000" points="667.4883,336.2235,663.13,329.987,660.2967,333.7398,667.4883,336.2235" style="stroke:#000000;stroke-width:0.8000000000000002;"/><text fill="#000000" font-family="sans-serif" font-size="10.4" lengthAdjust="spacing" textLength="16.8" x="671.496" y="338.1195">has</text><text fill="#000000" font-family="sans-serif" font-size="10.4" lengthAdjust="spacing" textLength="5.6" x="609.75" y="319.5314">1</text><text fill="#000000" font-family="sans-serif" font-size="10.4" lengthAdjust="spacing" textLength="5.6" x="682.3005" y="356.303">1</text></g><!--link Organization to GreenSpaceUser--><g id="link_Organization_GreenSpaceUser"><path codeLine="91" d="M626.808,300.5849 C673.512,317.4889 756.608,347.5609 805.456,365.2409 " fill="none" id="Organization-GreenSpaceUser" style="stroke:#181818;stroke-width:0.8000000000000002;"/><polygon fill="#000000" points="741.6572,335.1745,735.6532,330.5012,734.053,334.9228,741.6572,335.1745" style="stroke:#000000;stroke-width:0.8000000000000002;"/><text fill="#000000" font-family="sans-serif" font-size="10.4" lengthAdjust="spacing" textLength="16.8" x="745.096" y="338.1195">has</text><text fill="#000000" font-family="sans-serif" font-size="10.4" lengthAdjust="spacing" textLength="5.6" x="632.9878" y="299.3265">1</text><text fill="#000000" font-family="sans-serif" font-size="10.4" lengthAdjust="spacing" textLength="5.6" x="787.1038" y="356.3134">1</text></g><!--link Organization to Agenda--><g id="link_Organization_Agenda"><path codeLine="92" d="M592.64,302.2169 C593.472,322.9529 596.296,362.6489 605.896,394.8969 C621.792,448.3129 654.784,506.1769 670.632,532.2969 " fill="none" id="Organization-Agenda" style="stroke:#181818;stroke-width:0.8000000000000002;"/><polygon fill="#000000" points="611.1801,384.0016,611.0838,376.3937,606.6304,377.9033,611.1801,384.0016" style="stroke:#000000;stroke-width:0.8000000000000002;"/><text fill="#000000" font-family="sans-serif" font-size="10.4" lengthAdjust="spacing" textLength="24" x="617.096" y="384.5195">owns</text><text fill="#000000" font-family="sans-serif" font-size="10.4" lengthAdjust="spacing" textLength="5.6" x="593.485" y="319.3488">1</text><text fill="#000000" font-family="sans-serif" font-size="10.4" lengthAdjust="spacing" textLength="5.6" x="661.6057" y="523.5945">1</text></g><!--link Collaborator to Job--><g id="link_Collaborator_Job"><path codeLine="93" d="M519.984,997.2249 C529.912,982.6809 539.112,966.1449 544.296,949.2969 C549.848,931.2649 543.584,910.4649 536.768,895.3209 " fill="none" id="Collaborator-Job" style="stroke:#181818;stroke-width:0.8000000000000002;"/><polygon fill="#000000" points="551.3461,937.8665,547.8502,944.6242,552.49,945.3884,551.3461,937.8665" style="stroke:#000000;stroke-width:0.8000000000000002;"/><text fill="#000000" font-family="sans-serif" font-size="10.4" lengthAdjust="spacing" textLength="16.8" x="557.896" y="946.1195">has</text><text fill="#000000" font-family="sans-serif" font-size="10.4" lengthAdjust="spacing" textLength="16" x="526.4015" y="987.5455">0..*</text><text fill="#000000" font-family="sans-serif" font-size="10.4" lengthAdjust="spacing" textLength="5.6" x="533.2197" y="913.2136">1</text></g><!--link Job to Collaborator--><g id="link_Job_Collaborator"><path codeLine="98" d="M506.088,889.1689 C493.872,900.1449 479.056,916.1849 472.296,934.0969 C467.688,946.2969 465.856,959.7689 465.664,973.0329 " fill="none" id="Job-Collaborator" style="stroke:#181818;stroke-width:0.8000000000000002;"/><polygon fill="#000000" points="474.5592,945.4165,479.8191,939.9191,475.5832,937.8773,474.5592,945.4165" style="stroke:#000000;stroke-width:0.8000000000000002;"/><text fill="#000000" font-family="sans-serif" font-size="10.4" lengthAdjust="spacing" textLength="53.6" x="483.496" y="946.1195">assigned to</text><text fill="#000000" font-family="sans-serif" font-size="10.4" lengthAdjust="spacing" textLength="5.6" x="494.3545" y="889.3485">1</text><text fill="#000000" font-family="sans-serif" font-size="10.4" lengthAdjust="spacing" textLength="16" x="465.3268" y="964.1862">0..*</text></g><!--link Collaborator to Skill--><g id="link_Collaborator_Skill"><path codeLine="94" d="M435.84,1101.4969 C427.16,1115.2729 419.272,1130.6089 414.696,1146.0969 C410.976,1158.6809 411.464,1173.3689 412.936,1185.1209 " fill="none" id="Collaborator-Skill" style="stroke:#181818;stroke-width:0.8000000000000002;"/><polygon fill="#000000" points="417.6393,1157.6712,421.8185,1151.3133,417.2832,1150.0711,417.6393,1157.6712" style="stroke:#000000;stroke-width:0.8000000000000002;"/><text fill="#000000" font-family="sans-serif" font-size="10.4" lengthAdjust="spacing" textLength="16.8" x="425.896" y="1158.1195">has</text><text fill="#000000" font-family="sans-serif" font-size="10.4" lengthAdjust="spacing" textLength="16" x="413.4266" y="1105.1773">0..*</text><text fill="#000000" font-family="sans-serif" font-size="10.4" lengthAdjust="spacing" textLength="16" x="413.776" y="1176.4093">1..*</text></g><!--link Skill to Collaborator--><g id="link_Skill_Collaborator"><path codeLine="99" d="M432.976,1185.2169 C437.896,1177.9049 442.984,1169.5049 446.696,1161.2969 C452.264,1148.9849 457.048,1135.4569 461.072,1122.1769 " fill="none" id="Skill-Collaborator" style="stroke:#181818;stroke-width:0.8000000000000002;"/><polygon fill="#000000" points="458.7243,1150.1597,453.6311,1155.812,457.9262,1157.7262,458.7243,1150.1597" style="stroke:#000000;stroke-width:0.8000000000000002;"/><text fill="#000000" font-family="sans-serif" font-size="10.4" lengthAdjust="spacing" textLength="53.6" x="464.296" y="1158.1195">assigned to</text><text fill="#000000" font-family="sans-serif" font-size="10.4" lengthAdjust="spacing" textLength="16" x="438.4983" y="1176.1655">1..*</text><text fill="#000000" font-family="sans-serif" font-size="10.4" lengthAdjust="spacing" textLength="16" x="443.249" y="1139.3891">0..*</text></g><!--link HumanResourcesManager to Job--><g id="link_HumanResourcesManager_Job"><path codeLine="95" d="M474.432,751.3609 C471.304,766.8409 468.2,792.2169 475.496,812.4969 C481.624,829.5369 494.928,845.1769 506.216,856.2169 " fill="none" id="HumanResourcesManager-Job" style="stroke:#181818;stroke-width:0.8000000000000002;"/><polygon fill="#000000" points="480.6563,808.8413,480.8073,801.2343,476.3072,802.5984,480.6563,808.8413" style="stroke:#000000;stroke-width:0.8000000000000002;"/><text fill="#000000" font-family="sans-serif" font-size="10.4" lengthAdjust="spacing" textLength="33.6" x="486.696" y="809.3195">selects</text><text fill="#000000" font-family="sans-serif" font-size="10.4" lengthAdjust="spacing" textLength="5.6" x="474.2453" y="768.7519">1</text><text fill="#000000" font-family="sans-serif" font-size="10.4" lengthAdjust="spacing" textLength="5.6" x="494.2475" y="846.8305">1</text></g><!--link HumanResourcesManager to Job--><g id="link_HumanResourcesManager_Job"><path codeLine="97" d="M493.192,751.4169 C504.168,762.6409 518.072,779.3849 524.296,797.2969 C530.336,814.6889 529.968,835.7289 528.416,851.1289 " fill="none" id="HumanResourcesManager-Job-1" style="stroke:#181818;stroke-width:0.8000000000000002;"/><polygon fill="#000000" points="533.6283,808.7849,533.435,801.1789,529.0012,802.7451,533.6283,808.7849" style="stroke:#000000;stroke-width:0.8000000000000002;"/><text fill="#000000" font-family="sans-serif" font-size="10.4" lengthAdjust="spacing" textLength="34.4" x="539.496" y="809.3195">register</text><text fill="#000000" font-family="sans-serif" font-size="10.4" lengthAdjust="spacing" textLength="5.6" x="490.9503" y="768.5488">1</text><text fill="#000000" font-family="sans-serif" font-size="10.4" lengthAdjust="spacing" textLength="16" x="511.3923" y="842.4191">0..*</text></g><!--link HumanResourcesManager to Skill--><g id="link_HumanResourcesManager_Skill"><path codeLine="96" d="M421.352,751.3529 C393.992,760.5849 362.376,775.1529 340.296,797.2969 C293.512,844.2089 294.528,869.2249 281.096,934.0969 C263.904,1017.1129 172.08,942.5609 340.296,1161.2969 C355.104,1180.5529 380.632,1193.1929 398.168,1200.0809 " fill="none" id="HumanResourcesManager-Skill" style="stroke:#181818;stroke-width:0.8000000000000002;"/><polygon fill="#000000" points="284.8896,945.808,287.611,938.7028,282.915,938.4602,284.8896,945.808" style="stroke:#000000;stroke-width:0.8000000000000002;"/><text fill="#000000" font-family="sans-serif" font-size="10.4" lengthAdjust="spacing" textLength="33.6" x="292.296" y="946.1195">selects</text><text fill="#000000" font-family="sans-serif" font-size="10.4" lengthAdjust="spacing" textLength="5.6" x="399.0615" y="768.7416">1</text><text fill="#000000" font-family="sans-serif" font-size="10.4" lengthAdjust="spacing" textLength="16" x="375.9409" y="1194.4668">1..*</text></g><!--link HumanResourcesManager to Skill--><g id="link_HumanResourcesManager_Skill"><path codeLine="101" d="M469.352,751.4249 C450.968,782.8489 408.248,861.4969 395.496,934.0969 C378,1033.6569 391.192,1061.2889 405.896,1161.2969 C407.056,1169.2169 409,1177.7689 410.936,1185.2809 " fill="none" id="HumanResourcesManager-Skill-1" style="stroke:#181818;stroke-width:0.8000000000000002;"/><polygon fill="#000000" points="398.9622,945.7775,402.2579,938.9199,397.5977,938.2924,398.9622,945.7775" style="stroke:#000000;stroke-width:0.8000000000000002;"/><text fill="#000000" font-family="sans-serif" font-size="10.4" lengthAdjust="spacing" textLength="34.4" x="406.696" y="946.1195">register</text><text fill="#000000" font-family="sans-serif" font-size="10.4" lengthAdjust="spacing" textLength="5.6" x="460.7033" y="768.5589">1</text><text fill="#000000" font-family="sans-serif" font-size="10.4" lengthAdjust="spacing" textLength="16" x="391.6615" y="1176.2443">0..*</text></g><!--link HumanResourcesManager to Collaborator--><g id="link_HumanResourcesManager_Collaborator"><path codeLine="100" d="M471.792,751.4089 C463.96,770.3449 450.816,805.2169 445.896,836.4969 C438.76,881.8489 446.088,932.7369 455.52,973.1129 " fill="none" id="HumanResourcesManager-Collaborator" style="stroke:#181818;stroke-width:0.8000000000000002;"/><polygon fill="#000000" points="449.6032,877.4026,452.4777,870.358,447.788,870.0138,449.6032,877.4026" style="stroke:#000000;stroke-width:0.8000000000000002;"/><text fill="#000000" font-family="sans-serif" font-size="10.4" lengthAdjust="spacing" textLength="34.4" x="457.096" y="877.7195">register</text><text fill="#000000" font-family="sans-serif" font-size="10.4" lengthAdjust="spacing" textLength="5.6" x="463.7991" y="768.5386">1</text><text fill="#000000" font-family="sans-serif" font-size="10.4" lengthAdjust="spacing" textLength="16" x="437.0994" y="964.2726">0..*</text></g><!--link HumanResourcesManager to Team--><g id="link_HumanResourcesManager_Team"><path codeLine="102" d="M509.432,751.3689 C531.088,762.0089 559.672,778.0409 581.096,797.2969 C593.624,808.5529 605.08,823.0809 614.272,836.3529 " fill="none" id="HumanResourcesManager-Team" style="stroke:#181818;stroke-width:0.8000000000000002;"/><polygon fill="#000000" points="602.6033,807.5321,598.4626,801.1491,595.5016,804.802,602.6033,807.5321" style="stroke:#000000;stroke-width:0.8000000000000002;"/><text fill="#000000" font-family="sans-serif" font-size="10.4" lengthAdjust="spacing" textLength="45.6" x="606.696" y="809.3195">generates</text><text fill="#000000" font-family="sans-serif" font-size="10.4" lengthAdjust="spacing" textLength="5.6" x="511.5548" y="768.4879">1</text><text fill="#000000" font-family="sans-serif" font-size="10.4" lengthAdjust="spacing" textLength="16" x="593.8622" y="827.5393">1..*</text></g><!--link FleetManager to Vehicle--><g id="link_FleetManager_Vehicle"><path codeLine="103" d="M324.504,395.0169 C314.368,401.5209 302.912,409.8089 293.896,418.8969 C282.208,430.6729 271.12,444.2249 261.016,458.0089 " fill="none" id="FleetManager-Vehicle" style="stroke:#181818;stroke-width:0.8000000000000002;"/><polygon fill="#000000" points="295.0565,429.4306,301.8492,426.003,298.5372,422.665,295.0565,429.4306" style="stroke:#000000;stroke-width:0.8000000000000002;"/><text fill="#000000" font-family="sans-serif" font-size="10.4" lengthAdjust="spacing" textLength="34.4" x="305.096" y="430.9195">register</text><text fill="#000000" font-family="sans-serif" font-size="10.4" lengthAdjust="spacing" textLength="5.6" x="311.5424" y="412.1488">1</text><text fill="#000000" font-family="sans-serif" font-size="10.4" lengthAdjust="spacing" textLength="16" x="248.0744" y="449.188">0..*</text></g><!--link FleetManager to Equipment--><g id="link_FleetManager_Equipment"><path codeLine="104" d="M347.992,394.9609 C347.488,402.1209 346.944,410.9689 346.696,418.8969 C345.392,460.1209 348.936,508.8009 350.976,532.3369 " fill="none" id="FleetManager-Equipment" style="stroke:#181818;stroke-width:0.8000000000000002;"/><polygon fill="#000000" points="350.7829,430.6123,352.9763,423.3269,348.2751,423.429,350.7829,430.6123" style="stroke:#000000;stroke-width:0.8000000000000002;"/><text fill="#000000" font-family="sans-serif" font-size="10.4" lengthAdjust="spacing" textLength="42.4" x="357.896" y="430.9195">manages</text><text fill="#000000" font-family="sans-serif" font-size="10.4" lengthAdjust="spacing" textLength="5.6" x="341.294" y="412.3519">1</text><text fill="#000000" font-family="sans-serif" font-size="10.4" lengthAdjust="spacing" textLength="16" x="332.1218" y="523.3776">0..*</text></g><!--link FleetManager to Machine--><g id="link_FleetManager_Machine"><path codeLine="105" d="M377.672,395.0009 C387.424,401.1129 397.56,409.1289 404.296,418.8969 C428.768,454.3769 434.112,507.0169 435.232,532.1449 " fill="none" id="FleetManager-Machine" style="stroke:#181818;stroke-width:0.8000000000000002;"/><polygon fill="#000000" points="417.844,430.3016,417.2116,422.7195,412.8757,424.5393,417.844,430.3016" style="stroke:#000000;stroke-width:0.8000000000000002;"/><text fill="#000000" font-family="sans-serif" font-size="10.4" lengthAdjust="spacing" textLength="42.4" x="423.496" y="430.9195">manages</text><text fill="#000000" font-family="sans-serif" font-size="10.4" lengthAdjust="spacing" textLength="5.6" x="378.9993" y="412.1285">1</text><text fill="#000000" font-family="sans-serif" font-size="10.4" lengthAdjust="spacing" textLength="16" x="416.8045" y="523.3978">0..*</text></g><!--link FleetManager to CheckUp--><g id="link_FleetManager_CheckUp"><path codeLine="106" d="M311.224,385.3129 C239.928,394.4969 90.168,418.1769 59.496,458.0969 C4.8,529.2809 48.888,642.0489 77.784,699.4889 " fill="none" id="FleetManager-CheckUp" style="stroke:#181818;stroke-width:0.8000000000000002;"/><polygon fill="#000000" points="61.1104,550.624,67.3132,546.218,63.5388,543.4135,61.1104,550.624" style="stroke:#000000;stroke-width:0.8000000000000002;"/><text fill="#000000" font-family="sans-serif" font-size="10.4" lengthAdjust="spacing" textLength="34.4" x="70.696" y="551.7195">register</text><text fill="#000000" font-family="sans-serif" font-size="10.4" lengthAdjust="spacing" textLength="5.6" x="299.3961" y="382.734">1</text><text fill="#000000" font-family="sans-serif" font-size="10.4" lengthAdjust="spacing" textLength="16" x="57.6551" y="690.6659">0..*</text></g><!--link Vehicle to CheckUp--><g id="link_Vehicle_CheckUp"><path codeLine="107" d="M155.744,636.6809 C142.72,658.9689 129.464,681.6649 118.936,699.6889 " fill="none" id="Vehicle-CheckUp" style="stroke:#181818;stroke-width:0.8000000000000002;"/><polygon fill="#000000" points="142.2783,671.6671,147.9584,666.605,143.8982,664.2331,142.2783,671.6671" style="stroke:#000000;stroke-width:0.8000000000000002;"/><text fill="#000000" font-family="sans-serif" font-size="10.4" lengthAdjust="spacing" textLength="24" x="151.496" y="672.5195">owns</text><text fill="#000000" font-family="sans-serif" font-size="10.4" lengthAdjust="spacing" textLength="16" x="135.9161" y="654.0771">0..*</text><text fill="#000000" font-family="sans-serif" font-size="10.4" lengthAdjust="spacing" textLength="5.6" x="116.129" y="690.6222">1</text></g><!--link Team to Collaborator--><g id="link_Team_Collaborator"><path codeLine="108" d="M612.168,910.3609 C603.168,923.0809 592.544,937.2009 581.896,949.2969 C562.84,970.9529 539.584,993.1129 519.904,1010.8249 " fill="none" id="Team-Collaborator" style="stroke:#181818;stroke-width:0.8000000000000002;"/><polygon fill="#000000" points="595.1904,944.7594,601.8166,941.0202,598.3532,937.8395,595.1904,944.7594" style="stroke:#000000;stroke-width:0.8000000000000002;"/><text fill="#000000" font-family="sans-serif" font-size="10.4" lengthAdjust="spacing" textLength="24" x="605.096" y="946.1195">owns</text><text fill="#000000" font-family="sans-serif" font-size="10.4" lengthAdjust="spacing" textLength="5.6" x="602.613" y="928.0147">1</text><text fill="#000000" font-family="sans-serif" font-size="10.4" lengthAdjust="spacing" textLength="16" x="526.3113" y="1002.888">2..*</text></g><!--link Task to Skill--><g id="link_Task_Skill"><path codeLine="109" d="M738.432,750.0969 C750.16,761.2089 765.6,778.4489 772.296,797.2969 C788.296,842.3209 752.264,853.0169 713.896,910.0969 C635.976,1026.0009 635.312,1075.5209 525.096,1161.2969 C497.744,1182.5849 458.92,1195.5609 436.04,1201.8649 " fill="none" id="Task-Skill" style="stroke:#181818;stroke-width:0.8000000000000002;"/><polygon fill="#000000" points="699.671,945.1374,705.6499,940.4319,701.7422,937.8162,699.671,945.1374" style="stroke:#000000;stroke-width:0.8000000000000002;"/><text fill="#000000" font-family="sans-serif" font-size="10.4" lengthAdjust="spacing" textLength="22.4" x="709.096" y="946.1195">need</text><text fill="#000000" font-family="sans-serif" font-size="10.4" lengthAdjust="spacing" textLength="5.6" x="744.7505" y="750.2375">1</text><text fill="#000000" font-family="sans-serif" font-size="10.4" lengthAdjust="spacing" textLength="16" x="442.2708" y="1196.6634">1..*</text></g><!--link Agenda to Task--><g id="link_Agenda_Task"><path codeLine="110" d="M682.8,562.2009 C690.976,597.0489 712.056,686.9369 720.208,721.6889 " fill="none" id="Agenda-Task" style="stroke:#181818;stroke-width:0.8000000000000002;"/><polygon fill="#000000" points="714.8094,672.1076,715.4461,664.5258,710.868,665.5996,714.8094,672.1076" style="stroke:#000000;stroke-width:0.8000000000000002;"/><text fill="#000000" font-family="sans-serif" font-size="10.4" lengthAdjust="spacing" textLength="16.8" x="721.096" y="672.5195">has</text><text fill="#000000" font-family="sans-serif" font-size="10.4" lengthAdjust="spacing" textLength="5.6" x="677.3355" y="579.3285">1</text><text fill="#000000" font-family="sans-serif" font-size="10.4" lengthAdjust="spacing" textLength="16" x="700.7511" y="712.7761">0..*</text></g><!--link Task to Team--><g id="link_Task_Team"><path codeLine="111" d="M719.344,751.3289 C714.344,767.0089 705,792.7689 692.296,812.4969 C686.968,820.7609 680.448,828.9289 673.76,836.4569 " fill="none" id="Task-Team" style="stroke:#181818;stroke-width:0.8000000000000002;"/><polygon fill="#000000" points="702.4078,808.5396,707.8963,803.2703,703.7509,801.0506,702.4078,808.5396" style="stroke:#000000;stroke-width:0.8000000000000002;"/><text fill="#000000" font-family="sans-serif" font-size="10.4" lengthAdjust="spacing" textLength="53.6" x="711.496" y="809.3195">assigned to</text><text fill="#000000" font-family="sans-serif" font-size="10.4" lengthAdjust="spacing" textLength="5.6" x="711.7888" y="768.7109">1</text><text fill="#000000" font-family="sans-serif" font-size="10.4" lengthAdjust="spacing" textLength="5.6" x="673.4679" y="827.3853">1</text></g><!--SRC=[ZLLDRnCn4Btlhx1oHA82ZZaWLGs50caHQU4yiQUxLloHsbwLjkA_uw_TsEcI99VOdlTctendl7R3rHOCI2ArqhGpMY9nfiV6ZfOjq0sqk79F0eb1wa2reWJO3fX-vAebzo0iDeM92h3st3d3rxt3AwhLYZyZUTTqd26Xt53lAQubkaupspIEEnzdeILmHPQQeMYQw8OiUzlgLRyMt8jyQVuEnyXuBuDVzWFCfh1y1-DrJnW-Ws6eoWE3g5O-q-GudzwO5XH_1iUrAiyl1Q9RWl9LCOMJBxq4zHEjxWr5-zg-2tB8TcUp8Li-FVHyAr6vCcMW7LTb4NvXntqj_GdnlxK1nU9AnWA6bGE3ST4QRUrlv6tdufxsndZttsJS6MovTMWMu18Sg1TWUQZ1U1Rkng42HV6YGxgvsruQVEXHqQTetmgFlExb6asA_RJ5KMfcPAaNEVfo5RTNYtIQC37WM8clUfr92cJXJmi1Qst0QLFQOo6uSHs3f0gOvDQMUG1Z1grDcZkjIiteanHPqqBJsv12scNG47-ruK9C2Rj5Fm4lkM1_GXycJAJVt9UwamGRFDbhH8Pib_PvYuf1STUtO5CpDzL4pDxFo5l_YukgTUU4MmBaunJU_vsTlPcL4p3tSaD_si3O6wwHjCV80V9W7K7jpUKHT9LAWQscS4uwi0V0qxDvZFLwOazdn3a-04_uVBbpeXzL05RDF7iNhoP3G_iF_luBYwlKaGDsElL2St9iKVYttPBZZ2h6oRGaCiKQ7fd02YSrfafkJdpByrOX8qvxU8gRHPp8EKNOdeDHuMdieHedqvB- -4BCYUy1z87Zm5LTNGSPtlWgp07yxijHJlG1ml1PEGmVAvRVyKhEeB5ktHqqjtbCV0Z-OUe21c1uwwOxJ_btqYFo1DMPHDem0BMFiUfrZ_m3]--></g></svg>