<?xml version="1.0" encoding="us-ascii" standalone="no"?><svg xmlns="http://www.w3.org/2000/svg" xmlns:xlink="http://www.w3.org/1999/xlink" contentStyleType="text/css" height="1234.4px" preserveAspectRatio="none" style="width:957px;height:1234px;background:#FFFFFF;" version="1.1" viewBox="0 0 957 1234" width="957.6px" zoomAndPan="magnify"><defs/><g><text fill="#000000" font-family="sans-serif" font-size="11.2" font-weight="bold" lengthAdjust="spacing" textLength="80" x="433.436" y="20.0859">Domain Model</text><!--class MusgoSublime--><g id="elem_MusgoSublime"><rect codeLine="11" fill="#F1F1F1" height="29.2969" id="MusgoSublime" rx="2" ry="2" style="stroke:#181818;stroke-width:0.4000000000000001;" width="78.4" x="562.872" y="37.2969"/><text fill="#000000" font-family="sans-serif" font-size="11.2" lengthAdjust="spacing" textLength="73.6" x="565.272" y="53.3828">MusgoSublime</text><line style="stroke:#181818;stroke-width:0.4000000000000001;" x1="563.672" x2="640.472" y1="60.1938" y2="60.1938"/></g><!--class MediumSizedPark--><g id="elem_MediumSizedPark"><rect codeLine="13" fill="#F1F1F1" height="29.2969" id="MediumSizedPark" rx="2" ry="2" style="stroke:#181818;stroke-width:0.4000000000000001;" width="94.4" x="674.072" y="37.2969"/><text fill="#000000" font-family="sans-serif" font-size="11.2" lengthAdjust="spacing" textLength="89.6" x="676.472" y="53.3828">MediumSizedPark</text><line style="stroke:#181818;stroke-width:0.4000000000000001;" x1="674.872" x2="767.672" y1="60.1938" y2="60.1938"/></g><!--class LargeSizedPark--><g id="elem_LargeSizedPark"><rect codeLine="15" fill="#F1F1F1" height="29.2969" id="LargeSizedPark" rx="2" ry="2" style="stroke:#181818;stroke-width:0.4000000000000001;" width="84.8" x="796.472" y="37.2969"/><text fill="#000000" font-family="sans-serif" font-size="11.2" lengthAdjust="spacing" textLength="80" x="798.872" y="53.3828">LargeSizedPark</text><line style="stroke:#181818;stroke-width:0.4000000000000001;" x1="797.272" x2="880.472" y1="60.1938" y2="60.1938"/></g><!--class Garden--><g id="elem_Garden"><rect codeLine="17" fill="#F1F1F1" height="29.2969" id="Garden" rx="2" ry="2" style="stroke:#181818;stroke-width:0.4000000000000001;" width="43.2" x="909.272" y="37.2969"/><text fill="#000000" font-family="sans-serif" font-size="11.2" lengthAdjust="spacing" textLength="38.4" x="911.672" y="53.3828">Garden</text><line style="stroke:#181818;stroke-width:0.4000000000000001;" x1="910.072" x2="951.672" y1="60.1938" y2="60.1938"/></g><!--class GreenSpace--><g id="elem_GreenSpace"><rect codeLine="19" fill="#F1F1F1" height="29.2969" id="GreenSpace" rx="2" ry="2" style="stroke:#181818;stroke-width:0.4000000000000001;" width="68.8" x="747.672" y="130.0969"/><text fill="#000000" font-family="sans-serif" font-size="11.2" lengthAdjust="spacing" textLength="64" x="750.072" y="146.1828">GreenSpace</text><line style="stroke:#181818;stroke-width:0.4000000000000001;" x1="748.472" x2="815.672" y1="152.9938" y2="152.9938"/></g><!--class Organization--><g id="elem_Organization"><rect codeLine="22" fill="#F1F1F1" height="29.2969" id="Organization" rx="2" ry="2" style="stroke:#181818;stroke-width:0.4000000000000001;" width="68.8" x="558.872" y="272.4969"/><text fill="#000000" font-family="sans-serif" font-size="11.2" lengthAdjust="spacing" textLength="64" x="561.272" y="288.5828">Organization</text><line style="stroke:#181818;stroke-width:0.4000000000000001;" x1="559.672" x2="626.872" y1="295.3938" y2="295.3938"/></g><!--class FleetManager--><g id="elem_FleetManager"><rect codeLine="25" fill="#F1F1F1" height="29.2969" id="FleetManager" rx="2" ry="2" style="stroke:#181818;stroke-width:0.4000000000000001;" width="75.2" x="312.472" y="365.2969"/><text fill="#000000" font-family="sans-serif" font-size="11.2" lengthAdjust="spacing" textLength="70.4" x="314.872" y="381.3828">FleetManager</text><line style="stroke:#181818;stroke-width:0.4000000000000001;" x1="313.272" x2="386.872" y1="388.1938" y2="388.1938"/></g><!--class HumanResourcesManager--><g id="elem_HumanResourcesManager"><rect codeLine="27" fill="#F1F1F1" height="44.1938" id="HumanResourcesManager" rx="2" ry="2" style="stroke:#181818;stroke-width:0.4000000000000001;" width="139.2" x="409.272" y="714.4969"/><text fill="#000000" font-family="sans-serif" font-size="11.2" lengthAdjust="spacing" textLength="134.4" x="411.672" y="730.5828">HumanResourcesManager</text><line style="stroke:#181818;stroke-width:0.4000000000000001;" x1="410.072" x2="547.672" y1="737.3938" y2="737.3938"/><text fill="#000000" font-family="sans-serif" font-size="11.2" lengthAdjust="spacing" textLength="28" x="414.072" y="752.6797">name</text></g><!--class GreenSpaceManager--><g id="elem_GreenSpaceManager"><rect codeLine="30" fill="#F1F1F1" height="29.2969" id="GreenSpaceManager" rx="2" ry="2" style="stroke:#181818;stroke-width:0.4000000000000001;" width="113.6" x="657.272" y="365.2969"/><text fill="#000000" font-family="sans-serif" font-size="11.2" lengthAdjust="spacing" textLength="108.8" x="659.672" y="381.3828">GreenSpaceManager</text><line style="stroke:#181818;stroke-width:0.4000000000000001;" x1="658.072" x2="770.072" y1="388.1938" y2="388.1938"/></g><!--class GreenSpaceUser--><g id="elem_GreenSpaceUser"><rect codeLine="32" fill="#F1F1F1" height="29.2969" id="GreenSpaceUser" rx="2" ry="2" style="stroke:#181818;stroke-width:0.4000000000000001;" width="92" x="799.272" y="365.2969"/><text fill="#000000" font-family="sans-serif" font-size="11.2" lengthAdjust="spacing" textLength="87.2" x="801.672" y="381.3828">GreenSpaceUser</text><line style="stroke:#181818;stroke-width:0.4000000000000001;" x1="800.072" x2="890.472" y1="388.1938" y2="388.1938"/></g><!--class Equipment--><g id="elem_Equipment"><rect codeLine="35" fill="#F1F1F1" height="29.2969" id="Equipment" rx="2" ry="2" style="stroke:#181818;stroke-width:0.4000000000000001;" width="58.4" x="324.072" y="532.4969"/><text fill="#000000" font-family="sans-serif" font-size="11.2" lengthAdjust="spacing" textLength="53.6" x="326.472" y="548.5828">Equipment</text><line style="stroke:#181818;stroke-width:0.4000000000000001;" x1="324.872" x2="381.672" y1="555.3938" y2="555.3938"/></g><!--class Machine--><g id="elem_Machine"><rect codeLine="37" fill="#F1F1F1" height="29.2969" id="Machine" rx="2" ry="2" style="stroke:#181818;stroke-width:0.4000000000000001;" width="47.2" x="412.872" y="532.4969"/><text fill="#000000" font-family="sans-serif" font-size="11.2" lengthAdjust="spacing" textLength="42.4" x="415.272" y="548.5828">Machine</text><line style="stroke:#181818;stroke-width:0.4000000000000001;" x1="413.672" x2="459.272" y1="555.3938" y2="555.3938"/></g><!--class Vehicle--><g id="elem_Vehicle"><rect codeLine="39" fill="#F1F1F1" height="178.2656" id="Vehicle" rx="2" ry="2" style="stroke:#181818;stroke-width:0.4000000000000001;" width="174.4" x="121.272" y="458.0969"/><text fill="#000000" font-family="sans-serif" font-size="11.2" lengthAdjust="spacing" textLength="36.8" x="190.072" y="474.1828">Vehicle</text><line style="stroke:#181818;stroke-width:0.4000000000000001;" x1="122.072" x2="294.872" y1="480.9938" y2="480.9938"/><text fill="#000000" font-family="sans-serif" font-size="11.2" lengthAdjust="spacing" textLength="29.6" x="126.072" y="496.2797">brand</text><text fill="#000000" font-family="sans-serif" font-size="11.2" lengthAdjust="spacing" textLength="30.4" x="126.072" y="511.1766">model</text><text fill="#000000" font-family="sans-serif" font-size="11.2" lengthAdjust="spacing" textLength="20" x="126.072" y="526.0734">tare</text><text fill="#000000" font-family="sans-serif" font-size="11.2" lengthAdjust="spacing" textLength="63.2" x="126.072" y="540.9703">grossWeight</text><text fill="#000000" font-family="sans-serif" font-size="11.2" lengthAdjust="spacing" textLength="52" x="126.072" y="555.8672">currentKm</text><text fill="#000000" font-family="sans-serif" font-size="11.2" lengthAdjust="spacing" textLength="62.4" x="126.072" y="570.7641">registerDate</text><text fill="#000000" font-family="sans-serif" font-size="11.2" lengthAdjust="spacing" textLength="77.6" x="126.072" y="585.6609">acquisitionDate</text><text fill="#000000" font-family="sans-serif" font-size="11.2" lengthAdjust="spacing" textLength="164.8" x="126.072" y="600.5578">maintenanceCheckUpFrequency</text><text fill="#000000" font-family="sans-serif" font-size="11.2" lengthAdjust="spacing" textLength="64" x="126.072" y="615.4547">plateNumber</text><text fill="#000000" font-family="sans-serif" font-size="11.2" lengthAdjust="spacing" textLength="21.6" x="126.072" y="630.3516">type</text></g><!--class CheckUp--><g id="elem_CheckUp"><rect codeLine="51" fill="#F1F1F1" height="73.9875" id="CheckUp" rx="2" ry="2" style="stroke:#181818;stroke-width:0.4000000000000001;" width="79.2" x="10.472" y="699.6969"/><text fill="#000000" font-family="sans-serif" font-size="11.2" lengthAdjust="spacing" textLength="45.6" x="27.272" y="715.7828">CheckUp</text><line style="stroke:#181818;stroke-width:0.4000000000000001;" x1="11.272" x2="88.872" y1="722.5938" y2="722.5938"/><text fill="#000000" font-family="sans-serif" font-size="11.2" lengthAdjust="spacing" textLength="61.6" x="15.272" y="737.8797">CurrentKMS</text><text fill="#000000" font-family="sans-serif" font-size="11.2" lengthAdjust="spacing" textLength="10.4" x="15.272" y="752.7766">ID</text><text fill="#000000" font-family="sans-serif" font-size="11.2" lengthAdjust="spacing" textLength="69.6" x="15.272" y="767.6734">CheckUpDate</text></g><!--class Type--><g id="elem_Type"><rect codeLine="56" fill="#F1F1F1" height="73.9875" id="Type" rx="2" ry="2" style="stroke:#181818;stroke-width:0.4000000000000001;" width="174.4" x="121.272" y="699.6969"/><text fill="#000000" font-family="sans-serif" font-size="11.2" lengthAdjust="spacing" textLength="25.6" x="195.672" y="715.7828">Type</text><line style="stroke:#181818;stroke-width:0.4000000000000001;" x1="122.072" x2="294.872" y1="722.5938" y2="722.5938"/><text fill="#000000" font-family="sans-serif" font-size="11.2" lengthAdjust="spacing" textLength="100.8" x="126.072" y="737.8797">passengersOrMixed</text><text fill="#000000" font-family="sans-serif" font-size="11.2" lengthAdjust="spacing" textLength="64.8" x="126.072" y="752.7766">lightOrHeavy</text><text fill="#000000" font-family="sans-serif" font-size="11.2" lengthAdjust="spacing" textLength="164.8" x="126.072" y="767.6734">openBoxOrClosedVansOrTrucks</text></g><!--class Job--><g id="elem_Job"><rect codeLine="62" fill="#F1F1F1" height="44.1938" id="Job" rx="2" ry="2" style="stroke:#181818;stroke-width:0.4000000000000001;" width="37.6" x="507.272" y="851.2969"/><text fill="#000000" font-family="sans-serif" font-size="11.2" lengthAdjust="spacing" textLength="17.6" x="517.272" y="867.3828">Job</text><line style="stroke:#181818;stroke-width:0.4000000000000001;" x1="508.072" x2="544.072" y1="874.1938" y2="874.1938"/><text fill="#000000" font-family="sans-serif" font-size="11.2" lengthAdjust="spacing" textLength="28" x="512.072" y="889.4797">name</text></g><!--class Collaborator--><g id="elem_Collaborator"><rect codeLine="65" fill="#F1F1F1" height="148.4719" id="Collaborator" rx="2" ry="2" style="stroke:#181818;stroke-width:0.4000000000000001;" width="84" x="436.872" y="973.2969"/><text fill="#000000" font-family="sans-serif" font-size="11.2" lengthAdjust="spacing" textLength="62.4" x="447.672" y="989.3828">Collaborator</text><line style="stroke:#181818;stroke-width:0.4000000000000001;" x1="437.672" x2="520.072" y1="996.1938" y2="996.1938"/><text fill="#000000" font-family="sans-serif" font-size="11.2" lengthAdjust="spacing" textLength="28" x="441.672" y="1011.4797">name</text><text fill="#000000" font-family="sans-serif" font-size="11.2" lengthAdjust="spacing" textLength="40.8" x="441.672" y="1026.3766">birthday</text><text fill="#000000" font-family="sans-serif" font-size="11.2" lengthAdjust="spacing" textLength="74.4" x="441.672" y="1041.2734">admissionDate</text><text fill="#000000" font-family="sans-serif" font-size="11.2" lengthAdjust="spacing" textLength="40.8" x="441.672" y="1056.1703">address</text><text fill="#000000" font-family="sans-serif" font-size="11.2" lengthAdjust="spacing" textLength="71.2" x="441.672" y="1071.0672">phoneNumber</text><text fill="#000000" font-family="sans-serif" font-size="11.2" lengthAdjust="spacing" textLength="26.4" x="441.672" y="1085.9641">email</text><text fill="#000000" font-family="sans-serif" font-size="11.2" lengthAdjust="spacing" textLength="56" x="441.672" y="1100.8609">IDDocType</text><text fill="#000000" font-family="sans-serif" font-size="11.2" lengthAdjust="spacing" textLength="49.6" x="441.672" y="1115.7578">IDNumber</text></g><!--class Skill--><g id="elem_Skill"><rect codeLine="75" fill="#F1F1F1" height="44.1938" id="Skill" rx="2" ry="2" style="stroke:#181818;stroke-width:0.4000000000000001;" width="37.6" x="399.272" y="1185.2969"/><text fill="#000000" font-family="sans-serif" font-size="11.2" lengthAdjust="spacing" textLength="20" x="408.072" y="1201.3828">Skill</text><line style="stroke:#181818;stroke-width:0.4000000000000001;" x1="400.072" x2="436.072" y1="1208.1938" y2="1208.1938"/><text fill="#000000" font-family="sans-serif" font-size="11.2" lengthAdjust="spacing" textLength="28" x="404.072" y="1223.4797">name</text></g><!--class Team--><g id="elem_Team"><rect codeLine="78" fill="#F1F1F1" height="73.9875" id="Team" rx="2" ry="2" style="stroke:#181818;stroke-width:0.4000000000000001;" width="128" x="573.272" y="836.4969"/><text fill="#000000" font-family="sans-serif" font-size="11.2" lengthAdjust="spacing" textLength="28.8" x="622.872" y="852.5828">Team</text><line style="stroke:#181818;stroke-width:0.4000000000000001;" x1="574.072" x2="700.472" y1="859.3938" y2="859.3938"/><text fill="#000000" font-family="sans-serif" font-size="11.2" lengthAdjust="spacing" textLength="40.8" x="578.072" y="874.6797">maxSize</text><text fill="#000000" font-family="sans-serif" font-size="11.2" lengthAdjust="spacing" textLength="118.4" x="578.072" y="889.5766">numberOfCollaborators</text><text fill="#000000" font-family="sans-serif" font-size="11.2" lengthAdjust="spacing" textLength="63.2" x="578.072" y="904.4734">skillsNeeded</text></g><!--class Agenda--><g id="elem_Agenda"><rect codeLine="84" fill="#F1F1F1" height="29.2969" id="Agenda" rx="2" ry="2" style="stroke:#181818;stroke-width:0.4000000000000001;" width="44" x="658.472" y="532.4969"/><text fill="#000000" font-family="sans-serif" font-size="11.2" lengthAdjust="spacing" textLength="39.2" x="660.872" y="548.5828">Agenda</text><line style="stroke:#181818;stroke-width:0.4000000000000001;" x1="659.272" x2="701.672" y1="555.3938" y2="555.3938"/></g><!--class Task--><g id="elem_Task"><rect codeLine="86" fill="#F1F1F1" height="29.2969" id="Task" rx="2" ry="2" style="stroke:#181818;stroke-width:0.4000000000000001;" width="29.6" x="709.672" y="721.6969"/><text fill="#000000" font-family="sans-serif" font-size="11.2" lengthAdjust="spacing" textLength="24.8" x="712.072" y="737.7828">Task</text><line style="stroke:#181818;stroke-width:0.4000000000000001;" x1="710.472" x2="738.472" y1="744.5938" y2="744.5938"/></g><!--link MusgoSublime to Organization--><g id="link_MusgoSublime_Organization"><path codeLine="89" d="M601.536,67.1609 C599.96,108.9609 595.368,230.8569 593.8,272.4249 " fill="none" id="MusgoSublime-Organization" style="stroke:#181818;stroke-width:0.8000000000000002;"/><polygon fill="#000000" points="601.1214,195.4104,603.7433,188.2681,599.0444,188.091,601.1214,195.4104" style="stroke:#000000;stroke-width:0.8000000000000002;"/><text fill="#000000" font-family="sans-serif" font-size="10.4" lengthAdjust="spacing" textLength="16.8" x="608.472" y="195.7195">is a</text><text fill="#000000" font-family="sans-serif" font-size="10.4" lengthAdjust="spacing" textLength="5.6" x="595.0395" y="84.3315">1</text><text fill="#000000" font-family="sans-serif" font-size="10.4" lengthAdjust="spacing" textLength="5.6" x="587.5042" y="263.4925">1</text></g><!--link MusgoSublime to GreenSpace--><g id="link_MusgoSublime_GreenSpace"><path codeLine="90" d="M622.592,67.0569 C639.576,78.4329 664.576,94.3849 687.672,106.0969 C706.976,115.8889 729.416,125.0089 747.576,131.8569 " fill="none" id="MusgoSublime-GreenSpace" style="stroke:#181818;stroke-width:0.8000000000000002;"/><polygon fill="#000000" points="695.2231,100.4544,689.8813,95.0365,687.7169,99.2111,695.2231,100.4544" style="stroke:#000000;stroke-width:0.8000000000000002;"/><text fill="#000000" font-family="sans-serif" font-size="10.4" lengthAdjust="spacing" textLength="42.4" x="698.872" y="102.9195">manages</text><text fill="#000000" font-family="sans-serif" font-size="10.4" lengthAdjust="spacing" textLength="5.6" x="621.7543" y="84.1995">1</text><text fill="#000000" font-family="sans-serif" font-size="10.4" lengthAdjust="spacing" textLength="16" x="725.3344" y="126.6049">1..*</text></g><!--link MediumSizedPark to GreenSpace--><g id="link_MediumSizedPark_GreenSpace"><path codeLine="91" d="M730.776,67.1449 C742.192,84.2809 761.248,112.8569 772.64,129.9449 " fill="none" id="MediumSizedPark-GreenSpace" style="stroke:#181818;stroke-width:0.8000000000000002;"/><polygon fill="#000000" points="761.0907,101.9415,759.0333,94.6165,755.1207,97.2248,761.0907,101.9415" style="stroke:#000000;stroke-width:0.8000000000000002;"/><text fill="#000000" font-family="sans-serif" font-size="10.4" lengthAdjust="spacing" textLength="16.8" x="766.072" y="102.9195">is a</text><text fill="#000000" font-family="sans-serif" font-size="10.4" lengthAdjust="spacing" textLength="5.6" x="726.9777" y="84.3112">1</text><text fill="#000000" font-family="sans-serif" font-size="10.4" lengthAdjust="spacing" textLength="5.6" x="763.294" y="120.988">1</text></g><!--link Garden to GreenSpace--><g id="link_Garden_GreenSpace"><path codeLine="92" d="M909.728,66.9929 C893.2,77.9049 869.568,93.2649 848.472,106.0969 C835.08,114.2409 819.928,122.9529 807.48,129.9769 " fill="none" id="Garden-GreenSpace" style="stroke:#181818;stroke-width:0.8000000000000002;"/><polygon fill="#000000" points="871.4663,100.7112,878.8604,98.9179,876.3942,94.9142,871.4663,100.7112" style="stroke:#000000;stroke-width:0.8000000000000002;"/><text fill="#000000" font-family="sans-serif" font-size="10.4" lengthAdjust="spacing" textLength="16.8" x="882.072" y="102.9195">is a</text><text fill="#000000" font-family="sans-serif" font-size="10.4" lengthAdjust="spacing" textLength="5.6" x="897.3938" y="66.9679">1</text><text fill="#000000" font-family="sans-serif" font-size="10.4" lengthAdjust="spacing" textLength="5.6" x="808.8037" y="121.0298">1</text></g><!--link LargeSizedPark to GreenSpace--><g id="link_LargeSizedPark_GreenSpace"><path codeLine="93" d="M830,67.1449 C819.328,84.2809 801.528,112.8569 790.888,129.9449 " fill="none" id="LargeSizedPark-GreenSpace" style="stroke:#181818;stroke-width:0.8000000000000002;"/><polygon fill="#000000" points="815.1574,102.0086,820.9785,97.1093,816.987,94.6234,815.1574,102.0086" style="stroke:#000000;stroke-width:0.8000000000000002;"/><text fill="#000000" font-family="sans-serif" font-size="10.4" lengthAdjust="spacing" textLength="16.8" x="824.472" y="102.9195">is a</text><text fill="#000000" font-family="sans-serif" font-size="10.4" lengthAdjust="spacing" textLength="5.6" x="821.2632" y="84.3112">1</text><text fill="#000000" font-family="sans-serif" font-size="10.4" lengthAdjust="spacing" textLength="5.6" x="787.1304" y="120.988">1</text></g><!--link Organization to FleetManager--><g id="link_Organization_FleetManager"><path codeLine="94" d="M558.824,298.0009 C534.664,305.1849 501.728,315.4809 473.272,326.0969 C441.08,338.1129 405.08,353.9449 380.352,365.2009 " fill="none" id="Organization-FleetManager" style="stroke:#181818;stroke-width:0.8000000000000002;"/><polygon fill="#000000" points="473.5286,335.2228,481.129,334.8733,479.472,330.4726,473.5286,335.2228" style="stroke:#000000;stroke-width:0.8000000000000002;"/><text fill="#000000" font-family="sans-serif" font-size="10.4" lengthAdjust="spacing" textLength="16.8" x="484.472" y="338.1195">has</text><text fill="#000000" font-family="sans-serif" font-size="10.4" lengthAdjust="spacing" textLength="5.6" x="546.822" y="296.3406">1</text><text fill="#000000" font-family="sans-serif" font-size="10.4" lengthAdjust="spacing" textLength="5.6" x="383.1678" y="356.2612">1</text></g><!--link Organization to HumanResourcesManager--><g id="link_Organization_HumanResourcesManager"><path codeLine="95" d="M589.656,302.2329 C573.08,367.0969 504.248,636.4169 484.304,714.4329 " fill="none" id="Organization-HumanResourcesManager" style="stroke:#181818;stroke-width:0.8000000000000002;"/><polygon fill="#000000" points="562.6815,430.4887,566.7512,424.0602,562.1954,422.8958,562.6815,430.4887" style="stroke:#000000;stroke-width:0.8000000000000002;"/><text fill="#000000" font-family="sans-serif" font-size="10.4" lengthAdjust="spacing" textLength="16.8" x="570.872" y="430.9195">has</text><text fill="#000000" font-family="sans-serif" font-size="10.4" lengthAdjust="spacing" textLength="5.6" x="582.3317" y="319.3691">1</text><text fill="#000000" font-family="sans-serif" font-size="10.4" lengthAdjust="spacing" textLength="5.6" x="479.3127" y="705.3852">1</text></g><!--link Organization to GreenSpaceManager--><g id="link_Organization_GreenSpaceManager"><path codeLine="96" d="M611.88,302.1449 C634.584,319.2889 672.728,348.0889 695.44,365.2329 " fill="none" id="Organization-GreenSpaceManager" style="stroke:#181818;stroke-width:0.8000000000000002;"/><polygon fill="#000000" points="668.4643,336.2235,664.106,329.987,661.2727,333.7398,668.4643,336.2235" style="stroke:#000000;stroke-width:0.8000000000000002;"/><text fill="#000000" font-family="sans-serif" font-size="10.4" lengthAdjust="spacing" textLength="16.8" x="672.472" y="338.1195">has</text><text fill="#000000" font-family="sans-serif" font-size="10.4" lengthAdjust="spacing" textLength="5.6" x="610.726" y="319.5314">1</text><text fill="#000000" font-family="sans-serif" font-size="10.4" lengthAdjust="spacing" textLength="5.6" x="683.2765" y="356.303">1</text></g><!--link Organization to GreenSpaceUser--><g id="link_Organization_GreenSpaceUser"><path codeLine="97" d="M627.784,300.5849 C674.488,317.4889 757.592,347.5609 806.432,365.2409 " fill="none" id="Organization-GreenSpaceUser" style="stroke:#181818;stroke-width:0.8000000000000002;"/><polygon fill="#000000" points="742.6332,335.1745,736.6292,330.5012,735.029,334.9228,742.6332,335.1745" style="stroke:#000000;stroke-width:0.8000000000000002;"/><text fill="#000000" font-family="sans-serif" font-size="10.4" lengthAdjust="spacing" textLength="16.8" x="746.072" y="338.1195">has</text><text fill="#000000" font-family="sans-serif" font-size="10.4" lengthAdjust="spacing" textLength="5.6" x="633.9638" y="299.3265">1</text><text fill="#000000" font-family="sans-serif" font-size="10.4" lengthAdjust="spacing" textLength="5.6" x="788.0798" y="356.3134">1</text></g><!--link Organization to Agenda--><g id="link_Organization_Agenda"><path codeLine="98" d="M593.616,302.2169 C594.448,322.9529 597.272,362.6489 606.872,394.8969 C622.776,448.3129 655.768,506.1769 671.608,532.2969 " fill="none" id="Organization-Agenda" style="stroke:#181818;stroke-width:0.8000000000000002;"/><polygon fill="#000000" points="612.1561,384.0016,612.0598,376.3937,607.6064,377.9033,612.1561,384.0016" style="stroke:#000000;stroke-width:0.8000000000000002;"/><text fill="#000000" font-family="sans-serif" font-size="10.4" lengthAdjust="spacing" textLength="24" x="618.072" y="384.5195">owns</text><text fill="#000000" font-family="sans-serif" font-size="10.4" lengthAdjust="spacing" textLength="5.6" x="594.461" y="319.3488">1</text><text fill="#000000" font-family="sans-serif" font-size="10.4" lengthAdjust="spacing" textLength="5.6" x="662.5817" y="523.5945">1</text></g><!--link Collaborator to Job--><g id="link_Collaborator_Job"><path codeLine="99" d="M520.968,997.2249 C530.888,982.6809 540.088,966.1449 545.272,949.2969 C550.824,931.2649 544.56,910.4649 537.744,895.3209 " fill="none" id="Collaborator-Job" style="stroke:#181818;stroke-width:0.8000000000000002;"/><polygon fill="#000000" points="552.3218,937.8664,548.8264,944.6245,553.4663,945.3883,552.3218,937.8664" style="stroke:#000000;stroke-width:0.8000000000000002;"/><text fill="#000000" font-family="sans-serif" font-size="10.4" lengthAdjust="spacing" textLength="16.8" x="558.872" y="946.1195">has</text><text fill="#000000" font-family="sans-serif" font-size="10.4" lengthAdjust="spacing" textLength="16" x="527.3866" y="987.5455">0..*</text><text fill="#000000" font-family="sans-serif" font-size="10.4" lengthAdjust="spacing" textLength="5.6" x="534.1957" y="913.2136">1</text></g><!--link Job to Collaborator--><g id="link_Job_Collaborator"><path codeLine="104" d="M507.072,889.1689 C494.848,900.1449 480.032,916.1849 473.272,934.0969 C468.672,946.2969 466.832,959.7689 466.64,973.0329 " fill="none" id="Job-Collaborator" style="stroke:#181818;stroke-width:0.8000000000000002;"/><polygon fill="#000000" points="475.5349,945.4164,480.7952,939.9193,476.5595,937.8773,475.5349,945.4164" style="stroke:#000000;stroke-width:0.8000000000000002;"/><text fill="#000000" font-family="sans-serif" font-size="10.4" lengthAdjust="spacing" textLength="53.6" x="484.472" y="946.1195">assigned to</text><text fill="#000000" font-family="sans-serif" font-size="10.4" lengthAdjust="spacing" textLength="5.6" x="495.3408" y="889.3485">1</text><text fill="#000000" font-family="sans-serif" font-size="10.4" lengthAdjust="spacing" textLength="16" x="466.3028" y="964.1862">0..*</text></g><!--link Collaborator to Skill--><g id="link_Collaborator_Skill"><path codeLine="100" d="M436.816,1101.4969 C428.136,1115.2729 420.248,1130.6089 415.672,1146.0969 C411.952,1158.6809 412.44,1173.3689 413.912,1185.1209 " fill="none" id="Collaborator-Skill" style="stroke:#181818;stroke-width:0.8000000000000002;"/><polygon fill="#000000" points="418.6153,1157.6712,422.7945,1151.3133,418.2592,1150.0711,418.6153,1157.6712" style="stroke:#000000;stroke-width:0.8000000000000002;"/><text fill="#000000" font-family="sans-serif" font-size="10.4" lengthAdjust="spacing" textLength="16.8" x="426.872" y="1158.1195">has</text><text fill="#000000" font-family="sans-serif" font-size="10.4" lengthAdjust="spacing" textLength="16" x="414.4026" y="1105.1773">0..*</text><text fill="#000000" font-family="sans-serif" font-size="10.4" lengthAdjust="spacing" textLength="16" x="414.752" y="1176.4093">1..*</text></g><!--link Skill to Collaborator--><g id="link_Skill_Collaborator"><path codeLine="105" d="M433.96,1185.2169 C438.872,1177.9049 443.96,1169.5049 447.672,1161.2969 C453.24,1148.9849 458.024,1135.4569 462.048,1122.1769 " fill="none" id="Skill-Collaborator" style="stroke:#181818;stroke-width:0.8000000000000002;"/><polygon fill="#000000" points="459.7,1150.1595,454.6073,1155.8123,458.9026,1157.7261,459.7,1150.1595" style="stroke:#000000;stroke-width:0.8000000000000002;"/><text fill="#000000" font-family="sans-serif" font-size="10.4" lengthAdjust="spacing" textLength="53.6" x="465.272" y="1158.1195">assigned to</text><text fill="#000000" font-family="sans-serif" font-size="10.4" lengthAdjust="spacing" textLength="16" x="439.4841" y="1176.1655">1..*</text><text fill="#000000" font-family="sans-serif" font-size="10.4" lengthAdjust="spacing" textLength="16" x="444.225" y="1139.3891">0..*</text></g><!--link HumanResourcesManager to Job--><g id="link_HumanResourcesManager_Job"><path codeLine="101" d="M474.08,758.6969 C471.6,774.1129 470.24,795.1689 476.472,812.4969 C482.6,829.5369 495.904,845.1769 507.192,856.2169 " fill="none" id="HumanResourcesManager-Job" style="stroke:#181818;stroke-width:0.8000000000000002;"/><polygon fill="#000000" points="481.7581,808.8009,481.6579,801.1931,477.2053,802.705,481.7581,808.8009" style="stroke:#000000;stroke-width:0.8000000000000002;"/><text fill="#000000" font-family="sans-serif" font-size="10.4" lengthAdjust="spacing" textLength="33.6" x="487.672" y="809.3195">selects</text><text fill="#000000" font-family="sans-serif" font-size="10.4" lengthAdjust="spacing" textLength="5.6" x="466.8193" y="776.2676">1</text><text fill="#000000" font-family="sans-serif" font-size="10.4" lengthAdjust="spacing" textLength="5.6" x="495.2235" y="846.8305">1</text></g><!--link HumanResourcesManager to Job--><g id="link_HumanResourcesManager_Job"><path codeLine="103" d="M500.824,758.5609 C510.264,769.1929 520.256,782.8649 525.272,797.2969 C531.312,814.6889 530.944,835.7289 529.392,851.1289 " fill="none" id="HumanResourcesManager-Job-1" style="stroke:#181818;stroke-width:0.8000000000000002;"/><polygon fill="#000000" points="534.4516,808.8354,534.5643,801.2278,530.0711,802.6145,534.4516,808.8354" style="stroke:#000000;stroke-width:0.8000000000000002;"/><text fill="#000000" font-family="sans-serif" font-size="10.4" lengthAdjust="spacing" textLength="34.4" x="540.472" y="809.3195">register</text><text fill="#000000" font-family="sans-serif" font-size="10.4" lengthAdjust="spacing" textLength="5.6" x="499.6529" y="776.4628">1</text><text fill="#000000" font-family="sans-serif" font-size="10.4" lengthAdjust="spacing" textLength="16" x="512.3683" y="842.4191">0..*</text></g><!--link HumanResourcesManager to Skill--><g id="link_HumanResourcesManager_Skill"><path codeLine="102" d="M409.064,756.1529 C385.2,765.3849 359.856,778.6569 341.272,797.2969 C294.488,844.2089 295.504,869.2249 282.072,934.0969 C264.88,1017.1129 173.056,942.5609 341.272,1161.2969 C356.08,1180.5529 381.608,1193.1929 399.144,1200.0809 " fill="none" id="HumanResourcesManager-Skill" style="stroke:#181818;stroke-width:0.8000000000000002;"/><polygon fill="#000000" points="285.9826,945.8123,288.4948,938.6305,283.7937,938.5255,285.9826,945.8123" style="stroke:#000000;stroke-width:0.8000000000000002;"/><text fill="#000000" font-family="sans-serif" font-size="10.4" lengthAdjust="spacing" textLength="33.6" x="293.272" y="946.1195">selects</text><text fill="#000000" font-family="sans-serif" font-size="10.4" lengthAdjust="spacing" textLength="5.6" x="397.2243" y="754.882">1</text><text fill="#000000" font-family="sans-serif" font-size="10.4" lengthAdjust="spacing" textLength="16" x="376.9169" y="1194.4668">1..*</text></g><!--link HumanResourcesManager to Skill--><g id="link_HumanResourcesManager_Skill"><path codeLine="107" d="M466.112,758.7369 C446.08,793.8889 408.328,866.6089 396.472,934.0969 C378.984,1033.6569 392.168,1061.2889 406.872,1161.2969 C408.04,1169.2169 409.976,1177.7689 411.912,1185.2809 " fill="none" id="HumanResourcesManager-Skill-1" style="stroke:#181818;stroke-width:0.8000000000000002;"/><polygon fill="#000000" points="399.9678,945.7814,403.2123,938.8994,398.5475,938.3067,399.9678,945.7814" style="stroke:#000000;stroke-width:0.8000000000000002;"/><text fill="#000000" font-family="sans-serif" font-size="10.4" lengthAdjust="spacing" textLength="34.4" x="407.672" y="946.1195">register</text><text fill="#000000" font-family="sans-serif" font-size="10.4" lengthAdjust="spacing" textLength="5.6" x="457.1083" y="776.3163">1</text><text fill="#000000" font-family="sans-serif" font-size="10.4" lengthAdjust="spacing" textLength="16" x="392.6375" y="1176.2443">0..*</text></g><!--link HumanResourcesManager to Collaborator--><g id="link_HumanResourcesManager_Collaborator"><path codeLine="106" d="M469.896,758.4969 C462.04,778.2649 451.232,808.7849 446.872,836.4969 C439.736,881.8489 447.064,932.7369 456.504,973.1129 " fill="none" id="HumanResourcesManager-Collaborator" style="stroke:#181818;stroke-width:0.8000000000000002;"/><polygon fill="#000000" points="450.6229,877.4055,453.4201,870.3299,448.727,870.0371,450.6229,877.4055" style="stroke:#000000;stroke-width:0.8000000000000002;"/><text fill="#000000" font-family="sans-serif" font-size="10.4" lengthAdjust="spacing" textLength="34.4" x="458.072" y="877.7195">register</text><text fill="#000000" font-family="sans-serif" font-size="10.4" lengthAdjust="spacing" textLength="5.6" x="461.5728" y="776.384">1</text><text fill="#000000" font-family="sans-serif" font-size="10.4" lengthAdjust="spacing" textLength="16" x="438.0841" y="964.2726">0..*</text></g><!--link HumanResourcesManager to Team--><g id="link_HumanResourcesManager_Team"><path codeLine="108" d="M524.48,758.5769 C543.48,768.7209 565.04,781.9929 582.072,797.2969 C594.6,808.5529 606.056,823.0809 615.248,836.3529 " fill="none" id="HumanResourcesManager-Team" style="stroke:#181818;stroke-width:0.8000000000000002;"/><polygon fill="#000000" points="603.5094,807.616,599.5445,801.1223,596.4848,804.693,603.5094,807.616" style="stroke:#000000;stroke-width:0.8000000000000002;"/><text fill="#000000" font-family="sans-serif" font-size="10.4" lengthAdjust="spacing" textLength="45.6" x="607.672" y="809.3195">generates</text><text fill="#000000" font-family="sans-serif" font-size="10.4" lengthAdjust="spacing" textLength="5.6" x="528.7794" y="776.4825">1</text><text fill="#000000" font-family="sans-serif" font-size="10.4" lengthAdjust="spacing" textLength="16" x="594.8382" y="827.5393">1..*</text></g><!--link FleetManager to Vehicle--><g id="link_FleetManager_Vehicle"><path codeLine="109" d="M325.488,395.0169 C315.344,401.5209 303.888,409.8089 294.872,418.8969 C283.192,430.6729 272.096,444.2249 261.992,458.0089 " fill="none" id="FleetManager-Vehicle" style="stroke:#181818;stroke-width:0.8000000000000002;"/><polygon fill="#000000" points="296.0323,429.4304,302.8252,426.0033,299.5135,422.6651,296.0323,429.4304" style="stroke:#000000;stroke-width:0.8000000000000002;"/><text fill="#000000" font-family="sans-serif" font-size="10.4" lengthAdjust="spacing" textLength="34.4" x="306.072" y="430.9195">register</text><text fill="#000000" font-family="sans-serif" font-size="10.4" lengthAdjust="spacing" textLength="5.6" x="312.5286" y="412.1488">1</text><text fill="#000000" font-family="sans-serif" font-size="10.4" lengthAdjust="spacing" textLength="16" x="249.0504" y="449.188">0..*</text></g><!--link FleetManager to Equipment--><g id="link_FleetManager_Equipment"><path codeLine="110" d="M348.968,394.9609 C348.464,402.1209 347.92,410.9689 347.672,418.8969 C346.368,460.1209 349.92,508.8009 351.952,532.3369 " fill="none" id="FleetManager-Equipment" style="stroke:#181818;stroke-width:0.8000000000000002;"/><polygon fill="#000000" points="351.7589,430.6123,353.9523,423.3269,349.2511,423.429,351.7589,430.6123" style="stroke:#000000;stroke-width:0.8000000000000002;"/><text fill="#000000" font-family="sans-serif" font-size="10.4" lengthAdjust="spacing" textLength="42.4" x="358.872" y="430.9195">manages</text><text fill="#000000" font-family="sans-serif" font-size="10.4" lengthAdjust="spacing" textLength="5.6" x="342.27" y="412.3519">1</text><text fill="#000000" font-family="sans-serif" font-size="10.4" lengthAdjust="spacing" textLength="16" x="333.0978" y="523.3776">0..*</text></g><!--link FleetManager to Machine--><g id="link_FleetManager_Machine"><path codeLine="111" d="M378.648,395.0009 C388.4,401.1129 398.536,409.1289 405.272,418.8969 C429.744,454.3769 435.088,507.0169 436.208,532.1449 " fill="none" id="FleetManager-Machine" style="stroke:#181818;stroke-width:0.8000000000000002;"/><polygon fill="#000000" points="418.82,430.3016,418.1876,422.7195,413.8517,424.5393,418.82,430.3016" style="stroke:#000000;stroke-width:0.8000000000000002;"/><text fill="#000000" font-family="sans-serif" font-size="10.4" lengthAdjust="spacing" textLength="42.4" x="424.472" y="430.9195">manages</text><text fill="#000000" font-family="sans-serif" font-size="10.4" lengthAdjust="spacing" textLength="5.6" x="379.9753" y="412.1285">1</text><text fill="#000000" font-family="sans-serif" font-size="10.4" lengthAdjust="spacing" textLength="16" x="417.7805" y="523.3978">0..*</text></g><!--link FleetManager to CheckUp--><g id="link_FleetManager_CheckUp"><path codeLine="112" d="M312.336,385.4169 C241.264,394.7849 91.888,418.7609 60.472,458.0969 C4.8,527.8169 24.16,641.7449 39.184,699.5689 " fill="none" id="FleetManager-CheckUp" style="stroke:#181818;stroke-width:0.8000000000000002;"/><polygon fill="#000000" points="61.8474,550.4318,68.3696,546.5139,64.8211,543.4285,61.8474,550.4318" style="stroke:#000000;stroke-width:0.8000000000000002;"/><text fill="#000000" font-family="sans-serif" font-size="10.4" lengthAdjust="spacing" textLength="34.4" x="71.672" y="551.7195">register</text><text fill="#000000" font-family="sans-serif" font-size="10.4" lengthAdjust="spacing" textLength="5.6" x="300.5289" y="382.8539">1</text><text fill="#000000" font-family="sans-serif" font-size="10.4" lengthAdjust="spacing" textLength="16" x="20.4098" y="690.7576">0..*</text></g><!--link Vehicle to CheckUp--><g id="link_Vehicle_CheckUp"><path codeLine="113" d="M133.68,636.6809 C114.856,658.9689 95.696,681.6649 80.48,699.6889 " fill="none" id="Vehicle-CheckUp" style="stroke:#181818;stroke-width:0.8000000000000002;"/><polygon fill="#000000" points="112.2915,671.2696,118.7561,667.2575,115.1633,664.2239,112.2915,671.2696" style="stroke:#000000;stroke-width:0.8000000000000002;"/><text fill="#000000" font-family="sans-serif" font-size="10.4" lengthAdjust="spacing" textLength="24" x="122.072" y="672.5195">owns</text><text fill="#000000" font-family="sans-serif" font-size="10.4" lengthAdjust="spacing" textLength="16" x="112.3761" y="654.0771">0..*</text><text fill="#000000" font-family="sans-serif" font-size="10.4" lengthAdjust="spacing" textLength="5.6" x="79.1075" y="690.6222">1</text></g><!--link Vehicle to Type--><g id="link_Vehicle_Type"><path codeLine="114" d="M208.472,636.6809 C208.472,658.9689 208.472,681.6649 208.472,699.6889 " fill="none" id="Vehicle-Type" style="stroke:#181818;stroke-width:0.8000000000000002;"/><polygon fill="#000000" points="212.472,672.2133,214.8231,664.9772,210.1209,664.9772,212.472,672.2133" style="stroke:#000000;stroke-width:0.8000000000000002;"/><text fill="#000000" font-family="sans-serif" font-size="10.4" lengthAdjust="spacing" textLength="59.2" x="219.672" y="672.5195">cataloged as</text><text fill="#000000" font-family="sans-serif" font-size="10.4" lengthAdjust="spacing" textLength="16" x="191.9595" y="654.0771">0..*</text><text fill="#000000" font-family="sans-serif" font-size="10.4" lengthAdjust="spacing" textLength="5.6" x="202.4433" y="690.6222">1</text></g><!--link Team to Collaborator--><g id="link_Team_Collaborator"><path codeLine="115" d="M613.152,910.3609 C604.144,923.0809 593.52,937.2009 582.872,949.2969 C563.816,970.9529 540.56,993.1129 520.88,1010.8249 " fill="none" id="Team-Collaborator" style="stroke:#181818;stroke-width:0.8000000000000002;"/><polygon fill="#000000" points="596.1662,944.7593,602.7926,941.0203,599.3294,937.8395,596.1662,944.7593" style="stroke:#000000;stroke-width:0.8000000000000002;"/><text fill="#000000" font-family="sans-serif" font-size="10.4" lengthAdjust="spacing" textLength="16.8" x="606.072" y="946.1195">has</text><text fill="#000000" font-family="sans-serif" font-size="10.4" lengthAdjust="spacing" textLength="5.6" x="603.5981" y="928.0147">1</text><text fill="#000000" font-family="sans-serif" font-size="10.4" lengthAdjust="spacing" textLength="16" x="527.2873" y="1002.888">2..*</text></g><!--link Task to Skill--><g id="link_Task_Skill"><path codeLine="116" d="M739.408,750.0969 C751.144,761.2089 766.576,778.4489 773.272,797.2969 C789.272,842.3209 753.24,853.0169 714.872,910.0969 C636.952,1026.0009 636.288,1075.5209 526.072,1161.2969 C498.72,1182.5849 459.896,1195.5609 437.016,1201.8649 " fill="none" id="Task-Skill" style="stroke:#181818;stroke-width:0.8000000000000002;"/><polygon fill="#000000" points="700.647,945.1374,706.6259,940.4319,702.7182,937.8162,700.647,945.1374" style="stroke:#000000;stroke-width:0.8000000000000002;"/><text fill="#000000" font-family="sans-serif" font-size="10.4" lengthAdjust="spacing" textLength="22.4" x="710.072" y="946.1195">need</text><text fill="#000000" font-family="sans-serif" font-size="10.4" lengthAdjust="spacing" textLength="5.6" x="745.7265" y="750.2375">1</text><text fill="#000000" font-family="sans-serif" font-size="10.4" lengthAdjust="spacing" textLength="16" x="443.2468" y="1196.6634">1..*</text></g><!--link Agenda to Task--><g id="link_Agenda_Task"><path codeLine="117" d="M683.776,562.2009 C691.952,597.0489 713.032,686.9369 721.184,721.6889 " fill="none" id="Agenda-Task" style="stroke:#181818;stroke-width:0.8000000000000002;"/><polygon fill="#000000" points="715.7854,672.1076,716.4221,664.5258,711.844,665.5996,715.7854,672.1076" style="stroke:#000000;stroke-width:0.8000000000000002;"/><text fill="#000000" font-family="sans-serif" font-size="10.4" lengthAdjust="spacing" textLength="16.8" x="722.072" y="672.5195">has</text><text fill="#000000" font-family="sans-serif" font-size="10.4" lengthAdjust="spacing" textLength="5.6" x="678.3115" y="579.3285">1</text><text fill="#000000" font-family="sans-serif" font-size="10.4" lengthAdjust="spacing" textLength="16" x="701.7271" y="712.7761">0..*</text></g><!--link Task to Team--><g id="link_Task_Team"><path codeLine="118" d="M720.328,751.3289 C715.32,767.0089 705.976,792.7689 693.272,812.4969 C687.952,820.7609 681.424,828.9289 674.736,836.4569 " fill="none" id="Task-Team" style="stroke:#181818;stroke-width:0.8000000000000002;"/><polygon fill="#000000" points="703.3835,808.5394,708.8724,803.2706,704.7272,801.0506,703.3835,808.5394" style="stroke:#000000;stroke-width:0.8000000000000002;"/><text fill="#000000" font-family="sans-serif" font-size="10.4" lengthAdjust="spacing" textLength="53.6" x="712.472" y="809.3195">assigned to</text><text fill="#000000" font-family="sans-serif" font-size="10.4" lengthAdjust="spacing" textLength="5.6" x="712.775" y="768.7109">1</text><text fill="#000000" font-family="sans-serif" font-size="10.4" lengthAdjust="spacing" textLength="5.6" x="674.4439" y="827.3853">1</text></g><!--SRC=[ZLLBSziW4BxhLp0-TgQPj4STEfFQJPEsZZkravxNi94O8r00DQ_fVoy2P8EZsjP5m7wx- -qBp8RB5ZGqf55IqLgh1edL7HPcAsc1Rg32fNqMI3HI2x8IAS3KmDGZbnMv1s6mI4HKW34Nrcg-xYnUKoMN_0N9UL5pXeHoJPqblsxGregPeh3SEZyprG2NPAuOYgBmPiYyCvLQTcl17SdNukzmZ8ntJM-N_GIzIIG_G3lU8uAle1dAz40ZogMBD1YEfmjTWUGlOBcIwVcbGBHpa2uhEZ5orJKWVw5HdQPeTdBYFWaDZdXxQsGdkpLH42LV7ZhUDYXj6ZlGciiq6tTOSvVKw7QjGJA_Qdmc-vK5ZNvHQMNCR-HLRVsUTbexyzyRlzDOSMDHpy06E517mF0-6TkplaWM9KYAqnhfvhQzrFZGeQJFNjuAXxpfcZNguFkvtQKXQaIgq-XzllJRwrau3HZlSD1REIDHgNLxb2w3Pg7d_0b3hA8FQQ6l4Fu46gf5-LazBVHKA8Fi3gJ3htH7DsQNtszgFLQigH82rag3LLanVNgvjZM3u0HOmur9imECQJGcCAsLJ3E1BdKYHZfJj8yfxY9eyB_SS276YAtG3TXhBCDJt-O1uzKNzodlGC7qbimD8dDvsePzKQ5aa7JG2aoObI8RkCc72NdlFh_89gCat10WdyRmxdTszcwI3bZfwFPTRtgDlTdTAkrfH0TnRe-WziR-23eB9S5cGrwI6im1yFZe7zDwUm-Shk5lXmFmW8_5BObwb3qmQ-R9kIzDXFRjFzZxByolGaSEsF7G4yx1i47XdWv3ZcjaFavM2oI3h-7gwhNwanoJ1LSIr_AyaiY8LGuU_4OI9-gSGcpFm9RXQTf3DavM2_pz3L4IrmFe7Fk1oxewTpAy79cR0_ZTUvHEz065uR4w3DzcBBuE6Ps1OzwwEsXiyt6OVpTAGi62K9MhdkzVdwI1wCUnOeK-zzVYU9DATwKwH1osF6YlDcvZMw2ydVu1]--></g></svg>