<?xml version="1.0" encoding="us-ascii" standalone="no"?><svg xmlns="http://www.w3.org/2000/svg" xmlns:xlink="http://www.w3.org/1999/xlink" contentStyleType="text/css" height="1561px" preserveAspectRatio="none" style="width:1196px;height:1561px;background:#FFFFFF;" version="1.1" viewBox="0 0 1196 1561" width="1196px" zoomAndPan="magnify"><defs/><g><text fill="#000000" font-family="sans-serif" font-size="14" font-weight="bold" lengthAdjust="spacing" textLength="100" x="541.245" y="25.1074">Domain Model</text><!--class MusgoSublime--><g id="elem_MusgoSublime"><rect codeLine="11" fill="#F1F1F1" height="36.6211" id="MusgoSublime" rx="2.5" ry="2.5" style="stroke:#181818;stroke-width:0.5;" width="98" x="702.49" y="46.6211"/><text fill="#000000" font-family="sans-serif" font-size="14" lengthAdjust="spacing" textLength="92" x="705.49" y="66.7285">MusgoSublime</text><line style="stroke:#181818;stroke-width:0.5;" x1="703.49" x2="799.49" y1="75.2422" y2="75.2422"/></g><!--class MediumSizedPark--><g id="elem_MediumSizedPark"><rect codeLine="13" fill="#F1F1F1" height="36.6211" id="MediumSizedPark" rx="2.5" ry="2.5" style="stroke:#181818;stroke-width:0.5;" width="118" x="841.49" y="46.6211"/><text fill="#000000" font-family="sans-serif" font-size="14" lengthAdjust="spacing" textLength="112" x="844.49" y="66.7285">MediumSizedPark</text><line style="stroke:#181818;stroke-width:0.5;" x1="842.49" x2="958.49" y1="75.2422" y2="75.2422"/></g><!--class LargeSizedPark--><g id="elem_LargeSizedPark"><rect codeLine="15" fill="#F1F1F1" height="36.6211" id="LargeSizedPark" rx="2.5" ry="2.5" style="stroke:#181818;stroke-width:0.5;" width="106" x="994.49" y="46.6211"/><text fill="#000000" font-family="sans-serif" font-size="14" lengthAdjust="spacing" textLength="100" x="997.49" y="66.7285">LargeSizedPark</text><line style="stroke:#181818;stroke-width:0.5;" x1="995.49" x2="1099.49" y1="75.2422" y2="75.2422"/></g><!--class Garden--><g id="elem_Garden"><rect codeLine="17" fill="#F1F1F1" height="36.6211" id="Garden" rx="2.5" ry="2.5" style="stroke:#181818;stroke-width:0.5;" width="54" x="1135.49" y="46.6211"/><text fill="#000000" font-family="sans-serif" font-size="14" lengthAdjust="spacing" textLength="48" x="1138.49" y="66.7285">Garden</text><line style="stroke:#181818;stroke-width:0.5;" x1="1136.49" x2="1188.49" y1="75.2422" y2="75.2422"/></g><!--class GreenSpace--><g id="elem_GreenSpace"><rect codeLine="19" fill="#F1F1F1" height="36.6211" id="GreenSpace" rx="2.5" ry="2.5" style="stroke:#181818;stroke-width:0.5;" width="86" x="933.49" y="162.6211"/><text fill="#000000" font-family="sans-serif" font-size="14" lengthAdjust="spacing" textLength="80" x="936.49" y="182.7285">GreenSpace</text><line style="stroke:#181818;stroke-width:0.5;" x1="934.49" x2="1018.49" y1="191.2422" y2="191.2422"/></g><!--class Organization--><g id="elem_Organization"><rect codeLine="22" fill="#F1F1F1" height="36.6211" id="Organization" rx="2.5" ry="2.5" style="stroke:#181818;stroke-width:0.5;" width="86" x="697.49" y="340.6211"/><text fill="#000000" font-family="sans-serif" font-size="14" lengthAdjust="spacing" textLength="80" x="700.49" y="360.7285">Organization</text><line style="stroke:#181818;stroke-width:0.5;" x1="698.49" x2="782.49" y1="369.2422" y2="369.2422"/></g><!--class FleetManager--><g id="elem_FleetManager"><rect codeLine="25" fill="#F1F1F1" height="55.2422" id="FleetManager" rx="2.5" ry="2.5" style="stroke:#181818;stroke-width:0.5;" width="94" x="389.49" y="456.6211"/><text fill="#000000" font-family="sans-serif" font-size="14" lengthAdjust="spacing" textLength="88" x="392.49" y="476.7285">FleetManager</text><line style="stroke:#181818;stroke-width:0.5;" x1="390.49" x2="482.49" y1="485.2422" y2="485.2422"/><text fill="#000000" font-family="sans-serif" font-size="14" lengthAdjust="spacing" textLength="35" x="395.49" y="504.3496">name</text></g><!--class HumanResourcesManager--><g id="elem_HumanResourcesManager"><rect codeLine="28" fill="#F1F1F1" height="55.2422" id="HumanResourcesManager" rx="2.5" ry="2.5" style="stroke:#181818;stroke-width:0.5;" width="174" x="510.49" y="911.1211"/><text fill="#000000" font-family="sans-serif" font-size="14" lengthAdjust="spacing" textLength="168" x="513.49" y="931.2285">HumanResourcesManager</text><line style="stroke:#181818;stroke-width:0.5;" x1="511.49" x2="683.49" y1="939.7422" y2="939.7422"/><text fill="#000000" font-family="sans-serif" font-size="14" lengthAdjust="spacing" textLength="35" x="516.49" y="958.8496">name</text></g><!--class GreenSpaceManager--><g id="elem_GreenSpaceManager"><rect codeLine="31" fill="#F1F1F1" height="55.2422" id="GreenSpaceManager" rx="2.5" ry="2.5" style="stroke:#181818;stroke-width:0.5;" width="142" x="820.49" y="456.6211"/><text fill="#000000" font-family="sans-serif" font-size="14" lengthAdjust="spacing" textLength="136" x="823.49" y="476.7285">GreenSpaceManager</text><line style="stroke:#181818;stroke-width:0.5;" x1="821.49" x2="961.49" y1="485.2422" y2="485.2422"/><text fill="#000000" font-family="sans-serif" font-size="14" lengthAdjust="spacing" textLength="35" x="826.49" y="504.3496">name</text></g><!--class GreenSpaceUser--><g id="elem_GreenSpaceUser"><rect codeLine="34" fill="#F1F1F1" height="55.2422" id="GreenSpaceUser" rx="2.5" ry="2.5" style="stroke:#181818;stroke-width:0.5;" width="115" x="997.99" y="456.6211"/><text fill="#000000" font-family="sans-serif" font-size="14" lengthAdjust="spacing" textLength="109" x="1000.99" y="476.7285">GreenSpaceUser</text><line style="stroke:#181818;stroke-width:0.5;" x1="998.99" x2="1111.99" y1="485.2422" y2="485.2422"/><text fill="#000000" font-family="sans-serif" font-size="14" lengthAdjust="spacing" textLength="35" x="1003.99" y="504.3496">name</text></g><!--class Equipment--><g id="elem_Equipment"><rect codeLine="38" fill="#F1F1F1" height="36.6211" id="Equipment" rx="2.5" ry="2.5" style="stroke:#181818;stroke-width:0.5;" width="73" x="403.99" y="683.6211"/><text fill="#000000" font-family="sans-serif" font-size="14" lengthAdjust="spacing" textLength="67" x="406.99" y="703.7285">Equipment</text><line style="stroke:#181818;stroke-width:0.5;" x1="404.99" x2="475.99" y1="712.2422" y2="712.2422"/></g><!--class Machine--><g id="elem_Machine"><rect codeLine="40" fill="#F1F1F1" height="36.6211" id="Machine" rx="2.5" ry="2.5" style="stroke:#181818;stroke-width:0.5;" width="59" x="514.99" y="683.6211"/><text fill="#000000" font-family="sans-serif" font-size="14" lengthAdjust="spacing" textLength="53" x="517.99" y="703.7285">Machine</text><line style="stroke:#181818;stroke-width:0.5;" x1="515.99" x2="572.99" y1="712.2422" y2="712.2422"/></g><!--class Vehicle--><g id="elem_Vehicle"><rect codeLine="42" fill="#F1F1F1" height="222.832" id="Vehicle" rx="2.5" ry="2.5" style="stroke:#181818;stroke-width:0.5;" width="218" x="150.49" y="590.6211"/><text fill="#000000" font-family="sans-serif" font-size="14" lengthAdjust="spacing" textLength="46" x="236.49" y="610.7285">Vehicle</text><line style="stroke:#181818;stroke-width:0.5;" x1="151.49" x2="367.49" y1="619.2422" y2="619.2422"/><text fill="#000000" font-family="sans-serif" font-size="14" lengthAdjust="spacing" textLength="37" x="156.49" y="638.3496">brand</text><text fill="#000000" font-family="sans-serif" font-size="14" lengthAdjust="spacing" textLength="38" x="156.49" y="656.9707">model</text><text fill="#000000" font-family="sans-serif" font-size="14" lengthAdjust="spacing" textLength="25" x="156.49" y="675.5918">tare</text><text fill="#000000" font-family="sans-serif" font-size="14" lengthAdjust="spacing" textLength="79" x="156.49" y="694.2129">grossWeight</text><text fill="#000000" font-family="sans-serif" font-size="14" lengthAdjust="spacing" textLength="65" x="156.49" y="712.834">currentKm</text><text fill="#000000" font-family="sans-serif" font-size="14" lengthAdjust="spacing" textLength="78" x="156.49" y="731.4551">registerDate</text><text fill="#000000" font-family="sans-serif" font-size="14" lengthAdjust="spacing" textLength="97" x="156.49" y="750.0762">acquisitionDate</text><text fill="#000000" font-family="sans-serif" font-size="14" lengthAdjust="spacing" textLength="206" x="156.49" y="768.6973">maintenanceCheckUpFrequency</text><text fill="#000000" font-family="sans-serif" font-size="14" lengthAdjust="spacing" textLength="80" x="156.49" y="787.3184">plateNumber</text><text fill="#000000" font-family="sans-serif" font-size="14" lengthAdjust="spacing" textLength="27" x="156.49" y="805.9395">type</text></g><!--class CheckUp--><g id="elem_CheckUp"><rect codeLine="54" fill="#F1F1F1" height="92.4844" id="CheckUp" rx="2.5" ry="2.5" style="stroke:#181818;stroke-width:0.5;" width="99" x="11.99" y="892.6211"/><text fill="#000000" font-family="sans-serif" font-size="14" lengthAdjust="spacing" textLength="57" x="32.99" y="912.7285">CheckUp</text><line style="stroke:#181818;stroke-width:0.5;" x1="12.99" x2="109.99" y1="921.2422" y2="921.2422"/><text fill="#000000" font-family="sans-serif" font-size="14" lengthAdjust="spacing" textLength="77" x="17.99" y="940.3496">CurrentKMS</text><text fill="#000000" font-family="sans-serif" font-size="14" lengthAdjust="spacing" textLength="13" x="17.99" y="958.9707">ID</text><text fill="#000000" font-family="sans-serif" font-size="14" lengthAdjust="spacing" textLength="87" x="17.99" y="977.5918">CheckUpDate</text></g><!--class Type--><g id="elem_Type"><rect codeLine="59" fill="#F1F1F1" height="92.4844" id="Type" rx="2.5" ry="2.5" style="stroke:#181818;stroke-width:0.5;" width="218" x="150.49" y="892.6211"/><text fill="#000000" font-family="sans-serif" font-size="14" lengthAdjust="spacing" textLength="32" x="243.49" y="912.7285">Type</text><line style="stroke:#181818;stroke-width:0.5;" x1="151.49" x2="367.49" y1="921.2422" y2="921.2422"/><text fill="#000000" font-family="sans-serif" font-size="14" lengthAdjust="spacing" textLength="126" x="156.49" y="940.3496">passengersOrMixed</text><text fill="#000000" font-family="sans-serif" font-size="14" lengthAdjust="spacing" textLength="81" x="156.49" y="958.9707">lightOrHeavy</text><text fill="#000000" font-family="sans-serif" font-size="14" lengthAdjust="spacing" textLength="206" x="156.49" y="977.5918">openBoxOrClosedVansOrTrucks</text></g><!--class Job--><g id="elem_Job"><rect codeLine="65" fill="#F1F1F1" height="55.2422" id="Job" rx="2.5" ry="2.5" style="stroke:#181818;stroke-width:0.5;" width="47" x="632.99" y="1082.1211"/><text fill="#000000" font-family="sans-serif" font-size="14" lengthAdjust="spacing" textLength="22" x="645.49" y="1102.2285">Job</text><line style="stroke:#181818;stroke-width:0.5;" x1="633.99" x2="678.99" y1="1110.7422" y2="1110.7422"/><text fill="#000000" font-family="sans-serif" font-size="14" lengthAdjust="spacing" textLength="35" x="638.99" y="1129.8496">name</text></g><!--class Collaborator--><g id="elem_Collaborator"><rect codeLine="68" fill="#F1F1F1" height="185.5898" id="Collaborator" rx="2.5" ry="2.5" style="stroke:#181818;stroke-width:0.5;" width="105" x="544.99" y="1234.6211"/><text fill="#000000" font-family="sans-serif" font-size="14" lengthAdjust="spacing" textLength="78" x="558.49" y="1254.7285">Collaborator</text><line style="stroke:#181818;stroke-width:0.5;" x1="545.99" x2="648.99" y1="1263.2422" y2="1263.2422"/><text fill="#000000" font-family="sans-serif" font-size="14" lengthAdjust="spacing" textLength="35" x="550.99" y="1282.3496">name</text><text fill="#000000" font-family="sans-serif" font-size="14" lengthAdjust="spacing" textLength="51" x="550.99" y="1300.9707">birthday</text><text fill="#000000" font-family="sans-serif" font-size="14" lengthAdjust="spacing" textLength="93" x="550.99" y="1319.5918">admissionDate</text><text fill="#000000" font-family="sans-serif" font-size="14" lengthAdjust="spacing" textLength="51" x="550.99" y="1338.2129">address</text><text fill="#000000" font-family="sans-serif" font-size="14" lengthAdjust="spacing" textLength="89" x="550.99" y="1356.834">phoneNumber</text><text fill="#000000" font-family="sans-serif" font-size="14" lengthAdjust="spacing" textLength="33" x="550.99" y="1375.4551">email</text><text fill="#000000" font-family="sans-serif" font-size="14" lengthAdjust="spacing" textLength="70" x="550.99" y="1394.0762">IDDocType</text><text fill="#000000" font-family="sans-serif" font-size="14" lengthAdjust="spacing" textLength="62" x="550.99" y="1412.6973">IDNumber</text></g><!--class Skill--><g id="elem_Skill"><rect codeLine="78" fill="#F1F1F1" height="55.2422" id="Skill" rx="2.5" ry="2.5" style="stroke:#181818;stroke-width:0.5;" width="47" x="497.99" y="1499.6211"/><text fill="#000000" font-family="sans-serif" font-size="14" lengthAdjust="spacing" textLength="25" x="508.99" y="1519.7285">Skill</text><line style="stroke:#181818;stroke-width:0.5;" x1="498.99" x2="543.99" y1="1528.2422" y2="1528.2422"/><text fill="#000000" font-family="sans-serif" font-size="14" lengthAdjust="spacing" textLength="35" x="503.99" y="1547.3496">name</text></g><!--class Team--><g id="elem_Team"><rect codeLine="81" fill="#F1F1F1" height="92.4844" id="Team" rx="2.5" ry="2.5" style="stroke:#181818;stroke-width:0.5;" width="160" x="715.49" y="1063.6211"/><text fill="#000000" font-family="sans-serif" font-size="14" lengthAdjust="spacing" textLength="36" x="777.49" y="1083.7285">Team</text><line style="stroke:#181818;stroke-width:0.5;" x1="716.49" x2="874.49" y1="1092.2422" y2="1092.2422"/><text fill="#000000" font-family="sans-serif" font-size="14" lengthAdjust="spacing" textLength="51" x="721.49" y="1111.3496">maxSize</text><text fill="#000000" font-family="sans-serif" font-size="14" lengthAdjust="spacing" textLength="148" x="721.49" y="1129.9707">numberOfCollaborators</text><text fill="#000000" font-family="sans-serif" font-size="14" lengthAdjust="spacing" textLength="79" x="721.49" y="1148.5918">skillsNeeded</text></g><!--class Agenda--><g id="elem_Agenda"><rect codeLine="87" fill="#F1F1F1" height="36.6211" id="Agenda" rx="2.5" ry="2.5" style="stroke:#181818;stroke-width:0.5;" width="55" x="821.99" y="683.6211"/><text fill="#000000" font-family="sans-serif" font-size="14" lengthAdjust="spacing" textLength="49" x="824.99" y="703.7285">Agenda</text><line style="stroke:#181818;stroke-width:0.5;" x1="822.99" x2="875.99" y1="712.2422" y2="712.2422"/></g><!--class Task--><g id="elem_Task"><rect codeLine="89" fill="#F1F1F1" height="36.6211" id="Task" rx="2.5" ry="2.5" style="stroke:#181818;stroke-width:0.5;" width="37" x="885.99" y="920.1211"/><text fill="#000000" font-family="sans-serif" font-size="14" lengthAdjust="spacing" textLength="31" x="888.99" y="940.2285">Task</text><line style="stroke:#181818;stroke-width:0.5;" x1="886.99" x2="921.99" y1="948.7422" y2="948.7422"/></g><!--link MusgoSublime to Organization--><g id="link_MusgoSublime_Organization"><path codeLine="92" d="M750.82,83.9511 C748.85,136.2011 743.11,288.5711 741.15,340.5311 " fill="none" id="MusgoSublime-Organization" style="stroke:#181818;stroke-width:1.0;"/><polygon fill="#000000" points="750.3017,244.2631,753.5792,235.3351,747.7055,235.1137,750.3017,244.2631" style="stroke:#000000;stroke-width:1.0;"/><text fill="#000000" font-family="sans-serif" font-size="13" lengthAdjust="spacing" textLength="21" x="759.49" y="244.6494">is a</text><text fill="#000000" font-family="sans-serif" font-size="13" lengthAdjust="spacing" textLength="7" x="742.6993" y="105.4144">1</text><text fill="#000000" font-family="sans-serif" font-size="13" lengthAdjust="spacing" textLength="7" x="733.2803" y="329.3657">1</text></g><!--link MusgoSublime to GreenSpace--><g id="link_MusgoSublime_GreenSpace"><path codeLine="93" d="M777.14,83.8211 C798.37,98.0411 829.62,117.9811 858.49,132.6211 C882.62,144.8611 910.67,156.2611 933.37,164.8211 " fill="none" id="MusgoSublime-GreenSpace" style="stroke:#181818;stroke-width:1.0;"/><polygon fill="#000000" points="867.9289,125.568,861.2516,118.7956,858.5461,124.0138,867.9289,125.568" style="stroke:#000000;stroke-width:1.0;"/><text fill="#000000" font-family="sans-serif" font-size="13" lengthAdjust="spacing" textLength="53" x="872.49" y="128.6494">manages</text><text fill="#000000" font-family="sans-serif" font-size="13" lengthAdjust="spacing" textLength="7" x="776.0928" y="105.2494">1</text><text fill="#000000" font-family="sans-serif" font-size="13" lengthAdjust="spacing" textLength="20" x="905.568" y="158.2561">1..*</text></g><!--link MediumSizedPark to GreenSpace--><g id="link_MediumSizedPark_GreenSpace"><path codeLine="94" d="M912.37,83.9311 C926.64,105.3511 950.46,141.0711 964.7,162.4311 " fill="none" id="MediumSizedPark-GreenSpace" style="stroke:#181818;stroke-width:1.0;"/><polygon fill="#000000" points="950.2634,127.4269,947.6917,118.2707,942.8009,121.531,950.2634,127.4269" style="stroke:#000000;stroke-width:1.0;"/><text fill="#000000" font-family="sans-serif" font-size="13" lengthAdjust="spacing" textLength="21" x="956.49" y="128.6494">is a</text><text fill="#000000" font-family="sans-serif" font-size="13" lengthAdjust="spacing" textLength="7" x="907.6221" y="105.389">1</text><text fill="#000000" font-family="sans-serif" font-size="13" lengthAdjust="spacing" textLength="7" x="953.0174" y="151.2351">1</text></g><!--link Garden to GreenSpace--><g id="link_Garden_GreenSpace"><path codeLine="95" d="M1136.06,83.7411 C1115.4,97.3811 1085.86,116.5811 1059.49,132.6211 C1042.75,142.8011 1023.81,153.6911 1008.25,162.4711 " fill="none" id="Garden-GreenSpace" style="stroke:#181818;stroke-width:1.0;"/><polygon fill="#000000" points="1088.2329,125.889,1097.4755,123.6473,1094.3927,118.6428,1088.2329,125.889" style="stroke:#000000;stroke-width:1.0;"/><text fill="#000000" font-family="sans-serif" font-size="13" lengthAdjust="spacing" textLength="21" x="1101.49" y="128.6494">is a</text><text fill="#000000" font-family="sans-serif" font-size="13" lengthAdjust="spacing" textLength="7" x="1120.6422" y="83.7099">1</text><text fill="#000000" font-family="sans-serif" font-size="13" lengthAdjust="spacing" textLength="7" x="1009.9046" y="151.2873">1</text></g><!--link LargeSizedPark to GreenSpace--><g id="link_LargeSizedPark_GreenSpace"><path codeLine="96" d="M1036.4,83.9311 C1023.06,105.3511 1000.81,141.0711 987.51,162.4311 " fill="none" id="LargeSizedPark-GreenSpace" style="stroke:#181818;stroke-width:1.0;"/><polygon fill="#000000" points="1017.8467,127.5108,1025.1231,121.3867,1020.1338,118.2793,1017.8467,127.5108" style="stroke:#000000;stroke-width:1.0;"/><text fill="#000000" font-family="sans-serif" font-size="13" lengthAdjust="spacing" textLength="21" x="1029.49" y="128.6494">is a</text><text fill="#000000" font-family="sans-serif" font-size="13" lengthAdjust="spacing" textLength="7" x="1025.4789" y="105.389">1</text><text fill="#000000" font-family="sans-serif" font-size="13" lengthAdjust="spacing" textLength="7" x="982.813" y="151.2351">1</text></g><!--link Organization to FleetManager--><g id="link_Organization_FleetManager"><path codeLine="97" d="M697.22,371.9611 C666.93,380.7011 625.73,393.4911 590.49,407.6211 C553.73,422.3611 513.6,442.1611 483.52,457.7911 " fill="none" id="Organization-FleetManager" style="stroke:#181818;stroke-width:1.0;"/><polygon fill="#000000" points="590.8502,419.1301,600.339,418.4862,598.1483,413.0318,590.8502,419.1301" style="stroke:#000000;stroke-width:1.0;"/><text fill="#000000" font-family="sans-serif" font-size="13" lengthAdjust="spacing" textLength="21" x="604.49" y="422.6494">has</text><text fill="#000000" font-family="sans-serif" font-size="13" lengthAdjust="spacing" textLength="7" x="682.4737" y="369.7637">1</text><text fill="#000000" font-family="sans-serif" font-size="13" lengthAdjust="spacing" textLength="7" x="491.5732" y="449.2723">1</text></g><!--link Organization to HumanResourcesManager--><g id="link_Organization_HumanResourcesManager"><path codeLine="98" d="M736.13,377.7211 C715.63,460.5111 628.74,811.4011 604.06,911.1011 " fill="none" id="Organization-HumanResourcesManager" style="stroke:#181818;stroke-width:1.0;"/><polygon fill="#000000" points="699.2882,556.12,704.315,548.0465,698.6095,546.6337,699.2882,556.12" style="stroke:#000000;stroke-width:1.0;"/><text fill="#000000" font-family="sans-serif" font-size="13" lengthAdjust="spacing" textLength="21" x="709.49" y="556.6494">has</text><text fill="#000000" font-family="sans-serif" font-size="13" lengthAdjust="spacing" textLength="7" x="727.0176" y="399.1226">1</text><text fill="#000000" font-family="sans-serif" font-size="13" lengthAdjust="spacing" textLength="7" x="597.7699" y="899.8054">1</text></g><!--link Organization to GreenSpaceManager--><g id="link_Organization_GreenSpaceManager"><path codeLine="99" d="M762.12,377.7411 C787.4,398.3411 829.5,432.6211 858.77,456.4711 " fill="none" id="Organization-GreenSpaceManager" style="stroke:#181818;stroke-width:1.0;"/><polygon fill="#000000" points="830.3666,420.4244,825.2099,412.4332,821.4976,416.9905,830.3666,420.4244" style="stroke:#000000;stroke-width:1.0;"/><text fill="#000000" font-family="sans-serif" font-size="13" lengthAdjust="spacing" textLength="21" x="835.49" y="422.6494">has</text><text fill="#000000" font-family="sans-serif" font-size="13" lengthAdjust="spacing" textLength="7" x="759.9924" y="399.1479">1</text><text fill="#000000" font-family="sans-serif" font-size="13" lengthAdjust="spacing" textLength="7" x="843.3941" y="445.1454">1</text></g><!--link Organization to GreenSpaceUser--><g id="link_Organization_GreenSpaceUser"><path codeLine="100" d="M783.65,376.3411 C807.76,385.4411 838.33,397.0711 865.49,407.6211 C909.99,424.9111 960.18,444.8811 997.79,459.9311 " fill="none" id="Organization-GreenSpaceUser" style="stroke:#181818;stroke-width:1.0;"/><polygon fill="#000000" points="923.1477,419.0848,915.7905,413.0579,913.6531,418.5334,923.1477,419.0848" style="stroke:#000000;stroke-width:1.0;"/><text fill="#000000" font-family="sans-serif" font-size="13" lengthAdjust="spacing" textLength="21" x="927.49" y="422.6494">has</text><text fill="#000000" font-family="sans-serif" font-size="13" lengthAdjust="spacing" textLength="7" x="791.3781" y="374.8691">1</text><text fill="#000000" font-family="sans-serif" font-size="13" lengthAdjust="spacing" textLength="7" x="982.9487" y="452.7741">1</text></g><!--link Organization to Agenda--><g id="link_Organization_Agenda"><path codeLine="101" d="M740.54,377.7611 C741.06,406.4111 743.87,464.5911 757.49,511.6211 C776.87,578.5411 818.35,650.8011 838.31,683.3911 " fill="none" id="Organization-Agenda" style="stroke:#181818;stroke-width:1.0;"/><polygon fill="#000000" points="764.0134,489.0289,764.0567,479.5184,758.4583,481.3093,764.0134,489.0289" style="stroke:#000000;stroke-width:1.0;"/><text fill="#000000" font-family="sans-serif" font-size="13" lengthAdjust="spacing" textLength="30" x="771.49" y="489.6494">owns</text><text fill="#000000" font-family="sans-serif" font-size="13" lengthAdjust="spacing" textLength="7" x="741.4941" y="399.1733">1</text><text fill="#000000" font-family="sans-serif" font-size="13" lengthAdjust="spacing" textLength="7" x="826.9978" y="672.519">1</text></g><!--link Collaborator to Job--><g id="link_Collaborator_Job"><path codeLine="102" d="M650.11,1264.5311 C662.51,1246.3511 674.01,1225.6811 680.49,1204.6211 C687.43,1182.0811 679.6,1156.0811 671.08,1137.1511 " fill="none" id="Collaborator-Job" style="stroke:#181818;stroke-width:1.0;"/><polygon fill="#000000" points="689.3022,1190.333,684.933,1198.7806,690.7328,1199.7354,689.3022,1190.333" style="stroke:#000000;stroke-width:1.0;"/><text fill="#000000" font-family="sans-serif" font-size="13" lengthAdjust="spacing" textLength="21" x="697.49" y="1200.6494">has</text><text fill="#000000" font-family="sans-serif" font-size="13" lengthAdjust="spacing" textLength="20" x="658.1332" y="1252.4319">0..*</text><text fill="#000000" font-family="sans-serif" font-size="13" lengthAdjust="spacing" textLength="7" x="666.6446" y="1159.517">1</text></g><!--link Job to Collaborator--><g id="link_Job_Collaborator"><path codeLine="107" d="M632.74,1129.4611 C617.46,1143.1811 598.94,1163.2311 590.49,1185.6211 C584.74,1200.8711 582.44,1217.7111 582.2,1234.2911 " fill="none" id="Job-Collaborator" style="stroke:#181818;stroke-width:1.0;"/><polygon fill="#000000" points="593.3186,1199.7705,599.894,1192.8992,594.5994,1190.3466,593.3186,1199.7705" style="stroke:#000000;stroke-width:1.0;"/><text fill="#000000" font-family="sans-serif" font-size="13" lengthAdjust="spacing" textLength="67" x="604.49" y="1200.6494">assigned to</text><text fill="#000000" font-family="sans-serif" font-size="13" lengthAdjust="spacing" textLength="7" x="618.0759" y="1129.6857">1</text><text fill="#000000" font-family="sans-serif" font-size="13" lengthAdjust="spacing" textLength="20" x="581.7785" y="1223.2328">0..*</text></g><!--link Collaborator to Skill--><g id="link_Collaborator_Skill"><path codeLine="103" d="M544.92,1394.8711 C534.07,1412.0911 524.21,1431.2611 518.49,1450.6211 C513.84,1466.3511 514.45,1484.7111 516.29,1499.4011 " fill="none" id="Collaborator-Skill" style="stroke:#181818;stroke-width:1.0;"/><polygon fill="#000000" points="522.1692,1465.089,527.3931,1457.1416,521.724,1455.5888,522.1692,1465.089" style="stroke:#000000;stroke-width:1.0;"/><text fill="#000000" font-family="sans-serif" font-size="13" lengthAdjust="spacing" textLength="21" x="532.49" y="1465.6494">has</text><text fill="#000000" font-family="sans-serif" font-size="13" lengthAdjust="spacing" textLength="20" x="516.9032" y="1399.4717">0..*</text><text fill="#000000" font-family="sans-serif" font-size="13" lengthAdjust="spacing" textLength="20" x="517.34" y="1488.5116">1..*</text></g><!--link Skill to Collaborator--><g id="link_Skill_Collaborator"><path codeLine="108" d="M541.35,1499.5211 C547.49,1490.3811 553.85,1479.8811 558.49,1469.6211 C565.45,1454.2311 571.43,1437.3211 576.46,1420.7211 " fill="none" id="Skill-Collaborator" style="stroke:#181818;stroke-width:1.0;"/><polygon fill="#000000" points="573.5249,1455.6994,567.1592,1462.7654,572.5282,1465.1576,573.5249,1455.6994" style="stroke:#000000;stroke-width:1.0;"/><text fill="#000000" font-family="sans-serif" font-size="13" lengthAdjust="spacing" textLength="67" x="580.49" y="1465.6494">assigned to</text><text fill="#000000" font-family="sans-serif" font-size="13" lengthAdjust="spacing" textLength="20" x="548.2551" y="1488.2069">1..*</text><text fill="#000000" font-family="sans-serif" font-size="13" lengthAdjust="spacing" textLength="20" x="554.1812" y="1442.2364">0..*</text></g><!--link HumanResourcesManager to Job--><g id="link_HumanResourcesManager_Job"><path codeLine="104" d="M591.5,966.3711 C588.4,985.6411 586.7,1011.9611 594.49,1033.6211 C602.15,1054.9211 618.78,1074.4711 632.89,1088.2711 " fill="none" id="HumanResourcesManager-Job" style="stroke:#181818;stroke-width:1.0;"/><polygon fill="#000000" points="601.0976,1029.0011,600.9723,1019.4914,595.4066,1021.3812,601.0976,1029.0011" style="stroke:#000000;stroke-width:1.0;"/><text fill="#000000" font-family="sans-serif" font-size="13" lengthAdjust="spacing" textLength="42" x="608.49" y="1029.6494">selects</text><text fill="#000000" font-family="sans-serif" font-size="13" lengthAdjust="spacing" textLength="7" x="582.4241" y="988.3344">1</text><text fill="#000000" font-family="sans-serif" font-size="13" lengthAdjust="spacing" textLength="7" x="617.9294" y="1076.5381">1</text></g><!--link HumanResourcesManager to Job--><g id="link_HumanResourcesManager_Job"><path codeLine="106" d="M624.93,966.2011 C636.73,979.4911 649.22,996.5811 655.49,1014.6211 C663.04,1036.3611 662.58,1062.6611 660.64,1081.9111 " fill="none" id="HumanResourcesManager-Job-1" style="stroke:#181818;stroke-width:1.0;"/><polygon fill="#000000" points="666.9645,1029.0443,667.1054,1019.5347,661.4889,1021.2681,666.9645,1029.0443" style="stroke:#000000;stroke-width:1.0;"/><text fill="#000000" font-family="sans-serif" font-size="13" lengthAdjust="spacing" textLength="43" x="674.49" y="1029.6494">register</text><text fill="#000000" font-family="sans-serif" font-size="13" lengthAdjust="spacing" textLength="7" x="623.4661" y="988.5786">1</text><text fill="#000000" font-family="sans-serif" font-size="13" lengthAdjust="spacing" textLength="20" x="639.3603" y="1071.0238">0..*</text></g><!--link HumanResourcesManager to Skill--><g id="link_HumanResourcesManager_Skill"><path codeLine="105" d="M510.23,963.1911 C480.4,974.7311 448.72,991.3211 425.49,1014.6211 C367.01,1073.2611 368.28,1104.5311 351.49,1185.6211 C330,1289.3911 215.22,1196.2011 425.49,1469.6211 C444,1493.6911 475.91,1509.4911 497.83,1518.1011 " fill="none" id="HumanResourcesManager-Skill" style="stroke:#181818;stroke-width:1.0;"/><polygon fill="#000000" points="356.3783,1200.2654,359.5186,1191.2882,353.6422,1191.1569,356.3783,1200.2654" style="stroke:#000000;stroke-width:1.0;"/><text fill="#000000" font-family="sans-serif" font-size="13" lengthAdjust="spacing" textLength="42" x="365.49" y="1200.6494">selects</text><text fill="#000000" font-family="sans-serif" font-size="13" lengthAdjust="spacing" textLength="7" x="495.4303" y="961.6025">1</text><text fill="#000000" font-family="sans-serif" font-size="13" lengthAdjust="spacing" textLength="20" x="470.0461" y="1511.0836">1..*</text></g><!--link HumanResourcesManager to Skill--><g id="link_HumanResourcesManager_Skill"><path codeLine="110" d="M581.54,966.4211 C556.5,1010.3611 509.31,1101.2611 494.49,1185.6211 C472.63,1310.0711 489.11,1344.6111 507.49,1469.6211 C508.95,1479.5211 511.37,1490.2111 513.79,1499.6011 " fill="none" id="HumanResourcesManager-Skill-1" style="stroke:#181818;stroke-width:1.0;"/><polygon fill="#000000" points="498.8597,1200.2267,502.9154,1191.6242,497.0844,1190.8833,498.8597,1200.2267" style="stroke:#000000;stroke-width:1.0;"/><text fill="#000000" font-family="sans-serif" font-size="13" lengthAdjust="spacing" textLength="43" x="508.49" y="1200.6494">register</text><text fill="#000000" font-family="sans-serif" font-size="13" lengthAdjust="spacing" textLength="7" x="570.2853" y="988.3954">1</text><text fill="#000000" font-family="sans-serif" font-size="13" lengthAdjust="spacing" textLength="20" x="489.6969" y="1488.3054">0..*</text></g><!--link HumanResourcesManager to Collaborator--><g id="link_HumanResourcesManager_Collaborator"><path codeLine="109" d="M586.27,966.1211 C576.45,990.8311 562.94,1028.9811 557.49,1063.6211 C548.57,1120.3111 557.73,1183.9211 569.53,1234.3911 " fill="none" id="HumanResourcesManager-Collaborator" style="stroke:#181818;stroke-width:1.0;"/><polygon fill="#000000" points="562.1786,1114.7569,565.6751,1105.9124,559.8087,1105.5463,562.1786,1114.7569" style="stroke:#000000;stroke-width:1.0;"/><text fill="#000000" font-family="sans-serif" font-size="13" lengthAdjust="spacing" textLength="43" x="571.49" y="1115.1494">register</text><text fill="#000000" font-family="sans-serif" font-size="13" lengthAdjust="spacing" textLength="7" x="575.866" y="988.4801">1</text><text fill="#000000" font-family="sans-serif" font-size="13" lengthAdjust="spacing" textLength="20" x="546.5051" y="1223.3407">0..*</text></g><!--link HumanResourcesManager to Team--><g id="link_HumanResourcesManager_Team"><path codeLine="111" d="M654.5,966.2211 C678.25,978.9011 705.2,995.4911 726.49,1014.6211 C742.15,1028.6911 756.47,1046.8511 767.96,1063.4411 " fill="none" id="HumanResourcesManager-Team" style="stroke:#181818;stroke-width:1.0;"/><polygon fill="#000000" points="753.2868,1027.52,748.3306,1019.4029,744.5061,1023.8663,753.2868,1027.52" style="stroke:#000000;stroke-width:1.0;"/><text fill="#000000" font-family="sans-serif" font-size="13" lengthAdjust="spacing" textLength="57" x="758.49" y="1029.6494">generates</text><text fill="#000000" font-family="sans-serif" font-size="13" lengthAdjust="spacing" textLength="7" x="659.8742" y="988.6032">1</text><text fill="#000000" font-family="sans-serif" font-size="13" lengthAdjust="spacing" textLength="20" x="742.4478" y="1052.4241">1..*</text></g><!--link FleetManager to Vehicle--><g id="link_FleetManager_Vehicle"><path codeLine="112" d="M400,511.7311 C388.96,520.6211 377.2,530.9911 367.49,541.6211 C353.85,556.5611 340.62,573.3511 328.38,590.2811 " fill="none" id="FleetManager-Vehicle" style="stroke:#181818;stroke-width:1.0;"/><polygon fill="#000000" points="369.1212,554.9614,377.3871,550.2576,373.0437,546.2974,369.1212,554.9614" style="stroke:#000000;stroke-width:1.0;"/><text fill="#000000" font-family="sans-serif" font-size="13" lengthAdjust="spacing" textLength="43" x="381.49" y="556.6494">register</text><text fill="#000000" font-family="sans-serif" font-size="13" lengthAdjust="spacing" textLength="7" x="383.7523" y="534.1155">1</text><text fill="#000000" font-family="sans-serif" font-size="13" lengthAdjust="spacing" textLength="20" x="312.3367" y="579.2395">0..*</text></g><!--link FleetManager to Equipment--><g id="link_FleetManager_Equipment"><path codeLine="113" d="M434.78,511.8411 C434.25,521.2511 433.75,531.9011 433.49,541.6211 C432.12,593.1611 436.44,654.0011 438.9,683.4311 " fill="none" id="FleetManager-Equipment" style="stroke:#181818;stroke-width:1.0;"/><polygon fill="#000000" points="438.61,556.2652,441.331,547.1521,435.4548,547.2932,438.61,556.2652" style="stroke:#000000;stroke-width:1.0;"/><text fill="#000000" font-family="sans-serif" font-size="13" lengthAdjust="spacing" textLength="53" x="447.49" y="556.6494">manages</text><text fill="#000000" font-family="sans-serif" font-size="13" lengthAdjust="spacing" textLength="7" x="426.6403" y="533.7979">1</text><text fill="#000000" font-family="sans-serif" font-size="13" lengthAdjust="spacing" textLength="20" x="415.3506" y="672.2351">0..*</text></g><!--link FleetManager to Machine--><g id="link_FleetManager_Machine"><path codeLine="114" d="M477.97,511.8711 C488.28,520.2811 498.39,530.3511 505.49,541.6211 C534.21,587.2011 541.78,652.4211 543.78,683.4311 " fill="none" id="FleetManager-Machine" style="stroke:#181818;stroke-width:1.0;"/><polygon fill="#000000" points="521.2808,555.9349,520.7852,546.4373,515.2973,548.5424,521.2808,555.9349" style="stroke:#000000;stroke-width:1.0;"/><text fill="#000000" font-family="sans-serif" font-size="13" lengthAdjust="spacing" textLength="53" x="528.49" y="556.6494">manages</text><text fill="#000000" font-family="sans-serif" font-size="13" lengthAdjust="spacing" textLength="7" x="479.2781" y="533.8344">1</text><text fill="#000000" font-family="sans-serif" font-size="13" lengthAdjust="spacing" textLength="20" x="520.5001" y="672.2351">0..*</text></g><!--link FleetManager to CheckUp--><g id="link_FleetManager_CheckUp"><path codeLine="115" d="M389.26,491.9811 C300.33,505.9611 113.44,540.6811 74.49,590.6211 C6,678.4511 29.59,820.2311 48.03,892.3511 " fill="none" id="FleetManager-CheckUp" style="stroke:#181818;stroke-width:1.0;"/><polygon fill="#000000" points="76.2467,706.072,84.3506,701.0943,79.8771,697.2816,76.2467,706.072" style="stroke:#000000;stroke-width:1.0;"/><text fill="#000000" font-family="sans-serif" font-size="13" lengthAdjust="spacing" textLength="43" x="88.49" y="707.6494">register</text><text fill="#000000" font-family="sans-serif" font-size="13" lengthAdjust="spacing" textLength="7" x="374.492" y="488.9152">1</text><text fill="#000000" font-family="sans-serif" font-size="13" lengthAdjust="spacing" textLength="20" x="24.5843" y="881.3209">0..*</text></g><!--link Vehicle to CheckUp--><g id="link_Vehicle_CheckUp"><path codeLine="116" d="M166,813.8511 C142.47,841.7111 118.52,870.0811 99.5,892.6111 " fill="none" id="Vehicle-CheckUp" style="stroke:#181818;stroke-width:1.0;"/><polygon fill="#000000" points="139.2643,857.087,147.3452,852.0719,142.8541,848.2799,139.2643,857.087" style="stroke:#000000;stroke-width:1.0;"/><text fill="#000000" font-family="sans-serif" font-size="13" lengthAdjust="spacing" textLength="30" x="151.49" y="858.6494">owns</text><text fill="#000000" font-family="sans-serif" font-size="13" lengthAdjust="spacing" textLength="20" x="139.3702" y="835.5964">0..*</text><text fill="#000000" font-family="sans-serif" font-size="13" lengthAdjust="spacing" textLength="7" x="97.7843" y="881.2778">1</text></g><!--link Vehicle to Type--><g id="link_Vehicle_Type"><path codeLine="117" d="M259.49,813.8511 C259.49,841.7111 259.49,870.0811 259.49,892.6111 " fill="none" id="Vehicle-Type" style="stroke:#181818;stroke-width:1.0;"/><polygon fill="#000000" points="264.49,858.2666,267.4289,849.2215,261.5511,849.2215,264.49,858.2666" style="stroke:#000000;stroke-width:1.0;"/><text fill="#000000" font-family="sans-serif" font-size="13" lengthAdjust="spacing" textLength="74" x="273.49" y="858.6494">cataloged as</text><text fill="#000000" font-family="sans-serif" font-size="13" lengthAdjust="spacing" textLength="20" x="238.8494" y="835.5964">0..*</text><text fill="#000000" font-family="sans-serif" font-size="13" lengthAdjust="spacing" textLength="7" x="251.9541" y="881.2778">1</text></g><!--link Team to Collaborator--><g id="link_Team_Collaborator"><path codeLine="118" d="M765.34,1155.9511 C754.08,1171.8511 740.8,1189.5011 727.49,1204.6211 C703.67,1231.6911 674.6,1259.3911 650,1281.5311 " fill="none" id="Team-Collaborator" style="stroke:#181818;stroke-width:1.0;"/><polygon fill="#000000" points="744.1078,1198.9491,752.3908,1194.2754,748.0618,1190.2994,744.1078,1198.9491" style="stroke:#000000;stroke-width:1.0;"/><text fill="#000000" font-family="sans-serif" font-size="13" lengthAdjust="spacing" textLength="21" x="756.49" y="1200.6494">has</text><text fill="#000000" font-family="sans-serif" font-size="13" lengthAdjust="spacing" textLength="7" x="753.3977" y="1178.0184">1</text><text fill="#000000" font-family="sans-serif" font-size="13" lengthAdjust="spacing" textLength="20" x="658.0091" y="1271.61">2..*</text></g><!--link Task to Skill--><g id="link_Task_Skill"><path codeLine="119" d="M923.16,955.6211 C937.83,969.5111 957.12,991.0611 965.49,1014.6211 C985.49,1070.9011 940.45,1084.2711 892.49,1155.6211 C795.09,1300.5011 794.26,1362.4011 656.49,1469.6211 C622.3,1496.2311 573.77,1512.4511 545.17,1520.3311 " fill="none" id="Task-Skill" style="stroke:#181818;stroke-width:1.0;"/><polygon fill="#000000" points="874.7088,1199.4217,882.1824,1193.5398,877.2978,1190.2703,874.7088,1199.4217" style="stroke:#000000;stroke-width:1.0;"/><text fill="#000000" font-family="sans-serif" font-size="13" lengthAdjust="spacing" textLength="28" x="886.49" y="1200.6494">need</text><text fill="#000000" font-family="sans-serif" font-size="13" lengthAdjust="spacing" textLength="7" x="931.0581" y="955.7969">1</text><text fill="#000000" font-family="sans-serif" font-size="13" lengthAdjust="spacing" textLength="20" x="552.9585" y="1513.8292">1..*</text></g><!--link Agenda to Task--><g id="link_Agenda_Task"><path codeLine="120" d="M853.62,720.7511 C863.84,764.3111 890.19,876.6711 900.38,920.1111 " fill="none" id="Agenda-Task" style="stroke:#181818;stroke-width:1.0;"/><polygon fill="#000000" points="893.6318,858.1345,894.4276,848.6573,888.705,849.9995,893.6318,858.1345" style="stroke:#000000;stroke-width:1.0;"/><text fill="#000000" font-family="sans-serif" font-size="13" lengthAdjust="spacing" textLength="21" x="901.49" y="858.6494">has</text><text fill="#000000" font-family="sans-serif" font-size="13" lengthAdjust="spacing" textLength="7" x="846.7893" y="742.1606">1</text><text fill="#000000" font-family="sans-serif" font-size="13" lengthAdjust="spacing" textLength="20" x="876.0588" y="908.9702">0..*</text></g><!--link Task to Team--><g id="link_Task_Team"><path codeLine="121" d="M899.31,957.1611 C893.05,976.7611 881.37,1008.9611 865.49,1033.6211 C858.84,1043.9511 850.68,1054.1611 842.32,1063.5711 " fill="none" id="Task-Team" style="stroke:#181818;stroke-width:1.0;"/><polygon fill="#000000" points="878.1294,1028.6743,884.9905,1022.0883,879.809,1019.3132,878.1294,1028.6743" style="stroke:#000000;stroke-width:1.0;"/><text fill="#000000" font-family="sans-serif" font-size="13" lengthAdjust="spacing" textLength="67" x="889.49" y="1029.6494">assigned to</text><text fill="#000000" font-family="sans-serif" font-size="13" lengthAdjust="spacing" textLength="7" x="889.8688" y="978.8886">1</text><text fill="#000000" font-family="sans-serif" font-size="13" lengthAdjust="spacing" textLength="7" x="841.9549" y="1052.2316">1</text></g><!--SRC=[ZLLDSziW4BthLp0-TgQPj4SVEfFQJPEsZZkravpNi94O8r00DL_J_ru4I0PNjUsB0Rst-_OBp9RB1ZJKf5PIqKgh6edLBHPc-D80tKA9A_iYa6Ya5cGfKe2fWAadBalo0C9WaNoY0eovi5RpJMlncYgvugz8pekACoIKQ-ei-NMDjbBC58NbrlcPgngu90l5K1I5DqCMhIdLgjq8xaI-5N_wOsIyhJkxx2VeRVBb1sYdU-J3Lz0CPNgW4UNAHHeCnzEbBa7oLx1SoVJyKY3Q1KYN5UtEYVj9g76mTjNM87-XKQscQ0u0TsvF0jsQVKI4V7biULEZj6bQW5PSfecwmugxV4SB6msI-LNjazojB6ZqYr8hO-wHbvNrUzfgxSn_h_rEOycDHJq76-10dG33kpmDPrtzB4gG56SLqkrjSwdniKL9N_ptHZZaJLjlK0VVByqkviY8KcVH-sBbjzVpS1emtc7FMpiZaTIuFKgNKxFK2_wC8LRHXRJKLmY_WmpLeFoidfTw9fH1TWVIuTUwfLkpo-ytjHchp4m90HkbmQgiBZwzNDkAGN02hER6fDa1nZGQ4vHMIgQPG9Sw4IETAzh557SHrFjVRRaGOyBMw6RlBPRXkPk0WF7qvKEgEqWmdILpWyXSdeQmBqgK398EMeC9OrHaipZvC27ltSylig6P4cu8a4zZUFTtTlPkaixUrCdjvi1qZBsn7aXxZEWWZlGHrDwDS0ITXP9Wi_cVaWhC0V3uPN2CzU_DS3h3NnC7u04VYpibwabsmAoP9-U-D17QjNzlxxymlmeTsMF7Gqyq1yC6XNjL33dEo7oSJ0iYWw_-wkfOtKcEoOAR4jVol9J8Y5KE7ln64IToJX6sPs1GU1gxpyR9jA3Vtn1Jude0dMC_S5bNvqxwboDpSm2_Uu_IYJv0w1-hm_0XO_5roEJq6lFMtK5Zcu_3_Bin9HGi25Mwwld-zKdgXNuSArReStyjZZUfT5UgGyHXouFsj74RGu7oTleB]--></g></svg>