<?xml version="1.0" encoding="us-ascii" standalone="no"?><svg xmlns="http://www.w3.org/2000/svg" xmlns:xlink="http://www.w3.org/1999/xlink" contentStyleType="text/css" height="932px" preserveAspectRatio="none" style="width:1245px;height:932px;background:#FFFFFF;" version="1.1" viewBox="0 0 1245 932" width="1245px" zoomAndPan="magnify"><defs/><g><rect fill="#FFFFFF" height="700.1016" style="stroke:#181818;stroke-width:1.0;" width="10" x="61" y="112.2422"/><rect fill="#FFFFFF" height="74.9121" style="stroke:#181818;stroke-width:1.0;" width="10" x="441" y="135.5332"/><rect fill="#FFFFFF" height="31.291" style="stroke:#181818;stroke-width:1.0;" width="10" x="441" y="241.7363"/><rect fill="#FFFFFF" height="508.0254" style="stroke:#181818;stroke-width:1.0;" width="10" x="441" y="304.3184"/><rect fill="#FFFFFF" height="445.4434" style="stroke:#181818;stroke-width:1.0;" width="10" x="593" y="335.6094"/><rect fill="#FFFFFF" height="31.291" style="stroke:#181818;stroke-width:1.0;" width="10" x="725.5" y="366.9004"/><rect fill="#FFFFFF" height="31.291" style="stroke:#181818;stroke-width:1.0;" width="10" x="832.5" y="429.4824"/><rect fill="#FFFFFF" height="257.6973" style="stroke:#181818;stroke-width:1.0;" width="10" x="945.5" y="492.0645"/><rect fill="#FFFFFF" height="96.5332" style="stroke:#181818;stroke-width:1.0;" width="10" x="1100" y="533.3555"/><line style="stroke:#181818;stroke-width:0.5;stroke-dasharray:5.0,5.0;" x1="66" x2="66" y1="102.2422" y2="830.3438"/><line style="stroke:#181818;stroke-width:0.5;stroke-dasharray:5.0,5.0;" x1="446" x2="446" y1="102.2422" y2="830.3438"/><line style="stroke:#181818;stroke-width:0.5;stroke-dasharray:5.0,5.0;" x1="598" x2="598" y1="175.3438" y2="830.3438"/><line style="stroke:#181818;stroke-width:0.5;stroke-dasharray:5.0,5.0;" x1="730" x2="730" y1="102.2422" y2="830.3438"/><line style="stroke:#181818;stroke-width:0.5;stroke-dasharray:5.0,5.0;" x1="837" x2="837" y1="102.2422" y2="830.3438"/><line style="stroke:#181818;stroke-width:0.5;stroke-dasharray:5.0,5.0;" x1="950" x2="950" y1="102.2422" y2="830.3438"/><line style="stroke:#181818;stroke-width:0.5;stroke-dasharray:5.0,5.0;" x1="1104.5" x2="1104.5" y1="541.1855" y2="830.3438"/><text fill="#000000" font-family="sans-serif" font-size="14" lengthAdjust="spacing" textLength="116" x="5" y="80.1074">Human Resources</text><text fill="#000000" font-family="sans-serif" font-size="14" lengthAdjust="spacing" textLength="56" x="35" y="98.7285">Manager</text><ellipse cx="66" cy="13.5" fill="#E3E3E3" rx="8" ry="8" style="stroke:#181818;stroke-width:0.5;"/><path d="M66,21.5 L66,48.5 M53,29.5 L79,29.5 M66,48.5 L53,63.5 M66,48.5 L79,63.5 " fill="none" style="stroke:#181818;stroke-width:0.5;"/><text fill="#000000" font-family="sans-serif" font-size="14" lengthAdjust="spacing" textLength="116" x="5" y="844.4512">Human Resources</text><text fill="#000000" font-family="sans-serif" font-size="14" lengthAdjust="spacing" textLength="56" x="35" y="863.0723">Manager</text><ellipse cx="66" cy="875.0859" fill="#E3E3E3" rx="8" ry="8" style="stroke:#181818;stroke-width:0.5;"/><path d="M66,883.0859 L66,910.0859 M53,891.0859 L79,891.0859 M66,910.0859 L53,925.0859 M66,910.0859 L79,925.0859 " fill="none" style="stroke:#181818;stroke-width:0.5;"/><rect fill="#E3E3E3" height="32.6211" rx="2.5" ry="2.5" style="stroke:#181818;stroke-width:0.5;" width="98" x="397" y="68.6211"/><text fill="#000000" font-family="sans-serif" font-size="14" lengthAdjust="spacing" textLength="84" x="404" y="90.7285">:CreateSkillUI</text><rect fill="#E3E3E3" height="32.6211" rx="2.5" ry="2.5" style="stroke:#181818;stroke-width:0.5;" width="98" x="397" y="829.3438"/><text fill="#000000" font-family="sans-serif" font-size="14" lengthAdjust="spacing" textLength="84" x="404" y="851.4512">:CreateSkillUI</text><rect fill="#E3E3E3" height="32.6211" rx="2.5" ry="2.5" style="stroke:#181818;stroke-width:0.5;" width="148" x="524" y="829.3438"/><text fill="#000000" font-family="sans-serif" font-size="14" lengthAdjust="spacing" textLength="134" x="531" y="851.4512">:CreateSkillController</text><rect fill="#E3E3E3" height="32.6211" rx="2.5" ry="2.5" style="stroke:#181818;stroke-width:0.5;" width="97" x="682" y="68.6211"/><text fill="#000000" font-family="sans-serif" font-size="14" lengthAdjust="spacing" textLength="83" x="689" y="90.7285">:Repositories</text><rect fill="#E3E3E3" height="32.6211" rx="2.5" ry="2.5" style="stroke:#181818;stroke-width:0.5;" width="97" x="682" y="829.3438"/><text fill="#000000" font-family="sans-serif" font-size="14" lengthAdjust="spacing" textLength="83" x="689" y="851.4512">:Repositories</text><rect fill="#E3E3E3" height="51.2422" rx="2.5" ry="2.5" style="stroke:#181818;stroke-width:0.5;" width="97" x="789" y="50"/><text fill="#000000" font-family="sans-serif" font-size="14" lengthAdjust="spacing" textLength="74" x="800.5" y="72.1074">repositories</text><text fill="#000000" font-family="sans-serif" font-size="14" lengthAdjust="spacing" textLength="83" x="796" y="90.7285">:Repositories</text><rect fill="#E3E3E3" height="51.2422" rx="2.5" ry="2.5" style="stroke:#181818;stroke-width:0.5;" width="97" x="789" y="829.3438"/><text fill="#000000" font-family="sans-serif" font-size="14" lengthAdjust="spacing" textLength="74" x="800.5" y="851.4512">repositories</text><text fill="#000000" font-family="sans-serif" font-size="14" lengthAdjust="spacing" textLength="83" x="796" y="870.0723">:Repositories</text><rect fill="#E3E3E3" height="51.2422" rx="2.5" ry="2.5" style="stroke:#181818;stroke-width:0.5;" width="109" x="896" y="50"/><text fill="#000000" font-family="sans-serif" font-size="14" lengthAdjust="spacing" textLength="95" x="903" y="72.1074">skillRepository:</text><text fill="#000000" font-family="sans-serif" font-size="14" lengthAdjust="spacing" textLength="93" x="904" y="90.7285">SkillRepository</text><rect fill="#E3E3E3" height="51.2422" rx="2.5" ry="2.5" style="stroke:#181818;stroke-width:0.5;" width="109" x="896" y="829.3438"/><text fill="#000000" font-family="sans-serif" font-size="14" lengthAdjust="spacing" textLength="95" x="903" y="851.4512">skillRepository:</text><text fill="#000000" font-family="sans-serif" font-size="14" lengthAdjust="spacing" textLength="93" x="904" y="870.0723">SkillRepository</text><rect fill="#E3E3E3" height="51.2422" rx="2.5" ry="2.5" style="stroke:#181818;stroke-width:0.5;" width="41" x="1084.5" y="829.3438"/><text fill="#000000" font-family="sans-serif" font-size="14" lengthAdjust="spacing" textLength="27" x="1091.5" y="851.4512">skill:</text><text fill="#000000" font-family="sans-serif" font-size="14" lengthAdjust="spacing" textLength="25" x="1092.5" y="870.0723">Skill</text><rect fill="#FFFFFF" height="700.1016" style="stroke:#181818;stroke-width:1.0;" width="10" x="61" y="112.2422"/><rect fill="#FFFFFF" height="74.9121" style="stroke:#181818;stroke-width:1.0;" width="10" x="441" y="135.5332"/><rect fill="#FFFFFF" height="31.291" style="stroke:#181818;stroke-width:1.0;" width="10" x="441" y="241.7363"/><rect fill="#FFFFFF" height="508.0254" style="stroke:#181818;stroke-width:1.0;" width="10" x="441" y="304.3184"/><rect fill="#FFFFFF" height="445.4434" style="stroke:#181818;stroke-width:1.0;" width="10" x="593" y="335.6094"/><rect fill="#FFFFFF" height="31.291" style="stroke:#181818;stroke-width:1.0;" width="10" x="725.5" y="366.9004"/><rect fill="#FFFFFF" height="31.291" style="stroke:#181818;stroke-width:1.0;" width="10" x="832.5" y="429.4824"/><rect fill="#FFFFFF" height="257.6973" style="stroke:#181818;stroke-width:1.0;" width="10" x="945.5" y="492.0645"/><rect fill="#FFFFFF" height="96.5332" style="stroke:#181818;stroke-width:1.0;" width="10" x="1100" y="533.3555"/><polygon fill="#181818" points="429,131.5332,439,135.5332,429,139.5332,433,135.5332" style="stroke:#181818;stroke-width:1.0;"/><line style="stroke:#181818;stroke-width:1.0;" x1="71" x2="435" y1="135.5332" y2="135.5332"/><text fill="#000000" font-family="sans-serif" font-size="13" font-weight="bold" lengthAdjust="spacing" textLength="7" x="78" y="130.2705">1</text><text fill="#000000" font-family="sans-serif" font-size="13" lengthAdjust="spacing" textLength="121" x="89" y="130.2705">asks to create a skill</text><polygon fill="#181818" points="512,162.8242,522,166.8242,512,170.8242,516,166.8242" style="stroke:#181818;stroke-width:1.0;"/><line style="stroke:#181818;stroke-width:1.0;" x1="451" x2="518" y1="166.8242" y2="166.8242"/><text fill="#000000" font-family="sans-serif" font-size="13" font-weight="bold" lengthAdjust="spacing" textLength="7" x="458" y="161.5615">2</text><text fill="#000000" font-family="sans-serif" font-size="13" lengthAdjust="spacing" textLength="36" x="469" y="161.5615">create</text><rect fill="#E3E3E3" height="32.6211" rx="2.5" ry="2.5" style="stroke:#181818;stroke-width:0.5;" width="148" x="524" y="143.5332"/><text fill="#000000" font-family="sans-serif" font-size="14" lengthAdjust="spacing" textLength="134" x="531" y="165.6406">:CreateSkillController</text><polygon fill="#181818" points="82,206.4453,72,210.4453,82,214.4453,78,210.4453" style="stroke:#181818;stroke-width:1.0;"/><line style="stroke:#181818;stroke-width:1.0;stroke-dasharray:2.0,2.0;" x1="76" x2="445" y1="210.4453" y2="210.4453"/><text fill="#000000" font-family="sans-serif" font-size="13" font-weight="bold" lengthAdjust="spacing" textLength="7" x="88" y="205.1826">3</text><text fill="#000000" font-family="sans-serif" font-size="13" lengthAdjust="spacing" textLength="79" x="99" y="205.1826">requests data</text><polygon fill="#181818" points="429,237.7363,439,241.7363,429,245.7363,433,241.7363" style="stroke:#181818;stroke-width:1.0;"/><line style="stroke:#181818;stroke-width:1.0;" x1="71" x2="435" y1="241.7363" y2="241.7363"/><text fill="#000000" font-family="sans-serif" font-size="13" font-weight="bold" lengthAdjust="spacing" textLength="7" x="78" y="236.4736">4</text><text fill="#000000" font-family="sans-serif" font-size="13" lengthAdjust="spacing" textLength="122" x="89" y="236.4736">types requested data</text><polygon fill="#181818" points="82,269.0273,72,273.0273,82,277.0273,78,273.0273" style="stroke:#181818;stroke-width:1.0;"/><line style="stroke:#181818;stroke-width:1.0;stroke-dasharray:2.0,2.0;" x1="76" x2="445" y1="273.0273" y2="273.0273"/><text fill="#000000" font-family="sans-serif" font-size="13" font-weight="bold" lengthAdjust="spacing" textLength="7" x="88" y="267.7646">5</text><text fill="#000000" font-family="sans-serif" font-size="13" lengthAdjust="spacing" textLength="335" x="99" y="267.7646">Shows all data and requests confirmation for the operation</text><polygon fill="#181818" points="429,300.3184,439,304.3184,429,308.3184,433,304.3184" style="stroke:#181818;stroke-width:1.0;"/><line style="stroke:#181818;stroke-width:1.0;" x1="71" x2="435" y1="304.3184" y2="304.3184"/><text fill="#000000" font-family="sans-serif" font-size="13" font-weight="bold" lengthAdjust="spacing" textLength="7" x="78" y="299.0557">6</text><text fill="#000000" font-family="sans-serif" font-size="13" lengthAdjust="spacing" textLength="80" x="89" y="299.0557">Confirms data</text><polygon fill="#181818" points="581,331.6094,591,335.6094,581,339.6094,585,335.6094" style="stroke:#181818;stroke-width:1.0;"/><line style="stroke:#181818;stroke-width:1.0;" x1="451" x2="587" y1="335.6094" y2="335.6094"/><text fill="#000000" font-family="sans-serif" font-size="13" font-weight="bold" lengthAdjust="spacing" textLength="7" x="458" y="330.3467">7</text><text fill="#000000" font-family="sans-serif" font-size="13" lengthAdjust="spacing" textLength="112" x="469" y="330.3467">registerSkill (name)</text><polygon fill="#181818" points="713.5,362.9004,723.5,366.9004,713.5,370.9004,717.5,366.9004" style="stroke:#181818;stroke-width:1.0;"/><line style="stroke:#181818;stroke-width:1.0;" x1="603" x2="719.5" y1="366.9004" y2="366.9004"/><text fill="#000000" font-family="sans-serif" font-size="13" font-weight="bold" lengthAdjust="spacing" textLength="7" x="610" y="361.6377">8</text><text fill="#000000" font-family="sans-serif" font-size="13" lengthAdjust="spacing" textLength="75" x="621" y="361.6377">getInstance()</text><polygon fill="#181818" points="614,394.1914,604,398.1914,614,402.1914,610,398.1914" style="stroke:#181818;stroke-width:1.0;"/><line style="stroke:#181818;stroke-width:1.0;stroke-dasharray:2.0,2.0;" x1="608" x2="729.5" y1="398.1914" y2="398.1914"/><text fill="#000000" font-family="sans-serif" font-size="13" font-weight="bold" lengthAdjust="spacing" textLength="7" x="620" y="392.9287">9</text><text fill="#000000" font-family="sans-serif" font-size="13" lengthAdjust="spacing" textLength="57" x="631" y="392.9287">repository</text><polygon fill="#181818" points="820.5,425.4824,830.5,429.4824,820.5,433.4824,824.5,429.4824" style="stroke:#181818;stroke-width:1.0;"/><line style="stroke:#181818;stroke-width:1.0;" x1="603" x2="826.5" y1="429.4824" y2="429.4824"/><text fill="#000000" font-family="sans-serif" font-size="13" font-weight="bold" lengthAdjust="spacing" textLength="14" x="610" y="424.2197">10</text><text fill="#000000" font-family="sans-serif" font-size="13" lengthAdjust="spacing" textLength="105" x="628" y="424.2197">getSkillRepository</text><polygon fill="#181818" points="614,456.7734,604,460.7734,614,464.7734,610,460.7734" style="stroke:#181818;stroke-width:1.0;"/><line style="stroke:#181818;stroke-width:1.0;stroke-dasharray:2.0,2.0;" x1="608" x2="836.5" y1="460.7734" y2="460.7734"/><text fill="#000000" font-family="sans-serif" font-size="13" font-weight="bold" lengthAdjust="spacing" textLength="14" x="620" y="455.5107">11</text><text fill="#000000" font-family="sans-serif" font-size="13" lengthAdjust="spacing" textLength="91" x="638" y="455.5107">Skill Repository</text><polygon fill="#181818" points="933.5,488.0645,943.5,492.0645,933.5,496.0645,937.5,492.0645" style="stroke:#181818;stroke-width:1.0;"/><line style="stroke:#181818;stroke-width:1.0;" x1="603" x2="939.5" y1="492.0645" y2="492.0645"/><text fill="#000000" font-family="sans-serif" font-size="13" font-weight="bold" lengthAdjust="spacing" textLength="14" x="610" y="486.8018">12</text><text fill="#000000" font-family="sans-serif" font-size="13" lengthAdjust="spacing" textLength="112" x="628" y="486.8018">registerSkill (name)</text><polygon fill="#181818" points="1072.5,519.3555,1082.5,523.3555,1072.5,527.3555,1076.5,523.3555" style="stroke:#181818;stroke-width:1.0;"/><line style="stroke:#181818;stroke-width:1.0;" x1="955.5" x2="1078.5" y1="523.3555" y2="523.3555"/><text fill="#000000" font-family="sans-serif" font-size="13" font-weight="bold" lengthAdjust="spacing" textLength="14" x="962.5" y="518.0928">13</text><text fill="#000000" font-family="sans-serif" font-size="13" lengthAdjust="spacing" textLength="87" x="980.5" y="518.0928">register (name)</text><rect fill="#E3E3E3" height="51.2422" rx="2.5" ry="2.5" style="stroke:#181818;stroke-width:0.5;" width="41" x="1084.5" y="500.0645"/><text fill="#000000" font-family="sans-serif" font-size="14" lengthAdjust="spacing" textLength="27" x="1091.5" y="522.1719">skill:</text><text fill="#000000" font-family="sans-serif" font-size="14" lengthAdjust="spacing" textLength="25" x="1092.5" y="540.793">Skill</text><line style="stroke:#181818;stroke-width:1.0;" x1="1110" x2="1152" y1="585.5977" y2="585.5977"/><line style="stroke:#181818;stroke-width:1.0;" x1="1152" x2="1152" y1="585.5977" y2="598.5977"/><line style="stroke:#181818;stroke-width:1.0;" x1="1111" x2="1152" y1="598.5977" y2="598.5977"/><polygon fill="#181818" points="1121,594.5977,1111,598.5977,1121,602.5977,1117,598.5977" style="stroke:#181818;stroke-width:1.0;"/><text fill="#000000" font-family="sans-serif" font-size="13" font-weight="bold" lengthAdjust="spacing" textLength="14" x="1117" y="580.335">14</text><text fill="#000000" font-family="sans-serif" font-size="13" lengthAdjust="spacing" textLength="103" x="1135" y="580.335">validateSkill (skill)</text><polygon fill="#181818" points="966.5,625.8887,956.5,629.8887,966.5,633.8887,962.5,629.8887" style="stroke:#181818;stroke-width:1.0;"/><line style="stroke:#181818;stroke-width:1.0;" x1="960.5" x2="1104" y1="629.8887" y2="629.8887"/><text fill="#000000" font-family="sans-serif" font-size="13" font-weight="bold" lengthAdjust="spacing" textLength="14" x="972.5" y="624.626">15</text><text fill="#000000" font-family="sans-serif" font-size="13" lengthAdjust="spacing" textLength="23" x="990.5" y="624.626">skill</text><line style="stroke:#181818;stroke-width:1.0;" x1="955.5" x2="997.5" y1="661.1797" y2="661.1797"/><line style="stroke:#181818;stroke-width:1.0;" x1="997.5" x2="997.5" y1="661.1797" y2="674.1797"/><line style="stroke:#181818;stroke-width:1.0;" x1="956.5" x2="997.5" y1="674.1797" y2="674.1797"/><polygon fill="#181818" points="966.5,670.1797,956.5,674.1797,966.5,678.1797,962.5,674.1797" style="stroke:#181818;stroke-width:1.0;"/><text fill="#000000" font-family="sans-serif" font-size="13" font-weight="bold" lengthAdjust="spacing" textLength="14" x="962.5" y="655.917">16</text><text fill="#000000" font-family="sans-serif" font-size="13" lengthAdjust="spacing" textLength="103" x="980.5" y="655.917">registerSkill (skill)</text><line style="stroke:#181818;stroke-width:1.0;" x1="955.5" x2="997.5" y1="705.4707" y2="705.4707"/><line style="stroke:#181818;stroke-width:1.0;" x1="997.5" x2="997.5" y1="705.4707" y2="718.4707"/><line style="stroke:#181818;stroke-width:1.0;" x1="956.5" x2="997.5" y1="718.4707" y2="718.4707"/><polygon fill="#181818" points="966.5,714.4707,956.5,718.4707,966.5,722.4707,962.5,718.4707" style="stroke:#181818;stroke-width:1.0;"/><text fill="#000000" font-family="sans-serif" font-size="13" font-weight="bold" lengthAdjust="spacing" textLength="14" x="962.5" y="700.208">17</text><text fill="#000000" font-family="sans-serif" font-size="13" lengthAdjust="spacing" textLength="81" x="980.5" y="700.208">addSkill (skill)</text><polygon fill="#181818" points="614,745.7617,604,749.7617,614,753.7617,610,749.7617" style="stroke:#181818;stroke-width:1.0;"/><line style="stroke:#181818;stroke-width:1.0;stroke-dasharray:2.0,2.0;" x1="608" x2="949.5" y1="749.7617" y2="749.7617"/><text fill="#000000" font-family="sans-serif" font-size="13" font-weight="bold" lengthAdjust="spacing" textLength="14" x="620" y="744.499">18</text><text fill="#000000" font-family="sans-serif" font-size="13" lengthAdjust="spacing" textLength="23" x="638" y="744.499">skill</text><polygon fill="#181818" points="462,777.0527,452,781.0527,462,785.0527,458,781.0527" style="stroke:#181818;stroke-width:1.0;"/><line style="stroke:#181818;stroke-width:1.0;stroke-dasharray:2.0,2.0;" x1="456" x2="597" y1="781.0527" y2="781.0527"/><text fill="#000000" font-family="sans-serif" font-size="13" font-weight="bold" lengthAdjust="spacing" textLength="14" x="468" y="775.79">19</text><text fill="#000000" font-family="sans-serif" font-size="13" lengthAdjust="spacing" textLength="23" x="486" y="775.79">skill</text><polygon fill="#181818" points="77,808.3438,67,812.3438,77,816.3438,73,812.3438" style="stroke:#181818;stroke-width:1.0;"/><line style="stroke:#181818;stroke-width:1.0;stroke-dasharray:2.0,2.0;" x1="71" x2="445" y1="812.3438" y2="812.3438"/><text fill="#000000" font-family="sans-serif" font-size="13" font-weight="bold" lengthAdjust="spacing" textLength="14" x="83" y="807.0811">20</text><text fill="#000000" font-family="sans-serif" font-size="13" lengthAdjust="spacing" textLength="160" x="101" y="807.0811">Displays operation success</text><!--SRC=[ZLN1Rjim3BtxAuXSbXJe3_ZGIpQWmL9WiDTRBgpDE49aoPNaTldxKV9iot6SLQT4VE_faHHbUnQgGOCrr5hfucHqJU1CIuaT8WqMPwmeTnT9OAXmg2eP0-m9I_qfL0L7b9QI15kdLLk_aKcIRoTH4XorTc_wJuA5qmPMpssD2ZAokZK5sODwGSL7c1MWXUVi9M5X9mhHe7AmIhU6q55-5bA-xWBcTRSCsMhbZ9RodzpsTxQ_0cVKQ2lOYI0RCDcFNrE8YH07TPEGJndM7ptWBkb1vTETmElshayBt9xHuNxkzll4bqjyS5wX9WdmuX_m-CJvGyguimMdeGYv0qBG2R21o8KA6tunYQc-7WyFJEzeNTY7EERLK-xnUqlMMIZHOGYND1ECZRXBGxQdKJdoPgpnd3G_wKyBA6M00wfoFBZGwYXCZKvenNV7W3iHw8PCsFc2fMqdOEzOcLOaf5q9jcz25s2jiARDW1peuJeDstu5EijmMrcb8hTJbcUaeFLcWXiaVFyd4SzyZ8tqTsQ2YZAUAKGUyix4rUrRT9BFhEInbwuOsLSSvRSjzLV-VnMU61lcP18UfBoidv1mZtlL-uBTGC7L2jk378jze1Hb_vB0EapKvXvlp6wSleKQBNc8ireirgAJssmiopl4aJHsUcu_jZxhHzVU_WMOaYFYE2xn4_DTs4RYnOup3ROj-4jWRyrsz3UyWty1]--></g></svg>